<svg xmlns="http://www.w3.org/2000/svg" viewBox="0 0 36 36"><title>Icon-Red_Hat-Signage-No_Food-A-Black-RGB</title><path d="M8.28 8.29a.74.74 0 0 0 0 1.06l.06.05a.72.72 0 0 0 .16.24l3.79 3.79a6.76 6.76 0 0 0-1 3.59.76.76 0 0 0 .75.75h4.63l1 1a2.44 2.44 0 0 0-1.32.64.88.88 0 0 1-.68.32.91.91 0 0 1-.68-.32 2.29 2.29 0 0 0-1.65-.68 2.32 2.32 0 0 0-1.66.68c-.26.22-.37.32-.68.32a.75.75 0 0 0 0 1.5 2.38 2.38 0 0 0 1.66-.68.88.88 0 0 1 .68-.32.91.91 0 0 1 .68.32 2.33 2.33 0 0 0 1.65.68 2.38 2.38 0 0 0 1.66-.68.87.87 0 0 1 1.35 0 2.48 2.48 0 0 0 1.42.65l1 1H12a.75.75 0 0 0-.75.75v2a.76.76 0 0 0 .75.75h12a.76.76 0 0 0 .46-.17l1.92 1.92a.78.78 0 0 0 .24.16v.06a.74.74 0 0 0 .53.22.73.73 0 0 0 .53-.22A13.75 13.75 0 0 0 8.28 8.29zm4.52 8a5.23 5.23 0 0 1 .58-1.75l1.75 1.75zm4.45 0l-2.95-2.97a5.23 5.23 0 0 1 8.9 2.95zm-4.5 8v-.5h9.88l.5.5zm14.39 1.89l-2.39-2.39V23a.75.75 0 0 0-.75-.75h-.75l-1.49-1.49.23-.19c.26-.22.37-.32.68-.32a.91.91 0 0 1 .68.32 2.33 2.33 0 0 0 1.65.68.75.75 0 0 0 0-1.5c-.31 0-.42-.1-.68-.32a2.34 2.34 0 0 0-3.3 0 3.54 3.54 0 0 1-.34.25l-1.93-1.93H24a.76.76 0 0 0 .75-.75 6.75 6.75 0 0 0-11.52-4.77L9.86 8.88a12.24 12.24 0 0 1 17.28 17.28z"/><path d="M18 31.75a13.64 13.64 0 0 0 7.37-2.14.76.76 0 0 0 .23-1 .75.75 0 0 0-1-.23A12.26 12.26 0 0 1 7.67 11.42a.75.75 0 0 0-1.26-.81A13.74 13.74 0 0 0 18 31.75z"/></svg>