<svg xmlns="http://www.w3.org/2000/svg" viewBox="0 0 31.68 31.68"><path d="M15.15 25.88c-.31-.01-.63-.04-.94-.09-.13-.02-.26.07-.27.21-.02.13.07.26.21.27.33.05.66.08.99.09h.01c.13 0 .24-.1.24-.23-.01-.13-.11-.24-.24-.25zM13.27 25.62c-.31-.07-.61-.16-.91-.26-.13-.04-.26.03-.31.15-.04.13.03.26.15.31.31.1.63.19.96.27.02 0 .04.01.06.01.11 0 .21-.08.24-.19.02-.12-.06-.26-.19-.29zM17.04 25.79c-.31.04-.63.07-.94.09-.13.01-.24.12-.23.25.01.13.11.23.24.23h.01c.33-.02.66-.05.99-.09.13-.02.23-.14.21-.27-.03-.13-.15-.23-.28-.21zM11.47 25.03c-.29-.13-.58-.27-.85-.42-.12-.06-.26-.02-.33.1s-.02.27.1.33c.29.16.59.31.89.44.03.01.06.02.1.02.09 0 .18-.05.22-.15.05-.12 0-.27-.13-.32zM18.88 25.36c-.3.1-.61.19-.91.26-.13.03-.21.16-.18.29.03.11.13.19.24.19.02 0 .04 0 .06-.01.32-.08.64-.17.95-.27.13-.04.2-.18.15-.31-.05-.13-.18-.2-.31-.15zM9.06 23.55c-.1-.08-.26-.07-.34.03-.09.1-.07.26.03.34.25.21.52.41.8.59.04.03.09.04.14.04.08 0 .15-.04.2-.11.08-.11.05-.26-.06-.34-.28-.16-.53-.35-.77-.55zM26.15 15.48c-.14 0-.24.11-.25.24 0 .13-.01.26-.01.39-.01.13.1.25.23.25h.01c.13 0 .24-.1.24-.23.01-.14.01-.27.01-.41.01-.13-.1-.24-.23-.24zM25.66 18.74c-.13-.04-.26.03-.31.15-.1.3-.22.6-.34.88-.05.12 0 .27.12.32.03.01.07.02.1.02.09 0 .18-.05.22-.14.13-.3.26-.61.36-.92.05-.13-.02-.27-.15-.31zM26.07 16.85c-.13-.02-.26.07-.27.21-.05.31-.11.63-.18.93-.03.13.05.26.18.29.02 0 .04.01.06.01.11 0 .21-.07.24-.19.08-.32.14-.65.19-.97.01-.14-.09-.26-.22-.28zM7.71 22.22c-.09-.1-.24-.12-.34-.03-.1.09-.12.24-.03.34.21.25.44.5.67.73.05.05.11.07.17.07.06 0 .12-.02.17-.07.09-.1.09-.25 0-.34-.22-.23-.44-.46-.64-.7zM20.61 24.59c-.12.07-.25.14-.38.2-.15.08-.31.15-.47.22-.12.05-.18.2-.12.32.04.09.13.14.22.14.03 0 .07-.01.1-.02.16-.07.33-.15.49-.23.13-.07.27-.14.4-.21.12-.06.16-.21.09-.33-.06-.11-.21-.16-.33-.09zM22.17 23.52c-.24.2-.5.39-.76.57-.11.08-.14.23-.06.34.05.07.12.11.2.11.05 0 .09-.01.14-.04.27-.19.54-.39.79-.6.1-.09.12-.24.03-.34-.08-.11-.23-.12-.34-.04zM23.52 22.18c-.2.24-.42.48-.64.7-.09.09-.09.25 0 .34.05.05.11.07.17.07.06 0 .12-.02.17-.07.23-.23.46-.48.67-.73.09-.1.07-.26-.03-.34-.11-.08-.26-.07-.34.03zM24.92 20.53c-.12-.07-.26-.02-.33.09-.15.27-.32.54-.5.8-.08.11-.05.26.06.34.04.03.09.04.14.04.08 0 .15-.04.2-.11.19-.27.36-.56.52-.84.07-.11.02-.25-.09-.32zM20.6 6.85l-.58.8c-.02.04-.03.1-.01.15.02.05.06.09.11.1l2.99.62c.06.01.12-.01.16-.06.04-.05.04-.11.01-.17L21.79 5.6c-.03-.05-.07-.08-.13-.08-.05 0-.1.02-.13.06l-.63.87c-4.25-2.12-9.41-1.22-12.7 2.27-3.26 3.47-3.85 8.75-1.44 12.85.05.08.13.12.21.12.04 0 .08-.01.12-.03.12-.07.15-.22.09-.33-2.3-3.91-1.73-8.96 1.38-12.27 3.11-3.32 8-4.19 12.04-2.21z"/><path d="M15.83 8.35c-4.12 0-7.47 3.35-7.47 7.47s3.35 7.47 7.47 7.47 7.47-3.35 7.47-7.47-3.34-7.47-7.47-7.47zm0 14.59c-3.92 0-7.11-3.19-7.11-7.11s3.19-7.11 7.11-7.11c3.92 0 7.11 3.19 7.11 7.11s-3.19 7.11-7.11 7.11z"/><path d="M15.87 9.26c-3.59 0-6.51 2.92-6.51 6.51s2.92 6.51 6.51 6.51 6.51-2.92 6.51-6.51c0-3.58-2.92-6.51-6.51-6.51zm3.32 11.8l-.32-.57c-.07-.11-.21-.15-.33-.09-.11.07-.15.21-.09.33l.33.57c-.8.43-1.71.68-2.67.72v-.65c0-.13-.11-.24-.24-.24s-.24.11-.24.24v.65c-.96-.04-1.87-.29-2.67-.72l.33-.57c.07-.11.03-.26-.09-.33-.11-.07-.26-.03-.33.09l-.33.56c-.79-.5-1.46-1.17-1.95-1.95l.56-.33c.11-.07.15-.21.09-.33-.07-.11-.21-.15-.33-.09l-.57.33c-.43-.8-.68-1.71-.72-2.67h.65c.13 0 .24-.11.24-.24s-.11-.24-.24-.24h-.64c.04-.96.29-1.87.72-2.67l.57.33c.04.02.08.03.12.03.08 0 .16-.04.21-.12.07-.11.03-.26-.09-.33l-.57-.33c.5-.79 1.17-1.46 1.95-1.95l.33.56c.04.08.12.12.21.12.04 0 .08-.01.12-.03.11-.07.15-.21.09-.33l-.33-.57c.8-.43 1.71-.68 2.67-.72v.65c0 .13.11.24.24.24s.24-.11.24-.24v-.63c.96.04 1.87.29 2.67.72l-.33.57c-.07.11-.03.26.09.33.04.02.08.03.12.03.08 0 .16-.04.21-.12l.33-.57c.79.5 1.46 1.17 1.96 1.96l-.56.33c-.11.07-.15.21-.09.33.04.08.12.12.21.12.04 0 .08-.01.12-.03l.57-.33c.42.8.68 1.71.72 2.67h-.65c-.13 0-.24.11-.24.24s.11.24.24.24h.65c-.04.96-.29 1.87-.72 2.67l-.57-.33c-.11-.07-.26-.03-.33.09-.07.11-.03.26.09.33l.57.33c-.53.77-1.19 1.44-1.98 1.94z"/><path d="M18.24 16.93l-2.05-1.21V12.1c0-.2-.16-.36-.36-.36-.2 0-.36.16-.36.36v3.84c0 .15.09.28.23.34l2.18 1.28c.06.03.12.05.18.05.12 0 .25-.06.31-.18.1-.17.04-.4-.13-.5z"/></svg>