<svg xmlns="http://www.w3.org/2000/svg" viewBox="0 0 32 32"><path d="M13.96 14.81c0 .12.09.2.2.2s.2-.09.2-.2v-.02c0-.11-.09-.2-.2-.2-.11.01-.2.1-.2.22 0-.01 0 0 0 0zm-1.42.71s0 .01 0 0c0 .12.09.21.2.21s.2-.09.2-.2v-.02c0-.11-.09-.2-.2-.2-.11.01-.2.09-.2.21zm2.12-.71c0 .12.09.21.2.21s.2-.09.2-.2v-.02c0-.11-.09-.2-.2-.2s-.2.09-.2.21c0-.01 0 0 0 0zm.72.71s0 .01 0 0c0 .12.09.21.2.21s.2-.09.2-.2v-.02c0-.11-.09-.2-.2-.2s-.2.09-.2.21zm-2.84-.71c0 .12.09.21.2.21s.2-.09.2-.2v-.02c0-.11-.09-.2-.2-.2s-.2.09-.2.21c0-.01 0 0 0 0zm.7.71s0 .01 0 0c0 .12.09.21.2.21s.2-.09.2-.2v-.02c0-.11-.09-.2-.2-.2-.11.01-.2.09-.2.21zm.72 0s0 .01 0 0c0 .12.09.21.2.21s.2-.09.2-.2v-.02c0-.11-.09-.2-.2-.2-.11.01-.2.1-.2.21zm1.42-.71c0 .12.09.21.2.21s.2-.09.2-.2v-.02c0-.11-.09-.2-.2-.2s-.2.09-.2.21c0-.01 0 0 0 0zm-2.14 0c0 .12.09.21.2.21s.2-.09.2-.2v-.02c0-.11-.09-.2-.2-.2s-.2.09-.2.21c0-.01 0 0 0 0zm2.84 4.77c0 .01 0 .01 0 0 0 .12.09.21.2.21s.2-.09.2-.2v-.01-.01c0-.11-.09-.2-.2-.2-.11.01-.2.1-.2.21zm1.42 0c0 .01 0 .01 0 0 0 .12.09.21.2.21s.2-.09.2-.2v-.01-.01c0-.11-.09-.2-.2-.2-.11.01-.2.1-.2.21zm0 .72c0 .12.09.21.2.21s.2-.09.2-.2v-.01-.01c0-.11-.09-.2-.2-.2-.11 0-.2.09-.2.21 0-.01 0-.01 0 0zm-.7-.72c0 .01 0 .01 0 0 0 .12.09.2.2.2s.2-.09.2-.2v-.01-.01c0-.11-.09-.2-.2-.2-.11.02-.2.11-.2.22zm0 .72c0 .12.09.2.2.2s.2-.09.2-.2v-.01-.01c0-.11-.09-.2-.2-.2-.11.01-.2.1-.2.22 0-.01 0 0 0 0zm-.72-5.49c0 .12.09.21.2.21s.2-.09.2-.2v-.02c0-.11-.09-.2-.2-.2s-.2.09-.2.21c0-.01 0 0 0 0zm0 .71s0 .01 0 0c0 .12.09.21.2.21s.2-.09.2-.2v-.02c0-.11-.09-.2-.2-.2-.11.01-.2.09-.2.21zm2.12 4.78c0 .11.09.2.2.2s.2-.09.2-.2c0-.11-.09-.2-.2-.2-.12 0-.2.08-.2.2 0-.01 0-.01 0 0zm0-.72s0 .01 0 0c0 .11.09.2.2.2s.2-.09.2-.2c0-.11-.09-.2-.2-.2-.12 0-.2.09-.2.2zm-3.54-4.06s0 .01 0 0c0 .12.09.21.2.21s.2-.09.2-.2v-.02c0-.11-.09-.2-.2-.2-.11.01-.2.09-.2.21zm-.7-3.1c0 .12.09.2.2.2s.2-.09.2-.2v-.02c0-.11-.09-.2-.2-.2-.11.01-.2.1-.2.22 0-.01 0-.01 0 0zm.7.71s0 .01 0 0c0 .12.09.21.2.21s.2-.09.2-.2v-.01-.01c0-.11-.09-.2-.2-.2s-.2.09-.2.21c0-.01 0 0 0 0zm0-.71c0 .12.09.21.2.21s.2-.09.2-.2v-.02c0-.11-.09-.2-.2-.2s-.2.09-.2.21c0-.01 0-.01 0 0zm.72.71s0 .01 0 0c0 .12.09.21.2.21s.2-.09.2-.2v-.01-.01c0-.11-.09-.2-.2-.2s-.2.09-.2.21c0-.01 0 0 0 0zm-1.42 0c0 .12.09.2.2.2s.2-.09.2-.2v-.01-.01c0-.11-.09-.2-.2-.2-.11.02-.2.1-.2.22zm-1.42-.71c0 .12.09.21.2.21s.2-.09.2-.2v-.02c0-.11-.09-.2-.2-.2s-.2.09-.2.21c0-.01 0-.01 0 0zm0 .71s0 .01 0 0c0 .12.09.21.2.21s.2-.09.2-.2v-.01-.01c0-.11-.09-.2-.2-.2s-.2.09-.2.21c0-.01 0 0 0 0zm.7 0s0 .01 0 0c0 .12.09.21.2.21s.2-.09.2-.2v-.01-.01c0-.11-.09-.2-.2-.2s-.2.09-.2.21c0-.01 0 0 0 0zm0-.71c0 .12.09.21.2.21s.2-.09.2-.2v-.02c0-.11-.09-.2-.2-.2s-.2.09-.2.21c0-.01 0-.01 0 0zm4.26 0c0 .12.09.21.2.21s.2-.09.2-.2v-.02c0-.11-.09-.2-.2-.2s-.2.09-.2.21c0-.01 0-.01 0 0zm-.7 0c0 .12.09.2.2.2s.2-.09.2-.2v-.02c0-.11-.09-.2-.2-.2-.11.01-.2.1-.2.22 0-.01 0-.01 0 0zm1.4 0c0 .11.09.2.2.2s.2-.09.2-.2c0-.11-.09-.2-.2-.2-.12 0-.2.08-.2.2 0-.01 0 0 0 0zm-.7.71s0 .01 0 0c0 .12.09.21.2.21s.2-.09.2-.2v-.01-.01c0-.11-.09-.2-.2-.2s-.2.09-.2.21c0-.01 0 0 0 0zm.7 0c0 .11.09.2.2.2s.2-.09.2-.2c0-.11-.09-.2-.2-.2-.12 0-.2.09-.2.2zm-2.82-.71c0 .12.09.21.2.21s.2-.09.2-.2v-.02c0-.11-.09-.2-.2-.2s-.2.09-.2.21c0-.01 0-.01 0 0zm1.42.71c0 .12.09.2.2.2s.2-.09.2-.2v-.01-.01c0-.11-.09-.2-.2-.2-.11.02-.2.1-.2.22zm-.72 0s0 .01 0 0c0 .12.09.21.2.21s.2-.09.2-.2v-.01-.01c0-.11-.09-.2-.2-.2s-.2.09-.2.21c0-.01 0 0 0 0zm0-.71c0 .12.09.21.2.21s.2-.09.2-.2v-.02c0-.11-.09-.2-.2-.2s-.2.09-.2.21c0-.01 0-.01 0 0zm-2.12 4.78c0 .12.09.2.2.2s.2-.09.2-.2v-.01-.01c0-.11-.09-.2-.2-.2-.11.02-.2.1-.2.22zm2.84 0c0 .12.09.2.2.2s.2-.09.2-.2v-.01-.01c0-.11-.09-.2-.2-.2-.11.02-.2.1-.2.22zm0 .71s0 .01 0 0c0 .12.09.2.2.2s.2-.09.2-.2v-.01-.01c0-.11-.09-.2-.2-.2-.11.02-.2.11-.2.22zm.7 0c0 .01 0 .01 0 0 0 .12.09.21.2.21s.2-.09.2-.2v-.01-.01c0-.11-.09-.2-.2-.2-.11.01-.2.1-.2.21zm-1.42-.71s0 .01 0 0c0 .12.09.21.2.21s.2-.09.2-.2v-.01-.01c0-.11-.09-.2-.2-.2-.11 0-.2.09-.2.21 0-.01 0 0 0 0zm1.42 0s0 .01 0 0c0 .12.09.21.2.21s.2-.09.2-.2v-.01-.01c0-.11-.09-.2-.2-.2-.11 0-.2.09-.2.21 0-.01 0 0 0 0zm-2.12.71c0 .01 0 .01 0 0 0 .12.09.21.2.21s.2-.09.2-.2v-.01-.01c0-.11-.09-.2-.2-.2s-.2.1-.2.21zm.7 0c0 .01 0 .01 0 0 0 .12.09.21.2.21s.2-.09.2-.2v-.01-.01c0-.11-.09-.2-.2-.2-.11.01-.2.1-.2.21zm-3.54 0c0 .01 0 .01 0 0 0 .12.09.21.2.21s.2-.09.2-.2v-.01-.01c0-.11-.09-.2-.2-.2-.11.01-.2.1-.2.21zm2.84-.71s0 .01 0 0c0 .12.09.21.2.21s.2-.09.2-.2v-.01-.01c0-.11-.09-.2-.2-.2s-.2.09-.2.21c0-.01 0 0 0 0zm-2.84 0s0 .01 0 0c0 .12.09.21.2.21s.2-.09.2-.2v-.01-.01c0-.11-.09-.2-.2-.2-.11 0-.2.09-.2.21 0-.01 0 0 0 0zm.7 2.38c0 .01 0 .01 0 0 0 .12.09.21.2.21s.2-.09.2-.2v-.01-.01c0-.11-.09-.2-.2-.2-.11.01-.2.1-.2.21zm0 .72c0 .12.09.21.2.21s.2-.09.2-.2v-.01-.01c0-.11-.09-.2-.2-.2-.11 0-.2.09-.2.21 0-.01 0-.01 0 0zm4.96-2.39c0 .11.09.2.2.2s.2-.09.2-.2c0-.11-.09-.2-.2-.2-.12 0-.2.09-.2.2zm-2.12 2.39c0 .12.09.21.2.21s.2-.09.2-.2v-.01-.01c0-.11-.09-.2-.2-.2-.11 0-.2.09-.2.21 0-.01 0-.01 0 0zm2.12-3.1c0 .11.09.2.2.2s.2-.09.2-.2c0-.11-.09-.2-.2-.2-.12 0-.2.09-.2.2zm-5.66 2.38c0 .01 0 .01 0 0 0 .12.09.21.2.21s.2-.09.2-.2v-.01-.01c0-.11-.09-.2-.2-.2-.11.01-.2.1-.2.21zm0 .72c0 .12.09.21.2.21s.2-.09.2-.2v-.01-.01c0-.11-.09-.2-.2-.2-.11 0-.2.09-.2.21 0-.01 0-.01 0 0zm2.12-2.39c0 .01 0 .01 0 0 0 .12.09.21.2.21s.2-.09.2-.2v-.01-.01c0-.11-.09-.2-.2-.2-.11.01-.2.1-.2.21zm3.54-3.1c0 .11.09.2.2.2s.2-.09.2-.2c0-.11-.09-.2-.2-.2-.12 0-.2.09-.2.2zm-4.24 4.77c0 .01 0 .01 0 0 0 .12.09.2.2.2s.2-.09.2-.2v-.01-.01c0-.11-.09-.2-.2-.2-.11.02-.2.11-.2.22zm0 .72c0 .12.09.2.2.2s.2-.09.2-.2v-.01-.01c0-.11-.09-.2-.2-.2-.11.01-.2.1-.2.22 0-.01 0 0 0 0zm-.72-3.1s0 .01 0 0c0 .12.09.21.2.21s.2-.09.2-.2v-.01-.01c0-.11-.09-.2-.2-.2-.11 0-.2.09-.2.21 0-.01 0 0 0 0zm0 .71c0 .01 0 .01 0 0 0 .12.09.21.2.21s.2-.09.2-.2v-.01-.01c0-.11-.09-.2-.2-.2-.11.01-.2.1-.2.21zm2.14 1.67c0 .01 0 .01 0 0 0 .12.09.21.2.21s.2-.09.2-.2v-.01-.01c0-.11-.09-.2-.2-.2s-.2.1-.2.21zm0 .72c0 .12.09.21.2.21s.2-.09.2-.2v-.01-.01c0-.11-.09-.2-.2-.2s-.2.09-.2.21c0-.01 0-.01 0 0zm-.72 0c0 .12.09.21.2.21s.2-.09.2-.2v-.01-.01c0-.11-.09-.2-.2-.2-.11 0-.2.09-.2.21 0-.01 0-.01 0 0zm0-.72c0 .01 0 .01 0 0 0 .12.09.21.2.21s.2-.09.2-.2v-.01-.01c0-.11-.09-.2-.2-.2-.11.01-.2.1-.2.21zm2.14-4.77c0 .12.09.2.2.2s.2-.09.2-.2v-.02c0-.11-.09-.2-.2-.2-.11.01-.2.1-.2.22 0-.01 0 0 0 0zm-2.14 2.39s0 .01 0 0c0 .12.09.21.2.21s.2-.09.2-.2v-.01-.01c0-.11-.09-.2-.2-.2-.11 0-.2.09-.2.21 0-.01 0 0 0 0zm3.54-1.68c0 .11.09.2.2.2s.2-.09.2-.2c0-.11-.09-.2-.2-.2-.12 0-.2.09-.2.2zm-.7 0s0 .01 0 0c0 .12.09.21.2.21s.2-.09.2-.2v-.02c0-.11-.09-.2-.2-.2-.11.01-.2.09-.2.21zm-.7 0s0 .01 0 0c0 .12.09.21.2.21s.2-.09.2-.2v-.02c0-.11-.09-.2-.2-.2-.11.01-.2.1-.2.21zm-2.84 2.39s0 .01 0 0c0 .12.09.2.2.2s.2-.09.2-.2v-.01-.01c0-.11-.09-.2-.2-.2-.11.02-.2.11-.2.22zm3.54-3.1c0 .12.09.21.2.21s.2-.09.2-.2v-.02c0-.11-.09-.2-.2-.2s-.2.09-.2.21c0-.01 0 0 0 0zM6.41 12.42c0 .12.09.21.2.21s.2-.09.2-.2v-.02c0-.11-.09-.2-.2-.2s-.2.09-.2.21c0-.01 0-.01 0 0zm0 2.39c0 .12.09.21.2.21s.2-.09.2-.2v-.02c0-.11-.09-.2-.2-.2s-.2.09-.2.21c0-.01 0 0 0 0zm0 .71s0 .01 0 0c0 .12.09.21.2.21s.2-.09.2-.2v-.02c0-.11-.09-.2-.2-.2s-.2.09-.2.21zm-.7-.71c0 .12.09.2.2.2s.2-.09.2-.2v-.02c0-.11-.09-.2-.2-.2s-.2.1-.2.22c0-.01 0 0 0 0zm1.42.71s0 .01 0 0c0 .12.09.21.2.21s.2-.09.2-.2v-.02c0-.11-.09-.2-.2-.2s-.2.09-.2.21zm-1.42 0s0 .01 0 0c0 .12.09.21.2.21s.2-.09.2-.2v-.02c0-.11-.09-.2-.2-.2s-.2.1-.2.21zm-1.42-.71c0 .12.09.21.2.21s.2-.09.2-.2v-.02c0-.11-.09-.2-.2-.2s-.2.09-.2.21c0-.01 0 0 0 0zm.7.71s0 .01 0 0c0 .12.09.21.2.21s.2-.09.2-.2v-.02c0-.11-.09-.2-.2-.2s-.2.09-.2.21zm0-.71c0 .12.09.21.2.21s.2-.09.2-.2v-.02c0-.11-.09-.2-.2-.2s-.2.09-.2.21c0-.01 0 0 0 0zm2.14 0c0 .12.09.21.2.21s.2-.09.2-.2v-.02c0-.11-.09-.2-.2-.2s-.2.09-.2.21c0-.01 0 0 0 0zm1.42 0c0 .12.09.2.2.2s.2-.09.2-.2v-.02c0-.11-.09-.2-.2-.2-.11.01-.2.1-.2.22 0-.01 0 0 0 0zm1.39.71s0 .01 0 0c0 .12.09.21.2.21s.2-.09.2-.2v-.02c0-.11-.09-.2-.2-.2-.11.01-.2.09-.2.21zm-.69 0s0 .01 0 0c0 .12.09.21.2.21s.2-.09.2-.2v-.02c0-.11-.09-.2-.2-.2-.11.01-.2.09-.2.21zm0-.71c0 .12.09.21.2.21s.2-.09.2-.2v-.02c0-.11-.09-.2-.2-.2s-.2.09-.2.21c0-.01 0 0 0 0zm.69 0c0 .12.09.21.2.21s.2-.09.2-.2v-.02c0-.11-.09-.2-.2-.2s-.2.09-.2.21c0-.01 0 0 0 0zm-2.11 0c0 .12.09.21.2.21.11 0 .2-.09.2-.2v-.02c0-.11-.09-.2-.2-.2-.11 0-.2.09-.2.21 0-.01 0 0 0 0zm0 .71s0 .01 0 0c0 .12.09.21.2.21.11 0 .2-.09.2-.2v-.02c0-.11-.09-.2-.2-.2-.11.01-.2.09-.2.21zm.72 0s0 .01 0 0c0 .12.09.21.2.21s.2-.09.2-.2v-.02c0-.11-.09-.2-.2-.2-.11.01-.2.1-.2.21zm-4.26 0s0 .01 0 0c0 .12.09.21.2.21s.2-.09.2-.2v-.02c0-.11-.09-.2-.2-.2s-.2.09-.2.21zm3.54-3.1c0 .12.09.21.2.21.11 0 .2-.09.2-.2v-.02c0-.11-.09-.2-.2-.2-.11 0-.2.09-.2.21 0-.01 0-.01 0 0zm-2.12.71c0 .12.09.2.2.2s.2-.09.2-.2v-.01-.01c0-.11-.09-.2-.2-.2s-.2.1-.2.22zm0-.71c0 .12.09.2.2.2s.2-.09.2-.2v-.02c0-.11-.09-.2-.2-.2s-.2.1-.2.22c0-.01 0-.01 0 0zm-.72 0c0 .12.09.21.2.21s.2-.09.2-.2v-.02c0-.11-.09-.2-.2-.2s-.2.09-.2.21c0-.01 0-.01 0 0zm2.14.71s0 .01 0 0c0 .12.09.21.2.21s.2-.09.2-.2v-.01-.01c0-.11-.09-.2-.2-.2s-.2.09-.2.21c0-.01 0 0 0 0zm-.72 0s0 .01 0 0c0 .12.09.21.2.21s.2-.09.2-.2v-.01-.01c0-.11-.09-.2-.2-.2s-.2.09-.2.21c0-.01 0 0 0 0zm-2.12 0s0 .01 0 0c0 .12.09.21.2.21s.2-.09.2-.2v-.01-.01c0-.11-.09-.2-.2-.2s-.2.09-.2.21c0-.01 0 0 0 0zm0-.71c0 .12.09.21.2.21s.2-.09.2-.2v-.02c0-.11-.09-.2-.2-.2s-.2.09-.2.21c0-.01 0-.01 0 0zm.7.71s0 .01 0 0c0 .12.09.21.2.21s.2-.09.2-.2v-.01-.01c0-.11-.09-.2-.2-.2s-.2.09-.2.21c0-.01 0 0 0 0zm4.26-.71c0 .12.09.21.2.21s.2-.09.2-.2v-.02c0-.11-.09-.2-.2-.2s-.2.09-.2.21c0-.01 0-.01 0 0zm-.7 0c0 .12.09.2.2.2s.2-.09.2-.2v-.02c0-.11-.09-.2-.2-.2-.11.01-.2.1-.2.22 0-.01 0-.01 0 0zm.7.71s0 .01 0 0c0 .12.09.21.2.21s.2-.09.2-.2v-.01-.01c0-.11-.09-.2-.2-.2s-.2.09-.2.21c0-.01 0 0 0 0zm-2.12-.71c0 .12.09.21.2.21s.2-.09.2-.2v-.02c0-.11-.09-.2-.2-.2s-.2.09-.2.21c0-.01 0-.01 0 0zm2.81.71s0 .01 0 0c0 .12.09.21.2.21s.2-.09.2-.2v-.01-.01c0-.11-.09-.2-.2-.2s-.2.09-.2.21c0-.01 0 0 0 0zm0-.71c0 .12.09.21.2.21s.2-.09.2-.2v-.02c0-.11-.09-.2-.2-.2s-.2.09-.2.21c0-.01 0-.01 0 0zm0 7.16c0 .01 0 .01 0 0 0 .12.09.21.2.21s.2-.09.2-.2v-.01-.01c0-.11-.09-.2-.2-.2-.11.01-.2.1-.2.21zm-5.65-1.67c0 .01 0 .01 0 0 0 .12.09.21.2.21s.2-.09.2-.2v-.01-.01c0-.11-.09-.2-.2-.2s-.2.1-.2.21zm4.26-4.78c0 .12.09.2.2.2s.2-.09.2-.2v-.01-.01c0-.11-.09-.2-.2-.2-.11.02-.2.1-.2.22zm-.72 0s0 .01 0 0c0 .12.09.21.2.21.11 0 .2-.09.2-.2v-.01-.01c0-.11-.09-.2-.2-.2-.11 0-.2.09-.2.21 0-.01 0 0 0 0zM5.71 20.3c0 .12.09.2.2.2s.2-.09.2-.2v-.01-.01c0-.11-.09-.2-.2-.2s-.2.1-.2.22c0-.01 0 0 0 0zm.7 0c0 .12.09.21.2.21s.2-.09.2-.2v-.01-.01c0-.11-.09-.2-.2-.2s-.2.09-.2.21c0-.01 0-.01 0 0zm-.7-.72c0 .01 0 .01 0 0 0 .12.09.2.2.2s.2-.09.2-.2v-.01-.01c0-.11-.09-.2-.2-.2s-.2.11-.2.22zm.7 0c0 .01 0 .01 0 0 0 .12.09.21.2.21s.2-.09.2-.2v-.01-.01c0-.11-.09-.2-.2-.2s-.2.1-.2.21zm.72.72c0 .12.09.21.2.21s.2-.09.2-.2v-.01-.01c0-.11-.09-.2-.2-.2s-.2.09-.2.21c0-.01 0-.01 0 0zm-2.84-.72c0 .01 0 .01 0 0 0 .12.09.21.2.21s.2-.09.2-.2v-.01-.01c0-.11-.09-.2-.2-.2s-.2.1-.2.21zm.7.72c0 .12.09.21.2.21s.2-.09.2-.2v-.01-.01c0-.11-.09-.2-.2-.2s-.2.09-.2.21c0-.01 0-.01 0 0zm0-.72c0 .01 0 .01 0 0 0 .12.09.21.2.21s.2-.09.2-.2v-.01-.01c0-.11-.09-.2-.2-.2s-.2.1-.2.21zm3.56 0c0 .01 0 .01 0 0 0 .12.09.2.2.2s.2-.09.2-.2v-.01-.01c0-.11-.09-.2-.2-.2-.11.02-.2.11-.2.22zm.7 0c0 .01 0 .01 0 0 0 .12.09.21.2.21s.2-.09.2-.2v-.01-.01c0-.11-.09-.2-.2-.2-.11.01-.2.1-.2.21zm0 .72c0 .12.09.21.2.21s.2-.09.2-.2v-.01-.01c0-.11-.09-.2-.2-.2-.11 0-.2.09-.2.21 0-.01 0-.01 0 0zm.69 0c0 .12.09.21.2.21s.2-.09.2-.2v-.01-.01c0-.11-.09-.2-.2-.2-.11 0-.2.09-.2.21 0-.01 0-.01 0 0zm-5.65 0c0 .12.09.21.2.21s.2-.09.2-.2v-.01-.01c0-.11-.09-.2-.2-.2s-.2.09-.2.21c0-.01 0-.01 0 0zm4.26 0c0 .12.09.2.2.2s.2-.09.2-.2v-.01-.01c0-.11-.09-.2-.2-.2-.11.01-.2.1-.2.22 0-.01 0 0 0 0zm-.72 0c0 .12.09.21.2.21.11 0 .2-.09.2-.2v-.01-.01c0-.11-.09-.2-.2-.2-.11 0-.2.09-.2.21 0-.01 0-.01 0 0zm0-.72c0 .01 0 .01 0 0 0 .12.09.21.2.21.11 0 .2-.09.2-.2v-.01-.01c0-.11-.09-.2-.2-.2-.11.01-.2.1-.2.21zm-.7 0c0 .01 0 .01 0 0 0 .12.09.21.2.21s.2-.09.2-.2v-.01-.01c0-.11-.09-.2-.2-.2s-.2.1-.2.21zm2.12-1.67c0 .01 0 .01 0 0 0 .12.09.21.2.21s.2-.09.2-.2v-.01-.01c0-.11-.09-.2-.2-.2-.11.01-.2.1-.2.21zm-2.84 0c0 .01 0 .01 0 0 0 .12.09.21.2.21s.2-.09.2-.2v-.01-.01c0-.11-.09-.2-.2-.2s-.2.1-.2.21zm0-.71s0 .01 0 0c0 .12.09.21.2.21s.2-.09.2-.2v-.01-.01c0-.11-.09-.2-.2-.2s-.2.09-.2.21c0-.01 0 0 0 0zm3.53 0s0 .01 0 0c0 .12.09.21.2.21s.2-.09.2-.2v-.01-.01c0-.11-.09-.2-.2-.2-.11 0-.2.09-.2.21 0-.01 0 0 0 0zm-4.23 0c0 .12.09.2.2.2s.2-.09.2-.2v-.01-.01c0-.11-.09-.2-.2-.2s-.2.1-.2.22zm1.42 0s0 .01 0 0c0 .12.09.21.2.21s.2-.09.2-.2v-.01-.01c0-.11-.09-.2-.2-.2s-.2.09-.2.21c0-.01 0 0 0 0zm-2.14.71c0 .01 0 .01 0 0 0 .12.09.21.2.21s.2-.09.2-.2v-.01-.01c0-.11-.09-.2-.2-.2s-.2.1-.2.21zm0-.71s0 .01 0 0c0 .12.09.21.2.21s.2-.09.2-.2v-.01-.01c0-.11-.09-.2-.2-.2s-.2.09-.2.21c0-.01 0 0 0 0zm.72.71s0 .01 0 0c0 .12.09.2.2.2s.2-.09.2-.2v-.01-.01c0-.11-.09-.2-.2-.2s-.2.11-.2.22zm1.42 0c0 .01 0 .01 0 0 0 .12.09.21.2.21s.2-.09.2-.2v-.01-.01c0-.11-.09-.2-.2-.2s-.2.1-.2.21zm1.42-.71c0 .12.09.2.2.2s.2-.09.2-.2v-.01-.01c0-.11-.09-.2-.2-.2-.11.02-.2.1-.2.22zm-4.26 0s0 .01 0 0c0 .12.09.21.2.21s.2-.09.2-.2v-.01-.01c0-.11-.09-.2-.2-.2s-.2.09-.2.21c0-.01 0 0 0 0zm4.96 0s0 .01 0 0c0 .12.09.21.2.21s.2-.09.2-.2v-.01-.01c0-.11-.09-.2-.2-.2-.11 0-.2.09-.2.21 0-.01 0 0 0 0zm.69.71c0 .01 0 .01 0 0 0 .12.09.21.2.21s.2-.09.2-.2v-.01-.01c0-.11-.09-.2-.2-.2-.11.01-.2.1-.2.21zm-2.11 0c0 .01 0 .01 0 0 0 .12.09.21.2.21.11 0 .2-.09.2-.2v-.01-.01c0-.11-.09-.2-.2-.2-.11.01-.2.1-.2.21zm.72 0s0 .01 0 0c0 .12.09.2.2.2s.2-.09.2-.2v-.01-.01c0-.11-.09-.2-.2-.2-.11.02-.2.11-.2.22zm-.72-.71s0 .01 0 0c0 .12.09.21.2.21.11 0 .2-.09.2-.2v-.01-.01c0-.11-.09-.2-.2-.2-.11 0-.2.09-.2.21 0-.01 0 0 0 0zm17.23-4.07c0 .12.09.2.2.2s.2-.09.2-.2v-.01-.01c0-.11-.09-.2-.2-.2-.11.02-.2.1-.2.22zm-1.42-.71c0 .12.09.21.2.21s.2-.09.2-.2v-.02c0-.11-.09-.2-.2-.2s-.2.09-.2.21c0-.01 0-.01 0 0zm0 .71s0 .01 0 0c0 .12.09.21.2.21s.2-.09.2-.2v-.01-.01c0-.11-.09-.2-.2-.2s-.2.09-.2.21c0-.01 0 0 0 0zm-.71-.71c0 .12.09.21.2.21s.2-.09.2-.2v-.02c0-.11-.09-.2-.2-.2s-.2.09-.2.21c0-.01 0-.01 0 0zm1.41 0c0 .12.09.2.2.2s.2-.09.2-.2v-.02c0-.11-.09-.2-.2-.2-.11.01-.2.1-.2.22 0-.01 0-.01 0 0zm0 .71c0 .12.09.2.2.2s.2-.09.2-.2v-.01-.01c0-.11-.09-.2-.2-.2-.11.02-.2.1-.2.22zm4.18-1.56c.02-.06-.01-.13-.07-.16l-3.75-.65c-.02-.01-.18-.02-.21-.02H7.59c-.02 0-.18 0-.2.01l-3.83.65c-.07.03-.1.1-.08.17 0 .01-.01.02-.01.04v9.51c0 .08.06.14.14.14H28.35c.08 0 .14-.06.14-.14V11.6c.03-.01.03-.02.03-.03zm-3.93-.54l2.57.43h-6.9l-.86-.43h5.19zm-11.25 0h5.5l.81.43H12.4l.94-.43zm-5.86 0h5.27l-.98.43H4.91l2.57-.43zm4.24 9.11H11c-.12 0-.21-.1-.21-.21s.1-.21.21-.21h.72v.42zm0-.57H11c-.2 0-.36.16-.36.36s.16.36.36.36h.72v.69H3.76v-2.09h7.96v.68zm0-1.75H11c-.12 0-.21-.1-.21-.21s.1-.21.21-.21h.72v.42zm0-.57H11c-.2 0-.36.16-.36.36s.16.36.36.36h.72v.63H3.76v-2.09h7.96v.74zm0-1.87H11c-.12 0-.21-.1-.21-.21 0-.12.1-.21.21-.21h.72v.42zm0-.57H11c-.2 0-.36.16-.36.36s.16.36.36.36h.72v.69H3.76v-2.09h7.96v.68zm0-1.75H11c-.12 0-.21-.1-.21-.21s.1-.21.21-.21h.72v.42zm0-.57H11c-.2 0-.36.16-.36.36s.17.35.36.35h.72v.63H3.76v-2.09h7.96v.75zm8.25 7.65h-.72c-.12 0-.21-.1-.21-.21s.1-.21.21-.21h.72v.42zm0-.57h-.72c-.2 0-.36.16-.36.36s.16.36.36.36h.72v.69h-7.96v-2.09h7.96v.68zm0-1.75h-.72c-.12 0-.21-.1-.21-.21s.1-.21.21-.21h.72v.42zm0-.57h-.72c-.2 0-.36.16-.36.36s.16.36.36.36h.72v.63h-7.96v-2.09h7.96v.74zm0-1.87h-.72c-.12 0-.21-.1-.21-.21 0-.12.1-.21.21-.21h.72v.42zm0-.57h-.72c-.2 0-.36.16-.36.36s.16.36.36.36h.72v.69h-7.96v-2.09h7.96v.68zm0-1.75h-.72c-.12 0-.21-.1-.21-.21s.1-.21.21-.21h.72v.42zm0-.57h-.72c-.2 0-.36.16-.36.36s.16.36.36.36h.72v.63h-7.96v-2.09h7.96v.74zm8.27 7.65h-.72c-.12 0-.21-.1-.21-.21s.1-.21.21-.21h.72v.42zm0-.57h-.72c-.2 0-.36.16-.36.36s.16.36.36.36h.72v.69h-7.96v-2.09h7.96v.68zm0-1.75h-.72c-.12 0-.21-.1-.21-.21s.1-.21.21-.21h.72v.42zm0-.57h-.72c-.2 0-.36.16-.36.36s.16.36.36.36h.72v.63h-7.96v-2.09h7.96v.74zm0-1.87h-.72c-.12 0-.21-.1-.21-.21 0-.12.1-.21.21-.21h.72v.42zm0-.57h-.72c-.2 0-.36.16-.36.36s.16.36.36.36h.72v.69h-7.96v-2.09h7.96v.68zm0-1.75h-.72c-.12 0-.21-.1-.21-.21s.1-.21.21-.21h.72v.42zm0-.57h-.72c-.2 0-.36.16-.36.36s.16.36.36.36h.72v.63h-7.96v-2.09h7.96v.74zm-5.31.64s0 .01 0 0c0 .12.09.21.2.21s.2-.09.2-.2v-.01-.01c0-.11-.09-.2-.2-.2s-.2.09-.2.21c0-.01 0 0 0 0zm2.83 0s0 .01 0 0c0 .12.09.21.2.21s.2-.09.2-.2v-.01-.01c0-.11-.09-.2-.2-.2s-.2.09-.2.21c0-.01 0 0 0 0zm0-.71c0 .12.09.21.2.21s.2-.09.2-.2v-.02c0-.11-.09-.2-.2-.2s-.2.09-.2.21c0-.01 0-.01 0 0zm-4.95.71s0 .01 0 0c0 .12.09.21.2.21s.2-.09.2-.2v-.01-.01c0-.11-.09-.2-.2-.2s-.2.09-.2.21c0-.01 0 0 0 0zm1.42 0s0 .01 0 0c0 .12.09.21.2.21s.2-.09.2-.2v-.01-.01c0-.11-.09-.2-.2-.2s-.2.09-.2.21c0-.01 0 0 0 0zm-.72-.71c0 .12.09.2.2.2s.2-.09.2-.2v-.02c0-.11-.09-.2-.2-.2-.12.01-.2.1-.2.22 0-.01 0-.01 0 0zm-.7 0c0 .12.09.21.2.21s.2-.09.2-.2v-.02c0-.11-.09-.2-.2-.2s-.2.09-.2.21c0-.01 0-.01 0 0zm.7.71c0 .12.09.2.2.2s.2-.09.2-.2v-.01-.01c0-.11-.09-.2-.2-.2-.12.02-.2.1-.2.22zm.72-.71c0 .12.09.21.2.21s.2-.09.2-.2v-.02c0-.11-.09-.2-.2-.2s-.2.09-.2.21c0-.01 0-.01 0 0zm-.72 7.16c0 .01 0 .01 0 0 0 .12.09.2.2.2s.2-.09.2-.2v-.01-.01c0-.11-.09-.2-.2-.2-.12.02-.2.11-.2.22zm0 .72c0 .12.09.2.2.2s.2-.09.2-.2v-.01-.01c0-.11-.09-.2-.2-.2-.12.01-.2.1-.2.22 0-.01 0 0 0 0zm-.7-.72c0 .01 0 .01 0 0 0 .12.09.21.2.21s.2-.09.2-.2v-.01-.01c0-.11-.09-.2-.2-.2-.11.01-.2.1-.2.21zm2.12.72c0 .12.09.21.2.21s.2-.09.2-.2v-.01-.01c0-.11-.09-.2-.2-.2-.11 0-.2.09-.2.21 0-.01 0-.01 0 0zm-2.12 0c0 .12.09.21.2.21s.2-.09.2-.2v-.01-.01c0-.11-.09-.2-.2-.2-.11 0-.2.09-.2.21 0-.01 0-.01 0 0zm1.42-.72c0 .01 0 .01 0 0 0 .12.09.21.2.21s.2-.09.2-.2v-.01-.01c0-.11-.09-.2-.2-.2-.11.01-.2.1-.2.21zm0 .72c0 .12.09.21.2.21s.2-.09.2-.2v-.01-.01c0-.11-.09-.2-.2-.2-.11 0-.2.09-.2.21 0-.01 0-.01 0 0zm-.72-5.49c0 .12.09.2.2.2s.2-.09.2-.2v-.02c0-.11-.09-.2-.2-.2-.12.01-.2.1-.2.22 0-.01 0 0 0 0zm4.25 3.1c0 .01 0 .01 0 0 0 .12.09.21.2.21s.2-.09.2-.2v-.01-.01c0-.11-.09-.2-.2-.2-.11.01-.2.1-.2.21zm0-.71s0 .01 0 0c0 .12.09.21.2.21s.2-.09.2-.2v-.01-.01c0-.11-.09-.2-.2-.2-.11 0-.2.09-.2.21 0-.01 0 0 0 0zm-.7 0c0 .12.09.2.2.2s.2-.09.2-.2v-.01-.01c0-.11-.09-.2-.2-.2-.11.02-.2.1-.2.22zm1.4 0s0 .01 0 0c0 .12.09.21.2.21s.2-.09.2-.2v-.01-.01c0-.11-.09-.2-.2-.2-.11 0-.2.09-.2.21 0-.01 0 0 0 0zm-5.65-1.68s0 .01 0 0c0 .12.09.21.2.21s.2-.09.2-.2v-.02c0-.11-.09-.2-.2-.2-.11.01-.2.09-.2.21zm5.65 2.39c0 .01 0 .01 0 0 0 .12.09.21.2.21s.2-.09.2-.2v-.01-.01c0-.11-.09-.2-.2-.2-.11.01-.2.1-.2.21zm-.7 1.67c0 .01 0 .01 0 0 0 .12.09.21.2.21s.2-.09.2-.2v-.01-.01c0-.11-.09-.2-.2-.2-.11.01-.2.1-.2.21zm.7 0c0 .01 0 .01 0 0 0 .12.09.21.2.21s.2-.09.2-.2v-.01-.01c0-.11-.09-.2-.2-.2-.11.01-.2.1-.2.21zm0 .72c0 .12.09.21.2.21s.2-.09.2-.2v-.01-.01c0-.11-.09-.2-.2-.2-.11 0-.2.09-.2.21 0-.01 0-.01 0 0zm-.7 0c0 .12.09.21.2.21s.2-.09.2-.2v-.01-.01c0-.11-.09-.2-.2-.2-.11 0-.2.09-.2.21 0-.01 0-.01 0 0zm-.7-2.39s0 .01 0 0c0 .12.09.2.2.2s.2-.09.2-.2v-.01-.01c0-.11-.09-.2-.2-.2-.11.02-.2.11-.2.22zm0-5.49c0 .12.09.2.2.2s.2-.09.2-.2v-.02c0-.11-.09-.2-.2-.2-.11.01-.2.1-.2.22 0-.01 0-.01 0 0zm1.4 0c0 .12.09.21.2.21s.2-.09.2-.2v-.02c0-.11-.09-.2-.2-.2s-.2.09-.2.21c0-.01 0-.01 0 0zm0 .71s0 .01 0 0c0 .12.09.21.2.21s.2-.09.2-.2v-.01-.01c0-.11-.09-.2-.2-.2s-.2.09-.2.21c0-.01 0 0 0 0zm-2.12 7.17c0 .12.09.2.2.2s.2-.09.2-.2v-.01-.01c0-.11-.09-.2-.2-.2-.11.01-.2.1-.2.22 0-.01 0 0 0 0zm-1.41-.72c0 .01 0 .01 0 0 0 .12.09.21.2.21s.2-.09.2-.2v-.01-.01c0-.11-.09-.2-.2-.2-.11.01-.2.1-.2.21zm.71 0c0 .01 0 .01 0 0 0 .12.09.21.2.21s.2-.09.2-.2v-.01-.01c0-.11-.09-.2-.2-.2-.11.01-.2.1-.2.21zm0 .72c0 .12.09.21.2.21s.2-.09.2-.2v-.01-.01c0-.11-.09-.2-.2-.2-.11 0-.2.09-.2.21 0-.01 0-.01 0 0zm.7-.72c0 .01 0 .01 0 0 0 .12.09.2.2.2s.2-.09.2-.2v-.01-.01c0-.11-.09-.2-.2-.2-.11.02-.2.11-.2.22zm.72.72c0 .12.09.2.2.2s.2-.09.2-.2v-.01-.01c0-.11-.09-.2-.2-.2-.11.01-.2.1-.2.22 0-.01 0 0 0 0zm0-.72c0 .01 0 .01 0 0 0 .12.09.2.2.2s.2-.09.2-.2v-.01-.01c0-.11-.09-.2-.2-.2-.11.02-.2.11-.2.22zm-2.83-4.06s0 .01 0 0c0 .12.09.21.2.21s.2-.09.2-.2v-.02c0-.11-.09-.2-.2-.2-.11.01-.2.09-.2.21zm2.83-.71c0 .12.09.2.2.2s.2-.09.2-.2v-.02c0-.11-.09-.2-.2-.2-.11.01-.2.1-.2.22 0-.01 0 0 0 0zm0 .71s0 .01 0 0c0 .12.09.21.2.21s.2-.09.2-.2v-.02c0-.11-.09-.2-.2-.2-.11.01-.2.1-.2.21zm.7 0s0 .01 0 0c0 .12.09.21.2.21s.2-.09.2-.2v-.02c0-.11-.09-.2-.2-.2-.11.01-.2.09-.2.21zm.7 0s0 .01 0 0c0 .12.09.21.2.21s.2-.09.2-.2v-.02c0-.11-.09-.2-.2-.2-.11.01-.2.09-.2.21zm0-.71c0 .12.09.21.2.21s.2-.09.2-.2v-.02c0-.11-.09-.2-.2-.2s-.2.09-.2.21c0-.01 0 0 0 0zm-.7 0c0 .12.09.21.2.21s.2-.09.2-.2v-.02c0-.11-.09-.2-.2-.2s-.2.09-.2.21c0-.01 0 0 0 0zm-1.42 0c0 .12.09.2.2.2s.2-.09.2-.2v-.02c0-.11-.09-.2-.2-.2-.11.01-.2.1-.2.22 0-.01 0 0 0 0zm-1.41.71s0 .01 0 0c0 .12.09.21.2.21s.2-.09.2-.2v-.02c0-.11-.09-.2-.2-.2-.11.01-.2.09-.2.21zm0-.71c0 .12.09.21.2.21s.2-.09.2-.2v-.02c0-.11-.09-.2-.2-.2s-.2.09-.2.21c0-.01 0 0 0 0zm1.41 2.39c0 .12.09.2.2.2s.2-.09.2-.2v-.01-.01c0-.11-.09-.2-.2-.2-.11.02-.2.1-.2.22zm0-1.68s0 .01 0 0c0 .12.09.21.2.21s.2-.09.2-.2v-.02c0-.11-.09-.2-.2-.2-.11.01-.2.1-.2.21zm-2.11-.71c0 .12.09.21.2.21s.2-.09.2-.2v-.02c0-.11-.09-.2-.2-.2s-.2.09-.2.21c0-.01 0 0 0 0zm1.41.71s0 .01 0 0c0 .12.09.21.2.21s.2-.09.2-.2v-.02c0-.11-.09-.2-.2-.2-.11.01-.2.09-.2.21zm0-.71c0 .12.09.21.2.21s.2-.09.2-.2v-.02c0-.11-.09-.2-.2-.2s-.2.09-.2.21c0-.01 0 0 0 0zm-2.13.71s0 .01 0 0c0 .12.09.21.2.21s.2-.09.2-.2v-.02c0-.11-.09-.2-.2-.2-.12.01-.2.1-.2.21zm.72 1.68s0 .01 0 0c0 .12.09.21.2.21s.2-.09.2-.2v-.01-.01c0-.11-.09-.2-.2-.2-.11 0-.2.09-.2.21 0-.01 0 0 0 0zm1.41.71c0 .01 0 .01 0 0 0 .12.09.21.2.21s.2-.09.2-.2v-.01-.01c0-.11-.09-.2-.2-.2-.11.01-.2.1-.2.21zm-.71 0c0 .01 0 .01 0 0 0 .12.09.21.2.21s.2-.09.2-.2v-.01-.01c0-.11-.09-.2-.2-.2-.11.01-.2.1-.2.21zm0-.71s0 .01 0 0c0 .12.09.21.2.21s.2-.09.2-.2v-.01-.01c0-.11-.09-.2-.2-.2-.11 0-.2.09-.2.21 0-.01 0 0 0 0zm.71 0s0 .01 0 0c0 .12.09.21.2.21s.2-.09.2-.2v-.01-.01c0-.11-.09-.2-.2-.2-.11 0-.2.09-.2.21 0-.01 0 0 0 0zm.7.71s0 .01 0 0c0 .12.09.2.2.2s.2-.09.2-.2v-.01-.01c0-.11-.09-.2-.2-.2-.11.02-.2.11-.2.22zm-3.53-3.1c0 .12.09.21.2.21s.2-.09.2-.2v-.02c0-.11-.09-.2-.2-.2s-.2.09-.2.21c0-.01 0 0 0 0zm0 2.39s0 .01 0 0c0 .12.09.21.2.21s.2-.09.2-.2v-.01-.01c0-.11-.09-.2-.2-.2-.11 0-.2.09-.2.21 0-.01 0 0 0 0zm.7.71s0 .01 0 0c0 .12.09.2.2.2s.2-.09.2-.2v-.01-.01c0-.11-.09-.2-.2-.2-.12.02-.2.11-.2.22zm-.7 0c0 .01 0 .01 0 0 0 .12.09.21.2.21s.2-.09.2-.2v-.01-.01c0-.11-.09-.2-.2-.2-.11.01-.2.1-.2.21zm.7-.71c0 .12.09.2.2.2s.2-.09.2-.2v-.01-.01c0-.11-.09-.2-.2-.2-.12.02-.2.1-.2.22zm.72.71c0 .01 0 .01 0 0 0 .12.09.21.2.21s.2-.09.2-.2v-.01-.01c0-.11-.09-.2-.2-.2-.11.01-.2.1-.2.21z"/></svg>