<svg xmlns="http://www.w3.org/2000/svg" viewBox="0 0 32 32"><path d="M27.68 7.79c-.03-.03-.07-.04-.11-.03h-.01l-2.21.81c-.04.01-.07.05-.08.09-.01.04 0 .08.03.11l.36.36-1.05 1.05V7.54c0-.31-.25-.56-.56-.56H7.13c-.31 0-.56.25-.56.56v12.42l-2.15 2.15c-.18.18-.18.47 0 .65.09.09.21.13.32.13s.24-.04.32-.13l1.5-1.5v3.2c0 .31.25.56.56.56h16.92c.31 0 .56-.25.56-.56V11.48l1.7-1.7.37.37c.03.03.07.04.11.03.04 0 .07-.04.09-.07l.83-2.19c.02-.04.01-.09-.02-.13zm-7.51 3.97h2.86l-2.86 2.86v-2.86zM7.19 16.11h3.24l-3.24 3.24v-3.24zm3.89 8.29H7.19v-3.76l.2-.19h3.7c-.01 0-.01 3.95-.01 3.95zm0-4.33H7.77l3.31-3.31v3.31zm0-4.61l-.27.27H7.19v-3.96h3.89v3.69zm0-4.08H7.19V7.6h3.89v3.78zm4.36 13.02h-3.97v-3.95h3.97v3.95zm0-4.33h-3.97v-3.7l.27-.27h3.29l.42.42v3.55h-.01zm-3.33-4.35l1.26-1.26 1.26 1.26h-2.52zm3.33-.5l-1.73-1.73c-.18-.18-.47-.18-.65 0l-1.59 1.59v-3.31h3.97v3.45zm0-3.84h-3.97V7.6h3.97v3.78zm4.35 13.02h-3.97v-3.95h3.97v3.95zm0-4.33h-3.97v-3.16l1.36 1.36c.18.18.47.18.65 0l1.96-1.96v3.76zm-3.47-3.96h2.36l-1.18 1.18-1.18-1.18zM19.79 15l-.72.72h-3.13l-.12-.12v-3.85h3.97V15zm0-3.62h-3.97V7.6h3.97v3.78zM24 24.4h-3.82v-3.95H24v3.95zm0-4.33h-3.82v-3.96H24v3.96zm0-4.35h-3.63L24 12.09v3.63zm0-4.93l-.58.58h-3.24V7.6H24v3.19z"/></svg>