<svg data-name="Layer 1" xmlns="http://www.w3.org/2000/svg" viewBox="0 0 36 36"><title>Icon-Red_Hat-Transportation-A-Black-RGB</title><path d="M29.53 21.61a.748.748 0 0 0-.53-.218H7a.75.75 0 0 0 0 1.5h22a.75.75 0 0 0 .53-1.28zM9.5 23.75a2.253 2.253 0 1 0 1.59.66 2.24 2.24 0 0 0-1.59-.66zm.53 2.78a.748.748 0 1 1 .22-.53.747.747 0 0 1-.22.53zM14.5 23.75a2.253 2.253 0 1 0 1.59.66 2.24 2.24 0 0 0-1.59-.66zm.53 2.78a.748.748 0 1 1 .22-.53.747.747 0 0 1-.22.53zM21.5 23.75a2.253 2.253 0 1 0 1.59.66 2.24 2.24 0 0 0-1.59-.66zm.53 2.78a.748.748 0 1 1 .22-.53.747.747 0 0 1-.22.53zM26.5 23.75a2.253 2.253 0 1 0 1.59.66 2.24 2.24 0 0 0-1.59-.66zm.53 2.78a.748.748 0 1 1 .22-.53.747.747 0 0 1-.22.53zM10 20.25h16a.75.75 0 0 0 .75-.75v-11a.75.75 0 0 0-.75-.75H10a.75.75 0 0 0-.75.75v11a.75.75 0 0 0 .75.75zm.75-6.25V9.25h14.5v9.5h-14.5z"/><path d="M13 10.16a.75.75 0 0 0-.75.75v6a.75.75 0 0 0 1.5 0v-6a.75.75 0 0 0-.75-.75zM16.333 10.16a.75.75 0 0 0-.75.75v6a.75.75 0 1 0 1.5 0v-6a.748.748 0 0 0-.75-.75zM19.667 17.66a.75.75 0 0 0 .75-.75v-6a.75.75 0 1 0-1.5 0v6a.75.75 0 0 0 .75.75zM23 17.66a.75.75 0 0 0 .75-.75v-6a.75.75 0 1 0-1.5 0v6a.75.75 0 0 0 .75.75z"/></svg>