<svg xmlns="http://www.w3.org/2000/svg" viewBox="0 0 36 36"><title>Icon-Red_Hat-Miscellaneous-Maze-A-Black-RGB</title><path d="M18 5.23a12.73 12.73 0 0 0-6.38 1.71.75.75 0 0 0 .76 1.3 11.22 11.22 0 0 1 4.87-1.46v2.78A8.45 8.45 0 0 0 12 23.94a8.46 8.46 0 0 0 9.72 1.58.75.75 0 0 0-.67-1.35A6.73 6.73 0 0 1 18 25a6.93 6.93 0 0 1-4.36-1.54l2.3-2.3A3.75 3.75 0 1 0 18 14.23a.75.75 0 0 0 0 1.5A2.25 2.25 0 1 1 15.75 18a.75.75 0 0 0-1.5 0 3.74 3.74 0 0 0 .62 2.07l-2.29 2.3A7 7 0 0 1 18 11a.76.76 0 0 0 .75-.75.7.7 0 0 0 0-.14.66.66 0 0 0 0-.15V6.77a11.25 11.25 0 0 1 10.46 10.46h-2.79A8.42 8.42 0 0 0 22.7 11a.75.75 0 0 0-1 .2.74.74 0 0 0 .21 1A7 7 0 0 1 25 18a6.88 6.88 0 0 1-1.17 3.87.74.74 0 0 0 .21 1 .71.71 0 0 0 .41.13.77.77 0 0 0 .63-.33 8.51 8.51 0 0 0 1.37-4h2.8a11.24 11.24 0 1 1-21.42-5.51.75.75 0 0 0-.35-1 .76.76 0 0 0-1 .36A12.53 12.53 0 0 0 5.25 18 12.75 12.75 0 1 0 18 5.23z"/></svg>