<svg xmlns="http://www.w3.org/2000/svg" viewBox="0 0 32 32"><g fill="#010101"><path d="M21.274 4.6H10.726c-.656 0-1.19.533-1.19 1.19v20.42c0 .656.534 1.19 1.19 1.19h10.547c.656 0 1.19-.534 1.19-1.19V5.79c0-.657-.533-1.19-1.19-1.19zm.598 21.61c0 .33-.268.6-.598.6H10.726c-.33 0-.598-.27-.598-.6v-2.673H21.87v2.674zm0-2.97H10.128V8.71H21.87v14.53zm0-14.828H10.128V5.79c0-.33.268-.6.598-.6h10.547c.33 0 .598.27.598.6V8.41z"/><path d="M15.426 26.216H16.6c.446 0 .81-.363.81-.81v-.576c0-.446-.364-.81-.81-.81h-1.174c-.446 0-.81.364-.81.81v.577c0 .446.364.81.81.81zm-.364-1.386c0-.2.163-.364.364-.364H16.6c.2 0 .364.163.364.364v.577c0 .2-.163.364-.364.364h-1.174c-.2 0-.364-.162-.364-.363v-.577zM17.008 6.538h-1.992c-.123 0-.222.1-.222.222 0 .123.1.222.222.222h1.992c.123 0 .222-.1.222-.222 0-.123-.1-.222-.222-.222zM15.424 14.852c.028 0 .057-.008.082-.025l4.547-3.014c.068-.045.087-.137.042-.205-.046-.07-.138-.087-.205-.042l-4.547 3.014c-.068.045-.087.137-.042.205.03.044.077.067.124.067zM14.07 16.972c.03 0 .058-.008.083-.025l3.6-2.4c.07-.046.088-.138.042-.206-.046-.067-.138-.085-.205-.04l-3.6 2.4c-.07.046-.088.138-.042.206.028.043.075.066.123.066z"/><circle cx="13.943" cy="6.805" r=".307"/></g></svg>