<svg data-name="Layer 1" xmlns="http://www.w3.org/2000/svg" viewBox="0 0 36 36"><title>Icon-Red_Hat-Simplify-A-Black-RGB</title><path d="M30.03 17.47l-1.175-1.17-1.175-1.18a.75.75 0 0 0-1.06 1.06l.535.536.535.534H25.5c-3.916-.013-6.614-.784-8.468-1.9a7.88 7.88 0 0 1-3.4-3.955 2.793 2.793 0 0 0 1.033-.986A2.694 2.694 0 0 0 15.063 9a2.75 2.75 0 1 0-2.9 2.734 9.185 9.185 0 0 0 1.75 2.983A10.227 10.227 0 0 0 17.4 17.25h-6.267a2.783 2.783 0 0 0-.97-1.43 2.7 2.7 0 0 0-1.663-.57 2.75 2.75 0 0 0 0 5.5 2.7 2.7 0 0 0 1.663-.57 2.783 2.783 0 0 0 .97-1.43H17.4a10.225 10.225 0 0 0-3.484 2.53 9.23 9.23 0 0 0-1.75 2.986 2.757 2.757 0 0 0-1.84.848 2.75 2.75 0 1 0 4.345.475 2.8 2.8 0 0 0-1.033-.987 7.88 7.88 0 0 1 3.408-3.96c1.855-1.11 4.552-1.88 8.462-1.893h2.183l-.535.534-.535.535a.752.752 0 0 0 0 1.06.758.758 0 0 0 .248.165.753.753 0 0 0 .565 0 .754.754 0 0 0 .247-.165l1.175-1.18 1.176-1.175a.75.75 0 0 0 0-1.06zM13.2 9.883A1.248 1.248 0 1 1 13.563 9a1.244 1.244 0 0 1-.363.883zm-3.813 9A1.248 1.248 0 1 1 9.75 18a1.246 1.246 0 0 1-.366.883zm3.813 9a1.248 1.248 0 1 1 .363-.883 1.244 1.244 0 0 1-.363.883z"/></svg>