<svg xmlns="http://www.w3.org/2000/svg" width="32" height="32" viewBox="0 0 32 32"><path d="M26.87 16.99c-.05-.62-.663-1.126-1.817-1.503v-3.485c0-.614-.5-1.113-1.112-1.113h-.777v-.78c0-.612-.5-1.112-1.113-1.112h-.51c.133-1.866 0-3.258-.428-3.887-.223-.328-.49-.422-.677-.443-.725-.083-1.59.764-2.572 2.52L13.6 7.184c-1.552-1.526-2.712-2.143-3.453-1.83-.525.222-.737.84-.64 1.83h-1.45c-.615 0-1.114.5-1.114 1.112v8.663c-1.064.554-1.583 1.148-1.533 1.766.05.64.7 1.088 1.533 1.402v.35c0 .614.5 1.113 1.113 1.113h.7v.702c0 .613.5 1.112 1.114 1.112h.778v.778c0 .614.5 1.113 1.113 1.113h1.423c.09 1.438.47 2.213 1.135 2.29.03.003.062.005.094.005.704 0 1.52-.888 2.34-2.294h3.147c1.352 1.346 2.414 2.025 3.165 2.025.147 0 .282-.025.405-.077.188-.08.44-.26.57-.674.103-.32.117-.758.05-1.29.542-.072.964-.533.964-1.097v-5.286c1.026-.486 1.88-1.127 1.818-1.906zM14.55 8.177c-.17-.187-.334-.36-.496-.53h6.182c.36 0 .653.293.653.653V9h-5.623c-.242-.286-.482-.564-.718-.824zm6.348 1.283c-.042.445-.1.924-.17 1.43h-3.96c-.376-.5-.75-.98-1.118-1.43h5.248zm-1.3 5.606c-.338-.548-.682-1.084-1.03-1.61h1.7c-.13.628-.282 1.284-.455 1.966l-.217-.356zm-8.49-1.916v-1.147c0-.36.292-.653.652-.653h4.534c.428.574.857 1.175 1.282 1.8h-6.47zm7.26 0c-.416-.622-.837-1.223-1.258-1.8h3.548c-.09.568-.197 1.17-.325 1.8h-1.965zm-2.418-2.26h-4.19c-.613 0-1.113.5-1.113 1.113v8.216c-.505-.043-.98-.1-1.43-.17v-9.938c0-.36.293-.653.653-.653h4.93c.38.448.763.924 1.15 1.43zm-4.843 2.566h6.68c.425.633.844 1.286 1.254 1.952.188.305.367.605.543.9l-.006.023c-.357 1.32-.737 2.53-1.124 3.627-.69.092-1.398.17-2.122.228-1.857.15-3.643.17-5.22.065v-6.795zm8.898 3.585c.48.846.91 1.654 1.29 2.417-.686.153-1.414.288-2.175.404.318-.92.616-1.87.885-2.818zm.243-.887c.245-.926.458-1.83.637-2.697h3.71v4.98c-.298.13-.64.264-1.03.397-.496.17-1.04.326-1.617.47-.496-1.006-1.066-2.064-1.7-3.15zm4.345-4.15v1.146h-3.646c.124-.623.23-1.224.32-1.8h2.674c.36 0 .653.292.653.652zM22.05 9.458c.36 0 .653.292.653.652v.778h-1.37c.07-.5.126-.977.168-1.43h.55zm-1.683-4.193c.032.004.132.015.246.184.225.333.357 1.03.373 2.032-.198-.182-.46-.296-.75-.296h-1.678c.86-1.462 1.49-1.953 1.81-1.92zm-9.965.69c.31-.13 1.053.16 2.243 1.23h-2.48c-.077-.676.01-1.132.237-1.228zm-2.346 1.69h5.078c.29.28.598.6.932.97.11.12.225.254.338.383H9.87c-.614 0-1.113.5-1.113 1.113v9.864c-.54-.1-.99-.21-1.354-.33V8.298c0-.36.293-.654.653-.654zm-2.034 11.03c-.024-.292.31-.654.922-1.016v1.813c-.63-.27-.903-.56-.922-.796zm2.034 2.455c-.36 0-.653-.293-.653-.653v-.195c.44.133.907.234 1.354.313v.534h-.7zm1.814 1.814c-.36 0-.653-.293-.653-.653v-1.62c.45.066.93.12 1.43.16v2.113H9.87zm1.237 1.237v-3.317c.65.042 1.334.064 2.043.064 1.034 0 2.12-.045 3.228-.134.625-.05 1.238-.117 1.84-.192-.648 1.75-1.307 3.175-1.906 4.232H11.76c-.36 0-.654-.293-.654-.653zm3.278 2.802c-.243-.028-.522-.49-.602-1.69h2.26c-.7 1.138-1.295 1.73-1.658 1.69zm4.505-6.472c.944-.135 1.844-.3 2.68-.492.954 1.995 1.544 3.65 1.784 4.816H20.36c-.01-.01-.02-.018-.028-.028l-.028.028h-3.297c.65-1.198 1.295-2.7 1.882-4.323zm4.526 5.857c-.07.214-.17.257-.203.27-.314.135-1.094-.17-2.37-1.344h2.592c.065.468.06.83-.02 1.074zm1.177-2.187c0 .334-.253.607-.578.645-.243-1.283-.87-3.006-1.796-4.962.548-.14 1.065-.29 1.54-.453.274-.093.555-.197.833-.312v5.083zm.46-5.967v-2.082c.745.27 1.182.593 1.207.906.023.288-.31.71-1.207 1.176z"/></svg>