<svg xmlns="http://www.w3.org/2000/svg" viewBox="0 0 36 36"><path d="M11.734 21.986c.104.053.216.078.328.078.192 0 .38-.076.52-.22l.177-.177.176.177c.146.146.338.22.53.22.173 0 .346-.06.486-.18l9.65-8.217.14.008c2.625 0 4.753-2.128 4.753-4.753S26.367 4.17 23.742 4.17c-2.514 0-4.752 1.985-4.752 4.828v.06l-8.217 9.65c-.12.14-.18.312-.18.485 0 .193.075.385.22.53l.178.178-.176.178c-.14.142-.216.332-.216.524 0 .11.024.22.075.325l-2.058 2.058c-.723.723-1.084 1.67-1.084 2.618 0 2.118 1.733 3.702 3.703 3.702.948 0 1.895-.362 2.618-1.085l6.96-6.96c.43-.43.993-.644 1.557-.644 1.174 0 2.203.945 2.203 2.203 0 .563-.215 1.126-.645 1.556L21.14 27.16c-.72.724-1.08 1.67-1.08 2.618s.36 1.894 1.08 2.618l.697.696c.146.146.338.22.53.22.585 0 .75-.535.75-.75 0-.193-.073-.385-.22-.53l-.695-.696c-.43-.43-.644-.994-.644-1.557s.215-1.128.644-1.558l2.784-2.784c.723-.723 1.084-1.67 1.084-2.618 0-2.118-1.732-3.702-3.702-3.702-.948 0-1.895.362-2.618 1.085l-6.958 6.96c-.43.43-.994.644-1.558.644-1.174 0-2.203-.945-2.203-2.203 0-.564.216-1.127.646-1.557l2.058-2.06zm8.75-13.064c0-1.234.962-3.247 3.25-3.247 2.286 0 3.25 1.993 3.25 3.25 0 2.005-1.672 3.25-3.25 3.25-.253 0-.508-.03-.76-.09l-2.4-2.4c-.06-.254-.09-.51-.09-.763zm-.963 1.83l2.388 2.387-8.4 7.154-1.143-1.142 7.156-8.4z"/></svg>