<svg xmlns="http://www.w3.org/2000/svg" viewBox="0 0 32 32"><g fill="#010101"><path d="M9.704 22.41c-.382 0-.693.312-.693.694 0 .382.312.693.694.693.382 0 .693-.31.693-.693 0-.382-.31-.693-.693-.693zm0 .794c-.055 0-.1-.045-.1-.1 0-.055.045-.1.1-.1s.1.045.1.1c0 .055-.045.1-.1.1zM22.197 22.213c-.382 0-.693.31-.693.693 0 .382.31.693.693.693.382 0 .693-.312.693-.694 0-.383-.31-.693-.693-.693zm0 .793c-.055 0-.1-.045-.1-.1 0-.055.045-.1.1-.1.055 0 .1.045.1.1 0 .055-.045.1-.1.1zM17.97 13.79l3.667-4.682c.1-.13.078-.315-.05-.416-.13-.1-.316-.078-.417.05l-3.672 4.69c-.452-.278-.98-.44-1.55-.44-1.638 0-2.972 1.333-2.972 2.972 0 .826.34 1.573.884 2.113l-.92 1.175c-.1.13-.078.315.05.416.055.043.12.063.183.063.088 0 .175-.038.234-.113l.915-1.168c.468.307 1.027.488 1.628.488 1.64 0 2.973-1.334 2.973-2.973 0-.86-.368-1.632-.952-2.175zm-4.4 2.175c0-1.313 1.068-2.38 2.38-2.38.43 0 .834.115 1.182.316l-2.902 3.707c-.408-.428-.66-1.006-.66-1.642zm2.38 2.38c-.463 0-.895-.134-1.26-.364l2.915-3.723c.447.433.726 1.038.726 1.708 0 1.313-1.067 2.38-2.38 2.38zM15.95 6.445c.164 0 .296-.133.296-.296V3.67c0-.164-.133-.296-.296-.296s-.296.133-.296.296v2.48c0 .163.133.295.296.295zM10.058 5.106c-.084-.14-.264-.187-.406-.104-.14.083-.187.265-.104.405l1.29 2.18c.055.095.153.147.254.147.05 0 .103-.013.15-.04.14-.084.188-.266.104-.407l-1.288-2.18zM7.57 10.75L5.488 9.56c-.142-.08-.323-.032-.404.11-.08.142-.032.323.11.404l2.082 1.19c.046.026.097.04.147.04.103 0 .203-.055.258-.15.082-.142.032-.323-.11-.404zM6.43 15.965c0-.164-.132-.296-.295-.296h-2.48c-.163 0-.295.132-.295.295 0 .164.133.296.296.296h2.48c.162 0 .295-.13.295-.295zM7.267 20.572l-2.082 1.29c-.14.085-.182.268-.096.407.055.09.152.14.25.14.054 0 .108-.015.157-.045l2.082-1.29c.138-.085.18-.268.095-.407-.086-.14-.27-.182-.408-.096zM20.766 7.698c.045.025.093.036.14.036.106 0 .208-.056.26-.154l1.19-2.18c.08-.145.026-.325-.117-.403-.144-.08-.324-.025-.403.118l-1.19 2.18c-.078.145-.025.325.12.403zM28.245 15.67h-.308c-.047-1.903-.55-3.76-1.46-5.415l.324-.177c.145-.078.198-.258.12-.402-.08-.144-.26-.197-.403-.118l-.484.264c-.04.004-.08.016-.12.038-.03.018-.054.043-.076.07l-1.502.818c-.144.078-.197.258-.118.402.054.1.155.154.26.154.048 0 .097-.012.14-.036l1.34-.73c.875 1.584 1.34 3.307 1.387 5.13h-1.578c-.164 0-.296.134-.296.297 0 .164.133.296.296.296h1.578c-.048 1.728-.51 3.44-1.377 5.1l-1.34-.792c-.14-.083-.32-.036-.405.104-.083.14-.036.323.104.406l1.482.876c.026.048.06.09.112.12.045.025.095.037.144.037h.01l.435.258c.046.028.098.04.15.04.1 0 .2-.05.254-.145.083-.14.036-.323-.104-.406l-.332-.196c.922-1.752 1.412-3.565 1.46-5.4h.308c.164 0 .296-.132.296-.295 0-.164-.133-.296-.297-.296z"/><path d="M15.95 2.184c-7.544 0-13.682 6.182-13.682 13.78 0 3.918 1.662 7.65 4.56 10.237l.085.076H25.09l.084-.08c2.896-2.68 4.557-6.41 4.557-10.23 0-7.6-6.18-13.782-13.78-13.782zm8.906 23.5H7.14c-2.72-2.474-4.278-6.01-4.278-9.72 0-7.27 5.872-13.187 13.09-13.187 7.27 0 13.187 5.916 13.187 13.188 0 3.62-1.56 7.155-4.284 9.718z"/></g></svg>