<svg data-name="Layer 1" xmlns="http://www.w3.org/2000/svg" viewBox="0 0 36 36"><title>Icon-Red_Hat-Office-Cart-A-Black-RGB</title><path d="M29 25.86H13.31V9.94a.87.87 0 0 0-.05-.22 3.52 3.52 0 0 0-7 .45.75.75 0 1 0 1.5 0 2 2 0 0 1 4.06 0v16.44a.74.74 0 0 0 .75.75H29a.75.75 0 0 0 0-1.5zm-.69 2.22a.76.76 0 0 0-.82-.16.67.67 0 0 0-.24.16.81.81 0 0 0-.17.24 1 1 0 0 0 0 .29.71.71 0 0 0 .22.53.63.63 0 0 0 .24.16.72.72 0 0 0 .29.06.82.82 0 0 0 .53-.22.74.74 0 0 0 .16-.82.78.78 0 0 0-.21-.24zM15.5 24.36H28a.75.75 0 0 0 .75-.75v-12.5a.76.76 0 0 0-.75-.75H15.5a.76.76 0 0 0-.75.75v12.5a.75.75 0 0 0 .75.75zm5.44-12.5h1.62v2.65h-1.62zm-4.69 0h3.19v3.4a.76.76 0 0 0 .75.75h3.12a.76.76 0 0 0 .75-.75v-3.4h3.19v11h-11zm-3 16.22a.75.75 0 0 0-.22.53.93.93 0 0 0 .05.29.81.81 0 0 0 .17.24.63.63 0 0 0 .24.16.72.72 0 0 0 .29.06.82.82 0 0 0 .53-.22.78.78 0 0 0 .16-.24.72.72 0 0 0 .06-.29.75.75 0 0 0-.22-.53.77.77 0 0 0-1.06 0z"/></svg>