<svg xmlns="http://www.w3.org/2000/svg" viewBox="0 0 31.68 31.68"><path d="M25.96 10.5l-9.98-4.61c-.07-.03-.16-.03-.23 0L5.72 10.5c-.12.06-.18.18-.15.31.03.12.14.21.27.21h1.23v1.72c0 .15.12.28.28.28h.96v8.3h-.96c-.15 0-.28.12-.28.28v1.96c0 .15.12.28.28.28h16.58c.15 0 .28-.12.28-.28V21.6c0-.15-.12-.28-.28-.28h-.64v-8.3h.64c.15 0 .28-.12.28-.28v-1.71h1.64c.13 0 .24-.09.27-.21.02-.14-.04-.27-.16-.32zm-3.08 9.93h-1.26v-6.62h1.26v6.62zm-1.67.87h-1.76v-8.29h1.76v8.29zm-3.43-7.49h1.26v6.62h-1.26v-6.62zm1.26-.8v.53h-1.26v-.53h1.26zm-1.26 7.7h1.26v.59h-1.26v-.59zm-.41.59h-3.15v-8.29h3.15v8.29zm-4.82-7.49h1.26v6.62h-1.26v-6.62zm1.26-.8v.53h-1.26v-.53h1.26zm-1.26 7.7h1.26v.59h-1.26v-.59zm-.41.59h-1.76v-8.29h1.76v8.29zm-3.43-7.49h1.26v6.62H8.71v-6.62zm1.26-.8v.53H8.71v-.53h1.26zm-1.26 7.7h1.26v.59H8.71v-.59zm-1.09 2.56v-.57h16.03v.57H7.62zm16.03-.85H7.62v-.57h16.03v.57zm-2.03-1.12v-.59h1.26v.59h-1.26zm1.26-7.77h-1.26V13h1.26v.53zm.77-1.07H7.62v-1.44h16.03v1.44zM7.09 10.47l8.78-4.04 8.74 4.04H7.09zm8.74-3.64c.03-.02.08-.02.11 0l5.34 2.49c.07.03.1.11.07.18-.02.05-.07.08-.12.08-.02 0-.04-.01-.06-.01l-5.29-2.46-1.18.52c-.07.03-.15 0-.18-.07s0-.15.07-.18l1.24-.55z"/></svg>