<svg data-name="Icon" xmlns="http://www.w3.org/2000/svg" width="36" height="36" viewBox="0 0 36 36"><title>Icon-Red_Hat-Objects-Bank_safe-A-Black-RGB</title><path d="M23.71 11.69a.72.72 0 0 0 .29.06.75.75 0 0 0 .29-.06.78.78 0 0 0 .24-.16.75.75 0 0 0 0-1.06.63.63 0 0 0-.24-.16.73.73 0 0 0-.58 0 .63.63 0 0 0-.24.16.78.78 0 0 0-.16.24.74.74 0 0 0 .16.82.78.78 0 0 0 .24.16zM29 6.25H7a.76.76 0 0 0-.73.75v22a.76.76 0 0 0 .75.75H29a.76.76 0 0 0 .75-.75V7a.76.76 0 0 0-.75-.75zm-.75 22H7.77V7.75h20.46zM12.73 18a4.51 4.51 0 0 0 1.62 3.44L13 23.77a.75.75 0 0 0 .26 1 .67.67 0 0 0 .38.11.74.74 0 0 0 .64-.36l1.39-2.31a4.45 4.45 0 0 0 6-3.46h2.72a.75.75 0 1 0 0-1.5h-2.72a4.46 4.46 0 0 0-6-3.46l-1.35-2.35a.75.75 0 0 0-1.31.74l1.36 2.36A4.5 4.5 0 0 0 12.73 18zm4.51-3a3 3 0 0 1 2.91 2.26h-2.47l-1.24-2.16a3 3 0 0 1 .8-.1zm.47 3.78h2.43a2.95 2.95 0 0 1-3.7 2.14zm-2.57-2.92l1.26 2.19-1.27 2.1a3 3 0 0 1 0-4.29z"/></svg>