<svg xmlns="http://www.w3.org/2000/svg" viewBox="0 0 32 32"><path d="M20.03 5.57c-.06-.06-.14-.09-.22-.09H8.55c-.17 0-.31.14-.31.31v20.43c0 .17.14.31.31.31h14.9c.17 0 .31-.14.31-.31V9.53c0-.08-.03-.16-.09-.21l-3.64-3.75zm.09.97l2.77 2.85h-2.77V6.54zM8.86 6.09h10.65v3.48c0 .02.01.04.01.07 0 .02-.01.04-.01.07 0 .17.14.31.31.31h3.33v15.9H8.86V6.09zm11.88 6.68h-9.65c-.13 0-.23-.1-.23-.23s.1-.23.23-.23h9.65c.13 0 .23.1.23.23s-.1.23-.23.23zm-1.97 2.38h-7.69c-.13 0-.23-.1-.23-.23s.1-.23.23-.23h7.69c.13 0 .23.1.23.23s-.1.23-.23.23zm1.97 2.37h-9.65c-.13 0-.23-.1-.23-.23s.1-.23.23-.23h9.65c.13 0 .23.1.23.23s-.1.23-.23.23zm-1.97 2.38h-7.69c-.13 0-.23-.1-.23-.23s.1-.23.23-.23h7.69c.13 0 .23.1.23.23s-.1.23-.23.23zm1.97 2.38h-9.65c-.13 0-.23-.1-.23-.23s.1-.23.23-.23h9.65c.13 0 .23.1.23.23s-.1.23-.23.23z"/></svg>