<svg xmlns="http://www.w3.org/2000/svg" viewBox="0 0 32 32"><path d="M24.64 17.95c-.65-9.11-7.89-8.85-7.94-8.85-4.4-.08-6.27 1.63-6.55 1.9-.27.16-.32.48-.31.67l-.16 2.14c0 .02 0 .03.01.04-.98 1.64-1.14 3.33-1.16 3.97-.02 0-.03.01-.05.01L5.8 19.04c-.12.05-.18.19-.15.32.09.35.47.92 1.25.92.11 0 .23-.01.35-.04.02 0 1.76-.44 3.84-.49l5.3-.04c.23 0 5.65.11 7.87-.4.37-.07 1.01-.24 1.05-.66.03-.34-.32-.55-.67-.7zm-.48.84c-2.16.5-7.7.39-7.76.39l-5.31.04c-2.15.04-3.89.48-3.95.5-.5.1-.75-.12-.87-.3l2.3-1.02c.67.37 1.73.3 1.78.29.15-.01.26-.14.25-.29-.01-.15-.14-.25-.29-.25-.23.02-.81.01-1.25-.13-.02-.67.05-6.44 6.88-7.29.15-.02.25-.15.23-.3-.02-.15-.15-.25-.3-.23-2.79.35-4.52 1.5-5.59 2.82l.1-1.32v-.05s-.01-.15.06-.18c.03-.01.06-.03.08-.06.02-.02 1.77-1.85 6.19-1.77.28-.02 6.76-.25 7.4 8.28-.39.08-1.2.23-1.69.23-.15 0-.27.12-.27.27s.12.27.27.27c.62 0 1.66-.21 1.95-.28.21.08.32.15.37.19-.12.07-.36.15-.58.19zm-3.54-4.8c-.12.04-.19.17-.15.29.01.02.76 2.4.59 3.84-.07.03-.26.08-.72.08-.81 0-1.96-.01-2.44-.02v-.38c0-.13-.1-.23-.23-.23h-2.41c-.13 0-.23.1-.23.23v.39c-1.02.03-2.03-.01-2.05-.01-.8-.01-1.05-.11-1.13-.15 0-1.8.48-3.16.48-3.18.04-.12-.02-.25-.14-.29s-.25.02-.29.14c-.02.06-.5 1.45-.51 3.33-.01.07 0 .15.05.24.11.17.38.36 1.52.38.01 0 1.19.04 2.29 0 .12 0 .22-.11.22-.23v-.39h1.95v.39c0 .13.1.23.23.23 0 0 1.62.02 2.67.02.66 0 1-.09 1.13-.3.05-.08.05-.15.05-.22.16-1.54-.58-3.9-.62-4 0-.13-.13-.19-.26-.16z"/></svg>