<svg xmlns="http://www.w3.org/2000/svg" viewBox="0 0 32 32"><path d="M15.07 3.52s0 .01 0 0c0 .09.44.16.98.16s.98-.07.98-.16-.44-.16-.98-.16-.98.07-.98.16zM11.88 15.9v.11c.01.03.01-.4 0-.11zm6.08-6.26l-.34-4.01c0-.05 0-.11-.01-.16.17-.1.27-.24.27-.43V3.31c0-.58-1.02-.7-1.88-.7s-1.88.12-1.88.7v1.73c0 .18.1.32.27.43-.01.05-.01.11-.01.16l-.34 4.01c-2.22 1.35-2.68 3.67-2.71 6.27-.01.04.16 12.07.16 12.07 0 .25.21.47.56.67l.38.18c.61.25 1.47.42 2.39.51.44.04.72.07 1.17.07.45 0 .74-.02 1.18-.07.22-.02.43-.05.64-.08.41-.06.8-.14 1.15-.24.21-.06.41-.12.59-.2l.38-.18c.35-.19.56-.42.56-.67l.02-2.8c.01-.33.17-8.1.17-8.13v-1.03c-.01-2.94-.73-5.24-2.72-6.37zm-3.29-6.28c.1-.07.47-.2 1.33-.2.86 0 1.24.14 1.33.2v1.63c-.1.07-.47.2-1.33.2s-1.24-.14-1.33-.2V3.36zm5.23 24.51c-.03.12-.29.31-.86.49-.73.23-1.68.43-3.06.43-1.38 0-2.33-.2-3.06-.43-.21-.07-.39-.14-.54-.2-.24-.11-.29-.21-.31-.29l-.19-11.86v-.11c-.02-2.31.5-4.65 2.52-5.81.11-.06.19-.17.19-.29l.34-4.15c.33.07.71.09 1.07.09.36 0 .74-.02 1.07-.09l.34 4.18c0 .12.08.21.19.26 1.75.87 2.53 2.91 2.53 5.91l-.23 11.87zm-1.61-9.61c-.02-.01-.05 0-.07.01l-1.17.7c-.04.02-.05.08-.03.12l.62 1.1h-.67v-.26c0-.04 0-.08-.05-.12-.05-.03-.1-.03-.16.01-.01 0-.01.01-.02.02l-.68.98c-.02.03-.02.07 0 .1l.68.98c0 .01.01.01.02.02.03.02.06.03.09.03.02 0 .05-.01.07-.02.05-.04.05-.08.05-.12v-.26h.49c.51 0 .68-.29.69-.31l.61-1.18c.24-.53.04-.91.03-.93l-.45-.82c-.01-.03-.03-.04-.05-.05zm-.3 2.89s-.13.22-.54.22h-.58c-.02 0-.05.01-.06.03-.02.02-.03.04-.02.06v.21l-.56-.81.56-.81v.21c0 .02.01.05.02.06.02.02.04.03.06.03h1.19c.05 0 .21 0 .37-.06l-.44.86zm.61-1.17c-.09.17-.39.21-.54.21h-.24l-.62-1.11 1.03-.61.4.74c.01.01.17.32-.03.77zm-3 .04h-1.28l.35-.6.23.14c.03.01.05.03.08.03.02 0 .04-.01.05-.01.05-.02.07-.08.07-.14 0-.01 0-.02-.01-.03l-.5-1.08c-.02-.03-.05-.05-.09-.05l-1.19.09c-.01 0-.02 0-.03.01-.06.03-.09.07-.09.13 0 .07.04.08.08.11l.22.13-.24.42c-.07.11-.11.23-.13.34v.01c-.03.24.12.51.13.52l.63 1c.34.48.77.5.78.5l.94.03c.02 0 .04-.01.06-.02.02-.02.03-.04.03-.06v-1.37c0-.06-.04-.1-.09-.1zm-2.3-.5c.02-.09.06-.19.11-.28l.29-.5c.01-.02.01-.04.01-.07s-.02-.04-.04-.05l-.18-.1.98-.07.41.89-.19-.11c-.02-.01-.04-.02-.07-.01s-.04.02-.05.04l-.45.77c-.13 0-.44-.02-.65-.16-.11-.09-.17-.2-.17-.35zm2.22 1.87l-.84-.03c-.02 0-.36-.02-.65-.42l-.55-.88c.02.01.04.01.05.02.02.01.05.02.07.03.04.01.08.03.12.03.02.01.05.01.07.01.05.01.09.01.13.02.02 0 .03 0 .05.01.06 0 .11.01.15.01H15.5l.02 1.2zm.87-3.5l-.22.12c-.04.02-.07.04-.08.1-.01.06.03.1.08.13.01 0 .02.01.03.01l1.18.15h.01c.03 0 .06-.02.08-.05l.55-1.05c0-.01.01-.02.01-.03.01-.06-.01-.12-.06-.15-.01-.01-.03-.02-.06-.02s-.05.01-.07.02l-.25.12-.21-.43c-.24-.46-.57-.47-.59-.47h-1.33c-.59.03-.83.39-.84.4l-.52.77c-.01.02-.02.04-.01.07s.02.04.04.06l1.16.72c.01.01.03.01.05.01.03 0 .06-.01.07-.04l.69-1.05c-.01.02.29.61.29.61zm-1.09.3l-1.01-.63.47-.7c.01-.01.2-.3.7-.33.2 0 .38.27.43.38l.11.22-.7 1.06zm.52-1.65h.96c.01 0 .25.02.44.38l.25.51c.01.02.03.04.05.04.02.01.05.01.07 0l.21-.1-.46.87-.98-.12.18-.1c.04-.02.06-.07.04-.11l-.53-1.05c-.01-.03-.09-.19-.23-.32z"/></svg>