<svg data-name="Layer 1" xmlns="http://www.w3.org/2000/svg" viewBox="0 0 36 36"><title>Icon-Red_Hat-Bicycle-A-Black-RGB</title><path d="M29.384 18.14a4.937 4.937 0 0 0-3.5-1.453 4.815 4.815 0 0 0-.81.082l-.364-1.1-1.887-5.75c0-.01-.012-.015-.015-.025a.726.726 0 0 0-.08-.14.756.756 0 0 0-.073-.11c-.006-.005-.008-.014-.014-.02a.73.73 0 0 0-.1-.066.817.817 0 0 0-.093-.074c-.008 0-.017 0-.025-.007a.694.694 0 0 0-.128-.037.736.736 0 0 0-.155-.032c-.012 0-.02-.005-.032-.005h-2.573a.75.75 0 1 0 0 1.5h2.032l1.21 3.686c-.015 0-.03-.006-.048-.006h-6.817l-.355-1.063-.2-.588h1.06a.75.75 0 1 0 0-1.5h-3.147a.75.75 0 1 0 0 1.5h.51L14.136 14l.393 1.18-1.864 2.238A4.964 4.964 0 1 0 15 22.39h2.48a.8.8 0 0 0 .12-.008.846.846 0 0 0 .117-.03c.016-.005.027-.017.043-.024s.026 0 .038-.008.043-.037.067-.052a.72.72 0 0 0 .152-.118c.012-.012.028-.017.04-.03l2.626-3.152 2.537-3.045.07.21.364 1.11a4.937 4.937 0 1 0 5.735.9zM12.56 24.08a3.453 3.453 0 1 1-2.443-5.895 3.407 3.407 0 0 1 1.572.4L9.54 21.16a.74.74 0 0 0-.168.385.745.745 0 0 0 .34.728.742.742 0 0 0 .4.118h3.367a3.456 3.456 0 0 1-.92 1.692zm-.84-3.19l1.122-1.35a3.415 3.415 0 0 1 .642 1.35zm3.275 0a4.9 4.9 0 0 0-1.18-2.516l1.27-1.527.627 1.875.722 2.166zm4.13-2.4l-1.365 1.634-.625-1.875-.722-2.166h4.715zm9.2 5.593a3.453 3.453 0 1 1-4.884-4.885 3.506 3.506 0 0 1 .683-.514l1.047 3.19a.748.748 0 0 0 .712.515.768.768 0 0 0 .118-.01.828.828 0 0 0 .117-.027.75.75 0 0 0 .48-.947l-1.05-3.186a3.362 3.362 0 0 1 .336-.033 3.452 3.452 0 0 1 2.44 5.9z"/></svg>