<svg xmlns="http://www.w3.org/2000/svg" width="32" height="32" viewBox="0 0 32 32"><path d="M23.55 14.652c-.013-.002-.54-.057-1.48-.12V11.34c0-3.37-2.74-6.11-6.11-6.11s-6.11 2.74-6.11 6.11v3.19c-.94.064-1.468.12-1.48.12-.16.02-.28.153-.28.314V25.04c0 .16.12.293.277.312.034.004 3.45.396 7.593.396s7.558-.39 7.592-.396c.16-.02.28-.153.28-.313V14.964c-.002-.16-.123-.295-.282-.313zm-.35 10.105c-.89.092-3.813.362-7.24.362s-6.35-.27-7.24-.363V15.25c.235-.022.62-.054 1.13-.09l.63-.04c.535-.032 1.168-.064 1.888-.09l.63-.02c.883-.028 1.874-.046 2.963-.046s2.08.018 2.964.045c.216.005.426.013.63.02.72.027 1.353.058 1.89.09l.63.04c.51.036.893.07 1.13.09v9.507zM18.924 14.38c-.885-.028-1.875-.045-2.963-.045s-2.078.018-2.963.044v-3.04c0-1.634 1.33-2.963 2.963-2.963 1.634 0 2.963 1.33 2.963 2.963v3.04zm-8.445-3.04c0-3.022 2.458-5.482 5.482-5.482 3.022 0 5.482 2.46 5.482 5.482v3.15c-.538-.032-1.173-.063-1.89-.09v-3.06c0-1.98-1.61-3.593-3.592-3.593s-3.593 1.612-3.593 3.593v3.06c-.716.026-1.35.058-1.89.09v-3.15zm11.593 5.107h.02c.13 0 .237.106.237.236s-.106.236-.236.236h-8.93c-.07 0-.13-.033-.173-.08-.038-.043-.062-.097-.062-.158 0-.066.028-.126.07-.17.043-.04.1-.066.166-.066h8.91zm-10.266.236c0 .087-.07.158-.158.158H9.762c-.087 0-.158-.07-.158-.157s.07-.158.158-.158h1.884c.087 0 .158.07.158.158zm10.524 5.038c0 .13-.106.237-.236.237h-8.93c-.13 0-.236-.106-.236-.236s.106-.235.236-.235h8.93c.13 0 .236.105.236.236zm-10.524 0c0 .088-.07.16-.158.16H9.762c-.087 0-.158-.07-.158-.16 0-.086.07-.157.158-.157h1.884c.087 0 .158.07.158.158zm10.524 1.68c0 .13-.106.236-.236.236h-8.93c-.13 0-.236-.106-.236-.236s.106-.236.236-.236h8.93c.13 0 .236.106.236.236zm-10.524 0c0 .087-.07.158-.158.158H9.762c-.087 0-.158-.07-.158-.158 0-.087.07-.158.158-.158h1.884c.087 0 .158.07.158.158zm10.524-3.358c0 .13-.106.236-.236.236h-8.93c-.13 0-.236-.106-.236-.236s.106-.236.236-.236h8.93c.13 0 .236.105.236.236zm-10.524 0c0 .087-.07.158-.158.158H9.762c-.087 0-.158-.07-.158-.158 0-.087.07-.158.158-.158h1.884c.087 0 .158.07.158.158zm10.524-1.68c0 .13-.106.236-.236.236h-8.93c-.13 0-.236-.106-.236-.236s.106-.236.236-.236h8.93c.13 0 .236.106.236.236zm-10.55-.08c.015.023.027.05.027.08 0 .088-.07.16-.158.16H9.763c-.087 0-.158-.07-.158-.16 0-.086.07-.157.158-.157h1.884c.056 0 .103.03.13.076z"/></svg>