<svg xmlns="http://www.w3.org/2000/svg" width="32" height="32" viewBox="0 0 32 32"><path d="M10.68 23.676c0 .303.255.577.68.813v.38c0 .9 2.64 1.527 5.01 1.527s5.013-.627 5.013-1.528v-.38c.425-.236.68-.51.68-.814v-14.5c0-.21-.21-.603-.618-1.167-.176-.738-1.966-1.067-3.614-1.183-.143-.305-.452-.518-.81-.518h-1.294c-.36 0-.668.212-.812.517-1.735.12-3.63.48-3.63 1.302v.003c-.602.738-.604.965-.604 1.043v14.5zm5.69 2.26c-2.737 0-4.55-.76-4.55-1.067v-.164c1.107.443 2.865.707 4.552.707 1.686 0 3.443-.264 4.552-.707v.163c0 .307-1.814 1.067-4.552 1.067zm4.78-17.28c.162.247.286.46.3.52l.002 14.494c-.037.15-.442.386-1.136.603-.893.28-2.263.528-3.944.528-1.683 0-3.055-.25-3.948-.527-.69-.215-1.095-.448-1.132-.596V9.2l.01-.023c.04-.092.168-.28.33-.493.31.22.8.378 1.35.493 1.43.3 3.264.306 3.39.306s1.96-.006 3.39-.306zM15.724 6.77h1.293c.217 0 .398.157.434.364l-.192.23c-.034.042-.053.095-.053.148 0 .106 0 .19-.44.19h-.79c-.442 0-.442-.084-.442-.19 0-.054-.02-.106-.053-.147l-.192-.23c.036-.208.217-.366.434-.366zm-.645.83c.022.207.118.338.242.42-.365.068-.603.17-.603.287 0 .204.726.37 1.623.37s1.624-.166 1.624-.37c0-.112-.22-.21-.56-.28.13-.08.234-.212.256-.427l.136-.164c1.807.125 2.876.47 3.038.693-.2.276-1.796.74-4.466.74s-4.265-.464-4.466-.74c.162-.224 1.23-.57 3.04-.694l.135.164zm-1.65 3.116c.114 0 .212-.083.228-.198.018-.126-.07-.242-.195-.26-.52-.074-.976-.168-1.35-.278-.122-.036-.25.034-.286.156-.035.122.034.25.156.285.396.117.872.215 1.415.292l.033.003zm7.2-.735c-.992.294-2.584.468-4.258.468-.375 0-.753-.01-1.123-.026-.114-.008-.236.092-.242.22s.092.233.22.24c.377.017.76.026 1.144.026 1.742 0 3.34-.177 4.39-.486.12-.036.19-.164.155-.286-.036-.12-.165-.19-.286-.155z"/></svg>