<svg data-name="Icon" xmlns="http://www.w3.org/2000/svg" width="36" height="36" viewBox="0 0 36 36"><title>Icon-Red_Hat-Science_and_nature-Atom-A-Black-RGB</title><path d="M18 15.75A2.25 2.25 0 1 0 20.25 18 2.25 2.25 0 0 0 18 15.75zm0 3a.75.75 0 1 1 .75-.75.76.76 0 0 1-.75.75zm6.57-.75a36.13 36.13 0 0 0 3.63-5.08c1.69-3 2-5 .94-6.06s-3.1-.75-6.06.94A36.13 36.13 0 0 0 18 11.43a36.13 36.13 0 0 0-5.08-3.63c-3-1.69-5-2-6.06-.94s-.75 3.1.94 6.06A36.13 36.13 0 0 0 11.43 18a36.13 36.13 0 0 0-3.63 5.08c-1.69 3-2 5-.94 6.06a2.26 2.26 0 0 0 1.66.62 9.66 9.66 0 0 0 4.4-1.56A36.13 36.13 0 0 0 18 24.57a36.13 36.13 0 0 0 5.08 3.63 9.66 9.66 0 0 0 4.4 1.56 2.26 2.26 0 0 0 1.66-.62c1.06-1.06.75-3.1-.94-6.06A36.13 36.13 0 0 0 24.57 18zm-.74-8.9a8.28 8.28 0 0 1 3.63-1.35.88.88 0 0 1 .62.17c.29.3.38 1.52-1.18 4.25a33 33 0 0 1-3.33 4.68c-.68-.76-1.39-1.52-2.15-2.27s-1.51-1.47-2.27-2.15a33 33 0 0 1 4.68-3.33zM9.1 12.17C7.54 9.44 7.63 8.22 7.92 7.92a.88.88 0 0 1 .62-.17 8.28 8.28 0 0 1 3.63 1.35 33 33 0 0 1 4.68 3.33c-.76.68-1.52 1.39-2.27 2.15s-1.47 1.51-2.15 2.27a33 33 0 0 1-3.33-4.68zm3.07 14.73c-2.73 1.56-3.95 1.47-4.25 1.18s-.38-1.52 1.18-4.25a33.52 33.52 0 0 1 3.33-4.68c.68.76 1.39 1.52 2.15 2.27s1.51 1.47 2.27 2.15a33 33 0 0 1-4.68 3.33zm3.47-6.54c-.79-.78-1.53-1.57-2.23-2.36.7-.79 1.44-1.58 2.23-2.36s1.57-1.53 2.36-2.22c.79.69 1.58 1.43 2.36 2.22s1.53 1.57 2.23 2.36c-.7.79-1.44 1.58-2.23 2.36s-1.57 1.53-2.36 2.23c-.79-.7-1.58-1.44-2.36-2.23zm12.44 7.72c-.3.29-1.52.38-4.25-1.18a33 33 0 0 1-4.68-3.33c.76-.68 1.52-1.39 2.27-2.15s1.47-1.51 2.15-2.27a33.52 33.52 0 0 1 3.33 4.68c1.56 2.73 1.47 3.95 1.18 4.25z"/></svg>