<svg data-name="Layer 1" xmlns="http://www.w3.org/2000/svg" width="36" height="36" viewBox="0 0 36 36"><title>Icon-Red_Hat-Objects-Graduation_cap-A-Black-RGB</title><path d="M30.92 19.39a.76.76 0 0 0-.75.75v5.37a.75.75 0 1 0 1.5 0v-5.37a.75.75 0 0 0-.75-.75zm2.36-5.32l-15-5.36a.72.72 0 0 0-.5 0l-15 5.36a.76.76 0 0 0 0 1.42l5.94 2.12v5.76a.76.76 0 0 0 .49.7l8.59 3.22a.7.7 0 0 0 .52 0l8.59-3.22a.76.76 0 0 0 .49-.7v-5.76l5.94-2.12a.76.76 0 0 0 0-1.42zm-7.44 8.78L18 25.78l-7.84-2.93v-4.71l7.59 2.71a.74.74 0 0 0 .25 0 .7.7 0 0 0 .25 0l7.59-2.71zM18 19.35L5.21 14.78 18 10.21l5.2 1.86-5.46 2a.75.75 0 0 0 .26 1.46.6.6 0 0 0 .26 0l7.15-2.62 5.38 1.92zm13.48-1.88a.7.7 0 0 0-.24-.17.8.8 0 0 0-.57 0 .74.74 0 0 0-.25.17.78.78 0 0 0-.16.24.72.72 0 0 0-.06.29.75.75 0 0 0 .75.74.76.76 0 0 0 .7-1 .81.81 0 0 0-.17-.27z"/></svg>