<svg xmlns="http://www.w3.org/2000/svg" width="32" height="32" viewBox="0 0 32 32"><path d="M28.037 7.702c-.03-.03-.073-.042-.114-.032-.004 0-.007.002-.01.004l-2.21.808c-.04.014-.068.046-.076.086-.01.04.003.08.032.11l.36.362-1.05 1.05V7.447c0-.307-.25-.557-.556-.557H7.494c-.306 0-.557.25-.557.558v12.42l-2.152 2.15c-.18.18-.18.47 0 .65.09.09.207.135.325.135s.235-.045.325-.134l1.5-1.502v3.198c0 .307.25.557.56.557H24.41c.307 0 .557-.25.557-.557V11.388l1.698-1.7.373.374c.03.03.07.04.11.032.044-.003.07-.036.086-.074l.828-2.194c.016-.043.005-.093-.026-.125zm-7.503 3.966h2.856l-2.856 2.856v-2.856zM7.55 16.014h3.24l-3.24 3.24v-3.24zm3.89 8.296H7.55v-3.755l.194-.195h3.697v3.95zm0-4.333H8.128l3.314-3.314v3.314zm0-4.614l-.267.268H7.55V11.67h3.89v3.695zm0-4.078H7.55v-3.78h3.89v3.78zm4.356 13.025h-3.972v-3.95h3.972v3.95zm0-4.333h-3.972V16.28l.266-.266h3.29l.416.416v3.548zm-3.322-4.346l1.262-1.26 1.262 1.26h-2.523zm3.322-.5l-1.735-1.735c-.18-.18-.47-.18-.65 0l-1.585 1.586V11.67h3.972v3.462zm0-3.845h-3.972v-3.78h3.972v3.78zM20.15 24.31h-3.97v-3.95h3.97v3.95zm0-4.333h-3.97v-3.164l1.357 1.358c.18.18.47.18.65 0l1.963-1.962v3.77zm-3.47-3.963h2.363l-1.182 1.182-1.18-1.182zm3.47-1.107l-.723.724h-3.13l-.118-.117v-3.845h3.97v3.24zm0-3.622h-3.97v-3.78h3.97v3.78zm4.207 13.025h-3.822v-3.95h3.822v3.95zm0-4.333h-3.822v-3.963h3.822v3.963zm0-4.346h-3.63l3.63-3.628v3.63zm0-4.928l-.583.583h-3.24v-3.78h3.823V10.7z"/></svg>