<svg xmlns="http://www.w3.org/2000/svg" width="32" height="32" viewBox="0 0 32 32"><path d="M22.06 7.237h-3.53l-.49-1.63c-.034-.117-.155-.187-.275-.156L10.607 7.24h-.28c-.17 0-.305.137-.305.306v5.264L7.53 11.294c-.11-.066-.25-.032-.316.077-.066.11-.032.25.077.317l2.732 1.66v1.925L7.53 13.758c-.11-.066-.25-.032-.316.077-.066.11-.032.25.077.316l2.732 1.66v8.602c0 .17.137.306.306.306h.324c-.2.195-.324.466-.324.766 0 .59.48 1.073 1.072 1.073.59 0 1.072-.48 1.072-1.073 0-.3-.124-.57-.324-.766h8.092c-.2.195-.324.466-.324.766 0 .59.48 1.073 1.072 1.073.59 0 1.072-.48 1.072-1.073 0-.3-.125-.57-.324-.766h.324c.17 0 .306-.137.306-.306V7.544c0-.17-.137-.306-.306-.306zM17.665 5.95l.387 1.287h-5.543l5.158-1.287zm-7.03 1.9h11.12v.806h-11.12V7.85zm.767 18.376c-.41 0-.742-.333-.742-.742 0-.41.333-.742.743-.742s.743.333.743.742c0 .41-.333.742-.742.742zm9.59 0c-.41 0-.743-.333-.743-.742 0-.41.333-.742.742-.742s.74.333.74.742c0 .41-.332.742-.74.742zm.764-3.566h-.9c-.096 0-.173-.077-.173-.173 0-.095.078-.172.173-.172h.9v.345zm0-.652h-.9c-.265 0-.48.215-.48.48s.215.478.48.478h.9v1.138h-11.12v-3.13h11.12v1.033zm0-2.93h-.9c-.096 0-.173-.077-.173-.172 0-.095.078-.173.173-.173h.9v.345zm0-.65h-.9c-.265 0-.48.214-.48.478s.215.48.48.48h.9v1.128h-11.12v-3.116h11.12v1.03zm0-5.76h-.9c-.096 0-.173-.077-.173-.173 0-.095.078-.172.173-.172h.9v.345zm0-.65h-.9c-.265 0-.48.213-.48.478 0 .264.215.48.48.48h.9v3.962h-11.12v-6.005h11.12v1.083zm0-1.544H10.636V9.116h11.12v1.358z"/></svg>