<svg xmlns="http://www.w3.org/2000/svg" viewBox="0 0 36 36"><path d="M26.154 13.49c0-4.893-3.822-8.344-8.172-8.344-4.582 0-8.136 4-8.136 7.508 0 .29.227.75.75.75.384 0 .712-.294.747-.683.323-3.53 3.275-6.072 6.63-6.072 3.55 0 6.682 2.832 6.682 6.84 0 3.096-1.638 5.572-4.08 7.475-1.948 1.52-3.23 3.68-3.23 5.418 0 1.635-1.325 2.96-2.96 2.96-1.632 0-2.958-1.325-2.958-2.96 0-.413-.336-.75-.75-.75-.41 0-.75.33-.75.754 0 2.46 1.995 4.455 4.456 4.455 2.433 0 4.436-1.953 4.455-4.386.014-1.726 1.325-3.28 2.72-4.358 2.797-2.158 4.596-5.06 4.596-8.607zm-12.02 6.55c-.655 0-1.29.226-1.78.66-.412.413-.624.978-.614 1.562.007.414.336.75.75.75s.75-.336.75-.75c-.053-.477.397-.717.874-.72 1.936-.016 3.505-1.57 3.505-3.507 0-1.65-1.155-3.075-2.767-3.425v-1.18c0-1.714 1.384-3.103 3.098-3.103s3.104 1.39 3.104 3.103c0 .414.336.75.75.75s.75-.336.75-.75c0-2.542-2.064-4.602-4.606-4.6-2.542.002-4.594 2.064-4.592 4.606v1.85c.004.412.346.743.758.744 1.108 0 2.005.9 2.004 2.007 0 1.098-.886 2.007-1.984 2.004z"/></svg>