<svg data-name="Layer 1" xmlns="http://www.w3.org/2000/svg" viewBox="0 0 36 36"><title>Icon-Red_Hat-Software_and_technologies-Container_Unsecured-A-Black-RGB</title><path d="M20.63 26.32l-4.82 2.78-9.87-5.7V12l9.87-5.69L25.68 12v8a.75.75 0 0 0 1.5 0v-8.4a.76.76 0 0 0-.37-.65L16.19 4.79a.77.77 0 0 0-.75 0L4.81 10.92a.76.76 0 0 0-.37.65v12.27a.77.77 0 0 0 .37.65l10.63 6.13a.69.69 0 0 0 .37.1.75.75 0 0 0 .38-.1l5.19-3a.75.75 0 1 0-.75-1.3zm10 2.95l-.86-.86a3.56 3.56 0 0 0 .38-1.6v-3a.75.75 0 0 0-.52-.71l-3-1a.76.76 0 0 0-.47 0l-2 .67-.82-.77a.75.75 0 0 0-1.06 0 .74.74 0 0 0 0 1.06l6.53 6.55.71.71a.75.75 0 0 0 1.06 0 .75.75 0 0 0 .01-1.05zm-8-2.46a3.75 3.75 0 0 0 3.75 3.75 3.49 3.49 0 0 0 1.08-.18l-4.83-4.83z"/></svg>