<svg xmlns="http://www.w3.org/2000/svg" viewBox="0 0 32 32"><path d="M29.05 10.96l-1.52-.89c-.03-.02-.08-.03-.12-.02-.04.01-.07.04-.09.07l-.3.52-1.11 1.91c-.36-.44-.35-.44-.8-.99-1.31-1.53-3.24-2.48-5.34-2.48-3.09 0-5.81 2.02-6.71 4.94-.5-.18-1.03-.27-1.57-.27-2.19 0-4.07 1.51-4.56 3.61-1.95.07-3.6 1.43-4.04 3.35-.02.09 0 .18.06.25s.14.11.23.11H22c.03.01.08.01.12.01.01 0 .01-.01.02-.01s.01.01.02.01c.03 0 .07 0 .1-.02l1.64-.97v-.01c.02-.01.04-.03.05-.05l5.17-8.87c.02-.07 0-.16-.07-.2zM22.15 19c-.01.02-.02.04-.02.06l-.09 1.43H3.55c.5-1.51 1.91-2.54 3.55-2.54h.04c.15.01.27-.1.29-.24.36-1.95 2.05-3.37 4.04-3.37.53 0 1.05.11 1.54.31.3.15.95.52 1.35 1.2.05.08.14.12.23.1.03-.01.05-.01.07-.03.1-.06.14-.2.08-.3-.35-.58-.84-.96-1.21-1.19.76-2.81 3.31-4.76 6.22-4.76 2.04 0 3.9.95 5.09 2.48.43.5.7.99.7.99L22.15 19zm.88 1.24l-.67-.02.06-.89 1.08.63-.47.28zm.72-.49l-1.26-.73 5.01-8.61 1.26.73c0 .01-5.01 8.61-5.01 8.61z"/></svg>