<svg xmlns="http://www.w3.org/2000/svg" width="32" height="32" viewBox="0 0 32 32"><path d="M17.258 19.97c-.127 0-.23.102-.23.23v3.907c0 .127.103.23.23.23s.23-.103.23-.23V20.2c0-.128-.103-.23-.23-.23zm-1.31-9.093h-1.072c-.127 0-.23.103-.23.23v3.908c0 .127.103.23.23.23s.23-.103.23-.23v-3.678h.843c.126 0 .23-.103.23-.23s-.104-.23-.23-.23zM22.65 7.75c-.057-.083-.15-.13-.25-.13h-2.995c-.028-.566-.18-.98-.35-1.27.082-.142.108-.323.072-.518-.044-.235-.174-.476-.365-.678-.406-.427-1.01-.548-1.317-.258-.16.15-.223.39-.174.65.045.236.174.477.365.678.253.266.58.426.87.426.093 0 .178-.016.255-.046.125.238.235.57.26 1.015H9.6c-.1 0-.194.047-.252.13-.057.082-.07.187-.036.28l1.036 2.82c.044.12.16.2.288.2h2.944v12.775h-1.093c-.155 0-.286.116-.304.27l-.337 2.824c-.01.085.017.173.075.238.06.066.143.103.23.103h7.694c.087 0 .17-.037.23-.102.057-.066.085-.153.074-.24l-.337-2.823c-.018-.154-.148-.27-.303-.27h-1.093V11.05h2.945c.127 0 .242-.08.286-.2l1.036-2.818c.035-.094.02-.2-.036-.282zm-4.094-1.978c-.088-.056-.206-.032-.263.057-.058.087-.033.205.054.264.01.006.086.058.183.17-.178.007-.43-.106-.615-.302-.14-.146-.236-.323-.266-.484-.016-.078-.027-.22.06-.302.043-.04.104-.06.182-.06.186 0 .414.117.594.305.14.147.236.324.266.485l.005.043c-.11-.112-.19-.168-.202-.175zm.682 18.666l.263 2.21h-7.003l.264-2.21h.822v.99c0 .168.137.305.306.305h4.222c.17 0 .306-.138.306-.306v-.99h.82zm-5.043.68V10.44h3.61v14.68h-3.61zm6.955-14.68h-2.732v-.307c0-.168-.137-.305-.306-.305H13.89c-.17 0-.307.137-.307.306v.307h-2.73l-.812-2.205h11.92l-.81 2.205z"/></svg>