<svg xmlns="http://www.w3.org/2000/svg" width="32" height="32" viewBox="0 0 32 32"><path d="M3.583 12.122c-.003.013-.007.025-.007.038v4.82l.002.01-.002.01v4.822c0 .08.065.146.146.146h16.756l.01-.002.01.002h8.374c.08 0 .146-.065.146-.146v-4.82l-.002-.01.002-.01V12.16c0-.014-.004-.026-.007-.038.02-.066-.01-.136-.073-.167l-3.813-.655c-.02-.01-.187-.015-.21-.015H7.755c-.02 0-.185.004-.202.012l-3.886.655c-.068.03-.1.102-.08.17zm16.75 8.13v1.423h-8.084v-2.12h8.082v.698zm0-2.356v1.37h-8.084v-2.12h8.082v.75zm0-2.483v1.422h-8.084v-2.12h8.082v.698zm0-2.357v1.37h-8.084v-2.12h8.082v.75zm8.393 7.197v1.422h-8.083v-2.12h8.083v.698zm0-2.357v1.37h-8.083v-2.12h8.083v.75zm0-2.483v1.422h-8.083v-2.12h8.083v.698zm0-2.357v1.37h-8.083v-2.12h8.083v.75zm-3.7-1.48l2.614.438h-7.01l-.876-.44h5.27zm-5.847 0l.822.438h-7.36l.946-.44h5.59zm-11.543 0h5.35l-.99.438H5.03l2.607-.44zm-3.77.73h8.083v2.118H3.867v-2.12zm0 2.41h8.083v2.12H3.867v-2.12zm0 2.43h8.083v2.12H3.867v-2.12zm0 2.41h8.083v2.12H3.867v-2.12zm.53-6.137c0 .11.09.2.2.2s.2-.09.2-.2c0-.112-.09-.2-.2-.2-.11 0-.2.09-.2.2zm.71 0c0 .11.09.2.2.2s.2-.09.2-.2c0-.112-.09-.2-.2-.2-.11 0-.2.09-.2.2zm6.343-.727h-.437c-.04 0-.073.033-.073.073v1.164c0 .04.033.073.073.073h.437c.04 0 .073-.033.073-.073v-1.164c0-.04-.033-.073-.073-.073zm-.072 1.165h-.29v-1.02h.29v1.02zm-.8-1.165h-.438c-.04 0-.073.033-.073.073v1.164c0 .04.033.073.073.073h.437c.04 0 .073-.033.073-.073v-1.164c0-.04-.033-.073-.073-.073zm-.073 1.165h-.29v-1.02h.29v1.02zm-6.107 2.036c0 .11.09.2.2.2s.2-.09.2-.2c0-.11-.09-.2-.2-.2-.11 0-.2.09-.2.2zm.71 0c0 .11.09.2.2.2s.2-.09.2-.2c0-.11-.09-.2-.2-.2-.11 0-.2.09-.2.2zm6.342-.727h-.437c-.04 0-.073.033-.073.073v1.164c0 .04.033.073.073.073h.437c.04 0 .073-.033.073-.073V15.24c0-.04-.033-.073-.073-.073zm-.072 1.165h-.29v-1.02h.29v1.02zm-.8-1.165h-.438c-.04 0-.073.033-.073.073v1.164c0 .04.033.073.073.073h.437c.04 0 .073-.033.073-.073V15.24c0-.04-.033-.073-.073-.073zm-.073 1.165h-.29v-1.02h.29v1.02zm-6.107 1.89c0 .112.09.2.2.2s.2-.09.2-.2c0-.11-.09-.2-.2-.2-.11 0-.2.09-.2.2zm.71 0c0 .112.09.2.2.2s.2-.09.2-.2c0-.11-.09-.2-.2-.2-.11 0-.2.09-.2.2zm6.342-.725h-.437c-.04 0-.073.032-.073.072v1.164c0 .04.033.073.073.073h.437c.04 0 .073-.032.073-.073V17.57c0-.04-.033-.073-.073-.073zm-.072 1.164h-.29v-1.018h.29v1.02zm-.8-1.163h-.438c-.04 0-.073.032-.073.072v1.164c0 .04.033.073.073.073h.437c.04 0 .073-.032.073-.073V17.57c0-.04-.033-.073-.073-.073zm-.073 1.164h-.29v-1.018h.29v1.02zM4.398 20.7v.008c0 .11.09.2.2.2.11 0 .2-.09.2-.2v-.008-.008c0-.11-.09-.2-.2-.2-.11 0-.2.09-.2.2v.008zm.71 0v.008c0 .11.09.2.2.2.11 0 .2-.09.2-.2v-.008-.008c0-.11-.09-.2-.2-.2-.11 0-.2.09-.2.2v.008zm6.342-.727h-.437c-.04 0-.073.034-.073.074v1.164c0 .04.033.073.073.073h.437c.04 0 .073-.032.073-.072v-1.164c0-.04-.033-.073-.073-.073zm-.072 1.166h-.29v-1.02h.29v1.02zm-.8-1.165h-.438c-.04 0-.073.034-.073.074v1.164c0 .04.033.073.073.073h.437c.04 0 .073-.032.073-.072v-1.164c0-.04-.033-.073-.073-.073zm-.073 1.166h-.29v-1.02h.29v1.02zm2.335-7.717c0 .11.09.2.2.2s.2-.09.2-.2c0-.112-.09-.2-.2-.2-.11 0-.2.09-.2.2zm.71 0c0 .11.09.2.2.2s.2-.09.2-.2c0-.112-.09-.2-.2-.2-.11 0-.2.09-.2.2zm5.907.583h.437c.04 0 .073-.033.073-.073v-1.164c0-.04-.033-.073-.073-.073h-.437c-.04 0-.073.033-.073.073v1.164c0 .04.032.073.073.073zm.073-1.165h.29v1.02h-.29v-1.02zm-.947 1.165h.437c.04 0 .073-.033.073-.073v-1.164c0-.04-.032-.073-.073-.073h-.437c-.04 0-.073.033-.073.073v1.164c0 .04.032.073.073.073zm.073-1.165h.29v1.02h-.29v-1.02zm-5.816 3.056c0 .11.09.2.2.2s.2-.09.2-.2c0-.11-.09-.2-.2-.2-.11 0-.2.09-.2.2zm.71 0c0 .11.09.2.2.2s.2-.09.2-.2c0-.11-.09-.2-.2-.2-.11 0-.2.09-.2.2zm5.907.584h.437c.04 0 .073-.033.073-.073V15.24c0-.04-.033-.072-.073-.072h-.437c-.04 0-.073.033-.073.073v1.165c0 .04.032.073.073.073zm.073-1.165h.29v1.02h-.29v-1.02zm-.947 1.165h.437c.04 0 .073-.033.073-.073V15.24c0-.04-.032-.072-.073-.072h-.437c-.04 0-.073.033-.073.073v1.165c0 .04.032.073.073.073zm.073-1.165h.29v1.02h-.29v-1.02zm-5.816 2.91c0 .11.09.2.2.2s.2-.09.2-.2c0-.11-.09-.2-.2-.2-.11 0-.2.09-.2.2zm.71 0c0 .11.09.2.2.2s.2-.09.2-.2c0-.11-.09-.2-.2-.2-.11 0-.2.09-.2.2zm5.907.583h.437c.04 0 .073-.032.073-.073v-1.165c0-.04-.033-.072-.073-.072h-.437c-.04 0-.073.032-.073.072v1.165c0 .04.032.073.073.073zm.073-1.164h.29v1.02h-.29v-1.02zm-.947 1.164h.437c.04 0 .073-.032.073-.073v-1.165c0-.04-.032-.072-.073-.072h-.437c-.04 0-.073.032-.073.072v1.165c0 .04.032.073.073.073zm.073-1.164h.29v1.02h-.29v-1.02zm-5.815 3.056v.008c0 .11.09.2.2.2.11 0 .2-.09.2-.2v-.008-.008c0-.11-.09-.2-.2-.2-.11 0-.2.09-.2.2v.008zm.71 0v.008c0 .11.09.2.2.2.11 0 .2-.09.2-.2v-.008-.008c0-.11-.09-.2-.2-.2-.11 0-.2.09-.2.2v.008zm5.907.584h.437c.04 0 .073-.033.073-.073v-1.165c0-.04-.033-.073-.073-.073h-.437c-.04 0-.073.033-.073.073v1.164c0 .04.032.072.073.072zm.073-1.165h.29v1.02h-.29v-1.02zm-.947 1.165h.437c.04 0 .073-.033.073-.073v-1.165c0-.04-.032-.073-.073-.073h-.437c-.04 0-.073.033-.073.073v1.164c0 .04.032.072.073.072zm.073-1.165h.29v1.02h-.29v-1.02zm2.482-6.698c0 .11.09.2.2.2s.2-.09.2-.2c0-.112-.09-.2-.2-.2-.11 0-.2.09-.2.2zm.71 0c0 .11.09.2.2.2s.2-.09.2-.2c0-.112-.09-.2-.2-.2-.11 0-.2.09-.2.2zm5.906.583h.437c.04 0 .074-.033.074-.073v-1.164c0-.04-.033-.073-.073-.073h-.436c-.04 0-.073.033-.073.073v1.164c0 .04.034.073.074.073zm.072-1.165h.29v1.02h-.29v-1.02zm-.945 1.165h.438c.04 0 .073-.033.073-.073v-1.164c0-.04-.032-.073-.072-.073h-.437c-.04 0-.072.033-.072.073v1.164c0 .04.032.073.073.073zm.074-1.165h.29v1.02h-.29v-1.02zm-5.816 3.056c0 .11.09.2.2.2s.2-.09.2-.2c0-.11-.09-.2-.2-.2-.11 0-.2.09-.2.2zm.71 0c0 .11.09.2.2.2s.2-.09.2-.2c0-.11-.09-.2-.2-.2-.11 0-.2.09-.2.2zm5.906.584h.437c.04 0 .074-.033.074-.073V15.24c0-.04-.033-.072-.073-.072h-.436c-.04 0-.073.033-.073.073v1.165c0 .04.034.073.074.073zm.072-1.165h.29v1.02h-.29v-1.02zm-.945 1.165h.438c.04 0 .073-.033.073-.073V15.24c0-.04-.032-.072-.072-.072h-.437c-.04 0-.072.033-.072.073v1.165c0 .04.032.073.073.073zm.074-1.165h.29v1.02h-.29v-1.02zm-5.816 2.91c0 .11.09.2.2.2s.2-.09.2-.2c0-.11-.09-.2-.2-.2-.11 0-.2.09-.2.2zm.71 0c0 .11.09.2.2.2s.2-.09.2-.2c0-.11-.09-.2-.2-.2-.11 0-.2.09-.2.2zm5.906.583h.437c.04 0 .074-.032.074-.073v-1.165c0-.04-.033-.072-.073-.072h-.436c-.04 0-.073.032-.073.072v1.165c0 .04.034.073.074.073zm.072-1.164h.29v1.02h-.29v-1.02zm-.945 1.164h.438c.04 0 .073-.032.073-.073v-1.165c0-.04-.032-.072-.072-.072h-.437c-.04 0-.072.032-.072.072v1.165c0 .04.032.073.073.073zm.074-1.164h.29v1.02h-.29v-1.02zm-5.816 3.056v.007c0 .11.09.2.2.2.11 0 .2-.09.2-.2v-.007-.007c0-.11-.09-.2-.2-.2-.11 0-.2.09-.2.2v.008zm.71 0v.008c0 .11.09.2.2.2.11 0 .2-.09.2-.2v-.008-.008c0-.11-.09-.2-.2-.2-.11 0-.2.09-.2.2v.008zm5.906.584h.437c.04 0 .074-.033.074-.073v-1.165c0-.04-.033-.073-.073-.073h-.436c-.04 0-.073.033-.073.073v1.164c0 .04.034.072.074.072zm.072-1.165h.29v1.02h-.29v-1.02zm-.945 1.165h.438c.04 0 .073-.033.073-.073v-1.165c0-.04-.032-.073-.072-.073h-.437c-.04 0-.072.033-.072.073v1.164c0 .04.032.072.073.072zm.074-1.165h.29v1.02h-.29v-1.02zM13.17 22.38h-.29c-.06 0-.11.05-.11.11s.05.11.11.11h.29c.06 0 .108-.05.108-.11s-.05-.11-.11-.11zm3.63 0h-.29c-.06 0-.11.05-.11.11s.05.11.11.11h.29c.06 0 .11-.05.11-.11s-.05-.11-.11-.11zm-1.453 0h-.29c-.06 0-.11.05-.11.11s.05.11.11.11h.29c.06 0 .11-.05.11-.11s-.05-.11-.11-.11zm-.726 0h-.29c-.06 0-.108.05-.108.11s.05.11.11.11h.29c.06 0 .108-.05.108-.11s-.05-.11-.11-.11zm2.907 0h-.29c-.06 0-.11.05-.11.11s.05.11.11.11h.29c.06 0 .11-.05.11-.11s-.05-.11-.11-.11zm-3.632 0h-.29c-.06 0-.11.05-.11.11s.05.11.11.11h.29c.06 0 .11-.05.11-.11s-.05-.11-.11-.11zm2.18 0h-.29c-.06 0-.11.05-.11.11s.05.11.11.11h.29c.06 0 .108-.05.108-.11s-.05-.11-.11-.11zm5.083 0h-.29c-.06 0-.11.05-.11.11s.05.11.11.11h.29c.06 0 .108-.05.108-.11s-.048-.11-.11-.11zm-.726 0h-.29c-.06 0-.11.05-.11.11s.05.11.11.11h.29c.06 0 .108-.05.108-.11s-.05-.11-.11-.11zm-1.453 0h-.29c-.06 0-.11.05-.11.11s.05.11.11.11h.29c.06 0 .108-.05.108-.11s-.05-.11-.11-.11zm-.727 0h-.29c-.06 0-.11.05-.11.11s.05.11.11.11h.29c.06 0 .11-.05.11-.11s-.05-.11-.11-.11zm1.452 0h-.29c-.06 0-.11.05-.11.11s.05.11.11.11h.29c.06 0 .11-.05.11-.11s-.05-.11-.11-.11zm2.18 0h-.29c-.06 0-.11.05-.11.11s.05.11.11.11h.29c.06 0 .108-.05.108-.11s-.048-.11-.11-.11zm-13.8 0h-.29c-.06 0-.11.05-.11.11s.05.11.11.11h.29c.06 0 .11-.05.11-.11s-.05-.11-.11-.11zm-1.453 0h-.29c-.06 0-.11.05-.11.11s.05.11.11.11h.29c.06 0 .11-.05.11-.11s-.05-.11-.11-.11zm.726 0h-.29c-.06 0-.11.05-.11.11s.05.11.11.11h.29c.06 0 .11-.05.11-.11s-.05-.11-.11-.11zm-1.452 0h-.29c-.06 0-.11.05-.11.11s.05.11.11.11h.29c.06 0 .11-.05.11-.11s-.05-.11-.11-.11zm-.727 0h-.29c-.06 0-.11.05-.11.11s.05.11.11.11h.29c.06 0 .108-.05.108-.11s-.05-.11-.11-.11zm3.63 0h-.29c-.06 0-.108.05-.108.11s.05.11.11.11h.29c.06 0 .108-.05.108-.11s-.05-.11-.11-.11zm2.906 0h-.29c-.06 0-.11.05-.11.11s.05.11.11.11h.29c.06 0 .11-.05.11-.11s-.05-.11-.11-.11zm-.726 0h-.29c-.06 0-.11.05-.11.11s.05.11.11.11h.29c.06 0 .11-.05.11-.11s-.05-.11-.11-.11zm-1.453 0h-.29c-.06 0-.11.05-.11.11s.05.11.11.11h.29c.06 0 .11-.05.11-.11s-.05-.11-.11-.11zm.727 0h-.29c-.06 0-.11.05-.11.11s.05.11.11.11h.29c.06 0 .11-.05.11-.11s-.05-.11-.11-.11zm2.178 0h-.29c-.06 0-.11.05-.11.11s.05.11.11.11h.29c.06 0 .11-.05.11-.11s-.05-.11-.11-.11zm17.1-6.428c-.06 0-.11.05-.11.11v.29c0 .06.05.108.11.108s.11-.05.11-.11v-.29c0-.06-.05-.108-.11-.108zm0 1.452c-.06 0-.11.05-.11.11v.29c0 .06.05.108.11.108s.11-.05.11-.11v-.29c0-.06-.05-.108-.11-.108zm0 .726c-.06 0-.11.05-.11.11v.29c0 .06.05.108.11.108s.11-.05.11-.11v-.29c0-.06-.05-.108-.11-.108zm0-1.452c-.06 0-.11.05-.11.11v.29c0 .06.05.108.11.108s.11-.05.11-.11v-.29c0-.06-.05-.108-.11-.108zm0 2.18c-.06 0-.11.048-.11.108v.29c0 .06.05.11.11.11s.11-.05.11-.11v-.29c0-.06-.05-.11-.11-.11zm0 .725c-.06 0-.11.05-.11.11v.29c0 .06.05.108.11.108s.11-.048.11-.108v-.29c0-.06-.05-.11-.11-.11zM3.722 22.38c-.083 0-.162-.017-.236-.05-.055-.027-.12-.003-.145.052-.025.054 0 .12.054.145.103.048.213.072.327.072h.007c.06 0 .106-.05.106-.11s-.052-.11-.112-.11zm25.82-9.334c-.06 0-.11.05-.11.11v.29c0 .06.05.108.11.108s.11-.05.11-.11v-.29c0-.06-.05-.11-.11-.11zm0-.726c-.06 0-.11.05-.11.11v.29c0 .06.05.108.11.108s.11-.05.11-.11v-.29c0-.06-.05-.108-.11-.108zm0 7.99c-.06 0-.11.048-.11.108v.29c0 .06.05.11.11.11s.11-.05.11-.11v-.29c0-.06-.05-.11-.11-.11zm0-6.537c-.06 0-.11.05-.11.11v.29c0 .06.05.108.11.108s.11-.048.11-.108v-.29c0-.06-.05-.11-.11-.11zm0 .726c-.06 0-.11.048-.11.108v.29c0 .06.05.11.11.11s.11-.05.11-.11v-.29c0-.06-.05-.11-.11-.11zm0 .725c-.06 0-.11.05-.11.11v.29c0 .06.05.108.11.108s.11-.05.11-.11v-.29c0-.06-.05-.108-.11-.108zM24.79 22.38h-.29c-.06 0-.11.05-.11.11s.05.11.11.11h.29c.06 0 .11-.05.11-.11s-.05-.11-.11-.11zm.726 0h-.29c-.06 0-.11.05-.11.11s.05.11.11.11h.29c.06 0 .11-.05.11-.11s-.05-.11-.11-.11zm.726 0h-.29c-.06 0-.11.05-.11.11s.05.11.11.11h.29c.06 0 .11-.05.11-.11s-.05-.11-.11-.11zm.726 0h-.29c-.06 0-.11.05-.11.11s.05.11.11.11h.29c.06 0 .11-.05.11-.11s-.05-.11-.11-.11zm-4.358 0h-.29c-.06 0-.11.05-.11.11s.05.11.11.11h.29c.06 0 .11-.05.11-.11s-.05-.11-.11-.11zm.727 0h-.29c-.06 0-.11.05-.11.11s.05.11.11.11h.29c.06 0 .11-.05.11-.11s-.05-.11-.11-.11zm.726 0h-.29c-.06 0-.11.05-.11.11s.05.11.11.11h.29c.06 0 .11-.05.11-.11s-.05-.11-.11-.11zm5.48-1.344c-.06 0-.11.05-.11.11v.29c0 .06.05.108.11.108s.108-.05.108-.11v-.29c0-.06-.048-.108-.108-.108zm-1.848 1.345h-.29c-.06 0-.11.05-.11.11s.05.11.11.11h.29c.06 0 .11-.05.11-.11s-.05-.11-.11-.11zm1.837-10.277h.015c.06-.01.102-.064.094-.124-.014-.112-.054-.22-.114-.315-.032-.05-.1-.066-.15-.034-.052.033-.067.1-.035.15.044.07.073.148.084.228.007.055.054.095.108.095zm.016 9.66c-.058-.003-.113.04-.117.1-.005.082-.03.16-.07.23-.03.053-.01.12.043.15.017.008.035.013.053.013.038 0 .075-.02.096-.056.056-.1.088-.208.097-.322.004-.06-.04-.112-.1-.117zm-1.127.618h-.29c-.06 0-.108.05-.108.11s.05.11.11.11h.29c.06 0 .108-.05.108-.11s-.05-.11-.11-.11zm.676-.046c-.07.03-.146.046-.224.046h-.015c-.06 0-.11.05-.11.11s.05.11.11.11h.015c.11 0 .213-.023.31-.066.056-.024.082-.09.057-.144-.025-.055-.09-.08-.145-.056zm-24.643.047h-.29c-.06 0-.11.05-.11.11s.05.11.11.11h.29c.06 0 .11-.05.11-.11s-.05-.11-.11-.11zM17.25 10.87h.29c.06 0 .108-.05.108-.11s-.05-.11-.11-.11h-.29c-.06 0-.108.05-.108.11s.05.11.11.11zm.725 0h.29c.06 0 .11-.05.11-.11s-.05-.11-.11-.11h-.29c-.06 0-.11.05-.11.11s.05.11.11.11zm-1.453 0h.29c.06 0 .11-.05.11-.11s-.05-.11-.11-.11h-.29c-.06 0-.11.05-.11.11s.05.11.11.11zm-13.444.78c-.062.093-.105.2-.122.312-.01.06.03.116.09.125l.018.002c.053 0 .1-.04.108-.093.013-.08.043-.158.09-.225.033-.05.02-.118-.03-.15-.052-.035-.12-.02-.153.03zm12.718-.78h.29c.06 0 .11-.05.11-.11s-.05-.11-.11-.11h-.29c-.06 0-.11.05-.11.11s.05.11.11.11zm3.632 0h.29c.06 0 .11-.05.11-.11s-.05-.11-.11-.11h-.29c-.06 0-.11.05-.11.11s.05.11.11.11zm-.726 0h.29c.06 0 .11-.05.11-.11s-.05-.11-.11-.11h-.29c-.06 0-.11.05-.11.11s.05.11.11.11zm-3.632 0h.29c.06 0 .11-.05.11-.11s-.05-.11-.11-.11h-.29c-.06 0-.11.05-.11.11s.05.11.11.11zm-2.905 0h.29c.06 0 .11-.05.11-.11s-.05-.11-.11-.11h-.29c-.06 0-.11.05-.11.11s.05.11.11.11zm.726 0h.29c.06 0 .11-.05.11-.11s-.05-.11-.11-.11h-.29c-.06 0-.108.05-.108.11s.05.11.11.11zm1.454 0h.29c.06 0 .11-.05.11-.11s-.05-.11-.11-.11h-.29c-.06 0-.11.05-.11.11s.05.11.11.11zm-.726 0h.29c.06 0 .11-.05.11-.11s-.05-.11-.11-.11h-.29c-.06 0-.11.05-.11.11s.05.11.11.11zm11.905.075c.052 0 .098-.038.108-.09.01-.06-.03-.117-.088-.127l-.28-.048-.025.107-.014.11.282.047h.02zm1.127.196l.286.05.02.002c.05 0 .097-.038.107-.09.01-.06-.03-.117-.09-.127l-.285-.05c-.06-.01-.116.03-.126.09s.03.115.09.126zm.715.123l.286.05h.02c.052 0 .098-.037.108-.09.01-.06-.03-.116-.09-.126l-.285-.05c-.06-.01-.116.03-.126.09-.01.06.03.116.088.126zm-15.927-.394h.29c.06 0 .11-.05.11-.11s-.05-.11-.11-.11h-.29c-.06 0-.11.05-.11.11s.05.11.11.11zm14.496.148l.286.05h.02c.05 0 .097-.037.107-.09.01-.06-.03-.116-.09-.126l-.285-.05c-.06-.01-.116.03-.126.09s.03.116.09.126zm2.147.368l.287.05h.02c.05 0 .097-.037.107-.09.01-.06-.03-.116-.09-.126l-.285-.05c-.06-.01-.117.03-.127.09-.01.06.03.116.09.126zm.717.123l.273.046c.01.003.02.005.03.005.04 0 .08-.02.098-.06.027-.054.004-.12-.05-.147l-.313-.058c-.06-.01-.116.03-.126.09s.028.115.087.125zm-5.01-.64h.29c.06 0 .108-.05.108-.11s-.05-.11-.11-.11h-.29c-.06 0-.108.05-.108.11s.048.11.11.11zm-2.18 0h.29c.06 0 .108-.05.108-.11s-.05-.11-.11-.11h-.29c-.06 0-.108.05-.108.11s.05.11.11.11zm.726 0h.29c.06 0 .11-.05.11-.11s-.05-.11-.11-.11h-.29c-.06 0-.11.05-.11.11s.05.11.11.11zm-1.453 0h.29c.06 0 .11-.05.11-.11s-.05-.11-.11-.11h-.29c-.06 0-.11.05-.11.11s.05.11.11.11zm3.632 0h.29c.06 0 .11-.05.11-.11s-.05-.11-.11-.11h-.29c-.06 0-.11.05-.11.11s.05.11.11.11zm-1.453 0h.29c.06 0 .108-.05.108-.11s-.05-.11-.11-.11h-.29c-.06 0-.108.05-.108.11s.05.11.11.11zm-2.906 0h.29c.06 0 .11-.05.11-.11s-.05-.11-.11-.11h-.29c-.06 0-.11.05-.11.11s.05.11.11.11zM3.05 17.17c.06 0 .11-.048.11-.11v-.29c0-.06-.05-.108-.11-.108s-.108.05-.108.11v.29c0 .06.05.11.11.11zm0 .728c.06 0 .11-.05.11-.11v-.29c0-.06-.05-.108-.11-.108s-.108.05-.108.11v.29c0 .06.05.108.11.108zm0-3.632c.06 0 .11-.05.11-.11v-.29c0-.06-.05-.108-.11-.108s-.108.05-.108.11v.29c0 .06.05.108.11.108zm0 .727c.06 0 .11-.05.11-.11v-.29c0-.06-.05-.108-.11-.108s-.108.05-.108.11v.29c0 .06.05.108.11.108zm0 3.63c.06 0 .11-.048.11-.108v-.29c0-.06-.05-.11-.11-.11s-.108.05-.108.11v.29c0 .06.05.11.11.11zm0-2.904c.06 0 .11-.05.11-.11v-.29c0-.06-.05-.11-.11-.11s-.108.05-.108.11v.29c0 .06.05.11.11.11zm0 .725c.06 0 .11-.05.11-.11v-.29c0-.06-.05-.108-.11-.108s-.108.05-.108.11v.29c0 .06.05.108.11.108zm0 5.084c.06 0 .11-.05.11-.11v-.29c0-.06-.05-.11-.11-.11s-.108.05-.108.11v.29c0 .06.05.11.11.11zm.11.32c-.002-.06-.055-.11-.114-.104-.06.003-.106.054-.103.115.006.115.036.224.09.324.02.037.058.058.097.058.018 0 .035-.004.05-.013.054-.03.074-.095.046-.148-.038-.072-.06-.15-.064-.232zm-.11-2.5c.06 0 .11-.05.11-.11v-.29c0-.06-.05-.11-.11-.11s-.108.05-.108.11v.29c0 .062.05.11.11.11zm0 .727c.06 0 .11-.05.11-.11v-.29c0-.06-.05-.108-.11-.108s-.108.048-.108.108v.29c0 .06.05.11.11.11zm0 .726c.06 0 .11-.05.11-.11v-.29c0-.06-.05-.11-.11-.11s-.108.05-.108.11v.29c0 .06.05.11.11.11zm2.604-9.61c.006 0 .012 0 .018-.002l.286-.047c.06-.01.1-.066.09-.126-.01-.06-.067-.1-.126-.09l-.286.048c-.06.01-.1.066-.09.126.01.054.055.092.107.092zm2.88-.324h.29c.06 0 .108-.05.108-.11s-.05-.11-.11-.11h-.29c-.06 0-.108.05-.108.11s.05.11.11.11zm-2.163.203c.007 0 .013 0 .02-.002l.285-.047c.06-.01.1-.066.09-.126-.01-.06-.066-.1-.126-.09l-.287.048c-.06.01-.1.066-.09.126.01.054.055.092.107.092zM3.05 13.54c.06 0 .11-.05.11-.11v-.29c0-.06-.05-.108-.11-.108s-.108.05-.108.11v.29c0 .06.05.108.11.108zm4.757-2.67h.29c.06 0 .11-.05.11-.11s-.05-.11-.11-.11h-.29c-.06 0-.11.05-.11.11s.05.11.11.11zm2.18 0h.29c.06 0 .108-.05.108-.11s-.05-.11-.11-.11h-.29c-.06 0-.108.05-.108.11s.05.11.11.11zm-.728 0h.29c.06 0 .108-.05.108-.11s-.05-.11-.11-.11h-.29c-.06 0-.108.05-.108.11s.05.11.11.11zm-2.173.08h.018l.286-.05c.06-.01.1-.065.09-.125-.01-.06-.066-.1-.125-.09l-.286.048c-.06.01-.1.066-.09.126.008.053.054.09.106.09zM3.05 12.815c.06 0 .11-.05.11-.11v-.29c0-.06-.05-.108-.11-.108s-.108.05-.108.11v.29c0 .06.05.108.11.108zm7.662-1.945h.29c.06 0 .11-.05.11-.11s-.05-.11-.11-.11h-.29c-.06 0-.11.05-.11.11s.05.11.11.11zm-7.2.684c.01 0 .017 0 .025-.002l.274-.046c.06-.01.1-.066.09-.126-.01-.06-.066-.1-.125-.09l-.278.047-.033.01c-.055.025-.077.087-.054.142.017.04.06.064.102.064zm1.426-.24c.006 0 .012 0 .018-.002l.286-.048c.06-.01.1-.066.09-.126-.01-.06-.067-.1-.126-.09l-.286.048c-.06.01-.1.066-.09.126.01.053.055.09.107.09zm-.716.12c.006 0 .012 0 .018-.002l.286-.048c.06-.01.1-.066.09-.126-.01-.06-.067-.1-.126-.09l-.286.048c-.06.01-.1.066-.09.126.01.054.055.09.107.09z"/></svg>