<svg data-name="Layer 1" xmlns="http://www.w3.org/2000/svg" viewBox="0 0 36 36"><title>Icon-Red_Hat-Speedometer-A-Black-RGB</title><path d="M27.01 13.74a12.75 12.75 0 0 0-21.76 9.01.75.75 0 0 0 1.5 0 11.25 11.25 0 0 1 22.5 0 .75.75 0 0 0 1.5 0 12.708 12.708 0 0 0-3.74-9.01z"/><path d="M18 19.5a3.05 3.05 0 0 0-2.56 1.273l-1.24-.553-4.11-1.828a.75.75 0 0 0-.61 1.37l4.107 1.828 1.225.546A3.245 3.245 0 1 0 18 19.5zm1.237 4.487a1.747 1.747 0 0 1-2.984-1.21v-.027a1.745 1.745 0 0 1 .513-1.237c.036-.036.08-.065.12-.1a1.745 1.745 0 0 1 2.354 2.572zM12.44 16.42a.774.774 0 0 0 .24-.04.67.67 0 0 0 .22-.12h.01a.763.763 0 0 0 .278-.5.755.755 0 0 0-.158-.556.767.767 0 0 0-.5-.278.725.725 0 0 0-.546.158.75.75 0 0 0-.132 1.05.77.77 0 0 0 .27.216.744.744 0 0 0 .318.07zM27.65 21.35a.75.75 0 0 0-1.342-.336.756.756 0 0 0-.14.556v.03a.745.745 0 0 0 .743.65h.055a.393.393 0 0 0 .055-.01.748.748 0 0 0 .492-.293.776.776 0 0 0 .15-.556.03.03 0 0 1-.01-.015.17.17 0 0 1 0-.025zM18.28 14.5h.01a.747.747 0 0 0 .546-1.26.767.767 0 0 0-.526-.24.757.757 0 0 0-.535.2.736.736 0 0 0-.234.526.746.746 0 0 0 .73.77zM23.958 15.292a.748.748 0 0 0-.518.248.77.77 0 0 0-.188.545.728.728 0 0 0 .248.515.694.694 0 0 0 .235.144.774.774 0 0 0 .265.046.762.762 0 0 0 .3-.06.712.712 0 0 0 .258-.19.763.763 0 0 0 .19-.54.748.748 0 0 0-.248-.52.763.763 0 0 0-.542-.188z"/></svg>