<svg data-name="Layer 1" xmlns="http://www.w3.org/2000/svg" viewBox="0 0 36 36"><title>Icon-Red_Hat-Datacenter-A-Black-RGB</title><path d="M29.03 7.47a.745.745 0 0 0-.53-.22h-21a.75.75 0 0 0-.75.75v20a.75.75 0 0 0 .75.75h21a.75.75 0 0 0 .75-.75V8a.745.745 0 0 0-.22-.53zM13.75 18v9.25h-5.5V8.75h5.5zm7 0v9.25h-5.5V8.75h5.5zm7 0v9.25h-5.5V8.75h5.5z"/><path d="M11.53 24.47a.774.774 0 0 0-1.06 0 .687.687 0 0 0-.09.112.827.827 0 0 0-.07.128.86.86 0 0 0-.045.145.693.693 0 0 0-.015.145.7.7 0 0 0 .015.145.888.888 0 0 0 .045.145.817.817 0 0 0 .07.127.693.693 0 0 0 .09.113.75.75 0 1 0 1.06-1.06zM18.53 24.47a.774.774 0 0 0-1.06 0 .748.748 0 0 0 0 1.06.75.75 0 1 0 1.06-1.06zM25.53 24.47a.693.693 0 0 0-.113-.09.817.817 0 0 0-.127-.07.75.75 0 0 0-.44-.044.72.72 0 0 0-.38.2.748.748 0 0 0 0 1.06.753.753 0 0 0 .53.22.7.7 0 0 0 .145-.015.888.888 0 0 0 .145-.044.91.91 0 0 0 .127-.07.693.693 0 0 0 .113-.09.745.745 0 0 0 .162-.243.75.75 0 0 0-.162-.817zM9.5 10.25a.75.75 0 0 0 0 1.5h3a.75.75 0 0 0 0-1.5h-3zM12.5 13.25h-3a.75.75 0 0 0 0 1.5h3a.75.75 0 0 0 0-1.5zM12.5 16.25h-3a.75.75 0 0 0 0 1.5h3a.75.75 0 0 0 0-1.5zM12.5 19.25h-3a.75.75 0 0 0 0 1.5h3a.75.75 0 0 0 0-1.5zM16.5 10.25a.75.75 0 0 0 0 1.5h3a.75.75 0 0 0 0-1.5h-3zM19.5 13.25h-3a.75.75 0 0 0 0 1.5h3a.75.75 0 0 0 0-1.5zM19.5 16.25h-3a.75.75 0 0 0 0 1.5h3a.75.75 0 0 0 0-1.5zM19.5 19.25h-3a.75.75 0 0 0 0 1.5h3a.75.75 0 0 0 0-1.5zM23.5 10.25a.75.75 0 0 0 0 1.5h3a.75.75 0 0 0 0-1.5h-3zM26.5 13.25h-3a.75.75 0 0 0 0 1.5h3a.75.75 0 0 0 0-1.5zM26.5 16.25h-3a.75.75 0 0 0 0 1.5h3a.75.75 0 0 0 0-1.5zM26.5 19.25h-3a.75.75 0 0 0 0 1.5h3a.75.75 0 0 0 0-1.5z"/></svg>