<svg xmlns="http://www.w3.org/2000/svg" viewBox="0 0 36 36"><path d="M27.64 14.48a8.58 8.58 0 0 0-15.76-4h-.62a6.63 6.63 0 0 0 0 13.26H13a.75.75 0 0 0 0-1.5h-1.74a5.13 5.13 0 0 1 0-10.26 5.64 5.64 0 0 1 .88.08.74.74 0 0 0 .78-.37 7.07 7.07 0 0 1 13.24 3.47.75.75 0 0 0 .75.75 3.17 3.17 0 1 1 0 6.33.75.75 0 1 0 0 1.5 4.66 4.66 0 0 0 .73-9.27z"/><path d="M24.27 25.39a5.46 5.46 0 0 0 1.23-3.45 5.54 5.54 0 1 0-2.32 4.48l3.36 3.25a.74.74 0 0 0 1.06 0 .75.75 0 0 0 0-1.06zM16 21.94a4 4 0 1 1 4 4 4 4 0 0 1-4-4z"/></svg>