<svg xmlns="http://www.w3.org/2000/svg" viewBox="0 0 36 36"><title>Icon-Red_Hat-Arrows-Interoperability-A-Black-RGB</title><path d="M17.67 12.76A3.77 3.77 0 1 0 13.91 9a3.77 3.77 0 0 0 3.76 3.76zm0-6A2.27 2.27 0 1 1 15.41 9a2.27 2.27 0 0 1 2.26-2.27zM11.62 21h-6a.75.75 0 0 0-.75.75v6.05a.74.74 0 0 0 .75.75h6a.74.74 0 0 0 .75-.75v-6.08a.75.75 0 0 0-.75-.72zm-.75 6H6.32v-4.53h4.55zM31.24 23.72a.77.77 0 0 0-.52-.53l-6.79-1.94a.73.73 0 0 0-.73.18.79.79 0 0 0-.2.57.62.62 0 0 0 0 .19l1.88 7a.75.75 0 0 0 .53.53.65.65 0 0 0 .19 0 .77.77 0 0 0 .54-.22l4.91-5.08a.72.72 0 0 0 .21-.52 1.23 1.23 0 0 0-.02-.18zM26 27.51l-1.19-4.46 4.31 1.24zM26.61 19.3a.75.75 0 0 0 1.5 0 10.4 10.4 0 0 0-3.91-8.14.76.76 0 0 0-1.06.11.75.75 0 0 0 .12 1.06 8.87 8.87 0 0 1 3.35 6.97zM8 18.83h.1a.75.75 0 0 0 .74-.66 8.85 8.85 0 0 1 3.28-5.85.75.75 0 1 0-.94-1.17A10.4 10.4 0 0 0 7.32 18a.74.74 0 0 0 .68.83zM21 27.59a9 9 0 0 1-5.58.36.75.75 0 0 0-.37 1.46 10.76 10.76 0 0 0 2.6.32 10.47 10.47 0 0 0 3.94-.73.75.75 0 0 0 .41-1 .75.75 0 0 0-1-.41z"/></svg>