<svg data-name="Layer 1" xmlns="http://www.w3.org/2000/svg" viewBox="0 0 36 36"><title>Icon-Red_Hat-Industry-A-Black-RGB</title><path d="M29.53 11.47a.745.745 0 0 0-.53-.22h-1.25V7a.75.75 0 0 0-.75-.75h-3a.75.75 0 0 0-.75.75v4.25h-.5V7a.75.75 0 0 0-.75-.75h-3a.75.75 0 0 0-.75.75v4.25H17a.75.75 0 0 0-.75.75v5.25h-3.5V8a.75.75 0 0 0-.75-.75H9a.75.75 0 0 0-.75.75v9.25H7a.75.75 0 0 0-.75.75v11a.75.75 0 0 0 .75.75h22a.75.75 0 0 0 .75-.75V12a.745.745 0 0 0-.22-.53zM24.75 9.5V7.75h1.5v3.5h-1.5zm-5 0V7.75h1.5v3.5h-1.5zm-10 3.5V8.75h1.5v8.5h-1.5zm13.5 13v2.25h-2.5v-4.5h2.5zm5-2.5v4.75h-3.5V23a.75.75 0 0 0-.75-.75h-4a.75.75 0 0 0-.75.75v5.25H7.75v-9.5h20.5zm0-8.5v2.25h-10.5v-4.5h10.5z"/></svg>