<svg xmlns="http://www.w3.org/2000/svg" viewBox="0 0 36 36"><title>Icon-Red_Hat-Disruption-A-Black-RGB</title><path d="M9 11.56a.77.77 0 0 0-1.07 0 .75.75 0 0 0 0 1.06A7.61 7.61 0 0 1 8 23.38a.75.75 0 0 0 0 1.06.76.76 0 0 0 1.07 0A9.14 9.14 0 0 0 9 11.56z"/><path d="M11.21 8.61a.75.75 0 0 0-1.06 1.06 11.78 11.78 0 0 1 0 16.66.75.75 0 0 0 0 1.06.75.75 0 0 0 1.06 0 13.28 13.28 0 0 0 0-18.78zM6.74 14.12a.74.74 0 0 0-1.06 0 .75.75 0 0 0 0 1.06 4 4 0 0 1 0 5.64.75.75 0 0 0 0 1.06.73.73 0 0 0 .53.22.74.74 0 0 0 .53-.22 5.49 5.49 0 0 0 0-7.76zM28.05 12.62a.75.75 0 0 0 0-1.06.77.77 0 0 0-1.07 0 9.14 9.14 0 0 0 0 12.88.76.76 0 0 0 1.07 0 .75.75 0 0 0 0-1.06 7.61 7.61 0 0 1 0-10.76z"/><path d="M22.4 18a11.73 11.73 0 0 1 3.45-8.33.75.75 0 0 0-1.06-1.06 13.28 13.28 0 0 0 0 18.78.75.75 0 0 0 1.06 0 .75.75 0 0 0 0-1.06A11.73 11.73 0 0 1 22.4 18z"/><path d="M23.49 7.53a.75.75 0 1 0-1.06-1.06A16.22 16.22 0 0 0 18 14.71a16.22 16.22 0 0 0-4.43-8.24.75.75 0 1 0-1.06 1.06 14.83 14.83 0 0 1 0 20.94.75.75 0 0 0 0 1.06.75.75 0 0 0 1.06 0A16.22 16.22 0 0 0 18 21.29a16.22 16.22 0 0 0 4.43 8.24.75.75 0 0 0 1.06 0 .75.75 0 0 0 0-1.06 14.83 14.83 0 0 1 0-20.94zM30.32 15.18a.75.75 0 0 0 0-1.06.74.74 0 0 0-1.06 0 5.49 5.49 0 0 0 0 7.76.74.74 0 0 0 .53.22.73.73 0 0 0 .53-.22.75.75 0 0 0 0-1.06 4 4 0 0 1 0-5.64z"/></svg>