<svg data-name="Icon" xmlns="http://www.w3.org/2000/svg" width="36" height="36" viewBox="0 0 36 36"><title>Icon-Red_Hat-Transportation-Traffic_light-A-Black-RGB</title><path d="M18 13.75A2.75 2.75 0 1 0 15.25 11 2.75 2.75 0 0 0 18 13.75zm0-4A1.25 1.25 0 1 1 16.75 11 1.25 1.25 0 0 1 18 9.75zm0 11A2.75 2.75 0 1 0 15.25 18 2.75 2.75 0 0 0 18 20.75zm0-4A1.25 1.25 0 1 1 16.75 18 1.25 1.25 0 0 1 18 16.75zm0 11A2.75 2.75 0 1 0 15.25 25 2.75 2.75 0 0 0 18 27.75zm0-4A1.25 1.25 0 1 1 16.75 25 1.25 1.25 0 0 1 18 23.75zm5-18.5H13a.76.76 0 0 0-.75.75v24a.76.76 0 0 0 .75.75h10a.76.76 0 0 0 .75-.75V6a.76.76 0 0 0-.75-.75zm-.75 24h-8.5V6.75h8.5z"/></svg>