<svg xmlns="http://www.w3.org/2000/svg" width="32" height="32" viewBox="0 0 32 32"><path d="M24.634 15.13c-.81 0-1.498.52-1.76 1.24l-3.032-.528c.044-.26.072-.527.072-.8 0-1.647-.83-3.102-2.094-3.972l1.634-2.437c.12.032.242.054.37.054.79 0 1.434-.644 1.434-1.435 0-.79-.643-1.434-1.434-1.434-.79 0-1.435.643-1.435 1.434 0 .516.275.965.685 1.218l-1.6 2.385c-.702-.402-1.513-.634-2.38-.634-1.56 0-2.95.752-3.83 1.907l-2.29-1.893c.205-.3.326-.66.326-1.05 0-1.022-.833-1.854-1.857-1.854-1.023 0-1.857.832-1.857 1.855 0 1.024.833 1.858 1.857 1.858.49 0 .935-.192 1.267-.503l2.322 1.92c-.476.746-.756 1.63-.756 2.58 0 1.247.48 2.382 1.262 3.238l-1.626 1.35c-.272-.244-.628-.397-1.022-.397-.846 0-1.534.69-1.534 1.536 0 .846.688 1.535 1.534 1.535.846 0 1.534-.688 1.534-1.534 0-.306-.092-.59-.248-.83l1.647-1.37c.86.8 2.01 1.29 3.272 1.29.674 0 1.314-.14 1.897-.39l1.282 3.422c-.933.396-1.59 1.322-1.59 2.398 0 1.435 1.167 2.602 2.602 2.602s2.602-1.167 2.602-2.602c0-1.435-1.167-2.603-2.602-2.603-.216 0-.426.03-.627.08l-1.302-3.472c1.177-.628 2.06-1.733 2.398-3.053l3.02.526c-.01.08-.017.16-.017.24 0 1.032.84 1.87 1.87 1.87 1.032 0 1.87-.838 1.87-1.87.003-1.033-.836-1.874-1.868-1.874zm-4.81-8.772c.494 0 .895.4.895.894s-.402.895-.895.895c-.494 0-.895-.402-.895-.895s.4-.894.895-.894zm-12.38 4.146c-.726 0-1.317-.59-1.317-1.318 0-.725.59-1.315 1.317-1.315s1.318.59 1.318 1.316c0 .727-.59 1.318-1.318 1.318zM21.35 25.288c0 1.137-.926 2.062-2.063 2.062s-2.062-.925-2.062-2.062c0-1.138.925-2.063 2.062-2.063s2.062.925 2.062 2.063zM8.89 21.762c-.547 0-.993-.446-.993-.995 0-.55.446-.995.994-.995.55 0 .995.446.995.995 0 .55-.446.995-.994.995zm6.207-2.55c-2.3 0-4.172-1.872-4.172-4.172s1.872-4.17 4.172-4.17 4.17 1.87 4.17 4.17-1.87 4.17-4.17 4.17zm9.537-.877c-.734 0-1.332-.597-1.332-1.33 0-.736.598-1.334 1.332-1.334.734 0 1.33.6 1.33 1.335 0 .733-.597 1.33-1.33 1.33z"/></svg>