<svg data-name="Layer 1" xmlns="http://www.w3.org/2000/svg" viewBox="0 0 36 36"><title>Icon-Red_Hat-Hardware-Server_Stack_Secured-A-Black-RGB</title><path d="M7 11.75h20a.76.76 0 0 0 .75-.75V6a.76.76 0 0 0-.75-.75H7a.76.76 0 0 0-.75.75v5a.76.76 0 0 0 .75.75zm.75-5h18.5v3.5H7.75z"/><path d="M24.58 7.81a.74.74 0 0 0-.81.16.75.75 0 0 0-.22.53.71.71 0 0 0 .05.29.66.66 0 0 0 .17.24.56.56 0 0 0 .24.16.72.72 0 0 0 .29.06.71.71 0 0 0 .28-.06.6.6 0 0 0 .24-.19.73.73 0 0 0 0-1.06.67.67 0 0 0-.24-.13zM12.45 7.75h-3a.75.75 0 0 0 0 1.5h3a.75.75 0 0 0 0-1.5zM7 19.75h20a.76.76 0 0 0 .75-.75v-5a.76.76 0 0 0-.75-.75H7a.76.76 0 0 0-.75.75v5a.76.76 0 0 0 .75.75zm.75-5h18.5v3.5H7.75z"/><path d="M24.82 16a.6.6 0 0 0-.24-.16.71.71 0 0 0-.57 0 .67.67 0 0 0-.24.16.66.66 0 0 0-.17.24.74.74 0 0 0-.05.29.75.75 0 0 0 .22.53.67.67 0 0 0 .24.16.72.72 0 0 0 .29.06.71.71 0 0 0 .28-.06.6.6 0 0 0 .24-.16.72.72 0 0 0 .23-.53.75.75 0 0 0-.06-.29.66.66 0 0 0-.17-.24zM12.45 15.75h-3a.75.75 0 0 0 0 1.5h3a.75.75 0 0 0 0-1.5zM22 26.25H7.75v-3.5H27a.75.75 0 0 0 0-1.5H7a.76.76 0 0 0-.75.75v5a.76.76 0 0 0 .75.75h15a.75.75 0 0 0 0-1.5z"/><path d="M9.45 23.75a.75.75 0 0 0 0 1.5h3a.75.75 0 1 0 0-1.5zM31 24.85l-3-1a.79.79 0 0 0-.48 0l-3 1a.75.75 0 0 0-.51.71v3a3.75 3.75 0 0 0 7.5 0v-3a.75.75 0 0 0-.51-.71z"/></svg>