<svg xmlns="http://www.w3.org/2000/svg" viewBox="0 0 36 36"><title>Icon-Red_Hat-Buildings-Government_A-A-Black-RGB</title><path d="M28.72 14.22a.76.76 0 0 0-.34-.85l-10-6a.76.76 0 0 0-.77 0l-10 6a.76.76 0 0 0 .39 1.4h20a.75.75 0 0 0 .72-.55zm-18-1L18 8.89l7.29 4.38zM27 15.27H9a.75.75 0 0 0 0 1.5h18a.75.75 0 0 0 0-1.5zM8.25 27a.75.75 0 0 0 .75.75h18a.75.75 0 0 0 0-1.5H9a.74.74 0 0 0-.75.75zM29 28.27H7a.75.75 0 1 0 0 1.5h22a.75.75 0 0 0 0-1.5zM10.75 25v-7a.75.75 0 0 0-1.5 0v7a.75.75 0 0 0 1.5 0zM18.75 25v-7a.75.75 0 1 0-1.5 0v7a.75.75 0 0 0 1.5 0zM22.75 25v-7a.75.75 0 1 0-1.5 0v7a.75.75 0 0 0 1.5 0zM14.75 25v-7a.75.75 0 1 0-1.5 0v7a.75.75 0 0 0 1.5 0zM26.75 25v-7a.75.75 0 1 0-1.5 0v7a.75.75 0 0 0 1.5 0z"/></svg>