<svg data-name="Layer 1" xmlns="http://www.w3.org/2000/svg" viewBox="0 0 36 36"><title>Icon-Red_Hat-Edge-A-Black-RGB</title><path d="M25.308 19.555a6.423 6.423 0 0 0-11.715-2.908c-.06 0-.12-.008-.176-.01s-.116 0-.172 0a5.013 5.013 0 0 0 0 10.026h11.35a3.588 3.588 0 0 0 .713-7.1zm.76 4.99a2.082 2.082 0 0 1-1.474.614h-11.35a3.513 3.513 0 0 1 0-7.027c.1 0 .206.006.307.016s.2.024.3.04a.744.744 0 0 0 .782-.37 4.924 4.924 0 0 1 9.214 2.413.748.748 0 0 0 .75.75 2.087 2.087 0 0 1 1.475 3.563zM4.26 24.24a1.2 1.2 0 0 0-.07-.133.644.644 0 0 0-.09-.117.758.758 0 0 0-.113-.092.906.906 0 0 0-.127-.068.786.786 0 0 0-.436-.04.733.733 0 0 0-.384.2.715.715 0 0 0-.1.117.584.584 0 0 0-.065.133.7.7 0 0 0-.045.136.676.676 0 0 0-.015.144.753.753 0 0 0 .057.287.764.764 0 0 0 .163.243.753.753 0 0 0 .53.22.775.775 0 0 0 .145-.014 1.46 1.46 0 0 0 .145-.036.7.7 0 0 0 .127-.074.94.94 0 0 0 .113-.1.745.745 0 0 0 .162-.243.736.736 0 0 0 .058-.287.676.676 0 0 0-.015-.144.7.7 0 0 0-.04-.132zM8.68 13.917a.742.742 0 0 0 .32.073.782.782 0 0 0 .246-.04.73.73 0 0 0 .224-.12.766.766 0 0 0 .277-.508.733.733 0 0 0-.157-.552.753.753 0 0 0-.5-.274.78.78 0 0 0-.556.154.746.746 0 0 0-.273.5.768.768 0 0 0 .164.556.713.713 0 0 0 .256.21zM14.32 11.04a.77.77 0 0 0 .47.16.652.652 0 0 0 .076 0 .348.348 0 0 0 .084-.017.748.748 0 0 0-.33-1.46.743.743 0 0 0-.473.33.76.76 0 0 0-.1.57.73.73 0 0 0 .272.418zM26.744 13.94a.787.787 0 0 0 .567-.03.723.723 0 0 0 .27-.21.755.755 0 0 0 .153-.55.73.73 0 0 0-.273-.5.757.757 0 0 0-.556-.162.74.74 0 0 0-.5.28.73.73 0 0 0-.158.548.767.767 0 0 0 .278.5.73.73 0 0 0 .22.125zM5.32 17.58a.738.738 0 0 0-.57-.03.75.75 0 0 0-.43.38.738.738 0 0 0-.03.57.752.752 0 0 0 .38.43.99.99 0 0 0 .165.06.717.717 0 0 0 .165.02.726.726 0 0 0 .39-.114.768.768 0 0 0 .28-.316.748.748 0 0 0 .035-.57.74.74 0 0 0-.385-.43zM31.67 17.92a.752.752 0 0 0-.43-.38.738.738 0 0 0-.57.03.75.75 0 0 0-.38.43.738.738 0 0 0 .03.57.758.758 0 0 0 .284.316A.748.748 0 0 0 31 19a.7.7 0 0 0 .164-.02.82.82 0 0 0 .156-.06.744.744 0 0 0 .35-1zM21.04 11.18l.08.014a.756.756 0 0 0 .82-.584.738.738 0 0 0-.1-.56.753.753 0 0 0-.47-.33.732.732 0 0 0-.565.092.75.75 0 0 0 .236 1.368zM33.165 24.38a.693.693 0 0 0-.045-.14.628.628 0 0 0-.065-.133.77.77 0 0 0-.095-.117.758.758 0 0 0-.113-.092.906.906 0 0 0-.127-.068.73.73 0 0 0-.58 0 .917.917 0 0 0-.128.068.75.75 0 0 0-.112.092.7.7 0 0 0-.092.117 1.19 1.19 0 0 0-.068.133.693.693 0 0 0-.045.14.68.68 0 0 0-.015.14.746.746 0 0 0 .015.15.7.7 0 0 0 .045.14.906.906 0 0 0 .068.127.758.758 0 0 0 .092.113.93.93 0 0 0 .112.1.71.71 0 0 0 .128.074 1.394 1.394 0 0 0 .145.036.767.767 0 0 0 .145.014.826.826 0 0 0 .15-.014 1.078 1.078 0 0 0 .14-.036.7.7 0 0 0 .127-.074.94.94 0 0 0 .113-.1.693.693 0 0 0 .09-.113.91.91 0 0 0 .07-.127.7.7 0 0 0 .045-.14.746.746 0 0 0 .015-.15.68.68 0 0 0-.015-.14z"/></svg>