<svg xmlns="http://www.w3.org/2000/svg" width="32" height="32" viewBox="0 0 32 32"><path d="M18.446 6.142c0-.06-.003-.12-.01-.177.19-.114.305-.27.305-.474V3.754c0-.648-1.14-.784-2.097-.784-.957 0-2.098.135-2.098.783V5.49c0 .207.116.36.304.475-.007.058-.01.118-.01.177V7.26c-1.953.745-3.4 2.94-3.4 5.212v1.155c0 .038.007.074.02.11l.252.66v8.866l-.242.5c-.02.04-.03.086-.03.133 0 4.326 1.257 5.145 3.748 5.2.262 0 .545-.145.845-.298.212-.11.475-.244.608-.244.12 0 .38.14.57.24.29.157.565.303.82.303h.01c2.523-.045 3.803-.862 3.803-5.2 0-.05-.01-.097-.034-.14l-.255-.497.016-8.862.254-.674c.013-.034.02-.07.02-.108v-1.143c0-2.27-1.448-4.467-3.4-5.21v-1.12zm-1.802-2.56c.96 0 1.377.15 1.485.226v1.626c-.11.075-.525.227-1.486.227s-1.376-.15-1.485-.226V3.808c.107-.075.524-.227 1.484-.227zm1.388 25.207v-.307c-.1 0-.35-.132-.53-.23-.288-.153-.587-.313-.858-.313-.28 0-.59.158-.888.31-.2.104-.45.232-.568.232-1.94-.043-3.122-.37-3.135-4.517l.242-.5c.02-.04.03-.086.03-.133v-8.99c0-.04-.006-.075-.02-.11l-.25-.662v-1.098c0-2.1 1.37-4.12 3.188-4.703.13-.043.215-.19.21-.327V6.178c.367.073.794.098 1.19.098.398 0 .825-.024 1.19-.098v1.3c0 .133.087.25.214.292 1.817.583 3.187 2.604 3.187 4.702v1.088l-.253.674c-.012.034-.018.07-.018.107l-.016 8.992c0 .05.01.097.034.14l.254.497c-.014 4.155-1.22 4.478-3.2 4.514v.305zM15.634 4.226c.232.026.476.043.725.05.087.003.174.005.26.005.38 0 .736-.024 1.042-.07.084-.013.14-.09.128-.174-.013-.083-.092-.14-.174-.128-.357.054-.79.076-1.247.063-.24-.007-.476-.024-.7-.05-.083-.007-.16.052-.17.136s.05.16.135.17zm-.187 10.597c.373.01.775.02 1.197.02 1.585 0 2.847-.102 3.458-.162.126-.012.218-.125.206-.25-.012-.127-.125-.22-.25-.207-.604.06-1.85.16-3.415.16-.417 0-.814-.008-1.182-.02-.13.005-.232.096-.236.223-.005.126.095.233.222.237zm-2.29-.14c.202.02.502.045.878.07h.016c.12 0 .222-.092.23-.213.01-.125-.087-.235-.214-.244-.37-.026-.666-.05-.865-.07-.125-.01-.238.08-.25.207-.013.127.08.24.207.25zm7.15 8.546c-.01-.126-.12-.218-.25-.206-.48.048-1.778.16-3.413.16-.417 0-.814-.008-1.182-.02-.13.002-.234.096-.237.223-.004.127.096.233.223.237.373.01.774.02 1.197.02 1.655 0 2.97-.114 3.458-.162.126-.013.218-.125.206-.252zm-6.242-.135c-.37-.025-.666-.05-.865-.07-.126-.01-.24.08-.25.207s.08.238.206.25c.202.02.502.046.878.07.006.002.01.002.016.002.12 0 .22-.093.23-.214.008-.127-.088-.237-.215-.245z"/></svg>