<svg xmlns="http://www.w3.org/2000/svg" width="32" height="32" viewBox="0 0 32 32"><path d="M22.13 4.717H11.558c-.656 0-1.19.534-1.19 1.19v20.38c0 .656.534 1.19 1.19 1.19H22.13c.656 0 1.19-.533 1.19-1.19V5.907c0-.656-.534-1.19-1.19-1.19zm-10.572.613H22.13c.318 0 .576.26.576.577V8.51H10.982V5.908c0-.318.258-.577.576-.577zm11.148 3.487v14.558H10.982V8.817h11.724zm-.576 18.046H11.558c-.318 0-.577-.26-.577-.577V23.68h11.725v2.606c0 .318-.258.577-.576.577zm-6.325-19.72h2.077c.127 0 .23-.102.23-.23s-.103-.23-.23-.23h-2.077c-.127 0-.23.104-.23.23s.103.23.23.23zm-1.037.076c.083 0 .163-.032.218-.09.058-.055.09-.135.09-.218 0-.08-.032-.16-.09-.214-.11-.114-.316-.117-.432 0-.058.058-.092.134-.092.214 0 .083.034.162.092.218.055.058.135.09.214.09zm2.67 16.92h-1.19c-.444 0-.806.36-.806.805v.582c0 .445.362.806.806.806h1.19c.446 0 .807-.362.807-.806v-.582c0-.444-.362-.806-.806-.806zm.348 1.388c0 .192-.155.347-.347.347h-1.192c-.19 0-.347-.155-.347-.347v-.582c0-.19.157-.346.348-.346h1.19c.193 0 .348.156.348.346v.582zm2.944-13.86l-4.564 3.066c-.072.05-.09.147-.042.22.03.045.08.07.13.07.032 0 .063-.01.09-.027l4.565-3.066c.07-.048.09-.146.042-.22-.05-.072-.15-.09-.222-.042zm-2.304 2.734l-3.615 2.442c-.07.05-.09.148-.04.22.03.045.08.07.13.07.03 0 .062-.01.09-.028l3.614-2.442c.073-.05.092-.148.042-.22-.048-.073-.148-.09-.22-.042z"/></svg>