<svg xmlns="http://www.w3.org/2000/svg" viewBox="0 0 36 36"><title>Icon-Red_Hat-Documents-Paper_Lined-A-Black-RGB</title><path d="M26.75 29V7a.75.75 0 0 0-.75-.73H14a.63.63 0 0 0-.19 0h-.07a.66.66 0 0 0-.22.15l-4 4a.86.86 0 0 0-.15.22.64.64 0 0 0 0 .07.58.58 0 0 0 0 .19V29a.76.76 0 0 0 .75.75H26a.76.76 0 0 0 .75-.75zM13.25 8.83v1.44h-1.44zm12 19.44h-14.5v-16.5H14a.76.76 0 0 0 .75-.75V7.77h10.5z"/><path d="M12.25 14a.76.76 0 0 0 .75.75h5a.75.75 0 0 0 0-1.5h-5a.75.75 0 0 0-.75.75zM12.25 17a.76.76 0 0 0 .75.75h10a.75.75 0 0 0 0-1.5H13a.75.75 0 0 0-.75.75zM23 19.27H13a.75.75 0 1 0 0 1.5h10a.75.75 0 0 0 0-1.5zM23 22.27H13a.75.75 0 1 0 0 1.5h10a.75.75 0 0 0 0-1.5z"/></svg>