<svg xmlns="http://www.w3.org/2000/svg" viewBox="0 0 32 32"><path d="M16.72 9.32c-.11-.05-.23-.02-.31.06l-4.13 3.98H8.39c-.16 0-.29.13-.29.29v4.69c0 .16.13.29.29.29h3.81l4.19 4.01c.06.05.13.08.2.08.04 0 .08-.01.11-.02.1-.05.18-.15.18-.27V9.58c.01-.11-.06-.22-.16-.26zm-.41 4.78v7.64l-3.79-3.62c-.05-.05-.12-.08-.2-.08H8.68v-4.12h3.7c.07 0 .15-.03.2-.08l3.73-3.59v3.85zM19.6 13.35c-.06-.05-.14-.05-.2.01-.05.06-.05.14 0 .2.56.54.88 1.26.88 2.03 0 .79-.34 1.55-.94 2.09-.06.05-.06.14-.01.2.03.03.06.05.1.05.03 0 .06-.01.09-.03.65-.59 1.03-1.42 1.03-2.3.01-.87-.33-1.66-.95-2.25zM21.44 10.48c-.07.08-.07.2.01.27 1.32 1.27 2.06 2.98 2.06 4.81 0 1.86-.79 3.66-2.17 4.93-.08.07-.08.19-.01.27.04.04.09.06.14.06.05 0 .09-.02.13-.05 1.46-1.34 2.29-3.24 2.29-5.21 0-1.94-.77-3.75-2.17-5.1-.08-.06-.2-.05-.28.02z"/><path d="M20.48 11.71c-.07-.06-.17-.06-.24.01-.06.07-.06.17.01.24 1 .95 1.56 2.24 1.56 3.62 0 1.42-.61 2.78-1.67 3.73-.07.06-.07.17-.01.23.03.04.08.06.12.06.04 0 .08-.01.11-.04 1.13-1.01 1.78-2.46 1.78-3.97.01-1.49-.59-2.86-1.66-3.88z"/></svg>