<svg data-name="Layer 1" xmlns="http://www.w3.org/2000/svg" viewBox="0 0 36 36"><title>Icon-Red_Hat-Battery-A-Black-RGB</title><path d="M22 7.25h-1.25V6a.76.76 0 0 0-.75-.75h-4a.76.76 0 0 0-.75.75v1.25H14a.76.76 0 0 0-.75.75v22a.76.76 0 0 0 .75.75h8a.76.76 0 0 0 .75-.75V8a.76.76 0 0 0-.75-.75zm-5.25-.5h2.5v.5h-2.5zm4.5 22.5h-6.5V8.75h6.5z"/><path d="M18.75 11.75V11a.75.75 0 0 0-1.5 0v.75h-.75a.75.75 0 0 0 0 1.5h.75V14a.75.75 0 0 0 1.5 0v-.75h.75a.75.75 0 0 0 0-1.5zM19.5 25.27h-3a.75.75 0 0 0 0 1.5h3a.75.75 0 0 0 0-1.5z"/></svg>