<?xml version="1.0" encoding="UTF-8"?>
<svg id="uuid-0254c131-eaa4-492f-94bd-e762f001e53b" data-name="Icon" xmlns="http://www.w3.org/2000/svg" viewBox="0 0 36 36">
  <path d="M14,29.62h8c.35,0,.62-.28,.62-.62V11c0-.34-.28-.62-.62-.62H14c-.35,0-.62,.28-.62,.62V29c0,.34,.28,.62,.62,.62Zm.62-1.25v-8.75h1.38c1.45,0,2.62-1.18,2.62-2.62,0-.76,.62-1.38,1.38-1.38h1.38v12.75h-6.75Zm6.75-16.75v2.75h-1.38c-1.45,0-2.62,1.18-2.62,2.62,0,.76-.62,1.38-1.38,1.38h-1.38v-6.75h6.75Z"/>
  <path d="M27,30.38H9c-.35,0-.62,.28-.62,.62s.28,.62,.62,.62H27c.35,0,.62-.28,.62-.62s-.28-.62-.62-.62Z"/>
  <path d="M18,9.62c.15,0,.3-.05,.42-.16,.85-.76,1.33-1.84,1.33-2.96s-.49-2.2-1.33-2.96c-.24-.21-.6-.21-.84,0-.85,.76-1.33,1.84-1.33,2.96s.49,2.2,1.33,2.96c.12,.11,.27,.16,.42,.16Zm0-4.69c.33,.46,.5,1,.5,1.57s-.17,1.11-.5,1.57c-.33-.46-.5-1-.5-1.57s.17-1.11,.5-1.57Z"/>
</svg>