<svg xmlns="http://www.w3.org/2000/svg" width="32" height="32" viewBox="0 0 32 32"><path d="M28.905 10.96l-1.523-.888c-.035-.02-.077-.026-.116-.016-.04.01-.073.036-.093.07l-.304.522-1.113 1.91c-.36-.444-.354-.438-.795-.99-1.306-1.53-3.24-2.476-5.34-2.476-3.09 0-5.805 2.015-6.712 4.94-.504-.18-1.03-.27-1.57-.27-2.186 0-4.067 1.505-4.563 3.612-1.954.072-3.6 1.43-4.036 3.35-.018.087.002.178.058.248.055.07.14.11.227.11h18.82v-.002c.03.006.085.01.118.006.008 0 .014-.006.02-.007.007 0 .013.005.02.005.032.004.066-.003.096-.02l1.64-.97.004-.006c.02-.014.038-.03.05-.05v-.002l5.167-8.87c.042-.074.018-.168-.055-.21zm-6.9 8.04c-.012.02-.018.042-.02.063v.004l-.09 1.43H3.407c.502-1.513 1.906-2.54 3.55-2.54h.048c.148.015.268-.097.293-.238.354-1.955 2.052-3.374 4.04-3.374.53 0 1.05.106 1.54.305.303.148.954.525 1.355 1.2.048.08.14.118.226.102.027-.006.052-.013.075-.028.104-.062.138-.196.076-.3-.345-.58-.836-.96-1.21-1.187.76-2.807 3.306-4.762 6.22-4.762 2.038 0 3.898.948 5.087 2.484.432.497.704.985.705.986L22.002 19zm.883 1.243l-.67-.022.056-.885 1.083.63-.47.28zm.717-.49l-1.258-.73 5.013-8.61 1.258.733-5.013 8.608z"/></svg>