<svg xmlns="http://www.w3.org/2000/svg" viewBox="0 0 32 32"><path d="M26.73 16.87c-.05-.62-.66-1.13-1.82-1.5v-3.48c0-.61-.5-1.11-1.11-1.11h-.78v-.79c0-.61-.5-1.11-1.11-1.11h-.51c.13-1.87 0-3.26-.43-3.89-.22-.33-.49-.42-.68-.44-.73-.08-1.59.76-2.57 2.52h-4.26c-1.55-1.53-2.71-2.14-3.45-1.83-.53.21-.74.83-.64 1.82H7.92c-.61 0-1.11.5-1.11 1.11v8.66c-1.06.55-1.58 1.15-1.53 1.77.05.64.7 1.09 1.53 1.4v.35c0 .61.5 1.11 1.11 1.11h.7v.7c0 .61.5 1.11 1.11 1.11h.78v.78c0 .61.5 1.11 1.11 1.11h1.42c.09 1.44.47 2.21 1.14 2.29.03 0 .06.01.09.01.7 0 1.52-.89 2.34-2.29h3.15c1.35 1.35 2.41 2.02 3.17 2.02.15 0 .28-.03.41-.08.19-.08.44-.26.57-.67.1-.32.12-.76.05-1.29.54-.07.97-.53.97-1.1v-5.29c1.01-.47 1.86-1.12 1.8-1.89zM14.41 8.05c-.17-.19-.33-.36-.5-.53h6.18c.36 0 .65.29.65.65v.7h-5.62c-.24-.28-.48-.56-.71-.82zm6.35 1.28c-.04.45-.1.93-.17 1.43h-3.96c-.38-.5-.75-.98-1.12-1.43h5.25zm-1.3 5.61c-.34-.55-.68-1.08-1.03-1.61h1.7c-.13.63-.28 1.28-.46 1.97l-.21-.36zm-8.49-1.92v-1.15c0-.36.29-.65.65-.65h4.53c.43.57.86 1.18 1.28 1.8h-6.46zm7.26 0c-.42-.62-.84-1.22-1.26-1.8h3.55c-.09.57-.2 1.17-.33 1.8h-1.96zm-2.42-2.26h-4.19c-.61 0-1.11.5-1.11 1.11v8.22c-.51-.04-.98-.1-1.43-.17V9.99c0-.36.29-.65.65-.65h4.93c.38.44.76.92 1.15 1.42zm-4.84 2.57h6.68c.42.63.84 1.29 1.25 1.95.19.31.37.61.54.9 0 .01 0 .01-.01.02-.36 1.32-.74 2.53-1.12 3.63-.69.09-1.4.17-2.12.23-1.86.15-3.64.17-5.22.07v-6.8zm8.89 3.59c.48.84.91 1.65 1.29 2.42-.69.15-1.41.29-2.17.4.32-.92.62-1.87.88-2.82zm.25-.89c.25-.93.46-1.83.64-2.7h3.71v4.98c-.3.13-.64.26-1.03.4-.5.17-1.04.33-1.62.47-.5-1.01-1.07-2.07-1.7-3.15zm4.34-4.15v1.15H20.8c.12-.62.23-1.22.32-1.8h2.67c.37-.01.66.29.66.65zm-2.54-2.55c.36 0 .65.29.65.65v.78h-1.37c.07-.5.12-.98.17-1.43h.55zm-1.68-4.19c.03 0 .13.01.25.18.23.33.36 1.03.37 2.03-.2-.18-.46-.3-.75-.3h-1.68c.86-1.45 1.49-1.94 1.81-1.91zm-9.97.69c.31-.13 1.05.16 2.24 1.23h-2.48c-.07-.67.01-1.13.24-1.23zM7.92 7.52H13c.29.28.6.6.93.97.11.12.23.26.34.38H9.73c-.61 0-1.11.5-1.11 1.11v9.86c-.54-.1-.99-.21-1.35-.33V8.17c-.01-.36.29-.65.65-.65zM5.88 18.55c-.02-.29.31-.66.92-1.02v1.81c-.63-.26-.9-.55-.92-.79zm2.04 2.46c-.36 0-.65-.29-.65-.65v-.19c.44.13.91.23 1.35.31v.53h-.7zm1.81 1.81c-.36 0-.65-.29-.65-.65v-1.62c.45.07.93.12 1.43.16v2.11h-.78zm1.24 1.24v-3.32c.65.04 1.33.06 2.04.06 1.03 0 2.12-.05 3.23-.13.62-.05 1.24-.12 1.84-.19-.65 1.75-1.31 3.17-1.91 4.23h-4.55c-.36 0-.65-.29-.65-.65zm3.27 2.8c-.24-.03-.52-.49-.6-1.69h2.26c-.7 1.14-1.29 1.73-1.66 1.69zm4.51-6.47c.94-.14 1.84-.3 2.68-.49.95 1.99 1.54 3.65 1.78 4.82h-2.99l-.03-.03-.03.03h-3.3c.66-1.21 1.3-2.71 1.89-4.33zm4.53 5.85c-.07.21-.17.26-.2.27-.31.13-1.09-.17-2.37-1.34h2.59c.06.47.05.83-.02 1.07zm1.17-2.18c0 .33-.25.61-.58.65-.24-1.28-.87-3.01-1.8-4.96.55-.14 1.07-.29 1.54-.45.27-.09.55-.2.83-.31.01-.01.01 5.07.01 5.07zm.46-5.97v-2.08c.75.27 1.18.59 1.21.91.02.28-.31.71-1.21 1.17z"/></svg>