<svg xmlns="http://www.w3.org/2000/svg" width="32" height="32" viewBox="0 0 32 32"><path d="M15.074 3.523v.003c0 .088.438.16.978.16s.978-.07.978-.16v-.003-.003c0-.088-.438-.16-.978-.16s-.978.07-.978.16v.003zM11.88 15.9l.003.11c.002.03.002-.397-.002-.11zm6.078-6.263l-.34-4.015c0-.054-.004-.107-.01-.16.17-.102.274-.24.274-.425v-1.73c0-.582-1.024-.704-1.883-.704s-1.884.122-1.884.704v1.73c0 .185.104.323.273.426-.006.052-.01.105-.01.16l-.34 4.013c-2.22 1.347-2.683 3.67-2.71 6.267-.01.043.16 12.07.16 12.07 0 .248.21.472.556.665l.377.178c.614.246 1.473.424 2.393.514.44.042.72.066 1.167.066.452 0 .74-.024 1.184-.068.216-.022.43-.047.635-.078.412-.062.8-.14 1.148-.237.214-.06.414-.124.592-.196l.376-.178c.348-.195.558-.42.558-.668l.024-2.8c.015-.333.17-8.095.17-8.128v-1.027c0-2.947-.72-5.247-2.712-6.38zm-3.29-6.28c.096-.066.47-.203 1.332-.203s1.236.137 1.333.204v1.63c-.097.067-.47.204-1.333.204s-1.236-.137-1.333-.204v-1.63zM19.9 27.875c-.03.124-.288.31-.856.488-.732.23-1.684.432-3.06.432-1.38 0-2.334-.204-3.065-.432-.215-.066-.395-.135-.538-.2-.236-.11-.29-.213-.31-.288l-.19-11.863v-.108c-.023-2.305.495-4.646 2.52-5.807.106-.06.193-.17.19-.293l.34-4.146c.328.066.712.088 1.068.088.356 0 .74-.022 1.068-.088l.34 4.178c0 .12.085.21.192.262 1.753.87 2.534 2.906 2.534 5.906L19.9 27.875zm-1.614-9.612c-.022-.006-.046-.003-.067.01l-1.176.695c-.04.024-.054.075-.032.116l.616 1.102h-.666l.003-.265c0-.042 0-.083-.054-.118-.044-.03-.103-.026-.155.013-.007.005-.014.012-.02.02l-.678.978c-.02.03-.02.07 0 .098l.68.98c.004.008.01.014.018.02.03.022.06.033.09.033.023 0 .046-.007.066-.02.055-.036.055-.076.055-.12l-.003-.263h.488c.515 0 .682-.29.69-.306l.614-1.18v-.002l.002-.002c.243-.534.037-.912.03-.926l-.448-.82c-.01-.02-.03-.036-.053-.042zm-.297 2.89c-.002.002-.132.215-.54.215h-.575c-.023 0-.045.01-.06.026-.018.016-.027.04-.026.062v.213l-.557-.806.56-.805-.003.213c0 .023.01.045.025.062.016.016.038.026.06.026h1.19c.05 0 .21-.005.37-.057l-.444.855zm.61-1.176c-.086.165-.387.21-.538.21h-.236l-.622-1.113 1.027-.608.405.743c.006.013.17.32-.034.768zm-2.997.048l-1.278-.002.35-.604.232.14c.026.016.046.028.076.028.025 0 .042-.01.052-.014.05-.024.075-.076.07-.14l-.008-.028-.5-1.082c-.014-.033-.048-.052-.084-.05l-1.188.088c-.01 0-.018.003-.027.006-.06.026-.093.073-.09.128.004.065.038.085.076.107l.224.128-.244.424c-.068.115-.113.23-.134.344v.016c-.036.243.12.51.128.52l.626 1.002c.337.48.766.495.783.495l.935.03c.022 0 .044-.008.06-.023.017-.016.026-.038.026-.062V20.11c0-.05-.038-.088-.085-.088zm-2.3-.502c.017-.09.054-.186.11-.282l.288-.5c.012-.02.015-.044.01-.066-.007-.022-.022-.04-.042-.05l-.18-.103.978-.07.41.888-.186-.114c-.02-.012-.044-.016-.066-.01-.022.006-.042.02-.053.04l-.445.768c-.128 0-.446-.016-.648-.16-.117-.084-.174-.195-.175-.34zm2.214 1.866l-.844-.03c-.015 0-.362-.015-.645-.417l-.547-.874c.018.008.038.013.055.02l.072.03c.042.013.082.025.123.034l.067.015c.045.008.087.014.13.018.016.002.033.005.05.006.054.003.105.005.145.005h.054l.014-.002 1.324.002v1.19zm.872-3.498l-.225.12c-.036.02-.073.04-.08.103-.006.055.026.104.083.133.008.004.018.006.027.008l1.182.15h.01c.033 0 .062-.017.077-.045l.554-1.055.01-.026c.01-.065-.013-.12-.06-.146-.012-.006-.03-.017-.058-.017-.028 0-.047.01-.07.023l-.247.124-.214-.43c-.24-.457-.575-.472-.592-.472h-1.334c-.587.033-.826.39-.835.403l-.523.775c-.013.02-.018.043-.013.066s.02.042.04.055l1.16.722c.013.01.03.013.044.013.028 0 .055-.014.072-.04l.69-1.05.3.585zm-1.087.302l-1.014-.63.47-.702c.01-.012.206-.298.7-.326.197.002.378.275.432.38l.11.213-.7 1.064zm.52-1.657h.96c.01 0 .254.017.442.376l.252.508c.01.02.028.037.05.043.022.008.045.007.066-.004l.206-.104-.46.873-.978-.124.185-.098c.04-.022.057-.073.036-.115l-.534-1.05c-.007-.01-.09-.17-.226-.302z"/></svg>