<svg xmlns="http://www.w3.org/2000/svg" viewBox="0 0 31.68 31.68"><path d="M22.69 5.81c.03-.1-.02-.22-.12-.27L20.45 4.5c-.03-.02-.07-.02-.1-.02h-8.7c-.03 0-.06.01-.09.02L9.12 5.53c-.11.05-.16.17-.13.28 0 .02-.01.03-.01.06V27c0 .13.1.23.23.23h13.26c.13 0 .23-.1.23-.23v-7.64-.02V5.86c0-.02-.01-.04-.01-.05zM11.7 4.94h8.6l1.42.7H10.06l1.64-.7zm-.84 3.22h10.18v7.55h-.81c-.06 0-.12.05-.12.12v3.41c0 .06.05.12.12.12h.81v7.39H10.86V8.16zm10.19 10.96h-.7v-3.18h.7v3.18zm0-11.19H10.86V6.1h10.18v1.83zM9.44 23.38V6.1h.96v20.65h-.96v-3.37zm12.8-16.1V26.73h-.73V6.1h.73v1.18z"/><path d="M17.5 10.25h-3.4c-.06 0-.12.05-.12.12v1.78c0 .06.05.12.12.12h3.41c.06 0 .12-.05.12-.12v-1.78c-.01-.07-.06-.12-.13-.12zm-.11 1.78h-3.18v-1.55h3.18v1.55z"/><circle cx="14.91" cy="11.26" r=".32"/><circle cx="15.81" cy="11.26" r=".32"/><circle cx="16.71" cy="11.26" r=".32"/></svg>