<svg xmlns="http://www.w3.org/2000/svg" viewBox="0 0 36 36"><path d="M25.75 25.25h-20c-.414 0-.75.336-.75.75v4c0 .414.336.75.75.75h20c.414 0 .75-.336.75-.75v-4c0-.414-.336-.75-.75-.75zm-.75 4H6.5v-2.5H25v2.5zM5.75 16.75h20c.414 0 .75-.336.75-.75v-4c0-.414-.336-.75-.75-.75h-20c-.414 0-.75.336-.75.75v4c0 .414.336.75.75.75zm.75-4H25v2.5H6.5v-2.5zm23.25 5.5h-20c-.414 0-.75.336-.75.75v4c0 .414.336.75.75.75h20c.414 0 .75-.336.75-.75v-4c0-.414-.336-.75-.75-.75zm-.75 4H10.5v-2.5H29v2.5zm-2.25-16h-1.19l.72-.72c.282-.303.266-.778-.037-1.06-.288-.268-.735-.268-1.023 0l-2 2c-.292.293-.292.767 0 1.06l2 2c.303.282.778.266 1.06-.037.268-.288.268-.735 0-1.023l-.72-.72h1.19C27.992 7.75 29 8.758 29 10v7c0 .414.336.75.75.75s.75-.336.75-.75v-7c-.002-2.07-1.68-3.748-3.75-3.75z"/></svg>