<svg xmlns="http://www.w3.org/2000/svg" viewBox="0 0 36 36"><title>Icons-Red_Hat-Software_and_Technologies-Container_Microservice-A-Black-RGB</title><path d="M31 9.38H15.29a.74.74 0 0 0-.75.75V13h-2.9v-1.24a.73.73 0 0 0-.38-.65L8.31 9.4a.77.77 0 0 0-.75 0l-2.94 1.71a.73.73 0 0 0-.38.65v3.4a.73.73 0 0 0 .38.65l2.94 1.7a.75.75 0 0 0 .38.1.69.69 0 0 0 .37-.1l2.95-1.7a.73.73 0 0 0 .38-.65v-.71h2.9v7.07h-2.9v-.68a.73.73 0 0 0-.38-.65l-2.95-1.7a.72.72 0 0 0-.75 0l-2.94 1.7a.73.73 0 0 0-.38.65v3.4a.73.73 0 0 0 .38.65l2.94 1.71a.86.86 0 0 0 .38.1.79.79 0 0 0 .37-.1l2.95-1.71a.73.73 0 0 0 .38-.65V23h2.9v2.82a.74.74 0 0 0 .75.75H31a.75.75 0 0 0 .75-.75V10.13a.75.75 0 0 0-.75-.75zm-20.86 5.35L7.94 16l-2.2-1.27v-2.54l2.2-1.27 2.2 1.27zm0 9.08l-2.2 1.27-2.2-1.27v-2.54L7.94 20l2.2 1.27zm20.11 1.28H16V10.88h14.25z"/><path d="M28.25 13.23a.72.72 0 0 0 .29-.06.78.78 0 0 0 .24-.16.75.75 0 0 0 0-1.06.78.78 0 0 0-.24-.16.75.75 0 1 0-.29 1.44zM26.13 13.17a.72.72 0 0 0 .29.06A.77.77 0 0 0 27 13a.75.75 0 0 0 0-1 .82.82 0 0 0-.25-.16.74.74 0 0 0-.81.16.75.75 0 0 0-.22.53.71.71 0 0 0 .22.53.63.63 0 0 0 .19.11z"/></svg>