<svg xmlns="http://www.w3.org/2000/svg" width="32" height="32" viewBox="0 0 32 32"><path d="M14.375 24.33h3.25c.126 0 .23-.104.23-.23s-.104-.23-.23-.23h-3.25c-.127 0-.23.102-.23.23s.103.23.23.23zm3.935.642h-4.622c-.127 0-.23.103-.23.23s.103.23.23.23h4.622c.127 0 .23-.103.23-.23s-.103-.23-.23-.23zm-1.028 1.102h-2.564c-.127 0-.23.103-.23.23s.103.23.23.23h2.564c.127 0 .23-.103.23-.23s-.103-.23-.23-.23zm6.04-17.73c-.16-.55-.67-.933-1.24-.933-.12 0-.24.018-.356.05L9.562 10.95c-.682.195-1.08.91-.884 1.594.158.55.67.934 1.24.934.12 0 .24-.017.355-.05l12.163-3.487c.33-.094.606-.312.773-.614.166-.302.206-.65.11-.98zm-.514.76c-.108.193-.284.334-.498.395l-12.163 3.486c-.433.123-.904-.142-1.028-.568-.126-.44.13-.902.568-1.028l12.164-3.487c.075-.022.152-.033.23-.033.366 0 .694.248.796.602.06.213.036.438-.07.63zm-1.1 1.67c-.098 0-.197.013-.29.04l-10.63 3.047c-.276.08-.507.268-.653.53-.168.303-.206.678-.105 1.03.16.558.632.948 1.154.96h.854c1.105 0 1.32 1.922 1.36 2.646-.946.173-1.666 1.002-1.666 1.997 0 .68.336 1.28.85 1.65-.202.184-.334.46-.334.77v.115c0 .184.042.358.12.51-.078.15-.12.33-.12.524v.114c0 .187.042.364.122.515-.08.152-.122.323-.122.5v.115c0 .263.09.51.252.695.026.03.058.055.095.073.365.18.612.388.85.59.535.45 1.04.878 2.55.878 1.513 0 2.02-.426 2.555-.877.238-.2.485-.41.85-.59.035-.017.067-.04.093-.07.165-.186.255-.434.255-.696v-.114c0-.176-.042-.347-.122-.5.08-.15.122-.328.122-.515v-.114c0-.194-.042-.374-.12-.524.078-.15.12-.326.12-.51v-.114c0-.328-.144-.617-.364-.8.492-.37.812-.96.812-1.622 0-.994-.72-1.823-1.666-1.997.04-.723.254-2.645 1.36-2.645h1.322c.56-.004 1.028-.628 1.023-1.363-.006-.71-.47-1.282-1.033-1.282h-.626l1.55-.443c.3-.087.545-.3.687-.603.136-.29.16-.63.067-.956-.16-.566-.644-.962-1.175-.962zm-8.652 5.607h.825c.218 0 .393.07.535.216.492.5.493 1.732.483 2.394h-1.04c-.03-.614-.17-1.914-.802-2.61zm3.516 2.61h-1.214c.01-.73.003-1.944-.533-2.61h2.28c-.536.666-.544 1.88-.533 2.61zm2.566 4.568c0 .122-.038.23-.106.304-.112.12-.108.31.01.425.062.063.097.17.097.305v.114c0 .124-.038.232-.106.304-.11.116-.11.294-.006.413.07.08.11.188.11.298v.115c0 .093-.025.18-.07.25-.397.205-.67.434-.91.638-.487.41-.87.734-2.16.734-1.286 0-1.67-.324-2.156-.734-.24-.203-.514-.433-.91-.638-.045-.07-.07-.157-.07-.25v-.114c0-.11.04-.218.11-.296.105-.118.103-.298-.006-.414-.067-.07-.104-.18-.104-.304v-.114c0-.134.035-.242.097-.306.115-.116.118-.303.007-.424-.068-.074-.106-.182-.106-.305v-.114c0-.21.132-.388.287-.388h5.703c.152 0 .286.182.286.388v.114zm.447-2.535c0 .783-.637 1.42-1.42 1.42h-4.4c-.783 0-1.42-.637-1.42-1.42 0-.782.637-1.418 1.42-1.418h4.4c.783 0 1.42.636 1.42 1.418zm-1.513-2.032h-1.04c-.01-.66-.01-1.892.482-2.393.142-.145.318-.215.535-.215h.824c-.63.695-.77 1.995-.802 2.61zm3.13-4.793h.002c.31 0 .572.377.575.825.002.47-.27.898-.567.9h-8.255l6.086-1.744v.02H21.2zm1.198-1.7c-.084.18-.226.305-.4.355L11.37 15.9c-.367.105-.774-.175-.898-.607-.068-.235-.044-.482.065-.68.086-.154.22-.264.376-.31l10.632-3.047c.053-.016.108-.023.163-.023.326 0 .628.26.734.63.063.217.048.443-.04.634zm-12.17-2.343c.098 0 .196-.014.29-.04l10.63-3.05c.275-.077.507-.266.652-.53.167-.3.205-.676.104-1.027-.162-.566-.646-.962-1.177-.962-.014 0-.026.002-.038.003v-.003l-9.818.014c-.577.004-1.08.635-1.074 1.348.003.396.146.762.393 1.005.18.178.41.277.64.277h.53l-1.553.445c-.275.078-.506.266-.65.528-.17.302-.208.678-.107 1.03.163.567.648.962 1.178.962zm.607-3.425h-.004c-.142 0-.252-.08-.318-.145-.16-.156-.254-.41-.256-.68-.004-.49.335-.885.616-.887l8.095-.01-6.005 1.72h-2.128zM9.56 8.384c.086-.155.22-.264.376-.31l10.63-3.047c.053-.015.108-.023.162-.023.327 0 .63.258.735.63.068.234.044.48-.064.678-.087.155-.22.265-.378.31L10.392 9.67c-.368.107-.774-.172-.9-.604-.066-.236-.043-.485.067-.68z"/></svg>