<svg xmlns="http://www.w3.org/2000/svg" width="32" height="32" viewBox="0 0 32 32"><path d="M25.893 13.6V7.46c0-.657-.533-1.19-1.19-1.19H7.62c-.657 0-1.19.533-1.19 1.19v17.084c0 .656.533 1.19 1.19 1.19h17.084c.656 0 1.19-.533 1.19-1.19v-10.94-.002-.002zm-9.58-6.717h6.516v2.144h-6.516V6.883zm0 2.45h6.516v3.105h-6.516V9.334zm-6.82-2.45h6.515v2.144H9.493V6.883zm0 2.45h6.515v3.105H9.493V9.334zm0 3.412h6.515v3.104H9.493v-3.105zM7.043 7.46c0-.318.258-.577.575-.577h1.568v2.144H7.042V7.46zm0 1.874h2.143v3.104H7.042V9.334zm0 3.41h2.143v3.105H7.042v-3.105zm18.237 11.8c0 .318-.26.577-.576.577H7.62c-.32 0-.577-.258-.577-.576v-3.226h.62c.036 0 .072-.006.107-.02l.85-.313c.057-.022.108-.06.143-.11l.808-1.148.62-.326.695.493c.035.026.076.042.12.05l.85.163c.1.02.2-.012.273-.083l.717-.71.672.222c.134.044.282-.01.357-.13l.717-1.162.614.234c.106.04.226.02.312-.057l.698-.618.667.316c.153.072.336.007.41-.146l.685-1.44.55.425c.065.05.15.075.23.06.083-.01.157-.056.206-.123l.73-1.015.635.15.85.248c.122.036.257-.01.333-.114l.742-1.02.668.092c.104.016.207-.025.275-.105l.8-.936.725-.287h.562v10.635zm0-11.248h-.62c-.04 0-.077.007-.113.022l-.85.337c-.045.02-.087.048-.12.086l-.74.868-.683-.094c-.114-.017-.223.032-.29.123l-.722.994-.658-.192-.85-.2c-.12-.03-.247.018-.32.12l-.664.923-.6-.463c-.073-.057-.17-.078-.26-.056-.09.023-.165.084-.205.167l-.718 1.51-.574-.273c-.11-.052-.242-.034-.334.047l-.712.63-.677-.26c-.135-.05-.292 0-.37.127l-.72 1.172-.62-.205c-.11-.036-.23-.008-.312.073l-.735.727-.626-.12-.796-.563c-.093-.066-.216-.075-.32-.02l-.85.447c-.042.022-.08.054-.107.094l-.795 1.13-.71.26h-.565v-1.14H8.56l.217-.305H7.043v-3.104h2.144v2.735l.306-.16v-2.574h6.515v.7c.1-.027.204-.028.306 0v-.7h.822l.146-.305h-.967v-3.103h6.515v1.4l.306-.36v-1.04h2.144v.55h-.002zm0-.858h-2.144V9.334h2.144v3.104zm0-3.41h-2.144V6.884h1.568c.317 0 .576.26.576.576v1.568zM8.146 22.67h-.314c-.085 0-.153.07-.153.153 0 .085.068.153.152.153h.314c.085 0 .153-.07.153-.153 0-.084-.07-.153-.154-.153zm8.8 0h-.314c-.085 0-.153.07-.153.153 0 .085.068.153.152.153h.314c.085 0 .153-.07.153-.153 0-.084-.07-.153-.154-.153zm1.258 0h-.314c-.085 0-.153.07-.153.153 0 .085.07.153.153.153h.314c.084 0 .153-.07.153-.153 0-.084-.07-.153-.153-.153zm2.514 0h-.314c-.085 0-.153.07-.153.153 0 .085.07.153.154.153h.314c.084 0 .153-.07.153-.153 0-.084-.068-.153-.152-.153zm-1.257 0h-.313c-.085 0-.153.07-.153.153 0 .085.07.153.153.153h.314c.086 0 .154-.07.154-.153 0-.084-.068-.153-.153-.153zm2.515 0h-.314c-.083 0-.152.07-.152.153 0 .085.07.153.153.153h.315c.085 0 .153-.07.153-.153 0-.084-.068-.153-.153-.153zm1.258 0h-.314c-.086 0-.154.07-.154.153 0 .085.07.153.153.153h.313c.085 0 .153-.07.153-.153 0-.084-.068-.153-.153-.153zm1.257 0h-.314c-.084 0-.153.07-.153.153 0 .085.07.153.153.153h.314c.085 0 .153-.07.153-.153 0-.084-.068-.153-.153-.153zm-12.573 0h-.314c-.085 0-.153.07-.153.153 0 .085.07.153.153.153h.314c.085 0 .153-.07.153-.153 0-.084-.07-.153-.153-.153zm-2.514 0H9.09c-.086 0-.154.07-.154.153 0 .085.07.153.153.153h.313c.084 0 .153-.07.153-.153 0-.084-.07-.153-.153-.153zm1.257 0h-.314c-.084 0-.153.07-.153.153 0 .085.07.153.153.153h.314c.085 0 .153-.07.153-.153 0-.084-.068-.153-.153-.153zm5.03 0h-.316c-.084 0-.153.07-.153.153 0 .085.07.153.154.153h.314c.084 0 .153-.07.153-.153 0-.084-.067-.153-.152-.153zm-1.258 0h-.314c-.085 0-.153.07-.153.153 0 .085.07.153.153.153h.314c.085 0 .153-.07.153-.153 0-.084-.07-.153-.153-.153zm-1.258 0h-.314c-.084 0-.153.07-.153.153 0 .085.07.153.153.153h.314c.085 0 .153-.07.153-.153 0-.084-.068-.153-.153-.153z"/></svg>