<svg xmlns="http://www.w3.org/2000/svg" width="32" height="32" viewBox="0 0 32 32"><path d="M18.046 13.523c-1.376-1.12-3.406-.91-4.526.466-.046.056-.086.116-.127.174l-.17.266c-.763 1.34-.472 3.08.763 4.085 1.377 1.12 3.407.91 4.526-.466.114-.142.212-.292.3-.445l.142-.28c.574-1.296.243-2.867-.907-3.802zm.106 4.234c-.96 1.178-2.696 1.358-3.875.4-1.078-.878-1.317-2.407-.614-3.564l.114-.172c.034-.046.066-.093.103-.14.958-1.177 2.695-1.357 3.874-.397 1.18.957 1.358 2.696.4 3.874zm4.77-10.267C18.227 3.673 11.305 4.386 7.488 9.078 3.67 13.77 4.385 20.694 9.077 24.512c.042.034.086.066.13.1.233.185.472.36.716.522 3.723 2.48 8.537 2.403 12.152 0 .245-.162.483-.34.716-.522.62-.49 1.198-1.052 1.718-1.69 3.816-4.693 3.104-11.616-1.59-15.43zm2.8 12.058c-.383 1.054-.944 2.065-1.69 2.984-.626.77-1.342 1.42-2.117 1.96-.272.19-.55.365-.835.526-1.76.988-3.764 1.434-5.75 1.308l-.308-.023c-1.415-.132-2.813-.56-4.1-1.285-.286-.162-.568-.333-.842-.524-.208-.145-.412-.298-.612-.46-3.66-2.976-4.75-7.954-2.99-12.09l.125-.285c.354-.768.808-1.504 1.366-2.19 3.6-4.43 10.135-5.1 14.563-1.5 3.425 2.786 4.6 7.324 3.293 11.286l-.102.293zm-8.263-5.302c-.98-.796-2.423-.647-3.22.33-.794.98-.645 2.422.333 3.22.978.794 2.422.645 3.217-.333.795-.978.647-2.422-.33-3.216zm.09 3.02c-.688.848-1.936.976-2.783.288-.847-.69-.976-1.937-.287-2.783.69-.845 1.938-.974 2.784-.286.846.688.974 1.937.286 2.782zm-4.454 1.874l-3.218 3.88c-.055.065-.045.163.02.217.03.024.063.035.098.035.045 0 .088-.02.12-.056l3.216-3.88c.054-.064.046-.162-.02-.217s-.163-.046-.217.02zM21.932 8.5c-.065-.054-.163-.045-.218.02l-3.174 3.827c-.055.066-.045.163.02.217.03.025.064.036.1.036.043 0 .087-.02.118-.056l3.175-3.827c.054-.065.045-.163-.02-.218zm.603.76l-1.022.98c-.062.058-.063.155-.005.217.03.032.07.047.11.047.04 0 .08-.014.108-.042l1.023-.978c.06-.058.062-.157.003-.218-.058-.06-.156-.063-.218-.005z"/></svg>