<svg xmlns="http://www.w3.org/2000/svg" viewBox="0 0 36 36"><title>Icon-Red_Hat-Diagrams-Scale_Growing-A-Black-RGB</title><path d="M27 16.26a.75.75 0 0 0-.75.75v9.25H20a.75.75 0 0 0 0 1.5h7a.75.75 0 0 0 .75-.75V17a.76.76 0 0 0-.75-.74zM9 8.26a.75.75 0 0 0-.75.74v7a.75.75 0 0 0 1.5 0V9.76H19a.75.75 0 0 0 0-1.5zM27.29 8.32a.75.75 0 0 0-.29-.06h-5a.75.75 0 0 0 0 1.5h3.19l-8.5 8.5H8a.75.75 0 0 0-.75.75v9a.74.74 0 0 0 .75.75h9a.75.75 0 0 0 .75-.75v-8.68l8.5-8.5V14a.75.75 0 0 0 1.5 0V9a.71.71 0 0 0-.06-.28.73.73 0 0 0-.4-.4zm-11 18.94H8.75v-7.5h7.5z"/></svg>