<svg data-name="Layer 1" xmlns="http://www.w3.org/2000/svg" viewBox="0 0 36 36"><title>Icon-Red_Hat-Virtual_storage_stack-A-Black-RGB</title><path d="M28.75 18v-2.5a.75.75 0 0 0-.75-.75H8a.75.75 0 0 0-.75.75v5a.75.75 0 0 0 .75.75h20a.75.75 0 0 0 .75-.75zm-1.5 0v1.75H8.75v-3.5h18.5z"/><path d="M24.77 18.53a.662.662 0 0 0 .24.162.76.76 0 0 0 .29.058.688.688 0 0 0 .14-.015.713.713 0 0 0 .14-.045 1.1 1.1 0 0 0 .132-.07.618.618 0 0 0 .118-.09.7.7 0 0 0 .157-.243.806.806 0 0 0 0-.575.7.7 0 0 0-.157-.242.618.618 0 0 0-.118-.09.975.975 0 0 0-.132-.07.736.736 0 0 0-.81.16.748.748 0 0 0 0 1.06zM13.45 17.25h-3a.75.75 0 0 0 0 1.5h3a.75.75 0 0 0 0-1.5zM28 22.75H8a.75.75 0 0 0-.75.75v5a.75.75 0 0 0 .75.75h20a.75.75 0 0 0 .75-.75v-5a.75.75 0 0 0-.75-.75zM27.25 26v1.75H8.75v-3.5h18.5z"/><path d="M24.6 26.29a.76.76 0 0 0 .073.127.948.948 0 0 0 .1.113.463.463 0 0 0 .11.09 1.02 1.02 0 0 0 .13.07.682.682 0 0 0 .14.045.746.746 0 0 0 .15.015.688.688 0 0 0 .14-.015.713.713 0 0 0 .14-.045 1.1 1.1 0 0 0 .132-.07.618.618 0 0 0 .118-.09.693.693 0 0 0 .09-.113.91.91 0 0 0 .07-.127.888.888 0 0 0 .045-.145.7.7 0 0 0 .012-.145.746.746 0 0 0-.015-.15.682.682 0 0 0-.045-.14.922.922 0 0 0-.07-.128.687.687 0 0 0-.09-.112.618.618 0 0 0-.118-.09.975.975 0 0 0-.132-.07.736.736 0 0 0-.81.16.94.94 0 0 0-.1.112.77.77 0 0 0-.073.128.53.53 0 0 0-.04.14.925.925 0 0 0-.01.15.87.87 0 0 0 .01.145.644.644 0 0 0 .043.145zM13.45 25.25h-3a.75.75 0 0 0 0 1.5h3a.75.75 0 0 0 0-1.5zM28.75 10V7.5a.75.75 0 0 0-.75-.75H8a.75.75 0 0 0-.75.75v5a.75.75 0 0 0 .75.75h20a.75.75 0 0 0 .75-.75zm-1.5 0v1.75H8.75v-3.5h18.5z"/><path d="M24.77 10.53a.532.532 0 0 0 .11.1.57.57 0 0 0 .13.065.682.682 0 0 0 .14.045.75.75 0 0 0 .842-.448.736.736 0 0 0 .058-.292.746.746 0 0 0-.015-.15.682.682 0 0 0-.045-.14.922.922 0 0 0-.07-.128.687.687 0 0 0-.09-.112.754.754 0 0 0-.384-.2.736.736 0 0 0-.436.044.908.908 0 0 0-.13.07.463.463 0 0 0-.11.09.94.94 0 0 0-.1.112.77.77 0 0 0-.073.128.91.91 0 0 0-.036.14.826.826 0 0 0-.01.146.753.753 0 0 0 .057.287.764.764 0 0 0 .163.243zM13.45 9.25h-3a.75.75 0 0 0 0 1.5h3a.75.75 0 0 0 0-1.5zM31.69 31.21a.922.922 0 0 0-.07-.128.69.69 0 0 0-.2-.2.817.817 0 0 0-.126-.07.73.73 0 0 0-.58 0 .827.827 0 0 0-.128.07.687.687 0 0 0-.112.09.74.74 0 0 0-.22.53.7.7 0 0 0 .015.146.888.888 0 0 0 .044.145.817.817 0 0 0 .07.127.69.69 0 0 0 .2.2.922.922 0 0 0 .127.07.682.682 0 0 0 .142.044.746.746 0 0 0 .148.016.7.7 0 0 0 .145-.015.888.888 0 0 0 .145-.045.91.91 0 0 0 .127-.07.677.677 0 0 0 .2-.2.91.91 0 0 0 .07-.126.888.888 0 0 0 .044-.145.7.7 0 0 0 .016-.146.746.746 0 0 0-.015-.15.682.682 0 0 0-.04-.144zM15.4 30.75a.748.748 0 1 0 .53.217.75.75 0 0 0-.53-.217zM10.2 30.75a.748.748 0 1 0 .53.217.75.75 0 0 0-.53-.217zM18 30.75a.748.748 0 1 0 .53.217.75.75 0 0 0-.53-.217zM12.8 30.75a.748.748 0 1 0 .53.217.75.75 0 0 0-.53-.217zM7.6 30.75a.75.75 0 1 0 .528.217.75.75 0 0 0-.528-.217zM23.2 30.75a.743.743 0 1 0 .532.217.75.75 0 0 0-.532-.217zM20.6 30.75a.743.743 0 1 0 .532.217.75.75 0 0 0-.532-.217zM25.8 30.75a.748.748 0 1 0 .53.217.75.75 0 0 0-.53-.217zM28.4 30.75a.748.748 0 1 0 .53.217.75.75 0 0 0-.53-.217zM5.53 30.97a.754.754 0 0 0-.384-.2.736.736 0 0 0-.436.044.827.827 0 0 0-.128.07.7.7 0 0 0-.2.2.827.827 0 0 0-.07.127.682.682 0 0 0-.044.142.746.746 0 0 0-.015.15.7.7 0 0 0 .015.144.888.888 0 0 0 .045.145.817.817 0 0 0 .07.128.69.69 0 0 0 .2.2.922.922 0 0 0 .127.07.86.86 0 0 0 .145.044.693.693 0 0 0 .145.018.73.73 0 0 0 .148-.015.69.69 0 0 0 .142-.045.91.91 0 0 0 .127-.07.677.677 0 0 0 .2-.2.91.91 0 0 0 .07-.126.888.888 0 0 0 .044-.145.7.7 0 0 0 .02-.15.753.753 0 0 0-.22-.53zM5 6.2a.755.755 0 1 0 .53.22A.75.75 0 0 0 5 6.2zM5 28.3a.748.748 0 1 0 .53.217A.75.75 0 0 0 5 28.3zM5 16.02a.748.748 0 1 0 .53.217.75.75 0 0 0-.53-.217zM5 23.39a.748.748 0 0 0-.75.75.734.734 0 0 0 .22.524.756.756 0 0 0 1.06 0 .734.734 0 0 0 .22-.524.748.748 0 0 0-.75-.75zM5 13.57a.748.748 0 0 0-.75.75.734.734 0 0 0 .22.524.756.756 0 0 0 1.06 0 .734.734 0 0 0 .22-.524.748.748 0 0 0-.75-.75zM5 18.48a.75.75 0 0 0-.75.75.73.73 0 0 0 .22.523.753.753 0 0 0 1.06 0 .73.73 0 0 0 .22-.523.75.75 0 0 0-.75-.75zM5 25.84a.755.755 0 1 0 .53.22.75.75 0 0 0-.53-.22zM5 8.66a.748.748 0 0 0-.75.75.734.734 0 0 0 .22.524.756.756 0 0 0 1.06 0 .734.734 0 0 0 .22-.524.748.748 0 0 0-.75-.75zM5 11.11a.755.755 0 1 0 .53.22.75.75 0 0 0-.53-.22zM5 20.93a.755.755 0 1 0 .53.22.75.75 0 0 0-.53-.22zM5.53 3.97A.73.73 0 0 0 5 3.76a.742.742 0 0 0-.7 1.027.764.764 0 0 0 .163.243.753.753 0 0 0 .537.22.7.7 0 0 0 .145-.015.888.888 0 0 0 .145-.045.526.526 0 0 0 .127-.065.85.85 0 0 0 .113-.095.745.745 0 0 0 .162-.243.75.75 0 0 0-.162-.817zM7.6 5.25a.755.755 0 1 0-.53-.22.746.746 0 0 0 .53.22zM10.2 5.25a.748.748 0 1 0-.533-.22.75.75 0 0 0 .533.22zM12.8 5.25a.755.755 0 1 0-.53-.22.75.75 0 0 0 .53.22zM15.4 5.25a.748.748 0 1 0-.533-.22.75.75 0 0 0 .533.22zM18 5.25a.755.755 0 1 0-.53-.22.75.75 0 0 0 .53.22zM23.2 5.25a.748.748 0 1 0-.533-.22.75.75 0 0 0 .533.22zM20.6 5.25a.755.755 0 1 0-.53-.22.746.746 0 0 0 .53.22zM28.4 3.75a.755.755 0 1 0 .53.22.748.748 0 0 0-.53-.22zM25.8 5.25a.755.755 0 1 0-.53-.22.75.75 0 0 0 .53.22zM30.47 5.03a.753.753 0 0 0 .53.22.7.7 0 0 0 .145-.015.888.888 0 0 0 .145-.045.526.526 0 0 0 .127-.065.85.85 0 0 0 .113-.095.745.745 0 0 0 .162-.243.75.75 0 0 0-.162-.817.774.774 0 0 0-1.06 0 .748.748 0 0 0 0 1.06zM31 18.48a.75.75 0 1 0 .53.218.745.745 0 0 0-.53-.218zM31 16.02a.744.744 0 0 0-.533.222.766.766 0 0 0-.217.538.734.734 0 0 0 .217.524.76.76 0 0 0 1.062 0 .734.734 0 0 0 .22-.524.765.765 0 0 0-.22-.538.747.747 0 0 0-.53-.222zM31 20.93a.744.744 0 0 0-.533.222.766.766 0 0 0-.217.538.73.73 0 0 0 .217.523.758.758 0 0 0 1.062 0 .73.73 0 0 0 .22-.523.765.765 0 0 0-.22-.538.747.747 0 0 0-.53-.222zM31 13.57a.748.748 0 1 0 .53.217.748.748 0 0 0-.53-.217zM31 6.2a.744.744 0 0 0-.533.222.766.766 0 0 0-.217.538.73.73 0 0 0 .217.523.758.758 0 0 0 1.062 0 .73.73 0 0 0 .22-.523.765.765 0 0 0-.22-.538A.747.747 0 0 0 31 6.2zM31 8.66a.755.755 0 1 0 .53.22.748.748 0 0 0-.53-.22zM31 23.39a.755.755 0 1 0 .53.22.748.748 0 0 0-.53-.22zM31 28.3a.748.748 0 1 0 .53.217.748.748 0 0 0-.53-.217zM31 11.11a.744.744 0 0 0-.533.222.766.766 0 0 0-.217.538.734.734 0 0 0 .217.524.76.76 0 0 0 1.062 0 .734.734 0 0 0 .22-.524.765.765 0 0 0-.22-.538.747.747 0 0 0-.53-.222zM31 25.84a.744.744 0 0 0-.533.222.766.766 0 0 0-.217.538.734.734 0 0 0 .217.524.76.76 0 0 0 1.062 0 .734.734 0 0 0 .22-.524.765.765 0 0 0-.22-.538.747.747 0 0 0-.53-.222z"/></svg>