<svg xmlns="http://www.w3.org/2000/svg" width="32" height="32" viewBox="0 0 32 32"><path d="M10.254 24.94c-.314 0-.61-.12-.832-.344l-.786-.787c-.462-.463-.467-1.22-.01-1.688l5.61-5.755.402-.416c-.095-.095-.23-.23-.42-.424L8.628 9.86c-.46-.466-.457-1.222.006-1.685l.782-.782c.448-.448 1.234-.446 1.68.005l5.62 5.69c.16.16.306.31.416.42.105-.1.247-.238.415-.404l5.76-5.66c.224-.22.522-.342.84-.342.32 0 .62.124.845.35l.61.61c.462.46.468 1.218.015 1.688l-5.575 5.776c-.176.182-.307.318-.408.42.11.11.252.257.41.416l5.628 5.704c.46.466.457 1.222-.006 1.684l-.782.782c-.45.45-1.234.446-1.68-.005L17.548 18.8c-.172-.174-.316-.318-.422-.422-.102.102-.24.243-.413.42L11.1 24.583c-.224.23-.524.357-.845.357zm5.018-9.22c.055.052.09.123.096.2.013.15.013.15-.695.876l-5.61 5.754c-.222.23-.22.6.007.826l.786.787c.215.215.59.212.802-.006l5.613-5.786c.703-.723.703-.723.854-.723.018 0 .035.002.053.005.116.02.116.02.804.718l5.66 5.728c.213.217.593.22.81.003l.78-.78c.226-.226.227-.595.004-.822l-5.628-5.703c-.762-.772-.762-.772-.682-.962.017-.04.04-.074.07-.103l.606-.627 5.575-5.776c.223-.23.22-.603-.007-.83l-.61-.61c-.217-.217-.604-.22-.822-.004l-5.76 5.66c-.714.702-.714.702-.852.702-.064 0-.127-.02-.18-.058-.026-.02-.03-.02-.665-.666l-5.62-5.69c-.216-.216-.595-.217-.81 0l-.783.78c-.225.227-.226.595-.003.822l5.59 5.666.62.625z"/></svg>