<svg xmlns="http://www.w3.org/2000/svg" viewBox="0 0 512 512"><path d="M239.7 378l-18.3-26.3c1.7-2 2.7-4.5 2.7-7.3v-75.1c0-6.2-5.1-11.3-11.3-11.3H93.2c-6.2 0-11.3 5.1-11.3 11.3v75.1c0 2.8 1.1 5.3 2.8 7.3L66.5 378c-2.8 3.8-3.3 8.1-1.6 11.6 1.8 3.5 5.6 5.5 10.4 5.5h155.5c4.8 0 8.6-2 10.4-5.5 1.8-3.5 1.2-7.9-1.5-11.6zm-148-108.7c0-.8.7-1.5 1.5-1.5h119.7c.8 0 1.5.7 1.5 1.5v75.1c0 .8-.7 1.5-1.5 1.5H93.2c-.8 0-1.5-.7-1.5-1.5v-75.1zm139.1 116H75.3c-1 0-1.5-.2-1.6-.1 0-.2.2-.8.8-1.5l19.4-27.9h118.5l19.4 28c.6.8.7 1.5.8 1.3-.2 0-.6.2-1.8.2zm-128.7-47.4H204c1.3 0 2.4-1.1 2.4-2.4v-57.1c0-1.4-1.1-2.4-2.4-2.4H102.1c-1.4 0-2.4 1.1-2.4 2.4v57.1c0 1.3 1.1 2.4 2.4 2.4zm2.5-57.1h97V333h-97v-52.2zm105 88.4c1.4 0 2.4 1.1 2.4 2.4 0 1.4-1.1 2.4-2.4 2.4H96.5c-1.4 0-2.4-1.1-2.4-2.4 0-1.3 1.1-2.4 2.4-2.4h113.1zm232.8 8.8l-18.3-26.3c1.7-2 2.7-4.5 2.7-7.3v-75.1c0-6.2-5.1-11.3-11.3-11.3H295.9c-6.2 0-11.3 5.1-11.3 11.3v75.1c0 2.8 1.1 5.3 2.8 7.3L269.2 378c-2.8 3.8-3.3 8.1-1.6 11.6 1.8 3.5 5.6 5.5 10.4 5.5h155.5c4.8 0 8.6-2 10.4-5.5 1.8-3.5 1.2-7.9-1.5-11.6zm-148-108.7c0-.8.7-1.5 1.5-1.5h119.7c.8 0 1.5.7 1.5 1.5v75.1c0 .8-.7 1.5-1.5 1.5H295.9c-.8 0-1.5-.7-1.5-1.5v-75.1zm139.1 116H278c-1 0-1.5-.2-1.6-.1 0-.2.2-.8.8-1.5l19.4-27.9H415l19.4 28c.6.8.7 1.5.8 1.3-.1 0-.5.2-1.7.2zm-128.7-47.4h101.9c1.3 0 2.4-1.1 2.4-2.4v-57.1c0-1.4-1.1-2.4-2.4-2.4H304.8c-1.4 0-2.4 1.1-2.4 2.4v57.1c0 1.3 1.1 2.4 2.4 2.4zm2.5-57.1h97V333h-97v-52.2zm-10.6 90.9c0-1.3 1.1-2.4 2.4-2.4h113.2c1.4 0 2.4 1.1 2.4 2.4 0 1.4-1.1 2.4-2.4 2.4H299.2c-1.4 0-2.5-1.1-2.5-2.4zm63.9-164.6l-23.1-33.3c2.3-2.3 3.7-5.5 3.7-8.9V72c0-7-5.7-12.8-12.8-12.8h-148c-7 0-12.8 5.7-12.8 12.8v92.9c0 3.5 1.4 6.7 3.7 9l-23 33.1c-3.1 4.3-3.8 9.2-1.8 13.2 2 3.9 6.3 6.2 11.8 6.2h192.3c5.5 0 9.8-2.3 11.8-6.2 1.9-4 1.3-8.9-1.8-13.1zM177.4 72c0-1.7 1.3-3 3-3h148c1.7 0 3 1.3 3 3v92.9c0 1.7-1.3 3-3 3h-148c-1.7 0-3-1.3-3-3V72zm176.2 143.7c-.2.3-1.1.9-3.1.9H158.3c-2 0-3-.5-3.1-.8-.2-.3-.1-1.4 1.1-3.1l24.3-35h147.7l24.4 35.1c1 1.5 1.1 2.6.9 2.9zm-162.2-59.5h125.9c1.4 0 2.4-1.1 2.4-2.4V83.2c0-1.4-1.1-2.4-2.4-2.4H191.4c-1.4 0-2.4 1.1-2.4 2.4v70.6c0 1.3 1.1 2.4 2.4 2.4zm2.5-70.6H315v65.7H193.9V85.6zM182 190.2c0-1.4 1.1-2.4 2.4-2.4h139.9c1.4 0 2.4 1.1 2.4 2.4 0 1.3-1.1 2.4-2.4 2.4H184.5c-1.4 0-2.5-1.1-2.5-2.4zm150.8 12.5c0 1.4-1.1 2.4-2.4 2.4h-152c-1.4 0-2.4-1.1-2.4-2.4s1.1-2.4 2.4-2.4h152c1.4-.1 2.4 1 2.4 2.4z"/></svg>