<svg xmlns="http://www.w3.org/2000/svg" viewBox="0 0 36 36"><title>Icon-Red_Hat-Signage-Restroom-A-Black-RGB</title><path d="M14.75 16V6.77H15a.75.75 0 0 0 0-1.5H7a.75.75 0 0 0 0 1.5h.25V16a.75.75 0 0 0 .75.75h6a.76.76 0 0 0 .75-.75zm-1.5-.75h-4.5V6.77h4.5zM30 15.27H17a.75.75 0 0 0 0 1.5h13a.75.75 0 0 0 0-1.5zM30 18.27H10a.74.74 0 0 0-.75.75v4a.75.75 0 0 0 .75.75h2.25V31a.75.75 0 0 0 .75.75h11a.76.76 0 0 0 .75-.75v-4.29a6.12 6.12 0 0 0 5-5.69v-1.25H30a.75.75 0 0 0 0-1.5zM28.25 21A4.61 4.61 0 0 1 24 25.27a.74.74 0 0 0-.75.75v4.25h-9.5V23a.75.75 0 0 0-.75-.75h-2.25v-2.5h17.5z"/></svg>