<svg xmlns="http://www.w3.org/2000/svg" width="32" height="32" viewBox="0 0 32 32"><path d="M26.284 22.616c-.003 0-.007 0-.01.002.003 0 .007 0 .01-.002zm-9.01-.257c0-.05-.004-.1-.014-.147.01.047.015.095.015.146zm-10.27.28c.04 0 .08-.01.118-.015-.04.006-.08.015-.12.015h.003zm.362-.097c-.058.033-.118.057-.18.073.062-.016.123-.04.18-.073zm9.786-.587c.018.027.032.056.046.085-.014-.028-.028-.057-.046-.084zm8.946.684c.007 0 .014-.002.02-.003h-.05l.03.003zm-9.293 5.463c-.035.013-.07.026-.108.034.038-.008.073-.02.108-.034zm-9.927-5.48c-.02-.004-.042-.004-.062-.01.02.006.042.006.062.01zm5-3.775c.012.01.025.022.036.035-.012-.013-.025-.023-.037-.035zm-.144-.1c.014.007.028.016.042.025-.014-.01-.027-.018-.042-.026zm14.745 3.78c-.015.008-.028.018-.042.025.014-.007.027-.017.04-.025zM11.193 18.69c.017-.005.033-.007.05-.01-.017.002-.033.005-.05.01zm5.87 3.16c.027.026.05.056.072.086-.022-.03-.045-.06-.072-.087zm-5.67-3.19c-.01 0-.02.004-.03.004l.05-.002c-.007 0-.014-.003-.02-.003zm.174.022c.004 0 .008 0 .012.002-.004 0-.01 0-.012-.002zm5.65 3.396c.013.03.02.063.03.095-.01-.033-.017-.065-.03-.095zm-1.29-.075c.01-.016.016-.033.026-.048-.01.015-.017.032-.026.048zm.077-.11c.013-.015.023-.03.037-.044-.014.013-.024.03-.037.043zm-.142.262c.007-.026.014-.052.024-.077-.01.025-.016.05-.024.077zm.23-.35c.02-.014.036-.03.056-.044-.02.014-.038.03-.056.046zm10.524.613l-.037.034.037-.034zm-9.66-.658c.03.02.056.044.082.068-.027-.024-.054-.048-.083-.068zm-1.127.6c0-.05.005-.1.015-.147-.01.047-.015.096-.015.146zm.722 5.79c.03 0 .056-.004.083-.007-.028.003-.055.008-.084.008h.002zm.147-6.498c.03.006.056.017.085.026-.028-.01-.056-.02-.086-.026zm.233 6.388c-.032.02-.065.04-.1.055.034-.015.068-.035.1-.055zm-.38-6.402c.03 0 .056.005.084.008-.028-.004-.054-.008-.083-.008zm0 0c-.03 0-.057.005-.084.008.027-.003.055-.008.084-.008zm-.225.04c.026-.01.052-.02.08-.026-.03.005-.054.015-.08.025zm-.125.053c.022-.012.044-.026.068-.036-.023.01-.045.025-.067.037zm.632-.036c.028.012.053.028.078.042-.026-.015-.05-.03-.078-.042zm5.05-5.65c.007-.015.013-.03.022-.044-.01.013-.015.03-.023.043zm.074-.106c.012-.015.022-.032.036-.045-.014.014-.025.03-.037.045zm6.282.186c.012.03.02.06.028.09-.01-.03-.016-.06-.028-.09zm.042.136c.01.047.015.096.015.146 0-.05-.006-.1-.016-.146zm-6.5.144c0-.05.005-.1.015-.146-.01.047-.016.096-.016.146zm.05-.26l.007-.022c-.002.007-.003.015-.006.022zM11.558 26.452l-.038.034c.013-.01.026-.022.038-.034zm2.168-5.593c.016.003.033.005.05.01-.017-.005-.034-.008-.05-.01zm-2.5 5.79c-.004 0-.008 0-.01.002.002 0 .006 0 .01-.002zm.194-.088l-.04.026.04-.026zm1.774-5.61c.014-.01.027-.02.04-.026l-.04.025zm.38-.113c-.006 0-.013 0-.02.002h.052l-.03-.003zm-.184.023c.003 0 .007 0 .01-.002-.003.002-.007.002-.01.003zm8.763-5.085c.024-.014.046-.03.072-.04-.025.01-.048.026-.072.04zm-9.096 5.284l.037-.034c-.013.01-.025.022-.037.034zm8.99-5.212c.02-.015.036-.032.056-.045-.02.013-.037.03-.055.045zm4.534-5.492c.013.01.026.022.038.034-.012-.013-.024-.023-.037-.034zm-4.294 5.36c.025-.007.048-.017.074-.022-.025.005-.05.015-.074.023zM10.888 26.656l-.05-.01.05.01zm11.618-10.973c-.026 0-.05.005-.076.008.026-.003.05-.008.077-.008zM11.38 6.222c.014.006.027.016.04.024-.013-.008-.025-.017-.04-.025zm8.324 14.64c.004 0 .007 0 .01.002-.002 0-.006 0-.01-.002zm.166.064c.014.008.028.017.04.026-.013-.01-.026-.018-.04-.026zm.14.1l.038.035-.037-.033zm-.48-.187l-.03.003c.016 0 .033-.002.05 0-.007-.002-.014-.004-.02-.004zm-.2.03c.015-.005.032-.008.048-.01-.017.003-.033.005-.05.01zm6.77-10.7c-.01 0-.02.004-.03.004l.048-.002c-.006 0-.013-.003-.02-.003zm-6.722 1.78l-.05-.01.05.01zm6.52-1.75c.017-.005.033-.007.05-.01l-.05.01zm-9.345-5.543c.028 0 .055.005.083.008-.027-.003-.054-.008-.083-.008zM21.71 18.66h-.02c.018 0 .035.002.05.003-.01 0-.02-.004-.03-.004zM16.7 4.67c.03.006.058.017.086.027-.028-.01-.056-.022-.086-.028zm5.366 22.003c.04 0 .078-.01.117-.015-.04.006-.08.015-.12.014h.004zm-.203-7.997l.05.01-.05-.01zm.565 7.9c-.058.033-.118.058-.18.074.062-.016.122-.04.18-.074zm-.49.08c-.02-.004-.04-.003-.06-.008.02.005.04.004.06.008zm4.504-16.4c.013.006.026.016.04.024-.014-.01-.027-.018-.04-.025zm-.164-.065c.003 0 .006 0 .01.002-.004 0-.007 0-.01-.002zm-4.592-3.947l.04-.025c-.013.01-.026.018-.04.026zM19.53 11.97l.02-.003c-.018 0-.034 0-.05-.002.01 0 .02.004.03.004zm-2.696-7.256c.03.012.056.03.083.045-.027-.016-.054-.033-.083-.046zm5.236 9.338c-.058.033-.118.057-.18.073.062-.016.123-.04.18-.073zm-.49.08c-.02-.004-.04-.003-.06-.008.02.006.04.005.06.008zm.13.017c.04 0 .078-.01.118-.016-.04.006-.08.015-.12.015h.002zm-.164-7.793l.037-.034c-.013.01-.025.022-.037.034zm-1.5 5.39c-.01.012-.023.023-.036.034.013-.01.025-.02.037-.033zm-.137.11c-.014.01-.027.02-.04.026l.04-.025zm-.196.09h-.007.007zm2.502-5.793l.05.01-.05-.01zm-.336.005c.003-.002.006-.002.01-.003-.004 0-.007 0-.01.002zm.185-.026l-.02.002h.05l-.03-.003zm-.54 12.55c.003-.002.006-.002.01-.003-.003.002-.007.002-.01.003zm-10.13-4.534l.02-.003h-.05l.03.003zm.185-.024c-.004 0-.008 0-.012.002.004 0 .008 0 .012-.002zm.332-.198l-.037.034.037-.034zm-5.288-3.646l.04-.025-.04.025zm.533-.093c.017.003.033.005.05.01-.018-.005-.034-.008-.05-.01zm-.337.004c.003 0 .007 0 .01-.002-.003 0-.007 0-.01.002zm.185-.025c-.007 0-.014 0-.02.002h.05l-.03-.003zm4.77 3.868l-.04.025.04-.025zm-.53.093c-.018-.003-.035-.005-.05-.01.016.005.032.008.05.01zm5.89 13.723c-.023.03-.046.06-.072.087.026-.026.05-.056.07-.087zM16.956 4.78c.03.02.057.045.083.07-.026-.025-.053-.05-.083-.07zm.24 22.967c-.014.03-.03.06-.046.086.02-.027.033-.057.047-.086zm3.995-8.866l.037-.033c-.014.01-.026.022-.038.034zm4.755 3.74c-.017-.003-.033-.005-.05-.01.017.005.034.007.05.01zm-8.716 5.046c-.004.014-.006.03-.013.044.006-.014.01-.03.014-.044zm-6.39-21.5c.015-.006.032-.01.048-.012l-.05.01zm6.203 21.79c-.028.026-.056.05-.088.072.032-.02.06-.046.088-.072zM11.04 6.134c-.01 0-.02.003-.03.004.016 0 .033-.002.05 0-.006 0-.013-.004-.02-.004zm6.112-1.158c.022.033.04.07.058.106-.017-.037-.035-.074-.058-.106zm-.088-.107c.027.025.05.055.07.086-.02-.03-.044-.06-.07-.087zm.154.228c.037.086.057.182.057.28 0-.098-.02-.193-.057-.28zm-6.002 1.06h.01-.01zm2.72 5.716c-.06.033-.12.057-.18.073.06-.016.12-.04.18-.073zm-.49.08c-.02-.005-.04-.004-.06-.01.02.006.04.006.06.01zm7.883 6.817c.013-.007.026-.017.04-.024l-.04.025zm-7.755-6.8c.04 0 .078-.008.117-.015-.04.006-.08.015-.12.015h.003zm-2.053-5.648l.037.034-.038-.034zm-5.036 4.07c.012-.013.025-.023.037-.034-.013.01-.025.02-.037.034zm4.553 16.282l.02-.003c-.018.002-.035 0-.052 0 .01 0 .02.004.03.004zm16.94-10.868c.023.015.043.034.063.05-.02-.016-.04-.035-.062-.05zm-.122-.066c.026.01.05.026.073.04-.023-.014-.046-.03-.072-.04zm-.28-.057h-.002c.03 0 .056.005.084.008-.027-.002-.054-.007-.082-.007zm.144.015c.03.006.055.017.082.026-.027-.01-.053-.02-.082-.026zm.366.196c.018.018.033.04.05.06-.017-.02-.032-.042-.05-.06zm.088.107c.017.026.03.053.043.08-.015-.027-.027-.054-.044-.08zm-9.16-3.862c.155.09.333.138.513.138.366 0 .708-.198.89-.516l2.536-4.39c.137-.237.174-.515.103-.78s-.243-.487-.48-.625c-.157-.09-.335-.138-.515-.138-.367 0-.71.198-.892.515l-2.536 4.39c-.283.49-.114 1.122.377 1.406zm-.113-1.253l2.536-4.39c.03-.05.066-.097.107-.138l.037-.034c.032-.03.065-.054.1-.076.015-.01.028-.018.042-.025.05-.026.1-.048.155-.063l.01-.003c.05-.013.104-.02.157-.02l.02-.002c.01 0 .02.003.03.004.04 0 .08.006.12.015l.05.01c.054.017.11.037.16.067.346.2.465.642.265.987l-2.536 4.388c-.03.052-.067.098-.107.14l-.038.033c-.032.03-.066.055-.102.077-.014.01-.026.018-.04.025-.05.026-.1.048-.155.063h-.007c-.05.014-.105.02-.158.022-.006 0-.013.003-.02.003-.01 0-.02-.004-.03-.004-.04-.002-.08-.007-.12-.016l-.05-.01c-.055-.017-.11-.037-.16-.067-.346-.2-.465-.64-.265-.987zM6.245 12.208l4.39 2.536c.23.133.493.203.76.203.54 0 1.046-.292 1.316-.76.203-.35.258-.76.153-1.153-.06-.22-.17-.418-.313-.587.073.062.15.12.234.17.24.138.515.21.792.21.276 0 .548-.072.788-.21.49-.283.767-.79.785-1.32.14.234.337.434.58.574.253.146.534.22.82.222.906 0 1.643-.737 1.643-1.642V5.38c0-.906-.735-1.642-1.64-1.642-.907 0-1.643.737-1.643 1.642v5.018l-2.502-4.332c-.28-.487-.806-.79-1.37-.79-.275 0-.55.072-.79.21-.754.437-1.014 1.406-.58 2.16l2.536 4.39c.046.08.102.155.162.227-.066-.055-.136-.108-.212-.152l-4.39-2.534c-.23-.134-.493-.204-.76-.204-.54 0-1.045.29-1.316.76-.203.35-.258.76-.153 1.152s.356.72.708.924zM15.83 5.38c0-.4.323-.722.722-.722.03 0 .057.005.084.008.02.002.042.002.062.006.03.006.058.017.086.027.016.005.034.008.05.014.03.012.056.03.083.045.013.007.028.012.04.02.03.02.057.045.083.07.007.006.017.012.024.02.027.025.05.055.07.086l.018.02c.022.033.04.07.058.106.002.006.006.01.01.016.036.086.056.182.056.28v5.07c0 .4-.325.723-.724.724-.13 0-.254-.036-.36-.096-.217-.125-.362-.36-.362-.626l.002-5.07zm-5.416 1.838c-.2-.346-.08-.787.265-.987.05-.03.105-.05.16-.065.016-.005.032-.008.048-.01.04-.01.08-.015.12-.017.01 0 .02-.004.032-.004l.02.002c.053.002.105.007.156.02.003 0 .006 0 .01.002.053.014.105.037.153.063l.04.026c.036.022.07.048.1.076.013.01.026.022.038.034.04.042.077.087.108.14l2.534 4.39c.2.346.08.788-.265.987-.058.033-.118.057-.18.073-.02.006-.042.005-.064.008-.038.006-.077.015-.116.015h-.004c-.042 0-.083-.01-.125-.018-.02-.004-.04-.003-.06-.008-.06-.016-.12-.04-.174-.07-.106-.063-.198-.15-.263-.265l-2.535-4.39zM6.38 10.53c.03-.052.066-.098.107-.14l.037-.033c.032-.03.065-.054.1-.076l.042-.024c.05-.026.1-.048.154-.063.003 0 .007 0 .01-.002.05-.012.103-.018.155-.02l.02-.002c.01 0 .02.004.03.004.04.002.08.007.12.016l.05.01c.055.017.11.038.16.067l4.39 2.536c.345.2.463.642.263.988-.03.052-.067.098-.108.14l-.037.033c-.032.03-.065.055-.1.077-.015.008-.028.018-.042.025-.048.026-.1.048-.153.062-.004 0-.008 0-.012.002-.05.013-.102.018-.154.02-.006 0-.013.003-.02.003-.01 0-.02-.005-.03-.005-.04-.002-.08-.007-.12-.016-.018-.005-.035-.007-.05-.012-.055-.016-.11-.036-.16-.066l-4.39-2.536c-.346-.2-.465-.642-.265-.987zM4.8 17.667c.22.127.47.195.728.195h5.07c.805 0 1.46-.655 1.458-1.46 0-.802-.654-1.456-1.458-1.456h-5.07c-.803 0-1.457.652-1.458 1.456 0 .52.28 1.004.73 1.264zm.727-1.985h5.07c.398 0 .722.324.722.723 0 .4-.325.722-.723.723h-5.07c-.13 0-.254-.036-.36-.098-.217-.124-.363-.358-.363-.626 0-.4.324-.722.723-.722zm7.078 3.003c-.248-.43-.712-.7-1.21-.7-.245 0-.486.065-.698.188l-4.39 2.534c-.323.186-.555.488-.65.848-.097.36-.047.737.138 1.06.124.214.3.39.513.512.21.12.452.187.698.187.244 0 .486-.065.697-.187l4.39-2.534c.667-.385.896-1.24.512-1.908zm-.85 1.323l-4.39 2.534c-.057.033-.117.057-.178.073-.022.006-.043.005-.065.01-.04.005-.078.014-.117.014L7 22.637c-.04 0-.082-.01-.122-.016-.02-.004-.042-.004-.062-.01-.06-.015-.12-.04-.173-.07-.107-.062-.198-.15-.264-.265-.2-.346-.083-.788.264-.987l4.39-2.534c.05-.03.106-.05.16-.066.017-.005.033-.007.05-.01.04-.01.08-.015.12-.016.01 0 .02-.004.03-.004.008 0 .015.002.022.003.052.002.103.007.154.02.004 0 .008 0 .012.002.054.014.105.037.154.062l.042.026c.035.022.07.047.1.075.013.01.025.022.037.035.04.04.077.086.107.138.2.347.08.79-.265.99zm-1.383 7.1c.202.117.433.18.667.18.475 0 .918-.257 1.157-.67l2.535-4.39c.178-.308.226-.668.134-1.013-.093-.345-.313-.633-.622-.81-.203-.118-.434-.18-.667-.18-.477 0-.92.257-1.158.67l-2.536 4.388c-.368.64-.15 1.458.49 1.825zm.042-1.518l2.535-4.39c.03-.05.066-.097.107-.138l.037-.034c.032-.03.065-.054.1-.076.015-.008.028-.018.042-.025.05-.026.1-.048.154-.063.003 0 .007 0 .01-.002.05-.013.103-.02.155-.02.007 0 .014-.003.02-.003l.03.003c.04.002.082.007.122.016.016.003.033.005.05.01.054.016.108.037.16.066.345.2.463.642.264.988l-2.534 4.39c-.03.05-.068.097-.108.138l-.038.034c-.03.03-.065.054-.1.076l-.042.026c-.05.026-.1.048-.154.063-.003.002-.007.002-.01.003-.05.013-.103.02-.155.02-.008 0-.015.003-.02.003-.01 0-.02-.004-.032-.004-.04-.002-.08-.007-.12-.016l-.05-.01c-.053-.017-.108-.038-.16-.067-.344-.2-.462-.642-.262-.988zm6.14-4.504c-.704 0-1.275.57-1.276 1.273v5.07c-.002.452.242.876.637 1.103.192.11.412.17.636.17.703 0 1.275-.57 1.275-1.273v-5.07c0-.34-.13-.66-.37-.9-.24-.242-.56-.375-.9-.375zm.72 6.343c0 .082-.017.16-.043.236-.004.014-.006.03-.013.044l-.02.037c-.014.03-.03.06-.046.086-.004.007-.01.013-.016.02-.022.03-.045.06-.07.087l-.02.016c-.028.026-.056.05-.088.072-.007.005-.015.007-.022.012-.032.02-.065.04-.1.055-.01.004-.02.005-.03.008-.034.013-.07.026-.107.034-.02.004-.04.004-.062.006-.028.003-.055.008-.083.008-.132 0-.255-.034-.362-.096-.216-.124-.362-.358-.362-.626v-5.07c0-.05.006-.098.016-.146.004-.02.012-.04.018-.058.007-.026.014-.052.024-.077.01-.026.027-.05.04-.075.01-.016.017-.033.027-.048.015-.022.034-.042.05-.062.014-.015.024-.03.038-.044.017-.016.036-.03.053-.043.018-.015.035-.032.055-.045l.054-.03c.022-.013.044-.027.068-.037.018-.008.038-.01.057-.018.026-.01.052-.02.08-.025.02-.004.04-.004.06-.006.028-.003.055-.008.083-.008h.002c.03 0 .055.005.083.008.02.002.042.002.062.006.03.006.057.017.086.026l.05.016c.028.012.053.028.078.042l.045.024c.03.02.056.044.082.068l.024.02c.028.027.05.057.073.087l.016.02c.017.027.03.056.045.085.006.013.015.025.02.038.013.03.02.063.03.095.004.015.01.027.012.04.01.048.015.097.015.147l-.002 5.07zm3.74-.87c.105.182.258.335.44.44.187.11.397.164.61.164.21 0 .42-.056.605-.163.278-.16.48-.42.564-.734s.04-.64-.12-.92l-2.534-4.39c-.216-.375-.62-.608-1.052-.608-.21 0-.42.056-.605.162-.58.335-.778 1.08-.444 1.658l2.533 4.39zm-1.845-5.625c.05-.03.105-.05.16-.066.016-.006.032-.01.048-.012.04-.008.08-.014.12-.016.01 0 .02-.004.03-.004.007 0 .014.002.02.003.052.003.105.008.155.02l.01.003c.055.014.106.036.155.062l.04.026c.036.023.07.048.102.077.013.01.025.022.037.034.04.043.077.088.108.14l2.534 4.39c.2.346.08.787-.266.986-.058.033-.118.058-.18.074-.02.006-.043.005-.065.01-.04.005-.08.014-.118.014h-.003c-.044 0-.085-.01-.127-.018-.02-.004-.04-.003-.06-.008-.06-.016-.118-.04-.172-.07-.106-.063-.198-.152-.263-.265l-2.534-4.39c-.2-.346-.082-.788.264-.988zm3.116-2.55c-.175-.102-.374-.155-.575-.155-.41 0-.792.22-.997.576-.154.265-.196.576-.116.873.08.297.27.545.536.7l4.39 2.535c.175.1.374.154.575.154.41 0 .793-.222.998-.577.317-.55.13-1.254-.42-1.573l-4.39-2.536zm4.44 3.894c-.03.05-.068.097-.11.138-.01.013-.023.023-.036.034-.032.03-.065.054-.1.076-.015.01-.028.018-.042.025-.05.026-.1.048-.154.063-.003 0-.007 0-.01.002-.05.013-.103.02-.156.02-.006 0-.013.003-.02.003l-.03-.003c-.04-.002-.08-.007-.12-.016-.018-.003-.034-.005-.05-.01-.054-.016-.11-.036-.16-.066l-4.39-2.537c-.347-.2-.465-.642-.264-.987.03-.052.067-.097.107-.14l.038-.033c.032-.03.065-.054.1-.076l.042-.024c.05-.026.1-.048.154-.063.003 0 .006 0 .01-.002.05-.012.103-.018.156-.02h.02l.03.003c.04.002.08.007.12.016.017.003.033.005.05.01.055.016.11.036.16.066l4.39 2.536c.344.2.463.642.263.987zm-4.22-6.966c-.6 0-1.09.49-1.09 1.09.002.39.21.75.547.945.165.094.353.145.544.145h5.07c.6 0 1.09-.49 1.09-1.09 0-.6-.49-1.09-1.09-1.09h-5.072zm5.072.37c.028 0 .055.005.082.007.02.003.042.003.062.007.03.006.055.017.082.026.018.006.037.01.054.017.026.01.05.026.073.04.018.01.035.017.05.027.022.015.042.034.062.05.015.014.03.024.045.038.018.018.033.04.05.06.012.015.027.03.038.046.017.026.03.053.043.08.007.015.017.028.024.044.012.03.02.06.028.09l.014.046c.01.047.015.096.015.146 0 .4-.326.722-.723.723l-5.07-.002c-.13 0-.254-.035-.36-.097-.216-.124-.362-.358-.362-.625 0-.05.005-.1.015-.146.008-.04.02-.078.035-.115l.007-.022c.012-.028.028-.054.043-.08.008-.014.014-.03.023-.043.015-.022.034-.042.05-.062.014-.015.024-.032.038-.045.016-.016.035-.03.052-.043.018-.015.035-.032.055-.045l.05-.028c.025-.014.047-.03.073-.04l.06-.018c.026-.01.05-.02.075-.024.023-.005.047-.005.07-.007.026-.004.05-.01.076-.01l5.07.002h.003zm-6.893-2.53c-.073.273-.036.558.106.803.094.16.228.295.39.388.16.093.343.142.53.142.184 0 .367-.05.528-.142l4.39-2.534c.246-.14.42-.37.494-.644.073-.273.035-.558-.107-.803-.187-.326-.54-.53-.918-.53-.185 0-.368.05-.53.142l-4.39 2.534c-.244.14-.42.37-.493.643zm.662-.353l4.39-2.533c.052-.03.107-.05.16-.066l.05-.01c.04-.01.08-.014.12-.016.01 0 .02-.004.03-.004.007 0 .014.002.02.003.054.002.107.007.158.02.003 0 .006 0 .01.002.053.014.105.037.154.063l.04.025c.036.022.07.047.1.076.014.01.026.02.038.033.04.042.077.087.107.14.2.345.082.786-.264.986l-4.39 2.533c-.057.033-.118.057-.18.073-.02.006-.042.005-.063.008-.04.006-.078.015-.118.015h-.004c-.042 0-.083-.01-.125-.018-.02-.004-.04-.003-.06-.008-.06-.017-.12-.04-.173-.072-.107-.06-.2-.15-.264-.264-.2-.346-.082-.787.264-.987z"/></svg>