<svg xmlns="http://www.w3.org/2000/svg" viewBox="0 0 32 32"><path d="M24.86 24.87l-3.72-7.81c-.01-.02-.02-.03-.04-.05l.06-.29c.03-.16.21-.36.37-.41l1.44-.47c.42-.14.65-.59.51-1.01l-.47-1.44c-.05-.15.01-.41.11-.54l1.01-1.13c.29-.33.27-.83-.06-1.13l-1.12-1.02c-.12-.11-.2-.36-.17-.52l.31-1.48c.09-.43-.19-.86-.62-.95l-1.48-.32c-.16-.03-.36-.21-.41-.37l-.47-1.44c-.11-.33-.41-.55-.76-.55-.08 0-.17.01-.25.04l-1.44.47c-.15.05-.42-.01-.54-.11l-1.13-1.01c-.31-.28-.85-.25-1.13.06l-1.02 1.12c-.11.12-.37.2-.52.17l-1.48-.31c-.4-.07-.83.21-.92.63l-.32 1.48c-.03.16-.21.36-.37.41l-1.43.47c-.42.14-.65.59-.51 1.01l.47 1.44c.05.15-.01.41-.11.54l-1.01 1.13c-.29.33-.27.83.06 1.13l1.12 1.02c.12.11.2.36.17.52l-.31 1.48c-.09.43.19.86.62.95l1.48.32c.07.02.16.07.23.13l-3.82 7.86c-.14.28-.28.56-.09.79.18.22.5.14.71.09l2.91-.49c.1-.02.22-.04.27-.04.03.04.08.13.11.17l1.7 2.86c.14.28.32.56.62.56.34 0 .52-.36.58-.5l2.04-4.14 2.03 4.13c.11.22.26.53.55.53.28 0 .43-.29.54-.52l1.8-2.86c.04-.06.12-.17.12-.17.03-.01.14.01.24.03l3.05.29c.22.03.45.07.59-.13.12-.2 0-.43-.1-.62zm-13.97-8.58l-1.48-.32c-.1-.02-.16-.12-.14-.22l.31-1.48c.08-.37-.07-.85-.36-1.1L8.1 12.15c-.07-.07-.08-.19-.01-.27l1.01-1.13c.25-.28.36-.77.24-1.13l-.47-1.44c-.03-.1.02-.2.12-.24l1.44-.47c.36-.12.7-.49.77-.86l.32-1.48c.02-.1.12-.17.22-.14l1.48.31c.37.08.85-.08 1.1-.36l1.02-1.12c.05-.05.11-.06.14-.06.05 0 .09.02.12.05l1.13 1.01c.2.18.51.29.81.29.12 0 .22-.02.32-.05l1.44-.47c.09-.03.2.03.24.12l.47 1.44c.12.36.49.7.86.78l1.48.32c.1.02.17.12.14.22l-.31 1.48c-.08.37.08.85.36 1.1l1.12 1.02c.08.07.08.19.01.27l-1.01 1.13c-.25.28-.36.77-.24 1.13l.47 1.44c.03.1-.02.2-.12.24l-1.44.47c-.36.12-.7.49-.78.86l-.32 1.48c-.02.1-.12.17-.22.14l-1.48-.31c-.37-.08-.85.08-1.1.36l-1.01 1.12c-.05.05-.11.06-.14.06-.05 0-.09-.02-.12-.05l-1.13-1.01c-.2-.18-.51-.29-.81-.29-.12 0-.22.02-.32.05l-1.44.47c-.1.03-.2-.03-.24-.12l-.47-1.44c-.02-.07-.06-.14-.1-.2-.02-.07-.06-.12-.11-.16-.17-.21-.41-.37-.65-.42zm2.55 11.77c-.01.03-.03.05-.04.08-.02-.04-.05-.09-.08-.16l-1.71-2.88c-.28-.49-.45-.52-1-.43l-2.88.48 3.6-7.41.32.97c.11.33.41.55.76.55.08 0 .17-.01.24-.04l1.44-.47c.14-.05.42.01.54.11l1.13 1.01c.15.13.34.2.53.2.23 0 .44-.1.59-.26l1.01-1.12c.05-.06.14-.1.23-.13l-4.68 9.5zm8.04-3.32l-.08-.01c-.53-.08-.65-.03-.96.41l-1.81 2.89c-.01.01-.01.02-.02.03v.01l-2.23-4.56 2.42-4.91 1.12.24c.42.09.86-.19.95-.62l.05-.24L24.25 25l-2.77-.26zm-5.45-7.86c3 0 5.44-2.44 5.44-5.44S19.03 6 16.03 6c-3 0-5.44 2.44-5.44 5.44 0 3 2.44 5.44 5.44 5.44zm0-10.42c2.74 0 4.98 2.23 4.98 4.98s-2.23 4.98-4.98 4.98-4.98-2.23-4.98-4.98c0-2.74 2.23-4.98 4.98-4.98zm0 9.52c2.5 0 4.54-2.04 4.54-4.54S18.53 6.9 16.03 6.9s-4.54 2.04-4.54 4.54 2.03 4.54 4.54 4.54zm0-8.7c2.29 0 4.16 1.87 4.16 4.16s-1.87 4.16-4.16 4.16-4.16-1.86-4.16-4.16 1.86-4.16 4.16-4.16z"/></svg>