<svg xmlns="http://www.w3.org/2000/svg" width="32" height="32" viewBox="0 0 32 32"><path d="M7.86 20.604c-.592 0-1.073.48-1.073 1.073s.48 1.072 1.072 1.072c.59 0 1.07-.482 1.07-1.073 0-.59-.48-1.073-1.07-1.073zm0 1.815c-.41 0-.743-.334-.743-.743s.333-.742.742-.742.74.333.74.742-.332.742-.74.742zm16.783-1.816c-.592 0-1.072.48-1.072 1.073s.482 1.072 1.073 1.072c.59 0 1.072-.482 1.072-1.073 0-.59-.48-1.073-1.072-1.073zm0 1.815c-.41 0-.742-.334-.742-.743s.334-.742.743-.742.742.333.742.742-.333.742-.742.742zm5.763-6.07l-.21-.315c-.458-1.608-.998-2.704-1.014-2.735-.36-.88-.976-1.073-1.225-1.115l-.446-.486c-.95-1.065-2.846-1.25-2.928-1.25-.127 0-.23.102-.23.23v7.39h-.415V8.238c0-.127-.103-.23-.23-.23H2.557c-.127 0-.23.103-.23.23V18.75H1.97c-.31 0-.56.25-.56.56v.264c0 .34.22.56.56.56h4.167c-.368.41-.594.95-.594 1.543 0 1.277 1.04 2.316 2.316 2.316s2.316-1.04 2.316-2.316c0-.25-.04-.49-.115-.717h5.5v.374c0 .434.353.787.787.787h4.55c.435 0 .788-.352.788-.786v-.374h.757c-.074.226-.115.466-.115.717 0 1.277 1.04 2.316 2.316 2.316s2.316-1.04 2.316-2.316c0-.25-.042-.49-.116-.717h.582c.093.38.08.67.08.677-.004.064.02.126.062.173.043.047.104.074.168.074h2.05c.59 0 .805-.507.805-.847v-4.12c0-.323-.122-.498-.185-.566zm-6.93-7.883v10.217H2.787v-2.98H16.98l-.206 1.08c-.036.283-.008.363.172.482.074.05.276.142.56-.07l4.03-3.334c.046-.04.073-.098.073-.16s-.03-.12-.075-.158l-4.04-3.342c-.273-.206-.476-.114-.55-.064-.182.12-.2.288-.172.487l.197 1.182H2.785v-3.34h20.69zm-6.067 3.54c.003-.02.005-.042.002-.065l-.234-1.406c-.002-.015-.007-.033-.014-.048.01.002.037.008.078.04l3.838 3.176-3.83 3.17c-.05.038-.08.044-.08.048l-.006-.004c.007-.017.012-.035.014-.053l.237-1.327c.008-.058-.01-.118-.05-.162-.04-.044-.096-.08-.154-.08H2.788v-3.053h14.41c.12 0 .215-.097.215-.216 0-.006-.003-.01-.003-.016zm-9.55 11.49c-1.005 0-1.822-.816-1.822-1.82s.817-1.822 1.82-1.822c1.005 0 1.822.817 1.822 1.822 0 1.004-.817 1.82-1.82 1.82zM21.3 20.502v.835c0 .223-.182.404-.404.404h-4.55c-.224 0-.405-.182-.405-.405v-.9c0-.224.182-.405.404-.405h4.55c.223 0 .405.182.405.404v.067zm3.34 2.998c-1.003 0-1.82-.817-1.82-1.82 0-1.005.817-1.823 1.82-1.823s1.822.817 1.822 1.822c0 1.004-.817 1.82-1.82 1.82zm1.993-2.997c-.403-.68-1.144-1.14-1.992-1.14s-1.588.46-1.992 1.14h-.965v-.066c0-.434-.353-.787-.787-.787h-4.55c-.435 0-.788.354-.788.787v.067H9.85c-.402-.68-1.143-1.14-1.99-1.14-.476 0-.918.145-1.285.39H1.97c-.155 0-.177-.084-.177-.176v-.264c0-.098.08-.177.177-.177h.534c.018.004.034.01.053.01h21.15c.127 0 .23-.102.23-.23v-.382h.415v.35c0 .126.102.23.23.23h.536c.774 0 1.343.342 1.75.778.18.194.308.406.4.613h-.634zm3.496-1.663l-.44-.153v-.536h.44v.69zm0-.996h-.593c-.085 0-.153.07-.153.154v.74c0 .01.004.02.006.03-.014.074.025.15.098.174l.644.223v1.877c0 .065-.017.387-.345.387H27.97c-.014-.424-.143-1.23-.758-1.893-.496-.534-1.185-.88-2.094-.88h-.306v-7.732c.514.03 1.757.476 2.365 1.098l.498.543c.042.045.102.072.165.073.006 0 .58.02.922.855.006.01.552 1.122 1 2.706.006.023.017.045.03.065l.242.362c.012.018.017.025.032.038.003.003.063.072.063.256v.924zm-.645 2.737h-.996c-.086 0-.154.07-.154.153s.07.153.153.153h.995c.085 0 .153-.07.153-.153s-.068-.153-.153-.153zm-1.15-.537c0 .085.07.153.154.153h.995c.085 0 .153-.07.153-.153s-.07-.153-.153-.153h-.996c-.086 0-.154.07-.154.153zm.833-3.606v-.697c0-.02-.004-.04-.01-.058l-.16-.38v-.515c0-.463-.287-.513-.412-.513h-.016l-.45-1.083c-.024-.057-.077-.094-.137-.096l-1.83.002-.038-.002c-.17 0-.34.11-.34.358v2.14c0 .054.028.103.073.13l2.35.843c.024.015.052.023.08.023h.738c.085 0 .154-.07.154-.153zm-.788-.916v-.942l.206.002c.04 0 .106 0 .106.206v.535c0 .013 0 .025-.002.037-.008.166-.068.17-.105.17l-.206.002v-.01zm.48.763h-.54l-2.24-.773v-2.055c0-.036.008-.047.008-.047l.038-.004 1.746-.004.368.88c-.166.04-.166.194-.166.31v.933c0 .09 0 .15.03.205.058.112.176.112.22.112l.263-.004c.065 0 .173-.015.263-.094l.012.027v.514z"/></svg>