<svg xmlns="http://www.w3.org/2000/svg" viewBox="0 0 32 32"><path d="M25.1 9.36H6.9c-.67 0-1.21.54-1.21 1.21v8.71c0 .67.54 1.21 1.21 1.21h11.14c.21.65.98 2.15 3.56 2.15h.65l-.36-.54c0-.01-.42-.64-.3-1.15.05-.19.16-.34.35-.46h3.17c.67 0 1.21-.54 1.21-1.21v-8.71c-.01-.67-.55-1.21-1.22-1.21zm.53 9.92c0 .29-.23.52-.52.52h-3.35l-.08.04c-.41.22-.67.54-.76.94-.1.4-.01.81.11 1.13-2.13-.23-2.37-1.75-2.38-1.82l-.04-.3H6.9c-.29 0-.52-.23-.52-.52v-8.71c0-.29.23-.52.52-.52h18.2c.29 0 .52.23.52.52l.01 8.72zm-2.29-7.03H8.66c-.14 0-.26.11-.26.26 0 .14.12.26.26.26h14.68c.14 0 .26-.12.26-.26s-.12-.26-.26-.26zm0 1.68H8.66c-.14 0-.26.12-.26.26s.12.26.26.26h14.68c.14 0 .26-.11.26-.26 0-.14-.12-.26-.26-.26zm0 1.59H8.66c-.14 0-.26.11-.26.26s.12.26.26.26h14.68c.14 0 .26-.12.26-.26s-.12-.26-.26-.26zm0 1.68H8.66c-.14 0-.26.12-.26.26s.12.26.26.26h14.68c.14 0 .26-.11.26-.26 0-.14-.12-.26-.26-.26z"/></svg>