<svg xmlns="http://www.w3.org/2000/svg" viewBox="0 0 31.68 31.68"><path d="M5.58 20.47c-.17-.02-.32.1-.34.27-.04.29-.04.47-.04.48 0 .17.13.31.3.31.17 0 .3-.13.3-.3 0 0 0-.16.03-.42.03-.17-.09-.32-.25-.34zM21.92 21.92c-.25.13-.51.23-.79.31-.16.05-.26.21-.21.38.04.13.16.22.29.22.03 0 .06 0 .08-.01.32-.09.62-.21.9-.35.15-.08.21-.26.13-.41-.06-.15-.25-.21-.4-.14zM16.92 14.06c.06.07.14.1.23.1.07 0 .14-.03.2-.08.13-.11.14-.3.03-.43-.19-.21-.35-.44-.48-.69-.08-.15-.26-.2-.41-.13-.15.08-.2.26-.13.41.15.3.34.57.56.82zM17.1 22.13c-.16-.04-.33.05-.38.21-.04.16.05.33.21.38.29.08.6.15.92.19h.05c.15 0 .28-.11.3-.26.03-.17-.09-.32-.26-.35-.29-.03-.57-.09-.84-.17zM20 22.42c-.29.02-.6.01-.88 0h-.01c-.16 0-.3.13-.3.29-.01.17.12.31.29.32.17.01.35.01.54.01.14 0 .27 0 .4-.01.17-.01.3-.15.29-.32-.01-.17-.16-.3-.33-.29zM15.32 21.26c-.13-.1-.32-.08-.43.05-.1.13-.08.32.05.43.25.2.52.37.81.52.04.02.09.03.14.03.11 0 .22-.06.27-.16.08-.15.02-.33-.13-.41-.25-.13-.49-.28-.71-.46zM22.81 16.19c.05.04.12.06.18.06.09 0 .19-.04.25-.13.1-.14.07-.33-.07-.43-.26-.19-.55-.35-.86-.47-.15-.06-.33.01-.4.17-.06.16.01.33.17.4.26.11.51.24.73.4zM16.19 10.75c-.17-.01-.31.12-.32.29 0 .08-.01.16-.01.24 0 .24.02.49.07.74.03.15.16.25.3.25.02 0 .04 0 .06-.01.17-.03.28-.19.24-.35-.04-.21-.06-.42-.06-.63 0-.07 0-.14.01-.21 0-.16-.12-.31-.29-.32zM17.11 8.87c-.13-.11-.32-.09-.43.05-.21.26-.38.54-.51.85-.07.15 0 .33.16.4.04.02.08.03.12.03.12 0 .23-.07.28-.18.11-.25.25-.49.43-.71.1-.14.08-.33-.05-.44zM20.98 15.5h.04c.15 0 .28-.11.3-.26.02-.17-.09-.32-.26-.35-.3-.04-.62-.07-.95-.07-.17 0-.3.14-.3.3 0 .17.13.31.3.31.31.01.6.03.87.07zM17.83 8.62c.06 0 .11-.01.16-.05.23-.14.49-.27.76-.37.16-.06.24-.23.18-.39s-.23-.24-.39-.18c-.31.12-.61.26-.87.43-.14.09-.19.28-.1.42.06.08.15.14.26.14zM18.83 15.26c.03.01.06.01.08.01.13 0 .25-.09.29-.22.05-.16-.05-.33-.21-.38-.27-.08-.53-.19-.77-.32-.15-.08-.33-.03-.42.11-.08.15-.03.33.11.42.3.16.61.29.92.38zM12.38 17.9c-.13.11-.15.3-.04.43.16.19.32.41.51.71.06.09.16.14.26.14.06 0 .11-.02.16-.05.14-.09.18-.28.09-.42-.21-.32-.38-.56-.55-.77-.11-.13-.3-.14-.43-.04zM6.29 18.48c-.15-.08-.33-.02-.41.13-.14.27-.27.57-.37.89-.05.16.04.33.2.38.03.01.06.01.09.01.13 0 .25-.08.29-.21.09-.28.2-.55.33-.79.08-.15.02-.33-.13-.41zM13.58 19.65c-.14.09-.18.28-.09.42.19.3.37.54.55.77.06.07.15.11.24.11.07 0 .13-.02.19-.07.13-.11.15-.3.05-.43-.17-.21-.33-.43-.51-.71-.1-.14-.29-.18-.43-.09zM23.4 20.65c-.16.23-.34.44-.55.64-.12.11-.13.31-.02.43.06.06.14.1.22.1.07 0 .15-.03.21-.08.24-.22.46-.47.64-.74.1-.14.06-.33-.08-.42-.13-.11-.32-.07-.42.07zM24.36 18.54c-.17-.01-.31.12-.32.29-.02.28-.07.55-.15.82-.05.16.04.33.2.38.03.01.06.01.09.01.13 0 .25-.08.29-.22.1-.32.16-.64.17-.97.02-.16-.11-.3-.28-.31zM24.2 17.95c.03 0 .06 0 .09-.01.16-.05.25-.22.2-.38-.1-.32-.24-.62-.42-.9-.09-.14-.28-.18-.42-.09-.14.09-.18.28-.09.42.15.23.27.48.35.75.04.12.16.21.29.21zM10.93 16.69c-.16-.05-.33.05-.38.21-.05.16.05.33.21.38.28.08.52.19.75.33.05.03.1.04.16.04.1 0 .2-.05.26-.15.09-.14.04-.33-.1-.42-.27-.17-.57-.3-.9-.39zM7.45 16.97c-.29.16-.56.35-.8.59-.12.12-.12.31-.01.43.06.06.14.09.22.09.08 0 .15-.03.21-.09.2-.19.42-.36.66-.49.15-.08.2-.26.12-.41s-.25-.2-.4-.12zM8.7 16.56c-.17.03-.28.18-.25.35.02.15.15.26.3.26h.05c.27-.04.57-.06.85-.05.15 0 .31-.13.31-.3 0-.17-.13-.31-.3-.31-.32-.02-.66 0-.96.05zM19.88 7.91h.04c.14-.02.29-.03.44-.05.17-.01.29-.16.28-.33-.01-.17-.15-.29-.33-.28-.16.01-.32.03-.47.05-.17.02-.28.18-.26.34.02.16.15.27.3.27z"/><path d="M21.48 7.48l-1.77 1.77c-.12.12-.12.31 0 .43.06.06.14.09.22.09s.16-.03.22-.09l1.77-1.77 1.77 1.77c.06.06.14.09.22.09s.16-.03.22-.09c.12-.12.12-.31 0-.43l-1.77-1.77 1.77-1.77c.12-.12.12-.31 0-.43s-.31-.12-.43 0l-1.77 1.77-1.77-1.77c-.12-.12-.31-.12-.43 0s-.12.31 0 .43l1.75 1.77zM26.79 15.64H24.4v-3.81h1.57c.08 0 .15-.07.15-.15 0-.08-.07-.15-.15-.15H24.4v-1.02c0-.08-.07-.15-.15-.15s-.15.07-.15.15v1.02h-3.86v-.9c0-.08-.07-.15-.15-.15s-.15.07-.15.15v.9h-2.65c-.08 0-.15.07-.15.15 0 .08.07.15.15.15h2.65v2.22c0 .08.07.15.15.15s.15-.07.15-.15v-2.22h3.86v3.98c0 .08.07.15.15.15.02 0 .04 0 .06-.01h2.48c.08 0 .15-.07.15-.15 0-.1-.07-.16-.15-.16zM26.02 19.85h-.82c-.08 0-.15.07-.15.15s.07.15.15.15h.83c.08 0 .15-.07.15-.15s-.07-.15-.16-.15zM22.95 24.02h-2.83v-.22c0-.08-.07-.15-.15-.15-.08 0-.15.07-.15.15v.22h-3.8v-.94c0-.08-.07-.15-.15-.15-.08 0-.15.07-.15.15v.94H11.9v-3.86h.72c.08 0 .15-.07.15-.15s-.07-.15-.15-.15h-.72v-1.38c0-.08-.07-.15-.15-.15-.08 0-.15.07-.15.15v1.38H7.74v-1.31c0-.08-.07-.15-.15-.15-.08 0-.15.07-.15.15v1.31h-.87c-.08 0-.15.07-.15.15s.07.15.15.15h.86v2.95c0 .08.07.15.15.15.08 0 .15-.07.15-.15v-2.95h3.86v3.86H8.75c-.08 0-.15.07-.15.15s.07.15.15.15h2.84V26c0 .08.07.15.15.15.08 0 .15-.07.15-.15v-1.68h3.81v2.49c0 .08.07.15.15.15.08 0 .15-.07.15-.15v-2.49h3.8v1.73c0 .08.07.15.15.15.08 0 .15-.07.15-.15v-1.73h2.83c.08 0 .15-.07.15-.15s-.04-.15-.13-.15z"/><path d="M7.43 16.14c0 .08.07.15.15.15.08 0 .15-.07.15-.15v-.2h3.86v.36c0 .08.07.15.15.15.08 0 .15-.07.15-.15v-.36h3.81v3.91h-.72c-.08 0-.15.07-.15.15s.07.15.15.15h.72v.56c0 .08.07.15.15.15.08 0 .15-.07.15-.15v-.56h3.91v1.55c0 .08.07.15.15.15s.15-.07.15-.15v-1.55h2.98c.08 0 .15-.07.15-.15s-.07-.15-.15-.15h-2.98v-3.63c0-.08-.07-.15-.15-.15s-.15.07-.15.15v3.63H16v-3.91h2.17c.08 0 .15-.07.15-.15 0-.08-.07-.15-.15-.15H16v-1.7c0-.08-.07-.15-.15-.15-.08 0-.15.07-.15.15v1.7h-3.8v-3.81h3.05c.08 0 .15-.07.15-.15 0-.08-.07-.15-.15-.15H11.9V7.66h3.81v.94c0 .08.07.15.15.15.08 0 .15-.07.15-.15v-.94h1.03c.08 0 .15-.07.15-.15 0-.08-.07-.15-.15-.15h-1.03V4.87c0-.08-.07-.15-.15-.15-.08 0-.15.07-.15.15v2.49H11.9V5.67c0-.08-.07-.15-.15-.15-.08 0-.15.07-.15.15v1.69H8.7c-.08 0-.15.07-.15.15 0 .08.07.15.15.15h2.9v3.86H7.74V8.7c0-.08-.07-.15-.15-.15-.08 0-.15.07-.15.15v2.82H5.76c-.08 0-.15.07-.15.15 0 .08.07.15.15.15h1.68v3.81H4.89c-.08 0-.15.07-.15.15 0 .08.07.15.15.15h2.54v.21zm.31-4.31h3.86v3.81H7.74v-3.81zM24.25 21.97c-.08 0-.15.07-.15.15v.98c0 .08.07.15.15.15s.15-.07.15-.15v-.98c0-.08-.07-.15-.15-.15z"/></svg>