<svg xmlns="http://www.w3.org/2000/svg" viewBox="0 0 32 32"><path d="M8.44 20.92c-1.66 0-3 1.35-3 3 0 1.66 1.35 3 3 3s3-1.35 3-3-1.34-3-3-3zm0 5.55c-1.4 0-2.54-1.14-2.54-2.54s1.14-2.54 2.54-2.54 2.54 1.14 2.54 2.54-1.14 2.54-2.54 2.54zm0-4.48c-1.07 0-1.94.87-1.94 1.93s.87 1.93 1.94 1.93 1.93-.87 1.93-1.93c.01-1.06-.86-1.93-1.93-1.93zm0 3.56c-.9 0-1.63-.73-1.63-1.63 0-.9.73-1.63 1.63-1.63.9 0 1.63.73 1.63 1.63 0 .9-.73 1.63-1.63 1.63zm7.57-20.47s-.01 0 0 0h-.02c-1.66 0-3 1.35-3 3s1.35 3 3 3h.02c1.66 0 3-1.35 3-3s-1.34-3-3-3zm0 5.54s-.01 0 0 0h-.02c-1.4 0-2.54-1.14-2.54-2.54s1.14-2.54 2.54-2.54h.02c1.4 0 2.54 1.14 2.54 2.54s-1.14 2.54-2.54 2.54zm0-4.48s-.01 0 0 0h-.02c-1.07 0-1.94.87-1.94 1.94s.87 1.94 1.94 1.94h.02c1.07 0 1.94-.87 1.94-1.94s-.87-1.94-1.94-1.94zm0 3.57s-.01 0 0 0h-.02c-.9 0-1.63-.73-1.63-1.63s.73-1.63 1.63-1.63h.02c.9 0 1.63.73 1.63 1.63s-.73 1.63-1.63 1.63zm0 5.03H16h-.01c-1.16 0-2.11.95-2.11 2.11s.94 2.11 2.11 2.11h.02c1.16 0 2.11-.95 2.11-2.11s-.95-2.11-2.11-2.11zm0 3.76H16h-.01c-.91 0-1.65-.74-1.65-1.65 0-.91.74-1.65 1.65-1.65h.02c.91 0 1.65.74 1.65 1.65s-.74 1.65-1.65 1.65zm0-2.69H16h-.01c-.57 0-1.04.47-1.04 1.04 0 .58.47 1.04 1.04 1.04h.02c.57 0 1.04-.47 1.04-1.04 0-.58-.47-1.04-1.04-1.04zm0 1.77H16h-.01c-.41 0-.73-.33-.73-.74s.33-.73.73-.73h.02c.41 0 .73.33.73.73 0 .41-.32.74-.73.74zm7.55 3.34c-1.66 0-3 1.35-3 3 0 1.66 1.35 3 3 3s3-1.35 3-3-1.35-3-3-3zm0 5.55c-1.4 0-2.54-1.14-2.54-2.54s1.14-2.54 2.54-2.54c1.4 0 2.54 1.14 2.54 2.54s-1.14 2.54-2.54 2.54zm0-4.48c-1.07 0-1.93.87-1.93 1.93s.87 1.93 1.93 1.93c1.07 0 1.94-.87 1.94-1.93s-.87-1.93-1.94-1.93zm0 3.56c-.9 0-1.63-.73-1.63-1.63 0-.9.73-1.63 1.63-1.63.9 0 1.63.73 1.63 1.63 0 .9-.73 1.63-1.63 1.63zm3.61-3.51c-.01-.02-.02-.03-.03-.04 0-.01 0-.02-.01-.03L19.77 6.53c-.01-.01-.02-.02-.02-.03 0-.02-.01-.04-.01-.07C19.09 4.95 17.63 4 16.01 4H16h-.01c-1.61 0-3.07.95-3.73 2.43-.01.02-.01.04-.01.07-.01.01-.02.02-.02.03L4.87 21.97V22c-.01.01-.02.02-.03.04-.3.58-.46 1.23-.46 1.88 0 2.24 1.83 4.07 4.07 4.07 2.13 0 3.91-1.66 4.06-3.78 0-.01 0-.02-.01-.04 0-.01.01-.01.01-.02l.98-7.81c.24-1.17 1.29-2.05 2.51-2.05h.02c1.22 0 2.27.88 2.51 2.05l.98 7.81c0 .01.01.01.01.02s-.01.02 0 .04c.15 2.12 1.93 3.78 4.06 3.78 2.24 0 4.07-1.83 4.07-4.07-.02-.65-.18-1.3-.48-1.88zm-3.61 5.34c-1.81 0-3.32-1.41-3.45-3.21 0-.01-.01-.02-.01-.03 0-.02.01-.04 0-.06l-.94-7.48v-.03c-.01-.11-.03-.22-.05-.33-.29-1.46-1.6-2.56-3.11-2.56h-.01-.01c-1.52 0-2.82 1.1-3.11 2.56-.02.11-.04.22-.05.33v.03l-.94 7.48v.06c0 .01-.01.02-.01.03-.13 1.8-1.64 3.21-3.45 3.21-1.91 0-3.46-1.55-3.46-3.46 0-.56.14-1.11.39-1.6.01-.01.01-.02.01-.03.02-.02.03-.04.04-.06L12.78 6.8c.01-.02.01-.05.02-.07.01-.01.02-.02.03-.04.55-1.26 1.8-2.07 3.16-2.07h.02c1.37 0 2.61.81 3.17 2.07.01.01.02.02.03.04.01.03.01.05.02.07l7.35 15.43c.01.02.03.04.04.06 0 .01 0 .02.01.03.26.49.39 1.04.39 1.6-.01 1.91-1.56 3.46-3.46 3.46z"/></svg>