<svg data-name="Layer 1" xmlns="http://www.w3.org/2000/svg" width="36" height="36" viewBox="0 0 36 36"><title>Icon-Red_Hat-Hardware-Virtual_Server_Stack_Secured-A-Black-RGB</title><path d="M9.45 17.25h3a.75.75 0 0 0 0-1.5h-3a.75.75 0 0 0 0 1.5zm17.55-4H7a.76.76 0 0 0-.75.75v5a.76.76 0 0 0 .75.75h20a.76.76 0 0 0 .75-.75v-5a.76.76 0 0 0-.75-.75zm-.75 5H7.75v-3.5h18.5zM27.75 6a.76.76 0 0 0-.75-.75H7a.76.76 0 0 0-.75.75v5a.76.76 0 0 0 .75.75h20a.76.76 0 0 0 .75-.75zm-1.5 4.25H7.75v-3.5h18.5zM23.77 17a.73.73 0 0 0 .53.22.71.71 0 0 0 .28-.06.67.67 0 0 0 .24-.16.66.66 0 0 0 .17-.24.73.73 0 0 0-.17-.82.67.67 0 0 0-.24-.16.73.73 0 0 0-.81.16.76.76 0 0 0-.23.53.72.72 0 0 0 .06.29.81.81 0 0 0 .17.24zM14.4 3.75a.75.75 0 0 0 0-1.5.75.75 0 1 0 0 1.5zm-2.6 0a.75.75 0 0 0 0-1.5.75.75 0 0 0 0 1.5zm13 0a.75.75 0 0 0 0-1.5.75.75 0 0 0 0 1.5zm-7.8 0a.75.75 0 0 0 0-1.5.75.75 0 0 0 0 1.5zm5.2 0a.75.75 0 0 0 0-1.5.75.75 0 0 0 0 1.5zm-2.6 0a.75.75 0 0 0 0-1.5.75.75 0 0 0 0 1.5zm10.4 5a.75.75 0 1 0-.75-.75.76.76 0 0 0 .75.75zm-20.8-5a.75.75 0 0 0 0-1.5.75.75 0 0 0 0 1.5zm20.8 10a.75.75 0 0 0 0-1.5.75.75 0 0 0 0 1.5zm0-7.5a.75.75 0 1 0-.75-.75.76.76 0 0 0 .75.75zm-20.55 3h3a.75.75 0 0 0 0-1.5h-3a.75.75 0 0 0 0 1.5zm20.55 7a.75.75 0 0 0 0-1.5.75.75 0 0 0 0 1.5zm-.53-12.72a.78.78 0 0 0 .24.16.73.73 0 0 0 .58 0 .74.74 0 0 0 .4-.4.75.75 0 0 0 .06-.29.72.72 0 0 0-.06-.29.78.78 0 0 0-.16-.24.75.75 0 0 0-.82-.16.78.78 0 0 0-.24.16.63.63 0 0 0-.16.24.72.72 0 0 0-.06.29.75.75 0 0 0 .06.29.63.63 0 0 0 .16.24zM30 18.75a.75.75 0 0 0 0-1.5.75.75 0 0 0 0 1.5zM23.77 9a.74.74 0 0 0 1.05 0 .66.66 0 0 0 .18-.21.73.73 0 0 0 0-.58.66.66 0 0 0-.18-.21.76.76 0 0 0-1.05 0 .81.81 0 0 0-.17.24.73.73 0 0 0 0 .58.81.81 0 0 0 .17.18zm3.63-5.25a.75.75 0 0 0 0-1.5.75.75 0 0 0 0 1.5zm2.31 19.94a.73.73 0 0 0 .58 0 .78.78 0 0 0 .24-.16.63.63 0 0 0 .16-.24.72.72 0 0 0 .06-.29.75.75 0 0 0-.22-.53.78.78 0 0 0-.24-.16.73.73 0 0 0-.58 0 .78.78 0 0 0-.24.16.75.75 0 0 0 0 1.06.78.78 0 0 0 .24.16zm.29-2.44a.75.75 0 1 0-.75-.75.76.76 0 0 0 .75.75zm0-10a.75.75 0 1 0-.75-.75.76.76 0 0 0 .75.75zm-13.5 18a.75.75 0 0 0 0 1.5.75.75 0 0 0 0-1.5zm5 0a.75.75 0 1 0 .75.75.75.75 0 0 0-.75-.75zm-7.5 0a.75.75 0 0 0 0 1.5.75.75 0 0 0 0-1.5zm5 0a.75.75 0 0 0 0 1.5.75.75 0 0 0 0-1.5zm-7.5 0a.75.75 0 0 0 0 1.5.75.75 0 0 0 0-1.5zm-2.5 0a.75.75 0 0 0 0 1.5.75.75 0 0 0 0-1.5zM6.6 3.75A.75.75 0 1 0 5.85 3a.76.76 0 0 0 .75.75zm26.64 22.54l-3-1a.79.79 0 0 0-.48 0l-3 1a.75.75 0 0 0-.51.71v3a3.75 3.75 0 0 0 7.5 0v-3a.75.75 0 0 0-.51-.71zM9.45 23.75a.75.75 0 0 0 0 1.5h3a.75.75 0 1 0 0-1.5zm-2.95 5.5a.75.75 0 1 0 .75.75.75.75 0 0 0-.75-.75zm17.79.06a.73.73 0 0 0-.58 0 .78.78 0 0 0-.24.16.75.75 0 0 0 0 1.06.78.78 0 0 0 .24.16.72.72 0 0 0 .29.06.75.75 0 0 0 .53-1.28.78.78 0 0 0-.24-.16zm.53-5.31a.67.67 0 0 0-.24-.16.73.73 0 0 0-.81.16.81.81 0 0 0-.17.24.75.75 0 0 0-.06.29.72.72 0 0 0 .23.53.78.78 0 0 0 .24.16.72.72 0 0 0 .29.06.77.77 0 0 0 .52-.22.72.72 0 0 0 .23-.53.75.75 0 0 0-.06-.29.66.66 0 0 0-.17-.24zm2.18.78a.76.76 0 0 0 .75-.75V22a.76.76 0 0 0-.75-.75H7a.76.76 0 0 0-.75.75v5a.76.76 0 0 0 .75.75h17a.75.75 0 0 0 0-1.5H7.75v-3.5h18.5V24a.76.76 0 0 0 .75.75zM4 21.89a.75.75 0 0 0 0 1.5.75.75 0 0 0 0-1.5zm0-2.46a.75.75 0 1 0 .75.75.75.75 0 0 0-.75-.75zm0 4.91a.75.75 0 1 0 .75.75.75.75 0 0 0-.75-.75zm0 2.46a.75.75 0 0 0 0 1.5.75.75 0 0 0 0-1.5zm.29-24.49a.73.73 0 0 0-.58 0 .63.63 0 0 0-.24.16.75.75 0 0 0-.22.53.72.72 0 0 0 .06.29.63.63 0 0 0 .16.24.78.78 0 0 0 .24.16.72.72 0 0 0 .29.06.75.75 0 0 0 .29-.06.74.74 0 0 0 .4-.4.72.72 0 0 0 .06-.29.75.75 0 0 0-.22-.53.63.63 0 0 0-.24-.16zm.24 27.16a.77.77 0 0 0-1.06 0 .63.63 0 0 0-.16.24.73.73 0 0 0 0 .58.74.74 0 0 0 .4.4.73.73 0 0 0 .58 0 .63.63 0 0 0 .24-.16.78.78 0 0 0 .16-.24.73.73 0 0 0 0-.58.78.78 0 0 0-.16-.24zM4 17a.75.75 0 0 0 0 1.5.75.75 0 0 0 0-1.5zM4 4.71a.74.74 0 0 0-.75.74.75.75 0 1 0 .75-.74zm0 9.81a.75.75 0 1 0 .75.75.75.75 0 0 0-.75-.75zm0-7.36a.75.75 0 0 0 0 1.5.75.75 0 0 0 0-1.5zm0 2.45a.75.75 0 1 0 .75.75.75.75 0 0 0-.75-.75zm0 2.46a.75.75 0 1 0 .75.75.75.75 0 0 0-.75-.75z"/></svg>