<svg xmlns="http://www.w3.org/2000/svg" width="32" height="32" viewBox="0 0 32 32"><path d="M16.245 10.29c2.104 0 3.816-1.712 3.816-3.816s-1.71-3.816-3.815-3.816c-2.104 0-3.816 1.712-3.816 3.816s1.71 3.816 3.815 3.816zm0-7.088c1.804 0 3.272 1.468 3.272 3.272s-1.468 3.272-3.272 3.272-3.27-1.468-3.27-3.272 1.466-3.272 3.27-3.272zm-5.122 22.736H21.51c.052 0 .094-.042.094-.095s-.042-.095-.095-.095H11.122c-.053 0-.095.042-.095.095 0 .052.042.095.095.095zM22.38 23.47l.006-.003c1.033-.804 1.99-1.766 1.99-3.35v-3.045c0-3.892-2.145-6.036-6.036-6.036h-4.19c-3.89 0-6.034 2.143-6.034 6.036v3.046c0 1.668 1.085 2.656 2.12 3.447v1.067c0 .236.106.445.27.59-.148.126-.248.31-.267.513l-1.63 1.88c-.03.035-.045.08-.045.127 0 .52.198.784.59.784h14.183c.39 0 .59-.264.59-.784 0-.044-.014-.086-.042-.12l-1.51-1.882c-.018-.207-.118-.39-.268-.518.166-.144.273-.353.273-.59v-1.16zM8.66 20.118v-3.046c0-2.505.952-5.49 5.49-5.49h4.19c4.537 0 5.49 2.985 5.49 5.49v3.046c0 1.137-.57 1.908-1.45 2.65V18.04c0-.432-.352-.784-.785-.784h-.437V15.54c0-.15-.122-.272-.273-.272s-.273.122-.273.273v1.716h-8.764V15.54c0-.15-.122-.272-.273-.272s-.273.122-.273.273v1.716h-.288c-.432 0-.782.35-.782.784v4.83c-.98-.807-1.574-1.59-1.574-2.752zm12.835-2.375c.215 0 .39.174.39.388v6.47c0 .214-.175.39-.39.39h-10.38c-.215 0-.39-.175-.39-.39v-6.47c0-.213.175-.387.39-.387h10.38zm1.907 9.973c-.013.324-.115.324-.2.324H9.286c-.083 0-.185 0-.198-.32l1.592-1.84c.03-.034.044-.077.044-.122 0-.215.175-.39.39-.39h10.38c.215 0 .39.175.39.39 0 .042.014.084.04.118l1.477 1.84zm-6.274-5.887c.018 0 .037-.007.053-.017l2.735-1.837c.043-.03.055-.09.025-.132-.03-.043-.088-.054-.132-.025l-2.734 1.834c-.044.03-.055.09-.026.132.02.028.05.042.08.042zm-6.344 4.75H21.8c.05 0 .094-.043.094-.096 0-.052-.042-.095-.094-.095H10.784c-.053 0-.096.04-.096.094 0 .053.042.095.096.095zm.843-1.957h9.36c.262 0 .474-.227.474-.508v-5.427c0-.28-.21-.506-.473-.506H16.6c.003-.013.005-.026.005-.04 0-.165-.134-.3-.3-.3-.163 0-.297.135-.297.3 0 .014.002.026.004.04h-4.385c-.262 0-.475.227-.475.506v5.427c0 .28.213.507.475.507zm-.19-5.935c0-.12.085-.222.19-.222h9.36c.103 0 .19.1.19.222v5.427c0 .122-.087.223-.19.223h-9.36c-.105 0-.19-.1-.19-.223v-5.428zm4.88 4.406c.018 0 .036-.005.052-.016l2.165-1.463c.044-.03.054-.09.025-.132s-.09-.054-.132-.025l-2.166 1.463c-.044.03-.055.09-.026.133.018.027.048.042.08.042zm-6.186 4.032c0 .053.043.095.096.095h11.94c.053 0 .095-.04.095-.094s-.04-.096-.094-.096h-11.94c-.054 0-.096.043-.096.096z"/></svg>