<svg xmlns="http://www.w3.org/2000/svg" viewBox="0 0 31.7 31.7"><path d="M15.8 11.7c-.5 0-1-.2-1.4-.6-.4-.4-.6-.9-.6-1.4 0-.5.2-1 .6-1.4.4-.4.9-.6 1.4-.6.5 0 1 .2 1.4.6.4.4.6.9.6 1.4 0 .5-.2 1-.6 1.4-.4.4-.8.6-1.4.6zm0-3.3c-.4 0-.7.1-1 .4-.3.3-.4.6-.4 1s.1.7.4 1c.6.6 1.4.6 2 0 .3-.3.4-.6.4-1s-.1-.7-.4-1c-.3-.3-.6-.4-1-.4zM17.6 23.9H14V12.1h3.6v11.8zm-2.9-.6H17V12.7h-2.4v10.6z"/><path d="M15.8 4.5C9.6 4.5 4.5 9.6 4.5 15.8c0 6.2 5.1 11.3 11.3 11.3 6.2 0 11.3-5.1 11.3-11.3.1-6.2-5-11.3-11.3-11.3zm0 22c-5.9 0-10.7-4.8-10.7-10.7 0-5.9 4.8-10.7 10.7-10.7 5.9 0 10.7 4.8 10.7 10.7 0 5.9-4.8 10.7-10.7 10.7z"/></svg>