<svg xmlns="http://www.w3.org/2000/svg" viewBox="0 0 32 32"><g fill="#010101"><path d="M7.314 12.683c.027 0 .055-.005.082-.016.185-.073.373-.15.558-.226.113-.046.168-.176.12-.29-.046-.112-.176-.167-.29-.12-.182.077-.367.152-.55.224-.115.045-.17.174-.126.288.034.088.117.14.206.14zM8.695 12.11c.03 0 .06-.007.088-.02.202-.086.388-.168.55-.24.112-.05.163-.18.114-.292-.05-.112-.18-.163-.293-.113l-.547.24c-.113.048-.164.18-.116.29.037.084.12.134.205.134zM11.57 11.452h.602c.123 0 .222-.1.222-.222 0-.123-.1-.222-.222-.222h-.6c-.124 0-.223.1-.223.222-.002.123.098.222.22.222zM10.076 11.538c.015 0 .03-.002.047-.005.15-.032.337-.054.56-.067.122-.007.216-.112.21-.235-.008-.12-.116-.218-.236-.208-.245.014-.456.04-.627.076-.12.026-.196.144-.17.264.02.104.113.176.216.176zM5.786 19.27c.123-.006.218-.11.212-.233-.003-.072-.005-.145-.005-.22v-.368c0-.124-.1-.223-.222-.223s-.22.1-.22.222v.365c0 .082 0 .163.004.242.005.12.104.212.222.212h.01zM5.77 14.88c.123 0 .222-.1.222-.22v-.195c0-.126 0-.255.01-.385.01-.122-.08-.23-.202-.24-.125-.008-.23.08-.24.203-.012.142-.014.284-.014.422v.194c.002.122.102.22.224.22zM6.375 12.628c-.206.127-.375.283-.5.463-.072.1-.048.24.053.31.04.028.083.042.128.042.07 0 .14-.033.182-.094.093-.132.215-.244.372-.34.104-.066.137-.203.072-.307-.066-.104-.203-.136-.307-.072zM6.146 19.844c-.045-.115-.174-.17-.288-.126-.114.045-.17.173-.126.288.09.232.218.426.38.577.043.04.097.06.152.06.06 0 .12-.024.163-.07.084-.09.08-.23-.01-.315-.116-.107-.204-.243-.27-.414zM5.993 15.458c0-.123-.1-.222-.222-.222s-.22.1-.22.222v.598c0 .123.1.222.22.222.124 0 .223-.1.223-.222v-.598zM5.77 16.73c-.123 0-.222.1-.222.223v.598c0 .124.1.223.222.223.123 0 .222-.1.222-.222v-.597c0-.122-.1-.222-.222-.222zM7.678 20.548h-.356c-.078 0-.152-.003-.223-.01-.12-.013-.232.075-.245.197s.076.23.198.244c.085.008.174.012.27.012h.355c.123 0 .222-.1.222-.222 0-.123-.1-.222-.222-.222zM23.35 11.98l.537.264c.032.016.065.023.098.023.082 0 .16-.045.2-.124.053-.11.01-.243-.102-.298l-.538-.264c-.11-.053-.243-.007-.297.103-.053.11-.008.243.103.297zM20.567 11.452h.6c.123 0 .222-.1.222-.222 0-.123-.1-.222-.223-.222h-.6c-.123 0-.222.1-.222.222 0 .123.1.222.222.222zM22.053 11.457c.172.01.293.044.497.135.03.013.06.02.09.02.086 0 .167-.05.204-.132.05-.112 0-.243-.112-.294-.216-.097-.392-.156-.65-.173-.12-.007-.227.085-.235.207-.01.123.084.23.206.237zM24.69 12.643c.204.104.388.198.528.272.033.018.07.026.104.026.08 0 .157-.042.197-.117.056-.11.015-.243-.094-.3-.142-.075-.328-.17-.536-.276-.11-.056-.243-.01-.3.098-.054.11-.01.243.1.298zM25.98 13.885c.018.108.112.185.22.185.01 0 .024 0 .036-.003.12-.02.203-.135.182-.256-.04-.238-.118-.453-.23-.637-.064-.104-.2-.138-.306-.074-.105.063-.138.2-.074.304.083.136.14.297.172.48zM17.568 11.452h.6c.123 0 .222-.1.222-.222 0-.123-.1-.222-.222-.222h-.6c-.123 0-.222.1-.222.222 0 .123.1.222.222.222zM14.57 11.452h.6c.123 0 .222-.1.222-.222 0-.123-.1-.222-.222-.222h-.6c-.123 0-.222.1-.222.222 0 .123.1.222.222.222zM16.07 11.452h.598c.123 0 .222-.1.222-.222 0-.123-.1-.222-.222-.222h-.6c-.122 0-.22.1-.22.222 0 .123.098.222.22.222zM19.067 11.452h.6c.123 0 .222-.1.222-.222 0-.123-.1-.222-.223-.222h-.6c-.123 0-.222.1-.222.222 0 .123.1.222.222.222zM13.07 11.452h.6c.124 0 .223-.1.223-.222 0-.123-.1-.222-.222-.222h-.6c-.122 0-.22.1-.22.222 0 .123.098.222.22.222zM26.23 17.516c-.123 0-.222.1-.222.222v.6c0 .122.1.22.222.22.123 0 .222-.1.222-.22v-.6c0-.123-.1-.222-.222-.222zM24.175 20.548h-.6c-.124 0-.223.1-.223.222 0 .123.1.222.222.222h.6c.124 0 .223-.1.223-.222 0-.123-.1-.222-.222-.222zM25.487 20.36c-.14.108-.288.172-.43.185-.12.01-.21.12-.2.242.01.115.108.202.22.202.008 0 .015 0 .022-.002.223-.02.45-.115.658-.274.097-.075.115-.214.04-.312-.074-.097-.214-.115-.31-.04zM22.673 20.548h-.6c-.123 0-.222.1-.222.222 0 .123.1.222.223.222h.6c.123 0 .222-.1.222-.222 0-.123-.1-.222-.222-.222zM26.23 16.018c-.123 0-.222.1-.222.222v.6c0 .122.1.22.222.22.123 0 .222-.1.222-.22v-.6c0-.122-.1-.222-.222-.222zM26.23 14.52c-.123 0-.222.1-.222.223v.6c0 .122.1.22.222.22.123 0 .222-.1.222-.22v-.6c0-.122-.1-.222-.222-.222zM9.18 20.548h-.6c-.124 0-.223.1-.223.222 0 .123.1.222.222.222h.6c.123 0 .222-.1.222-.222 0-.123-.1-.222-.222-.222zM21.173 20.548h-.6c-.123 0-.222.1-.222.222 0 .123.1.222.223.222h.6c.123 0 .222-.1.222-.222 0-.123-.1-.222-.222-.222zM26.23 19.014c-.123 0-.222.1-.222.222v.193c0 .093-.023.202-.066.315-.044.115.014.243.128.287.026.01.053.014.08.014.088 0 .173-.054.207-.143.063-.165.095-.325.095-.475v-.193c0-.122-.1-.22-.222-.22zM19.674 20.548h-.6c-.122 0-.22.1-.22.222 0 .123.1.222.22.222h.6c.123 0 .222-.1.222-.222 0-.123-.1-.222-.222-.222zM12.18 20.548h-.6c-.124 0-.223.1-.223.222 0 .123.1.222.222.222h.6c.122 0 .22-.1.22-.222.002-.123-.098-.222-.22-.222zM15.177 20.548h-.6c-.123 0-.222.1-.222.222 0 .123.1.222.222.222h.6c.123 0 .222-.1.222-.222 0-.123-.1-.222-.223-.222zM10.68 20.548h-.6c-.123 0-.222.1-.222.222 0 .123.1.222.222.222h.6c.123 0 .222-.1.222-.222 0-.123-.1-.222-.222-.222zM13.678 20.548h-.6c-.122 0-.22.1-.22.222 0 .123.1.222.22.222h.6c.123 0 .222-.1.222-.222 0-.123-.1-.222-.222-.222zM16.676 20.548h-.6c-.123 0-.222.1-.222.222 0 .123.1.222.222.222h.6c.123 0 .222-.1.222-.222 0-.123-.1-.222-.222-.222zM18.175 20.548h-.6c-.123 0-.222.1-.222.222 0 .123.1.222.222.222h.6c.123 0 .222-.1.222-.222 0-.123-.1-.222-.222-.222zM25.147 19.333v-5.277c0-.112-.063-.215-.163-.265l-2.778-1.394c-.04-.02-.087-.032-.133-.032H10.43c-.04 0-.08.008-.118.024l-3.24 1.395c-.11.047-.18.154-.18.272v5.277c0 .164.133.296.296.296H24.85c.165.002.297-.13.297-.295zM10.49 12.957h11.512l1.902.955H8.272l2.218-.955zm14.065 6.08H7.485v-4.532h17.07v4.532z"/><circle cx="9.072" cy="16.784" r=".438"/><circle cx="10.551" cy="16.784" r=".438"/><path d="M20.775 18.112h.933c.082 0 .148-.066.148-.148v-2.417c0-.082-.066-.148-.148-.148h-.933c-.082 0-.148.065-.148.147v2.417c0 .082.066.148.148.148zm.148-2.417h.636v2.12h-.637v-2.12zM22.602 18.112h.933c.082 0 .148-.066.148-.148v-2.417c0-.082-.066-.148-.148-.148h-.933c-.082 0-.148.065-.148.147v2.417c0 .082.066.148.148.148zm.148-2.417h.636v2.12h-.636v-2.12z"/></g></svg>