<svg xmlns="http://www.w3.org/2000/svg" viewBox="0 0 31.68 31.68"><path d="M6.93 18.03h14c.1 0 .19-.08.19-.19V11.37c0-.1-.08-.19-.19-.19h-14c-.1 0-.19.08-.19.19v6.48c0 .1.09.18.19.18zm.18-6.47h13.63v5.85H7.11v-5.85z"/><path d="M8.55 12.02c-.05 0-.09.04-.09.09v4.74c0 .05.04.09.09.09s.09-.04.09-.09v-4.74c0-.05-.04-.09-.09-.09zM10.34 12.02c-.05 0-.09.04-.09.09v4.74c0 .05.04.09.09.09s.09-.04.09-.09v-4.74c0-.05-.04-.09-.09-.09zM12.14 12.02c-.05 0-.09.04-.09.09v4.74c0 .05.04.09.09.09s.09-.04.09-.09v-4.74c0-.05-.04-.09-.09-.09zM13.93 12.05c-.05 0-.09.04-.09.09v4.74c0 .05.04.09.09.09s.09-.04.09-.09v-4.74c0-.04-.04-.09-.09-.09zM15.73 12.02c-.05 0-.09.04-.09.09v4.74c0 .05.04.09.09.09s.09-.04.09-.09v-4.74c0-.05-.04-.09-.09-.09zM17.52 12.02c-.05 0-.09.04-.09.09v4.74c0 .05.04.09.09.09s.09-.04.09-.09v-4.74c0-.05-.04-.09-.09-.09zM19.32 12.02c-.05 0-.09.04-.09.09v4.74c0 .05.04.09.09.09s.09-.04.09-.09v-4.74c0-.05-.04-.09-.09-.09z"/><path d="M29.48 15.77c-.03-.07-.1-.11-.18-.11h-6.94c-.1 0-.18.07-.19.16l-.5 2.86H6.24l-.38-1.14c-.03-.08-.1-.13-.19-.13H2.38c-.05 0-.1.02-.14.06-.04.04-.06.09-.06.14.05 1.29 2.35 3.15 3.48 3.59.02.01.05.01.07.01l20.38-.03c.07 0 .14-.04.18-.11.18-.35.12-.61.04-.77-.1-.2-.28-.33-.46-.42 1.2-.86 3.32-3.57 3.59-3.91.04-.05.05-.13.02-.2zm-4.15 3.98c-.08.03-.14.11-.13.2s.07.16.16.18c.13.02.5.13.62.36.04.09.05.19 0 .3l-20.21.04c-.99-.4-2.9-1.94-3.17-3.02h2.92l.38 1.14c.03.08.1.13.19.13h15.74c.1 0 .18-.07.19-.16l.5-2.86h6.37c-.94 1.17-2.85 3.44-3.56 3.69zM2.9 17.02h2.04c.07 0 .13-.06.13-.13v-3.14c0-.07-.06-.13-.13-.13h-1.4v-3.03c0-.07-.06-.13-.13-.13s-.13.06-.13.13v3.03h-.11c-.07 0-.13.05-.13.12l-.26 3.14c0 .04.01.07.03.1.02.02.06.04.09.04zm.39-3.14h1.52v2.87H3.05l.24-2.87z"/><path d="M5.64 20.28c0 .07.06.13.13.13h18.7c.07 0 .13-.06.13-.13s-.06-.13-.13-.13H5.77c-.08 0-.13.06-.13.13z"/></svg>