<svg data-name="lower-cost" xmlns="http://www.w3.org/2000/svg" viewBox="0 0 36 36"><title>Icon-Red_Hat-</title><path d="M20.54 9.69a8.19 8.19 0 0 1 2.34 1.09.7.7 0 0 0 .42.13.74.74 0 0 0 .62-.33.75.75 0 0 0-.2-1A9.53 9.53 0 0 0 21 8.25a.74.74 0 0 0-.93.51.75.75 0 0 0 .47.93zm2.93 8A6.12 6.12 0 0 0 19.66 16l-.66-.13V5.25a.75.75 0 0 0-1.5 0v10.29l-1-.22a4 4 0 0 1-2.26-1 2.8 2.8 0 0 1-.72-1.86 2.77 2.77 0 0 1 .14-.86 3 3 0 0 1 2.32-2 .76.76 0 0 0 .51-.93.75.75 0 0 0-.93-.52 4.58 4.58 0 0 0-3.33 3 4.26 4.26 0 0 0 .91 4.2 5.31 5.31 0 0 0 3 1.44l1.34.29v11.86l-.72-.72a.75.75 0 1 0-1.06 1.06l2 2a.73.73 0 0 0 .81.16.74.74 0 0 0 .22-.14l2-2a.75.75 0 0 0-1.06-1.06l-.72.72V17.39l.38.08a4.9 4.9 0 0 1 2.95 1.21 2.77 2.77 0 0 1 .67 1.8 2.7 2.7 0 0 1-.14.85 3 3 0 0 1-2.32 2 .76.76 0 0 0-.51.93.75.75 0 0 0 .72.55.76.76 0 0 0 .21 0 4.58 4.58 0 0 0 3.33-2.95 4.24 4.24 0 0 0 .21-1.32 4.28 4.28 0 0 0-.98-2.84zm-7.72 7a.75.75 0 0 0 .25-1.44 8.36 8.36 0 0 1-2.26-1.07 7.91 7.91 0 0 1-1-.76.75.75 0 0 0-1.06 0 .76.76 0 0 0 0 1.06 9.83 9.83 0 0 0 1.13.89 9.47 9.47 0 0 0 2.67 1.26.76.76 0 0 0 .27.08z"/></svg>