<svg xmlns="http://www.w3.org/2000/svg" width="32" height="32" viewBox="0 0 32 32"><path d="M14.703 25.367c-.546 0-1.252-.36-1.606-.817l-4.63-5.98c-.39-.502-.34-1.276.108-1.725l.63-.63c.214-.214.496-.333.793-.333.326 0 .636.146.852.4l3.304 4.022c.172.202.392.186.53-.044l7.01-11.804c.214-.358.608-.58 1.028-.58.213 0 .422.058.604.165l.625.37c.564.33.76 1.062.438 1.63l-8.16 14.402c-.293.518-.962.924-1.525.924zm-4.705-8.873c-.133 0-.26.055-.36.154l-.63.63c-.234.234-.26.654-.057.917l4.632 5.98c.24.308.763.578 1.122.578.344 0 .808-.286.992-.613l8.16-14.402c.157-.28.06-.638-.215-.8l-.624-.37c-.265-.155-.64-.057-.797.203l-7.01 11.805c-.186.31-.476.487-.796.487-.27 0-.53-.13-.727-.362l-3.304-4.022c-.1-.12-.238-.185-.386-.185z"/></svg>