<svg xmlns="http://www.w3.org/2000/svg" viewBox="0 0 36 36"><title>Icon-Red_Hat-Documents-Paper_Checklist-A-Black-RGB</title><path d="M26.75 7a.75.75 0 0 0-.75-.73H14a.63.63 0 0 0-.19 0h-.07a.66.66 0 0 0-.22.15l-4 4a.66.66 0 0 0-.15.22.14.14 0 0 0 0 .07.58.58 0 0 0 0 .19V29a.75.75 0 0 0 .75.75H26a.76.76 0 0 0 .75-.75zm-13.5 1.83v1.44h-1.44zm12 19.44h-14.5v-16.5H14a.76.76 0 0 0 .75-.75V7.77h10.5z"/><path d="M13.25 15v8a.75.75 0 0 0 .75.75h8a.76.76 0 0 0 .75-.75v-2.65a.75.75 0 0 0-1.5 0v1.92h-6.5v-6.5h4.58a.75.75 0 0 0 0-1.5H14a.74.74 0 0 0-.75.73z"/><path d="M17.2 18.49a.75.75 0 0 0-1.06 1.06l1.33 1.33a.75.75 0 0 0 1.06 0l4-4a.75.75 0 0 0-1.06-1.06L18 19.29z"/></svg>