<svg xmlns="http://www.w3.org/2000/svg" viewBox="0 0 31.68 31.68"><path d="M15.78 27.01c-.34 0-.83-.04-1.06-.05-.05 0-.08-.01-.1-.01-.21-.01-.45-.23-.53-.43-.02-.04-.07-.16-.25-2.49-.74-.18-1.45-.46-2.12-.84-.57.49-1.68 1.44-1.89 1.57-.09.06-.2.09-.31.09-.25 0-.46-.15-.48-.17l-.01-.01c-.02-.02-.6-.54-.89-.82-.24-.24-.56-.61-.71-.79-.04-.03-.06-.06-.07-.07-.14-.16-.15-.48-.07-.68.02-.05.06-.16 1.51-1.85-.52-.8-.9-1.68-1.13-2.61-.66-.05-2.21-.18-2.45-.23-.34-.08-.47-.42-.5-.62v-.02c0-.03-.05-.81-.05-1.21 0-.34.04-.83.05-1.06 0-.05.01-.08.01-.1.01-.21.23-.45.43-.53.05-.02.16-.07 2.53-.25.22-.89.58-1.73 1.08-2.5-1.42-1.65-1.46-1.76-1.48-1.81-.08-.2-.07-.52.07-.68.01-.01.03-.04.06-.07.16-.18.48-.55.72-.79.28-.28.86-.8.89-.82l.01-.01c.02-.02.23-.17.48-.17.11 0 .22.03.31.09.19.13 1.18.96 1.83 1.52.68-.39 1.41-.68 2.17-.87.18-2.39.23-2.51.25-2.56.08-.2.32-.41.53-.43.02 0 .05 0 .1-.01.23-.02.72-.05 1.06-.05.4 0 1.18.05 1.21.05H17c.19.03.54.17.61.5.05.25.18 1.82.23 2.49.76.19 1.5.48 2.18.87.64-.55 1.63-1.39 1.83-1.52.09-.06.2-.09.31-.09.25 0 .46.15.48.17l.01.01c.02.02.6.54.89.82.24.24.56.61.72.79l.06.07c.14.16.15.48.07.68-.02.05-.06.15-1.48 1.81.49.77.86 1.61 1.08 2.5 2.37.18 2.49.23 2.53.25.2.08.41.32.43.53 0 .02 0 .06.01.1.02.23.05.72.05 1.06 0 .4-.05 1.18-.05 1.21v.02c-.03.19-.17.54-.5.61-.25.05-1.79.18-2.45.23-.22.93-.6 1.81-1.13 2.61 1.45 1.7 1.49 1.81 1.51 1.85.08.2.07.52-.07.68l-.06.07c-.15.18-.47.55-.72.79-.28.28-.86.8-.89.82l-.01.01c-.02.02-.23.17-.48.17-.11 0-.22-.03-.31-.09-.21-.13-1.32-1.08-1.89-1.57-.66.37-1.38.66-2.12.84-.06.75-.17 2.19-.23 2.43-.07.34-.42.48-.61.5h-.02c-.03.02-.8.07-1.2.07zm-1.32-.64c.04.08.14.17.18.18.02 0 .05 0 .1.01.23.02.71.05 1.03.05.36 0 1.07-.04 1.17-.05.04-.01.24-.05.27-.19.04-.19.15-1.48.23-2.52l.01-.15.15-.03c.8-.18 1.56-.48 2.27-.9l.13-.07.11.09c.8.69 1.79 1.52 1.96 1.63.03.02.05.02.09.02.1 0 .2-.06.23-.08.07-.06.6-.54.86-.8.23-.23.56-.61.69-.77l.07-.08c.02-.03.03-.16 0-.25-.08-.12-.68-.85-1.55-1.87l-.1-.12.09-.13c.57-.83.97-1.76 1.19-2.75l.03-.15.15-.01c1.05-.08 2.35-.19 2.55-.23.13-.03.18-.23.19-.27.01-.1.05-.81.05-1.17 0-.32-.04-.8-.05-1.03 0-.05-.01-.08-.01-.11-.01-.04-.09-.14-.18-.18-.15-.03-1.19-.13-2.56-.24l-.15-.01-.03-.14c-.22-.95-.6-1.83-1.14-2.64l-.09-.13.1-.12c1.03-1.2 1.46-1.73 1.52-1.83.03-.09.02-.22 0-.25l-.06-.07c-.14-.16-.46-.54-.69-.77-.26-.26-.79-.73-.86-.8-.04-.03-.14-.08-.23-.08-.04 0-.06.01-.09.02-.13.09-.86.69-1.89 1.58l-.11.09-.12-.07c-.72-.43-1.5-.75-2.33-.93l-.15-.03-.01-.15c-.09-1.15-.2-2.4-.23-2.59-.03-.13-.23-.18-.27-.19-.1-.01-.81-.05-1.17-.05-.33 0-.8.04-1.03.05-.05 0-.08.01-.1.01-.04.01-.14.09-.18.18-.04.15-.13 1.18-.24 2.58l-.01.15-.15.03c-.82.19-1.61.5-2.33.93l-.12.07-.15-.05C10.47 8.1 9.74 7.5 9.61 7.41c-.03-.02-.05-.03-.09-.03-.09 0-.2.06-.23.08-.07.06-.6.54-.86.8-.24.24-.55.6-.7.77-.03.04-.05.07-.07.08-.02.03-.03.16 0 .25.06.1.49.63 1.52 1.83l.1.12-.09.13c-.54.8-.92 1.69-1.14 2.64l-.03.14-.15.01c-1.37.1-2.41.2-2.56.24-.08.04-.17.14-.18.18 0 .02 0 .05-.01.1-.02.23-.05.71-.05 1.03 0 .37.04 1.07.05 1.17.01.04.05.24.19.27.19.04 1.49.15 2.55.23l.14.01.03.15c.22.99.62 1.91 1.19 2.75l.09.13-.1.12c-.87 1.01-1.47 1.74-1.55 1.87-.03.09-.02.22 0 .25.01.01.04.04.07.08.15.17.46.54.69.77.26.26.79.73.86.8.04.03.14.08.23.08.04 0 .06-.01.09-.02.16-.11 1.16-.94 1.96-1.63l.11-.09.12.07c.71.42 1.47.72 2.27.9l.15.03.01.15c.11 1.35.21 2.36.24 2.5z"/><path d="M15.84 18.39c-1.41 0-2.55-1.14-2.55-2.55s1.14-2.55 2.55-2.55 2.55 1.14 2.55 2.55-1.14 2.55-2.55 2.55zm0-4.8c-1.24 0-2.25 1.01-2.25 2.25s1.01 2.25 2.25 2.25 2.25-1.01 2.25-2.25-1.01-2.25-2.25-2.25z"/></svg>