<svg xmlns="http://www.w3.org/2000/svg" viewBox="0 0 144 144"><path d="M106.322 68.384c0-2.457-2-4.457-4.457-4.457H54.87l47.357-9.818c2.374-.494 3.933-2.833 3.474-5.216l-.558-2.9c-.454-2.352-2.842-3.945-5.19-3.46l-58.72 12.173c-2.375.493-3.935 2.833-3.474 5.216l.56 2.898c.25 1.29 1.052 2.358 2.132 2.975-.525.732-.843 1.622-.843 2.588v28.713c0 2.458 2 4.457 4.457 4.457h57.8c1.922 0 4.458-1.106 4.458-4.457V68.384zm-5.734-1.438l-4.515 5.263H90.88l4.518-5.264h5.19zm-7.134 0L88.94 72.21h-5.52l4.512-5.263h5.522zm-7.464 0l-4.513 5.263H76.28l4.518-5.264h5.192zm-7.135 0L74.34 72.21H68.82l4.516-5.264h5.52zm-7.463 0L66.88 72.21h-5.197l4.516-5.264h5.192zm-7.136 0l-4.513 5.263H54.22l4.516-5.264h5.52zm-7.463 0L52.28 72.21h-5.193l4.513-5.263h5.193zm-11.65 5.264h-2.516v-3.826c0-.793.645-1.438 1.438-1.438h5.596l-4.516 5.264zm55.407-26.79c.098-.02.196-.03.295-.03.682 0 1.272.488 1.403 1.16l.558 2.9c.154.797-.386 1.608-1.18 1.773l-.113.024-6.153-4.752 5.19-1.076zm-7.09 1.47l6.15 4.752-5.083 1.053-6.153-4.75 5.085-1.055zm-6.988 1.448l6.153 4.75-5.408 1.122-6.15-4.75 5.405-1.122zm-7.308 1.515l6.153 4.75-5.087 1.055-6.153-4.75 5.087-1.055zm-6.988 1.45l6.152 4.75-5.405 1.12-6.155-4.75 5.408-1.12zm-7.31 1.514l6.155 4.75-5.083 1.055-6.154-4.75 5.084-1.055zm-6.985 1.45l6.156 4.75-5.41 1.122-6.15-4.752 5.405-1.122zm-7.307 1.514l6.154 4.752-5.082 1.053-6.156-4.75 5.083-1.054zm-9.36 6.482l-.56-2.898c-.155-.795.386-1.606 1.178-1.77l1.757-.364 6.155 4.75-6.83 1.416c-.782.158-1.55-.363-1.698-1.134zm62.09 34.835c0 .793-.645 1.438-1.438 1.438h-57.8c-.794 0-1.44-.645-1.44-1.438V73.683h60.677v23.414zm0-24.887h-5.286l4.414-5.146c.513.22.873.728.873 1.32v3.826z"/><path d="M78.604 84.47l-7.837-4.53c-.458-.265-.914-.398-1.353-.398-.98 0-1.967.716-1.967 2.315v9.047c0 1.6.99 2.317 1.97 2.317.438 0 .892-.133 1.35-.397l7.834-4.518c.817-.47 1.285-1.167 1.285-1.916.002-.75-.466-1.45-1.28-1.92zm-.738 2.558l-7.833 4.518c-.29.165-.495.2-.616.2-.432 0-.497-.527-.497-.843v-9.047c0-.314.065-.842.494-.842.12 0 .328.035.616.202l7.837 4.53c.34.197.544.438.544.642.002.204-.203.443-.544.64z"/></svg>