<svg xmlns="http://www.w3.org/2000/svg" viewBox="0 0 36 36"><title>Icon-Red_Hat-Documents-Paper_Blank_Stack-A-Black-RGB</title><path d="M9.32 10.71a.64.64 0 0 0 0 .07.58.58 0 0 0 0 .19V27a.76.76 0 0 0 .75.75H25a.76.76 0 0 0 .75-.75V7a.75.75 0 0 0-.75-.73H14a.63.63 0 0 0-.19 0h-.07a.66.66 0 0 0-.22.15l-4 4a.86.86 0 0 0-.2.29zm3.93-1.88v1.44h-1.44zm-2.5 2.94H14a.76.76 0 0 0 .75-.75V7.77h9.5v18.5h-13.5z"/><path d="M28.75 9a.75.75 0 1 0-1.5 0v20.27H13a.75.75 0 1 0 0 1.5h15a.76.76 0 0 0 .75-.75z"/></svg>