<svg xmlns="http://www.w3.org/2000/svg" viewBox="0 0 36 36"><title>Icon-Red_Hat-Miscellaneous-Save-A-Black</title><path d="M28.53 11.47l-4-4a.75.75 0 0 0-.53-.22h-2a.76.76 0 0 0-.75.75v5.25h-7.5V8a.76.76 0 0 0-.75-.75H8a.76.76 0 0 0-.75.75v20a.76.76 0 0 0 .75.75h20a.76.76 0 0 0 .75-.75V12a.75.75 0 0 0-.22-.53zm-1.28 15.78H8.75V8.75h3.5V14a.76.76 0 0 0 .75.75h9a.76.76 0 0 0 .75-.75V8.75h.94l3.56 3.56zM19 10.75a.76.76 0 0 0 .75-.75V8a.75.75 0 0 0-1.5 0v2a.76.76 0 0 0 .75.75zM10.25 17v8a.76.76 0 0 0 .75.75h14a.76.76 0 0 0 .75-.75v-8a.76.76 0 0 0-.75-.75H11a.76.76 0 0 0-.75.75zm1.5.75h12.5v6.5h-12.5z"/></svg>