<svg xmlns="http://www.w3.org/2000/svg" width="32" height="32" viewBox="0 0 32 32"><path d="M8.53 7.89H6.055c-2.394 0-3.713 1.32-3.713 3.715v1.99c0 1.2.815 1.798 1.603 2.377l.045.034v.542c0 .024.008.045.013.067v11.602c0 .472.253 1.262 1.94 1.262h.108c.66 0 .996-.372.996-1.106v-8.48c.018-.072.106-.11.25-.11.185 0 .235.066.248.112v8.48c0 .53.378.977.88 1.08.036.016.075.024.117.024h.107c.01 0 .02 0 .03-.002 1.267-.03 1.91-.46 1.91-1.285l-.002-11.585c.004-.02.012-.038.012-.06v-.54l.045-.034c.787-.58 1.602-1.178 1.602-2.378v-1.99c0-2.394-1.32-3.713-3.714-3.713zm1.443 20.3c0 .447-.43.662-1.35.674-.26-.012-.467-.227-.467-.49v-8.53c-.02-.234-.225-.675-.862-.675-.6 0-.844.405-.862.698v8.505c0 .42-.096.492-.383.492h-.11c-.88 0-1.325-.218-1.325-.65v-11.38c.457.215 1.265.43 2.68.43 1.413 0 2.222-.215 2.678-.432V28.19zm1.66-14.596c0 .834-.528 1.273-1.216 1.782V11.45c0-.127-.103-.23-.23-.23s-.23.103-.23.23v4.866c-.288.183-1.016.488-2.664.488-1.656 0-2.383-.31-2.67-.49V11.45c0-.127-.102-.23-.23-.23s-.23.103-.23.23v3.924c-.685-.508-1.21-.946-1.21-1.78v-1.988c0-2.057 1.044-3.1 3.1-3.1h2.478c2.058 0 3.1 1.042 3.1 3.1v1.99zm-4.34-6.268c1.324 0 2.402-1.078 2.402-2.402S8.617 2.522 7.293 2.522 4.89 3.6 4.89 4.924c0 1.325 1.08 2.402 2.403 2.402zm0-4.19c.987 0 1.79.8 1.79 1.788 0 .987-.803 1.79-1.79 1.79-.986 0-1.79-.802-1.79-1.79 0-.986.804-1.79 1.79-1.79zm17.704 4.19c1.324 0 2.402-1.078 2.402-2.402s-1.08-2.402-2.403-2.402-2.4 1.077-2.4 2.402 1.076 2.402 2.4 2.402zm0-4.19c.987 0 1.79.8 1.79 1.788s-.803 1.79-1.79 1.79c-.986 0-1.788-.803-1.788-1.79s.8-1.788 1.787-1.788zm4.66 10.167v-1.698c0-1.795-1.05-3.714-4.003-3.714H24.34c-2.953 0-4.005 1.92-4.005 3.715v1.698c0 1.24.717 1.926 1.482 2.505l-.845 5.918c-.018.126.044.25.156.31.026.016.36.195 1.018.368l.24 5.75c0 .794.217 1.323 1.28 1.323h.087c1.018 0 1.018-1.05 1.018-1.395l.002-5.35c.075 0 .148.003.227.003.095 0 .185-.002.277-.004v5.352c0 .982.454 1.288.845 1.37.038.015.08.025.123.025h.136c.014 0 .027 0 .04-.002.455-.018 1.185-.152 1.192-1.235l.24-5.832c.676-.174 1.025-.355 1.052-.37.114-.06.178-.186.16-.314l-.877-5.906.097-.087c.724-.56 1.377-1.24 1.377-2.428zm-5.5 14.78c0 .782-.223.782-.404.782h-.087c-.58 0-.668-.093-.668-.722l-.234-5.6c.39.073.854.135 1.393.167v5.373zm2.84.143c-.003.57-.23.633-.662.638-.17-.005-.446-.066-.446-.78v-5.376c.515-.034.96-.093 1.343-.164L27 28.226zm1.423-6.64c-.425.17-1.556.537-3.422.537-1.852 0-2.968-.367-3.386-.537l.955-6.694c.404.202 1.116.394 2.43.394 1.304 0 2.026-.135 2.447-.302l.975 6.6zm-.338-6.484l-.06-.404.1-3.533c.004-.127-.096-.233-.223-.236-.127.002-.234.096-.237.222l-.09 3.234c-.118.104-.337.21-.727.294-.403.086-.99.146-1.846.146-1.067 0-1.685-.127-2.053-.27-.27-.106-.405-.217-.48-.295l-.136-3.11c-.005-.127-.107-.23-.24-.22-.125.006-.224.113-.22.24l.145 3.3.002.034c0 .01.005.02.006.03-.002-.01-.006-.02-.006-.03l-.002-.036c-.002.007-.007.014-.008.022l-.087.613c-.64-.53-.97-1.014-.97-1.8v-1.7c0-1.94 1.27-3.1 3.392-3.1h1.315c2.123 0 3.39 1.16 3.39 3.1v1.7c0 .78-.338 1.275-.964 1.798zM16.3 4.222c-.17 0-.306.136-.306.305v22.805c0 .17.137.306.306.306.17 0 .306-.137.306-.306V4.527c0-.17-.137-.306-.306-.306z"/></svg>