<svg data-name="Layer 1" xmlns="http://www.w3.org/2000/svg" viewBox="0 0 36 36"><title>Icon-Red_Hat-Space_satelite-A-Black-RGB</title><path d="M22.3 22.3l1.514-1.515a.748.748 0 0 0 0-1.06l-3.714-3.72.53-.53.682-.682 1.6 1.6a.758.758 0 0 0 .248.165.75.75 0 0 0 .564 0 .758.758 0 0 0 .248-.165l2.273-2.273 1.137-1.136 3.41-3.41a.748.748 0 0 0 0-1.06l-2.126-2.122-2.122-2.12a.75.75 0 0 0-1.06 0l-3.41 3.408-3.41 3.41a.732.732 0 0 0-.162.242.75.75 0 0 0 0 .574.732.732 0 0 0 .163.243l1.583 1.583-.68.68-.532.532-3.7-3.7a.75.75 0 0 0-1.06 0l-1.517 1.515-1.52 1.51a.746.746 0 0 0-.22.53.757.757 0 0 0 .057.288.748.748 0 0 0 .163.243l3.705 3.706-.788.788-.424.424-1.584-1.583a.748.748 0 0 0-1.06 0l-3.41 3.41-3.41 3.408a.78.78 0 0 0-.163.244.753.753 0 0 0-.057.287.746.746 0 0 0 .22.53l2.122 2.12 2.12 2.123a.74.74 0 0 0 .25.164.752.752 0 0 0 .812-.163l2.273-2.273 1.136-1.137 1.136-1.136 2.273-2.272a.75.75 0 0 0 .162-.244.75.75 0 0 0 0-.573.75.75 0 0 0-.162-.243l-1.6-1.6.424-.424.788-.79 3.72 3.72a.747.747 0 0 0 .53.22.747.747 0 0 0 .53-.22zm3.712-16.44l1.59 1.59L29.2 9.044l-1.213 1.213-1.595-1.59L24.8 7.072zm-2.877 2.88l.606-.606 1.592 1.59 1.59 1.593-.605.605-.606.606-1.59-1.59-1.592-1.592zm-1.667 1.667L23.058 12l1.592 1.59-1.212 1.21-1.59-1.59-1.593-1.59zM9.043 29.2l-1.59-1.595-1.592-1.59L7.074 24.8l1.592 1.59 1.59 1.59zm2.88-2.88l-.607.607-1.59-1.595-1.592-1.59.606-.607.606-.607 1.592 1.592 1.59 1.59zM14.8 23.44l-1.21 1.212L12 23.06l-1.59-1.592 1.21-1.212 1.592 1.59zm5.454-1.213l-3.712-3.712-3.71-3.713.984-.985.985-.984 3.713 3.713 3.713 3.712-.985.984zM31.95 23.186a.748.748 0 0 0-.22-.53 6.417 6.417 0 0 0-9.075 9.074.748.748 0 0 0 1.06 0l3.477-3.477.472.472 1 1a.753.753 0 0 0 1.06 0 .752.752 0 0 0 0-1.06l-1-1-.47-.473 3.475-3.476a.747.747 0 0 0 .22-.53zm-5.288 3.476L23.226 30.1a4.918 4.918 0 0 1 6.874-6.874z"/></svg>