<svg xmlns="http://www.w3.org/2000/svg" width="32" height="32" viewBox="0 0 32 32"><path d="M24.637 17.946c-.646-9.114-7.89-8.85-7.945-8.845-4.396-.08-6.274 1.633-6.546 1.906-.273.165-.325.482-.31.67l-.163 2.143c0 .014.004.027.005.04-.983 1.64-1.136 3.328-1.156 3.97l-.048.015L5.8 19.038c-.12.054-.185.188-.15.315.095.348.468.925 1.246.925.11 0 .228-.01.354-.037.018-.003 1.762-.444 3.843-.484l5.3-.04c.23.003 5.652.106 7.868-.402.375-.067 1.01-.243 1.05-.664.03-.336-.316-.552-.676-.706zm-.48.845c-2.166.496-7.697.39-7.76.39l-5.31.042c-2.145.042-3.894.483-3.954.5-.496.1-.747-.118-.867-.302l2.298-1.025c.667.366 1.728.296 1.776.293.148-.01.26-.138.248-.286-.01-.148-.135-.255-.286-.25-.234.017-.81.012-1.246-.13-.015-.67.05-6.437 6.875-7.29.148-.018.25-.152.234-.3-.02-.145-.154-.25-.3-.232-2.788.348-4.516 1.498-5.59 2.816l.1-1.32c.003-.02.002-.037 0-.055 0 0-.01-.144.06-.178.028-.014.055-.035.077-.058.018-.018 1.77-1.853 6.194-1.765.277-.018 6.757-.25 7.395 8.28-.392.08-1.2.233-1.692.233-.148 0-.268.12-.268.268s.12.27.268.27c.625 0 1.655-.213 1.953-.278.21.085.32.15.375.194-.114.065-.354.145-.577.186zm-3.533-4.795c-.12.04-.187.168-.15.29.01.023.76 2.398.596 3.842-.07.03-.256.08-.716.08-.81 0-1.957-.012-2.438-.017v-.39c0-.127-.103-.23-.23-.23H15.28c-.127 0-.23.103-.23.23v.394c-1.02.03-2.03-.007-2.045-.007-.796-.01-1.054-.11-1.126-.152 0-1.795.475-3.165.48-3.178.042-.12-.02-.25-.14-.293-.12-.042-.252.02-.294.14-.02.06-.504 1.454-.506 3.33-.01.068-.002.154.05.237.11.17.38.363 1.524.377.012 0 1.187.04 2.294 0 .123-.005.222-.106.222-.23v-.387h1.947v.387c0 .126.1.228.227.23 0 0 1.62.018 2.67.018.657 0 1.006-.093 1.132-.302.045-.075.054-.15.045-.215.162-1.542-.584-3.903-.616-4.004-.038-.12-.168-.187-.29-.15z"/></svg>