<svg xmlns="http://www.w3.org/2000/svg" viewBox="0 0 32 32"><path d="M24.8 5.94c.04-.13-.02-.28-.15-.34l-2.72-1.33c-.04-.02-.09-.03-.13-.03H10.62c-.04 0-.08.01-.12.02L7.36 5.59c-.13.06-.2.21-.16.35-.01.02-.02.05-.02.07v21.46c0 .16.13.3.3.3h17.04c.16 0 .3-.13.3-.3v-9.81-.02V6.01c0-.03-.01-.05-.02-.07zM10.68 4.82h11.05l1.82.89H8.58l2.1-.89zm-2.9 7.6V6.31h16.45v9.3H7.78v-3.19zm16.45 14.76H7.78V15.91h16.45v11.27zm-9.05-3.57H9.21c-.08 0-.15.07-.15.15s.07.15.15.15h5.97c.08 0 .15-.07.15-.15s-.07-.15-.15-.15zm0-1.56H9.21c-.08 0-.15.07-.15.15 0 .08.07.15.15.15h5.97c.08 0 .15-.07.15-.15 0-.08-.07-.15-.15-.15zm0-1.56H9.21c-.08 0-.15.07-.15.15 0 .08.07.15.15.15h5.97c.08 0 .15-.07.15-.15 0-.08-.07-.15-.15-.15zm0-1.56H9.21c-.08 0-.15.07-.15.15 0 .08.07.15.15.15h5.97c.08 0 .15-.07.15-.15 0-.08-.07-.15-.15-.15zm-5.97-6.52h6.04c.17 0 .3-.13.3-.3 0-.16-.13-.3-.3-.3H9.21c-.16 0-.3.13-.3.3 0 .17.13.3.3.3zm0-3.51h6.04c.17 0 .3-.13.3-.3 0-.16-.13-.3-.3-.3H9.21c-.16 0-.3.13-.3.3 0 .16.13.3.3.3zm5.97 9.25H9.21c-.08 0-.15.07-.15.15 0 .08.07.15.15.15h5.97c.08 0 .15-.07.15-.15 0-.08-.07-.15-.15-.15zm7.4 5.46h-5.97c-.08 0-.15.07-.15.15s.07.15.15.15h5.97c.08 0 .15-.07.15-.15s-.07-.15-.15-.15zm0-1.56h-5.97c-.08 0-.15.07-.15.15 0 .08.07.15.15.15h5.97c.08 0 .15-.07.15-.15 0-.08-.07-.15-.15-.15zm0-1.56h-5.97c-.08 0-.15.07-.15.15 0 .08.07.15.15.15h5.97c.08 0 .15-.07.15-.15 0-.08-.07-.15-.15-.15zm0-1.56h-5.97c-.08 0-.15.07-.15.15 0 .08.07.15.15.15h5.97c.08 0 .15-.07.15-.15 0-.08-.07-.15-.15-.15zm0-.78h-5.97c-.08 0-.15.07-.15.15 0 .08.07.15.15.15h5.97c.08 0 .15-.07.15-.15 0-.08-.07-.15-.15-.15zm-7.4 6.25H9.21c-.08 0-.15.07-.15.15s.07.15.15.15h5.97c.08 0 .15-.07.15-.15s-.07-.15-.15-.15zm0-1.57H9.21c-.08 0-.15.07-.15.15 0 .08.07.15.15.15h5.97c.08 0 .15-.07.15-.15 0-.08-.07-.15-.15-.15zm0-1.56H9.21c-.08 0-.15.07-.15.15s.07.15.15.15h5.97c.08 0 .15-.07.15-.15s-.07-.15-.15-.15zm0-1.56H9.21c-.08 0-.15.07-.15.15s.07.15.15.15h5.97c.08 0 .15-.07.15-.15s-.07-.15-.15-.15zm0-2.34H9.21c-.08 0-.15.07-.15.15s.07.15.15.15h5.97c.08 0 .15-.07.15-.15s-.07-.15-.15-.15zm7.4 7.03h-5.97c-.08 0-.15.07-.15.15s.07.15.15.15h5.97c.08 0 .15-.07.15-.15s-.07-.15-.15-.15zm0-1.57h-5.97c-.08 0-.15.07-.15.15 0 .08.07.15.15.15h5.97c.08 0 .15-.07.15-.15 0-.08-.07-.15-.15-.15zm0-1.56h-5.97c-.08 0-.15.07-.15.15s.07.15.15.15h5.97c.08 0 .15-.07.15-.15s-.07-.15-.15-.15zm0-1.56h-5.97c-.08 0-.15.07-.15.15s.07.15.15.15h5.97c.08 0 .15-.07.15-.15s-.07-.15-.15-.15zm0-2.34h-5.97c-.08 0-.15.07-.15.15s.07.15.15.15h5.97c.08 0 .15-.07.15-.15s-.07-.15-.15-.15zm-13.37-3.2h6.04c.17 0 .3-.13.3-.3 0-.16-.13-.3-.3-.3H9.21c-.16 0-.3.13-.3.3 0 .16.13.3.3.3zm0-3.52h6.04c.17 0 .3-.13.3-.3 0-.16-.13-.3-.3-.3H9.21c-.16 0-.3.13-.3.3s.13.3.3.3zm7.34-2.03c0 .23.18.41.41.41s.41-.18.41-.41c0-.23-.18-.41-.41-.41-.23-.01-.41.18-.41.41 0-.01 0-.01 0 0zm1.16 0c0 .23.18.41.41.41s.41-.18.41-.41c0-.23-.18-.41-.41-.41-.23-.01-.41.18-.41.41 0-.01 0-.01 0 0zm1.15 0c0 .23.18.41.41.41.23 0 .41-.18.41-.41s-.18-.41-.41-.41c-.23 0-.41.18-.41.41zm-2.31 1.15v4.43c0 .08.07.15.15.15h5.82c.08 0 .15-.07.15-.15V9.77c0-.08-.07-.15-.15-.15H16.7c-.08.01-.15.07-.15.15zm5.82 2.42h-5.52v-.48h5.52v.48zm-5.52.3h5.52v.48h-5.52v-.48zm5.52-1.08h-5.52v-.48h5.52v.48zm-5.52 2.64v-.78h5.52v.78h-5.52zm5.52-4.13v.7h-5.52v-.7h5.52z"/></svg>