<svg data-name="Layer 1" xmlns="http://www.w3.org/2000/svg" viewBox="0 0 36 36"><title>Icon-Red_Hat-Software_and_technologies-Container_Secured-A-Black-RGB</title><path d="M21.32 26.62L16.5 29.4l-9.87-5.7V12.3l9.87-5.7 9.87 5.7v8a.75.75 0 0 0 1.5 0v-8.4a.74.74 0 0 0-.37-.65L16.88 5.09a.74.74 0 0 0-.76 0L5.5 11.22a.74.74 0 0 0-.37.65v12.26a.74.74 0 0 0 .37.65l10.62 6.13a.71.71 0 0 0 .76 0l5.19-3a.75.75 0 1 0-.75-1.29zm9-3.07l-3-1a.79.79 0 0 0-.48 0l-3 1a.77.77 0 0 0-.51.72v3a3.75 3.75 0 0 0 7.5 0v-3a.75.75 0 0 0-.47-.72z"/></svg>