<svg xmlns="http://www.w3.org/2000/svg" viewBox="0 0 31.68 31.68"><path d="M15.51 11.38l-1.32 1.31c-.07.07-.07.19 0 .26s.19.07.26 0l1.3-1.31c.07-.07.07-.19 0-.26s-.19-.07-.26 0h.02zm-.22 1.27l-1.32 1.32c-.07.07-.07.19 0 .26s.19.07.26 0l1.32-1.32c.07-.07.07-.19 0-.26-.07-.08-.19-.08-.26 0zm4.13-3.99c1.33 0 2.4-1.07 2.4-2.4 0-1.33-1.07-2.4-2.4-2.4-1.32 0-2.4 1.07-2.4 2.4 0 1.32 1.08 2.4 2.4 2.4zm0-4.19c.99 0 1.79.8 1.79 1.79s-.8 1.79-1.79 1.79-1.79-.8-1.79-1.79c.01-.99.81-1.78 1.79-1.79zm-7.97 16.16h1.28v1.31h.62v-3.12h-.62v1.2h-1.28v-1.2h-.62v3.12h.62v-1.31zm15-5.48h-2.36c.02-.14.03-.28.03-.42l-.15-1.9c-.12-1.17-.37-3.6-3.53-3.6H18.4c-1.55 0-2.4.56-2.88 1.28h-4.14c-.1 0-.19.08-.19.19v3.76h-.52c-.1 0-.19.08-.19.19v.09c0 .15.04.3.13.42H5c-.17 0-.31.14-.31.31v1.29c0 .17.14.31.31.31h1.53v8.78c0 .17.14.31.31.31h19.62c.17 0 .31-.14.31-.31v-10.4c-.01-.17-.15-.3-.32-.3zM18.4 9.83h2.04c2.62 0 2.81 1.91 2.92 3.05l.15 1.87c0 .13-.01.26-.04.39h-.97l-.17-2.6c-.03-.17-.18-.28-.35-.26-.15.02-.26.15-.26.3l.17 2.54H17.9c.08-.13.13-.27.13-.42v-.09c0-.1-.08-.19-.19-.19h-.52v-3.74c0-.1-.08-.19-.19-.19h-.8c.58-.47 1.32-.71 2.07-.66zm-6.83 1.04h5.38v3.58h-5.38v-3.58zm6.07 3.95c-.04.18-.21.31-.39.31h-5.99c-.19 0-.35-.13-.39-.31h6.77zm8.51 10.71H7.14v-8.48h19.01v8.48zm0-9.09H5.31v-.68h20.84v.68zm-5.31 4.39h.69c.15 0 .3-.02.45-.06.14-.03.26-.1.37-.18.1-.09.19-.2.24-.32.06-.15.09-.3.09-.46 0-.15-.04-.3-.1-.44-.05-.12-.13-.22-.23-.31-.1-.08-.22-.15-.34-.19-.13-.04-.27-.06-.42-.06h-1.37v3.12h.62v-1.1zm0-1.4h.72c.12-.01.24.03.33.09.08.08.13.18.12.3 0 .27-.15.4-.45.4h-.74l.02-.79zm-4.23 1.89h-1.6v-.74h.89v-.62h-.89v-.53h1.54v-.61h-2.17v3.12h2.23v-.62zm3.07 0h-1.56v-2.51h-.62v3.12h2.18v-.61z"/></svg>