<svg xmlns="http://www.w3.org/2000/svg" viewBox="0 0 32 32"><path fill="#010101" d="M29.036 17.32c-.862-1.218-2.143-2.067-3.536-2.352-.828-2.5-3.203-4.966-6.745-4.966-3.087 0-5.75 1.976-6.726 4.95-1.134-.432-2.46-.366-3.618.193-1.25.604-2.136 1.707-2.515 3.122-1.68.102-3.52 1.16-4.02 3.37-.02.09 0 .18.057.25.056.07.14.112.23.112h27.587c.145 0 .268-.105.293-.246.27-1.56-.086-3.133-1.007-4.433zm-3.814-1.8c1.308.22 2.522 1 3.33 2.143.78 1.102 1.112 2.423.945 3.743H2.553c.64-1.987 2.52-2.546 3.58-2.556.137 0 .256-.097.286-.23.3-1.343 1.1-2.387 2.25-2.942 1.087-.526 2.397-.548 3.417-.056l.097.052c.515.27.96.64 1.29 1.075.043.057.11.087.177.087.048 0 .095-.015.135-.045.098-.074.117-.213.043-.31-.338-.448-.79-.83-1.303-1.122.834-2.854 3.327-4.766 6.23-4.766 3.183 0 5.335 2.18 6.133 4.43-.592-.073-1.18-.056-1.754.063-.12.025-.197.143-.172.263.022.105.114.177.217.177.014 0 .03 0 .044-.005.605-.125 1.23-.134 1.857-.026l.142.023z"/></svg>