<svg data-name="Layer 1" xmlns="http://www.w3.org/2000/svg" width="36" height="36" viewBox="0 0 36 36"><title>Icon-Red_Hat-Hardware-Virtual_Server_Stack-A-Black-RGB</title><path d="M12.8 4.75a.75.75 0 1 0-.75-.75.76.76 0 0 0 .75.75zm2.6 0a.75.75 0 1 0-.75-.75.76.76 0 0 0 .75.75zM5 20.43a.75.75 0 0 0 0 1.5.75.75 0 0 0 0-1.5zm5.2-15.68A.75.75 0 1 0 9.45 4a.75.75 0 0 0 .75.75zm7.8 0a.75.75 0 1 0-.75-.75.76.76 0 0 0 .75.75zM5 27.8a.75.75 0 1 0 .75.75.75.75 0 0 0-.75-.75zm15.6-23a.75.75 0 1 0-.75-.8.76.76 0 0 0 .75.75zM5 22.89a.75.75 0 1 0 .75.75.75.75 0 0 0-.75-.75zm0 2.45a.75.75 0 0 0 0 1.5.75.75 0 0 0 0-1.5zM7.6 4.75A.75.75 0 1 0 6.85 4a.76.76 0 0 0 .75.75zM5.53 30.47a.75.75 0 0 0-1.22.24.73.73 0 0 0 0 .58.63.63 0 0 0 .16.24.78.78 0 0 0 .24.16.73.73 0 0 0 .58 0 .78.78 0 0 0 .24-.16.63.63 0 0 0 .16-.24.73.73 0 0 0 0-.58.63.63 0 0 0-.16-.24zM25.8 4.75a.75.75 0 1 0-.75-.75.76.76 0 0 0 .75.75zM25 18.19a.72.72 0 0 0 .29.06.77.77 0 0 0 .53-.22.75.75 0 0 0 0-1.06.82.82 0 0 0-.25-.16.71.71 0 0 0-.57 0 .78.78 0 0 0-.24.16.75.75 0 0 0 0 1.06.78.78 0 0 0 .24.16zm.29 8.06a.82.82 0 0 0 .53-.22.74.74 0 0 0 .16-.82.75.75 0 0 0-1.21-.21.81.81 0 0 0-.17.24.93.93 0 0 0-.05.29.71.71 0 0 0 .22.53.75.75 0 0 0 .53.19zm-14.85-8h3a.75.75 0 0 0 0-1.5h-3a.75.75 0 0 0 0 1.5zM30.71 4.69a.72.72 0 0 0 .29.06.75.75 0 1 0-.29-1.44.78.78 0 0 0-.24.16.75.75 0 0 0 0 1.06.78.78 0 0 0 .24.16zM5 18a.75.75 0 1 0 .75.75A.75.75 0 0 0 5 18zm23 4.27H8a.76.76 0 0 0-.75.75v5a.76.76 0 0 0 .75.75h20a.76.76 0 0 0 .75-.75V23a.76.76 0 0 0-.75-.75zm-.75 5H8.75v-3.5h18.5zM28.75 7a.76.76 0 0 0-.75-.75H8a.76.76 0 0 0-.75.75v5a.76.76 0 0 0 .75.75h20a.76.76 0 0 0 .75-.75zm-1.5 4.25H8.75v-3.5h18.5zm-16.8-1h3a.75.75 0 0 0 0-1.5h-3a.75.75 0 0 0 0 1.5zm12.75-5.5a.75.75 0 1 0-.75-.75.76.76 0 0 0 .75.75zm-12.75 21.5h3a.75.75 0 1 0 0-1.5h-3a.75.75 0 0 0 0 1.5zm14.85-16a.77.77 0 0 0 .53-.22.74.74 0 0 0 .17-.82.75.75 0 0 0-1.23-.21.81.81 0 0 0-.17.24 1 1 0 0 0-.05.29.75.75 0 0 0 .75.75zM28.75 15a.76.76 0 0 0-.75-.75H8a.76.76 0 0 0-.75.75v5a.76.76 0 0 0 .75.75h20a.76.76 0 0 0 .75-.75zm-1.5 4.25H8.75v-3.5h18.5zM5 15.52A.75.75 0 0 0 5 17a.75.75 0 0 0 0-1.5zm26 7.37a.75.75 0 0 0-.75.74.75.75 0 1 0 1.5 0 .74.74 0 0 0-.75-.74zm0 4.91a.75.75 0 0 0-.75.74.75.75 0 1 0 1.5 0 .74.74 0 0 0-.75-.74zm-2.6 2.45a.75.75 0 1 0 .75.75.76.76 0 0 0-.75-.75zm0-27a.75.75 0 1 0 .75.75.76.76 0 0 0-.75-.75zm3.13 27.22a.75.75 0 0 0-1.22.24.73.73 0 0 0 0 .58.63.63 0 0 0 .16.24.78.78 0 0 0 .24.16.72.72 0 0 0 .29.06.75.75 0 0 0 .53-.22.63.63 0 0 0 .16-.24.73.73 0 0 0 0-.58.78.78 0 0 0-.16-.24zM31 25.34a.75.75 0 1 0 .75.75.76.76 0 0 0-.75-.75zm0-14.73a.75.75 0 0 0 0 1.5.75.75 0 0 0 0-1.5zm0-2.45a.75.75 0 1 0 .75.75.75.75 0 0 0-.75-.75zM31 18a.75.75 0 1 0 .75.75A.75.75 0 0 0 31 18zm0-12.29a.75.75 0 1 0 .75.74.75.75 0 0 0-.75-.74zm0 7.36a.75.75 0 1 0 .75.75.75.75 0 0 0-.75-.75zm0 2.45A.75.75 0 0 0 31 17a.75.75 0 0 0 0-1.5zm0 4.91a.75.75 0 0 0 0 1.5.75.75 0 0 0 0-1.5zM5 5.7a.76.76 0 0 0 0 1.51.76.76 0 0 0 0-1.51zm-.53-2.23a.75.75 0 1 0 1.06 0 .77.77 0 0 0-1.06 0zM5 8.16a.75.75 0 1 0 .75.75.76.76 0 0 0-.75-.75zm0 2.45a.75.75 0 0 0 0 1.5.75.75 0 0 0 0-1.5zm2.6 19.64a.75.75 0 1 0 .75.75.76.76 0 0 0-.75-.75zM5 13.07a.75.75 0 1 0 .75.75.75.75 0 0 0-.75-.75zm20.8 17.18a.75.75 0 1 0 .75.75.76.76 0 0 0-.75-.75zm-5.2 0a.75.75 0 1 0 .75.75.76.76 0 0 0-.75-.75zm-2.6 0a.75.75 0 1 0 .75.75.76.76 0 0 0-.75-.75zm5.2 0a.75.75 0 1 0 .8.75.75.75 0 0 0-.8-.75zm-13 0a.75.75 0 1 0 .8.75.76.76 0 0 0-.8-.75zm2.6 0a.75.75 0 1 0 .75.75.76.76 0 0 0-.75-.75zm2.6 0a.75.75 0 1 0 .75.75.75.75 0 0 0-.75-.75z"/></svg>