<svg xmlns="http://www.w3.org/2000/svg" viewBox="0 0 32 32"><path d="M10.31 23.32c0 .3.26.58.68.81v.38c0 .9 2.64 1.53 5.01 1.53s5.01-.63 5.01-1.53v-.38c.42-.24.68-.51.68-.81V8.82c0-.21-.21-.6-.62-1.17-.18-.74-1.97-1.07-3.61-1.18-.14-.31-.45-.52-.81-.52h-1.29c-.36 0-.67.21-.81.52-1.74.12-3.63.48-3.63 1.3-.6.74-.6.97-.6 1.04l-.01 14.51zM16 25.58c-2.74 0-4.55-.76-4.55-1.07v-.16c1.11.44 2.87.71 4.55.71 1.69 0 3.44-.26 4.55-.71v.16c0 .31-1.81 1.07-4.55 1.07zM20.78 8.3c.16.25.29.46.3.52v14.49c-.04.15-.44.39-1.14.6-.89.28-2.26.53-3.94.53-1.68 0-3.06-.25-3.95-.53-.69-.22-1.09-.45-1.13-.6V8.85c0-.01.01-.02.01-.02.04-.09.17-.28.33-.49.31.22.8.38 1.35.49 1.43.3 3.26.31 3.39.31s1.96-.01 3.39-.31l1.39-.53zm-5.43-1.88h1.29c.22 0 .4.16.43.36l-.19.23c-.03.04-.05.09-.05.15 0 .11 0 .19-.44.19h-.79c-.44 0-.44-.08-.44-.19 0-.05-.02-.11-.05-.15l-.19-.23c.03-.21.22-.36.43-.36zm-.64.83c.02.21.12.34.24.42-.36.07-.6.17-.6.29 0 .2.73.37 1.62.37.9 0 1.62-.17 1.62-.37 0-.11-.22-.21-.56-.28.13-.08.23-.21.26-.43l.14-.16c1.81.12 2.88.47 3.04.69-.2.28-1.8.74-4.47.74s-4.26-.46-4.47-.74c.16-.22 1.23-.57 3.04-.69l.14.16zm-1.65 3.11c.11 0 .21-.08.23-.2.02-.13-.07-.24-.19-.26-.52-.07-.98-.17-1.35-.28-.12-.04-.25.03-.29.16-.03.12.03.25.16.28.4.12.87.21 1.42.29 0 .01.01.01.02.01zm7.2-.73c-.99.29-2.59.47-4.26.47-.38 0-.75-.01-1.12-.03-.11-.01-.24.09-.24.22s.09.23.22.24c.38.02.76.03 1.15.03 1.74 0 3.34-.18 4.39-.49.12-.04.19-.16.16-.29-.05-.12-.18-.19-.3-.15z"/></svg>