<svg data-name="Layer 1" xmlns="http://www.w3.org/2000/svg" viewBox="0 0 36 36"><title>Icon-Red_Hat-Objects-Megaphone-A-Black-RGB</title><path d="M30.163 7.148a.756.756 0 0 0-.583-.395.736.736 0 0 0-.358.05l-7.5 3-7.366 2.947H10.5a4.737 4.737 0 0 0-.592 9.44l.8 3 .935 3.5a.75.75 0 0 0 .725.556H14.5a.75.75 0 0 0 .75-.75v-5.888l6.472 2.592 7.5 3a.767.767 0 0 0 .137.04.747.747 0 0 0 .14.014.78.78 0 0 0 .22-.032.752.752 0 0 0 .2-.1.746.746 0 0 0 .328-.62V7.5a.758.758 0 0 0-.085-.352zM7.25 17.5a3.254 3.254 0 0 1 3.25-3.25h3.25v6.5H10.5a3.254 3.254 0 0 1-3.25-3.25zm6.5 10.25h-.8l-.86-3.222-.61-2.278h2.27v5.5zm15-10.25v8.892l-6.75-2.7-6.75-2.7v-6.984l6.75-2.7 6.75-2.7z"/></svg>