<svg data-name="Layer 1" xmlns="http://www.w3.org/2000/svg" viewBox="0 0 36 36"><title>Icon-Red_Hat-Lifecycle-A-Black-RGB</title><path d="M17.936 8.312a9.11 9.11 0 0 1 6.64 2.833l-.6-.026-1.537-.07a.7.7 0 0 0-.54.19.764.764 0 0 0-.244.526.748.748 0 0 0 .716.782l1.912.086 1.912.085H26.24a.766.766 0 0 0 .206-.03c.012 0 .023-.014.036-.02a.85.85 0 0 0 .08-.037.678.678 0 0 0 .087-.04c.016-.012.025-.03.04-.043a.557.557 0 0 0 .057-.037.722.722 0 0 0 .056-.077.582.582 0 0 0 .13-.238.886.886 0 0 0 .033-.085.542.542 0 0 0 0-.057c0-.018.012-.033.013-.052l.084-1.912.085-1.912a.748.748 0 0 0-.716-.783.7.7 0 0 0-.545.19.77.77 0 0 0-.24.526l-.067 1.537-.017.366a10.532 10.532 0 0 0-9.943-2.93 3.252 3.252 0 1 0-2.69 5.068A3.244 3.244 0 0 0 16.18 8.9a3.038 3.038 0 0 0-.04-.395 9.23 9.23 0 0 1 1.796-.193zm-3.257.605a1.73 1.73 0 0 1-.13.656 1.744 1.744 0 0 1-1.618 1.08 1.736 1.736 0 0 1-1.236-.51A1.736 1.736 0 0 1 11.18 8.9a1.74 1.74 0 0 1 .512-1.237 1.738 1.738 0 0 1 1.237-.514 1.735 1.735 0 0 1 1.1.4c.044.036.092.068.133.11a1.75 1.75 0 0 1 .518 1.24zM30.233 15.264a3.248 3.248 0 1 0-3.565 5.29 9.075 9.075 0 0 1-6.5 5.965l.325-.51.828-1.3a.75.75 0 0 0-1.264-.806l-1.03 1.614L18 27.134a.777.777 0 0 0-.03.08.75.75 0 0 0-.055.14.723.723 0 0 0-.02.155.746.746 0 0 0-.01.08.5.5 0 0 0 .014.052.56.56 0 0 0 0 .058c.006.03.025.054.035.083a.61.61 0 0 0 .135.235c.02.022.03.05.05.07s.042.022.06.036.03.034.048.046l1.617 1.03 1.614 1.03a.742.742 0 0 0 .4.118.75.75 0 0 0 .732-.912.753.753 0 0 0-.33-.47l-1.3-.83-.308-.2a10.518 10.518 0 0 0 7.51-7.152 3.237 3.237 0 0 0 2.064-5.523zm-1.06 3.536a1.745 1.745 0 1 1 .513-1.237 1.73 1.73 0 0 1-.514 1.237zM13.77 23.08a3.245 3.245 0 0 0-2.465.32 3.3 3.3 0 0 0-.322.233 9.09 9.09 0 0 1-1.91-8.665l.275.536.7 1.37a.75.75 0 0 0 .668.408.792.792 0 0 0 .173-.02.78.78 0 0 0 .167-.063.75.75 0 0 0 .326-1.01l-.873-1.7-.873-1.7a.5.5 0 0 0-.054-.068.685.685 0 0 0-.09-.116c-.015-.014-.023-.033-.038-.046a.82.82 0 0 0-.082-.046.748.748 0 0 0-.07-.055c-.018-.01-.037-.008-.054-.015s-.032-.02-.05-.027a.746.746 0 0 0-.1-.01.737.737 0 0 0-.147-.018.412.412 0 0 0-.048 0 .587.587 0 0 0-.082.023.638.638 0 0 0-.1.013c-.018.006-.032.02-.05.03s-.035.005-.052.013l-1.7.872-1.7.873a.752.752 0 0 0-.324 1.01.75.75 0 0 0 1.01.325l1.37-.7.325-.167a10.548 10.548 0 0 0 2.407 10.125 3.245 3.245 0 0 0 1.318 4.25 3.246 3.246 0 0 0 3.225-.01 3.248 3.248 0 0 0-.78-5.953zm.846 3.59a1.744 1.744 0 0 1-3.406-.734 1.687 1.687 0 0 1 .03-.173 1.742 1.742 0 0 1 .814-1.062h.013a1.745 1.745 0 0 1 1.723 0 1.746 1.746 0 0 1 .826 1.977z"/></svg>