<svg data-name="Layer 1" xmlns="http://www.w3.org/2000/svg" viewBox="0 0 36 36"><title>Icon-Red_Hat-Virtual_server-A-Black-RGB</title><path d="M8 14.75a.75.75 0 0 0-.75.75v5a.75.75 0 0 0 .75.75h20a.75.75 0 0 0 .75-.75v-5a.75.75 0 0 0-.75-.75H8zM27.25 18v1.75H8.75v-3.5h18.5zM31.53 22.97a.774.774 0 0 0-1.06 0 .74.74 0 0 0-.22.53.7.7 0 0 0 .015.145.888.888 0 0 0 .045.145.817.817 0 0 0 .07.127.693.693 0 0 0 .09.113.75.75 0 0 0 1.06 0 .693.693 0 0 0 .09-.113.91.91 0 0 0 .07-.127.888.888 0 0 0 .045-.145.7.7 0 0 0 .015-.145.753.753 0 0 0-.22-.53zM18 22.75a.755.755 0 1 0 .53.22.748.748 0 0 0-.53-.22zM20.6 22.75a.756.756 0 1 0 .528.22.75.75 0 0 0-.528-.22zM28.4 22.75a.755.755 0 1 0 .53.22.75.75 0 0 0-.53-.22zM12.8 22.75a.755.755 0 1 0 .53.22.75.75 0 0 0-.53-.22zM7.6 22.75a.756.756 0 1 0 .528.22.75.75 0 0 0-.528-.22zM25.8 22.75a.755.755 0 1 0 .53.22.75.75 0 0 0-.53-.22zM10.2 22.75a.755.755 0 1 0 .53.22.75.75 0 0 0-.53-.22zM15.4 22.75a.755.755 0 1 0 .53.22.75.75 0 0 0-.53-.22zM23.2 22.75a.755.755 0 1 0 .53.22.748.748 0 0 0-.53-.22zM5.53 22.97a.754.754 0 0 0-.384-.2.736.736 0 0 0-.436.044.827.827 0 0 0-.128.07.687.687 0 0 0-.112.09.74.74 0 0 0-.22.53.73.73 0 0 0 .015.148.69.69 0 0 0 .045.142.817.817 0 0 0 .07.127.693.693 0 0 0 .09.114.84.84 0 0 0 .112.095.532.532 0 0 0 .128.064.86.86 0 0 0 .145.045.693.693 0 0 0 .145.01.736.736 0 0 0 .287-.058.745.745 0 0 0 .243-.162.693.693 0 0 0 .09-.113.91.91 0 0 0 .07-.127.888.888 0 0 0 .045-.145.7.7 0 0 0 .015-.145.753.753 0 0 0-.22-.53zM5 14.5a.75.75 0 1 0 .532.22A.748.748 0 0 0 5 14.5zM5 20a.75.75 0 1 0 .532.22A.748.748 0 0 0 5 20zM5 17.25a.743.743 0 1 0 .532.217A.748.748 0 0 0 5 17.25zM5.53 11.97a.693.693 0 0 0-.113-.09.817.817 0 0 0-.127-.07.73.73 0 0 0-.58 0 .827.827 0 0 0-.128.07.687.687 0 0 0-.112.09.748.748 0 0 0 0 1.06.687.687 0 0 0 .112.09.922.922 0 0 0 .128.07.86.86 0 0 0 .145.045.693.693 0 0 0 .145.015.73.73 0 0 0 .148-.015.69.69 0 0 0 .142-.045.91.91 0 0 0 .127-.07.693.693 0 0 0 .113-.09.745.745 0 0 0 .162-.243.75.75 0 0 0-.162-.817zM18 13.25a.748.748 0 1 0-.533-.22.745.745 0 0 0 .533.22zM10.2 13.25a.748.748 0 1 0-.533-.22.75.75 0 0 0 .533.22zM20.6 13.25a.755.755 0 1 0-.53-.22.746.746 0 0 0 .53.22zM12.8 13.25a.755.755 0 1 0-.53-.22.75.75 0 0 0 .53.22zM15.4 13.25a.755.755 0 1 0-.53-.22.75.75 0 0 0 .53.22zM7.6 13.25a.755.755 0 1 0-.53-.22.746.746 0 0 0 .53.22zM28.4 11.75a.755.755 0 1 0 .53.22.75.75 0 0 0-.53-.22zM23.2 13.25a.748.748 0 1 0-.533-.22.75.75 0 0 0 .533.22zM25.8 13.25a.755.755 0 1 0-.53-.22.75.75 0 0 0 .53.22zM30.47 13.03a.687.687 0 0 0 .112.09.922.922 0 0 0 .128.07.86.86 0 0 0 .145.045.693.693 0 0 0 .145.015.7.7 0 0 0 .145-.015.888.888 0 0 0 .145-.045.91.91 0 0 0 .127-.07.693.693 0 0 0 .113-.09.745.745 0 0 0 .162-.243.75.75 0 0 0-.162-.817.693.693 0 0 0-.113-.09.817.817 0 0 0-.127-.07.73.73 0 0 0-.58 0 .827.827 0 0 0-.128.07.687.687 0 0 0-.112.09.748.748 0 0 0 0 1.06zM31 14.5a.75.75 0 1 0 .532.22.75.75 0 0 0-.532-.22zM31 20a.743.743 0 1 0 .532.217A.75.75 0 0 0 31 20zM31 17.25a.743.743 0 1 0 .532.217.75.75 0 0 0-.532-.217z"/><path d="M24.77 18.53a.662.662 0 0 0 .24.162.76.76 0 0 0 .29.058.736.736 0 0 0 .287-.058.745.745 0 0 0 .405-.405.736.736 0 0 0 .058-.287.693.693 0 0 0-.015-.145.86.86 0 0 0-.045-.145.922.922 0 0 0-.07-.128.687.687 0 0 0-.09-.112.774.774 0 0 0-1.06 0 .94.94 0 0 0-.1.112.77.77 0 0 0-.073.128 1.18 1.18 0 0 0-.036.145.767.767 0 0 0-.01.145.753.753 0 0 0 .057.287.764.764 0 0 0 .163.243zM13.45 17.25h-3a.75.75 0 0 0 0 1.5h3a.75.75 0 0 0 0-1.5z"/></svg>