<svg xmlns="http://www.w3.org/2000/svg" viewBox="0 0 32 32"><path d="M12.75 12.76c.92 0 1.67-.75 1.67-1.67 0-.92-.75-1.67-1.67-1.67-.92 0-1.67.75-1.67 1.67s.75 1.67 1.67 1.67zm0-2.75c.59 0 1.08.48 1.08 1.08 0 .59-.48 1.08-1.08 1.08s-1.08-.48-1.08-1.08c0-.6.49-1.08 1.08-1.08zm10.58-.95c-.92.1-1.58.92-1.48 1.84.09.85.8 1.49 1.66 1.49.06 0 .12 0 .18-.01.92-.1 1.58-.92 1.48-1.84-.1-.91-.91-1.58-1.84-1.48zm.29 2.73c-.6.06-1.12-.37-1.19-.96-.06-.59.37-1.12.96-1.19.04 0 .08-.01.12-.01.55 0 1.01.41 1.07.96.06.6-.37 1.14-.96 1.2zm4.73-1.95c-.02-.14-.14-.25-.28-.26l-1.46-.06c-.08-.22-.18-.42-.3-.6-.12-.19-.26-.36-.42-.53l.56-1.35c.05-.13.01-.29-.12-.36-.37-.23-.75-.43-1.15-.6-.13-.06-.29-.01-.36.11l-.78 1.23c-.45-.07-.9-.05-1.34.06l-.9-1.14c-.09-.11-.25-.15-.37-.08-.38.2-.75.44-1.09.7-.11.09-.15.25-.08.37l.68 1.29c-.23.28-.4.59-.53.93-.08-.38-.17-.75-.3-1.1-.05-.14-.19-.22-.33-.19l-1.42.25c-.17-.34-.36-.66-.58-.97l.93-1.11c.09-.11.09-.27 0-.38-.28-.33-.59-.64-.92-.92-.11-.09-.27-.09-.38 0l-1.11.93c-.31-.22-.64-.41-.97-.57l.25-1.43c.03-.14-.05-.28-.19-.33-.4-.14-.82-.26-1.25-.33-.14-.02-.28.06-.33.2l-.49 1.36c-.41-.04-.72-.04-1.12 0l-.5-1.36c-.05-.14-.19-.22-.33-.19-.43.08-.85.19-1.25.33-.14.05-.22.19-.19.33l.25 1.43c-.34.15-.66.34-.97.57L8.1 5.13c-.11-.09-.27-.09-.38 0-.33.28-.64.59-.92.92-.1.11-.1.27 0 .38l.93 1.11c-.22.31-.41.64-.56.97l-1.43-.25c-.14-.03-.28.05-.33.19-.14.4-.26.82-.33 1.25-.03.14.05.28.19.33l1.36.49c-.02.2-.03.39-.03.56 0 .18.01.36.03.56l-1.36.49c-.14.05-.22.19-.19.33.08.43.19.85.33 1.25.05.14.19.22.33.19l1.43-.25c.16.34.35.66.57.97l-.94 1.13c-.09.11-.09.27 0 .38.28.33.59.64.92.92.11.09.27.09.38 0l1.11-.93c.31.22.64.41.97.57l-.25 1.43c-.03.14.05.28.19.33.4.14.82.26 1.25.33h.05c.02 0 .04-.01.07-.01-.05.1-.04.23.04.32l.93 1.1c-.25.4-.43.83-.53 1.29l-1.44.12c-.14.01-.26.13-.27.27-.04.43-.04.87 0 1.3.01.14.13.26.27.27l1.44.12c.11.46.29.89.53 1.29l-.93 1.1c-.09.11-.09.27 0 .38.28.33.59.64.92.92.11.09.27.09.38 0l1.1-.93c.4.25.83.42 1.29.53l.12 1.44c.01.14.13.26.27.27.21.02.43.03.65.03s.43-.01.65-.03c.14-.01.26-.13.27-.27l.12-1.44c.46-.11.89-.29 1.29-.53l1.1.93c.11.09.27.09.38 0 .33-.28.64-.59.92-.92.09-.11.09-.27 0-.38l-.93-1.1c.25-.4.42-.83.53-1.29l1.44-.12c.14-.01.26-.13.27-.27.04-.43.04-.87 0-1.3-.01-.14-.13-.26-.27-.27l-1.44-.12c-.11-.46-.29-.89-.53-1.29l.93-1.1c.09-.11.09-.27 0-.38-.28-.33-.58-.63-.92-.92-.11-.09-.27-.09-.38 0l-1.1.93c-.4-.25-.83-.42-1.29-.53l-.11-1.31.22.19c.11.09.27.09.38 0 .33-.28.64-.59.92-.92.09-.11.09-.27 0-.38l-.93-1.11c.22-.31.41-.64.57-.97l1.43.25c.14.03.28-.05.33-.19.14-.4.26-.82.33-1.25.03-.14-.05-.28-.19-.33l-.77-.28.93.04c.08.22.18.42.3.6.12.19.26.36.42.53l-.56 1.35c-.05.13-.01.29.12.36.36.23.75.43 1.15.6.04.02.08.02.11.02.1 0 .19-.05.25-.14l.79-1.25c.45.07.91.05 1.34-.06l.89 1.16c.09.11.25.15.37.08.38-.2.75-.44 1.09-.7.11-.09.15-.25.08-.37l-.68-1.29c.29-.35.5-.76.62-1.2l1.45-.19c.14-.02.25-.14.26-.28.02-.44 0-.88-.06-1.31zm-16.61 8.62l.45-1.25c.41.04.73.04 1.12 0l.49 1.36c.01.02.02.04.04.06l-1.02-.86c-.11-.09-.27-.09-.38 0-.25.22-.48.45-.7.69zm6.71.86c.11.08.26.07.36-.02l1.08-.91c.17.16.34.32.5.5l-.91 1.08c-.09.1-.09.25-.02.36.31.44.51.94.61 1.48.03.13.13.23.27.24l1.41.12c.01.23.01.47 0 .7l-1.41.12c-.14.01-.24.11-.27.24-.1.54-.3 1.03-.61 1.48-.08.11-.07.26.02.36l.91 1.08c-.16.17-.32.34-.5.5l-1.08-.91c-.1-.09-.25-.09-.36-.02-.44.31-.94.51-1.48.61-.13.03-.23.13-.24.27l-.12 1.4c-.23.01-.47.01-.7 0l-.12-1.41c-.01-.13-.11-.24-.24-.27-.54-.1-1.03-.3-1.48-.61-.11-.08-.26-.07-.36.02l-1.08.91c-.17-.16-.34-.32-.5-.5l.91-1.08c.09-.1.09-.25.02-.36-.31-.45-.51-.94-.61-1.48-.03-.13-.13-.23-.27-.24l-1.41-.12c-.01-.23-.01-.47 0-.7l1.41-.12c.13-.01.24-.11.27-.24.1-.54.31-1.03.61-1.48.08-.11.07-.26-.02-.36l-.91-1.08c.16-.17.32-.34.5-.5l1.08.91c.1.09.25.09.36.02.45-.31.94-.51 1.48-.61.13-.03.23-.13.24-.27l.12-1.41c.24-.01.47-.01.7 0l.12 1.41c.01.13.11.24.24.27.54.11 1.04.31 1.48.62zm-2.7-2.86c.19-.11.37-.22.55-.35l.41.35c-.32-.02-.64-.02-.96 0zm3.87-3.17l-1.4-.25c-.14-.03-.27.05-.33.18-.18.44-.43.86-.73 1.25-.08.11-.08.26.01.37l.92 1.09c-.16.17-.32.34-.5.5l-1.09-.92c-.11-.09-.26-.09-.37-.01-.4.3-.82.55-1.25.73-.13.05-.2.19-.18.33l.25 1.4c-.22.07-.45.13-.68.18l-.49-1.34c-.04-.12-.15-.19-.28-.19h-.04c-.54.07-.88.07-1.45 0-.14-.02-.27.06-.32.19l-.49 1.34c-.23-.05-.46-.11-.68-.18l.25-1.4c.03-.14-.05-.27-.18-.33-.44-.18-.86-.43-1.25-.73-.08-.08-.23-.08-.34.01l-1.09.92c-.17-.16-.34-.32-.5-.5l.92-1.09c.09-.11.09-.26.01-.37-.3-.39-.55-.81-.73-1.25-.05-.13-.19-.2-.33-.18l-1.4.25c-.07-.22-.13-.45-.18-.68l1.34-.49c.13-.05.21-.18.19-.32-.04-.27-.05-.5-.05-.72 0-.22.02-.45.05-.72.02-.14-.06-.27-.19-.32L5.7 9.56c.05-.23.11-.46.18-.68l1.4.25c.14.02.27-.05.33-.18.18-.43.43-.85.73-1.24.09-.11.08-.27-.01-.37l-.92-1.09c.16-.17.32-.34.5-.5L9 6.67c.11.09.26.09.37.01.39-.3.81-.55 1.25-.73.13-.05.2-.19.18-.33l-.25-1.4c.22-.07.45-.13.68-.18l.49 1.34c.05.13.18.21.32.19.56-.07.89-.07 1.45 0 .14.02.27-.06.32-.19l.49-1.34c.23.05.46.11.68.18l-.25 1.4c-.03.14.05.27.18.33.44.18.86.43 1.25.73.11.08.26.08.37-.01l1.09-.92c.17.16.34.32.5.5l-.92 1.09c-.09.11-.09.26-.01.37.3.39.55.81.73 1.25.05.13.19.2.33.18l1.4-.25c.07.22.13.45.18.68l-1.34.49c-.13.05-.21.18-.19.32.04.27.05.5.05.72 0 .22-.02.45-.05.72-.02.14.06.27.19.32l1.34.49c-.08.22-.14.44-.21.66zm6.81-2.24c-.12.02-.22.11-.25.23-.1.48-.33.92-.66 1.28-.08.09-.1.23-.04.34l.66 1.25c-.19.14-.39.26-.59.38l-.86-1.12c-.08-.1-.21-.14-.33-.1-.47.15-.97.18-1.44.07-.12-.03-.25.03-.31.13l-.75 1.19c-.21-.1-.42-.21-.62-.32l.54-1.3c.05-.12.02-.25-.08-.33-.18-.17-.34-.35-.47-.55-.13-.2-.23-.42-.3-.66-.04-.12-.15-.2-.27-.21l-1.41-.05c-.02-.23-.03-.47-.03-.7l1.39-.18c.12-.02.22-.11.25-.23.1-.48.33-.92.67-1.28.08-.09.1-.23.04-.34l-.66-1.24c.19-.14.39-.26.59-.38l.86 1.12c.08.1.21.14.33.1.47-.15.97-.18 1.44-.07.12.03.25-.03.32-.13l.75-1.19c.21.1.42.21.62.32l-.54 1.3c-.05.12-.02.25.08.33.19.17.35.36.47.55.13.2.23.42.3.66.04.12.15.2.27.21l1.41.05c.02.23.03.47.03.7l-1.41.17zM14.59 22.52c0 .92.75 1.67 1.67 1.67.92 0 1.67-.75 1.67-1.67s-.75-1.67-1.67-1.67c-.92 0-1.67.75-1.67 1.67zm2.75 0c0 .59-.48 1.08-1.08 1.08-.59 0-1.08-.48-1.08-1.08 0-.59.48-1.08 1.08-1.08.6 0 1.08.48 1.08 1.08zM12.75 8.25c-.37 0-.73.07-1.06.21-.08.03-.11.12-.08.19.03.08.12.11.19.08.3-.12.62-.18.95-.18 1.4 0 2.55 1.14 2.55 2.55s-1.14 2.55-2.55 2.55-2.55-1.14-2.55-2.55c0-.5.14-.98.42-1.4.04-.07.03-.16-.04-.2-.07-.04-.16-.03-.2.04-.3.46-.46 1-.46 1.56 0 1.57 1.28 2.84 2.84 2.84s2.84-1.28 2.84-2.84-1.28-2.85-2.85-2.85zm.67 14.27c0 1.57 1.28 2.84 2.84 2.84.8 0 1.57-.34 2.11-.93.05-.06.05-.15-.01-.21-.06-.05-.15-.05-.21.01-.48.53-1.17.84-1.89.84-1.4 0-2.55-1.14-2.55-2.55 0-1.4 1.14-2.55 2.55-2.55s2.55 1.14 2.55 2.55c0 .17-.02.34-.05.51-.02.08.04.16.12.17.08.02.16-.04.17-.12.04-.19.06-.38.06-.57 0-1.57-1.28-2.84-2.84-2.84-1.57 0-2.85 1.28-2.85 2.85z"/></svg>