<svg xmlns="http://www.w3.org/2000/svg" viewBox="0 0 36 36"><title>Icon-Red_Hat-Lower_Cost_Euro-A-Black-RGB</title><path d="M20 28.22l-.72.72V17.27h3.12a.75.75 0 0 0 0-1.5h-3.08V5.25a.75.75 0 0 0-1.5 0v10.52h-2.49c-.1-.37-.2-.73-.28-1.1a4.3 4.3 0 0 1 .48-3.67.75.75 0 0 1 .12-.14 3.17 3.17 0 0 1 .78-.58.75.75 0 0 0-.71-1.28 4.46 4.46 0 0 0-1.16.87l-.2.22a5.58 5.58 0 0 0-.78 4.88c.06.28.13.55.2.83h-3.13a.75.75 0 0 0 0 1.5h3.5a4.94 4.94 0 0 1 .09 2.22 4.05 4.05 0 0 1-1.05 2 9.9 9.9 0 0 1-2.8 1.82.75.75 0 0 0 .26 1.46h5.42a.75.75 0 0 0 0-1.5h-2.66a10.18 10.18 0 0 0 .82-.7 5.53 5.53 0 0 0 1.47-2.75 6 6 0 0 0 0-2.57h2.13v11.66l-.72-.72A.75.75 0 0 0 16 29.28l2 2a.82.82 0 0 0 .53.22.75.75 0 0 0 .29-.06.64.64 0 0 0 .22-.14l2-2a.74.74 0 0 0 0-1.06.75.75 0 0 0-1.04-.02z"/><path d="M24.35 23.29h-3.28a.75.75 0 0 0 0 1.5h3.28a.75.75 0 0 0 0-1.5zM20.88 10A25.89 25.89 0 0 1 24 11.22a.7.7 0 0 0 .31.07.75.75 0 0 0 .31-1.43 26.83 26.83 0 0 0-3.39-1.28.75.75 0 0 0-.35 1.42z"/></svg>