<svg data-name="Icon" xmlns="http://www.w3.org/2000/svg" width="36" height="36" viewBox="0 0 36 36"><title>Icon-Red_Hat-Hardware-Virtual_Datacenter-A-Black-RGB</title><path d="M9.41 5.75a.75.75 0 0 0 0-1.5.75.75 0 0 0 0 1.5zm19.09 1.5h-21a.76.76 0 0 0-.75.75v20a.76.76 0 0 0 .75.75h21a.76.76 0 0 0 .75-.75V8a.76.76 0 0 0-.75-.75zm-14.75 20h-5.5V8.75h5.5zm7 0h-5.5V8.75h5.5zm7 0h-5.5V8.75h5.5zm-4.25-6.5h3a.75.75 0 0 0 0-1.5h-3a.75.75 0 0 0 0 1.5zm3.09-15a.75.75 0 1 0-.75-.75.76.76 0 0 0 .75.75zm-12.27 0a.75.75 0 0 0 0-1.5.75.75 0 0 0 0 1.5zm9.18 12h3a.75.75 0 0 0 0-1.5h-3a.75.75 0 0 0 0 1.5zm0-3h3a.75.75 0 0 0 0-1.5h-3a.75.75 0 0 0 0 1.5zm.64-9a.75.75 0 0 0 0-1.5.75.75 0 0 0 0 1.5zm-7.37 0A.75.75 0 1 0 16 5a.75.75 0 0 0 .77.75zm2.46 0a.75.75 0 0 0 0-1.5.75.75 0 0 0 0 1.5zm-7.37 0a.75.75 0 1 0-.75-.75.75.75 0 0 0 .75.75zm9.82 0a.75.75 0 1 0-.75-.75.75.75 0 0 0 .75.75zm-5.18 9h3a.75.75 0 0 0 0-1.5h-3a.75.75 0 0 0 0 1.5zm-7-3h3a.75.75 0 0 0 0-1.5h-3a.75.75 0 0 0 0 1.5zm0 3h3a.75.75 0 0 0 0-1.5h-3a.75.75 0 0 0 0 1.5zm0 3h3a.75.75 0 0 0 0-1.5h-3a.75.75 0 0 0 0 1.5zm2 6.72a.78.78 0 0 0-.24-.16.73.73 0 0 0-.58 0 .74.74 0 0 0-.4.4.73.73 0 0 0 0 .58.74.74 0 0 0 .4.4.72.72 0 0 0 .29.06.75.75 0 0 0 .29-.06.74.74 0 0 0 .4-.4.73.73 0 0 0 0-.58.78.78 0 0 0-.13-.24zM31 5.53a.77.77 0 0 0 .53.22.75.75 0 0 0 .47-.22.78.78 0 0 0 .16-.24.72.72 0 0 0 .09-.29.75.75 0 0 0-1.25-.53.75.75 0 0 0-.22.53.72.72 0 0 0 .06.29.78.78 0 0 0 .16.24zM9.5 20.75h3a.75.75 0 0 0 0-1.5h-3a.75.75 0 0 0 0 1.5zm19.55-15A.75.75 0 1 0 28.3 5a.75.75 0 0 0 .75.75zm-3.52 18.72a.75.75 0 0 0-1.22.24.72.72 0 0 0-.06.29.75.75 0 0 0 .06.29.78.78 0 0 0 .16.24.75.75 0 0 0 1.06 0 .78.78 0 0 0 .16-.24.73.73 0 0 0 0-.58.78.78 0 0 0-.16-.24zm-9-3.72h3a.75.75 0 0 0 0-1.5h-3a.75.75 0 0 0 0 1.5zm7-9h3a.75.75 0 0 0 0-1.5h-3a.75.75 0 0 0 0 1.5zm-5 12.72a.78.78 0 0 0-.24-.16.75.75 0 0 0-.82.16.78.78 0 0 0-.16.24.72.72 0 0 0-.06.29.75.75 0 0 0 .06.29.78.78 0 0 0 .16.24.75.75 0 0 0 .53.22.72.72 0 0 0 .29-.06.74.74 0 0 0 .4-.4.75.75 0 0 0 .06-.29.72.72 0 0 0-.06-.29.78.78 0 0 0-.16-.24zm-2-6.72h3a.75.75 0 0 0 0-1.5h-3a.75.75 0 0 0 0 1.5zm0-6h3a.75.75 0 0 0 0-1.5h-3a.75.75 0 0 0 0 1.5zM7 5.75A.75.75 0 1 0 6.21 5a.75.75 0 0 0 .79.75zm-2.5 14.1a.75.75 0 1 0 .75.75.75.75 0 0 0-.75-.75zm27 5.2a.75.75 0 1 0 .75.75.75.75 0 0 0-.75-.75zm0 2.6a.75.75 0 0 0 0 1.5.75.75 0 0 0 0-1.5zm-2.5 2.6a.75.75 0 0 0 0 1.5.75.75 0 1 0 0-1.5zm3 .22a.78.78 0 0 0-.24-.16.75.75 0 0 0-1 .69.72.72 0 0 0 .06.29.78.78 0 0 0 .16.24.63.63 0 0 0 .24.16.73.73 0 0 0 .58 0 .63.63 0 0 0 .24-.16.78.78 0 0 0 .16-.24.72.72 0 0 0 .06-.29.75.75 0 0 0-.06-.29.78.78 0 0 0-.2-.24zm-10.35-.22a.75.75 0 1 0 .75.75.76.76 0 0 0-.72-.75zm4.91 0a.75.75 0 1 0 .75.75.76.76 0 0 0-.72-.75zm-2.45 0a.75.75 0 1 0 .75.75.75.75 0 0 0-.72-.75zm7.36-10.4a.75.75 0 0 0 0 1.5.75.75 0 0 0 0-1.5zm0 2.6a.75.75 0 1 0 .75.75.75.75 0 0 0-.72-.75zm0-15.6a.75.75 0 1 0 .75.75.75.75 0 0 0-.72-.75zm0 5.2a.75.75 0 0 0 0 1.5.75.75 0 0 0 0-1.5zm0-2.6a.75.75 0 1 0 .75.75.75.75 0 0 0-.72-.75zm-12.24 20.8A.75.75 0 1 0 20 31a.75.75 0 0 0-.77-.75zm12.27-13a.75.75 0 1 0 .75.75.75.75 0 0 0-.75-.75zM4.79 30.31a.73.73 0 0 0-.58 0 .78.78 0 0 0-.24.16.75.75 0 0 0-.22.53.72.72 0 0 0 .06.29.78.78 0 0 0 .16.24.77.77 0 0 0 .53.22.72.72 0 0 0 .29-.06.63.63 0 0 0 .21-.16.75.75 0 0 0 0-1.06.78.78 0 0 0-.21-.16zM31.5 14.65a.75.75 0 1 0 .75.75.75.75 0 0 0-.75-.75zm-27 2.6a.75.75 0 1 0 .75.75.76.76 0 0 0-.75-.75zm0-2.6a.75.75 0 1 0 .75.75.76.76 0 0 0-.75-.75zm0-2.6a.75.75 0 1 0 .75.75.75.75 0 0 0-.75-.75zm0 13a.75.75 0 1 0 .75.75.76.76 0 0 0-.75-.75zm0 2.6a.75.75 0 1 0 .75.75.75.75 0 0 0-.75-.75zm0-18.2a.75.75 0 1 0 .75.75.76.76 0 0 0-.75-.75zm0 13a.75.75 0 1 0 .75.75.76.76 0 0 0-.75-.75zm0-15.6a.75.75 0 1 0 .75.75.76.76 0 0 0-.75-.75zm12.27 23.4a.75.75 0 1 0 .75.75.76.76 0 0 0-.75-.75zm-2.45 0a.75.75 0 1 0 .75.75.75.75 0 0 0-.75-.75zm-4.91 0a.75.75 0 1 0 .75.75.76.76 0 0 0-.75-.75zm2.45 0a.75.75 0 1 0 .75.75.76.76 0 0 0-.75-.75zM5 4.47a.75.75 0 0 0-.82-.16.78.78 0 0 0-.18.16.63.63 0 0 0-.16.24.72.72 0 0 0-.09.29.75.75 0 0 0 .25.53.63.63 0 0 0 .24.16.75.75 0 0 0 1-1A.78.78 0 0 0 5 4.47zm2 25.78a.75.75 0 1 0 .7.75.75.75 0 0 0-.7-.75z"/></svg>