<svg xmlns="http://www.w3.org/2000/svg" width="32" height="32" viewBox="0 0 32 32"><path d="M15.8 12.555c.002-.002.055-.15.248-.15l1.602.016c.118.01.606.02.934-.644l1.553-3.01c.248-.47.056-.85-.095-1.003l-.94-1.138-.055-.05c-.026-.02-.655-.476-1.623-.476-.524 0-1.05.132-1.558.392-.074.037-1.834.93-2.83 3.36-.1.193-2.418 4.766-.598 11.55.008.046.82 4.5 4.688 4.5.307 0 .63-.028.958-.085l.054-.01 1.373-.795c.38-.22.38-.69.32-.933l-.855-3.458c-.07-.232-.308-.63-.78-.65l-2.35-.032c-.043-.002-.186-.023-.233-.19-.012-.042-1.21-4.17.178-7.165l.012-.03zm3.78-4.39l.03.033s.086.09-.017.285L18.037 11.5c-.147.296-.302.31-.318.313l-.85-.01 1.968-4.534.742.896zm-1.402 12.417c.136.006.205.2.205.2l.853 3.443c.015.06.022.224-.032.256l-1.09.634-.86-4.543.925.013zm-2.95-8.244c-1.478 3.207-.257 7.407-.205 7.58.138.492.586.63.806.634l1.11.014.884 4.67c-.24.033-.474.053-.697.053-3.35 0-4.056-3.83-4.09-4.02-1.76-6.568.52-11.09.556-11.16.914-2.232 2.53-3.062 2.55-3.07.424-.218.855-.328 1.28-.328.595 0 1.026.215 1.187.31L16.535 11.8l-.416-.005c-.54-.037-.81.323-.893.543z"/></svg>