<svg xmlns="http://www.w3.org/2000/svg" width="32" height="32" viewBox="0 0 32 32"><path d="M26.313 10.197l-.003-.025c-.004-.03-.01-.057-.023-.084l-.005-.017-.007-.008c-.017-.03-.038-.06-.064-.083-.005-.007-.013-.01-.02-.015-.014-.01-.028-.023-.045-.03l-9.697-4.85c-.086-.043-.188-.043-.274 0L6.48 9.935c-.018.008-.033.02-.047.03-.006.006-.013.01-.02.014-.026.023-.047.05-.064.082-.003.003-.006.005-.007.008-.003.006-.002.01-.005.017-.012.026-.02.054-.023.083 0 .01-.003.017-.004.026V22.326c0 .117.065.224.17.275l9.695 4.85h.008c.04.02.082.03.13.03s.088-.01.128-.03h.01l9.696-4.85c.104-.05.17-.157.17-.273v-12.12l-.002-.012zM16.31 5.703l9.012 4.505-9.01 4.505L7.3 10.208l9.01-4.505zm-9.388 5.002l9.083 4.54v11.436l-9.083-4.54V10.704zm9.696 15.976V15.247l9.083-4.54V22.14l-9.082 4.54z"/></svg>