<svg xmlns="http://www.w3.org/2000/svg" width="97.495" height="64.497" viewBox="0 0 97.495 64.497"><path fill="#231F20" d="M66.446 26.52c.004-.11.035-.692.326-1.167.37-.603.924-.877 1.8-.887.91-.012 2.18-.016 3.565-.016h.002c3.026 0 6.612.02 8.235.03l.877-.03c2.745 0 5.396 2.036 6.03 4.636l.987 3.94c.568 2.325 1.03 6.148 1.03 8.528v5.488c0 .02-.05 2-.647 2.513-.268.23-.296.254-2.632.254-2.53 0-5.395-.06-5.395-.06l-1.052-.004h-1.665c.007.11.032.213.032.323 0 2.88-2.343 5.224-5.225 5.224-2.88 0-5.227-2.344-5.227-5.225 0-.108.025-.21.032-.316l-2.198.002H36.068c.01.128.04.25.04.38 0 2.883-2.346 5.228-5.227 5.228-2.88 0-5.225-2.345-5.225-5.227 0-.13.03-.25.038-.378h-2.227c-1.623.01-5.21.03-8.235.03-1.388 0-2.657-.004-3.565-.016-.877-.01-1.433-.284-1.802-.887-.29-.475-.322-1.056-.325-1.167l-.024-5.414v-.821l.013-1.145c.003-.112.035-.693.325-1.168.37-.603.925-.877 1.802-.887.908-.012 2.178-.016 3.564-.016h.002c3.026 0 6.612.02 8.235.03l.98.01c1.62.01 34.94.03 37.964.03 1.38 0 2.642-.002 3.546-.014.298-.004.376-.05.408-.096.04-.068.077-.244.082-.328l.013-4.092-.004-7.29zm20.46 6.846l-.987-3.94c-.482-1.967-2.575-3.567-4.675-3.567l-.877.028c-2.363-.014-8.892-.053-11.778-.015-.28.003-.49.038-.62.22-.07.117-.11.34-.117.453l.002 5.44-.013 5.94c-.002.06-.023.61-.288 1.043-.324.528-.8.757-1.592.767-.907.012-2.176.016-3.563.016-3.234 0-36.344-.02-37.973-.03l-.98-.013c-2.362-.014-8.892-.052-11.776-.015-.282.003-.494.038-.62.218-.07.12-.11.346-.117.452l-.013 1.122.025 6.226c.005.095.045.32.127.456.115.163.327.198.61.2 2.885.04 9.415 0 11.775-.014h2.776l.064-.153c.784-1.846 2.583-3.038 4.583-3.038s3.797 1.19 4.58 3.035l.065.152 32.524-.002.062-.155c.77-1.883 2.578-3.1 4.603-3.1 2.022 0 3.828 1.215 4.6 3.094l.063.154h2.432c.387.005 3.847.06 6.21.06.747 0 1.21-.005 1.493-.012l.198-.005.042-.194c.07-.335.14-.82.14-1.148v-5.488c.002-2.29-.442-5.963-.987-8.19zM33.802 48.1c-.646-.92-1.712-1.53-2.922-1.53-1.21 0-2.278.61-2.923 1.533 0 0-.66.805-.645 2.035-.013.126 0-.13 0 0 0 1.97 1.602 3.57 3.57 3.57s3.567-1.602 3.567-3.57c0-.13.013.126 0 0 .035-1.105-.647-2.037-.647-2.037zm41.882-.006c-.64-.96-1.73-1.593-2.968-1.593s-2.33.637-2.97 1.598c0 0-.467.597-.567 1.656-.01.106-.032.208-.032.316 0 1.968 1.602 3.567 3.57 3.567s3.567-1.6 3.567-3.567c0-.11.01.107 0 0-.05-1.287-.6-1.976-.6-1.976z"/><path fill="#231F20" d="M17.745 44.93c.162.16.162.424 0 .586-.08.08-.187.12-.293.12-.105 0-.212-.04-.293-.12l-3.953-3.95c-.16-.163-.16-.425 0-.587M13.966 44.948c-.105 0-.212-.04-.292-.12l-.933-.933c-.16-.162-.16-.424 0-.586.163-.162.425-.162.587 0l.932.93c.16.163.16.426 0 .587-.082.08-.188.12-.294.12zM24.813 47.255H10.558c-.23 0-.414-.186-.414-.415 0-.23.186-.413.414-.413h14.256c.23 0 .414.185.414.413 0 .23-.186.415-.415.415zM88.672 47.152H78.558c-.23 0-.414-.186-.414-.414 0-.23.185-.415.414-.415h10.114c.23 0 .415.186.415.415 0 .228-.186.414-.415.414zM66.684 47.186H36.93c-.23 0-.414-.186-.414-.415 0-.228.185-.412.414-.412h29.754c.23 0 .414.185.414.413 0 .23-.186.416-.414.416zM82.697 39.636l-11.215-.01c-.662 0-1.2-.547-1.2-1.22V28.97c0-.672.547-1.22 1.22-1.22h9.436c.538 0 1.215.304 1.572.706.09.102.91 1.092 1.697 4.462.096.354.182.728.27 1.102l.06.264c.24 1.013.395 2.037.504 2.816.05.335.064.6.05.854-.016.422-.043.75-.212.978-.173.234-.393.497-.814.63-.07.023-.232.074-1.367.074zm-1.04-1.01l1.04.01c.567 0 1-.018 1.092-.034.087-.03.15-.085.283-.265 0-.03.01-.258.014-.344.015-.28.002-.482-.037-.752-.106-.76-.258-1.754-.486-2.728l-.062-.268c-.084-.362-.167-.724-.264-1.083-.73-3.128-1.472-4.038-1.48-4.046-.163-.184-.564-.364-.82-.364h-9.435c-.12 0-.22.1-.22.22v9.434c0 .12.092.22.2.22l10.173.003z"/><path d="M64.755 11.164v24.573c0 .388-.315.702-.703.702h-53.18c-.387 0-.702-.315-.702-.703V11.164c0-.39.314-.703.703-.703h53.18c.386 0 .702.315.702.704zm-1.405.703H11.575V34.1H63.35V11.868z"/><path d="M17.028 32.33c.194 0 .35-.156.35-.35v-18c0-.194-.156-.352-.35-.352s-.352.157-.352.352v18c0 .194.158.35.352.35zM23.826 32.33c.194 0 .35-.156.35-.35v-18c0-.194-.156-.352-.35-.352s-.352.157-.352.352v18c0 .194.158.35.352.35zM30.644 32.33c.194 0 .352-.156.352-.35v-18c0-.194-.157-.352-.352-.352-.194 0-.35.157-.35.352v18c0 .194.156.35.35.35zM37.462 32.453c.194 0 .35-.157.35-.352v-18c0-.193-.156-.35-.35-.35s-.352.156-.352.35v18c0 .196.158.353.352.353zM44.28 32.33c.194 0 .352-.156.352-.35v-18c0-.194-.158-.352-.352-.352-.195 0-.35.157-.35.352v18c0 .194.155.35.35.35zM51.1 32.33c.193 0 .35-.156.35-.35v-18c0-.194-.156-.352-.35-.352-.195 0-.352.157-.352.352v18c0 .194.156.35.352.35zM57.917 32.33c.194 0 .35-.156.35-.35v-18c0-.194-.155-.352-.35-.352-.193 0-.352.157-.352.352v18c0 .194.16.35.352.35z"/></svg>