<svg data-name="Layer 1" xmlns="http://www.w3.org/2000/svg" viewBox="0 0 36 36"><title>Icon-Red_Hat-Video-A-Black-RGB</title><path d="M29.725 15.63a.75.75 0 0 0-.53-.22h-18.72L18.5 13.7l10.11-2.15a.744.744 0 0 0 .474-.324.75.75 0 0 0 .1-.564l-.304-1.45-.31-1.453a.75.75 0 0 0-.325-.474.74.74 0 0 0-.563-.1L17.166 9.418 6.65 11.653a.756.756 0 0 0-.478.332.755.755 0 0 0-.106.277.74.74 0 0 0 .01.3L6.414 14l.338 1.44v.02l.1.436.082.352v11.836a.75.75 0 0 0 .75.75h21.5a.75.75 0 0 0 .75-.75V16.16a.75.75 0 0 0-.21-.53zM7.88 13.675l-.17-.715 9.776-2.077 9.774-2.078.153.72.153.718-9.76 2.074-9.76 2.075zm20.564 8.446v5.212h-20V16.91h20z"/><path d="M16.807 19.247a.75.75 0 0 0-.372.1.74.74 0 0 0-.273.274.753.753 0 0 0-.1.375v4.25a.753.753 0 0 0 .373.648.787.787 0 0 0 .183.076.755.755 0 0 0 .194.025.718.718 0 0 0 .19-.025.732.732 0 0 0 .18-.073l1.88-1.062 1.88-1.063a.75.75 0 0 0 .28-.274.75.75 0 0 0 0-.756.744.744 0 0 0-.28-.275l-1.88-1.063-1.88-1.062a.75.75 0 0 0-.375-.095zm.755 2.875v-.84l.744.42.743.42-.744.42-.744.42z"/></svg>