<svg xmlns="http://www.w3.org/2000/svg" viewBox="0 0 32 32"><path d="M10.54 6.26c-.57-.43-1.02-.63-1.38-.63-.38 0-.57.23-.62.37-.02.05-.02.1 0 .15l.86 2.34-.14 1.12-1.14.53-.87-.75c-.09-.25-.46-1.25-.65-1.79-.16-.44-.32-.66-.54-.69-.14-.02-.25.04-.32.11-1.83 1.59-.35 4.44-.26 4.61.02.04.16.33.4.71l-.14.06c-.35.16-.46.57-.26.98.13.28.35.44.61.44.1 0 .2-.02.29-.07l.45-.21c.07.06.14.13.21.19.39.33.53.54.5 1.42l-.34 9.97c0 .04-.08.95.46 1.54.3.33.72.49 1.24.49.5 0 .89-.16 1.18-.47.54-.59.45-1.52.44-1.55l-.32-9.97c0-.11 0-.22-.01-.32-.02-.71-.04-1.18 1.09-2.07 1.48-1.17 1.14-3.23 1.12-3.31-.33-2.01-1.8-3.15-1.86-3.2zm-4.75 4.97c-.28-.64-1.06-2.67.21-3.84.04.05.1.16.17.36.22.61.68 1.85.68 1.85.01.04.03.07.06.09l.76.66-1.88.88zm.44 2.22c-.05.02-.1.04-.15.04-.16 0-.26-.15-.3-.24-.07-.15-.13-.42.1-.53l.18-.09c.15.22.32.44.51.66l-.34.16zm4.76-1.02c-1.31 1.03-1.28 1.68-1.26 2.44 0 .1.01.2.01.32l.32 9.99c0 .01.07.77-.33 1.21-.2.22-.47.32-.84.32-.39 0-.7-.12-.91-.34-.41-.45-.34-1.19-.34-1.21l.34-9.99c.04-.93-.11-1.32-.66-1.79-.63-.53-1.12-1.37-1.32-1.75l3.57-1.67c.07-.03.12-.1.13-.18l.16-1.29c.01-.04 0-.07-.01-.11l-.84-2.27c.03-.01.08-.03.15-.03.15 0 .48.07 1.1.54.01.01 1.39 1.09 1.69 2.93 0 .02.3 1.88-.96 2.88zm-.94-1.8c-.06-.07-.16-.09-.24-.03s-.09.16-.03.24l.66.89c.03.05.09.07.14.07.04 0 .07-.01.1-.03.07-.06.09-.16.03-.24 0-.02-.66-.9-.66-.9zm-.61.3c-.06-.07-.16-.09-.24-.03s-.09.16-.03.24l.66.89c.03.04.09.07.14.07.04 0 .07-.01.1-.03.07-.06.09-.16.03-.24 0-.02-.66-.9-.66-.9zm-.22 1.38c.03.05.08.07.14.07.04 0 .07-.01.1-.03.07-.06.09-.16.03-.24l-.66-.89c-.06-.07-.16-.09-.24-.03s-.09.16-.03.24l.66.88zm-.48.37c.03 0 .07-.01.1-.03.07-.06.09-.16.03-.24l-.66-.89c-.06-.07-.16-.09-.24-.03s-.09.16-.03.24l.66.89c.04.03.09.06.14.06zm.14 11.92c-.16 0-.31.05-.44.13-.38.25-.5.76-.25 1.14.15.24.41.38.7.38.16 0 .31-.05.44-.13.39-.24.5-.76.25-1.14-.15-.24-.41-.38-.7-.38zm.26 1.24c-.22.14-.53.07-.67-.15-.14-.23-.08-.53.15-.67.08-.05.17-.08.26-.08.17 0 .32.08.41.23.15.22.08.52-.15.67zm9.1-5.46c0-.06-.02-.12-.07-.16-.35-.35-.52-.69-.51-1.01.01-.39.29-.63.3-.63.05-.04.08-.11.08-.17v-1.45c0-.12-.1-.23-.23-.23h-1.19V10.5l.41-1.14c.01-.04.02-.08.01-.12l-.53-3.02c-.02-.11-.11-.19-.22-.19h-1.08c-.11 0-.2.08-.22.19l-.53 3.02c-.01.04 0 .08.01.12l.41 1.14v6.23h-1.19c-.13 0-.23.1-.23.23v1.45c0 .07.03.13.08.17 0 0 .28.24.29.63.01.32-.16.67-.51 1.02-.04.04-.07.1-.07.16v5.86c0 .03-.01.31.25.59.39.41 1.14.62 2.24.62s1.86-.21 2.24-.62c.26-.28.25-.56.25-.57l.01-5.89zM15.4 6.49h.7l.49 2.77-.41 1.12c-.01.02-.01.05-.01.08v6.27h-.84v-6.27c0-.03-.01-.05-.01-.08l-.4-1.12.48-2.77zm-.56 20.44c-.13-.02-.25-.05-.35-.08v-5.01c0-.21 0-.39.04-.49.02-.04.03-.08.16-.08.12 0 .16.08.16.59l-.01 5.07zm2.2-.08c-.1.03-.22.06-.36.08v-5.07c0-.51.04-.59.16-.59.11 0 .14.03.16.1.04.11.04.29.04.48v5zm.75-.58s-.01.25-.41.45v-4.87c0-.22 0-.42-.05-.58-.07-.22-.24-.33-.48-.33-.5 0-.5.51-.5.93v5.11c-.18.02-.37.03-.6.03-.21 0-.4-.01-.57-.02v-5.11c0-.41 0-.93-.5-.93-.24 0-.41.1-.48.31-.06.16-.06.35-.06.61v4.87c-.42-.21-.43-.46-.43-.47v-5.79c.4-.42.59-.86.57-1.29-.02-.43-.25-.74-.38-.88v-1.13h3.68v1.13c-.13.14-.36.44-.38.88s.17.87.57 1.29l.02 5.79zm9.16-20.12c-.04-.07-.12-.12-.2-.12l-.91.02c-.03 0-.06.01-.08.02 0 0-.38.16-.82.16-.37 0-.67-.11-.89-.33-.04-.04-.1-.07-.16-.07H22.1c-.03 0-2.78.24-3.48 3.13-.05.2-.02.54.18.69.05.04.11.06.18.06.24 0 .47-.24.55-.35.01-.01.64-.96 1.15-1.35.07-.06.32-.22.5-.22.06 0 .12.01.18.14.15.36.28 1.11.39 1.71l.02.09c.02.1.11.18.22.19v6.24c-.23.13-.38.36-.38.63l-.02 9.64c0 .49.78.75 1.18.75h.49c.41 0 1.2-.27 1.2-.75l-.02-9.64c0-.27-.15-.5-.38-.63V9.91c.09-.02.17-.09.18-.19l.17-1.35c.16-.14.33-.2.53-.2.41 0 .77.28.78.29.04.03.09.05.14.05l.91.02c.08-.01.16-.04.2-.12.02-.04.22-.41.22-1.14-.02-.72-.23-1.11-.24-1.12zm-3.7 20.58h-.49c-.31 0-.7-.2-.73-.3l.02-9.64c0-.17.18-.3.4-.3h1.12c.22 0 .4.13.4.3l.03 9.63c-.03.1-.44.3-.75.31zm-.81-10.69V9.92h1.15v6.12H22.45c0-.01-.01-.01-.01 0zm3.12-8.19c-.18-.08-.4-.14-.63-.14-.34 0-.65.13-.9.39-.03.03-.06.08-.06.13l-.17 1.23h-1.62c-.11-.63-.24-1.32-.4-1.7-.11-.27-.32-.43-.6-.43-.37 0-.74.28-.78.31-.57.43-1.22 1.41-1.24 1.44-.03.04-.07.08-.11.11-.01-.04-.01-.09 0-.13.62-2.57 2.97-2.78 3.06-2.79h1.68c.3.26.68.39 1.14.39.22 0 .43-.03.59-.07.03.18.06.45.06.76 0 .24-.01.39-.02.5zm1.04.21l-.68-.01c-.01-.01-.03-.02-.04-.03.03-.14.05-.35.05-.66 0-.37-.04-.68-.07-.86.01 0 .02-.01.02-.01l.71-.01c.05.14.11.4.11.77.01.41-.05.67-.1.81z"/></svg>