<svg xmlns="http://www.w3.org/2000/svg" width="32" height="32" viewBox="0 0 32 32"><path d="M14.37 15.122v.008c0 .11.088.197.197.197.11 0 .197-.088.197-.197v-.008-.007c0-.11-.088-.197-.197-.197-.11 0-.197.088-.197.197v.008zm-1.42.713v.01c0 .108.087.196.196.196.11 0 .197-.087.197-.196v-.01-.007c0-.11-.088-.197-.197-.197-.11 0-.197.088-.197.197v.01zm2.12-.713v.01c0 .108.088.196.197.196.11 0 .197-.088.197-.197v-.008-.008c0-.11-.088-.197-.197-.197-.11 0-.197.088-.197.197v.01zm.716.713v.01c0 .108.088.196.197.196.11 0 .197-.087.197-.196v-.01-.007c0-.11-.088-.197-.197-.197-.11 0-.197.088-.197.197v.01zm-2.837-.713v.01c0 .108.087.196.196.196.11 0 .197-.088.197-.197v-.008-.008c0-.11-.088-.197-.197-.197-.11 0-.197.088-.197.197v.01zm.698.713v.01c0 .108.088.196.197.196.11 0 .197-.087.197-.196v-.01-.007c0-.11-.088-.197-.197-.197-.11 0-.197.088-.197.197v.01zm.722 0v.008c0 .11.088.197.197.197.11 0 .197-.088.197-.197v-.008-.007c0-.11-.088-.197-.197-.197-.11 0-.197.09-.197.198v.008zm1.416-.713v.01c0 .108.088.196.197.196.11 0 .197-.088.197-.197v-.008-.008c0-.11-.088-.197-.197-.197-.11 0-.197.088-.197.197v.01zm-2.138 0v.01c0 .108.088.196.197.196.11 0 .197-.088.197-.197v-.008-.008c0-.11-.088-.197-.197-.197-.11 0-.197.088-.197.197v.01zm2.836 4.775v.01c0 .108.088.196.197.196.11 0 .198-.088.198-.197v-.01-.007c0-.11-.088-.198-.197-.198-.108 0-.196.088-.196.197v.008zm1.422 0v.01c0 .108.088.196.197.196.11 0 .197-.088.197-.197v-.01-.007c0-.11-.088-.198-.197-.198-.11 0-.197.088-.197.197v.008zm0 .713v.01c0 .108.088.196.197.196.11 0 .197-.088.197-.197v-.01-.008c0-.11-.088-.197-.197-.197-.11 0-.197.088-.197.197v.01zm-.7-.713v.008c0 .11.088.197.197.197.11 0 .197-.088.197-.197v-.008-.007c0-.11-.088-.197-.197-.197-.11 0-.197.088-.197.197v.008zm0 .713v.008c0 .11.088.197.197.197.11 0 .197-.088.197-.197v-.008-.007c0-.11-.088-.197-.197-.197-.11 0-.197.088-.197.197v.008zm-.722-5.488v.01c0 .108.088.196.197.196.11 0 .198-.088.198-.197v-.008-.008c0-.11-.088-.197-.197-.197-.108 0-.196.088-.196.197v.01zm0 .713v.01c0 .108.088.196.197.196.11 0 .198-.087.198-.196v-.01-.007c0-.11-.088-.197-.197-.197-.108 0-.196.088-.196.197v.01zM18.6 20.61v.003c0 .11.09.197.198.197.11 0 .197-.088.197-.197v-.004-.004c0-.11-.088-.197-.197-.197-.11 0-.197.087-.197.196v.004zm0-.713v.003c0 .11.09.197.198.197.11 0 .197-.088.197-.197v-.004-.003c0-.11-.088-.197-.197-.197-.11 0-.197.088-.197.197v.004zm-3.53-4.062v.01c0 .108.088.196.197.196.11 0 .197-.087.197-.196v-.01-.007c0-.11-.088-.197-.197-.197-.11 0-.197.088-.197.197v.01zm-.7-3.105v.008c0 .11.088.197.197.197.11 0 .197-.088.197-.197v-.008-.007c0-.11-.088-.197-.197-.197-.11 0-.197.088-.197.197v.008zm.7.713v.01c0 .108.088.196.197.196.11 0 .197-.09.197-.198v-.01-.007c0-.11-.088-.197-.197-.197-.11 0-.197.088-.197.197v.01zm0-.713v.01c0 .108.088.196.197.196.11 0 .197-.088.197-.197v-.01-.008c0-.11-.088-.197-.197-.197-.11 0-.197.088-.197.197v.01zm.716.713v.01c0 .108.088.196.197.196.11 0 .197-.09.197-.198v-.01-.007c0-.11-.088-.197-.197-.197-.11 0-.197.088-.197.197v.01zm-1.416 0v.008c0 .11.088.198.197.198.11 0 .197-.088.197-.197v-.007-.007c0-.11-.088-.197-.197-.197-.11 0-.197.087-.197.196v.008zm-1.42-.713v.01c0 .108.087.196.196.196.11 0 .197-.088.197-.197v-.01-.008c0-.11-.088-.197-.197-.197-.11 0-.197.088-.197.197v.01zm0 .713v.01c0 .108.087.196.196.196.11 0 .197-.09.197-.198v-.01-.007c0-.11-.088-.197-.197-.197-.11 0-.197.088-.197.197v.01zm.698 0v.01c0 .108.088.196.197.196.11 0 .197-.09.197-.198v-.01-.007c0-.11-.088-.197-.197-.197-.11 0-.197.088-.197.197v.01zm0-.713v.01c0 .108.088.196.197.196.11 0 .197-.088.197-.197v-.01-.008c0-.11-.088-.197-.197-.197-.11 0-.197.088-.197.197v.01zm4.258 0v.01c0 .108.088.196.197.196.11 0 .197-.088.197-.197v-.01-.008c0-.11-.088-.197-.197-.197-.11 0-.197.088-.197.197v.01zm-.7 0v.008c0 .11.088.197.197.197.11 0 .197-.088.197-.197v-.008-.007c0-.11-.088-.197-.197-.197-.11 0-.197.088-.197.197v.008zm1.395 0v.004c0 .11.09.197.198.197.11 0 .197-.087.197-.196v-.004-.003c0-.11-.088-.197-.197-.197-.11 0-.197.088-.197.197v.004zm-.694.713v.01c0 .108.088.196.197.196.11 0 .197-.09.197-.198v-.01-.007c0-.11-.088-.197-.197-.197-.11 0-.197.088-.197.197v.01zm.695 0v.004c0 .11.09.197.198.197.11 0 .197-.088.197-.197v-.004-.003c0-.11-.088-.197-.197-.197-.11 0-.197.088-.197.197v.004zm-2.814-.713v.01c0 .108.088.196.197.196.11 0 .197-.088.197-.197v-.01-.008c0-.11-.088-.197-.197-.197-.11 0-.197.088-.197.197v.01zm1.42.713v.008c0 .11.088.198.197.198.11 0 .197-.088.197-.197v-.007-.007c0-.11-.088-.197-.197-.197-.11 0-.197.087-.197.196v.008zm-.722 0v.01c0 .108.088.196.197.196.11 0 .198-.09.198-.198v-.01-.007c0-.11-.088-.197-.197-.197-.108 0-.196.088-.196.197v.01zm0-.713v.01c0 .108.088.196.197.196.11 0 .198-.088.198-.197v-.01-.008c0-.11-.088-.197-.197-.197-.108 0-.196.088-.196.197v.01zm-2.114 4.783v.008c0 .11.088.198.197.198.11 0 .197-.088.197-.197v-.007-.007c0-.11-.088-.197-.197-.197-.11 0-.197.087-.197.196v.008zm2.836 0v.008c0 .11.088.198.197.198.11 0 .197-.088.197-.197v-.007-.007c0-.11-.088-.197-.197-.197-.11 0-.197.087-.197.196v.008zm0 .713v.008c0 .11.088.197.197.197.11 0 .197-.087.197-.196v-.008-.007c0-.11-.088-.198-.197-.198-.11 0-.197.088-.197.197v.007zm.7 0v.01c0 .108.088.196.197.196.11 0 .197-.088.197-.197v-.01-.007c0-.11-.088-.197-.197-.197-.11 0-.197.09-.197.198v.01zm-1.422-.713v.01c0 .108.088.196.197.196.11 0 .198-.09.198-.198v-.01-.007c0-.11-.088-.197-.197-.197-.108 0-.196.088-.196.197v.01zm1.422 0v.01c0 .108.088.196.197.196.11 0 .197-.09.197-.198v-.01-.007c0-.11-.088-.197-.197-.197-.11 0-.197.088-.197.197v.01zm-2.12.713v.01c0 .108.088.196.197.196.11 0 .197-.088.197-.197v-.01-.007c0-.11-.088-.197-.197-.197-.11 0-.197.09-.197.198v.01zm.698 0v.01c0 .108.088.196.197.196.11 0 .198-.088.198-.197v-.01-.007c0-.11-.088-.197-.197-.197-.108 0-.196.09-.196.198v.01zm-3.535 0v.01c0 .108.087.196.196.196.11 0 .197-.088.197-.197v-.01-.007c0-.11-.088-.197-.197-.197-.11 0-.197.09-.197.198v.01zm2.836-.713v.01c0 .108.088.196.197.196.11 0 .197-.09.197-.198v-.01-.007c0-.11-.088-.197-.197-.197-.11 0-.197.088-.197.197v.01zm-2.837 0v.01c0 .108.087.196.196.196.11 0 .197-.09.197-.198v-.01-.007c0-.11-.088-.197-.197-.197-.11 0-.197.088-.197.197v.01zm.698 2.384v.01c0 .108.088.196.197.196.11 0 .197-.088.197-.197v-.01-.007c0-.11-.088-.198-.197-.198-.11 0-.197.088-.197.197v.008zm0 .713v.01c0 .108.088.196.197.196.11 0 .197-.088.197-.197v-.01-.008c0-.11-.088-.197-.197-.197-.11 0-.197.088-.197.197v.01zm4.953-2.384v.003c0 .108.09.196.198.196.11 0 .197-.088.197-.197v-.005-.003c0-.11-.088-.197-.197-.197-.11 0-.197.088-.197.197v.004zm-2.116 2.384v.01c0 .108.088.196.197.196.11 0 .198-.088.198-.197v-.01-.008c0-.11-.088-.197-.197-.197-.108 0-.196.088-.196.197v.01zm2.117-3.097v.003c0 .11.09.197.198.197.11 0 .197-.088.197-.197v-.004-.003c0-.11-.088-.198-.197-.198-.11 0-.197.088-.197.197v.003zm-5.65 2.384v.01c0 .108.087.196.196.196.11 0 .197-.088.197-.197v-.01-.007c0-.11-.088-.198-.197-.198-.11 0-.197.088-.197.197v.008zm0 .713v.01c0 .108.087.196.196.196.11 0 .197-.088.197-.197v-.01-.008c0-.11-.088-.197-.197-.197-.11 0-.197.088-.197.197v.01zm2.12-2.384v.01c0 .108.088.196.197.196.11 0 .197-.088.197-.197v-.01-.007c0-.11-.088-.197-.197-.197-.11 0-.197.09-.197.198v.01zm3.53-3.104v.004c0 .11.09.197.198.197.11 0 .197-.088.197-.197v-.004-.003c0-.11-.088-.198-.197-.198-.11 0-.197.088-.197.197v.003zm-4.23 4.775v.008c0 .11.088.197.197.197.11 0 .197-.088.197-.197v-.008-.007c0-.11-.088-.197-.197-.197-.11 0-.197.088-.197.197v.008zm0 .713v.008c0 .11.088.197.197.197.11 0 .197-.088.197-.197v-.008-.007c0-.11-.088-.197-.197-.197-.11 0-.197.088-.197.197v.008zm-.722-3.097v.01c0 .108.088.196.197.196.11 0 .197-.09.197-.198v-.01-.007c0-.11-.088-.197-.197-.197-.11 0-.197.088-.197.197v.01zm0 .713v.01c0 .108.088.196.197.196.11 0 .197-.088.197-.197v-.01-.007c0-.11-.088-.197-.197-.197-.11 0-.197.09-.197.198v.01zm2.138 1.67v.01c0 .11.088.197.197.197.11 0 .197-.088.197-.197v-.01-.007c0-.11-.088-.198-.197-.198-.11 0-.197.088-.197.197v.008zm0 .714v.01c0 .108.088.196.197.196.11 0 .197-.088.197-.197v-.01-.008c0-.11-.088-.197-.197-.197-.11 0-.197.088-.197.197v.01zm-.716 0v.01c0 .108.088.196.197.196.11 0 .197-.088.197-.197v-.01-.008c0-.11-.088-.197-.197-.197-.11 0-.197.088-.197.197v.01zm0-.713v.01c0 .108.088.196.197.196.11 0 .197-.088.197-.197v-.01-.007c0-.11-.088-.198-.197-.198-.11 0-.197.088-.197.197v.008zm2.136-4.775v.008c0 .11.088.197.197.197.11 0 .197-.088.197-.197v-.008-.007c0-.11-.088-.197-.197-.197-.11 0-.197.088-.197.197v.008zm-2.136 2.39v.01c0 .11.088.197.197.197.11 0 .197-.09.197-.198v-.01-.007c0-.11-.088-.197-.197-.197-.11 0-.197.088-.197.197v.01zm3.53-1.677v.004c0 .108.09.196.198.196.11 0 .197-.088.197-.197v-.005-.003c0-.11-.088-.197-.197-.197-.11 0-.197.088-.197.197v.004zm-.694 0v.01c0 .108.088.196.197.196.11 0 .197-.087.197-.196v-.01-.007c0-.11-.088-.197-.197-.197-.11 0-.197.088-.197.197v.01zm-.7 0v.008c0 .11.088.197.197.197.11 0 .197-.088.197-.197v-.008-.007c0-.11-.088-.197-.197-.197-.11 0-.197.09-.197.198v.008zm-2.836 2.39v.01c0 .108.088.196.197.196.11 0 .197-.087.197-.196v-.008-.007c0-.11-.088-.198-.197-.198-.11 0-.197.088-.197.197v.007zm3.536-3.103v.01c0 .108.088.196.197.196.11 0 .197-.088.197-.197v-.008-.008c0-.11-.088-.197-.197-.197-.11 0-.197.088-.197.197v.01zM6.818 12.73v.01c0 .108.088.196.197.196.11 0 .197-.088.197-.197v-.01-.008c0-.11-.088-.197-.197-.197-.11 0-.197.088-.197.197v.01zm0 2.392v.01c0 .108.088.196.197.196.11 0 .197-.088.197-.197v-.008-.008c0-.11-.088-.197-.197-.197-.11 0-.197.088-.197.197v.01zm0 .713v.01c0 .108.088.196.197.196.11 0 .197-.087.197-.196v-.01-.007c0-.11-.088-.197-.197-.197-.11 0-.197.088-.197.197v.01zm-.7-.713v.008c0 .11.09.197.198.197.11 0 .197-.088.197-.197v-.008-.007c0-.11-.088-.197-.197-.197-.11 0-.197.088-.197.197v.008zm1.416.713v.01c0 .108.088.196.197.196.11 0 .198-.087.198-.196v-.01-.007c0-.11-.088-.197-.197-.197-.108 0-.196.088-.196.197v.01zm-1.415 0v.008c0 .11.087.197.196.197.11 0 .197-.088.197-.197v-.008-.007c0-.11-.088-.197-.197-.197-.11 0-.197.09-.197.198v.008zm-1.422-.713v.01c0 .108.088.196.197.196.11 0 .197-.088.197-.197v-.008-.008c0-.11-.088-.197-.197-.197-.11 0-.197.088-.197.197v.01zm.7.713v.01c0 .108.087.196.196.196.11 0 .197-.087.197-.196v-.01-.007c0-.11-.087-.197-.196-.197-.11 0-.197.088-.197.197v.01zm0-.713v.01c0 .108.087.196.196.196.11 0 .197-.088.197-.197v-.008-.008c0-.11-.087-.197-.196-.197-.11 0-.197.088-.197.197v.01zm2.136 0v.01c0 .108.088.196.197.196.11 0 .198-.088.198-.197v-.008-.008c0-.11-.088-.197-.197-.197-.108 0-.196.088-.196.197v.01zm1.42 0v.008c0 .11.09.197.198.197.11 0 .197-.088.197-.197v-.008-.007c0-.11-.09-.197-.198-.197-.11 0-.197.088-.197.197v.008zm1.396.713v.01c0 .108.088.196.197.196.11 0 .197-.087.197-.196v-.01-.007c0-.11-.088-.197-.197-.197-.11 0-.197.088-.197.197v.01zm-.696 0v.01c0 .108.088.196.197.196.11 0 .198-.087.198-.196v-.01-.007c0-.11-.088-.197-.197-.197-.108 0-.196.088-.196.197v.01zm0-.713v.01c0 .108.088.196.197.196.11 0 .198-.088.198-.197v-.008-.008c0-.11-.088-.197-.197-.197-.108 0-.196.088-.196.197v.01zm.696 0v.01c0 .108.088.196.197.196.11 0 .197-.088.197-.197v-.008-.008c0-.11-.088-.197-.197-.197-.11 0-.197.088-.197.197v.01zm-2.117 0v.01c0 .108.088.196.197.196.11 0 .197-.088.197-.197v-.008-.008c0-.11-.088-.197-.197-.197-.11 0-.197.088-.197.197v.01zm0 .713v.01c0 .108.088.196.197.196.11 0 .197-.087.197-.196v-.01-.007c0-.11-.088-.197-.197-.197-.11 0-.197.088-.197.197v.01zm.722 0v.008c0 .11.088.197.197.197.11 0 .197-.088.197-.197v-.008-.007c0-.11-.09-.197-.198-.197-.11 0-.197.09-.197.198v.008zm-4.257 0v.01c0 .108.088.196.197.196.11 0 .197-.087.197-.196v-.01-.007c0-.11-.088-.197-.197-.197-.11 0-.197.088-.197.197v.01zm3.535-3.105v.01c0 .108.088.196.197.196.11 0 .197-.088.197-.197v-.01-.008c0-.11-.088-.197-.197-.197-.11 0-.197.088-.197.197v.01zm-2.114.713v.008c0 .11.087.198.196.198.11 0 .197-.088.197-.197v-.007-.007c0-.11-.088-.197-.197-.197-.11 0-.197.087-.197.196v.008zm0-.713v.008c0 .11.087.197.196.197.11 0 .197-.088.197-.197v-.008-.007c0-.11-.088-.197-.197-.197-.11 0-.197.088-.197.197v.008zm-.723 0v.01c0 .108.088.196.197.196.11 0 .197-.088.197-.197v-.01-.008c0-.11-.087-.197-.196-.197-.11 0-.197.088-.197.197v.01zm2.137.713v.01c0 .108.088.196.197.196.11 0 .198-.09.198-.198v-.01-.007c0-.11-.088-.197-.197-.197-.108 0-.196.088-.196.197v.01zm-.716 0v.01c0 .108.088.196.197.196.11 0 .197-.09.197-.198v-.01-.007c0-.11-.088-.197-.197-.197-.11 0-.197.088-.197.197v.01zm-2.12 0v.01c0 .108.088.196.197.196.11 0 .197-.09.197-.198v-.01-.007c0-.11-.088-.197-.197-.197-.11 0-.197.088-.197.197v.01zm0-.713v.01c0 .108.088.196.197.196.11 0 .197-.088.197-.197v-.01-.008c0-.11-.088-.197-.197-.197-.11 0-.197.088-.197.197v.01zm.7.713v.01c0 .108.087.196.196.196.11 0 .197-.09.197-.198v-.01-.007c0-.11-.087-.197-.196-.197-.11 0-.197.088-.197.197v.01zm4.256-.713v.01c0 .108.088.196.197.196.11 0 .198-.088.198-.197v-.01-.008c0-.11-.088-.197-.197-.197-.108 0-.196.088-.196.197v.01zm-.7 0v.008c0 .11.09.197.198.197.11 0 .197-.088.197-.197v-.008-.007c0-.11-.09-.197-.198-.197-.11 0-.197.088-.197.197v.008zm.7.713v.01c0 .108.088.196.197.196.11 0 .198-.09.198-.198v-.01-.007c0-.11-.088-.197-.197-.197-.108 0-.196.088-.196.197v.01zm-2.12-.713v.01c0 .108.088.196.197.196.11 0 .198-.088.198-.197v-.01-.008c0-.11-.088-.197-.197-.197-.108 0-.196.088-.196.197v.01zm2.816.713v.01c0 .108.088.196.197.196.11 0 .197-.09.197-.198v-.01-.007c0-.11-.088-.197-.197-.197-.11 0-.197.088-.197.197v.01zm0-.713v.01c0 .108.088.196.197.196.11 0 .197-.088.197-.197v-.01-.008c0-.11-.088-.197-.197-.197-.11 0-.197.088-.197.197v.01zm0 7.167v.01c0 .108.088.196.197.196.11 0 .197-.088.197-.197v-.01-.007c0-.11-.088-.198-.197-.198-.11 0-.197.088-.197.197v.008zm-5.652-1.67v.008c0 .11.088.197.197.197.11 0 .197-.088.197-.197v-.01-.007c0-.11-.088-.197-.197-.197-.11 0-.197.09-.197.198v.01zm4.257-4.784v.008c0 .11.088.198.197.198.11 0 .197-.088.197-.197v-.007-.007c0-.11-.09-.197-.198-.197-.11 0-.197.087-.197.196v.008zm-.722 0v.01c0 .108.088.196.197.196.11 0 .197-.09.197-.198v-.01-.007c0-.11-.088-.197-.197-.197-.11 0-.197.088-.197.197v.01zM6.12 20.61v.008c0 .11.087.197.196.197.11 0 .197-.088.197-.197v-.008-.007c0-.11-.088-.197-.197-.197-.11 0-.197.088-.197.197v.008zm.698 0v.01c0 .108.088.196.197.196.11 0 .197-.088.197-.197v-.01-.008c0-.11-.088-.197-.197-.197-.11 0-.197.088-.197.197v.01zm-.7-.713v.008c0 .11.09.197.198.197.11 0 .197-.088.197-.197v-.008-.007c0-.11-.088-.197-.197-.197-.11 0-.197.088-.197.197v.008zm.7 0v.01c0 .108.088.196.197.196.11 0 .197-.088.197-.197v-.01-.007c0-.11-.088-.198-.197-.198-.11 0-.197.088-.197.197v.008zm.716.713v.01c0 .108.088.196.197.196.11 0 .198-.088.198-.197v-.01-.008c0-.11-.088-.197-.197-.197-.108 0-.196.088-.196.197v.01zm-2.836-.713v.01c0 .108.088.196.197.196.11 0 .197-.088.197-.197v-.01-.007c0-.11-.088-.198-.197-.198-.11 0-.197.088-.197.197v.008zm.7.713v.01c0 .108.087.196.196.196.11 0 .197-.088.197-.197v-.01-.008c0-.11-.087-.197-.196-.197-.11 0-.197.088-.197.197v.01zm0-.713v.01c0 .108.087.196.196.196.11 0 .197-.088.197-.197v-.01-.007c0-.11-.087-.198-.196-.198-.11 0-.197.088-.197.197v.008zm3.557 0v.008c0 .11.088.197.197.197.11 0 .197-.088.197-.197v-.008-.007c0-.11-.09-.197-.198-.197-.11 0-.197.088-.197.197v.008zm.7 0v.01c0 .108.087.196.196.196.11 0 .198-.088.198-.197v-.01-.007c0-.11-.088-.198-.197-.198-.108 0-.196.088-.196.197v.008zm0 .713v.01c0 .108.087.196.196.196.11 0 .198-.088.198-.197v-.01-.008c0-.11-.088-.197-.197-.197-.108 0-.196.088-.196.197v.01zm.695 0v.01c0 .108.088.196.197.196.11 0 .197-.088.197-.197v-.01-.008c0-.11-.088-.197-.197-.197-.11 0-.197.088-.197.197v.01zm-5.652 0v.01c0 .108.088.196.197.196.11 0 .197-.088.197-.197v-.01-.008c0-.11-.088-.197-.197-.197-.11 0-.197.088-.197.197v.01zm4.257 0v.008c0 .11.088.197.197.197.11 0 .197-.088.197-.197v-.008-.007c0-.11-.09-.197-.198-.197-.11 0-.197.088-.197.197v.008zm-.722 0v.01c0 .108.088.196.197.196.11 0 .197-.088.197-.197v-.01-.008c0-.11-.088-.197-.197-.197-.11 0-.197.088-.197.197v.01zm0-.713v.01c0 .108.088.196.197.196.11 0 .197-.088.197-.197v-.01-.007c0-.11-.088-.198-.197-.198-.11 0-.197.088-.197.197v.008zm-.7 0v.01c0 .108.09.196.198.196.11 0 .198-.088.198-.197v-.01-.007c0-.11-.088-.198-.197-.198-.108 0-.196.088-.196.197v.008zm2.12-1.67v.008c0 .11.09.197.198.197.11 0 .198-.088.198-.197v-.01-.007c0-.11-.088-.197-.197-.197-.108 0-.196.09-.196.198v.01zm-2.835 0v.008c0 .11.088.197.197.197.11 0 .197-.088.197-.197v-.01-.007c0-.11-.088-.197-.197-.197-.11 0-.197.09-.197.198v.01zm0-.714v.01c0 .108.088.196.197.196.11 0 .197-.09.197-.198v-.01-.007c0-.11-.088-.197-.197-.197-.11 0-.197.088-.197.197v.01zm3.532 0v.01c0 .108.088.196.197.196.11 0 .197-.09.197-.198v-.01-.007c0-.11-.088-.197-.197-.197-.11 0-.197.088-.197.197v.01zm-4.23 0v.008c0 .11.087.198.196.198.11 0 .197-.088.197-.197v-.007-.007c0-.11-.088-.197-.197-.197-.11 0-.197.087-.197.196v.008zm1.414 0v.01c0 .108.088.196.197.196.11 0 .198-.09.198-.198v-.01-.007c0-.11-.088-.197-.197-.197-.108 0-.196.088-.196.197v.01zm-2.137.713v.01c0 .108.088.196.197.196.11 0 .197-.088.197-.197v-.01-.007c0-.11-.087-.197-.196-.197-.11 0-.197.09-.197.198v.01zm0-.713v.01c0 .108.088.196.197.196.11 0 .197-.09.197-.198v-.01-.007c0-.11-.087-.197-.196-.197-.11 0-.197.088-.197.197v.01zm.722.713v.008c0 .11.087.197.196.197.11 0 .197-.087.197-.196v-.008-.007c0-.11-.088-.198-.197-.198-.11 0-.197.088-.197.197v.007zm1.414 0v.01c0 .108.088.196.197.196.11 0 .198-.088.198-.197v-.01-.007c0-.11-.088-.197-.197-.197-.108 0-.196.09-.196.198v.01zm1.42-.713v.008c0 .11.09.198.198.198.11 0 .197-.088.197-.197v-.007-.007c0-.11-.09-.197-.198-.197-.11 0-.197.087-.197.196v.008zm-4.256 0v.01c0 .108.088.196.197.196.11 0 .197-.09.197-.198v-.01-.007c0-.11-.088-.197-.197-.197-.11 0-.197.088-.197.197v.01zm4.956 0v.01c0 .108.088.196.197.196.11 0 .198-.09.198-.198v-.01-.007c0-.11-.088-.197-.197-.197-.108 0-.196.088-.196.197v.01zm.696.713v.01c0 .108.088.196.197.196.11 0 .197-.088.197-.197v-.01-.007c0-.11-.088-.197-.197-.197-.11 0-.197.09-.197.198v.01zm-2.117 0v.01c0 .108.088.196.197.196.11 0 .197-.088.197-.197v-.01-.007c0-.11-.088-.197-.197-.197-.11 0-.197.09-.197.198v.01zm.722 0v.008c0 .11.088.197.197.197.11 0 .197-.087.197-.196v-.008-.007c0-.11-.09-.198-.198-.198-.11 0-.197.088-.197.197v.007zm-.722-.713v.01c0 .108.088.196.197.196.11 0 .197-.09.197-.198v-.01-.007c0-.11-.088-.197-.197-.197-.11 0-.197.088-.197.197v.01zm17.237-4.07v.008c0 .11.088.198.197.198.11 0 .197-.088.197-.197v-.007-.007c0-.11-.088-.197-.197-.197-.11 0-.197.087-.197.196v.008zm-1.42-.713v.01c0 .108.087.196.196.196.11 0 .197-.088.197-.197v-.01-.008c0-.11-.088-.197-.197-.197-.11 0-.197.088-.197.197v.01zm0 .713v.01c0 .108.087.196.196.196.11 0 .197-.09.197-.198v-.01-.007c0-.11-.088-.197-.197-.197-.11 0-.197.088-.197.197v.01zm-.717-.713v.01c0 .108.088.196.197.196.11 0 .197-.088.197-.197v-.01-.008c0-.11-.088-.197-.197-.197-.11 0-.197.088-.197.197v.01zm1.415 0v.008c0 .11.088.197.197.197.11 0 .197-.088.197-.197v-.008-.007c0-.11-.088-.197-.197-.197-.11 0-.197.088-.197.197v.008zm0 .713v.008c0 .11.088.198.197.198.11 0 .197-.088.197-.197v-.007-.007c0-.11-.088-.197-.197-.197-.11 0-.197.087-.197.196v.008zm4.173-1.562c.018-.064-.01-.133-.072-.164l-3.754-.645c-.02-.01-.185-.014-.206-.014H7.995c-.02 0-.182.004-.2.01l-3.825.646c-.066.03-.098.1-.08.17-.003.01-.007.023-.007.036v4.746l.002.01-.002.01v4.745c0 .078.064.142.143.142H20.52l.01-.002.01.002h8.245c.08 0 .143-.064.143-.143v-4.746l-.002-.01.002-.01v-4.746c0-.014-.005-.026-.008-.038zM25 11.345l2.573.432h-6.9l-.863-.432H25zm-11.26 0h5.504l.81.432h-7.246l.932-.432zm-5.858 0h5.266l-.975.432h-6.86l2.568-.432zm4.245 9.112h-.718c-.12 0-.215-.096-.215-.214s.096-.213.214-.213h.717v.426zm0-.57h-.718c-.198 0-.358.16-.358.357 0 .197.16.357.357.357h.717v.686H4.17V19.2h7.957v.686zm0-1.75h-.718c-.12 0-.215-.096-.215-.214s.096-.213.214-.213h.717v.426zm0-.57h-.718c-.198 0-.358.16-.358.357 0 .197.16.357.357.357h.717v.634H4.17v-2.086h7.957v.74zm0-1.874h-.718c-.12 0-.215-.096-.215-.213 0-.12.096-.215.214-.215h.717v.427zm0-.57h-.718c-.198 0-.358.16-.358.356 0 .197.16.357.357.357h.717v.686H4.17v-2.085h7.957v.686zm0-1.75h-.718c-.12 0-.215-.096-.215-.214s.096-.214.214-.214h.717v.427zm0-.57h-.718c-.198 0-.358.16-.358.356s.16.357.357.357h.717v.634H4.17v-2.087h7.957v.74zm8.25 7.654h-.717c-.118 0-.214-.096-.214-.214s.096-.213.214-.213h.718v.426zm0-.57h-.717c-.197 0-.357.16-.357.357 0 .197.16.357.357.357h.718v.686H12.42V19.2h7.958v.686zm0-1.75h-.717c-.118 0-.214-.096-.214-.214s.096-.213.214-.213h.718v.426zm0-.57h-.717c-.197 0-.357.16-.357.357 0 .197.16.357.357.357h.718v.634H12.42v-2.086h7.958v.74zm0-1.874h-.717c-.118 0-.214-.096-.214-.213 0-.12.096-.215.214-.215h.718v.427zm0-.57h-.717c-.197 0-.357.16-.357.356 0 .197.16.357.357.357h.718v.686H12.42v-2.085h7.958v.686zm0-1.75h-.717c-.118 0-.214-.096-.214-.214s.096-.214.214-.214h.718v.427zm0-.57h-.717c-.197 0-.357.16-.357.356s.16.357.357.357h.718v.634H12.42v-2.087h7.958v.74zm8.265 7.654h-.718c-.118 0-.213-.096-.213-.214s.097-.213.214-.213h.718v.426zm0-.57h-.718c-.197 0-.357.16-.357.357 0 .197.16.357.357.357h.718v.686h-7.957V19.2h7.957v.686zm0-1.75h-.718c-.118 0-.213-.096-.213-.214s.097-.213.214-.213h.718v.426zm0-.57h-.718c-.197 0-.357.16-.357.357 0 .197.16.357.357.357h.718v.634h-7.957v-2.086h7.957v.74zm0-1.874h-.718c-.118 0-.213-.096-.213-.213 0-.12.097-.215.214-.215h.718v.427zm0-.57h-.718c-.197 0-.357.16-.357.356 0 .197.16.357.357.357h.718v.686h-7.957v-2.085h7.957v.686zm0-1.75h-.718c-.118 0-.213-.096-.213-.214s.097-.214.214-.214h.718v.427zm0-.57h-.718c-.197 0-.357.16-.357.356s.16.357.357.357h.718v.634h-7.957v-2.087h7.957v.74zm-5.31.64v.01c0 .11.09.197.198.197.11 0 .197-.09.197-.198v-.01-.007c0-.11-.088-.197-.197-.197-.11 0-.197.088-.197.197v.01zm2.837 0v.01c0 .11.087.197.196.197.11 0 .197-.09.197-.198v-.01-.007c0-.11-.088-.197-.197-.197-.11 0-.197.088-.197.197v.01zm0-.712v.01c0 .108.087.196.196.196.11 0 .197-.088.197-.197v-.01-.008c0-.11-.088-.197-.197-.197-.11 0-.197.088-.197.197v.01zm-4.957.713v.01c0 .108.088.196.197.196.11 0 .197-.09.197-.198v-.01-.007c0-.11-.088-.197-.197-.197-.11 0-.197.088-.197.197v.01zm1.42 0v.01c0 .108.09.196.198.196.11 0 .198-.09.198-.198v-.01-.007c0-.11-.088-.197-.197-.197-.108 0-.196.088-.196.197v.01zm-.72-.713v.008c0 .11.087.197.196.197.108 0 .196-.088.196-.197v-.008-.007c0-.11-.088-.197-.197-.197-.11 0-.198.088-.198.197v.008zm-.7 0v.01c0 .108.088.196.197.196.11 0 .197-.088.197-.197v-.01-.008c0-.11-.088-.197-.197-.197-.11 0-.197.088-.197.197v.01zm.7.713v.008c0 .11.087.198.196.198.108 0 .196-.088.196-.197v-.007-.007c0-.11-.088-.197-.197-.197-.11 0-.198.087-.198.196v.008zm.72-.713v.01c0 .108.09.196.198.196.11 0 .198-.088.198-.197v-.01-.008c0-.11-.088-.197-.197-.197-.108 0-.196.088-.196.197v.01zm-.72 7.167v.008c0 .11.087.197.196.197.108 0 .196-.088.196-.197v-.008-.007c0-.11-.088-.197-.197-.197-.11 0-.198.088-.198.197v.008zm0 .713v.008c0 .11.087.197.196.197.108 0 .196-.088.196-.197v-.008-.007c0-.11-.088-.197-.197-.197-.11 0-.198.088-.198.197v.008zm-.7-.713v.01c0 .108.088.196.197.196.11 0 .197-.088.197-.197v-.01-.007c0-.11-.088-.198-.197-.198-.11 0-.197.088-.197.197v.008zm2.12.713v.01c0 .108.088.196.197.196.11 0 .197-.088.197-.197v-.01-.008c0-.11-.088-.197-.197-.197-.11 0-.197.088-.197.197v.01zm-2.12 0v.01c0 .108.088.196.197.196.11 0 .197-.088.197-.197v-.01-.008c0-.11-.088-.197-.197-.197-.11 0-.197.088-.197.197v.01zm1.42-.713v.01c0 .108.09.196.198.196.11 0 .198-.088.198-.197v-.01-.007c0-.11-.088-.198-.197-.198-.108 0-.196.088-.196.197v.008zm0 .713v.01c0 .108.09.196.198.196.11 0 .198-.088.198-.197v-.01-.008c0-.11-.088-.197-.197-.197-.108 0-.196.088-.196.197v.01zm-.72-5.488v.008c0 .11.087.197.196.197.108 0 .196-.088.196-.197v-.008-.007c0-.11-.088-.197-.197-.197-.11 0-.198.088-.198.197v.008zm4.256 3.104v.01c0 .108.087.196.196.196.11 0 .197-.088.197-.197v-.01-.007c0-.11-.088-.197-.197-.197-.11 0-.197.09-.197.198v.01zm0-.713v.01c0 .108.087.196.196.196.11 0 .197-.09.197-.198v-.01-.007c0-.11-.088-.197-.197-.197-.11 0-.197.088-.197.197v.01zm-.7 0v.008c0 .11.088.198.197.198.11 0 .197-.088.197-.197v-.007-.007c0-.11-.088-.197-.197-.197-.11 0-.197.087-.197.196v.008zm1.395 0v.01c0 .108.088.196.197.196.11 0 .197-.09.197-.198v-.01-.007c0-.11-.09-.197-.198-.197-.11 0-.197.088-.197.197v.01zm-5.652-1.678v.01c0 .108.088.196.197.196.11 0 .197-.087.197-.196v-.01-.007c0-.11-.088-.197-.197-.197-.11 0-.197.088-.197.197v.01zm5.652 2.39v.01c0 .11.088.197.197.197.11 0 .197-.088.197-.197v-.01-.007c0-.11-.09-.197-.198-.197-.11 0-.197.09-.197.198v.01zm-.696 1.672v.01c0 .108.087.196.196.196.11 0 .197-.088.197-.197v-.01-.007c0-.11-.088-.198-.197-.198-.11 0-.197.088-.197.197v.008zm.695 0v.01c0 .108.088.196.197.196.11 0 .197-.088.197-.197v-.01-.007c0-.11-.09-.198-.198-.198-.11 0-.197.088-.197.197v.008zm0 .713v.01c0 .108.088.196.197.196.11 0 .197-.088.197-.197v-.01-.008c0-.11-.09-.197-.198-.197-.11 0-.197.088-.197.197v.01zm-.696 0v.01c0 .108.087.196.196.196.11 0 .197-.088.197-.197v-.01-.008c0-.11-.088-.197-.197-.197-.11 0-.197.088-.197.197v.01zm-.7-2.384v.008c0 .11.088.197.197.197.11 0 .197-.087.197-.196v-.008-.007c0-.11-.088-.198-.197-.198-.11 0-.197.088-.197.197v.007zm0-5.496v.008c0 .11.088.197.197.197.11 0 .197-.088.197-.197v-.008-.007c0-.11-.088-.197-.197-.197-.11 0-.197.088-.197.197v.008zm1.395 0v.01c0 .108.088.196.197.196.11 0 .197-.088.197-.197v-.01-.008c0-.11-.09-.197-.198-.197-.11 0-.197.088-.197.197v.01zm0 .713v.01c0 .108.088.196.197.196.11 0 .197-.09.197-.198v-.01-.007c0-.11-.09-.197-.198-.197-.11 0-.197.088-.197.197v.01zm-2.117 7.167v.008c0 .11.088.197.197.197.11 0 .197-.088.197-.197v-.008-.007c0-.11-.088-.197-.197-.197-.11 0-.197.088-.197.197v.008zm-1.415-.713v.01c0 .108.088.196.197.196.11 0 .197-.088.197-.197v-.01-.007c0-.11-.088-.198-.197-.198-.11 0-.197.088-.197.197v.008zm.716 0v.01c0 .108.087.196.196.196.11 0 .197-.088.197-.197v-.01-.007c0-.11-.088-.198-.197-.198-.11 0-.197.088-.197.197v.008zm0 .713v.01c0 .108.087.196.196.196.11 0 .197-.088.197-.197v-.01-.008c0-.11-.088-.197-.197-.197-.11 0-.197.088-.197.197v.01zm.698-.713v.008c0 .11.088.197.197.197.11 0 .197-.088.197-.197v-.008-.007c0-.11-.088-.197-.197-.197-.11 0-.197.088-.197.197v.008zm.722.713v.008c0 .11.088.197.197.197.11 0 .197-.088.197-.197v-.008-.007c0-.11-.088-.197-.197-.197-.11 0-.197.088-.197.197v.008zm0-.713v.008c0 .11.088.197.197.197.11 0 .197-.088.197-.197v-.008-.007c0-.11-.088-.197-.197-.197-.11 0-.197.088-.197.197v.008zm-2.836-4.062v.01c0 .108.088.196.197.196.11 0 .198-.087.198-.196v-.01-.007c0-.11-.088-.197-.197-.197-.108 0-.196.088-.196.197v.01zm2.836-.713v.008c0 .11.088.197.197.197.11 0 .197-.088.197-.197v-.008-.007c0-.11-.088-.197-.197-.197-.11 0-.197.088-.197.197v.008zm0 .713v.008c0 .11.088.197.197.197.11 0 .197-.088.197-.197v-.008-.007c0-.11-.088-.197-.197-.197-.11 0-.197.09-.197.198v.008zm.7 0v.01c0 .108.087.196.196.196.11 0 .197-.087.197-.196v-.01-.007c0-.11-.088-.197-.197-.197-.11 0-.197.088-.197.197v.01zm.695 0v.01c0 .108.088.196.197.196.11 0 .197-.087.197-.196v-.01-.007c0-.11-.09-.197-.198-.197-.11 0-.197.088-.197.197v.01zm0-.713v.01c0 .108.088.196.197.196.11 0 .197-.088.197-.197v-.008-.008c0-.11-.09-.197-.198-.197-.11 0-.197.088-.197.197v.01zm-.696 0v.01c0 .108.087.196.196.196.11 0 .197-.088.197-.197v-.008-.008c0-.11-.088-.197-.197-.197-.11 0-.197.088-.197.197v.01zm-1.422 0v.008c0 .11.088.197.197.197.11 0 .197-.088.197-.197v-.008-.007c0-.11-.088-.197-.197-.197-.11 0-.197.088-.197.197v.008zm-1.415.713v.01c0 .108.088.196.197.196.11 0 .197-.087.197-.196v-.01-.007c0-.11-.088-.197-.197-.197-.11 0-.197.088-.197.197v.01zm0-.713v.01c0 .108.088.196.197.196.11 0 .197-.088.197-.197v-.008-.008c0-.11-.088-.197-.197-.197-.11 0-.197.088-.197.197v.01zm1.415 2.39v.01c0 .108.088.196.197.196.11 0 .197-.088.197-.197v-.007-.007c0-.11-.088-.197-.197-.197-.11 0-.197.087-.197.196v.008zm0-1.677v.008c0 .11.088.197.197.197.11 0 .197-.088.197-.197v-.008-.007c0-.11-.088-.197-.197-.197-.11 0-.197.09-.197.198v.008zm-2.114-.713v.01c0 .108.088.196.197.196.11 0 .198-.088.198-.197v-.008-.008c0-.11-.088-.197-.197-.197-.108 0-.196.088-.196.197v.01zm1.415.713v.01c0 .108.087.196.196.196.11 0 .197-.087.197-.196v-.01-.007c0-.11-.088-.197-.197-.197-.11 0-.197.088-.197.197v.01zm0-.713v.01c0 .108.087.196.196.196.11 0 .197-.088.197-.197v-.008-.008c0-.11-.088-.197-.197-.197-.11 0-.197.088-.197.197v.01zm-2.138.713v.008c0 .11.088.197.197.197.108 0 .196-.088.196-.197v-.008-.007c0-.11-.088-.197-.197-.197-.11 0-.198.09-.198.198v.008zm.722 1.678v.01c0 .108.088.196.197.196.11 0 .198-.09.198-.198v-.01-.007c0-.11-.088-.197-.197-.197-.108 0-.196.088-.196.197v.01zm1.415.713v.01c0 .108.087.196.196.196.11 0 .197-.088.197-.197v-.01-.007c0-.11-.088-.197-.197-.197-.11 0-.197.09-.197.198v.01zm-.717 0v.01c0 .108.088.196.197.196.11 0 .197-.088.197-.197v-.01-.007c0-.11-.088-.197-.197-.197-.11 0-.197.09-.197.198v.01zm0-.713v.01c0 .108.088.196.197.196.11 0 .197-.09.197-.198v-.01-.007c0-.11-.088-.197-.197-.197-.11 0-.197.088-.197.197v.01zm.716 0v.01c0 .108.087.196.196.196.11 0 .197-.09.197-.198v-.01-.007c0-.11-.088-.197-.197-.197-.11 0-.197.088-.197.197v.01zm.698.713v.008c0 .11.088.197.197.197.11 0 .197-.087.197-.196v-.008-.007c0-.11-.088-.198-.197-.198-.11 0-.197.088-.197.197v.007zm-3.535-3.104v.01c0 .108.088.196.197.196.11 0 .197-.088.197-.197v-.008-.008c0-.11-.088-.197-.197-.197-.11 0-.197.088-.197.197v.01zm0 2.39v.01c0 .11.088.197.197.197.11 0 .197-.09.197-.198v-.01-.007c0-.11-.088-.197-.197-.197-.11 0-.197.088-.197.197v.01zm.7.714v.008c0 .11.087.197.196.197.108 0 .196-.087.196-.196v-.008-.007c0-.11-.088-.198-.197-.198-.11 0-.198.088-.198.197v.007zm-.7 0v.01c0 .108.088.196.197.196.11 0 .197-.088.197-.197v-.01-.007c0-.11-.088-.197-.197-.197-.11 0-.197.09-.197.198v.01zm.7-.713v.008c0 .11.087.198.196.198.108 0 .196-.088.196-.197v-.007-.007c0-.11-.088-.197-.197-.197-.11 0-.198.087-.198.196v.008zm.72.713v.01c0 .108.09.196.198.196.11 0 .198-.088.198-.197v-.01-.007c0-.11-.088-.197-.197-.197-.108 0-.196.09-.196.198v.01z"/></svg>