<svg xmlns="http://www.w3.org/2000/svg" viewBox="0 0 32 32"><path d="M14.42 19.04h5.42c.1.32.48 1.04 1.73 1.04h.32l-.18-.26s-.2-.31-.14-.56c.02-.09.08-.16.17-.22h1.54c.32 0 .59-.26.59-.59v-4.24c0-.32-.26-.59-.59-.59h-4.69v-2.64c0-.32-.26-.59-.59-.59H9.13c-.32 0-.59.26-.59.59v4.24c0 .32.26.59.59.59h1.54c.09.06.15.13.17.22.06.25-.14.56-.14.56l-.18.26h.32c1.25 0 1.63-.73 1.73-1.04h1.26v2.64c0 .33.26.59.59.59zm4.16-3.81v-1.26h4.69c.14 0 .25.11.25.25v4.24c0 .14-.11.25-.25.25h-1.63l-.04.02c-.2.11-.32.26-.37.46s0 .4.05.55c-1.03-.11-1.15-.85-1.16-.88l-.02-.15h-5.69c-.14 0-.25-.11-.25-.25v-2.64h3.82c.33-.01.6-.27.6-.59zm-4.42.25v-1.26c0-.14.11-.25.25-.25h3.83v1.26c0 .14-.11.25-.25.25h-3.83zm-1.87 0l-.02.15c-.01.03-.12.77-1.16.88.06-.15.1-.35.05-.55-.05-.2-.17-.35-.37-.46l-.04-.02H9.13c-.14 0-.25-.11-.25-.25v-4.24c0-.14.11-.25.25-.25h8.85c.14 0 .25.11.25.25v2.64h-3.82c-.32 0-.59.26-.59.59v1.26h-1.53zm13.07-9.2H6.64c-.2 0-.36.16-.36.36v18.72c0 .2.16.36.36.36h2.31c.03 0 .06 0 .09-.01l6.56-1.59c.19-.05.31-.24.26-.43-.05-.19-.24-.31-.44-.26L8.9 25H7V7h18v18h-8.92c-.2 0-.36.16-.36.36s.16.36.36.36h9.28c.2 0 .36-.16.36-.36V6.64c0-.2-.16-.36-.36-.36z"/></svg>