<svg xmlns="http://www.w3.org/2000/svg" viewBox="0 0 32 32"><path d="M13.6 8.81c1.28 0 2.32-1.04 2.32-2.32s-1.04-2.32-2.32-2.32-2.32 1.04-2.32 2.32 1.04 2.32 2.32 2.32zm0-4.03c.94 0 1.71.77 1.71 1.71S14.54 8.2 13.6 8.2s-1.71-.77-1.71-1.71.77-1.71 1.71-1.71zM23.86 23.1c-.16 0-.28.02-.33.04l-.68.07-1.52-4.65c-.65-1.85-2.44-1.94-2.8-1.94h-2.46v-.72h1.82c.66 0 .99-.29 1.15-.53.17-.26.18-.53.18-.56 0-.67-.51-1.09-1.32-1.09h-1.82v-2.08c0-1.04-1.07-2.14-2.07-2.14h-.44c-.98 0-2.07.79-2.07 1.84v6.19c-1.54 1-2.56 2.73-2.56 4.69 0 3.08 2.51 5.59 5.59 5.59 2.67 0 4.9-1.88 5.46-4.38l.63 1.96c.04.12.16.2.28.2.03 0 .05 0 .08-.01l3.91-1.11c.15-.04.24-.19.21-.34-.14-.65-.59-1.04-1.24-1.03zM12.07 11.36c0-.69.81-1.25 1.48-1.25h.44c.68 0 1.48.84 1.48 1.55v2.08h-1.23c-.16 0-.29.13-.29.3s.13.3.29.3h3.64c.49 0 .73.17.73.49 0 .08-.05.5-.73.5h-3.47c-.01 0-.55.05-.92-.29-.24-.22-.36-.56-.36-1.02v-2.14c0-.16-.13-.3-.3-.3-.16 0-.3.13-.3.3V14c0 .64.19 1.13.56 1.47.43.39.99.44 1.24.44H15.47v.84c-.32-.06-.64-.09-.97-.09-.88 0-1.7.21-2.44.57 0-1.65.01-5.87.01-5.87zm2.44 15.89c-2.76 0-5-2.24-5-5s2.24-5 5-5 5 2.24 5 5-2.25 5-5 5zm6.56-2.29l-.99-3.06c-.13-2.07-1.39-3.84-3.17-4.69h1.61c.4 0 1.73.11 2.24 1.54l1.59 4.87c.04.13.17.22.31.2l.94-.1c.01 0 .03 0 .04-.01 0 0 .09-.02.21-.02.27 0 .46.1.57.32l-3.35.95zm-6.56-6.9c-2.3 0-4.18 1.87-4.18 4.18s1.87 4.18 4.18 4.18 4.18-1.87 4.18-4.18-1.88-4.18-4.18-4.18zm0 7.77c-1.98 0-3.59-1.61-3.59-3.59s1.61-3.59 3.59-3.59 3.59 1.61 3.59 3.59c-.01 1.98-1.62 3.59-3.59 3.59z"/></svg>