<svg xmlns="http://www.w3.org/2000/svg" viewBox="0 0 32 32"><path d="M8.55 18.79h15.1c.42 0 .76-.37.76-.82V9.22c0-.45-.34-.82-.76-.82h-7.08c0-.02.01-.04.01-.06 0-.27-.22-.48-.48-.48s-.48.22-.48.48c0 .02 0 .04.01.06H8.55c-.42 0-.77.37-.77.82v8.76c0 .45.35.81.77.81zm15.1-.46h-6.37c.18-.11.34-.25.49-.4l5.7-4.9c.01-.01.02-.01.03-.02.18-.14.33-.29.45-.44v5.41c.01.19-.13.35-.3.35zm-4.41-4.36c.72.11 1.78.05 2.74-.23l-3.35 2.88c.39-.87.56-1.85.61-2.65zm-11-4.75c0-.2.14-.36.31-.36h15.1c.17 0 .31.16.31.36V11.46c0 .41-.21.76-.56 1.08-.01.01-.02.01-.03.02l-.16.14c-1.12.84-3.18 1.03-4.12.8-.07-.02-.13 0-.19.04-.05.04-.09.1-.09.17 0 .02 0 .11-.01.23h-2.03c-.1 0-.18.08-.18.18s.08.18.18.18h2c-.03.25-.07.56-.15.89h-1.85c-.1 0-.18.08-.18.18s.08.18.18.18h1.77c-.08.29-.18.6-.31.89h-1.46c-.1 0-.18.08-.18.18s.08.18.18.18h1.28c-.16.29-.34.57-.57.8l-.15.13c-.02.01-.03.03-.04.05-.36.31-.8.5-1.35.55H8.55c-.17 0-.31-.16-.31-.36V9.22zm-.51 11.7h16.76c.08 0 .15-.07.15-.15 0-.08-.07-.15-.15-.15H7.73c-.09 0-.15.07-.15.15s.07.15.15.15zm-1.6 1.91c0 .08.07.15.15.15h19.27c.08 0 .15-.07.15-.15 0-.08-.07-.15-.15-.15H6.29c-.09 0-.15.07-.16.15zm21.97.66l-2.39-2.98c-.03-.33-.19-.62-.43-.82.26-.23.43-.56.43-.93V8.32c0-.68-.56-1.24-1.24-1.24H7.72c-.68 0-1.24.56-1.24 1.24v10.44c0 .37.17.7.43.93-.23.2-.39.49-.43.82L3.9 23.49c-.05.06-.08.13-.08.2 0 .82.31 1.24.93 1.24h22.46c.62 0 .93-.42.93-1.24.02-.08 0-.15-.04-.2zM7.09 8.32c0-.35.28-.63.63-.63h16.75c.35 0 .63.28.63.63v10.44c0 .35-.28.63-.63.63H7.72c-.35 0-.63-.28-.63-.63V8.32zm20.14 15.99H4.77c-.13 0-.3 0-.32-.52l2.57-2.97c.05-.06.07-.13.07-.2 0-.35.28-.63.63-.63h16.75c.35 0 .63.28.63.63 0 .07.02.14.07.19l2.38 2.97c-.02.53-.19.53-.32.53zM7.19 21.95h17.78c.08 0 .15-.07.15-.15 0-.08-.07-.15-.15-.15H7.19c-.09 0-.15.07-.15.15s.06.15.15.15zm3.19-11.43h4.99c.1 0 .18-.08.18-.18s-.08-.18-.18-.18h-4.99c-.1 0-.18.08-.18.18s.08.18.18.18zm0 1.26h4.99c.1 0 .18-.08.18-.18s-.08-.18-.18-.18h-4.99c-.1 0-.18.08-.18.18s.08.18.18.18zm0 1.26h4.99c.1 0 .18-.08.18-.18s-.08-.18-.18-.18h-4.99c-.1 0-.18.08-.18.18s.08.18.18.18zm0 1.26h4.99c.1 0 .18-.08.18-.18s-.08-.18-.18-.18h-4.99c-.1 0-.18.08-.18.18s.08.18.18.18zm0 1.25h4.99c.1 0 .18-.08.18-.18s-.08-.18-.18-.18h-4.99c-.1 0-.18.08-.18.18s.08.18.18.18zm0 1.26h4.99c.1 0 .18-.08.18-.18s-.08-.18-.18-.18h-4.99c-.1 0-.18.08-.18.18s.08.18.18.18zm6.38-6.29h4.99c.1 0 .18-.08.18-.18s-.08-.18-.18-.18h-4.99c-.1 0-.18.08-.18.18s.08.18.18.18zm0 1.26h4.99c.1 0 .18-.08.18-.18s-.08-.18-.18-.18h-4.99c-.1 0-.18.08-.18.18s.08.18.18.18zm0 1.26h4.99c.1 0 .18-.08.18-.18s-.08-.18-.18-.18h-4.99c-.1 0-.18.08-.18.18s.08.18.18.18z"/></svg>