<svg id="Layer_1" xmlns="http://www.w3.org/2000/svg" viewBox="0 0 32 32"><style>.st0{fill:#010101;}</style><path class="st0" d="M22.55 13.96c-.17 0-.33 0-.5.01-2.73-1.82-6.24-2.4-10.17-1.67-3.29.66-7.26 1.25-7.92 1.08-.14-.03-.28.04-.34.17-.31.7.18 2.61 1 3.87.62.95 1.35 1.46 2.12 1.46h.76c.36.92 1.25 1.57 2.29 1.57 1.08 0 2-.7 2.33-1.68.01 0 .03.01.04.01h9.21c.01 0 .03-.01.04-.01.33.97 1.25 1.68 2.33 1.68s2-.7 2.33-1.68c.01 0 .03.01.04.01h3.03c.91 0 1.38-.36 1.38-1.08-.01-.89-3.68-3.74-7.97-3.74zm-1.6.03c-.78.02-1.53.05-2.23.09-1 .04-1.94.09-2.75.09-1.52 0-2.55-.62-3.39-1.38 3.18-.5 6.04-.08 8.37 1.2zM9.79 19.85c-1.03 0-1.87-.84-1.87-1.86s.84-1.86 1.87-1.86 1.86.84 1.86 1.86-.84 1.86-1.86 1.86zm13.94 0c-1.03 0-1.86-.84-1.86-1.86s.84-1.86 1.86-1.86 1.86.84 1.86 1.86-.83 1.86-1.86 1.86zm5.41-1.67h-2.95c0-.06.01-.13.01-.19 0-1.35-1.1-2.46-2.46-2.46-1.35 0-2.46 1.1-2.46 2.46 0 .07 0 .13.01.19h-9.05c.01-.06.01-.13.01-.19 0-1.35-1.1-2.46-2.46-2.46s-2.46 1.1-2.46 2.46c0 .1.01.2.02.29h-.61c-.7 0-1.27-.65-1.62-1.19-.69-1.06-1.05-2.48-1-3.1 1.33.06 5.26-.59 7.73-1.08.95.93 2.19 1.84 4.12 1.84.82 0 1.77-.04 2.77-.09 1.16-.05 2.49-.11 3.81-.11 4.1 0 7.24 2.69 7.36 3.14.01.27-.05.49-.77.49z"/><path class="st0" d="M21.67 20h-3.63c-.08 0-.15.07-.15.15s.07.15.15.15h3.63c.08 0 .15-.07.15-.15s-.07-.15-.15-.15zM7.92 20H3.6c-.08 0-.15.07-.15.15s.07.15.15.15h4.32c.08 0 .15-.07.15-.15S8 20 7.92 20zM3.3 13.32H1.63c-.08 0-.15.07-.15.15s.07.15.15.15H3.3c.08 0 .15-.07.15-.15 0-.08-.06-.15-.15-.15zM8.31 11.85h4.81c.08 0 .15-.07.15-.15s-.07-.15-.15-.15H8.31c-.08 0-.15.07-.15.15s.07.15.15.15zM9.79 16.45c-.85 0-1.54.69-1.54 1.54s.69 1.54 1.54 1.54 1.54-.69 1.54-1.54-.69-1.54-1.54-1.54zm0 2.78c-.69 0-1.24-.56-1.24-1.25s.56-1.25 1.24-1.25c.69 0 1.24.56 1.24 1.25s-.56 1.25-1.24 1.25zM23.73 16.45c-.85 0-1.54.69-1.54 1.54s.69 1.54 1.54 1.54 1.54-.69 1.54-1.54-.69-1.54-1.54-1.54zm0 2.78c-.69 0-1.25-.56-1.25-1.25s.56-1.25 1.25-1.25 1.25.56 1.25 1.25-.56 1.25-1.25 1.25z"/></svg>