<svg xmlns="http://www.w3.org/2000/svg" width="32" height="32" viewBox="0 0 32 32"><path d="M12.607 12.56c.954 0 1.73-.776 1.73-1.73 0-.955-.776-1.73-1.73-1.73s-1.73.775-1.73 1.73c0 .953.775 1.73 1.73 1.73zm0-2.85c.616 0 1.118.503 1.118 1.12 0 .615-.502 1.117-1.118 1.117-.616 0-1.118-.502-1.118-1.118 0-.618.5-1.12 1.117-1.12zm10.963-.988c-.95.1-1.64.956-1.538 1.905.094.882.834 1.547 1.72 1.547.06 0 .123-.003.186-.01.95-.102 1.638-.956 1.537-1.905-.1-.944-.942-1.64-1.905-1.538zm.302 2.833c-.622.064-1.165-.384-1.23-.993-.066-.613.38-1.164.993-1.23.04-.004.08-.006.12-.006.572 0 1.05.43 1.11 1 .065.612-.38 1.164-.993 1.23zm4.9-2.017c-.02-.148-.144-.26-.293-.267l-1.513-.058c-.085-.223-.19-.434-.314-.627s-.27-.376-.44-.547l.58-1.398c.057-.138.006-.298-.12-.377-.38-.238-.78-.446-1.194-.618-.138-.058-.3-.008-.378.12l-.807 1.278c-.462-.073-.938-.05-1.393.066l-.922-1.202c-.09-.118-.254-.154-.387-.084-.394.21-.774.454-1.13.725-.12.09-.155.253-.086.386l.706 1.338c-.235.29-.42.614-.55.96-.077-.393-.18-.778-.31-1.143-.05-.14-.198-.223-.342-.197l-1.476.264c-.162-.35-.36-.686-.588-1.01l.97-1.15c.095-.113.095-.28-.002-.395-.288-.34-.608-.66-.95-.95-.115-.097-.282-.097-.397 0l-1.15.97c-.322-.23-.66-.427-1.01-.59l.265-1.477c.026-.147-.057-.292-.198-.342-.416-.15-.854-.266-1.3-.346-.15-.028-.292.057-.342.198l-.51 1.414c-.424-.043-.743-.043-1.167 0l-.51-1.414c-.05-.14-.196-.225-.342-.198-.443.08-.88.196-1.3.346-.14.05-.223.195-.197.342l.264 1.478c-.35.162-.686.36-1.008.59l-1.15-.97c-.114-.097-.282-.097-.396 0-.343.29-.663.61-.95.95-.098.115-.098.282 0 .397l.968 1.15c-.23.323-.426.66-.588 1.01l-1.478-.265c-.147-.027-.292.058-.342.198-.15.415-.266.853-.346 1.3-.026.147.057.292.198.342l1.413.51c-.02.21-.03.402-.03.584 0 .184.01.373.03.583l-1.412.51c-.14.052-.224.197-.198.343.08.446.197.883.346 1.3.05.14.196.226.342.198l1.478-.264c.162.35.36.686.588 1.01l-.97 1.15c-.095.114-.095.28.002.395.29.34.608.66.95.95.114.097.28.097.396 0l1.15-.968c.323.23.66.426 1.008.588l-.264 1.478c-.026.147.057.29.198.342.415.15.853.266 1.3.346.018.004.037.006.054.006.024 0 .046-.006.07-.01-.05.105-.04.233.04.326l.964 1.145c-.255.415-.44.864-.554 1.34l-1.493.127c-.15.013-.267.13-.28.28-.037.446-.037.898 0 1.344.012.15.13.268.28.28l1.493.127c.113.476.298.925.554 1.34l-.964 1.145c-.096.114-.096.282 0 .396.292.343.61.663.95.95.115.098.282.098.397.002l1.145-.964c.415.255.864.44 1.34.554l.128 1.493c.013.15.13.268.28.28.222.02.448.03.672.03s.45-.01.672-.03c.15-.01.268-.13.28-.28l.127-1.492c.476-.114.925-.3 1.34-.554l1.145.964c.114.096.28.096.396 0 .34-.287.66-.607.952-.95.097-.115.097-.283 0-.397l-.964-1.144c.255-.415.44-.864.554-1.34l1.493-.128c.15-.013.267-.13.28-.28.037-.446.037-.898 0-1.344-.012-.15-.13-.268-.28-.28l-1.493-.127c-.114-.477-.3-.926-.554-1.34l.965-1.145c.096-.114.096-.28 0-.395-.286-.338-.606-.658-.95-.95-.115-.098-.282-.098-.397-.002l-1.145.965c-.413-.255-.862-.44-1.34-.554l-.116-1.362.228.193c.114.096.28.096.395 0 .342-.29.662-.608.95-.95.098-.115.098-.282.002-.397l-.97-1.15c.23-.322.426-.66.588-1.01l1.478.265c.145.026.292-.057.342-.198.15-.415.265-.852.346-1.3.026-.147-.057-.292-.198-.342l-.793-.286.963.037c.085.223.19.433.314.627.126.195.273.378.438.546l-.578 1.398c-.057.138-.006.297.12.377.376.236.777.444 1.194.618.04.016.08.024.118.024.103 0 .202-.05.26-.143l.805-1.278c.462.074.94.05 1.394-.066l.923 1.2c.09.12.254.155.387.085.398-.21.778-.455 1.13-.726.12-.092.156-.255.086-.387l-.705-1.34c.298-.364.517-.786.643-1.238l1.5-.198c.147-.02.26-.143.265-.293.016-.448-.005-.9-.063-1.343zm-17.216 8.935l.468-1.295c.43.042.752.042 1.166 0l.51 1.413c.01.025.024.044.038.064l-1.058-.892c-.114-.096-.282-.096-.396 0-.258.22-.498.46-.73.71zm6.958.888c.113.08.265.07.37-.017l1.12-.942c.18.165.352.337.514.516l-.94 1.118c-.09.106-.097.258-.02.37.318.462.53.978.635 1.534.026.135.138.237.275.25l1.457.123c.012.243.012.487 0 .73l-1.457.123c-.137.012-.25.114-.275.25-.103.554-.316 1.07-.633 1.532-.078.114-.07.266.018.37l.942 1.118c-.164.18-.336.353-.515.515l-1.118-.94c-.106-.09-.258-.097-.37-.02-.462.318-.978.53-1.534.634-.135.026-.238.138-.25.275l-.123 1.457c-.243.012-.486.012-.728 0l-.124-1.457c-.012-.137-.114-.25-.25-.275-.556-.103-1.072-.316-1.533-.633-.114-.08-.266-.072-.37.017l-1.118.94c-.18-.162-.35-.334-.515-.514l.94-1.117c.09-.106.097-.257.02-.37-.318-.463-.53-.98-.634-1.534-.026-.135-.138-.238-.275-.25l-1.457-.123c-.012-.243-.012-.487 0-.73l1.457-.123c.137-.012.25-.114.275-.25.103-.554.317-1.07.634-1.532.078-.114.07-.266-.018-.37l-.94-1.118c.162-.18.335-.352.514-.515l1.117.94c.106.09.257.098.37.02.463-.318.98-.53 1.534-.634.134-.026.237-.138.248-.275l.123-1.457c.245-.012.487-.012.73 0l.124 1.457c.012.137.114.25.25.275.556.104 1.07.317 1.532.633zm-2.8-2.964c.194-.11.386-.228.573-.36l.425.357c-.332-.02-.666-.02-1 .002zm4.014-3.283l-1.456-.26c-.143-.026-.282.05-.337.184-.19.454-.442.89-.755 1.296-.088.114-.084.274.01.384l.954 1.134c-.163.18-.336.353-.515.516l-1.134-.955c-.11-.092-.27-.096-.384-.008-.41.314-.846.568-1.296.755-.133.055-.21.195-.185.337l.26 1.456c-.228.073-.463.135-.702.187l-.504-1.394c-.044-.122-.16-.202-.288-.202-.013 0-.026.002-.04.004-.562.073-.912.075-1.5 0-.143-.018-.278.065-.327.2l-.505 1.394c-.24-.05-.474-.114-.703-.187l.26-1.455c.026-.142-.05-.282-.184-.337-.452-.188-.888-.442-1.296-.755-.114-.087-.274-.084-.384.01l-1.134.954c-.18-.163-.352-.335-.515-.514l.954-1.134c.093-.11.096-.27.01-.385-.314-.408-.568-.843-.756-1.296-.055-.134-.196-.21-.337-.185l-1.455.26c-.073-.23-.135-.464-.187-.703l1.394-.504c.135-.05.218-.185.2-.328-.037-.284-.054-.522-.054-.75 0-.23.018-.467.054-.75.02-.142-.064-.28-.2-.327L5.298 9.25c.05-.24.114-.475.187-.704l1.456.26c.142.025.283-.05.338-.184.188-.452.442-.89.755-1.296.088-.114.084-.274-.01-.384L7.07 5.81c.162-.18.334-.352.514-.516l1.134.956c.11.093.27.096.384.01.406-.314.842-.568 1.296-.757.133-.055.21-.195.184-.337l-.26-1.455c.23-.073.465-.135.703-.186l.504 1.394c.048.134.184.218.326.2.58-.074.923-.074 1.5 0 .142.02.28-.065.327-.2l.504-1.394c.24.05.474.114.703.187l-.26 1.457c-.026.142.05.282.184.337.453.19.89.442 1.297.755.115.086.275.083.385-.01l1.133-.955c.18.163.352.335.515.514l-.955 1.133c-.093.11-.096.27-.01.384.314.407.567.843.756 1.296.055.133.198.21.337.184l1.456-.26c.073.228.135.463.187.703l-1.394.504c-.136.05-.22.186-.2.328.037.284.054.522.054.75 0 .226-.018.464-.054.75-.02.142.064.28.2.328l1.394.504c-.05.238-.114.473-.187.702zm7.053-2.322c-.128.018-.232.114-.26.24-.105.496-.343.955-.688 1.33-.088.095-.107.236-.046.35l.68 1.292c-.197.14-.402.27-.612.393l-.89-1.158c-.078-.103-.214-.145-.337-.105-.484.157-1.005.182-1.496.07-.125-.028-.257.027-.325.136l-.777 1.232c-.222-.102-.438-.213-.646-.334l.558-1.348c.05-.12.018-.258-.078-.345-.19-.172-.356-.365-.49-.573-.132-.206-.238-.438-.316-.686-.04-.123-.15-.21-.28-.214l-1.458-.057c-.023-.242-.034-.486-.034-.728l1.445-.19c.128-.018.232-.114.26-.24.104-.495.342-.955.69-1.33.087-.094.106-.235.045-.35l-.68-1.29c.198-.14.402-.272.612-.393l.89 1.158c.078.103.213.144.337.105.483-.157 1.003-.182 1.494-.07.127.03.258-.026.327-.135l.778-1.233c.22.102.437.213.647.335L25.572 8c-.05.12-.02.257.078.344.194.176.36.37.49.575s.24.436.316.684c.04.124.15.21.28.215l1.46.056c.023.24.034.484.034.727l-1.445.19zM14.515 22.676c0 .954.776 1.73 1.73 1.73.955 0 1.73-.776 1.73-1.73s-.775-1.73-1.73-1.73c-.953-.002-1.73.775-1.73 1.73zm2.85 0c0 .616-.503 1.118-1.12 1.118s-1.117-.502-1.117-1.118.502-1.118 1.118-1.118 1.118.5 1.118 1.118zM12.606 7.882c-.38 0-.753.072-1.103.214-.078.032-.116.12-.085.2.03.078.12.116.2.085.313-.126.645-.19.987-.19 1.456 0 2.64 1.184 2.64 2.64 0 1.456-1.184 2.64-2.64 2.64-1.456 0-2.64-1.184-2.64-2.64 0-.516.15-1.016.43-1.446.047-.07.028-.166-.043-.212-.07-.046-.166-.026-.212.044-.315.48-.48 1.038-.48 1.614 0 1.625 1.32 2.947 2.946 2.947 1.625 0 2.946-1.322 2.946-2.947s-1.322-2.947-2.947-2.947zm.69 14.793c0 1.625 1.323 2.947 2.948 2.947.83 0 1.626-.353 2.184-.97.056-.062.05-.16-.01-.215-.063-.057-.16-.052-.217.01-.5.552-1.214.868-1.958.868-1.456 0-2.64-1.184-2.64-2.64 0-1.456 1.184-2.64 2.64-2.64 1.456 0 2.64 1.184 2.64 2.64 0 .177-.018.355-.053.53-.017.083.037.164.12.18.082.017.164-.036.18-.12.04-.194.06-.393.06-.59 0-1.625-1.322-2.946-2.946-2.946-1.625 0-2.947 1.32-2.947 2.946z"/></svg>