<svg xmlns="http://www.w3.org/2000/svg" viewBox="0 0 36 36"><title>Icon-Red_Hat-Objects-Target-A-Black</title><path d="M30.53 9.47a.75.75 0 0 0 .16-.82.74.74 0 0 0-.69-.46h-2.6v-2.6a.75.75 0 0 0-1.29-.53l-3.42 3.42A11.48 11.48 0 0 0 16.91 7a11.66 11.66 0 1 0 11.66 11.63 11.53 11.53 0 0 0-1.51-5.71h.05zM24 9.32l1.9-1.92v1.21L24 10.54zm-.55 9.31A6.52 6.52 0 1 1 21 13.54l-1.61 1.61a4.2 4.2 0 0 0-2.44-.78 4.26 4.26 0 1 0 4.26 4.26 4.21 4.21 0 0 0-.76-2.42l1.55-1.6a6.49 6.49 0 0 1 1.42 4.02zm-7.25.77a.77.77 0 0 0 .53.22.79.79 0 0 0 .53-.22l2.09-2.09a2.68 2.68 0 0 1 .35 1.32 2.79 2.79 0 1 1-1.4-2.39l-2.1 2.1a.75.75 0 0 0-.03 1.06zm10.9-.77A10.16 10.16 0 1 1 16.91 8.47a10 10 0 0 1 5.56 1.68V12l-.44.44a8 8 0 1 0 1.06 1.06l.42-.43h1.91a10.07 10.07 0 0 1 1.65 5.56zm-.8-7H25l1.93-1.92h1.25z"/></svg>