<svg xmlns="http://www.w3.org/2000/svg" width="32" height="32" viewBox="0 0 32 32"><path d="M12.602 8.81c1.28 0 2.323-1.04 2.323-2.322 0-1.28-1.042-2.323-2.323-2.323-1.28 0-2.323 1.042-2.323 2.323 0 1.28 1.04 2.323 2.322 2.323zm0-4.032c.943 0 1.71.767 1.71 1.71s-.767 1.71-1.71 1.71c-.942 0-1.71-.767-1.71-1.71 0-.942.767-1.71 1.71-1.71zM22.86 23.094c-.158 0-.282.024-.336.036l-.682.07-1.52-4.65c-.652-1.85-2.443-1.943-2.796-1.943h-2.459v-.71h1.818c.664 0 .99-.286 1.148-.528.172-.264.177-.528.177-.556 0-.67-.508-1.085-1.324-1.085h-1.818v-2.08c0-1.04-1.067-2.14-2.075-2.14h-.442c-.978 0-2.074.788-2.074 1.843v6.192c-1.54.998-2.564 2.727-2.564 4.694 0 3.084 2.51 5.593 5.594 5.593 2.67 0 4.904-1.88 5.46-4.384l.63 1.957c.04.124.157.204.282.204.026 0 .053-.002.08-.01l3.915-1.107c.146-.04.238-.187.21-.338-.123-.676-.57-1.063-1.224-1.063zm-11.794-11.74c0-.693.81-1.25 1.484-1.25h.442c.68 0 1.484.837 1.484 1.546v2.08h-1.233c-.163 0-.294.132-.294.295 0 .163.13.295.293.295h3.642c.486 0 .734.166.734.49-.004.083-.05.498-.735.498l-3.468.002c-.006 0-.553.047-.92-.287-.24-.218-.36-.562-.36-1.023v-2.143c0-.163-.133-.295-.297-.295-.163 0-.295.132-.295.295V14c0 .637.188 1.13.56 1.465.43.39.986.44 1.237.44.054 0 .094-.003.116-.005h1.018v.838c-.316-.055-.64-.09-.97-.09-.876 0-1.703.208-2.44.568v-5.862zm2.44 15.89c-2.76 0-5.003-2.245-5.003-5.003 0-2.757 2.244-5.002 5.003-5.002 2.76 0 5.003 2.244 5.003 5.003 0 2.76-2.245 5.004-5.004 5.004zm6.566-2.288l-.99-3.062c-.127-2.073-1.386-3.84-3.167-4.695l1.612-.002c.397 0 1.732.112 2.235 1.543l1.593 4.872c.043.132.173.215.312.2l.938-.097.044-.008s.088-.022.21-.022c.274 0 .46.104.564.324l-3.352.946zm-6.566-6.893c-2.303 0-4.178 1.874-4.178 4.178 0 2.305 1.874 4.178 4.178 4.178s4.177-1.874 4.177-4.177c0-2.302-1.874-4.177-4.177-4.177zm0 7.764c-1.978 0-3.586-1.61-3.586-3.586 0-1.976 1.61-3.585 3.586-3.585 1.977 0 3.586 1.61 3.586 3.586 0 1.98-1.61 3.587-3.586 3.587z"/></svg>