<svg xmlns="http://www.w3.org/2000/svg" viewBox="0 0 32 32"><g fill="#010101"><path d="M27.345 16.098c0-2.377-1.564-3.46-3.017-3.46-.622 0-1.178.162-1.645.468l.003-.404c0-.41-.024-.822-.142-1.485-.06-.34-.354-.586-.698-.586h-5.8c-.343 0-.637.247-.698.587-.118.663-.142 1.074-.142 1.485 0 .204.007.776.015 1.457.013.994.027 2.222.027 2.864 0 .687-.016 1.7-.03 2.442-.006.42-.01.75-.01.876 0 .117-.184.542-.294.796-.195.452-.315.74-.315.94 0 .624.516 1.26 4.348 1.26s4.348-.636 4.348-1.26c0-.025-.007-.056-.01-.084 1.872-1.15 4.06-3.093 4.06-5.896zm-4.66 4.245c0-.126-.004-.456-.01-.876-.013-.74-.03-1.755-.03-2.442 0-.48.008-1.29.017-2.086.353-.66 1.02-1.086 1.764-1.086.84 0 1.738.62 1.738 2.36 0 1.886-1.593 3.766-3.47 4.176-.005-.02-.008-.036-.008-.047zm-3.74 2.404c-3.65 0-3.754-.6-3.754-.667.006-.102.163-.466.267-.707.212-.492.34-.807.34-1.03 0-.126.006-.452.013-.868.012-.743.03-1.76.03-2.452 0-.643-.015-1.874-.027-2.872-.008-.676-.015-1.246-.015-1.45 0-.38.023-.76.133-1.38.01-.057.06-.098.115-.098h5.8c.056 0 .104.04.114.097.11.62.132 1 .132 1.38 0 .203-.007.772-.015 1.45-.012.998-.026 2.23-.026 2.872 0 .692.017 1.71.03 2.452.007.416.012.742.012.867 0 .225.13.54.34 1.032.105.24.262.605.267.705 0 .07-.104.67-3.754.67zm4.15-1.335c-.035-.085-.073-.174-.116-.273-.058-.133-.134-.31-.195-.468 1.993-.453 3.675-2.453 3.675-4.458 0-2.53-1.694-2.657-2.034-2.657-.693 0-1.326.323-1.758.847 0-.082.002-.165.003-.245l.004-.288c.426-.424.98-.642 1.653-.642.9 0 2.424.604 2.424 2.868.003 2.005-1.23 3.792-3.655 5.314zM13.377 10.283c.082 0 .148-.066.148-.148s-.066-.148-.148-.148H8.49c-.07 0-.132.05-.146.118-.17.815-.244 1.622-.244 2.618 0 2.09.464 3.475.873 4.698.323.964.6 1.796.6 2.796 0 1.203-.4 1.847-.69 2.318l-.054.086c-.044.07-.022.16.048.204.024.015.05.022.078.022.05 0 .098-.025.126-.07l.053-.087c.293-.474.736-1.188.736-2.475 0-1.047-.298-1.942-.616-2.89-.402-1.2-.858-2.56-.858-4.603 0-.926.066-1.685.214-2.44h4.767z"/><path d="M21.486 13.078H16.5c-.083 0-.15.066-.15.148v7.116c0 .32-.143.67-.378 1.214l-.11.257c-.032.076.004.162.08.194.018.008.037.012.056.012.058 0 .113-.035.137-.092l.11-.254c.25-.58.403-.954.403-1.33v-6.97h4.84c.08 0 .147-.065.147-.147s-.067-.15-.15-.15zM13.314 20.044c0-.694.248-1.45.535-2.326.404-1.235.908-2.772.908-4.775 0-1.237-.078-2.725-.658-4.382-.11-.315-.41-.527-.742-.527H8.424c-.333 0-.63.212-.742.528-.58 1.657-.657 3.145-.657 4.383 0 2.002.504 3.54.91 4.775.286.876.534 1.633.534 2.326 0 1.155-.278 1.535-.524 1.87-.177.242-.36.493-.36.933 0 .328.16.898 1.22 1.02.56.066 1.327.1 2.092.1.765 0 1.528-.034 2.078-.1 1.062-.122 1.22-.692 1.22-1.02 0-.44-.183-.69-.36-.933-.244-.335-.522-.714-.522-1.87zm-.405 3.236s-.002 0 0 0c-1.067.126-2.95.126-4.035 0-.462-.054-.696-.2-.696-.433 0-.247.092-.374.245-.583.27-.367.637-.87.637-2.22 0-.788-.262-1.587-.565-2.51-.412-1.258-.88-2.683-.88-4.59 0-1.19.075-2.615.625-4.187.027-.08.1-.13.182-.13h4.935c.08 0 .154.052.18.13.55 1.573.625 3 .625 4.186 0 1.908-.467 3.333-.88 4.59-.303.924-.565 1.723-.565 2.51 0 1.35.368 1.853.637 2.22.153.21.246.337.246.584.002.234-.232.38-.694.433z"/></g></svg>