<svg data-name="Layer 1" xmlns="http://www.w3.org/2000/svg" viewBox="0 0 36 36"><title>Icon-Red_Hat-Objects-Envelope_Manilla-A-Black-RGB</title><path d="M26 5.75H10a.76.76 0 0 0-.75.75v23a.75.75 0 0 0 .06.29.71.71 0 0 0 .4.4.75.75 0 0 0 .29.06h16a.75.75 0 0 0 .29-.06.71.71 0 0 0 .4-.4.75.75 0 0 0 .06-.29v-23a.76.76 0 0 0-.75-.75zm-15.25 7.39a4.34 4.34 0 0 0 2.88 1.11h3.62v11.5H13a.75.75 0 0 0-.53.22l-1.72 1.72zm1.06 15.61l1.5-1.5h9.38l1.5 1.5zm13.44-1.06L23.53 26a.75.75 0 0 0-.53-.22h-4.25V14.25h3.62a4.34 4.34 0 0 0 2.88-1.11zm0-17.82a2.88 2.88 0 0 1-2.88 2.88h-8.74a2.88 2.88 0 0 1-2.88-2.88V7.25h14.5zm-9.25.88h1a1.19 1.19 0 0 0 1.94 0h1a.75.75 0 0 0 0-1.5H19a1.19 1.19 0 0 0-1.94 0H16a.75.75 0 0 0 0 1.5z"/></svg>