<svg id="Layer_1" xmlns="http://www.w3.org/2000/svg" viewBox="0 0 32 32"><style>.st0{fill:#010101;}</style><path class="st0" d="M10.25 21.7c-.35 0-.63.28-.63.63s.28.63.63.63.63-.28.63-.63-.28-.63-.63-.63zm0 .73c-.05 0-.09-.04-.09-.09s.04-.09.09-.09.09.04.09.09c0 .05-.04.09-.09.09zM21.66 21.52c-.35 0-.63.28-.63.63s.28.63.63.63.63-.28.63-.63-.28-.63-.63-.63zm0 .73c-.05 0-.09-.04-.09-.09s.04-.09.09-.09c.05 0 .09.04.09.09s-.04.09-.09.09zM17.8 13.83l3.35-4.28c.09-.12.07-.29-.05-.38-.12-.09-.29-.07-.38.05l-3.35 4.28c-.41-.25-.9-.4-1.41-.4-1.5 0-2.72 1.22-2.72 2.72 0 .75.31 1.44.81 1.93l-.84 1.07c-.09.12-.07.29.05.38.05.04.11.06.17.06.08 0 .16-.04.21-.1l.84-1.07c.43.28.94.45 1.49.45 1.5 0 2.72-1.22 2.72-2.72-.02-.79-.36-1.5-.89-1.99zm-4.02 1.98c0-1.2.98-2.17 2.17-2.17.39 0 .76.11 1.08.29l-2.65 3.39c-.37-.4-.6-.92-.6-1.51zm2.17 2.18c-.42 0-.82-.12-1.15-.33l2.66-3.4c.41.4.66.95.66 1.56.01 1.19-.97 2.17-2.17 2.17zM15.95 7.12c.15 0 .27-.12.27-.27V4.58c0-.15-.12-.27-.27-.27s-.27.12-.27.27v2.26c0 .16.13.28.27.28zM10.57 5.9c-.07-.13-.24-.17-.37-.1-.13.08-.17.24-.09.37l1.18 1.99c.05.09.14.13.23.13.05 0 .09-.01.14-.04.13-.08.17-.24.09-.37L10.57 5.9zM8.3 11.05L6.4 9.96c-.13-.07-.3-.03-.37.1s-.03.3.1.37l1.9 1.09c.04.02.09.04.13.04.09 0 .19-.05.24-.14.08-.13.03-.29-.1-.37zM7.26 15.81c0-.15-.12-.27-.27-.27H4.72c-.15 0-.27.12-.27.27 0 .15.12.27.27.27h2.26c.16.01.28-.12.28-.27zM8.02 20.02l-1.9 1.18c-.13.08-.17.25-.09.37.05.08.14.13.23.13.05 0 .1-.01.14-.04l1.9-1.18c.13-.08.17-.25.09-.37-.07-.13-.24-.17-.37-.09zM20.35 8.26c.04.02.08.03.13.03.1 0 .19-.05.24-.14l1.09-1.99c.07-.13.02-.3-.11-.37s-.3-.02-.37.11l-1.09 2c-.07.13-.02.29.11.36zM27.18 15.54h-.28c-.04-1.74-.5-3.43-1.33-4.95l.3-.16c.13-.07.18-.24.11-.37-.07-.13-.24-.18-.37-.11l-.44.24c-.04 0-.07.01-.11.03-.03.02-.05.04-.07.06l-1.37.75c-.13.07-.18.24-.11.37.05.09.14.14.24.14.04 0 .09-.01.13-.03l1.22-.67c.8 1.45 1.23 3.02 1.27 4.69h-1.44c-.15 0-.27.12-.27.27 0 .15.12.27.27.27h1.44c-.04 1.58-.47 3.14-1.26 4.66l-1.22-.72c-.13-.08-.29-.03-.37.09-.08.13-.03.3.09.37l1.35.8c.02.04.06.08.1.11.04.02.09.03.13.03h.01l.4.24c.04.03.09.04.14.04.09 0 .18-.05.23-.13.08-.13.03-.3-.09-.37l-.3-.18c.84-1.6 1.29-3.26 1.33-4.93h.28c.15 0 .27-.12.27-.27 0-.15-.13-.27-.28-.27z"/><path class="st0" d="M15.95 3.23c-6.89 0-12.5 5.65-12.5 12.59 0 3.58 1.52 6.99 4.17 9.35l.08.07h16.6l.08-.07c2.65-2.45 4.16-5.86 4.16-9.35 0-6.95-5.64-12.59-12.59-12.59zm8.14 21.46H7.91C5.42 22.43 4 19.2 4 15.81 4 9.17 9.36 3.77 15.96 3.77 22.6 3.77 28 9.17 28 15.81c0 3.31-1.42 6.54-3.91 8.88z"/></svg>