<svg xmlns="http://www.w3.org/2000/svg" width="32" height="32" viewBox="0 0 32 32"><path d="M24.158 8.795L20.523 5.05c-.058-.06-.137-.094-.22-.094H9.043c-.17 0-.307.137-.307.306V25.69c0 .17.137.305.306.305h14.896c.17 0 .306-.137.306-.306V9.01c0-.08-.03-.157-.087-.215zm-3.55-2.776l2.768 2.85H20.61V6.02zm3.023 19.362H9.35V5.568h10.648v3.477c0 .023.008.044.013.066-.006.023-.014.043-.014.067 0 .17.137.306.306.306h3.328V25.38zm-4.08-10.738c-.015-.028-.04-.047-.07-.056s-.062-.004-.09.012l-1.577.934c-.054.032-.073.1-.042.156l.827 1.477h-.892l.004-.355c0-.057 0-.11-.073-.158-.06-.04-.14-.035-.21.017-.01.01-.018.018-.025.028l-.91 1.312c-.028.04-.028.092 0 .132l.91 1.313c.007.01.016.02.026.027.04.03.08.044.12.044.033 0 .063-.01.09-.027.07-.05.07-.103.07-.16l-.003-.355h.654c.69 0 .914-.39.925-.41l.822-1.58v-.004h.003c.326-.718.05-1.223.04-1.243l-.6-1.1zm-.468 3.82c-.002.002-.176.288-.723.288h-.772c-.03 0-.06.012-.082.034-.022.022-.034.052-.033.083l.003.285-.75-1.08.75-1.08-.003.286c0 .032.012.06.033.084.022.022.05.034.082.034h1.596c.066 0 .28-.006.493-.077l-.595 1.144zm.82-1.578c-.118.22-.52.28-.722.28h-.317l-.835-1.49 1.377-.816.542.996c.01.017.227.427-.045 1.03zm-4.02.065l-1.714-.002.47-.81.31.19c.035.02.062.037.102.037.033 0 .057-.012.07-.018.066-.032.1-.102.092-.188 0-.014-.005-.027-.01-.038l-.67-1.45c-.02-.043-.065-.07-.113-.067l-1.594.118c-.013 0-.025.004-.036.01-.08.033-.125.097-.12.17.004.087.05.115.1.144l.302.17-.327.57c-.09.154-.15.31-.18.46V16.272c-.048.325.162.68.172.698l.84 1.342c.45.645 1.026.663 1.05.664l1.25.042h.003c.03 0 .058-.012.08-.033.023-.022.036-.05.036-.083v-1.832c0-.064-.05-.115-.115-.115zm-3.086-.67c.024-.123.074-.25.15-.38l.386-.67c.015-.027.02-.058.01-.088-.007-.03-.027-.055-.054-.07l-.24-.135 1.31-.096.55 1.193-.25-.153c-.026-.016-.057-.02-.088-.014-.03.008-.056.027-.072.054l-.598 1.03c-.172 0-.6-.02-.87-.215-.155-.113-.232-.26-.234-.457zm2.97 2.5l-1.132-.04c-.02 0-.486-.02-.864-.56l-.734-1.173.02.007c.062.03.128.056.195.076l.026.008c.07.02.138.035.206.046.014.002.026.005.04.006.065.01.128.017.186.022.01 0 .02 0 .032.002.058.003.113.006.158.006h.073l.02-.002 1.776.003v1.6zm-1.87-4.996l1.557.966c.02.012.04.018.06.018.04 0 .075-.018.098-.052l.926-1.41.4.785-.3.163c-.05.025-.1.05-.108.137-.008.073.034.14.112.178.01.006.023.01.036.01l1.585.2c.006.002.01.002.015.002.042 0 .082-.023.102-.062l.743-1.413c.006-.01.01-.023.012-.035.014-.086-.017-.158-.08-.194-.016-.008-.042-.022-.078-.022-.037 0-.063.014-.096.03l-.33.167-.287-.577c-.318-.612-.77-.632-.79-.632l-1.788.003h-.002c-.786.042-1.106.52-1.118.54l-.7 1.04c-.017.025-.023.057-.016.088.007.032.026.058.052.075zm3.57-1.513c.013.002.338.024.59.507l.337.68c.014.028.038.05.067.058.03.01.06.007.09-.006l.276-.14-.616 1.17-1.312-.166.247-.134c.055-.03.077-.098.048-.154l-.53-1.044c-.005-.015-.012-.028-.02-.04l-.165-.323c-.008-.016-.118-.232-.3-.408h1.288zm-2.712.44c.01-.017.275-.4.936-.437.265.002.51.37.58.51l.146.286-.935 1.425-1.358-.844.633-.94z"/></svg>