<svg xmlns="http://www.w3.org/2000/svg" width="32" height="32" viewBox="0 0 32 32"><path d="M13.476 15.554c.9.077 1.844.115 2.81.115 2.664 0 5.17-.305 6.7-.815.12-.04.187-.17.147-.29-.04-.12-.17-.186-.29-.147-1.49.495-3.94.79-6.558.79-.952 0-1.884-.037-2.77-.113-.126-.01-.238.083-.25.21-.01.127.084.238.21.248zm-4.186-.886c.593.23 1.37.426 2.313.58.008.002.017.002.025.002.074 0 .14-.053.15-.128.015-.083-.04-.162-.125-.176-.908-.15-1.686-.344-2.25-.563-.08-.03-.17.008-.2.087-.03.08.008.168.087.198zm-.008-6.563c.592.23 1.37.426 2.313.58.008.002.017.002.025.002.074 0 .14-.053.15-.128.015-.084-.04-.163-.125-.177-.91-.15-1.688-.344-2.25-.563-.08-.03-.17.008-.2.087-.03.08.01.168.088.198zm4.186.886c.902.078 1.847.116 2.81.116 2.664 0 5.17-.304 6.7-.814.12-.04.187-.17.147-.29s-.17-.186-.29-.147c-1.49.495-3.94.79-6.558.79-.95 0-1.88-.037-2.77-.113-.123-.01-.238.083-.25.21-.01.127.084.238.21.248zm-1.816 12.495c-.91-.15-1.688-.344-2.25-.563-.08-.03-.17.008-.2.087-.03.078.008.167.087.198.59.23 1.37.425 2.312.58l.025.002c.074 0 .14-.053.15-.128.015-.084-.042-.163-.125-.176zm12.856 3.68v-4.672c0-.362-.26-.67-.697-.933.44-.262.698-.57.698-.933v-4.672c0-.368-.27-.682-.722-.948.448-.265.714-.577.714-.943V7.392c0-1.596-5.01-2.175-8.378-2.175-3.368 0-8.378.58-8.378 2.175v4.672c0 .368.27.682.722.948-.448.265-.715.577-.715.943v4.672c0 .362.26.67.698.933-.438.263-.697.572-.697.933v4.673c0 1.596 5.01 2.175 8.38 2.175 3.366 0 8.377-.578 8.377-2.174zM8.358 12.064V7.39c0-.544 2.666-1.56 7.764-1.56s7.765 1.016 7.765 1.56v4.673c0 .174-.274.395-.808.617-.27.112-.61.222-1.01.328-1.304.34-3.293.618-5.947.618-2.65 0-4.635-.275-5.94-.616-.4-.105-.74-.215-1.01-.326-.54-.223-.816-.446-.816-.62zm.007 6.563v-4.672c0-.174.274-.395.81-.617 1.733.643 4.704.9 6.948.9 2.247 0 5.223-.257 6.956-.903.538.222.816.445.816.62v4.672c0 .17-.263.39-.78.606-.265.11-.603.222-1 .327-1.3.346-3.303.628-5.986.628s-4.686-.282-5.988-.63c-.396-.105-.733-.214-.997-.326-.517-.218-.78-.435-.78-.606zm15.53 6.54c0 .545-2.667 1.562-7.765 1.562s-7.765-1.017-7.765-1.562v-4.673c0-.17.263-.388.78-.606 1.73.653 4.726.914 6.986.914s5.256-.26 6.986-.913c.518.218.78.435.78.606v4.673zm-1.053-4.208c-1.488.495-3.94.79-6.557.79-.95 0-1.88-.037-2.77-.112-.126-.01-.238.083-.25.21-.01.126.084.238.21.25.903.076 1.848.114 2.81.114 2.665 0 5.17-.304 6.702-.814.12-.04.186-.17.146-.29s-.17-.187-.29-.147zM7.026 19.202c-.045-.12-.178-.18-.296-.134-.12.045-.18.178-.134.296.025.066.054.132.086.196-.032.065-.06.13-.086.197-.045.12.015.25.134.296.027.01.054.015.08.015.094 0 .18-.056.216-.148.03-.083.07-.165.115-.244.04-.07.04-.158 0-.228-.044-.08-.083-.162-.114-.245zm-.105-.908v-.67c0-.126-.102-.23-.23-.23s-.23.104-.23.23v.67c0 .127.104.23.23.23s.23-.103.23-.23zm0-4.014c0-.127-.102-.23-.23-.23s-.23.103-.23.23v.67c0 .126.104.23.23.23s.23-.104.23-.23v-.67zm0 1.673c0-.127-.102-.23-.23-.23s-.23.103-.23.23v.67c0 .126.104.23.23.23s.23-.104.23-.23v-.67zm.105-3.297c-.046-.118-.18-.177-.298-.13-.118.046-.177.18-.13.298.026.065.054.13.087.194-.032.063-.06.128-.085.194-.046.12.013.25.132.297.027.01.054.014.082.014.093 0 .18-.056.215-.148.03-.083.07-.165.115-.244.04-.072.04-.16 0-.23-.048-.08-.087-.162-.12-.245zm18.62-1.714c-.126 0-.23.103-.23.23v.627c0 .126.104.23.23.23s.23-.104.23-.23v-.628c0-.127-.102-.23-.23-.23zm.23-2.905c0-.127-.102-.23-.23-.23s-.23.103-.23.23v.627c0 .127.104.23.23.23s.23-.103.23-.23v-.627zm-.48-.903c.02.114.117.195.228.195.012 0 .024-.002.036-.004.124-.02.21-.137.19-.262-.035-.23-.11-.453-.226-.662-.06-.11-.2-.152-.312-.09-.11.06-.152.2-.09.312.088.16.147.333.175.51zm.48 2.47c0-.127-.102-.23-.23-.23s-.23.103-.23.23v.627c0 .128.104.23.23.23s.23-.102.23-.23v-.626zM11.93 4.598c.01 0 .02 0 .03-.002.206-.028.412-.052.618-.074.126-.014.218-.127.204-.253-.014-.127-.13-.218-.253-.205-.21.022-.42.047-.63.075-.126.017-.214.132-.198.258.016.115.114.2.228.2zM6.67 7.342c.01.002.023.002.034.002.112 0 .21-.082.227-.196.027-.18.085-.35.172-.513.06-.112.018-.25-.094-.31s-.25-.02-.31.093c-.114.21-.188.432-.222.664-.02.126.067.242.193.26zm6.82-2.904h.017c.21-.017.42-.03.622-.04.126-.008.223-.116.216-.243-.007-.127-.12-.223-.242-.217-.206.01-.417.025-.63.04-.127.01-.223.12-.213.246.01.12.11.213.23.213zm-3.108.428c.017 0 .033-.002.05-.006.2-.044.402-.085.607-.122.124-.023.207-.142.184-.267-.023-.124-.144-.208-.267-.184-.21.038-.42.08-.624.125-.124.03-.202.15-.175.275.024.107.12.18.225.18zm-3.7 4.044c.128 0 .23-.103.23-.23v-.627c0-.127-.102-.23-.23-.23s-.23.103-.23.23v.627c0 .127.104.23.23.23zM24.18 5.662c.183.103.347.213.49.327.04.033.093.05.143.05.068 0 .135-.03.18-.087.08-.1.064-.244-.035-.323-.16-.13-.347-.254-.55-.37-.11-.06-.25-.022-.314.088-.062.11-.023.25.088.313zM7.506 6.05c.05 0 .102-.017.145-.05.143-.116.307-.227.49-.33.11-.064.148-.204.085-.315-.063-.11-.203-.148-.314-.086-.202.115-.387.24-.548.37-.1.08-.114.225-.034.323.046.056.112.085.18.085zm-.823 5.994c.127 0 .23-.103.23-.23v-.627c0-.127-.103-.23-.23-.23s-.23.103-.23.23v.627c0 .127.103.23.23.23zm0-1.567c.127 0 .23-.103.23-.23V9.62c0-.127-.103-.23-.23-.23s-.23.103-.23.23v.627c0 .127.103.23.23.23zm2.194-5.173c.027 0 .055-.005.082-.015.18-.07.374-.136.578-.198.12-.037.19-.165.153-.286s-.165-.19-.285-.153c-.214.065-.42.134-.61.206-.118.044-.177.177-.132.296.034.092.122.148.214.148zm9.308-.907c.203.01.41.024.622.04h.017c.12 0 .22-.09.23-.212.008-.126-.087-.237-.213-.246-.213-.017-.424-.03-.63-.04-.126-.006-.235.09-.242.216-.007.127.09.235.218.242zm3.09.34c.204.036.407.076.606.12.018.004.034.006.05.006.107 0 .2-.073.225-.18.027-.125-.05-.248-.175-.275-.205-.045-.414-.086-.624-.124-.124-.022-.245.06-.267.186s.06.244.185.267zm-1.537-.217c.205.022.412.046.618.074l.03.002c.115 0 .213-.084.228-.2.017-.126-.072-.242-.198-.258-.21-.028-.42-.053-.63-.075-.13-.015-.24.078-.252.204-.013.126.078.24.204.253zm3.038.568c.204.06.4.127.58.196.026.01.053.015.08.015.094 0 .18-.058.216-.15.045-.118-.015-.25-.134-.295-.19-.072-.395-.14-.61-.206-.12-.038-.25.032-.286.153-.037.12.032.25.154.286zm-7.718-.73h.007c.218-.005.428-.01.625-.012.127-.002.23-.106.227-.233-.002-.126-.104-.227-.23-.227h-.003c-.2.002-.41.007-.632.013-.127.003-.227.11-.223.235.003.124.105.223.23.223zm1.567-.012c.197.002.405.006.624.013h.005c.124 0 .226-.1.23-.224.004-.127-.096-.233-.223-.236-.22-.006-.433-.01-.632-.013-.134-.014-.23.1-.233.227 0 .127.1.23.228.233zm8.69 9.016c.034.09.12.146.213.146.028 0 .056-.005.084-.016.118-.046.177-.18.13-.298-.025-.065-.054-.13-.087-.193.032-.062.06-.127.085-.193.045-.12-.014-.25-.133-.297-.12-.046-.25.014-.297.133-.032.084-.07.166-.116.244-.04.072-.04.16 0 .23.048.08.087.162.12.244zm.34.677c-.128 0-.23.102-.23.23v.67c0 .127.102.23.23.23s.23-.103.23-.23v-.67c0-.128-.104-.23-.23-.23zm0 1.675c-.128 0-.23.103-.23.23v.67c0 .128.102.23.23.23s.23-.1.23-.23v-.67c0-.127-.104-.23-.23-.23zm0 1.677c-.128 0-.23.103-.23.23v.67c0 .128.102.23.23.23s.23-.102.23-.23v-.67c0-.127-.104-.23-.23-.23zm-.335 2.526c.035.092.122.15.215.15.027 0 .054-.006.08-.015.12-.045.18-.177.135-.296-.025-.066-.054-.132-.086-.197.032-.065.06-.13.086-.197.045-.12-.016-.25-.134-.296-.118-.044-.25.016-.296.134-.03.084-.07.166-.115.245-.04.07-.04.158 0 .228.046.08.085.163.115.244zm-4.952 8.045c-.206.027-.412.05-.617.074-.125.013-.217.127-.203.253.013.118.113.205.228.205h.025c.21-.024.42-.05.63-.076.125-.018.213-.133.197-.26-.017-.125-.134-.214-.26-.196zm5.286-4.297c-.127 0-.23.103-.23.23v.626c0 .127.103.23.23.23s.23-.103.23-.23v-.626c0-.127-.103-.23-.23-.23zm-.977 2.9c-.142.115-.306.225-.49.328-.11.063-.148.203-.085.314.042.074.12.116.2.116.038 0 .077-.01.113-.03.204-.116.39-.24.55-.37.1-.078.115-.223.036-.322-.078-.1-.223-.115-.322-.036zm.977-6.032c-.127 0-.23.103-.23.23v.627c0 .128.103.23.23.23s.23-.102.23-.23v-.626c0-.127-.103-.23-.23-.23zm.013 4.697c-.123-.017-.243.067-.263.193-.028.178-.087.35-.176.51-.06.11-.02.25.09.313.035.02.073.03.11.03.082 0 .16-.044.203-.12.115-.208.192-.43.228-.66.02-.127-.066-.244-.19-.264zm-.013-3.13c-.127 0-.23.103-.23.23v.626c0 .127.103.23.23.23s.23-.103.23-.23v-.626c0-.127-.103-.23-.23-.23zm-2.288 5.173c-.182.07-.377.134-.58.195-.12.037-.19.165-.153.287.03.1.12.163.22.163.022 0 .044-.003.066-.01.21-.064.417-.133.608-.206.12-.045.178-.177.134-.296s-.18-.18-.296-.134zm-1.472.426c-.2.043-.402.083-.606.12-.125.022-.208.142-.186.267.02.11.117.19.226.19.014 0 .027-.002.04-.005.212-.038.42-.08.625-.124.124-.028.202-.15.175-.274s-.15-.202-.274-.175zm-7.747.46c-.203-.01-.41-.024-.622-.04-.124-.008-.237.085-.246.212-.01.127.085.237.21.247.215.015.426.03.632.04h.013c.12 0 .223-.095.23-.217.007-.126-.09-.235-.217-.242zM8.16 26.896c-.182-.103-.347-.213-.49-.327-.098-.08-.243-.064-.322.035-.08.1-.063.244.036.323.162.13.347.253.55.368.036.02.075.03.113.03.08 0 .158-.042.2-.117.062-.11.024-.25-.087-.314zm10.66 1.224c-.21.016-.418.028-.62.04-.127.007-.224.116-.218.242.007.122.11.217.23.217.004 0 .008 0 .012-.002.206-.01.416-.025.63-.04.126-.01.222-.12.212-.246-.01-.127-.12-.217-.246-.213zM6.69 24.753c.128 0 .23-.103.23-.23v-.626c0-.127-.102-.23-.23-.23s-.23.103-.23.23v.626c0 .127.104.23.23.23zm0-2.652c-.126 0-.23.104-.23.23v.627c0 .127.104.23.23.23s.23-.103.23-.23v-.626c0-.126-.102-.23-.23-.23zm.23-1.336c0-.127-.102-.23-.23-.23s-.23.103-.23.23v.627c0 .128.104.23.23.23s.23-.102.23-.23v-.626zm.02 4.66c-.02-.125-.136-.21-.262-.19-.125.02-.21.137-.19.262.036.23.112.453.227.66.042.077.12.12.2.12.04 0 .077-.01.112-.028.11-.062.152-.2.09-.313-.088-.16-.148-.333-.176-.51zM17.266 28.2c-.218.005-.427.01-.623.012-.127.002-.23.106-.227.233.002.126.104.227.23.227h.003c.2-.002.41-.006.63-.013.128-.005.228-.11.224-.237s-.097-.22-.237-.223zm-1.56.01c-.196 0-.404-.005-.623-.012-.13 0-.233.096-.236.223-.004.128.096.234.223.237.22.006.432.01.63.013h.003c.126 0 .228-.1.23-.227.002-.127-.1-.23-.227-.232zm-6.145-.74c-.202-.06-.397-.127-.58-.196-.117-.044-.25.015-.295.134-.045.12.015.25.134.296.19.072.396.14.608.205.022.005.044.01.066.01.1 0 .19-.065.22-.165.037-.12-.032-.25-.154-.286zm3.036.567c-.205-.022-.41-.046-.617-.074-.13-.02-.243.072-.26.198-.016.127.073.243.2.26.21.027.42.052.627.074h.025c.116 0 .216-.086.228-.204.013-.127-.08-.24-.205-.254zm-1.536-.216c-.204-.036-.407-.076-.606-.12-.123-.026-.247.05-.274.175-.027.124.05.247.175.274.205.044.413.085.624.123.013.002.026.004.04.004.11 0 .206-.078.226-.19.023-.124-.06-.244-.185-.266z"/></svg>