<svg data-name="tshirt" xmlns="http://www.w3.org/2000/svg" viewBox="0 0 36 36"><title>Icon-Red_Hat-</title><path d="M25 14.75a.76.76 0 0 0-.75.75v13.25h-12.5V15.5a.75.75 0 0 0-1.5 0v14a.76.76 0 0 0 .75.75h14a.76.76 0 0 0 .75-.75v-14a.76.76 0 0 0-.75-.75zm5.72 1.54l-2-7a.74.74 0 0 0-.39-.46l-6-3h-8.62l-6 3a.74.74 0 0 0-.39.46l-2 7a.74.74 0 0 0 .3.83l3 2a.74.74 0 0 0 .42.13.75.75 0 0 0 .42-1.37l-2.55-1.7L8.63 10l4.77-2.36a4.74 4.74 0 0 0 9.2 0L27.37 10l1.76 6.16-2.55 1.7a.75.75 0 0 0 .42 1.39.74.74 0 0 0 .42-.13l3-2a.74.74 0 0 0 .3-.83zM18 9.75a3.26 3.26 0 0 1-3.16-2.5h6.32A3.26 3.26 0 0 1 18 9.75z"/></svg>