<svg data-name="Layer 1" xmlns="http://www.w3.org/2000/svg" viewBox="0 0 36 36"><title>Icon-Red_Hat-Objects-Tshirt-A-Black-RGB</title><path d="M25 14.75a.75.75 0 0 0-.75.75v13.25h-12.5V15.5a.75.75 0 0 0-1.5 0v14a.75.75 0 0 0 .75.75h14a.75.75 0 0 0 .75-.75v-14a.75.75 0 0 0-.75-.75z"/><path d="M30.72 16.294l-1-3.5-1-3.5a.747.747 0 0 0-.143-.273.757.757 0 0 0-.242-.19l-3-1.5-3-1.5c-.007 0-.015 0-.022-.007a.714.714 0 0 0-.146-.04.72.72 0 0 0-.144-.028.19.19 0 0 0-.023 0h-8.022a.863.863 0 0 0-.148.03.754.754 0 0 0-.143.04c-.007 0-.015 0-.022.005l-3 1.5-3 1.5a.757.757 0 0 0-.242.192.747.747 0 0 0-.144.273l-1 3.5-1 3.5a.75.75 0 0 0 .3.83l1.5 1 1.5 1a.75.75 0 0 0 .83-1.248l-1.27-.848-1.27-.85.88-3.078.88-3.08L11.484 8.6l1.92-.96a4.73 4.73 0 0 0 9.194 0l1.92.96 2.852 1.426.88 3.08.88 3.077-1.274.848-1.272.85a.75.75 0 1 0 .832 1.247l1.5-1 1.5-1a.75.75 0 0 0 .3-.83zM20.03 9.037a3.252 3.252 0 0 1-5.193-1.787h6.326a3.255 3.255 0 0 1-1.134 1.787z"/></svg>