<svg xmlns="http://www.w3.org/2000/svg" width="32" height="32" viewBox="0 0 32 32"><path d="M25.266 5.427H7.603c-.17 0-.306.137-.306.306v20.23c0 .17.137.306.306.306h17.663c.17 0 .306-.138.306-.307V5.733c0-.17-.137-.306-.306-.306zm-.306 20.23H7.91V6.04h17.05v19.617zm-3.277-14.163c1.19 0 2.16-.97 2.16-2.16 0-1.192-.97-2.16-2.16-2.16-1.19 0-2.16.968-2.16 2.16 0 1.19.97 2.16 2.16 2.16zm0-3.86c.938 0 1.7.76 1.7 1.7s-.763 1.7-1.7 1.7-1.7-.763-1.7-1.7.763-1.7 1.7-1.7zm0 2.107c.222 0 .43-.208.43-.43 0-.715-.276-1.415-.287-1.445-.047-.117-.238-.117-.285 0-.01.03-.287.73-.287 1.445 0 .222.21.43.43.43zm0-1.307c.063.246.124.563.124.878 0 .055-.07.125-.124.125s-.124-.07-.124-.124c0-.313.06-.63.123-.877zm1.005.9c0 .085.07.154.153.154h.183c.085 0 .153-.07.153-.153 0-.085-.07-.153-.153-.153h-.182c-.083 0-.152.07-.152.154zm-2.01 0c0-.084-.068-.152-.152-.152h-.182c-.085 0-.153.07-.153.154 0 .084.07.153.154.153h.182c.084 0 .153-.07.153-.153zm1.932.712c-.06-.06-.157-.06-.217 0s-.06.157 0 .217l.128.128c.03.03.07.045.11.045.04 0 .078-.015.11-.045.06-.06.06-.157 0-.217l-.13-.128zm-1.854-1.422c.03.03.07.045.11.045s.077-.015.108-.045c.06-.06.06-.157 0-.217l-.128-.128c-.06-.06-.157-.06-.217 0s-.06.157 0 .217l.127.128zm.927 1.715c-.085 0-.153.07-.153.153v.183c0 .085.07.153.153.153s.153-.068.153-.153v-.182c0-.083-.068-.152-.153-.152zm-.927-.293l-.128.128c-.06.06-.06.157 0 .217.03.03.07.045.11.045s.077-.015.108-.045l.128-.128c.06-.06.06-.157 0-.217s-.157-.06-.217 0zm1.746-1.377c.04 0 .078-.015.11-.045l.127-.128c.06-.06.06-.157 0-.217s-.158-.06-.217 0l-.128.128c-.06.06-.06.157 0 .217.03.03.07.045.108.045zm-6.134 2.826c.577 0 1.12-.225 1.528-.633.842-.84.842-2.21 0-3.054-.408-.408-.95-.632-1.527-.632s-1.12.225-1.528.632c-.842.842-.842 2.213 0 3.055.408.41.95.634 1.527.634zM15.166 8.13c.322-.32.75-.497 1.202-.497.454 0 .88.177 1.202.498.663.664.663 1.743 0 2.406-.322.32-.748.498-1.203.498-.454 0-.88-.177-1.202-.498-.662-.663-.662-1.742 0-2.405zm1.22 1.61c.117 0 .23-.043.303-.118.505-.506.804-1.196.817-1.226.025-.057.012-.124-.033-.17-.044-.043-.11-.056-.17-.032-.03.013-.72.312-1.225.818-.076.075-.12.186-.12.304 0 .12.044.23.12.305.075.077.186.12.304.12zm-.09-.51c.223-.223.49-.405.71-.534-.13.22-.31.486-.533.71-.035.034-.14.034-.176 0-.017-.018-.03-.053-.03-.09 0-.035.013-.07.03-.086zm1 .814c-.06-.06-.158-.06-.218 0s-.06.157 0 .217l.128.13c.03.03.07.045.11.045s.077-.015.108-.045c.06-.06.06-.157 0-.217l-.13-.128zm-1.855-1.42c.03.03.07.044.11.044s.08-.015.11-.045c.06-.06.06-.157 0-.217l-.13-.128c-.06-.06-.156-.06-.216 0s-.06.157 0 .217l.128.128zm.928 1.714c-.085 0-.153.068-.153.153v.183c0 .084.07.153.153.153s.153-.07.153-.153v-.182c0-.084-.067-.152-.152-.152zm0-2.01c.085 0 .153-.068.153-.152v-.182c0-.085-.068-.153-.152-.153-.085 0-.153.07-.153.154v.182c0 .085.07.153.153.153zm-.927 1.716l-.127.128c-.06.06-.06.157 0 .217.03.03.07.044.11.044.038 0 .077-.015.108-.045l.13-.13c.06-.06.06-.157 0-.217s-.158-.06-.218 0zm-.077-.71c0-.086-.068-.154-.153-.154h-.182c-.084 0-.153.068-.153.153 0 .084.07.153.153.153h.182c.085 0 .153-.07.153-.153zm2.01 0c0 .083.07.152.153.152h.182c.084 0 .153-.07.153-.153 0-.085-.068-.153-.152-.153h-.182c-.085 0-.153.068-.153.153zm-6.32 2.16c.577 0 1.12-.225 1.527-.633.842-.84.842-2.21 0-3.054-.408-.408-.95-.632-1.527-.632s-1.12.225-1.527.632c-.408.41-.633.95-.633 1.528 0 .577.225 1.12.633 1.527.408.41.95.634 1.527.634zM9.85 8.13c.322-.32.75-.497 1.203-.497.454 0 .88.177 1.202.498.663.664.663 1.743 0 2.406-.32.32-.75.498-1.202.498-.454 0-.88-.177-1.202-.498-.662-.663-.662-1.742 0-2.405zm2.14 2.343c.02.008.04.013.06.013.04 0 .08-.016.11-.045.044-.043.057-.11.033-.168-.013-.03-.312-.72-.818-1.226-.15-.15-.458-.15-.61 0-.074.075-.118.186-.118.305 0 .12.043.23.12.306.504.505 1.195.805 1.224.817zm-1.008-1.21c.018-.018.052-.03.088-.03s.07.012.088.03c.222.222.404.49.533.71-.217-.13-.485-.31-.707-.534-.018-.02-.03-.053-.03-.09 0-.035.012-.07.03-.087zm-.856.78l-.128.13c-.06.06-.06.156 0 .216.03.03.07.044.11.044s.077-.015.108-.045l.128-.13c.06-.06.06-.157 0-.217s-.157-.06-.217 0zm1.746-1.375c.04 0 .078-.015.11-.045l.127-.128c.06-.06.06-.157 0-.217s-.158-.06-.218 0l-.128.128c-.06.06-.06.157 0 .217.03.03.07.045.108.045zm-1.824.665c0-.084-.07-.153-.153-.153h-.182c-.085 0-.153.07-.153.153 0 .085.07.153.153.153h.182c.085 0 .153-.068.153-.153zm2.01 0c0 .085.07.154.153.154h.183c.085 0 .153-.07.153-.154 0-.084-.07-.153-.153-.153h-.182c-.083 0-.152.07-.152.154zm-1.932-.71c.03.03.07.045.11.045s.077-.015.108-.045c.06-.06.06-.157 0-.217l-.128-.128c-.06-.06-.157-.06-.217 0s-.06.157 0 .217l.127.128zm.928-.294c.085 0 .153-.07.153-.154v-.182c0-.085-.07-.153-.153-.153s-.153.07-.153.154v.182c0 .084.07.153.154.153zm0 2.008c-.085 0-.153.07-.153.153v.183c0 .084.07.153.154.153s.153-.07.153-.153v-.182c0-.084-.07-.152-.153-.152zm9.65 10.193c.127 0 .23-.102.23-.23v-3.494h.29c.085 0 .153-.07.153-.153v-.47c0-.085-.068-.153-.153-.153h-.29v-1.89c0-.126-.103-.23-.23-.23s-.23.104-.23.23v1.89h-.29c-.084 0-.152.07-.152.153v.47c0 .084.07.153.153.153h.29V20.3c0 .128.102.23.23.23zm-.366-4.194h.733v.164h-.732v-.164zm-2.04 4.195c.127 0 .23-.102.23-.23v-1.977h.29c.085 0 .153-.068.153-.153v-.47c0-.085-.067-.153-.152-.153h-.29V14.14c0-.126-.103-.23-.23-.23s-.23.104-.23.23v3.407h-.29c-.084 0-.152.068-.152.153v.47c0 .085.068.153.153.153h.288V20.3c0 .128.103.23.23.23zm-.366-2.676h.732v.163h-.732v-.163zm-2.04 2.677c.127 0 .23-.102.23-.23v-2.35h.29c.085 0 .153-.068.153-.152v-.47c0-.085-.07-.153-.153-.153h-.29v-3.033c0-.127-.103-.23-.23-.23s-.23.103-.23.23v3.033h-.29c-.084 0-.152.07-.152.153v.47c0 .084.068.153.153.153h.29v2.35c0 .128.102.23.23.23zm-.366-3.05h.732v.164h-.732v-.164zm-1.552-2.862h-.035c-.023-.118-.07-.228-.135-.324l.024-.024c.06-.06.06-.157 0-.217s-.158-.06-.218 0l-.024.024c-.096-.066-.205-.112-.324-.134v-.034c0-.086-.068-.154-.153-.154-.083 0-.152.07-.152.153v.034c-.118.022-.228.068-.324.134l-.024-.024c-.06-.06-.157-.06-.217 0s-.06.157 0 .217l.024.025c-.066.096-.112.205-.134.324h-.035c-.085 0-.153.068-.153.152 0 .085.07.153.153.153h.035c.022.118.067.228.133.324l-.024.023c-.06.06-.06.157 0 .217.03.03.07.045.11.045.038 0 .077-.015.108-.044l.024-.023c.096.066.205.11.324.133v.035c0 .085.07.153.153.153.086 0 .154-.068.154-.153V15.6c.12-.022.228-.068.324-.134l.024.024c.03.03.07.045.11.045.04 0 .077-.015.108-.045.06-.06.06-.157 0-.217l-.024-.024c.066-.097.112-.206.134-.325h.035c.085 0 .153-.068.153-.153 0-.084-.07-.153-.155-.153zm-.862.69c-.147 0-.28-.06-.378-.157-.098-.097-.158-.23-.158-.378 0-.147.06-.28.156-.378s0-.002.002-.002c.097-.097.23-.156.378-.156s.28.06.378.156.002 0 .002.002c.097.097.156.23.156.378 0 .296-.24.536-.536.536zm-2.136-.69h-.035c-.02-.118-.067-.228-.133-.324l.024-.024c.06-.06.06-.157 0-.217s-.156-.06-.216 0l-.024.024c-.096-.066-.205-.112-.324-.134v-.034c0-.086-.07-.154-.153-.154s-.153.07-.153.153v.034c-.12.022-.228.068-.324.134l-.024-.024c-.06-.06-.157-.06-.217 0s-.06.157 0 .217l.024.025c-.067.096-.113.205-.135.324H9.25c-.085 0-.153.068-.153.152 0 .085.068.153.153.153h.035c.022.118.067.228.133.324l-.024.023c-.06.06-.06.157 0 .217.03.03.07.045.11.045s.077-.015.108-.044l.024-.023c.096.066.205.112.324.134v.036c0 .085.07.153.153.153s.153-.07.153-.154V15.6c.118-.02.228-.067.324-.133l.024.024c.03.03.07.046.11.046s.077-.015.108-.045c.06-.06.06-.156 0-.216l-.024-.024c.066-.096.112-.205.133-.324h.036c.085 0 .153-.068.153-.153 0-.085-.07-.154-.154-.154zm-.862.69c-.147 0-.28-.06-.378-.157-.098-.097-.158-.23-.158-.378 0-.147.06-.28.156-.378s0-.002.002-.002c.097-.097.23-.156.378-.156s.28.06.378.156.002 0 .002.002c.096.097.156.23.156.378 0 .296-.24.536-.536.536zm3.86 2.63c.085 0 .153-.068.153-.152 0-.085-.068-.153-.153-.153h-.035c-.023-.12-.07-.228-.135-.324l.024-.025c.06-.06.06-.157 0-.217s-.158-.06-.218 0l-.024.024c-.096-.066-.205-.112-.324-.134v-.034c0-.085-.068-.153-.153-.153-.083 0-.152.07-.152.154v.034c-.118.022-.228.068-.324.134l-.024-.024c-.06-.06-.157-.06-.217 0s-.06.157 0 .217l.024.024c-.066.095-.112.204-.134.323h-.035c-.085 0-.153.068-.153.153 0 .084.07.153.153.153h.035c.022.117.068.227.134.323l-.024.024c-.06.06-.06.157 0 .217.03.03.07.045.11.045.038 0 .077-.016.108-.046l.025-.024c.096.066.205.112.324.134v.035c0 .083.068.152.152.152.085 0 .153-.07.153-.153v-.036c.118-.022.228-.068.324-.134l.023.024c.03.03.07.045.11.045.04 0 .077-.016.108-.046.06-.06.06-.157 0-.217l-.023-.024c.066-.096.112-.206.134-.324h.035zm-.862.384c-.147 0-.28-.06-.378-.157-.098-.098-.158-.232-.158-.38s.06-.28.157-.377l.002-.002c.097-.097.23-.157.378-.157s.28.06.378.156h.002v.002c.098.097.158.23.158.378 0 .296-.24.536-.536.536zm-2.136-.69h-.035c-.02-.118-.067-.227-.133-.323l.024-.025c.06-.06.06-.157 0-.217s-.156-.06-.216 0l-.024.024c-.096-.066-.205-.112-.324-.134v-.034c0-.085-.07-.153-.153-.153s-.153.07-.153.154v.034c-.12.022-.228.068-.324.134l-.024-.024c-.06-.06-.157-.06-.217 0s-.06.157 0 .217l.024.024c-.067.095-.113.204-.134.323H9.25c-.084 0-.152.068-.152.153 0 .084.068.153.153.153h.036c.022.117.068.227.134.323l-.025.024c-.06.06-.06.157 0 .217.03.03.07.045.11.045s.077-.016.108-.046l.024-.024c.096.066.205.112.324.134v.035c0 .083.07.152.154.152s.153-.07.153-.153v-.036c.118-.022.228-.068.324-.134l.025.024c.03.03.07.045.11.045s.077-.016.108-.046c.06-.06.06-.157 0-.217l-.024-.024c.065-.096.11-.205.133-.324h.035c.085 0 .153-.07.153-.154 0-.085-.07-.153-.153-.153zm-.862.69c-.147 0-.28-.06-.378-.157-.097-.098-.157-.232-.157-.38s.06-.28.156-.377l.002-.002c.097-.097.23-.157.378-.157s.28.06.378.156.002 0 .002.002c.097.097.157.23.157.378v.002c0 .295-.24.536-.537.536zm3.692 2.955c.066-.096.112-.205.133-.324h.034c.085 0 .153-.07.153-.153 0-.085-.068-.153-.153-.153h-.035c-.023-.12-.07-.23-.135-.324l.024-.024c.06-.06.06-.158 0-.218s-.158-.06-.218 0l-.024.024c-.096-.066-.205-.11-.324-.133v-.034c0-.086-.068-.154-.153-.154-.083 0-.152.068-.152.153v.033c-.118.022-.228.068-.324.133l-.024-.024c-.06-.06-.157-.06-.217 0s-.06.157 0 .217l.024.023c-.066.096-.112.206-.134.324h-.035c-.085 0-.153.068-.153.153 0 .084.07.153.153.153h.035c.022.118.068.228.134.324l-.024.024c-.06.06-.06.158 0 .218.03.03.07.045.11.045.038 0 .077-.015.108-.045l.025-.024c.096.066.205.112.324.134v.035c0 .084.068.153.152.153.085 0 .153-.07.153-.153v-.035c.118-.022.228-.068.324-.134l.023.024c.03.03.07.045.11.045.04 0 .077-.015.108-.045.06-.06.06-.157 0-.217l-.023-.023zm-.692.06h-.002c-.147 0-.28-.06-.377-.158v-.002c-.098-.097-.158-.23-.158-.378s.06-.28.157-.378l.002-.002c.097-.097.23-.157.378-.157s.28.06.378.157c.097.097.157.23.157.38 0 .294-.24.535-.536.535zm-2.138-.69h-.035c-.02-.12-.067-.228-.133-.324l.024-.024c.06-.06.06-.158 0-.218s-.156-.06-.216 0l-.024.024c-.096-.066-.205-.11-.324-.133v-.034c0-.086-.07-.154-.153-.154s-.153.068-.153.153v.033c-.118.022-.228.068-.324.134l-.025-.025c-.06-.06-.156-.06-.216 0s-.06.157 0 .217l.025.024c-.067.096-.113.205-.135.324H9.25c-.085 0-.153.068-.153.153 0 .085.068.154.153.154h.035c.022.118.067.228.133.323l-.024.024c-.06.06-.06.158 0 .218.03.03.07.045.11.045s.077-.015.108-.045l.024-.024c.096.066.205.112.324.134v.035c0 .084.07.153.153.153s.153-.07.153-.153v-.035c.118-.022.228-.068.324-.134l.024.024c.03.03.07.045.11.045s.077-.015.108-.045c.06-.06.06-.157 0-.217l-.024-.023c.066-.096.112-.205.134-.324h.035c.085 0 .153-.07.153-.153 0-.085-.07-.154-.154-.154zm-.86.69h-.002c-.148 0-.282-.06-.378-.158v-.002c-.097-.097-.157-.23-.157-.378s.06-.28.156-.378 0-.002.002-.002c.097-.097.23-.157.378-.157s.28.06.378.157c.097.097.157.23.157.378v.002c0 .295-.24.535-.535.536zm12.816-7.35c-.322 0-.584.262-.584.584 0 .324.262.586.584.586s.584-.262.584-.585c0-.32-.262-.583-.584-.583zm0 .862c-.153 0-.278-.125-.278-.28 0-.152.124-.277.278-.277s.278.125.278.278c0 .155-.125.28-.278.28zm0 .904c-.322 0-.584.262-.584.584 0 .323.262.584.584.584s.584-.262.584-.584c0-.323-.262-.584-.584-.584zm0 .86c-.153 0-.278-.123-.278-.277 0-.153.124-.278.278-.278s.278.124.278.277c0 .154-.125.278-.278.278zm0 .906c-.322 0-.584.262-.584.584s.262.585.584.585.584-.263.584-.586-.262-.584-.584-.584zm0 .862c-.153 0-.278-.124-.278-.278s.124-.278.278-.278.278.124.278.278-.125.278-.278.278zm0 .904c-.322 0-.584.262-.584.584s.262.585.584.585.584-.262.584-.585-.262-.584-.584-.584zm0 .862c-.153 0-.278-.124-.278-.278s.124-.278.278-.278.278.124.278.278-.125.278-.278.278zm.383-7.374c0-.084-.07-.153-.153-.153H9.572c-.085 0-.154.07-.154.154 0 .085.07.153.153.153h13.592c.085 0 .153-.068.153-.153zM9.462 23.11c-.027.027-.042.066-.042.106 0 .04.015.08.042.107.03.028.068.046.108.046.043 0 .083-.02.11-.047.028-.028.046-.068.046-.107 0-.043-.018-.08-.046-.11-.055-.056-.157-.06-.218.002zm1.015-.047c-.083 0-.153.067-.153.153 0 .083.07.153.153.153.086 0 .153-.07.153-.154 0-.086-.068-.153-.153-.153zm2.718 0c-.086 0-.153.067-.153.153 0 .083.068.153.153.153.086 0 .153-.07.153-.154 0-.086-.067-.153-.153-.153zm-.907 0c-.083 0-.153.067-.153.153 0 .083.07.153.153.153.086 0 .153-.07.153-.154 0-.086-.067-.153-.152-.153zm-.904 0c-.086 0-.153.067-.153.153 0 .083.068.153.154.153.083 0 .153-.07.153-.154 0-.086-.07-.153-.153-.153zm5.434 0c-.083 0-.153.067-.153.153 0 .083.07.153.153.153.086 0 .153-.07.153-.154 0-.086-.066-.153-.152-.153zm-1.812 0c-.082 0-.153.067-.153.153 0 .083.07.153.153.153.086 0 .153-.07.153-.154 0-.086-.067-.153-.154-.153zm4.53 0c-.082 0-.152.067-.152.153 0 .083.07.153.153.153.086 0 .153-.07.153-.154 0-.086-.067-.153-.153-.153zm1.812 0c-.083 0-.153.067-.153.153 0 .083.07.153.153.153.086 0 .153-.07.153-.154 0-.086-.066-.153-.152-.153zm-3.622 0c-.086 0-.153.067-.153.153 0 .083.067.153.153.153s.153-.07.153-.154c0-.086-.07-.153-.154-.153zm-1.812 0c-.086 0-.153.067-.153.153 0 .083.068.153.154.153.083 0 .153-.07.153-.154 0-.086-.07-.153-.153-.153zm4.53 0c-.086 0-.153.067-.153.153 0 .083.07.153.154.153.083 0 .153-.07.153-.154 0-.086-.07-.153-.153-.153zm-6.34 0c-.087 0-.154.067-.154.153 0 .083.067.153.153.153.083 0 .153-.07.153-.154 0-.086-.07-.153-.153-.153zm8.152 0c-.086 0-.153.067-.153.153 0 .083.068.153.153.153.086 0 .153-.07.153-.154 0-.086-.068-.153-.154-.153zm-3.623 0c-.086 0-.153.067-.153.153 0 .083.068.153.153.153.083 0 .153-.07.153-.154 0-.086-.07-.153-.153-.153zm4.42.046c-.028.027-.043.066-.043.106 0 .04.015.08.043.107.03.028.068.046.11.046.04 0 .08-.02.108-.047s.047-.068.047-.107c0-.043-.018-.08-.046-.11-.058-.056-.153-.06-.217.002zm-13.59.915c-.028.028-.043.068-.043.108 0 .04.015.08.042.11.03.028.07.043.108.043.043 0 .083-.016.11-.043.028-.03.046-.07.046-.11 0-.04-.018-.08-.046-.108-.055-.055-.16-.058-.218 0zm4.64-.046c-.086 0-.153.07-.153.152 0 .086.067.153.153.153.083 0 .153-.068.153-.153 0-.083-.07-.153-.153-.153zm6.34 0c-.085 0-.152.07-.152.152 0 .086.07.153.154.153.083 0 .153-.068.153-.153 0-.083-.07-.153-.153-.153zm-9.966 0c-.083 0-.153.07-.153.152 0 .086.07.153.153.153.086 0 .153-.068.153-.153 0-.083-.068-.153-.153-.153zm11.78 0c-.087 0-.154.07-.154.152 0 .086.068.153.153.153.086 0 .153-.068.153-.153 0-.083-.068-.153-.154-.153zm-.91 0c-.082 0-.152.07-.152.152 0 .086.07.153.153.153.086 0 .153-.068.153-.153 0-.083-.066-.153-.152-.153zm-1.81 0c-.083 0-.153.07-.153.152 0 .086.07.153.153.153.086 0 .153-.068.153-.153 0-.083-.067-.153-.153-.153zm-7.25 0c-.082 0-.152.07-.152.152 0 .086.07.153.153.153.086 0 .153-.068.153-.153 0-.083-.067-.153-.152-.153zm-.903 0c-.086 0-.153.07-.153.152 0 .086.068.153.154.153.083 0 .153-.068.153-.153 0-.083-.07-.153-.153-.153zm7.25 0c-.087 0-.154.07-.154.152 0 .086.068.153.153.153.083 0 .153-.068.153-.153 0-.083-.07-.153-.153-.153zm-5.44 0c-.085 0-.152.07-.152.152 0 .086.068.153.153.153.086 0 .153-.068.153-.153 0-.083-.067-.153-.153-.153zm1.812 0c-.082 0-.153.07-.153.152 0 .086.07.153.153.153.086 0 .153-.068.153-.153 0-.083-.067-.153-.154-.153zm1.812 0c-.083 0-.153.07-.153.152 0 .086.07.153.153.153.086 0 .153-.068.153-.153 0-.083-.066-.153-.152-.153zm-.904 0c-.086 0-.153.07-.153.152 0 .086.068.153.154.153.083 0 .153-.068.153-.153 0-.083-.07-.153-.153-.153zm1.812 0c-.086 0-.153.07-.153.152 0 .086.067.153.153.153s.153-.068.153-.153c0-.083-.07-.153-.154-.153zm5.327.045c-.028.03-.043.068-.043.108 0 .04.015.08.043.11.03.028.068.043.11.043.04 0 .08-.016.108-.043.03-.03.047-.07.047-.11 0-.04-.018-.08-.046-.108-.054-.058-.156-.058-.217 0zm.262-2.27c0-.084-.07-.152-.153-.152h-7.888c-.085 0-.153.068-.153.153 0 .084.07.153.154.153h7.888c.085 0 .153-.07.153-.154z"/></svg>