<svg xmlns="http://www.w3.org/2000/svg" width="32" height="32" viewBox="0 0 32 32"><path d="M23.19 13.995c-.59 0-1.15.112-1.672.31l-.788-2.717c-.008-.026-.017-.07-.02-.097l-.123-1.122 1.154-.573c.034.04.07.074.117.102.543.332.726.6.715.74-.015.2-.388.462-.64.568-.248.104-.367.39-.264.64.078.19.26.303.453.303.063 0 .126-.012.188-.037.12-.048 1.172-.507 1.24-1.395.047-.59-.35-1.148-1.18-1.655-.23-.14-.534-.068-.675.163-.012.02-.02.042-.03.064l-1.385.687c-.127.063-.205.206-.19.348l.12 1.09h-7.79l-.48-1.244c.103-.033.213-.072.34-.118.34-.126.73-.27 1.054-.27.38 0 .647-.275.676-.53.034-.308-.277-.42-.504-.504-.106-.038-.354-.05-.938-.07-.506-.018-1.136-.04-1.382-.105-.022-.004-.05-.01-.086-.02-.135-.034-.34-.085-.56-.085-.266 0-.48.078-.64.23-.044.042-.326.376-.292.614.028.193.215.287.773.565l.465.234c.156.07.316.113.475.13l.014.002.105-.006.49 1.273-1.394 2.9c-.552-.226-1.155-.354-1.788-.354-2.597 0-4.708 2.113-4.708 4.708 0 2.597 2.112 4.71 4.708 4.71 2.28 0 4.186-1.63 4.616-3.786l.945.138c.047.547.502.98 1.062.98.59 0 1.072-.48 1.072-1.072 0-.25-.09-.478-.234-.66l4.53-5.695.324 1.12c-1.565.783-2.644 2.398-2.644 4.264 0 2.63 2.14 4.77 4.77 4.77 2.63 0 4.77-2.14 4.77-4.77 0-2.63-2.14-4.77-4.77-4.77zm-1.21-4.597c.045-.072.14-.095.212-.05.713.435 1.057.886 1.02 1.34-.054.7-.993 1.094-1.033 1.11-.02.008-.04.01-.06.01-.06 0-.116-.035-.14-.094-.033-.078.004-.168.082-.2.224-.093.813-.427.846-.852.026-.325-.278-.69-.875-1.054-.073-.045-.095-.14-.05-.21zm-10.29.46l-.346.017c-.117-.014-.23-.046-.342-.095-.174-.09-.327-.166-.46-.232-.25-.125-.49-.243-.567-.306.026-.078.127-.233.176-.28.09-.086.215-.127.386-.127.174 0 .352.045.47.074l.094.02c.274.073.9.095 1.45.115.334.012.75.026.826.05.085.03.242.087.265.117-.007.07-.12.202-.31.202-.39 0-.81.156-1.182.293-.174.064-.338.124-.458.152zm-1.135 5.635c1.15.638 1.933 1.866 1.933 3.272 0 .1-.007.2-.015.298l-3.145-.46c-.026-.098-.074-.186-.14-.26l1.367-2.85zm-1.85 3.66c.122 0 .226-.06.295-.148-.07.088-.173.15-.295.15-.21 0-.382-.172-.382-.383 0-.21.17-.382.382-.382.122 0 .226.06.295.15-.07-.09-.174-.15-.295-.15-.21 0-.382.172-.382.382 0 .21.172.382.382.382zm.043-1.022l-.033-.002c-.35 0-.637.286-.637.637s.286.637.637.637c.233 0 .435-.127.547-.314l3.142.46c-.36 1.688-1.863 2.957-3.657 2.957-2.063 0-3.74-1.678-3.74-3.74 0-2.063 1.677-3.74 3.74-3.74.483 0 .943.094 1.367.26L8.747 18.13zm0 4.976c-2.395 0-4.342-1.947-4.342-4.34 0-2.395 1.947-4.34 4.34-4.34.577 0 1.126.114 1.63.32l-.155.32c-.455-.182-.952-.286-1.473-.286-2.198 0-3.986 1.788-3.986 3.986 0 2.198 1.79 3.986 3.987 3.986 1.917 0 3.52-1.36 3.9-3.166l.353.05c-.404 1.98-2.158 3.47-4.253 3.47zm4.32-3.955l-.35-.05c.008-.11.016-.22.016-.334 0-1.504-.838-2.816-2.072-3.494l.154-.32c1.353.735 2.273 2.17 2.273 3.814-.002.13-.01.258-.02.386zm.365.054c.014-.145.022-.29.022-.44 0-1.79-1.005-3.35-2.482-4.145l1.156-2.41 2.59 6.682c-.152.117-.272.27-.344.45l-.944-.137zm1.943 1.358c-.456 0-.826-.37-.826-.826s.37-.826.826-.826.826.37.826.826-.37.826-.826.826zm5.15-7.7L15.79 18.75c-.13-.056-.27-.086-.418-.086-.05 0-.098.008-.145.015l-2.62-6.778h7.654l.27.958-.004.003zm.866 2.767c.014.047.043.124.067.17l1.51 3.073c.043.086.13.137.22.137.037 0 .074-.008.11-.025.12-.06.17-.207.11-.328l-1.51-3.072c-.013-.025-.03-.066-.037-.092l-.058-.2c.43-.17.896-.268 1.386-.268 2.063 0 3.742 1.678 3.742 3.74 0 2.062-1.678 3.74-3.74 3.74s-3.742-1.677-3.742-3.74c0-1.396.77-2.614 1.907-3.256l.035.12zm1.8 7.415c-2.36 0-4.28-1.92-4.28-4.28 0-1.642.93-3.07 2.29-3.787l.084.287c-1.24.677-2.082 1.992-2.082 3.5 0 2.198 1.788 3.986 3.986 3.986 2.198 0 3.986-1.787 3.986-3.985s-1.788-3.986-3.986-3.986c-.514 0-1.003.1-1.454.278l-.082-.283c.478-.185.994-.29 1.537-.29 2.36 0 4.28 1.92 4.28 4.28s-1.918 4.28-4.278 4.28z"/></svg>