<svg xmlns="http://www.w3.org/2000/svg" viewBox="0 0 32 32"><path d="M15.8 27.44c-.03 0-.06-.01-.08-.02l-3.94-2.52c-.07-.05-.09-.14-.05-.21.05-.07.14-.09.21-.05l3.94 2.52c.07.05.09.14.05.21-.03.05-.08.07-.13.07zm.06-4.23c-.03 0-.06-.01-.09-.03l-3.06-2.04c-.07-.05-.09-.15-.04-.22s.15-.09.22-.04l3.06 2.04c.07.05.09.15.04.22-.04.05-.09.07-.13.07zm.05-4.23c-.03 0-.07-.01-.09-.03l-2.17-1.57c-.07-.05-.08-.15-.03-.22s.15-.08.22-.03l2.17 1.57c.07.05.08.15.03.22-.04.04-.08.06-.13.06zm.06-4.24c-.03 0-.07-.01-.1-.04l-1.29-1.09c-.07-.06-.07-.15-.02-.22.05-.06.15-.07.22-.02l1.29 1.09c.07.06.07.15.02.22-.03.04-.08.06-.12.06zm4.89 12.14c-.02 0-.05-.01-.07-.02l-4.6-2.35c-.08-.04-.11-.13-.07-.21.04-.08.13-.1.21-.07l4.6 2.35c.08.04.11.13.07.21-.03.06-.09.09-.14.09zM20 23.59c-.03 0-.05-.01-.08-.02l-3.74-1.98c-.07-.04-.1-.13-.06-.21.04-.07.14-.1.21-.06l3.74 1.98c.07.04.1.13.06.21-.02.05-.07.08-.13.08zm-.85-3.29c-.03 0-.06-.01-.08-.02l-2.89-1.61c-.07-.04-.09-.14-.05-.21.05-.07.14-.09.21-.05l2.89 1.61c.07.04.09.14.05.21-.03.05-.08.07-.13.07zm-.86-3.29c-.03 0-.06-.01-.09-.03l-2.04-1.24c-.07-.05-.09-.14-.04-.21.05-.07.14-.09.21-.04l2.04 1.24c.07.05.09.14.04.21-.02.05-.07.07-.12.07zm-.85-3.28c-.03 0-.06-.01-.09-.03l-1.18-.87c-.07-.05-.08-.15-.03-.21.05-.07.15-.08.21-.03l1.18.87c.07.05.08.15.03.21-.03.03-.07.06-.12.06zm-5.4-3.14c.04.03.08.04.13.04.07 0 .15-.04.19-.1.07-.11.04-.25-.06-.32-1.05-.69-1.67-1.86-1.67-3.1s.62-2.39 1.66-3.09c.11-.07.13-.21.06-.32-.07-.11-.21-.13-.32-.06-1.16.78-1.86 2.08-1.86 3.47-.01 1.4.7 2.7 1.87 3.48zm-.36-3.48c0 .88.44 1.7 1.18 2.19.04.03.08.04.13.04.07 0 .15-.04.19-.1.07-.11.04-.25-.06-.32-.61-.4-.97-1.08-.97-1.8s.36-1.39.96-1.8c.1-.08.13-.22.06-.32-.07-.11-.21-.13-.32-.06-.73.48-1.17 1.3-1.17 2.17zm2 .89c.04.03.08.04.13.04.07 0 .15-.04.19-.1.07-.11.04-.25-.07-.32-.17-.11-.27-.3-.27-.5s.1-.39.27-.5c.11-.07.13-.21.06-.32-.07-.11-.21-.13-.32-.06-.3.2-.47.53-.47.88s.18.68.48.88zm7.7-.89c0 1.25-.63 2.41-1.67 3.1-.11.07-.13.21-.07.32.04.07.12.1.19.1.04 0 .09-.01.13-.04 1.18-.78 1.88-2.08 1.88-3.49 0-1.39-.69-2.69-1.86-3.47-.11-.07-.25-.04-.32.06-.07.11-.04.25.06.32 1.04.7 1.66 1.86 1.66 3.1zm-1.52 0c0 .72-.36 1.4-.97 1.8-.11.07-.13.21-.07.32.04.07.12.1.19.1.04 0 .09-.01.13-.04.74-.49 1.18-1.31 1.18-2.19 0-.87-.44-1.69-1.17-2.18-.11-.07-.25-.04-.32.06s-.04.25.06.32c.61.42.97 1.09.97 1.81zm-1.8.5c-.1.07-.13.22-.06.32.04.07.12.1.19.1.04 0 .09-.01.13-.04.3-.2.48-.53.48-.89 0-.35-.18-.68-.47-.88-.11-.06-.26-.04-.33.07-.07.11-.04.25.06.32.17.11.27.3.27.5.01.2-.1.39-.27.5zm-1.54.35c.3-.16.51-.48.51-.85 0-.53-.43-.97-.97-.97-.53 0-.97.43-.97.97 0 .37.21.68.51.85l-5 20.26c-.04.16.06.33.22.37.02.01.05.01.07.01.14 0 .26-.09.3-.23l.4-1.63 4.16-2.13v5.31c0 .17.14.31.31.31.17 0 .31-.14.31-.31v-2.49c.02 0 .03 0 .05-.01l3.76-2.11.75 3.05c.03.14.16.23.3.23.02 0 .05 0 .07-.01.16-.04.26-.21.22-.37l-5-20.25zm2.63 13.19l-2.78 1.67v-3.91l1.91-1.28.87 3.52zm-.95-3.84l-1.83 1.23v-3.92l.97-.81.86 3.5zm-.95-3.84l-.88.74V9.9l.88 3.57zm-1.5 10.8l-4.06 2.08.71-2.88 3.35-1.77v2.57zm0-2.92l-3.26 1.72.71-2.87 2.55-1.42v2.57zm0-2.92l-2.45 1.36.71-2.86 1.74-1.06v2.56zm0-2.91l-1.64 1 .7-2.84.93-.69v2.53zm0-2.92l-.82.6.82-3.31v2.71zm.58-5.26c-.01.01-.01.02-.02.03-.01.01-.02.01-.02.02-.06.05-.14.08-.22.08-.08 0-.16-.03-.22-.08-.01-.01-.02-.01-.02-.02-.01-.01-.01-.02-.02-.03-.07-.06-.11-.14-.11-.23 0-.2.16-.36.36-.36s.36.16.36.36c0 .09-.04.17-.09.23zm.04 19.75v-3.91l2.86-1.72.87 3.54-3.73 2.09z"/></svg>