<svg xmlns="http://www.w3.org/2000/svg" viewBox="0 0 36 36"><title>Icon-Red_Hat-Lower_Cost_Euro-A-Black-RGB</title><path d="M19.72 28.22l-.72.72V18.75h5a.75.75 0 0 0 0-1.5h-5v-2.5h5a.75.75 0 0 0 0-1.5h-5v-8a.75.75 0 0 0-1.5 0v8h-3.85A7.72 7.72 0 0 1 16.19 10a.74.74 0 0 0 .17-1 .75.75 0 0 0-1-.17A9.24 9.24 0 0 0 12 13.25h-2a.75.75 0 0 0 0 1.5h1.66a10.52 10.52 0 0 0-.16 1.69 7.34 7.34 0 0 0 .05.81H10a.75.75 0 0 0 0 1.5h1.78a9.3 9.3 0 0 0 3.55 5.38.79.79 0 0 0 .44.14.75.75 0 0 0 .44-1.36 7.75 7.75 0 0 1-2.87-4.16h4.16v10.19l-.72-.72a.75.75 0 1 0-1.06 1.06l2 2a.73.73 0 0 0 .81.16.74.74 0 0 0 .22-.14l2-2a.75.75 0 0 0-1.06-1.06zm-2.22-11h-4.45a7.34 7.34 0 0 1-.05-.81 8.57 8.57 0 0 1 .18-1.69h4.32z"/><path d="M20.7 8.67a6.82 6.82 0 0 1 3.47 1.24.75.75 0 1 0 .83-1.23 8.46 8.46 0 0 0-4.2-1.51.78.78 0 0 0-.8.7.76.76 0 0 0 .7.8zM25.23 23.14a.75.75 0 0 0-1-.18 6.78 6.78 0 0 1-3.49 1.25.75.75 0 0 0 .05 1.5h.05a8.48 8.48 0 0 0 4.25-1.52.75.75 0 0 0 .14-1.05z"/></svg>