<svg version="1" xmlns="http://www.w3.org/2000/svg" viewBox="0 0 144 144"><path fill="#221F1F" d="M97.9 102.2h-1.8c-.5 0-.9-.4-.9-.9s.4-.9.9-.9h1.8c.5 0 .9.4.9.9s-.4.9-.9.9zm-5.4 0h-1.8c-.5 0-.9-.4-.9-.9s.4-.9.9-.9h1.8c.5 0 .9.4.9.9s-.4.9-.9.9zm-5.4 0h-1.8c-.5 0-.9-.4-.9-.9s.4-.9.9-.9h1.8c.5 0 .9.4.9.9s-.4.9-.9.9zm-5.3 0H80c-.5 0-.9-.4-.9-.9s.4-.9.9-.9h1.8c.5 0 .9.4.9.9s-.4.9-.9.9zm-5.4 0h-1.8c-.5 0-.9-.4-.9-.9s.4-.9.9-.9h1.8c.5 0 .9.4.9.9s-.4.9-.9.9zm-5.4 0h-1.8c-.5 0-.9-.4-.9-.9s.4-.9.9-.9H71c.5 0 .9.4.9.9s-.4.9-.9.9zm-5.4 0h-1.8c-.5 0-.9-.4-.9-.9s.4-.9.9-.9h1.8c.5 0 .9.4.9.9s-.4.9-.9.9zm-5.4 0h-1.8c-.5 0-.9-.4-.9-.9s.4-.9.9-.9h1.8c.5 0 .9.4.9.9s-.4.9-.9.9zm-5.4 0H53c-.5 0-.9-.4-.9-.9s.4-.9.9-.9h1.8c.5 0 .9.4.9.9s-.4.9-.9.9zm-5.4 0h-1.8c-.5 0-.9-.4-.9-.9s.4-.9.9-.9h1.8c.5 0 .9.4.9.9s-.4.9-.9.9zm-5.4-.1h-.2c-.8-.2-1.5-.9-1.9-1.7-.2-.5 0-1 .5-1.2.5-.2 1 0 1.2.5.1.3.4.5.7.6.5.1.8.6.6 1.1-.1.5-.5.7-.9.7zm57.2-.9c-.2 0-.3 0-.4-.1-.4-.2-.6-.8-.3-1.2.1-.2.1-.3.1-.5v-.8c0-.5.4-.9.9-.9s.9.4.9.9v.8c0 .5-.1 1-.4 1.4-.2.2-.5.4-.8.4zm-58.6-3.8c-.5 0-.9-.4-.9-.9v-1.8c0-.5.4-.9.9-.9s.9.4.9.9v1.8c0 .5-.4.9-.9.9zm58.8-1.5c-.5 0-.9-.4-.9-.9v-1.8c0-.5.4-.9.9-.9s.9.4.9.9V95c0 .5-.4.9-.9.9zM42.6 92c-.5 0-.9-.4-.9-.9v-1.8c0-.5.4-.9.9-.9s.9.4.9.9v1.8c0 .5-.4.9-.9.9zm58.8-1.5c-.5 0-.9-.4-.9-.9v-1.8c0-.5.4-.9.9-.9s.9.4.9.9v1.8c0 .5-.4.9-.9.9zm-58.8-3.9c-.5 0-.9-.4-.9-.9v-1.8c0-.5.4-.9.9-.9s.9.4.9.9v1.8c0 .5-.4.9-.9.9zm58.8-1.5c-.5 0-.9-.4-.9-.9v-1.8c0-.5.4-.9.9-.9s.9.4.9.9v1.8c0 .5-.4.9-.9.9zm-58.8-3.9c-.5 0-.9-.4-.9-.9v-1.8c0-.5.4-.9.9-.9s.9.4.9.9v1.8c0 .5-.4.9-.9.9zm58.8-1.5c-.5 0-.9-.4-.9-.9V77c0-.5.4-.9.9-.9s.9.4.9.9v1.8c0 .5-.4.9-.9.9zm-58.8-3.9c-.5 0-.9-.4-.9-.9v-1.8c0-.5.4-.9.9-.9s.9.4.9.9v1.8c0 .5-.4.9-.9.9zm58.8-1.5c-.5 0-.9-.4-.9-.9v-1.8c0-.5.4-.9.9-.9s.9.4.9.9v1.8c0 .5-.4.9-.9.9zm-58.8-3.9c-.5 0-.9-.4-.9-.9v-1.8c0-.5.4-.9.9-.9s.9.4.9.9v1.8c0 .5-.4.9-.9.9zm58.8-1.5c-.5 0-.9-.4-.9-.9v-1.8c0-.5.4-.9.9-.9s.9.4.9.9V68c0 .5-.4.9-.9.9zm-58.8-3.8c-.5 0-.9-.4-.9-.9v-1.8c0-.5.4-.9.9-.9s.9.4.9.9v1.8c0 .5-.4.9-.9.9zm58.8-1.6c-.5 0-.9-.4-.9-.9v-1.8c0-.5.4-.9.9-.9s.9.4.9.9v1.8c0 .5-.4.9-.9.9zm-58.8-3.8c-.5 0-.9-.4-.9-.9V57c0-.5.4-.9.9-.9s.9.4.9.9v1.8c0 .5-.4.9-.9.9zm58.8-1.6c-.5 0-.9-.4-.9-.9v-1.8c0-.5.4-.9.9-.9s.9.4.9.9v1.8c0 .5-.4.9-.9.9zm-58.8-3.8c-.5 0-.9-.4-.9-.9v-1.8c0-.5.4-.9.9-.9s.9.4.9.9v1.8c0 .5-.4.9-.9.9zm58.8-1.6c-.5 0-.9-.4-.9-.9V50c0-.5.4-.9.9-.9s.9.4.9.9v1.8c0 .5-.4.9-.9.9zm-58.8-3.8c-.5 0-.9-.4-.9-.9v-1.8c0-.5.4-.9.9-.9s.9.4.9.9V48c0 .5-.4.9-.9.9zm58.8-1.5c-.5 0-.9-.4-.9-.9v-1.6-.1c-.1-.5.3-.9.8-1 .5-.1.9.3 1 .8V46.5c0 .5-.4.9-.9.9zM43.8 44c-.3 0-.7-.2-.8-.5-.2-.5 0-1 .5-1.2.4-.2.8-.2 1.2-.2h1c.5 0 .9.4.9.9s-.4.9-.9.9h-1c-.2 0-.3 0-.4.1h-.5zm55.6-.2h-1.8c-.5 0-.9-.4-.9-.9s.4-.9.9-.9h1.8c.5 0 .9.4.9.9s-.4.9-.9.9zm-5.3 0h-1.8c-.5 0-.9-.4-.9-.9s.4-.9.9-.9h1.8c.5 0 .9.4.9.9s-.4.9-.9.9zm-5.4 0h-1.8c-.5 0-.9-.4-.9-.9s.4-.9.9-.9h1.8c.5 0 .9.4.9.9s-.4.9-.9.9zm-5.4 0h-1.8c-.5 0-.9-.4-.9-.9s.4-.9.9-.9h1.8c.5 0 .9.4.9.9s-.4.9-.9.9zm-5.4 0h-1.8c-.5 0-.9-.4-.9-.9s.4-.9.9-.9h1.8c.5 0 .9.4.9.9s-.4.9-.9.9zm-5.4 0h-1.8c-.5 0-.9-.4-.9-.9s.4-.9.9-.9h1.8c.5 0 .9.4.9.9s-.4.9-.9.9zm-5.4 0h-1.8c-.5 0-.9-.4-.9-.9s.4-.9.9-.9h1.8c.5 0 .9.4.9.9s-.4.9-.9.9zm-5.4 0h-1.8c-.5 0-.9-.4-.9-.9s.4-.9.9-.9h1.8c.5 0 .9.4.9.9s-.4.9-.9.9zm-5.4 0h-1.8c-.5 0-.9-.4-.9-.9s.4-.9.9-.9h1.8c.5 0 .9.4.9.9s-.4.9-.9.9zm-5.4 0h-1.8c-.5 0-.9-.4-.9-.9s.4-.9.9-.9h1.8c.5 0 .9.4.9.9s-.4.9-.9.9z"/></svg>