<svg xmlns="http://www.w3.org/2000/svg" width="32" height="32" viewBox="0 0 32 32"><path d="M9.68 14.862c-1.246-.176-2.3-.398-3.135-.66-.082-.026-.167.02-.192.1-.026.08.02.167.1.192.85.267 1.92.493 3.184.67.007.002.014.003.022.003.074 0 .14-.055.15-.132.012-.084-.046-.162-.13-.174zm16.136-.337c.12-.04.186-.17.147-.29-.04-.12-.17-.186-.29-.146-2.103.69-5.697 1.104-9.614 1.104-1.273 0-2.523-.044-3.714-.13-.126-.008-.237.086-.246.213-.01.126.086.236.212.246 1.203.087 2.463.13 3.746.13 3.963 0 7.61-.42 9.758-1.127zm2.045 5.505v-7.027c0-1.79-5.936-2.727-11.8-2.727-5.866 0-11.802.937-11.802 2.727v7.026c0 1.79 5.937 2.726 11.8 2.726 5.866 0 11.803-.936 11.803-2.727zm-22.99 0v-7.027c0-.883 4.257-2.114 11.188-2.114 6.932 0 11.19 1.23 11.19 2.113v7.026c0 .882-4.258 2.113-11.19 2.113-6.932 0-11.188-1.23-11.188-2.114zM21.35 9.65c.2.02.4.042.6.066l.03.002c.114 0 .213-.086.227-.203.015-.126-.075-.24-.2-.255-.203-.024-.407-.046-.61-.067-.12-.01-.238.08-.25.205-.014.127.078.24.204.253zm-6.807 13.96c-.197-.004-.398-.01-.605-.017-.13-.014-.234.094-.238.22-.005.128.095.235.222.24l.61.018h.007c.123 0 .225-.098.23-.223 0-.127-.1-.232-.226-.236zm3.033 0h-.006c-.21.006-.41.01-.606.013-.127.002-.228.107-.226.234.002.126.105.226.23.226h.004l.61-.012c.127-.002.227-.108.224-.235-.003-.125-.105-.224-.23-.224zm-1.517.02c-.19 0-.394 0-.607-.003-.13.01-.23.1-.232.227 0 .127.102.23.23.232l.61.003c.127 0 .23-.104.23-.23s-.103-.23-.23-.23zm3.024-.076c-.205.01-.407.02-.604.028-.127.005-.226.112-.22.238.004.124.106.22.228.22h.01c.198-.007.402-.016.61-.027.126-.006.223-.115.217-.242-.006-.126-.118-.226-.24-.217zm1.51-.1l-.603.045c-.125.008-.22.117-.212.244.008.12.11.214.23.214h.015c.2-.015.405-.03.61-.047.126-.01.22-.12.21-.247-.01-.127-.123-.22-.248-.21zm-9.074-.002l-.602-.054c-.127-.016-.24.08-.25.206-.013.126.08.24.205.25.204.02.407.04.61.056h.018c.12 0 .22-.09.23-.21.01-.127-.083-.238-.21-.248zm-4.464-.69c-.197-.05-.39-.103-.576-.16-.12-.036-.25.033-.286.155s.032.25.154.286c.193.058.392.114.595.166.02.004.038.006.057.006.102 0 .196-.07.222-.173.03-.123-.043-.248-.166-.28zm1.47.315c-.2-.035-.398-.073-.592-.112-.123-.026-.246.055-.27.18-.027.123.054.245.178.27.198.04.4.08.603.115.014.002.027.004.04.004.11 0 .206-.078.226-.19.024-.125-.06-.245-.185-.267zm13.572.22c-.2.026-.4.048-.6.07-.126.014-.218.126-.205.253.013.118.112.206.228.206h.025l.61-.07c.125-.017.214-.13.2-.257-.017-.126-.13-.216-.257-.2zm-9.068.257c-.2-.01-.4-.022-.605-.035-.124-.016-.236.087-.244.214s.09.236.216.244c.205.013.41.025.61.035h.012c.12 0 .223-.095.23-.218.006-.127-.09-.235-.218-.24zm-3.013-.256c-.2-.025-.4-.05-.6-.08-.125-.02-.24.07-.26.196s.07.242.196.26c.2.03.404.056.607.08l.03.003c.113 0 .213-.085.227-.202.016-.127-.074-.24-.2-.257zm16.462-.985c-.18.07-.367.138-.56.2-.122.04-.187.17-.148.29.032.098.122.16.218.16.024 0 .048-.005.072-.012.202-.065.397-.135.585-.21.118-.045.176-.18.13-.297-.047-.118-.18-.175-.298-.13zm2.484-4.886c-.127 0-.23.103-.23.23v.607c0 .127.103.23.23.23s.23-.103.23-.23v-.607c0-.127-.103-.23-.23-.23zm0-1.518c-.127 0-.23.102-.23.23v.606c0 .127.103.23.23.23s.23-.103.23-.23v-.607c0-.128-.103-.23-.23-.23zm0 3.035c-.127 0-.23.103-.23.23v.607c0 .127.103.23.23.23s.23-.103.23-.23v-.607c0-.127-.103-.23-.23-.23zm-1.81-7.923c.18.094.35.193.5.293.04.026.084.04.128.04.074 0 .147-.037.19-.103.07-.106.043-.248-.062-.32-.165-.11-.35-.217-.546-.32-.114-.057-.25-.013-.31.1-.058.113-.014.252.1.31zm1.81 1.85c-.127 0-.23.104-.23.23v.608c0 .127.103.23.23.23s.23-.103.23-.23v-.607c0-.127-.103-.23-.23-.23zm-1.194 8.765c-.146.106-.31.21-.49.306-.11.06-.152.2-.09.312.04.076.12.12.2.12.038 0 .076-.01.11-.028.197-.107.378-.22.54-.337.102-.074.125-.218.05-.32-.072-.103-.216-.127-.32-.053zm1.16-1.18c-.12-.043-.25.018-.295.137-.06.16-.146.317-.26.466-.076.102-.055.246.046.322.043.032.09.046.14.046.07 0 .137-.032.183-.09.14-.187.25-.383.323-.586.044-.118-.017-.25-.136-.294zM5.636 22.313c-.19-.076-.373-.155-.54-.237-.115-.055-.253-.008-.308.106-.055.115-.008.253.106.308.178.086.37.17.573.25.028.01.056.016.085.016.09 0 .178-.055.214-.146.046-.118-.012-.252-.13-.298zm19.423.452c-.192.05-.387.095-.585.138-.124.028-.202.15-.175.274.024.107.12.18.224.18.017 0 .033-.002.05-.006.203-.045.403-.092.6-.142.122-.032.197-.157.165-.28s-.158-.197-.28-.166zm-1.47.313c-.198.035-.396.067-.596.098-.125.02-.21.136-.193.262.02.114.116.195.228.195.012 0 .023 0 .035-.003.203-.032.406-.065.606-.1.124-.023.207-.142.185-.267-.022-.125-.138-.208-.266-.186zm5.204-10.625c.032 0 .065-.007.096-.02.115-.054.166-.19.113-.306-.09-.194-.21-.38-.362-.558-.082-.097-.227-.108-.323-.026s-.108.228-.026.324c.124.144.223.296.294.45.04.086.122.135.21.135zm.17 1.94c-.127 0-.23.102-.23.23v.606c0 .127.103.23.23.23s.23-.103.23-.23v-.607c0-.126-.103-.23-.23-.23zM9.237 9.837c.01 0 .023 0 .034-.002.2-.03.398-.057.598-.082.126-.016.215-.13.2-.257-.017-.126-.13-.216-.258-.2-.203.027-.405.055-.606.084-.126.02-.212.136-.194.262.016.114.115.196.227.196zm7.58-.432c.194.002.396.006.606.01h.006c.123 0 .226-.098.23-.223.002-.127-.1-.232-.225-.235-.21-.005-.415-.008-.61-.01-.143-.005-.232.1-.234.226s.1.23.228.233zm-1.518 0h.002c.212-.003.415-.004.606-.005.127 0 .23-.102.23-.23 0-.126-.103-.228-.23-.228-.194 0-.398.002-.612.005-.127.002-.23.106-.227.233 0 .126.103.227.23.227zm-4.555.245h.024c.2-.02.4-.04.6-.057.127-.01.22-.122.21-.25-.01-.125-.126-.22-.25-.208-.2.018-.405.037-.608.058-.126.013-.218.126-.205.252.012.118.112.207.23.207zm1.515-.126h.016c.204-.014.405-.026.604-.037.127-.007.224-.115.217-.242-.007-.126-.11-.222-.242-.217-.2.01-.404.023-.61.037-.127.01-.222.118-.214.245.01.12.11.214.23.214zm1.518-.08h.01l.604-.02c.127-.002.227-.108.223-.235-.003-.128-.115-.237-.236-.224-.2.006-.403.012-.61.02-.128.005-.227.112-.222.238.005.124.107.22.23.22zm10.553.655c.2.04.395.086.587.133.02.005.037.007.055.007.103 0 .198-.07.223-.175.03-.123-.045-.248-.168-.278-.197-.048-.397-.094-.6-.137-.123-.026-.246.053-.273.177-.026.124.053.246.177.273zm1.452.374c.194.06.382.126.563.194.026.01.054.015.08.015.094 0 .182-.057.216-.15.046-.118-.015-.25-.133-.295-.19-.07-.384-.138-.587-.2-.12-.04-.25.03-.288.15s.03.25.15.286zm-7.45-1.03l.604.027h.01c.123 0 .224-.095.23-.217.006-.127-.092-.235-.218-.24-.207-.01-.41-.02-.61-.027-.127-.007-.234.094-.238.22-.005.128.093.234.22.24zm4.517.39c.2.03.397.062.594.096.013.002.026.003.04.003.11 0 .206-.08.225-.19.02-.126-.063-.245-.19-.267-.2-.034-.4-.066-.605-.096-.126-.02-.242.068-.26.194s.068.242.193.26zm-3.007-.31c.2.012.4.027.603.043h.02c.118 0 .218-.09.228-.21.01-.126-.084-.237-.21-.248-.205-.018-.41-.032-.61-.046-.118-.005-.236.087-.245.214-.01.127.086.236.213.245zm-16.69 6.842c.128 0 .23-.103.23-.23v-.607c0-.128-.102-.23-.23-.23s-.23.102-.23.23v.606c0 .127.104.23.23.23zm0 1.518c.128 0 .23-.103.23-.23v-.607c0-.127-.102-.23-.23-.23s-.23.103-.23.23v.607c0 .127.104.23.23.23zm.766 3.383c-.09-.092-.234-.094-.326-.006-.092.09-.095.235-.007.326.14.146.305.288.49.422.04.03.088.044.134.044.072 0 .142-.033.187-.095.074-.103.05-.247-.05-.32-.163-.12-.307-.242-.428-.37zm-.766-1.865c.127 0 .23-.103.23-.23v-.607c0-.127-.103-.23-.23-.23s-.23.103-.23.23v.607c0 .127.103.23.23.23zm.23.675c-.002-.127-.112-.23-.235-.223-.128.004-.228.11-.224.236.006.227.048.45.126.66.034.094.122.152.216.152.026 0 .053-.005.08-.014.118-.044.18-.176.136-.295-.06-.164-.093-.338-.098-.515zm.443-8.21c.113-.132.25-.26.406-.384.1-.078.118-.223.04-.323-.08-.1-.223-.118-.324-.04-.182.142-.34.293-.473.448-.082.096-.07.242.025.324.043.037.097.055.15.055.064 0 .128-.027.174-.08zm1.034-.82c.037 0 .072-.008.106-.026.164-.084.344-.167.534-.246.118-.05.173-.183.124-.3-.05-.117-.184-.173-.3-.124-.202.084-.393.172-.57.262-.112.058-.156.197-.098.31.04.08.12.125.205.125zm2.88-.943c.016 0 .032-.002.048-.005.194-.042.39-.08.59-.118.125-.023.208-.142.185-.268-.023-.125-.143-.208-.268-.185-.203.037-.405.076-.603.118-.124.026-.203.148-.177.273.023.11.12.183.225.183zm-1.47.38c.023 0 .046-.003.07-.01.185-.058.377-.114.573-.166.122-.033.196-.16.163-.28s-.16-.197-.28-.164c-.204.054-.402.11-.595.172-.12.038-.188.167-.15.288.032.098.123.16.22.16zm-3.116 4.364c.127 0 .23-.103.23-.23v-.607c0-.126-.103-.23-.23-.23s-.23.104-.23.23v.608c0 .127.103.23.23.23zm0-1.518c.127 0 .23-.103.23-.23v-.097c0-.15.02-.298.058-.437.034-.122-.038-.25-.16-.283-.122-.034-.25.038-.283.16-.05.18-.076.368-.076.56v.097c0 .127.103.23.23.23z"/></svg>