<svg xmlns="http://www.w3.org/2000/svg" width="32" height="32" viewBox="0 0 32 32"><path d="M25.486 21.043v-6.677c0-.17-.137-.306-.306-.306h-8.896v-3.133c1.44-.147 2.567-1.367 2.567-2.846 0-1.576-1.283-2.86-2.86-2.86s-2.86 1.284-2.86 2.86c0 1.47 1.113 2.683 2.54 2.843v3.137H6.774c-.17 0-.306.137-.306.306v6.673c-1.442.144-2.573 1.365-2.573 2.845 0 1.577 1.284 2.86 2.86 2.86 1.578 0 2.862-1.282 2.862-2.86 0-1.468-1.11-2.68-2.536-2.84v-6.37h8.59v6.37c-1.426.16-2.54 1.37-2.54 2.84 0 1.578 1.283 2.862 2.86 2.862 1.578 0 2.862-1.283 2.862-2.86 0-1.48-1.127-2.7-2.567-2.847v-6.366h8.59v6.366c-1.44.147-2.567 1.367-2.567 2.846 0 1.577 1.283 2.86 2.86 2.86 1.578 0 2.862-1.282 2.862-2.86 0-1.47-1.114-2.682-2.54-2.842zM9.004 23.885c0 1.24-1.008 2.248-2.248 2.248s-2.248-1.008-2.248-2.248c0-1.24 1.01-2.248 2.248-2.248s2.248 1.008 2.248 2.248zm9.234 0c0 1.24-1.008 2.248-2.248 2.248s-2.248-1.008-2.248-2.248c0-1.24 1.008-2.248 2.248-2.248s2.248 1.008 2.248 2.248zM15.99 10.33c-1.24 0-2.248-1.008-2.248-2.248s1.008-2.248 2.248-2.248 2.248 1.008 2.248 2.248-1.008 2.248-2.248 2.248zm9.177 15.803c-1.24 0-2.248-1.008-2.248-2.248 0-1.24 1.007-2.248 2.247-2.248s2.248 1.008 2.248 2.248c0 1.24-1.008 2.248-2.248 2.248z"/></svg>