<svg data-name="Layer 1" xmlns="http://www.w3.org/2000/svg" viewBox="0 0 36 36"><title>Icon-Red_Hat-Cluster-B-Black-RGB</title><path d="M25.37 18.75a2.75 2.75 0 1 0 0-1.5h-3.7a3.67 3.67 0 0 0-.55-1.32l5.55-5.54a2.7 2.7 0 0 0 1.33.36 2.79 2.79 0 1 0-2.39-1.42l-5.55 5.54a3.53 3.53 0 0 0-1.31-.54v-3.7a2.75 2.75 0 1 0-1.5 0v3.7a3.65 3.65 0 0 0-1.32.54l-5.54-5.54a2.79 2.79 0 1 0-1.06 1.06l5.54 5.55a3.53 3.53 0 0 0-.54 1.31h-3.7a2.75 2.75 0 1 0 0 1.5h3.7a3.53 3.53 0 0 0 .54 1.31l-5.54 5.55A2.74 2.74 0 1 0 10.75 28a2.7 2.7 0 0 0-.36-1.33l5.54-5.55a3.5 3.5 0 0 0 1.32.55v3.7a2.75 2.75 0 1 0 1.5 0v-3.7a3.39 3.39 0 0 0 1.31-.55l5.55 5.55A2.74 2.74 0 1 0 28 25.25a2.7 2.7 0 0 0-1.33.36l-5.54-5.55a3.53 3.53 0 0 0 .54-1.31z"/></svg>