<svg xmlns="http://www.w3.org/2000/svg" viewBox="0 0 36 36"><title>Icon-Red_Hat-Transportation-Bicycle-A-Black-RGB</title><path d="M10.24 27.15a5 5 0 0 0 4.88-4.21h2.48a1 1 0 0 0 .24 0 .6.6 0 0 0 .11-.06l.14-.11 5.17-6.19.43 1.32a4.91 4.91 0 1 0 2.31-.66 5.29 5.29 0 0 0-.81.08L23 10.47a.54.54 0 0 0-.07-.13.62.62 0 0 0-.08-.12l-.1-.08a1 1 0 0 0-.13-.09h-2.96a.75.75 0 0 0 0 1.5h2l1.21 3.68H16l-.55-1.66h1.06a.75.75 0 0 0 0-1.5h-3.12a.75.75 0 0 0 0 1.5h.51l.75 2.25L12.79 18a4.83 4.83 0 0 0-2.55-.73 5 5 0 0 0 0 9.91zm15.05-4.72a.76.76 0 0 0 .72.51h.23a.76.76 0 0 0 .48-.95l-1-3.19h.34a3.51 3.51 0 1 1-1.76.5zm-4-5.79l-3.37 4-1.34-4zm-6 .76l1.35 4h-1.52a5 5 0 0 0-1.18-2.51zM13 20.1a3.4 3.4 0 0 1 .64 1.34h-1.8zm-2.73-1.36a3.33 3.33 0 0 1 1.57.4l-2.17 2.57a.76.76 0 0 0-.11.8.75.75 0 0 0 .68.43h3.37a3.45 3.45 0 1 1-3.37-4.2z"/></svg>