<svg xmlns="http://www.w3.org/2000/svg" viewBox="0 0 31.68 31.68"><path d="M14.42 9.5h7.21c.98-.04 1.81.71 1.85 1.69s-.71 1.81-1.69 1.85h-.4v-.72l-1.87 1.09 1.87 1.09v-.72h.25c1.38.05 2.54-1.02 2.59-2.4.05-1.38-1.02-2.54-2.4-2.59H14.41c-.2 0-.36.16-.36.36.01.19.17.35.37.35zm4.44 14.22c.07.07.16.11.26.1h.06c.11-.02.21-.09.26-.2l1.86-3.83c.09-.18.02-.4-.15-.49-.18-.09-.4-.02-.49.15 0 .01-.01.01-.01.02l-1.64 3.37-.92-.92c-.15-.13-.38-.11-.51.04-.12.14-.12.34 0 .47l1.28 1.29zm4.83-6.7h-8.86c-.2 0-.36.16-.36.36v8.86c0 .2.16.36.36.36h8.86c.2 0 .36-.16.36-.36v-8.86c.01-.2-.16-.36-.36-.36zm-.36 8.86h-8.14v-8.14h8.14v8.14zm-12.07-8.57h-.25c-.98 0-1.77-.79-1.77-1.77s.79-1.77 1.77-1.77h7.19c.2 0 .36-.16.36-.36s-.16-.36-.36-.36h-7.21c-1.38 0-2.5 1.12-2.5 2.5s1.12 2.5 2.5 2.5h.27v.72l1.87-1.09-1.87-1.09v.72zm1.29-5.99V6.96c0-.2-.16-.36-.36-.36H7.8c-.2 0-.36.16-.36.36v4.36c0 .2.16.36.36.36h4.36c.2 0 .36-.16.36-.36h.03zm-.73-.36H8.17V7.32h3.64l.01 3.64z"/></svg>