<svg xmlns="http://www.w3.org/2000/svg" width="32" height="32" viewBox="0 0 32 32"><path d="M20.723 18.32H19.12c-.038 0-.076.016-.103.044-.028.028-.042.066-.042.105l.002 1.306c0 .056.033.108.084.132l.8.373c.02.01.042.015.063.015.02 0 .04-.004.06-.013l.8-.36c.053-.023.086-.075.086-.133v-1.32c0-.082-.065-.148-.147-.148zm-.146 1.373l-.653.293-.655-.306v-1.066h1.307v1.08zM18.422 9.32c-1.43 0-2.593 1.163-2.593 2.593s1.162 2.593 2.592 2.593c1.43 0 2.593-1.163 2.593-2.593S19.852 9.32 18.422 9.32zm0 4.746c-1.187 0-2.153-.966-2.153-2.153s.965-2.153 2.152-2.153 2.153.966 2.153 2.153-.965 2.153-2.153 2.153zm6.266-1.75c-.86-2.807-3.476-4.752-6.425-4.752-2.956 0-5.55 1.927-6.418 4.724-.48-.172-.985-.26-1.5-.26-2.09 0-3.89 1.44-4.363 3.455-1.87.068-3.443 1.366-3.86 3.203-.018.082.002.17.055.236.053.066.133.105.218.105 0 0 8.944.002 10.55 0-.015.473.004.925.02 1.316.008.19.015.366.018.523.03 1.695.62 2.298 1.842 3.182v.76c0 .042.012.084.035.12.06.094.682.915 3.663.99l.306.002c2.67 0 3.157-.915 3.205-1.022.012-.03.02-.06.02-.09v-.606c1.313-.94 1.816-1.494 1.848-3.336.003-.165.01-.35.02-.553.017-.383.036-.824.026-1.286h4.83c.136 0 .252-.098.275-.232.058-.34.087-.655.087-.96 0-2.67-1.863-4.963-4.454-5.52zm-1.205 7.978c-.01.206-.018.396-.02.565-.026 1.535-.377 2.033-1.41 2.798v-5c0-.12-.098-.22-.22-.22-.12 0-.22.098-.22.22v6.087c-.115.152-.735.794-3.08.732-2.367-.058-3.11-.604-3.27-.753v-5.96c0-.12-.097-.22-.22-.22s-.22.098-.22.22V23.5c-.968-.73-1.377-1.26-1.4-2.642-.004-.16-.01-.34-.02-.534-.05-1.218-.128-3.058.9-4.128.577-.603 1.464-.91 2.634-.91h3.05c1.165 0 2.047.305 2.62.904 1.014 1.06.932 2.892.877 4.103zm5.057-1.824h-4.62c-.08-.93-.327-1.884-.995-2.583-.66-.69-1.648-1.04-2.94-1.04h-3.048c-1.295 0-2.288.352-2.952 1.045-.67.7-.924 1.65-1.008 2.578H2.76c.48-1.448 1.822-2.43 3.396-2.43H6.2c.143.014.257-.093.282-.228.338-1.87 1.963-3.225 3.863-3.225.508 0 1.002.1 1.474.29.29.143.912.502 1.295 1.147.045.076.132.114.215.098.025-.005.05-.013.07-.026.1-.06.132-.187.072-.286-.33-.554-.8-.92-1.157-1.136.724-2.683 3.16-4.553 5.947-4.553 2.68 0 5.042 1.714 5.85 4.248-.718-.005-1.253.255-1.285.268-.106.044-.157.166-.113.273.044.106.166.157.273.112.008-.004.745-.296 1.582-.158 2.332.505 4.012 2.567 4.012 4.97 0 .205-.015.413-.044.636z"/></svg>