<svg xmlns="http://www.w3.org/2000/svg" viewBox="0 0 32 32"><path d="M5.09 16.33c-.05-.05-.13-.05-.18 0-.05.05-.05.13 0 .18l1.21 1.21c.03.02.06.04.09.04s.07-.01.09-.04c.05-.05.05-.13 0-.18l-1.21-1.21zm-.15.71c-.05-.05-.13-.05-.18 0-.05.05-.05.13 0 .18l.29.29c.03.02.06.04.09.04s.07-.01.09-.04c.05-.05.05-.13 0-.18l-.29-.29zm22.97-3.15l-.3-1.21c-.19-.8-1.01-1.42-1.85-1.42H5.32c-.87 0-1.55.65-1.55 1.49l.01 5.64c0 .03.01.21.1.36.11.18.28.27.55.27h1.09c.93 0 2.03-.01 2.52-.01h.68c0 .04-.01.08-.01.12 0 .88.72 1.6 1.6 1.6.88 0 1.6-.72 1.6-1.6 0-.04-.01-.08-.01-.12h9.64c0 .03-.01.06-.01.1 0 .88.72 1.6 1.6 1.6s1.6-.72 1.6-1.6c0-.03-.01-.07-.01-.1H25.55s.88.02 1.65.02c.72 0 .73-.01.81-.08.18-.16.2-.76.2-.77V16.5c.02-.73-.12-1.9-.3-2.61zm-17.59 6.34c-.6 0-1.09-.49-1.09-1.09 0-.38.2-.62.2-.62.2-.28.53-.47.9-.47s.7.19.9.47c0 0 .21.29.2.62-.01.6-.5 1.09-1.11 1.09zm12.83-.02c-.6 0-1.09-.49-1.09-1.09 0-.03.01-.06.01-.1.03-.33.17-.51.17-.51.2-.29.53-.49.91-.49s.71.19.91.49c0 0 .17.21.18.61 0 .6-.49 1.09-1.09 1.09zm4.57-2.24h-2.78c-.07 0-.13.06-.13.13s.06.13.13.13h2.78c0 .09-.02.21-.04.3h-.45c-.65 0-1.61-.01-1.9-.02h-.69c-.24-.58-.81-1-1.48-1-.67 0-1.24.41-1.48 1h-9.87c-.24-.57-.81-.98-1.48-.98s-1.23.4-1.48.98h-.8c-.5 0-1.59.01-2.52.01H4.44c-.09 0-.11-.01-.12-.03-.01-.02-.02-.08-.03-.1v-.14h4.18c.07 0 .13-.06.13-.13S8.54 18 8.47 18H4.29l-.01-5.25c0-.56.45-.98 1.04-.98h20.44c.61 0 1.22.46 1.36 1.03l.3 1.21c.17.68.3 1.8.3 2.49v1.47zm-6.42.01h-9.12c-.07 0-.13.06-.13.13s.06.13.13.13h9.12c.07 0 .13-.06.13-.13-.01-.08-.06-.13-.13-.13zm-12.85-5.7H5.56c-.21 0-.37.17-.37.37v2.89c0 .21.17.37.37.37h2.89c.21 0 .37-.17.37-.37v-2.89c.01-.2-.16-.37-.37-.37zm.07 3.27c0 .04-.03.07-.07.07H5.56c-.04 0-.07-.03-.07-.07v-2.89c0-.04.03-.07.07-.07h2.89c.04 0 .07.03.07.07v2.89zm4.63 0v-2.89c0-.21-.17-.37-.37-.37h-2.9c-.21 0-.37.17-.37.37v2.89c0 .21.17.37.37.37h2.89c.21 0 .38-.16.38-.37zm-3.34 0v-2.89c0-.04.03-.07.07-.07h2.89c.04 0 .07.03.07.07v2.89c0 .04-.03.07-.07.07H9.88c-.04 0-.07-.03-.07-.07zm4.36.37h2.89c.21 0 .37-.17.37-.37v-2.89c0-.21-.17-.37-.37-.37h-2.89c-.21 0-.37.17-.37.37v2.89c0 .21.17.37.37.37zm-.07-3.26c0-.04.03-.07.07-.07h2.89c.04 0 .07.03.07.07v2.89c0 .04-.03.07-.07.07h-2.89c-.04 0-.07-.03-.07-.07v-2.89zm7.26-.39h-2.89c-.21 0-.37.17-.37.37v2.89c0 .21.17.37.37.37h2.89c.21 0 .37-.17.37-.37v-2.89c0-.2-.17-.37-.37-.37zm.06 3.27c0 .04-.03.07-.07.07h-2.89c-.04 0-.07-.03-.07-.07v-2.89c0-.04.03-.07.07-.07h2.89c.04 0 .07.03.07.07v2.89zm4.25-3.27h-2.89c-.21 0-.37.17-.37.37v2.89c0 .21.17.37.37.37h3.44c.51 0 .73-.26.73-.52 0-.92-.52-2.5-.78-2.89-.1-.13-.29-.22-.5-.22zm.54 3.34h-3.44c-.03 0-.06-.03-.06-.07v-2.89c0-.04.03-.07.07-.07h2.89c.08 0 .19.02.24.1.23.35.73 1.87.73 2.72-.01.12-.18.21-.43.21z"/></svg>