<svg xmlns="http://www.w3.org/2000/svg" viewBox="0 0 32 32"><path d="M4.91 8.74v14.51h22.17V8.74H4.91zm21.17.46c-2.37 1.79-5.55 4.1-7.77 5.53-.14.09-.27.17-.4.25-.52.33-.91.55-1.19.7-.42.19-.63.24-.75.24-.09 0-.29-.04-.74-.25-.27-.14-.63-.35-1.11-.65l-.05-.03c-.12-.07-.24-.15-.36-.23-2.22-1.42-5.45-3.76-7.87-5.57l20.24.01zm-20.71.04c2.43 1.82 5.8 4.26 8.11 5.75-2.37 1.98-5.8 5.22-8.11 7.48V9.24zm20.72 13.47H5.84c-.08 0-.16-.01-.23-.03 2.3-2.26 5.72-5.49 8.08-7.46.64.36 1.1.6 1.43.75.53.28.74.32.85.32.12 0 .34-.05.9-.34.39-.17.87-.43 1.47-.77 2.36 1.97 5.81 5.19 8.12 7.44-.11.06-.24.09-.37.09zm.54-.35c-2.31-2.24-5.73-5.44-8.09-7.41 2.32-1.5 5.67-3.94 8.05-5.75h.04v13.16z"/></svg>