<svg xmlns="http://www.w3.org/2000/svg" viewBox="0 0 31.68 31.68"><path d="M21.8 21.96H11.06c-.33 0-.64-.16-.83-.42-.19-.27-.24-.61-.14-.92l.88-2.64L8.2 9.05H6.22c-.56 0-1.02-.46-1.02-1.02s.46-1.02 1.02-1.02h2.74c.45 0 .84.29.98.72l.52 1.69 14.32.47c.35.01.66.2.84.49.18.3.2.66.05.97l-3.3 6.81c-.17.34-.51.56-.89.58l-8.69.26-.31.93h9.32c.56 0 1.02.46 1.02 1.02 0 .55-.46 1.01-1.02 1.01zM6.22 7.69c-.19 0-.34.15-.34.34 0 .19.15.34.34.34H8.7l2.98 9.62-.95 2.84c-.03.1-.02.22.05.31.06.09.17.14.28.14H21.8c.19 0 .34-.15.34-.34 0-.19-.15-.34-.34-.34H11.53l.76-2.27 9.17-.27c.13 0 .24-.08.3-.19l3.3-6.81c.05-.1.05-.23-.01-.32-.06-.1-.16-.16-.28-.16l-14.82-.5-.67-2.15c-.05-.15-.18-.24-.33-.24H6.22zM11.97 26.11c-1.08 0-1.95-.88-1.95-1.95 0-1.08.88-1.95 1.95-1.95s1.95.88 1.95 1.95c.01 1.08-.87 1.95-1.95 1.95zm0-3.23c-.7 0-1.27.57-1.27 1.27 0 .7.57 1.27 1.27 1.27.7 0 1.27-.57 1.27-1.27.01-.69-.57-1.27-1.27-1.27zM21.59 26.11c-1.08 0-1.95-.88-1.95-1.95 0-1.08.88-1.95 1.95-1.95 1.08 0 1.95.88 1.95 1.95 0 1.08-.88 1.95-1.95 1.95zm0-3.23c-.7 0-1.27.57-1.27 1.27 0 .7.57 1.27 1.27 1.27.7 0 1.27-.57 1.27-1.27 0-.69-.57-1.27-1.27-1.27z"/></svg>