<svg xmlns="http://www.w3.org/2000/svg" viewBox="0 0 32 32"><path d="M20.36 12.64c.23 0 .45-.06.65-.17.31-.17.53-.45.62-.79.09-.34.05-.69-.12-1-.23-.41-.67-.67-1.15-.67-.23 0-.45.06-.65.17-.63.36-.85 1.16-.49 1.79.23.42.67.67 1.14.67zm-.42-2.06c.13-.07.27-.11.42-.11.31 0 .59.17.75.43.11.2.14.43.08.65-.06.22-.2.4-.4.52-.13.07-.27.11-.42.11-.31 0-.59-.17-.75-.43-.24-.41-.09-.93.32-1.17zm-5.01 4.14c-.85.88-1.06 2.25-.43 3.36.1.18.22.34.35.48l-1.64 2.79c-.06.09-.06.21 0 .31.02.03.16.27.5.47.34.2.62.21.65.21.11 0 .21-.06.26-.15l1.63-2.77c.23.06.47.09.71.09.49 0 .97-.13 1.39-.37.64-.36 1.09-.94 1.31-1.64l3.28.03c.1 0 .19-.05.25-.13.04-.06.17-.28.14-.72-.02-.4-.09-.57-.12-.62-.05-.1-.16-.17-.27-.17l-3.28-.03c-.06-.2-.14-.39-.25-.58-.5-.88-1.44-1.43-2.46-1.43-.2 0-.4.03-.59.07l-1.86-3.23c-.04-.07-.11-.12-.19-.14-.06-.02-.32-.06-.74.17-.41.23-.51.48-.52.55-.02.08-.01.17.03.24l1.85 3.21zm.24.42l.56.98c-.13.31-.14.65-.02.98l-.62 1.05c-.07-.09-.14-.19-.2-.29-.5-.9-.36-1.98.28-2.72zm-.97 6.55c-.05-.02-.12-.05-.19-.09-.07-.04-.13-.08-.17-.12l2.26-3.84c.11.09.23.16.36.21l-2.26 3.84zm3.93-2.94c-.36.2-.76.31-1.17.31-.16 0-.31-.02-.46-.05l.63-1.08c.16-.02.32-.08.46-.16.13-.07.24-.17.33-.28l1.25.01c-.18.53-.55.97-1.04 1.25zm4.57-2.24c.01.05.01.12.02.21 0 .08 0 .15-.01.2l-4.49-.04c.03-.14.04-.28.02-.41l4.46.04zm-5.75-2.19c.85 0 1.64.46 2.06 1.2.06.11.11.23.16.35L18 15.86c-.2-.27-.5-.46-.83-.52l-.57-.99c.12-.02.24-.03.35-.03zm-.01 1.45c.31 0 .59.17.75.43.11.2.14.43.08.65-.06.22-.2.4-.4.52-.13.07-.27.11-.42.11-.31 0-.59-.17-.75-.43-.23-.41-.09-.93.32-1.17.13-.07.27-.11.42-.11zm-3.06-4.52c.08-.05.14-.07.19-.09l2.43 4.22c-.07.03-.14.05-.21.09-.06.03-.1.07-.15.11l-2.43-4.22c.03-.02.09-.06.17-.11zm11.35-5.09l-2.82-1.38c-.04-.02-.09-.03-.14-.03H10.7c-.04 0-.08.01-.12.03L7.34 6.16c-.19.06-.19.41-.19.44v3.51h-.02c-.29 0-.53.24-.53.53v.85c0 .29.24.53.53.53h.02v9.3h-.02c-.29 0-.53.24-.53.53v.85c0 .29.24.53.53.53h.02v3.7c0 .17.14.31.31.31h17.63c.17 0 .31-.14.31-.31V6.6c0-.03 0-.34-.17-.44zm-14.47-.79H22.2l1.89.92H8.59l2.17-.92zm-3.63 6.2c-.04 0-.07-.03-.07-.07v-.85c0-.04.03-.07.07-.07h1.62c.04 0 .07.03.07.07v.85c0 .04-.03.07-.07.07H7.13zm.02 11.21h-.02c-.04 0-.07-.03-.07-.07v-.85c0-.04.03-.07.07-.07h1.62c.04 0 .07.03.07.07v.85c0 .04-.03.07-.07.07h-1.6zm17.63 3.85H7.76v-3.39h.99c.29 0 .53-.24.53-.53v-.85c0-.29-.24-.53-.53-.53h-.99v-9.3h.99c.29 0 .53-.24.53-.53v-.85c0-.29-.24-.53-.53-.53h-.99V6.9h17.02v19.73z"/></svg>