<svg data-name="Layer 1" xmlns="http://www.w3.org/2000/svg" viewBox="0 0 36 36"><title>Icon-Red_Hat-Electrical_plug-A-Black-RGB</title><path d="M28.67 15.384a4.927 4.927 0 0 0-9.853 0v6.266a3.427 3.427 0 0 1-6.854 0V19.2a3.884 3.884 0 0 0 3.137-3.81v-3.134a.75.75 0 0 0-.75-.75h-.294V9.123a.75.75 0 0 0-1.5 0v2.383H9.873V9.123a.75.75 0 0 0-1.5 0v2.383h-.295a.75.75 0 0 0-.75.75v3.133a3.884 3.884 0 0 0 3.134 3.81v2.46a4.927 4.927 0 0 0 9.853 0v-6.27a3.428 3.428 0 0 1 6.855 0v11.486a.75.75 0 1 0 1.5 0V15.384zm-17.458 2.388a2.387 2.387 0 0 1-2.384-2.383v-2.384H13.6v2.383a2.387 2.387 0 0 1-2.383 2.382z"/></svg>