<svg xmlns="http://www.w3.org/2000/svg" viewBox="0 0 32 32"><g fill="#010101"><path d="M9.582 14.673h-.02c-1.26-.18-2.328-.41-3.176-.678-.078-.025-.12-.108-.096-.186.025-.08.107-.123.186-.097.833.264 1.885.488 3.128.666.08.01.137.086.126.167-.013.072-.076.126-.148.126zM16 15.236c-1.28 0-2.54-.044-3.743-.132-.163-.012-.286-.154-.274-.317.012-.163.157-.284.317-.274 1.188.086 2.433.13 3.7.13 3.907 0 7.495-.416 9.6-1.112.157-.05.323.034.374.19.052.154-.033.322-.188.373-2.16.717-5.82 1.143-9.786 1.143z"/><path d="M16 22.26c-5.872 0-11.816-.944-11.816-2.748v-7.024c0-1.804 5.944-2.748 11.816-2.748s11.816.944 11.816 2.748v7.024c0 1.805-5.944 2.748-11.816 2.748zm0-11.928c-6.954 0-11.223 1.256-11.223 2.156v7.024c0 .9 4.27 2.156 11.223 2.156s11.224-1.255 11.224-2.156v-7.024c0-.9-4.27-2.156-11.224-2.156z"/></g></svg>