<svg data-name="Layer 1" xmlns="http://www.w3.org/2000/svg" width="36" height="36" viewBox="0 0 36 36"><title>Icon-Red_Hat-</title><path d="M22.32 19.29a.75.75 0 0 0 0-1.06l-3.72-3.72 1.21-1.22 1.6 1.6a.73.73 0 0 0 .53.22.74.74 0 0 0 .53-.22l2.27-2.27 4.55-4.55a.75.75 0 0 0 0-1.06L25 2.77a.75.75 0 0 0-1.06 0l-4.5 4.54-2.27 2.28a.74.74 0 0 0 0 1.06l1.58 1.58-1.21 1.22-3.71-3.71a.77.77 0 0 0-1.06 0l-3 3a.75.75 0 0 0 0 1.06l3.7 3.71-1.21 1.21-1.58-1.58a.74.74 0 0 0-1.06 0L2.77 24a.75.75 0 0 0 0 1.06L7 29.29a.75.75 0 0 0 1.06 0l6.82-6.82a.75.75 0 0 0 0-1.06l-1.6-1.6 1.22-1.21 3.72 3.72a.75.75 0 0 0 .53.22.79.79 0 0 0 .53-.22zm2.19-14.93l3.19 3.18-1.22 1.22-3.18-3.19zm-2.27 2.27l3.18 3.19L24.21 11 21 7.85zM20 8.91l3.18 3.18-1.24 1.21-3.18-3.18zM7.54 27.7l-3.18-3.19 1.21-1.21 3.19 3.18zm2.28-2.28l-3.19-3.18L7.85 21 11 24.21zm3.48-3.48l-1.21 1.21L8.91 20l1.21-1.21zm-2-8.64l2-2 7.43 7.43-2 2zm18.9 7.86a6.41 6.41 0 1 0-9.07 9.07.71.71 0 0 0 .53.22.74.74 0 0 0 .53-.22l3.47-3.48 1.48 1.48a.75.75 0 0 0 .53.22.79.79 0 0 0 .53-.22.75.75 0 0 0 0-1.06l-1.48-1.48 3.48-3.47a.75.75 0 0 0 .03-1.06zm-8.5 7.44a4.92 4.92 0 0 1 .49-6.38 4.91 4.91 0 0 1 6.38-.49z"/></svg>