<svg xmlns="http://www.w3.org/2000/svg" width="32" height="32" viewBox="0 0 32 32"><path d="M22.053 23.842h-.65c-2.574 0-3.344-1.493-3.557-2.146H6.706c-.666 0-1.208-.542-1.208-1.208v-8.713c0-.667.542-1.21 1.208-1.21h18.207c.666 0 1.21.543 1.21 1.21v8.713c0 .667-.544 1.208-1.21 1.208h-3.17c-.192.12-.308.273-.353.46-.123.513.293 1.143.297 1.15l.365.537zM6.707 11.252c-.287 0-.52.235-.52.523v8.713c0 .288.233.52.52.52h11.707l.04.3c.01.07.252 1.586 2.382 1.818-.12-.317-.21-.73-.112-1.13.097-.403.354-.72.762-.944l.077-.042h3.35c.288 0 .523-.234.523-.52v-8.715c0-.288-.234-.522-.522-.522H6.706z"/></svg>