<svg xmlns="http://www.w3.org/2000/svg" viewBox="0 0 32 32"><path d="M15.93 20.07c-2.37 0-4.72-.84-6.29-1.4-.56-.2-.99-.37-1.3-.44v1.48c1.23.27 3.91 1.7 4.14 2.66 1.1.09 2.25.17 3.45.17 1.19 0 2.41-.07 3.5-.16.22-.95 3.01-2.36 4.24-2.66v-1.48c-.31.08-.81.24-1.33.42-1.58.56-4.02 1.41-6.41 1.41zm0 2.77c-2.36 0-4.69-.27-6.26-.45-.58-.07-1.02-.12-1.33-.15v1.88h15.33v-1.88c-.31.03-.83.08-1.36.14-1.58.19-4.01.46-6.38.46zm3.86-.49c.94-.08 1.76-.18 2.45-.26.56-.07 1.11-.12 1.41-.14v-1.92c-1.21.28-3.53 1.61-3.86 2.32zM22.1 7.26H9.58l-.98.92h14.43l-.93-.92zM4.97 14.31H6.2v-3.37H4.97v3.37zm7.16 8.03c-.34-.72-2.57-2.06-3.79-2.33v1.92c.31.02.79.08 1.4.15.68.08 1.47.18 2.39.26zm13.68-8.03h1.23v-3.37h-1.23v3.37zm-17.47 3.6c0 .03.31.07.31.11v-7.64c0-.09.03-.06.12-.06h14.18c.08 0 .42-.02.42.06v7.66c0-.05.31-.09.31-.12V8.8H8.34v9.11zm7.58 1.85c2.34 0 4.73-.84 6.29-1.39.24-.08.52-.16.71-.23 0-.01.13-.01.13-.02v-7.49H8.95v7.49c.31.07.47.16.74.26 1.56.55 3.91 1.38 6.23 1.38zm11.73-9.24v4.05c0 .17-.39.36-.56.36h-1.74c-.17 0-.16-.19-.16-.36v-3.32h-.92v12.93c0 .17-.29.55-.46.55h.15v.25c0 .17-.36.37-.53.37H20.6c-.17 0-.31-.2-.31-.37v-.25H11.4v.25c0 .17-.11.37-.28.37H8.29c-.17 0-.26-.2-.26-.37v-.25h-.15c-.17 0-.16-.38-.16-.55V11.25H6.8v3.32c0 .17-.24.36-.4.36H4.66c-.17 0-.31-.19-.31-.36v-4.05c0-.17.14-.19.31-.19H6.4c.17 0 .4.02.4.19v.43h.92V7.91l1.52-1.19c.06-.04.16-.07.23-.07h12.79c.12 0 .19 0 .25.05l1.54 1.29c.04.03.1.07.12.12.02.04.11.09.11.13v2.7h.92v-.43c0-.17-.01-.19.16-.19h1.74c.16.01.55.03.55.2zm-18.51 10c.39 0 .72.32.72.72s-.32.72-.72.72-.72-.32-.72-.72.33-.72.72-.72zm0 1.12c.23 0 .41-.18.41-.41s-.18-.41-.41-.41-.41.18-.41.41.19.41.41.41zm1.33.45c-.27 0-.5-.22-.5-.49s.22-.49.5-.49.5.22.5.49-.23.49-.5.49zm0-.67c-.1 0-.19.08-.19.18 0 .1.09.18.19.18s.19-.08.19-.18-.09-.18-.19-.18zm12.39-.9c.39 0 .72.32.72.72s-.32.72-.72.72c-.39 0-.72-.32-.72-.72s.33-.72.72-.72zm0 1.12c.23 0 .41-.18.41-.41s-.18-.41-.41-.41-.41.18-.41.41.19.41.41.41zm-1.33-.52c.27 0 .5.22.5.49s-.22.49-.5.49-.5-.22-.5-.49.23-.49.5-.49zm0 .66c.1 0 .19-.08.19-.18s-.08-.18-.19-.18-.19.08-.19.18c0 .1.09.18.19.18z"/></svg>