<svg xmlns="http://www.w3.org/2000/svg" viewBox="0 0 36 36"><path d="M33 26.76H3a.75.75 0 0 0 0 1.5h30a.75.75 0 0 0 0-1.5zM6 25.24h24a.75.75 0 0 0 .75-.75v-16a.76.76 0 0 0-.75-.75h-9a.75.75 0 0 0 0 1.5h8.25v14.5H6.75V9.24H15a.75.75 0 0 0 0-1.5H6a.76.76 0 0 0-.75.75v16a.75.75 0 0 0 .75.75z"/><path d="M18 9.24a.75.75 0 0 0 .75-.75.75.75 0 0 0-1.28-.49.75.75 0 0 0 .53 1.24zM12 13.49v6a.75.75 0 0 0 .75.75h7a.75.75 0 0 0 .75-.75v-1.62l2.45 1.43a.75.75 0 0 0 .38.1.69.69 0 0 0 .37-.1.73.73 0 0 0 .38-.65v-4.16a.74.74 0 0 0-.38-.65.77.77 0 0 0-.75 0l-2.45 1.43v-1.78a.76.76 0 0 0-.75-.75h-7a.76.76 0 0 0-.75.75zm10.58 2.3v1.56l-1.34-.78zm-9.08-1.55H19v4.5h-5.5z"/></svg>