<svg data-name="Layer 1" xmlns="http://www.w3.org/2000/svg" viewBox="0 0 36 36"><title>Icon-Red_Hat-Graduation_cap-A-Black-RGB</title><path d="M33.638 14.35a.758.758 0 0 0-.36-.276l-7.514-2.683-7.512-2.682a.763.763 0 0 0-.5 0L10.24 11.39l-7.517 2.684a.758.758 0 0 0-.36.275.754.754 0 0 0 0 .863.756.756 0 0 0 .36.274l5.942 2.123v5.755a.75.75 0 0 0 .487.7l4.292 1.61 4.293 1.61a.83.83 0 0 0 .13.036.743.743 0 0 0 .266 0 .83.83 0 0 0 .13-.034l4.293-1.61 4.292-1.61a.75.75 0 0 0 .487-.7v-5.757l5.942-2.123a.747.747 0 0 0 .5-.706.746.746 0 0 0-.14-.43zm-7.8 5.67v2.826l-3.918 1.47-3.92 1.47-3.917-1.47-3.918-1.47v-4.7l.07.025 7.512 2.685a.79.79 0 0 0 .125.032.744.744 0 0 0 .255 0 .79.79 0 0 0 .125-.032l7.512-2.684.07-.024zM24.4 17.067L18 19.35l-6.4-2.284-6.4-2.285 6.4-2.28 6.4-2.29 5.2 1.86-1.76.646-3.7 1.36a.75.75 0 0 0 .26 1.455.825.825 0 0 0 .13-.01.883.883 0 0 0 .13-.035l3.7-1.36 3.445-1.27 5.388 1.926z"/><path d="M31.48 17.47a.564.564 0 0 0-.11-.1.772.772 0 0 0-.13-.074.793.793 0 0 0-.57 0 .875.875 0 0 0-.133.074.777.777 0 0 0-.117.1.633.633 0 0 0-.158.238.824.824 0 0 0-.052.292.8.8 0 0 0 .052.284.706.706 0 0 0 .158.246.644.644 0 0 0 .117.09 1.2 1.2 0 0 0 .133.07.682.682 0 0 0 .14.045.746.746 0 0 0 .15.015.688.688 0 0 0 .14-.015.713.713 0 0 0 .14-.045.84.84 0 0 0 .13-.073.705.705 0 0 0 .11-.087.812.812 0 0 0 .167-.246.718.718 0 0 0 .063-.284.737.737 0 0 0-.063-.292.72.72 0 0 0-.167-.238zM30.924 19.392a.75.75 0 0 0-.75.75v5.366a.75.75 0 0 0 1.5 0v-5.366a.75.75 0 0 0-.75-.75z"/></svg>