<svg data-name="virtual-server" xmlns="http://www.w3.org/2000/svg" viewBox="0 0 36 36"><title>Icon-Red_Hat-Hardware-Virtual_Server-A-Black-RGB</title><path d="M18 13.75a.75.75 0 1 0-.75-.75.76.76 0 0 0 .75.75zm-5.2 0a.75.75 0 1 0-.75-.75.76.76 0 0 0 .75.75zm2.6 0a.75.75 0 1 0-.75-.75.76.76 0 0 0 .75.75zm-9.87 9.72a.75.75 0 0 0-1.22.24.72.72 0 0 0-.06.29.75.75 0 0 0 .75.75.72.72 0 0 0 .29-.06.63.63 0 0 0 .24-.16.75.75 0 0 0 .22-.53.72.72 0 0 0-.06-.29.63.63 0 0 0-.16-.24zM5 20.5A.75.75 0 0 0 5 22a.75.75 0 0 0 0-1.5zm0-2.75a.75.75 0 0 0 0 1.5.75.75 0 0 0 0-1.5zm5.2-4a.75.75 0 1 0-.75-.75.76.76 0 0 0 .75.75zm-2.6 0a.75.75 0 1 0-.75-.75.76.76 0 0 0 .75.75zm5.85 4h-3a.75.75 0 0 0 0 1.5h3a.75.75 0 0 0 0-1.5zm12.35-4a.75.75 0 1 0-.75-.75.76.76 0 0 0 .75.75zm5.2 0a.75.75 0 0 0 .53-1.28.77.77 0 0 0-1.06 0 .75.75 0 0 0 .53 1.28zm-5.42 4.06a.74.74 0 0 0-.81.16.75.75 0 0 0-.22.53.93.93 0 0 0 .05.29.66.66 0 0 0 .17.24.75.75 0 0 0 .53.22.77.77 0 0 0 .53-.22.78.78 0 0 0 .16-.24.72.72 0 0 0 .06-.29.75.75 0 0 0-.22-.53.72.72 0 0 0-.25-.16zm-2.38-4.06a.75.75 0 1 0-.75-.75.76.76 0 0 0 .75.75zM7.25 16v5a.76.76 0 0 0 .75.75h20a.76.76 0 0 0 .75-.75v-5a.76.76 0 0 0-.75-.75H8a.76.76 0 0 0-.75.75zm1.5.75h18.5v3.5H8.75zm11.85-3a.75.75 0 1 0-.75-.75.76.76 0 0 0 .75.75zm-7.8 9.5a.75.75 0 1 0 0 1.5.75.75 0 0 0 0-1.5zm15.6-11a.75.75 0 1 0 .75.75.76.76 0 0 0-.75-.75zm3.13 11.22a.77.77 0 0 0-1.06 0 .63.63 0 0 0-.16.24.74.74 0 0 0 .16.82.63.63 0 0 0 .24.16.72.72 0 0 0 .29.06.75.75 0 0 0 .75-.75.72.72 0 0 0-.06-.29.78.78 0 0 0-.16-.24zm-3.13-.22a.75.75 0 1 0 .75.75.75.75 0 0 0-.75-.75zm-2.6 0a.75.75 0 1 0 .75.75.75.75 0 0 0-.75-.75zM31 15a.75.75 0 0 0 0 1.5.75.75 0 0 0 0-1.5zm0 2.75a.75.75 0 1 0 .75.75.76.76 0 0 0-.75-.75zm0 2.75a.75.75 0 1 0 .75.75.75.75 0 0 0-.75-.75zm-7.8 2.75a.75.75 0 0 0 0 1.5.75.75 0 1 0 0-1.5zm-15.6 0a.75.75 0 1 0 .75.75.75.75 0 0 0-.75-.75zM4.47 12.47a.75.75 0 1 0 1.06 0 .77.77 0 0 0-1.06 0zm5.73 10.78a.75.75 0 1 0 .8.75.75.75 0 0 0-.8-.75zM5 15a.75.75 0 1 0 .75.75A.75.75 0 0 0 5 15zm15.6 8.25a.75.75 0 1 0 .75.75.75.75 0 0 0-.75-.75zm-5.2 0a.75.75 0 1 0 0 1.5.75.75 0 0 0 0-1.5zm2.6 0a.75.75 0 1 0 .75.75.75.75 0 0 0-.75-.75z"/></svg>