<svg xmlns="http://www.w3.org/2000/svg" viewBox="0 0 31.68 31.68"><path d="M17.17 16.5c.06 0 .11-.03.15-.08L20.27 12c.05-.08.03-.19-.05-.24-.08-.05-.19-.03-.24.05l-2.95 4.42c-.05.08-.03.19.05.24.02.02.06.03.09.03zm7.82-7.59c-.12-.48-.51-.85-1-.95-.03-.01-.07-.01-.11 0-.89-.29-3-.58-8.04-.58s-7.16.3-8.05.58h-.1c-.49.1-.88.47-1 .95-.05.32.04.78.77 1.22.05.03.12.05.18.05.15.05.29.1.45.14l6.21 9.1.24 6.55c0 .14.1.27.24.32.35.11.72.17 1.09.17.33 0 .66-.06.97-.18.13-.05.21-.17.21-.31l.3-6.59 6.03-9.01c.22-.05.44-.11.65-.19h.02c.06 0 .12-.02.18-.05.72-.43.81-.9.76-1.22zm-9.15-.82c3.81 0 6.34.21 7.45.42-1.13.22-3.65.42-7.45.42s-6.34-.2-7.45-.42c1.11-.21 3.64-.42 7.45-.42zm.87 10.99c-.04.05-.06.11-.06.18l-.29 6.44c-.37.08-.76.08-1.13 0L15 19.29c0-.07-.02-.13-.06-.19l-5.86-8.6c2.25.25 4.51.35 6.77.31 2.2.04 4.4-.06 6.58-.28l-5.72 8.55zm7.18-9.57c-.35.24-3.14.6-8.07.6-4.82 0-7.58-.35-8.03-.59-.29-.18-.45-.35-.42-.5.01-.04.03-.08.05-.11.61.35 2.51.73 8.39.73s7.82-.39 8.42-.73c.03.04.05.08.06.12.03.13-.12.31-.4.48z"/></svg>