<svg xmlns="http://www.w3.org/2000/svg" viewBox="0 0 36 36"><title>Icon-Red_Hat-Objects-Podium_Presentation-A-Black-RGB</title><path d="M27.5 30.75h-3.25v-15.5h1.25a.76.76 0 0 0 .75-.75v-5a.76.76 0 0 0-.75-.75h-1.25V5.5a.76.76 0 0 0-.75-.75h-2.43a1.73 1.73 0 0 0-1.57-1h-4a1.75 1.75 0 0 0 0 3.5h4a1.73 1.73 0 0 0 1.57-1h1.68v2.5H10.5a.76.76 0 0 0-.75.75v5a.76.76 0 0 0 .75.75h1.25v15.5H8.5a.75.75 0 0 0 0 1.5h19a.75.75 0 0 0 0-1.5zm-8-25h-4a.25.25 0 0 1 0-.5h4a.25.25 0 0 1 0 .5zm-8.25 4.5h13.5v3.5h-13.5zm2 20.5v-15.5h9.5v15.5z"/></svg>