<svg xmlns="http://www.w3.org/2000/svg" width="32" height="32" viewBox="0 0 32 32"><path d="M20.064 8.52c-.356-2.19-1.94-3.426-2.01-3.48-.61-.46-1.098-.683-1.49-.683-.413 0-.61.255-.663.406-.017.053-.017.112.003.164l.926 2.526-.155 1.206-1.237.577-.934-.816c-.097-.262-.498-1.35-.703-1.927-.17-.48-.35-.712-.588-.75-.147-.023-.268.043-.337.116-1.98 1.722-.38 4.8-.282 4.985.02.044.173.36.428.768l-.15.072c-.378.18-.493.616-.282 1.063.142.3.38.472.655.472.105 0 .21-.026.317-.075l.484-.23c.072.07.146.14.223.205.422.357.578.582.54 1.538l-.37 10.782c-.003.042-.09 1.024.495 1.67.322.353.774.533 1.346.533.54 0 .967-.172 1.273-.512.58-.642.483-1.647.48-1.672l-.348-10.778c0-.12-.004-.237-.007-.35-.024-.766-.04-1.272 1.176-2.233 1.596-1.26 1.23-3.486 1.214-3.577zm-7.137 1.89c-.31-.684-1.15-2.884.226-4.143.04.054.106.167.185.39.234.66.727 1.992.727 1.992.014.038.038.072.07.1l.817.714-2.025.946zm.476 2.4c-.056.028-.11.04-.16.04-.173 0-.276-.163-.322-.26-.074-.16-.136-.46.107-.574l.198-.094c.16.233.344.478.55.71l-.373.178zm5.144-1.098c-1.41 1.115-1.388 1.818-1.362 2.634.003.108.007.218.007.342l.35 10.805c0 .008.074.836-.354 1.31-.212.235-.51.35-.91.35-.426 0-.756-.125-.98-.37-.44-.483-.373-1.287-.37-1.31l.37-10.796c.04-1.008-.114-1.423-.714-1.93-.685-.58-1.216-1.484-1.437-1.898l3.858-1.802c.076-.036.13-.11.14-.192l.177-1.4c.005-.038 0-.077-.013-.114l-.9-2.458c.03-.02.078-.036.154-.036.157 0 .52.076 1.194.584.015.012 1.498 1.175 1.822 3.168.004.02.33 2.035-1.032 3.112zM17.53 9.764c-.06-.082-.176-.098-.258-.037s-.098.176-.037.257l.715.956c.036.048.092.074.147.074.038 0 .077-.012.11-.036.08-.06.098-.176.037-.258l-.715-.956zm-.662.322c-.06-.082-.176-.098-.258-.038-.082.06-.098.176-.037.258l.715.956c.037.048.092.074.147.074.038 0 .077-.012.11-.037.08-.062.098-.177.037-.26l-.715-.955zm-.24 1.498c.035.048.09.074.146.074.038 0 .077-.012.11-.036.08-.06.098-.176.037-.258l-.715-.956c-.06-.08-.176-.098-.258-.038-.08.06-.098.176-.037.258l.716.957zm-.516.395c.038 0 .077-.013.11-.037.082-.06.098-.176.037-.258l-.716-.956c-.06-.082-.176-.098-.257-.038-.082.06-.098.176-.037.257l.715.955c.036.05.09.074.147.074zm.154 12.888c-.17 0-.335.048-.48.14-.414.264-.537.817-.273 1.233.165.26.446.415.755.415.17 0 .335-.048.48-.14.415-.264.538-.817.274-1.233-.165-.26-.447-.414-.754-.414zm.282 1.337c-.238.152-.575.075-.726-.162-.155-.245-.083-.57.16-.726.086-.054.183-.083.283-.083.18 0 .347.09.444.244.155.245.082.57-.162.726z"/></svg>