<svg id="b8145ee9-7140-467c-bf28-292bdf214486" data-name="Layer 1" xmlns="http://www.w3.org/2000/svg" viewBox="0 0 36 36">
  <g>
    <path d="M27.68,23a.64.64,0,0,0-.86,0l-3.75,3.5a.63.63,0,0,0,.43,1.08h.88V31a.62.62,0,0,0,.62.62c.52,0,1.35.14,1.37-.62V28.62h1.74V31c0,.76.86.62,1.38.62a.62.62,0,0,0,.62-.62V27.62H31a.63.63,0,0,0,.43-1.08Z"/>
    <path d="M14.5,8.38h-6a.62.62,0,0,0,0,1.24h6A.62.62,0,0,0,14.5,8.38Z"/>
    <path d="M14.5,11.38h-6a.62.62,0,0,0,0,1.24h6A.62.62,0,0,0,14.5,11.38Z"/>
    <path d="M21.5,9.62h6a.62.62,0,0,0,0-1.24h-6A.62.62,0,0,0,21.5,9.62Z"/>
    <path d="M28.12,12a.62.62,0,0,0-.62-.62h-6a.62.62,0,0,0,0,1.24h6A.62.62,0,0,0,28.12,12Z"/>
    <path d="M8.5,16.84a.63.63,0,0,0-.62.63v3.06a.62.62,0,1,0,1.24,0V17.47A.63.63,0,0,0,8.5,16.84Z"/>
    <path d="M31,4.38H5A.62.62,0,0,0,4.38,5V31a.62.62,0,0,0,.62.62H22.25a.63.63,0,0,0,0-1.26H18.62V5.62H30.38V23.11a.62.62,0,1,0,1.24,0V5A.62.62,0,0,0,31,4.38ZM5.62,5.62H17.38V30.38H5.62Z"/>
    <path d="M20.88,17.47v3.06a.62.62,0,0,0,1.24,0V17.47A.62.62,0,0,0,20.88,17.47Z"/>
  </g>
</svg>
