<svg xmlns="http://www.w3.org/2000/svg" viewBox="0 0 36 36"><title>Icon-Red_Hat-People_and_audiences-Operations-A-Black-RGB</title><path d="M29 22.75a.67.67 0 0 0 .28-.06.82.82 0 0 0 .25-.16.77.77 0 0 0 .22-.53.73.73 0 0 0-.22-.53.77.77 0 0 0-1.06 0 .75.75 0 0 0-.22.53.71.71 0 0 0 .22.53.75.75 0 0 0 .53.22z"/><path d="M32 18.25H4a.76.76 0 0 0-.75.75v7a.76.76 0 0 0 .75.75h28a.76.76 0 0 0 .75-.75v-7a.76.76 0 0 0-.75-.75zm-.75 7H4.75v-5.5h26.5z"/><path d="M7 23.75h2.66a.75.75 0 0 0 0-1.5H7a.75.75 0 0 0 0 1.5zM17.21 15.66h.16a.76.76 0 0 0 .73-.6l1.24-5.85a.75.75 0 0 0-.57-.89.74.74 0 0 0-.89.58l-1.25 5.85a.76.76 0 0 0 .58.91zM20.91 15.09a.77.77 0 0 0 .53.22.79.79 0 0 0 .53-.22l2.56-2.57a.75.75 0 0 0 0-1.06L22 8.9a.75.75 0 0 0-1.06 0 .74.74 0 0 0 0 1.06l2 2-2 2a.74.74 0 0 0-.03 1.13zM14 15.09a.79.79 0 0 0 .53.22.77.77 0 0 0 .53-.22.74.74 0 0 0 0-1.06l-2-2 2-2a.74.74 0 0 0 0-1.06A.75.75 0 0 0 14 8.9l-2.56 2.56a.75.75 0 0 0 0 1.06z"/></svg>