<svg xmlns="http://www.w3.org/2000/svg" viewBox="0 0 32 32"><path d="M24.53 26.43l-.39-2.29-.07-10.97c0-.08-.05-.16-.12-.2l-2.08-1.31c-.04-.03-.09-.04-.13-.04h-.72v-3.9c0-.03-.07-3.19-2.96-3.62-.04-.01-1-.11-1.62 0-.28.04-.53.11-.76.2-.31 0-.64.01-.91.06-3.32.48-3.4 4.11-3.4 4.15v3.1h-.89c-.04 0-.09.01-.12.03l-2.33 1.31c-.08.05-.13.13-.13.23l-.04 10.97-.39 2.29c-.02.08 0 .16.05.22s.12.1.2.1h16.57c.08 0 .15-.04.2-.1s.06-.16.04-.23zm-2.72-14.22l1.65 1.04-.17.09-.44-.23c-.05-.02-.11-.02-.15 0l-.44.23-.44-.23v-.9h-.01zm-.51-.09v1.16l-.13.07-.44-.23c-.05-.02-.11-.02-.15 0l-.44.23-.1-.05c.01-.03.02-.07.02-.11v-1.07h1.24zm-3.33-7.44c2.38.35 2.45 2.93 2.45 3.04v3.89h-.37v-3.1c0-.03-.06-2.85-2.35-3.85.16.01.27.02.27.02zm-2.2.21c.43.01.79.05.79.05 2.82.41 2.9 3.44 2.9 3.57v3.1h-5.39V7.72c0-.1.05-2.11 1.7-2.83zm-3.82 3.62c0-.01.01-.8.38-1.64.45-1.02 1.2-1.64 2.26-1.87-1.07 1.08-1.11 2.69-1.11 2.72v3.89h-1.53v-3.1zm0 4.7v-1.1h7.51v1.03l-.37.19-.44-.23c-.05-.02-.11-.02-.15 0l-.44.23-.44-.23c-.05-.02-.11-.02-.15 0l-.47.24-.44-.23c-.05-.02-.11-.02-.15 0l-.44.23-.44-.23c-.05-.02-.1-.02-.15 0l-.44.23-.44-.23c-.05-.02-.11-.02-.15 0l-.44.23-.44-.23c-.05-.02-.1-.02-.15 0l-.44.23-.44-.23c-.05-.02-.1-.02-.15 0l-.28.14c-.06-.01-.06-.02-.06-.04zm-1.22-1.09h.63v1.01l-.03-.02c-.05-.02-.1-.02-.15 0l-.44.23v-1.22zm-.51.18v.8c-.03 0-.06 0-.09.02l-.44.23-.44-.23c-.05-.02-.1-.02-.15 0l-.44.23-.14-.07 1.7-.98zM8.04 26.25l.33-2.01c.01-.02.01-.04.01-.06l.02-10.59.17.09c.05.02.1.02.15 0l.44-.23.44.23c.05.02.1.02.15 0l.44-.23.44.23c.05.02.1.02.15 0l.44-.23.45.23c.05.02.1.02.15 0l.44-.23.44.23c.05.02.1.02.15 0l.44-.23.44.23c.05.02.1.02.15 0l.44-.23.44.23c.05.02.11.02.15 0l.44-.23.44.23c.05.02.1.02.15 0l.44-.23.44.23c.05.02.11.02.15 0l.44-.23.45.23c.05.02.11.02.15 0l.44-.23.55.23c.05.02.11.02.15 0l.45-.23.44.23c.05.02.1.02.15 0l.44-.23.45.23c.03.02.06.02.09.01.03 0 .06 0 .09-.01l.44-.23.44.23c.05.02.1.02.15 0l.45-.23.44.23c.02.01.05.02.08.02s.05-.01.08-.02l.2-.1.06 10.61c0 .02 0 .04.01.06l.31 2H8.04zm14.19-2.24h-9.12c-.09 0-.17.08-.17.17s.07.17.17.17h9.12c.09 0 .17-.08.17-.17s-.08-.17-.17-.17zm-9.92 0h-1.47c-.09 0-.17.08-.17.17s.08.17.17.17h1.47c.09 0 .17-.08.17-.17s-.08-.17-.17-.17z"/></svg>