<svg xmlns="http://www.w3.org/2000/svg" viewBox="0 0 32 32"><path d="M16 10.89c2.35 0 4.26-1.91 4.26-4.26S18.34 2.39 16 2.39s-4.26 1.91-4.26 4.25c0 2.35 1.91 4.25 4.26 4.25zM16 3c2.01 0 3.64 1.63 3.64 3.64 0 2.01-1.63 3.64-3.64 3.64s-3.64-1.63-3.64-3.64S13.99 3 16 3zm2.33 8.72h-4.67c-4.34 0-6.73 2.39-6.73 6.73v3.75c0 2.12 1.41 3.16 2.91 4.26l.2.15V28c0 .08.03.15.08.2.29.33 1.58 1.41 5.88 1.41s5.59-1.08 5.88-1.41c.05-.06.08-.13.08-.2v-1.4l.2-.15c1.49-1.1 2.91-2.14 2.91-4.26v-3.75c-.01-4.33-2.4-6.72-6.74-6.72zm6.11 10.47c0 1.81-1.23 2.72-2.65 3.77v-8.11c0-.15-.12-.27-.27-.27s-.27.12-.27.27v10.1C20.81 28.29 19.49 29 16 29c-3.62 0-4.91-.76-5.3-1.09.01-.02.02-.05.02-.08v-9.99c0-.15-.12-.27-.27-.27s-.27.12-.27.27v8.09c-1.41-1.04-2.63-1.94-2.63-3.74v-3.75c0-2.79 1.06-6.11 6.11-6.11h4.67c5.05 0 6.11 3.32 6.11 6.11v3.75zm-4.64-5.04h-2.66c-.13 0-.24.11-.24.24v2.34c0 .1.06.18.15.22l1.33.54c.03.01.06.02.09.02s.06-.01.09-.02l1.33-.54c.09-.04.15-.12.15-.22v-2.34c0-.14-.11-.24-.24-.24zm-.24 2.41l-1.09.44-1.09-.44v-1.94h2.18v1.94z"/></svg>