<svg xmlns="http://www.w3.org/2000/svg" viewBox="0 0 32 32"><path d="M25.49 11.67c-.9-2.93-3.64-4.97-6.72-4.97-3.09 0-5.81 2.02-6.71 4.94-.5-.18-1.03-.27-1.57-.27-2.19 0-4.07 1.5-4.56 3.61-1.95.07-3.6 1.43-4.04 3.35-.02.09 0 .18.06.25.05.07.14.11.23.11h10.06c-.05.31-.07.63-.07.95 0 3.67 2.98 6.65 6.65 6.65s6.65-2.98 6.65-6.65c0-.33-.02-.64-.07-.96h4.38c.14 0 .26-.1.29-.24.06-.36.09-.68.09-1-.02-2.79-1.96-5.18-4.67-5.77zm-6.68 14.01c-3.33 0-6.03-2.71-6.03-6.03 0-3.33 2.71-6.03 6.03-6.03s6.03 2.71 6.03 6.03c.01 3.32-2.7 6.03-6.03 6.03zm10.71-7.57h-4.24c-.7-2.93-3.33-5.11-6.47-5.11s-5.77 2.18-6.47 5.11H2.55c.5-1.51 1.9-2.54 3.55-2.54h.05c.15.01.27-.1.29-.24.35-1.95 2.05-3.37 4.04-3.37.53 0 1.05.11 1.54.31.3.15.95.52 1.36 1.2.05.08.14.12.23.1.03-.01.05-.01.07-.03.1-.06.14-.2.08-.3-.35-.58-.84-.96-1.21-1.19.76-2.81 3.31-4.76 6.22-4.76 2.8 0 5.27 1.79 6.12 4.44-.75-.01-1.31.27-1.34.28-.11.05-.17.17-.12.29.05.11.17.16.28.12.01 0 .78-.31 1.66-.16 2.44.53 4.2 2.68 4.2 5.2-.01.2-.02.42-.05.65zm-7.48-1.07c-2.44-.57-3.05-.63-3.2-.63h-.09c-.15 0-.76.06-3.2.63-.07.02-.13.08-.13.16v3.37c0 .03.11 2.98 3.34 3.55h.05c3.31-.41 3.35-3.52 3.35-3.56V17.2c.01-.08-.04-.15-.12-.16zm-.2 3.52c0 .03-.04 2.84-3.04 3.23-2.93-.53-3.04-3.12-3.05-3.23v-3.24c.3-.07.56-.13.81-.18 1.69-.38 2.1-.41 2.19-.41.03.01.06.01.08 0 .07 0 .51.03 2.57.5.14.03.28.07.43.1.01 0 .01 3.23.01 3.23zm-3.04-3.05h-.17c-.01 0-.03 0-.05.01-.27.04-.94.15-2.53.52-.06.01-.11.07-.11.13v2.39c.01.25.17 2.48 2.83 2.99h.04c1.89-.26 2.51-1.52 2.71-2.25.11-.4.12-.71.12-.74V18.9l.03-.06-.03-.01v-.67c0-.06-.05-.12-.11-.13-1.7-.39-2.35-.49-2.59-.52h-.14zm2.57 3.05c0 .01-.03.76-.36 1.29l-.1.17s-.2.31-.4.48l-.14.12c-.41.34-.94.55-1.57.64-.42-.08-.79-.22-1.12-.4 1.95-1.39 3.12-2.77 3.69-3.57v1.27zm-.64-2.43c.19.04.41.09.64.15v.44l-.01.02c-.32.5-1.54 2.24-3.98 3.94-.02-.01-.04-.03-.05-.04l-.16-.13c-.14-.13-.27-.27-.38-.42l-.07-.09c2.32-1.64 3.58-3.34 3.95-3.88l.06.01zm-4.18 3.59c-.29-.56-.32-1.06-.33-1.16V18.28l.62-.14c.02 0 1.62-.33 1.81-.35h.29c.15.02.52.07 1.39.26-.47.65-1.66 2.17-3.78 3.67z"/></svg>