<svg xmlns="http://www.w3.org/2000/svg" viewBox="0 0 32 32"><path d="M8.61 20.18c-.54 0-.97.44-.97.97 0 .54.44.97.97.97.54 0 .97-.44.97-.97s-.44-.97-.97-.97zm0 1.65c-.37 0-.67-.3-.67-.67 0-.37.3-.67.67-.67s.67.3.67.67c0 .37-.3.67-.67.67zm15.24-1.65c-.54 0-.97.44-.97.97 0 .54.44.97.97.97s.97-.44.97-.97-.43-.97-.97-.97zm0 1.65c-.37 0-.67-.3-.67-.67 0-.37.3-.67.67-.67s.67.3.67.67c0 .37-.3.67-.67.67zm5.23-5.51l-.19-.29c-.42-1.46-.91-2.46-.92-2.48-.33-.8-.89-.97-1.11-1.01l-.41-.44c-.86-.97-2.59-1.14-2.66-1.14-.12 0-.21.09-.21.21v6.71h-.38V8.95c0-.12-.09-.21-.21-.21H3.79c-.12 0-.21.09-.21.21v9.55h-.32c-.28 0-.51.23-.51.51v.24c0 .31.2.51.51.51h3.78c-.33.37-.54.86-.54 1.4 0 1.16.94 2.1 2.1 2.1s2.1-.94 2.1-2.1c0-.23-.04-.45-.1-.65h4.99v.34c0 .39.32.71.71.71h4.13c.39 0 .71-.32.71-.71v-.35h.69c-.07.21-.1.42-.1.65 0 1.16.94 2.1 2.1 2.1 1.16 0 2.1-.94 2.1-2.1 0-.23-.04-.45-.1-.65h.53c.08.35.07.61.07.61 0 .06.02.11.06.16.04.04.09.07.15.07h1.86c.54 0 .73-.46.73-.77v-3.74c.02-.29-.09-.45-.15-.51zm-6.29-7.16v9.28H4v-2.71h12.89l-.19.98c-.03.26-.01.33.16.44.07.05.25.13.51-.06l3.66-3.03c.04-.04.07-.09.07-.14s-.03-.11-.07-.14l-3.67-3.03c-.25-.19-.43-.1-.5-.06-.16.11-.18.26-.16.44l.18 1.07H4V9.16h18.79zm-5.51 3.21c0-.02.01-.04 0-.06l-.21-1.28c0-.01-.01-.03-.01-.04.01 0 .03.01.07.04l3.49 2.89-3.48 2.88c-.05.03-.07.04-.07.04h-.01c.01-.02.01-.03.01-.05l.22-1.21c.01-.05-.01-.11-.05-.15-.04-.04-.09-.07-.14-.07H4v-2.77h13.09c.11 0 .2-.09.2-.2-.01 0-.01-.01-.01-.02zM8.61 22.81c-.91 0-1.65-.74-1.65-1.65 0-.91.74-1.65 1.65-1.65s1.65.74 1.65 1.65c0 .91-.74 1.65-1.65 1.65zm12.2-2.72v.76c0 .2-.17.37-.37.37h-4.13c-.2 0-.37-.16-.37-.37v-.82c0-.2.17-.37.37-.37h4.13c.2 0 .37.17.37.37v.06zm3.04 2.72c-.91 0-1.65-.74-1.65-1.65 0-.91.74-1.65 1.65-1.65s1.65.74 1.65 1.65c0 .91-.74 1.65-1.65 1.65zm1.81-2.72c-.37-.62-1.04-1.04-1.81-1.04s-1.44.42-1.81 1.04h-.88v-.06c0-.39-.32-.71-.71-.71h-4.13c-.39 0-.71.32-.71.71v.06h-5.18c-.37-.62-1.04-1.04-1.81-1.04-.43 0-.83.13-1.17.35H3.26c-.14 0-.16-.08-.16-.16V19c0-.09.07-.16.16-.16h.48c.02 0 .03.01.05.01H23c.12 0 .21-.09.21-.21v-.34h.38v.32c0 .12.09.21.21.21h.49c.7 0 1.22.31 1.59.71.16.18.28.37.37.56h-.59v-.01zm3.17-1.51l-.4-.14v-.49h.4v.63zm0-.91h-.54c-.08 0-.14.06-.14.14v.67c0 .01 0 .02.01.03-.01.07.02.14.09.16l.58.2v1.7c0 .06-.02.35-.31.35h-1.65c-.01-.39-.13-1.12-.69-1.72-.45-.49-1.08-.8-1.9-.8H24v-7.02c.47.03 1.6.43 2.15 1l.45.49c.04.04.09.07.15.07.01 0 .53.02.84.78.01.01.5 1.02.91 2.46l.03.06.22.33c.01.02.02.02.03.03 0 0 .06.07.06.23l-.01.84zm-.58 2.49h-.9c-.08 0-.14.06-.14.14 0 .08.06.14.14.14h.9c.08 0 .14-.06.14-.14-.01-.08-.07-.14-.14-.14zm-1.05-.49c0 .08.06.14.14.14h.9c.08 0 .14-.06.14-.14s-.06-.14-.14-.14h-.9c-.08 0-.14.06-.14.14zm.76-3.28v-.63c0-.02 0-.04-.01-.05l-.14-.34v-.47c0-.42-.26-.47-.38-.47h-.01l-.41-.98c-.02-.05-.07-.08-.12-.09H25.2c-.15 0-.31.1-.31.33v1.94c0 .05.03.09.07.12l2.13.76c.02.01.05.02.07.02h.67c.07 0 .13-.06.13-.14zm-.72-.83v-.86h.19c.04 0 .1 0 .1.19v.52c-.01.15-.06.15-.1.15h-.19zm.44.7h-.49l-2.04-.7v-1.87c0-.03.01-.04.01-.04h1.62l.33.8c-.15.03-.15.18-.15.28v.85c0 .08 0 .14.03.19.05.1.16.1.2.1h.24c.06 0 .16-.01.24-.09l.01.03v.45z"/></svg>