<svg xmlns="http://www.w3.org/2000/svg" viewBox="0 0 31.68 31.68"><path d="M24.88 6.13H6.8c-.38 0-.69.31-.69.69v18.05c0 .38.31.69.69.69h18.09c.38 0 .69-.31.69-.69V6.82c-.01-.38-.32-.69-.7-.69zm0 .56c.07 0 .12.06.12.12v8.71c-2.8 0-3.97.03-3.97.93v.02c0 .73.29 1 .5 1.2.16.15.25.23.25.53v.03c0 .22-.08.56-1.2.56-1.2 0-1.2-.39-1.2-.6v-.09c.02-.21.1-.29.24-.42.18-.17.43-.41.48-.96.01-.08.01-.16.01-.26 0-.9-1.19-.93-4.02-.93 0-.73 0-1.41.03-1.96.04-.65.11-1.21.23-1.37.01-.01.02-.03.03-.03.01 0 .01-.01.02-.01.01-.01.03-.01.04-.01.47 0 .6.14.77.32.18.19.4.42.94.42h.02c1.17 0 1.17-1.32 1.17-1.76 0-.44 0-1.76-1.17-1.76h-.01-.01c-.53 0-.76.24-.94.42-.17.18-.3.32-.77.32-.34-.01-.36-1.56-.36-3.41h8.8zm-18.21.13c0-.07.06-.12.12-.12h8.72v.06c0 2.61 0 3.91.93 3.91h.02c.73 0 1-.29 1.2-.5.15-.16.23-.25.52-.25.21 0 .59.03.59 1.2h.02-.02c0 1.04-.3 1.18-.51 1.19h-.07c-.29 0-.37-.09-.53-.25-.2-.21-.47-.5-1.2-.5h-.02c-.1 0-.2.02-.28.06-.01.01-.03.02-.04.02-.02.01-.04.02-.06.04-.33.23-.45.82-.5 1.83-.03.54-.05 1.22-.05 2.06-1.18 0-3.41-.03-3.41-.36 0-.06 0-.11.01-.16.03-.35.16-.47.31-.61.17-.16.37-.35.42-.76.01-.06.01-.12.01-.19 0-1.15-1.29-1.17-1.76-1.17h-.01-.01c-.45 0-1.74.02-1.74 1.17v.02c0 .53.24.76.43.94.18.17.32.3.32.77-.01.36-1.71.36-3.35.36h-.06V6.82zm.13 18.17c-.07 0-.12-.06-.12-.12v-8.71c2.8 0 3.97-.03 3.97-.93v-.02c0-.73-.29-1-.5-1.2-.16-.15-.25-.23-.25-.53v-.03c0-.22.08-.56 1.2-.56 1.2 0 1.2.39 1.2.6v.09c-.02.21-.1.29-.24.42-.18.17-.43.41-.48.96-.01.08-.01.16-.01.26 0 .9 1.19.93 4.02.93 0 .73 0 1.41-.03 1.96-.04.65-.11 1.21-.23 1.37-.01.01-.02.03-.03.03-.01 0-.01.01-.02.01-.01.01-.03.01-.04.01-.47 0-.6-.14-.77-.32-.18-.19-.4-.42-.94-.42h-.02c-1.17 0-1.17 1.32-1.17 1.76s0 1.76 1.17 1.76h.02c.53 0 .76-.24.94-.42.17-.18.3-.32.77-.32.34.01.36 1.56.36 3.41H6.8zm18.21-.13c0 .07-.06.12-.12.12h-8.72v-.06c0-2.61 0-3.91-.93-3.91h-.01-.01c-.73 0-1 .29-1.2.5-.15.16-.23.25-.52.25-.21 0-.59-.03-.59-1.2h-.02.02c0-1.04.3-1.18.51-1.19h.07c.29 0 .37.09.53.25.2.21.47.5 1.2.5h.02c.1 0 .2-.02.28-.06.01-.01.03-.02.04-.02.02-.01.04-.02.06-.04.33-.23.45-.82.5-1.83.03-.55.05-1.22.05-2.06 1.18 0 3.41.03 3.41.36 0 .06 0 .11-.01.16-.03.35-.16.47-.31.61-.17.16-.37.35-.42.76-.01.06-.01.12-.01.19 0 1.15 1.29 1.17 1.76 1.17h.02c.45 0 1.74-.02 1.74-1.17v-.01-.01c0-.53-.24-.76-.43-.94-.18-.17-.32-.3-.32-.77.01-.36 1.71-.36 3.35-.36h.06v8.76z"/></svg>