<svg data-name="Layer 1" xmlns="http://www.w3.org/2000/svg" viewBox="0 0 36 36"><title>Icon-Red_Hat-Office-Shower-A-Black-RGB</title><path d="M20.8 20.21a.75.75 0 0 0-.75.75v7.17a.75.75 0 0 0 1.5 0V21a.76.76 0 0 0-.75-.79zm-3.48 0a.76.76 0 0 0-.75.75v7.17a.75.75 0 1 0 1.5 0V21a.75.75 0 0 0-.75-.79zm3.56-9.92a7.32 7.32 0 0 0-13.35 4.16v13.68a.75.75 0 0 0 1.5 0V14.45a5.82 5.82 0 0 1 10.08-4 7.68 7.68 0 0 0-6 7.48.75.75 0 0 0 .75.75h13.86a.74.74 0 0 0 .75-.75 7.68 7.68 0 0 0-7.59-7.64zm-6.21 6.92a6.18 6.18 0 0 1 12.26 0zm9.6 3a.76.76 0 0 0-.75.75v7.17a.75.75 0 0 0 1.5 0V21a.75.75 0 0 0-.75-.79z"/></svg>