<svg xmlns="http://www.w3.org/2000/svg" viewBox="0 0 32 32"><path d="M10.08 9.57H8.11c-1.9 0-2.94 1.05-2.94 2.95v1.58c0 .95.65 1.43 1.27 1.89l.03.01v.43c0 .02.01.04.01.05v9.2c0 .37.2 1 1.54 1h.09c.52 0 .79-.29.79-.88v-6.73c.01-.04.08-.07.19-.07.15 0 .19.05.2.09v6.72c0 .42.3.78.7.86.03.01.06.02.09.02h.11c1-.02 1.51-.37 1.51-1.02v-9.19c0-.02.01-.03.01-.05V16l.04-.03c.62-.46 1.27-.93 1.27-1.89V12.5c0-1.88-1.05-2.93-2.94-2.93zm1.14 16.1c0 .35-.34.52-1.07.53-.21-.01-.37-.18-.37-.39v-6.76c-.02-.18-.18-.53-.68-.53-.48 0-.67.32-.68.55v6.75c0 .33-.08.39-.3.39h-.1c-.7 0-1.05-.17-1.05-.51v-9.03c.36.17 1 .34 2.12.34s1.76-.17 2.12-.34c.01-.01.01 9 .01 9zm1.32-11.58c0 .66-.42 1.01-.96 1.41v-3.11c0-.1-.08-.18-.18-.18-.1 0-.18.08-.18.18v3.86c-.23.15-.81.39-2.11.39-1.31 0-1.89-.25-2.12-.39v-3.86c0-.1-.08-.18-.18-.18-.1 0-.18.08-.18.18v3.11c-.54-.4-.96-.75-.96-1.41v-1.58c0-1.63.83-2.46 2.46-2.46h1.96c1.63 0 2.46.83 2.46 2.46l-.01 1.58zM9.09 9.12c1.05 0 1.9-.85 1.9-1.9s-.85-1.9-1.9-1.9-1.9.85-1.9 1.9c0 1.05.85 1.9 1.9 1.9zm0-3.32c.78 0 1.42.64 1.42 1.42s-.63 1.41-1.42 1.41c-.78 0-1.41-.63-1.41-1.41 0-.79.63-1.42 1.41-1.42zm14.04 3.32c1.05 0 1.9-.85 1.9-1.9s-.85-1.9-1.9-1.9c-1.05 0-1.9.85-1.9 1.9s.85 1.9 1.9 1.9zm0-3.32c.78 0 1.42.64 1.42 1.42s-.64 1.42-1.42 1.42c-.78 0-1.42-.64-1.42-1.42s.64-1.42 1.42-1.42zm3.7 8.06v-1.35c0-1.42-.83-2.95-3.18-2.95h-1.04c-2.34 0-3.18 1.52-3.18 2.95v1.35c0 .98.57 1.53 1.18 1.99l-.67 4.69c-.01.1.03.2.12.25.02.01.29.15.81.29l.19 4.56c0 .63.17 1.05 1.02 1.05h.07c.81 0 .81-.83.81-1.11v-4.24h.4v4.24c0 .78.36 1.02.67 1.09.03.01.06.02.1.02h.14c.36-.01.94-.12.95-.98l.19-4.63c.54-.14.81-.28.83-.29.09-.05.14-.15.13-.25l-.69-4.68.08-.07c.56-.45 1.07-.99 1.07-1.93zm-4.36 11.72c0 .62-.18.62-.32.62h-.07c-.46 0-.53-.07-.53-.57l-.19-4.44c.31.06.68.11 1.1.13l.01 4.26zm2.25.12c0 .45-.18.5-.53.51-.13 0-.35-.05-.35-.62v-4.26c.41-.03.76-.07 1.07-.13l-.19 4.5zm1.13-5.27c-.34.14-1.23.43-2.71.43-1.47 0-2.35-.29-2.69-.43l.76-5.31c.32.16.89.31 1.93.31 1.03 0 1.61-.11 1.94-.24l.77 5.24zm-.27-5.14l-.05-.32.08-2.8c0-.1-.08-.18-.18-.19-.1 0-.18.08-.19.18l-.07 2.56c-.09.08-.27.17-.58.23-.32.07-.79.12-1.46.12-.85 0-1.34-.1-1.63-.21-.21-.08-.32-.17-.38-.23l-.11-2.47c0-.1-.09-.18-.19-.17-.1 0-.18.09-.17.19l.11 2.62V14.83v-.03c0 .01-.01.01-.01.02l-.07.49c-.51-.42-.77-.8-.77-1.43v-1.35c0-1.54 1.01-2.46 2.69-2.46h1.04c1.68 0 2.69.92 2.69 2.46v1.35c.02.6-.25.99-.75 1.41zm-9.34-8.63c-.13 0-.24.11-.24.24v18.09c0 .13.11.24.24.24s.24-.11.24-.24V6.9c0-.13-.11-.24-.24-.24z"/></svg>