<?xml version="1.0" encoding="UTF-8"?>
<svg id="uuid-58b89f55-f83c-4158-8c8e-e9162581d8b8" data-name="Icon" xmlns="http://www.w3.org/2000/svg" viewBox="0 0 36 36">
  <path d="M14,24.38c-.9,0-1.62,.73-1.62,1.62s.73,1.62,1.62,1.62,1.62-.73,1.62-1.62-.73-1.62-1.62-1.62Zm0,2c-.21,0-.38-.17-.38-.38s.17-.38,.38-.38,.38,.17,.38,.38-.17,.38-.38,.38Z"/>
  <path d="M11,21.38c-.9,0-1.62,.73-1.62,1.62s.73,1.62,1.62,1.62,1.62-.73,1.62-1.62-.73-1.62-1.62-1.62Zm0,2c-.21,0-.38-.17-.38-.38s.17-.38,.38-.38,.38,.17,.38,.38-.17,.38-.38,.38Z"/>
  <path d="M15,20.38c-.9,0-1.62,.73-1.62,1.62s.73,1.62,1.62,1.62,1.62-.73,1.62-1.62-.73-1.62-1.62-1.62Zm0,2c-.21,0-.38-.17-.38-.38s.17-.38,.38-.38,.38,.17,.38,.38-.17,.38-.38,.38Z"/>
  <path d="M29.77,13.72c-.11-.21-.32-.35-.56-.35h-4.46l1.42-6.66h3.49c.35,0,.62-.28,.62-.62s-.28-.62-.62-.62h-4c-.29,0-.55,.21-.61,.5l-1.58,7.42H6.79c-.24,0-.46,.14-.56,.35-.9,1.82-1.35,3.77-1.35,5.78,0,7.24,5.89,13.12,13.12,13.12s13.12-5.89,13.12-13.12c0-2.01-.46-3.95-1.35-5.78Zm-11.77,17.65c-6.55,0-11.88-5.33-11.88-11.88,0-1.69,.36-3.33,1.06-4.88H28.82c.7,1.55,1.06,3.19,1.06,4.88,0,6.55-5.33,11.88-11.88,11.88Z"/>
  <path d="M27.5,18.88c-.35,0-.62,.28-.62,.62,0,3.83-2.44,7.22-6.07,8.42-.33,.11-.5,.46-.4,.79,.11,.33,.47,.5,.79,.4,4.14-1.38,6.93-5.24,6.93-9.61,0-.34-.28-.62-.62-.62Z"/>
</svg>