<svg xmlns="http://www.w3.org/2000/svg" width="32" height="32" viewBox="0 0 32 32"><path d="M10.52 22.87H7.797c-.377 0-.72-.06-1.024-.176-.307-.118-.575-.29-.794-.51-.222-.22-.39-.493-.505-.808-.11-.306-.166-.65-.166-1.025v-2.425c0-.273-.034-.502-.1-.682-.06-.166-.148-.3-.258-.4-.115-.1-.25-.173-.415-.22-.183-.052-.393-.08-.622-.085l-.3-.006v-2.038l.295-.01c.235-.01.447-.042.63-.096.167-.05.3-.122.413-.224.11-.1.196-.234.257-.402.066-.18.1-.41.1-.682v-2.426c0-.802.226-1.43.673-1.865.444-.434 1.055-.654 1.815-.654h2.725v2.018H8.823c-.352 0-.59.087-.73.267-.157.2-.236.528-.236.974v2.226c0 .288-.048.558-.143.803-.094.24-.223.457-.384.642-.15.17-.326.317-.525.436.203.12.382.27.534.446.16.187.287.402.378.638.092.24.14.506.14.794v2.226c0 .45.078.778.233.976.14.178.38.264.733.264h1.697v2.025zm-6.294-6.926c.17.018.328.047.476.09.254.07.475.19.658.355.185.165.327.382.423.642.09.248.137.55.137.894v2.426c0 .303.044.578.13.817.083.23.204.425.36.58.16.16.355.284.582.37.233.09.503.136.804.136h2.112v-.8H8.824c-.545 0-.954-.167-1.214-.497-.246-.314-.365-.757-.365-1.355V17.38c0-.213-.033-.407-.098-.575-.066-.17-.157-.325-.272-.458-.114-.133-.25-.245-.407-.333-.16-.09-.335-.16-.518-.2l-.237-.056v-.49l.242-.083c.176-.038.346-.102.505-.193.157-.088.294-.2.41-.33.113-.13.205-.286.273-.46.067-.174.102-.37.102-.582v-2.226c0-.594.12-1.035.364-1.35.26-.334.668-.503 1.213-.503h1.084v-.79H7.795c-.603 0-1.057.156-1.388.478-.328.32-.488.786-.488 1.426v2.426c0 .346-.047.646-.138.894-.096.26-.236.476-.418.642-.18.164-.4.286-.653.36-.15.044-.312.077-.485.097v.87zm13.167 7.148h-2.55V8.136h2.55v14.956zm-1.94-.613h1.326V8.75h-1.326v13.73zm8.993.39H21.72v-2.026h1.697c.353 0 .592-.086.732-.264.154-.198.233-.526.233-.976v-2.226c0-.288.046-.555.14-.795.09-.236.217-.45.378-.637.153-.176.333-.326.535-.445-.2-.117-.375-.264-.525-.435-.16-.184-.29-.4-.384-.642-.095-.244-.143-.514-.143-.802v-2.225c0-.446-.08-.773-.235-.973-.14-.18-.378-.267-.73-.267H21.72V8.137h2.726c.76 0 1.37.22 1.815.653.447.436.674 1.063.674 1.865v2.426c0 .275.034.504.1.683.06.167.146.302.255.4.11.103.246.177.41.225.185.054.398.086.633.095l.295.01v2.04l-.3.005c-.23.005-.44.033-.622.085-.166.046-.3.12-.415.22-.11.1-.195.232-.257.4-.066.18-.1.41-.1.682v2.426c0 .375-.055.72-.165 1.026-.113.314-.283.587-.504.808-.22.22-.488.39-.794.51-.303.116-.647.175-1.023.175zm-2.112-.613h2.113c.3 0 .57-.045.803-.135.226-.087.422-.212.58-.37.158-.158.28-.354.362-.583.086-.24.13-.515.13-.818v-2.426c0-.346.046-.646.137-.894.095-.26.237-.477.422-.644.182-.164.404-.284.658-.355.147-.042.307-.07.476-.09v-.87c-.174-.02-.337-.053-.487-.097-.254-.074-.474-.196-.654-.36-.18-.166-.322-.382-.417-.642-.092-.247-.138-.547-.138-.894v-2.426c0-.63-.164-1.11-.488-1.426-.33-.322-.785-.48-1.387-.48h-2.113v.793h1.084c.546 0 .954.17 1.214.504.245.315.364.756.364 1.35v2.226c0 .212.034.408.1.58.07.176.16.33.275.46.116.133.253.244.41.332.158.09.328.155.504.193l.242.052v.49l-.237.086c-.183.042-.358.11-.52.2-.155.09-.292.2-.406.334-.115.133-.206.287-.272.458-.065.17-.098.362-.098.574v2.225c0 .6-.12 1.042-.365 1.354-.26.33-.67.497-1.215.497H22.33v.8z"/></svg>