<svg xmlns="http://www.w3.org/2000/svg" viewBox="0 0 32 32"><path d="M17.8 6.11c0-.06 0-.12-.01-.18.19-.11.3-.27.3-.47V3.72c0-.65-1.14-.78-2.1-.78s-2.1.14-2.1.78v1.74c0 .21.12.36.3.47.01.06.01.12.01.18v1.12c-1.95.74-3.4 2.94-3.4 5.21v1.15c0 .04.01.07.02.11l.25.66v8.86l-.24.5c-.02.04-.03.09-.03.13 0 4.33 1.26 5.15 3.75 5.2.26 0 .55-.15.84-.3.21-.11.48-.24.61-.24.12 0 .38.14.57.24.29.16.57.3.82.3h.01c2.52-.05 3.8-.86 3.8-5.2 0-.05-.01-.1-.03-.14l-.25-.5.02-8.86.25-.67c.01-.03.02-.07.02-.11v-1.14c0-2.27-1.45-4.47-3.4-5.21l-.01-1.11zM16 3.55c.96 0 1.38.15 1.49.23V5.4c-.11.08-.53.23-1.49.23s-1.38-.15-1.48-.23V3.77c.11-.07.52-.22 1.48-.22zm1.39 25.21v-.31c-.1 0-.35-.13-.53-.23-.29-.15-.59-.31-.86-.31-.28 0-.59.16-.89.31-.2.1-.45.23-.57.23-1.94-.04-3.12-.37-3.14-4.52l.24-.5c.02-.04.03-.09.03-.13v-8.99c0-.04-.01-.07-.02-.11l-.25-.66v-1.1c0-2.1 1.37-4.12 3.19-4.7.13-.04.22-.19.21-.33V6.14c.37.07.79.1 1.19.1.4 0 .82-.02 1.19-.1v1.3c0 .13.09.25.21.29 1.82.58 3.19 2.6 3.19 4.7v1.09l-.25.67c-.01.03-.02.07-.02.11l-.01 9c0 .05.01.1.03.14l.25.5c-.01 4.16-1.22 4.48-3.2 4.51l.01.31zm-2.4-24.57c.23.03.48.04.72.05h.26c.38 0 .74-.02 1.04-.07.08-.01.14-.09.13-.17-.01-.08-.09-.14-.17-.13-.36.05-.79.08-1.25.06-.24-.01-.48-.02-.7-.05-.08-.01-.16.05-.17.13 0 .1.06.18.14.18zm-.18 10.6c.37.01.78.02 1.2.02 1.59 0 2.85-.1 3.46-.16.13-.01.22-.12.21-.25-.01-.13-.12-.22-.25-.21-.6.06-1.85.16-3.41.16-.42 0-.81-.01-1.18-.02-.13.01-.23.1-.24.22-.02.13.08.24.21.24zm-2.29-.14c.2.02.5.05.88.07h.02c.12 0 .22-.09.23-.21.01-.13-.09-.24-.21-.24-.37-.03-.67-.05-.86-.07-.13-.01-.24.08-.25.21-.03.12.06.23.19.24zm7.15 8.55c-.01-.13-.12-.22-.25-.21-.48.05-1.78.16-3.41.16-.42 0-.81-.01-1.18-.02-.13 0-.23.1-.24.22 0 .13.1.23.22.24.37.01.77.02 1.2.02 1.66 0 2.97-.11 3.46-.16.12-.01.21-.13.2-.25zm-6.25-.14c-.37-.02-.67-.05-.86-.07-.13-.01-.24.08-.25.21s.08.24.21.25c.2.02.5.05.88.07h.02c.12 0 .22-.09.23-.21 0-.13-.1-.24-.23-.25z"/></svg>