<svg xmlns="http://www.w3.org/2000/svg" viewBox="0 0 32 32"><path d="M15.07 3.52c0 .09.44.16.98.16s.98-.07.98-.16-.44-.16-.98-.16-.98.07-.98.16zm2.89 6.12l-.34-4.01c0-.05 0-.11-.01-.16.17-.1.27-.24.27-.43V3.31c0-.58-1.02-.7-1.88-.7s-1.88.12-1.88.7v1.73c0 .18.1.32.27.43-.01.05-.01.11-.01.16l-.34 4.01c-2.22 1.35-2.68 3.67-2.71 6.27-.01.04.16 12.07.16 12.07 0 .25.21.47.56.67l.38.18c.61.25 1.47.42 2.39.51.44.04.72.07 1.17.07.45 0 .74-.02 1.18-.07.22-.02.43-.05.64-.08.41-.06.8-.14 1.15-.24.21-.06.41-.12.59-.2l.38-.18c.35-.19.56-.42.56-.67l.02-2.8c.01-.33.17-8.1.17-8.13v-1.03c-.01-2.94-.73-5.24-2.72-6.37zm-3.29-6.28c.1-.07.47-.2 1.33-.2.86 0 1.24.14 1.33.2v1.63c-.1.07-.47.2-1.33.2s-1.24-.14-1.33-.2V3.36zm4.37 25c-.73.23-1.68.43-3.06.43-1.38 0-2.33-.2-3.07-.43-.21-.07-.39-.14-.54-.2-.24-.11-.29-.21-.31-.29l-.18-11.97c.01-.35 0 .37 0 0-.02-2.31.5-4.65 2.52-5.81.11-.06.19-.17.19-.29l.34-4.15c.33.07.71.09 1.07.09.36 0 .74-.02 1.07-.09l.34 4.18c0 .12.08.21.19.26 1.75.87 2.53 2.91 2.53 5.91l-.23 11.87c-.03.13-.29.31-.86.49z"/></svg>