<svg xmlns="http://www.w3.org/2000/svg" viewBox="0 0 36 36"><title>Icons-Red_Hat-Signage-Emergency_AED-A-Black-RGB</title><path d="M29.4 7.71A8.45 8.45 0 0 0 18 7.22 8.44 8.44 0 0 0 6.6 19.64l10.87 10.87a.75.75 0 0 0 1.06 0L29.4 19.64a8.44 8.44 0 0 0 0-11.93zm-1.06 10.87L18 28.92 7.66 18.58a6.94 6.94 0 1 1 9.81-9.81.75.75 0 0 0 1.06 0 6.94 6.94 0 0 1 9.81 9.81z"/><path d="M21.68 16.13h-2.4v-4.51a.76.76 0 0 0-.56-.73.74.74 0 0 0-.84.35l-4.21 7.37a.75.75 0 0 0 .65 1.12h2.4v4.51a.74.74 0 0 0 .56.72.63.63 0 0 0 .19 0 .73.73 0 0 0 .65-.38l4.21-7.36a.75.75 0 0 0-.65-1.12zm-3.46 5.28V19a.74.74 0 0 0-.75-.75h-1.86l2.17-3.79v2.44a.75.75 0 0 0 .75.75h1.86z"/></svg>