<svg xmlns="http://www.w3.org/2000/svg" width="32" height="32" viewBox="0 0 32 32"><path d="M27.548 8.295h-.36v-.562c0-.158-.127-.286-.285-.286H17.54c-.737 0-1.157.278-1.393.545-.235-.267-.655-.545-1.392-.545H5.392c-.158 0-.286.128-.286.286v.562h-.36c-.487 0-.883.504-.883 1.123v13.487c0 .62.504 1.124 1.124 1.124h9.51c.21.16.784.522 1.655.522.87 0 1.44-.363 1.65-.523h9.553c.62 0 1.124-.505 1.124-1.125V9.418c0-.62-.418-1.123-.93-1.123zm-11.183.432c.005-.005.008-.01.012-.017.013-.018.022-.038.03-.058.005-.01.013-.02.017-.03.006-.025.185-.602 1.116-.602h9.078v8.21c-.09.202-.228.392-.418.566-.01.006-.02.008-.026.015l-.156.135c-1.083.81-3.08 1.002-3.995.777-.064-.016-.13-.003-.183.037-.012.008-.018.02-.028.032h-3.065c-.926 0-1.263.222-1.298.247-.06.04-.073.12-.032.18.025.038.066.057.11.057.025 0 .05-.007.073-.023.004-.002.306-.2 1.147-.2h3c-.003.078-.01.183-.023.312l-.04.35c-.02.143-.047.303-.08.47h-2.857c-.926 0-1.263.222-1.298.247-.06.042-.072.122-.032.182.026.037.066.056.11.056.025 0 .05-.006.073-.022.004-.002.306-.2 1.147-.2h2.803c-.06.27-.14.556-.245.84l-.118.292h-2.44c-.927 0-1.264.222-1.3.247-.057.042-.07.122-.03.182.025.036.066.055.11.055.025 0 .05-.008.073-.023.003-.002.305-.2 1.146-.2h2.318c-.16.32-.358.622-.603.876l-.14.122c-.016.014-.026.03-.036.046-.247.212-.536.375-.873.473h-1.87c-.557 0-.93.163-1.174.345V8.727zm9.92 8.55l.026-.02c.117-.087.215-.183.306-.28v5.38h-6.26c.14-.098.278-.205.4-.332l5.528-4.75zm-4.696 3.47c.367-.84.54-1.787.583-2.563.695.105 1.72.046 2.66-.223L21.59 20.75zm-15.913.03V8.02h9.078c.926 0 1.107.572 1.116.602.005.013.013.023.02.036.006.015.012.03.02.044.007.01.012.02.02.028v13.974c-.246-.183-.62-.346-1.174-.346H5.678v-1.58zm22.23 2.13c0 .304-.25.553-.554.553h-9.641c-.073-.002-.147.023-.205.075-.02.02-.5.448-1.355.448-.724 0-1.18-.306-1.318-.412-.052-.065-.13-.11-.22-.11H4.986c-.305 0-.553-.25-.553-.554V9.42c0-.317.166-.554.314-.554h.36v13.778c0 .158.127.286.285.286h9.364c.418 0 .736.11.945.33.057.07.186.17.446.17s.393-.108.448-.17c.21-.22.527-.33.945-.33h9.365c.158 0 .286-.128.286-.286V8.866h.36c.17 0 .36.227.36.553v13.486zm-10.382-7.42c.026 0 .05-.007.074-.023.002-.002.304-.2 1.145-.2h6.546c.074 0 .133-.057.133-.13 0-.073-.058-.133-.132-.133h-6.545c-.926 0-1.263.223-1.298.248-.058.042-.072.122-.03.182.024.037.065.056.108.056zm0 1.394c.026 0 .05-.007.074-.022.002-.002.304-.2 1.145-.2h6.546c.074 0 .133-.058.133-.13 0-.074-.058-.133-.132-.133h-6.545c-.926 0-1.263.222-1.298.247-.058.042-.072.122-.03.182.024.037.065.056.108.056zm0-6.97c.026 0 .05-.006.074-.022.002-.002.304-.2 1.145-.2h6.546c.074 0 .133-.058.133-.13s-.058-.133-.132-.133h-6.545c-.926 0-1.263.222-1.298.247-.058.042-.072.122-.03.182.024.037.065.056.108.056zM14.74 20.827c-.035-.026-.372-.248-1.298-.248H6.895c-.072 0-.132.06-.132.132 0 .073.06.132.132.132h6.547c.834 0 1.138.194 1.146.2.023.015.05.022.075.022.04 0 .082-.02.107-.055.043-.06.03-.142-.03-.184zm2.785-9.52c.026 0 .05-.01.074-.024.002-.002.304-.2 1.145-.2h6.546c.074 0 .133-.058.133-.13s-.058-.133-.132-.133h-6.545c-.926 0-1.263.22-1.298.246-.058.042-.072.122-.03.182.024.037.065.056.108.056zm0 1.393c.026 0 .05-.008.074-.024.002-.002.304-.2 1.145-.2h6.546c.074 0 .133-.058.133-.13s-.058-.133-.132-.133h-6.545c-.926 0-1.263.222-1.298.247-.058.042-.072.122-.03.182.024.037.065.056.108.056zm0 1.393c.026 0 .052-.006.074-.023.002-.002.304-.2 1.145-.2h6.546c.074 0 .133-.057.133-.13 0-.072-.058-.132-.132-.132h-6.545c-.926 0-1.263.222-1.298.247-.058.042-.072.123-.03.182.024.037.065.056.108.056zm-4.083 2.303H6.895c-.073 0-.132.06-.132.132s.06.133.132.133h6.547c.833 0 1.136.196 1.145.202.023.016.05.025.077.025.04 0 .082-.02.107-.055.044-.06.03-.142-.03-.185-.034-.025-.37-.25-1.298-.25zm-6.547 1.658h6.547c.833 0 1.136.195 1.145.2.023.016.05.024.076.024.04 0 .082-.02.107-.054.042-.06.03-.142-.03-.185-.035-.027-.372-.25-1.3-.25H6.895c-.073 0-.132.058-.132.13s.06.133.132.133zm0-8.362h6.547c.832 0 1.134.2 1.143.206.024.017.05.026.078.026.04 0 .082-.02.108-.054.045-.06.033-.143-.027-.187-.035-.026-.373-.258-1.302-.258H6.895c-.074 0-.134.06-.134.134s.06.133.134.133zm0 5.575h6.547c.832 0 1.136.197 1.144.202.024.016.05.024.077.024.04 0 .082-.02.107-.054.044-.06.03-.142-.03-.186-.034-.026-.37-.253-1.3-.253H6.895c-.073 0-.133.06-.133.134 0 .073.06.133.134.133zm6.547 3.917H6.895c-.073 0-.132.06-.132.132 0 .073.058.132.132.132h6.547c.834 0 1.137.194 1.146.2.023.016.05.024.075.024.04 0 .082-.02.107-.055.042-.06.03-.14-.03-.184-.036-.026-.372-.25-1.3-.25zm0-5.578H6.895c-.074 0-.133.06-.133.133s.06.132.133.132h6.547c.832 0 1.135.197 1.144.203.023.017.05.025.077.025.04 0 .082-.02.107-.054.044-.06.03-.142-.028-.186-.035-.026-.373-.254-1.3-.254zm0-2.788H6.895c-.074 0-.134.06-.134.134 0 .074.06.134.135.134h6.547c.832 0 1.134.2 1.143.205.024.018.05.026.078.026.04 0 .082-.02.108-.054.045-.06.032-.143-.027-.187-.036-.026-.373-.256-1.3-.256zm-6.547 1.66h6.547c.832 0 1.135.2 1.143.205.024.017.05.025.078.025.04 0 .082-.02.108-.054.045-.06.032-.143-.028-.186-.035-.026-.372-.255-1.3-.255H6.895c-.074 0-.134.06-.134.134s.06.133.135.133z"/></svg>