<svg xmlns="http://www.w3.org/2000/svg" width="32" height="32" viewBox="0 0 32 32"><path d="M19.702 14.36c-.052-.048-.134-.045-.183.006-.05.052-.047.133.004.182.523.497.81 1.164.81 1.88 0 .736-.317 1.442-.87 1.937-.053.047-.057.128-.01.182.025.03.06.043.097.043.03 0 .062-.01.087-.033.608-.543.956-1.32.956-2.13 0-.786-.316-1.52-.89-2.066zm1.966-2.658c-.07-.07-.185-.067-.254.005-.07.07-.067.186.005.255 1.227 1.183 1.904 2.77 1.904 4.466 0 1.73-.733 3.394-2.01 4.568-.074.067-.08.18-.012.255.036.04.084.06.133.06.044 0 .088-.017.122-.048 1.353-1.243 2.128-3.004 2.128-4.834 0-1.796-.715-3.475-2.016-4.726zm-1.146 1.146c-.062-.06-.16-.057-.218.006-.06.062-.056.16.006.218.93.886 1.445 2.078 1.445 3.356 0 1.316-.566 2.575-1.552 3.455-.063.057-.07.154-.012.218.032.035.073.052.116.052.037 0 .074-.013.103-.04 1.05-.938 1.653-2.282 1.653-3.686 0-1.364-.548-2.635-1.54-3.58zm1.5-3.777c-.15-.15-.392-.15-.542 0l-4.29 4.29v-2.49c0-.107-.063-.204-.162-.246s-.213-.022-.29.053l-3.833 3.687H9.31c-.146 0-.267.12-.267.268v4.352c0 .148.12.268.268.268h1.987l-2.87 2.87c-.15.15-.15.392 0 .542.074.075.173.113.27.113s.198-.038.272-.113l3.41-3.41h.468l3.89 3.714c.05.05.117.074.184.074.035 0 .07-.007.106-.022.1-.042.163-.14.163-.246v-8.33l4.832-4.832c.15-.15.15-.392 0-.54zm-5.367 13.076L13.14 18.79c-.05-.047-.115-.073-.184-.073h-.04l3.738-3.737v7.167zm0-8.25l-4.822 4.82H9.58V14.9h3.432c.07 0 .136-.027.186-.075l3.456-3.325v2.394z"/></svg>