<svg xmlns="http://www.w3.org/2000/svg" width="32" height="32" viewBox="0 0 32 32"><path d="M26.782 13.523c-.003-.018-.004-.035-.01-.052-.006-.016-.016-.03-.026-.044-.008-.014-.015-.027-.026-.04-.014-.014-.03-.025-.047-.036-.01-.006-.016-.015-.026-.02l-3.62-1.823c-.036-.018-.076-.028-.117-.028H8.803c-.04 0-.08.01-.118.027l-3.62 1.822c-.01.005-.017.014-.027.02-.016.012-.033.023-.046.037-.012.013-.02.028-.03.043-.007.014-.017.026-.022.04-.007.02-.01.04-.012.06-.002.01-.006.02-.006.033v6.112c0 .145.117.262.262.262H26.53c.145 0 .262-.117.262-.262v-6.112c0-.014-.006-.026-.008-.04zm-.514 3.74h-2.312c-.355 0-.645-.29-.645-.645 0-.356.29-.645.646-.645h2.312v1.29zm-17.404-5.26h13.983l2.58 1.298H6.285l2.58-1.298zm-3.42 7.41v-5.59h20.824v1.888h-2.312c-.5 0-.906.408-.906.907 0 .5.406.906.906.906h2.312v1.888H5.444zm1.03-3.05c-.067.068-.106.16-.106.253 0 .094.04.19.105.254.068.068.16.108.256.108.093 0 .187-.04.252-.108.065-.065.105-.157.105-.254 0-.094-.04-.186-.105-.253-.133-.133-.376-.133-.51 0zm6.276-.104c-.2 0-.36.158-.36.357s.16.36.36.36c.2 0 .358-.16.358-.36s-.16-.358-.358-.358zm4.514 0c-.2 0-.358.158-.358.357s.16.36.358.36c.198 0 .36-.16.36-.36s-.16-.358-.36-.358zm-6.02 0c-.2 0-.36.158-.36.357s.16.36.36.36.36-.16.36-.36-.162-.358-.36-.358zm-1.506 0c-.2 0-.36.158-.36.357s.16.36.36.36c.198 0 .36-.16.36-.36s-.162-.358-.36-.358zm4.517 0c-.2 0-.36.158-.36.357s.162.36.36.36.358-.16.358-.36-.16-.358-.358-.358zm1.503 0c-.2 0-.358.158-.358.357s.16.36.358.36.36-.16.36-.36-.16-.358-.36-.358zm-7.523 0c-.2 0-.36.158-.36.357s.16.36.36.36c.196 0 .358-.16.358-.36s-.162-.358-.358-.358zm12.04 0c-.2 0-.36.158-.36.357s.162.36.36.36c.2 0 .358-.16.358-.36s-.16-.358-.358-.358zm-1.506 0c-.2 0-.36.158-.36.357s.16.36.36.36c.197 0 .357-.16.357-.36s-.16-.358-.358-.358zm2.755.103c-.065.068-.105.16-.105.253 0 .097.04.19.105.254.068.068.16.108.253.108.097 0 .188-.04.257-.105.065-.068.105-.16.105-.256 0-.094-.04-.186-.105-.253-.134-.133-.374-.133-.51 0zM6.473 14.905c-.066.065-.105.16-.105.254 0 .093.04.187.105.253.068.068.16.107.256.107.093 0 .184-.04.252-.107.065-.065.105-.16.105-.254 0-.095-.04-.19-.105-.255-.133-.134-.374-.134-.51 0zm3.265-.105c-.2 0-.36.16-.36.358 0 .2.16.36.36.36.198 0 .36-.16.36-.36 0-.2-.162-.358-.36-.358zm1.506 0c-.2 0-.36.16-.36.358 0 .2.16.36.36.36s.36-.16.36-.36c0-.2-.162-.358-.36-.358zm1.506 0c-.2 0-.36.16-.36.358 0 .2.16.36.36.36.2 0 .358-.16.358-.36 0-.2-.16-.358-.358-.358zm-4.515 0c-.2 0-.36.16-.36.358 0 .2.16.36.36.36.196 0 .358-.16.358-.36 0-.2-.162-.358-.358-.358zm9.03 0c-.2 0-.36.16-.36.358 0 .2.16.36.36.36.197 0 .36-.16.36-.36 0-.2-.162-.358-.36-.358zm3.01 0c-.2 0-.36.16-.36.358 0 .2.162.36.36.36.2 0 .358-.16.358-.36 0-.2-.16-.358-.358-.358zm-6.02 0c-.2 0-.36.16-.36.358 0 .2.162.36.36.36s.358-.16.358-.36c0-.2-.16-.358-.358-.358zm4.514 0c-.2 0-.36.16-.36.358 0 .2.16.36.36.36.197 0 .357-.16.357-.36 0-.2-.16-.358-.358-.358zm-3.012 0c-.2 0-.358.16-.358.358 0 .2.16.36.358.36s.36-.16.36-.36c0-.2-.16-.358-.36-.358zm5.767.105c-.065.068-.105.16-.105.254 0 .093.04.187.105.253.068.068.162.107.253.107.097 0 .188-.04.257-.107.065-.065.105-.16.105-.254 0-.095-.04-.19-.105-.255-.134-.134-.374-.136-.51 0zM6.473 17.822c-.066.068-.105.16-.105.256 0 .094.04.186.105.254.068.065.16.105.256.105.093 0 .184-.04.252-.105.065-.068.105-.16.105-.254 0-.097-.04-.188-.105-.256-.133-.133-.374-.133-.51 0zm1.762-.104c-.2 0-.36.162-.36.36s.16.36.36.36c.196 0 .358-.16.358-.36s-.162-.36-.358-.36zm9.03 0c-.2 0-.36.162-.36.36s.16.36.36.36c.197 0 .36-.16.36-.36s-.162-.36-.36-.36zm-1.507 0c-.2 0-.358.162-.358.36s.16.36.358.36.36-.16.36-.36-.16-.36-.36-.36zm3.01 0c-.198 0-.36.162-.36.36s.163.36.36.36c.2 0 .36-.16.36-.36s-.16-.36-.36-.36zm1.507 0c-.2 0-.36.162-.36.36s.162.36.36.36c.2 0 .358-.16.358-.36s-.16-.36-.358-.36zm-6.02 0c-.2 0-.36.162-.36.36s.162.36.36.36.358-.16.358-.36-.16-.36-.358-.36zm-3.01 0c-.2 0-.36.162-.36.36s.16.36.36.36.36-.16.36-.36-.163-.36-.36-.36zm1.505 0c-.2 0-.36.162-.36.36s.16.36.36.36c.2 0 .358-.16.358-.36s-.16-.36-.358-.36zm-3.012 0c-.2 0-.36.162-.36.36s.16.36.36.36c.198 0 .36-.16.36-.36s-.162-.36-.36-.36zm11.787.104c-.065.068-.105.16-.105.256 0 .094.04.186.105.254.068.065.162.105.253.105.097 0 .188-.04.257-.105.065-.068.105-.16.105-.254 0-.097-.04-.188-.105-.254-.134-.136-.374-.136-.51-.003z"/></svg>