<svg xmlns="http://www.w3.org/2000/svg" viewBox="0 0 32 32"><path d="M27.37 21.69l-4.27-4.68c.01-.02.04-.04.06-.04.25-.08.72-.21 1.03-.3l2.87-.79c.1-.03.4-.11.39-.35-.01-.24-.31-.3-.41-.32L24 14.62c-.3-.06-.7-.14-.94-.19l4.05-4.54c.26-.29.2-.5.14-.6s-.21-.26-.59-.18l-6.15 1.27c0-.02-.01-.05.01-.11.1-.29.26-.79.36-1.11l.78-2.66c.06-.2.05-.35-.02-.45-.05-.07-.13-.11-.21-.11-.11 0-.23.06-.36.2L19 8.23c-.23.23-.58.6-.78.82-.03.03-.05.04-.06.05l-1.93-5.83c-.12-.37-.33-.42-.45-.42-.11 0-.33.05-.45.42l-2.01 6.06c-.16-.16-.47-.49-.68-.73L10.6 6.35c-.13-.15-.25-.22-.36-.22-.08 0-.16.04-.21.1-.07.1-.08.24-.03.44l1.03 3.91-5.96-1.23c-.38-.08-.53.08-.59.18-.06.1-.12.31.14.6l4.15 4.66c-.21.05-.56.13-.84.2l-2.97.73c-.26.06-.4.18-.4.34 0 .16.13.28.4.34l2.96.73c.31.08.75.19.99.25l-4.15 4.66c-.26.29-.2.5-.14.6.05.08.16.2.4.2.06 0 .12-.01.19-.02l6.12-1.27c-.06.2-.17.54-.25.82l-.91 3.03c-.06.21-.06.35.02.45.05.07.13.1.21.1.11 0 .23-.07.36-.2l2.13-2.19c.23-.24.57-.59.76-.78.03-.03.05-.04.06-.04l1.98 5.97c.12.37.33.42.45.42s.33-.06.45-.42l2-6.05h.01l2.91 2.89c.14.14.25.2.36.2.08 0 .16-.04.21-.11.1-.13.05-.32.01-.45l-.94-2.89c-.1-.31-.24-.76-.31-.99v-.03l6.1 1.18c.07.01.13.02.18.02.25 0 .36-.12.41-.2.05-.09.11-.3-.16-.59zm-3.44-6.66l2.75.53-2.59.72c-.32.09-.79.22-1.04.3-.08.02-.14.06-.2.11.02-.23.03-.46.03-.69 0-.43-.04-.85-.12-1.26.05.04.12.07.19.09.21.05.65.13.98.2zm2.61-5.33l-3.93 4.41c-.35-1.24-1.05-2.34-1.98-3.19l5.91-1.22zm-8.24-.19c.08-.02.16-.07.24-.16.19-.21.53-.58.76-.81l1.91-1.93-.72 2.45c-.09.31-.25.81-.35 1.09-.04.12-.05.23-.03.33h-.02v.01c-.55-.41-1.16-.74-1.82-.97l.03-.01zm-2.51-5.83l1.87 5.65c-.53-.13-1.09-.2-1.66-.2-.74 0-1.46.12-2.13.34l1.92-5.79zm-5.31 3.15l1.87 2.06c.22.24.53.58.7.75.04.05.09.08.15.1-.61.28-1.18.64-1.68 1.08.01-.04.01-.09-.01-.14l-1.03-3.85zM5.19 9.94l5.93 1.23c-.9.91-1.55 2.07-1.83 3.37l-4.1-4.6zm4.02 4.98s0 .01 0 0c0 .01 0 0 0 0zm-1.2 1.82l-2.72-.67 2.74-.67c.32-.08.73-.18.91-.22.13-.03.23-.11.27-.23-.05.35-.08.7-.08 1.06 0 .38.03.75.09 1.12-.06-.06-.13-.1-.22-.13-.22-.07-.67-.18-.99-.26zm-2.68 5.5l4.02-4.51c.33 1.27 1.02 2.4 1.95 3.28-.01-.01-5.97 1.23-5.97 1.23zm8.03.25c-.19.19-.53.55-.76.78l-1.96 2.01.84-2.8c.09-.31.22-.72.27-.9.02-.07.02-.13.01-.19.52.41 1.1.75 1.73.99-.04.04-.09.07-.13.11zm2.78 5.83l-1.87-5.67c.55.14 1.13.22 1.73.22.71 0 1.4-.11 2.05-.31l-1.91 5.76zm5.48-3.24l-2.72-2.7c-.04-.04-.08-.07-.12-.09.6-.26 1.15-.61 1.65-1.03-.01.06 0 .12.02.19.07.24.21.69.31 1 0-.01.86 2.63.86 2.63zM16 22.46c-3.56 0-6.46-2.9-6.46-6.46s2.9-6.46 6.46-6.46 6.46 2.9 6.46 6.46-2.9 6.46-6.46 6.46zm4.95-1.7c.87-.91 1.5-2.06 1.77-3.33l4.08 4.47-5.85-1.14z"/></svg>