<svg data-name="Layer 1" xmlns="http://www.w3.org/2000/svg" viewBox="0 0 36 36"><title>Icon-Red_Hat-Directional-A-Black-RGB</title><path d="M29.74 17.95v-.1a.9.9 0 0 0-.03-.086c-.01-.025-.016-.05-.027-.075a.72.72 0 0 0-.148-.223l-3.5-3.5-3.5-3.5a.75.75 0 1 0-1.06 1.06l2.86 2.86 2.86 2.86H7a.75.75 0 0 0 0 1.5h20.19l-2.22 2.223-3.5 3.5a.75.75 0 1 0 1.06 1.06l3.5-3.5 3.5-3.5c.007-.007.01-.016.016-.023a.738.738 0 0 0 .147-.22l.005-.02a.76.76 0 0 0 .045-.236.23.23 0 0 0 .007-.03c0-.017-.008-.032-.01-.05z"/></svg>