<svg xmlns="http://www.w3.org/2000/svg" width="32" height="32" viewBox="0 0 32 32"><path d="M23.086 4.05H8.704c-.81 0-1.47.66-1.47 1.472v20.884c0 .81.66 1.47 1.47 1.47h14.383c.81 0 1.472-.66 1.472-1.47V5.522c0-.812-.66-1.472-1.473-1.472zm.86 22.355c0 .473-.386.858-.86.858H8.705c-.474 0-.858-.385-.858-.858V5.52c0-.473.385-.858.858-.858h14.383c.474 0 .858.385.858.86v20.883zM22.16 6.795h-2.266V5.738c0-.314-.255-.57-.568-.57h-6.865c-.314 0-.568.256-.568.57v1.054H9.63c-.49 0-.89.37-.89.828v17.833c0 .457.4.828.89.828H22.16c.49 0 .888-.37.888-.828V7.622c0-.457-.4-.828-.888-.828zm-9.807 0V5.738c0-.06.05-.11.11-.11h6.864c.058 0 .107.05.107.11V7.46c0 .06-.048.108-.108.108h-6.866c-.06 0-.11-.048-.11-.108v-.67zm10.235 18.66c0 .203-.193.368-.428.368H9.63c-.237 0-.43-.165-.43-.368V7.622c0-.203.193-.368.43-.368h2.265v.21c0 .312.255.567.568.567h6.865c.313 0 .568-.254.568-.567v-.21h2.266c.236 0 .428.166.428.37v17.832zm-.75-14.325c0 .127-.103.23-.23.23h-6.292c-.127 0-.23-.103-.23-.23s.103-.23.23-.23h6.292c.127 0 .23.102.23.23zm0 1.543c0 .127-.103.23-.23.23h-6.292c-.127 0-.23-.103-.23-.23s.103-.23.23-.23h6.292c.127 0 .23.103.23.23zm0 3.612c0 .127-.103.23-.23.23h-6.292c-.127 0-.23-.103-.23-.23s.103-.23.23-.23h6.292c.127 0 .23.103.23.23zm0 1.542c0 .127-.103.23-.23.23h-6.292c-.127 0-.23-.103-.23-.23s.103-.23.23-.23h6.292c.127 0 .23.103.23.23zm0 3.712c0 .126-.103.23-.23.23h-6.292c-.127 0-.23-.104-.23-.23s.103-.23.23-.23h6.292c.127 0 .23.1.23.23zm0 1.54c0 .128-.103.23-.23.23h-6.292c-.127 0-.23-.102-.23-.23s.103-.23.23-.23h6.292c.127 0 .23.104.23.23zm-11.413-9.565h3.085c.127 0 .23-.103.23-.23V10.2c0-.015-.006-.03-.01-.043l.423-.71c.087-.145.04-.333-.106-.42-.147-.086-.335-.037-.42.108l-.5.837h-2.703c-.126 0-.23.103-.23.23v3.085c0 .127.103.23.23.23zm.23-3.085h2.2l-.872 1.467-.285-.535c-.08-.15-.266-.206-.415-.126-.15.08-.206.265-.126.415l.54 1.015.016.022c.006.01.012.018.02.026.02.026.044.05.074.068 0 .002.002.003.003.004.01.006.022.01.033.014.04.018.08.03.124.03.026 0 .05-.003.076-.01.01-.002.018-.007.027-.01.014-.005.03-.01.042-.016h.002c.033-.02.06-.043.082-.07l.016-.02c.006-.008.013-.014.018-.023l1.05-1.764v2.14h-2.627V10.43zm2.856 10.124h-3.085c-.126 0-.23.103-.23.23v3.085c0 .126.103.23.23.23h3.085c.127 0 .23-.104.23-.23v-3.086c0-.127-.103-.23-.23-.23zm-1.11 1.772l.88-.88v1.76l-.88-.88zm.446-1.312l-.88.88-.88-.88h1.76zm-2.192.432l.88.88-.88.88v-1.76zm.433 2.193l.88-.88.88.88h-1.76zm2.954-9.462c-.148-.084-.334-.032-.418.115l-.565.99h-2.633c-.126 0-.23.104-.23.23V18.6c0 .127.103.23.23.23h3.085c.127 0 .23-.103.23-.23v-3.085c0-.045-.016-.084-.038-.12l.454-.798c.085-.146.033-.334-.114-.418zm-.76 4.19h-2.626v-2.625H12.8l-.81 1.42-.285-.583c-.074-.15-.257-.214-.41-.14-.152.074-.214.258-.14.41l.54 1.1c.007.014.016.023.024.035l.016.025c.022.027.05.05.08.07.002 0 .003.002.004.003.015.01.032.014.048.02.008.002.015.006.023.01.028.006.055.01.082.01.043 0 .084-.01.124-.03.004 0 .008 0 .012-.002.002 0 .004-.002.006-.004.032-.017.06-.04.083-.064l.016-.02c.01-.01.02-.02.026-.034l1.045-1.835v2.234z"/></svg>