<svg xmlns="http://www.w3.org/2000/svg" viewBox="0 0 31.68 31.68"><path d="M14.93 21.56h-4.72c-.13 0-.23.1-.23.23s.1.23.23.23h4.72c.13 0 .23-.1.23-.23s-.11-.23-.23-.23zm0 1.53h-4.72c-.13 0-.23.1-.23.23s.1.23.23.23h4.72c.13 0 .23-.1.23-.23s-.11-.23-.23-.23zm0-3.05h-4.72c-.13 0-.23.1-.23.23s.1.23.23.23h4.72c.13 0 .23-.1.23-.23s-.11-.23-.23-.23zm6.56 1.52h-4.72c-.13 0-.23.1-.23.23s.1.23.23.23h4.73c.13 0 .23-.1.23-.23s-.1-.23-.23-.23h-.01zm1.97-12.37l-3.61-3.72c-.06-.06-.14-.09-.22-.09H8.43c-.17 0-.3.14-.3.3V26c0 .17.14.3.3.3h14.81c.17 0 .3-.14.3-.3V9.4c.01-.08-.02-.15-.08-.21zm-3.52-2.76l2.74 2.84h-2.74V6.43zm3 19.26H8.74V5.98h10.59v3.58c0 .17.14.3.3.3h3.31v15.83zm-6.4-5.42c0 .13.1.23.23.23h4.74c.13 0 .23-.1.23-.23s-.1-.23-.23-.23h-4.73c-.13 0-.24.11-.24.23zm4.96 2.81h-4.73c-.13 0-.23.1-.23.23s.1.23.23.23h4.73c.13 0 .23-.1.23-.23s-.1-.23-.23-.23zM15.84 9.53c-2.27 0-4.11 1.84-4.11 4.11s1.84 4.11 4.11 4.11c2.27 0 4.11-1.84 4.11-4.11 0-2.26-1.84-4.1-4.11-4.11zm.3 7.6v-3.18h3.18c-.15 1.69-1.49 3.03-3.18 3.18zm-.3-3.79c-.17 0-.3.14-.3.3v3.48c-1.93-.17-3.35-1.86-3.18-3.79.17-1.93 1.86-3.35 3.79-3.18 1.69.15 3.04 1.49 3.18 3.18h-3.49z"/></svg>