<svg xmlns="http://www.w3.org/2000/svg" width="32" height="32" viewBox="0 0 32 32"><path d="M11.352 10.12v.006c0 .233.19.422.422.422.233 0 .422-.19.422-.422v-.005-.004c0-.233-.19-.422-.422-.422-.233 0-.422.19-.422.422v.005zm1.495 5.117c0 .233.19.422.422.422s.42-.19.42-.423c0-.233-.188-.422-.42-.422-.234 0-.423.19-.423.422zm-1.495 0v.005c0 .233.19.422.422.422.233 0 .422-.19.422-.422v-.005-.005c0-.233-.19-.422-.422-.422-.233 0-.422.19-.422.422v.005zm0-1.527v.005c0 .233.19.422.422.422.233 0 .422-.19.422-.422v-.005-.005c0-.233-.19-.422-.422-.422-.233 0-.422.19-.422.422v.005zm1.495 0c0 .233.19.422.422.422s.42-.19.42-.422c0-.233-.188-.422-.42-.422-.234 0-.423.19-.423.422zm7.555-5.116v.01c0 .234.19.423.422.423.233 0 .422-.19.422-.422v-.012-.01c0-.234-.19-.423-.422-.423-.233 0-.422.19-.422.422v.012zM8.312 13.71v.005c0 .233.19.422.422.422.233 0 .422-.19.422-.422v-.005-.005c0-.233-.19-.422-.422-.422-.233 0-.422.19-.422.422v.005zm1.495 0v.005c0 .233.19.422.422.422.232 0 .42-.19.42-.422v-.005-.005c0-.233-.188-.422-.42-.422-.234 0-.423.19-.423.422v.005zm-1.495 1.527v.005c0 .233.19.422.422.422.233 0 .422-.19.422-.422v-.005-.005c0-.233-.19-.422-.422-.422-.233 0-.422.19-.422.422v.005zm1.495 0v.005c0 .233.19.422.422.422.232 0 .42-.19.42-.422v-.005-.005c0-.233-.188-.422-.42-.422-.234 0-.423.19-.423.422v.005zm4.57 0c0 .233.19.422.423.422.233 0 .422-.19.422-.423 0-.233-.19-.422-.422-.422-.233 0-.422.19-.422.422zm3.04-1.527c0 .233.19.422.423.422s.422-.19.422-.422c0-.233-.19-.422-.422-.422-.233 0-.422.19-.422.422zm1.496 1.527v.013c0 .233.19.422.422.422.233 0 .422-.19.422-.422v-.013-.012c0-.233-.19-.422-.422-.422-.233 0-.422.19-.422.422v.013zm0-1.527v.013c0 .233.19.422.422.422.233 0 .422-.19.422-.422v-.013-.012c0-.233-.19-.422-.422-.422-.233 0-.422.19-.422.422v.013zm-4.535 0c0 .233.19.422.422.422.233 0 .422-.19.422-.422 0-.233-.19-.422-.422-.422-.233 0-.422.19-.422.422zm6.024 1.527v.01c0 .234.19.423.422.423.233 0 .422-.19.422-.422v-.012-.01c0-.234-.19-.423-.422-.423-.233 0-.422.19-.422.422v.012zm-2.984 0c0 .233.19.422.422.422s.422-.19.422-.423c0-.233-.19-.422-.422-.422-.233 0-.422.19-.422.422zm-1.544 0v.013c0 .233.19.422.422.422.233 0 .422-.19.422-.422v-.013-.012c0-.233-.19-.422-.422-.422-.233 0-.422.19-.422.422v.013zm0-1.527v.013c0 .233.19.422.422.422.233 0 .422-.19.422-.422v-.013-.012c0-.233-.19-.422-.422-.422-.233 0-.422.19-.422.422v.013zm-1.496-5.116c0 .233.19.422.422.422.233 0 .422-.19.422-.422 0-.233-.19-.422-.422-.422-.233 0-.422.19-.422.422zm6.024 15.33v.012c0 .233.19.422.422.422.233 0 .422-.19.422-.422v-.012-.01c0-.234-.19-.423-.422-.423-.233 0-.422.19-.422.423v.012zm-9.05-15.33V8.6c0 .232.19.42.422.42.233 0 .422-.188.422-.42v-.006-.005c0-.234-.19-.423-.422-.423-.233 0-.422.19-.422.422v.004zM9.807 10.12v.006c0 .233.19.422.422.422.232 0 .42-.19.42-.422v-.005-.004c0-.233-.188-.422-.42-.422-.234 0-.423.19-.423.422v.005zm3.04 0c0 .234.19.423.422.423s.42-.19.42-.422c0-.232-.188-.42-.42-.42-.234 0-.423.188-.423.42zM24.8 6.78c.037-.138-.022-.287-.156-.353l-2.818-1.38c-.042-.02-.088-.03-.134-.03h-11.57c-.042 0-.083.007-.12.023L6.756 6.42c-.142.06-.21.214-.17.36-.008.026-.017.05-.017.08v10.15c0 .007.004.013.004.02 0 .007-.004.013-.004.02V27.2c0 .17.137.307.306.307H24.51c.17 0 .305-.137.305-.306V17.05c0-.008-.004-.014-.004-.02.002-.008.005-.014.005-.02V6.857c0-.028-.01-.054-.016-.08zM10.183 5.63H21.62l1.89.924H8.01l2.173-.924zm14.02 19.492h-1.536c-.25 0-.457-.205-.457-.457s.205-.457.457-.457h1.536v.913zm0-1.22h-1.536c-.42 0-.763.342-.763.763s.342.763.763.763h1.536v1.468H7.183v-4.462h17.02v1.468zm0-3.743h-1.536c-.25 0-.457-.206-.457-.458s.205-.457.457-.457h1.536v.913zm0-1.22h-1.536c-.42 0-.763.34-.763.762s.342.763.763.763h1.536v1.356H7.183V17.36h17.02v1.58zm0-4.01h-1.536c-.25 0-.457-.205-.457-.457s.205-.457.457-.457h1.536v.913zm0-1.22h-1.536c-.42 0-.763.342-.763.763s.342.763.763.763h1.536v1.468H7.183V12.24h17.02v1.47zm0-3.743h-1.536c-.25 0-.457-.205-.457-.457s.205-.457.457-.457h1.536v.913zm0-1.22h-1.536c-.42 0-.763.342-.763.763s.342.763.763.763h1.536v1.356H7.183V7.165h17.02v1.58zm-15.89-.153V8.6c0 .232.188.42.42.42.234 0 .423-.188.423-.42v-.006-.005c0-.234-.19-.423-.422-.423-.233 0-.422.19-.422.422v.004zm4.534 0c0 .233.19.422.422.422s.42-.19.42-.422c0-.233-.188-.422-.42-.422-.234 0-.423.19-.423.422zM8.312 10.12v.006c0 .233.19.422.422.422.233 0 .422-.19.422-.422v-.005-.004c0-.233-.19-.422-.422-.422-.233 0-.422.19-.422.422v.005zm7.562-1.526v.013c0 .233.19.422.422.422.233 0 .422-.19.422-.423v-.013-.012c0-.233-.19-.422-.422-.422-.233 0-.422.19-.422.422v.013zm1.544 0c0 .233.19.422.422.422s.422-.19.422-.422c0-.233-.19-.422-.422-.422-.233 0-.422.19-.422.422zm0 1.527c0 .234.19.423.422.423s.422-.19.422-.422c0-.232-.19-.42-.422-.42-.233 0-.422.188-.422.42zm1.495 0v.014c0 .233.19.422.422.422.233 0 .422-.19.422-.422v-.013-.01c0-.234-.19-.423-.422-.423-.233 0-.422.19-.422.422v.012zm0-1.526v.013c0 .233.19.422.422.422.233 0 .422-.19.422-.423v-.013-.012c0-.233-.19-.422-.422-.422-.233 0-.422.19-.422.422v.013zm-4.535 1.527c0 .234.19.423.422.423.233 0 .422-.19.422-.422 0-.232-.19-.42-.422-.42-.233 0-.422.188-.422.42zm6.024 3.59v.01c0 .234.19.423.422.423.233 0 .422-.19.422-.422v-.01-.012c0-.233-.19-.422-.422-.422-.233 0-.422.19-.422.422v.012zm-4.528-3.59v.014c0 .233.19.422.422.422.233 0 .422-.19.422-.422v-.013-.01c0-.234-.19-.423-.422-.423-.233 0-.422.19-.422.422v.012zm4.528 0v.012c0 .233.19.422.422.422.233 0 .422-.19.422-.422v-.012-.01c0-.234-.19-.423-.422-.423-.233 0-.422.19-.422.422v.01zM9.807 8.595V8.6c0 .232.19.42.422.42.232 0 .42-.188.42-.42v-.006-.005c0-.234-.188-.423-.42-.423-.234 0-.423.19-.423.422v.004zm4.57 16.858c0 .233.19.422.423.422.233 0 .422-.19.422-.422 0-.233-.19-.422-.422-.422-.233 0-.422.19-.422.422zm-3.025 0v.005c0 .233.19.422.422.422.233 0 .422-.19.422-.423v-.005-.005c0-.233-.19-.422-.422-.422-.233 0-.422.19-.422.422v.005zm-3.04 0v.005c0 .233.19.422.422.422.233 0 .422-.19.422-.423v-.005-.005c0-.233-.19-.422-.422-.422-.233 0-.422.19-.422.422v.005zm4.535-1.527c0 .233.19.422.422.422s.42-.19.42-.422c0-.233-.188-.422-.42-.422-.234 0-.423.19-.423.422zm-1.495 0v.005c0 .233.19.422.422.422.233 0 .422-.19.422-.422v-.005-.005c0-.233-.19-.422-.422-.422-.233 0-.422.19-.422.422v.005zm-3.04 0v.005c0 .233.19.422.422.422.233 0 .422-.19.422-.422v-.005-.005c0-.233-.19-.422-.422-.422-.233 0-.422.19-.422.422v.005zm1.495 0v.005c0 .233.19.422.422.422.232 0 .42-.19.42-.422v-.005-.005c0-.233-.188-.422-.42-.422-.234 0-.423.19-.423.422v.005zm0 1.527v.005c0 .233.19.422.422.422.232 0 .42-.19.42-.423v-.005-.005c0-.233-.188-.422-.42-.422-.234 0-.423.19-.423.422v.005zm3.04 0c0 .233.19.422.422.422s.42-.19.42-.422c0-.233-.188-.422-.42-.422-.234 0-.423.19-.423.422zm6.066 0v.013c0 .233.19.422.422.422.233 0 .422-.19.422-.422v-.013-.012c0-.233-.19-.422-.422-.422-.233 0-.422.19-.422.422v.013zm0-1.527v.013c0 .233.19.422.422.422.233 0 .422-.19.422-.422v-.013-.012c0-.233-.19-.422-.422-.422-.233 0-.422.19-.422.423v.013zm1.49 1.527v.01c0 .234.188.423.42.423.234 0 .423-.19.423-.422v-.012-.01c0-.233-.19-.422-.422-.422-.233 0-.422.19-.422.422v.012zm-2.985-1.527c0 .233.19.422.422.422s.422-.19.422-.422c0-.233-.19-.422-.422-.422-.233 0-.422.19-.422.422zm0 1.527c0 .233.19.422.422.422s.422-.19.422-.422c0-.233-.19-.422-.422-.422-.233 0-.422.19-.422.422zm-1.544 0v.013c0 .233.19.422.422.422.233 0 .422-.19.422-.422v-.013-.012c0-.233-.19-.422-.422-.422-.233 0-.422.19-.422.422v.013zm-1.496-1.527c0 .233.19.422.422.422.233 0 .422-.19.422-.422 0-.233-.19-.422-.422-.422-.233 0-.422.19-.422.422zm1.496 0v.013c0 .233.19.422.422.422.233 0 .422-.19.422-.422v-.013-.012c0-.233-.19-.422-.422-.422-.233 0-.422.19-.422.423v.013zm-3.027-5.1c0 .234.19.423.422.423s.42-.19.42-.422c0-.233-.188-.422-.42-.422-.234 0-.423.19-.423.422zm1.53 1.528c0 .233.19.422.423.422.233 0 .422-.19.422-.422 0-.233-.19-.422-.422-.422-.233 0-.422.19-.422.423zm-1.53 0c0 .233.19.422.422.422s.42-.19.42-.422c0-.233-.188-.422-.42-.422-.234 0-.423.19-.423.423zm-4.535 0v.005c0 .233.19.422.422.422.233 0 .422-.19.422-.422v-.005-.005c0-.233-.19-.422-.422-.422-.233 0-.422.19-.422.422v.005zm3.04 0v.005c0 .233.19.422.422.422.233 0 .422-.19.422-.422v-.005-.005c0-.233-.19-.422-.422-.422-.233 0-.422.19-.422.422v.005zm0-1.527v.005c0 .234.19.423.422.423.233 0 .422-.19.422-.422v-.004-.005c0-.232-.19-.42-.422-.42-.233 0-.422.188-.422.42v.006zm-3.04 0v.005c0 .234.19.423.422.423.233 0 .422-.19.422-.422v-.004-.005c0-.232-.19-.42-.422-.42-.233 0-.422.188-.422.42v.006zm1.495 1.527v.005c0 .233.19.422.422.422.232 0 .42-.19.42-.422v-.005-.005c0-.233-.188-.422-.42-.422-.234 0-.423.19-.423.422v.005zm0-1.527v.005c0 .234.19.423.422.423.232 0 .42-.19.42-.422v-.004-.005c0-.232-.188-.42-.42-.42-.234 0-.423.188-.423.42v.006zm7.61 1.527c0 .233.19.422.423.422s.422-.19.422-.422c0-.233-.19-.422-.422-.422-.233 0-.422.19-.422.423zm1.496 0v.013c0 .233.19.422.422.422.233 0 .422-.19.422-.422v-.013-.012c0-.232-.19-.42-.422-.42-.233 0-.422.188-.422.42v.014zm0-1.527v.013c0 .232.19.42.422.42.233 0 .422-.188.422-.42v-.014-.012c0-.233-.19-.422-.422-.422-.233 0-.422.19-.422.422v.013zm-1.495 0c0 .233.19.422.422.422s.422-.19.422-.422c0-.233-.19-.422-.422-.422-.233 0-.422.19-.422.422zm-3.04 0c0 .233.19.422.422.422.233 0 .422-.19.422-.422 0-.233-.19-.422-.422-.422-.233 0-.422.19-.422.422zm6.024 1.527v.01c0 .234.19.423.422.423.233 0 .422-.19.422-.422v-.012-.01c0-.234-.19-.423-.422-.423-.233 0-.422.188-.422.42v.013zm0-1.527v.01c0 .234.19.423.422.423.233 0 .422-.19.422-.423v-.012-.01c0-.234-.19-.423-.422-.423-.233 0-.422.19-.422.422v.012zm-4.528 1.527v.013c0 .233.19.422.422.422.233 0 .422-.19.422-.422v-.013-.012c0-.232-.19-.42-.422-.42-.233 0-.422.188-.422.42v.014zm0-1.527v.013c0 .232.19.42.422.42.233 0 .422-.188.422-.42v-.014-.012c0-.233-.19-.422-.422-.422-.233 0-.422.19-.422.422v.013z"/></svg>