<svg xmlns="http://www.w3.org/2000/svg" viewBox="0 0 36 36"><title>Icon-Red_Hat-Recycle-Trashcan-A-Black-RGB</title><path d="M10 12.77h.25V30a.76.76 0 0 0 .75.75h14a.76.76 0 0 0 .75-.75V12.77H26a.75.75 0 0 0 0-1.5H10a.75.75 0 0 0 0 1.5zm1.75 0h12.5v16.48h-12.5zM10 9.75h16a.75.75 0 0 0 0-1.5h-4.33a3.74 3.74 0 0 0-7.34 0H10a.75.75 0 0 0 0 1.5zm8-3a2.24 2.24 0 0 1 2.11 1.5h-4.22A2.24 2.24 0 0 1 18 6.75z"/><path d="M14 15.27a.75.75 0 0 0-.75.75v9a.75.75 0 0 0 1.5 0V16a.75.75 0 0 0-.75-.73zM18 15.27a.75.75 0 0 0-.75.75v9a.75.75 0 0 0 1.5 0V16a.75.75 0 0 0-.75-.73zM22 15.27a.75.75 0 0 0-.75.75v9a.75.75 0 0 0 1.5 0V16a.75.75 0 0 0-.75-.73z"/></svg>