<svg xmlns="http://www.w3.org/2000/svg" viewBox="0 0 32 32"><path d="M16 3.8c-4.37 0-7.94 3.54-7.94 7.91 0 1.82.3 3.16.75 4.21.68 1.57 1.7 2.46 2.5 3.34.4.44.74.88.99 1.41.24.53.4 1.14.4 1.96 0 .19.06.37.16.52-.2.17-.34.45-.34.75v.1c0 .17.04.33.11.47-.07.14-.11.31-.11.48v.1c0 .17.04.33.11.48-.07.14-.11.3-.11.46v.1c0 .25.09.48.24.66.03.03.06.06.1.08.33.16.56.35.78.54.5.42.97.82 2.37.82s1.88-.4 2.37-.82c.22-.18.44-.37.78-.54.04-.02.07-.04.1-.08.15-.18.24-.41.24-.66V26c0-.16-.04-.32-.11-.46.07-.14.11-.3.11-.48v-.1c0-.18-.04-.34-.11-.48.07-.14.11-.3.11-.47v-.1c0-.31-.13-.58-.34-.75.1-.15.16-.33.16-.52 0-1.09.27-1.82.67-2.46.3-.48.7-.9 1.12-1.35.64-.68 1.36-1.42 1.91-2.52.55-1.1.93-2.54.93-4.59C23.94 7.34 20.37 3.8 16 3.8zm2.86 20.21c0 .1-.03.2-.09.26-.11.12-.11.32.01.44.05.05.08.15.08.26v.1c0 .1-.03.2-.09.26-.11.12-.11.3-.01.43.06.07.09.16.09.25v.1c0 .08-.02.15-.06.21-.36.19-.61.4-.84.59-.44.37-.79.67-1.97.67s-1.52-.29-1.97-.67c-.22-.19-.47-.4-.84-.59-.04-.06-.06-.13-.06-.21V26c0-.09.03-.19.09-.25.11-.12.11-.31-.01-.43-.06-.06-.09-.15-.09-.26v-.1c0-.11.03-.21.08-.26.12-.12.12-.31.01-.44-.06-.06-.09-.15-.09-.26v-.1c0-.17.11-.33.23-.33h5.26c.12 0 .23.15.23.33l.04.11zm3.75-8.34c-.62 1.43-1.55 2.24-2.39 3.17-.42.46-.81.95-1.09 1.56-.28.61-.46 1.33-.46 2.23 0 .17-.14.32-.32.32h-4.73c-.17 0-.32-.14-.32-.32 0-1.2-.31-2.08-.77-2.8-.35-.54-.77-.99-1.19-1.45-.64-.68-1.3-1.37-1.8-2.37s-.86-2.33-.86-4.3c0-2.01.82-3.83 2.15-5.14 1.33-1.32 3.15-2.13 5.16-2.13s3.84.81 5.16 2.13 2.15 3.13 2.15 5.14c.01 1.76-.27 3-.69 3.96zm-.75-.65c-.08-.03-.17.01-.21.09-.05.12-.1.23-.15.34-.04.08-.01.17.07.21.02.01.05.02.07.02.06 0 .11-.03.14-.09.06-.11.11-.23.16-.36.04-.08 0-.18-.08-.21zm.46-2.26c-.09-.01-.16.06-.17.14l-.06.52c-.02.17-.05.33-.08.48-.03.15-.07.3-.1.44-.02.08.03.17.11.19.01 0 .03.01.04.01.07 0 .13-.05.15-.12.04-.15.07-.3.11-.46.03-.16.06-.32.09-.5.02-.17.05-.35.06-.54.01-.08-.06-.16-.15-.16zm.07-2.35c-.04-.21-.1-.42-.16-.62s-.14-.4-.22-.6c-.09-.19-.18-.38-.28-.57-.1-.18-.21-.36-.33-.53-.12-.17-.25-.34-.38-.5-.13-.16-.27-.31-.42-.46-.15-.15-.3-.29-.46-.42-.16-.13-.33-.26-.5-.37-.07-.05-.17-.03-.22.04-.05.07-.03.17.04.22.16.11.32.23.48.36.15.13.3.26.44.4s.27.29.4.44c.12.15.25.31.36.48.11.16.22.34.31.51.1.18.18.36.26.54.08.19.15.38.21.57.06.19.11.39.15.59.04.2.07.41.09.61.02.21.03.42.03.63 0 .09.07.16.16.16s.16-.07.16-.16c0-.22-.01-.44-.03-.66-.02-.23-.05-.45-.09-.66zm-3.16 1.49c-.12-.04-.26.02-.3.14l-.16.44c-.19-.02-.29-.13-.4-.26l-.05-.06c-.02-.02-.04-.05-.05-.07-.06-.09-.16-.23-.37-.23-.22 0-.33.15-.4.25-.01.02-.03.04-.04.05l-.03.04c-.12.14-.23.28-.47.28-.26 0-.38-.15-.5-.31-.01-.02-.03-.04-.04-.06-.07-.1-.17-.27-.39-.27s-.33.16-.39.26c-.02.02-.03.04-.04.06l-.04.05c-.12.14-.23.27-.46.27-.26 0-.39-.15-.49-.3l-.02-.04c-.07-.11-.18-.3-.42-.3-.23 0-.34.18-.41.29l-.03.05c-.11.16-.23.29-.47.3l-.15-.41c-.04-.12-.18-.19-.3-.14s-.19.18-.15.3l1.44 4.07c.08.21.15.59.16.82l.23 4.46c.01.13.11.22.24.22h.01c.13-.01.23-.12.22-.25l-.23-4.46c-.01-.28-.1-.69-.19-.95l-1.18-3.35c.35-.05.53-.3.62-.43.01-.02.03-.04.04-.06.06-.1.09-.14.14-.14.05 0 .09.04.15.15l.03.05c.12.19.33.45.76.45.39 0 .58-.23.71-.39l.04-.05c.02-.03.05-.06.07-.09.06-.09.09-.12.13-.12.04 0 .07.03.13.12l.06.09c.13.17.33.43.75.43.39 0 .59-.24.72-.4l.03-.04c.02-.02.03-.05.05-.07.07-.09.1-.12.15-.12.04 0 .05.01.11.09.02.03.05.07.08.1l.05.05c.11.13.26.31.54.36l-1.17 3.32c-.09.26-.17.67-.19.95l-.23 4.46c-.01.13.09.24.22.25h.01c.12 0 .23-.1.24-.22l.23-4.46c.01-.23.09-.6.16-.82l1.44-4.07c-.01-.1-.08-.23-.2-.28zM14.2 24.66h3c.09 0 .16-.07.16-.16s-.07-.16-.16-.16h-3c-.09 0-.16.07-.16.16s.07.16.16.16zm3.96.7H13.9c-.09 0-.16.07-.16.16s.07.16.16.16h4.26c.09 0 .16-.07.16-.16 0-.08-.07-.16-.16-.16zm-.95 1.02h-2.36c-.09 0-.16.07-.16.16s.07.16.16.16h2.36c.09 0 .16-.07.16-.16s-.07-.16-.16-.16z"/></svg>