<svg xmlns="http://www.w3.org/2000/svg" viewBox="0 0 32 32"><path d="M11.8 19.64H9.97c-.09 0-.15.07-.15.15s.07.15.15.15h1.83c.09 0 .15-.07.15-.15s-.06-.15-.15-.15zm4.17 8.1c-.33 0-.6.27-.6.6 0 .33.27.6.6.6.33 0 .6-.27.6-.6-.01-.33-.28-.6-.6-.6zm0 .89c-.16 0-.29-.13-.29-.29 0-.16.13-.29.29-.29.16 0 .29.13.29.29 0 .16-.13.29-.29.29zm-4.17-7.35H9.97c-.09 0-.15.07-.15.15 0 .08.07.15.15.15h1.83c.09 0 .15-.07.15-.15.01-.08-.06-.15-.15-.15zm0-3.27H9.97c-.09 0-.15.07-.15.15s.07.15.15.15h1.83c.09 0 .15-.07.15-.15s-.06-.15-.15-.15zm10.17 3.19h-8.69c-.13 0-.23.1-.23.23s.1.23.23.23h8.69c.13 0 .23-.1.23-.23s-.1-.23-.23-.23zm-8.92-6.31c0 .13.1.23.23.23h8.69c.13 0 .23-.1.23-.23s-.1-.23-.23-.23h-8.69c-.13 0-.23.11-.23.23zm10.34-1.98c-.03 0-2.88-.31-7.39-.31-1.06 0-2.02.02-2.89.04V8.46c0-1.59 1.29-2.88 2.89-2.88s2.89 1.29 2.89 2.88v2.14c0 .17.14.31.31.31h2.45c.17 0 .31-.14.31-.31V8.46c0-3.28-2.67-5.95-5.95-5.95s-5.95 2.67-5.95 5.95v4.33c-.91.06-1.43.12-1.44.12-.15.02-.27.15-.27.31v9.81c0 .16.12.29.27.3.03 0 2.52.29 5.8.37v.9c-.89.54-1.43 1.5-1.43 2.55 0 1.65 1.34 2.99 2.99 2.99s2.99-1.34 2.99-2.99c0-1.08-.6-2.09-1.54-2.61v-.84c3.37-.07 5.95-.37 5.98-.37.16-.02.27-.15.27-.3v-9.81c-.02-.16-.13-.29-.29-.31zM10.66 8.46c0-2.94 2.39-5.34 5.34-5.34 2.94 0 5.34 2.39 5.34 5.34v1.83H19.5V9.6h.88c.13 0 .23-.1.23-.23s-.1-.23-.23-.23h-.88v-.68c0-1.93-1.57-3.5-3.5-3.5s-3.5 1.57-3.5 3.5v4.21c-.7.03-1.32.06-1.84.09v-4.3zm7.68 18.69c0 1.31-1.07 2.38-2.38 2.38s-2.38-1.07-2.38-2.38c0-.88.49-1.69 1.27-2.1.1-.05.16-.16.16-.27v-1.06h.27v.81c0 .13.1.23.23.23s.23-.1.23-.23v-.8h1.05v1.01c0 .12.07.23.17.28.85.37 1.38 1.21 1.38 2.13zm4.71-4.4c-.77.08-3.09.29-5.92.34h-2.42c-2.76-.05-5-.26-5.75-.34V13.5c.23-.02.6-.05 1.1-.09.1-.01.2-.01.31-.02.1-.01.2-.01.31-.02.52-.03 1.14-.06 1.84-.09.1 0 .2-.01.31-.01.1 0 .2-.01.31-.01.86-.03 1.82-.04 2.88-.04 3.68 0 6.24.2 7.05.28l-.02 9.25zm-1.08-6.45h-8.69c-.13 0-.23.1-.23.23s.1.23.23.23h8.69c.13 0 .23-.1.23-.23s-.1-.23-.23-.23zM11.8 14.74H9.97c-.09 0-.15.07-.15.15 0 .09.07.15.15.15h1.83c.08 0 .15-.07.15-.15.01-.08-.06-.15-.15-.15zm0 1.63H9.97c-.09 0-.15.07-.15.15s.07.15.15.15h1.83c.09 0 .15-.07.15-.15s-.06-.15-.15-.15zm10.17 3.2h-8.69c-.13 0-.23.1-.23.23s.1.23.23.23h8.69c.13 0 .23-.1.23-.23s-.1-.23-.23-.23zm0-1.64h-8.69c-.13 0-.23.1-.23.23s.1.23.23.23h8.69c.13 0 .23-.1.23-.23s-.1-.23-.23-.23z"/></svg>