<svg data-name="Layer 1" xmlns="http://www.w3.org/2000/svg" viewBox="0 0 36 36"><title>Icon-Red_Hat-Software_and_technologies-Apps_Multiple_Unsecured-A-Black-RGB</title><path d="M23.52 26.75H8.27V8.5a.75.75 0 0 0-1.5 0v19a.76.76 0 0 0 .75.75h16a.75.75 0 0 0 0-1.5z"/><path d="M23.52 29.75H5.27V11.5a.75.75 0 0 0-1.5 0v19a.76.76 0 0 0 .75.75h19a.75.75 0 0 0 0-1.5z"/><path d="M23.52 23.52H11.27V6.25h17.5v12.34a.75.75 0 0 0 1.5 0V5.5a.75.75 0 0 0-.75-.75h-19a.76.76 0 0 0-.75.75v18.77a.76.76 0 0 0 .75.75h13a.75.75 0 0 0 0-1.5z"/><path d="M27.79 7.83A.77.77 0 0 0 27 8a.82.82 0 0 0-.16.25.71.71 0 0 0-.06.28.73.73 0 0 0 .22.53.75.75 0 0 0 .53.22 1 1 0 0 0 .29 0 .81.81 0 0 0 .18-.23.73.73 0 0 0 .22-.53.71.71 0 0 0-.06-.28A.82.82 0 0 0 28 8a.78.78 0 0 0-.21-.17zM26 9.05a.67.67 0 0 0 .16-.24.72.72 0 0 0 .06-.29.71.71 0 0 0-.06-.28A.82.82 0 0 0 26 8a.78.78 0 0 0-1 0 .82.82 0 0 0-.16.25.71.71 0 0 0-.06.28.72.72 0 0 0 .06.29.67.67 0 0 0 .16.24.75.75 0 0 0 1.06 0zM25.7 25.36a3.75 3.75 0 0 0 3.75 3.75 3.49 3.49 0 0 0 1.08-.18L25.7 24.1zM33.68 27.82l-.86-.82a3.78 3.78 0 0 0 .38-1.61v-3a.75.75 0 0 0-.52-.71l-3-1a.76.76 0 0 0-.47 0l-2 .68-.75-.76a.75.75 0 0 0-1.06 0 .74.74 0 0 0 0 1.06l6.53 6.55.72.71a.73.73 0 0 0 .53.22.74.74 0 0 0 .53-.22.75.75 0 0 0-.03-1.1z"/></svg>