<svg data-name="Layer 1" xmlns="http://www.w3.org/2000/svg" viewBox="0 0 36 36"><title>Icon-Red_Hat-Hardware-Server_Stack_Unsecured-A-Black-RGB</title><path d="M7 11.75h20a.76.76 0 0 0 .75-.75V6a.76.76 0 0 0-.75-.75H7a.76.76 0 0 0-.75.75v5a.76.76 0 0 0 .75.75zm.75-5h18.5v3.5H7.75z"/><path d="M24.83 8a.82.82 0 0 0-.25-.16.71.71 0 0 0-.57 0 .56.56 0 0 0-.24.16.75.75 0 0 0 0 1.06.78.78 0 0 0 .24.16.72.72 0 0 0 .29.06.71.71 0 0 0 .28-.06.82.82 0 0 0 .25-.22.77.77 0 0 0 .22-.53.75.75 0 0 0-.05-.26 1 1 0 0 0-.17-.21zM12.45 7.75h-3a.75.75 0 0 0 0 1.5h3a.75.75 0 0 0 0-1.5zM7 19.75h20a.76.76 0 0 0 .75-.75v-5a.76.76 0 0 0-.75-.75H7a.76.76 0 0 0-.75.75v5a.76.76 0 0 0 .75.75zm.75-5h18.5v3.5H7.75z"/><path d="M24.83 16a.82.82 0 0 0-.25-.16.71.71 0 0 0-.57 0 .78.78 0 0 0-.24.16.81.81 0 0 0-.17.24.74.74 0 0 0-.05.29.71.71 0 0 0 .05.29.81.81 0 0 0 .17.24.78.78 0 0 0 .24.16.72.72 0 0 0 .29.06.71.71 0 0 0 .28-.06.82.82 0 0 0 .25-.16.78.78 0 0 0 .16-.24.73.73 0 0 0 0-.58.78.78 0 0 0-.16-.24zM12.45 15.75h-3a.75.75 0 0 0 0 1.5h3a.75.75 0 0 0 0-1.5zM22 26.25H7.75v-3.5H27a.75.75 0 0 0 0-1.5H7a.76.76 0 0 0-.75.75v5a.76.76 0 0 0 .75.75h15a.75.75 0 0 0 0-1.5z"/><path d="M9.45 23.75a.75.75 0 0 0 0 1.5h3a.75.75 0 1 0 0-1.5zM24.1 27.43v1.27a3.75 3.75 0 0 0 3.75 3.75 3.49 3.49 0 0 0 1.08-.18zM32.08 31.16l-.86-.86a3.62 3.62 0 0 0 .38-1.6v-3a.74.74 0 0 0-.51-.71l-3-1a.79.79 0 0 0-.48 0l-2 .67-.75-.75a.74.74 0 0 0-1.06 0 .75.75 0 0 0 0 1.06l6.53 6.54.71.71a.74.74 0 0 0 .53.22.73.73 0 0 0 .53-.22.74.74 0 0 0-.02-1.06z"/></svg>