<svg data-name="Layer 1" xmlns="http://www.w3.org/2000/svg" viewBox="0 0 36 36"><title>Icon-Red_Hat-No_food-A-Black-RGB</title><path d="M27.723 8.277a13.725 13.725 0 0 0-19.446 0 .752.752 0 0 0 0 1.06c.02.02.042.026.062.042a.747.747 0 0 0 .16.244l3.792 3.79A6.7 6.7 0 0 0 11.25 17a.75.75 0 0 0 .75.75h4.628l.81.81.23.23a2.226 2.226 0 0 0-.686.192 3.132 3.132 0 0 0-.63.45 1.96 1.96 0 0 1-.32.24.868.868 0 0 1-.718 0 1.813 1.813 0 0 1-.32-.24 3.21 3.21 0 0 0-.632-.45 2.382 2.382 0 0 0-2.05 0 3.21 3.21 0 0 0-.632.45 1.813 1.813 0 0 1-.32.24.72.72 0 0 1-.36.078.75.75 0 0 0 0 1.5 2.215 2.215 0 0 0 1.025-.232 3.21 3.21 0 0 0 .63-.448 1.813 1.813 0 0 1 .322-.242.867.867 0 0 1 .72 0 1.813 1.813 0 0 1 .32.242 3.18 3.18 0 0 0 .63.448 2.376 2.376 0 0 0 2.05 0 3.12 3.12 0 0 0 .63-.448 1.957 1.957 0 0 1 .32-.242.87.87 0 0 1 .717 0 1.957 1.957 0 0 1 .32.242 3.092 3.092 0 0 0 .63.448 2.212 2.212 0 0 0 .787.206l1.028 1.027H12a.75.75 0 0 0-.75.75v2a.75.75 0 0 0 .75.75h12a.733.733 0 0 0 .457-.17l1.92 1.92a.747.747 0 0 0 .244.162c.017.02.024.043.042.062a.75.75 0 0 0 .53.22.75.75 0 0 0 .53-.22 13.768 13.768 0 0 0 0-19.446zM12.8 16.25a5.218 5.218 0 0 1 .58-1.744l1.745 1.744zm5.2 0h-.75L14.3 13.3c.084-.084.157-.178.247-.256a5.252 5.252 0 0 1 8.648 3.2zm0 8h-5.25v-.5h9.878l.5.5zm9.136 1.887L24.75 23.75V23a.75.75 0 0 0-.75-.75h-.75l-1.49-1.49c.082-.065.162-.13.232-.19a1.957 1.957 0 0 1 .32-.243.868.868 0 0 1 .715 0 1.957 1.957 0 0 1 .32.242 3.082 3.082 0 0 0 .63.447A2.195 2.195 0 0 0 25 21.25a.75.75 0 0 0 0-1.5.724.724 0 0 1-.357-.077 1.957 1.957 0 0 1-.32-.242 3.082 3.082 0 0 0-.63-.447 2.367 2.367 0 0 0-2.047 0 3.092 3.092 0 0 0-.63.448 1.957 1.957 0 0 1-.32.243l-.018.006-1.93-1.93H24a.75.75 0 0 0 .75-.75 6.747 6.747 0 0 0-11.52-4.77L9.86 8.862a12.234 12.234 0 0 1 17.274 17.274z"/><path d="M25.16 28.225a.744.744 0 0 0-.564.1A12.26 12.26 0 0 1 7.674 11.4a.752.752 0 0 0 .1-.565.75.75 0 0 0-1.364-.235 13.72 13.72 0 0 0 6.4 20.123 13.96 13.96 0 0 0 5.225 1.014 13.792 13.792 0 0 0 3.8-.53 13.478 13.478 0 0 0 3.565-1.618.743.743 0 0 0 .33-.472.75.75 0 0 0-.574-.893z"/></svg>