<svg xmlns="http://www.w3.org/2000/svg" width="32" height="32" viewBox="0 0 32 32"><path d="M17.622 14.912c-.05.024-1.202.617-1.135 1.99 0 .02.018.197.118.61.006.02.01.042.016.066-.173-.183-.445-.386-.87-.557-.092-.036-.197-.01-.26.067s-.073.185-.02.27c.01.017.2.35.145.96l-.5-.28c-.148-.08-.334-.028-.417.12-.083.148-.03.335.12.417l.675.377c-.056.343-.222 2.088 2.017 2.763.022.006.044.01.066.01.03 0 .06-.006.087-.018.038-.015.695-.29 1.206-.874l.545.305c.047.026.098.04.148.04.108 0 .212-.058.268-.16.084-.146.03-.333-.118-.415l-.496-.277c.04-.076.076-.154.108-.237.236-.623.175-1.306-.194-2.05-.004-.007-.434-.693.04-1.512.05-.083.04-.186-.02-.26-.06-.075-.158-.105-.25-.075-.032.01-.693.234-.972.98-.226-.33-.453-.963.006-1.957.04-.09.02-.194-.05-.26-.07-.07-.175-.084-.262-.04zm-.062 6.334c-1.58-.512-1.668-1.618-1.638-2.057l2.53 1.41c-.337.353-.732.568-.892.645zm.36-3.423c.067.046.152.054.226.02.073-.032.124-.1.134-.18.032-.258.12-.455.224-.606-.096.693.218 1.193.226 1.204.297.603.353 1.16.164 1.66-.024.06-.055.118-.085.176l-2.764-1.54c.054-.34.045-.63.008-.856.36.25.417.483.417.483.014.077.064.142.135.173.07.032.153.025.218-.018.41-.268.242-.887.224-.945-.087-.36-.103-.522-.103-.522-.022-.446.126-.79.305-1.037-.242 1.337.66 1.98.67 1.988zm3.997-6.95l-.035-.042c-.665-.79-1.37-1.384-2.102-1.772.248-.283.39-.648.39-1.028 0-.862-.703-1.564-1.566-1.564-.542 0-1.035.278-1.32.736-.192-.005-.502.007-.697.11-.246.128-.24.48-.234.757v.717h-1.507c-.054-.152-.192-.264-.36-.274l-4.257-.688c-.236-.04-.446.168-.446.405v2.47c0 .226.184.41.41.41.01 0 .024-.002.036-.004l4.258-.688c.187-.01.335-.15.37-.33h1.495v.98c-1.33.407-2.665 1.722-2.665 3.3v10.018c0 .344 0 1.15.82 1.15h5.732c.79 0 .79-.748.79-1.15V14.368c0-1.695-1.5-2.994-2.962-3.306v-.927h.27c.036-.003 1.036-.02 2.43 1.643l.04.047c.146.18.345.422.61.422h.027c.146-.01.246-.072.38-.184.18-.153.367-.34.388-.582.02-.24-.163-.452-.297-.607zm-7.503-.91l-4.17.675V8.294l4.17.674v.996zm6.003 4.405v10.017c0 .536-.048.536-.176.536h-5.73c-.13 0-.208 0-.208-.535V14.368c0-1.298 1.18-2.422 2.29-2.736h1.2c1.272.2 2.625 1.34 2.625 2.736zm1.112-2.656c-.09.074-.107.076-.107.077-.063-.015-.2-.183-.26-.255l-.043-.05c-1.51-1.802-2.67-1.813-2.792-1.808h-.49c-.126 0-.23.103-.23.23v1.114h-.794V9.86c0-.128-.103-.23-.23-.23h-1.71v-.383h1.71c.127 0 .23-.103.23-.23v-.952c-.004-.183.002-.304.018-.36.13-.045.403-.05.564-.037.095.006.182-.043.224-.126.19-.38.567-.615.985-.615.61 0 1.105.496 1.105 1.105 0 .354-.174.69-.467.9-.067.046-.104.127-.095.21.008.08.06.153.134.186.778.348 1.535.954 2.25 1.802l.037.043c.054.064.183.214.186.27-.002.03-.036.108-.226.27zm-3.432-3.68v.012c0 .28.227.507.507.507s.507-.226.507-.506V8.03v-.01c0-.28-.227-.508-.507-.508s-.507.227-.507.507v.012z"/></svg>