<svg xmlns="http://www.w3.org/2000/svg" viewBox="0 0 32 32"><g fill="#010101"><path d="M22.555 13.96c-.166 0-.33.003-.495.005-2.725-1.822-6.238-2.4-10.167-1.67h-.004c-3.29.66-7.257 1.25-7.925 1.084-.14-.036-.284.035-.343.166-.31.698.185 2.614 1 3.867.62.955 1.353 1.46 2.12 1.46h.754c.356.918 1.247 1.57 2.29 1.57 1.082 0 2-.703 2.328-1.677.014.002.026.008.04.008h9.21c.014 0 .027-.006.04-.008.328.974 1.247 1.678 2.33 1.678 1.082 0 2.002-.704 2.328-1.678.014.002.026.008.04.008h3.034c.913 0 1.377-.364 1.377-1.082 0-.886-3.67-3.732-7.958-3.732zm-1.604.026c-.775.022-1.53.054-2.228.085-1 .045-1.942.087-2.747.087-1.525 0-2.55-.62-3.39-1.375 3.173-.488 6.034-.074 8.366 1.204zM9.788 19.853c-1.028 0-1.865-.837-1.865-1.865s.837-1.864 1.865-1.864 1.865.836 1.865 1.864-.837 1.865-1.865 1.865zm13.947 0c-1.028 0-1.865-.837-1.865-1.865s.836-1.864 1.864-1.864 1.864.836 1.864 1.864-.836 1.865-1.864 1.865zm5.402-1.67H26.18c.006-.064.01-.13.01-.195 0-1.355-1.1-2.457-2.456-2.457-1.355 0-2.457 1.103-2.457 2.458 0 .066.005.13.01.195h-9.052c.005-.064.01-.13.01-.195 0-1.355-1.102-2.457-2.457-2.457S7.33 16.635 7.33 17.99c0 .1.008.197.02.293H6.74c-.7 0-1.27-.647-1.623-1.19-.687-1.056-1.05-2.485-1-3.1 1.33.06 5.258-.594 7.73-1.083.952.93 2.19 1.84 4.124 1.84.818 0 1.767-.04 2.773-.085 1.165-.052 2.486-.11 3.808-.11 4.1 0 7.242 2.685 7.365 3.14 0 .27-.06.49-.784.49z"/><path d="M21.672 20h-3.634c-.082 0-.148.067-.148.15s.066.147.148.147h3.634c.082 0 .148-.066.148-.148s-.066-.15-.148-.15zM7.92 20H3.6c-.083 0-.15.067-.15.15s.067.147.15.147h4.32c.083 0 .15-.066.15-.148S8.002 20 7.92 20zM3.305 13.322h-1.67c-.082 0-.148.066-.148.148 0 .082.066.148.148.148h1.67c.082 0 .148-.066.148-.148 0-.08-.066-.148-.148-.148zM8.314 11.85h4.812c.082 0 .148-.065.148-.147s-.066-.148-.148-.148H8.314c-.082 0-.148.066-.148.148s.066.148.148.148zM9.787 16.448c-.85 0-1.54.69-1.54 1.54s.69 1.542 1.54 1.542 1.54-.69 1.54-1.54-.69-1.542-1.54-1.542zm0 2.785c-.686 0-1.245-.558-1.245-1.245s.558-1.245 1.245-1.245c.686 0 1.245.558 1.245 1.245s-.558 1.245-1.245 1.245zM23.734 16.448c-.85 0-1.54.69-1.54 1.54s.69 1.542 1.54 1.542 1.54-.69 1.54-1.54-.69-1.542-1.54-1.542zm0 2.785c-.686 0-1.245-.558-1.245-1.245s.557-1.245 1.244-1.245 1.245.558 1.245 1.245-.56 1.245-1.246 1.245z"/></g></svg>