<svg data-name="virtual-storage-stack" xmlns="http://www.w3.org/2000/svg" viewBox="0 0 36 36"><title>Icon-Red_Hat-Hardware-Virtual_Storage_Stack-A-Black-RGB</title><path d="M6 14.33a.75.75 0 1 0-.75-.75.76.76 0 0 0 .75.75zM9.5 8a.78.78 0 0 0 .41-.12.77.77 0 0 0 .22-1A.75.75 0 1 0 9.5 8zM7.59 9.65a.76.76 0 0 0 .57-.26.75.75 0 0 0-.09-1.06.75.75 0 1 0-.48 1.32zm4.16-2.8a.92.92 0 0 0 .28 0 .76.76 0 0 0 .42-1 .75.75 0 1 0-.7 1zM6 21.94a.75.75 0 1 0-.75-.75.76.76 0 0 0 .75.75zm0-5.07a.76.76 0 1 0-.75-.75.76.76 0 0 0 .75.75zm0 2.53a.75.75 0 1 0-.75-.75.75.75 0 0 0 .75.75zM16.7 5.79a.75.75 0 1 0-.79-.7.74.74 0 0 0 .83.7zM26.44 8a.74.74 0 0 0 .63-.34.75.75 0 0 0-1.26-.82.77.77 0 0 0 .22 1 .78.78 0 0 0 .41.16zm-7.25-2.21a.76.76 0 0 0 .81-.71.74.74 0 0 0-.7-.79.75.75 0 0 0-.8.7.77.77 0 0 0 .69.8zm2.41.31h.15a.78.78 0 1 0-.15 0zm2.31.67a.65.65 0 0 0 .27.05.75.75 0 1 0-.27-.05zm-9.73-.64a.47.47 0 0 0 .16 0 .77.77 0 0 0 .58-.89.75.75 0 0 0-.92-.59.75.75 0 0 0 .15 1.48zm15.07 7.38a.75.75 0 1 0 .75-.75.75.75 0 0 0-.75.75zM29 11.26a.75.75 0 0 0 .71.5.77.77 0 0 0 .25 0 .75.75 0 0 0-.51-1.41.73.73 0 0 0-.45.91zM6.79 23.63A.75.75 0 0 0 6 23a.74.74 0 0 0-.65.83.75.75 0 0 0 .74.66h.09a.76.76 0 0 0 .61-.86zm-.71-11.84a.67.67 0 0 0 .24 0 .75.75 0 1 0-.71-1 .75.75 0 0 0 .47 1zm22.85-3.44a.75.75 0 1 0-.57 1.25.73.73 0 0 0 .5-.19.76.76 0 0 0 .07-1.06zM6.48 25.45a.76.76 0 0 0-.26 1 .75.75 0 0 0 .65.37.76.76 0 0 0 .38-.11.74.74 0 0 0 .26-1 .75.75 0 0 0-1.03-.26zm23.06-.06a.74.74 0 0 0-1 .27.75.75 0 0 0 .65 1.13.77.77 0 0 0 .65-.37.75.75 0 0 0-.3-1.03zm-2.49 2a.75.75 0 0 0-.05 1.07.73.73 0 0 0 .56.26.7.7 0 0 0 .49-.19.75.75 0 1 0-1-1.14zm2.95-7a.75.75 0 0 0 0 1.5.75.75 0 0 0 0-1.5zM27.75 13c0-3.22-4.28-5.75-9.75-5.75S8.25 9.78 8.25 13v10c0 3.22 4.28 5.75 9.75 5.75s9.75-2.53 9.75-5.75zm-1.5 10c0 2.3-3.78 4.25-8.25 4.25S9.75 25.3 9.75 23v-1.9c1.71 1.6 4.73 2.65 8.25 2.65s6.54-1.05 8.25-2.65zm0-5c0 2.3-3.78 4.25-8.25 4.25S9.75 20.3 9.75 18v-1.9c1.71 1.6 4.73 2.65 8.25 2.65s6.54-1.05 8.25-2.65zM18 17.25c-4.47 0-8.25-1.95-8.25-4.25S13.53 8.75 18 8.75s8.25 1.95 8.25 4.25-3.78 4.25-8.25 4.25zm12-2a.75.75 0 1 0 .75.75.75.75 0 0 0-.75-.71zm0 2.54a.75.75 0 1 0 .75.75.75.75 0 0 0-.75-.71zm.05 5.08a.74.74 0 0 0-.83.66.75.75 0 0 0 .66.83H30a.75.75 0 0 0 .75-.67.74.74 0 0 0-.7-.78zm-14.48 7.22a.75.75 0 0 0-.84.65.74.74 0 0 0 .64.84h.1a.75.75 0 0 0 .1-1.5zm9.53-1.39a.75.75 0 0 0 .35 1.42.84.84 0 0 0 .34-.08.75.75 0 0 0-.68-1.34zm-11.9.9a.75.75 0 0 0-.42 1.4.75.75 0 0 0 .93-.51.75.75 0 0 0-.51-.89zm-5.26-2.07A.76.76 0 0 0 8 28.59a.77.77 0 0 0 1.06-.09.75.75 0 1 0-1.14-1zm3 1.2a.75.75 0 0 0-.67 1.34.68.68 0 0 0 .34.08.75.75 0 0 0 .39-1.42zm11.9.85a.75.75 0 0 0-.51.93.74.74 0 0 0 .72.54.76.76 0 0 0 .21 0 .75.75 0 1 0-.42-1.44zm-2.37.5a.75.75 0 0 0 .1 1.5h.1a.75.75 0 0 0-.2-1.49zm-2.43.17H18a.75.75 0 0 0 0 1.5h.07a.75.75 0 0 0 0-1.5z"/></svg>