<svg xmlns="http://www.w3.org/2000/svg" viewBox="0 0 36 36"><title>Icon-Red_Hat-Signage-Stairs-A-Black</title><path d="M26 28.28h-3.25V25a.76.76 0 0 0-.75-.75h-3.25V21a.76.76 0 0 0-.75-.75h-3.25V17a.76.76 0 0 0-.75-.75h-3.25V13a.76.76 0 0 0-.75-.75H6a.75.75 0 0 0 0 1.5h3.25V17a.76.76 0 0 0 .75.75h3.25V21a.76.76 0 0 0 .75.75h3.25V25a.76.76 0 0 0 .75.75h3.25V29a.76.76 0 0 0 .75.75h4a.75.75 0 0 0 0-1.5zm1.87-6h-.69L11.53 6.47a.75.75 0 0 0-.53-.22H9.87a.75.75 0 1 0 0 1.5h.82l15.64 15.78a.79.79 0 0 0 .54.22h1a.75.75 0 1 0 0-1.5z"/></svg>