<svg xmlns="http://www.w3.org/2000/svg" width="32" height="32" viewBox="0 0 32 32"><path d="M17.134 9.422l-.945-1.405c-.033-.05-.067-.1-.102-.157-.036-.055-.062-.1-.08-.134l.003.11c.002.047.003.1.003.156 0 .054 0 .108.002.162l.002.136v1.133h-.51V6.85h.496l.91 1.36c.03.05.064.1.1.156.035.055.062.1.08.134l-.003-.11-.002-.152c0-.056 0-.112-.002-.166s-.002-.1-.002-.136v-1.09h.51v2.575h-.46zm.246 16.123c-.04.1-.1.187-.184.26-.083.07-.188.127-.314.166-.126.04-.278.06-.454.06-.216 0-.412-.042-.59-.125-.176-.084-.313-.198-.41-.342l.37-.33c.09.105.192.18.303.225.113.045.23.068.356.068.154 0 .268-.022.34-.066.072-.044.11-.115.11-.213 0-.042-.008-.078-.023-.11-.015-.03-.042-.06-.083-.086s-.098-.052-.174-.076-.174-.05-.294-.077c-.118-.027-.226-.058-.326-.096-.1-.036-.185-.082-.256-.138s-.126-.127-.166-.213c-.04-.087-.058-.194-.058-.32 0-.12.024-.224.07-.317.05-.094.115-.172.198-.238.083-.065.18-.114.293-.148.11-.035.23-.052.36-.052.2 0 .376.036.526.108.15.072.287.172.41.3l-.37.362c-.084-.086-.173-.15-.268-.197s-.2-.07-.318-.07c-.07 0-.126.008-.173.02s-.084.032-.114.054-.05.046-.063.074c-.012.027-.018.055-.018.084 0 .04.007.076.023.104s.043.053.083.075c.04.02.092.042.158.06.066.02.15.043.254.067s.205.053.307.086.194.08.276.138c.083.06.15.135.2.225s.078.206.078.346c0 .123-.02.235-.06.336zm-1.07 3.076C9.37 28.62 3.72 22.973 3.72 16.03c0-6.943 5.65-12.593 12.593-12.593s12.594 5.65 12.594 12.593c0 6.944-5.65 12.593-12.593 12.593zm0-24.57c-6.604 0-11.978 5.373-11.978 11.978 0 6.605 5.374 11.98 11.98 11.98 6.605 0 11.978-5.375 11.978-11.98s-5.373-11.98-11.98-11.98zm-.015 22.887c-6.05 0-10.974-4.923-10.974-10.974 0-6.05 4.923-10.973 10.975-10.973 6.05 0 10.974 4.922 10.974 10.973 0 6.05-4.924 10.974-10.975 10.974zm0-21.487c-5.798 0-10.514 4.716-10.514 10.514 0 5.798 4.717 10.514 10.515 10.514 5.797 0 10.514-4.716 10.514-10.514 0-5.797-4.718-10.514-10.515-10.514zm.272 9.098zM23.55 8.86c-.083-.08-.212-.087-.302-.018l-6.68 5.125V10.15c0-.126-.104-.23-.23-.23s-.23.104-.23.23v4.17l-.494.378c-.397.193-.707.538-.85.97l-.214.29H10.3c-.127 0-.23.102-.23.23 0 .126.103.23.23.23h3.908l-4.884 6.585c-.068.092-.058.22.024.3.044.045.103.067.16.067.05 0 .1-.016.14-.047l6.458-4.954v3.853c0 .127.103.23.23.23s.23-.103.23-.23v-4.206l.368-.282c.386-.15.702-.442.886-.817l.37-.5h4.18c.128 0 .23-.103.23-.23s-.102-.23-.23-.23h-3.838l5.04-6.796c.067-.092.058-.22-.024-.3zM10.67 21.96l4.038-5.446c.13.646.64 1.18 1.328 1.307l.026.003-5.393 4.137zm5.895-4.598c-.144.03-.294.035-.446.006-.004 0-.008-.003-.013-.004-.492-.096-.854-.482-.946-.947-.027-.144-.032-.294-.005-.446 0-.004.003-.008.004-.013.094-.487.474-.856.946-.948.074-.015.15-.024.228-.024.072 0 .145.006.217.02.006 0 .01.003.015.004.31.06.578.235.758.494.096.138.158.292.19.453.028.145.03.295.003.445 0 .006-.003.01-.004.015-.095.484-.483.85-.947.944zm1.405-1.42c-.037-.248-.123-.486-.27-.698-.252-.365-.63-.61-1.068-.69-.023-.003-.045-.002-.068-.005v-.002l5.66-4.34-4.254 5.735zM6.894 16.4c-.127 0-.23-.103-.23-.23 0-3.44 1.752-6.57 4.687-8.374.11-.066.25-.033.317.075.066.11.033.25-.076.317-2.797 1.72-4.467 4.703-4.467 7.982 0 .126-.103.23-.23.23zm15.4 7.632c-.07 0-.14-.03-.184-.09-.077-.1-.058-.245.043-.322 2.346-1.788 3.69-4.504 3.69-7.45 0-.127.104-.23.23-.23s.23.103.23.23c0 3.09-1.41 5.94-3.87 7.815-.042.032-.09.047-.14.047z"/></svg>