<svg data-name="video" xmlns="http://www.w3.org/2000/svg" viewBox="0 0 36 36"><title>Icon-Red_Hat-Media_and_documents-Video-A-Black-RGB</title><path d="M16.81 25a.79.79 0 0 0 .37-.1l3.76-2.13a.75.75 0 0 0 0-1.3l-3.76-2.13a.75.75 0 0 0-1.12.66v4.25a.74.74 0 0 0 .37.64.76.76 0 0 0 .38.11zm.75-3.72l1.49.84-1.49.88zm11.63-5.87H10.47l18.14-3.86a.75.75 0 0 0 .58-.89l-.62-2.9a.77.77 0 0 0-.32-.47.76.76 0 0 0-.57-.11l-21 4.47a.74.74 0 0 0-.48.33.79.79 0 0 0-.09.58l.86 3.69v11.83a.75.75 0 0 0 .75.75h21.5a.74.74 0 0 0 .75-.75V16.16a.75.75 0 0 0-.78-.75zM7.71 13l19.55-4.19.31 1.43-19.52 4.15zm20.73 14.33h-20V16.91h20z"/></svg>