<svg xmlns="http://www.w3.org/2000/svg" width="32" height="32" viewBox="0 0 32 32"><path d="M10.515 14.67c.075.075.173.112.27.112s.197-.038.272-.112l1.352-1.352 1.352 1.352c.075.075.173.112.27.112s.197-.038.272-.112c.15-.15.15-.392 0-.542l-1.352-1.352 1.352-1.352c.15-.15.15-.392 0-.542s-.392-.15-.542 0l-1.353 1.352-1.354-1.352c-.15-.15-.392-.15-.542 0s-.15.392 0 .542l1.352 1.352-1.352 1.352c-.15.15-.15.392 0 .542zm15.647-.912c-.722-3.668-3.118-6.498-6.444-7.66l.1-.397c.007-.024 0-.05-.017-.068-.017-.018-.04-.026-.065-.022l-1.43.258c-.03.006-.052.026-.06.054-.006.028.003.057.026.075l1.136.92c.02.016.045.02.07.013.024-.008.04-.028.047-.052l.083-.327c3.148 1.116 5.417 3.812 6.102 7.297.753 3.826-.824 8.102-3.928 10.748-.332-.384-.82-.628-1.367-.628-.998 0-1.81.812-1.81 1.81s.812 1.808 1.81 1.808 1.81-.812 1.81-1.81c0-.283-.068-.55-.185-.79 3.258-2.75 4.914-7.224 4.126-11.23zM20.41 26.82c-.575 0-1.043-.468-1.043-1.043s.468-1.043 1.043-1.043 1.043.468 1.043 1.043-.467 1.043-1.043 1.043zm-1.588-9.316c.075.075.173.112.27.112s.197-.038.272-.112l1.352-1.352 1.352 1.352c.075.075.173.112.27.112s.197-.038.272-.112c.15-.15.15-.392 0-.542l-1.352-1.352 1.353-1.353c.15-.15.15-.392 0-.542s-.39-.15-.54 0l-1.353 1.353-1.352-1.353c-.15-.15-.392-.15-.542 0-.15.15-.15.392 0 .542l1.352 1.353-1.353 1.352c-.15.15-.15.392 0 .542zm-4.448 5.98c-.15-.15-.392-.15-.542 0l-1.353 1.353-1.353-1.353c-.15-.15-.392-.15-.542 0s-.15.392 0 .542l1.352 1.353-1.353 1.35c-.15.15-.15.393 0 .543.075.075.173.112.27.112s.197-.038.272-.112l1.353-1.352 1.35 1.353c.076.075.174.112.272.112s.196-.038.27-.112c.15-.15.15-.392 0-.542l-1.35-1.35 1.352-1.353c.15-.15.15-.392 0-.542zm2.798-3.356c-.25 0-.49.05-.705.143l-2.182-3.992 1.11-.606-.22-.403-2.622 1.432.22.403 1.11-.606 2.19 4.005c-.43.33-.71.85-.71 1.433 0 .998.813 1.81 1.81 1.81.998 0 1.81-.813 1.81-1.81 0-.998-.81-1.81-1.81-1.81zm0 2.853c-.575 0-1.043-.467-1.043-1.042s.467-1.043 1.042-1.043 1.043.468 1.043 1.043-.468 1.043-1.043 1.043zm-7.77-2.308c-.024-.01-.05-.01-.07.002l-.32.19-3.835-5.552c-.19-1.965.625-4.1 2.233-5.86 1.525-1.668 3.584-2.814 5.69-3.178.15.848.89 1.494 1.78 1.494 1 0 1.81-.812 1.81-1.81s-.812-1.808-1.81-1.808c-.945 0-1.723.73-1.8 1.657-2.244.374-4.435 1.593-6.046 3.376-1.69 1.87-2.533 4.144-2.313 6.238l.006.05 3.886 5.634-.325.194c-.022.013-.036.036-.036.06 0 .026.012.048.033.063l1.195.83c.023.016.054.018.08.003.025-.015.04-.042.036-.07l-.152-1.454c-.003-.027-.018-.05-.04-.06zm5.48-15.756c.574 0 1.042.468 1.042 1.043S15.456 7 14.88 7c-.574 0-1.042-.468-1.042-1.043s.468-1.044 1.043-1.044z"/></svg>