<svg xmlns="http://www.w3.org/2000/svg" viewBox="0 0 32 32"><path d="M21.23 18.8c-.13 0-.23.1-.23.23 0 3-2.44 5.44-5.44 5.44-.13 0-.23.1-.23.23s.1.23.23.23c3.25 0 5.9-2.65 5.9-5.9 0-.13-.1-.24-.23-.23zm1.97-2.75c1.19-.82 1.89-2.15 1.89-3.61 0-.32-.01-.71-.18-1.24-.09-.31-.21-.6-.37-.88l-.01-.02c-.21-.41-.64-1.01-1.14-1.7-.81-1.12-1.81-2.51-2.23-3.62l-.02-.05c-.08-.18-.26-.3-.45-.3s-.37.12-.45.3l-.02.05c-.38 1.03-1.31 2.34-2.1 3.44-1.02-1.57-1.7-2.84-2.07-3.87l-.01-.04c-.12-.25-.37-.41-.64-.41s-.52.16-.63.41l-.01.04c-.8 2.22-2.85 5.07-4.51 7.35-.99 1.37-1.84 2.55-2.27 3.38-.31.55-.56 1.14-.73 1.75-.31 1.01-.34 1.76-.34 2.38 0 4.68 3.81 8.49 8.49 8.49s8.49-3.81 8.49-8.49c0-.62-.03-1.38-.34-2.39-.09-.32-.21-.65-.35-.97zm-4.72-7.09c.78-1.08 1.74-2.41 2.21-3.51.47 1.12 1.43 2.43 2.2 3.51.48.66.89 1.23 1.09 1.61l.02.03c.14.24.24.5.33.78.14.44.15.77.15 1.06 0 1.28-.64 2.45-1.71 3.16l-4.38-6.5c-.01 0 .09-.14.09-.14zM15.4 27.29c-4.34 0-7.88-3.53-7.88-7.88 0-.58.02-1.27.32-2.2.17-.57.39-1.12.68-1.63l.02-.04c.39-.76 1.24-1.93 2.21-3.28 1.67-2.32 3.76-5.21 4.58-7.5.01-.02.03-.05.07-.05.03 0 .05.02.07.04v.01c.41 1.15 1.15 2.51 2.32 4.27h-.01l4.74 7.05.01-.01c.17.37.32.75.43 1.13.29.93.32 1.63.32 2.21 0 4.34-3.53 7.88-7.88 7.88z"/></svg>