<svg xmlns="http://www.w3.org/2000/svg" viewBox="0 0 36 36"><path d="M28 27.25c-.412-.003-.745-.338-.75-.75v-11c0-5.11-4.14-9.25-9.25-9.25s-9.25 4.14-9.25 9.25v11c0 .414-.336.75-.75.75s-.75-.336-.75-.75v-11C7.25 9.563 12.063 4.75 18 4.75S28.75 9.563 28.75 15.5v11c0 .414-.336.753-.75.75zm-6-15.5h-8c-1.52 0-2.75 1.23-2.75 2.75v12c.005.412.338.745.75.75h12c.41-.005.74-.34.74-.75v-12c0-1.515-1.225-2.745-2.74-2.75zm-9.258 2.74c.005-.69.567-1.245 1.258-1.24h8c.69 0 1.25.56 1.25 1.25v5.25H12.742v-5.26zm.006 11.26v-4.5H23.25v4.5H12.748zM24 31.25c-.2 0-.39-.078-.53-.22l-1-1c-.282-.303-.266-.778.037-1.06.288-.268.735-.268 1.023 0l1 1c.293.285.3.754.014 1.046l-.014.014c-.14.143-.33.22-.53.22zm-12 0c-.2 0-.39-.08-.53-.22-.292-.294-.292-.767 0-1.06l1-1c.293-.292.765-.29 1.06 0 .29.287.3.754.014 1.046L12.53 31.03c-.14.143-.33.22-.53.22zm8-21h-4c-.414 0-.75-.336-.75-.75s.336-.75.75-.75h4c.414 0 .75.336.75.75s-.336.75-.75.75zm-5.074 12.502c-.414 0-.75.336-.75.75s.336.75.75.75.75-.336.75-.75-.336-.75-.75-.75zm6.083 0c-.415 0-.75.336-.75.75s.335.75.75.75.75-.336.75-.75-.337-.75-.75-.75z"/></svg>