<svg data-name="Layer 1" xmlns="http://www.w3.org/2000/svg" viewBox="0 0 36 36"><title>Icon-Red_Hat-Transportation-Train-A-Black-RGB</title><path d="M28 27.75a.76.76 0 0 1-.75-.75V16a9.25 9.25 0 0 0-18.5 0v11a.75.75 0 0 1-1.5 0V16a10.75 10.75 0 1 1 21.5 0v11a.75.75 0 0 1-.75.75z"/><path d="M24 27.75H12a.76.76 0 0 1-.75-.75V15A2.75 2.75 0 0 1 14 12.25h8A2.75 2.75 0 0 1 24.74 15v12a.75.75 0 0 1-.74.75zm-11.25-1.5h10.5V15A1.25 1.25 0 0 0 22 13.75h-8A1.25 1.25 0 0 0 12.74 15z"/><path d="M24 21.75H12a.75.75 0 0 1 0-1.5h12a.75.75 0 0 1 0 1.5zM14.92 24.75a.75.75 0 0 1-.29-.06.78.78 0 0 1-.24-.16.75.75 0 0 1 0-1.06.78.78 0 0 1 .24-.16.75.75 0 1 1 .29 1.44zM21 24.75a.75.75 0 0 1-.69-1 .63.63 0 0 1 .16-.24.75.75 0 0 1 .82-.16.78.78 0 0 1 .24.16.75.75 0 0 1 0 1.06.78.78 0 0 1-.24.16.75.75 0 0 1-.29.02zM24 31.75a.74.74 0 0 1-.53-.22l-1-1a.75.75 0 0 1 1.06-1.06l1 1a.74.74 0 0 1 0 1.06.73.73 0 0 1-.53.22zM12 31.75a.74.74 0 0 1-.53-.22.75.75 0 0 1 0-1.06l1-1a.75.75 0 0 1 1.06 0 .74.74 0 0 1 0 1.06l-1 1a.73.73 0 0 1-.53.22zM20 10.75h-4a.75.75 0 0 1 0-1.5h4a.75.75 0 0 1 0 1.5z"/></svg>