<svg xmlns="http://www.w3.org/2000/svg" viewBox="0 0 31.68 31.68"><path d="M10.08 22.34c.02-.28-.08-.55-.28-.75-.27-.16-.61-.07-.76.2-.03.04-.05.09-.06.14-.07.3 0 .62.19.86.04.04.08.09.11.13.13.18.31.32.51.4h.07c.08 0 .15-.06.17-.14 0-.05.02-.1.03-.15.06-.16.07-.33.04-.5 0-.06-.01-.12-.02-.19zm-.34.57c-.08-.06-.14-.14-.2-.21-.04-.05-.08-.1-.13-.15-.11-.15-.15-.35-.11-.53.01-.07.06-.13.13-.15.06-.02.12-.02.17 0 .1.07.12.34.13.5l.03.26c.02.09.01.19-.01.28h-.01zm6.1-19.66c-6.95 0-12.59 5.64-12.59 12.59s5.64 12.59 12.59 12.59 12.59-5.64 12.59-12.59c-.01-6.95-5.64-12.58-12.59-12.59zM6.21 22.86C2.99 18.44 3.19 12.39 6.7 8.2l.4.38c.04.04.1.06.15.05.05-.01.1-.04.12-.09.23-.46.76-.69 1.32-.89.11-.04.23-.07.34-.08.08 0 .15.01.22.03l.11.02c.5.08 1.01-.09 1.36-.45.11-.11.17-.25.17-.4-.01-.09-.05-.18-.12-.23-.2-.16-.42 0-.55.09l-.11.07c.01-.07.02-.13.05-.19.03-.09.09-.16.17-.21.19-.06.39-.09.6-.09.23 0 .46-.04.68-.11.21-.07.34-.08.4 0s.03.13 0 .26c-.02.12-.02.25 0 .37.01.05.05.09.1.11.34.1.7.03.97-.18.14-.08.29-.15.44-.2.22-.03.44-.02.66.03.22.05.45.07.68.05.34-.06.66-.2.94-.41.23-.17.5-.3.78-.36.28-.01.55.03.81.13.15.04.29.09.44.11.53.1 1.09.02 1.57-.22l.22-.12c.22-.17.49-.26.77-.23.22.1.41.27.52.49.07.08.11.17.11.27-.03.07-.07.13-.13.18-.05.05-.09.1-.13.15-.28.4-.07.94.26 1.25.16.14.33.26.51.36.15.09.3.19.43.3.23.2.41.55.27.8-.03.05-.07.1-.12.15-.06.06-.11.13-.16.2-.06.11-.1.22-.14.34-.07.22-.12.32-.2.34-.04.01-.08.01-.12 0-.12-.04-.25-.03-.36.03-.09.05-.15.15-.16.26-.01.17.06.34.18.46l.09.08c.09.08.17.15.17.22v.08c-.02.07-.02.15 0 .22.04.12.12.22.22.29.31.26.63.7.48 1.09-.11.29-.43.45-.77.63-.42.21-.84.43-.93.92-.03.3.04.6.2.86.04.1.09.19.13.29.06.19.04.4-.06.57-.04.06-.1.09-.16.09-.12 0-.22-.11-.34-.24-.1-.12-.21-.22-.34-.3-.18-.11-.39-.14-.59-.08-.02-.19-.15-.34-.32-.41-.05-.02-.11-.03-.16-.03h-.07c-.17-.03-.26-.22-.38-.52s-.27-.68-.65-.73c-.36-.01-.69.21-.8.55-.04.09-.07.17-.1.27-.05.16-.12.31-.22.45-.09.09-.19.17-.3.24-.2.11-.36.28-.47.47-.06.15-.09.3-.1.46.01.14-.03.28-.12.39-.05.04-.11.05-.17.04-.11-.01-.21-.06-.28-.15-.13-.19-.2-.41-.22-.64l-.16-.89c-.04-.22-.13-.73-.54-.87-.09-.03-.19-.04-.29-.04-.07 0-.14-.01-.21-.03-.1-.07-.18-.16-.23-.28-.07-.15-.18-.28-.32-.38-.21-.11-.45-.14-.68-.09-.12.02-.25.02-.37 0-.2-.07-.37-.18-.51-.34-.18-.2-.42-.34-.68-.41-.19-.03-.38.02-.53.14-.11.09-.18.23-.19.37.02.27.2.51.46.59l.15.06c.12.03.24.09.34.17.15.2.15.48 0 .68-.17.23-.4.43-.65.57-.29.18-.81.46-1.08.2-.1-.12-.17-.26-.21-.42l-.59-2.04c-.1-.34-.31-.52-.54-.47-.06.01-.1.06-.12.12-.16.55-.26 1.12-.27 1.7-.02.19.01.38.09.55.08.13.19.25.32.34.07.05.14.11.19.18.07.11.13.22.17.34.07.26.24.47.48.59.13.04.26.05.39.03.07-.01.14-.01.21 0 .1.02.2.08.25.17.1.15.13.33.1.51-.11.33-.31.63-.58.85l-1.47 1.53c-.05.05-.06.12-.04.18.11.28.25.55.43.79.17.19.25.43.25.68-.06.22-.18.42-.34.58-.09.1-.17.2-.24.31-.06.08-.09.18-.09.28.01.11.07.21.15.29l.05-.02c.22.28.1.72 0 .97-.06.15-.12.23-.18.24-.05-.01-.11-.02-.16-.05-.49-.28-.98-.6-1.44-.95zm17.32 2.08l-.04-.38c0-.14-.04-.28-.12-.4-.17-.21-.45-.3-.71-.21-.18.06-.34.15-.49.27l-.07.05c-.03.02-.06.04-.1.05-.04 0-.14-.11-.21-.31l-.42-1.23c-.12-.25-.15-.53-.07-.8.13-.2.31-.36.52-.46.82-.49 1.61-1.03 2.36-1.61.13-.1.36-.26.48-.17.06.06.1.12.13.2.07.15.18.36.43.36.16-.01.31-.1.4-.23l.04-.04c.04-.04.09-.06.09-.07v.16c.02.31.27.47.48.61.15.1.29.19.34.31-.71 1.49-1.76 2.82-3.04 3.9zm2.91-4.53c-.2-.13-.32-.22-.34-.34v-.06c.01-.1-.01-.2-.06-.28-.05-.07-.14-.12-.23-.12-.14 0-.28.06-.38.16l-.05.05c-.05.05-.11.12-.15.12s-.07-.07-.13-.18c-.05-.12-.13-.23-.23-.32-.16-.12-.44-.18-.89.17-.74.58-1.52 1.11-2.32 1.59-.28.13-.51.34-.66.61-.11.35-.09.73.07 1.06l.42 1.24c.1.3.32.6.61.53.08-.02.15-.06.21-.11l.07-.05c.12-.09.25-.17.38-.22.12-.04.25-.01.34.08.04.08.06.16.06.24l.06.61c-4.94 3.91-12.06 3.29-16.25-1.41.18.11.36.21.54.31.1.06.21.1.32.11h.03c.2 0 .36-.17.47-.45.21-.54.19-1-.06-1.3l-.04-.04c-.02-.03-.05-.06-.06-.09 0 0 0-.02.03-.07.07-.1.14-.19.21-.29.21-.21.35-.47.41-.76.02-.33-.09-.66-.31-.92-.14-.19-.25-.4-.34-.61l1.38-1.45c.31-.27.54-.63.66-1.02.06-.27.01-.55-.14-.78-.11-.17-.28-.28-.48-.32-.1-.01-.2-.01-.29 0-.08.02-.17.02-.26 0-.14-.05-.2-.21-.28-.39-.05-.14-.13-.28-.22-.4-.07-.09-.16-.16-.25-.23s-.17-.16-.23-.26c-.05-.12-.07-.25-.05-.38.01-.48.08-.96.2-1.42.03.05.05.1.06.16l.59 2.04c.04.22.14.42.29.58.23.22.68.37 1.5-.16.3-.17.56-.4.76-.68.23-.34.2-.78-.06-1.09-.13-.11-.28-.2-.44-.25l-.14-.06c-.12-.05-.26-.16-.26-.28 0-.05.03-.09.06-.12.07-.06.16-.08.26-.07.2.06.37.17.51.32.18.2.42.35.68.42.16.02.32.02.47 0 .15-.04.31-.03.46.04.09.07.16.16.21.27.08.18.22.33.39.42.11.04.22.06.34.06.06 0 .13.01.19.02.2.07.27.36.32.61l.13.92c.03.29.13.56.3.8.13.15.31.25.51.27.15.02.3-.03.42-.12.16-.17.25-.4.24-.63 0-.12.03-.23.07-.34.08-.14.2-.26.34-.34.14-.08.26-.19.37-.31.13-.17.22-.35.28-.55l.09-.24c.09-.19.26-.39.44-.36s.26.21.38.52c.12.31.27.68.64.73H18.78c.07.02.12.15.12.36 0 .09.08.17.17.17.04 0 .08-.02.11-.04.12-.1.28-.12.42-.05.1.06.18.14.26.23.14.19.35.31.58.34.18.02.36-.05.48-.19.17-.26.21-.59.11-.88-.04-.11-.09-.21-.14-.32-.12-.2-.18-.43-.17-.66.06-.32.38-.48.75-.68.4-.14.73-.43.93-.81.21-.55-.16-1.12-.59-1.47-.04-.03-.09-.08-.1-.11v-.09c.05-.24-.06-.49-.27-.61l-.07-.07c-.05-.05-.08-.11-.08-.18.04-.01.08-.01.12 0 .07.02.15.03.22.02.32-.03.42-.34.49-.56.03-.09.06-.18.11-.27.03-.05.07-.1.12-.15.06-.06.11-.13.16-.2.24-.41 0-.93-.34-1.23-.15-.13-.31-.24-.48-.34-.16-.1-.32-.21-.46-.34-.23-.21-.38-.57-.21-.8.03-.04.06-.08.1-.11.11-.09.18-.21.22-.34.02-.19-.04-.38-.17-.53-.15-.29-.41-.51-.71-.63-.35-.06-.72.04-1.01.26l-.2.11c-.42.22-.9.28-1.36.19-.14-.03-.27-.06-.41-.11-.31-.1-.63-.13-.95-.1-.33.07-.65.21-.92.41-.23.18-.5.3-.78.36-.19.01-.38 0-.57-.05-.26-.07-.53-.07-.8-.03-.18.05-.36.13-.52.23-.17.12-.38.19-.59.19v-.15c.05-.17.02-.36-.07-.51-.11-.14-.34-.27-.79-.1-.19.06-.39.09-.6.09-.23 0-.46.04-.68.11-.18.1-.31.24-.38.41-.09.17-.1.37-.05.55.02.02.03.05.05.06.2.17.43 0 .56-.08.05-.03.1-.07.15-.11-.01.06-.03.11-.07.15-.28.27-.67.4-1.05.34l-.1-.02c-.1-.02-.19-.03-.29-.04-.15.01-.3.05-.45.11-.54.14-1.02.44-1.4.86l-.25-.25c4.37-4.91 11.9-5.35 16.81-.98 3.85 3.43 5.06 8.96 2.99 13.68-.09-.08-.19-.16-.29-.23zm.05-2.61c-.07-.03-.14-.05-.2-.07-.11-.02-.21-.06-.3-.12-.16-.11-.37-.12-.55-.04-.16.07-.27.21-.29.38-.03.19.14.45.41.77l.15-.09-.13.11c.09.12.23.19.38.2.07 0 .14-.02.2-.07.08-.07.13-.16.15-.27l.03-.09s.05-.02.13 0h.05c.1.02.21.02.31 0 .07-.02.13-.09.13-.16-.03-.25-.21-.48-.47-.55zm-.41.51c-.05.07-.09.14-.1.23v.07c-.05-.01-.09-.04-.12-.08v-.02c-.3-.37-.34-.48-.34-.51 0-.05.04-.1.09-.12.03-.01.06-.02.1-.02.04 0 .09.01.12.03.12.07.26.13.39.16.06.02.12.03.18.06l.12.06c-.17-.04-.33.01-.44.14zm-3.09-.68c.11-.11.14-.28.07-.42-.02-.04-.06-.07-.11-.08-.19-.04-.38-.01-.55.09-.1.06-.18.14-.26.22-.05.06-.11.11-.18.16-.07.05-.15.09-.23.12-.23.11-.55.25-.54.68-.01.25.11.5.32.64.1.06.21.09.32.09.14 0 .28-.04.4-.11l.26-.14c.16-.09.46-.24.51-.55.01-.13 0-.26-.05-.38-.03-.08-.04-.16-.03-.24.02-.02.03-.05.05-.07l.02-.01zm-.34.41c.03.07.04.15.04.23-.02.12-.17.21-.34.3l-.26.14c-.12.08-.27.09-.39.03-.11-.08-.16-.21-.15-.34 0-.18.09-.24.34-.34.1-.04.19-.09.28-.15.08-.06.16-.13.23-.21.06-.06.12-.12.19-.17.03-.02.07-.03.11-.04-.02.03-.04.06-.06.1-.05.16-.05.32.01.48v-.03zm-2.28.73l-.12-.12c-.31-.32-.79-.79-1.19-.73-.09.01-.15.09-.14.18.04.19.1.36.2.53.04.09.09.18.12.26.05.1.13.17.23.23l.1.07c.08.16.25.25.43.24.09 0 .18-.02.27-.04.12-.02.23-.11.27-.22.02-.15-.04-.31-.17-.4zm-.2.31c-.23.06-.27.02-.31-.04-.05-.07-.12-.13-.19-.18l-.12-.09c-.03-.09-.08-.18-.13-.28l-.08-.16c.25.16.48.35.68.57l.12.12.06.06h-.03zm3.4-7.63c-.14-.05-.3-.04-.43.02-.11.06-.19.16-.22.29-.04.23-.02.47.05.69.08.2.1.42.06.64-.14.34-.32.68-.52.99-.07.1-.3.42-.19.68.07.13.21.22.36.21h.02c.54 0 1.15-1.15 1.24-1.38.11-.29.22-1.43-.06-1.87-.06-.12-.17-.21-.31-.23v-.04zm.05 1.97c-.14.39-.68 1.16-.92 1.16h-.07c.01-.13.06-.25.15-.34.21-.33.4-.68.54-1.04.08-.28.06-.58-.04-.85-.05-.16-.08-.32-.07-.48 0-.06.04-.07.05-.07.06-.02.12-.02.18 0h.04s.04 0 .08.06c.22.34.13 1.35.04 1.59l.02-.03z"/></svg>