<svg xmlns="http://www.w3.org/2000/svg" width="32" height="32" viewBox="0 0 32 32"><path d="M26.164 11.9c-.898-2.934-3.636-4.968-6.72-4.968-3.092 0-5.806 2.016-6.713 4.94-.504-.18-1.03-.27-1.568-.27-2.187 0-4.068 1.504-4.564 3.612-1.954.072-3.6 1.43-4.036 3.35-.02.087 0 .178.057.248.054.07.138.11.226.11h10.05c-.044.312-.07.63-.07.954 0 3.665 2.983 6.647 6.648 6.647s6.647-2.982 6.647-6.647c0-.325-.024-.643-.07-.955h4.39c.143 0 .264-.1.288-.24.06-.358.092-.686.092-1.005 0-2.79-1.948-5.19-4.658-5.774zm-6.688 14.01c-3.327 0-6.034-2.706-6.034-6.034s2.707-6.035 6.034-6.035 6.034 2.708 6.034 6.036-2.707 6.034-6.034 6.034zm10.718-7.572h-4.252c-.696-2.926-3.33-5.11-6.466-5.11-3.135 0-5.77 2.184-6.465 5.11H3.23c.502-1.514 1.905-2.543 3.55-2.543h.003l.045.002c.147.014.268-.098.294-.24.354-1.953 2.052-3.37 4.04-3.37.532 0 1.05.104 1.54.304.305.148.955.525 1.356 1.2.047.08.138.118.226.102.025-.005.05-.013.074-.028.104-.06.138-.196.076-.3-.346-.58-.837-.96-1.21-1.187.758-2.806 3.305-4.76 6.22-4.76 2.802 0 5.273 1.79 6.12 4.44-.753-.005-1.312.267-1.346.28-.11.047-.165.175-.118.287.046.11.174.165.285.12.008-.005.78-.31 1.655-.166 2.44.528 4.198 2.685 4.198 5.198 0 .213-.014.43-.045.664zM17.72 16.814c-.186-.14-.337-.208-.46-.208-.137 0-.205.088-.224.14-.007.023-.007.047 0 .07l.272.74-.042.33-.332.155-.255-.22-.046-.123-.16-.44c-.054-.154-.115-.23-.197-.24-.05-.01-.095.01-.124.04-.606.528-.112 1.47-.09 1.51.01.023.05.103.11.2l-.015.005c-.057.027-.097.07-.118.128-.024.068-.017.148.02.226.065.138.198.192.327.132l.124-.058.053.047c.12.1.16.16.15.43l-.11 3.183c-.004.053-.016.327.154.515.1.11.242.168.42.168.17 0 .302-.054.4-.16.183-.205.148-.517.148-.517l-.102-3.182c0-.036 0-.07-.003-.104-.006-.224-.01-.36.336-.634.466-.367.38-1.012.37-1.085-.107-.658-.584-1.03-.604-1.045zm-1.472.435c.01.02.02.045.032.076.07.196.215.59.215.59.006.015.016.03.03.04l.205.18-.527.246c-.092-.212-.293-.787.045-1.134zm.067 1.855c-.058.026-.085-.016-.102-.05-.002-.005-.045-.1.018-.13l.036-.016c.04.057.082.11.123.16l-.074.036zm1.513-.32c-.43.338-.422.563-.414.802l.002.1.103 3.195c0 .002.018.234-.098.363-.056.062-.137.093-.246.093-.117 0-.207-.034-.267-.1-.108-.117-.106-.306-.103-.364l.11-3.188c.012-.306-.038-.44-.222-.595-.185-.155-.334-.4-.402-.52l1.11-.52c.032-.015.054-.044.058-.08l.053-.413c.003-.015.002-.03-.005-.05l-.254-.694h.006c.034 0 .135.016.335.167.005.003.432.336.526.916.01.06.076.597-.292.888zm-.257-.57c-.027-.037-.082-.045-.118-.018-.018.014-.03.034-.033.056-.004.022.002.045.015.063l.21.282c.017.022.042.034.07.034.018 0 .035-.006.05-.017.037-.028.044-.082.016-.12l-.21-.28zm-.194.094c-.028-.037-.083-.045-.12-.018-.017.014-.03.034-.032.056-.003.023.003.045.016.063l.21.284c.018.02.043.033.07.033.018 0 .036-.006.05-.017.038-.028.045-.082.018-.12l-.212-.28zm-.12.48c.015.02.04.033.067.033.02 0 .036-.006.05-.017.04-.028.046-.082.02-.12l-.212-.28c-.025-.037-.08-.046-.12-.02-.036.03-.044.083-.016.12l.21.283zm-.128.128c.02 0 .037-.006.05-.016.038-.03.045-.082.017-.12l-.21-.282c-.028-.037-.083-.045-.12-.018-.018.014-.03.034-.033.056-.003.022.003.045.016.063l.21.282c.016.022.042.035.07.035zm.044 3.746c-.056 0-.11.016-.158.046-.066.042-.112.107-.13.185-.016.077-.002.155.04.222.054.085.147.136.25.136.055 0 .11-.016.157-.046.138-.087.18-.27.09-.407-.053-.085-.146-.136-.248-.136zm.123.32c-.008.033-.027.06-.056.08-.055.034-.14.015-.173-.04-.037-.057-.02-.134.038-.172.02-.013.043-.02.066-.02.044 0 .084.023.107.06.018.027.023.06.017.093zm2.713-2.01c.003-.096.064-.162.083-.18l.002-.002c.022-.02.036-.047.036-.077v-.465c0-.057-.046-.103-.103-.103h-.35v-1.952l.13-.36c.005-.016.006-.034.004-.053l-.17-.963c-.01-.05-.052-.086-.102-.086h-.345c-.05 0-.093.036-.102.086l-.17.963c-.002.018 0 .036.006.052l.13.36v1.952h-.35c-.058 0-.105.046-.105.103v.465c0 .03.014.058.037.078.013.013.08.08.084.178.005.096-.047.198-.153.303-.02.02-.03.046-.03.072v1.873c0 .034.007.12.087.207.13.138.378.208.74.208s.608-.07.737-.208c.097-.103.09-.203.09-.203v-1.878c0-.027-.012-.054-.032-.073-.102-.104-.154-.205-.15-.3zm-.73-4.032h.173l.15.85-.126.35c-.004.01-.006.023-.006.036v1.97h-.206v-1.97c0-.013-.002-.025-.006-.035l-.126-.35.15-.85zm-.234 6.46l-.052-.01v-1.575c0-.06 0-.12.01-.15 0-.002.006-.004.022-.004h.006c.01.01.014.063.014.157v1.583zm.703-.012c-.018.005-.035.01-.053.012V21.82c0-.095.005-.147.014-.156h.023s.003.003.005.01c.01.032.01.087.01.146v1.57zm.17-.073v-1.5c0-.072 0-.14-.02-.196-.027-.082-.09-.126-.18-.126-.19 0-.19.196-.19.326v1.604c-.104.007-.207.008-.313 0V21.82c0-.13 0-.326-.19-.326-.09 0-.153.04-.182.12-.02.055-.02.12-.02.206v1.502c-.07-.05-.075-.097-.076-.097V21.39c.128-.14.19-.282.184-.427-.006-.144-.08-.245-.12-.29v-.318h1.114v.32c-.04.043-.114.145-.12.288-.006.144.055.287.183.426v1.836c0 .002-.004.045-.068.09zm2.96-6.58l-.29.004c-.014 0-.027.003-.04.008l-.004.002c-.02.007-.126.045-.245.045-.11 0-.2-.032-.263-.096-.02-.02-.045-.03-.072-.03h-.573c-.01 0-.91.07-1.14 1.022-.016.066-.01.192.07.252.023.015.05.023.076.023.103 0 .192-.11.203-.125 0-.003.2-.303.358-.422.028-.02.098-.064.142-.064.01 0 .018 0 .03.026.043.11.085.34.12.524l.006.045c.007.038.034.067.07.08v1.95c-.078.05-.122.13-.122.218l-.008 3.078c0 .178.265.27.408.27h.157c.146 0 .415-.093.415-.27l-.007-3.078c0-.087-.045-.168-.122-.218v-1.958c.03-.015.052-.045.057-.078l.052-.418c.042-.033.088-.05.14-.05.12 0 .227.083.23.086.02.014.04.02.062.022l.293.005c.04-.004.072-.023.09-.053.006-.013.072-.134.072-.38 0-.21-.054-.335-.072-.37-.02-.033-.054-.053-.094-.053zM21.76 23.34h-.156c-.084 0-.184-.05-.202-.072l.008-3.07c0-.035.045-.066.096-.066h.358c.052 0 .097.03.097.065l.01 3.068c-.02.023-.126.073-.21.073zm-.228-3.413v-1.894h.308v1.893h-.308zm.94-2.625c-.187-.067-.357-.03-.488.1-.015.016-.025.035-.03.06l-.045.365h-.464c-.037-.202-.077-.406-.124-.524-.04-.1-.12-.154-.22-.154-.12 0-.235.082-.267.106-.14.105-.29.307-.36.407.212-.704.852-.783.924-.79h.525c.1.084.225.126.375.126.062 0 .12-.006.164-.015.007.052.013.124.013.207 0 .042-.002.08-.005.112zm.335.08l-.175-.004c.008-.055.012-.118.012-.187 0-.08-.006-.162-.016-.247l.18-.004c.01.043.026.116.026.215 0 .104-.014.178-.027.226z"/></svg>