<svg xmlns="http://www.w3.org/2000/svg" viewBox="0 0 31.68 31.68"><path d="M15.84 9.39c-.38 0-.71.14-.99.42-.28.28-.42.61-.42.99s.14.71.42.99c.28.28.61.42.99.42s.71-.14.99-.42c.28-.28.42-.61.42-.99s-.14-.71-.42-.99c-.28-.28-.61-.42-.99-.42zM14.61 12.96h2.47v9.33h-2.47z"/><path d="M15.84 6.45c-5.18 0-9.39 4.21-9.39 9.39 0 5.17 4.21 9.39 9.39 9.39 5.17 0 9.39-4.21 9.39-9.39 0-5.18-4.22-9.39-9.39-9.39zm0 18.26c-4.89 0-8.87-3.98-8.87-8.87 0-4.89 3.98-8.87 8.87-8.87 4.89 0 8.87 3.98 8.87 8.87 0 4.89-3.98 8.87-8.87 8.87z"/><path d="M15.84 4.51c-6.25 0-11.33 5.08-11.33 11.33s5.08 11.33 11.33 11.33 11.33-5.08 11.33-11.33S22.09 4.51 15.84 4.51zm0 21.97c-5.87 0-10.64-4.77-10.64-10.64S9.97 5.2 15.84 5.2s10.64 4.77 10.64 10.64-4.77 10.64-10.64 10.64z"/></svg>