<svg xmlns="http://www.w3.org/2000/svg" viewBox="0 0 31.68 31.68"><path d="M20.7 10.42l-3.47 3.47c-.14.14-.14.37 0 .51.07.07.16.1.25.1s.18-.03.25-.1l3.47-3.47.5.5.55-2.07-2.07.55.52.51z"/><path d="M24.13 6.22H11.97c-.77 0-1.39.62-1.39 1.39v7.67H7.55c-.77 0-1.39.62-1.39 1.39v7.42c0 .77.62 1.39 1.39 1.39h7.42c.77 0 1.39-.62 1.39-1.39v-2.93h7.78c.77 0 1.39-.62 1.39-1.39V7.6c-.01-.76-.63-1.38-1.4-1.38zm-8.49 14.39h-3.67c-.47 0-.85-.38-.85-.85v-3.78h3.85c.37 0 .67.3.67.67v3.96zm0 3.47c0 .37-.3.67-.67.67H7.55c-.37 0-.67-.3-.67-.67v-7.42c0-.37.3-.67.67-.67h3.22v3.78c0 .67.54 1.21 1.21 1.21h3.67v3.1zm9.16-4.32c0 .37-.3.67-.67.67h-7.78v-3.78c0-.77-.62-1.39-1.39-1.39H11.3V7.6c0-.37.3-.67.67-.67h12.16c.37 0 .67.3.67.67v12.16z"/></svg>