<svg xmlns="http://www.w3.org/2000/svg" width="32" height="32" viewBox="0 0 32 32"><path d="M14.54 28.75c-.554 0-1.262-.18-2.164-.553-2.213-.913-2.506-2.43-2.084-3.454.35-.85.932-1.11 1.4-1.32.344-.153.542-.25.637-.48.07-.175.063-.344-.027-.53-.48-.994-2.95-1.89-3.86-2.153-.242-.07-.433-.31-.442-.563-.005-.15-.134-3.66 1.107-4.953.536-.558 1.258-.654 2.085-.262.66.313.955.792 1.216 1.214.24.387.446.722.91.914.1.04.224.062.36.062.635 0 1.503-.457 2.032-1.74.277-.67.342-1.177.198-1.548-.12-.312-.4-.55-.88-.748-.44-.182-.85-.022-1.278.178-.307.143-.625.292-.986.292-.168 0-.334-.033-.493-.1-.53-.218-.864-.585-.992-1.088-.41-1.616 1.604-4.12 1.69-4.226.167-.205.498-.263.725-.126.026.016 2.67 1.606 4.27 1.606.666 0 .857-.277.942-.484.14-.34.045-.766-.056-1.216-.118-.523-.24-1.063-.025-1.582.343-.832 1.014-1.272 1.938-1.272.566 0 1.25.164 2.034.487 1.052.434 1.7.943 1.984 1.556.22.472.21.98-.027 1.55-.34.822-.847 1.167-1.255 1.444-.282.192-.506.343-.616.61-.08.197-.072.384.027.588.495 1.022 2.966 1.91 3.876 2.168.275.077.442.356.382.635-.1.468-1.042 4.575-2.89 4.575-.172 0-.346-.036-.517-.106-.574-.237-.877-.653-1.144-1.02-.247-.34-.46-.632-.86-.798-.16-.066-.316-.1-.463-.1-.737 0-1.237.838-1.526 1.54-.265.643-.316 1.234-.146 1.71.148.413.45.723.875.9.384.158.73.05 1.096-.094.264-.103.537-.21.86-.21.188 0 .37.037.553.113.333.138.56.392.657.737.407 1.454-1.66 4.326-1.898 4.65-.16.216-.49.284-.724.147-.022-.015-2.288-1.34-3.808-1.34-.577 0-.937.194-1.1.59-.094.226-.002.535.104.892.146.49.31 1.044.07 1.632-.228.548-.657 1.276-1.765 1.276zM10.24 14.856c-.265 0-.492.102-.693.313-.883.918-.976 3.56-.937 4.502.36.103 3.557 1.056 4.242 2.474.167.346.18.692.04 1.03-.19.467-.578.64-.952.807-.425.19-.826.37-1.083.993-.114.275-.563 1.698 1.75 2.653.828.34 1.46.506 1.93.506.594 0 .93-.25 1.196-.897.16-.387.038-.794-.09-1.224-.128-.43-.26-.874-.084-1.3.182-.442.62-.97 1.668-.97 1.575 0 3.712 1.19 4.07 1.396.616-.848 2.042-3.103 1.77-4.075-.046-.166-.14-.27-.3-.335-.315-.13-.604-.036-.953.102-.264.103-.562.22-.913.22-.216 0-.426-.043-.64-.132-.583-.24-1.015-.687-1.22-1.26-.22-.62-.165-1.363.158-2.148.654-1.586 1.5-1.92 2.093-1.92.227 0 .462.05.696.147.562.232.86.643 1.124 1.004.25.345.468.643.883.814.096.04.19.06.282.06 1.01 0 1.922-2.44 2.275-4.026-.58-.168-3.523-1.084-4.197-2.47-.177-.364-.19-.73-.042-1.09.18-.44.516-.666.84-.885.375-.255.763-.518 1.03-1.17.17-.41.183-.747.04-1.058-.213-.46-.772-.88-1.662-1.247-.71-.292-1.314-.44-1.8-.44-.684 0-1.12.283-1.37.892-.14.34-.046.765.055 1.214.117.522.237 1.063.023 1.583-.162.394-.556.863-1.51.863-1.674 0-4.185-1.456-4.546-1.67-.548.686-1.815 2.577-1.542 3.652.08.31.286.53.632.673.303.126.626-.013.986-.18.323-.152.69-.323 1.12-.323.22 0 .438.045.652.133.636.262 1.034.62 1.217 1.093.203.525.136 1.18-.203 2.003-.646 1.562-1.766 2.12-2.6 2.12-.215 0-.42-.04-.593-.11-.648-.268-.94-.74-1.198-1.158-.24-.384-.463-.747-.958-.983-.252-.12-.483-.18-.686-.18z"/></svg>