<svg data-name="Layer 1" xmlns="http://www.w3.org/2000/svg" width="36" height="36" viewBox="0 0 36 36"><title>Icon-Red_Hat-Hardware-Virtual_Storage-A-Black-RGB</title><path d="M7.57 12.67A.75.75 0 1 0 7 11.43a.75.75 0 0 0 .09 1.06.74.74 0 0 0 .48.18zm6.6-3.54h.16a.76.76 0 0 0 .58-.89.74.74 0 0 0-.91-.59.75.75 0 0 0 .15 1.48zm-2.43.72a.86.86 0 0 0 .27 0 .76.76 0 1 0-.28 0zM29 14.29a.76.76 0 0 0 .71.5 1 1 0 0 0 .24 0 .75.75 0 0 0 .46-1 .74.74 0 0 0-.95-.46.75.75 0 0 0-.46.96zM6 19.9a.75.75 0 1 0-.75-.75.75.75 0 0 0 .75.75zm0-2.54a.75.75 0 1 0-.75-.75.75.75 0 0 0 .75.75zm.07-2.54a1 1 0 0 0 .24 0 .76.76 0 0 0 .69-.47.75.75 0 0 0-.47-.95.74.74 0 0 0-1 .47.75.75 0 0 0 .54.95zM9.48 11a.75.75 0 1 0-.62-.34.74.74 0 0 0 .62.34zm14.44-1.22a.86.86 0 0 0 .27.05.75.75 0 0 0 .7-.49.73.73 0 0 0-.43-1 .75.75 0 1 0-.54 1.4zm2.13 1.07a.72.72 0 0 0 .4.12.75.75 0 1 0-.4-.12zm3.2 5.69a.75.75 0 1 0 .75-.75.76.76 0 0 0-.75.75zM21.6 9.1h.15a.77.77 0 0 0 .74-.6.76.76 0 0 0-.59-.89.75.75 0 0 0-.88.59.74.74 0 0 0 .58.9zm-2.41-.31a.75.75 0 0 0 .05-1.5.76.76 0 0 0-.8.7.77.77 0 0 0 .75.8zM6.79 21.61a.75.75 0 1 0-.75.83h.09a.76.76 0 0 0 .66-.83zm9.9-12.82a.75.75 0 0 0 .7-.8.75.75 0 1 0-.75.8zm10.37 16.6a.75.75 0 0 0 .5 1.32.72.72 0 0 0 .49-.19.75.75 0 0 0-1-1.13zm1.89-14a.75.75 0 0 0-1.13 1 .76.76 0 0 0 .57.26.72.72 0 0 0 .49-.19.76.76 0 0 0 .12-1.09zM27.75 16c0-3.22-4.28-5.75-9.75-5.75S8.25 12.78 8.25 16v5c0 3.22 4.28 5.75 9.75 5.75s9.75-2.53 9.75-5.75zm-1.5 5c0 2.3-3.78 4.25-8.25 4.25S9.75 23.3 9.75 21v-1.9c1.71 1.6 4.73 2.65 8.25 2.65s6.54-1.05 8.25-2.65zM18 20.25c-4.47 0-8.25-1.95-8.25-4.25s3.78-4.25 8.25-4.25 8.25 1.95 8.25 4.25-3.78 4.25-8.25 4.25zm7.1 6.44a.74.74 0 0 0-.33 1 .75.75 0 0 0 .67.41.71.71 0 0 0 .34-.08.75.75 0 0 0 .33-1 .77.77 0 0 0-1.01-.33zm4.9-8.36a.75.75 0 1 0 .75.75.76.76 0 0 0-.75-.75zm0 2.54a.75.75 0 0 0-.82.67.77.77 0 0 0 .67.83H30a.75.75 0 0 0 .07-1.5zm-.49 2.5a.74.74 0 0 0-1 .27.75.75 0 0 0 .28 1 .79.79 0 0 0 .37.1.76.76 0 0 0 .65-.38.74.74 0 0 0-.26-.99zM13.19 27.6a.75.75 0 0 0-.42 1.4.75.75 0 0 0 .93-.51.75.75 0 0 0-.51-.89zm-6.72-4.17a.75.75 0 0 0 .38 1.4.79.79 0 0 0 .39-.11.75.75 0 1 0-.77-1.29zm4.53 3.3a.74.74 0 1 0-.67 1.33.66.66 0 0 0 .33.09.75.75 0 0 0 .67-.42.74.74 0 0 0-.33-1zm11.93.85a.75.75 0 0 0 .21 1.47.76.76 0 0 0 .21 0 .75.75 0 1 0-.42-1.44zm-15-2.07A.75.75 0 0 0 8 26.57a.74.74 0 0 0 1.05-.08.75.75 0 1 0-1.13-1zm12.57 2.57a.75.75 0 0 0 .11 1.5h.1a.75.75 0 0 0-.21-1.49zm-2.43.17H18a.75.75 0 0 0 0 1.5h.07a.75.75 0 0 0 0-1.5zm-2.51-.16a.75.75 0 1 0-.19 1.49h.1a.75.75 0 0 0 .74-.65.76.76 0 0 0-.65-.84z"/></svg>