<svg xmlns="http://www.w3.org/2000/svg" viewBox="0 0 32 32"><path d="M26.92 13.81c0-.02 0-.03-.01-.05s-.02-.03-.03-.05c-.01-.01-.01-.03-.03-.04-.01-.02-.03-.03-.05-.04-.01-.01-.02-.02-.03-.02l-3.62-1.82c-.04-.02-.08-.03-.12-.03H8.95c-.04 0-.08.01-.12.03l-3.62 1.82c-.01.01-.02.02-.03.02-.02.01-.03.02-.05.04-.01.01-.02.03-.03.04-.01.01-.02.03-.02.04-.01.02-.01.04-.01.06 0 .01-.01.02-.01.03v6.11c0 .15.12.26.26.26h21.35c.15 0 .26-.12.26-.26v-6.11s0-.01-.01-.03zm-.51 3.75H24.1c-.35 0-.65-.29-.65-.65s.29-.65.65-.65h2.31v1.3zm-17.4-5.27h13.98l2.58 1.3H6.43l2.58-1.3zM5.59 19.7v-5.59h20.82V16H24.1c-.5 0-.91.41-.91.91s.41.91.91.91h2.31v1.89L5.59 19.7zm1.03-3.04c-.07.07-.11.16-.11.25s.04.19.11.25c.07.07.16.11.26.11.09 0 .19-.04.25-.11.07-.07.11-.16.11-.25s-.04-.19-.11-.25c-.14-.14-.38-.14-.51 0zm6.27-.11c-.2 0-.36.16-.36.36s.16.36.36.36c.2 0 .36-.16.36-.36s-.16-.36-.36-.36zm4.52 0c-.2 0-.36.16-.36.36s.16.36.36.36c.2 0 .36-.16.36-.36s-.16-.36-.36-.36zm-6.02 0c-.2 0-.36.16-.36.36s.16.36.36.36c.2 0 .36-.16.36-.36s-.17-.36-.36-.36zm-1.51 0c-.2 0-.36.16-.36.36s.16.36.36.36c.2 0 .36-.16.36-.36s-.16-.36-.36-.36zm4.52 0c-.2 0-.36.16-.36.36s.16.36.36.36.36-.16.36-.36-.16-.36-.36-.36zm1.5 0c-.2 0-.36.16-.36.36s.16.36.36.36.36-.16.36-.36-.16-.36-.36-.36zm-7.52 0c-.2 0-.36.16-.36.36s.16.36.36.36c.2 0 .36-.16.36-.36s-.17-.36-.36-.36zm12.04 0c-.2 0-.36.16-.36.36s.16.36.36.36c.2 0 .36-.16.36-.36s-.16-.36-.36-.36zm-1.51 0c-.2 0-.36.16-.36.36s.16.36.36.36.36-.16.36-.36-.16-.36-.36-.36zm2.76.11c-.07.07-.1.16-.1.25 0 .1.04.19.1.25.07.07.16.11.25.11.1 0 .19-.04.26-.1.07-.07.1-.16.1-.26 0-.09-.04-.19-.1-.25-.14-.14-.38-.14-.51 0zM6.62 15.2c-.07.06-.11.16-.11.25s.04.19.11.25c.07.07.16.11.26.11.09 0 .18-.04.25-.11.07-.06.11-.16.11-.25s-.04-.19-.11-.25c-.14-.14-.38-.14-.51 0zm3.26-.11c-.2 0-.36.16-.36.36 0 .2.16.36.36.36.2 0 .36-.16.36-.36s-.16-.36-.36-.36zm1.51 0c-.2 0-.36.16-.36.36 0 .2.16.36.36.36.2 0 .36-.16.36-.36s-.17-.36-.36-.36zm1.5 0c-.2 0-.36.16-.36.36 0 .2.16.36.36.36.2 0 .36-.16.36-.36s-.16-.36-.36-.36zm-4.51 0c-.2 0-.36.16-.36.36 0 .2.16.36.36.36.2 0 .36-.16.36-.36s-.17-.36-.36-.36zm9.03 0c-.2 0-.36.16-.36.36 0 .2.16.36.36.36.2 0 .36-.16.36-.36s-.16-.36-.36-.36zm3.01 0c-.2 0-.36.16-.36.36 0 .2.16.36.36.36.2 0 .36-.16.36-.36s-.16-.36-.36-.36zm-6.02 0c-.2 0-.36.16-.36.36 0 .2.16.36.36.36s.36-.16.36-.36-.16-.36-.36-.36zm4.51 0c-.2 0-.36.16-.36.36 0 .2.16.36.36.36s.36-.16.36-.36-.16-.36-.36-.36zm-3.01 0c-.2 0-.36.16-.36.36 0 .2.16.36.36.36s.36-.16.36-.36-.16-.36-.36-.36zm5.77.11c-.07.07-.1.16-.1.25s.04.19.1.25c.07.07.16.11.25.11.1 0 .19-.04.26-.11.07-.06.1-.16.1-.25s-.04-.19-.1-.25c-.14-.14-.38-.14-.51 0zM6.62 18.11c-.07.07-.11.16-.11.26 0 .09.04.19.11.25.07.07.16.1.26.1.09 0 .18-.04.25-.1.07-.07.11-.16.11-.25 0-.1-.04-.19-.11-.26-.14-.13-.38-.13-.51 0zm1.76-.1c-.2 0-.36.16-.36.36s.16.36.36.36c.2 0 .36-.16.36-.36s-.17-.36-.36-.36zm9.03 0c-.2 0-.36.16-.36.36s.16.36.36.36c.2 0 .36-.16.36-.36s-.16-.36-.36-.36zm-1.51 0c-.2 0-.36.16-.36.36s.16.36.36.36.36-.16.36-.36-.16-.36-.36-.36zm3.01 0c-.2 0-.36.16-.36.36s.16.36.36.36.36-.16.36-.36-.16-.36-.36-.36zm1.51 0c-.2 0-.36.16-.36.36s.16.36.36.36c.2 0 .36-.16.36-.36s-.16-.36-.36-.36zm-6.02 0c-.2 0-.36.16-.36.36s.16.36.36.36.36-.16.36-.36-.16-.36-.36-.36zm-3.01 0c-.2 0-.36.16-.36.36s.16.36.36.36c.2 0 .36-.16.36-.36s-.17-.36-.36-.36zm1.5 0c-.2 0-.36.16-.36.36s.16.36.36.36c.2 0 .36-.16.36-.36s-.16-.36-.36-.36zm-3.01 0c-.2 0-.36.16-.36.36s.16.36.36.36c.2 0 .36-.16.36-.36s-.16-.36-.36-.36zm11.79.1c-.07.07-.1.16-.1.26 0 .09.04.19.1.25.07.07.16.1.25.1.1 0 .19-.04.26-.1.07-.07.1-.16.1-.25 0-.1-.04-.19-.1-.25-.14-.14-.38-.14-.51-.01z"/></svg>