<svg data-name="industry" xmlns="http://www.w3.org/2000/svg" viewBox="0 0 36 36"><title>Icon-Red_Hat-Buildings-Industry-A-Black-RGB</title><path d="M29 11.25h-1.25V7a.76.76 0 0 0-.75-.75h-3a.76.76 0 0 0-.75.75v4.25h-.5V7a.76.76 0 0 0-.75-.75h-3a.76.76 0 0 0-.75.75v4.25H17a.76.76 0 0 0-.75.75v5.25h-3.5V8a.76.76 0 0 0-.75-.75H9a.76.76 0 0 0-.75.75v9.25H7a.76.76 0 0 0-.75.75v11a.76.76 0 0 0 .75.75h22a.76.76 0 0 0 .75-.75V12a.76.76 0 0 0-.75-.75zm-4.25-3.5h1.5v3.5h-1.5zm-5 0h1.5v3.5h-1.5zm-10 1h1.5v8.5h-1.5zm13.5 19.5h-2.5v-4.5h2.5zm5 0h-3.5V23a.76.76 0 0 0-.75-.75h-4a.76.76 0 0 0-.75.75v5.25H7.75v-9.5h20.5zm0-11h-10.5v-4.5h10.5z"/></svg>