<svg data-name="Layer 1" xmlns="http://www.w3.org/2000/svg" viewBox="0 0 36 36"><title>Icon-Red_Hat-Gift_box-A-Black-RGB</title><path d="M29.53 14.188a.745.745 0 0 0-.53-.22h-6.38l1.26-.42a.644.644 0 0 0 .06-.024.654.654 0 0 0 .06-.03 3.877 3.877 0 0 0 .75-.36 3.59 3.59 0 0 0 .638-.506 3.747 3.747 0 0 0-5.3-5.3 3.67 3.67 0 0 0-.494.618 3.81 3.81 0 0 0-.354.722c-.013.022-.024.044-.035.067s-.02.047-.027.07l-.945 2.837-.234.7-.043-.128-.757-2.258-.023-.06s-.018-.037-.03-.056a3.23 3.23 0 0 0-.3-.623 3.035 3.035 0 0 0-.42-.53 3.153 3.153 0 1 0-4.46 4.46 3.025 3.025 0 0 0 .514.413 3.193 3.193 0 0 0 .607.3l.06.03s.042.017.064.024l.165.055H7a.75.75 0 0 0-.75.75v4.4a.75.75 0 0 0 .75.75h1.45v9.15a.75.75 0 0 0 .75.75h17.6a.75.75 0 0 0 .75-.75v-9.15H29a.75.75 0 0 0 .75-.75v-4.4a.745.745 0 0 0-.22-.532zm-14.28 7.68v6.4h-5.3v-8.4h5.3zm0-3.5h-7.5v-2.9h7.5zm.055-5.34l-1.51-.5-.056-.026c-.02-.01-.04-.016-.06-.023a1.74 1.74 0 0 1-.356-.162 1.53 1.53 0 0 1-.293-.23 1.653 1.653 0 1 1 2.338-2.337 1.52 1.52 0 0 1 .232.3 1.71 1.71 0 0 1 .163.367c.007.02.014.04.023.06a.645.645 0 0 0 .03.06l.5 1.5.5 1.5zm3.945 6.09v9.15h-2.5v-12.8h2.5zm-.064-5.587l.688-2.063.688-2.067.032-.064.026-.068a2.278 2.278 0 0 1 .218-.48 2.113 2.113 0 0 1 .312-.4 2.247 2.247 0 0 1 3.178 3.177 2.09 2.09 0 0 1-.41.317 2.365 2.365 0 0 1-.5.22l-.062.025-.062.03-2.057.687zm6.864 10.163v4.575h-5.3v-8.4h5.3zm2.2-6.775v1.45h-7.5v-2.9h7.5z"/></svg>