<svg xmlns="http://www.w3.org/2000/svg" width="32" height="32" viewBox="0 0 32 32"><path d="M25.576 9.326c-.028-.058-.078-.102-.14-.12l-.818-.26c-.114-.037-.236.022-.282.132l-2.34 5.727H10.003l-2.34-5.727c-.046-.11-.168-.17-.282-.132l-.82.26c-.06.018-.11.062-.14.12s-.028.125-.004.185l2.164 5.295h-.536c-.127 0-.23.103-.23.23v1.156c0 .128.103.23.23.23h.306l.497 7.028c.003.055.025.102.054.145-.47.242-.793.726-.793 1.29 0 .8.653 1.453 1.456 1.453.802 0 1.454-.653 1.454-1.454 0-.47-.226-.882-.572-1.15-.246-.188-.55-.305-.882-.305.333 0 .637.118.882.306H21.69c.246-.19.55-.306.882-.306-.334 0-.637.118-.882.306-.346.266-.572.68-.572 1.15 0 .8.653 1.453 1.455 1.453s1.455-.653 1.455-1.454c0-.563-.325-1.047-.793-1.29.03-.042.05-.09.055-.144l.497-7.027h.21c.128 0 .23-.102.23-.23v-1.155c0-.127-.102-.23-.23-.23h-.578l2.163-5.294c.024-.06.022-.126-.005-.184zM6.94 9.568l.378-.12 2.19 5.357H9.08L6.94 9.568zm3.632 15.314c0 .555-.452 1.007-1.007 1.007s-1.007-.453-1.007-1.008c0-.555.452-1.007 1.007-1.007s1.007.452 1.007 1.007zM9.166 23.49c.072-.023.146-.04.223-.05-.078.01-.15.028-.224.05zm.275-.37l-.467-6.622h1.672l.238 1.486c.018.112.114.194.226.194h1.194c.126 0 .23-.103.23-.23v-1.45h7.206v1.45c0 .127.103.23.23.23h1.194c.113 0 .21-.082.227-.194l.238-1.486h1.535l-.467 6.622H9.44zm14.14 1.762c0 .555-.452 1.007-1.007 1.007-.556 0-1.006-.453-1.006-1.008 0-.555.45-1.007 1.006-1.007.555 0 1.007.452 1.007 1.007zm.186-9.617v.696h-2.32c-.113 0-.21.083-.226.195l-.25 1.563h-.77V16.19c0-.126-.102-.23-.23-.23h-7.665c-.127 0-.23.104-.23.23v1.528h-.77l-.25-1.563c-.017-.112-.113-.194-.226-.194H8.276v-.695h15.49zm-.845-.46h-.427l2.19-5.357.378.12-2.14 5.237zm-7.077-1.03c.058.066.14.103.227.103s.17-.037.228-.102l3.11-3.454c.162-.217.186-.458.06-.645-.136-.206-.353-.284-.566-.21l-1.137.11V5.97c0-.17-.137-.306-.306-.306s-.307.137-.307.306v3.946c0 .086.037.17.1.227s.15.086.237.078l1.3-.124-2.718 3.018-2.72-3.018 1.302.126c.087.008.172-.02.236-.078s.1-.14.1-.227V5.97c0-.17-.136-.305-.305-.305-.17 0-.306.137-.306.306v3.61l-1.138-.11c-.212-.075-.43.002-.567.21-.125.185-.1.427.08.665l3.09 3.432z"/></svg>