<svg xmlns="http://www.w3.org/2000/svg" width="32" height="32" viewBox="0 0 32 32"><path d="M14.217 22.14c.066-.015.12-.06.147-.12l2.385-5.435c.028-.065.02-.14-.018-.2-.04-.06-.105-.096-.176-.096l-2.474-.013 3.93-5.11-1.44 4.1c-.02.064-.012.136.028.192.04.055.104.088.17.09l2.627.012-4.54 6.985c-.06.09-.045.21.038.28l.088.077c.357.305.505.432.95.8.038.03.086.047.133.047.048 0 .096-.015.134-.047 6.273-5.196 7.374-7.266 7.482-7.492 1.396-2.14 1.08-3.913.567-5.025-.555-1.202-1.43-1.886-1.473-1.92-.925-.674-1.873-1.016-2.818-1.016-2.048 0-3.495 1.574-3.98 2.185-.483-.61-1.93-2.186-3.976-2.186-.946 0-1.894.34-2.822 1.018-.037.027-.894.683-1.437 1.87-.503 1.097-.817 2.868.537 5.076.075.138 1.02 1.777 5.75 5.88.05.044.12.06.185.046zm-5.564-6.13l-.007-.013c-1.008-1.64-1.184-3.21-.522-4.668.497-1.097 1.307-1.72 1.312-1.724.85-.62 1.715-.936 2.57-.936 2.26 0 3.787 2.212 3.802 2.235.04.058.105.092.175.092.07 0 .135-.035.174-.092.016-.023 1.542-2.235 3.803-2.235.854 0 1.718.314 2.565.932.008.006.84.66 1.348 1.773.674 1.476.49 3.03-.55 4.616-.007.01-.012.02-.017.03-.01.02-.958 2.025-7.24 7.244-.32-.266-.472-.396-.752-.634l4.658-7.158c.045-.064.05-.148.014-.218-.037-.07-.108-.113-.186-.114l-2.73-.014 1.73-4.932c.034-.097-.006-.203-.095-.254-.09-.05-.2-.03-.267.05l-4.965 6.36c-.052.062-.063.15-.03.223.036.074.11.12.19.122l2.6.013-2.14 4.877c-4.566-3.987-5.433-5.56-5.44-5.576z"/></svg>