<svg xmlns="http://www.w3.org/2000/svg" viewBox="0 0 31.68 31.68"><path d="M12.66 15.66h6.36c.12 0 .22-.1.22-.22 0-.03-.01-.06-.02-.08l-.09-.22c-.07-.19-.15-.37-.23-.54-.1-.13-.26-.21-.42-.18h-5.43c-.11 0-.22.06-.27.16l-.05.09c-.13.23-.21.49-.25.75-.02.12.06.23.18.24zm.44-.79l.02-.03h5.42c.05.12.1.23.16.37h-5.75c.04-.12.09-.23.15-.34z"/><path d="M20.78 23.86c-.28-1.61-1.2-2.88-2.71-3.79-.53-.32-1.09-.6-1.62-.88-.35-.18-.71-.37-1.05-.56-.35-.19-.68-.41-1-.64h2.88l-.55.42c-.1.07-.12.21-.05.3l.03.03.02.02c.03.03.06.05.1.07l.07.04c.43.22.87.45 1.3.67.05.02.1.03.15.03.08 0 .15-.02.22-.07.68-.47 1.26-1.06 1.73-1.74.15-.23.26-.47.35-.73.27-.83.25-1.73-.06-2.55-.02-.05-.04-.09-.05-.14-.45-1.14-1.5-1.92-2.25-2.42-.54-.36-1.12-.65-1.67-.95-.28-.15-.55-.29-.82-.43l-.82-.46h.64c.37 0 1.09 0 1.63-.03-.09.06-.17.13-.25.22-.06.07-.09.16-.09.25.02.12.1.22.22.26.32.16.63.31.95.47.12.06.25.1.39.1.19-.01.38-.08.52-.22 1.12-.9 1.79-2.25 1.84-3.68.03-.36-.14-.7-.45-.89-.29-.19-.65-.22-.97-.07-.31.16-.53.47-.56.82H12.9v-.06c-.07-.52-.53-.9-1.06-.87-.53.03-.94.48-.92 1.01.02.92.3 1.82.81 2.59.51.73 1.18 1.33 1.96 1.77.63.37 1.2.68 1.76.94l.47.22c.31.14.62.28.93.43l.08.04c.25.12.43.22.55.28h-3.12c.17-.11.34-.21.52-.31.07-.04.11-.11.12-.19 0-.08-.04-.15-.11-.19-.28-.17-.58-.33-.87-.49-.18-.1-.36-.19-.53-.29-.59-.34-1.25.57-1.57 1l-.06.09c-.61.77-.94 1.72-.95 2.7.04 2.08 1.99 3.45 2.83 3.94.64.38 1.3.74 1.95 1.09.34.19.69.37 1.03.57.17.09.33.19.48.29-.27-.02-.87-.05-1.15-.06-.28-.01-.99-.02-1.44-.05l.26-.19c.11-.04.18-.16.14-.27-.02-.05-.05-.09-.1-.12l-.38-.22c-.29-.17-.57-.32-.87-.51-.19-.14-.45-.12-.62.04-.52.41-.97.9-1.34 1.45-.42.62-.69 1.33-.77 2.07-.06.43.12.85.47 1.11.15.11.33.16.51.16.5-.01.93-.38.99-.88v-.05c.83 0 1.71.05 2.57.09.94.02 2.54.06 3.47.06.09.39.42.69.82.74h.14c.36 0 .69-.2.87-.51.06-.26.09-.57.01-.87zm-.46.69c-.11.2-.34.32-.57.29-.23-.03-.42-.2-.47-.43 0-.03-.01-.07-.02-.1-.02-.13-.13-.22-.25-.22h-1.13c-.81 0-1.65-.05-2.46-.09-.92-.05-1.88-.09-2.78-.09-.11 0-.2.08-.22.19l-.03.23c-.03.28-.25.49-.53.52-.32 0-.58-.25-.58-.57v-.07c.06-.73.31-1.43.72-2.03.34-.52.76-.97 1.25-1.35.02-.02.04-.03.06-.04.02.01.04.01.05.03.31.19.59.35.89.52l.08.05-.06.05c-.37.3-.47.38-.42.55s.07.22 2.13.27h.27l1.35.04h.16c.12-.01.21-.11.21-.23 0-.05-.03-.11-.06-.15-.31-.27-.66-.51-1.02-.71-.34-.2-.69-.38-1.04-.57-.64-.35-1.3-.7-1.93-1.09-.77-.45-2.57-1.71-2.61-3.58.01-.88.32-1.74.87-2.43l.07-.09c.54-.74.81-.9.94-.9.02 0 .04.01.06.02l.54.3c.18.1.35.19.53.29-.26.16-.51.33-.74.53-.09.09-.1.23-.01.33.04.05.11.08.17.08h4.15c.09 0 .16-.06.2-.14l.03-.07c.12-.3-.25-.54-1.02-.89l-.1-.06c-.31-.16-.63-.3-.94-.43l-.47-.22c-.55-.25-1.11-.56-1.72-.92-.72-.41-1.34-.97-1.81-1.65-.46-.7-.72-1.52-.73-2.37-.01-.3.22-.55.52-.56.3-.02.56.2.59.49 0 .05.01.1.02.15v.08c.01.11.11.2.22.2H19.05c.09 0 .17-.07.17-.17 0-.07.02-.14.02-.2.01-.22.14-.41.33-.51.18-.08.38-.06.54.05.17.1.27.3.25.5-.03 1.32-.65 2.56-1.68 3.38-.1.13-.3.16-.43.07-.27-.13-.55-.26-.82-.4l.08-.06.07-.05c.18-.13.37-.26.54-.42.07-.06.08-.17.02-.25-.03-.04-.08-.06-.14-.06l-2.4.03H14.15c-.1 0-.19.06-.22.16s.01.2.1.25c.51.29 1.03.59 1.54.87.28.15.55.3.83.45.53.3 1.11.6 1.62.95.7.46 1.68 1.19 2.09 2.22.02.04.03.08.05.13.28.73.3 1.53.07 2.27-.07.23-.18.45-.31.65-.43.62-.96 1.16-1.58 1.59l-1.11-.57.77-.57c.08-.06.11-.16.08-.25l-.01-.05c-.02-.09-.11-.16-.2-.17h-3.7c-.27 0-.63-.05-.7.09-.05.07-.04.17.03.22.22.17.43.33.65.49.33.24.68.46 1.04.65.35.19.71.38 1.06.56.53.27 1.09.56 1.59.87 1.4.84 2.25 2.02 2.51 3.49.07.22.05.44-.03.63z"/><path d="M18.74 22.87c-.11-.16-.29-.27-.48-.27-.14 0-.28-.01-.27 0-.96-.04-3.94-.16-4.35-.17-.03 0-.35-.04-.48.17-.08.13-.17.27-.27.42l-.15.22c-.07.1-.04.23.06.3.03.02.07.04.11.04h.28c.7 0 1.45.05 2.17.09.72.04 1.44.09 2.13.09h1.25c.16 0 .28-.13.28-.28 0-.03-.01-.07-.02-.1-.08-.19-.17-.36-.26-.51zm-.31.43v.01c-.72 0-2.28-.05-3.04-.09-.69-.04-1.4-.08-2.07-.09.07-.1.13-.19.19-.29h.12c.42 0 3.7.19 4.52.18.1 0 .2.05.26.14.03.05.05.09.07.14h-.05zM18.67 17.18c.11 0 .22-.06.27-.16l.06-.08c.13-.23.21-.49.25-.75.01-.12-.07-.23-.19-.24h-6.37c-.12 0-.22.1-.22.22 0 .03.01.06.02.09l.1.22c.07.19.15.37.23.54.1.13.26.2.42.18h5.43zm-5.5-.43c-.06-.12-.11-.24-.15-.37h5.74c-.04.12-.08.24-.15.35l-.02.03H16.19l-2.96-.01h-.06zM17.56 9.24h.06l.97-.01c.06 0 .12-.03.16-.09.17-.29.29-.6.36-.92.02-.07-.03-.14-.1-.16h-4.12c-.59 0-2.02.03-2.04.03-.12 0-.22.1-.22.22 0 .04.01.08.03.11l.09.18c.08.18.17.36.27.53.09.12.24.19.4.17.64 0 2.72-.02 4.14-.06zm-4.2-.38c-.06-.11-.12-.22-.17-.33.46 0 1.28-.03 1.69-.03H18.45c.04 0 .07-.01.11-.01-.04.11-.08.21-.13.31-1.18.02-3.99.06-4.94.06h-.13z"/></svg>