<svg xmlns="http://www.w3.org/2000/svg" viewBox="0 0 36 36"><title>Icon-Red_Hat-Diagrams-DevOps-A-Black-RGB</title><path d="M26.17 11.42a6.51 6.51 0 0 0-3.52 1 7 7 0 0 0-1.26 1l-.67.67V13a.75.75 0 0 0-1.5 0v3a.76.76 0 0 0 .23.54.73.73 0 0 0 .48.18h3a.75.75 0 0 0 0-1.5h-1.19l.71-.7a6.25 6.25 0 0 1 1-.83 5.08 5.08 0 1 1 2.72 9.38c-1.92 0-3.12-1.06-4.61-2.55l-4.16-4.21-2-2c-1.41-1.43-3.17-2.88-5.59-2.88a6.58 6.58 0 0 0 0 13.16 6.79 6.79 0 0 0 4.7-2l.73-.73V23a.75.75 0 1 0 1.5 0v-3a.8.8 0 0 0-.05-.21.61.61 0 0 0-.05-.12l-.06-.08a.73.73 0 0 0-.59-.31H13a.75.75 0 0 0 0 1.5h1.21l-.71.72a5.19 5.19 0 0 1-3.67 1.63 5.08 5.08 0 0 1 0-10.16c1.86 0 3.33 1.23 4.52 2.43l2 2 4.17 4.22c1.68 1.7 3.17 3 5.67 3a6.58 6.58 0 0 0 0-13.16z"/></svg>