<svg data-name="belt" xmlns="http://www.w3.org/2000/svg" viewBox="0 0 36 36"><title>Icon-Red_Hat-</title><path d="M32 12.3H21.62v-.13a.75.75 0 0 0-.75-.75h-4.18a.75.75 0 0 0-.75.75v.08l-.94-.69a.76.76 0 0 0-1.05.17l-.41.57H4a.75.75 0 0 0-.75.75v4.5a.76.76 0 0 0 .75.75h6.33l-2.56 1.89a.74.74 0 0 0-.16 1l2.64 3.64a.77.77 0 0 0 .49.3h.12a.78.78 0 0 0 .44-.13l6-4.42 9.39 6.82a.72.72 0 0 0 .44.14.74.74 0 0 0 .61-.31l2.64-3.64a.74.74 0 0 0-.17-1l-5.9-4.29H32a.76.76 0 0 0 .75-.75v-4.5a.75.75 0 0 0-.75-.75zm-17.28.91l1.22.89v3.71l-3-2.17zm-10 3.59v-3h7.7l-1.14 1.57a.73.73 0 0 0 .16 1l.53.39zM11 23.38L9.26 21l4.19-3.11 2.55 1.8zm6.42-4.66v-5.8h2.68v4.55a1.25 1.25 0 0 1-1.25 1.25zm11.25 4.64l-1.77 2.43-7.7-5.6a2.75 2.75 0 0 0 2.3-2l1.41 1zm2.56-6.56h-9l-.59-.43V13.8h9.63z"/></svg>