<svg xmlns="http://www.w3.org/2000/svg" viewBox="0 0 31.68 31.68"><path d="M12.02 18.47c.06.1.16.16.27.16.06 0 .11-.01.16-.04l3.3-1.91-3.3-1.91c-.13-.12-.34-.11-.46.02s-.11.34.02.46c.03.03.07.05.12.07l2.36 1.36-2.36 1.36c-.15.09-.2.28-.11.43zm4.01.16h3.81c.17-.04.28-.22.23-.39-.03-.12-.12-.21-.23-.23h-3.81c-.17-.04-.35.06-.39.23s.06.35.23.39c.06.01.11.01.16 0zm4.21-10.7c-.26 0-.47.21-.47.47s.21.47.47.47.47-.21.47-.47c-.01-.27-.22-.47-.47-.47zm1.52 0c-.26 0-.47.21-.47.47s.21.47.47.47.47-.21.47-.47c0-.27-.21-.47-.47-.47zm2.25-1.4H7.68c-.64 0-1.16.52-1.16 1.16V24c0 .64.52 1.16 1.16 1.16H24c.64 0 1.16-.52 1.16-1.16V7.68c0-.64-.52-1.16-1.15-1.15-.01-.01-.01-.01 0 0zm.57 17.48c0 .32-.26.58-.58.58H7.68c-.32 0-.58-.26-.58-.58V10.07h17.48v13.94zm0-14.41H7.1V7.68c0-.32.26-.58.58-.58H24c.32 0 .58.26.58.58V9.6zm-1.29-1.67c-.26 0-.47.21-.47.46 0 .26.21.47.46.47.26 0 .47-.21.47-.46v-.01c0-.26-.21-.46-.46-.46z"/></svg>