<svg xmlns="http://www.w3.org/2000/svg" viewBox="0 0 31.68 31.68"><path d="M28.78 10.01v11.65c0 .18-.15.33-.33.33H3.23c-.18 0-.33-.15-.33-.33V10.01c0-.18.15-.33.33-.33h25.22c.18 0 .33.15.33.33zm-.66.34H3.56v10.54h24.55c.01 0 .01-10.54.01-10.54z"/><path d="M6.15 20.05c.09 0 .17-.07.17-.17v-8.54c0-.09-.07-.17-.17-.17-.09 0-.17.08-.17.17v8.54c0 .1.08.17.17.17zM9.37 20.05c.09 0 .17-.07.17-.17v-8.54c0-.09-.07-.17-.17-.17s-.17.07-.17.17v8.54c.01.1.08.17.17.17zM12.61 20.05c.09 0 .17-.07.17-.17v-8.54c0-.09-.07-.17-.17-.17-.09 0-.17.07-.17.17v8.54c0 .1.07.17.17.17zM15.84 20.11c.09 0 .17-.07.17-.17V11.4c0-.09-.07-.17-.17-.17s-.17.07-.17.17v8.54c0 .09.08.17.17.17zM19.07 20.05c.09 0 .17-.07.17-.17v-8.54c0-.09-.07-.17-.17-.17-.09 0-.17.07-.17.17v8.54c.01.1.08.17.17.17zM22.31 20.05c.09 0 .17-.07.17-.17v-8.54c0-.09-.07-.17-.17-.17-.09 0-.17.07-.17.17v8.54c0 .1.07.17.17.17zM25.54 20.05c.09 0 .17-.07.17-.17v-8.54c0-.09-.07-.17-.17-.17-.09 0-.17.07-.17.17v8.54c0 .1.08.17.17.17z"/></svg>