<svg xmlns="http://www.w3.org/2000/svg" width="32" height="32" viewBox="0 0 32 32"><path d="M22.024 18.95c-.28-.606-.722-1.12-1.283-1.49.024-.083.036-.17.036-.256 0-.538-.438-.976-.975-.976-.41 0-.78.264-.918.65-.03-.003-.06-.004-.092-.004-.807 0-1.593.277-2.222.78l-.315-.256c-.024-.02-.055-.03-.087-.03l-.044.006c-.044.016-.077.05-.09.096l-.298 1.14c-.33.55-.504 1.18-.504 1.822 0 .07.002.14.006.21-.33.163-.54.5-.54.87 0 .54.437.976.974.976.066 0 .133-.007.2-.022.474.68 1.166 1.17 1.96 1.393l-.032.37c-.004.046.016.09.052.12.025.02.054.03.086.03.015 0 .03-.002.045-.008l1.125-.396c.62-.055 1.218-.274 1.73-.635.162.113.356.174.55.174.54 0 .977-.438.977-.975 0-.268-.11-.52-.302-.706.19-.444.288-.916.288-1.402 0-.09-.004-.18-.01-.274l.4-.128c.044-.014.078-.05.09-.096.012-.044 0-.093-.03-.128l-.776-.858zM19.24 17c.086-.235.31-.393.56-.393.33 0 .6.268.6.598 0 .048-.007.1-.022.152-.017.066-.045.127-.082.182-.11.163-.296.26-.494.26-.33 0-.598-.267-.597-.604 0-.067.013-.133.036-.196zm-3.28 5.04c-.058.032-.123.054-.194.065-.03.005-.06.008-.094.008-.33 0-.598-.268-.598-.597 0-.215.118-.414.305-.52.06-.035.124-.058.194-.07.032-.005.065-.008.098-.008.33 0 .598.268.598.598 0 .217-.118.417-.31.523zm4.61 1.03c-.482.326-1.04.513-1.622.542l-.856-.49c-.02-.013-.044-.02-.068-.02-.022 0-.044.006-.063.016-.04.02-.068.062-.073.11l-.022.25c-.65-.2-1.227-.608-1.636-1.163.26-.18.418-.48.418-.8 0-.537-.438-.975-.976-.975-.02 0-.04 0-.06.002-.002-.036-.003-.072-.003-.11 0-.617.177-1.217.516-1.734l.885-.432c.043-.02.072-.06.078-.108s-.013-.094-.05-.122l-.167-.136c.552-.418 1.23-.647 1.922-.647h.037c.025.516.452.927.974.927.303 0 .586-.14.77-.378.516.35.913.833 1.152 1.4l-.123.987c-.007.046.01.093.046.122.024.022.055.033.088.033l.23-.067c.004.05.006.103.006.155 0 .412-.08.814-.235 1.196-.113-.044-.23-.066-.35-.066-.538 0-.975.438-.975.976 0 .19.053.37.157.53zm.818.068c-.116 0-.228-.034-.325-.097-.056-.035-.106-.08-.147-.135-.082-.106-.124-.23-.124-.364 0-.33.268-.597.597-.597.09 0 .176.02.26.06.06.03.115.07.162.117.113.113.175.263.175.422 0 .33-.27.597-.598.597zm4.087-10.93c-.898-2.935-3.636-4.97-6.72-4.97-3.092 0-5.806 2.016-6.713 4.94-.504-.18-1.03-.27-1.57-.27-2.186 0-4.067 1.504-4.563 3.612-1.955.072-3.6 1.43-4.037 3.35-.02.087 0 .178.057.248.055.07.14.11.227.11h10.05c-.044.312-.07.63-.07.955 0 3.665 2.983 6.647 6.648 6.647 3.665 0 6.647-2.982 6.647-6.647 0-.325-.025-.643-.07-.955h4.39c.142 0 .263-.102.287-.242.06-.357.09-.685.09-1.004 0-2.79-1.947-5.19-4.657-5.774zm-6.688 14.01c-3.327 0-6.034-2.708-6.034-6.035s2.707-6.034 6.034-6.034 6.034 2.706 6.034 6.033c0 3.327-2.706 6.034-6.033 6.034zm10.717-7.573h-4.252c-.696-2.926-3.33-5.11-6.465-5.11s-5.77 2.184-6.465 5.11h-9.78c.502-1.514 1.905-2.542 3.55-2.542h.003l.045.002c.148.014.268-.098.294-.24.354-1.953 2.053-3.37 4.04-3.37.532 0 1.05.105 1.54.304.305.147.955.523 1.356 1.197.048.08.138.12.226.103.025-.005.05-.013.074-.028.104-.062.138-.196.076-.3-.346-.58-.837-.96-1.21-1.187.758-2.806 3.305-4.762 6.22-4.762 2.802 0 5.273 1.79 6.12 4.44-.753-.004-1.312.268-1.345.282-.11.046-.164.174-.117.286.046.112.174.166.285.12.008-.004.78-.31 1.655-.165 2.44.527 4.198 2.685 4.198 5.198.002.213-.013.432-.045.664z"/></svg>