<svg xmlns="http://www.w3.org/2000/svg" viewBox="0 0 32 32"><path fill="#010101" d="M15.12 15.194h-4.824c-.57 0-1.03-.462-1.03-1.03v-2.996c0-.568.46-1.03 1.03-1.03h4.825c.57 0 1.032.46 1.032 1.03v2.995c0 .57-.462 1.03-1.03 1.03zm-4.824-4.76c-.405 0-.735.33-.735.734v2.995c0 .405.33.735.736.735h4.825c.406 0 .736-.33.736-.735v-2.995c0-.405-.33-.734-.735-.734h-4.824zM22.923 11.38H17.14c-.082 0-.148-.065-.148-.147 0-.082.066-.148.148-.148h5.782c.082 0 .148.066.148.148 0 .082-.065.148-.147.148zM22.923 12.814H17.14c-.082 0-.148-.066-.148-.148s.066-.148.148-.148h5.782c.082 0 .148.066.148.148s-.065.148-.147.148zM22.923 14.247H17.14c-.082 0-.148-.066-.148-.148 0-.083.066-.15.148-.15h5.782c.082 0 .148.067.148.15 0 .08-.065.147-.147.147z"/><path fill="#010101" d="M12.71 14.23c-.89 0-1.614-.724-1.614-1.614s.724-1.614 1.613-1.614c.89 0 1.613.724 1.613 1.614S13.6 14.23 12.71 14.23zm0-2.93c-.727 0-1.318.59-1.318 1.316s.59 1.317 1.317 1.317c.726 0 1.317-.59 1.317-1.317S13.435 11.3 12.71 11.3z"/><path fill="#010101" d="M12.256 13.392c-.027 0-.054-.007-.077-.022-.045-.027-.072-.075-.072-.126V11.99c0-.05.027-.1.07-.126.045-.027.1-.03.145-.006l1.23.62c.05.026.082.077.083.133 0 .057-.03.108-.08.133l-1.23.632c-.024.01-.047.017-.07.017zm.148-1.16V13l.757-.39-.756-.38z"/><path d="M24.543 18.863H7.7c-.654 0-1.185-.532-1.185-1.185V7.158c0-.655.532-1.186 1.185-1.186h16.843c.654 0 1.185.532 1.185 1.185v10.52c0 .655-.532 1.186-1.185 1.186zM7.7 6.565c-.327 0-.593.266-.593.593v10.52c0 .328.266.594.593.594h16.843c.327 0 .593-.266.593-.593V7.156c0-.327-.266-.593-.593-.593H7.7z"/><path d="M23.632 17.547H8.612c-.41 0-.742-.332-.742-.74V8.028c0-.41.332-.742.74-.742h15.023c.41 0 .74.332.74.74v8.777c0 .41-.332.742-.74.742zM8.612 7.585c-.246 0-.445.2-.445.444v8.775c0 .245.2.444.444.444h15.023c.245 0 .444-.2.444-.445V8.03c0-.246-.2-.445-.444-.445H8.61zM20.68 20.166h-9.233c-.164 0-.296-.133-.296-.296 0-.164.134-.296.297-.296h9.234c.165 0 .297.133.297.296 0 .164-.132.296-.296.296z"/><path d="M13.478 20.128c-.164 0-.296-.133-.296-.296v-1.264c0-.164.133-.296.296-.296.164 0 .296.133.296.296v1.264c0 .163-.133.296-.296.296zM18.727 20.128c-.164 0-.296-.133-.296-.296v-1.264c0-.164.134-.296.297-.296.164 0 .296.133.296.296v1.264c0 .163-.132.296-.296.296zM11.447 21.43c-.164 0-.296-.133-.296-.296V19.87c0-.164.134-.296.297-.296.164 0 .296.133.296.296v1.264c0 .164-.132.296-.296.296zM20.68 21.43c-.163 0-.295-.133-.295-.296V19.87c0-.164.133-.296.296-.296.165 0 .297.133.297.296v1.264c0 .164-.132.296-.296.296z"/><path d="M26.722 26.028H5.278c-.253 0-.49-.1-.67-.277-.18-.178-.278-.416-.278-.67 0-.252.1-.49.278-.67l2.41-2.483c.065-.61.583-1.09 1.21-1.09H23.77c.63 0 1.147.48 1.21 1.09l2.414 2.487c.176.176.274.414.274.667s-.098.492-.277.67c-.178.18-.415.278-.668.278zM8.23 21.43c-.345 0-.624.28-.624.623 0 .077-.03.15-.084.206l-2.49 2.565c-.07.07-.108.16-.108.254s.037.183.104.25.156.104.25.104h21.444c.095 0 .184-.037.25-.104.068-.067.105-.156.105-.25 0-.096-.037-.185-.104-.252l-2.494-2.57c-.055-.054-.085-.128-.085-.205 0-.344-.28-.623-.623-.623H8.23z"/><path fill="#010101" d="M23.707 22.317H8.305c-.082 0-.148-.066-.148-.148s.066-.15.148-.15h15.402c.082 0 .148.067.148.15s-.066.147-.148.147zM24.32 23.35H7.693c-.082 0-.148-.065-.148-.147s.066-.148.148-.148H24.32c.082 0 .148.066.148.148s-.066.148-.147.148zM25.24 24.386H6.773c-.082 0-.148-.066-.148-.148s.066-.148.148-.148H25.24c.082 0 .148.066.148.148s-.066.148-.148.148z"/></svg>