<svg xmlns="http://www.w3.org/2000/svg" viewBox="0 0 36 36"><path d="M16.994 4.756c.414 0 .75.335.75.75s-.336.748-.75.748-.75-.335-.75-.75.336-.748.75-.748zm2 7c.414 0 .75.335.75.75s-.336.748-.75.748-.75-.335-.75-.75.336-.748.75-.748zm-1.99 4.996c.413 0 .748.335.748.75s-.335.748-.75.748-.748-.335-.748-.75.336-.748.75-.748zM12.4 31.25h11.2c1.74 0 3.152-1.414 3.15-3.155 0-.35-.058-.7-.173-1.03L21.75 13.18V8.25H22c.413 0 .75-.336.75-.75s-.337-.75-.75-.75h-1c-.415 0-.75.336-.75.75v5.807c.006.083.02.165.04.246l2.154 6.2h-8.89l2.153-6.2c.02-.08.035-.163.042-.246V7.5c0-.414-.337-.75-.75-.75h-1c-.415 0-.75.336-.75.75s.335.75.75.75h.25v4.93L9.423 27.064c-.115.332-.174.68-.174 1.03-.002 1.742 1.41 3.155 3.15 3.156zm11.197-1.5h-11.2c-.91 0-1.65-.738-1.65-1.65 0-.184.03-.368.092-.543l2.19-6.307h9.934l2.192 6.307c.06.175.092.36.092.544 0 .912-.74 1.65-1.65 1.65z"/></svg>