<svg xmlns="http://www.w3.org/2000/svg" viewBox="0 0 32 32"><path d="M27.09 8.71H4.91c-.15 0-.27.12-.27.27v14.04c0 .15.12.27.27.27H7.1c.02 0 .04 0 .06-.01l4.92-1.19c.15-.04.23-.18.2-.33-.03-.15-.18-.23-.33-.2l-4.89 1.18H5.18V9.25h21.64v13.5H12.45c-.15 0-.27.12-.27.27 0 .15.12.27.27.27h14.63c.15 0 .27-.12.27-.27V8.98c.01-.15-.11-.27-.26-.27zm-15.8 5.97h.83c.17 0 .32-.14.32-.31v-2.28c0-.17-.14-.32-.32-.32H7.36c-.17 0-.32.14-.32.32v2.28c0 .17.14.31.32.31h2.91c.06.17.26.56.93.56h.17l-.1-.14s-.11-.17-.08-.3c.02-.05.05-.09.1-.12zm-.26.07c-.02.11 0 .21.03.3-.56-.06-.62-.46-.62-.48l-.01-.08H7.37c-.07 0-.14-.06-.14-.14v-2.28c0-.07.06-.14.14-.14h4.76c.07 0 .14.06.14.14v2.28c0 .07-.06.14-.14.14h-.88l-.02.01c-.11.07-.18.15-.2.25zm6.59-.07h.83c.17 0 .31-.14.31-.31v-2.28c0-.17-.14-.32-.31-.32h-4.76c-.17 0-.31.14-.31.32v2.28c0 .17.14.31.31.31h2.91c.06.17.26.56.93.56h.17l-.1-.14s-.11-.17-.08-.3c.02-.05.05-.09.1-.12zm-.27.07c-.03.11 0 .21.03.3-.56-.06-.62-.46-.62-.48l-.01-.08h-3.06c-.07 0-.14-.06-.14-.14v-2.28c0-.07.06-.14.14-.14h4.76c.08 0 .14.06.14.14v2.28c0 .07-.06.14-.14.14h-.88l-.02.01c-.1.07-.17.15-.2.25zm6.5-.07h.83c.17 0 .32-.14.32-.31v-2.28c0-.17-.14-.32-.32-.32h-4.76c-.17 0-.31.14-.31.32v2.28c0 .17.14.31.31.31h2.91c.06.17.26.56.93.56h.17l-.1-.14s-.11-.17-.08-.3c.02-.05.05-.09.1-.12zm-.27.07c-.03.11 0 .21.03.3-.56-.06-.62-.46-.62-.48l-.01-.08h-3.06c-.08 0-.14-.06-.14-.14v-2.28c0-.07.06-.14.14-.14h4.76c.08 0 .14.06.14.14v2.28c0 .07-.06.14-.14.14h-.88l-.02.01c-.1.07-.17.15-.2.25zm-12.29 4.56h.83c.17 0 .32-.14.32-.32v-2.28c0-.17-.14-.32-.32-.32H7.36c-.17 0-.32.14-.32.32V19c0 .17.14.31.32.31h2.91c.06.17.26.56.93.56h.17l-.1-.14s-.11-.17-.08-.3c.02-.05.05-.09.1-.12zm-.26.08c-.02.11 0 .21.03.3-.56-.06-.62-.46-.62-.48l-.01-.08H7.37c-.07 0-.14-.06-.14-.14v-2.28c0-.08.06-.14.14-.14h4.76c.07 0 .14.06.14.14V19c0 .08-.06.14-.14.14h-.88l-.02.01c-.11.05-.18.14-.2.24zm2.35-.39c0 .17.14.32.31.32h2.91c.06.17.26.56.93.56h.17l-.1-.14s-.11-.17-.08-.3c.01-.05.04-.09.09-.12h.83c.17 0 .31-.14.31-.32v-2.28c0-.17-.14-.32-.31-.32h-4.76c-.17 0-.31.14-.31.32.01 0 .01 2.28.01 2.28zm.18-2.28c0-.08.06-.14.14-.14h4.76c.08 0 .14.06.14.14V19c0 .08-.06.14-.14.14h-.88l-.02.01c-.11.06-.17.14-.2.25-.03.11 0 .21.03.3-.56-.06-.62-.46-.62-.48l-.01-.08H13.7c-.07 0-.14-.06-.14-.14v-2.28zM19.61 19c0 .17.14.32.32.32h2.91c.06.17.26.56.93.56h.17l-.1-.14s-.11-.17-.08-.3c.01-.05.04-.09.09-.12h.83c.17 0 .32-.14.32-.32v-2.28c0-.17-.14-.32-.32-.32h-4.76c-.17 0-.31.14-.31.32V19zm.18-2.28c0-.08.06-.14.14-.14h4.76c.08 0 .14.06.14.14V19c0 .08-.06.14-.14.14h-.88l-.02.01c-.11.06-.17.14-.2.25-.02.11 0 .21.03.3-.56-.06-.62-.46-.62-.48l-.01-.08h-3.06c-.08 0-.14-.06-.14-.14v-2.28z"/></svg>