<svg data-name="Layer 1" xmlns="http://www.w3.org/2000/svg" viewBox="0 0 36 36"><title>Icon-Red_Hat-Object-Flag-A-Black-RGB</title><path d="M26.31 12.11a4.59 4.59 0 0 0-2.92-2 4.51 4.51 0 0 0-3.68.85c-1.23.88-2.1 1.32-3.2 1.08a3.11 3.11 0 0 1-1.35-.66 2.25 2.25 0 1 0-3.76 0 2.15 2.15 0 0 0 .78.72l-1.13 5.28L9 27.21a.76.76 0 0 0 .58.89h.12a.76.76 0 0 0 .73-.59l1.47-6.91a4.62 4.62 0 0 0 2.48 1.44 5.35 5.35 0 0 0 4.39-1.34 3.24 3.24 0 0 1 1.74-.64l-.71 3.31a.75.75 0 0 0 .5.87 5.61 5.61 0 0 0 1.7.26 4 4 0 0 0 1.89-.42 3.3 3.3 0 0 0 1.11-.91 4.08 4.08 0 0 0 .66-1.3v-.07L27 15.59a4.58 4.58 0 0 0-.69-3.48zm-13.43-2.6a.73.73 0 0 1 .41-.12h.15a.74.74 0 0 1 .48.33.74.74 0 0 1 .1.56.77.77 0 0 1-.32.48.76.76 0 0 1-1-.23.74.74 0 0 1 .18-1.02zm5 10c-1.22.88-2.1 1.32-3.2 1.08a3.07 3.07 0 0 1-2.33-2.12l1.3-6.13a1.6 1.6 0 0 0 .29-.05 4.53 4.53 0 0 0 2.26 1.21 5.41 5.41 0 0 0 4.39-1.34 3.06 3.06 0 0 1 4.46.76 3.14 3.14 0 0 1 .44 2.35l-1.11 5.21a4.58 4.58 0 0 0-6.49-1zm5.29 3.25a3 3 0 0 1-1.76.22l.56-2.6A2.93 2.93 0 0 1 23.49 22a2 2 0 0 1 .11.47 1.94 1.94 0 0 1-.42.28z"/></svg>