<svg xmlns="http://www.w3.org/2000/svg" width="116.084" height="53.847" viewBox="0 0 116.084 53.847"><path d="M77.25 10.018V34.59c0 .39-.314.704-.702.704h-53.18c-.387 0-.702-.314-.702-.703V10.02c0-.39.314-.703.703-.703h53.178c.388 0 .703.314.703.703zm-1.404.702H24.07v22.235h51.775V10.72z"/><path d="M29.524 31.184c.194 0 .35-.156.35-.35v-18c0-.195-.156-.353-.35-.353s-.352.158-.352.353v18c0 .194.158.35.352.35zM36.322 31.184c.194 0 .35-.156.35-.35v-18c0-.195-.156-.353-.35-.353s-.352.158-.352.353v18c0 .194.158.35.352.35zM43.14 31.184c.194 0 .352-.156.352-.35v-18c0-.195-.157-.353-.352-.353-.194 0-.35.158-.35.353v18c0 .194.156.35.35.35zM49.958 31.307c.194 0 .35-.157.35-.352v-18c0-.194-.156-.352-.35-.352s-.352.157-.352.352v18c0 .194.158.352.352.352zM56.776 31.184c.193 0 .352-.156.352-.35v-18c0-.195-.158-.353-.352-.353-.195 0-.352.158-.352.353v18c0 .194.157.35.352.35zM63.596 31.184c.193 0 .35-.156.35-.35v-18c0-.195-.156-.353-.35-.353-.195 0-.352.158-.352.353v18c0 .194.156.35.352.35zM70.413 31.184c.194 0 .35-.156.35-.35v-18c0-.195-.155-.353-.35-.353-.193 0-.352.158-.352.353v18c.002.194.16.35.353.35z"/><path d="M18.832 47.418c-.092 0-.184-.018-.27-.05-4.308-1.662-13.052-8.722-13.23-13.632-.006-.203.07-.4.21-.547.142-.147.336-.23.54-.23h12.5c.322 0 .608.206.71.51l1.454 4.323H79.35l1.89-10.878c.063-.36.376-.622.74-.622h26.353c.286 0 .548.163.674.42s.094.564-.082.79c-1.01 1.3-9.07 11.58-13.63 14.86.662.33 1.353.835 1.735 1.594.3.594.52 1.582-.15 2.922-.128.253-.387.413-.67.413l-77.378.125zM6.945 34.46c1.002 4.08 8.28 9.942 12.03 11.458l76.736-.124c.153-.45.147-.83-.018-1.157-.426-.847-1.835-1.266-2.342-1.355-.336-.06-.59-.338-.618-.678-.027-.34.18-.656.5-.77 2.703-.94 9.978-9.557 13.554-14.04H82.61L80.718 38.67c-.062.36-.375.62-.74.62H20.21c-.323 0-.61-.204-.712-.51l-1.453-4.322H6.945zM15.832 31.46h-7.75c-.14 0-.273-.06-.368-.162s-.142-.24-.13-.38l1-11.917c.02-.258.238-.457.498-.457h6.75c.276 0 .5.224.5.5V30.96c0 .276-.224.5-.5.5zm-7.206-1h6.706V19.542h-5.79L8.626 30.46z"/><path d="M10 19.543c-.277 0-.5-.224-.5-.5v-12c0-.276.223-.5.5-.5s.5.224.5.5v12c0 .276-.225.5-.5.5zM89.967 44.335h-71.01c-.276 0-.5-.224-.5-.5s.224-.5.5-.5h71.01c.276 0 .5.224.5.5s-.224.5-.5.5z"/></svg>