<svg data-name="Layer 1" xmlns="http://www.w3.org/2000/svg" viewBox="0 0 36 36"><title>Icon-Red_Hat-Lower_Cost_Dollar-A-Black-RGB</title><path d="M20.542 9.687a8.1 8.1 0 0 1 1.21.454 8.19 8.19 0 0 1 1.124.642.776.776 0 0 0 .2.1.764.764 0 0 0 .216.032.75.75 0 0 0 .42-1.37 9.724 9.724 0 0 0-2.758-1.296.75.75 0 0 0-.416 1.442z"/><path d="M24.234 19a4.23 4.23 0 0 0-.763-1.294 4.284 4.284 0 0 0-1.8-1.2 11.957 11.957 0 0 0-2.015-.5l-.356-.068-.3-.06V5.25a.75.75 0 0 0-1.5 0v10.294l-1.023-.22a8.39 8.39 0 0 1-1.294-.354 2.51 2.51 0 0 1-.96-.635 2.712 2.712 0 0 1-.534-.862 2.733 2.733 0 0 1-.157-1.43 2.79 2.79 0 0 1 .1-.423 2.642 2.642 0 0 1 .813-1.22 3.985 3.985 0 0 1 1.507-.754.75.75 0 0 0-.41-1.446 5.422 5.422 0 0 0-2.13 1.117 4.13 4.13 0 0 0-1.2 1.833 4.183 4.183 0 0 0-.157.652 4.238 4.238 0 0 0 1.068 3.545 4.022 4.022 0 0 0 1.5 1.01 9.388 9.388 0 0 0 1.542.43l1.237.266.1.02V28.94l-.36-.36-.36-.36a.75.75 0 1 0-1.06 1.06l1 1 1 1a.742.742 0 0 0 .246.164.74.74 0 0 0 .28.055.707.707 0 0 0 .277-.055h.01a.738.738 0 0 0 .22-.147c.008-.007.017-.01.024-.016l1-1 1-1a.75.75 0 1 0-1.06-1.06l-.72.72V17.4h.007l.375.07a11.576 11.576 0 0 1 1.663.396 2.9 2.9 0 0 1 1.29.818 2.754 2.754 0 0 1 .632 2.227 2.79 2.79 0 0 1-.1.423 2.645 2.645 0 0 1-.813 1.22 3.97 3.97 0 0 1-1.506.753.75.75 0 0 0-.517.926.75.75 0 0 0 .723.545.71.71 0 0 0 .1-.007.65.65 0 0 0 .1-.02 5.4 5.4 0 0 0 2.13-1.117 4.118 4.118 0 0 0 1.2-1.835 4.17 4.17 0 0 0 .158-.65A4.246 4.246 0 0 0 24.235 19z"/><path d="M15.648 24.706a.76.76 0 0 0 .55-.14.75.75 0 0 0-.23-1.322A8.092 8.092 0 0 1 14.8 22.8a8.38 8.38 0 0 1-1.088-.62q-.255-.174-.494-.363t-.462-.393a.75.75 0 0 0-1.014 1.105c.174.16.357.315.545.464s.385.29.585.427a9.836 9.836 0 0 0 1.287.736 9.68 9.68 0 0 0 1.38.528.784.784 0 0 0 .108.022z"/></svg>