<svg xmlns="http://www.w3.org/2000/svg" width="32" height="32" viewBox="0 0 32 32"><path d="M21.377 11.344v-.75c0-.074-.06-.135-.136-.135-.074 0-.135.06-.135.135v.75c0 .074.062.135.136.135.076 0 .137-.06.137-.136zm1.278-.42c.034 0 .07-.012.096-.04.054-.052.054-.138 0-.192l-.53-.53c-.052-.054-.138-.054-.192 0-.053.053-.053.14 0 .192l.53.53c.027.027.062.04.097.04zm-2.833.023c.035 0 .07-.013.096-.04l.53-.53c.053-.054.053-.14 0-.192-.053-.054-.14-.054-.193 0l-.53.53c-.053.053-.053.14 0 .192.027.027.062.04.097.04zM7.588 8.342c.033.013.808.325 1.626.325h1.715l-.198.218c-.054.06-.067.146-.035.22.033.074.106.12.186.12h1.33c.033 0 .065-.007.094-.022l1.042-.538.007.002h2.493c.75 0 1.746-.076 1.746-.73 0-.383-.41-.84-2.363-.84H9.818L8.73 6.12c-.037-.033-.086-.05-.136-.05h-.73c-.067 0-.13.032-.17.088-.037.056-.045.126-.02.19l.393 1.016-.48.19c-.077.03-.128.106-.128.19v.41c0 .082.05.157.127.19zm.28-.46l.54-.214c.104-.042.154-.16.114-.264l-.36-.927h.354l1.088.976c.038.033.086.052.136.052h5.493c.82 0 1.314.085 1.6.182h-.167c-.075 0-.136.06-.136.136 0 .075.06.136.136.136h.517c-.034.142-.393.298-1.332.298h-1.777c.038-.06.047-.136.013-.203-.05-.1-.175-.14-.275-.088l-1.646.85h-.822l.48-.533c.075-.084.07-.213-.015-.288-.084-.075-.213-.068-.288.015l-.223.247H9.214c-.554 0-1.103-.165-1.345-.25V7.88zm7.41 14.172h.306l.03-.868h-.307zm.046-1.354h.307l.03-.843h-.307zm.042-1.277h.306l.028-.842h-.306zm.146-4.333h.306l.018-.517h-.306zm-.284 8.47h.306l.034-1.02h-.306zm.22-6.55h.305l.026-.775h-.307zm-.04 1.16h.307l.028-.83h-.306zm.075-2.225h.307l.02-.618h-.306zm1.082 1.396h-.307l.028.83h.307zm-.067-2.014h-.307l.022.62h.307zm.152 4.53h-.307l.028.844h.308zm.044 1.33h-.307l.03.867h.306zm-.087-2.606H16.3l.028.842h.306zm-.134-4.007h-.307l.017.517h.307zm.055 1.662h-.307l.027.774h.307zm-.096 6.304l.034 1.02h.306l-.034-1.02zm9.735-10.393h-.975c-.096-2.213-1.153-3.166-3.496-3.166h-1.438c-.112 0-.204.092-.204.205 0 .112.092.203.204.203h.067c.04.474.432.85.916.85.48 0 .87-.368.915-.835 1.785.11 2.548.916 2.63 2.743H5.835c-.15 0-.273.122-.273.272v1.645c0 .15.122.272.272.272h2.76V15.9c0 .15.12.273.27.273h1.098c.12 0 .224-.077.26-.192l.51-1.645h2.23l-5.73 11.2c-.044.084-.04.185.01.266.05.082.136.13.23.13H24.53c.095 0 .183-.048.232-.13.05-.08.053-.18.01-.265l-5.73-11.2h2.23l.51 1.646c.035.115.14.193.26.193h1.096c.15 0 .273-.122.273-.272v-1.565h1.384v8.742c0 .113.092.204.204.204.113 0 .204-.09.204-.203v-8.742h.965c.15 0 .272-.122.272-.272v-1.645c0-.15-.123-.272-.273-.272zM21.24 9.83c-.257 0-.47-.193-.507-.442h.963c.018 0 .034 0 .052.002-.038.247-.25.44-.508.44zm2.843 15.558l-7.25-.005-.04-1.26h-.307l.042 1.265h-1.054l.042-1.265h-.306l-.042 1.26-.2.005H7.92l5.653-11.052h4.86l5.653 11.052zm1.812-11.597h-2.76c-.15 0-.27.123-.27.274v1.565h-.625l-.51-1.647c-.035-.114-.14-.192-.26-.192H10.53c-.12 0-.224.08-.26.193l-.51 1.646h-.624v-1.566c0-.15-.12-.273-.273-.273h-2.76v-1.1h19.79v1.1z"/></svg>