<svg xmlns="http://www.w3.org/2000/svg" viewBox="0 0 31.68 31.68"><path d="M18.31 12.64l.22-.39c.03-.05.02-.11-.03-.14h-.01c-.05-.03-.12-.02-.15.03l-.22.4c-.03.05-.01.12.04.15s.11.02.14-.03c0-.01 0-.02.01-.02zm1.55 6.53l.4.24c.05.03.12.01.15-.04s.02-.11-.03-.14c0 0-.01-.01-.02-.01l-.4-.24c-.05-.03-.12-.01-.14.04-.03.05-.01.12.04.15zm-3.99-7.1c.06 0 .12-.05.12-.11v-.46c-.01-.06-.06-.11-.12-.11s-.11.04-.12.11v.46c0 .05.05.1.12.11zm-2.44.58c.03.05.09.07.15.04.05-.03.07-.1.04-.16-.08-.13-.16-.26-.23-.39-.03-.05-.09-.07-.15-.04-.05.04-.07.1-.04.16l.23.39zm2.45 5.45c.09 0 .17-.01.26-.03l.09-.02c.05-.01.1-.03.15-.05l.1-.05c.04-.02.08-.04.12-.07l.09-.06c.04-.03.07-.06.11-.09l.08-.08c.03-.04.06-.07.09-.11.02-.03.04-.05.06-.08.03-.05.06-.1.08-.15 0-.02.03-.05.04-.07.03-.08.05-.15.07-.23l2.21-.06c.12 0 .21-.1.21-.22v-.04c0-.11-.09-.21-.21-.21l-2.22-.05c0-.02 0-.03-.01-.05-.01-.05-.03-.11-.05-.16 0-.03-.02-.05-.03-.07-.02-.05-.04-.09-.07-.14l-.05-.08-.09-.12-.04-.05-.12-.12-.04-.03c-.05-.04-.1-.08-.16-.11h-.02c-.12-.07-.25-.12-.38-.15l-.06-2.79c0-.12-.09-.21-.21-.21h-.04c-.12 0-.21.1-.21.21l-.06 2.8c-.07.02-.15.04-.22.07l-.05.02c-.06.03-.12.06-.17.09l-.08.06c-.04.03-.08.06-.11.1l-.07.08c-.03.03-.06.07-.09.11l-.06.09c-.03.04-.05.09-.07.13-.01.03-.03.06-.04.09-.02.05-.04.1-.05.16 0 .03-.02.06-.02.09-.02.09-.03.17-.03.26 0 .75.61 1.36 1.36 1.36l.01.03zm-.67-2.06c.18-.17.42-.27.66-.28.24.01.48.11.65.28.18.18.27.42.27.67 0 .25-.1.49-.27.66-.17.18-.41.28-.65.28-.25 0-.49-.1-.66-.28-.17-.18-.27-.42-.26-.66 0-.25.09-.5.26-.69v.02zm-7.5 6.17c-.1-.09-.25-.08-.34.01-.08.08-.09.2-.03.3.21.25.44.5.67.73.11.08.26.06.34-.04.07-.09.07-.21 0-.3-.22-.22-.44-.46-.64-.7zm12.25-7.79l.4-.23c.05-.03.07-.11.03-.16-.03-.05-.09-.06-.13-.03l-.39.23c-.05.02-.07.08-.06.13 0 .01.01.01.01.02.04.05.1.07.14.04zm-6.57 6.85l.22-.4c.03-.05.02-.11-.03-.14h-.01c-.05-.03-.11-.02-.15.03 0 .01-.01.01-.01.02l-.22.39c-.03.05-.01.12.04.15.04.03.11.02.14-.02.02-.02.02-.03.02-.03zm2.49.07c-.06 0-.11.05-.11.11v.45c0 .06.05.11.11.11s.11-.05.11-.11v-.46c0-.05-.05-.1-.11-.1zm4.74-14.5l-.59.8c-.03.04-.04.1-.02.15.02.05.06.08.11.09l3 .61c.06.01.12-.01.16-.06.03-.05.03-.11 0-.16l-1.49-2.68c-.04-.07-.14-.1-.21-.06-.02.01-.04.03-.05.04l-.63.88c-5.35-2.66-11.83-.48-14.48 4.86-1.62 3.26-1.49 7.11.35 10.25.06.12.2.18.32.12s.18-.2.12-.32c-.01-.02-.02-.03-.03-.05C4.3 16.4 5.95 10.08 10.86 7.2c2.99-1.75 6.65-1.89 9.76-.36zM18.3 20.76c-.03-.05-.09-.07-.14-.04-.05.02-.07.08-.05.14 0 0 0 .01.01.01.22.4.15.27.22.4.03.05.1.07.15.04h.01c.05-.03.07-.09.04-.14 0 0 0-.01-.01-.01-.08-.13-.15-.26-.23-.4zm2.25-3.95H21c.06 0 .11-.05.11-.11s-.05-.11-.11-.12h-.45c-.06.01-.11.06-.11.12s.05.11.11.11zm-5.4 9.07c-.31 0-.63-.04-.94-.09-.13-.03-.26.06-.29.19-.03.13.06.26.19.29h.03c.33.04.66.08.99.09.13-.01.23-.14.22-.27-.01-.11-.1-.2-.22-.22l.02.01zm8.38-3.7c-.2.24-.42.48-.64.7-.1.09-.12.24-.03.34.09.1.24.12.34.03l.03-.03c.24-.23.46-.48.67-.73.08-.11.05-.26-.06-.34-.1-.07-.23-.06-.31.03zm1.4-1.65c-.12-.06-.26-.02-.33.09-.15.27-.32.54-.5.81-.07.12-.02.27.09.33.1.06.23.03.31-.06.19-.27.36-.56.52-.84.07-.11.03-.26-.09-.33 0 .01 0 .01 0 0zm-2.74 2.99c-.24.2-.5.39-.76.57-.1.09-.11.24-.02.34.07.08.2.11.3.06.27-.19.54-.39.79-.59.11-.07.15-.22.07-.34-.07-.11-.22-.15-.34-.07-.01.01-.03.02-.04.03zm-1.57 1.06c-.13.07-.25.14-.38.2s-.28.14-.47.22c-.13.05-.19.19-.14.31.05.13.19.19.31.14.01 0 .01-.01.02-.01.16-.07.33-.15.49-.23.16-.08.29-.15.39-.21.11-.08.13-.23.05-.34-.07-.09-.18-.12-.29-.08h.02zm5.06-5.85c-.12-.03-.25.03-.29.15-.1.29-.22.59-.34.88-.04.13.03.27.16.31.11.04.23-.01.29-.11.13-.29.26-.61.36-.93.03-.12-.05-.26-.18-.3zm.49-3.26c-.13 0-.24.1-.25.24v.39c-.01.13.1.25.23.26.13 0 .23-.1.24-.23v-.41c0-.13-.1-.24-.22-.25zm-.08 1.37c-.13-.02-.25.07-.28.2v.01c-.04.31-.11.63-.18.93-.03.13.05.26.18.29h.06c.11 0 .21-.08.24-.19.08-.32.14-.65.19-.98.01-.12-.08-.24-.21-.26zm-7.2 8.52c-.29.1-.61.19-.91.26-.13.04-.21.17-.17.3.03.1.12.18.23.18h.06c.32-.08.64-.17.96-.27.13-.03.22-.16.19-.29-.03-.13-.16-.22-.29-.19-.03.01-.05.02-.07.01zm-7.41-.32c-.29-.13-.59-.27-.85-.42-.11-.07-.26-.04-.34.07-.07.11-.04.26.07.34.01.01.02.01.03.02.29.16.59.29.88.44.03.01.06.02.1.02.13 0 .24-.12.24-.25 0-.09-.06-.17-.14-.21l.01-.01zm-.75-8.23h.46c.06 0 .1-.05.1-.11s-.04-.1-.09-.11H10.73c-.06 0-.1.04-.11.09v.01c.01.07.05.12.11.12zm.75 2.59c.39-.23.26-.15.39-.23.05-.03.07-.1.04-.15-.03-.05-.1-.07-.16-.04-.39.23-.26.15-.39.23-.05.04-.07.1-.04.16.04.05.11.06.16.03zm4.41 3.4c3.37-.07 6.05-2.85 5.98-6.23-.06-3.01-2.31-5.53-5.29-5.93v-.44h.69c.06 0 .11-.03.15-.07.04-.05.06-.1.06-.16v-.9c0-.06-.02-.12-.06-.16-.04-.04-.09-.07-.15-.07h-2.8c-.06 0-.11.03-.15.07-.04.04-.06.1-.06.16v.88c0 .06.02.12.06.16.04.04.09.07.15.07h.69v.44c-.92.11-1.8.43-2.58.95-.29-.33-.19-.22-.29-.33l.17-.15c.05-.04.07-.09.08-.15.01-.06-.01-.12-.05-.16l-.76-.9c-.08-.09-.2-.1-.29-.03l-1.56 1.32c-.04.04-.07.09-.08.15 0 .06.02.12.05.17l.76.91c.08.09.22.1.31.03l.29-.25.29.34c-1.06 1.14-1.65 2.64-1.65 4.19-.01 3.34 2.67 6.06 6.01 6.08l.03.01zM14.67 9.75V9.3h2.37v.45h-2.37zm1.47.45v.39h-.53v-.39h.53zm-5.05 1.49l-.03.03c-.09.07-.18.15-.27.23l-.48-.59 1.22-1.03.48.59-.14.12-.03.03-.75.62zm1.12.15c-.15.11-.29.24-.42.36l-.26-.31.42-.36.26.31zm-.29.86c.03-.04.07-.07.11-.1l.54-.46c.92-.68 2.03-1.07 3.17-1.09h.27c1.43.03 2.8.63 3.8 1.65 2.17 2.22 2.17 5.78 0 8-2.13 2.18-5.63 2.21-7.81.08l-.08-.08c-2.18-2.22-2.18-5.77 0-7.99v-.01zm1.36 12.92c-.29-.07-.61-.16-.91-.26-.13-.04-.26.04-.3.17-.03.12.03.24.14.29.31.1.64.19.96.27h.06c.13 0 .24-.12.24-.25-.02-.11-.09-.2-.19-.22zm3.77.17c-.31.04-.63.07-.94.09-.13.01-.23.14-.22.27.01.11.1.2.22.22.33-.01.66-.05.99-.09.13-.02.22-.14.21-.27-.03-.14-.14-.23-.26-.22zm-5.29-11.37c.06.03.12.01.16-.04.02-.06.01-.12-.04-.16l-.4-.22c-.06-.02-.12-.01-.16.04-.03.05-.01.12.04.15l.4.23zm-2.7 9.12c-.12-.06-.27-.01-.33.11-.04.09-.03.19.03.26.26.21.52.41.8.59.12.07.27.03.33-.09.06-.11.04-.24-.06-.31-.27-.16-.53-.36-.77-.56z"/></svg>