<svg xmlns="http://www.w3.org/2000/svg" viewBox="0 0 32 32"><path d="M17.8 9.54c2.08 0 3.77-1.69 3.77-3.77S19.88 2 17.8 2s-3.77 1.69-3.77 3.77 1.69 3.77 3.77 3.77zm0-7c1.78 0 3.23 1.45 3.23 3.23S19.58 9 17.8 9s-3.23-1.45-3.23-3.23 1.45-3.23 3.23-3.23zm2.07 7.73h-4.14c-2.35 0-4.04.79-5.01 2.28l.07.06-.07-.06-1-.77c-.12-.09-.28-.07-.38.05l-3.38 4.28-1.79 1.26c-.04.03-.07.08-.08.13s0 .11.03.15l.31.42-1.2 1.52c-.04.06-.06.13-.05.2.01.07.05.14.1.18l5.66 4.36 4.02 5.58c.03.05.09.08.14.08.05 0 .09-.01.14-.03l1.55-1.09.63.49c.04.03.09.05.14.05.09.01.18-.03.24-.1l2.05-2.59 3.67-2.58c.04-.03.07-.08.08-.13.01-.05 0-.11-.03-.15l-.71-.98 1.05-1.33c.04-.06.06-.13.06-.2-.01-.07-.05-.14-.1-.18l-5.06-3.93-4.06-5.65c-.03-.04-.08-.07-.13-.08.77-.43 1.79-.7 3.13-.7h4.14c4.48 0 5.42 2.95 5.42 5.42v3.32c0 1.61-1.09 2.41-2.35 3.34V15.7c0-.13-.11-.24-.24-.24s-.24.11-.24.24v8.95c-.31.24-1.09.67-2.9.85l-.86.6c3.09-.14 4.07-.96 4.31-1.23.04-.05.07-.11.07-.18v-1.24l.17-.13c1.33-.97 2.58-1.89 2.58-3.78v-3.32c-.02-3.83-2.14-5.95-5.98-5.95zm-7.42 1.28c.02-.01.03-.02.05-.02-.01 0-.03 0-.05.02zm-2.85.82l.8.62-2.89 2.03 2.09-2.65zm-5.78 7.34l.94-1.19 3.11 4.32-4.05-3.13zm11.71 9.07l-.29-.23 1.05-.74-.76.97zm5.78-7.35l-.78 1-2.6-3.62 3.38 2.62zm-4.51-3.5v.01l.01.01 4.3 5.98-7.96 5.59-4.18-5.81v-.01l-4.4-6.12 7.96-5.59 4.27 5.94zm-6.49 0l-1.45 1.02c-.04.03-.07.08-.08.13s0 .11.03.15l2.83 3.93c.06.09.19.11.28.05l.13-.09.72-.51.34.48.87 1.21c.03.05.09.08.14.08.05.01.09-.01.14-.03l2.64-1.85c.04-.03.07-.08.08-.13.01-.05 0-.11-.03-.15l-4.16-5.78c-.04-.05-.09-.08-.15-.08-.04 0-.09.01-.13.03l-2.2 1.54zm2.33-1.03l3.87 5.38-2.31 1.62-1.22-1.69c-.03-.05-.09-.08-.14-.08-.05 0-.09.01-.14.03l-.85.6-2.6-3.61 3.32-2.33.07.08zm5.4 7.13c.02.02.04.04.07.04.02 0 .05 0 .07-.02.05-.03.06-.09.02-.14l-.95-1.32c-.03-.05-.09-.06-.14-.02-.04.03-.05.09-.02.14l.95 1.32zm-.66-1.87c.02 0 .05 0 .07-.02l.83-.58c.04-.03.06-.09.02-.14s-.09-.06-.14-.02l-.83.58c-.05.03-.06.09-.02.14.02.02.05.03.07.04zm-5.86-7.38c-.05.03-.06.09-.02.14l.95 1.32c.02.02.04.04.07.04.02 0 .05 0 .07-.02.05-.03.06-.09.02-.14l-.95-1.32c-.04-.04-.1-.05-.14-.02zm-2.67 3.98l-.95-1.32c-.03-.04-.09-.05-.14-.02-.04.03-.05.09-.02.14l.95 1.32c.02.02.04.04.07.04.02 0 .05 0 .07-.02.05-.03.06-.09.02-.14zm4.26-2.5c.01 0 .02.01.03.01.02 0 .05 0 .07-.02l.83-.58c.05-.03.06-.09.02-.14-.03-.05-.09-.06-.14-.02l-.83.58c-.05.03-.06.09-.02.14.02.01.03.02.04.03zm1.85 9.09l-.55-.76c-.03-.04-.09-.05-.14-.02-.05.03-.06.09-.02.14l.95 1.32c.02.02.04.04.07.04.02 0 .05 0 .07-.02.02-.02.04-.05.04-.07 0-.02 0-.05-.02-.07l-.4-.56zm-1.18-.87l-.83.58c-.03.02-.04.06-.03.1 0 .01 0 .03.01.04.02.02.04.04.07.04.01 0 .02-.01.03-.01.01 0 .02 0 .03-.01l.83-.58c.05-.03.06-.09.02-.14-.03-.04-.09-.05-.13-.02zm-2.42-1.25l-.83.58c-.05.03-.06.09-.02.14.02.02.04.04.07.04.02 0 .05 0 .07-.02l.83-.58c.05-.03.06-.09.02-.14-.03-.04-.09-.05-.14-.02zM8.53 19.3l-.83.58c-.05.03-.06.09-.02.14.02.02.04.04.07.04.02 0 .05 0 .07-.02l.83-.58c.04-.03.06-.09.02-.14-.03-.04-.09-.05-.14-.02z"/></svg>