<svg xmlns="http://www.w3.org/2000/svg" viewBox="0 0 36 36"><path d="M19.27 16.115v-4.48c-.002-.46-.384-.756-.756-.756-.262 0-.51.14-.644.375l-4.21 7.37c-.066.117-.098.244-.098.37 0 .283.22.748.748.75h2.4v4.512c0 .41.34.725.655.725.203 0 .55-.033.745-.387l4.21-7.36c.066-.117.098-.244.098-.37 0-.283-.22-.748-.748-.75h-2.4zm-1.06 5.31v-2.42c0-.408-.33-.74-.74-.74H15.6l2.17-3.79v2.44c0 .414.336.75.75.75h1.86l-2.17 3.76zM23.423 5.25c-.826 0-3.214.12-5.432 1.983-1.58-1.32-3.5-1.966-5.41-1.966-3.56 0-8.442 2.803-8.442 8.437 0 2.16.825 4.312 2.454 5.95l10.87 10.875c.146.146.338.22.53.22.074 0 .32-.01.53-.22l10.87-10.875c1.615-1.617 2.473-3.78 2.473-5.978-.002-4.563-3.67-8.426-8.442-8.426zm6.943 8.45c0 2.485-1.274 4.14-2.032 4.895L17.99 28.938 7.646 18.598c-1.356-1.354-2.034-3.13-2.034-4.908 0-3.708 2.985-6.94 6.94-6.94 3.53 0 4.7 2.25 5.438 2.25.78 0 1.862-2.246 5.433-2.246 4.842 0 6.943 4.206 6.943 6.945z"/></svg>