<svg data-name="Layer 1" xmlns="http://www.w3.org/2000/svg" viewBox="0 0 36 36"><title>Icon-Red_Hat-Belt-A-Black-RGB</title><path d="M32.53 13.017A.747.747 0 0 0 32 12.8H21.616v-.13a.75.75 0 0 0-.75-.75h-4.174a.75.75 0 0 0-.75.75v.078L15 12.06a.748.748 0 0 0-1.048.166l-.415.57H4a.75.75 0 0 0-.75.75v4.5A.75.75 0 0 0 4 18.8h6.33l-2.563 1.892a.75.75 0 0 0-.162 1.044l1.323 1.82 1.322 1.82a.752.752 0 0 0 .494.3.55.55 0 0 0 .057.005h.057a.742.742 0 0 0 .235-.037.756.756 0 0 0 .213-.11l3.34-2.482 2.61-1.937 1.8 1.31 7.59 5.513a.73.73 0 0 0 .21.107.75.75 0 0 0 .23.036.7.7 0 0 0 .117-.01.742.742 0 0 0 .275-.1.754.754 0 0 0 .215-.2l1.322-1.82 1.322-1.82a.75.75 0 0 0-.166-1.048l-3.18-2.31-2.72-1.972H32a.75.75 0 0 0 .75-.75v-4.5a.745.745 0 0 0-.22-.533zm-18.688 1.91l.458-.63.424-.583.8.583.416.3v3.71l-.36-.262-.865-.63-.166-.12-.47-.342-.638-.462-.484-.35zM4.75 17.3v-3h7.7l-1.14 1.57a.765.765 0 0 0-.123.265.744.744 0 0 0 .09.567.765.765 0 0 0 .2.215L12 17.3zm8.75 4.74l-2.48 1.84-.883-1.212-.88-1.212 3.343-2.473.253-.186.6-.444.61.444 1.913 1.39v.01zm5.368-2.82h-1.426v-5.8h2.674v4.555c0 .027-.013.05-.015.076a1.23 1.23 0 0 1-.312.75c-.015.018-.022.042-.038.058a1.246 1.246 0 0 1-.884.363zm9.82 4.64l-.888 1.213-.88 1.213-6.983-5.073-.726-.528a2.672 2.672 0 0 0 2.26-1.888c.017-.048.034-.095.046-.144l.185.134.015.01zm2.562-8.06v1.5h-9.043l-.59-.43V14.3h9.633z"/></svg>