<svg data-name="Layer 1" xmlns="http://www.w3.org/2000/svg" viewBox="0 0 36 36"><title>Icon-Red_Hat-Everything_As_A_Service-A-Black-RGB</title><path d="M30.59 18.893a4.745 4.745 0 0 0-2.866-1.588 8.746 8.746 0 0 0-16.072-4.038c-.112-.012-.22-.02-.33-.026s-.212-.008-.316-.008a6.76 6.76 0 0 0 0 13.518H27a4.748 4.748 0 0 0 3.59-7.857zM29.3 24.3a3.243 3.243 0 0 1-2.3.953H11.006a5.26 5.26 0 0 1 0-10.518c.138 0 .28.007.43.02s.31.036.477.064a.738.738 0 0 0 .45-.062.754.754 0 0 0 .33-.31A7.246 7.246 0 0 1 26.25 18a.75.75 0 0 0 .75.75 3.25 3.25 0 0 1 2.3 5.55z"/><path d="M18.68 15.89a.75.75 0 0 0-.89.576l-.518 2.434-.518 2.437a.75.75 0 0 0 .578.89.707.707 0 0 0 .157.016.75.75 0 0 0 .73-.594l.52-2.44.517-2.436a.75.75 0 0 0-.577-.89zM23.546 18.524l-1.068-1.067-1.068-1.068a.75.75 0 1 0-1.06 1.06l.8.8.8.8-.8.8-.8.8a.75.75 0 0 0 .812 1.224.758.758 0 0 0 .248-.165l1.068-1.068 1.068-1.068a.732.732 0 0 0 .163-.243.75.75 0 0 0 0-.573.746.746 0 0 0-.164-.233zM15.682 17.45a.75.75 0 1 0-1.06-1.06l-1.07 1.067-1.067 1.067a.76.76 0 0 0-.162.244.75.75 0 0 0 0 .574.745.745 0 0 0 .162.243l1.068 1.068 1.068 1.067a.758.758 0 0 0 .25.165.74.74 0 0 0 .28.055.75.75 0 0 0 .284-.055.77.77 0 0 0 .248-.165.75.75 0 0 0 0-1.06l-.8-.8-.8-.8.8-.8z"/></svg>