<svg xmlns="http://www.w3.org/2000/svg" viewBox="0 0 36 36"><title>Icon-Red_Hat-Money-A-Black-RGB</title><path d="M21 23.25A2.75 2.75 0 1 0 23.75 26 2.75 2.75 0 0 0 21 23.25zm0 4A1.25 1.25 0 1 1 22.25 26 1.25 1.25 0 0 1 21 27.25zM28.5 19.25a4.25 4.25 0 1 0 4.25 4.25 4.26 4.26 0 0 0-4.25-4.25zm0 7a2.75 2.75 0 1 1 2.75-2.75 2.75 2.75 0 0 1-2.75 2.75z"/><path d="M17 23.75H8.17a4.23 4.23 0 0 0-3.42-3.42v-4.66a4.23 4.23 0 0 0 3.42-3.42h17.66a4.23 4.23 0 0 0 3.42 3.42v2a.75.75 0 0 0 1.5 0V11.5a.76.76 0 0 0-.75-.75H4a.76.76 0 0 0-.75.75v13a.76.76 0 0 0 .75.75h13a.75.75 0 0 0 0-1.5zm12.25-9.62a2.74 2.74 0 0 1-1.88-1.88h1.88zM6.63 12.25a2.74 2.74 0 0 1-1.88 1.88v-1.88zm-1.88 9.62a2.74 2.74 0 0 1 1.88 1.88H4.75z"/><path d="M24.75 18a.75.75 0 0 0-.22-.53.77.77 0 0 0-1.06 0 .63.63 0 0 0-.16.24.72.72 0 0 0-.06.29.93.93 0 0 0 .05.29.81.81 0 0 0 .17.24.63.63 0 0 0 .24.16.72.72 0 0 0 .29.06.75.75 0 0 0 .75-.75zM9.71 17.31a.78.78 0 0 0-.24.16.75.75 0 1 0 1.06 0 .77.77 0 0 0-.82-.16zM13.25 18A3.75 3.75 0 1 0 17 14.25 3.75 3.75 0 0 0 13.25 18zm6 0A2.25 2.25 0 1 1 17 15.75 2.25 2.25 0 0 1 19.25 18z"/></svg>