<svg xmlns="http://www.w3.org/2000/svg" viewBox="0 0 32 32"><path d="M22.06 7.24h-3.53l-.49-1.63c-.03-.12-.16-.19-.28-.16L10.6 7.24h-.28c-.17 0-.31.14-.31.31v5.26L7.52 11.3c-.11-.07-.25-.03-.32.08s-.03.25.08.32l2.73 1.66v1.93l-2.49-1.51c-.11-.07-.25-.03-.32.08s-.03.25.08.32l2.73 1.66v8.6c0 .17.14.31.31.31h.32c-.2.19-.32.47-.32.77 0 .59.48 1.07 1.07 1.07.59 0 1.07-.48 1.07-1.07 0-.3-.12-.57-.32-.77h8.09c-.2.19-.32.47-.32.77 0 .59.48 1.07 1.07 1.07s1.07-.48 1.07-1.07c0-.3-.12-.57-.32-.77h.32c.17 0 .31-.14.31-.31V7.54c.01-.17-.13-.3-.3-.3zm-4.4-1.29l.39 1.29h-5.54l5.15-1.29zm-7.02 1.9h11.12v.81H10.64v-.81zm.76 18.38c-.41 0-.74-.33-.74-.74s.33-.74.74-.74.74.33.74.74c0 .4-.33.74-.74.74zm9.59 0c-.41 0-.74-.33-.74-.74s.33-.74.74-.74.74.33.74.74c0 .4-.33.74-.74.74zm.76-3.57h-.9c-.09 0-.17-.08-.17-.17 0-.09.08-.17.17-.17h.9v.34zm0-.65h-.9c-.26 0-.48.22-.48.48s.22.48.48.48h.9v1.14H10.64v-3.13h11.12l-.01 1.03zm0-2.93h-.9c-.09 0-.17-.08-.17-.17 0-.09.08-.17.17-.17h.9v.34zm0-.65h-.9c-.26 0-.48.22-.48.48s.22.48.48.48h.9v1.13H10.64V17.4h11.12c-.01 0-.01 1.03-.01 1.03zm0-5.76h-.9c-.09 0-.17-.08-.17-.17 0-.1.08-.17.17-.17h.9v.34zm0-.65h-.9c-.26 0-.48.21-.48.48 0 .26.22.48.48.48h.9v3.96H10.64v-6h11.12l-.01 1.08zm0-1.55H10.64V9.12h11.12l-.01 1.35z"/></svg>