<svg xmlns="http://www.w3.org/2000/svg" viewBox="0 0 32 32"><path d="M28.67 19.52c-.06-.46-.22-1.19-.36-1.63l-1.22-3.85c-.09-.28-.28-.5-.54-.63s-.56-.15-.83-.05l-.72.26c-.3.11-.71-.03-.89-.29l-4.04-5.95c-.17-.25-.42-.4-.69-.4-.26 0-.52.15-.69.4l-1.42 2.08c-.23.33-.72.75-1.08.91l-.87.4c-.47.22-.99.77-1.17 1.26l-.97 2.59c-.02.06-.05.1-.07.13-.1-.06-.19-.14-.25-.22l-.32-.45-2.46-3.59c-.06-.09-.16-.14-.27-.14-.21 0-.47.22-.76.66l-.86 1.27c-.22.33-.72.75-1.08.92l-.31.14c-.47.22-.98.77-1.16 1.26l-2.42 6.49c-.11.29-.08.58.07.8.15.22.41.34.72.34H16.8c.1 0 .18-.05.23-.13.09-.04.18-.09.25-.16.01 0 .02.01.03.01h10.52c.3 0 .57-.12.75-.33.19-.21.27-.49.24-.79l-.15-1.31zM3.76 21.55c-.05-.07-.05-.16-.01-.28l2.42-6.49c.13-.34.54-.78.88-.94l.31-.14c.45-.21 1.03-.7 1.31-1.11l.86-1.27c.09-.14.17-.24.24-.31l2.71 3.96c.18.27.43.4.67.37.06-.01.12-.03.18-.05.12.03.23.04.34.03l1.18-.09c.24-.02.51.16.59.39l1.22 3.53c.1.3.23.82.27 1.14l.15 1.08c.01.1-.01.19-.07.26-.02.02-.05.04-.08.06-.03-.01-.07-.02-.11-.02h-.24l-.16-1.22c-.02-.12-.12-.2-.24-.18-.12.01-.2.12-.18.24l.15 1.17H4.02c-.12-.02-.21-.06-.26-.13zm24.41-.32c-.08.09-.2.14-.33.14H17.5v-.07l-.15-1.08c-.05-.34-.18-.89-.29-1.22l-1.22-3.53c-.14-.41-.59-.7-1.02-.67l-1.14.09c.01-.02.03-.05.04-.07l.97-2.59c.13-.35.54-.79.88-.94l.87-.4c.45-.21 1.03-.7 1.31-1.11l1.42-2.08c.07-.1.15-.15.22-.15.08 0 .16.05.22.15l4.04 5.95c.32.48 1 .7 1.55.5l.72-.26c.13-.05.27-.04.39.02s.21.17.25.3l1.22 3.85c.13.41.28 1.11.33 1.53l.16 1.29c.02.14-.02.26-.1.35zM20.65 10.3c-.06-.1-.19-.13-.29-.06-.1.06-.13.19-.06.29l2.43 3.79c.04.06.11.1.18.1.04 0 .08-.01.11-.03.1-.06.13-.19.06-.29 0-.01-2.43-3.8-2.43-3.8zm.02 2.15c-.06-.1-.19-.13-.29-.07-.1.06-.13.19-.07.29l.8 1.26c.04.07.06.12.07.15-.03 0-.09-.01-.16-.04l-1.37-.46c-.39-.13-.58 0-.66.09-.08.09-.18.3 0 .67l1.65 3.29c.04.07.11.12.19.12.03 0 .06-.01.09-.02.1-.05.15-.18.09-.28l-1.65-3.29c-.06-.13-.06-.19-.07-.2.01-.01.08-.02.21.03l1.37.46c.38.13.56.02.65-.09.09-.11.15-.31-.07-.65l-.78-1.26zm-9.9.93c-.06-.1-.19-.13-.29-.07-.1.06-.13.19-.07.29l1.23 1.95c.04.06.11.1.18.1.04 0 .08-.01.11-.03.1-.06.13-.19.07-.29l-1.23-1.95z"/></svg>