<svg xmlns="http://www.w3.org/2000/svg" viewBox="0 0 32 32"><path d="M5.62 12.8c.05-.19.11-.38.18-.56.04-.12-.02-.25-.14-.3-.12-.04-.25.02-.3.14-.07.2-.14.4-.19.61-.06.25-.11.5-.15.76-.04.29-.06.59-.06.89 0 .34.02.68.07 1.02.05.37.13.75.24 1.13.03.1.12.17.22.17.02 0 .04 0 .06-.01.12-.03.19-.16.16-.28-.1-.36-.18-.71-.23-1.06-.04-.32-.07-.64-.07-.95 0-.28.02-.56.06-.83.05-.27.1-.5.15-.73zm.21-1.21c.02.01.05.02.08.02.05 0 .11-.03.13-.08.03-.05.05-.08.05-.08.05-.07.03-.16-.04-.21-.07-.05-.16-.03-.21.04 0 0-.02.03-.06.1-.05.07-.03.17.05.21zm.19 1.54c-.01.04-.28.87.04 2.26.02.07.08.12.15.12h.03c.08-.02.13-.1.11-.18-.3-1.29-.05-2.08-.05-2.09.03-.08-.02-.17-.1-.19-.07-.04-.16 0-.18.08zM22.1 24.64c-.26.27-.53.51-.81.73-.25.2-.52.38-.79.53-.24.14-.49.26-.75.37-.22.09-.44.17-.68.23-.19.05-.38.1-.58.13-.12.02-.21.14-.19.27.02.11.12.19.23.19h.04c.21-.04.42-.08.62-.14.25-.07.49-.15.73-.25.27-.11.55-.25.8-.39.29-.17.58-.36.85-.57.3-.23.58-.49.86-.77.09-.09.08-.24-.01-.33-.09-.09-.23-.09-.32 0zm-4.33 2.14h-.1c-.08-.01-.16.06-.16.14s.06.16.14.16h.12c.08 0 .15-.07.15-.15s-.07-.15-.15-.15zm1.36-.78h.03c.04-.01.9-.2 1.93-1.17.06-.06.07-.16.01-.22-.06-.06-.16-.07-.22-.01-.97.91-1.78 1.09-1.79 1.09-.08.02-.14.1-.12.18.03.08.09.13.16.13zm1.96-19.69c.36.09.71.2 1.03.34.3.12.58.26.86.42.24.14.48.3.69.47.19.15.37.3.54.47.14.14.28.28.4.43.05.05.11.08.18.08.05 0 .1-.02.15-.05.1-.08.11-.23.03-.32-.14-.16-.28-.32-.43-.47-.18-.18-.38-.35-.58-.5-.23-.18-.48-.35-.74-.5-.29-.17-.6-.32-.92-.45-.35-.14-.72-.26-1.1-.36-.12-.03-.25.05-.28.17-.03.12.05.24.17.27zm4.06 2.77c.03.05.08.09.14.09.02 0 .05-.01.07-.02.08-.04.11-.13.07-.2 0 0-.02-.04-.06-.1-.04-.07-.14-.1-.21-.06-.07.04-.1.14-.06.21.04.05.05.08.05.08zm-3.39-1.99c-.08-.02-.17.02-.19.1-.02.08.02.17.1.19 1.27.39 1.83.99 1.84 1 .03.03.07.05.11.05.04 0 .07-.01.1-.04.06-.06.07-.15.01-.22-.02-.02-.62-.67-1.97-1.08zm1.96 5.32c-1.32-.14-2.58.95-2.64.99-.06.06-.07.15-.01.22.03.03.07.05.12.05.04 0 .07-.01.1-.04.01-.01 1.21-1.05 2.4-.92.52.06.96.33 1.32.82.05.07.15.08.21.03.07-.05.08-.15.03-.21-.41-.56-.92-.88-1.53-.94zm-7.84 8.79c-.08.01-.15.08-.14.16 0 .02.11 1.6-.71 2.47-.35.37-.83.56-1.42.56h-.03c-.08 0-.15.07-.15.15s.07.15.15.15h.03c.68 0 1.24-.22 1.65-.66.91-.97.8-2.63.79-2.7-.01-.07-.09-.13-.17-.13zm11.09-6.1c-.09-.88-.33-1.64-.7-2.26-.83-1.41-2.25-1.99-4.03-1.63-1.48.3-2.63 1.17-3.75 2.01l-.26.2c-.26-.24-.57-.43-.9-.57.12-.29.29-.55.51-.82.42-.5 1.04-1.03 2-1.7.08-.06.17-.12.25-.2.45-.4.74-.92.81-1.48.08-.6-.08-1.2-.45-1.74-.05-.11-.12-.21-.21-.31-.97-1.09-2.53-1.69-4.41-1.69-1.16 0-2.39.23-3.54.65-.84.31-1.63.73-2.27 1.2-.71.52-1.26 1.11-1.61 1.74-.57 1.01-.93 2.57.6 4.3 1 1.13 2.33 1.69 3.61 2.24l.06.03c.08.03.16.07.24.1-.04.22-.07.44-.07.66 0 .13.01.27.03.4-.31.04-.62.03-.97-.03-.64-.11-1.41-.38-2.48-.88-.1-.05-.2-.09-.3-.12-.56-.2-1.16-.18-1.68.03-.56.23-1 .67-1.28 1.27-.05.11-.1.23-.14.35-.88 2.62.91 5.61 3.08 7.4.69.58 1.45 1.05 2.17 1.37.79.35 1.56.53 2.27.53h.04c1.16-.01 2.69-.48 3.43-2.67.48-1.43.31-2.86.14-4.24-.01-.11-.03-.22-.04-.33.34-.11.65-.28.94-.49.19.25.34.53.46.85.23.61.37 1.41.47 2.59.01.1.02.21.05.32.12.58.43 1.09.88 1.44.48.37 1.1.53 1.73.48.11-.01.24-.03.38-.06 2.71-.55 4.4-3.6 4.88-6.37.12-.89.16-1.78.06-2.57zm-.54 2.48c-.45 2.62-2.02 5.49-4.52 5.99-.12.02-.22.04-.32.05-.55.05-1.03-.09-1.42-.38-.36-.28-.61-.68-.71-1.17-.02-.09-.03-.18-.04-.27-.1-1.23-.26-2.06-.5-2.71-.16-.43-.37-.79-.64-1.11.29-.31.62-.81.83-1.58.02-.08-.03-.17-.11-.19s-.17.03-.19.11c-.2.74-.53 1.21-.79 1.48l-.12.1c-.32.28-.71.49-1.13.6l-.19.05.02.2.06.52c.16 1.33.33 2.71-.12 4.04-.51 1.53-1.55 2.34-2.99 2.36h-.03c-.65 0-1.35-.16-2.09-.49-.69-.3-1.4-.75-2.06-1.3-2.04-1.7-3.74-4.49-2.93-6.91.03-.1.07-.2.12-.3.23-.49.59-.85 1.04-1.04.22-.09.46-.14.71-.14.22 0 .44.04.66.11.08.03.16.06.25.1 1.11.52 1.91.81 2.6.92.45.08.86.08 1.28.01.11.36.32.78.68 1.23.03.04.07.06.12.06.03 0 .07-.01.1-.03.07-.05.08-.15.02-.22-.34-.42-.53-.82-.63-1.15l-.03-.17c-.04-.18-.06-.36-.06-.55 0-.25.03-.49.1-.73l.05-.19-.18-.08-.42-.18-.06-.03c-1.24-.53-2.51-1.07-3.44-2.12-1.07-1.19-1.26-2.49-.55-3.75.32-.57.82-1.11 1.48-1.59.61-.45 1.36-.84 2.16-1.14 1.1-.41 2.27-.62 3.38-.62 1.74 0 3.19.55 4.06 1.54.08.09.14.17.2.25.31.45.44.94.38 1.42-.06.45-.29.87-.66 1.19-.07.06-.14.12-.21.17-1 .7-1.65 1.25-2.1 1.79-.29.35-.5.71-.64 1.1-.38-.08-.93-.1-1.64.1-.08.02-.13.11-.11.19.02.08.11.13.19.11.65-.18 1.14-.17 1.48-.1l.19.06c.4.14.77.37 1.09.68l.15.13.58-.43c1.07-.81 2.18-1.64 3.56-1.92 1.59-.32 2.8.16 3.54 1.41.33.57.55 1.27.64 2.08.08.76.05 1.6-.09 2.44zM16.09 13.6c-1.19 0-2.17.97-2.17 2.17s.97 2.17 2.17 2.17 2.17-.97 2.17-2.17-.97-2.17-2.17-2.17zm0 4.03c-1.03 0-1.86-.83-1.86-1.86 0-1.02.83-1.86 1.86-1.86 1.02 0 1.86.83 1.86 1.86 0 1.02-.83 1.86-1.86 1.86zm.03-3.02c-.62 0-1.13.51-1.13 1.13 0 .62.51 1.13 1.13 1.13.62 0 1.13-.51 1.13-1.13 0-.62-.51-1.13-1.13-1.13zm0 1.95c-.45 0-.82-.37-.82-.82s.37-.82.82-.82c.45 0 .82.37.82.82 0 .45-.37.82-.82.82zm-6.43-6.47c0-.52.23-.99.67-1.4.06-.06.07-.15.01-.22-.06-.06-.15-.07-.22-.01-.51.47-.77 1.02-.77 1.63 0 1.33 1.22 2.47 1.27 2.51.03.03.07.04.1.04.04 0 .08-.02.11-.05.06-.06.05-.16-.01-.22 0 0-1.16-1.09-1.16-2.28z"/></svg>