<svg data-name="mobile-devices" xmlns="http://www.w3.org/2000/svg" viewBox="0 0 36 36"><title>Icon-Red_Hat-Hardware-Mobile_Devices-A-Black-RGB</title><path d="M14 7.75a.75.75 0 0 0 .53-1.28.78.78 0 0 0-.24-.16.73.73 0 0 0-.58 0 .78.78 0 0 0-.24.16.75.75 0 0 0 .53 1.28zm2 16.5h-4a.75.75 0 0 0 0 1.5h4a.75.75 0 0 0 0-1.5zm15-12h-7.29V4a.76.76 0 0 0-.71-.75H5a.75.75 0 0 0-.79.75v24a.75.75 0 0 0 .75.75h14.25V32a.75.75 0 0 0 .75.75H31a.75.75 0 0 0 .75-.75V13a.75.75 0 0 0-.75-.75zM19.21 13v14.25H5.71V4.75h16.5v7.5H20a.75.75 0 0 0-.79.75zm11.08 18.25h-9.58v-17.5h9.58zM25 15.9a.71.71 0 0 0 .53.22.93.93 0 0 0 .29-.05.66.66 0 0 0 .18-.17.63.63 0 0 0 .16-.24.67.67 0 0 0 .06-.28.73.73 0 0 0-.22-.53.76.76 0 0 0-1.06 0 .67.67 0 0 0-.16.24.72.72 0 0 0-.06.29.67.67 0 0 0 .06.28.78.78 0 0 0 .22.24zm-1 14.48h3.16a.75.75 0 0 0 .75-.76.74.74 0 0 0-.75-.74h-3.24a.74.74 0 0 0-.75.74.75.75 0 0 0 .75.76z"/></svg>