<svg xmlns="http://www.w3.org/2000/svg" viewBox="0 0 32 32"><path d="M23.19 4.09H8.81c-.81 0-1.47.66-1.47 1.47v20.88c0 .81.66 1.47 1.47 1.47h14.38c.81 0 1.47-.66 1.47-1.47V5.56c0-.81-.66-1.47-1.47-1.47zm.86 22.35c0 .47-.39.86-.86.86H8.81c-.47 0-.86-.39-.86-.86V5.56c0-.47.39-.86.86-.86h14.38c.47 0 .86.39.86.86v20.88zM22.27 6.83H20V5.78c0-.31-.25-.57-.57-.57h-6.86c-.32 0-.57.25-.57.57v1.05H9.73c-.49 0-.89.37-.89.83v17.83c0 .46.4.83.89.83h12.53c.49 0 .89-.37.89-.83V7.66c0-.46-.4-.83-.88-.83zm-9.81 0V5.78c0-.06.05-.11.11-.11h6.86c.06 0 .11.05.11.11V7.5c0 .06-.05.11-.11.11h-6.86c-.06 0-.11-.05-.11-.11v-.67zm10.23 18.66c0 .2-.19.37-.43.37H9.73c-.24 0-.43-.17-.43-.37V7.66c0-.2.19-.37.43-.37H12v.21c0 .31.26.57.57.57h6.86c.31 0 .57-.26.57-.57v-.21h2.27c.24 0 .43.16.43.37v17.83zm-.75-14.32c0 .13-.1.23-.23.23h-6.29c-.13 0-.23-.1-.23-.23s.1-.23.23-.23h6.29c.13 0 .23.1.23.23zm0 1.54c0 .13-.1.23-.23.23h-6.29c-.13 0-.23-.1-.23-.23s.1-.23.23-.23h6.29c.13 0 .23.1.23.23zm0 3.61c0 .13-.1.23-.23.23h-6.29c-.13 0-.23-.1-.23-.23s.1-.23.23-.23h6.29c.13 0 .23.1.23.23zm0 1.54c0 .13-.1.23-.23.23h-6.29c-.13 0-.23-.1-.23-.23s.1-.23.23-.23h6.29c.13 0 .23.11.23.23zm0 3.72c0 .13-.1.23-.23.23h-6.29c-.13 0-.23-.1-.23-.23s.1-.23.23-.23h6.29c.13 0 .23.1.23.23zm0 1.54c0 .13-.1.23-.23.23h-6.29c-.13 0-.23-.1-.23-.23s.1-.23.23-.23h6.29c.13 0 .23.1.23.23zm-11.41-9.57h3.09c.13 0 .23-.1.23-.23v-3.08c0-.02-.01-.03-.01-.04l.42-.71c.09-.15.04-.33-.11-.42-.15-.09-.33-.04-.42.11l-.5.84h-2.7c-.13 0-.23.1-.23.23v3.09c0 .11.1.21.23.21zm.23-3.08h2.2l-.87 1.47-.29-.54c-.08-.15-.27-.21-.42-.13s-.21.26-.13.41l.54 1.01c0 .01.01.01.02.02s.01.02.02.03c.02.03.05.05.07.07.01.01.02.01.03.01.04.02.08.03.12.03.02 0 .05 0 .07-.01.01 0 .02-.01.03-.01.01 0 .03-.01.04-.02.03-.02.06-.04.08-.07l.02-.02.02-.02 1.05-1.76v2.14h-2.63l.03-2.61zm2.86 10.12h-3.09c-.13 0-.23.1-.23.23v3.08c0 .13.1.23.23.23h3.09c.13 0 .23-.1.23-.23v-3.08c0-.13-.11-.23-.23-.23zm-1.11 1.77l.88-.88v1.76l-.88-.88zm.44-1.31l-.88.88-.88-.88h1.76zm-2.19.43l.88.88-.88.88v-1.76zm.43 2.2l.88-.88.88.88h-1.76zm2.96-9.47c-.15-.08-.33-.03-.42.11l-.56.99h-2.63c-.13 0-.23.1-.23.23v3.08c0 .13.1.23.23.23h3.09c.13 0 .23-.1.23-.23v-3.09c0-.05-.02-.08-.04-.12l.45-.8c.08-.12.02-.31-.12-.4zm-.76 4.19h-2.62v-2.62h2.14l-.81 1.42-.29-.58c-.07-.15-.26-.21-.41-.14-.15.07-.21.26-.14.41l.54 1.1c.01.01.01.02.02.03.01.01.01.02.02.02.02.03.05.05.08.07.01.01.03.01.05.02.01 0 .01.01.02.01.03.01.05.01.08.01.04 0 .08-.01.12-.03h.02c.03-.02.06-.04.08-.06l.02-.02.03-.03 1.05-1.84v2.23z"/></svg>