<svg xmlns="http://www.w3.org/2000/svg" width="81.818" height="55.944" viewBox="0 0 81.818 55.944"><path d="M67.866 6.204v24.574c0 .388-.315.702-.703.702h-53.18c-.387 0-.702-.314-.702-.702V6.204c0-.39.315-.703.704-.703h53.18c.387 0 .702.315.702.704zm-1.405.703H14.688v22.235H66.46V6.907z"/><path d="M20.14 27.37c.194 0 .35-.156.35-.35v-18c0-.194-.156-.352-.35-.352s-.352.157-.352.352v18c0 .194.157.35.352.35zM26.938 27.37c.194 0 .35-.156.35-.35v-18c0-.194-.156-.352-.35-.352s-.352.157-.352.352v18c0 .194.157.35.352.35zM33.755 27.37c.194 0 .352-.156.352-.35v-18c0-.194-.157-.352-.352-.352-.194 0-.35.157-.35.352v18c0 .194.157.35.35.35zM40.574 27.493c.194 0 .35-.157.35-.352v-18c0-.193-.156-.35-.35-.35s-.352.156-.352.35v18c0 .196.157.353.352.353zM47.392 27.37c.193 0 .352-.156.352-.35v-18c0-.194-.158-.352-.352-.352-.195 0-.352.157-.352.352v18c0 .194.156.35.352.35zM54.21 27.37c.194 0 .352-.156.352-.35v-18c0-.194-.157-.352-.35-.352-.196 0-.353.157-.353.352v18c0 .194.156.35.35.35zM61.028 27.37c.194 0 .35-.156.35-.35v-18c0-.194-.155-.352-.35-.352-.193 0-.352.157-.352.352v18c0 .194.16.35.352.35z"/><g><path d="M73.676 38.002H8.968c-.276 0-.5-.225-.5-.5v-3.334c0-.276.224-.5.5-.5h64.708c.276 0 .5.224.5.5v3.334c0 .275-.224.5-.5.5zm-64.208-1h63.708v-2.334H9.468v2.334zM13.377 47.61c-2.374 0-4.305-1.93-4.305-4.304 0-2.374 1.93-4.305 4.305-4.305s4.305 1.932 4.305 4.306-1.932 4.305-4.305 4.305zm0-7.608c-1.822 0-3.305 1.482-3.305 3.305s1.482 3.305 3.305 3.305 3.305-1.482 3.305-3.305-1.483-3.305-3.305-3.305zM59.148 47.61c-2.374 0-4.305-1.93-4.305-4.304 0-2.374 1.93-4.305 4.305-4.305s4.305 1.932 4.305 4.306-1.93 4.305-4.305 4.305zm0-7.608c-1.822 0-3.305 1.482-3.305 3.305s1.482 3.305 3.305 3.305 3.305-1.482 3.305-3.305-1.482-3.305-3.305-3.305zM23.362 47.61c-2.374 0-4.305-1.93-4.305-4.304 0-2.374 1.93-4.305 4.305-4.305 2.374 0 4.305 1.932 4.305 4.306s-1.93 4.305-4.305 4.305zm0-7.608c-1.822 0-3.305 1.482-3.305 3.305s1.482 3.305 3.305 3.305 3.305-1.482 3.305-3.305-1.482-3.305-3.305-3.305zM69.135 47.61c-2.374 0-4.306-1.93-4.306-4.304 0-2.374 1.93-4.305 4.305-4.305 2.373 0 4.304 1.932 4.304 4.306-.002 2.374-1.932 4.305-4.305 4.305zm0-7.608c-1.822 0-3.306 1.482-3.306 3.305s1.482 3.305 3.305 3.305c1.82 0 3.304-1.482 3.304-3.305s-1.484-3.305-3.305-3.305z"/><path d="M77.3 36.335h-3.624c-.276 0-.5-.224-.5-.5s.224-.5.5-.5H77.3c.277 0 .5.224.5.5s-.223.5-.5.5zM8.968 36.335H5.343c-.276 0-.5-.224-.5-.5s.224-.5.5-.5h3.625c.276 0 .5.224.5.5s-.224.5-.5.5z"/></g></svg>