<svg xmlns="http://www.w3.org/2000/svg" viewBox="0 0 31.68 31.68"><path d="M19.43 11.75l-4.22 2.83c-.07.05-.08.14-.04.2.03.04.07.06.12.06.03 0 .06-.01.08-.03L19.6 12c.07-.05.08-.14.04-.2-.05-.07-.14-.09-.21-.05M17.3 14.28l-3.34 2.26c-.07.05-.09.14-.04.2.03.04.07.06.12.06.03 0 .06-.01.08-.03l3.34-2.26c.07-.05.09-.14.04-.2-.04-.06-.13-.07-.2-.03"/><path d="M20.73 5.33h-9.77c-.61 0-1.1.49-1.1 1.1v18.84c0 .61.49 1.1 1.1 1.1h9.77c.61 0 1.1-.49 1.1-1.1V6.43c0-.61-.5-1.1-1.1-1.1m-9.78.56h9.77c.29 0 .53.24.53.53v2.41H10.42v-2.4c0-.3.24-.54.53-.54m10.31 16.69H10.42V9.12h10.84v13.46zm-.53 3.22h-9.77c-.29 0-.53-.24-.53-.53v-2.41h10.84v2.41c-.01.29-.25.53-.54.53"/><path d="M14.88 7.57h1.92c.12 0 .21-.1.21-.21s-.1-.21-.21-.21h-1.92c-.12 0-.21.1-.21.21s.09.21.21.21M13.92 7.64c.08 0 .15-.03.2-.08.05-.05.08-.12.08-.2 0-.07-.03-.15-.08-.2-.1-.1-.29-.11-.4 0-.05.05-.09.12-.09.2 0 .08.03.15.09.2.05.05.13.08.2.08M16.39 23.28h-1.1c-.41 0-.75.33-.75.75v.54c0 .41.33.75.75.75h1.1c.41 0 .75-.33.75-.75v-.54c0-.41-.34-.75-.75-.75m.32 1.29c0 .18-.14.32-.32.32h-1.1c-.18 0-.32-.14-.32-.32v-.54c0-.18.14-.32.32-.32h1.1c.18 0 .32.14.32.32v.54z"/></svg>