<svg data-name="webinar" xmlns="http://www.w3.org/2000/svg" viewBox="0 0 36 36"><title>Icon-Red_Hat-Hardware-Laptop_webinar-A-Black-RGB</title><path d="M25.5 18.74h-6a.75.75 0 0 0 0 1.5h6a.75.75 0 0 0 0-1.5zm-6-4.5h6a.75.75 0 0 0 0-1.5h-6a.75.75 0 0 0 0 1.5zm-1.5-5a.72.72 0 0 0 .29-.06.63.63 0 0 0 .24-.18.74.74 0 0 0 .16-.82.75.75 0 0 0-1.22-.18.63.63 0 0 0-.16.24.75.75 0 0 0 .69 1zm7.5 6.5h-6a.75.75 0 1 0 0 1.5h6a.75.75 0 1 0 0-1.5zM6 25.24h24a.75.75 0 0 0 .75-.75v-16a.76.76 0 0 0-.75-.75h-9a.75.75 0 0 0 0 1.5h8.25v14.5H6.75V9.24H15a.75.75 0 0 0 0-1.5H6a.76.76 0 0 0-.75.75v16a.75.75 0 0 0 .75.75zm27 1.52H3a.75.75 0 0 0 0 1.5h30a.75.75 0 0 0 0-1.5zm-21.12-13a.75.75 0 0 0-1.13.64v4.16a.73.73 0 0 0 .38.65.69.69 0 0 0 .37.1.75.75 0 0 0 .38-.1l3.58-2.08a.74.74 0 0 0 .37-.65.76.76 0 0 0-.37-.65zm.37 3.5v-1.54l1.34.77z"/></svg>