<svg data-name="Layer 1" xmlns="http://www.w3.org/2000/svg" width="36" height="36" viewBox="0 0 36 36"><title>Icon-Red_Hat-Hardware-Virtual_Server-Unsecured-A-Black-RGB</title><path d="M14.4 11.75a.75.75 0 1 0-.75-.75.76.76 0 0 0 .75.75zm2.6 0a.75.75 0 1 0-.75-.75.76.76 0 0 0 .75.75zm-5.2 0a.75.75 0 1 0-.75-.75.76.76 0 0 0 .75.75zm-7.27 9.72a.75.75 0 0 0-1.22.24.75.75 0 0 0-.06.29.72.72 0 0 0 .06.29.63.63 0 0 0 .16.24.75.75 0 0 0 .53.22.72.72 0 0 0 .29-.06.74.74 0 0 0 .4-.4.73.73 0 0 0 0-.58.63.63 0 0 0-.16-.24zm4.67-9.72a.75.75 0 1 0-.75-.75.76.76 0 0 0 .75.75zM4 18.5a.75.75 0 1 0 .75.75.76.76 0 0 0-.75-.75zm2.6-6.75a.75.75 0 1 0-.75-.75.76.76 0 0 0 .75.75zm23.4 5a.75.75 0 0 0 .53-1.28.77.77 0 0 0-1.06 0 .75.75 0 0 0 .53 1.28zm-26-1a.75.75 0 1 0 .75.75.76.76 0 0 0-.75-.75zm26-1.5a.75.75 0 1 0-.75-.75.76.76 0 0 0 .75.75zm-.29-2.56a.73.73 0 0 0 .58 0 .63.63 0 0 0 .24-.16.75.75 0 0 0 0-1.06.78.78 0 0 0-.24-.16.73.73 0 0 0-.58 0 .78.78 0 0 0-.24.16.75.75 0 0 0 0 1.06.63.63 0 0 0 .24.16zm-4.91.06a.75.75 0 1 0-.75-.75.76.76 0 0 0 .75.75zm-2.6 0a.75.75 0 1 0-.75-.75.76.76 0 0 0 .75.75zm-2.6 0a.75.75 0 1 0-.75-.75.76.76 0 0 0 .75.75zm7.8 0a.75.75 0 1 0-.75-.75.76.76 0 0 0 .75.75zm-8.4 9.5a.75.75 0 1 0 .75.75.75.75 0 0 0-.75-.75zm5-3H7.75v-3.5h18.5V16a.75.75 0 0 0 1.5 0v-2a.76.76 0 0 0-.75-.75H7a.76.76 0 0 0-.75.75v5a.76.76 0 0 0 .75.75h17a.75.75 0 0 0 0-1.5zm-14.55-2.5a.75.75 0 0 0 0 1.5h3a.75.75 0 0 0 0-1.5zm15.08 5.72a.75.75 0 0 0-1.22.24.75.75 0 0 0-.06.29.72.72 0 0 0 .06.29.74.74 0 0 0 .4.4.72.72 0 0 0 .29.06.75.75 0 0 0 .53-.22.63.63 0 0 0 .16-.24.72.72 0 0 0 .06-.29.75.75 0 0 0-.06-.29.78.78 0 0 0-.16-.24zm9.72 3.62l-.86-.86a3.73 3.73 0 0 0 .38-1.6v-3a.75.75 0 0 0-.52-.71l-3-1a.76.76 0 0 0-.47 0l-2 .67-.78-.75a.75.75 0 0 0-1.06 0 .74.74 0 0 0 0 1.06l6.53 6.54.72.71a.73.73 0 0 0 .53.22.74.74 0 0 0 .53-.22.75.75 0 0 0 0-1.06zM21.5 21.25a.75.75 0 0 0 0 1.5.75.75 0 0 0 0-1.5zm4.77 1.38A3.75 3.75 0 0 0 30 26.38a3.49 3.49 0 0 0 1.08-.18l-4.83-4.84zM23.77 16a.75.75 0 0 0 .53 1.28.77.77 0 0 0 .53-.22.75.75 0 0 0 0-1.06.77.77 0 0 0-1.06 0zM6.5 21.25a.75.75 0 1 0 .75.75.75.75 0 0 0-.75-.75zm10 0a.75.75 0 0 0 0 1.5.75.75 0 0 0 0-1.5zM4 13a.75.75 0 1 0 .75.75A.75.75 0 0 0 4 13zm-.53-2.53a.75.75 0 1 0 1.06 0 .77.77 0 0 0-1.06 0zM9 21.25a.75.75 0 1 0 .75.75.75.75 0 0 0-.75-.75zm2.5 0a.75.75 0 1 0 .75.75.75.75 0 0 0-.75-.75zm2.5 0a.75.75 0 1 0 .75.75.75.75 0 0 0-.75-.75z"/></svg>