<svg xmlns="http://www.w3.org/2000/svg" viewBox="0 0 512 512"><path fill="#231F20" d="M437.3 170.1L259.4 87.9c-1.3-.6-2.8-.6-4.1 0L76.6 170.1c-2.1 1-3.2 3.2-2.7 5.5.5 2.2 2.5 3.8 4.8 3.8h22V210c0 2.7 2.2 4.9 4.9 4.9h17.1v147.8h-17.1c-2.7 0-4.9 2.2-4.9 4.9v35c0 2.7 2.2 4.9 4.9 4.9H401c2.7 0 4.9-2.2 4.9-4.9v-35c0-2.7-2.2-4.9-4.9-4.9h-11.4V214.9H401c2.7 0 4.9-2.2 4.9-4.9v-30.5h29.3c2.3 0 4.3-1.6 4.8-3.8.5-2.3-.6-4.6-2.7-5.6zm-55 177h-22.4v-118h22.4v118zm-29.7 15.5h-31.3V214.9h31.3v147.7zm-61.1-133.5h22.4v118h-22.4v-118zm22.4-14.2v9.4h-22.4v-9.4h22.4zM291.5 352h22.4v10.6h-22.4V352zm-7.3 10.6H228V214.9h56.2v147.7zm-85.9-133.5h22.4v118h-22.4v-118zm22.4-14.2v9.4h-22.4v-9.4h22.4zM198.3 352h22.4v10.6h-22.4V352zm-7.3 10.6h-31.3V214.9H191v147.7zm-61.1-133.5h22.4v118h-22.4v-118zm22.4-14.2v9.4h-22.4v-9.4h22.4zM129.9 352h22.4v10.6h-22.4V352zm-19.5 45.6v-10.2h285.7v10.2H110.4zm285.7-15.1H110.4v-10.2h285.7v10.2zm-36.2-19.9V352h22.4v10.6h-22.4zm22.4-138.4h-22.4v-9.4h22.4v9.4zm13.8-19.1H110.4v-25.6h285.7v25.6zM101 169.7l156.4-72 155.7 72H101zm155.8-64.9c.6-.3 1.4-.3 2 0l95.2 44.4c1.2.6 1.8 2 1.2 3.2-.4.9-1.3 1.4-2.2 1.4-.3 0-.7-.1-1-.2l-94.2-43.9-21 9.3c-1.2.5-2.7 0-3.2-1.2s0-2.7 1.2-3.2l22-9.8z"/></svg>