<svg xmlns="http://www.w3.org/2000/svg" width="32" height="32" viewBox="0 0 32 32"><path d="M22.125 14.768c-.127 0-.23.103-.23.23v3.744c0 .127.103.23.23.23s.23-.103.23-.23V15c0-.128-.103-.23-.23-.23zm1.02 0c-.128 0-.23.103-.23.23v3.744c0 .127.102.23.23.23s.23-.103.23-.23V15c0-.128-.104-.23-.23-.23zM16 5.988c-5.52 0-10.013 4.49-10.013 10.012 0 5.52 4.492 10.013 10.013 10.013S26.013 21.52 26.013 16c0-5.52-4.492-10.013-10.013-10.013zm0 19.258c-5.098 0-9.246-4.147-9.246-9.246 0-2.438.95-4.658 2.498-6.312l5.086 5.08h-6.03c-.127 0-.23.103-.23.23s.103.23.23.23h6.49l3.288 3.284H8.648c-.127 0-.23.103-.23.23s.103.23.23.23h9.898l3.774 3.77c-1.654 1.552-3.878 2.505-6.32 2.505zm-.118-10.018h4.95v3.284H19.17l-3.288-3.284zm6.976 6.966L19.63 18.97h1.43c.127 0 .23-.102.23-.23V15c0-.127-.103-.23-.23-.23h-5.64L9.795 9.15c1.642-1.488 3.82-2.396 6.204-2.396 5.097 0 9.245 4.148 9.245 9.246 0 2.38-.905 4.554-2.388 6.194zm.223-8.036c.128 0 .23-.103.23-.23 0-.27-.082-.49-.246-.654-.252-.25-.596-.26-.642-.26h-4.678s-.197-.005-.32-.126c-.074-.075-.11-.182-.11-.33 0-.413.33-.45.43-.453h2.326c.358 0 .89-.244.89-.915s-.532-.914-.89-.914h-4.4c-.002 0-.196-.005-.318-.126-.075-.074-.112-.182-.112-.328 0-.127-.103-.23-.23-.23s-.23.103-.23.23c0 .27.083.49.247.654.253.252.597.26.642.26h4.397c.102.002.434.04.434.454s-.33.453-.43.455h-2.326c-.358 0-.89.244-.89.914 0 .27.082.49.246.654.253.25.597.26.642.26h4.677c.1.002.43.04.43.455 0 .126.103.23.23.23z"/></svg>