<svg data-name="edge" xmlns="http://www.w3.org/2000/svg" viewBox="0 0 36 36"><title>Icon-Red_Hat-</title><path d="M14.52 11.29h.17a.75.75 0 0 0-.34-1.47.75.75 0 0 0 .17 1.48zm6.25 0a.5.5 0 0 0 .17 0 .75.75 0 1 0-.17 0zm5.95 2.81a.75.75 0 0 0 .47-1.34.75.75 0 0 0-.93 1.17.73.73 0 0 0 .46.15zm-18 0a.72.72 0 0 0 .46-.16.75.75 0 1 0-.93-1.17.74.74 0 0 0-.12 1.05.77.77 0 0 0 .61.26zm-3.68 3.6a.74.74 0 1 0-.63 1.3.61.61 0 0 0 .32.08.77.77 0 0 0 .68-.42.75.75 0 0 0-.35-.98zM3 23.92a.77.77 0 0 0-.47.7.73.73 0 0 0 .22.52.62.62 0 0 0 .25.17.67.67 0 0 0 .28.06.72.72 0 0 0 .29-.06.66.66 0 0 0 .24-.17.69.69 0 0 0 .22-.52.73.73 0 0 0-.22-.53.76.76 0 0 0-.81-.17zm29.68.16a1.07 1.07 0 0 0-.25-.16.77.77 0 0 0-.81.16.7.7 0 0 0-.22.53.72.72 0 0 0 .22.54.72.72 0 0 0 .53.21.77.77 0 0 0 .53-.21.76.76 0 0 0 0-1.07zM31.41 18a.76.76 0 0 0-1-.35.75.75 0 0 0 .33 1.43.8.8 0 0 0 .33-.08.75.75 0 0 0 .34-1zM25 19.65a6.42 6.42 0 0 0-11.71-2.91 5 5 0 1 0-.35 10h11.39a3.59 3.59 0 0 0 .71-7.1zm-.71 5.6H13a3.51 3.51 0 0 1 0-7 3.83 3.83 0 0 1 .6.05.73.73 0 0 0 .78-.37 4.93 4.93 0 0 1 9.22 2.42.75.75 0 0 0 .75.75 2.09 2.09 0 1 1 0 4.17z"/></svg>