<svg xmlns="http://www.w3.org/2000/svg" viewBox="0 0 32 32"><path d="M17.43 6.78v-.32c0-.45-.78-.55-1.43-.55-.65 0-1.43.09-1.43.55v.32c-1.32.24-2.1.81-2.1 1.35v16.79c0 1.05 2.47 1.17 3.53 1.17s3.53-.11 3.53-1.17V8.13c0-.54-.78-1.1-2.1-1.35zm-2.4-.27c.08-.05.36-.14.97-.14s.88.09.97.14v.91c-.09.05-.37.14-.97.14s-.88-.09-.97-.14v-.91zm-.19 1.33c.28.14.75.18 1.16.18.41 0 .88-.04 1.16-.18.17.04.29.08.37.12-.2.1-.73.22-1.53.22s-1.33-.13-1.53-.22c.08-.04.2-.08.37-.12zM16 25.48c-2.1 0-2.87-.41-2.92-.55V8.13c.01-.15.49-.53 1.49-.73v.03c-.35.1-.63.26-.63.52 0 .65 1.71.68 2.06.68s2.06-.03 2.06-.68c0-.26-.28-.42-.63-.52V7.4c1 .2 1.48.58 1.49.73v16.79c-.05.15-.82.56-2.92.56zm.66-18.81c-.01-.08-.09-.15-.17-.14-.2.02-.44.03-.68.02-.09 0-.18-.01-.27-.01-.08-.01-.16.06-.16.14-.01.08.06.16.14.16.09.01.18.01.28.01h.17c.19 0 .38-.01.54-.03.1.01.16-.07.15-.15zm.32 4.55h-.68v-.67c0-.17-.14-.31-.31-.31s-.31.14-.31.31v.67h-.67c-.17 0-.31.14-.31.31s.14.31.31.31h.67v.67c0 .17.14.31.31.31.17 0 .31-.14.31-.31v-.67h.67c.17 0 .31-.14.31-.31s-.14-.31-.3-.31zm-.31 11.57h-1.34c-.17 0-.31.14-.31.31 0 .17.14.31.31.31h1.34c.17 0 .31-.14.31-.31 0-.18-.14-.31-.31-.31z"/></svg>