<?xml version="1.0" encoding="UTF-8"?>
<svg id="uuid-cebb6c1a-c42e-4a66-8f3c-fbf5efe6a33f" data-name="Icon" xmlns="http://www.w3.org/2000/svg" viewBox="0 0 36 36">
  <path d="M6.5,29.12h15c.35,0,.62-.28,.62-.62v-9c0-.34-.28-.62-.62-.62h-5c-.82,0-.82,1.25,0,1.25h4.38v7.75H7.12v-7.75h4.38c.82,0,.82-1.25,0-1.25H6.5c-.35,0-.62,.28-.62,.62v9c0,.34,.28,.62,.62,.62Z"/>
  <path d="M23,30.38H5c-.82,0-.82,1.25,0,1.25H23c.82,0,.82-1.25,0-1.25Z"/>
  <path d="M13.56,19.94c.06,.06,.12,.11,.2,.14,.16,.05,.32,.05,.48,0,.07-.03,.14-.08,.2-.14,.06-.06,.11-.13,.14-.2,.06-.16,.06-.32,0-.48-.03-.08-.08-.14-.14-.2-.17-.18-.45-.23-.68-.14-.08,.03-.14,.08-.2,.14-.06,.06-.11,.12-.14,.2-.07,.16-.07,.32,0,.48,.03,.07,.08,.14,.14,.2Z"/>
  <path d="M24.35,14.29c4.52-2.79,2.53-9.92-2.85-9.91-5.37,0-7.37,7.12-2.85,9.91-1.07,.31-2.09,.8-3.01,1.46-.28,.2-.35,.59-.15,.87,.2,.28,.59,.35,.87,.15,5.5-4.04,13.62-.15,13.99,6.61h-5.06c-.82,0-.82,1.25,0,1.25h5.7c.35,0,.62-.28,.62-.62,0-4.59-3.08-8.48-7.28-9.71Zm-6.97-4.54c.17-5.45,8.08-5.45,8.25,0-.17,5.45-8.08,5.45-8.25,0Z"/>
</svg>