<svg xmlns="http://www.w3.org/2000/svg" viewBox="0 0 32 32"><path d="M7.12 12.79v-.15l-.09.15h.09zm14.73-6.62c-.06-.1-.16-.15-.27-.15H10.41c-.11 0-.21.06-.27.15l-5.59 9.68c-.05.09-.05.21 0 .31l5.59 9.68c.06.09.16.15.27.15h11.17c.11 0 .21-.06.27-.15l5.59-9.68c.05-.09.05-.21 0-.31l-5.59-9.68zm4.46 10.71v-.64c0-.16-.1-.26-.26-.26s-.26.1-.26.26v.67h-.21V14.4h-.99c-.16 0-.26.1-.26.26s.1.26.26.26h.47v1.99h-.47c-.16 0-.26.1-.26.26s.1.26.26.26h1.4l-1.6 2.77v-1.68h-.99c-.16 0-.26.1-.26.26s.1.26.26.26h.47v1.99h-.47c-.16 0-.26.1-.26.26s.1.26.26.26h.21l-1.56 2.7c-.04-.02-.08-.03-.14-.03-.16 0-.26.1-.26.26v.46l-.12.21h-.08v-2.51h-.99c-.16 0-.26.1-.26.26s.11.26.26.26h.47v1.99h-.47c-.14 0-.23.08-.25.21h-.81c.01-.04.02-.08.02-.13V23.1c0-.25-.2-.45-.45-.45h-1.09c-.25 0-.45.2-.45.45v2.14c0 .05.01.09.02.13h-.82c.01-.04.02-.08.02-.13V23.1c0-.25-.2-.45-.45-.45h-1.09c-.25 0-.45.2-.45.45v2.14c0 .05.01.09.02.13h-.82c.01-.04.02-.08.02-.13V23.1c0-.25-.2-.45-.45-.45h-1.09c-.25 0-.45.2-.45.45v2.14c0 .05.01.09.02.13h-.82c.01-.04.02-.08.02-.13V23.1c0-.25-.2-.45-.45-.45H9.6c-.19 0-.35.12-.41.28l-.85-1.48c.1-.08.16-.2.16-.34v-2.14c0-.25-.2-.45-.45-.45h-1.1c-.1 0-.19.03-.26.09l-.68-1.18h.54c.25 0 .45-.2.45-.45v-2.14c0-.25-.2-.45-.45-.45h-.44l.63-1.09h1.38c.16 0 .26-.1.26-.26v-.93c0-.16-.1-.26-.26-.26s-.26.1-.26.26v.67h-.21v-1.06l1.58-2.74c.08.13.21.21.37.21h1.09c.25 0 .45-.2.45-.45V6.63h1.5v2.03h-.47c-.16 0-.26.1-.26.26s.1.26.26.26h1.46c.16 0 .26-.1.26-.26v-.93c0-.16-.1-.26-.26-.26s-.26.1-.26.26v.67h-.21V6.63H15.39v2.03h-.47c-.16 0-.26.1-.26.26s.1.26.26.26h1.46c.16 0 .26-.1.26-.26v-.93c0-.16-.1-.26-.26-.26s-.26.1-.26.26v.67h-.21V6.63h1.51v2.11c0 .25.2.45.45.45h1.09c.25 0 .45-.2.45-.45V6.63h.78v2.11c0 .25.2.45.45.45h1.09c.25 0 .45-.2.45-.45v-.79l1.34 2.32h-.12c-.25 0-.45.2-.45.45v2.14c0 .25.2.45.45.45h1.09c.25 0 .45-.2.45-.45v-.13L26.82 16l-.51.88zM9.68 23.17h.94v1.99h-.14l-.79-1.38v-.61zm2.76 1.99v-1.99h.94v1.99h-.94zm2.76 0v-1.99h.94v1.99h-.94zm2.76 0v-1.99h.94v1.99h-.94zM7.12 12.79h-.08l.09-.15v.15zM5.8 14.92h.67v1.99h-.76l-.17-.3v-1.23l.26-.46zm1.23 4.13h.94v1.77l-.94-1.62v-.15zM21.65 8.66h-.94V6.67h.72l.22.37v1.62zm-3.69-1.99h.94v1.99h-.94V6.67zm-7.35 0v1.99h-.93v-.45l.89-1.54h.04zm13.8 5.16v.96h-.94V10.8h.34c.01 0 .6 1.03.6 1.03zM9.6 13.31h1.09c.25 0 .45-.2.45-.45v-2.14c0-.25-.2-.45-.45-.45H9.6c-.25 0-.45.2-.45.45v2.14c0 .25.2.45.45.45zm.08-.52V10.8h.94v1.99h-.94zm2.68.52h1.09c.25 0 .45-.2.45-.45v-2.14c0-.25-.2-.45-.45-.45h-1.09c-.25 0-.45.2-.45.45v2.14c0 .25.2.45.45.45zm.08-.52V10.8h.94v1.99h-.94zm2.68.52h1.09c.25 0 .45-.2.45-.45v-2.14c0-.25-.2-.45-.45-.45h-1.09c-.25 0-.45.2-.45.45v2.14c0 .25.2.45.45.45zm.08-.52V10.8h.94v1.99h-.94zm2.49 0c-.16 0-.26.1-.26.26s.1.26.26.26h1.46c.16 0 .26-.1.26-.26v-.93c0-.16-.1-.26-.26-.26s-.26.1-.26.26v.67h-.21v-2.51h-.99c-.16 0-.26.1-.26.26s.11.26.26.26h.47v1.99h-.47zm2.76 0c-.16 0-.26.1-.26.26s.1.26.26.26h1.46c.16 0 .26-.1.26-.26v-.93c0-.16-.1-.26-.26-.26s-.26.1-.26.26v.67h-.21v-2.51h-.99c-.16 0-.26.1-.26.26s.11.26.26.26h.47v1.99h-.47zm-10.69 4.2v-2.14c0-.25-.2-.45-.45-.45H8.22c-.25 0-.45.2-.45.45v2.14c0 .25.2.45.45.45h1.09c.25-.01.45-.2.45-.45zm-.53-2.07v1.99H8.3v-1.99h.93zm3.29 2.07v-2.14c0-.25-.2-.45-.45-.45h-1.09c-.25 0-.45.2-.45.45v2.14c0 .25.2.45.45.45h1.09c.25-.01.45-.2.45-.45zm-.53-2.07v1.99h-.94v-1.99h.94zm3.29 2.25v-.93c0-.16-.1-.26-.26-.26s-.26.1-.26.26v.67h-.21V14.4h-.99c-.16 0-.26.1-.26.26s.1.26.26.26h.47v1.99h-.47c-.16 0-.26.1-.26.26s.1.26.26.26h1.46c.15.01.26-.1.26-.26zm2.76-.18v-2.14c0-.25-.2-.45-.45-.45H16.5c-.25 0-.45.2-.45.45v2.14c0 .25.2.45.45.45h1.09c.25-.01.45-.2.45-.45zm-.53-2.07v1.99h-.94v-1.99h.94zm3.29 2.25v-.93c0-.16-.1-.26-.26-.26s-.26.1-.26.26v.67h-.21V14.4h-.99c-.16 0-.26.1-.26.26s.1.26.26.26h.47v1.99h-.47c-.16 0-.26.1-.26.26s.1.26.26.26h1.46c.15.01.26-.1.26-.26zm2.49-1.19c-.16 0-.26.1-.26.26v.67h-.21V14.4h-.99c-.16 0-.26.1-.26.26s.1.26.26.26h.47v1.99h-.47c-.16 0-.26.1-.26.26s.1.26.26.26h1.46c.16 0 .26-.1.26-.26v-.93c0-.16-.09-.26-.26-.26zm-12.3 4.12c-.16 0-.26.1-.26.26v.67h-.21v-2.51h-.99c-.16 0-.26.1-.26.26s.1.26.26.26H10v1.99h-.47c-.16 0-.26.1-.26.26s.1.26.26.26h1.46c.16 0 .26-.1.26-.26v-.93c0-.16-.1-.26-.26-.26zm2.57-1.58h-1.09c-.25 0-.45.2-.45.45v2.14c0 .25.2.45.45.45h1.09c.25 0 .45-.2.45-.45v-2.14c0-.24-.2-.45-.45-.45zm-.08.53v1.99h-.94v-1.99h.94zm2.84-.53h-1.09c-.25 0-.45.2-.45.45v2.14c0 .25.2.45.45.45h1.09c.25 0 .45-.2.45-.45v-2.14c0-.24-.2-.45-.45-.45zm-.08.53v1.99h-.94v-1.99h.94zm2.84-.53h-1.09c-.25 0-.45.2-.45.45v2.14c0 .25.2.45.45.45h1.09c.25 0 .45-.2.45-.45v-2.14c0-.24-.2-.45-.45-.45zm-.08.53v1.99h-.94v-1.99H19zm3.1 1.05c-.16 0-.26.1-.26.26v.67h-.21v-2.51h-.99c-.16 0-.26.1-.26.26s.1.26.26.26h.47v1.99h-.47c-.16 0-.26.1-.26.26s.1.26.26.26h1.46c.16 0 .26-.1.26-.26v-.93c0-.16-.1-.26-.26-.26z"/></svg>