<svg xmlns="http://www.w3.org/2000/svg" width="32" height="32" viewBox="0 0 32 32"><path d="M16.174 20.155c.5-1.344.766-2.777.766-4.232 0-1.48-.264-2.92-.766-4.263.594-1.498 1.504-2.87 2.7-4.03.122-.12.125-.313.007-.435-.06-.062-.14-.093-.22-.093-.076 0-.153.03-.212.086-1.11 1.076-1.983 2.323-2.604 3.68-.62-1.357-1.495-2.605-2.604-3.68-.12-.118-.315-.115-.434.006-.118.122-.115.316.006.434 1.197 1.16 2.107 2.532 2.7 4.03-.5 1.345-.765 2.783-.765 4.264 0 1.455.266 2.888.766 4.232-.626 1.584-1.595 3.03-2.86 4.21-.123.117-.13.31-.014.435.06.064.14.096.223.096.075 0 .15-.027.21-.082 1.18-1.102 2.114-2.422 2.77-3.868.656 1.446 1.59 2.766 2.77 3.868.124.115.317.11.434-.015.116-.124.11-.318-.015-.435-1.264-1.18-2.233-2.627-2.858-4.21zm-.812-4.232c0-1.14.166-2.255.482-3.316.317 1.062.482 2.175.482 3.316 0 1.118-.168 2.22-.482 3.278-.314-1.056-.482-2.16-.482-3.277zm-7.04-3.073c-.077-.073-.198-.07-.27.007-.074.077-.07.198.006.27.777.74 1.206 1.733 1.206 2.796 0 1.094-.472 2.144-1.295 2.88-.08.07-.087.19-.017.27.038.042.09.064.143.064.045 0 .09-.016.127-.05.904-.806 1.423-1.96 1.423-3.163 0-1.17-.47-2.26-1.324-3.073zm2.923-3.953c-.107-.103-.276-.1-.38.007s-.1.277.008.38c1.826 1.757 2.832 4.115 2.832 6.64 0 2.57-1.09 5.043-2.99 6.79-.11.1-.116.27-.016.378.052.058.124.087.197.087.065 0 .13-.024.182-.072 2.01-1.846 3.162-4.465 3.162-7.185 0-2.67-1.065-5.166-2.997-7.026zM9.54 10.6c-.092-.088-.237-.084-.325.008-.087.092-.084.238.008.325 1.385 1.317 2.147 3.088 2.147 4.99 0 1.955-.84 3.827-2.305 5.136-.095.084-.103.23-.02.324.046.05.11.077.173.077.054 0 .11-.018.153-.057 1.564-1.396 2.46-3.393 2.46-5.48 0-2.028-.813-3.918-2.29-5.322zm8.448 5.323c0-2.523 1.006-4.882 2.832-6.64.107-.103.11-.273.007-.38-.053-.053-.122-.08-.194-.08-.067 0-.134.024-.186.074-1.933 1.86-2.996 4.355-2.996 7.026 0 2.72 1.154 5.338 3.163 7.185.11.1.278.093.38-.016.1-.11.093-.28-.017-.38-1.9-1.744-2.99-4.22-2.99-6.79zm2.334 0c0-1.9.762-3.673 2.147-4.99.09-.086.095-.232.007-.324-.045-.048-.106-.072-.167-.072-.056 0-.114.02-.158.063-1.477 1.405-2.29 3.295-2.29 5.323 0 2.087.897 4.084 2.46 5.48.094.083.24.075.324-.02.084-.094.076-.24-.02-.324-1.464-1.31-2.305-3.18-2.305-5.137zm3.71 2.878c-.824-.733-1.296-1.783-1.296-2.877 0-1.064.428-2.056 1.206-2.795.077-.073.08-.194.006-.27-.038-.04-.088-.06-.14-.06-.046 0-.094.018-.13.053-.855.813-1.326 1.904-1.326 3.074 0 1.203.518 2.357 1.422 3.164.08.07.2.064.27-.015.07-.08.065-.2-.014-.27z"/></svg>