<svg xmlns="http://www.w3.org/2000/svg" viewBox="0 0 36 36"><title>Icon-Red_Hat-Objects-Light_Bulb-A-Black-RGB</title><path d="M22.82 22.06l1.05-4.95a7.77 7.77 0 1 0-11.78 0l1.05 5a2.16 2.16 0 0 0 2.09 1.7h5.5a2.17 2.17 0 0 0 2.09-1.75zm-9.68-6a6.27 6.27 0 1 1 11.11-4 6.19 6.19 0 0 1-1.43 4zm8.21 5.72a.66.66 0 0 1-.62.51h-5.5a.64.64 0 0 1-.62-.51l-.9-4.23h8.54zM21.75 26a.75.75 0 0 0-.75-.75h-6a.75.75 0 1 0 0 1.5h.12v.1a2.9 2.9 0 1 0 5.8 0v-.1H21a.76.76 0 0 0 .75-.75zm-2.35.85a1.4 1.4 0 1 1-2.8 0 .3.3 0 0 0 0-.1h2.84a.3.3 0 0 0-.04.12z"/></svg>