<svg xmlns="http://www.w3.org/2000/svg" width="32" height="32" viewBox="0 0 32 32"><path d="M23.534 9.94h-.044l-6.358-3.505c-.003-.002-.007-.002-.01-.003l-.058-.032c-.034-.02-.07-.023-.106-.016-.008 0-.016.004-.023.006-.032.012-.06.034-.078.065 0 .003-.003.006-.004.008-.01.023-.017.046-.018.07l-.033.9c-.014.097.006.27.133.378-.018-.023-.03-.05-.03-.08 0 .03.012.058.03.08.012.017.028.032.046.042l3.673 2.09H11.36l3.67-2.09c.02-.01.035-.025.047-.04.127-.108.148-.28.135-.362l-.035-.917c0-.025-.007-.05-.02-.072-.02-.033-.048-.057-.082-.07-.006 0-.014-.003-.02-.005-.036-.007-.073-.002-.107.017l-.057.032c-.003 0-.006 0-.01.003L8.523 9.942h-.055c-.17 0-.306.137-.306.306v15.067c0 .17.137.306.306.306h15.067c.17 0 .306-.136.306-.305V10.248c0-.17-.136-.306-.305-.306zm-.68 0h-.35l.014-.166.002-.02.335.186zm-.7-.306c.06.035.064.07.06.095l-.018.21h-.54l.435-.32c.003-.002.023-.01.064.014zm-.28-.235l-.59.433c-.016.012-.073.046-.142.008-.026-.014-.03-.08-.026-.116l.063-.703v-.004l.694.382zm-1.348-.744l-.58.427s-.063.05-.14.006c-.026-.015-.03-.08-.025-.117l.063-.693.683.376zm-1.35-.744l-.565.416c-.01.01-.07.048-.14.008-.027-.015-.03-.08-.027-.116l.06-.678.674.37zM17.83 7.17l-.556.41s-.062.047-.14.004c-.024-.014-.03-.077-.024-.124l.026-.674.695.383zm-.33.622l.582-.43c.002 0 .022-.007.062.015.062.035.066.07.063.095l-.063.686-.643-.366zm1.33.757l.59-.435c.003 0 .022-.008.063.014.062.033.065.07.063.093l-.063.695-.65-.37zm1.33.756l.596-.44c.002 0 .022-.007.062.016.06.034.064.07.06.095l-.063.702-.655-.374zm-8.96.372l-.068-.72s0-.04.064-.077c.04-.02.058-.015.052-.02l.606.445-.655.373zm-1.404.034s0-.04.065-.078c.037-.022.057-.015.05-.02l.445.326h-.54l-.02-.228zm2.74-.794l-.066-.712s0-.04.064-.077c.038-.023.058-.017.052-.022l.6.44-.65.37zm1.336-.76l-.064-.697c0-.013.002-.05.063-.083.038-.023.058-.017.052-.022l.593.436-.644.367zm1.01-1.373l.026.69c.003.02 0 .093-.027.11h-.002c-.07.038-.125.003-.145-.01l-.55-.406.695-.384zm-1.374.757l.063.686c.002.02 0 .092-.027.108-.072.04-.13 0-.146-.01l-.562-.414.67-.37zm-1.34.738l.065.7c.005.03 0 .094-.026.11-.07.04-.125.004-.145-.01l-.575-.424.682-.375zm-1.337.738l.065.714c.004.03 0 .095-.026.11-.07.038-.127.004-.147-.01l-.586-.432.692-.38zm-1.34.737v.002l.017.183h-.352l.334-.185zm13.737 15.252H8.773V10.553h14.454v14.454zm-5.623-7.14l.826 1.476h-.892l.004-.356c0-.057 0-.11-.072-.158-.06-.04-.14-.036-.21.016-.01.008-.018.017-.025.027l-.91 1.312c-.028.04-.028.092 0 .132l.91 1.313c.007.01.016.02.026.027.04.03.08.044.122.044.032 0 .062-.01.088-.026.072-.048.072-.102.072-.16l-.004-.353h.654c.69 0 .915-.39.926-.41l.822-1.58v-.004l.003-.002c.326-.717.05-1.222.04-1.242l-.6-1.1c-.015-.028-.04-.048-.07-.056s-.062-.004-.09.012l-1.577.934c-.054.032-.073.1-.042.156zm1.31 2.774c0 .004-.175.29-.722.29h-.77c-.032 0-.06.012-.083.034-.023.02-.035.05-.034.082l.003.286-.75-1.08.75-1.08-.004.286c0 .03.012.06.033.083.02.023.05.035.08.035h1.596c.066 0 .28-.006.493-.077l-.596 1.143zm.324-3.603l.542.996c.01.018.227.428-.045 1.03-.118.222-.52.28-.722.28h-.317l-.835-1.49 1.377-.816zm-5.827 3.448c.453.645 1.028.663 1.05.664l1.255.04c.03 0 .058-.01.08-.03.023-.023.036-.052.036-.084v-1.832c0-.063-.05-.116-.114-.116l-1.714-.002.47-.81.31.19c.035.02.062.036.103.036.033 0 .057-.01.07-.018.066-.032.1-.102.092-.188 0-.013-.005-.026-.01-.037l-.67-1.45c-.02-.045-.065-.07-.112-.068l-1.593.118c-.012 0-.025.004-.036.008-.08.034-.125.098-.12.172.004.087.05.114.1.144l.302.17-.327.57c-.09.154-.15.31-.178.46v.012l-.002.01v.003c-.047.323.163.68.173.696l.84 1.342zm2.19-1.126v1.597l-1.132-.04c-.02 0-.486-.02-.864-.56l-.734-1.172.02.007c.062.03.128.056.195.077.008 0 .017.005.025.008.07.02.138.034.206.046.014.002.026.005.04.006.065.01.128.018.186.022.01 0 .02 0 .032.002.058.004.113.006.158.006h.073l.02-.002 1.775.003zm-2.82-1.282l.385-.67c.015-.027.02-.06.01-.09-.007-.03-.027-.053-.053-.07l-.24-.135 1.31-.096.55 1.192-.25-.154c-.026-.016-.057-.02-.088-.013-.03.008-.056.027-.072.054l-.598 1.03c-.172 0-.6-.02-.87-.215-.156-.112-.233-.26-.234-.456.023-.123.073-.25.15-.378zm.95-2.117l1.556.968c.02.01.04.018.06.018.04 0 .075-.02.098-.052l.925-1.41.4.784-.302.163c-.048.026-.098.052-.107.138-.007.073.035.14.113.177.01.006.024.01.036.01l1.584.2c.005.002.01.002.014.002.042 0 .082-.023.102-.062l.743-1.413c.006-.01.01-.023.012-.035.014-.086-.016-.158-.08-.194-.016-.008-.042-.022-.078-.022-.037 0-.063.015-.096.032l-.33.166-.286-.578c-.32-.612-.77-.632-.792-.632h-1.79c-.785.043-1.105.52-1.118.54l-.7 1.04c-.017.026-.023.058-.016.09s.026.056.052.073zm3.568-1.51c.014 0 .34.022.59.505l.34.68c.013.028.037.048.066.058.03.01.06.008.09-.006l.276-.14-.616 1.17-1.312-.165.247-.134c.054-.03.076-.098.047-.154l-.53-1.044c-.005-.014-.012-.028-.02-.04l-.165-.323c-.008-.016-.118-.23-.3-.407H17.3zm-2.71.437c.01-.017.274-.4.935-.437.265.002.51.37.58.51l.146.286-.936 1.426-1.36-.844.634-.94z"/></svg>