<svg id="Layer_1" xmlns="http://www.w3.org/2000/svg" viewBox="0 0 32 32"><style>.st0{fill:#231F20;}</style><path class="st0" d="M25.49 20.03v-6.65c0-.16-.13-.3-.3-.3h-8.9v-3.1c1.44-.15 2.57-1.37 2.57-2.85 0-1.58-1.28-2.86-2.86-2.86s-2.86 1.28-2.86 2.86c0 1.48 1.13 2.7 2.57 2.85v3.1H6.8c-.16 0-.3.13-.3.3v6.65c-1.44.15-2.57 1.37-2.57 2.85 0 1.58 1.28 2.86 2.86 2.86s2.86-1.28 2.86-2.86c0-1.48-1.13-2.7-2.57-2.85v-6.36h8.6v6.36c-1.44.15-2.57 1.37-2.57 2.85 0 1.58 1.28 2.86 2.86 2.86s2.86-1.28 2.86-2.86c0-1.48-1.13-2.7-2.57-2.85v-6.36h8.6v6.36c-1.44.15-2.57 1.37-2.57 2.85 0 1.58 1.28 2.86 2.86 2.86s2.86-1.28 2.86-2.86c.05-1.49-1.08-2.71-2.52-2.85zM13.73 7.13c0-1.25 1.02-2.27 2.27-2.27s2.27 1.02 2.27 2.27S17.25 9.4 16 9.4s-2.27-1.02-2.27-2.27zM9.08 22.87c0 1.25-1.02 2.27-2.27 2.27s-2.27-1.02-2.27-2.27S5.55 20.6 6.8 20.6s2.28 1.02 2.28 2.27zm9.19 0c0 1.25-1.02 2.27-2.27 2.27s-2.27-1.02-2.27-2.27S14.75 20.6 16 20.6s2.27 1.02 2.27 2.27zm6.93 2.27c-1.25 0-2.27-1.02-2.27-2.27s1.02-2.27 2.27-2.27 2.27 1.02 2.27 2.27-1.02 2.27-2.27 2.27z"/></svg>