<svg data-name="progression" xmlns="http://www.w3.org/2000/svg" viewBox="0 0 36 36"><title>Icon-Red_Hat-</title><path d="M16.5 8.6h9a2.25 2.25 0 0 1 0 4.5h-3.28l.72-.71a.75.75 0 0 0-1.06-1.07l-2 2a.77.77 0 0 0 0 1.07l2 2a.77.77 0 0 0 .53.21.76.76 0 0 0 .53-.21.75.75 0 0 0 0-1.07l-.72-.72h3.28a3.75 3.75 0 0 0 0-7.5h-9a.75.75 0 0 0 0 1.5zm-8.42 2.71h5.42a.75.75 0 0 0 .75-.75V5.15a.75.75 0 0 0-.75-.75H8.08a.75.75 0 0 0-.75.75v5.41a.75.75 0 0 0 .75.75zm.75-5.41h3.92v3.91H8.83zM27.5 26.44a.75.75 0 0 0-.75.75v2.92h-9.5v-9.5h6.58a.75.75 0 0 0 0-1.5H16.5a.75.75 0 0 0-.75.75v11a.76.76 0 0 0 .75.75h11a.76.76 0 0 0 .75-.75v-3.67a.75.75 0 0 0-.75-.75zM14 19.33l-2-2a.75.75 0 0 0-1.06 0 .77.77 0 0 0 0 1.07l.72.72H10.5a2.26 2.26 0 0 1 0-4.51h7a.75.75 0 0 0 0-1.5h-7a3.76 3.76 0 0 0 0 7.51h1.19l-.72.72a.75.75 0 0 0 0 1.06.75.75 0 0 0 1.06 0l2-2a.82.82 0 0 0 .16-.25.71.71 0 0 0 0-.57.67.67 0 0 0-.19-.25zm13 1.83l-5 5-1.3-1.3a.75.75 0 0 0-1.06 1.06l1.83 1.83a.75.75 0 0 0 1.06 0l5.5-5.5A.75.75 0 1 0 27 21.16z"/></svg>