<svg xmlns="http://www.w3.org/2000/svg" width="32" height="32" viewBox="0 0 32 32"><path d="M27.696 21.34L16.394 5.014c-.004-.006-.01-.007-.015-.013-.057-.07-.14-.12-.238-.12s-.18.05-.237.12c-.004.005-.01.007-.015.013L4.588 21.34c-.05.07-.066.16-.046.243s.074.156.15.198l11.302 6.28c.006.004.013.005.02.008l.023.01c.034.012.07.02.106.02s.072-.008.107-.02l.022-.01.02-.008 11.302-6.28c.076-.04.13-.113.15-.197.02-.084.002-.173-.047-.244zM15.836 6.17v21.1l-10.55-5.86 10.55-15.24zm.612 21.1V6.17l10.55 15.24-10.55 5.86z"/></svg>