<svg xmlns="http://www.w3.org/2000/svg" width="32" height="32" viewBox="0 0 32 32"><path d="M24.982 11.9c-.898-2.933-3.635-4.968-6.72-4.968-3.09 0-5.806 2.016-6.712 4.94-.504-.18-1.03-.27-1.57-.27-2.186 0-4.067 1.504-4.563 3.612-1.954.072-3.6 1.43-4.036 3.35-.018.087.002.178.058.248s.14.11.228.11h10.05c-.044.312-.07.63-.07.956 0 3.665 2.983 6.647 6.647 6.647 3.666 0 6.648-2.982 6.648-6.647 0-.325-.024-.643-.07-.955h4.39c.143 0 .265-.102.288-.242.06-.356.092-.684.092-1.003 0-2.79-1.948-5.19-4.658-5.774zm-6.688 14.01c-3.327 0-6.033-2.707-6.033-6.033 0-3.327 2.707-6.034 6.035-6.034 3.327 0 6.035 2.707 6.035 6.034 0 3.326-2.707 6.033-6.035 6.033zm10.717-7.572h-4.25c-.696-2.926-3.33-5.11-6.466-5.11-3.135 0-5.77 2.184-6.465 5.11H2.05c.5-1.514 1.904-2.542 3.55-2.542h.003l.045.002c.148.014.268-.098.294-.24.354-1.953 2.053-3.37 4.04-3.37.532 0 1.05.105 1.54.304.305.148.955.524 1.357 1.198.047.08.137.12.225.103.026-.005.05-.013.074-.028.103-.062.136-.196.075-.3-.346-.58-.837-.96-1.21-1.187.757-2.806 3.305-4.762 6.22-4.762 2.8 0 5.272 1.79 6.12 4.44-.754-.004-1.313.268-1.346.282-.112.046-.166.174-.12.286.047.11.174.165.286.12.008-.005.78-.31 1.655-.166 2.443.527 4.2 2.685 4.2 5.198 0 .213-.016.432-.047.664zm-7.744-1.453c.01-.063-.02-.125-.077-.153l-.906-.442c-.02-.01-.04-.014-.063-.014h-3.714c-.02 0-.04.004-.057.01l-1.042.443c-.062.025-.096.09-.085.156-.002.007-.003.016-.003.026v6.531c0 .08.065.145.144.145h5.662c.08 0 .144-.065.144-.145v-3.26-3.271c0-.01-.002-.02-.004-.027zm-4.732-.322h3.652l.42.204h-4.553l.48-.204zm4.446 6.166h-.447c-.055 0-.1-.046-.1-.1s.044-.102.1-.102h.447v.2zm0-.392h-.447c-.16 0-.29.13-.29.29s.13.292.29.292h.447v.38h-5.372v-1.34h5.372v.378zm0-1.202h-.447c-.055 0-.1-.045-.1-.1s.044-.1.1-.1h.447v.2zm0-.39h-.447c-.16 0-.29.13-.29.29 0 .16.13.29.29.29h.447v.344h-5.372v-1.34h5.372v.415zm0-1.29h-.447c-.055 0-.1-.044-.1-.1s.044-.1.1-.1h.447v.2zm0-.39h-.447c-.16 0-.29.13-.29.29s.13.29.29.29h.447v.38h-5.372v-1.34h5.372v.38zm0-1.202h-.447c-.055 0-.1-.045-.1-.1s.044-.102.1-.102h.447v.2zm0-.392h-.447c-.16 0-.29.13-.29.29s.13.292.29.292h.447v.343h-5.372v-1.34h5.372v.416z"/></svg>