<svg xmlns="http://www.w3.org/2000/svg" viewBox="0 0 32 32"><path d="M24.58 6.89H7.42c-.17 0-.31.14-.31.31v17.61c0 .17.14.31.31.31h17.17c.17 0 .31-.14.31-.31V7.19c-.01-.17-.15-.3-.32-.3zm-.3 17.61H7.72v-17h16.55l.01 17zm-15.7-.82H23.3c.13 0 .23-.1.23-.23V8.73c0-.13-.1-.23-.23-.23h-2.06c-.03-.14-.13-.42-.36-.56-.14-.08-.3-.1-.46-.04-.25.09-.44.26-.53.5-.01.03-.02.07-.03.11h-7.78c-.04-.14-.13-.42-.36-.56-.14-.08-.3-.1-.46-.04-.25.09-.44.26-.53.5-.01.03-.02.07-.03.11H8.58c-.13 0-.23.1-.23.23v14.72c0 .11.11.22.23.21zm2.85-15.19s0 .01.01.01h-.02c-.01 0 0 0 .01-.01zm-2.62.47h1.87c.06.55.37 1.11.41 1.19.06.1.16.15.27.15.05 0 .1-.01.15-.04.15-.08.2-.27.11-.42-.11-.19-.28-.57-.33-.89h8.55c.06.55.37 1.11.41 1.19.06.1.16.15.27.15.05 0 .1-.01.15-.04.15-.08.2-.27.11-.42-.11-.19-.28-.57-.33-.89h2.61v2.17H8.81V8.96zm0 2.63h14.26v11.63H8.81V11.59zm3.07-2.27c-.07-.05-.16-.04-.22.03-.05.07-.04.16.03.22s.13.13.17.21c.06.13.07.28.01.42s-.15.25-.29.31c-.13.06-.28.06-.42.01-.14-.05-.25-.15-.31-.29-.04-.08-.05-.17-.05-.26.01-.09-.06-.16-.14-.16-.09 0-.16.06-.16.14-.01.14.02.28.07.41.09.21.26.37.48.45.1.04.2.06.3.06.12 0 .24-.03.35-.08.21-.09.37-.26.45-.48.08-.22.07-.45-.02-.66-.04-.13-.13-.24-.25-.33zm9.17 0c-.07-.05-.16-.04-.22.03s-.04.16.03.22c.08.06.13.13.17.21.06.13.07.28.01.42s-.15.25-.29.31c-.13.06-.28.07-.42.01-.14-.05-.25-.15-.31-.29-.04-.08-.05-.17-.05-.26s-.06-.16-.14-.16c-.08-.01-.16.06-.16.14-.01.14.02.28.07.41.09.21.26.37.48.45.1.04.2.06.3.06.12 0 .24-.03.35-.08.21-.09.37-.27.45-.48s.07-.45-.02-.66c-.05-.13-.14-.24-.25-.33zm-4.54 8.08c-.12-.14-.27-.25-.44-.34-.06-.03-.11-.05-.17-.08.02-.01.05-.03.07-.04.13-.09.24-.19.34-.32.09-.12.17-.27.23-.43.06-.16.09-.35.09-.57 0-.4-.07-.74-.22-1.02s-.36-.52-.63-.69c-.27-.17-.59-.3-.95-.37s-.76-.11-1.19-.11c-.32 0-.62.02-.89.07s-.53.12-.76.21c-.23.09-.45.19-.65.31-.19.11-.38.24-.55.37-.06.05-.08.14-.03.21l.94 1.28c.05.07.14.08.21.03.27-.19.53-.33.8-.43.26-.1.56-.15.88-.15.4 0 .59.07.68.12.11.07.16.16.16.3 0 .12-.02.29-.11.35-.05.04-.19.09-.56.09h-.91c-.09 0-.15.07-.15.15v1.53c0 .08.07.15.15.15h1.03c.41 0 .61.07.69.13.11.07.16.2.16.4 0 .19-.06.33-.2.41-.16.1-.43.15-.81.15-.37 0-.72-.06-1.03-.19-.32-.13-.62-.3-.9-.52-.07-.05-.16-.04-.21.03l-1.02 1.28c-.05.06-.04.16.02.21.4.35.86.63 1.38.83.52.2 1.1.3 1.72.3.49 0 .94-.05 1.34-.14.4-.1.75-.25 1.04-.45.29-.21.51-.47.67-.79.16-.32.23-.7.23-1.14 0-.24-.04-.46-.11-.65-.12-.17-.22-.34-.34-.48zm-.1 2.16c-.13.27-.33.5-.57.68-.25.18-.56.32-.93.4-.37.09-.8.13-1.27.13-.59 0-1.13-.09-1.61-.28-.44-.17-.83-.39-1.17-.68l.83-1.05c.27.19.55.35.85.47.35.14.73.21 1.15.21.45 0 .77-.07.98-.2.23-.15.35-.38.35-.67 0-.3-.1-.52-.3-.66-.18-.12-.46-.18-.86-.18h-.87V16.5h.76c.35 0 .59-.05.73-.15.16-.11.24-.31.24-.6 0-.24-.1-.44-.3-.56-.18-.12-.45-.17-.84-.17-.36 0-.69.06-.99.17-.25.09-.5.22-.74.39l-.76-1.04c.13-.09.26-.18.4-.26.19-.11.39-.2.6-.28.22-.08.45-.15.7-.19s.53-.07.84-.07c.42 0 .8.03 1.13.1.33.07.61.18.85.33.23.15.4.34.53.58.12.24.19.53.19.88 0 .18-.02.33-.07.46s-.11.25-.19.35c-.07.1-.16.18-.27.25-.11.07-.22.14-.34.2-.06.03-.09.09-.08.15.01.06.05.12.11.13.15.04.3.09.44.17.13.07.25.16.35.27.1.11.18.25.24.41.06.16.09.34.09.54 0 .38-.07.72-.2 1zm4.24-6.02H19c-.07 0-.12.04-.15.1-.05.15-.11.28-.18.39-.06.1-.14.18-.24.24-.1.06-.22.12-.37.15-.15.04-.34.06-.56.08-.08.01-.14.07-.14.15v1.25c0 .09.07.15.15.15h1.05v4.75c0 .08.07.15.15.15h1.93c.08 0 .15-.07.15-.15v-7.1c.02-.09-.05-.15-.14-.16zm-.15 7.12h-1.62v-4.75c0-.09-.07-.15-.15-.15h-1.05v-.95c.18-.02.34-.04.47-.07.18-.05.33-.11.46-.19.13-.09.25-.2.33-.34.07-.1.12-.22.17-.35h1.39v6.8z"/></svg>