<svg data-name="Layer 1" xmlns="http://www.w3.org/2000/svg" viewBox="0 0 36 36"><title>Icon-Red_Hat-Documents-Blueprint-A-Black-RGB</title><path d="M29 10H11a.65.65 0 0 0-.19 0h-.07a.86.86 0 0 0-.22.15l-4 4a.86.86 0 0 0-.15.22v.07a.65.65 0 0 0 0 .19v12.05a.76.76 0 0 0 .63.82h22a.76.76 0 0 0 .75-.75v-16A.76.76 0 0 0 29 10zm-18.75 2.56V14H8.81zm18 13.44H7.75V15.5H11a.76.76 0 0 0 .75-.75V11.5h16.5z"/><path d="M14 16.5h1.25V21H14a.75.75 0 0 0 0 1.5h1.25v1.25a.75.75 0 0 0 1.5 0V22.5h6.5v1.25a.75.75 0 0 0 1.5 0V22.5H26a.75.75 0 0 0 0-1.5h-1.25v-4.5H26a.75.75 0 0 0 0-1.5h-1.25v-1.25a.75.75 0 0 0-1.5 0V15h-6.5v-1.25a.75.75 0 0 0-1.5 0V15H14a.75.75 0 0 0 0 1.5zm9.25 0V21h-6.5v-4.5z"/></svg>