<svg data-name="Layer 1" xmlns="http://www.w3.org/2000/svg" viewBox="0 0 36 36"><title>Icon-Red_Hat-Calculator-A-Black-RGB</title><path d="M26.5 6.25h-17a.76.76 0 0 0-.75.75v22a.76.76 0 0 0 .75.75h17a.76.76 0 0 0 .75-.75V7a.76.76 0 0 0-.75-.75zm-.75 22h-15.5V7.75h15.5z"/><path d="M12.5 14.75h11a.76.76 0 0 0 .75-.75v-4a.76.76 0 0 0-.75-.75h-11a.76.76 0 0 0-.75.75v4a.76.76 0 0 0 .75.75zm.75-4h9.5v2.5h-9.5zM12.5 17.75h1a.75.75 0 0 0 0-1.5h-1a.75.75 0 0 0 0 1.5zM18.5 16.25h-1a.75.75 0 0 0 0 1.5h1a.75.75 0 0 0 0-1.5zM23.5 16.25h-1a.75.75 0 0 0 0 1.5h1a.75.75 0 0 0 0-1.5zM12.5 20.75h1a.75.75 0 0 0 0-1.5h-1a.75.75 0 0 0 0 1.5zM18.5 19.25h-1a.75.75 0 0 0 0 1.5h1a.75.75 0 0 0 0-1.5zM23.5 19.25h-1a.75.75 0 0 0 0 1.5h1a.75.75 0 0 0 0-1.5zM12.5 23.75h1a.75.75 0 0 0 0-1.5h-1a.75.75 0 0 0 0 1.5zM18.5 22.25h-1a.75.75 0 0 0 0 1.5h1a.75.75 0 0 0 0-1.5zM23.5 22.25h-1a.75.75 0 0 0 0 1.5h1a.75.75 0 0 0 0-1.5zM23.5 25.25h-1a.75.75 0 0 0 0 1.5h1a.75.75 0 0 0 0-1.5zM12.5 26.75h6a.75.75 0 0 0 0-1.5h-6a.75.75 0 0 0 0 1.5z"/></svg>