<svg xmlns="http://www.w3.org/2000/svg" width="32" height="32" viewBox="0 0 32 32"><path d="M16.387 10.545c2.346 0 4.255-1.91 4.255-4.255 0-2.346-1.91-4.254-4.255-4.254-2.346 0-4.254 1.91-4.254 4.254 0 2.346 1.908 4.255 4.254 4.255zm0-7.896c2.008 0 3.642 1.633 3.642 3.64 0 2.008-1.635 3.642-3.643 3.642s-3.64-1.634-3.64-3.642 1.632-3.64 3.64-3.64zm2.334 8.72h-4.666c-4.338 0-6.726 2.39-6.726 6.726v3.747c0 2.124 1.41 3.162 2.906 4.26l.198.147v1.706c0 .074.027.147.077.202.29.332 1.578 1.413 5.88 1.413 4.3 0 5.586-1.08 5.88-1.412.05-.056.076-.128.076-.202V26.25l.197-.145c1.495-1.1 2.908-2.137 2.908-4.262v-3.747c0-4.338-2.388-6.726-6.726-6.726zm-.824.613c-.45 1.175-1.36 2.126-1.735 2.485-.633-.498-1.283-1.715-1.638-2.485h3.374zm6.938 9.86c0 1.815-1.23 2.72-2.656 3.768v-7.807c0-.148-.12-.268-.268-.268-.148 0-.268.12-.268.268v10.1c-.44.347-1.768 1.056-5.255 1.056-3.617 0-4.91-.763-5.3-1.092.007-.024.015-.048.015-.075v-9.99c0-.148-.12-.268-.268-.268s-.268.12-.268.268v7.786c-1.412-1.04-2.626-1.945-2.626-3.746v-3.747c0-2.75 1.035-6.02 5.912-6.11.273.626 1.183 2.575 2.188 3.137.046.026.098.04.15.04.07 0 .14-.026.198-.073.067-.056 1.58-1.35 2.162-3.107h.172c5.053 0 6.114 3.324 6.114 6.114v3.747z"/></svg>