<svg data-name="Layer 1" xmlns="http://www.w3.org/2000/svg" viewBox="0 0 36 36"><title>Icon-Red_Hat-Ninja_star-A-Black-RGB</title><path d="M30.177 27.61l-1.93-3.347-1.932-3.345a.75.75 0 0 0-.9-.333 3.458 3.458 0 0 1-.52.14 2.712 2.712 0 0 1-.494.047 3.1 3.1 0 0 1-3.09-3.092 3.016 3.016 0 0 1 .283-1.274 3.15 3.15 0 0 1 .8-1.056.75.75 0 0 0 .16-.943L20.6 11.024 18.65 7.64a.78.78 0 0 0-1.3 0l-1.95 3.384-1.953 3.383a.75.75 0 0 0 .16.943 3.15 3.15 0 0 1 .8 1.056 3.016 3.016 0 0 1 .283 1.274 3.1 3.1 0 0 1-3.09 3.092 2.712 2.712 0 0 1-.494-.046 3.458 3.458 0 0 1-.52-.14.75.75 0 0 0-.508 0 .738.738 0 0 0-.39.327l-1.934 3.35-1.93 3.346a.75.75 0 0 0 .648 1.124h7.744a.75.75 0 0 0 .74-.636 3.076 3.076 0 0 1 6.087 0 .75.75 0 0 0 .74.636h7.745a.75.75 0 0 0 .65-1.125zm-4.87-.376H22.38a4.573 4.573 0 0 0-8.764 0H7.77l1.46-2.53 1.462-2.53a4.456 4.456 0 0 0 3.83-.952 4.62 4.62 0 0 0 1.666-3.542 4.51 4.51 0 0 0-.3-1.615 4.616 4.616 0 0 0-.855-1.408l1.483-2.57L18 9.517l1.484 2.57 1.483 2.57a4.616 4.616 0 0 0-.855 1.408 4.51 4.51 0 0 0-.3 1.615 4.62 4.62 0 0 0 1.667 3.542 4.457 4.457 0 0 0 3.828.95l1.46 2.528 1.46 2.53z"/><path d="M18.53 20.72a.774.774 0 0 0-1.06 0 .748.748 0 0 0 0 1.06.75.75 0 1 0 1.06-1.06z"/></svg>