<svg xmlns="http://www.w3.org/2000/svg" viewBox="0 0 31.68 31.68"><path d="M15.85 29.05h-.04c-6.26-.73-10.63-5.7-10.63-12.1V7.06c0-.14.09-.27.22-.31 1.9-.64 9.64-2.12 10.46-2.12.69 0 8.37 1.43 10.42 2.12.13.05.22.17.22.31v9.88c0 6.39-4.37 11.37-10.61 12.1-.01.01-.02.01-.04.01zM5.84 7.31v9.65c0 7.07 5.02 10.84 10.02 11.44 4.98-.6 10-4.36 10-11.44V7.31c-2.24-.69-9.36-2.02-9.99-2.02-.64 0-7.79 1.33-10.03 2.02zm10.01 19.92h-.03c-4.44-.6-8.92-4.02-8.92-10.28v-7.3c0-.11.07-.21.19-.24 2.6-.64 7.76-1.61 8.75-1.69h.05c.84.09 6.03 1.03 8.71 1.69.11.03.19.13.19.24v7.3c0 6.26-4.47 9.67-8.9 10.28h-.04zM7.4 9.84v7.11c0 5.95 4.25 9.2 8.46 9.79 4.2-.58 8.44-3.84 8.44-9.79V9.84c-2.63-.64-7.58-1.54-8.44-1.63-.91.09-5.77.98-8.46 1.63zm9.23 10.75c-.04 0-.07-.01-.1-.03-.04-.03-.06-.08-.06-.13v-2.57c0-.05.03-.11.07-.13.05-.03.1-.04.15-.02.6.23 1.3.6 1.3 1.48 0 .71-.47 1.21-1.32 1.4h-.04zm.16-2.48v2.11c.43-.13.87-.42.87-1.02-.01-.5-.26-.82-.87-1.09zm-1.49-2.03c-.02 0-.04-.01-.06-.01-.56-.21-1.2-.56-1.2-1.31 0-.46.21-1.05 1.23-1.24.05-.01.09.01.13.03.04.03.06.08.06.13v2.23c0 .05-.03.11-.07.13-.03.04-.05.04-.09.04zm-.17-2.19c-.52.14-.77.43-.77.87 0 .39.23.66.77.91v-1.78zm1.5 9.48H15.3c-.09 0-.16-.07-.16-.16v-1.24c-1.46-.18-2.22-.93-2.69-1.38l-.11-.1c-.03-.03-.05-.07-.05-.12 0-.05.02-.09.05-.12l1.02-.98c.03-.03.07-.05.12-.05s.09.02.11.05c.38.42.93.76 1.53.93v-2.64c-1.23-.38-2.5-.95-2.5-2.69 0-1.42.95-2.45 2.5-2.71v-1.03c0-.09.07-.16.16-.16h1.33c.09 0 .16.07.16.16v1.05c1.11.21 1.79.79 2.22 1.22.06.06.07.17 0 .23l-.97 1c-.06.07-.16.07-.23.01-.29-.27-.61-.53-1.03-.69v2.28c1.28.41 2.59 1.03 2.59 2.83 0 .93-.34 2.51-2.59 2.87v1.28c.03.09-.05.16-.13.16zm-1.17-.33h.99v-1.25c0-.08.06-.15.14-.16 2.02-.27 2.45-1.54 2.45-2.57 0-1.64-1.22-2.16-2.48-2.56-.07-.02-.11-.09-.11-.15v-2.63c0-.05.03-.1.07-.13.04-.03.09-.04.14-.03.52.15.91.43 1.26.73l.74-.77c-.42-.4-1.07-.88-2.06-1.03-.08-.01-.14-.08-.14-.16V11.3h-.99v1.01c0 .08-.06.15-.14.16-1.48.2-2.36 1.1-2.36 2.4 0 1.57 1.18 2.06 2.38 2.42.07.02.11.09.11.15v2.97c0 .05-.02.09-.06.13-.04.03-.09.04-.14.03-.67-.15-1.33-.51-1.79-.97l-.78.75c.44.44 1.19 1.15 2.62 1.28.09.01.15.08.15.16v1.25z"/></svg>