<svg xmlns="http://www.w3.org/2000/svg" width="32" height="32" viewBox="0 0 32 32"><path d="M9.615 8.11c.003 0 .007 0 .01-.002l1.937-.203c.034-.003.062-.024.078-.054s.014-.065-.004-.093l-.263-.44c1.296-.583 2.71-.893 4.145-.893 4.533 0 8.54 3.048 9.742 7.414.038.136.16.225.295.225.027 0 .054-.004.082-.01.163-.046.26-.215.214-.378-1.275-4.63-5.524-7.864-10.332-7.864-1.545 0-3.07.34-4.462.977l-.25-.42c-.018-.03-.048-.046-.082-.048-.037-.007-.065.013-.084.04L9.534 7.955c-.022.032-.023.073-.004.106.018.03.05.048.085.048zm17.09 9.383l-.8-1.767c-.016-.035-.05-.058-.09-.058-.037 0-.072.022-.088.057l-.82 1.767c-.014.03-.012.066.006.094.018.03.05.045.083.045h.526c-.097 3.637-2.57 6.837-6.088 7.83l-1.076.302.79-.79c1.215-1.218 2.664-3.527 2.664-7.62 0-6.986-4.218-8.782-4.398-8.856-.02-.008-.044-.014-.07-.018l-.134-.02-.04-.002c-4.937 0-8.954 4.017-8.954 8.954 0 4.936 4.017 8.953 8.954 8.953 4.863 0 8.83-3.897 8.947-8.732h.5c.033 0 .064-.016.083-.044.018-.028.02-.064.006-.094zm-16.77-4.275c1.07-1.838 2.772-3.19 4.795-3.808l1.055-.322-.758.802c-.897.95-1.566 2.147-1.988 3.558l-.01.03H9.784l.15-.26zM8.807 17.24c.023-1.122.265-2.2.714-3.21h3.362c-.237.98-.36 2.064-.368 3.218v.09h-3.71l.002-.098zm.012.65h3.704c.037 1.146.192 2.218.464 3.186l.07.244h-3.28c-.57-1.07-.89-2.224-.96-3.43zm6.07 7.567c-1.97-.56-3.667-1.823-4.775-3.558l-.018-.028h3.15c.452 1.222 1.098 2.264 1.93 3.097l.79.792-1.077-.305zm2 .125l-.46-.322c-.766-.535-1.828-1.558-2.55-3.388h3.01v3.71zm0-4.262h-3.21l-.024-.077c-.32-1.002-.5-2.13-.542-3.353h3.775v3.43zm0-3.982h-3.786v-.093c.007-1.158.142-2.237.393-3.216h3.392v3.307zm0-3.86h-3.244l.07-.207c.71-2.092 1.867-3.234 2.713-3.824l.458-.32v4.35zm.59-4.326l.46.33c.83.59 1.968 1.73 2.667 3.79l.07.205H17.48V9.152zm0 4.878h3.347c.25.98.385 2.058.392 3.216v.092h-3.74V14.03zm0 3.86h3.73c-.04 1.218-.222 2.346-.54 3.353l-.025.077H17.48v-3.43zm0 7.67v-3.688h2.966c-.71 1.8-1.753 2.82-2.505 3.358l-.46.33zm-6.76-.87c-.017-.027-.048-.04-.082-.043-.034 0-.064.018-.082.046l-.287.462c-3-1.83-4.855-5.113-4.855-8.63 0-2.793 1.174-5.49 3.22-7.394.124-.115.13-.31.015-.433-.115-.124-.31-.13-.433-.016-2.17 2.023-3.415 4.882-3.415 7.845 0 3.728 1.967 7.21 5.144 9.15l-.244.392c-.018.03-.02.064-.005.094.014.03.043.052.076.056l1.923.252h.013c.033 0 .064-.016.082-.045.02-.032.02-.074 0-.106l-1.07-1.628z"/></svg>