<svg xmlns="http://www.w3.org/2000/svg" viewBox="0 0 32 32"><path d="M12.52 19.17H6.16c-.16 0-.29-.13-.29-.29v-1.73c0-.16.13-.29.29-.29h6.36c.16 0 .29.13.29.29v1.73c-.01.16-.14.29-.29.29zm-6.23-.41h6.1v-1.47h-6.1v1.47zm6.23 3.29H6.16c-.16 0-.29-.13-.29-.29v-1.72c0-.16.13-.29.29-.29h6.36c.16 0 .29.13.29.29v1.72c-.01.16-.14.29-.29.29zm-6.23-.42h6.1v-1.47h-6.1v1.47zm6.23-8.28H6.16c-.16 0-.29-.13-.29-.29V11.4c0-.16.13-.29.29-.29h6.36c.16 0 .29.13.29.29v1.66c-.01.16-.14.29-.29.29zm-6.23-.41h6.1v-1.4h-6.1v1.4zm6.23 3.36H6.16c-.16 0-.29-.13-.29-.29v-1.79c0-.16.13-.29.29-.29h6.36c.16 0 .29.13.29.29v1.79c-.01.16-.14.29-.29.29zm-6.23-.42h6.1v-1.54h-6.1v1.54zm4.07-3.5c.08 0 .14-.06.14-.14s-.06-.14-.14-.14H8.22c-.08 0-.14.06-.14.14s.06.14.14.14h2.14zm0 2.89c.08 0 .14-.06.14-.14s-.06-.14-.14-.14H8.22c-.08 0-.14.06-.14.14s.06.14.14.14h2.14zm.04 2.94c.08 0 .14-.06.14-.14s-.06-.14-.14-.14H8.25c-.08 0-.14.06-.14.14s.06.14.14.14h2.15zm0 2.87c.08 0 .14-.06.14-.14s-.06-.14-.14-.14H8.25c-.08 0-.14.06-.14.14s.06.14.14.14h2.15zm2.71 2.33H5.36c-.37 0-.68-.3-.68-.68V11.87c0-.07-.06-.12-.12-.12H4.4c-.37 0-.68-.3-.68-.68v-1.8c0-.37.3-.68.68-.68h23.2c.37 0 .68.3.68.68v1.8c0 .37-.3.68-.68.68h-.13c-.07 0-.12.06-.12.12V22.7c0 .37-.3.68-.68.68h-1.22c-.37 0-.68-.3-.68-.68V11.87c0-.07-.06-.12-.12-.12H13.9c-.07 0-.12.06-.12.12v10.86c0 .37-.3.68-.67.68zM4.4 9.15c-.07 0-.12.06-.12.12v1.8c0 .07.06.12.12.12h.16c.37 0 .68.3.68.68v10.86c0 .07.06.12.12.12h7.75c.07 0 .12-.06.12-.12V11.87c0-.37.3-.68.68-.68h10.76c.37 0 .68.3.68.68V22.7c0 .07.06.12.12.12h1.22c.07 0 .12-.06.12-.12V11.87c0-.37.3-.68.68-.68h.13c.07 0 .12-.06.12-.12v-1.8c0-.07-.06-.12-.12-.12H4.4z"/></svg>