<svg xmlns="http://www.w3.org/2000/svg" width="32" height="32" viewBox="0 0 32 32"><path d="M7.444 14.335c-.007.026-.016.05-.016.08v5.15c0 .17.137.307.306.307h17.633c.17 0 .307-.138.307-.306v-5.152c0-.028-.01-.054-.017-.08.037-.14-.022-.287-.156-.353l-2.817-1.378c-.042-.02-.088-.03-.134-.03H10.977c-.04 0-.082.007-.12.023l-3.244 1.38c-.142.06-.21.215-.17.36zm3.597-1.152h11.44l1.887.924h-15.5l2.174-.925zm-3 1.614h17.022v4.462H8.042v-4.463zm1.13 2.215v.005c0 .233.19.422.422.422.233 0 .422-.19.422-.423v-.005-.005c0-.233-.19-.422-.422-.422-.233 0-.422.19-.422.422v.005zm1.495 0v.013c0 .233.19.422.422.422.233 0 .422-.19.422-.422v-.013V17c0-.233-.19-.422-.423-.422-.233 0-.422.19-.422.422v.013zM24.06 15.61h-.918c-.085 0-.154.068-.154.152v2.452c0 .085.07.153.154.153h.92c.084 0 .153-.07.153-.153v-2.452c0-.085-.07-.153-.154-.153zm-.152 2.45h-.613v-2.145h.613v2.146zm-1.686-2.45h-.92c-.085 0-.153.068-.153.152v2.452c0 .085.068.153.152.153h.92c.085 0 .153-.07.153-.153v-2.452c0-.085-.07-.153-.153-.153zm-.153 2.45h-.614v-2.145h.613v2.146zm-5.1 2.686h-.616c-.127 0-.23.103-.23.23s.103.23.23.23h.615c.126 0 .23-.103.23-.23s-.104-.23-.23-.23zm1.536 0h-.614c-.127 0-.23.103-.23.23s.103.23.23.23h.614c.127 0 .23-.103.23-.23s-.103-.23-.23-.23zm-11.85-7.422c-.108-.066-.25-.032-.315.077-.122.204-.2.436-.23.67-.013.127.077.24.203.256l.026.002c.114 0 .213-.086.227-.204.02-.17.077-.337.166-.484.066-.11.03-.25-.077-.316zm5.703 7.422h-.615c-.127 0-.23.103-.23.23s.103.23.23.23h.614c.126 0 .23-.103.23-.23s-.104-.23-.23-.23zm-3.075 0H8.67c-.126 0-.23.103-.23.23s.104.23.23.23h.615c.127 0 .23-.103.23-.23s-.103-.23-.23-.23zm-1.55 0c-.174 0-.342-.037-.498-.11-.115-.054-.252-.004-.306.11-.053.116-.003.253.112.307.218.102.45.154.693.154h.014c.126 0 .222-.103.222-.23s-.11-.23-.237-.23zm12.308 0h-.614c-.128 0-.23.103-.23.23s.102.23.23.23h.613c.127 0 .23-.103.23-.23s-.103-.23-.23-.23zm-9.22 0h-.616c-.127 0-.23.103-.23.23s.103.23.23.23h.615c.127 0 .23-.103.23-.23s-.103-.23-.23-.23zm3.073 0h-.614c-.127 0-.23.103-.23.23s.103.23.23.23h.614c.127 0 .23-.103.23-.23s-.103-.23-.23-.23zm12.882-1.554c-.127 0-.23.103-.23.23v.144c0 .132-.022.262-.065.387-.042.12.022.25.142.292.025.01.05.013.075.013.095 0 .184-.06.217-.154.06-.173.09-.354.09-.538v-.144c0-.127-.102-.23-.23-.23zm-5.2 1.554h-.613c-.127 0-.23.103-.23.23s.103.23.23.23h.614c.126 0 .23-.103.23-.23s-.104-.23-.23-.23zm5.2-4.627c-.127 0-.23.102-.23.23v.614c0 .127.103.23.23.23s.23-.103.23-.23v-.615c0-.128-.103-.23-.23-.23zm0-1.538c-.127 0-.23.103-.23.23v.614c0 .127.103.23.23.23s.23-.103.23-.23v-.614c0-.127-.103-.23-.23-.23zm0 3.073c-.127 0-.23.103-.23.23v.615c0 .127.103.23.23.23s.23-.103.23-.23v-.615c0-.127-.103-.23-.23-.23zm-3.662 3.09h-.614c-.127 0-.23.104-.23.23s.103.23.23.23h.614c.127 0 .23-.102.23-.23s-.103-.23-.23-.23zm1.538 0h-.615c-.128 0-.23.104-.23.23s.102.23.23.23h.614c.127 0 .23-.102.23-.23s-.103-.23-.23-.23zm1.363-.195c-.145.096-.305.157-.477.182-.125.02-.212.135-.194.262.017.114.115.196.227.196.01 0 .022 0 .034-.002.238-.035.46-.12.662-.254.105-.07.134-.212.064-.318-.07-.106-.212-.136-.318-.066zm-10.584.196h-.614c-.128 0-.23.103-.23.23s.102.23.23.23h.613c.127 0 .23-.103.23-.23s-.103-.23-.23-.23zm2.264-9.048h.614c.128 0 .23-.103.23-.23s-.102-.23-.23-.23h-.613c-.127 0-.23.103-.23.23s.103.23.23.23zm3.073 0h.614c.127 0 .23-.103.23-.23s-.103-.23-.23-.23h-.614c-.127 0-.23.103-.23.23s.103.23.23.23zm-6.147 0h.614c.127 0 .23-.103.23-.23s-.103-.23-.23-.23h-.614c-.127 0-.23.103-.23.23s.103.23.23.23zm1.537 0h.615c.127 0 .23-.103.23-.23s-.103-.23-.23-.23h-.615c-.127 0-.23.103-.23.23s.103.23.23.23zm3.074 0h.614c.127 0 .23-.103.23-.23s-.103-.23-.23-.23h-.614c-.127 0-.23.103-.23.23s.103.23.23.23zm5.8 1.082l.553.27c.033.016.067.023.1.023.086 0 .168-.047.208-.13.056-.113.01-.25-.106-.306l-.553-.27c-.115-.056-.252-.008-.308.106-.057.114-.01.25.105.307zm-2.727-1.082h.243c.103 0 .206.014.307.04.02.007.04.01.06.01.102 0 .194-.068.222-.17.032-.123-.04-.25-.163-.283-.14-.038-.283-.057-.427-.057h-.243c-.127 0-.23.103-.23.23s.103.23.23.23zm4.196 2.255c.027.103.12.17.222.17.02 0 .04 0 .06-.007.12-.032.195-.158.163-.28-.06-.23-.173-.45-.325-.63-.082-.1-.226-.112-.324-.03-.1.08-.112.225-.03.323.11.13.19.287.233.453zm-2.848-1.85l.552.27c.032.017.067.024.1.024.086 0 .168-.047.208-.13.056-.113.008-.25-.106-.306l-.553-.27c-.114-.054-.252-.007-.307.107-.056.114-.008.25.106.307zM6.325 17.4c.127 0 .23-.103.23-.23v-.614c0-.127-.103-.23-.23-.23s-.23.103-.23.23v.614c0 .127.103.23.23.23zm.907-4.232c.03 0 .06-.006.09-.018l.566-.24c.117-.05.17-.186.12-.302-.05-.117-.184-.172-.3-.12l-.566.24c-.117.05-.17.185-.12.3.036.09.12.14.21.14zm-.907 2.695c.127 0 .23-.103.23-.23v-.615c0-.127-.103-.23-.23-.23s-.23.103-.23.23v.615c0 .127.103.23.23.23zm.23 3.756c-.005-.128-.117-.234-.24-.22-.126.006-.224.113-.218.24.01.24.073.472.185.685.04.078.12.123.204.123.036 0 .072-.008.107-.026.113-.058.156-.198.097-.31-.08-.153-.125-.32-.133-.492zm-.23-.683c.127 0 .23-.103.23-.23v-.615c0-.127-.103-.23-.23-.23s-.23.103-.23.23v.615c0 .127.103.23.23.23zm3.735-6.97c.03 0 .06-.007.09-.02l.367-.155c.056-.024.113-.043.17-.058.124-.03.2-.156.167-.28-.03-.123-.156-.198-.28-.166-.08.02-.16.047-.238.08l-.367.156c-.118.05-.172.185-.122.3.037.09.122.14.21.14zm1.49-.27h.615c.127 0 .23-.102.23-.23s-.103-.23-.23-.23h-.615c-.127 0-.23.104-.23.23s.103.23.23.23zm1.536 0h.615c.128 0 .23-.102.23-.23s-.102-.23-.23-.23h-.613c-.127 0-.23.104-.23.23s.103.23.23.23zm-4.44.87c.03 0 .06-.006.09-.018l.566-.242c.117-.05.17-.185.12-.3-.05-.118-.184-.173-.3-.122l-.566.24c-.117.05-.17.186-.12.302.036.087.12.14.21.14z"/></svg>