<svg xmlns="http://www.w3.org/2000/svg" viewBox="0 0 36 36"><title>Icons-Red_Hat-Software_and_Technologies-Automation-A-Black-RGB</title><path d="M16 5.23h-6a.76.76 0 0 0-.75.77v6a.75.75 0 0 0 .75.75h6a.75.75 0 0 0 .75-.75V6a.76.76 0 0 0-.75-.77zm-.75 6h-4.5v-4.5h4.5zM16 14.23h-6a.76.76 0 0 0-.75.75v6a.75.75 0 0 0 .75.75h6a.75.75 0 0 0 .75-.75V15a.76.76 0 0 0-.75-.77zm-.75 6h-4.5v-4.5h4.5z"/><rect x="9.25" y="23.23" width="7.5" height="7.5" rx=".75"/><path d="M24 23.25a.76.76 0 0 0-.75.76A2.22 2.22 0 0 1 21 26.23h-.22l.72-.72a.75.75 0 0 0-1.06-1.06l-2 2a.83.83 0 0 0-.15.23.19.19 0 0 0 0 .07.58.58 0 0 0 0 .19v.07a.67.67 0 0 0 0 .24.55.55 0 0 0 .14.22l2 2a.75.75 0 0 0 1.06 0 .75.75 0 0 0 0-1.06l-.72-.72H21A3.73 3.73 0 0 0 24.75 24a.74.74 0 0 0-.75-.75zM19 9.73h2A2.23 2.23 0 0 1 23.25 12a.74.74 0 0 0 .75.74.76.76 0 0 0 .75-.76A3.73 3.73 0 0 0 21 8.23h-2a.75.75 0 0 0 0 1.5zM27 17.23h-.37a3.23 3.23 0 0 0-.24-.58l.26-.26a.75.75 0 0 0-1.06-1.06l-.26.26a3 3 0 0 0-.58-.24V15a.75.75 0 0 0-1.5 0v.37a2.72 2.72 0 0 0-.58.24l-.26-.26a.75.75 0 0 0-1.06 0 .74.74 0 0 0 0 1.06l.26.26a3.23 3.23 0 0 0-.24.58H21a.75.75 0 0 0 0 1.5h.37a3 3 0 0 0 .24.59l-.26.26a.74.74 0 0 0 0 1.06.77.77 0 0 0 .53.22.79.79 0 0 0 .53-.22l.26-.26a2.72 2.72 0 0 0 .58.24V21a.75.75 0 1 0 1.5 0v-.36a3 3 0 0 0 .58-.24l.26.26a.75.75 0 0 0 1.06 0 .75.75 0 0 0 0-1.06l-.26-.26a3 3 0 0 0 .24-.59H27a.75.75 0 0 0 0-1.5zm-3 2A1.25 1.25 0 1 1 25.25 18 1.25 1.25 0 0 1 24 19.23z"/></svg>