<svg xmlns="http://www.w3.org/2000/svg" width="32" height="32" viewBox="0 0 32 32"><path d="M24.584 6.887H7.416c-.17 0-.306.137-.306.306v17.613c0 .17.137.306.306.306h17.167c.17 0 .306-.137.306-.306V7.193c0-.17-.138-.306-.307-.306zM24.278 24.5H7.723v-17h16.554v17zm-15.696-.816h14.722c.127 0 .23-.103.23-.23V8.732c0-.127-.103-.23-.23-.23H21.25c-.036-.14-.133-.424-.363-.56-.138-.08-.3-.097-.46-.043-.253.085-.435.257-.526.496-.012.035-.022.07-.03.107h-7.786c-.036-.142-.132-.424-.362-.56-.138-.08-.3-.097-.46-.043-.252.086-.435.258-.525.497-.013.035-.023.07-.032.107h-2.12c-.128 0-.23.103-.23.23v14.722c0 .126.102.23.23.23zm2.843-15.19c.002 0 .003.006.005.01h-.022c.006-.004.01-.008.017-.01zm-2.613.468h1.87c.058.55.365 1.108.412 1.19.057.1.16.155.267.155.052 0 .105-.013.152-.04.147-.084.198-.27.114-.418-.108-.19-.276-.57-.328-.887h8.548c.06.55.366 1.108.413 1.19.056.1.16.155.266.155.05 0 .104-.013.15-.04.148-.084.2-.27.116-.418-.11-.19-.277-.57-.328-.886h2.61v2.17H8.815v-2.17zm0 2.63h14.262v11.632H8.812V11.59zm3.07-2.268c-.066-.052-.162-.04-.214.027-.052.067-.04.164.027.216.075.058.13.128.167.206.06.134.066.284.014.422-.052.138-.154.247-.287.307-.135.06-.284.066-.422.014-.138-.05-.248-.154-.308-.288-.036-.08-.05-.168-.045-.262.006-.085-.06-.157-.144-.163-.087 0-.156.06-.16.145-.01.144.014.28.07.406.095.21.265.37.48.45.098.038.2.056.302.056.12 0 .24-.026.354-.077.208-.095.367-.265.448-.48.08-.214.073-.447-.022-.656-.057-.124-.143-.232-.258-.32zm9.167 0c-.068-.052-.164-.04-.216.026-.052.067-.04.163.027.215.076.058.132.128.168.206.06.135.066.285.014.423-.052.138-.154.247-.288.308-.133.06-.283.067-.42.014-.14-.05-.248-.154-.31-.288-.035-.08-.05-.167-.044-.262.005-.085-.06-.157-.144-.162-.083-.006-.157.06-.162.144-.008.144.016.28.072.406.094.21.265.368.48.45.097.037.2.055.3.055.12 0 .24-.026.354-.077.208-.094.367-.265.448-.48.08-.213.073-.446-.022-.655-.056-.124-.143-.232-.257-.32zm-4.544 8.078c-.125-.14-.274-.254-.44-.34-.057-.028-.114-.053-.17-.077l.068-.044c.128-.086.242-.194.337-.32.094-.122.17-.265.23-.425.06-.163.09-.354.09-.566 0-.397-.073-.74-.22-1.023-.147-.282-.36-.516-.632-.693-.266-.172-.586-.298-.952-.372-.356-.073-.758-.11-1.195-.11-.32 0-.62.025-.89.074-.27.048-.525.118-.758.206-.23.086-.447.19-.65.305-.194.113-.38.238-.55.373-.065.05-.078.144-.03.21l.936 1.282c.05.067.144.083.212.034.265-.187.533-.334.8-.434.26-.1.556-.148.88-.148.4 0 .587.067.675.124.108.07.158.165.158.302 0 .125-.02.288-.11.35-.053.037-.195.096-.56.096h-.914c-.086 0-.154.07-.154.153v1.533c0 .085.068.153.153.153h1.025c.415 0 .606.07.693.127.108.072.16.204.16.402 0 .194-.065.325-.204.414-.157.1-.43.152-.81.152-.372 0-.72-.065-1.03-.192-.317-.13-.62-.303-.9-.518-.066-.05-.16-.04-.213.026l-1.015 1.28c-.05.064-.042.156.02.21.396.35.86.628 1.377.827.518.2 1.097.3 1.722.3.492 0 .942-.047 1.336-.14.404-.097.753-.25 1.036-.453.287-.207.51-.475.667-.794.156-.318.234-.7.234-1.135 0-.242-.038-.462-.112-.654-.076-.193-.176-.36-.298-.5zm-.1 2.155c-.134.274-.326.503-.57.68-.25.18-.563.316-.927.402-.372.088-.798.132-1.267.132-.587 0-1.13-.094-1.612-.28-.435-.168-.83-.394-1.173-.676l.832-1.05c.266.192.55.35.848.47.35.142.734.214 1.146.214.447 0 .767-.066.977-.202.227-.145.346-.377.346-.672 0-.304-.1-.524-.296-.657-.18-.12-.463-.18-.862-.18h-.873v-1.227h.76c.346 0 .586-.05.733-.15.162-.11.244-.313.244-.603 0-.242-.104-.436-.298-.56-.18-.117-.454-.173-.84-.173-.362 0-.695.056-.99.168-.248.094-.497.223-.743.385l-.758-1.04c.126-.092.26-.18.398-.26.187-.107.39-.202.603-.282.215-.082.452-.146.704-.19.252-.046.534-.07.837-.07.416 0 .798.035 1.133.103.33.07.614.18.847.33.227.15.404.343.527.58.124.237.187.533.187.88 0 .175-.024.33-.07.458-.05.133-.112.246-.188.347-.075.098-.165.183-.266.25-.11.075-.223.14-.338.2-.057.028-.09.09-.083.153.007.064.053.117.115.132.15.038.295.092.44.166.134.068.252.158.352.27.098.11.18.247.24.406.06.157.092.34.092.544 0 .388-.07.724-.204 1zm4.248-6.013h-1.646c-.066 0-.124.042-.146.105-.05.15-.11.28-.178.388-.062.1-.142.18-.238.243-.1.066-.224.117-.37.153-.15.038-.338.064-.56.078-.082.006-.145.073-.145.154v1.25c0 .085.07.153.154.153h1.046v4.746c0 .084.07.153.153.153h1.93c.086 0 .154-.07.154-.153v-7.115c0-.085-.07-.153-.153-.153zM20.5 20.66h-1.623v-4.746c0-.085-.07-.153-.153-.153h-1.046v-.954c.182-.016.338-.04.473-.075.18-.044.336-.11.464-.192.134-.087.246-.2.33-.337.065-.1.122-.218.173-.35h1.385v6.81z"/></svg>