<svg xmlns="http://www.w3.org/2000/svg" viewBox="0 0 32 32"><path d="M23.53 8.94h-.04l-6.36-3.51h-.01l-.06-.03c-.03-.02-.07-.02-.11-.02-.01 0-.01 0-.02.01-.03.01-.06.03-.08.07v.01c-.01.02-.02.05-.02.07l-.03.9c-.01.1.01.27.13.38-.02-.02-.03-.05-.03-.08 0 .03.01.06.03.08.01.02.03.03.05.04l3.67 2.09h-9.29l3.67-2.09c.02-.01.03-.03.05-.04.13-.11.15-.28.14-.36l-.03-.92c0-.03-.01-.05-.02-.07-.02-.03-.05-.06-.08-.07-.01 0-.01 0-.02-.01-.03-.01-.07 0-.11.02l-.06.03h-.01l-6.36 3.5h-.06c-.17 0-.31.14-.31.31v15.07c0 .17.14.31.31.31h15.07c.17 0 .31-.14.31-.31V9.25c-.01-.17-.15-.31-.32-.31zm-.68 0h-.35l.01-.17v-.02l.34.19zm-.7-.31c.06.03.07.07.06.1l-.02.21h-.54l.43-.32c.01 0 .03-.01.07.01zm-.28-.23l-.59.43c-.02.01-.07.05-.14.01-.03-.02-.03-.08-.03-.12l.06-.7v-.01l.7.39zm-1.35-.74l-.58.43s-.06.05-.14.01c-.03-.01-.03-.08-.02-.12l.06-.69c0-.01.68.37.68.37zm-1.34-.75l-.57.42c-.01.01-.07.05-.14.01-.03-.02-.03-.08-.03-.12l.06-.68.68.37zm-1.35-.74l-.56.41s-.06.05-.14.01c-.02-.01-.03-.08-.02-.12l.03-.67.69.37zm-.33.62l.58-.43s.02-.01.06.01c.06.03.07.07.06.09l-.06.69-.64-.36zm1.33.76l.59-.43s.02-.01.06.01c.06.03.06.07.06.09l-.06.69-.65-.36zm1.33.76l.59-.44s.02-.01.06.02c.06.03.06.07.06.1l-.06.7-.65-.38zm-8.96.37l-.07-.72s0-.04.06-.08c.04-.02.06-.02.05-.02l.61.44-.65.38zm-1.41.03s0-.04.06-.08c.05-.02.07-.01.06-.02l.44.33h-.54l-.02-.23zm2.74-.79l-.07-.71s0-.04.06-.08c.04-.02.06-.02.05-.02l.6.44c.01 0-.64.37-.64.37zm1.34-.76l-.06-.7c0-.01 0-.05.06-.08.04-.02.06-.02.05-.02l.59.44-.64.36zm1.01-1.38l.03.69c0 .02 0 .09-.03.11-.07.04-.12 0-.14-.01l-.55-.41.69-.38zm-1.38.76l.06.69c0 .02 0 .09-.03.11-.07.04-.13 0-.15-.01l-.56-.41c.01-.01.68-.38.68-.38zm-1.33.74l.06.7c0 .03 0 .09-.03.11-.07.04-.12.01-.15-.01l-.57-.42.69-.38zm-1.34.74l.07.71c0 .03 0 .1-.03.11-.07.04-.13 0-.15-.01l-.58-.43.69-.38zm-1.34.73c0 .01 0 .01 0 0l.02.18h-.36l.34-.18zm13.74 15.26H8.77V9.55h14.45v14.46zm-5.63-7.14l.83 1.48h-.89v-.36c0-.06 0-.11-.07-.16-.06-.04-.14-.03-.21.02l-.03.03-.91 1.31c-.03.04-.03.09 0 .13l.91 1.31.03.03c.04.03.08.04.12.04.03 0 .06-.01.09-.03.07-.05.07-.1.07-.16v-.35h.65c.69 0 .92-.39.93-.41l.82-1.58c.33-.72.05-1.22.04-1.24l-.6-1.1c-.01-.03-.04-.05-.07-.06s-.06 0-.09.01l-1.58.93c-.05.03-.07.1-.04.16zm1.31 2.77s-.18.29-.72.29h-.77c-.03 0-.06.01-.08.03-.02.02-.03.05-.03.08v.29l-.75-1.08.75-1.08v.29c0 .03.01.06.03.08.02.02.05.03.08.03h1.59c.07 0 .28-.01.49-.08l-.59 1.15zm.33-3.6l.54 1c.01.02.23.43-.05 1.03-.12.22-.52.28-.72.28h-.32l-.83-1.49 1.38-.82zm-5.83 3.44c.45.65 1.03.66 1.05.66l1.25.04c.03 0 .06-.01.08-.03.02-.02.03-.05.03-.08v-1.83c0-.06-.05-.12-.11-.12H14l.47-.81.31.19c.03.02.06.04.1.04.03 0 .06-.01.07-.02.07-.03.1-.1.09-.19 0-.01-.01-.03-.01-.04l-.67-1.45c-.02-.04-.07-.07-.11-.07l-1.59.12c-.01 0-.02 0-.04.01-.08.03-.12.1-.12.17.01.09.05.11.1.14l.3.17-.33.57c-.09.15-.15.31-.18.46v.02c-.05.32.16.68.17.7l.85 1.35zm2.19-1.12v1.6l-1.13-.04c-.02 0-.49-.02-.86-.56l-.73-1.17c.01 0 .01 0 .02.01.06.03.13.06.2.08.01 0 .02.01.02.01.07.02.14.03.21.05.01 0 .03 0 .04.01.06.01.13.02.19.02h.03c.06 0 .11.01.16.01H13.84l1.76-.02zm-2.82-1.28l.39-.67c.02-.03.02-.06.01-.09s-.03-.05-.05-.07l-.24-.14 1.31-.1.55 1.19-.25-.15c-.03-.02-.06-.02-.09-.01s-.06.03-.07.05l-.6 1.03c-.17 0-.6-.02-.87-.22-.16-.11-.23-.26-.23-.46.01-.11.06-.23.14-.36zm.95-2.12l1.56.97c.02.01.04.02.06.02.04 0 .07-.02.1-.05l.93-1.41.4.78-.3.16c-.05.02-.1.05-.11.14-.01.07.03.14.11.18.01.01.02.01.04.01l1.59.2h.01c.04 0 .08-.02.1-.06l.74-1.41c.01-.01.01-.02.01-.03.01-.09-.02-.16-.08-.19-.01-.01-.04-.02-.08-.02s-.06.01-.1.03l-.33.17-.29-.58c-.32-.61-.77-.63-.79-.63h-1.79c-.79.04-1.11.52-1.12.54l-.7 1.04c-.02.03-.02.06-.02.09s.03.03.06.05zm3.57-1.51c.01 0 .34.02.59.51l.34.68c.01.03.04.05.07.06.03.01.06.01.09-.01l.28-.14-.62 1.17-1.31-.17.25-.13c.06-.03.08-.1.05-.15l-.53-1.04c0-.01-.01-.03-.02-.04l-.16-.32c-.01-.02-.12-.23-.3-.41l1.27-.01zm-2.71.44c.01-.02.27-.4.94-.44.27 0 .51.37.58.51l.15.28-.94 1.43-1.36-.84.63-.94z"/></svg>