<svg xmlns="http://www.w3.org/2000/svg" viewBox="0 0 32 32"><path d="M21.29 4.62H10.71c-.66 0-1.19.53-1.19 1.19v20.38c0 .66.53 1.19 1.19 1.19h10.57c.66 0 1.19-.53 1.19-1.19V5.81c.01-.66-.53-1.19-1.18-1.19zm.57 21.57c0 .32-.26.58-.58.58H10.71c-.32 0-.58-.26-.58-.58v-2.6h11.72l.01 2.6zm0-2.91H10.14V8.72h3.32V9c0 .57.47 1.04 1.03 1.04h3.96l1.11 1.11c.03.03.07.05.11.05.02 0 .04 0 .06-.01.06-.02.1-.08.1-.14v-1h.41c.57 0 1.04-.47 1.04-1.04v-.29h.58v14.56zM13.77 9v-.28h7.2V9c0 .4-.33.73-.73.73h-.56c-.08 0-.15.07-.15.15v.79l-.89-.89c-.03-.03-.07-.05-.11-.05H14.5c-.4 0-.73-.33-.73-.73zm8.09-.59H10.14v-2.6c0-.32.26-.58.58-.58h10.57c.32 0 .58.26.58.58l-.01 2.6zm-4.82-1.82h-2.08c-.13 0-.23.1-.23.23s.1.23.23.23h2.08c.13 0 .23-.1.23-.23s-.1-.23-.23-.23zm-3.33.01c-.06.06-.09.13-.09.21 0 .08.03.16.09.22s.14.09.21.09c.08 0 .16-.03.22-.09.06-.05.09-.13.09-.22 0-.08-.03-.16-.09-.21-.11-.11-.31-.11-.43 0zm-1.95 9.91h.41v1c0 .06.04.12.1.14.02.01.04.01.06.01.04 0 .08-.02.11-.05l1.11-1.11h3.96c.57 0 1.04-.47 1.04-1.04v-3.27c0-.57-.47-1.04-1.04-1.04h-5.74c-.57 0-1.04.47-1.04 1.04v3.27c-.01.59.46 1.05 1.03 1.05zm-.73-4.3c0-.4.33-.73.73-.73h5.74c.4 0 .73.33.73.73v3.27c0 .4-.33.73-.73.73h-4.02c-.04 0-.08.02-.11.05l-.89.9v-.79c0-.08-.07-.15-.15-.15h-.56c-.4 0-.73-.33-.73-.73v-3.28h-.01zm3.6 3.43c.99 0 1.8-.81 1.8-1.8s-.81-1.8-1.8-1.8-1.8.81-1.8 1.8.81 1.8 1.8 1.8zm0-3.13c.74 0 1.34.6 1.34 1.34 0 .74-.6 1.34-1.34 1.34-.74 0-1.34-.6-1.34-1.34 0-.74.6-1.34 1.34-1.34zm-.45 2.19c.03.02.07.03.1.03.05 0 .09-.01.13-.04l.92-.66c.06-.04.1-.11.1-.19 0-.07-.04-.14-.1-.19l-.91-.65c-.07-.05-.16-.06-.24-.02-.08.04-.12.12-.12.2v1.31c0 .1.04.17.12.21zm-2.56 3.83h-.38c-.13 0-.23.1-.23.23s.1.23.23.23h.38c.13 0 .23-.1.23-.23s-.11-.23-.23-.23zm3.78.46c.13 0 .23-.1.23-.23s-.1-.23-.23-.23h-.7c-.13 0-.23.1-.23.23s.1.23.23.23h.7zm1.9 0c.13 0 .23-.1.23-.23s-.1-.23-.23-.23h-.7c-.13 0-.23.1-.23.23s.1.23.23.23h.7zm.96-.23c0 .13.1.23.23.23h.7c.13 0 .23-.1.23-.23s-.1-.23-.23-.23h-.7c-.13 0-.23.1-.23.23zm-4.75.23c.13 0 .23-.1.23-.23s-.1-.23-.23-.23h-.7c-.13 0-.23.1-.23.23s.1.23.23.23h.7zm7.26-.46h-.38c-.13 0-.23.1-.23.23s.1.23.23.23h.38c.13 0 .23-.1.23-.23s-.1-.23-.23-.23zm-8.61 1.16c-.13 0-.23.1-.23.23s.1.23.23.23h.38c.13 0 .23-.1.23-.23s-.1-.23-.23-.23h-.38zm6.1.46c.13 0 .23-.1.23-.23s-.1-.23-.23-.23h-.71c-.13 0-.23.1-.23.23s.1.23.23.23h.71zm-1.91 0c.13 0 .23-.1.23-.23s-.1-.23-.23-.23h-.71c-.13 0-.23.1-.23.23s.1.23.23.23h.71zm-2.61 0h.71c.13 0 .23-.1.23-.23s-.1-.23-.23-.23h-.71c-.13 0-.23.1-.23.23s.1.23.23.23zm6.11-.46h-.38c-.13 0-.23.1-.23.23s.1.23.23.23h.38c.13 0 .23-.1.23-.23s-.11-.23-.23-.23zM12.54 22h-.38c-.13 0-.23.1-.23.23s.1.23.23.23h.38c.13 0 .23-.1.23-.23s-.1-.23-.23-.23zm5.72 0h-4.52c-.13 0-.23.1-.23.23s.1.23.23.23h4.52c.13 0 .23-.1.23-.23s-.1-.23-.23-.23zm1.59 0h-.38c-.13 0-.23.1-.23.23s.1.23.23.23h.38c.13 0 .23-.1.23-.23s-.11-.23-.23-.23zm-8.23-1.16h-.38c-.13 0-.23.1-.23.23s.1.23.23.23h.38c.13 0 .23-.1.23-.23s-.11-.23-.23-.23zm2.12.23c0-.13-.1-.23-.23-.23h-.7c-.13 0-.23.1-.23.23s.1.23.23.23h.7c.13 0 .23-.1.23-.23zm5.68 0c0-.13-.1-.23-.23-.23h-.7c-.13 0-.23.1-.23.23s.1.23.23.23h.7c.13 0 .23-.1.23-.23zm-4.72.23h.7c.13 0 .23-.1.23-.23s-.1-.23-.23-.23h-.7c-.13 0-.23.1-.23.23s.11.23.23.23zm1.9 0h.7c.13 0 .23-.1.23-.23s-.1-.23-.23-.23h-.7c-.13 0-.23.1-.23.23s.1.23.23.23zm4.17-.46h-.38c-.13 0-.23.1-.23.23s.1.23.23.23h.38c.13 0 .23-.1.23-.23s-.1-.23-.23-.23zm-5.37 5.4h1.19c.44 0 .81-.36.81-.81v-.58c0-.44-.36-.81-.81-.81H15.4c-.44 0-.81.36-.81.81v.58c.01.45.37.81.81.81zm-.34-1.39c0-.19.15-.35.35-.35h1.19c.19 0 .35.16.35.35v.58c0 .19-.15.35-.35.35h-1.19c-.19 0-.35-.16-.35-.35v-.58z"/></svg>