<svg xmlns="http://www.w3.org/2000/svg" width="32" height="32" viewBox="0 0 32 32"><path d="M15.962 5.196c-6.253 0-11.34 5.087-11.34 11.34 0 6.254 5.087 11.342 11.34 11.342 6.254 0 11.34-5.087 11.34-11.34S22.215 5.195 15.962 5.195zm8.934 5.41c-.862.83-1.63 1.768-2.29 2.79-.058-.014-.116-.022-.177-.022-.124 0-.24.032-.342.084-.57-.794-1.037-1.61-1.384-2.416.206-.138.342-.372.342-.638 0-.072-.014-.14-.032-.208.775-.547 1.438-1.138 1.972-1.76.73.635 1.374 1.363 1.91 2.17zM10.82 13.71c.59-.06 1.183-.144 1.78-.248.127.246.38.416.675.416.106 0 .205-.02.296-.06.76 1.09 1.657 2.107 2.682 3.007 1.07.94 2.234 1.726 3.458 2.35-.014.058-.024.12-.024.182 0 .296.172.55.418.678-.134.888-.2 1.778-.188 2.66-.147.035-.28.104-.394.197-1.142-.816-2.386-1.503-3.703-2.03-1.583-.635-3.217-1.032-4.86-1.193-.1-.43-.48-.752-.937-.768-.12-.77-.186-1.56-.186-2.363 0-.665.048-1.318.13-1.96.45-.06.8-.42.854-.87zm-.494-.976c.282-1.073.68-2.093 1.187-3.035.316.976.738 1.93 1.255 2.842-.133.12-.223.283-.248.47-.588.102-1.173.18-1.754.237-.082-.22-.238-.402-.44-.517zm10.06 5.863c-.222.02-.415.132-.543.3-1.2-.61-2.34-1.38-3.39-2.303-1.005-.884-1.885-1.88-2.63-2.948.12-.125.198-.29.213-.475 2.145-.505 4.11-1.262 5.74-2.192.135.118.31.192.5.193h.003c.05 0 .098-.005.145-.014.358.834.836 1.674 1.423 2.49-.114.134-.185.305-.185.494 0 .2.08.38.205.516-.455.866-.843 1.777-1.148 2.727-.128.402-.236.807-.334 1.212zm-.26-11.946c.906.384 1.746.89 2.505 1.493-.502.582-1.135 1.142-1.88 1.664-.13-.104-.293-.168-.472-.17-.02 0-.04.006-.06.007-.284-1.084-.324-2.11-.09-2.994zm-4.164-.84c1.368 0 2.675.26 3.878.728-.255.942-.215 2.037.087 3.19-.246.127-.416.38-.416.677 0 .058.01.115.022.17-1.6.91-3.53 1.656-5.602 2.147-.134-.223-.376-.376-.657-.377-.085 0-.166.018-.243.043-.553-.977-.996-2-1.314-3.047.784-1.35 1.794-2.526 2.996-3.456.41-.048.826-.075 1.248-.075zm-2.134.213c-.878.78-1.644 1.69-2.28 2.706-.152-.6-.26-1.204-.33-1.81.818-.406 1.693-.71 2.61-.897zm-2.9 1.045c.082.68.218 1.357.403 2.026-.627 1.078-1.115 2.258-1.446 3.51-.018 0-.034-.005-.052-.005-.466 0-.854.323-.962.757-1.083.013-2.12-.06-3.082-.22.878-2.616 2.735-4.786 5.138-6.07zm-5.694 9.47c0-1.026.147-2.016.417-2.955.93.158 1.928.24 2.97.24.08 0 .164-.005.245-.006.077.335.324.603.644.715-.086.658-.135 1.326-.135 2.006 0 .834.067 1.654.195 2.455-.25.116-.44.332-.524.596-1.09.015-2.178.136-3.25.364-.362-1.074-.562-2.222-.562-3.416zm.72 3.852c1.008-.21 2.03-.323 3.056-.34.076.474.485.84.98.84h.014c.72 2.43 2.037 4.574 3.826 6.162-3.615-.732-6.573-3.288-7.876-6.662zm10.01 6.875c-.423 0-.84-.027-1.248-.075-2.018-1.56-3.495-3.818-4.268-6.418.25-.13.438-.362.506-.643 1.587.16 3.163.543 4.692 1.156 1.277.513 2.484 1.178 3.592 1.967-.056.125-.09.262-.09.408 0 .523.406.948.918.99.08.556.188 1.108.328 1.653-1.352.616-2.85.962-4.43.962zm4.853-1.165c-.125-.5-.223-1.006-.295-1.517.08-.032.15-.076.218-.126.376.338.733.696 1.075 1.066-.322.21-.655.402-.998.577zm1.38-.84c-.368-.403-.755-.79-1.163-1.16.066-.133.108-.28.108-.44 0-.468-.328-.86-.766-.965-.013-.856.05-1.72.182-2.583.218-.03.407-.15.526-.322 1.52.602 3.11.96 4.707 1.042-.78 1.78-2.03 3.307-3.592 4.427zm3.72-4.73c-1.6-.07-3.19-.42-4.714-1.02.01-.05.015-.1.015-.154 0-.28-.155-.526-.383-.658.095-.392.198-.784.323-1.173.294-.92.67-1.8 1.108-2.637.052.01.106.018.16.02h.003c.127 0 .246-.036.352-.09.26.294.53.585.817.866.93.908 1.936 1.67 2.993 2.282-.12.894-.35 1.754-.677 2.565zm-2.104-5.065c-.28-.273-.542-.555-.794-.842.108-.132.175-.3.175-.483 0-.195-.076-.37-.197-.506.622-.962 1.343-1.844 2.15-2.63.978 1.616 1.542 3.51 1.542 5.534 0 .37-.02.736-.056 1.096-.993-.588-1.942-1.31-2.82-2.17z"/></svg>