<svg data-name="Icon" xmlns="http://www.w3.org/2000/svg" viewBox="0 0 36 36"><path d="M29.78 11.09a.67.67 0 0 0 .69-.63V7.23a.63.63 0 0 0-1.25 0v1.39a14.62 14.62 0 1 0-11.22 24h.31a.58.58 0 0 0 .22-.22v-.07a.69.69 0 0 0 .05-.24.57.57 0 0 0-.08-.28.62.62 0 0 0-.55-.34A13.38 13.38 0 1 1 28.57 9.84h-1.95a.63.63 0 1 0 0 1.25ZM30.94 12.05a.62.62 0 0 0-.61.63.61.61 0 0 0 .61.62.63.63 0 0 0 .64-.62.64.64 0 0 0-.64-.63ZM31.68 14.43a.63.63 0 0 0-.62.63.63.63 0 0 0 1.25 0 .63.63 0 0 0-.63-.63ZM32 16.9a.63.63 0 0 0-.62.63.63.63 0 0 0 1.25 0 .63.63 0 0 0-.63-.63ZM31.85 19.37a.63.63 0 0 0-.62.63.63.63 0 0 0 1.25 0 .63.63 0 0 0-.63-.63ZM31.28 21.81a.63.63 0 0 0-.62.63.63.63 0 0 0 1.25 0 .63.63 0 0 0-.63-.63ZM30.28 24.09a.63.63 0 0 0-.62.63.63.63 0 0 0 1.25 0 .63.63 0 0 0-.63-.63ZM28.89 26.16a.63.63 0 0 0-.62.63.63.63 0 0 0 1.25 0 .63.63 0 0 0-.63-.63ZM27.16 28a.63.63 0 0 0-.62.63.63.63 0 0 0 1.25 0 .63.63 0 0 0-.63-.63ZM25.14 29.41a.63.63 0 0 0-.62.63.63.63 0 0 0 1.25 0 .63.63 0 0 0-.63-.63ZM22.9 30.49a.63.63 0 0 0-.62.63.63.63 0 0 0 1.25 0 .63.63 0 0 0-.63-.63ZM20.5 31.15a.63.63 0 0 0-.62.63.63.63 0 0 0 1.25 0 .63.63 0 0 0-.63-.63Z"/></svg>