<svg xmlns="http://www.w3.org/2000/svg" viewBox="0 0 31.68 31.68"><path d="M15.84 4.51c-6.25 0-11.33 5.08-11.33 11.33s5.08 11.33 11.33 11.33 11.33-5.08 11.33-11.33S22.09 4.51 15.84 4.51zm0 22.11c-5.94 0-10.78-4.84-10.78-10.78C5.06 9.9 9.9 5.06 15.84 5.06S26.62 9.9 26.62 15.84c0 5.94-4.84 10.78-10.78 10.78z"/><path d="M15.84 15.23c-1.42 0-2.57 1.15-2.57 2.57s1.15 2.57 2.57 2.57 2.57-1.15 2.57-2.57-1.15-2.57-2.57-2.57zm2.12 2.37c-.11 0-.19.09-.19.19 0 .11.09.19.19.19h.14c-.02.27-.09.52-.2.76l-.12-.07c-.09-.05-.21-.02-.27.07-.03.05-.03.1-.02.15.01.05.05.09.09.12l.12.07c-.15.22-.34.41-.56.56l-.07-.12c-.05-.09-.18-.12-.27-.07-.04.03-.08.07-.09.12-.01.05-.01.1.02.15l.07.12c-.24.11-.5.18-.76.2v-.14c0-.11-.09-.19-.19-.19-.11 0-.19.09-.19.19v.14c-.27-.02-.52-.09-.76-.21l.07-.12c.03-.05.03-.1.02-.15-.01-.05-.05-.09-.09-.12-.09-.05-.21-.02-.27.07l-.07.12c-.22-.15-.41-.34-.56-.56l.12-.07c.04-.03.08-.07.09-.12.01-.05.01-.1-.02-.15-.05-.09-.18-.12-.27-.07l-.12.07c-.11-.24-.18-.5-.2-.76h.14c.11 0 .19-.09.19-.19 0-.11-.09-.19-.19-.19h-.14c.02-.27.09-.52.2-.76l.12.07c.09.05.21.02.26-.07.03-.04.03-.1.02-.15-.01-.05-.05-.09-.09-.12l-.12-.07c.15-.22.34-.41.56-.56l.07.12c.05.09.17.12.27.07.09-.05.12-.17.07-.26l-.07-.12c.24-.11.5-.18.76-.2v.14c0 .11.09.19.19.19.11 0 .19-.09.19-.19v-.14c.27.02.52.09.76.21l-.07.12c-.05.09-.02.21.07.27.09.05.21.02.27-.07l.07-.12c.22.15.41.34.56.56l-.12.07c-.05.03-.08.07-.09.12-.01.05-.01.1.02.15.05.09.17.12.26.07l.12-.07c.11.24.18.5.2.76h-.12z"/><path d="M16.79 18.22l-.74-.44v-1.34c0-.11-.09-.21-.21-.21-.11 0-.21.09-.21.21v1.46c0 .09.05.16.12.19l.83.49c.03.02.07.03.1.03.07 0 .14-.04.18-.1.06-.11.03-.24-.07-.29zM21.65 15.23c-1.42 0-2.57 1.15-2.57 2.57s1.15 2.57 2.57 2.57 2.57-1.15 2.57-2.57-1.15-2.57-2.57-2.57zm1.29 4.42l-.07-.12c-.05-.09-.18-.12-.26-.07-.09.05-.12.17-.07.26l.07.12c-.24.11-.5.18-.76.2v-.14c0-.11-.09-.19-.19-.19-.11 0-.19.09-.19.19v.14c-.27-.02-.52-.09-.76-.21l.07-.12c.03-.05.03-.1.02-.15-.01-.05-.05-.09-.09-.12-.09-.05-.21-.02-.27.07l-.07.12c-.22-.15-.41-.34-.56-.56l.12-.07c.04-.03.08-.07.09-.12.01-.05.01-.1-.02-.15-.05-.09-.18-.12-.26-.07l-.12.07c-.11-.24-.18-.5-.21-.76h.14c.11 0 .19-.09.19-.19 0-.11-.09-.19-.19-.19h-.15c.02-.27.09-.52.21-.76l.12.07c.09.05.21.02.26-.07.03-.04.03-.1.02-.15-.01-.05-.05-.09-.09-.12l-.12-.07c.15-.22.34-.41.56-.56l.07.12c.05.09.18.12.26.07.04-.03.08-.07.09-.12.01-.05.01-.1-.02-.15l-.07-.12c.24-.11.5-.18.76-.2v.14c0 .11.09.19.19.19.11 0 .19-.09.19-.19v-.14c.27.02.52.09.76.21l-.07.12c-.05.09-.02.21.07.27.09.05.21.02.26-.07l.07-.12c.22.15.41.34.56.56l-.12.07c-.05.03-.08.07-.09.12-.01.05-.01.1.02.15.05.09.17.12.26.07l.12-.07c.11.24.18.5.2.76h-.14c-.11 0-.19.09-.19.19 0 .11.09.19.19.19h.14c-.02.27-.09.52-.21.76l-.12-.07c-.09-.05-.21-.02-.26.07-.03.05-.03.1-.02.15.01.05.05.09.09.12l.12.07c-.12.23-.31.42-.53.57z"/><path d="M22.6 18.22l-.74-.44v-1.34c0-.11-.09-.21-.21-.21-.11 0-.21.09-.21.21v1.46c0 .08.05.16.12.19l.83.49c.03.02.07.03.1.03.07 0 .14-.04.18-.1.03-.05.04-.1.02-.16-.01-.06-.05-.11-.09-.13zM10.05 15.23c-1.42 0-2.57 1.15-2.57 2.57s1.15 2.57 2.57 2.57 2.57-1.15 2.57-2.57-1.15-2.57-2.57-2.57zm2.11 2.37c-.11 0-.19.09-.19.19 0 .11.09.19.19.19h.14c-.02.27-.09.52-.21.76l-.12-.07c-.09-.05-.21-.02-.27.07-.03.05-.03.1-.02.15.01.05.05.09.09.12l.12.07c-.15.22-.34.41-.56.56l-.07-.12c-.05-.09-.18-.12-.27-.07-.04.03-.08.07-.09.12-.01.05-.01.1.02.15l.07.12c-.24.11-.5.18-.76.2v-.14c0-.11-.09-.19-.19-.19-.11 0-.19.09-.19.19v.14c-.27-.02-.52-.09-.76-.21l.07-.12c.03-.05.03-.1.02-.15-.01-.05-.05-.09-.09-.12-.09-.03-.21 0-.27.09l-.07.12c-.22-.15-.41-.34-.56-.56l.12-.07c.04-.03.08-.07.09-.12.01-.05.01-.1-.02-.15-.05-.09-.18-.12-.26-.07l-.12.08c-.11-.24-.18-.5-.2-.76h.14c.11 0 .19-.09.19-.19 0-.11-.09-.19-.19-.19H7.8c.02-.27.09-.52.2-.76l.12.07c.09.05.21.02.26-.07.03-.04.03-.1.02-.15-.01-.05-.05-.09-.09-.12l-.11-.08c.15-.22.34-.41.56-.56l.07.12c.05.09.17.12.27.07.09-.05.12-.17.07-.26l-.07-.12c.24-.11.5-.18.76-.2v.14c0 .11.09.19.19.19.11 0 .19-.09.19-.19v-.14c.27.02.52.09.76.21l-.07.12c-.05.09-.02.21.07.27.09.05.21.02.27-.07l.07-.12c.22.15.41.34.56.56l-.12.07c-.05.03-.08.07-.09.12-.01.05-.01.1.02.15.05.09.17.12.26.07l.12-.07c.11.24.18.5.21.76h-.14z"/><path d="M11 18.22l-.74-.44v-1.34c0-.11-.09-.21-.21-.21-.11 0-.21.09-.21.21v1.46c0 .09.05.16.12.19l.83.49c.03.02.07.03.1.03.07 0 .14-.04.18-.1.06-.11.03-.24-.07-.29zM12.33 13.71H22.27v-3.4H9.43v3.4h2.9zm7.46-2.97h2.06v2.56h-2.06v-2.56zm-2.5 0h2.06v2.56h-2.06v-2.56zm-2.48 0h2.06v2.56h-2.06v-2.56zm-2.48 0h2.06v2.56h-2.06v-2.56zm-2.48 2.55v-2.56h2.06v2.56H9.85z"/><path d="M15.84 5.77c-5.55 0-10.07 4.52-10.07 10.07s4.52 10.07 10.07 10.07 10.07-4.52 10.07-10.07S21.39 5.77 15.84 5.77zm0 19.72c-5.32 0-9.65-4.33-9.65-9.65s4.33-9.65 9.65-9.65 9.65 4.33 9.65 9.65-4.33 9.65-9.65 9.65z"/></svg>