<svg xmlns="http://www.w3.org/2000/svg" viewBox="0 0 32 32"><path d="M22.78 19.34c0-.41-.33-.74-.74-.74-.35 0-.65.25-.72.58h-1.57c-.06-.28-.28-.51-.57-.57V16.8c.33-.07.58-.37.58-.72 0-.41-.33-.74-.74-.74s-.74.33-.74.74c0 .35.25.65.58.72v1.82c-.28.06-.51.28-.57.57h-1.65c-.07-.33-.37-.58-.72-.58-.41 0-.74.33-.74.74 0 .35.25.65.58.72v1.86c-.33.07-.58.37-.58.72 0 .41.33.74.74.74s.74-.33.74-.74c0-.35-.25-.65-.58-.72v-1.86c.28-.06.51-.28.57-.57h1.65c.06.28.28.51.57.57v1.86c-.33.07-.58.37-.58.72 0 .41.33.74.74.74s.74-.33.74-.74c0-.35-.25-.65-.58-.72v-1.86c.28-.06.51-.28.57-.57h1.57c.06.28.28.51.57.57v1.86c-.33.07-.58.37-.58.72 0 .41.33.74.74.74s.74-.33.74-.74c0-.35-.25-.65-.58-.72v-1.86c.31-.08.56-.38.56-.73zm-6.41 3.29c0 .24-.19.43-.43.43s-.43-.19-.43-.43.19-.43.43-.43c.23 0 .43.2.43.43zm-.43-2.86c-.24 0-.43-.19-.43-.43s.19-.43.43-.43.43.19.43.43-.19.43-.43.43zm2.66-3.69c0-.24.19-.43.43-.43s.43.19.43.43-.19.43-.43.43-.43-.19-.43-.43zm.86 6.55c0 .24-.19.43-.43.43s-.43-.19-.43-.43.19-.43.43-.43.43.2.43.43zm-.43-2.86c-.24 0-.43-.19-.43-.43s.19-.43.43-.43.43.19.43.43-.19.43-.43.43zm3.45 2.86c0 .24-.19.43-.43.43s-.43-.19-.43-.43.19-.43.43-.43.43.2.43.43zm-.43-2.86c-.24 0-.43-.19-.43-.43s.19-.43.43-.43.43.19.43.43-.2.43-.43.43zm3.67-8.1C24.82 8.73 22.08 6.7 19 6.7c-3.09 0-5.81 2.02-6.71 4.94-.5-.18-1.03-.27-1.57-.27-2.19 0-4.07 1.5-4.56 3.61-1.95.07-3.6 1.43-4.04 3.35-.02.09 0 .18.06.25s.14.11.23.11h10.05c-.05.31-.07.63-.07.95 0 3.66 2.98 6.65 6.65 6.65 3.67 0 6.65-2.98 6.65-6.65 0-.33-.02-.64-.07-.95H30c.14 0 .26-.1.29-.24.06-.36.09-.68.09-1 0-2.8-1.95-5.2-4.66-5.78zm-6.69 14.01c-3.33 0-6.03-2.71-6.03-6.03s2.71-6.03 6.03-6.03c3.33 0 6.03 2.71 6.03 6.03s-2.7 6.03-6.03 6.03zm10.72-7.57H25.5c-.7-2.93-3.33-5.11-6.47-5.11-3.14 0-5.77 2.18-6.47 5.11H2.79c.5-1.51 1.9-2.54 3.55-2.54h.05c.15.01.27-.1.29-.24.35-1.95 2.05-3.37 4.04-3.37.53 0 1.05.11 1.54.31.3.15.95.52 1.36 1.2.05.08.14.12.23.1.02-.01.05-.01.07-.03.1-.06.14-.2.08-.3-.35-.58-.84-.96-1.21-1.19.76-2.81 3.31-4.76 6.22-4.76 2.8 0 5.27 1.79 6.12 4.44-.75-.01-1.31.27-1.34.28-.11.05-.17.17-.12.29.05.11.17.16.28.12.01 0 .78-.31 1.66-.16 2.44.53 4.2 2.69 4.2 5.2-.01.2-.03.42-.06.65z"/></svg>