<svg data-name="Layer 1" xmlns="http://www.w3.org/2000/svg" viewBox="0 0 36 36"><title>Icon-Red_Hat-App_On_Server-A-Black-RGB</title><path d="M28.31 24.29a.76.76 0 0 0 .073.127.948.948 0 0 0 .1.113.532.532 0 0 0 .11.095.57.57 0 0 0 .13.065.682.682 0 0 0 .14.045.746.746 0 0 0 .15.015.688.688 0 0 0 .14-.015.713.713 0 0 0 .14-.045.518.518 0 0 0 .136-.065.8.8 0 0 0 .113-.095.693.693 0 0 0 .09-.113.91.91 0 0 0 .07-.127.69.69 0 0 0 .045-.142.73.73 0 0 0 .012-.148.693.693 0 0 0-.015-.145.86.86 0 0 0-.045-.145.922.922 0 0 0-.07-.128.687.687 0 0 0-.09-.112.66.66 0 0 0-.114-.09.753.753 0 0 0-.136-.07.774.774 0 0 0-.28-.053.834.834 0 0 0-.29.053.908.908 0 0 0-.13.07.463.463 0 0 0-.11.09.94.94 0 0 0-.1.112.77.77 0 0 0-.073.128 1.18 1.18 0 0 0-.036.145.767.767 0 0 0-.01.145.807.807 0 0 0 .014.148.922.922 0 0 0 .036.142z"/><path d="M32.53 20.47a.745.745 0 0 0-.53-.22H4a.75.75 0 0 0-.75.75v7a.75.75 0 0 0 .75.75h28a.75.75 0 0 0 .75-.75v-7a.745.745 0 0 0-.22-.53zm-1.28 4.03v2.75H4.75v-5.5h26.5z"/><path d="M9.663 24.25H7a.75.75 0 0 0 0 1.5h2.663a.75.75 0 0 0 0-1.5zM13 18.75h10a.75.75 0 0 0 .75-.75V8a.75.75 0 0 0-.75-.75H13a.75.75 0 0 0-.75.75v10a.75.75 0 0 0 .75.75zm.75-5.75V8.75h8.5v8.5h-8.5z"/><path d="M19.47 11.53a.84.84 0 0 0 .112.1.532.532 0 0 0 .128.065.86.86 0 0 0 .145.045.693.693 0 0 0 .145.01.73.73 0 0 0 .148-.015.69.69 0 0 0 .142-.045.526.526 0 0 0 .127-.065.85.85 0 0 0 .113-.1.745.745 0 0 0 .162-.243.736.736 0 0 0 .058-.282.693.693 0 0 0-.015-.145.86.86 0 0 0-.045-.145.532.532 0 0 0-.065-.128.84.84 0 0 0-.095-.112.754.754 0 0 0-.384-.2.736.736 0 0 0-.436.044.827.827 0 0 0-.128.07.7.7 0 0 0-.2.2.827.827 0 0 0-.07.127.86.86 0 0 0-.044.146.693.693 0 0 0-.018.144.753.753 0 0 0 .057.287.764.764 0 0 0 .163.243zM18.148 11.735a.69.69 0 0 0 .142-.045.91.91 0 0 0 .127-.07.677.677 0 0 0 .2-.2.91.91 0 0 0 .07-.126.69.69 0 0 0 .044-.142.73.73 0 0 0 .02-.152.753.753 0 0 0-.22-.53.693.693 0 0 0-.113-.09.817.817 0 0 0-.127-.07.73.73 0 0 0-.58 0 .827.827 0 0 0-.128.07.687.687 0 0 0-.112.09.74.74 0 0 0-.22.53.73.73 0 0 0 .015.148.69.69 0 0 0 .045.142.817.817 0 0 0 .07.127.69.69 0 0 0 .2.2.922.922 0 0 0 .127.07.86.86 0 0 0 .145.044.693.693 0 0 0 .148.02.73.73 0 0 0 .148-.015z"/></svg>