<svg id="Layer_1" xmlns="http://www.w3.org/2000/svg" viewBox="0 0 31.68 31.68"><style>.st0{fill:#010101;}</style><path class="st0" d="M22.35 5.31h-9.79c-.61 0-1.1.49-1.1 1.1v1.8c-1.19.14-2.11 1.15-2.11 2.38 0 1.22.92 2.24 2.11 2.38v.48h-.86c-3.33 0-3.53 2.45-3.64 3.76l-.17 2.12v.01c0 1.2.7 1.82 1.48 2.39l.2.14-.05.84.13.11c.29.25 1.06.66 2.92.69v1.75c0 .61.49 1.1 1.1 1.1h9.79c.61 0 1.1-.49 1.1-1.1V6.41c-.01-.61-.5-1.1-1.11-1.1zM9.7 10.59c0-1.13.92-2.05 2.05-2.05s2.05.92 2.05 2.05-.92 2.05-2.05 2.05-2.05-.92-2.05-2.05zm-.75 6.15c-.08 0-.15.07-.15.15l-.33 4.56c-.8-.58-1.34-1.09-1.34-2.11l.17-2.11c.13-1.58.45-3.44 3.3-3.44h2.3c2.85 0 3.15 1.95 3.3 3.44l.16 2.11c0 1.02-.55 1.53-1.35 2.12l-.33-4.57c0-.08-.07-.15-.15-.15-.08 0-.15.07-.15.15l.33 5.69c-.25.19-1 .59-2.96.59-2.04 0-2.76-.43-2.98-.62 0-.01.01-.03.01-.04l.32-5.61c0-.09-.07-.16-.15-.16zm13.93 8.53c0 .29-.24.53-.53.53h-9.79c-.29 0-.53-.24-.53-.53v-1.75c1.8-.04 2.57-.42 2.88-.66h7.97v2.41zm0-2.69h-7.83l-.04-.69.2-.15c.82-.6 1.49-1.19 1.49-2.4v-.35h-.03l-.14-1.8c-.13-1.31-.37-3.76-3.64-3.76h-.87v-.48c1.19-.14 2.11-1.15 2.11-2.38 0-.56-.19-1.08-.52-1.48h9.26v13.49zm0-13.76h-9.52c-.36-.33-.82-.55-1.33-.61v-1.8c0-.29.24-.53.53-.53h9.79c.29 0 .53.24.53.53v2.41z"/><path class="st0" d="M18.42 7.13H16.5c-.12 0-.21.1-.21.21s.1.21.21.21h1.92c.12 0 .21-.1.21-.21s-.09-.21-.21-.21zM15.34 7.14c-.05.05-.08.12-.08.2 0 .07.03.15.08.2.05.05.13.08.2.08s.15-.03.2-.08c.05-.05.08-.13.08-.2s-.03-.15-.08-.2c-.11-.11-.3-.11-.4 0zM16.91 25.32h1.1c.41 0 .75-.33.75-.75v-.54c0-.41-.33-.75-.75-.75h-1.1c-.41 0-.75.33-.75.75v.54c0 .41.33.75.75.75zm-.32-1.29c0-.18.14-.32.32-.32h1.1c.18 0 .32.14.32.32v.54c0 .18-.14.32-.32.32h-1.1c-.18 0-.32-.14-.32-.32v-.54zM12.15 17.91l.75.3c.02.01.03.01.05.01s.03 0 .05-.01l.75-.3c.05-.02.08-.07.08-.12v-1.32c0-.07-.06-.13-.13-.13h-1.5c-.07 0-.13.06-.13.13v1.32c0 .05.03.1.08.12zm.18-1.31h1.23v1.09l-.61.25-.61-.25V16.6z"/></svg>