<svg xmlns="http://www.w3.org/2000/svg" viewBox="0 0 32 32"><path d="M25.61 11.67c-.9-2.93-3.64-4.97-6.72-4.97-3.09 0-5.81 2.02-6.71 4.94-.51-.18-1.03-.27-1.57-.27-2.19 0-4.07 1.5-4.56 3.61-1.95.07-3.6 1.43-4.04 3.35-.02.09 0 .18.06.25s.14.11.23.11h10.05c-.05.31-.07.63-.07.95 0 3.66 2.98 6.65 6.65 6.65s6.65-2.98 6.65-6.65c0-.33-.02-.64-.07-.95h4.39c.14 0 .26-.1.29-.24.06-.36.09-.68.09-1-.02-2.8-1.97-5.2-4.67-5.78zm-6.69 14.01c-3.33 0-6.03-2.71-6.03-6.03s2.71-6.03 6.03-6.03 6.03 2.71 6.03 6.03-2.71 6.03-6.03 6.03zm10.72-7.57h-4.25c-.7-2.93-3.33-5.11-6.47-5.11-3.14 0-5.77 2.18-6.47 5.11H2.67c.5-1.51 1.9-2.54 3.55-2.54h.05c.15.01.27-.1.29-.24.35-1.95 2.05-3.37 4.04-3.37.53 0 1.05.1 1.54.31.3.15.95.52 1.36 1.2.05.08.14.12.23.1.02-.01.05-.01.07-.03.1-.06.14-.2.08-.3-.35-.58-.84-.96-1.21-1.19.76-2.81 3.31-4.76 6.22-4.76 2.8 0 5.27 1.79 6.12 4.44-.75-.01-1.31.27-1.35.28-.11.05-.17.17-.12.29.05.11.17.16.28.12.01 0 .78-.31 1.66-.16 2.44.53 4.2 2.69 4.2 5.2 0 .2-.01.41-.04.65zm-12.48-1.53c-.19-.14-.34-.21-.46-.21-.14 0-.21.09-.23.14-.01.02-.01.05 0 .07l.27.74-.04.33-.33.15-.25-.22c-.01-.03-.03-.07-.05-.12-.05-.13-.12-.32-.16-.44-.06-.15-.12-.23-.2-.24-.05-.01-.09.01-.12.04-.61.53-.11 1.47-.09 1.51.01.02.05.1.11.2l-.01.01c-.06.03-.1.07-.12.13-.02.07-.02.15.02.23.07.14.2.19.33.13l.12-.06.05.05c.12.1.16.16.15.43l-.11 3.18c0 .05-.02.33.15.51.1.11.24.17.42.17.17 0 .3-.05.4-.16.18-.2.15-.52.15-.52l-.1-3.18v-.1c-.01-.22-.01-.36.34-.63.47-.37.38-1.01.37-1.08-.11-.67-.59-1.04-.61-1.06zm-1.47.44c.01.02.02.05.03.08.07.2.22.59.22.59.01.02.02.03.03.04l.21.18-.53.25c-.1-.22-.3-.8.04-1.14zm.07 1.85c-.06.03-.08-.02-.1-.05 0 0-.05-.1.02-.13l.03-.02c.04.06.08.11.12.16l-.07.04zm1.51-.32c-.43.34-.42.56-.41.8v.1l.1 3.19s.02.23-.1.36c-.06.06-.14.09-.25.09-.12 0-.21-.03-.27-.1-.11-.12-.1-.31-.1-.36l.11-3.19c.01-.31-.04-.44-.22-.59-.18-.16-.33-.4-.4-.52l1.11-.52c.03-.02.05-.05.06-.08l.05-.41v-.05l-.25-.69h.01c.03 0 .14.02.33.17 0 0 .43.34.53.92 0 .05.07.59-.3.88zm-.26-.57c-.03-.04-.08-.05-.12-.02-.02.01-.03.03-.03.06s0 .05.02.06l.21.28c.02.02.04.03.07.03.02 0 .04-.01.05-.02.04-.03.05-.08.02-.12l-.22-.27zm-.19.1c-.03-.04-.08-.04-.12-.02-.02.01-.03.03-.03.06 0 .02 0 .05.02.06l.21.28c.02.02.04.03.07.03.02 0 .04-.01.05-.02.04-.03.05-.08.02-.12-.01.01-.22-.27-.22-.27zm-.12.48c.02.02.04.03.07.03.02 0 .04-.01.05-.02.04-.03.05-.08.02-.12l-.21-.28c-.03-.04-.08-.05-.12-.02-.04.03-.05.08-.02.12l.21.29zm-.13.13c.02 0 .04-.01.05-.02.04-.03.05-.08.02-.12l-.21-.28c-.03-.04-.08-.05-.12-.02-.02.01-.03.03-.03.06s0 .05.02.06l.21.28c.01.02.03.03.06.04zm.04 3.74c-.06 0-.11.02-.16.05-.07.04-.11.11-.13.18-.02.08 0 .16.04.22.05.08.15.14.25.14.06 0 .11-.02.16-.05.14-.09.18-.27.09-.41-.05-.08-.14-.13-.25-.13zm.13.32c-.01.03-.03.06-.06.08-.05.03-.14.02-.17-.04-.04-.06-.02-.14.04-.17.02-.01.04-.02.07-.02.04 0 .08.02.11.06.01.03.01.06.01.09zm2.71-2.01c0-.09.06-.16.08-.18.02-.02.04-.05.04-.08v-.47c0-.06-.05-.1-.1-.1h-.35v-1.95l.13-.36c.01-.02.01-.03 0-.05l-.17-.96c-.01-.05-.05-.08-.1-.08h-.34c-.05 0-.09.04-.1.09l-.17.96v.05l.13.36v1.95h-.35c-.06 0-.1.05-.1.1v.47c0 .03.01.06.04.08.01.01.08.08.08.18 0 .09-.05.2-.15.3-.02.02-.03.05-.03.07v1.87c0 .03.01.12.09.21.13.14.38.21.74.21s.61-.07.74-.21c.1-.1.09-.2.09-.2v-1.88c0-.03-.01-.05-.03-.07-.12-.12-.17-.22-.17-.31zm-.73-4.03h.17l.15.85-.13.35c0 .01-.01.02-.01.04v1.97h-.2v-1.97c0-.01 0-.02-.01-.03l-.13-.35.16-.86zm-.23 6.46c-.02 0-.03-.01-.05-.01v-1.58c0-.06 0-.12.01-.15h.03c.01.01.01.06.01.16v1.58zm.7-.01c-.02 0-.03.01-.05.01v-1.58c0-.09 0-.15.01-.16h.03v.01c.01.03.01.09.01.15v1.57zm.17-.08v-1.5c0-.07 0-.14-.02-.2-.03-.08-.09-.13-.18-.13-.19 0-.19.2-.19.33v1.6c-.1.01-.21.01-.31 0v-1.6c0-.13 0-.33-.19-.33-.09 0-.15.04-.18.12-.02.06-.02.12-.02.21v1.5c-.07-.05-.08-.1-.08-.1v-1.84c.13-.14.19-.28.18-.43-.01-.14-.08-.25-.12-.29v-.32h1.11v.32c-.04.04-.11.15-.12.29-.01.14.06.29.18.43v1.84c.01.02 0 .06-.06.1zm2.96-6.58h-.29c-.01 0-.03 0-.04.01-.02.01-.13.05-.25.05-.11 0-.2-.03-.26-.1-.02-.02-.05-.03-.07-.03h-.57c-.01 0-.91.07-1.14 1.02-.02.07-.01.19.07.25.02.01.05.02.08.02.1 0 .19-.11.2-.12 0 0 .2-.3.36-.42.03-.02.1-.06.14-.06.01 0 .02 0 .03.03.04.11.09.34.12.52l.01.05c.01.04.03.07.07.08v1.95c-.08.05-.12.13-.12.22l-.01 3.08c0 .18.26.27.41.27h.16c.15 0 .41-.09.41-.27l-.01-3.08c0-.09-.05-.17-.12-.22v-1.96c.03-.01.05-.05.06-.08l.05-.42c.04-.03.09-.05.14-.05.12 0 .23.08.23.09.02.01.04.02.06.02h.29c.04 0 .07-.02.09-.05.01-.01.07-.13.07-.38 0-.21-.05-.33-.07-.37-.03-.03-.06-.05-.1-.05zm-1.12 6.61h-.16c-.08 0-.18-.05-.2-.07l.01-3.07c0-.03.05-.07.1-.07h.36c.05 0 .1.03.1.07l.01 3.07c-.03.02-.13.07-.22.07zm-.23-3.41v-1.9h.31v1.89h-.31zm.94-2.63c-.19-.07-.36-.03-.49.1-.01.02-.02.03-.03.06l-.05.36h-.46c-.04-.2-.08-.41-.12-.52-.04-.1-.12-.15-.22-.15-.12 0-.24.08-.27.11-.14.1-.29.31-.36.41.21-.7.85-.78.92-.79h.53c.1.08.23.13.38.13.06 0 .12-.01.16-.02.01.05.01.12.01.21.01.03.01.07 0 .1zm.34.08h-.17c.01-.06.01-.12.01-.19 0-.08-.01-.16-.02-.25h.18c.01.04.03.12.03.22s-.02.17-.03.22z"/></svg>