<svg xmlns="http://www.w3.org/2000/svg" width="32" height="32" viewBox="0 0 32 32"><path d="M25.92 6.054c.036-.14-.023-.287-.157-.353l-2.818-1.378c-.042-.02-.088-.03-.134-.03H11.24c-.043 0-.083.007-.12.023l-3.245 1.38c-.142.06-.21.215-.17.36-.007.027-.017.052-.017.08v10.152c0 .007.004.013.004.02 0 .007-.004.013-.004.02V26.48c0 .17.137.306.306.306h17.634c.17 0 .306-.137.306-.306V16.327c0-.007-.004-.013-.005-.02 0-.007.004-.013.004-.02V6.135c0-.028-.01-.054-.016-.08zM11.3 4.904H22.74l1.888.922h-15.5l2.174-.923zm14.02 21.267H8.302V21.71h17.02v4.463zm0-5.075H8.302v-4.463h17.02v4.463zm0-5.117H8.302v-4.463h17.02v4.463zm0-7.65v.912zm0 2.575H8.302V6.44h17.02v4.463zM9.412 7.95c0 .235.19.423.422.423s.422-.188.422-.422c0-.232-.19-.42-.422-.42-.233 0-.422.188-.422.42zm0 1.497c0 .233.19.422.422.422s.422-.19.422-.423c0-.233-.19-.422-.422-.422-.233 0-.422.19-.422.422zm14.728-1.57H11.266c-.084 0-.153-.07-.153-.153 0-.084.07-.153.153-.153H24.14c.084 0 .154.07.154.154s-.07.153-.154.153zm0 .92H11.266c-.084 0-.153-.07-.153-.154 0-.084.07-.153.153-.153H24.14c.084 0 .154.07.154.153 0 .085-.07.153-.154.153zm0 .92H11.266c-.084 0-.153-.07-.153-.154 0-.084.07-.153.153-.153H24.14c.084 0 .154.07.154.153 0 .084-.07.153-.154.153zm0 3.37H11.266c-.084 0-.153-.07-.153-.153 0-.084.07-.153.153-.153H24.14c.084 0 .154.07.154.154 0 .084-.07.153-.154.153zm0 .92H11.266c-.084 0-.153-.07-.153-.153s.07-.153.153-.153H24.14c.084 0 .154.07.154.154s-.07.153-.154.153zm0 .92H11.266c-.084 0-.153-.07-.153-.154s.07-.153.153-.153H24.14c.084 0 .154.07.154.153s-.07.153-.154.153zm0 3.065H11.266c-.084 0-.153-.07-.153-.153s.07-.154.153-.154H24.14c.084 0 .154.07.154.153s-.07.152-.154.152zm0 .92H11.266c-.084 0-.153-.07-.153-.154s.07-.153.153-.153H24.14c.084 0 .154.07.154.153s-.07.153-.154.153zm0 .92H11.266c-.084 0-.153-.07-.153-.154s.07-.153.153-.153H24.14c.084 0 .154.07.154.153s-.07.153-.154.153zm0 3.37H11.266c-.084 0-.153-.07-.153-.153s.07-.154.153-.154H24.14c.084 0 .154.07.154.153s-.07.152-.154.152zm0 .92H11.266c-.084 0-.153-.07-.153-.153s.07-.154.153-.154H24.14c.084 0 .154.07.154.153s-.07.152-.154.152zm0 .92H11.266c-.084 0-.153-.07-.153-.153s.07-.154.153-.154H24.14c.084 0 .154.07.154.153s-.07.152-.154.152zM9.412 13.162c0 .234.19.422.422.422s.422-.188.422-.422c0-.233-.19-.42-.422-.42-.233 0-.422.188-.422.42zm0 1.495c0 .233.19.422.422.422s.422-.19.422-.423c0-.233-.19-.422-.422-.422-.233 0-.422.19-.422.422zm0 3.41c0 .232.19.42.422.42s.422-.188.422-.42c0-.234-.19-.422-.422-.422-.233 0-.422.19-.422.42zm0 1.495c0 .233.19.42.422.42s.422-.188.422-.42c0-.234-.19-.422-.422-.422-.233 0-.422.19-.422.422zm0 3.715c0 .233.19.422.422.422s.422-.19.422-.423c0-.233-.19-.42-.422-.42-.233 0-.422.188-.422.42zm0 1.496c0 .233.19.422.422.422s.422-.19.422-.422c0-.234-.19-.422-.422-.422-.233 0-.422.19-.422.423z"/></svg>