<svg id="Layer_1" xmlns="http://www.w3.org/2000/svg" viewBox="0 0 32 32"><style>.st0{fill:#010101;}</style><path class="st0" d="M9.78 5.18h1.58c.08 0 .14-.06.14-.14 0-.08-.06-.14-.14-.14H9.78c-.08 0-.14.06-.14.14 0 .08.06.14.14.14zM7.09 6.3h4.28c.08 0 .14-.06.14-.14 0-.08-.06-.14-.14-.14H7.09c-.08 0-.14.06-.14.14-.01.08.06.14.14.14zM11.36 25.74H7.09c-.08 0-.14.06-.14.14s.06.14.14.14h4.28c.08 0 .14-.06.14-.14 0-.08-.07-.14-.15-.14zM11.36 26.67H8.95c-.08 0-.14.06-.14.14s.06.14.14.14h2.42c.08 0 .14-.06.14-.14 0-.08-.07-.14-.15-.14zM4.29 10.85H2.17c-.08 0-.14.06-.14.14 0 .08.06.14.14.14h2.12c.08 0 .14-.06.14-.14.01-.07-.06-.14-.14-.14zM4.29 20.71h-1.3c-.08 0-.14.06-.14.14s.06.15.14.15h1.3c.08 0 .14-.06.14-.14s-.06-.15-.14-.15zM23.53 17.95c.03.03.07.05.12.05h.03l1.02-.19c.04-.01.07-.03.09-.05.2-.27.68-.99.68-1.76s-.48-1.49-.68-1.76c-.02-.03-.05-.05-.09-.05L23.67 14c-.05-.01-.11.01-.14.05-.03.04-.04.1-.01.15.21.41.45 1.06.45 1.8s-.24 1.39-.45 1.8c-.03.05-.02.1.01.15zm.72-1.95c0-.66-.18-1.24-.36-1.67l.7.13c.17.24.59.89.59 1.54s-.42 1.3-.59 1.54l-.7.13c.19-.43.36-1.01.36-1.67z"/><path class="st0" d="M30.72 16c0-1.2-4-2.68-8.86-3.13l-4.75-6.39c1.57-.2 1.79-.61 1.79-.81 0-1.02-4.02-1.03-4.19-1.03-1.09 0-2.04.1-2.65.19-.14.02-.24.14-.24.28v1.02c0 .14.11.26.24.28.35.05.82.11 1.36.14l1.61 6.44c-1.81.27-3.43.73-4.91 1.4L7.2 10.87c-.05-.07-.14-.1-.22-.1H5.04c-.09 0-.18.04-.23.12s-.07.17-.04.26L6.41 16l-1.64 4.84c-.03.09-.02.18.04.26.05.08.14.12.23.12h1.95c.08 0 .17-.04.22-.1l2.86-3.45c1.44.65 3.08 1.1 4.96 1.36l-1.6 6.42c-.54.04-1.01.09-1.36.14-.14.02-.24.14-.24.28v1.02c0 .14.11.26.24.28.6.09 1.55.19 2.65.19 1.57 0 4.19-.13 4.19-1.03 0-.2-.22-.61-1.79-.81l4.75-6.39c4.85-.45 8.85-1.93 8.85-3.13zM12.39 5.36c.58-.07 1.4-.15 2.32-.15 1.81 0 3.07.26 3.5.45-.41.16-1.58.37-3.5.37-.92 0-1.74-.08-2.32-.15v-.52zm1.64 1.24c.22.01.45.01.68.01.69 0 1.26-.02 1.74-.06l4.65 6.26c-.69-.05-1.4-.07-2.12-.07-1.19 0-2.31.07-3.38.2L14.03 6.6zM6.86 20.65H5.44l1.55-4.55c.02-.06.02-.12 0-.18l-1.55-4.55h1.42L10.71 16l-3.85 4.65zm4.45-4.47c.09-.11.09-.26 0-.36l-.79-.95c2.37-1.04 5.15-1.56 8.48-1.56 6.53 0 11.16 2.04 11.16 2.69 0 .65-4.63 2.69-11.16 2.69-3.48 0-6.27-.49-8.54-1.48l.85-1.03zm3.4 10.61c-.92 0-1.74-.08-2.32-.15v-.52c.58-.08 1.4-.15 2.32-.15 1.99 0 3.18.23 3.54.39-.33.19-1.55.43-3.54.43zm1.75-1.34c-.48-.04-1.06-.06-1.74-.06-.24 0-.46.01-.68.01l1.58-6.32c1.05.12 2.18.17 3.39.17.71 0 1.42-.03 2.12-.07l-4.67 6.27z"/></svg>