<svg xmlns="http://www.w3.org/2000/svg" viewBox="0 0 36 36"><path d="M23.75 11.25h-12c-.414 0-.75.336-.75.75v12c0 .414.336.75.75.75h12c.414 0 .75-.336.75-.75V12c0-.414-.336-.75-.75-.75zm-.75 12H12.5v-10.5H23v10.5zM11.75 9.75c.414 0 .75-.336.75-.75V6c0-.414-.336-.75-.75-.75S11 5.586 11 6v3c0 .414.336.75.75.75zM23.75 5.25c-.414 0-.75.336-.75.75v3c0 .414.336.75.75.75s.75-.336.75-.75V6c0-.414-.336-.75-.75-.75zM17.75 9.75c.414 0 .75-.336.75-.75V6c0-.414-.336-.75-.75-.75S17 5.586 17 6v3c0 .414.336.75.75.75zM20.75 9.75c.414 0 .75-.336.75-.75V6c0-.414-.336-.75-.75-.75S20 5.586 20 6v3c0 .414.336.75.75.75zM14.75 9.75c.414 0 .75-.336.75-.75V6c0-.414-.336-.75-.75-.75S14 5.586 14 6v3c0 .414.336.75.75.75zM29.75 23.25h-3c-.414 0-.75.336-.75.75s.336.75.75.75h3c.414 0 .75-.336.75-.75s-.336-.75-.75-.75zM26.75 12.75h3c.414 0 .75-.336.75-.75s-.336-.75-.75-.75h-3c-.414 0-.75.336-.75.75s.336.75.75.75zM29.75 17.25h-3c-.414 0-.75.336-.75.75s.336.75.75.75h3c.414 0 .75-.336.75-.75s-.336-.75-.75-.75zM29.75 14.25h-3c-.414 0-.75.336-.75.75s.336.75.75.75h3c.414 0 .75-.336.75-.75s-.336-.75-.75-.75zM29.75 20.25h-3c-.414 0-.75.336-.75.75s.336.75.75.75h3c.414 0 .75-.336.75-.75s-.336-.75-.75-.75zM8.75 23.25h-3c-.414 0-.75.336-.75.75s.336.75.75.75h3c.414 0 .75-.336.75-.75s-.336-.75-.75-.75zM8.75 11.25h-3c-.414 0-.75.336-.75.75s.336.75.75.75h3c.414 0 .75-.336.75-.75s-.336-.75-.75-.75zM8.75 17.25h-3c-.414 0-.75.336-.75.75s.336.75.75.75h3c.414 0 .75-.336.75-.75s-.336-.75-.75-.75zM8.75 14.25h-3c-.414 0-.75.336-.75.75s.336.75.75.75h3c.414 0 .75-.336.75-.75s-.336-.75-.75-.75zM8.75 20.25h-3c-.414 0-.75.336-.75.75s.336.75.75.75h3c.414 0 .75-.336.75-.75s-.336-.75-.75-.75zM11.75 26.25c-.414 0-.75.336-.75.75v3c0 .414.336.75.75.75s.75-.336.75-.75v-3c0-.414-.336-.75-.75-.75zM23.75 26.25c-.414 0-.75.336-.75.75v3c0 .414.336.75.75.75s.75-.336.75-.75v-3c0-.414-.336-.75-.75-.75zM17.75 26.25c-.414 0-.75.336-.75.75v3c0 .414.336.75.75.75s.75-.336.75-.75v-3c0-.414-.336-.75-.75-.75zM20.75 26.25c-.414 0-.75.336-.75.75v3c0 .414.336.75.75.75s.75-.336.75-.75v-3c0-.414-.336-.75-.75-.75zM14.75 26.25c-.414 0-.75.336-.75.75v3c0 .414.336.75.75.75s.75-.336.75-.75v-3c0-.414-.336-.75-.75-.75z"/></svg>