<svg xmlns="http://www.w3.org/2000/svg" viewBox="0 0 36 36"><title>Icon-Red_Hat-Buildings-Home-A-Black-RGB</title><path d="M6.37 15.42a.74.74 0 0 0 1 .23l.85-.54V18a.75.75 0 0 0 1.5 0v-3.85L18 8.9l10.6 6.75a.72.72 0 0 0 .4.12.75.75 0 0 0 .63-.35.76.76 0 0 0-.23-1l-3.66-2.33V10a.75.75 0 1 0-1.5 0v1.1L18.4 7.38a.77.77 0 0 0-.8 0l-11 7a.75.75 0 0 0-.23 1.04z"/><path d="M29 28.27h-1.25V16a.75.75 0 1 0-1.5 0v12.27h-1.5V22a.75.75 0 0 0-.75-.75h-4a.74.74 0 0 0-.75.75v6.25h-9.5V21a.58.58 0 0 0 0-.19l6.69-4.18a.75.75 0 0 0-.8-1.27l-8 5a.75.75 0 0 0 .65 1.34v6.55H7a.75.75 0 1 0 0 1.5h22a.75.75 0 0 0 0-1.5zm-5.75 0h-2.5v-5.5h2.5z"/><path d="M12 21.27a.74.74 0 0 0-.75.75v4a.75.75 0 0 0 .75.75h5a.76.76 0 0 0 .75-.75V22a.75.75 0 0 0-.75-.75zm4.25 4h-3.5v-2.5h3.5z"/></svg>