<svg data-name="office-building-smb" xmlns="http://www.w3.org/2000/svg" viewBox="0 0 36 36"><title>Icon-Red_Hat-Buildings-Office-A-Black-RGB</title><path d="M29.27 6H6.73a.75.75 0 0 0-.73.75v22.5a.75.75 0 0 0 .75.75h22.52a.75.75 0 0 0 .75-.75V6.75a.75.75 0 0 0-.75-.75zm-8 1.5h3v3.75h-3zm0 5.25h3v3.5h-3zM16.81 7.5h3v3.75h-3zm0 5.25h3v3.5h-3zM12.35 7.5h3v3.75h-3zm0 5.25h3v3.5h-3zM7.48 7.5h3.37v3.75H7.48zm0 5.25h3.37v3.5H7.48zm9.77 15.7H14.6v-7.07h2.65zm4.15 0h-2.65v-7.07h2.65zm7.12.05H22.9v-7.87a.75.75 0 0 0-.75-.75h-8.3a.75.75 0 0 0-.75.75v7.87H7.48V17.75h21zm0-12.25h-2.79v-3.5h2.79zm0-5h-2.79V7.5h2.79z"/></svg>