<svg xmlns="http://www.w3.org/2000/svg" viewBox="0 0 31.68 31.68"><path d="M13.79 10.2c-1.98 0-3.59 1.6-3.59 3.58s1.6 3.59 3.58 3.59 3.59-1.6 3.59-3.58v-.01c0-1.97-1.6-3.57-3.58-3.58zm0 .61c1 0 1.93.51 2.48 1.34h-4.96c.55-.83 1.48-1.34 2.48-1.34zm0 5.94c-1.18 0-2.25-.7-2.73-1.79h5.46c-.47 1.1-1.55 1.79-2.73 1.79zm2.97-2.96c0 .25-.03.49-.09.73h-5.76c-.17-.64-.11-1.31.15-1.91h5.46c.16.37.24.77.24 1.18zm7.55 9.6c-.07-.64-.52-1.07-.92-1.45l-.19-.18-.38-.38V9.37c0-.08-.03-.16-.09-.21L19.1 5.43c-.06-.06-.14-.09-.22-.09H7.66c-.17 0-.31.14-.31.31v20.39c0 .17.14.31.31.31h14.87c.17 0 .31-.14.31-.31V24.7c.08.01.16.02.24.02.33 0 .64-.12.89-.34.26-.26.39-.63.34-.99zm-5.1-17.01l2.75 2.85h-2.75V6.38zm3.01 19.32H7.96V5.93h10.63v3.59c0 .17.14.31.31.31h3.32v10.92l-1.43-1.44-.42-.43-1.51-1.53h.95c.13 0 .23-.1.23-.23s-.1-.23-.23-.23h-1.4l-.13-.15c.81-1.22 1.08-2.73.73-4.15h.8c.12.04.25-.03.29-.15s-.03-.25-.15-.29c-.05-.01-.09-.01-.14 0h-.91c-.93-2.79-3.95-4.29-6.74-3.36s-4.29 3.95-3.36 6.74 3.95 4.29 6.74 3.36c.25-.09.5-.19.74-.31.06.06.12.11.18.17l.52.53h-6.79c-.13 0-.23.1-.23.23s.1.23.23.23h7.24l1.89 1.91h-9.13c-.13 0-.23.1-.23.23s.1.23.23.23h9.59l.96.97.67.69c.24.27.51.5.8.7l.01 1.23zm1.32-1.77c-.17.15-.39.21-.61.16-.41-.08-.75-.43-1.07-.76l-.68-.69-4.28-4.34c-.06-.06-.13-.13-.2-.19l-.17-.15-.16-.16-.24.14c-2.29 1.26-5.17.43-6.43-1.86s-.43-5.17 1.86-6.43 5.17-.43 6.43 1.86c.89 1.62.76 3.6-.33 5.09l-.15.21.18.19c.59.61 1.67 1.7 2.27 2.31l.42.43c.8.82 1.61 1.63 2.42 2.45l.2.19c.35.34.69.67.74 1.09 0 .17-.06.35-.2.46z"/></svg>