<svg data-name="Layer 1" xmlns="http://www.w3.org/2000/svg" viewBox="0 0 36 36"><title>Icon-Red_Hat-Hardware-Virtual_Storage_Stack-A-Black-RGB</title><path d="M27.75 20.48v-7.5c0-1.61-1.07-3.05-2.825-4.083A13.842 13.842 0 0 0 18 7.23a13.842 13.842 0 0 0-6.925 1.67C9.32 9.93 8.25 11.37 8.25 12.98v10c0 1.613 1.07 3.05 2.825 4.085A13.852 13.852 0 0 0 18 28.73a13.852 13.852 0 0 0 6.925-1.665c1.755-1.035 2.825-2.472 2.825-4.084zm-1.5 1.55v.95c0 1.153-.945 2.215-2.448 2.99A13 13 0 0 1 18 27.23a13 13 0 0 1-5.8-1.26c-1.5-.77-2.45-1.837-2.45-2.99v-1.9a9.264 9.264 0 0 0 3.45 1.926 15.512 15.512 0 0 0 4.8.725 15.512 15.512 0 0 0 4.8-.724 9.264 9.264 0 0 0 3.447-1.93zm0-5v.95c0 1.153-.945 2.215-2.448 2.99A13 13 0 0 1 18 22.23a13 13 0 0 1-5.8-1.26c-1.5-.77-2.45-1.837-2.45-2.99v-1.9a9.264 9.264 0 0 0 3.45 1.926 15.512 15.512 0 0 0 4.8.725 15.512 15.512 0 0 0 4.8-.724 9.264 9.264 0 0 0 3.447-1.93zm-2.45-1.06a13 13 0 0 1-5.8 1.26 13 13 0 0 1-5.8-1.26c-1.5-.77-2.45-1.837-2.45-2.99s.95-2.214 2.45-2.988a12.98 12.98 0 0 1 5.8-1.26 12.98 12.98 0 0 1 5.8 1.26c1.5.774 2.448 1.837 2.448 2.99S25.305 15.2 23.8 15.97zM6.633 24.165a.734.734 0 0 0 .157-.55.762.762 0 0 0-.84-.66.74.74 0 0 0-.5.285.757.757 0 0 0-.15.56.73.73 0 0 0 .246.473.753.753 0 0 0 .494.187h.045a.17.17 0 0 0 .045-.01.762.762 0 0 0 .503-.285zM6 19.385a.755.755 0 1 0-.53-.22.75.75 0 0 0 .53.22zM11.334 6.7a.774.774 0 0 0 .426.126.784.784 0 0 0 .132-.01.548.548 0 0 0 .14-.04.743.743 0 0 0 .407-.4.756.756 0 0 0 .01-.575.75.75 0 0 0-1.387-.03.736.736 0 0 0 .27.925zM6 16.845a.755.755 0 1 0-.53-.22.75.75 0 0 0 .53.22zM6 21.925a.745.745 0 0 0 .53-.222.765.765 0 0 0 .22-.538.75.75 0 0 0-1.5 0 .765.765 0 0 0 .22.538.745.745 0 0 0 .53.222zM7.33 9.59a.756.756 0 0 0 .26.045.744.744 0 0 0 .31-.066.772.772 0 0 0 .263-.195.747.747 0 0 0-.09-1.06.738.738 0 0 0-.54-.18.752.752 0 0 0-.687.805.756.756 0 0 0 .258.515.732.732 0 0 0 .226.135zM6 14.305a.748.748 0 1 0-.53-.217.75.75 0 0 0 .53.217zM6.08 11.776c.04.01.08.02.12.027a.612.612 0 0 0 .12.013.742.742 0 0 0 .43-.14.77.77 0 0 0 .28-.37.768.768 0 0 0-.47-.96.745.745 0 0 0-.57.04.768.768 0 0 0-.38.43.733.733 0 0 0 .033.573.77.77 0 0 0 .437.386zM9.144 7.888a.768.768 0 0 0 .356.087.744.744 0 0 0 .21-.03.816.816 0 0 0 .2-.09.763.763 0 0 0 .32-.475.73.73 0 0 0-.578-.88.76.76 0 0 0-.89.578.755.755 0 0 0 .382.813zM28.95 11.245a.75.75 0 0 0 .28.367.76.76 0 0 0 .43.133.63.63 0 0 0 .12-.013 1.215 1.215 0 0 0 .13-.037.75.75 0 0 0 .065-1.382.723.723 0 0 0-.565-.028.748.748 0 0 0-.46.96zM26.03 7.816a.823.823 0 0 0 .2.09.737.737 0 0 0 .208.03.76.76 0 0 0 .357-.088.723.723 0 0 0 .275-.248.743.743 0 0 0 .108-.565.745.745 0 0 0-.893-.574.764.764 0 0 0-.475.33.753.753 0 0 0 .22 1.03zM29.47 12.957a.744.744 0 1 0 .53-.22.75.75 0 0 0-.53.22zM19.18 5.765h.05a.757.757 0 0 0 .517-.2.732.732 0 0 0 .234-.5.74.74 0 0 0-.185-.542.758.758 0 0 0-.514-.258.768.768 0 0 0-.546.19.75.75 0 0 0-.065 1.062.73.73 0 0 0 .51.248zM13.714 5.947a.746.746 0 0 0 .467.168.546.546 0 0 0 .08-.006l.08-.015a.75.75 0 1 0-.787-1.145.735.735 0 0 0-.1.565.748.748 0 0 0 .26.432zM23.91 6.756a1.123 1.123 0 0 0 .135.036.7.7 0 0 0 .136.014.733.733 0 0 0 .418-.133.792.792 0 0 0 .282-.357.742.742 0 0 0-.43-.96.745.745 0 0 0-.97.43.738.738 0 0 0 .013.57.747.747 0 0 0 .417.4zM21.59 6.086a.658.658 0 0 0 .084.008h.076a.748.748 0 0 0 .466-.165.748.748 0 0 0-.325-1.316.726.726 0 0 0-.56.106.745.745 0 0 0-.32.474.762.762 0 0 0 .58.89zM16.7 5.776h.05a.75.75 0 0 0 .69-.8.742.742 0 0 0-.79-.7.762.762 0 0 0-.52.253.744.744 0 0 0-.18.546.73.73 0 0 0 .233.5.756.756 0 0 0 .517.2zM7.05 25.352a.76.76 0 0 0-.57.083.746.746 0 0 0-.34.46.73.73 0 0 0 .36.837.778.778 0 0 0 .37.093.8.8 0 0 0 .194-.023.747.747 0 0 0 .186-.077.73.73 0 0 0 .344-.46.767.767 0 0 0-.084-.565.734.734 0 0 0-.46-.348zM30.05 22.885a.777.777 0 0 0-.558.162.718.718 0 0 0-.272.5.748.748 0 0 0 .157.558.733.733 0 0 0 .5.272.344.344 0 0 1 .045 0 .23.23 0 0 0 .045.005.743.743 0 0 0 .494-.192.752.752 0 0 0 .247-.478.768.768 0 0 0-.16-.55.75.75 0 0 0-.497-.277zM28.86 9.4a.75.75 0 0 0-.99-1.13.736.736 0 0 0-.252.51.77.77 0 0 0 .182.55.726.726 0 0 0 .258.188.747.747 0 0 0 .3.062.77.77 0 0 0 .26-.045.846.846 0 0 0 .243-.135zM27.6 27.2a.754.754 0 0 0-.625 1.242.725.725 0 0 0 .262.19.8.8 0 0 0 .308.06.76.76 0 0 0 .256-.045.744.744 0 0 0 .235-.135.76.76 0 0 0 .252-.512.733.733 0 0 0-.692-.8zM29.54 25.375a.74.74 0 0 0-1.02.27.733.733 0 0 0-.078.563.75.75 0 0 0 .348.457.708.708 0 0 0 .186.076.753.753 0 0 0 .194.025.763.763 0 0 0 .367-.095.732.732 0 0 0 .283-.275.763.763 0 0 0 .07-.57.73.73 0 0 0-.35-.45zM30 20.345a.756.756 0 1 0 .53.222.745.745 0 0 0-.53-.222zM30 15.276a.748.748 0 1 0 .53.217.75.75 0 0 0-.53-.217zM30 17.816a.748.748 0 1 0 .53.217.75.75 0 0 0-.53-.217zM25.662 28.64a.746.746 0 0 0-.89 1.055.736.736 0 0 0 .277.3.756.756 0 0 0 .39.107.67.67 0 0 0 .17-.022.764.764 0 0 0 .17-.068.732.732 0 0 0 .367-.434.74.74 0 0 0-.485-.942zM10.96 28.716a.75.75 0 0 0-1.045.9.757.757 0 0 0 .375.438.886.886 0 0 0 .166.058.72.72 0 0 0 .174.022.756.756 0 0 0 .388-.11.752.752 0 0 0 .32-.878.744.744 0 0 0-.378-.43zM8.452 27.248a.755.755 0 0 0-.512.258.76.76 0 0 0 .318 1.2.723.723 0 0 0 .25.045.77.77 0 0 0 .572-.26.75.75 0 0 0-.628-1.237zM13.2 29.586a.743.743 0 0 0-.574.06.76.76 0 0 0-.3 1.02.764.764 0 0 0 .45.36.785.785 0 0 0 .105.022.723.723 0 0 0 .55-.142.737.737 0 0 0 .21-.964.733.733 0 0 0-.44-.356zM18.07 30.236H18a.75.75 0 0 0-.532.216.735.735 0 0 0-.218.524.762.762 0 0 0 .218.537.74.74 0 0 0 .532.223v-.01h.07a.747.747 0 0 0 .53-1.278.725.725 0 0 0-.53-.212zM20.5 30.066a.74.74 0 0 0-.64.84.74.74 0 0 0 .25.467.75.75 0 0 0 .49.183h.1a.757.757 0 0 0 .5-.294.747.747 0 0 0-.7-1.2zM23.437 29.624a.76.76 0 0 0-1.017.3.748.748 0 0 0-.06.574.78.78 0 0 0 .274.39.74.74 0 0 0 .446.15.62.62 0 0 0 .105-.01.464.464 0 0 0 .105-.028.732.732 0 0 0 .45-.357.74.74 0 0 0 .06-.573.753.753 0 0 0-.363-.446zM15.57 30.075a.742.742 0 0 0-.556.144.756.756 0 0 0 .356 1.345h.1a.743.743 0 0 0 .74-.65.738.738 0 0 0-.64-.84z"/></svg>