<svg xmlns="http://www.w3.org/2000/svg" viewBox="0 0 31.68 31.68"><path d="M24.43 8.37H7.25c-.56 0-1.01.45-1.01 1.01v11.47c0 .56.45 1.01 1.01 1.01h7.19v3.44c0 .14.12.26.26.26s.26-.12.26-.26v-3.44h1.76v2.2c0 .14.12.26.26.26s.26-.12.26-.26v-2.2h7.19c.56 0 1.01-.45 1.01-1.01V9.38c0-.56-.45-1.01-1.01-1.01m.49 12.48c0 .27-.22.49-.49.49H7.25c-.27 0-.49-.22-.49-.49V9.38c0-.27.22-.49.49-.49h17.18c.27 0 .49.22.49.49v11.47z"/><path d="M23.61 9.74H7.81c-.11 0-.2.09-.2.2V20.3c0 .11.09.2.2.2h15.81c.11 0 .2-.09.2-.2V9.93c-.01-.1-.1-.19-.21-.19m-.19 5.92h-.98c.08.1.16.23.23.38v.01h.75v4.05H8v-4.05h2.75c.06 0 .12-.03.16-.08l.37-.54.6 1.84c.03.08.1.13.19.13s.16-.06.18-.14l1.25-4.53 1.38 6.15c.02.09.1.15.19.15h.01c.09 0 .17-.07.19-.16l.48-2.84.12.25c.03.07.11.12.19.11.08 0 .15-.05.18-.13l.44-1.2.32.87c.03.07.1.12.18.12h.61c0-.01 0-.01.01-.02.07-.15.15-.27.23-.37h-.7l-.47-1.22c-.03-.08-.1-.12-.18-.13-.08 0-.15.05-.18.13l-.46 1.24-.18-.39c-.04-.08-.12-.12-.2-.11-.08.01-.15.08-.17.16l-.42 2.48-1.34-5.94c-.02-.09-.1-.15-.19-.15s-.17.06-.19.14l-1.28 4.65-.52-1.6c-.02-.07-.08-.12-.16-.13-.07-.01-.15.02-.19.08l-.53.78H8v-5.53h15.42v5.54z"/><path d="M19.7 18.8l.2.17c.08.06.11.09.2.17.04.04.1.05.15.05.05 0 .11-.02.15-.05 1.26-1.04 1.55-1.51 1.61-1.62.33-.52.25-.95.13-1.23-.13-.28-.33-.44-.37-.48-.23-.17-.46-.25-.7-.25-.37 0-.65.2-.83.36-.18-.17-.46-.36-.83-.36-.24 0-.48.08-.71.25-.02.02-.23.18-.36.47-.12.27-.2.71.12 1.23.02.06.24.42 1.24 1.29m-1.01-2.36c.09-.2.24-.31.24-.31.16-.12.32-.18.48-.18.35 0 .61.29.68.38.07.09.23.09.31 0 .07-.09.33-.38.68-.38.16 0 .31.06.47.17.01 0 .16.13.25.33.13.27.09.56-.1.86 0 .01-.01.02-.01.02s-.2.4-1.42 1.42c-.03-.03-.06-.05-.1-.08l-.2-.17c-.97-.84-1.16-1.17-1.16-1.18-.22-.32-.25-.61-.12-.88"/></svg>