<svg data-name="phone-land-line" xmlns="http://www.w3.org/2000/svg" viewBox="0 0 36 36"><title>Icon-Red_Hat-</title><path d="M14.42 5.65a5.79 5.79 0 0 1 5.78 5.78.75.75 0 0 0 1.5 0 7.29 7.29 0 0 0-7.28-7.28.75.75 0 0 0 0 1.5zM28.9 25.8l-5.17-5.17a.75.75 0 0 0-1.06 0l-2.43 2.42-5.58-5.58L17.08 15a.75.75 0 0 0 0-1.06l-5.17-5.13a.75.75 0 0 0-1.06 0L8.63 11a6 6 0 0 0 0 8.45l9.6 9.6a6 6 0 0 0 8.45 0l2.22-2.22a.75.75 0 0 0 0-1.06zM25.62 28a4.49 4.49 0 0 1-6.33 0l-9.6-9.6a4.48 4.48 0 0 1 0-6.33l1.69-1.68 4.11 4.1-2.43 2.43a.75.75 0 0 0 0 1.06l6.65 6.65a.75.75 0 0 0 1.06 0l2.43-2.43 4.1 4.11zM14.42 9a2.39 2.39 0 0 1 2.39 2.38.75.75 0 0 0 1.5 0 3.89 3.89 0 0 0-3.89-3.88.75.75 0 1 0 0 1.5z"/></svg>