<svg data-name="Layer 1" xmlns="http://www.w3.org/2000/svg" viewBox="0 0 36 36"><title>Icon-Red_Hat-Shoe-A-Black-RGB</title><path d="M28.794 17.13a4.912 4.912 0 0 0-3.483-1.446.75.75 0 1 0 0 1.5 3.433 3.433 0 0 1 3.43 3.428v.293h-.3a3.884 3.884 0 0 0-3.808 3.133h-2.825a4.9 4.9 0 0 0-9.7 0H7.262V13.3a.817.817 0 0 1 1.633 0 3.876 3.876 0 0 0 7.652.884.724.724 0 0 0 .09-.334v-.368c0-.064.02-.123.02-.187a.61.61 0 0 0-.017-.083l.006-.68.01-1.32a.75.75 0 0 0-.743-.756h-.006a.75.75 0 0 0-.75.744l-.01 1.32-.01.963A2.377 2.377 0 0 1 10.4 13.3a2.316 2.316 0 0 0-4.632.005v11.483a.75.75 0 0 0 .75.75h21.926a1.8 1.8 0 0 0 1.8-1.794v-3.132a4.913 4.913 0 0 0-1.45-3.483zm-10.94 6.908h-4.237a3.42 3.42 0 0 1 6.678 0zm10.885-.294a.3.3 0 0 1-.3.294h-2.247a2.35 2.35 0 0 1 2.25-1.633h.3z"/><path d="M22.178 17.184a.75.75 0 0 0 .75-.75V15.39a.75.75 0 1 0-1.5 0v1.044a.75.75 0 0 0 .75.75zM19.044 16.14a.75.75 0 0 0 .75-.75V13.3a.75.75 0 0 0-1.5 0v2.088a.75.75 0 0 0 .75.75z"/></svg>