<svg xmlns="http://www.w3.org/2000/svg" viewBox="0 0 32 32"><path d="M8.2 13.8c1.3 0 2.3-1 2.3-2.3 0-1.3-1-2.3-2.3-2.3s-2.3 1-2.3 2.3c0 1.3 1 2.3 2.3 2.3zm0-4c.9 0 1.7.8 1.7 1.7 0 .9-.8 1.7-1.7 1.7-.9 0-1.7-.8-1.7-1.7 0-.9.8-1.7 1.7-1.7z"/><path d="M28.3 7.8H14.8c-.4 0-.7.3-.7.7v6H7.8c-3.1 0-4.5 1.1-4.5 3.7V20c0 .4-.1 1.6 1.7 2.7v.7l.2.1c1 .4 2 .5 3.1.5 1 0 2.1-.2 3.1-.5l.2-.1v-4.9c0-.5.3-.9.8-1 .2 0 1-.1 1.8-.3v6.5c0 .4.3.7.7.7h13.4c.4 0 .7-.3.7-.7V8.5c0-.4-.3-.7-.7-.7zm-20.2 8h.2l.4 6-.5.4-.5-.4.4-6zm.2-.3h-.2l-.2-.5h.6l-.2.5zm3.9 1.3c-.8.1-1.4.7-1.4 1.6v4.5c-.9.3-1.8.4-2.7.4-1 0-1.8-.1-2.7-.4v-.3-4.5c0-.1-.1-.2-.2-.2s-.1.1-.1.2V22c-1.3-.9-1.2-1.7-1.2-2v-1.8c0-2.1 1.1-3.1 3.7-3.1l.3.6-.4 6.2s0 .1.1.1l.7.5h.2l.4-.5.1-.1-.4-6.2.3-.6h9.5c.2 0 .4.2.4.4 0 .3-.3.4-.5.4-.3 0-1.5.2-2.8.4-1.4.3-2.9.5-3.3.5zm16.2 6.9s-.1.1 0 0l-13.5.1c-.1 0-.1 0-.1-.1v-6.6c.3 0 .6-.1.8-.1 1.2-.2 2.4-.4 2.8-.4.6-.1 1-.5 1-1.1 0-.6-.5-1.1-1.1-1.1h-3.6v-6c0-.1 0-.1.1-.1h13.4c.1 0 .1 0 .1.1v15.3z"/><path d="M28 22.9H15.1c-.1 0-.2.1-.2.2s.1.2.2.2H28c.1 0 .2-.1.2-.2s-.1-.2-.2-.2z"/></svg>