<svg xmlns="http://www.w3.org/2000/svg" width="32" height="32" viewBox="0 0 32 32"><path d="M16.51 4.667C10.263 4.667 5.18 9.75 5.18 16c0 6.25 5.084 11.333 11.333 11.333 6.25 0 11.334-5.084 11.334-11.333 0-6.25-5.084-11.333-11.333-11.333zm0 22.115c-5.944 0-10.78-4.836-10.78-10.782S10.565 5.218 16.51 5.218c5.946 0 10.783 4.837 10.783 10.782 0 5.946-4.837 10.782-10.782 10.782zm.047-20.736c-5.446 0-9.876 4.43-9.876 9.876s4.43 9.876 9.877 9.876c5.446 0 9.876-4.43 9.876-9.877s-4.43-9.875-9.876-9.875zm8.366 14.29l-.858-.497c-.173-.102-.394-.042-.494.13-.1.175-.04.396.133.495l.857.496c-.755 1.196-1.77 2.21-2.966 2.966l-.493-.857c-.1-.175-.32-.234-.493-.134-.174.1-.233.32-.134.494l.494.86c-1.218.644-2.592 1.03-4.05 1.085v-.99c0-.2-.16-.362-.36-.362-.2 0-.363.162-.363.362v.99c-1.458-.055-2.833-.44-4.05-1.086l.495-.86c.1-.173.04-.394-.134-.494-.173-.1-.395-.04-.494.132l-.494.857c-1.194-.755-2.21-1.77-2.964-2.963l.856-.493c.173-.1.233-.323.133-.495-.1-.173-.322-.233-.495-.133l-.858.494c-.645-1.218-1.03-2.592-1.086-4.05h.99c.2 0 .363-.162.363-.362 0-.2-.162-.362-.362-.362h-.99c.054-1.458.44-2.832 1.085-4.05l.86.497c.058.032.12.047.18.047.126 0 .248-.065.315-.18.1-.175.04-.396-.133-.496l-.858-.494c.755-1.195 1.77-2.21 2.964-2.965l.494.858c.068.116.19.18.314.18.062 0 .123-.015.18-.047.174-.1.234-.32.134-.494l-.496-.858c1.218-.645 2.593-1.03 4.05-1.086v.994c0 .2.163.362.363.362.2 0 .362-.162.362-.362v-.994c1.457.055 2.832.44 4.05 1.086h-.002l-.495.858c-.1.173-.04.395.133.495.058.033.12.05.18.05.126 0 .248-.066.315-.182l.496-.857c1.195.757 2.21 1.77 2.965 2.967l-.855.494c-.173.1-.233.323-.132.496.067.116.19.18.313.18.062 0 .123-.015.18-.047l.86-.496c.644 1.218 1.03 2.59 1.085 4.05h-.99c-.2 0-.362.16-.362.36 0 .2.162.363.362.363h.99c-.054 1.458-.44 2.832-1.086 4.05zm-4.77-2.66l-3.11-1.832v-5.5c0-.304-.247-.55-.552-.55-.304 0-.55.246-.55.55v5.824c0 .233.143.43.346.512l3.308 1.947c.09.05.185.076.28.076.19 0 .373-.097.476-.272.154-.262.067-.6-.196-.755z"/></svg>