<svg xmlns="http://www.w3.org/2000/svg" width="32" height="32" viewBox="0 0 32 32"><path d="M23.47 6.52H8.53c-.17 0-.307.138-.307.307V25.17c0 .17.137.307.306.307h14.94c.17 0 .307-.137.307-.306V6.828c0-.17-.137-.307-.306-.307zm-.306 18.346H8.836V7.136h14.33v17.73zm-11.966-2.17h9.605c.106 0 .192-.087.192-.193V9.496c0-.106-.086-.192-.192-.192h-9.605c-.106 0-.192.086-.192.192v13.007c0 .106.086.19.192.19zm9.413-.384h-5.57c.234-.436.443-.654.45-.66.43-.47.876-.706 1.32-.707.3.236.678.378 1.088.378.412 0 .79-.143 1.09-.38l.01.002c.503 0 1.285.433 1.613.804v.562zm-4.168-2.75c0-.804.653-1.457 1.456-1.457.803 0 1.456.653 1.456 1.456 0 .804-.653 1.457-1.456 1.457-.803 0-1.456-.653-1.456-1.456zM11.39 9.687h9.222v6.702c-.404-.685-1.2-1.663-2.527-1.85.265-.396.42-.872.42-1.383 0-1.38-1.124-2.503-2.504-2.503S13.5 11.777 13.5 13.157c0 .5.148.962.4 1.353-1.345.114-2.114 1.172-2.508 1.97V9.69zm6.653 3.468c0 1.127-.917 2.043-2.043 2.043s-2.043-.918-2.043-2.044c0-1.127.917-2.043 2.043-2.043s2.043.917 2.043 2.043zM11.39 17.63c.013-.02.024-.043.03-.068.03-.112.745-2.706 2.856-2.595.45.428 1.056.693 1.724.693.664 0 1.267-.262 1.716-.686 1.784.058 2.69 1.882 2.895 2.36v3.993c-.36-.297-.887-.573-1.34-.66.244-.302.39-.686.39-1.105 0-.972-.79-1.763-1.762-1.763s-1.762.79-1.762 1.762c0 .157.022.308.06.453-.316-.298-.743-.514-1.144-.597.272-.31.438-.715.438-1.16 0-.97-.79-1.762-1.763-1.762s-1.762.79-1.762 1.763c0 .443.166.848.44 1.16-.383.077-.74.27-1.014.486V17.63zm2.336 2.084c-.803 0-1.456-.653-1.456-1.456 0-.803.653-1.456 1.456-1.456.803 0 1.456.653 1.456 1.456 0 .803-.653 1.456-1.456 1.456zm-2.336.6c.323-.315.825-.61 1.31-.625.29.207.644.33 1.027.33.382 0 .736-.123 1.025-.33.573.02 1.362.467 1.568 1.03-.362.115-.714.355-1.052.72-.013.013-.288.298-.57.872H11.39v-1.998z"/></svg>