<svg xmlns="http://www.w3.org/2000/svg" viewBox="0 0 32 32"><path d="M16 10.74c2.35 0 4.26-1.91 4.26-4.26S18.35 2.23 16 2.23s-4.25 1.91-4.25 4.25c0 2.35 1.9 4.26 4.25 4.26zm0-7.89c2.01 0 3.64 1.63 3.64 3.64 0 2.01-1.63 3.64-3.64 3.64s-3.64-1.63-3.64-3.64S13.99 2.85 16 2.85zm2.33 8.72h-4.67c-4.34 0-6.73 2.39-6.73 6.73v3.75c0 2.12 1.41 3.16 2.91 4.26l.2.15v1.71c0 .07.03.15.08.2.29.33 1.58 1.41 5.88 1.41s5.59-1.08 5.88-1.41c.05-.06.08-.13.08-.2v-1.71l.2-.15c1.5-1.1 2.91-2.14 2.91-4.26V18.3c-.01-4.35-2.4-6.73-6.74-6.73zm-2.47 2.34l.24.01h.04l.12-.01.86 12.75-1.06.92-1.06-.92.86-12.75zm.41-.62l-.17.01-.21-.01c-.22-.29-.41-.77-.54-1.12h1.42c-.14.37-.36.83-.5 1.12zm8.18 8.75c0 1.81-1.23 2.72-2.66 3.77V18c0-.15-.12-.27-.27-.27-.15 0-.27.12-.27.27v10.1c-.44.35-1.77 1.06-5.26 1.06-3.62 0-4.91-.76-5.3-1.09.01-.02.01-.05.01-.08V18c0-.15-.12-.27-.27-.27-.15 0-.27.12-.27.27v7.79c-1.41-1.04-2.63-1.94-2.63-3.75v-3.75c0-2.79 1.06-6.11 6.11-6.11h1.03c.09.29.31.89.59 1.34-.01.02-.02.05-.02.07l-.91 13.18c-.01.1.03.19.1.25l1.38 1.2c.06.05.13.08.2.08s.14-.02.2-.08l1.38-1.2c.07-.06.11-.16.1-.25l-.89-13.25c.15-.31.43-.91.57-1.34h.92c5.05 0 6.11 3.32 6.11 6.11l.05 3.75z"/></svg>