<svg data-name="Layer 1" xmlns="http://www.w3.org/2000/svg" viewBox="0 0 36 36"><title>Icon-Red_Hat-Software_and_technologies-Apps_Multiple_Secured-A-Black-RGB</title><path d="M24.5 26.75H9.25V8.5a.75.75 0 0 0-1.5 0v19a.76.76 0 0 0 .75.75h16a.75.75 0 0 0 0-1.5z"/><path d="M24.5 29.75H6.25V11.5a.75.75 0 0 0-1.5 0v19a.76.76 0 0 0 .75.75h19a.75.75 0 0 0 0-1.5z"/><path d="M24.5 23.52H12.25V6.25h17.5V18a.75.75 0 0 0 1.5 0V5.5a.76.76 0 0 0-.75-.75h-19a.76.76 0 0 0-.75.75v18.77a.76.76 0 0 0 .75.75h13a.75.75 0 0 0 0-1.5z"/><path d="M27.5 9.27a.93.93 0 0 0 .29 0 .81.81 0 0 0 .21-.22.67.67 0 0 0 .16-.24.72.72 0 0 0 .06-.29.71.71 0 0 0-.06-.28A.82.82 0 0 0 28 8a.75.75 0 0 0-1 0 .82.82 0 0 0-.16.25.71.71 0 0 0-.06.28.73.73 0 0 0 .22.53.75.75 0 0 0 .5.21zM26 8a.78.78 0 0 0-.24-.16.73.73 0 0 0-.58 0A.78.78 0 0 0 25 8a.82.82 0 0 0-.16.25.71.71 0 0 0-.06.28.72.72 0 0 0 .06.29.67.67 0 0 0 .16.24.81.81 0 0 0 .24.17.93.93 0 0 0 .29 0 1 1 0 0 0 .29 0 .81.81 0 0 0 .18-.18.56.56 0 0 0 .16-.24.72.72 0 0 0 .06-.29.71.71 0 0 0-.06-.28A.67.67 0 0 0 26 8zM33.74 21.35l-2.94-.7a.69.69 0 0 0-.35 0l-2.92.7a.76.76 0 0 0-.58.73v3.83a3.69 3.69 0 0 0 7.37 0v-3.83a.75.75 0 0 0-.58-.73z"/></svg>