<svg xmlns="http://www.w3.org/2000/svg" viewBox="0 0 36 36"><title>Icon-Red_Hat-Objects-Beaker-A-Black-RGB</title><path d="M21 17.25A4.25 4.25 0 1 0 16.75 13 4.26 4.26 0 0 0 21 17.25zm0-7A2.75 2.75 0 1 1 18.25 13 2.75 2.75 0 0 1 21 10.25zM13.5 10.25a2.75 2.75 0 1 0-2.75-2.75 2.75 2.75 0 0 0 2.75 2.75zm0-4a1.25 1.25 0 1 1-1.25 1.25 1.25 1.25 0 0 1 1.25-1.25z"/><path d="M27.5 8.75a.76.76 0 0 0-.75.75v11.65A5.61 5.61 0 0 1 19 21a7.12 7.12 0 0 0-8.78-1v-7.5A.75.75 0 0 0 10 12L7 9a.75.75 0 0 0-1 1l2.78 2.78v15.74a2.73 2.73 0 0 0 2.73 2.73h14a2.73 2.73 0 0 0 2.73-2.73V9.5a.76.76 0 0 0-.74-.75zm-2 21h-14a1.23 1.23 0 0 1-1.23-1.23v-6.67A5.61 5.61 0 0 1 18 22a7.12 7.12 0 0 0 8.78 1v5.48a1.23 1.23 0 0 1-1.26 1.27zM20 6a.78.78 0 0 0 .24.16.72.72 0 0 0 .29.06A.75.75 0 0 0 21 6a.67.67 0 0 0 .16-.25.72.72 0 0 0 .06-.29A.74.74 0 0 0 21 5a.75.75 0 0 0-1.22.24.71.71 0 0 0-.06.28.68.68 0 0 0 .06.29A.67.67 0 0 0 20 6z"/><path d="M13.21 12.8a1 1 0 0 0-.21.2.77.77 0 0 0-.22.54.74.74 0 0 0 .22.46.73.73 0 0 0 1 0 .63.63 0 0 0 .16-.24.67.67 0 0 0 .06-.28.75.75 0 0 0-1-.7z"/></svg>