<svg data-name="Layer 1" xmlns="http://www.w3.org/2000/svg" viewBox="0 0 36 36"><title>Icon-Red_Hat-Office-Security_camera-A-Black-RGB</title><path d="M30.21 11.77a.77.77 0 0 0-.62-.26l-3.59.23.26-1.26a.69.69 0 0 0-.1-.56.75.75 0 0 0-.47-.33L9.88 6.24a.74.74 0 0 0-.88.58l-1.82 8.53a.76.76 0 0 0 .11.57.72.72 0 0 0 .47.32l4.14.88a3.9 3.9 0 0 0 .63 2.19 3.84 3.84 0 0 0 1.82 1.49 4.83 4.83 0 0 1-4.17 4.26A3.91 3.91 0 0 0 6.36 22a.74.74 0 0 0-.75.75V29a.75.75 0 0 0 .75.75 3.91 3.91 0 0 0 3.83-3.19 6.36 6.36 0 0 0 5.65-5.5 3.82 3.82 0 0 0 2.09-.63 3.88 3.88 0 0 0 1.47-1.74l4.14.88h.16a.76.76 0 0 0 .73-.59l.27-1.26 3.21 1.68a.73.73 0 0 0 .35.09.92.92 0 0 0 .32-.07.76.76 0 0 0 .41-.53l1.39-6.51a.8.8 0 0 0-.17-.61zM7.11 28.16v-4.57a2.41 2.41 0 0 1 0 4.57zm8.19-8.62a2.41 2.41 0 0 1-1.89-2.1l4.48 1a2.42 2.42 0 0 1-2.59 1.1zm9-7.14l-.82 3.87-.36 1.73L8.8 15l1.51-7.07 14.31 3zm3.43 5.25L25 16.23l.63-3 3.05-.2zm-16.5-3.55a.71.71 0 0 0 .29 0 .81.81 0 0 0 .24-.17.71.71 0 0 0 .22-.53.92.92 0 0 0-.05-.28.85.85 0 0 0-.17-.25.67.67 0 0 0-.24-.16.71.71 0 0 0-.57 0 .72.72 0 0 0-.25.16.82.82 0 0 0-.16.25.71.71 0 0 0-.06.28.75.75 0 0 0 .22.53.74.74 0 0 0 .53.17zm2.59.57l3.91.83h.16a.74.74 0 0 0 .73-.6.75.75 0 0 0-.62-.9l-3.91-.83a.74.74 0 0 0-.89.58.75.75 0 0 0 .62.92z"/></svg>