<svg xmlns="http://www.w3.org/2000/svg" viewBox="0 0 36 36"><title>Icon-Red_Hat-Objects-Utensils-A-Black-RGB</title><path d="M13 7.25a.76.76 0 0 0-.75.75v6a2.25 2.25 0 0 1-4.5 0V8a.75.75 0 0 0-1.5 0v6a3.75 3.75 0 0 0 3 3.67V28a.75.75 0 0 0 1.5 0V17.67a3.75 3.75 0 0 0 3-3.67V8a.76.76 0 0 0-.75-.75z"/><path d="M10.25 9v4a.75.75 0 0 0 1.5 0V9a.75.75 0 0 0-1.5 0zM8.25 9v4a.75.75 0 0 0 1.5 0V9a.75.75 0 0 0-1.5 0zM19 7.25A3.75 3.75 0 0 0 15.25 11v3a3.75 3.75 0 0 0 3 3.67V28a.75.75 0 0 0 1.5 0V17.67a3.75 3.75 0 0 0 3-3.67v-3A3.75 3.75 0 0 0 19 7.25zM21.25 14a2.25 2.25 0 0 1-4.5 0v-3a2.25 2.25 0 0 1 4.5 0zM26 7.25h-1a.76.76 0 0 0-.75.75v20a.75.75 0 0 0 1.5 0v-6.25H29a.76.76 0 0 0 .75-.75v-5a12.83 12.83 0 0 0-3.19-8.5.73.73 0 0 0-.56-.25zm2.25 13h-2.5V8.87a11.3 11.3 0 0 1 2.5 7.13z"/></svg>