<svg id="Layer_1" xmlns="http://www.w3.org/2000/svg" viewBox="0 0 32 32"><style>.st0{fill:#010101;}</style><path class="st0" d="M7.44 13.77c-1.28 0-2.32-1.04-2.32-2.32s1.04-2.32 2.32-2.32 2.32 1.04 2.32 2.32-1.04 2.32-2.32 2.32zm0-4.04c-.95 0-1.72.77-1.72 1.73s.77 1.73 1.72 1.73 1.73-.77 1.73-1.73c0-.95-.78-1.73-1.73-1.73zM27.51 24.3H14.07c-.38 0-.7-.31-.7-.7v-6.8h.59v6.8c0 .06.05.1.1.1h13.43c.06 0 .1-.05.1-.1V8.4c0-.06-.05-.1-.1-.1H14.07c-.06 0-.1.05-.1.1v6.16h-.59V8.4c0-.38.31-.7.7-.7h13.43c.38 0 .7.31.7.7v15.2c-.01.39-.32.7-.7.7z"/><path class="st0" d="M27.26 23.13H14.34c-.08 0-.15-.07-.15-.15s.07-.15.15-.15h12.92c.08 0 .15.07.15.15s-.07.15-.15.15zM4.53 22.78c-.16 0-.3-.13-.3-.3v-4.42c0-.16.13-.3.3-.3s.3.13.3.3v4.42c-.01.17-.14.3-.3.3z"/><path class="st0" d="M7.44 23.86c-1.09 0-2.1-.18-3.1-.54-.12-.04-.2-.15-.2-.28v-.47c-1.77-1.1-1.7-2.29-1.67-2.69V18.1c0-2.57 1.39-3.71 4.52-3.71h10.55c.58 0 1.05.47 1.05 1.05 0 .56-.4.97-1.01 1.04l-2.76.4c-1.41.21-2.88.43-3.26.48-.54.07-.85.42-.85.97v4.7c0 .12-.08.24-.2.28-1.01.37-2.02.55-3.07.55zm-2.7-1.03c.88.3 1.75.44 2.7.44.91 0 1.79-.15 2.68-.44v-4.49c0-.84.53-1.45 1.36-1.56.38-.05 1.84-.27 3.25-.48 1.24-.18 2.42-.36 2.76-.4.19-.02.49-.11.49-.46 0-.25-.2-.45-.45-.45H6.99c-2.79 0-3.92.9-3.92 3.12v1.81c-.02.35-.08 1.29 1.53 2.23.09.05.15.15.15.25l-.01.43z"/><path class="st0" d="M7.41 22.52l-.81-.67.45-6.28-.3-.65c-.03-.07 0-.16.07-.2.07-.03.16 0 .2.07l.34.72v.04l-.46 6.17.51.42.51-.42-.44-6.21.34-.72c.03-.07.12-.11.2-.07.07.03.11.12.07.2l-.3.66.45 6.28-.83.66z"/><path class="st0" d="M7.59 15.75h-.41c-.08 0-.15-.07-.15-.15s.07-.15.15-.15h.41c.08 0 .15.07.15.15s-.07.15-.15.15z"/></svg>