<svg xmlns="http://www.w3.org/2000/svg" width="32" height="32" viewBox="0 0 32 32"><path d="M25.01 15.333c.038-.14-.02-.287-.155-.353l-2.818-1.38c-.042-.02-.088-.03-.134-.03H10.33c-.04 0-.08.008-.12.024l-3.243 1.38c-.142.06-.21.215-.17.36-.008.026-.017.05-.017.08v5.15c0 .17.137.307.306.307H24.72c.17 0 .306-.137.306-.305v-5.152c0-.03-.01-.055-.016-.08zm-14.617-1.15H21.83l1.89.924H8.22l2.173-.924zm14.02 6.075H7.394v-4.463h17.02v4.463zm-15.91-2.893c0 .233.19.422.422.422s.422-.19.422-.422c0-.233-.19-.42-.422-.42s-.422.188-.422.42zm0 1.496c0 .233.19.422.422.422s.422-.19.422-.42c0-.235-.19-.423-.422-.423s-.422.187-.422.42zm14.73-1.705H10.357c-.084 0-.153-.07-.153-.153s.07-.153.153-.153h12.874c.085 0 .154.068.154.152s-.07.153-.154.153zm0 1.84H10.357c-.084 0-.153-.07-.153-.154 0-.083.07-.152.153-.152h12.874c.085 0 .154.07.154.153 0 .086-.07.154-.154.154zm0-.92H10.357c-.084 0-.153-.07-.153-.154 0-.083.07-.152.153-.152h12.874c.085 0 .154.07.154.153 0 .086-.07.154-.154.154z"/></svg>