<svg xmlns="http://www.w3.org/2000/svg" viewBox="0 0 36 36"><title>Icon-Red_Hat-Objects-Scales_Of_Justice-A-Black-RGB</title><path d="M7 27.27a.75.75 0 1 0 0 1.5h22a.75.75 0 0 0 0-1.5H18.75v-16.5h4.47l-2.93 8a.49.49 0 0 0 0 .12.7.7 0 0 0 0 .14v.05a4.75 4.75 0 0 0 9.49 0 .7.7 0 0 0 0-.14.25.25 0 0 0 0-.12l-3.06-8.37a.8.8 0 0 0 .11-.37.75.75 0 0 0-.83-.81h-7.25V8a.75.75 0 0 0-1.5 0v1.27H10a.74.74 0 0 0-.75.75.8.8 0 0 0 .11.37l-3.07 8.37a.49.49 0 0 0 0 .12.7.7 0 0 0 0 .14v.05a4.75 4.75 0 0 0 9.49 0 .7.7 0 0 0 0-.14.25.25 0 0 0 0-.12l-2.92-8h4.47v16.5zm18-5a3.25 3.25 0 0 1-3.16-2.5h6.32a3.26 3.26 0 0 1-3.16 2.5zm.18-11.5l2.75 7.5h-5.86l2.75-7.5zM11 22.27a3.25 3.25 0 0 1-3.16-2.5h6.32a3.26 3.26 0 0 1-3.16 2.5zm2.93-4H8.07l2.75-7.5h.36z"/></svg>