<svg xmlns="http://www.w3.org/2000/svg" viewBox="0 0 36 36"><path d="M18.375 10.78c-.232-.135-.518-.135-.75 0l-5.692 3.285c-.232.134-.375.382-.375.65v6.57c0 .27.143.517.375.65l5.692 3.286c.232.136.518.136.75 0l5.69-3.28c.233-.134.376-.382.376-.65v-6.57c0-.27-.142-.517-.374-.65l-5.69-3.29zM18 12.295l4.19 2.42-4.19 2.42-4.192-2.42L18 12.295zm-4.94 3.72l4.19 2.418v4.84l-4.19-2.42v-4.84zm5.69 7.258v-4.84l4.192-2.42v4.84l-4.19 2.42zM18 4.25C10.406 4.246 4.25 10.406 4.25 18S10.406 31.75 18 31.75 31.754 25.594 31.75 18C31.746 10.41 25.59 4.254 18 4.25zm0 26C11.235 30.254 5.75 24.765 5.75 18S11.235 5.75 18 5.75 30.254 11.235 30.25 18c-.004 6.763-5.487 12.246-12.25 12.25z"/></svg>