<svg data-name="Layer 1" xmlns="http://www.w3.org/2000/svg" viewBox="0 0 36 36"><title>Icon-Red_Hat-Media_and_documents-Quotemark_Close-A-Black-RGB</title><path d="M24.5 20.15h3.59a5.36 5.36 0 0 1-5.29 4.62.75.75 0 0 0 0 1.5 6.88 6.88 0 0 0 6.87-6.87v-8.92a.76.76 0 0 0-.75-.75H20a.76.76 0 0 0-.75.75v4.42a5.26 5.26 0 0 0 5.25 5.25zm-3.75-8.92h7.42v7.42H24.5a3.75 3.75 0 0 1-3.75-3.75zM11.58 20.15h3.59a5.36 5.36 0 0 1-5.29 4.62.75.75 0 1 0 0 1.5 6.88 6.88 0 0 0 6.87-6.87v-8.92a.76.76 0 0 0-.75-.75H7.08a.76.76 0 0 0-.75.75v4.42a5.26 5.26 0 0 0 5.25 5.25zm-3.75-8.92h7.42v7.42h-3.67a3.75 3.75 0 0 1-3.75-3.75z"/></svg>