<svg xmlns="http://www.w3.org/2000/svg" viewBox="0 0 36 36"><title>Icon-Red_Hat-Software-Catalog-A-Black-RGB</title><path d="M11.3 19a2.25 2.25 0 0 0-1.05 1.91 2.29 2.29 0 0 0 1.32 2 1.26 1.26 0 0 1 .68 1.09 6.69 6.69 0 0 0 1.07 3.61 7.79 7.79 0 0 0 6.57 3.64h.23a8 8 0 0 0 7.51-8v-4.2a.75.75 0 0 0-.6-.73l-7.3-1.51v-.24a.34.34 0 0 0 0-.1v-3.95a2.25 2.25 0 0 0-4.5 0v7.61a6 6 0 0 0-1.76-1.3 2.26 2.26 0 0 0-2.17.17zm3.87 4.24a.77.77 0 0 0 .39.48.86.86 0 0 0 .65.07.76.76 0 0 0 .54-.73V12.57a.75.75 0 0 1 1.5 0v4.9a.76.76 0 0 0 .6.74l7.3 1.5v3.59a6.43 6.43 0 0 1-6.05 6.51 6.19 6.19 0 0 1-5.49-2.93 5.18 5.18 0 0 1-.86-2.88 2.74 2.74 0 0 0-1.49-2.45.83.83 0 0 1-.51-.71.74.74 0 0 1 .35-.64.82.82 0 0 1 .4-.12.72.72 0 0 1 .33.08 4.27 4.27 0 0 1 2.34 3.03z"/><path d="M7 13.27h6a.75.75 0 0 0 0-1.5H7.75v-4h20.5v4H22a.75.75 0 0 0 0 1.5h7a.76.76 0 0 0 .75-.75V7a.75.75 0 0 0-.75-.73H7a.74.74 0 0 0-.75.73v5.5a.75.75 0 0 0 .75.77zM7 21.77h1a.75.75 0 0 0 0-1.5h-.25v-4H13a.75.75 0 0 0 0-1.5H7a.74.74 0 0 0-.75.75V21a.75.75 0 0 0 .75.77zM29.75 15.52a.75.75 0 0 0-.75-.75h-5a.75.75 0 0 0 0 1.5h5a.76.76 0 0 0 .75-.75z"/></svg>