<svg xmlns="http://www.w3.org/2000/svg" viewBox="0 0 36 36"><title>Icon-Red_Hat-Lower_Cost_Yen-A-Black-RGB</title><path d="M25 5.41a.74.74 0 0 0-1.05.13l-5.66 7.24-5.7-7.24a.75.75 0 1 0-1.18.92l6.09 7.8v14.68l-.72-.72a.75.75 0 1 0-1.06 1.06l2 2a.73.73 0 0 0 .81.16.74.74 0 0 0 .22-.14l2-2a.75.75 0 0 0-1.06-1.06l-.72.72v-14.7l6.09-7.8A.74.74 0 0 0 25 5.41z"/><path d="M24 17.25h-3.25a.75.75 0 0 0 0 1.5H24a.75.75 0 0 0 0-1.5zM12 18.75h3.75a.75.75 0 0 0 0-1.5H12a.75.75 0 0 0 0 1.5zM24 21.25h-3.25a.75.75 0 0 0 0 1.5H24a.75.75 0 0 0 0-1.5zM16.5 22a.76.76 0 0 0-.75-.75H12a.75.75 0 0 0 0 1.5h3.75a.76.76 0 0 0 .75-.75z"/></svg>