<svg data-name="Layer 1" xmlns="http://www.w3.org/2000/svg" viewBox="0 0 36 36"><title>Icon-Red_Hat-Storage-A-Black-RGB</title><path d="M24.925 11.416A13.844 13.844 0 0 0 18 9.75a13.844 13.844 0 0 0-6.925 1.666C9.32 12.45 8.25 13.888 8.25 15.5v5c0 1.612 1.07 3.05 2.825 4.084A13.844 13.844 0 0 0 18 26.25a13.844 13.844 0 0 0 6.925-1.666c1.754-1.034 2.825-2.472 2.825-4.084v-5c0-1.612-1.07-3.05-2.825-4.084zM26.25 20.5c0 1.152-.944 2.214-2.448 2.99A13 13 0 0 1 18 24.75a13 13 0 0 1-5.8-1.26c-1.5-.776-2.448-1.838-2.448-2.99v-1.9a7.49 7.49 0 0 0 1.325.988A13.844 13.844 0 0 0 18 21.25a13.844 13.844 0 0 0 6.925-1.666 7.49 7.49 0 0 0 1.325-.984zm-2.45-2.01a13 13 0 0 1-5.8 1.26 13 13 0 0 1-5.8-1.26c-1.5-.776-2.448-1.838-2.448-2.99s.944-2.214 2.448-2.99a13 13 0 0 1 5.8-1.26 13 13 0 0 1 5.8 1.26c1.5.776 2.448 1.838 2.448 2.99s-.942 2.214-2.448 2.99z"/></svg>