<svg xmlns="http://www.w3.org/2000/svg" viewBox="0 0 32 32"><path d="M25.11 6.52c.04-.14-.02-.29-.16-.35l-2.82-1.38c-.04-.03-.09-.04-.13-.04H10.43c-.04 0-.08.01-.12.03L7.06 6.16c-.14.06-.21.21-.17.36 0 .02-.01.05-.01.08v20.34c0 .17.14.31.31.31h17.63c.17 0 .31-.14.31-.31V16.79v-.02V6.6c-.01-.03-.02-.06-.02-.08zM10.49 5.37h11.44l1.89.92H8.32l2.17-.92zm14.02 3.11v18.15H7.49V6.9h17.02v1.58zm-7.85 16.37h7c.08 0 .15-.07.15-.15V7.96c0-.09-.07-.15-.15-.15h-7c-.08 0-.15.07-.15.15V24.7c0 .08.07.15.15.15zm6.85-9.33h-6.69v-3.6h6.69v3.6zm-6.69 9.02v-8.72h6.69v8.72h-6.69zm6.69-16.43v3.5h-6.69v-3.5h6.69zm-5.88 1.41h5.11c.17 0 .31-.14.31-.31 0-.17-.14-.31-.31-.31h-5.11c-.17 0-.31.14-.31.31 0 .17.14.31.31.31zm0 1.35h5.11c.17 0 .31-.14.31-.31s-.14-.31-.31-.31h-5.11c-.17 0-.31.14-.31.31 0 .17.14.31.31.31zM8.98 9.41h5.76c.09 0 .15-.07.15-.15 0-.09-.07-.15-.15-.15H8.98c-.09 0-.15.07-.15.15 0 .08.07.15.15.15zm0 .76h5.76c.09 0 .15-.07.15-.15 0-.09-.07-.15-.15-.15H8.98c-.09 0-.15.07-.15.15 0 .08.07.15.15.15zm0 .75h5.76c.09 0 .15-.07.15-.15 0-.08-.07-.15-.15-.15H8.98c-.09 0-.15.07-.15.15 0 .08.07.15.15.15zm0 1.45h5.76c.09 0 .15-.07.15-.15 0-.09-.07-.15-.15-.15H8.98c-.09 0-.15.07-.15.15 0 .08.07.15.15.15zm0 .75h5.76c.09 0 .15-.07.15-.15 0-.08-.07-.15-.15-.15H8.98c-.09 0-.15.07-.15.15 0 .08.07.15.15.15zm0 .76h5.76c.09 0 .15-.07.15-.15 0-.08-.07-.15-.15-.15H8.98c-.09 0-.15.07-.15.15 0 .08.07.15.15.15zm0 1.44h5.76c.09 0 .15-.07.15-.15 0-.09-.07-.15-.15-.15H8.98c-.09 0-.15.07-.15.15 0 .08.07.15.15.15zm0 .76h5.76c.09 0 .15-.07.15-.15 0-.09-.07-.15-.15-.15H8.98c-.09 0-.15.07-.15.15 0 .08.07.15.15.15zm0 .75h5.76c.09 0 .15-.07.15-.15s-.07-.15-.15-.15H8.98c-.09 0-.15.07-.15.15 0 .09.07.15.15.15zm8.65-3.4h5.11c.17 0 .31-.14.31-.31 0-.17-.14-.31-.31-.31h-5.11c-.17 0-.31.14-.31.31 0 .17.14.31.31.31zm5.11.73h-5.11c-.17 0-.31.14-.31.31 0 .17.14.31.31.31h5.11c.17 0 .31-.14.31-.31s-.13-.31-.31-.31zm-5.35 2.8c0 .24.19.43.42.43.23 0 .42-.19.42-.42 0-.23-.19-.42-.42-.42-.23-.02-.42.17-.42.41zm1.19 0c0 .23.19.42.42.42.23 0 .42-.19.42-.42 0-.23-.19-.42-.42-.42-.23 0-.42.19-.42.42zm1.2 0c0 .23.19.42.42.42.23 0 .42-.19.42-.42 0-.23-.19-.42-.42-.42-.23 0-.42.19-.42.42z"/></svg>