<svg xmlns="http://www.w3.org/2000/svg" viewBox="0 0 31.68 31.68"><path d="M16.17 7.13h-1.92c-.12 0-.21.1-.21.21 0 .12.1.21.21.21h1.92c.12 0 .21-.1.21-.21 0-.11-.09-.21-.21-.21zM13.09 7.14c-.05.05-.09.12-.09.2 0 .08.03.15.09.2.05.05.12.08.2.08.08 0 .15-.03.2-.08.05-.05.08-.12.08-.2 0-.07-.03-.15-.08-.2-.1-.1-.29-.1-.4 0zM14.66 25.31h1.1c.41 0 .75-.33.75-.75v-.54c0-.41-.33-.75-.75-.75h-1.1c-.41 0-.75.33-.75.75v.54c0 .42.34.75.75.75zm-.32-1.28c0-.18.14-.32.32-.32h1.1c.18 0 .32.14.32.32v.54c0 .18-.14.32-.32.32h-1.1c-.18 0-.32-.14-.32-.32v-.54z"/><path d="M22.87 9.73H21.2V6.41c0-.61-.49-1.1-1.1-1.1h-9.78c-.61 0-1.1.49-1.1 1.1v3.96h-.69c-.47 0-.85.38-.85.85v4.4c0 .47.38.85.85.85h.69v8.8c0 .61.49 1.1 1.1 1.1h9.78c.61 0 1.1-.49 1.1-1.1V18h1.67c.63 0 1.13-.51 1.13-1.13v-6c.01-.63-.5-1.14-1.13-1.14zM9.79 6.41c0-.29.24-.53.53-.53h9.78c.29 0 .53.24.53.53v2.41H9.79V6.41zM8.53 15.9c-.16 0-.28-.13-.28-.28v-4.4c0-.16.13-.28.28-.28h4.4c.16 0 .28.13.28.28v4.4c0 .16-.13.28-.28.28h-4.4zm12.11 9.37c0 .29-.24.53-.53.53h-9.78c-.29 0-.53-.24-.53-.53v-2.41h10.85v2.41zm0-2.69H9.79v-6.11h3.14c.47 0 .85-.38.85-.85v-4.4c0-.47-.38-.85-.85-.85H9.79V9.1h10.85v.63h-3.77c-.63 0-1.13.51-1.13 1.13v6c0 .63.51 1.13 1.13 1.13h3.77v4.59zm-3.77-5.14c-.31 0-.57-.25-.57-.57v-6c0-.31.25-.57.57-.57h6c.31 0 .57.25.57.57v6c0 .31-.25.57-.57.57h-6z"/><path d="M14.34 17.32h-2.88c-.47 0-.85.38-.85.85v2.88c0 .47.38.85.85.85h2.88c.47 0 .85-.38.85-.85v-2.88c0-.47-.38-.85-.85-.85zm.28 3.73c0 .16-.13.28-.28.28h-2.88c-.16 0-.28-.13-.28-.28v-2.88c0-.16.13-.28.28-.28h2.88c.16 0 .28.13.28.28v2.88z"/></svg>