<svg xmlns="http://www.w3.org/2000/svg" width="32" height="32" viewBox="0 0 32 32"><path d="M25.43 10.702c-.026-.04-.634-1.027.055-2.214.047-.083.04-.186-.02-.26-.06-.074-.16-.104-.25-.074-.046.015-1.026.348-1.36 1.483-.353-.427-.84-1.384-.107-2.976.04-.088.022-.193-.048-.26-.07-.07-.176-.085-.263-.04-.067.033-1.63.835-1.54 2.704.003.02.055.484.352 1.27.008.026.17.51-.015.87-.135-.56-.504-1.485-1.498-1.886-.093-.038-.198-.01-.262.066s-.07.185-.02.27c.02.032.483.8.06 2.21-.007.03-.637 2.83 2.748 3.85.022.007.044.01.066.01.03 0 .058-.004.086-.016.07-.03 1.705-.71 2.275-2.216.323-.848.24-1.78-.26-2.79zm-.166 2.625c-.435 1.15-1.64 1.78-1.95 1.923-2.87-.91-2.373-3.18-2.354-3.264.25-.83.218-1.478.125-1.918.69.614.765 1.612.766 1.624.006.078.05.15.12.187.07.037.153.037.22-.002.722-.397.637-1.283.49-1.7-.273-.722-.325-1.15-.325-1.15-.04-.855.338-1.445.695-1.807-.577 2.064.8 3.05.815 3.06.066.046.152.053.225.02.073-.032.124-.1.134-.18.07-.563.32-.932.567-1.167-.305 1.11.223 1.952.24 1.975.428.868.507 1.675.233 2.398zm-4.566 1.71h-4.066c-.164 0-.297.133-.297.298V19.4h-4.06c-.166 0-.3.135-.3.3v4.19H7.813l.17-.973c.033-.09 0-.147-.073-.197-.034-.024-.1-.024-.172.025l-1.622 1.44L7.49 25.46l.24.17c.074.04.147.04.18.016.074-.05.106-.106.074-.204l-.17-.966h.282l.595.006h3.593c.165 0 .298-.133.298-.297v-4.192h4.06c.166 0 .298-.133.298-.298V15.63h3.76c.166 0 .3-.133.3-.297 0-.006-.004-.01-.004-.018-.01-.156-.135-.28-.294-.28z"/></svg>