<svg id="Layer_1" xmlns="http://www.w3.org/2000/svg" viewBox="0 0 32 32"><style>.st0{fill:#010101;}</style><path class="st0" d="M29.04 15.32c-.86-1.22-2.14-2.07-3.54-2.35-.83-2.5-3.2-4.97-6.74-4.97-3.09 0-5.75 1.98-6.73 4.95-1.13-.43-2.46-.37-3.62.19-1.25.6-2.14 1.71-2.52 3.12-1.68.1-3.52 1.16-4.02 3.37-.02.09 0 .18.06.25.06.08.15.12.24.12h27.59c.14 0 .27-.1.29-.25.26-1.56-.09-3.13-1.01-4.43zm-3.82-1.8c1.31.22 2.52 1 3.33 2.14.78 1.1 1.11 2.42.94 3.74H2.55c.64-1.99 2.52-2.55 3.58-2.56.14 0 .26-.1.29-.23.3-1.34 1.1-2.39 2.25-2.94 1.09-.53 2.4-.55 3.42-.06l.1.05c.52.27.96.64 1.29 1.08.04.06.11.09.18.09.05 0 .09-.01.13-.05.1-.07.12-.21.04-.31-.34-.45-.79-.83-1.3-1.12.83-2.85 3.33-4.77 6.23-4.77 3.18 0 5.34 2.18 6.13 4.43-.59-.07-1.18-.06-1.75.06-.12.02-.2.14-.17.26.02.1.11.18.22.18.01 0 .03 0 .05-.01.6-.12 1.23-.13 1.86-.03l.12.05z"/></svg>