<svg data-name="Layer 1" xmlns="http://www.w3.org/2000/svg" viewBox="0 0 36 36"><title>Icon-Red_Hat-Waveform-A-Black-RGB</title><path d="M28.53 19.97a.745.745 0 0 0-.53-.22h-2.537l-.9-1.793-.9-1.792a.748.748 0 0 0-.328-.33.748.748 0 0 0-1.083.54l-.6 3.61-.6 3.61L19.9 15.5l-1.157-8.1a.752.752 0 0 0-.738-.644.75.75 0 0 0-.74.633l-1.213 7.68-1.213 7.68-1.054-4.213-1.053-4.213a.746.746 0 0 0-.283-.418.74.74 0 0 0-.94.038.747.747 0 0 0-.245.438l-.448 2.687-.447 2.686H8a.75.75 0 0 0 0 1.5h3a.75.75 0 0 0 .74-.626l.2-1.222.2-1.222 1.063 4.25 1.062 4.252a.75.75 0 0 0 .76.568.76.76 0 0 0 .468-.19.75.75 0 0 0 .24-.443l1.112-7.037 1.11-7.037 1.148 8.03 1.147 8.032a.75.75 0 0 0 .734.644H21a.75.75 0 0 0 .74-.626l.81-4.863.81-4.863.485.97.484.967a.75.75 0 0 0 .67.41h3a.75.75 0 0 0 .53-1.28z"/></svg>