<svg xmlns="http://www.w3.org/2000/svg" viewBox="0 0 36 36"><path d="M30.65 10.35l-3.12-3.122c-.303-.282-.778-.266-1.06.037-.268.288-.268.735 0 1.023l1.84 1.84H7.81l1.72-1.72c.282-.302.266-.777-.037-1.06-.288-.267-.735-.267-1.023 0l-3 3c-.293.293-.293.768 0 1.06l3 3c.282.304.757.32 1.06.038s.32-.757.037-1.06L7.81 11.63h20.5l-1.84 1.84c-.303.282-.32.757-.037 1.06.282.303.757.32 1.06.037l3.157-3.158c.293-.293.293-.767 0-1.06zM29.46 24.81h-.036c.806-.69 1.328-1.7 1.328-2.84 0-2.072-1.68-3.75-3.75-3.75s-3.75 1.678-3.75 3.75c0 1.147.527 2.162 1.34 2.85h-.033c-.363.167-.707.37-1.028.61-.457-1.592-1.574-2.91-3.07-3.62h-.035c.804-.69 1.324-1.698 1.324-2.838 0-2.07-1.68-3.75-3.75-3.75s-3.75 1.68-3.75 3.75c0 1.14.52 2.15 1.323 2.837h-.028c-1.495.71-2.612 2.028-3.068 3.62-.316-.242-.657-.45-1.016-.62h-.035c.804-.69 1.324-1.698 1.324-2.838 0-2.07-1.68-3.75-3.75-3.75s-3.75 1.68-3.75 3.75c0 1.14.52 2.15 1.323 2.837h-.027c-2.01.948-3.292 2.968-3.296 5.19 0 .414.336.75.75.75h28c.414 0 .75-.336.75-.75-.003-2.22-1.285-4.24-3.292-5.19zM27 19.72c1.243 0 2.25 1.006 2.25 2.25s-1.007 2.25-2.25 2.25-2.25-1.008-2.25-2.25c.002-1.243 1.008-2.25 2.25-2.25zm-9-2.998c1.243 0 2.25 1.007 2.25 2.25s-1.007 2.25-2.25 2.25-2.25-1.007-2.25-2.25c.002-1.242 1.008-2.25 2.25-2.25zm-9 3c1.243 0 2.25 1.007 2.25 2.25s-1.007 2.25-2.25 2.25-2.25-1.007-2.25-2.25c.002-1.242 1.008-2.25 2.25-2.25zM4.826 29.25c.408-2.305 2.608-3.843 4.914-3.435 1.752.31 3.124 1.682 3.435 3.435h-8.35zm16.48 0h-6.61c-.114-.88-.43-1.72-.925-2.456.103-2.336 2.078-4.147 4.414-4.045 2.193.094 3.95 1.85 4.045 4.044-.495.736-.812 1.577-.925 2.456zm1.52 0c.408-2.305 2.608-3.843 4.914-3.435 1.752.31 3.124 1.682 3.435 3.435h-8.35z"/></svg>