<svg xmlns="http://www.w3.org/2000/svg" viewBox="0 0 32 32"><path d="M22 5.92H10c-.82 0-1.49.67-1.49 1.49v17.18c0 .82.67 1.49 1.49 1.49h12c.82 0 1.49-.67 1.49-1.49V7.41c0-.82-.67-1.49-1.49-1.49zm.88 18.67c0 .48-.39.88-.88.88H10c-.48 0-.88-.39-.88-.88V7.41c0-.48.39-.88.88-.88h12c.48 0 .88.39.88.88v17.18zM21.01 8.23c.18 0 .33.16.33.35v3.25c0 .19-.15.35-.33.35H10.99c-.19 0-.34-.16-.34-.35V8.58c0-.19.15-.35.34-.35h10.02zm0-.46H10.99c-.44 0-.79.36-.79.81v3.25c0 .45.36.81.79.81h10.02c.44 0 .79-.36.79-.81V8.58c.01-.44-.35-.81-.79-.81zm-8.95 5.85h-1.32c-.24 0-.43.19-.43.43v.78c0 .24.19.43.43.43h1.32c.24 0 .43-.19.43-.43v-.78c-.01-.24-.2-.43-.43-.43zm.12 1.2c0 .07-.05.12-.12.12h-1.33c-.07 0-.12-.06-.12-.12v-.78c0-.07.05-.12.12-.12h1.33c.07 0 .12.06.12.12v.78zm9.09-1.2h-1.32c-.24 0-.43.19-.43.43v.78c0 .24.19.43.43.43h1.32c.24 0 .43-.19.43-.43v-.78c-.01-.24-.2-.43-.43-.43zm.12 1.2c0 .07-.05.12-.12.12h-1.32c-.07 0-.12-.06-.12-.12v-.78c0-.07.05-.12.12-.12h1.32c.07 0 .12.06.12.12v.78zm-3.19-1.2h-1.33c-.24 0-.43.19-.43.43v.78c0 .24.19.43.43.43h1.33c.24 0 .42-.19.42-.43v-.78c0-.24-.19-.43-.42-.43zm.12 1.2c0 .07-.05.12-.12.12h-1.33c-.07 0-.12-.06-.12-.12v-.78c0-.07.05-.12.12-.12h1.33c.07 0 .12.06.12.12v.78zm-3.19-1.2H13.8c-.24 0-.43.19-.43.43v.78c0 .24.19.43.43.43h1.32c.24 0 .43-.19.43-.43v-.78c0-.24-.19-.43-.42-.43zm.12 1.2c0 .07-.05.12-.12.12H13.8c-.07 0-.12-.06-.12-.12v-.78c0-.07.05-.12.12-.12h1.32c.07 0 .12.06.12.12v.78zm-3.19 1.07h-1.32c-.24 0-.43.19-.43.43v.78c0 .24.19.43.43.43h1.32c.24 0 .43-.19.43-.43v-.78c-.01-.24-.2-.43-.43-.43zm.12 1.2c0 .07-.05.12-.12.12h-1.33c-.07 0-.12-.06-.12-.12v-.78c0-.07.05-.12.12-.12h1.33c.07 0 .12.06.12.12v.78zm9.09-1.2h-1.32c-.24 0-.43.19-.43.43v.78c0 .24.19.43.43.43h1.32c.24 0 .43-.19.43-.43v-.78c-.01-.24-.2-.43-.43-.43zm.12 1.2c0 .07-.05.12-.12.12h-1.32c-.07 0-.12-.06-.12-.12v-.78c0-.07.05-.12.12-.12h1.32c.07 0 .12.06.12.12v.78zm-3.19-1.2h-1.33c-.24 0-.43.19-.43.43v.78c0 .24.19.43.43.43h1.33c.24 0 .42-.19.42-.43v-.78c0-.24-.19-.43-.42-.43zm.12 1.2c0 .07-.05.12-.12.12h-1.33c-.07 0-.12-.06-.12-.12v-.78c0-.07.05-.12.12-.12h1.33c.07 0 .12.06.12.12v.78zm-3.19-1.2H13.8c-.24 0-.43.19-.43.43v.78c0 .24.19.43.43.43h1.32c.24 0 .43-.19.43-.43v-.78c0-.24-.19-.43-.42-.43zm.12 1.2c0 .07-.05.12-.12.12H13.8c-.07 0-.12-.06-.12-.12v-.78c0-.07.05-.12.12-.12h1.32c.07 0 .12.06.12.12v.78zm-3.19 1.07h-1.32c-.24 0-.43.19-.43.43v.78c0 .24.19.43.43.43h1.32c.24 0 .43-.19.43-.43v-.78c-.01-.24-.2-.43-.43-.43zm.12 1.2c0 .07-.05.12-.12.12h-1.33c-.07 0-.12-.06-.12-.12v-.78c0-.07.05-.12.12-.12h1.33c.07 0 .12.06.12.12v.78zm9.09-1.2h-1.32c-.24 0-.43.19-.43.43v.78c0 .24.19.43.43.43h1.32c.24 0 .43-.19.43-.43v-.78c-.01-.24-.2-.43-.43-.43zm.12 1.2c0 .07-.05.12-.12.12h-1.32c-.07 0-.12-.06-.12-.12v-.78c0-.07.05-.12.12-.12h1.32c.07 0 .12.06.12.12v.78zm-3.19-1.2h-1.33c-.24 0-.43.19-.43.43v.78c0 .24.19.43.43.43h1.33c.24 0 .42-.19.42-.43v-.78c0-.24-.19-.43-.42-.43zm.12 1.2c0 .07-.05.12-.12.12h-1.33c-.07 0-.12-.06-.12-.12v-.78c0-.07.05-.12.12-.12h1.33c.07 0 .12.06.12.12v.78zm-3.19-1.2H13.8c-.24 0-.43.19-.43.43v.78c0 .24.19.43.43.43h1.32c.24 0 .43-.19.43-.43v-.78c0-.24-.19-.43-.42-.43zm.12 1.2c0 .07-.05.12-.12.12H13.8c-.07 0-.12-.06-.12-.12v-.78c0-.07.05-.12.12-.12h1.32c.07 0 .12.06.12.12v.78zm-3.19 1.07h-1.32c-.24 0-.43.19-.43.43v.78c0 .24.19.43.43.43h1.32c.24 0 .43-.19.43-.43v-.78c-.01-.24-.2-.43-.43-.43zm.12 1.2c0 .07-.05.12-.12.12h-1.33c-.07 0-.12-.06-.12-.12v-.78c0-.07.05-.12.12-.12h1.33c.07 0 .12.06.12.12v.78zm6.02-1.2h-1.33c-.24 0-.43.19-.43.43v.78c0 .24.19.43.43.43h1.33c.24 0 .42-.19.42-.43v-.78c0-.24-.19-.43-.42-.43zm.12 1.2c0 .07-.05.12-.12.12h-1.33c-.07 0-.12-.06-.12-.12v-.78c0-.07.05-.12.12-.12h1.33c.07 0 .12.06.12.12v.78zm-3.19-1.2H13.8c-.24 0-.43.19-.43.43v.78c0 .24.19.43.43.43h1.32c.24 0 .43-.19.43-.43v-.78c0-.24-.19-.43-.42-.43zm.12 1.2c0 .07-.05.12-.12.12H13.8c-.07 0-.12-.06-.12-.12v-.78c0-.07.05-.12.12-.12h1.32c.07 0 .12.06.12.12.01.01.01.78.01.78zm-3.19 1.07h-1.32c-.24 0-.43.19-.43.43v.78c0 .24.19.43.43.43h1.32c.24 0 .43-.19.43-.43v-.78c-.01-.24-.2-.43-.43-.43zm.12 1.2c0 .07-.05.12-.12.12h-1.33c-.07 0-.12-.06-.12-.12v-.78c0-.07.05-.12.12-.12h1.33c.07 0 .12.06.12.12v.78zm9.09-3.47h-1.32c-.24 0-.43.19-.43.43v3.05c0 .24.19.43.43.43h1.32c.24 0 .43-.19.43-.43v-3.05c-.01-.24-.2-.43-.43-.43zm.12 3.47c0 .07-.05.12-.12.12h-1.32c-.07 0-.12-.06-.12-.12v-3.05c0-.07.05-.12.12-.12h1.32c.07 0 .12.06.12.12v3.05zm-3.19-1.2h-1.33c-.24 0-.43.19-.43.43v.78c0 .24.19.43.43.43h1.33c.24 0 .42-.19.42-.43v-.78c0-.24-.19-.43-.42-.43zm.12 1.2c0 .07-.05.12-.12.12h-1.33c-.07 0-.12-.06-.12-.12v-.78c0-.07.05-.12.12-.12h1.33c.07 0 .12.06.12.12v.78zm-3.19-1.2H13.8c-.24 0-.43.19-.43.43v.78c0 .24.19.43.43.43h1.32c.24 0 .43-.19.43-.43v-.78c0-.24-.19-.43-.42-.43zm.12 1.2c0 .07-.05.12-.12.12H13.8c-.07 0-.12-.06-.12-.12v-.78c0-.07.05-.12.12-.12h1.32c.07 0 .12.06.12.12.01.01.01.78.01.78z"/></svg>