<svg xmlns="http://www.w3.org/2000/svg" width="32" height="32" viewBox="0 0 32 32"><path d="M16 7.93c-4.45 0-8.07 3.62-8.07 8.07s3.62 8.07 8.07 8.07 8.07-3.62 8.07-8.07S20.45 7.93 16 7.93zm0 15.636c-4.172 0-7.566-3.394-7.566-7.566S11.828 8.434 16 8.434s7.567 3.394 7.567 7.566-3.394 7.566-7.567 7.566zm1.036-12.684h-4.13c-.104 0-.19.084-.19.188v10.12c0 .105.085.19.19.19h2.024c.104 0 .19-.085.19-.19v-3.396h1.743c2.444 0 3.846-1.28 3.846-3.514 0-2.065-1.443-3.398-3.674-3.398zm-.173 6.535H14.93c-.104 0-.19.084-.19.188v3.397h-1.646v-9.744h3.94c1.595 0 3.297.794 3.297 3.02 0 2.73-2.173 3.14-3.468 3.14zm.1-4.57H14.93c-.104 0-.19.085-.19.19v2.602c0 .103.085.188.19.188h2.062c1.054 0 1.635-.534 1.635-1.504 0-.937-.606-1.475-1.663-1.475zm.03 2.603H15.12v-2.226h1.844c.854 0 1.286.37 1.286 1.098 0 .76-.41 1.127-1.258 1.127z"/></svg>