<svg xmlns="http://www.w3.org/2000/svg" width="32" height="32" viewBox="0 0 32 32"><path d="M24.992 15.71c0-.554-.25-1.353-.567-1.822-.006-.01-.66-.994-.66-2.085 0-1.1.693-2.242.7-2.253.295-.478.527-1.283.527-1.832 0-.664-.522-1.205-1.163-1.205-.51 0-1.306.163-1.81.372-.012.005-1.087.44-2.135.44s-2.12-.436-2.13-.44c-.507-.21-1.332-.372-1.88-.372h-.053c-.546 0-1.37.156-1.88.355-.01.005-1.183.458-2.234.458-1.046 0-2.12-.437-2.13-.44-.507-.21-1.303-.373-1.812-.373-.642 0-1.163.54-1.163 1.205 0 .552.247 1.353.562 1.822.007.01.738 1.12.738 2.262 0 1.13-.69 2.086-.696 2.095-.34.46-.604 1.254-.604 1.81 0 .557.262 1.353.597 1.814.007.01.703.983.703 2.123 0 1.14-.725 2.224-.732 2.235-.317.468-.567 1.27-.567 1.82 0 .666.54 1.206 1.205 1.206.54 0 1.35-.195 1.847-.444.01-.005.946-.47 2.055-.47 1.11 0 2.228.502 2.24.506.5.23 1.324.408 1.875.408h.053c.553 0 1.376-.188 1.874-.428.01-.005 1.024-.487 2.137-.487 1.102 0 2.045.464 2.054.47.495.248 1.306.443 1.846.443.665 0 1.205-.54 1.205-1.205 0-.55-.234-1.353-.533-1.83-.007-.01-.695-1.12-.695-2.226 0-1.094.66-2.102.668-2.11.314-.47.56-1.272.56-1.824zm-1.088 1.47c-.032.047-.774 1.173-.774 2.463 0 1.285.76 2.51.79 2.563.237.378.438 1.062.438 1.493 0 .313-.256.57-.57.57-.44 0-1.157-.173-1.562-.377-.044-.022-1.082-.537-2.34-.537-1.256 0-2.366.527-2.412.55-.41.197-1.143.363-1.6.363h-.052c-.457 0-1.196-.16-1.612-.352-.05-.023-1.25-.563-2.502-.563-1.258 0-2.296.515-2.34.537-.406.204-1.12.377-1.562.377-.314 0-.57-.257-.57-.572 0-.428.21-1.1.458-1.465.034-.05.842-1.254.842-2.59 0-1.344-.79-2.448-.825-2.495-.252-.35-.475-1.022-.475-1.44 0-.418.224-1.09.48-1.436.034-.045.82-1.128.82-2.47 0-1.34-.81-2.564-.845-2.615-.247-.367-.455-1.04-.455-1.47 0-.314.237-.57.53-.57.424 0 1.142.148 1.57.324.047.02 1.198.49 2.372.49 1.173 0 2.414-.48 2.467-.502.43-.17 1.185-.312 1.647-.312h.054c.46 0 1.21.15 1.637.325.05.02 1.2.49 2.375.49s2.327-.47 2.375-.49c.426-.175 1.144-.323 1.568-.323.292 0 .53.256.53.57 0 .433-.2 1.12-.434 1.498-.032.053-.795 1.302-.795 2.586 0 1.29.738 2.395.77 2.44.247.367.457 1.04.457 1.467 0 .43-.207 1.104-.453 1.472zm-3.47-7.87h-9.17c-.76 0-1.38.618-1.38 1.38v9.94c0 .76.62 1.38 1.38 1.38h9.17c.762 0 1.382-.62 1.382-1.38v-9.94c0-.76-.62-1.38-1.38-1.38zm.906 11.318c0 .5-.406.905-.906.905h-9.17c-.5 0-.905-.406-.905-.905v-9.94c0-.498.405-.904.904-.904h9.17c.5 0 .906.406.906.905v9.938zm-1.33-7.546l-4.564 3.066c-.072.05-.09.147-.042.22.03.045.08.07.13.07.033 0 .063-.01.09-.027l4.565-3.065c.07-.05.09-.147.042-.22-.05-.073-.148-.092-.22-.043zm-2.304 2.735L14.09 18.26c-.072.048-.092.147-.042.22.03.044.08.07.13.07.032 0 .063-.01.09-.028l3.615-2.442c.073-.05.093-.148.043-.22-.05-.072-.148-.09-.22-.042z"/></svg>