<svg xmlns="http://www.w3.org/2000/svg" viewBox="0 0 32 32"><path d="M26 9.93v-.02c0-.03-.01-.06-.02-.08 0-.01 0-.01-.01-.02 0 0 0-.01-.01-.01-.02-.03-.04-.06-.06-.08-.01-.01-.01-.01-.02-.01-.01-.01-.03-.02-.04-.03l-9.7-4.85c-.09-.04-.19-.04-.27 0l-9.7 4.84c-.02.01-.04.02-.05.03-.01 0-.01.01-.02.01-.03.03-.05.05-.06.09l-.01.01c0 .01 0 .01-.01.02-.01.02-.01.04-.02.07V22.06c0 .12.07.22.17.27l9.7 4.85h.01c.04.02.08.03.13.03s.09-.01.13-.03h.01l9.7-4.85c.1-.05.17-.16.17-.27V9.94c-.02 0-.02-.01-.02-.01zM16 5.44l9.01 4.51-9.01 4.5-9.01-4.51L16 5.44zm-9.39 5l9.08 4.54v11.43l-9.08-4.54V10.44zm9.7 15.97V14.98l9.08-4.54v11.43l-9.08 4.54z"/></svg>