<svg data-name="Layer 1" xmlns="http://www.w3.org/2000/svg" viewBox="0 0 36 36"><title>Icon-Red_Hat-Sword-A-Black-RGB</title><path d="M11.68 25.382l-1.062-1.06a.75.75 0 0 0-1.06 0l-1.59 1.59L6.375 27.5a2.238 2.238 0 0 0-.66 1.59 2.236 2.236 0 0 0 .66 1.593 2.252 2.252 0 0 0 3.18 0l1.592-1.59 1.59-1.593a.75.75 0 0 0 0-1.06zM9.822 28.3L8.5 29.625a.75.75 0 1 1-1.06-1.06l1.325-1.327 1.326-1.326.53.53.53.53zM13.093 23.968l-2.475-2.475a.75.75 0 1 0-1.06 1.06l2.475 2.475 2.475 2.472a.728.728 0 0 0 .248.165.75.75 0 0 0 .564 0 .718.718 0 0 0 .248-.165.748.748 0 0 0 0-1.06zM29.922 7.774L29.57 5.3a.75.75 0 0 0-.928-.62.745.745 0 0 0-.357.208L20.33 13.2l-7.955 8.3a.75.75 0 0 0 .01 1.05l1.062 1.06 1.06 1.06a.748.748 0 0 0 .25.166.75.75 0 0 0 .555 0 .75.75 0 0 0 .243-.155l7.245-6.887 7.25-6.893a.757.757 0 0 0 .192-.3.748.748 0 0 0 .034-.352zm-8.028 8.814L15.05 23.1l-.542-.543-.543-.543 7.17-7.487 7.165-7.49.217 1.52.217 1.522z"/></svg>