<svg id="Layer_1" xmlns="http://www.w3.org/2000/svg" viewBox="0 0 32 32"><style>.st0{fill:#010101;}</style><path class="st0" d="M21.27 4.6H10.73c-.66 0-1.19.53-1.19 1.19v20.42c0 .66.53 1.19 1.19 1.19h10.55c.66 0 1.19-.53 1.19-1.19V5.79c-.01-.66-.54-1.19-1.2-1.19zm.6 21.61c0 .33-.27.6-.6.6H10.73c-.33 0-.6-.27-.6-.6v-2.67h11.74v2.67zm0-2.97H10.13V8.71h11.74v14.53zm0-14.83H10.13V5.79c0-.33.27-.6.6-.6h10.55c.33 0 .6.27.6.6l-.01 2.62z"/><path class="st0" d="M15.43 26.22h1.17c.45 0 .81-.36.81-.81v-.58c0-.45-.36-.81-.81-.81h-1.17c-.45 0-.81.36-.81.81v.58c0 .44.36.81.81.81zm-.37-1.39c0-.2.16-.36.36-.36h1.17c.2 0 .36.16.36.36v.58c0 .2-.16.36-.36.36h-1.17c-.2 0-.36-.16-.36-.36v-.58zM17.01 6.54h-1.99c-.12 0-.22.1-.22.22s.1.22.22.22h1.99c.12 0 .22-.1.22-.22s-.1-.22-.22-.22zM15.42 14.85c.03 0 .06-.01.08-.02l4.55-3.01c.07-.05.09-.14.04-.2-.05-.07-.14-.09-.2-.04l-4.55 3.01c-.07.05-.09.14-.04.2.03.04.08.06.12.06zM14.07 16.97c.03 0 .06-.01.08-.02l3.6-2.4c.07-.05.09-.14.04-.2-.05-.07-.14-.09-.2-.04l-3.6 2.4c-.07.05-.09.14-.04.2.03.04.07.06.12.06z"/><circle class="st0" cx="13.94" cy="6.81" r=".31"/></svg>