<svg xmlns="http://www.w3.org/2000/svg" viewBox="0 0 31.68 31.68"><path d="M17.43 17.97c.58 0 1.12-.46 1.45-.94.02.05.04.03.06.08s.08.15.13.23c0 .02.02.03.03.05-.05.15-.08.3-.1.46-.01.07.03.14.11.17.05.01.1.02.14.02.09 0 .18-.03.26-.07.05-.03.08-.09.07-.16-.03-.15-.08-.3-.15-.44.01-.03.03-.06.04-.08.09-.16.26-.26.44-.26.08.01.16.05.21.12.02.03.04.06.04.1v.09c-.01.08.05.16.13.17.08.01.15-.04.17-.12.01-.04.02-.08.02-.12.05-.26.23-.47.47-.58.05.33.07.67.05 1v.09c-.01.09.06.16.15.17s.16-.06.17-.15v-.08c0-.16.06-.32.18-.43.07-.04.15-.04.22 0 .04.03.06.05.05.08-.01.06.02.12.07.15s.12.03.17 0c.22-.11.46-.15.7-.11.33.05.67-.03.94-.23.06-.05.07-.15.02-.21s-.15-.07-.21-.02c0 0-.01 0-.01.01-.22.14-.48.19-.74.15-.24-.02-.48.01-.71.08-.03-.05-.08-.1-.13-.13-.17-.1-.38-.1-.55 0l-.03.02c-.01-.2-.04-.4-.07-.6-.02-.08-.1-.13-.18-.12-.31.06-.58.26-.73.54-.1-.1-.23-.16-.37-.17-.26 0-.5.13-.65.34l-.05-.1c-.07-.14-.1-.29-.11-.44.04-.11.07-.22.09-.34.01-.07-.03-.14-.1-.17-.07-.02-.14 0-.18.07-.07.12-.11.25-.11.39-.24.57-.78.96-1.4 1-.08 0-.15.17-.14.25-.02.06.06.24.14.24zm-9.48 1H23.7c.13 0 .23-.11.23-.23 0-.13-.11-.23-.23-.23H7.95c-.13 0-.23.11-.23.23 0 .13.1.23.23.23zm0 .94h3.3c.13 0 .23-.11.23-.23s-.11-.23-.23-.23h-3.3c-.13 0-.23.11-.23.23s.1.23.23.23zM24.64 9.4H7.04c-.67 0-1.22.54-1.22 1.21v10.44c0 .67.54 1.22 1.22 1.22h17.61c.67 0 1.22-.54 1.22-1.21V10.62c-.01-.67-.55-1.22-1.23-1.22zm.6 11.66c0 .32-.26.59-.59.59H7.04c-.33 0-.59-.26-.59-.59v-6.54h18.79v6.54zm0-7.16H6.44v-1.25h18.79v1.25zm0-1.88H6.44v-1.4c0-.32.26-.59.59-.59h17.61c.33 0 .59.26.59.59v1.4z"/></svg>