<svg data-name="Layer 1" xmlns="http://www.w3.org/2000/svg" viewBox="0 0 36 36"><title>Icon-Red_Hat-Remote_Associate-A-Black-RGB</title><path d="M31.49 13l-4.43-2.82a.43.43 0 0 0 0-.11V7.73a.75.75 0 0 0-1.5 0v1.55l-7.14-4.56a.74.74 0 0 0-.81 0L4.54 13a.75.75 0 0 0 .81 1.27l1.22-.78v16.82a.75.75 0 0 0 1.5 0V12.57L18 6.24l12.67 8.07a.8.8 0 0 0 .4.11.75.75 0 0 0 .4-1.38z"/><path d="M28.71 14.11a.76.76 0 0 0-.75.75v15.45a.75.75 0 0 0 1.5 0V14.86a.76.76 0 0 0-.75-.75zM19.41 19.09a.76.76 0 0 0 .51-.2.74.74 0 0 0 0-1.06 2.81 2.81 0 0 0-4 0 .75.75 0 0 0 1.11 1 1.27 1.27 0 0 1 1.83 0 .76.76 0 0 0 .55.26zM24.44 14.37a.75.75 0 0 0 0-1.06 9.07 9.07 0 0 0-13 0 .75.75 0 0 0 0 1.06.75.75 0 0 0 1.06 0 7.57 7.57 0 0 1 10.87 0 .75.75 0 0 0 .54.22.77.77 0 0 0 .53-.22z"/><path d="M21.53 17a.73.73 0 0 0 .52-.21.75.75 0 0 0 0-1.06 5.69 5.69 0 0 0-8.25 0 .75.75 0 0 0 1.08 1 4.19 4.19 0 0 1 6.09 0 .76.76 0 0 0 .56.27zM24.94 29.6h-14a.75.75 0 1 0 0 1.5h14a.75.75 0 1 0 0-1.5zM12.19 21.31v6a.75.75 0 0 0 .75.75h10a.74.74 0 0 0 .75-.74v-6.05a.75.75 0 0 0-.75-.75h-3a.75.75 0 0 0 0 1.5h2.28v4.54h-8.53v-4.5h2.25a.75.75 0 1 0 0-1.5h-3a.76.76 0 0 0-.75.75z"/><path d="M17.66 20.62a.56.56 0 0 0-.24.16.72.72 0 0 0-.23.53.75.75 0 0 0 .06.29.66.66 0 0 0 .17.24.73.73 0 0 0 .52.22.75.75 0 0 0 .53-.22.81.81 0 0 0 .17-.24 1 1 0 0 0 .05-.29.75.75 0 0 0-.22-.53.63.63 0 0 0-.24-.16.71.71 0 0 0-.57 0z"/></svg>