<svg xmlns="http://www.w3.org/2000/svg" viewBox="0 0 31.68 31.68"><path d="M8.03 24.11h4.07c.09 0 .16-.07.16-.16s-.07-.16-.16-.16H8.03c-.09 0-.16.07-.16.16s.07.16.16.16zM24 6.52H7.68c-.64 0-1.16.52-1.16 1.16V24c0 .64.52 1.16 1.16 1.16H24c.64 0 1.16-.52 1.16-1.16V7.68c0-.64-.52-1.16-1.16-1.16zm.58 17.49c0 .32-.26.58-.58.58H7.68c-.32 0-.58-.26-.58-.58v-.74h17.48v.74zm0-1.22H7.1V10.07h17.48v12.72zm0-13.2H7.1V7.68c0-.32.26-.58.58-.58H24c.32 0 .58.26.58.58v1.91zm-4.34-1.66c-.26 0-.47.21-.47.47s.21.47.47.47.47-.21.47-.47c-.01-.27-.22-.47-.47-.47zm3.05 0c-.26 0-.47.21-.47.46 0 .26.21.47.46.47.26 0 .47-.21.47-.46v-.01c0-.26-.21-.46-.46-.46zm-1.53 0c-.26 0-.47.21-.47.47s.21.47.47.47.47-.21.47-.47c0-.27-.21-.47-.47-.47z"/></svg>