<svg xmlns="http://www.w3.org/2000/svg" width="32" height="32" viewBox="0 0 32 32"><path d="M19.49 4.912c-.057-.06-.136-.093-.22-.093H8.01c-.17 0-.306.136-.306.305V25.55c0 .17.137.307.306.307h14.896c.17 0 .306-.137.306-.306V8.87c0-.08-.03-.155-.087-.212L19.49 4.912zm.088.97l2.767 2.85h-2.767v-2.85zm-11.26-.45h10.647V8.91c0 .022.008.043.013.065-.005.022-.013.042-.013.066 0 .17.137.307.306.307h3.33v15.898H8.316V5.432zm11.88 6.68h-9.655c-.127 0-.23-.103-.23-.23s.103-.23.23-.23h9.655c.127 0 .23.103.23.23s-.103.23-.23.23zm-1.967 2.375h-7.687c-.127 0-.23-.103-.23-.23s.103-.23.23-.23h7.688c.128 0 .23.103.23.23s-.1.23-.23.23zm1.968 2.375h-9.655c-.127 0-.23-.103-.23-.23s.103-.23.23-.23h9.655c.127 0 .23.103.23.23s-.103.23-.23.23zm-1.967 2.376h-7.687c-.127 0-.23-.103-.23-.23s.103-.23.23-.23h7.688c.128 0 .23.103.23.23s-.1.23-.23.23zm1.968 2.376h-9.655c-.127 0-.23-.103-.23-.23s.103-.23.23-.23h9.655c.127 0 .23.103.23.23s-.103.23-.23.23z"/></svg>