<svg xmlns="http://www.w3.org/2000/svg" viewBox="0 0 31.68 31.68"><path d="M10.58 24.46c-.02-.03-.05-.05-.09-.05s-.07.02-.09.05l-.29.47c-4.77-3.02-6.2-9.34-3.17-14.13.47-.74 1.03-1.42 1.68-2.02.11-.12.1-.32-.02-.44-.1-.1-.28-.11-.4-.02-4.39 4.08-4.65 10.95-.57 15.35.64.7 1.37 1.3 2.17 1.8l-.25.4c-.02.03-.02.07 0 .1s.05.05.08.06l1.95.25c.04 0 .08-.01.1-.05.02-.03.02-.08 0-.1l-1.1-1.67zM9.71 7.68c.02.03.06.05.1.05l1.95-.3c.03 0 .06-.03.08-.06.02-.03.02-.07 0-.1l-.26-.39c5.19-2.23 11.21.17 13.44 5.36.18.43.33.87.46 1.31.04.17.21.28.39.24.17-.04.28-.21.24-.39 0-.01 0-.01-.01-.02-1.6-5.77-7.57-9.17-13.35-7.58-.52.14-1.04.32-1.54.55l-.3-.46c-.03-.05-.1-.06-.13-.03l-.03.03-1.04 1.67c-.02.03-.02.08 0 .12zm17.23 9.63l-.84-1.78c-.02-.04-.05-.06-.09-.06s-.08.02-.09.06l-.81 1.8c-.02.03-.02.07 0 .1s.05.05.09.05h.54c-.11 3.66-2.99 7.95-8.2 8.18v-.9c.3 0 .54-.24.54-.54 0-.23-.14-.43-.36-.5v-1.29c.79.08 1.57.52 2.34 1.33-.03.07-.05.13-.05.21 0 .28.22.5.5.5s.5-.22.5-.5-.22-.5-.5-.5c-.07 0-.12.01-.18.03-.85-.9-1.72-1.39-2.62-1.46v-.41c.26.02.49-.17.5-.44v-.37c.2-.04.35-.21.36-.42v-.97-.06h1.38c.35-.01.69-.18.9-.47l.02-.02c.14-.21.23-.45.26-.7l.74-2c.07-.03.19-.06.29-.08.37-.1.54-.14.53-.33v-.03c.03-.22-.03-.45-.17-.62-.1-.1-.23-.15-.37-.15h-.5c-.4-.02-.67.1-.76.38l-.52 1.27c-.07-.03-.14-.04-.22-.04H18.5v-.74h1.18c.29-.03.55-.17.75-.39.21-.23.33-.53.35-.85v-.05-.14l-.37-3.59c-.06-.7-.33-1.38-.78-1.92-.4-.5-1.01-.79-1.65-.79h-.7c-5.01 0-9.08 4.07-9.08 9.08s4.07 9.08 9.08 9.08h.25c4.81-.13 8.68-3.99 8.82-8.79h.5c.06 0 .1-.05.1-.1 0-.01 0-.03-.01-.04v-.03zm-6.43 6.52c.07 0 .12.06.12.12s-.06.12-.12.12-.12-.06-.12-.12c-.01-.06.05-.12.12-.12zm.73-8.33c.03-.08.08-.14.31-.14h.61c.04 0 .08.01.1.04.05.09.08.18.07.28l-.26.07c-.33.09-.47.12-.51.25l-.5 1.36c-.1-.19-.22-.36-.36-.52l.54-1.34zm-3.71-6.41h.45c.35.01.68.17.9.45.31.39.5.88.54 1.38 0 0 .37 3.57.37 3.59v.03c0 .09-.03.17-.09.23-.03.04-.07.06-.1.07h-2.06l-.01-5.75zm0 5.95h2.08c.1-.01.17-.06.23-.13.09-.1.13-.23.13-.36v-.04l-.37-3.61c-.04-.54-.25-1.06-.59-1.49-.25-.32-.63-.5-1.04-.51h-.45v-.42h.45c.53.01 1.03.25 1.36.67.4.5.65 1.1.7 1.72l.37 3.59v.1c0 .24-.09.47-.25.65-.13.15-.31.25-.5.27H18.3c-.1 0-.19.09-.19.19v.93h-.59l.01-1.56zm0 1.83h2.61c.24 0 .43.18.69.68-.02.36-.32.64-.69.62h-2.61v-1.3zm0 1.57h2.61c.22 0 .43-.07.6-.19-.03.15-.1.29-.18.41v.02c-.14.19-.36.3-.6.31h-2.43v-.55zm0 .93h.67v1.03s-.05.06-.13.06h-.52l-.02-1.09zm0 1.46h.31v.35s-.05.06-.14.06h-.17v-.41zm0 3.2c.1 0 .16.08.16.16 0 .1-.08.16-.16.16v-.32zm-7.59-11.1c1.08-1.86 2.82-3.24 4.87-3.86l1.07-.31-.77.81c-.94 1.03-1.64 2.27-2.02 3.61v.03H9.8l.14-.28zM8.8 17c.02-1.12.27-2.23.72-3.26h3.42c-.25 1.07-.37 2.16-.37 3.27v.09H8.8V17zm0 .66h3.77c.03 1.1.18 2.17.48 3.23l.08.25H9.79c-.57-1.08-.9-2.26-.97-3.48H8.8zm6.17 7.68c-2-.56-3.72-1.85-4.84-3.6l-.02-.03h3.19c.42 1.17 1.09 2.25 1.95 3.13l.81.81-1.09-.31zm2.03.12l-.47-.31c-1.18-.87-2.09-2.07-2.58-3.46H17v3.77zm0-4.31h-3.26l-.03-.08c-.33-1.1-.52-2.25-.55-3.4h3.83l.01 3.48zm0-4.04h-3.84v-.1c0-1.1.13-2.19.4-3.26H17v3.36zm0-3.92h-3.29l.08-.21c.71-2.12 1.9-3.28 2.75-3.88l.47-.31-.01 4.4z"/></svg>