<svg xmlns="http://www.w3.org/2000/svg" width="32" height="32" viewBox="0 0 32 32"><path d="M27.933 10.838c-.134-.253-.26-.49-.366-.723-.046-.102-.144-.17-.256-.178-.104-.006-.217.044-.28.138-.307.47-.738.892-1.237 1.38-1.14 1.112-2.557 2.497-3.14 5.26-.763 3.623.324 7.45.517 8.082-.25 1.007-1.41 2.25-1.42 2.263-.117.123-.11.317.012.433.06.056.134.083.21.083.082 0 .163-.032.223-.096.053-.056 1.24-1.327 1.556-2.48.805-.416 4.977-2.77 5.426-7.115.407-3.935-.547-5.733-1.243-7.045zm.632 6.982c-.382 3.69-3.812 5.908-4.888 6.518-.293-1.076-1.074-4.417-.424-7.5.544-2.58 1.832-3.838 2.967-4.947.366-.357.717-.7 1.014-1.063.05.097.103.196.157.297.697 1.312 1.563 2.945 1.175 6.695zm-1.316-6.276c-.09-.004-.158.06-.162.145-.065 1.2-.3 2.553-.614 3.902-.278-.485-.748-1.47-.624-2.402.01-.084-.048-.16-.132-.172-.083-.012-.16.048-.172.132-.168 1.274.635 2.575.828 2.867-.363 1.486-.808 2.944-1.215 4.165-.348-.437-1.306-1.722-1.367-2.677-.006-.085-.08-.15-.163-.143-.084.006-.148.078-.143.163.08 1.24 1.45 2.876 1.557 3.002-.56 1.654-1.02 2.795-1.03 2.823-.033.078.005.168.084.2.02.007.038.01.058.01.06 0 .118-.035.142-.095.015-.036.748-1.858 1.5-4.258.332-.17 2.1-1.113 2.554-2.06.037-.076.004-.168-.072-.205-.076-.036-.168-.005-.205.072-.337.702-1.56 1.448-2.15 1.775.267-.874.53-1.81.76-2.756.004-.01.007-.018.007-.027.358-1.48.632-2.98.703-4.3.005-.085-.06-.158-.145-.162zm-8.87-3.148c.82-.056 1.954.04 2.952.126 1.278.11 1.958.16 2.266.026.505-.22.94-.788 1.04-1.35.063-.37-.027-.693-.255-.907-1.434-1.347-4.04-2.388-6.386-1.504-.082.008-.27.03-.534.067v-.648c0-.67-1.13-.913-1.888-.913s-1.888.243-1.888.913c0 .55 0 1.113.002 1.684-2.12.903-4.217 2.514-4.217 5.36 0 .61.14 1.15.384 1.627l-4.642 1.188c-.008.002-.015.007-.023.01-1.658.52-2.865 2.073-2.865 3.9 0 2.254 1.833 4.087 4.086 4.087 1.86 0 3.43-1.25 3.923-2.954 0-.003.004-.004.005-.007l1.178-4.51c.68.42 1.458.713 2.232.89.012 1.178.026 2.354.04 3.513-1.26.49-2.32 1.266-2.32 2.826 0 1.657 1.31 2.26 2.405 2.553.017.898.034 1.697.05 2.373-.248-.05-.47-.12-.643-.207-1.198-.612-1.474-.6-1.636-.337-.19.306.103.6.88 1.182.453.34.94.58 1.44.738.035 1.128.048 1.166.073 1.233.142.382.982.586 1.534.586.55 0 1.39-.203 1.535-.585.024-.066.038-.107.074-1.255.187-.063.365-.135.53-.217.988-.494 1.555-1.304 1.555-2.22 0-1.078-.77-2.007-1.976-2.42.016-.926.032-1.932.047-3.01 1.728-.485 3.45-1.33 3.45-3.462 0-1.728-1.657-2.976-3.37-3.493.013-1.625.024-3.224.03-4.76.38-.066.705-.106.927-.12zM14.296 4.23c.058-.11.563-.324 1.28-.324s1.222.214 1.275.3v.75c-.5.094-1.12.232-1.788.436l-.01-.878c0-.084-.07-.152-.152-.152h-.002c-.085 0-.153.07-.152.155l.01.973c-.15.05-.3.1-.454.157 0-.486-.002-.965-.006-1.416zM9.888 17.975c0 .69-.205 1.334-.555 1.877-.42-.537-.77-1.678-.792-2.158.366-.364.644-1.067.8-1.582.345.54.548 1.178.548 1.864zm-1.83-.35c-.493 0-1.134-1.734-1.162-2.432l.004-.004c.006-.007.01-.014.017-.02.033-.034.066-.07.098-.112l.034-.045c.026-.036.053-.073.08-.113l.038-.062c.025-.04.05-.082.074-.125l.04-.07.01-.023c.727.19 1.362.606 1.822 1.174-.23.892-.708 1.834-1.056 1.834zm-1.984-2.73c-.017-.02-.034-.043-.05-.066l-.035-.047c-.02-.026-.037-.054-.055-.083l-.03-.048c-.02-.03-.04-.065-.058-.098.186-.03.375-.05.57-.05.19 0 .38.02.563.05l-.056.097c-.01.02-.022.035-.032.05-.018.03-.036.058-.054.083-.01.016-.022.03-.032.045l-.053.068c-.01.013-.02.025-.032.037-.017.02-.034.038-.05.054l-.03.03-.05.04-.03.02c-.018.01-.034.02-.05.026-.01.004-.017.008-.025.01-.024.01-.047.014-.07.014-.023 0-.046-.005-.07-.013-.008-.002-.016-.007-.024-.01-.016-.008-.033-.016-.05-.027l-.03-.02-.05-.04-.03-.03c-.018-.016-.034-.034-.05-.052-.012-.013-.023-.025-.034-.04zm.192.514l.034.01c.075.016.15.016.225 0l.033-.01.05-.016c.088.644.466 1.794.966 2.295-.026.694-.67 2.436-1.162 2.436s-1.136-1.743-1.162-2.438c.5-.5.878-1.65.966-2.294.016.007.032.01.05.014zm-.732-.79l.007.013.047.085c.023.04.045.078.07.115l.042.07c.024.037.048.07.072.103l.04.054c.028.036.057.068.086.098l.03.032v.003c-.028.698-.67 2.433-1.16 2.433-.347 0-.825-.938-1.055-1.828.46-.57 1.094-.987 1.82-1.18zm-1.25 3.073c-.023.478-.372 1.615-.79 2.154-.348-.54-.553-1.182-.553-1.872 0-.683.203-1.32.545-1.858.157.513.434 1.213.797 1.576zm-.605 2.413c.442-.52.804-1.594.89-2.212.128.05.264.052.392 0 .088.643.466 1.795.967 2.296-.012.24-.11.69-.285 1.17-.793-.18-1.482-.632-1.967-1.253zm2.735 1.342c-.158 0-.312-.014-.464-.035.13-.363.228-.736.267-1.02.128.052.262.052.39 0 .04.284.137.657.267 1.02-.15.02-.303.035-.46.035zm.48-1.258c.5-.5.88-1.653.968-2.297.13.053.266.052.39.002.088.62.45 1.695.896 2.216-.487.62-1.176 1.073-1.97 1.252-.177-.48-.273-.93-.284-1.172zm3.566-2.756c-.24-1.814-1.675-3.253-3.487-3.502l3.045-.78c.31.498.735.92 1.23 1.265l-.786 3.018zm1.222-3.465l.22-.844c.022-.082-.028-.166-.11-.187-.083-.024-.166.027-.187.11l-.19.726c-.296-.23-.557-.49-.767-.784l.747-.19c.082-.022.13-.106.11-.187-.02-.082-.103-.13-.187-.11l-.844.216c-.244-.427-.388-.915-.388-1.47 0-5.158 7.925-5.85 8.005-5.856.03-.002.06-.01.087-.02 2.017-.78 4.437.097 5.786 1.364.098.092.085.262.07.355-.023.13-.077.262-.15.386-.664-.035-4.178-.235-5.732-.722-.08-.025-.166.02-.19.1-.026.082.02.168.1.193 1.48.465 4.578.668 5.594.723-.094.09-.196.167-.3.212-.194.077-1.178-.006-1.97-.074-1.02-.086-2.177-.185-3.046-.126-.017 0-.497.05-1.18.178l-.01-.002c-.045 0-.087.01-.124.027-.904.175-2.114.48-3.106.978-.028.01-.053.022-.077.038-.968.503-1.71 1.196-1.71 2.142 0 1.08.86 1.57 1.598 1.843.005.62.01 1.24.017 1.863-.728-.18-1.453-.472-2.065-.88zm2.04-1.646c-.677-.294-.978-.658-.978-1.18 0-.533.387-.984.96-1.357.006.834.012 1.68.02 2.537zm.595-2.875c.154-.074.314-.144.48-.21l.1 9.394c-.165.046-.33.095-.493.147-.04-3.1-.07-6.312-.086-9.33zm-.492 11.796l.016 1.035c-.28-.19-.33-.385-.33-.558 0-.188.117-.343.315-.476zm.61-.28c.15-.05.313-.1.485-.145l.064 6.022c-.15 0-.298-.004-.443-.015 0-.005.004-.01.004-.015-.037-1.445-.075-3.465-.11-5.846zm2.097 8.143c-.136.08-.525.216-.956.216s-.82-.135-.955-.217c-.008-.13-.02-.412-.034-.837.138.025.276.045.413.06l.004.417c0 .084.07.152.153.152h.002c.084 0 .152-.07.15-.155l-.003-.393c.08.004.158.008.236.008.356 0 .7-.037 1.026-.1-.018.496-.03.737-.037.846zm2.126-3.45c0 .927-.762 1.447-1.218 1.674-1.017.51-2.6.607-3.928-.06 1.11.31 2.854.24 3.83-.358.502-.308.767-.734.767-1.23 0-.493-.33-.95-.838-1.195l.01-.597c.72.3 1.375.88 1.375 1.768zm-1.4-.45c.15.135.24.303.24.475 0 .208-.087.39-.262.548l.023-1.022zm-.643 1.376c-.386.142-.854.222-1.326.247l-.066-6.09c.235-.06.48-.114.73-.17.25-.056.51-.114.773-.178-.036 2.482-.075 4.67-.113 6.19zm3.563-9.816c0 2.227-2.315 2.747-4.357 3.206-1.568.352-2.922.656-2.922 1.747 0 .75.59 1.104.954 1.266l.013.74c-1.242-.37-1.782-.955-1.782-1.91 0-1.828 1.884-2.317 3.706-2.79 1.51-.392 2.936-.762 2.936-1.977 0-.66-.494-1.202-1.328-1.487l.016-1.647c1.43.474 2.762 1.492 2.762 2.85zm-2.786-.553c.457.2.722.497.722.835 0 .37-.287.63-.74.84.006-.557.013-1.115.018-1.675zm-.635 1.908c-.34.108-.722.207-1.12.31l-.436.115-.1-9.426c.58-.208 1.188-.37 1.74-.488-.015 3.023-.044 6.29-.083 9.49zm4.52-11.63c.297 0 .54-.243.54-.54s-.243-.54-.54-.54-.54.243-.54.54.242.54.54.54zm0-.773c.128 0 .232.104.232.232s-.105.232-.233.232-.232-.104-.232-.232.104-.232.232-.232z"/></svg>