<svg data-name="Layer 1" xmlns="http://www.w3.org/2000/svg" viewBox="0 0 36 36"><title>Icon-Red_Hat-Private_Cloud-A-Black-RGB</title><path d="M30.34 18.868a4.66 4.66 0 0 0-2.807-1.563 8.577 8.577 0 0 0-15.754-3.953q-.16-.017-.316-.024c-.1 0-.206-.008-.31-.008a6.63 6.63 0 0 0 0 13.258h15.657a4.66 4.66 0 0 0 3.53-7.71zm-1.294 5.282a3.152 3.152 0 0 1-2.235.928H11.156a5.13 5.13 0 0 1 0-10.258c.14 0 .282.006.43.02s.3.033.453.06a.722.722 0 0 0 .45-.058.763.763 0 0 0 .33-.312A7.077 7.077 0 0 1 26.062 18a.75.75 0 0 0 .75.75 3.162 3.162 0 0 1 2.236 5.4z"/><path d="M20.474 16.672a2.278 2.278 0 1 0-3.6 1.792L16.5 19.99l-.5 2a.757.757 0 0 0-.006.338.75.75 0 0 0 .734.594h3a.75.75 0 0 0 .727-.932l-.5-2-.38-1.526a2.347 2.347 0 0 0 .243-.2 2.247 2.247 0 0 0 .656-1.592z"/></svg>