<svg xmlns="http://www.w3.org/2000/svg" width="32" height="32" viewBox="0 0 32 32"><path d="M16.514 4.395C10.177 4.395 5.04 9.533 5.04 15.87c0 .17.14.31.31.31.173 0 .314-.138.314-.31 0-.863.1-1.703.29-2.507l2.095.56c-.144.627-.22 1.277-.22 1.946 0 1.577.423 3.06 1.16 4.336.002 0 .002.003.003.004.086.15.276.2.426.116l.03-.02c.15-.085.202-.275.116-.425-.026-.044-.062-.08-.103-.108-.642-1.157-1.007-2.487-1.007-3.904 0-1.358.335-2.635.928-3.757l2.142 1.238c.15.086.34.035.426-.114.086-.15.035-.34-.114-.426L9.42 11.412c-.15-.086-.34-.035-.426.114 0 .003-.002.005-.004.008-.323.56-.586 1.158-.778 1.787l-2.095-.56c.49-1.644 1.36-3.124 2.51-4.34l3.714 3.715.008.008c.122.122.32.122.442 0 .325-.325.69-.607 1.09-.84.098-.055.153-.155.156-.26.002-.056-.01-.113-.04-.166l-1.238-2.14c.525-.28 1.085-.5 1.67-.656.167-.044.266-.214.223-.38-.044-.167-.216-.267-.38-.222-.743.198-1.447.493-2.096.87-.15.085-.2.277-.114.425l.005.008 1.24 2.147c-.258.168-.502.354-.728.56L9.07 7.978c1.944-1.837 4.563-2.962 7.448-2.962 1.865 0 3.62.47 5.153 1.3L20.44 8.453l-.004.008c-.03.055-.044.114-.04.172.003.102.06.2.155.256l.005.003c.61.355 1.167.785 1.662 1.28.122.12.32.12.44 0 .123-.122.123-.32 0-.44-.46-.463-.974-.873-1.53-1.22l1.084-1.88c.72.446 1.385.972 1.98 1.567 1.254 1.256 2.204 2.817 2.725 4.562l-2.39.64c-.166.045-.265.216-.22.382.044.166.214.265.382.22l2.39-.64c.19.804.29 1.643.29 2.506s-.1 1.702-.29 2.506l-2.095-.56c.143-.627.22-1.28.22-1.946 0-.172-.14-.312-.314-.312s-.313.14-.313.312c0 .613-.068 1.21-.198 1.783l-2.388-.64c-.168-.043-.34.055-.383.222-.242.906-.72 1.717-1.365 2.36-.122.123-.122.32 0 .442.122.12.32.12.44 0 .65-.65 1.148-1.448 1.44-2.342l2.39.64.012.004.01.002 2.38.638c-.49 1.644-1.36 3.123-2.508 4.338l-1.533-1.532c.444-.477.835-1.005 1.164-1.573.086-.15.036-.34-.113-.427-.15-.086-.34-.035-.427.114-.354.61-.786 1.172-1.282 1.668-.122.12-.122.32 0 .44l1.75 1.75c-1.216 1.148-2.696 2.018-4.34 2.51l-.56-2.095c.63-.194 1.228-.455 1.787-.778l.007-.004c.027-.016.052-.036.072-.058l.004-.003s0-.002.002-.002c.086-.098.104-.243.036-.362l-.005-.008-1.387-2.4c0-.004-.003-.007-.004-.01-.056-.094-.154-.15-.256-.154-.058-.002-.118.01-.172.042l-.01.006c-.397.228-.826.406-1.28.526-.438.115-.89.173-1.345.173-.172 0-.313.14-.313.312 0 .17.14.312.313.312.507 0 1.014-.065 1.505-.195.408-.107.8-.258 1.168-.445l1.085 1.88c-.524.275-1.08.495-1.664.652 0 0-.004 0-.006.002-.002 0-.005 0-.007.002-.663.177-1.36.27-2.08.27-.172 0-.312.14-.312.313s.14.314.313.314c.668 0 1.32-.076 1.945-.22l.562 2.095c-.805.19-1.644.29-2.507.29-1.865 0-3.62-.47-5.154-1.3l1.084-1.878c.572.304 1.182.546 1.82.717.167.044.34-.055.383-.222s-.053-.338-.22-.382c-1.283-.344-2.44-.995-3.387-1.872l1.75-1.748c.12-.122.12-.32 0-.44-.574-.574-1.016-1.278-1.277-2.063l2.386-.64c.166-.043.265-.214.22-.38v-.002-.003c-.054-.203-.084-.417-.084-.637.003-1.37 1.11-2.476 2.48-2.478 1.367.002 2.474 1.11 2.477 2.478-.002 1.37-1.11 2.475-2.478 2.478-.223 0-.438-.03-.642-.084-.077-.02-.156-.01-.222.023-.076.038-.136.11-.16.198l-.64 2.386c-.34-.112-.665-.26-.97-.436-.15-.086-.342-.035-.427.114-.086.148-.035.34.114.426.44.255.918.455 1.422.59.068.018.137.012.198-.013.088-.035.158-.11.185-.208l.646-2.41c.163.026.33.04.5.04 1.713 0 3.1-1.39 3.1-3.102 0-.745-.26-1.428-.698-1.962l1.537-1.537c.826.932 1.327 2.156 1.327 3.5 0 .172.14.312.313.312.172 0 .313-.14.313-.312 0-.963-.23-1.87-.64-2.674l2.152-1.243c.15-.086.2-.277.114-.426-.087-.15-.278-.2-.427-.114l-2.154 1.244c-.227-.344-.485-.665-.775-.954-.122-.12-.32-.12-.44 0l-1.765 1.764c-.256-.21-.546-.378-.862-.498l1.368-5.107c.017-.062.014-.125-.006-.182-.033-.093-.11-.17-.214-.2-.717-.19-1.47-.293-2.247-.293-.174 0-.314.14-.314.312 0 .17.14.312.313.312.612 0 1.208.068 1.782.198l-1.284 4.798c-.162-.026-.33-.04-.498-.04-.17 0-.336.014-.498.04l-.646-2.41c-.045-.166-.215-.265-.382-.22-.167.044-.266.215-.22.38l.644 2.41c-.828.315-1.487.974-1.8 1.802l-2.41-.645c-.167-.045-.34.054-.383.22-.044.167.054.338.22.382l2.41.646c-.025.162-.04.328-.04.498 0 .17.015.336.04.5l-2.41.645c-.098.026-.173.098-.21.186v.002c-.022.06-.03.128-.01.196.244.91.7 1.735 1.312 2.415L10.38 21.57c-.06.06-.092.142-.092.22 0 .08.03.16.09.222.463.462.976.872 1.532 1.22l-1.084 1.878c-2.325-1.436-4.066-3.724-4.79-6.43-.044-.166-.215-.264-.382-.22-.166.044-.265.215-.22.382 1.31 4.898 5.777 8.503 11.086 8.504 6.336 0 11.474-5.138 11.474-11.474 0-6.335-5.14-11.473-11.474-11.474zm-1.93 11.492c0 .17.136.306.305.306h.904l-.64.64c-.12.12-.12.313 0 .433.06.06.138.09.217.09s.158-.03.218-.09l.64-.64v.905c0 .17.137.307.306.307s.306-.137.306-.306v-.904l.64.64c.06.06.137.09.216.09s.157-.03.217-.09c.12-.12.12-.315 0-.435l-.64-.638h.906c.17 0 .305-.137.305-.306s-.137-.306-.306-.306h-.906l.64-.64c.12-.12.12-.314 0-.434s-.314-.12-.434 0l-.64.64v-.905c0-.17-.137-.305-.306-.305s-.306.137-.306.306v.906l-.64-.64c-.12-.12-.314-.12-.434 0s-.12.314 0 .434l.64.64h-.905c-.17 0-.307.137-.307.306z"/></svg>