<svg xmlns="http://www.w3.org/2000/svg" viewBox="0 0 36 36"><title>Icon-Red_Hat-People_and_Audiences-Architect-A-Black</title><path d="M24 16.75a2.25 2.25 0 1 0-2.25-2.25A2.25 2.25 0 0 0 24 16.75zm0-3a.75.75 0 1 1-.75.75.76.76 0 0 1 .75-.75zm5-4.5H11a.65.65 0 0 0-.19 0h-.07a.86.86 0 0 0-.22.15l-4 4a.86.86 0 0 0-.15.22v.07a.65.65 0 0 0 0 .19V26a.76.76 0 0 0 .75.75H29a.76.76 0 0 0 .75-.75V10a.76.76 0 0 0-.75-.75zm-18.75 2.56v1.44H8.81zm18 13.44H7.75v-10.5H11a.76.76 0 0 0 .75-.75v-3.25h16.5zM24 23.75a2.25 2.25 0 1 0-2.25-2.25A2.25 2.25 0 0 0 24 23.75zm0-3a.75.75 0 1 1-.75.75.76.76 0 0 1 .75-.75zM10.26 18a2.25 2.25 0 1 0 2.25-2.25A2.25 2.25 0 0 0 10.26 18zm2.25-.75a.75.75 0 1 1-.75.75.76.76 0 0 1 .75-.75zm4.13 1.5h.61v2.75a.76.76 0 0 0 .75.75h1.88a.75.75 0 0 0 0-1.5h-1.13v-5.5h1.13a.75.75 0 0 0 0-1.5H18a.76.76 0 0 0-.75.75v2.75h-.61a.75.75 0 0 0 0 1.5z"/></svg>