<svg data-name="transportation" xmlns="http://www.w3.org/2000/svg" viewBox="0 0 36 36"><title>Icon-Red_Hat-Transportation-Transportation-A-Black-RGB</title><path d="M23 10.16a.76.76 0 0 0-.75.75v6a.75.75 0 0 0 1.5 0v-6a.76.76 0 0 0-.75-.75zm-3.33 0a.75.75 0 0 0-.75.75v6a.75.75 0 0 0 1.5 0v-6a.76.76 0 0 0-.75-.75zm-3.34 0a.76.76 0 0 0-.75.75v6a.75.75 0 0 0 1.5 0v-6a.75.75 0 0 0-.75-.75zm-3.33 0a.76.76 0 0 0-.75.75v6a.75.75 0 0 0 1.5 0v-6a.76.76 0 0 0-.75-.75zm1.5 13.59A2.25 2.25 0 1 0 16.75 26a2.25 2.25 0 0 0-2.25-2.25zm0 3a.75.75 0 1 1 .75-.75.76.76 0 0 1-.75.75zm12-3A2.25 2.25 0 1 0 28.75 26a2.25 2.25 0 0 0-2.25-2.25zm0 3a.75.75 0 1 1 .75-.75.76.76 0 0 1-.75.75zm2.5-5.36H7a.75.75 0 0 0 0 1.5h22a.75.75 0 0 0 0-1.5zM9.5 23.75A2.25 2.25 0 1 0 11.75 26a2.25 2.25 0 0 0-2.25-2.25zm0 3a.75.75 0 1 1 .75-.75.76.76 0 0 1-.75.75zm.5-6.5h16a.76.76 0 0 0 .75-.75v-11a.76.76 0 0 0-.75-.75H10a.76.76 0 0 0-.75.75v11a.76.76 0 0 0 .75.75zm.75-11h14.5v9.5h-14.5zm10.75 14.5A2.25 2.25 0 1 0 23.75 26a2.25 2.25 0 0 0-2.25-2.25zm0 3a.75.75 0 1 1 .75-.75.76.76 0 0 1-.75.75z"/></svg>