<svg data-name="Layer 1" xmlns="http://www.w3.org/2000/svg" viewBox="0 0 36 36"><title>Icon-Red_Hat-Transportation-Car-A-Black-RGB</title><path d="M21 19.25h-6a.76.76 0 0 0-.75.75v2a.76.76 0 0 0 .75.75h6a.75.75 0 0 0 .75-.75v-2a.75.75 0 0 0-.75-.75zm-.75 2h-4.5v-.5h4.5z"/><path d="M26 16.25h-.35l-.91-6.36a.74.74 0 0 0-.74-.64H12a.74.74 0 0 0-.74.64l-.91 6.36H10A2.75 2.75 0 0 0 7.24 19v6a.76.76 0 0 0 .75.75h1.25V27a1.75 1.75 0 0 0 3.5 0v-1.25h10.5V27a1.75 1.75 0 0 0 3.5 0v-1.25H28a.75.75 0 0 0 .75-.75v-6A2.75 2.75 0 0 0 26 16.25zm-13.35-5.5h10.7l.79 5.5H11.86zM11.24 27c0 .28-.5.28-.5 0v-1.25h.5zm14 0c0 .28-.5.28-.5 0v-1.25h.5zm2-2.75H8.74V19A1.25 1.25 0 0 1 10 17.75h16A1.25 1.25 0 0 1 27.24 19z"/><path d="M11 19.25a.76.76 0 0 0-.75.75v2a.75.75 0 0 0 1.5 0v-2a.75.75 0 0 0-.75-.75zM25 19.25a.76.76 0 0 0-.75.75v2a.75.75 0 0 0 1.5 0v-2a.75.75 0 0 0-.75-.75zM27 15.75a.75.75 0 0 0 .53-1.28.77.77 0 0 0-1.06 0 .75.75 0 0 0 .53 1.28zM9 15.75a.77.77 0 0 0 .53-.22.75.75 0 0 0 0-1.06.63.63 0 0 0-.24-.16.73.73 0 0 0-.58 0 .63.63 0 0 0-.24.16.77.77 0 0 0-.22.53.75.75 0 0 0 .75.75z"/></svg>