<svg xmlns="http://www.w3.org/2000/svg" viewBox="0 0 36 36"><title>Icon-Red_Hat-Agile_Integration-A-Black-RGB</title><path d="M13.33 15.45a.75.75 0 1 0 .76-1.29.75.75 0 1 0-.76 1.29zM22.24 24.08a.75.75 0 0 0 .29 1.44.66.66 0 0 0 .3-.07.75.75 0 0 0-.59-1.37zM21.08 12.23a.44.44 0 0 0 .16 0 .76.76 0 0 0 .73-.59.74.74 0 0 0-.57-.89.76.76 0 0 0-.9.57.75.75 0 0 0 .58.91zM24.35 22.57a.75.75 0 0 0 0 1.06.75.75 0 0 0 1.06 0 .75.75 0 0 0-1.1-1zM25.82 15.61a.75.75 0 0 0 .38-.1.74.74 0 0 0 .27-1 .75.75 0 0 0-1-.28.76.76 0 0 0-.28 1 .75.75 0 0 0 .63.38zM26.62 19.87a.75.75 0 0 0-.48 1.42.67.67 0 0 0 .24 0 .75.75 0 0 0 .24-1.46zM23.88 13.45a.76.76 0 1 0-.44-.15.75.75 0 0 0 .44.15zM18.33 12.24h.15a.74.74 0 0 0 .58-.88.75.75 0 0 0-.88-.59.76.76 0 0 0-.59.89.77.77 0 0 0 .74.58zM14 22.42a.75.75 0 0 0 0 1.06.73.73 0 0 0 .56.25.75.75 0 0 0 .56-1.24.76.76 0 0 0-1.12-.07zM13.79 20.23a.75.75 0 0 0-.94-.49.74.74 0 0 0-.49.94.76.76 0 0 0 .71.53.85.85 0 0 0 .23 0 .74.74 0 0 0 .49-.98zM19.69 24.59a.76.76 0 0 0-.76.75.75.75 0 1 0 .76-.75zM12.79 18.31a.75.75 0 0 0 .08-1.49.74.74 0 0 0-.82.66.75.75 0 0 0 .66.83z"/><path d="M29.4 19.09a7.77 7.77 0 0 0-2-1.22l-.54-.2c.17-.1.34-.2.5-.31a7.82 7.82 0 0 0 1.44-1.31A7.67 7.67 0 0 0 30.73 11a7.75 7.75 0 0 0-15.46-.83 7.56 7.56 0 0 0 0 .83 8.59 8.59 0 0 0 .07 1c0 .16 0 .31.07.47-.11-.07-.24-.13-.36-.19a7.77 7.77 0 0 0-3.41-.8 7.75 7.75 0 1 0 3 14.89 8.19 8.19 0 0 0 1.8-1.08l.24-.2v.32A8.62 8.62 0 0 0 17 27.2a7.75 7.75 0 1 0 12.4-8.11zm-12.64-8.67a6.25 6.25 0 1 1 0 1.16 5.62 5.62 0 0 1 0-1.16zm-1.31 13.74a5.75 5.75 0 0 1-.83.56 6.36 6.36 0 1 1 .83-.56zm9 7.09a6.25 6.25 0 1 1 6.2-6.25 6.26 6.26 0 0 1-6.25 6.25z"/></svg>