<svg xmlns="http://www.w3.org/2000/svg" viewBox="0 0 32 32"><path d="M25.43 10.7c-.03-.04-.63-1.03.06-2.21.05-.08.04-.19-.02-.26s-.16-.1-.25-.07c-.05.02-1.03.35-1.36 1.48-.35-.43-.84-1.38-.11-2.98.04-.09.02-.19-.05-.26s-.18-.08-.26-.04c-.07.03-1.63.84-1.54 2.7 0 .02.05.48.35 1.27.01.03.17.51-.01.87-.14-.56-.5-1.49-1.5-1.89-.09-.04-.2-.01-.26.07s-.07.19-.02.27c.02.03.48.8.06 2.21-.01.03-.64 2.83 2.75 3.85.02.01.04.01.07.01.03 0 .06-.01.09-.02.07-.03 1.7-.71 2.27-2.22.31-.84.23-1.77-.27-2.78zm-.16 2.63c-.43 1.15-1.64 1.78-1.95 1.92-2.87-.91-2.37-3.18-2.35-3.26.25-.83.22-1.48.12-1.92.69.61.76 1.61.77 1.62 0 .08.05.15.12.19s.15.04.22 0c.72-.4.64-1.28.49-1.7-.27-.72-.33-1.15-.33-1.15-.04-.85.34-1.45.69-1.81-.58 2.06.8 3.05.82 3.06.07.05.15.05.23.02.07-.03.12-.1.13-.18.07-.56.32-.93.57-1.17-.31 1.11.22 1.95.24 1.98.42.87.5 1.67.23 2.4zm-4.57 1.71h-4.07c-.16 0-.3.13-.3.3v4.07h-4.06c-.16 0-.3.13-.3.3v4.19H7.81l.17-.97c.03-.09 0-.15-.07-.2-.03-.02-.1-.02-.17.02l-1.62 1.44 1.37 1.28.24.17c.07.04.15.04.18.02.07-.05.11-.11.07-.2l-.17-.97h.29l.6.01h3.59c.16 0 .3-.13.3-.3V20h4.06c.17 0 .3-.13.3-.3v-4.07h3.76c.17 0 .3-.13.3-.3v-.02c-.02-.15-.15-.27-.31-.27z"/></svg>