<svg xmlns="http://www.w3.org/2000/svg" viewBox="0 0 31.68 31.68"><path d="M15.84 26.2c-2.99 0-5.47-.47-7.02-.87-.48-.12-.88-.46-1.08-.92-.2-.46-.19-.98.05-1.43l3.93-7.48c.71-1.43 1.08-2.99 1.08-4.61l-.01-3.47c-.43-.11-.75-.5-.75-.96 0-.55.45-.99.99-.99h5.64c.55 0 .99.44.99.99 0 .46-.32.85-.75.96l-.01 3.47c0 1.62.36 3.17 1.08 4.61l3.92 7.48c.24.45.25.97.05 1.43-.2.46-.6.79-1.08.92-1.56.4-4.03.87-7.03.87zM13.02 6.07c-.22 0-.4.18-.4.4s.18.4.4.4h.06c.16 0 .3.13.3.3l.01 3.73c0 1.71-.38 3.35-1.14 4.88L8.3 23.26c-.15.29-.16.62-.03.92.13.29.38.51.69.59 1.52.39 3.94.86 6.88.86s5.36-.47 6.88-.86c.31-.08.56-.29.69-.59.13-.3.12-.63-.03-.91l-3.93-7.48c-.76-1.53-1.14-3.17-1.14-4.88l.01-3.73c0-.16.13-.3.3-.3h.06c.22 0 .4-.18.4-.4s-.18-.4-.4-.4c-.02-.01-5.66-.01-5.66-.01z"/><path d="M20.95 21.86c-.05 0-.1-.03-.13-.08l-2.53-4.82c-.04-.07-.01-.16.06-.2.07-.04.16-.01.2.06l2.53 4.82c.04.07.01.16-.06.2-.02.02-.05.02-.07.02zM17.32 7.31h-3.33c-.08 0-.15-.06-.15-.15 0-.08.06-.15.15-.15h3.33c.08 0 .15.06.15.15-.01.08-.07.15-.15.15z"/></svg>