<svg data-name="Layer 1" xmlns="http://www.w3.org/2000/svg" viewBox="0 0 36 36"><title>Icon-Red_Hat-Hand_pointing-A-Black-RGB</title><path d="M29.034 14.62a2.432 2.432 0 0 0-1.726-.716l-4.425.008-4.425.007a6.447 6.447 0 0 0 .93-.97 6.322 6.322 0 0 0 .712-1.15 2.443 2.443 0 0 0-2.2-3.505 2.354 2.354 0 0 0-1.285.382 2.745 2.745 0 0 0-.94 1.057 1.5 1.5 0 0 1-1.34.817 7.286 7.286 0 0 0-2.073.3 7.788 7.788 0 0 0-1.953.894 8.69 8.69 0 0 0-4.053 7.594 8.477 8.477 0 0 0 2.73 5.917 9.1 9.1 0 0 0 6.213 2.453h4.732a.75.75 0 0 0 .734-.6l.86-4.155.857-4.155h.346a.524.524 0 0 0 .056 0c.02 0 .038 0 .056-.006h4.466a2.442 2.442 0 0 0 1.726-4.17zm-1.06 2.393a.94.94 0 0 1-.666.277h-4.58a.552.552 0 0 0-.057 0 .523.523 0 0 0-.056.006h-.843a.752.752 0 0 0-.732.6l-.86 4.155-.857 4.157H15.2a7.606 7.606 0 0 1-5.174-2.03 6.982 6.982 0 0 1-2.273-4.887 7.094 7.094 0 0 1 3.347-6.28 6.353 6.353 0 0 1 1.57-.72 5.77 5.77 0 0 1 1.66-.24A2.994 2.994 0 0 0 17 10.42a1.267 1.267 0 0 1 .388-.46.875.875 0 0 1 .5-.167.952.952 0 0 1 .944.892.946.946 0 0 1-.094.465 4.905 4.905 0 0 1-3.462 2.687.616.616 0 0 0-.28.144 1.02 1.02 0 0 0-.206.25.725.725 0 0 0-.095.315.9.9 0 0 0 .032.33.75.75 0 0 0 .724.56l5.92-.016 5.923-.016a.943.943 0 0 1 .666 1.61z"/></svg>