<svg xmlns="http://www.w3.org/2000/svg" viewBox="0 0 32 32"><path d="M27.3 7.12c-.47-.62-1.69-.61-3.51.03-2.39.84-2.61 1.62-2.81 2.32-.03.11-.06.21-.1.31l-.64-.7c-.22-.24-.65-.42-.98-.4l-3.91.23c-.31.02-.72.19-.96.4L4.02 18.82c-.3.28-.32.75-.05 1.06l7.06 7.7c.12.14.3.22.48.24.21.02.42-.05.58-.19l10.37-9.51c.23-.21.44-.61.48-.93l.48-3.99c.04-.33-.1-.76-.33-1.01l-.14-.15c1.36-.4 2.84-1.1 3.69-2.31.84-1.19 1.06-2.07.66-2.61zm-4.98 10c-.02.17-.16.43-.28.55l-10.37 9.51c-.04.03-.08.04-.1.03-.02 0-.06-.01-.09-.04l-7.06-7.7c-.05-.05-.05-.14.01-.19L14.8 9.77c.13-.12.41-.23.58-.24l3.91-.23h.06c.15.01.35.1.44.2l2.13 2.32c-.39.09-.75.15-1.05.19-.15-.42-.57-.72-1.05-.67-.55.06-.96.55-.9 1.11.05.48.43.86.91.9.07.01.13.01.2 0 .27-.03.51-.16.68-.37.12-.15.19-.32.22-.51.39-.05.86-.14 1.37-.26l.36.39c.1.11.18.37.17.52l-.51 4zm-2.43-4.55h.03c.04 0 .22-.01.5-.04-.02.06-.05.11-.09.16-.09.11-.22.19-.37.2-.31.03-.57-.2-.6-.49-.03-.3.19-.57.49-.6h.11c.18.02.33.12.42.27-.3.03-.48.04-.49.04-.13.01-.22.11-.22.24.02.12.11.21.22.22zm6.37-3.1c-.82 1.16-2.33 1.82-3.67 2.19l-1.38-1.5c.09-.19.15-.38.2-.56.17-.61.36-1.25 2.52-2.01 1.55-.55 2.67-.61 2.99-.18.27.33.03 1.09-.66 2.06z"/></svg>