<svg xmlns="http://www.w3.org/2000/svg" viewBox="0 0 36 36"><title>Icon-Red_Hat-Email-A-Black-RGB</title><path d="M28.73 15.15a.58.58 0 0 0 0-.18.55.55 0 0 0-.09-.14.53.53 0 0 0-.06-.1L25.7 12V9.45a.7.7 0 0 0-.7-.7h-2.75l-3.73-3.54a.75.75 0 0 0-1 0l-3.77 3.54H11a.7.7 0 0 0-.7.7V12l-2.82 2.71a.53.53 0 0 0-.06.1.55.55 0 0 0-.09.14.58.58 0 0 0 0 .18v15.1A.76.76 0 0 0 8 31h20a.76.76 0 0 0 .75-.75v-15s-.02-.07-.02-.1zm-3-1.05l1.21 1.15-1.24 1.15zM18 6.78l2.07 2h-4.14zm-6.3 3.38h12.6v7.57l-3.72 3.54-.07-.07A.74.74 0 0 0 20 21h-4a.74.74 0 0 0-.51.2l-.07.07-3.72-3.54zm-1.4 3.94v2.3l-1.21-1.15zM8.75 17l5.57 5.29-1.44 1.36-4.13 3.87zm.08 12.5l5.07-4.75 2.4-2.24h3.4l7.47 7zm18.42-2l-5.57-5.23L27.25 17z"/><path d="M16.54 18.15a.86.86 0 0 0 .37-.1l3.76-2.13a.75.75 0 0 0 0-1.3l-3.76-2.13a.75.75 0 0 0-1.12.66v4.25a.74.74 0 0 0 .37.64.76.76 0 0 0 .38.11zm.75-3.72l1.48.84-1.48.84z"/></svg>