<svg xmlns="http://www.w3.org/2000/svg" viewBox="0 0 32 32"><path d="M16 10.74c2.35 0 4.25-1.91 4.25-4.26S18.34 2.23 16 2.23s-4.25 1.91-4.25 4.25c-.01 2.35 1.9 4.26 4.25 4.26zm0-7.89c2.01 0 3.64 1.63 3.64 3.64 0 2.01-1.63 3.64-3.64 3.64s-3.64-1.63-3.64-3.64S13.99 2.85 16 2.85zm2.33 8.72h-4.66c-4.34 0-6.73 2.39-6.73 6.73v3.75c0 2.12 1.41 3.16 2.91 4.26l.2.15v1.71c0 .07.03.15.08.2.29.33 1.58 1.41 5.88 1.41s5.59-1.08 5.88-1.41c.05-.06.08-.13.08-.2v-1.71l.2-.15c1.5-1.1 2.91-2.14 2.91-4.26V18.3c-.02-4.35-2.41-6.73-6.75-6.73zm-.82.61c-.45 1.18-1.36 2.13-1.74 2.48-.63-.5-1.28-1.72-1.64-2.48h3.38zm6.93 9.86c0 1.81-1.23 2.72-2.66 3.77V18c0-.15-.12-.27-.27-.27-.15 0-.27.12-.27.27v10.1c-.44.35-1.77 1.06-5.25 1.06-3.62 0-4.91-.76-5.3-1.09.01-.02.02-.05.02-.08V18c0-.15-.12-.27-.27-.27-.15 0-.27.12-.27.27v7.79c-1.41-1.04-2.63-1.94-2.63-3.75v-3.75c0-2.75 1.04-6.02 5.91-6.11.27.63 1.18 2.57 2.19 3.14.05.03.1.04.15.04.07 0 .14-.02.2-.07.07-.06 1.58-1.35 2.16-3.11h.17c5.05 0 6.11 3.32 6.11 6.11l.01 3.75z"/></svg>