<svg xmlns="http://www.w3.org/2000/svg" viewBox="0 0 36 36"><path d="M11.75 6.25h-6c-.414 0-.75.336-.75.75v11c0 .414.336.75.75.75h6c.414 0 .75-.336.75-.75V7c0-.414-.336-.75-.75-.75zm-.75 11H6.5v-9.5H11v9.5zM11.75 20.25h-6c-.414 0-.75.336-.75.75v6c0 .414.336.75.75.75h6c.414 0 .75-.336.75-.75v-6c0-.414-.336-.75-.75-.75zm-.75 6H6.5v-4.5H11v4.5zM29.75 6.25h-6c-.414 0-.75.336-.75.75v11c0 .414.336.75.75.75h6c.414 0 .75-.336.75-.75V7c0-.414-.336-.75-.75-.75zm-.75 11h-4.5v-9.5H29v9.5zM29.75 24.25c-.414 0-.75.336-.75.75v1.25h-4.5v-4.5h3.25c.414 0 .75-.336.75-.75s-.336-.75-.75-.75h-4c-.414 0-.75.336-.75.75v6c0 .414.336.75.75.75h6c.414 0 .75-.336.75-.75v-2c0-.414-.336-.75-.75-.75zM20.75 8.25h-6c-.414 0-.75.336-.75.75v6c0 .414.336.75.75.75h6c.414 0 .75-.336.75-.75V9c0-.414-.336-.75-.75-.75zm-.75 6h-4.5v-4.5H20v4.5zM20.75 17.25h-6c-.414 0-.75.336-.75.75v11c0 .414.336.75.75.75h6c.414 0 .75-.336.75-.75V18c0-.414-.336-.75-.75-.75zm-.75 11h-4.5v-9.5H20v9.5z"/><path d="M29.22 21.47l-2.47 2.47-.47-.47c-.303-.282-.778-.266-1.06.037-.268.288-.268.735 0 1.023l1 1c.292.293.765.294 1.058.002l3.002-3.002c.282-.303.266-.778-.037-1.06-.288-.268-.735-.268-1.023 0z"/></svg>