<svg data-name="Layer 1" xmlns="http://www.w3.org/2000/svg" viewBox="0 0 36 36"><title>Icon-Red_Hat-Progression-A-Black-RGB</title><path d="M8.08 11.315h5.42a.75.75 0 0 0 .75-.75v-5.42a.75.75 0 0 0-.75-.75H8.08a.75.75 0 0 0-.75.75v5.42a.75.75 0 0 0 .75.75zm.75-3.46v-1.96h3.92v3.92H8.83zM27.5 26.438a.75.75 0 0 0-.75.75v2.917h-9.5v-9.5h6.583a.75.75 0 0 0 0-1.5H16.5a.75.75 0 0 0-.75.75v11a.75.75 0 0 0 .75.75h11a.75.75 0 0 0 .75-.75v-3.667a.75.75 0 0 0-.75-.75z"/><path d="M27.5 20.938a.748.748 0 0 0-.53.22l-2.75 2.75-2.22 2.22-.386-.386-.917-.917a.75.75 0 1 0-1.06 1.06l.916.917.917.917a.748.748 0 0 0 1.06 0l2.75-2.75 2.75-2.75a.75.75 0 0 0-.53-1.282zM16.5 8.605h9a2.25 2.25 0 0 1 0 4.5h-3.277l.72-.72a.75.75 0 1 0-1.06-1.06l-1 1-1 1a.75.75 0 0 0 0 1.06l1 1 1 1a.755.755 0 0 0 .81.166.75.75 0 0 0 .25-1.225l-.72-.72H25.5a3.75 3.75 0 0 0 0-7.5h-9a.75.75 0 1 0 0 1.5zM14.03 19.325l-1-1-1-1a.75.75 0 1 0-1.06 1.06l.72.72H10.5a2.25 2.25 0 0 1 0-4.5h7a.75.75 0 0 0 0-1.5h-7a3.75 3.75 0 0 0 0 7.5h1.19l-.72.72a.75.75 0 0 0 0 1.06.748.748 0 0 0 1.06 0l1-1 1-1a.75.75 0 0 0 .162-.243.737.737 0 0 0 0-.573.75.75 0 0 0-.162-.245z"/></svg>