<svg data-name="shoe" xmlns="http://www.w3.org/2000/svg" viewBox="0 0 36 36"><title>Icon-Red_Hat-</title><path d="M22.18 17.18a.75.75 0 0 0 .75-.75v-1a.75.75 0 0 0-1.5 0v1a.74.74 0 0 0 .75.75zm-3.14-1a.75.75 0 0 0 .75-.75V13.3a.75.75 0 0 0-1.5 0v2.09a.76.76 0 0 0 .71.75zm6.27-.46a.75.75 0 1 0 0 1.5 3.44 3.44 0 0 1 3.43 3.43v.3h-.3a3.88 3.88 0 0 0-3.8 3.05h-2.83a4.91 4.91 0 0 0-9.71 0H7.26V13.3a.82.82 0 0 1 .82-.82.82.82 0 0 1 .81.82 3.88 3.88 0 0 0 7.66.89.74.74 0 0 0 .09-.33v-.37a1.11 1.11 0 0 0 0-.19.19.19 0 0 0 0-.08v-2a.74.74 0 0 0-.74-.76.76.76 0 0 0-.75.75v2.28a2.38 2.38 0 0 1-4.75-.19 2.32 2.32 0 1 0-4.63 0v11.49a.76.76 0 0 0 .75.75h21.92a1.81 1.81 0 0 0 1.8-1.8v-3.13a4.93 4.93 0 0 0-4.93-4.93zM13.62 24a3.42 3.42 0 0 1 6.67 0zm15.12-.3a.29.29 0 0 1-.3.3h-2.25a2.37 2.37 0 0 1 2.25-1.63h.3z"/></svg>