<svg data-name="network" xmlns="http://www.w3.org/2000/svg" viewBox="0 0 36 36"><title>Icon-Red_Hat-</title><path d="M13.93 14.64a.76.76 0 0 0-.93.52 12.73 12.73 0 0 0-.33 5.59.74.74 0 0 0 .74.62h.12a.75.75 0 0 0 .62-.86 11.27 11.27 0 0 1 .29-4.93.75.75 0 0 0-.51-.94zM27.29 9.3a.61.61 0 0 0-.13-.15 12.89 12.89 0 0 0-4.05-2.82A12.73 12.73 0 0 0 5.25 18a12.36 12.36 0 0 0 .18 2 .42.42 0 0 0 0 .19A12.76 12.76 0 0 0 18 30.75a12.6 12.6 0 0 0 2.69-.29h.11a12.71 12.71 0 0 0 6-3.26.52.52 0 0 0 .11-.1 12.68 12.68 0 0 0 .38-17.8zM6.75 18a11 11 0 0 1 .18-1.92 11.18 11.18 0 0 1 15.5.08.75.75 0 0 0 1-1.08A12.74 12.74 0 0 0 8.7 13c-.36.19-.71.41-1 .63A11.25 11.25 0 0 1 20.27 7c-.31.14-.63.26-.94.42A13 13 0 0 0 17 9a.76.76 0 0 0-.08 1 .72.72 0 0 0 .57.27.74.74 0 0 0 .48-.18A10.59 10.59 0 0 1 20 8.73a11 11 0 0 1 2.6-1 11.25 11.25 0 0 1 3.4 2.32A11.24 11.24 0 0 1 6.89 19.7a11.81 11.81 0 0 1-.14-1.7zM27 21.25a.75.75 0 1 0-1.46.36 11 11 0 0 1 .14 4.57 11.26 11.26 0 0 1-5.08 2.75 11.22 11.22 0 0 1-3.77-2.76.75.75 0 1 0-1.12 1 12.2 12.2 0 0 0 2.4 2.07H18a11.25 11.25 0 0 1-10.42-7 12.85 12.85 0 0 0 7.27 2.26 12.72 12.72 0 0 0 12.72-12.38 11.16 11.16 0 0 1-.2 12.09 12.41 12.41 0 0 0-.37-2.96z"/></svg>