<svg xmlns="http://www.w3.org/2000/svg" viewBox="0 0 32 32"><linearGradient id="a" gradientUnits="userSpaceOnUse" x1="2.292" y1="2.968" x2="29.156" y2="29.832"><stop offset="0" stop-color="#E6E6E6"/><stop offset=".503" stop-color="#F7F7F7"/><stop offset="1" stop-color="#C4C4C4"/></linearGradient><path fill="url(#a)" d="M22.07 12.757l-4.923-6.623c1.63-.212 1.854-.63 1.854-.84 0-1.057-4.17-1.07-4.347-1.07-1.133 0-2.117.107-2.743.197-.146.022-.254.147-.254.294v1.06c0 .148.11.273.254.294.364.052.85.11 1.414.148l1.67 6.682c-1.876.275-3.56.758-5.09 1.45l-3.03-3.65c-.055-.07-.14-.108-.227-.108H4.62c-.094 0-.184.046-.24.124-.056.078-.07.177-.04.268L6.045 16 4.34 21.017c-.03.09-.015.19.04.268.057.078.146.124.242.124h2.025c.088 0 .172-.04.228-.108l2.97-3.576c1.49.677 3.192 1.143 5.143 1.405l-1.663 6.654c-.564.04-1.05.096-1.415.148-.146.02-.254.146-.254.293v1.06c0 .15.11.274.254.294.627.088 1.61.195 2.743.195 1.624 0 4.348-.14 4.348-1.068 0-.212-.224-.63-1.853-.84l4.922-6.624c5.033-.465 9.18-2.004 9.18-3.243s-4.148-2.78-9.18-3.243z"/><g fill="#010101"><path d="M9.54 4.785h1.64c.083 0 .15-.066.15-.148 0-.082-.067-.148-.15-.148H9.54c-.08 0-.147.065-.147.147 0 .082.066.148.148.148zM6.744 5.943h4.437c.083 0 .15-.066.15-.148 0-.082-.067-.148-.15-.148H6.745c-.082 0-.148.066-.148.148 0 .082.066.148.148.148zM11.18 26.096H6.744c-.082 0-.148.066-.148.148 0 .082.066.148.148.148h4.437c.083 0 .15-.066.15-.148 0-.082-.068-.148-.15-.148zM11.18 27.06H8.673c-.082 0-.148.067-.148.15 0 .08.066.147.148.147h2.508c.083 0 .15-.066.15-.148 0-.083-.068-.15-.15-.15zM3.85 10.663H1.648c-.082 0-.148.066-.148.148s.066.15.148.15H3.85c.082 0 .148-.067.148-.15s-.066-.147-.148-.147zM3.85 20.887H2.5c-.082 0-.148.066-.148.148s.066.148.148.148h1.35c.082 0 .148-.066.148-.148s-.066-.148-.148-.148zM23.795 18.018c.028.038.073.06.12.06l.026-.003 1.062-.193c.037-.007.07-.027.092-.057.212-.282.705-1.025.705-1.825s-.494-1.543-.706-1.825c-.023-.03-.055-.05-.092-.057l-1.06-.193c-.057-.01-.113.012-.146.057-.034.045-.04.105-.014.155.213.426.466 1.094.466 1.863 0 .77-.254 1.437-.466 1.863-.027.05-.02.11.013.155zM24.543 16c0-.68-.184-1.286-.376-1.732l.722.13c.18.25.61.92.61 1.602s-.43 1.35-.61 1.6l-.723.132c.193-.446.376-1.05.376-1.732z"/><path d="M31.25 16c0-1.24-4.148-2.78-9.18-3.243l-4.923-6.623c1.63-.212 1.854-.63 1.854-.84 0-1.057-4.17-1.07-4.347-1.07-1.133 0-2.117.107-2.743.197-.146.022-.254.147-.254.294v1.06c0 .148.11.273.254.294.364.052.85.11 1.414.148l1.67 6.682c-1.876.275-3.56.758-5.09 1.45l-3.03-3.65c-.055-.07-.14-.108-.227-.108H4.62c-.094 0-.184.046-.24.124-.056.078-.07.177-.04.268L6.045 16 4.34 21.017c-.03.09-.015.19.04.268.057.078.146.124.242.124h2.025c.088 0 .172-.04.228-.108l2.97-3.576c1.49.677 3.192 1.143 5.143 1.405l-1.663 6.654c-.564.04-1.05.096-1.415.148-.146.02-.254.146-.254.293v1.06c0 .15.11.274.254.294.627.088 1.61.195 2.743.195 1.624 0 4.348-.14 4.348-1.068 0-.212-.224-.63-1.853-.84l4.922-6.624C27.1 18.78 31.25 17.24 31.25 16zM12.25 4.973c.604-.077 1.45-.155 2.405-.155 1.88 0 3.187.265 3.63.467-.423.167-1.64.387-3.63.387-.955 0-1.8-.078-2.405-.156v-.543zm1.696 1.277c.23.01.465.014.71.014.71 0 1.306-.023 1.806-.06l4.824 6.49c-.72-.05-1.454-.078-2.193-.078-1.237 0-2.4.073-3.502.207L13.944 6.25zM6.508 20.816H5.035l1.603-4.72c.02-.063.02-.13 0-.192l-1.603-4.72h1.473L10.506 16l-3.998 4.816zm4.61-4.627c.092-.11.092-.27 0-.38l-.82-.987c2.457-1.08 5.336-1.613 8.792-1.613 6.768 0 11.568 2.116 11.568 2.79s-4.8 2.79-11.568 2.79c-3.604 0-6.505-.504-8.854-1.537l.883-1.064zm3.535 10.992c-.954 0-1.8-.078-2.405-.156v-.543c.604-.078 1.45-.156 2.405-.156 2.064 0 3.296.236 3.675.406-.356.203-1.612.45-3.675.45zm1.807-1.386c-.5-.038-1.095-.06-1.807-.06-.245 0-.48.005-.71.013l1.638-6.55c1.094.12 2.26.182 3.51.182.74 0 1.474-.027 2.194-.077l-4.824 6.49z"/></g></svg>