<svg xmlns="http://www.w3.org/2000/svg" viewBox="0 0 31.68 31.68"><path d="M23.89 11.45c-.07-.06-.17-.05-.22.01-.06.06-.05.16 0 .22.95.89 1.48 2.14 1.48 3.44 0 1.35-.58 2.64-1.59 3.55-.07.06-.07.16-.02.22.06.07.16.07.22.02l.01-.01c1.08-.96 1.69-2.33 1.7-3.78.01-1.38-.56-2.71-1.58-3.67zm1.18-1.17c-.08-.06-.2-.05-.26.03-.05.07-.05.17.01.23 1.25 1.19 1.96 2.85 1.96 4.58 0 1.78-.75 3.48-2.06 4.69-.07.07-.07.19 0 .26.03.03.08.05.12.05.05 0 .09-.02.13-.05 1.39-1.28 2.18-3.08 2.18-4.96 0-1.82-.75-3.57-2.08-4.83zm-5.35 5.27c.11 0 .17-.45.13-.98s-.17-.94-.28-.94c-.11 0-.17.45-.13.98s.17.96.28.94zm3.33-2.54c-.05-.05-.14-.05-.19 0s-.05.14 0 .19c.53.5.84 1.2.84 1.93 0 .76-.33 1.48-.89 1.99-.05.05-.06.13-.01.19.02.03.06.04.1.04.03 0 .06-.01.09-.03.62-.56.98-1.35.98-2.19 0-.81-.33-1.57-.92-2.12zm-3.9-5.72h-.07c-.68.05-1.19.88-1.49 2.38v.07c-1.7 1.63-5.18 2.88-10.38 3.69-2.2.46-2.82 1.71-2.65 2.72.18 1.09 1.33 2.14 2.95 2.14.15 0 .29-.01.44-.03h.17l.66 1c.16.26.46.42.76.41.36 1.26 2.11 4.2 2.33 4.56.06.1.16.15.27.15h.05c1.16-.18 1.81-1.48 1.84-1.54.04-.09.04-.19 0-.28l-1.38-2.6v-.94c0-.05-.01-.09-.03-.14l-.33-.69c2.74.13 4.82.72 6.23 1.71.45 1.09 1.01 1.79 1.65 1.79h.07c1.47-.12 1.96-3.8 1.67-7.38-.29-3.48-1.32-7.02-2.76-7.02zM5.14 16.05c-.12-.75.4-1.4 1.41-1.78-.38.63-.49 1.38-.31 2.09.1.48.34.91.68 1.26-.98-.2-1.65-.86-1.78-1.57zm4.14 2.88l-.48-.73c.85-.05 1.64-.06 2.4-.05-.42.3-.87.57-1.34.81-.41.19-.54 0-.56-.03h-.02zm4.09 3.78c-.24.44-.63.8-1.09 1-.79-1.34-1.91-3.38-2.14-4.18.56-.28 1.1-.61 1.61-.98l.26.54v.94c0 .05.01.1.04.14l1.32 2.54zm-1.16-5.15h-.03c-1.33-.06-2.66-.04-3.99.06l-.31.02c-.1.01-.21.02-.31.02-.52-.29-.87-.8-.98-1.38-.19-.77 0-1.58.52-2.18l.24-.06c4.83-.75 8.16-1.87 10.09-3.36-.13 1.32-.14 2.65-.03 3.98.1 1.45.36 2.89.76 4.29-1.47-.79-3.46-1.25-5.96-1.39zm5.83-2.94c-.04-.53-.07-1.05-.07-1.56h1.12c-.05.11-.08.22-.1.33-.07.42-.09.84-.05 1.26.02.54.16 1.07.4 1.55l-1.09.17c-.09-.56-.16-1.12-.21-1.75zm1.41-1.57c.09.02.38.51.46 1.52.08 1.01-.12 1.54-.21 1.57-.1-.02-.38-.51-.46-1.52s.12-1.53.21-1.57zm.73 8h-.02c-.55 0-1.4-1.62-1.87-4.38l1.44-.22c.2-.03.35-.25.43-.65.07-.42.09-.84.05-1.26-.05-.65-.26-1.74-.75-1.8h-1.51c-.01-.99.07-1.98.25-2.95.26-1.35.66-1.85.94-1.89.67 0 1.8 2.45 2.12 6.44.32 3.99-.43 6.67-1.09 6.72l.01-.01z"/></svg>