<svg xmlns="http://www.w3.org/2000/svg" viewBox="0 0 32 32"><path d="M22.12 14.77c-.13 0-.23.1-.23.23v3.74c0 .13.1.23.23.23s.23-.1.23-.23V15c0-.13-.1-.23-.23-.23zm1.02 0c-.13 0-.23.1-.23.23v3.74c0 .13.1.23.23.23s.23-.1.23-.23V15c0-.13-.1-.23-.23-.23zM16 5.99C10.48 5.99 5.99 10.48 5.99 16S10.48 26.01 16 26.01 26.01 21.52 26.01 16 21.52 5.99 16 5.99zm0 19.26c-5.1 0-9.25-4.15-9.25-9.25 0-2.44.95-4.66 2.5-6.31l5.09 5.08H8.31c-.13 0-.23.1-.23.23s.1.23.23.23h6.49l3.29 3.28H8.65c-.13 0-.23.1-.23.23s.1.23.23.23h9.9l3.77 3.77c-1.65 1.55-3.88 2.51-6.32 2.51zm-.12-10.02h4.95v3.28h-1.66l-3.29-3.28zm6.98 6.96l-3.23-3.22h1.43c.13 0 .23-.1.23-.23V15c0-.13-.1-.23-.23-.23h-5.64L9.8 9.15c1.64-1.49 3.82-2.4 6.2-2.4 5.1 0 9.25 4.15 9.25 9.25 0 2.38-.91 4.55-2.39 6.19zm.22-8.03c.13 0 .23-.1.23-.23 0-.27-.08-.49-.25-.65-.25-.25-.6-.26-.64-.26h-4.68s-.2-.01-.32-.13c-.08-.07-.11-.18-.11-.33 0-.41.33-.45.43-.45h2.33c.36 0 .89-.24.89-.91s-.53-.91-.89-.91h-4.4s-.2-.01-.32-.13c-.08-.07-.11-.18-.11-.33 0-.13-.1-.23-.23-.23s-.23.1-.23.23c0 .27.08.49.25.65.25.25.6.26.64.26h4.4c.1 0 .43.04.43.45s-.33.45-.43.45h-2.33c-.36 0-.89.24-.89.91 0 .27.08.49.25.65.25.25.6.26.64.26h4.68c.1 0 .43.04.43.45 0 .15.1.25.23.25z"/></svg>