<svg data-name="Layer 1" xmlns="http://www.w3.org/2000/svg" viewBox="0 0 36 36"><title>Icon-Red_Hat-Software_and_technologies-App_Secured-A-Black-RGB</title><path d="M21.62 26.63H9.25V9.37h17.5V21a.75.75 0 0 0 1.5 0V8.62a.75.75 0 0 0-.75-.75h-19a.75.75 0 0 0-.75.75v18.76a.75.75 0 0 0 .75.75h13.12a.75.75 0 0 0 0-1.5z"/><path d="M24.5 12.39a.75.75 0 0 0 .5-1.28.75.75 0 0 0-1.22.24.72.72 0 0 0-.06.29.75.75 0 0 0 .75.75zM23 11.11a.75.75 0 0 0-.82-.16.74.74 0 0 0-.4.4.72.72 0 0 0-.06.29.75.75 0 0 0 .22.53.78.78 0 0 0 .24.16.75.75 0 0 0 1-.69.72.72 0 0 0-.06-.29.78.78 0 0 0-.12-.24zM30.66 23.91l-2.93-.7a.69.69 0 0 0-.35 0l-2.92.7a.75.75 0 0 0-.58.72v3.84a3.69 3.69 0 0 0 7.37 0v-3.83a.75.75 0 0 0-.59-.73z"/></svg>