<svg xmlns="http://www.w3.org/2000/svg" viewBox="0 0 32 32"><path d="M19.85 6.58c-.09-.84-.8-1.49-1.66-1.49h-4.55c-.87 0-1.58.66-1.66 1.51-2.43.25-4.86.75-4.86 1.6v1.11c0 .25.21.48.58.69l1.23 14.81c0 1.25 3.66 2.09 7.07 2.09 3.42 0 7.07-.84 7.07-2.07L24.31 10c.36-.21.58-.44.58-.69V8.2c-.01-.87-2.55-1.37-5.04-1.62zm-7.36 1.06v-.88c0-.07.01-.15.02-.22.1-.53.57-.94 1.13-.94h4.55c.56 0 1.02.4 1.13.92.02.07.02.15.02.23v1.27c0 .04 0 .08-.06.1-.05.02-.15.03-.33.03-.33 0-.38-.03-.39-.09v-1.3c0-.12-.06-.23-.15-.3-.06-.05-.14-.07-.22-.07h-1.3c-.33-.02-.64-.02-.89-.02s-.56.01-.89.02h-1.47c-.09 0-.18.03-.24.09-.08.07-.14.17-.14.29v1.28c0 .02 0 .03-.01.05-.02.05-.08.08-.38.08-.14 0-.22-.01-.28-.02-.11-.02-.11-.06-.11-.11.01-.02.01-.41.01-.41zm10.07 17.18c0 .54-2.55 1.58-6.56 1.58s-6.56-1.04-6.56-1.6L8.23 10.26c1.84.74 5.54 1.18 7.77 1.18 2.22 0 5.92-.44 7.77-1.18l-1.21 14.56zm1.8-15.5c-.03.11-.22.24-.55.38-1.25.54-4.47 1.23-7.81 1.23-3.35 0-6.56-.68-7.81-1.23-.33-.14-.53-.27-.56-.38V8.21c.09-.34 1.87-.82 4.34-1.1v.92c0 .07.01.13.02.18.11.46.64.47.88.47.27 0 .9 0 .9-.63v-1.1c.38-.02.77-.04 1.17-.05h2.09c.34.01.67.02 1 .04v1.09c0 .65.64.65.91.65.25 0 .79 0 .89-.49.01-.05.02-.1.02-.16v-.94c2.56.27 4.42.77 4.51 1.11v1.12c.01 0 0 0 0 0zm-.58-.73c-.04-.07-.11-.1-.19-.09-.02 0-.03 0-.05.01-.2.08-.46.16-.76.24-2.25.6-6.98 1.18-10.07.67-.11-.02-.21.05-.22.16-.02.11.05.21.16.22.84.14 1.81.2 2.81.2 3.05 0 6.46-.54 7.96-1.03.09-.03.18-.06.26-.09.1-.04.15-.15.11-.25 0-.03-.01-.03-.01-.04zm-12.33.64c-.88-.13-1.67-.31-2.25-.48-.33-.1-.59-.19-.76-.26-.05-.02-.1-.04-.13-.06-.09-.06-.21-.02-.26.07-.04.07-.03.14.01.2.02.02.04.05.06.06.1.06.26.13.47.2.63.22 1.68.48 2.81.65h.03c.1 0 .18-.07.19-.16.01-.1-.06-.2-.17-.22zm3.66 4.45v11.35c0 .11.09.19.19.19.11 0 .19-.09.19-.19V13.68c0-.3.25-.55.55-.55.3 0 .55.25.55.55v11.35c0 .11.09.19.19.19s.19-.09.19-.19V13.68c0-.52-.42-.94-.94-.94-.5 0-.92.42-.92.94zm4.2 11.28c.11 0 .2-.08.2-.18l.52-11.36c0-.3.25-.55.55-.55s.55.25.55.54l-.51 11.09c0 .11.08.2.18.2.11.01.2-.08.2-.18l.52-11.1c0-.52-.42-.94-.94-.94s-.94.42-.94.93l-.52 11.35c0 .11.08.2.19.2zm-7.8-12.48c-.52 0-.94.42-.94.95l.52 11.09c.01.11.09.19.2.18.11 0 .19-.1.19-.2l-.52-11.08c0-.3.25-.55.55-.55s.55.25.55.56l.52 11.35c.01.1.09.18.19.18h.01c.11-.01.19-.1.19-.2l-.52-11.34c0-.52-.42-.94-.94-.94z"/></svg>