<svg xmlns="http://www.w3.org/2000/svg" viewBox="0 0 36 36"><title>Icon-Red_Hat-Hardware-Smartwatch-A-Black-RGB</title><path d="M22.84 9.87l-.93-4a.76.76 0 0 0-.73-.59h-6.54a.75.75 0 0 0-.73.59l-.93 4a3.75 3.75 0 0 0-2.37 3.47v9.29A3.75 3.75 0 0 0 13 26.1l.93 4a.74.74 0 0 0 .73.58h6.54a.75.75 0 0 0 .73-.58l.93-4a3.74 3.74 0 0 0 2.36-3.47v-9.29a3.74 3.74 0 0 0-2.38-3.47zm-7.61-3.14h5.35l.66 2.87h-6.66zm5.35 22.5h-5.35l-.65-2.86h6.66zm3.12-6.6a2.24 2.24 0 0 1-2.24 2.24h-7.1a2.25 2.25 0 0 1-2.25-2.24v-9.29a2.24 2.24 0 0 1 2.25-2.24h7.1a2.24 2.24 0 0 1 2.24 2.24zM26.64 14a.75.75 0 0 0-.75.75V18a.75.75 0 1 0 1.5 0v-3.29a.76.76 0 0 0-.75-.71z"/><path d="M15.46 15a.78.78 0 0 0-.24.16.75.75 0 0 0 .53 1.28.72.72 0 0 0 .29-.06.74.74 0 0 0 .4-.4.72.72 0 0 0 .06-.29.75.75 0 0 0-1-.69zM17.71 14.29a.63.63 0 0 0-.24.16.78.78 0 0 0-.16.24.73.73 0 0 0 0 .58.63.63 0 0 0 .16.24.75.75 0 0 0 .53.22.72.72 0 0 0 .29-.06.78.78 0 0 0 .24-.16.63.63 0 0 0 .16-.24.72.72 0 0 0 .06-.29.75.75 0 0 0-1-.69zM20 16.42a.73.73 0 0 0 .58 0 .74.74 0 0 0 .4-.4.72.72 0 0 0 .06-.29.75.75 0 0 0-.22-.53.77.77 0 0 0-1.06 0 .75.75 0 0 0 0 1.06.63.63 0 0 0 .24.16zM20.78 19.7a.77.77 0 0 0-1.06 0 .75.75 0 0 0-.22.53.72.72 0 0 0 .06.29.74.74 0 0 0 .4.4.72.72 0 0 0 .29.06.75.75 0 0 0 .53-.22.63.63 0 0 0 .16-.24.73.73 0 0 0 0-.58.78.78 0 0 0-.16-.24zM15.22 19.7a.75.75 0 0 0-.22.53.72.72 0 0 0 .06.29.74.74 0 0 0 .4.4.73.73 0 0 0 .58 0 .74.74 0 0 0 .4-.4.72.72 0 0 0 .06-.29.75.75 0 0 0-.22-.53.77.77 0 0 0-1.06 0zM15.29 18.67a.63.63 0 0 0 .24-.16.75.75 0 0 0 0-1.06.63.63 0 0 0-.24-.16.75.75 0 1 0-.29 1.44.72.72 0 0 0 .29-.06zM17.47 20.45a.75.75 0 0 0-.22.53.72.72 0 0 0 .06.29.63.63 0 0 0 .16.24.75.75 0 0 0 1.06 0 .63.63 0 0 0 .16-.24.72.72 0 0 0 .06-.29.75.75 0 0 0-.22-.53.77.77 0 0 0-1.06 0zM21.29 17.29a.75.75 0 1 0-.29 1.44.72.72 0 0 0 .29-.06.63.63 0 0 0 .24-.16.75.75 0 0 0 0-1.06.63.63 0 0 0-.24-.16z"/></svg>