<svg xmlns="http://www.w3.org/2000/svg" viewBox="0 0 32 32"><path d="M27.95 13.29c-.04-.11-.13-.19-.25-.21l-7.9-1.15-3.53-7.16c-.04-.1-.15-.17-.27-.17-.12 0-.22.07-.28.17l-3.53 7.16-7.9 1.15c-.12.02-.21.1-.25.21-.04.11-.01.23.08.31l5.71 5.57-1.35 7.87c-.02.11.03.23.12.3.1.07.22.08.32.02L16 23.65l7.06 3.71c.04.02.09.04.14.04.06 0 .13-.02.18-.06.09-.07.14-.18.12-.3l-1.35-7.87 5.72-5.57c.09-.08.12-.2.08-.31zm-6.33 5.56c-.07.07-.1.17-.09.27l1.27 7.41-6.66-3.5c-.09-.05-.2-.05-.29 0l-6.66 3.5 1.27-7.41c.02-.1-.02-.2-.09-.27L5 13.6l7.44-1.08c.1-.02.19-.08.23-.17L16 5.6l3.33 6.74c.04.09.13.15.23.17L27 13.6l-5.38 5.25zm-4.98 3.81c-.04.08-.01.17.07.21l5.13 2.69c.02.01.05.02.07.02.06 0 .11-.03.14-.08.04-.07.01-.17-.06-.21l-5.13-2.69c-.09-.04-.18-.01-.22.06zM16.1 6.89c-.08-.04-.17-.01-.21.07l-2.45 4.96c-.04.08-.01.17.07.2.02.01.05.02.07.02.06 0 .11-.03.14-.09l2.45-4.96c.04-.07.01-.16-.07-.2zm-9.37 7.36c-.06-.06-.16-.06-.22 0s-.06.16 0 .22L11 18.84l-.67 3.92c-.01.08.04.16.12.18h.03c.07 0 .14-.05.15-.13l.69-4c.01-.05-.01-.1-.04-.14l-4.55-4.42z"/></svg>