<svg xmlns="http://www.w3.org/2000/svg" width="32" height="32" viewBox="0 0 32 32"><path d="M24.14 13.896c-.148-.156-.354-.242-.595-.247-.138-.004-.837-.004-.837-.005-.645-.037-1.076.173-1.243.625l-.85 2.056c-.112-.037-.23-.063-.36-.063H17.58v-1.207h1.76c.06 0 .117-.004.176-.01.456-.046.89-.272 1.218-.636.34-.376.535-.864.554-1.382.006-.025.01-.05.01-.077 0-.02-.002-.043-.007-.065 0-.052-.004-.106-.01-.162l-.6-5.832c-.123-1.218-.575-2.332-1.27-3.133-.725-.844-1.65-1.29-2.678-1.29H15.27c-1.027 0-1.954.446-2.68 1.29-.694.803-1.145 1.916-1.27 3.135l-.6 5.834c-.008.08-.012.154-.012.226 0 .014 0 .028.003.04.01.532.208 1.035.556 1.42.33.363.76.59 1.22.636.056.006.115.01.172.01h1.763v1.206h-2.677c-.13 0-.25.02-.363.052l-.84-2.035c-.158-.424-.523-.64-1.088-.64-.052 0-.106.003-.143.005 0 0-.715 0-.855.004-.24.004-.447.09-.596.246-.293.306-.28.787-.275.994v.053c-.007.308.287.384.872.536.145.037.35.09.46.128l1.206 3.254c.05.423.202.82.447 1.156l.016.02c.368.484.9.762 1.462.762l.922.002h.002l1.215.002c.045 0 .082 0 .11.002.004.027.006.056.006.08l-.01 1.587c0 .322.243.584.583.674l-.006.6c0 .392.36.7.823.707v.65h-.025c-2.175.112-3.73 1.68-4.283 2.327-.074-.02-.15-.036-.23-.036-.446 0-.81.362-.81.81 0 .445.363.81.81.81.446 0 .81-.365.81-.81 0-.14-.04-.27-.1-.385.503-.582 1.922-2.002 3.83-2.102v2.106c-.337.125-.578.446-.578.825 0 .487.396.882.883.882s.883-.396.883-.883c0-.38-.24-.7-.577-.826v-2.092c1.283.123 2.56.854 3.808 2.17-.05.106-.08.222-.08.345 0 .447.364.81.81.81.447 0 .81-.363.81-.81 0-.446-.362-.81-.81-.81-.097 0-.19.02-.277.053-1.376-1.455-2.807-2.253-4.26-2.374v-.66c.462-.008.822-.316.822-.712l-.007-.596c.34-.09.582-.352.582-.675l-.01-1.58c0-.026.004-.056.007-.085l.11-.002h.07l2.068-.003c.56 0 1.094-.278 1.46-.758l.026-.034c.238-.327.39-.722.44-1.146l1.207-3.254c.108-.038.314-.09.46-.13.603-.156.878-.227.87-.537v-.052c.006-.205.018-.687-.273-.992zM11.006 28.08c-.028.035-.046.076-.046.123 0-.047.018-.087.045-.122zm.15.32c.065 0 .12-.033.155-.08-.036.047-.09.08-.154.08zm.182-.12v-.004.004zm.015-.077c0-.054-.022-.103-.058-.14.036.036.058.085.058.14zm9.664.135c.015-.028.026-.058.026-.092 0 .034-.01.064-.026.092zm-.17-.288c.093 0 .167.067.187.154-.02-.087-.095-.154-.188-.154-.073 0-.134.042-.168.1.034-.06.095-.1.168-.1zm-.198.196c0 .014.005.025.007.038-.002-.012-.007-.024-.007-.038zm-7.99-13.802c-.038 0-.077-.003-.113-.006-.3-.03-.6-.19-.825-.438-.255-.282-.396-.654-.397-1.048 0-.01 0-.022-.002-.033.002-.043.005-.087.01-.132l.6-5.833c.11-1.095.51-2.088 1.123-2.797.606-.705 1.372-1.077 2.215-1.077h1.463c.843 0 1.61.373 2.216 1.08.613.707 1.012 1.7 1.123 2.795l.6 5.832c.004.046.006.09.007.132l-.002.032c0 .394-.14.766-.397 1.048-.224.248-.525.408-.823.438-.038.004-.076.007-.115.007h-2.068c-.17 0-.306.137-.306.306v1.514h-1.933V14.75c0-.168-.137-.305-.306-.305h-2.07zm-2.387 3.053l-.816-2.2c-.08-.212-.303-.27-.843-.41-.126-.033-.3-.078-.414-.114 0-.145.016-.358.106-.452.022-.023.064-.054.166-.056.137-.003.842-.004.858-.005.042-.003.085-.005.125-.005.392 0 .47.124.518.25l.877 2.122c-.207.198-.394.486-.575.87zm5.46 11.15c0-.073.03-.14.08-.19-.05.05-.08.117-.08.19zm.54 0c0-.073-.03-.14-.08-.19.05.05.08.117.08.19zm.02-4.804h-.58c-.15 0-.226-.078-.226-.094l.005-.567h1.02l.005.564c0 .02-.075.097-.225.097zm.578-1.273h-1.736c-.15 0-.224-.078-.224-.094l.01-1.59c0-.027-.005-.055-.007-.082h2.18c-.003.028-.007.058-.007.086l.01 1.584c0 .018-.075.096-.225.096zm4.08-2.93l-.022.03c-.255.334-.6.52-.975.52l-1.375.002h-.004l-6.52-.003c-.374 0-.72-.186-.98-.526l-.01-.014c-.142-.196-.243-.433-.296-.684.285.206.637.313.98.313h8.513c.344 0 .696-.108.98-.314-.053.25-.153.487-.288.674zm-.692-.822h-8.513c-.423 0-1.09-.273-1.117-1 .4-.91.725-1.094 1.117-1.094h8.513c.397 0 .692.29 1.117 1.1-.03.723-.695.994-1.117.994zm3.134-3.932c-.54.14-.764.198-.843.41l-.82 2.212c-.17-.318-.358-.62-.586-.848l.896-2.166c.043-.116.12-.24.513-.24.04 0 .082.002.14.004 0 0 .706 0 .843.004.102.002.143.034.166.057.09.094.105.307.105.452-.116.037-.288.082-.415.114zm-4.04-1.136l.033-.002c.133-.014.272-.09.38-.213.082-.09.218-.284.22-.583v-.06l-.603-5.866c-.098-.955-.44-1.813-.96-2.415-.476-.553-1.044-.834-1.688-.834H15.27c-.645 0-1.214.282-1.692.838-.52.6-.86 1.458-.958 2.414-.6 5.852-.602 5.86-.602 5.874v.05c0 .3.136.495.218.586.11.12.25.2.376.212l6.73.003h.008zm-6.71-.308c-.04-.004-.115-.044-.177-.112-.052-.058-.138-.183-.14-.382v-.035l.6-5.855c.093-.894.407-1.692.887-2.245.418-.485.908-.73 1.46-.73h1.462c.55 0 1.04.244 1.457.728.48.556.794 1.354.886 2.247 0 0 .597 5.8.6 5.842v.05c0 .197-.086.32-.138.38-.07.077-.143.11-.178.113h-6.72z"/></svg>