<svg xmlns="http://www.w3.org/2000/svg" viewBox="0 0 31.68 31.68"><path d="M15.84 24.04c-.09 0-.17-.04-.23-.11L8.4 15.26c-.31-.31-.43-.71-.3-1.03.06-.14.27-.49.93-.42l3.08.46V4.02c0-.16.13-.3.3-.3h6.88c.16 0 .3.13.3.3v10.25l3.07-.46c.07-.01.13-.01.18-.01.52 0 .71.3.76.43.13.32.01.72-.32 1.05l-7.19 8.66c-.08.06-.16.1-.25.1zM8.85 14.4c-.13 0-.2.03-.21.06-.02.06.02.23.19.4l7 8.42 6.98-8.4c.19-.19.24-.36.21-.42-.02-.04-.13-.07-.31-.05l-3.4.51c-.09.01-.17-.01-.24-.07-.07-.06-.1-.14-.1-.23V4.32H12.7v10.3c0 .09-.04.17-.1.23s-.15.08-.24.07l-3.41-.52h-.1zM22.81 27.96H8.87c-.15 0-.27-.13-.27-.3v-2.23c0-.16.12-.3.27-.3H22.8c.15 0 .27.13.27.3v2.23c.01.17-.11.3-.26.3zm-13.66-.6h13.39v-1.64H9.15v1.64z"/></svg>