<svg xmlns="http://www.w3.org/2000/svg" viewBox="0 0 31.68 31.68"><path d="M21.32 8.24c.16.12.35.17.55.16.05.07.14.12.23.12h.03c.07-.01.14-.04.19-.08.07-.04.15-.07.23-.09.22-.04.42-.17.54-.36.1-.21.02-.47-.19-.57h-.01c-.15-.1-.22-.15-.26-.28 0-.05-.02-.1-.03-.15-.02-.1-.04-.19-.08-.28-.14-.34-.34-.34-.45-.34-.24.06-.42.25-.47.49-.18.04-.33.14-.44.28-.25.35-.18.83.16 1.1zm.2-1c.07-.05.15-.08.24-.1.08 0 .14-.06.15-.14.01-.14.08-.27.2-.34 0 0 .05.02.1.14.03.07.05.14.06.22 0 .06.02.12.04.17.05.21.19.4.39.5.11.08.11.09.08.14s-.18.14-.34.18c-.11.03-.22.08-.32.13-.03-.06-.09-.1-.16-.1h-.03c-.14.03-.29-.01-.41-.09-.09-.07-.16-.17-.17-.29-.05-.15.02-.33.17-.42zm6.66 6.11C26.8 6.53 20.14 2.12 13.32 3.5c-4.29.87-7.81 3.9-9.32 8-1.79 5.01-.28 10.61 3.77 14.05 2.28 1.87 5.14 2.89 8.09 2.88 2.29.01 4.53-.61 6.49-1.79 4.54-2.77 6.87-8.07 5.83-13.29zm-4.07-5.87v-.09.13c.07.26.31.45.58.46.93 1.03 1.67 2.22 2.19 3.51-.03-.02-.05-.05-.07-.08-.09-.19-.3-.1-.36-.07-.1.05-.2.07-.31.07-.03-.01-.06-.02-.08-.04-.15-.13-.24-.32-.23-.52v-.09c.02-.11.01-.23-.02-.34-.15-.26-.37-.48-.63-.64-.09-.06-.2-.06-.29 0-.14.1-.13.3-.1.49.02.1.04.19.07.28.05.12.07.25.07.38v.04c-.23-.13-.44-.29-.61-.49l-.03-.03c-.05-.05-.09-.1-.13-.16-.09-.16-.24-.29-.41-.36-.32-.11-.53.14-.69.3l-.02.04-.09.09c-.17.19-.35.37-.55.53-.1.06-.2.08-.32.08H22c-.18.04-.36.01-.52-.08-.05-.04-.08-.1-.08-.17-.05-.26.01-.53.16-.74.03-.01.06-.01.09 0 .05-.01.09-.01.14 0 .06.03.11.07.16.11.15.18.39.24.6.15.2-.09.3-.33.2-.53-.01-.02-.02-.03-.03-.05-.06-.09-.13-.18-.21-.25l-.24-.22h.07c.11-.03.21-.1.27-.2.01-.02.03-.04.05-.06.06-.04.12-.07.19-.09.06-.02.11-.04.16-.07.2-.11.38-.26.52-.44l.11-.12c.03-.03.07-.07.11-.1.16-.1.27-.26.31-.44.05-.05.05-.12.05-.19zM20.6 5.03c.02-.01.04-.03.06-.04.02.01.04.02.05.04.04.05.08.09-.08.29-.18.22-.49.28-.73.14-.19-.09-.32-.28-.32-.5.04.02.08.04.12.07l.13.08c.17.09.38.11.57.04.07-.04.14-.08.2-.12zm-4.89-.69c.07-.04.12-.11.14-.2.02-.08-.01-.17-.07-.22h.05c.63 0 1.25.05 1.87.15.34.05.71.13 1.05.22-.19.05-.37.1-.56.16-.44.14-.84.41-1.13.77-.09.13-.17.26-.24.39-.08.18-.19.34-.31.48-.06.07-.14.11-.23.11-.06-.02-.11-.06-.15-.11-.22-.22-.4-.49-.52-.78-.14-.33-.17-.78.1-.99v.02zm-2.62-.09c.06.06.13.11.2.15.1.06.2.1.31.14l.17.07c.12.05.11.17-.04.5-.11.25-.2.3-.22.31-.01.01-.03.01-.04 0-.07-.04-.14-.1-.2-.16-.08-.08-.16-.15-.26-.21l-.1-.05c-.05-.02-.1-.05-.14-.1-.06-.08-.1-.16-.15-.25l-.08-.14-.06-.09c.21-.06.41-.12.61-.17zM8.22 25.02c-3.76-3.19-5.21-8.33-3.66-13.01.01.24.05.49.11.72.03.1.06.2.08.31.05.43.27.83.6 1.11.07.05.16.05.22 0 .17-.34.19-.73.07-1.09-.04-.11-.04-.23 0-.34l.02-.05c.31 1.27 1.15 2.34 2.31 2.94.18.09.36.17.55.25.27.1.52.23.77.37.39.21.66.59.73 1.03 0 .25-.05.5-.15.73-.08.21-.14.43-.16.66-.07.77.41 1.37.87 1.96.27.31.5.65.69 1.01.36.78.26 1.65.14 2.58-.11.93-.22 1.83.13 2.68 0 .04.03.08.05.11-1.23-.47-2.37-1.13-3.37-1.97zm4.14 2.15c-.2.03-.4-.21-.5-.44-.32-.77-.21-1.61-.1-2.5.11-.9.23-1.9-.17-2.77-.2-.38-.44-.75-.72-1.07-.44-.56-.86-1.08-.8-1.72.03-.2.08-.4.15-.58.11-.27.17-.56.16-.86-.07-.55-.4-1.04-.9-1.3-.26-.15-.53-.29-.82-.4-.18-.08-.34-.15-.53-.24-1.16-.6-1.97-1.72-2.19-3.01-.01-.05-.04-.1-.09-.12-.05-.02-.1-.02-.15 0-.18.09-.32.25-.38.44-.08.2-.08.42 0 .61.05.16.06.33.03.49-.14-.23-.23-.48-.28-.74-.03-.11-.05-.22-.09-.34-.09-.35-.13-.72-.11-1.08v-.37c1.29-2.99 3.74-5.33 6.79-6.47-.22.25-.44.51-.63.78-.03.04-.07.1-.1.11-.06 0-.11-.02-.16-.05l-.07-.03c-.47-.19-1 .04-1.19.51-.08.19-.09.41-.02.61.16.36.44.65.79.83.28.14.49.38.59.67.01.07.07.13.15.14.07.01.15-.03.18-.1.12-.27.29-.52.5-.74.05-.04.08-.1.1-.15.02-.08.02-.16 0-.23-.05-.19-.05-.39 0-.58.05-.17.18-.31.34-.37.15-.05.32-.01.43.11.03.04.06.09.08.13.06.25.31.4.56.34.04-.01.07-.02.1-.04h.04c.04 0 .15-.05.34.28l.77 1.26c.14.18.22.4.23.63-.01.1-.07.2-.15.26-.04.03-.1.05-.15.03-.15-.07-.28-.18-.39-.31-.13-.16-.3-.28-.5-.34h-.06c-.15-.06-.33-.04-.47.04-.21.16-.08.4 0 .59.15.19.2.45.12.69-.07.15-.22.17-.47.2-.17.01-.33.04-.49.11-.34.2-.62.49-.82.83-.13.21-.29.41-.47.58-.42.34-.88.83-.81 1.5 0 .13-.01.26-.03.38-.09-.05-.16-.12-.2-.21-.14-.5-.37-.8-.69-.89-.48-.13-.99.28-1.37.67-.31.28-.44.71-.34 1.11.07.23.23.42.45.53.18.09.4.11.59.03.06-.02.12-.05.17-.08.08-.05.17-.08.26-.1.19-.03.27.08.41.34l.05.09c.18.29.4.55.66.77.4.36.96.49 1.48.34.71-.15 1.42.46 2.06.99l.2.17c.17.14.34.29.49.44.49.5 1.06.91 1.68 1.22l.25.1c.16.06.32.13.47.22l.07.05c.2.13.31.36.27.6-.05.13-.13.25-.24.34-.09.09-.18.19-.25.31-.12.24-.18.52-.16.79.01.19-.02.39-.09.57-.15.24-.35.44-.6.58-.22.14-.41.31-.57.51-.13.19-.24.39-.31.61-.05.13-.1.25-.16.37-.14.25-.41.48-.66.41-.09-.03-.19.02-.21.11-.01.04-.01.08 0 .11.06.16-.09.34-.26.48l-.17.11c-.2.11-.37.26-.5.45-.13.27-.17.56-.12.85v.2c.01.24-.07.58-.3.61zm9.65-1.12c-2.79 1.66-6.13 2.12-9.26 1.28.19-.22.28-.5.26-.78v-.22c-.04-.22-.01-.45.08-.66.1-.14.24-.26.39-.34l.19-.12c.22-.14.37-.37.42-.63.35-.06.65-.28.81-.6.07-.13.13-.27.18-.41.06-.19.15-.37.26-.53.14-.16.31-.3.49-.42.29-.18.53-.43.69-.74.08-.22.12-.45.11-.69-.01-.22.03-.43.12-.63.06-.09.12-.17.2-.24.14-.13.25-.29.32-.46.08-.38-.08-.76-.4-.97l-.09-.06c-.16-.11-.34-.19-.52-.27l-.23-.1c-.59-.3-1.12-.7-1.59-1.17-.17-.15-.34-.3-.5-.45l-.2-.17c-.65-.56-1.46-1.26-2.34-1.07-.41.12-.86.02-1.17-.27-.23-.2-.42-.43-.57-.69l-.04-.09c-.13-.25-.32-.62-.78-.53-.12.03-.24.07-.34.13l-.15.07c-.1.04-.21.03-.31-.02-.14-.04-.24-.16-.28-.3-.06-.29.04-.58.26-.78.17-.17.69-.69 1.05-.58.19.05.34.27.44.65.08.21.25.38.47.45.11.03.22 0 .3-.08.15-.15.13-.69.13-.69-.05-.51.32-.89.69-1.2.21-.19.39-.41.54-.64.16-.29.4-.54.69-.72.12-.05.25-.07.37-.08.3.02.58-.12.74-.37.13-.33.08-.71-.13-1.01-.03-.05-.06-.11-.08-.16.05 0 .1.01.15.02h.07c.13.06.23.15.32.26.14.18.33.32.54.4.15.05.32.02.45-.07.17-.12.28-.31.3-.52-.01-.3-.11-.59-.28-.83L14 6.69c-.23-.38-.48-.52-.75-.43l-.05.02c-.03.02-.07.03-.1.03-.04 0-.09-.09-.14-.17-.03-.06-.07-.12-.11-.17-.2-.24-.52-.32-.81-.22-.27.1-.47.32-.56.59-.08.25-.09.52-.03.78v.04l-.03.03c-.15.16-.27.33-.38.51-.16-.21-.36-.39-.59-.53-.29-.14-.51-.37-.65-.65-.09-.3.09-.62.39-.7.12-.03.25-.03.36.02l.06.03c.12.07.26.09.4.07.12-.04.22-.13.28-.23.24-.33.5-.64.78-.95.04-.04.08-.08.13-.11.01.02.03.04.04.06l.07.13c.05.1.11.2.17.29.07.09.16.16.26.21l.08.04c.07.04.13.09.18.15.08.09.18.17.29.23.1.04.21.04.31 0 .2-.1.35-.28.42-.49.11-.24.32-.73-.13-.95l-.2-.08c-.05-.02-.1-.05-.15-.07.57-.11 1.14-.18 1.72-.21.04.06.09.12.16.15h.02c-.35.31-.33.89-.14 1.34.14.33.34.63.6.89.09.1.2.17.32.2h.1c.17-.01.34-.09.45-.22.15-.16.27-.35.37-.55.06-.12.13-.23.21-.34.25-.31.59-.54.97-.66.25-.09.51-.16.77-.22l.34-.09c.3.1.6.21.89.34-.09.03-.2.03-.28-.02l-.11-.06c-.13-.09-.29-.13-.45-.12h-.02c-.05.01-.1.03-.12.08-.01.01-.02.03-.02.04-.11.41.09.85.48 1.03.14.07.3.11.46.11.27 0 .52-.13.69-.34.09-.1.15-.22.18-.34 1.01.51 1.95 1.17 2.79 1.94-.06.07-.1.15-.11.25v.25c0 .08-.1.15-.19.23-.05.04-.09.08-.14.12l-.12.13c-.12.15-.27.27-.43.37-.04.02-.08.04-.13.05-.1.03-.19.08-.28.14-.04.04-.08.08-.11.13-.01.02-.03.04-.05.06h-.06c-.13-.02-.26.03-.34.13-.05.09-.05.19 0 .28.03.06.07.11.13.16l.26.25c.06.05.1.1.14.16.03.05.03.08-.04.12-.08.04-.08 0-.22-.11-.08-.07-.17-.13-.27-.17-.1-.03-.2-.03-.3-.01-.09.01-.18.04-.26.1-.34.26-.32.85-.3 1.03.01.16.08.3.2.4.23.15.5.21.77.15h.07c.18 0 .35-.05.49-.15.21-.17.41-.37.59-.57l.09-.09.07-.08c.14-.16.22-.23.3-.2.1.05.19.14.24.24.05.07.1.14.16.21l.03.03c.47.46.83.73 1.06.54.09-.08.13-.19.14-.31.01-.18-.02-.35-.09-.51-.03-.08-.05-.16-.06-.24v-.04c.14.1.26.23.34.38.01.06.01.12 0 .19v.1c-.02.31.11.61.34.81.08.07.17.11.28.12.15.01.31-.02.45-.09.12.14.29.22.47.23.06.16.11.34.16.49h-.12c-.09.01-.17.02-.25.04-.07.02-.15.03-.23.03-.1-.03-.2-.07-.28-.13-.19-.12-.44-.28-.69-.08-.08.07-.14.16-.16.27-.02-.02-.03-.04-.05-.06-.06-.11-.16-.19-.28-.22-.05-.01-.09-.02-.14-.02h-.1c-.13-.05-.24-.16-.28-.3-.02-.05-.03-.1-.04-.16-.01-.18-.1-.34-.24-.46-.08-.07-.18-.11-.28-.13-.51-.04-1.02.04-1.48.25-.13.05-.26.07-.39.07-.15 0-.3.03-.45.08-.3.16-.53.43-.65.76-.03.08-.06.16-.08.24-.02.14-.11.27-.25.32-.26.1-.46.33-.58.6-.15.37-.22.76-.21 1.16V15l-.03.31c-.02.15-.04.31-.04.46 0 .79.63 1.49 1.27 1.77.42.15.88.15 1.29 0 .27-.09.57-.12.85-.09.28.05.69.26.64.55l-.03.15c-.11.36-.03.75.23 1.03.04.06.08.13.11.19.16.29.22.62.2.94-.02.15-.06.3-.13.43-.12.24-.17.52-.13.79.04.16.1.31.19.44.05.08.09.16.12.24.06.21.09.43.08.65v.31c.02.21.06.41.13.61-.78.89-1.7 1.66-2.71 2.27zm2.98-2.59c-.03-.1-.05-.21-.06-.32v-.29c.01-.26-.03-.52-.11-.77-.04-.1-.09-.2-.14-.29-.07-.11-.12-.22-.15-.34-.02-.21.02-.41.12-.59.08-.17.13-.35.15-.53.03-.39-.05-.79-.24-1.14l-.12-.21c-.13-.16-.21-.35-.23-.55.01-.07.02-.14.04-.21.02-.06.03-.13.04-.19.08-.54-.52-.86-.92-.93-.34-.05-.7-.01-1.03.1-.34.13-.72.14-1.07.02-.52-.23-1.07-.82-1.06-1.45 0-.14.02-.28.04-.42 0-.11.03-.22.04-.34.01-.12 0-.23 0-.34-.02-.35.05-.7.18-1.03.09-.2.23-.37.42-.48.22-.09.38-.29.42-.53.02-.07.04-.14.07-.21.08-.24.24-.44.46-.57.11-.03.23-.05.34-.05.19 0 .37-.03.54-.1.41-.18.86-.26 1.31-.22.05 0 .1.01.14.03.05.03.07.11.09.24.01.08.03.15.06.22.08.24.27.43.51.5.05.01.1.02.14.03h.1c.03 0 .04.02.08.08.05.08.12.15.2.2.13.09.31.06.4-.07.03-.04.05-.09.05-.14.01-.04.03-.08.05-.12.04-.03.1 0 .28.1.13.09.27.16.43.19.12.01.23-.01.34-.04.06-.02.12-.03.19-.03.05 0 .11.01.16.02h.06c.07.25.13.5.19.76.72 3.55-.22 7.23-2.53 10.01h.02z"/></svg>