<svg xmlns="http://www.w3.org/2000/svg" viewBox="0 0 36 36"><title>Icon-Red_Hat-Hardware-Laptop-A-Black-RGB</title><path d="M33 27.27H3a.75.75 0 0 0 0 1.5h30a.75.75 0 0 0 0-1.5zM6 25.75h24a.76.76 0 0 0 .75-.75V9a.76.76 0 0 0-.75-.75h-9a.75.75 0 0 0 0 1.5h8.25v14.5H6.75V9.75H15a.75.75 0 0 0 0-1.5H6a.75.75 0 0 0-.75.75v16a.75.75 0 0 0 .75.75z"/><path d="M17.47 9.53a.75.75 0 0 0 .53.22.77.77 0 0 0 .53-.22.75.75 0 0 0 0-1.06.77.77 0 0 0-1.06 0 .63.63 0 0 0-.16.24.73.73 0 0 0 0 .58.63.63 0 0 0 .16.24z"/></svg>