<svg xmlns="http://www.w3.org/2000/svg" viewBox="0 0 32 32"><path d="M16 10.29c2.1 0 3.82-1.71 3.82-3.82S18.1 2.66 16 2.66s-3.82 1.71-3.82 3.82 1.72 3.81 3.82 3.81zm0-7.09c1.8 0 3.27 1.47 3.27 3.27S17.8 9.75 16 9.75s-3.27-1.47-3.27-3.27S14.2 3.2 16 3.2zm-5.12 22.74h10.39c.05 0 .09-.04.09-.09s-.04-.09-.09-.09H10.88c-.05 0-.1.04-.1.09 0 .05.04.09.1.09zm11.25-2.47c.01 0 .01 0 0 0 1.04-.81 2-1.77 2-3.35v-3.05c0-3.89-2.14-6.04-6.03-6.04h-4.2c-3.89 0-6.03 2.14-6.03 6.04v3.05c0 1.67 1.09 2.66 2.12 3.45v1.07c0 .24.11.44.27.59-.15.13-.25.31-.27.51l-1.63 1.88c-.03.03-.05.08-.05.13 0 .52.2.78.59.78h14.18c.39 0 .59-.26.59-.78 0-.04-.01-.09-.04-.12l-1.51-1.88c-.02-.21-.12-.39-.27-.52.17-.14.27-.35.27-.59l.01-1.17zM8.41 20.12v-3.05c0-2.51.95-5.49 5.49-5.49h4.19c4.54 0 5.49 2.99 5.49 5.49v3.05c0 1.14-.57 1.91-1.45 2.65v-4.73c0-.43-.35-.78-.78-.78h-.44v-1.72c0-.15-.12-.27-.27-.27s-.27.12-.27.27v1.72H11.6v-1.72c0-.15-.12-.27-.27-.27s-.27.12-.27.27v1.72h-.29c-.43 0-.78.35-.78.78v4.83c-.98-.81-1.58-1.59-1.58-2.75zm12.84-2.38c.22 0 .39.17.39.39v6.47c0 .21-.17.39-.39.39H10.87c-.21 0-.39-.17-.39-.39v-6.47c0-.21.18-.39.39-.39h10.38zm1.91 9.98c-.01.32-.12.32-.2.32H9.04c-.08 0-.19 0-.2-.32l1.59-1.84c.03-.03.05-.08.05-.12 0-.22.18-.39.39-.39h10.38c.22 0 .39.17.39.39 0 .04.01.08.04.12l1.48 1.84zm-6.28-5.89c.02 0 .04-.01.05-.02l2.73-1.84c.04-.03.06-.09.03-.13-.03-.04-.09-.05-.13-.02l-2.73 1.83c-.04.03-.06.09-.03.13.02.03.05.05.08.05zm-6.34 4.75h11.02c.05 0 .09-.04.09-.09 0-.05-.04-.09-.09-.09H10.54c-.05 0-.1.04-.1.09s.04.09.1.09zm.84-1.96h9.36c.26 0 .47-.23.47-.51v-5.43c0-.28-.21-.51-.47-.51h-4.39v-.04c0-.17-.13-.3-.3-.3-.16 0-.3.13-.3.3v.04h-4.39c-.26 0-.48.23-.48.51v5.43c.03.29.24.51.5.51zm-.19-5.93c0-.12.09-.22.19-.22h9.36c.1 0 .19.1.19.22v5.43c0 .12-.09.22-.19.22h-9.36c-.1 0-.19-.1-.19-.22v-5.43zm4.88 4.4c.02 0 .04 0 .05-.02l2.17-1.46c.04-.03.05-.09.02-.13-.03-.04-.09-.05-.13-.02l-2.17 1.46c-.04.03-.05.09-.03.13.03.03.06.04.09.04zm-6.18 4.04c0 .05.04.09.1.09h11.94c.05 0 .09-.04.09-.09s-.04-.1-.09-.1H9.98c-.05 0-.1.04-.09.1z"/></svg>