<svg xmlns="http://www.w3.org/2000/svg" viewBox="0 0 36 36"><title>Icon-Red_Hat-Hardware-Hypervisor-A-Black-RGB</title><path d="M29 22.75a.67.67 0 0 0 .28-.06.82.82 0 0 0 .25-.16.75.75 0 0 0 .22-.53.72.72 0 0 0-.06-.29.78.78 0 0 0-.16-.24.74.74 0 0 0-.25-.17.78.78 0 0 0-1 .41.71.71 0 0 0 0 .29.73.73 0 0 0 .22.53.75.75 0 0 0 .5.22z"/><path d="M32 18.25H4a.76.76 0 0 0-.75.75v7a.76.76 0 0 0 .75.75h28a.76.76 0 0 0 .75-.75v-7a.76.76 0 0 0-.75-.75zm-.75 7H4.75v-5.5h26.5z"/><path d="M7 23.75h2.66a.75.75 0 0 0 0-1.5H7a.75.75 0 0 0 0 1.5zM3.71 16.67a.73.73 0 0 0 .58 0 .78.78 0 0 0 .24-.16.75.75 0 0 0 .22-.51.72.72 0 0 0-.06-.29.74.74 0 0 0-.4-.4.75.75 0 0 0-.82.16.63.63 0 0 0-.16.24.72.72 0 0 0-.06.29.75.75 0 0 0 .22.53.78.78 0 0 0 .24.14z"/><circle cx="4" cy="13.48" r=".75"/><path d="M3.47 11.51a.63.63 0 0 0 .24.16.72.72 0 0 0 .29.06.75.75 0 0 0 .53-.22.63.63 0 0 0 .16-.24.72.72 0 0 0 .06-.27.75.75 0 0 0-.22-.53.78.78 0 0 0-.24-.16.73.73 0 0 0-.58 0 .78.78 0 0 0-.24.16.63.63 0 0 0-.16.24.73.73 0 0 0 0 .58.63.63 0 0 0 .16.22z"/><circle cx="14.18" cy="10.98" r=".75"/><circle cx="16.73" cy="10.98" r=".75"/><circle cx="21.82" cy="10.98" r=".75"/><circle cx="19.27" cy="10.98" r=".75"/><circle cx="29.45" cy="10.98" r=".75"/><circle cx="26.91" cy="10.98" r=".75"/><circle cx="24.36" cy="10.98" r=".75"/><circle cx="9.09" cy="10.98" r=".75"/><circle cx="6.55" cy="10.98" r=".75"/><circle cx="11.64" cy="10.98" r=".75"/><path d="M31.47 11.51a.78.78 0 0 0 .24.16.73.73 0 0 0 .58 0 .74.74 0 0 0 .4-.4.73.73 0 0 0 0-.58.74.74 0 0 0-.4-.4.73.73 0 0 0-.58 0 .74.74 0 0 0-.4.4.73.73 0 0 0 0 .58.63.63 0 0 0 .16.24z"/><circle cx="32" cy="13.48" r=".75"/><path d="M32.53 15.45a.78.78 0 0 0-.24-.16.75.75 0 0 0-.82.16.63.63 0 0 0-.16.24.72.72 0 0 0-.06.29.75.75 0 0 0 .22.53.78.78 0 0 0 .24.16.73.73 0 0 0 .58 0 .78.78 0 0 0 .24-.16.75.75 0 0 0 .22-.53.72.72 0 0 0-.06-.29.78.78 0 0 0-.16-.24z"/><circle cx="14.18" cy="15.98" r=".75"/><circle cx="26.91" cy="15.98" r=".75"/><path d="M29.45 16.73a.75.75 0 1 0 0-1.5.75.75 0 0 0 0 1.5zM6.55 16.73a.75.75 0 1 0-.76-.73.76.76 0 0 0 .76.73zM11.64 16.73a.75.75 0 1 0-.76-.75.76.76 0 0 0 .76.75z"/><circle cx="19.27" cy="15.98" r=".75"/><circle cx="16.73" cy="15.98" r=".75"/><circle cx="24.36" cy="15.98" r=".75"/><circle cx="21.82" cy="15.98" r=".75"/><circle cx="9.09" cy="15.98" r=".75"/></svg>