<svg xmlns="http://www.w3.org/2000/svg" width="32" height="32" viewBox="0 0 32 32"><path d="M29.954 15.617l-4.8-3.97c-.25-.187-.52-.213-.726-.078-.244.16-.327.422-.218.67l.588 1.91-6.768.41c-.06-.074-.127-.145-.198-.21l.41-6.756 1.91.588c.246.108.51.023.672-.22.065-.098.19-.366-.087-.737l-3.96-4.787c-.06-.07-.146-.11-.237-.11s-.178.04-.236.11l-3.97 4.8c-.268.358-.143.626-.077.725.16.24.425.326.67.218l1.91-.587.402 6.763c-.07.063-.132.13-.19.203l-6.767-.41.588-1.913c.11-.247.027-.508-.217-.67-.203-.135-.466-.117-.738.086l-4.788 3.962c-.07.058-.11.145-.11.236s.04.18.11.237l4.8 3.97c.145.11.292.164.436.164.104 0 .204-.03.29-.086.243-.162.326-.423.217-.67l-.588-1.91 6.954-.413.015.015-.413 7.26-1.91-.587c-.245-.11-.51-.022-.67.218-.066.1-.19.368.086.738l3.96 4.787c.06.07.146.112.237.112s.178-.04.236-.11l3.97-4.8c.266-.36.143-.627.077-.727-.16-.24-.425-.326-.67-.218l-1.91.588-.424-7.252.024-.022 6.954.413-.588 1.91c-.11.248-.026.508.218.67.085.058.185.088.29.088.144 0 .29-.054.448-.172l4.788-3.96c.07-.06.11-.146.11-.237s-.04-.177-.11-.236zm-11.965.136c0 .284-.086.548-.228.772l-.008.015c-.138.21-.33.38-.556.498l-.016.008c-.195.097-.41.157-.642.157s-.448-.06-.642-.157l-.026-.014c-.224-.118-.415-.288-.552-.5 0-.003-.002-.006-.003-.007-.142-.224-.227-.488-.227-.772 0-.2.042-.393.116-.568.02-.048.05-.09.074-.136.098-.177.23-.33.39-.45.06-.046.123-.085.19-.12.202-.11.433-.18.68-.18.243 0 .47.067.67.173.07.037.137.077.2.124.155.118.283.265.382.434.03.05.06.1.083.154.074.175.116.367.116.568zM15.424 7.17c-.006-.095-.054-.18-.13-.235-.08-.054-.176-.07-.266-.04l-2.17.666 3.68-4.445 3.678 4.446-2.17-.667c-.09-.028-.187-.013-.265.04s-.126.14-.13.234l-.414 6.81c-.22-.087-.454-.136-.702-.136-.25 0-.49.05-.71.14l-.404-6.813zm-7.57 9.797c-.095.006-.18.054-.235.13-.054.078-.07.176-.04.266l.667 2.17-4.446-3.68 4.447-3.678-.668 2.17c-.03.09-.014.187.04.265.053.077.14.126.234.13l6.87.417c-.06.188-.096.388-.096.597 0 .287.066.558.18.802l-6.954.412zm9.797 7.877c.006.094.054.18.13.234.078.054.176.07.266.04l2.17-.666-3.68 4.446-3.678-4.446 2.17.668c.09.028.188.013.265-.04.077-.055.125-.14.13-.235l.418-7.315c.216.085.45.133.697.133.242 0 .474-.047.687-.13l.426 7.312zm7.18-5.31l.666-2.17c.028-.09.012-.188-.04-.266-.055-.077-.14-.125-.235-.13l-6.954-.413c.113-.244.178-.516.178-.802 0-.208-.035-.41-.097-.596l6.873-.416c.094-.005.18-.053.233-.13.054-.077.07-.175.04-.265l-.666-2.17 4.446 3.68-4.446 3.678z"/></svg>