<svg xmlns="http://www.w3.org/2000/svg" viewBox="0 0 32 32"><path d="M7.48 7.4c.15 0 .27-.12.27-.27s-.12-.27-.27-.27H6.04c-.15 0-.27.12-.27.27s.12.27.27.27h.47v15.22h-.47c-.15 0-.27.12-.27.27s.12.27.27.27h1.44c.15 0 .27-.12.27-.27s-.12-.27-.27-.27h-.43V7.4h.43zm18.48 15.76c-.15 0-.27.12-.27.27v.43l-16.77.02v-.45c0-.15-.12-.27-.27-.27s-.27.12-.27.27v1.44c0 .15.12.27.27.27s.27-.12.27-.27v-.45l16.77-.02v.47c0 .15.12.27.27.27s.27-.12.27-.27v-1.44c0-.15-.12-.27-.27-.27zm-8.2-3.1c.31 0 .57-.3.57-.68v-1.47c0-.37-.25-.68-.57-.68-.07 0-.14.02-.2.05-.28-.56-.87-.94-1.54-.94h-1.59c-.67 0-1.25.39-1.54.95-.07-.03-.14-.05-.21-.05-.31 0-.57.31-.57.68v1.47c0 .37.26.68.57.68.03 0 .07 0 .1-.01.04.13.09.25.16.37-.07.1-.12.26-.12.49 0 .5.85.85 1.34 1.02.02.01.4.15 1.07.15s1.05-.15 1.06-.15c.5-.17 1.35-.52 1.35-1.02 0-.23-.05-.38-.12-.49.07-.11.12-.24.16-.37h.08zm-4.81-.68c0 .18-.1.33-.22.36-.01 0-.02.01-.04.01-.14 0-.26-.17-.26-.37v-1.47c0-.2.12-.37.26-.37.03 0 .07.01.1.03.09.06.16.19.16.34v1.47zm3.21 2.19s-.34.13-.93.13c-.59 0-.93-.12-.94-.13-.75-.25-1.09-.53-1.09-.66 0-.06 0-.1.01-.14.02-.16.08-.17.15-.17.07 0 .15.02.23.03.01 0 .04.01.09.02.23.05.9.18 1.56.18s1.33-.13 1.56-.18c.05-.01.08-.02.08-.02.08-.02.17-.03.23-.03s.12 0 .14.17c0 .04.01.08.01.14 0 .12-.34.4-1.1.66zm1.02-1.34h-.08c-.1 0-.19.02-.31.04-.01 0-.81.19-1.56.19s-1.55-.18-1.56-.19c-.12-.02-.21-.04-.31-.04h-.08c-.07-.13-.13-.27-.16-.42.08-.12.13-.27.13-.43v-1.47c0-.12-.03-.22-.07-.32.19-.51.68-.88 1.25-.88h1.59c.57 0 1.05.36 1.25.86-.05.1-.08.21-.08.34v1.47c0 .17.06.33.14.45-.02.14-.08.27-.15.4zm.32-.85v-1.47c0-.16.08-.3.17-.35.03-.01.06-.03.09-.03.14 0 .26.17.26.37v1.47c0 .2-.12.37-.26.37-.01 0-.02-.01-.02-.01-.13 0-.24-.16-.24-.35zm8.46-12.52H8.74c-.12 0-.22.08-.25.18-.02.03-.03.06-.03.09v7.56c0 .11.09.19.19.19h12.47v7c0 .11.09.19.19.19h4.55c.03.01.06.02.09.02.15 0 .27-.12.27-.27V7.13c.01-.15-.11-.27-.26-.27zm-.27 14.83H21.5v-6.81h4.19v6.81zm0-7.19H8.85V7.4H25.7l-.01 7.1z"/></svg>