<svg xmlns="http://www.w3.org/2000/svg" width="32" height="32" viewBox="0 0 32 32"><path d="M5.084 16.328c-.05-.05-.13-.05-.18 0-.05.05-.05.13 0 .18l1.21 1.21c.026.026.06.038.09.038s.066-.012.09-.037c.05-.05.05-.13 0-.18l-1.21-1.212zm-.143.714c-.05-.05-.13-.05-.18 0-.05.05-.05.13 0 .18l.287.286c.025.025.057.037.09.037.033 0 .065-.012.09-.037.05-.05.05-.13 0-.18l-.286-.286zm22.972-3.15l-.302-1.21c-.195-.796-1.007-1.42-1.85-1.42H5.32c-.868 0-1.55.654-1.55 1.49l.008 5.643c0 .034.01.212.1.358.113.185.283.27.552.27.278.005.668.006 1.092.006.928 0 2.028-.007 2.525-.01h.682c-.004.04-.013.076-.013.115 0 .884.718 1.602 1.602 1.602.882 0 1.6-.718 1.6-1.602 0-.04-.008-.078-.01-.117h9.64c-.002.03-.01.062-.01.095 0 .883.72 1.602 1.602 1.602s1.602-.718 1.602-1.602c0-.034-.008-.065-.01-.1h.51l.323.002s.878.018 1.654.018c.717 0 .726-.007.808-.078.183-.157.198-.764.198-.77v-1.682c0-.73-.14-1.902-.316-2.614zm-17.59 6.338c-.603 0-1.094-.49-1.094-1.094-.004-.377.198-.624.198-.624.198-.283.526-.47.897-.47s.698.187.896.47c0 0 .208.285.197.623 0 .603-.49 1.094-1.094 1.094zm12.823-.02c-.603 0-1.094-.49-1.094-1.095 0-.033.008-.064.01-.097.032-.325.175-.507.175-.507.197-.293.53-.49.91-.49s.715.195.91.49c0 0 .17.21.186.605 0 .603-.49 1.094-1.094 1.094zm4.575-2.244h-2.785c-.07 0-.127.057-.127.127s.057.127.127.127h2.784c-.005.09-.022.212-.04.304-.087.002-.228.004-.456.004-.653 0-1.61-.014-1.902-.02l-.695.002c-.24-.584-.812-.996-1.48-.996-.67 0-1.242.413-1.482.998h-9.868c-.244-.573-.813-.976-1.475-.976s-1.232.404-1.475.978h-.8c-.497.003-1.594.01-2.52.01-.424 0-.81-.002-1.088-.006-.092 0-.116-.015-.126-.03-.012-.02-.024-.075-.025-.1v-.135h4.174c.07 0 .127-.057.127-.127S8.535 18 8.465 18H4.288l-.007-5.248c0-.56.448-.98 1.042-.98h20.44c.608 0 1.216.463 1.356 1.034l.302 1.208c.166.678.3 1.795.3 2.492v1.462zm-6.425.01h-9.12c-.07 0-.127.057-.127.127s.057.127.127.127h9.12c.07 0 .127-.057.127-.127s-.057-.126-.127-.126zM8.452 12.284H5.56c-.206 0-.374.168-.374.374v2.892c0 .205.168.373.374.373h2.892c.206 0 .374-.168.374-.374v-2.893c0-.206-.168-.374-.374-.374zm.068 3.266c0 .036-.03.067-.068.067H5.56c-.037 0-.067-.03-.067-.068v-2.893c0-.037.03-.067.067-.067h2.892c.037 0 .068.03.068.067v2.892zm4.625 0v-2.893c0-.206-.168-.374-.374-.374H9.88c-.207 0-.375.168-.375.374v2.892c0 .205.168.373.374.373h2.89c.207 0 .375-.167.375-.374zm-3.333 0v-2.893c0-.037.03-.067.067-.067h2.89c.038 0 .068.03.068.067v2.892c0 .036-.03.067-.067.067H9.88c-.036 0-.067-.03-.067-.068zm4.358.373h2.892c.206 0 .374-.168.374-.374v-2.893c0-.206-.168-.374-.374-.374H14.17c-.206 0-.374.168-.374.374v2.892c0 .206.168.373.374.373zm-.067-3.266c0-.037.03-.067.067-.067h2.892c.037 0 .068.03.068.067v2.892c0 .036-.03.067-.068.067H14.17c-.037 0-.067-.03-.067-.068v-2.893zm7.25-.383h-2.89c-.207 0-.375.168-.375.374v2.892c0 .206.168.374.374.374h2.892c.206 0 .374-.168.374-.374v-2.892c0-.206-.168-.374-.374-.374zm.068 3.265c0 .036-.03.067-.066.067h-2.892c-.037 0-.068-.03-.068-.068v-2.893c0-.037.03-.067.068-.067h2.892c.037 0 .067.03.067.067v2.892zm4.244-3.266h-2.892c-.206 0-.374.168-.374.374v2.89c0 .207.165.375.368.375l3.438.003c.506 0 .734-.263.734-.523 0-.916-.52-2.497-.778-2.886-.096-.146-.28-.233-.495-.233zm.54 3.336l-3.438-.003c-.034 0-.062-.03-.062-.068v-2.892c0-.037.03-.068.068-.068h2.892c.085 0 .193.025.24.096.232.354.726 1.867.726 2.717 0 .13-.172.217-.427.217z"/></svg>