<svg xmlns="http://www.w3.org/2000/svg" width="32" height="32" viewBox="0 0 32 32"><path d="M24.382 25.03l-3.716-7.808c-.01-.02-.025-.034-.038-.05l.062-.29c.034-.158.212-.356.367-.406l1.44-.47c.42-.136.65-.59.514-1.007l-.465-1.444c-.05-.154.006-.415.114-.536l1.01-1.128c.294-.327.268-.834-.06-1.13L22.487 9.75c-.12-.11-.203-.362-.17-.52l.313-1.483c.09-.43-.187-.856-.617-.948L20.53 6.48c-.158-.034-.356-.212-.406-.366l-.47-1.44c-.108-.33-.414-.553-.762-.553-.083 0-.166.014-.246.04l-1.442.466c-.145.047-.42-.01-.536-.114L15.54 3.5c-.314-.283-.846-.255-1.13.06l-1.014 1.124c-.106.117-.373.2-.52.17L11.39 4.54c-.424-.088-.857.197-.947.617l-.316 1.482c-.034.158-.212.356-.366.406l-1.44.47c-.418.137-.65.59-.513 1.008l.466 1.442c.05.154-.006.415-.114.536L7.146 11.63c-.294.327-.267.834.06 1.13l1.123 1.014c.12.11.203.362.17.52l-.313 1.484c-.09.43.186.856.616.948l1.482.317c.075.016.158.066.23.128L6.7 25.028c-.135.277-.276.563-.094.786.18.224.5.143.706.09l2.912-.486c.098-.017.217-.036.27-.037.03.04.082.128.108.173l1.7 2.864c.135.278.315.563.62.563.34 0 .517-.364.584-.5l2.042-4.136 2.027 4.134c.11.222.257.526.547.526.284 0 .428-.286.543-.52l1.795-2.858c.04-.058.118-.165.12-.175.03-.006.14.014.242.03l3.047.295c.22.034.447.07.586-.126.144-.203.026-.43-.075-.62zm-13.97-8.588l-1.48-.317c-.1-.02-.166-.123-.145-.222L9.1 14.42c.08-.372-.075-.846-.36-1.102l-1.123-1.015c-.075-.068-.082-.19-.014-.265l1.012-1.13c.254-.283.358-.77.24-1.133L8.39 8.333c-.032-.096.023-.204.12-.236l1.44-.47c.362-.12.696-.49.775-.863l.316-1.482c.022-.098.125-.166.223-.144l1.484.313c.366.078.854-.083 1.103-.358l1.015-1.125c.048-.053.11-.06.14-.06.046 0 .09.016.125.046l1.128 1.013c.198.178.51.288.81.288.117 0 .225-.016.324-.048l1.443-.466c.095-.032.205.026.236.12l.47 1.44c.12.363.49.697.863.776l1.482.317c.1.02.165.122.144.222l-.314 1.482c-.08.373.075.847.36 1.103l1.124 1.015c.075.068.082.19.014.265l-1.012 1.128c-.254.284-.358.77-.24 1.134l.465 1.443c.03.096-.024.204-.12.236l-1.44.47c-.364.12-.697.49-.777.863l-.317 1.482c-.022.098-.12.165-.222.144l-1.482-.314c-.367-.077-.855.083-1.103.36L15.95 19.55c-.048.053-.108.06-.14.06-.045 0-.09-.016-.124-.046l-1.13-1.013c-.197-.177-.51-.287-.81-.287-.116 0-.224.016-.323.048l-1.442.467c-.095.03-.204-.026-.235-.12l-.47-1.44c-.022-.07-.056-.136-.095-.2-.018-.066-.058-.12-.114-.163-.172-.204-.41-.362-.652-.414zm2.548 11.77c-.014.03-.028.053-.04.074-.022-.038-.05-.09-.083-.157l-1.71-2.883c-.28-.492-.45-.523-1.003-.43l-2.88.48c.002 0 .003-.002.004-.004l3.598-7.41.316.967c.108.33.414.552.762.552.083 0 .166-.013.245-.04l1.44-.465c.145-.048.42.01.537.114l1.13 1.014c.146.13.335.203.533.203.227 0 .443-.096.595-.263l1.015-1.125c.05-.056.136-.103.23-.135l-4.69 9.508zM21 24.89l-.082-.012c-.526-.084-.65-.033-.964.407l-1.814 2.886-.016.03-.004.007-2.233-4.555 2.42-4.91 1.116.235c.42.088.858-.195.948-.616l.052-.236 3.345 7.027L21 24.893zm-5.45-7.86c2.998 0 5.437-2.44 5.437-5.437 0-2.998-2.44-5.438-5.438-5.438-3 0-5.438 2.44-5.438 5.438 0 2.998 2.438 5.437 5.437 5.437zm0-10.414c2.744 0 4.977 2.233 4.977 4.978 0 2.745-2.233 4.977-4.978 4.977-2.746 0-4.978-2.233-4.978-4.977 0-2.745 2.232-4.978 4.977-4.978zm0 9.518c2.503 0 4.54-2.037 4.54-4.54 0-2.505-2.037-4.542-4.54-4.542-2.505 0-4.542 2.037-4.542 4.54 0 2.505 2.037 4.542 4.54 4.542zm0-8.7c2.292 0 4.157 1.867 4.157 4.16 0 2.29-1.866 4.157-4.158 4.157-2.294 0-4.16-1.865-4.16-4.158s1.866-4.158 4.16-4.158z"/></svg>