<svg id="Layer_1" xmlns="http://www.w3.org/2000/svg" viewBox="0 0 32 32"><style>.st0{fill:#010101;}</style><path class="st0" d="M15.77 17.45c.06.07.14.11.23.11s.17-.04.23-.11l5-6.01c.16-.19.19-.46.06-.69-.12-.22-.37-.34-.62-.3l-2.05.3V3.88c0-.16-.13-.3-.3-.3h-4.67c-.16 0-.3.13-.3.3v6.88l-2.05-.3c-.25-.04-.49.08-.62.3-.12.22-.1.49.06.69l5.03 6zm-2.15-6.06c.09.01.17-.01.24-.07.06-.06.1-.14.1-.22V4.17h4.07v6.92c0 .09.04.17.1.22.07.06.15.08.24.07l2.4-.33L16 16.79l-4.76-5.76 2.38.36zM25.69 20.22l-3.04-1.53c-.03-.02-.07-.02-.1-.02H9.96c-.03 0-.06.01-.09.02l-3.55 1.53c-.08.03-.13.11-.13.2v5.78c0 .12.1.22.22.22h19.18c.12 0 .22-.1.22-.22v-5.78c0-.08-.05-.16-.12-.2zM10 19.12h12.5l2.49 1.25H7.1l2.9-1.25zm15.37 6.86H6.63v-5.16h18.73c.01-.01.01 5.16.01 5.16z"/><path class="st0" d="M21.15 24.74h1.02c.08 0 .15-.07.15-.15v-2.64c0-.08-.07-.15-.15-.15h-1.02c-.08 0-.15.07-.15.15v2.64c0 .09.07.15.15.15zm.15-2.64h.72v2.35h-.72V22.1zM23.15 24.74h1.02c.08 0 .15-.07.15-.15v-2.64c0-.08-.07-.15-.15-.15h-1.02c-.08 0-.15.07-.15.15v2.64c0 .09.07.15.15.15zm.15-2.64h.72v2.35h-.72V22.1z"/><circle class="st0" cx="8.43" cy="23.37" r=".48"/><circle class="st0" cx="10.05" cy="23.37" r=".48"/></svg>