<svg xmlns="http://www.w3.org/2000/svg" viewBox="0 0 36 36"><title>Icon-Red_Hat-People_and_Audiences-CIO_ITDM-A-Black</title><path d="M14 20.74h8a.75.75 0 0 0 0-1.5h-.22v-5.25a.76.76 0 0 0-.75-.75.76.76 0 0 0-.75.76v5.24h-1.53V16a.75.75 0 0 0-1.5 0v3.25h-1.5V18a.75.75 0 1 0-1.5 0v1.25H14a.75.75 0 1 0 0 1.5zm15-12.5H7a.76.76 0 0 0-.75.76v15a.75.75 0 0 0 .75.75h8.25v1.52H12a.75.75 0 0 0 0 1.5h12a.75.75 0 0 0 0-1.5h-3.25v-1.53H29a.75.75 0 0 0 .75-.75V9a.76.76 0 0 0-.75-.76zm-9.75 18h-2.5v-1.5h2.5zm9-3H7.75V9.74h20.5z"/></svg>