<svg data-name="graph-steady-up" xmlns="http://www.w3.org/2000/svg" viewBox="0 0 36 36"><title>Icon-Red_Hat-Diagrams-Graph_Steady_Up-A-Black-RGB</title><path d="M23.25 10v6.46a.75.75 0 0 0 1.5 0V10a.75.75 0 0 0-1.5 0zm8.44 9.22a.76.76 0 0 0-.89-.58L4.89 24.06a.75.75 0 0 0-.58.89.74.74 0 0 0 .73.6h.16l25.91-5.42a.74.74 0 0 0 .58-.91zM7 22.48a.74.74 0 0 0 .75-.75v-14h20.5V17a.75.75 0 0 0 1.5 0V7a.75.75 0 0 0-.75-.75H7a.76.76 0 0 0-.75.75v14.73a.75.75 0 0 0 .75.75zM17.25 10v7.71a.75.75 0 0 0 1.5 0V10a.75.75 0 0 0-1.5 0zM29 22a.76.76 0 0 0-.75.75v5.5H7.75V27a.75.75 0 0 0-1.5 0v2a.76.76 0 0 0 .75.75h22a.75.75 0 0 0 .75-.75v-6.25A.75.75 0 0 0 29 22zM11.25 10v9a.75.75 0 0 0 1.5 0v-9a.75.75 0 0 0-1.5 0z"/></svg>