<svg data-name="carrot" xmlns="http://www.w3.org/2000/svg" viewBox="0 0 36 36"><title>Icon-Red_Hat-</title><path d="M29 8.1A.75.75 0 0 0 27.9 7l-2.65 2.69a.74.74 0 0 0 0 1.06.71.71 0 0 0 .53.22.74.74 0 0 0 .53-.22zm-5.83 2a.74.74 0 0 0 .53-.22 4.51 4.51 0 0 0 .88-5.12.75.75 0 0 0-1.36.65 3 3 0 0 1-.58 3.41.74.74 0 0 0 0 1.06.73.73 0 0 0 .49.21zm8.12 1.37a4.53 4.53 0 0 0-5.12.88.75.75 0 0 0 0 1.06.75.75 0 0 0 1.06 0 3 3 0 0 1 3.41-.58.75.75 0 0 0 .65-1.36zm-11.77-.6a5.12 5.12 0 0 0-3.77 2.32L4.45 30.52a.73.73 0 0 0 .1.93.71.71 0 0 0 .53.22.72.72 0 0 0 .4-.12l17.34-11.26a5.14 5.14 0 0 0-3.34-9.43zM22 19l-4.57 3-1.72-1.72a.75.75 0 1 0-1.06 1.06l1.49 1.49-8.51 5.54 8.31-12.79 2.24 2.24a.75.75 0 0 0 1.06 0 .75.75 0 0 0 0-1.06l-2.47-2.47L17 14a3.62 3.62 0 0 1 2.68-1.64 2.48 2.48 0 0 1 .38 0A3.64 3.64 0 0 1 22 19z"/></svg>