<svg xmlns="http://www.w3.org/2000/svg" viewBox="0 0 36 36"><path d="M14.436 30.258h-8.7V5.742h8.705c.415 0 .75-.336.75-.75s-.335-.75-.75-.75H4.98c-.413 0-.75.336-.75.75v26.016c0 .414.337.75.75.75h9.456c.414 0 .75-.336.75-.75s-.336-.75-.75-.75zM31.76 4.99c0-.413-.346-.748-.76-.748h-9.457c-.414 0-.75.336-.75.75s.336.75.75.75h8.717v24.51h-8.696c-.414 0-.75.337-.75.75s.336.75.75.75h9.455c.413 0 .74-.335.74-.75V4.993zM17.327 19.457L13.18 17.06c-.233-.133-.52-.133-.75 0l-4.15 2.396c-.23.134-.374.38-.374.65V24.9c0 .268.143.515.375.65l4.15 2.394c.23.135.517.135.75 0l4.147-2.395c.232-.135.375-.382.375-.65v-4.79c.002-.27-.14-.52-.375-.654zm-1.125 5.006l-3.4 1.962-3.4-1.962v-3.924l3.4-1.962 3.4 1.962v3.924zm6.992 3.578c.132 0 .26-.034.375-.1l4.148-2.395c.23-.133.375-.378.376-.645v-4.79c0-.268-.143-.515-.375-.65l-4.15-2.394c-.232-.134-.518-.134-.75 0l-4.148 2.395c-.232.135-.375.382-.375.65v4.79c0 .268.143.515.375.65l4.148 2.394c.114.064.243.096.374.096zm-3.4-7.5l3.4-1.962 3.4 1.962v3.924l-3.4 1.962-3.4-1.962V20.54zm3.104-4.64v-4.79c0-.268-.143-.515-.375-.65l-4.148-2.4c-.232-.133-.518-.133-.75 0l-4.148 2.396c-.232.134-.375.38-.375.65V15.9c0 .268.143.515.375.65l4.148 2.394c.232.135.518.135.75 0l4.148-2.395c.232-.135.375-.382.375-.65zm-1.5-.438l-3.4 1.962-3.4-1.962v-3.924l3.4-1.962 3.4 1.962v3.924z"/></svg>