<svg xmlns="http://www.w3.org/2000/svg" viewBox="0 0 36 36"><path d="M8.75 28.25h-3c-.414 0-.75.336-.75.75s.336.75.75.75h3c.414 0 .75-.336.75-.75s-.336-.75-.75-.75zm21.53.22l-2-2c-.303-.282-.778-.266-1.06.037-.268.288-.268.735 0 1.023l.72.72H16.75c-4.002-.002-7.244-3.248-7.242-7.25.002-4.002 3.248-7.244 7.25-7.242 4.002.002 7.244 3.248 7.242 7.25 0 1.384-.397 2.74-1.145 3.905-.224.35-.123.813.226 1.036.35.223.814.122 1.037-.226 2.567-4 1.466-9.317-2.473-11.974h.606c2.9.015 5.262-2.324 5.277-5.223s-2.324-5.262-5.223-5.277c-2.35-.012-4.423 1.54-5.073 3.8l-.565-.762c-.274-.31-.75-.34-1.06-.067-.276.244-.335.65-.14.963l1.688 2.27c.25.327.717.393 1.047.147l2.268-1.686c.343-.232.433-.697.2-1.04s-.696-.433-1.04-.2l-.932.692c.63-1.968 2.737-3.052 4.705-2.42s3.053 2.736 2.422 4.704c-.498 1.552-1.943 2.604-3.573 2.6h-5.5C11.917 12.25 8 16.168 8 21s3.918 8.75 8.75 8.75h11.19l-.72.72c-.303.282-.32.757-.037 1.06s.757.32 1.06.037l2.037-2.037c.293-.292.292-.767 0-1.06z"/></svg>