<svg id="f5fc1c39-d262-4cc8-846a-5d1a65074397" data-name="Layer 1" xmlns="http://www.w3.org/2000/svg" viewBox="0 0 36 36">
  <g>
    <path d="M18,24.12c6.11-.19,6.11-9,0-9.25C11.89,15.07,11.89,23.93,18,24.12Zm0-8a3.38,3.38,0,0,1,0,6.76A3.38,3.38,0,0,1,18,16.12Z"/>
    <path d="M26.11,27.09c.05-.06,0-15,0-15.09s0-.15-.05-.23l-.12-.2-2.77-3h1.56a.62.62,0,0,0,0-1.24H16.83L13.4,4.52a.62.62,0,0,0-.8,1l2.27,1.9H11.25a.62.62,0,0,0,0,1.24h1.56l-2.77,3-.12.2c0,.08,0,.15-.05.23V27a.76.76,0,0,0,.16.43s3.75,4,3.76,4a.6.6,0,0,0,.45.19h7.5a.61.61,0,0,0,.24,0,1.07,1.07,0,0,0,.22-.15l3.75-4A.87.87,0,0,0,26.11,27.09Zm-4.63,3.29h-7l-2.58-2.76H24.06Zm3.4-4H11.13V12.62H24.88ZM21.48,8.62l2.58,2.76H11.94l2.58-2.76Z"/>
  </g>
</svg>
