<svg xmlns="http://www.w3.org/2000/svg" viewBox="0 0 32 32"><path d="M11.53 7.97c-.07-.05-.16-.04-.22.03-.05.07-.04.16.03.22.06.05.1.1.13.16.05.11.05.22.01.33s-.12.19-.23.24c-.1.05-.22.05-.33.01-.11-.04-.19-.12-.24-.23-.03-.06-.04-.13-.04-.2.01-.09-.06-.16-.14-.16-.09 0-.16.06-.16.14-.01.12.01.24.06.35.08.18.23.32.41.39.09.03.17.05.26.05.1 0 .21-.02.3-.07.18-.08.32-.23.39-.41.07-.19.06-.39-.02-.56-.04-.12-.12-.21-.21-.29zm7.6 0c-.07-.05-.16-.04-.22.03-.05.07-.04.16.03.22.06.05.1.1.13.16.05.1.05.22.01.33-.04.11-.12.19-.23.24-.11.05-.22.05-.33.01s-.19-.12-.24-.23c-.03-.06-.04-.13-.04-.2 0-.09-.06-.16-.14-.16-.09 0-.16.06-.16.14-.01.12.01.24.06.35.08.18.23.32.41.39.08.03.17.05.26.05.1 0 .21-.02.3-.07.18-.08.32-.23.39-.41.07-.19.06-.39-.02-.56-.03-.12-.11-.21-.21-.29zm4.53-.13l-1.62-.7c-.04-.02-.08-.02-.12 0s-.07.05-.08.08l-.24.56-.45-.45c-.02-.02-.05-.04-.08-.05-.03-.01-.06-.02-.09-.02h-1.66c-.04-.14-.12-.36-.32-.47-.13-.07-.28-.09-.42-.04-.23.08-.39.23-.47.44-.01.02-.01.05-.02.07h-6.38c-.04-.14-.12-.36-.32-.47-.13-.07-.28-.09-.43-.04-.23.08-.39.23-.47.44-.01.02-.01.05-.02.07h-1.7c-.13 0-.23.1-.23.23v16.87c0 .03.01.06.02.09s.03.05.05.07l.68.68c.04.04.1.07.16.07h12.22c.03 0 .06-.01.09-.02.02-.01.04-.02.06-.04 0 0 .01 0 .01-.01 0 0 0-.01.01-.01.02-.02.03-.04.04-.07.01-.03.02-.06.02-.09V12.31l1.84-4.27c.03-.08 0-.17-.08-.2zm-2.44.21l.18.19-.18.43v-.62zM9 7.72h1.47c.06.44.28.87.34.97.06.1.16.15.27.15.05 0 .1-.01.15-.04.15-.08.2-.27.11-.42-.1-.17-.21-.44-.26-.67h6.99c.06.44.28.87.34.97.06.1.16.15.27.15.05 0 .1-.01.15-.04.15-.08.2-.27.11-.42-.1-.17-.21-.44-.26-.67h2.07v1.72H9v-1.7zm0 16.41V9.91h11.69l-1.5 3.49h-9.12c-.13 0-.23.1-.23.23s.1.23.23.23h8.92l-.47 1.09c-.02-.01-.04-.01-.06-.01h-8.39c-.13 0-.23.1-.23.23s.1.23.23.23h8.26l-.49 1.15h-7.76c-.13 0-.23.1-.23.23s.09.22.22.22h7.72l.07 1.27h-7.79c-.13 0-.23.1-.23.23s.1.23.23.23H18.02c.03 0 .07-.01.09-.03l1.51-1.16v-.01c.02-.01.03-.03.04-.06l1.08-2.51v7.41c-.03.04-.06.08-.11.11-.29.2-.88.2-1.42.01-.05-.02-.1-.01-.14.02-.04.03-.07.08-.07.12 0 .62-.48 1.32-1.14 1.5H9zm9.14-6.29l-.05-.89 1.15.5-.43.33-.67.06zm2.62 5.23v1.06h-1.71l1.71-1.06zm-1.98.87c.3-.31.5-.71.55-1.11.37.1.8.14 1.16.05l-1.71 1.06zm-9.23.88l-.22-.22H20.9l.22.22H9.55zm11.89-.33l-.22-.22V13.9l.22-.52v11.11zm-1.98-7.28l-1.33-.57 1.22-2.84c.04-.04.06-.09.07-.15l2.42-5.62.23-.53 1.34.58-3.95 9.13z"/></svg>