<svg xmlns="http://www.w3.org/2000/svg" width="32" height="32" viewBox="0 0 32 32"><path d="M20.543 15.104h2.188c.128 0 .23-.103.23-.23v-2.606c0-.127-.102-.23-.23-.23h-2.187c-.127 0-.23.103-.23.23v2.606c0 .127.103.23.23.23zm.23-2.606H22.5v2.146h-1.727v-2.146zm-3.6 6.724H12.28c-.127 0-.23.103-.23.23s.103.23.23.23h4.893c.127 0 .23-.103.23-.23s-.103-.23-.23-.23zm2.478-1.38h-7.37c-.126 0-.23.102-.23.23s.104.23.23.23h7.37c.128 0 .23-.104.23-.23s-.102-.23-.23-.23zM9.025 12.497h4.893c.127 0 .23-.103.23-.23s-.103-.23-.23-.23H9.024c-.127 0-.23.103-.23.23s.103.23.23.23zm3.026 4.192c0 .127.103.23.23.23h7.37c.127 0 .23-.103.23-.23s-.103-.23-.23-.23h-7.37c-.127 0-.23.103-.23.23zM9.024 13.8h4.893c.127 0 .23-.102.23-.23s-.103-.23-.23-.23H9.024c-.127 0-.23.104-.23.23s.103.23.23.23zm15.463-3.715H7.615c-.17 0-.306.137-.306.306v11.99c0 .17.136.306.305.306h16.872c.17 0 .306-.137.306-.306V10.39c0-.168-.137-.305-.306-.305zm-.307 11.99H7.92V10.696h16.26v11.377z"/></svg>