<svg xmlns="http://www.w3.org/2000/svg" width="32" height="32" viewBox="0 0 32 32"><path d="M25.346 10.03c-.046-.058-.127-.093-.203-.093-.48 0-4.795.075-8.19 2.692-1.714 1.32-3.145 2.8-4.03 4.168-.767 1.186-1.05 2.19-.83 2.89-3.46 2.974-4.96 4.636-4.984 4.664-.135.15-.122.382.03.518l.273.244c.07.062.157.093.243.093.1 0 .2-.04.274-.122.025-.028 1.504-1.66 4.902-4.582.262.118.58.178.957.178 1.692 0 4.407-1.248 6.916-3.18 3.525-2.718 4.65-7.075 4.696-7.26.02-.072-.008-.15-.054-.208zM12.502 20.3c-3.366 2.897-4.823 4.51-4.847 4.54l-.274-.245c.026-.028 1.493-1.653 4.875-4.566.122-.106.246-.212.374-.32 2.41-2.058 5.722-4.71 10.1-7.867l.213.297c-4.363 3.146-7.663 5.788-10.063 7.835l-.378.324zm10.01-5.34c-.008-.002-.016-.006-.024-.007l-1.71-.244c-.066-.01-.127.036-.137.103-.01.067.038.13.105.138l1.598.23c-.115.145-.234.288-.358.43l-1.963-.23c-.067-.006-.127.04-.135.108s.04.127.107.135l1.794.21c-.41.45-.87.884-1.38 1.277-.546.42-1.1.806-1.65 1.154-.013-.007-.026-.013-.04-.015l-1.71-.245c-.066-.01-.128.037-.138.104-.01.066.037.128.104.137l1.473.21c-1.785 1.084-3.492 1.735-4.658 1.735-.2 0-.376-.02-.53-.056 2.383-2.026 5.633-4.622 9.9-7.698.163-.118.2-.347.082-.51l-.214-.298c-.057-.08-.142-.132-.238-.147-.02-.003-.04-.005-.058-.005-.077 0-.15.023-.214.07-4.313 3.11-7.596 5.732-10.004 7.782-.06-.55.223-1.34.822-2.266.308-.476.687-.966 1.122-1.46l-.15 1.527c-.007.068.042.128.11.135h.012c.062 0 .115-.046.12-.11l.18-1.834v-.013c.108-.118.217-.236.333-.353l-.155 1.576c-.006.067.042.127.11.134h.012c.062 0 .115-.046.12-.11l.18-1.833c.002-.01 0-.02-.002-.03.582-.57 1.228-1.135 1.926-1.673.22-.17.447-.328.676-.477l-.204 1.43c-.01.066.037.128.104.137l.018.002c.06 0 .112-.045.12-.106l.235-1.634c2.66-1.617 5.654-1.89 6.638-1.934-.234.74-.927 2.678-2.327 4.528z"/></svg>