<svg xmlns="http://www.w3.org/2000/svg" width="32" height="32" viewBox="0 0 32 32"><path d="M21.455 24.27l1.416-6.347c.007-.022.002-.044.002-.066h.006c0-.012-.005-.02-.006-.032 0-.015-.006-.028-.007-.042-.122-.9-2.423-1.32-4.63-1.477-.053-.572.072-1.234.624-1.883.02-.02 1.943-2.08 0-4.11-1.395-1.458-.038-3.42.02-3.502.074-.102.05-.246-.054-.32-.103-.072-.247-.048-.32.055-.016.023-1.636 2.353.022 4.085 1.638 1.71.068 3.404-.01 3.485-.63.74-.786 1.5-.738 2.16-.543-.02-1.425-.05-1.78-.05l-.145.003c-.034-.554.106-1.185.632-1.805.02-.02 1.944-2.08 0-4.11-1.394-1.458-.037-3.42.022-3.502.072-.102.047-.246-.056-.32-.103-.072-.247-.048-.32.055-.016.023-1.635 2.353.022 4.085 1.638 1.71.068 3.404-.01 3.485-.616.726-.78 1.47-.74 2.12-.535.018-1.522.058-2.05.103-.06-.58.06-1.254.62-1.916.02-.02 1.945-2.08 0-4.11-1.392-1.458-.036-3.42.023-3.502.072-.103.048-.247-.056-.32-.103-.073-.247-.05-.32.054-.017.023-1.636 2.353.02 4.085 1.64 1.71.07 3.403-.008 3.484-.66.775-.8 1.57-.73 2.253-1.71.227-3.693.717-3.774 1.426l-.003.022c-.002.014-.007.027-.007.04h.006c0 .023-.005.045 0 .067l1.417 6.347c.124.826 3.268 1.282 5.454 1.282 2.187 0 5.33-.456 5.456-1.283zM9.742 17.85c.1-.228 1.595-.65 3.283-.877.212.726.598 1.217.605 1.228.045.057.112.087.18.087.05 0 .1-.017.143-.05.1-.08.116-.224.036-.323-.027-.034-.32-.413-.505-.97.467-.04 1.434-.08 2.015-.098.202.795.632 1.345.64 1.356.045.056.112.086.18.086.05 0 .1-.017.143-.05.1-.08.116-.224.036-.323-.03-.035-.357-.46-.536-1.074H16c.44 0 1.35.03 1.884.052.206.77.62 1.3.63 1.31.044.056.11.086.178.086.05 0 .1-.017.144-.05.1-.08.116-.224.036-.323-.026-.034-.325-.42-.508-.984 2.41.193 3.783.646 3.894.92l-1.404 6.293c-.28.254-2.16.8-4.855.8-2.695 0-4.576-.547-4.856-.8l-1.404-6.29z"/></svg>