<svg xmlns="http://www.w3.org/2000/svg" viewBox="0 0 32 32"><path d="M25.13 8.46c-.05-.06-.13-.09-.2-.09-.48 0-4.8.07-8.19 2.69-1.71 1.32-3.15 2.8-4.03 4.17-.77 1.19-1.05 2.19-.83 2.89-3.46 2.97-4.96 4.64-4.98 4.66-.13.15-.12.38.03.52l.27.24c.07.06.16.09.24.09.1 0 .2-.04.27-.12.03-.03 1.5-1.66 4.9-4.58.26.12.58.18.96.18 1.69 0 4.41-1.25 6.92-3.18 3.52-2.72 4.65-7.07 4.7-7.26.02-.07-.01-.15-.06-.21zM12.29 18.73c-3.37 2.9-4.82 4.51-4.85 4.54l-.27-.24c.03-.03 1.49-1.65 4.87-4.57.12-.1.25-.21.37-.32 2.41-2.06 5.72-4.71 10.1-7.87l.21.3c-4.36 3.15-7.66 5.79-10.06 7.84-.12.1-.25.21-.37.32zm10.01-5.34c-.01 0-.01-.01-.02-.01l-1.71-.24c-.07-.01-.13.04-.14.1s.04.13.1.14l1.6.23c-.11.15-.23.29-.36.43l-1.96-.23c-.07-.01-.13.04-.14.11s.04.13.11.14l1.79.21c-.41.45-.87.88-1.38 1.28-.55.42-1.1.81-1.65 1.15-.01-.01-.03-.01-.04-.01l-1.71-.24c-.07-.01-.13.04-.14.1-.01.07.04.13.1.14l1.47.21c-1.78 1.08-3.49 1.73-4.66 1.73-.2 0-.38-.02-.53-.06 2.38-2.03 5.63-4.62 9.9-7.7.16-.12.2-.35.08-.51l-.21-.3c-.06-.08-.14-.13-.24-.15-.02 0-.04-.01-.06-.01-.08 0-.15.02-.21.07-4.31 3.11-7.6 5.73-10 7.78-.06-.55.22-1.34.82-2.27.31-.48.69-.97 1.12-1.46l-.15 1.53c-.01.07.04.13.11.13h.01c.06 0 .11-.05.12-.11l.18-1.83v-.01c.11-.12.22-.24.33-.35l-.15 1.58c-.01.07.04.13.11.13h.01c.06 0 .11-.05.12-.11l.18-1.83v-.03c.58-.57 1.23-1.14 1.93-1.67.22-.17.45-.33.68-.48l-.2 1.43c-.01.07.04.13.1.14h.02c.06 0 .11-.04.12-.1l.23-1.63c2.66-1.62 5.65-1.89 6.64-1.93-.23.73-.92 2.66-2.32 4.51z"/></svg>