<svg data-name="speedometer" xmlns="http://www.w3.org/2000/svg" viewBox="0 0 36 36"><title>Icon-Red_Hat-Transportation-Speedometer-A-Black-RGB</title><path d="M18 19.5a3.23 3.23 0 0 0-2.56 1.27l-5.35-2.38a.75.75 0 1 0-.61 1.37l5.33 2.38a3 3 0 0 0-.06.61A3.25 3.25 0 1 0 18 19.5zm0 5a1.76 1.76 0 0 1-1.75-1.75 2.33 2.33 0 0 1 0-.38v-.07a1.11 1.11 0 0 1 .1-.29 1.67 1.67 0 0 1 .18-.28 1.24 1.24 0 0 1 .25-.26A1.72 1.72 0 0 1 18 21a1.75 1.75 0 0 1 0 3.5zm.29-10a.75.75 0 1 0-.75-.77.75.75 0 0 0 .75.77zm-5.39 1.76a.76.76 0 0 0 .1-1.06.75.75 0 1 0-.59 1.22.72.72 0 0 0 .49-.16zm10.54-.72a.76.76 0 0 0 .06 1.06.75.75 0 0 0 1.06-.06.75.75 0 0 0-1.12-1zM18 10A12.76 12.76 0 0 0 5.25 22.75a.75.75 0 0 0 1.5 0 11.25 11.25 0 0 1 22.5 0 .75.75 0 0 0 1.5 0A12.76 12.76 0 0 0 18 10zm8.8 10.72a.75.75 0 0 0-.63.85.74.74 0 0 0 .74.65H27a.76.76 0 0 0 .64-.85.75.75 0 0 0-.84-.65z"/></svg>