<svg xmlns="http://www.w3.org/2000/svg" width="32" height="32" viewBox="0 0 32 32"><path d="M11.526 7.965c-.067-.053-.163-.04-.215.026-.05.068-.04.164.027.216.06.046.104.1.13.162.048.106.052.223.012.33s-.122.194-.227.24c-.105.05-.222.052-.33.012-.108-.04-.194-.12-.24-.226-.028-.062-.04-.13-.036-.204.005-.085-.06-.157-.144-.162-.085-.004-.157.06-.162.144-.006.124.014.24.063.35.08.18.227.317.412.387.085.03.173.047.262.047.103 0 .206-.022.303-.066.18-.08.316-.226.386-.41.07-.186.063-.387-.018-.566-.05-.106-.123-.2-.222-.277zm7.608 0c-.067-.052-.163-.04-.215.027-.053.066-.04.163.026.215.06.046.104.1.13.162.048.104.052.22.012.33-.04.107-.12.193-.225.24-.106.048-.222.05-.33.01s-.194-.12-.24-.225c-.03-.062-.04-.13-.037-.204.005-.084-.06-.156-.144-.16-.086-.005-.157.058-.162.143-.007.124.013.24.062.35.08.18.227.317.412.387.085.032.173.048.26.048.105 0 .208-.022.305-.066.178-.08.315-.228.385-.412.07-.185.063-.386-.018-.565-.05-.107-.123-.2-.222-.277zm4.525-.125l-1.62-.696c-.037-.016-.08-.017-.118-.002s-.068.045-.084.082l-.238.554-.447-.447c-.02-.02-.046-.037-.075-.048-.028-.012-.058-.018-.088-.018h-1.662c-.037-.136-.124-.356-.318-.47-.128-.075-.28-.09-.425-.04-.226.075-.388.228-.47.442-.007.022-.01.046-.015.068h-6.38c-.038-.136-.125-.356-.32-.47-.127-.075-.278-.09-.424-.04-.226.075-.388.228-.47.442-.007.022-.01.046-.015.068H8.77c-.128 0-.23.103-.23.23v16.872c0 .03.005.058.017.086.012.028.03.053.05.074l.682.682c.042.043.1.067.16.067h12.223c.03 0 .06-.006.088-.018.025-.01.045-.025.064-.042.004-.003.008-.004.012-.008.003-.003.004-.007.006-.01.017-.02.033-.04.043-.065.01-.028.018-.058.018-.088V12.31l1.837-4.27c.034-.078-.002-.168-.08-.202zm-2.44.21l.186.184-.185.43V8.05zM9 7.722h1.465c.055.438.282.866.344.974.056.1.16.155.266.155.05 0 .104-.013.15-.04.148-.084.2-.27.116-.418-.1-.174-.212-.444-.258-.67h6.99c.056.437.283.865.345.973.056.1.16.155.266.155.05 0 .104-.013.15-.04.148-.084.2-.27.116-.418-.1-.174-.212-.444-.258-.67h2.07v1.722H9V7.722zm0 16.41V9.908h11.686l-1.502 3.49h-9.116c-.127 0-.23.104-.23.23s.103.23.23.23h8.92l-.468 1.087c-.02-.006-.04-.013-.064-.013h-8.388c-.127 0-.23.104-.23.23s.103.23.23.23h8.26l-.495 1.15h-7.765c-.127 0-.23.104-.23.23s.103.23.23.23h7.718l.074 1.27h-7.792c-.127 0-.23.103-.23.23s.103.23.23.23h7.915c.01 0 .017-.004.025-.005.008 0 .016.005.024.005.033 0 .066-.01.094-.032l1.51-1.16.005-.007c.02-.014.035-.032.044-.054v-.002l1.08-2.506v7.405c-.03.04-.062.075-.107.106-.286.2-.88.204-1.416.01-.045-.018-.098-.01-.14.018-.04.03-.064.075-.064.125 0 .62-.48 1.323-1.144 1.502h-8.89zm9.142-6.29l-.05-.887 1.15.495-.432.333-.667.06zm2.62 5.23v1.06h-1.708l1.707-1.06zm-1.983.87c.297-.307.495-.708.547-1.106.372.105.802.14 1.156.046l-1.704 1.06zm-9.234.873l-.222-.223h11.572l.222.223H9.546zm11.897-.325l-.222-.22V13.9l.223-.518v11.11zm-1.98-7.277l-1.335-.574c0-.002-.002-.004-.003-.005l1.224-2.844c.04-.04.062-.093.065-.152l2.42-5.623.002-.002V8.01l.225-.525 1.337.576-3.937 9.152z"/></svg>