<svg xmlns="http://www.w3.org/2000/svg" viewBox="0 0 32 32"><path d="M7.7 6.86c-.13.06-.2.2-.16.33-.01.02-.02.05-.02.07v18.9c0 .16.13.28.28.28h16.38c.16 0 .29-.13.29-.28v-9.43-.02-9.45c0-.03-.01-.05-.02-.07.03-.13-.02-.27-.14-.33L21.7 5.58c-.04-.02-.08-.03-.12-.03H10.83c-.04 0-.08.01-.11.02L7.7 6.86zm16.21 19.02H8.09v-4.15H23.9v4.15zm0-4.72H8.09v-4.15H23.9v4.15zm0-4.75H8.09v-4.15H23.9v4.15zm0-7.11v2.39H8.09V7.55H23.9V9.3zM10.88 6.12h10.63l1.75.86H8.86l2.02-.86zM9.14 9.55s0 .01 0 0c0 .22.18.4.39.4s.39-.18.39-.39c0-.22-.18-.39-.39-.39s-.39.16-.39.38zm1.39 0v.01c0 .22.18.39.39.39s.39-.18.39-.39v-.01-.01c0-.22-.18-.39-.39-.39s-.39.18-.39.39v.01zm-1.39 4.84c0 .01 0 .01 0 0 0 .22.18.4.39.4s.39-.18.39-.39c0-.22-.18-.39-.39-.39s-.39.16-.39.38zm1.39 0v.01c0 .22.18.39.39.39s.39-.18.39-.39v-.01-.01c0-.22-.18-.39-.39-.39s-.39.18-.39.39v.01zm-1.39 4.56c0 .22.18.4.39.4.22 0 .39-.18.39-.39 0-.22-.18-.39-.39-.39-.21-.02-.39.16-.39.38zm1.39 0v.01c0 .22.18.39.39.39.22 0 .39-.18.39-.39v-.01-.01c0-.22-.18-.39-.39-.39-.22 0-.39.18-.39.39v.01zm-1.39 4.84c0 .22.18.4.39.4s.39-.18.39-.39c0-.22-.18-.39-.39-.39s-.39.16-.39.38zm1.39 0v.01c0 .22.18.39.39.39s.39-.18.39-.39v-.01-.01c0-.22-.18-.39-.39-.39s-.39.18-.39.39v.01zm11.59-12.92h.85c.08 0 .14-.06.14-.14V8.45c0-.08-.06-.14-.14-.14h-.85c-.08 0-.14.06-.14.14v2.28c0 .08.06.14.14.14zm.15-2.27h.57v1.99h-.57V8.6zm-1.86 2.27h.85c.08 0 .14-.06.14-.14V8.45c0-.08-.06-.14-.14-.14h-.85c-.08 0-.14.06-.14.14v2.28c0 .08.07.14.14.14zm.15-2.27h.57v1.99h-.57V8.6zm1.56 7.12h.85c.08 0 .14-.06.14-.14V13.3c0-.08-.06-.14-.14-.14h-.85c-.08 0-.14.06-.14.14v2.28c0 .07.06.14.14.14zm.15-2.28h.57v1.99h-.57v-1.99zm-1.86 2.28h.85c.08 0 .14-.06.14-.14V13.3c0-.08-.06-.14-.14-.14h-.85c-.08 0-.14.06-.14.14v2.28c0 .07.07.14.14.14zm.15-2.28h.57v1.99h-.57v-1.99zm1.56 6.83h.85c.08 0 .14-.12.14-.2V17.8c0-.08-.06-.09-.14-.09h-.85c-.08 0-.14.01-.14.09v2.28c0 .07.06.19.14.19zm.15-2.28h.57v1.99h-.57v-1.99zm-1.86 2.28h.85c.08 0 .14-.12.14-.2V17.8c0-.08-.06-.09-.14-.09h-.85c-.08 0-.14.01-.14.09v2.28c0 .07.07.19.14.19zm.15-2.28h.57v1.99h-.57v-1.99zm1.56 7.12h.85c.08 0 .14-.12.14-.2v-2.28c0-.08-.06-.09-.14-.09h-.85c-.08 0-.14.01-.14.09v2.28c0 .09.06.2.14.2zm.15-2.28h.57v1.99h-.57v-1.99zm-1.86 2.28h.85c.08 0 .14-.12.14-.2v-2.28c0-.08-.06-.09-.14-.09h-.85c-.08 0-.14.01-.14.09v2.28c0 .09.07.2.14.2zm.15-2.28h.57v1.99h-.57v-1.99zm-14-16.58c-.12.18-.21.39-.25.61-.02.11.06.22.18.24h.04c.1 0 .19-.07.21-.18.03-.16.09-.31.18-.44.07-.1.04-.23-.05-.3-.11-.05-.24-.03-.31.07zm15.48 21.01h-.57c-.12 0-.21.1-.21.21s.1.21.21.21h.57c.12 0 .21-.1.21-.21s-.09-.21-.21-.21zm-1.42 0h-.57c-.12 0-.21.1-.21.21s.1.21.21.21h.57c.12 0 .21-.1.21-.21s-.09-.21-.21-.21zm-2.84 0h-.57c-.12 0-.21.1-.21.21s.1.21.21.21h.57c.12 0 .21-.1.21-.21s-.1-.21-.21-.21zm1.42 0h-.57c-.12 0-.21.1-.21.21s.1.21.21.21h.57c.12 0 .21-.1.21-.21s-.09-.21-.21-.21zm5.55-.15c-.14.08-.29.13-.45.14-.12.01-.2.12-.19.23.01.11.1.19.21.19h.02c.22-.02.43-.09.62-.2.1-.06.14-.19.08-.29-.06-.09-.19-.13-.29-.07zm-1.29.15h-.57c-.12 0-.21.1-.21.21s.1.21.21.21h.57c.12 0 .21-.1.21-.21s-.09-.21-.21-.21zm-7.11 0h-.57c-.12 0-.21.1-.21.21s.1.21.21.21h.57c.12 0 .21-.1.21-.21s-.09-.21-.21-.21zm-4.26 0h-.57c-.12 0-.21.1-.21.21s.1.21.21.21h.57c.12 0 .21-.1.21-.21s-.09-.21-.21-.21zm-1.42 0h-.57c-.12 0-.21.1-.21.21s.1.21.21.21h.57c.12 0 .21-.1.21-.21s-.1-.21-.21-.21zm-1.43 0h-.57c-.12 0-.21.1-.21.21s.1.21.21.21h.57c.12 0 .21-.1.21-.21s-.09-.21-.21-.21zm4.27 0h-.57c-.12 0-.21.1-.21.21s.1.21.21.21h.57c.12 0 .21-.1.21-.21s-.09-.21-.21-.21zm1.42 0h-.57c-.12 0-.21.1-.21.21s.1.21.21.21h.57c.12 0 .21-.1.21-.21s-.09-.21-.21-.21zm10.57-1.37c-.12 0-.21.1-.21.21v.06c0 .14-.03.28-.08.42-.04.11.01.23.12.28.03.01.05.02.08.02.08 0 .16-.05.2-.13.08-.18.11-.38.11-.58v-.06c0-.12-.1-.22-.22-.22zm0-1.42c-.12 0-.21.1-.21.21v.57c0 .12.1.21.21.21s.21-.1.21-.21v-.57c.01-.11-.09-.21-.21-.21zm0-14.22c-.12 0-.21.1-.21.21v.57c0 .12.1.21.21.21s.21-.1.21-.21v-.57c.01-.11-.09-.21-.21-.21zm0 1.42c-.12 0-.21.1-.21.21v.57c0 .12.1.21.21.21s.21-.1.21-.21v-.57c.01-.11-.09-.21-.21-.21zm0 1.43c-.12 0-.21.1-.21.21v.57c0 .12.1.21.21.21s.21-.1.21-.21v-.57c.01-.12-.09-.21-.21-.21zM7.81 27.26c-.16 0-.32-.03-.46-.1-.11-.05-.23 0-.28.1-.05.11 0 .23.1.28.2.09.42.14.64.14h.01c.12 0 .21-.1.21-.21s-.1-.21-.22-.21zM25.5 14.52c-.12 0-.21.1-.21.21v.57c0 .12.1.21.21.21s.21-.1.21-.21v-.57c.01-.12-.09-.21-.21-.21zm0-5.69c-.12 0-.21.1-.21.21v.57c0 .12.1.21.21.21s.21-.1.21-.21v-.57c.01-.11-.09-.21-.21-.21zm0-1.42c-.12 0-.21.1-.21.21v.57c0 .12.1.21.21.21s.21-.1.21-.21v-.57c.01-.12-.09-.21-.21-.21zm0 12.8c-.12 0-.21.1-.21.21v.57c0 .12.1.21.21.21s.21-.1.21-.21v-.57c.01-.12-.09-.21-.21-.21zm0 1.42c-.12 0-.21.1-.21.21v.57c0 .12.1.21.21.21s.21-.1.21-.21v-.57c.01-.12-.09-.21-.21-.21zm0-5.69c-.12 0-.21.1-.21.21v.57c0 .12.1.21.21.21s.21-.1.21-.21v-.57c.01-.11-.09-.21-.21-.21zm0 7.11c-.12 0-.21.1-.21.21v.57c0 .12.1.21.21.21s.21-.1.21-.21v-.57c.01-.11-.09-.21-.21-.21zm0-4.27c-.12 0-.21.1-.21.21v.57c0 .12.1.21.21.21s.21-.1.21-.21V19c.01-.12-.09-.22-.21-.22zm0-1.42c-.12 0-.21.1-.21.21v.57c0 .12.1.21.21.21s.21-.1.21-.21v-.57c.01-.11-.09-.21-.21-.21zM14.25 4.74h.57c.12 0 .21-.1.21-.21 0-.12-.1-.21-.21-.21h-.57c-.12 0-.21.1-.21.21s.09.21.21.21zm-2.84 0h.57c.12 0 .21-.1.21-.21 0-.12-.1-.21-.21-.21h-.57c-.12 0-.21.1-.21.21s.09.21.21.21zm4.26 0h.57c.12 0 .21-.1.21-.21 0-.12-.1-.21-.21-.21h-.57c-.12 0-.21.1-.21.21s.09.21.21.21zm9.57 2.09c.03.09.11.16.21.16.02 0 .04 0 .06-.01.11-.03.18-.15.15-.26-.06-.21-.16-.41-.3-.58-.08-.09-.21-.1-.3-.03-.09.08-.1.21-.03.3.1.12.17.27.21.42zM12.83 4.74h.57c.12 0 .21-.1.21-.21 0-.12-.1-.21-.21-.21h-.57c-.12 0-.21.1-.21.21s.09.21.21.21zm-2.81.23c.03 0 .06-.01.08-.02l.29-.12c.07-.03.14-.05.21-.07.12-.02.19-.14.17-.25-.02-.12-.14-.19-.25-.17-.09.02-.19.05-.28.09l-.3.12c-.11.05-.16.18-.11.28.03.09.11.14.19.14zm-1.31.55c.03 0 .06-.01.08-.02l.52-.22c.12-.04.17-.17.12-.28-.04-.11-.17-.16-.28-.11l-.52.22c-.11.05-.16.17-.11.28.03.08.11.13.19.13zm-1.3.56c.03 0 .06-.01.08-.02l.52-.22c.11-.05.16-.17.11-.28-.04-.11-.17-.16-.28-.11l-.52.22c-.11.05-.16.17-.11.28.03.08.11.13.2.13zm9.68-1.34h.57c.12 0 .21-.1.21-.21 0-.12-.1-.21-.21-.21h-.57c-.12 0-.21.1-.21.21s.1.21.21.21zm5.51.38l.51.25c.03.01.06.02.09.02.08 0 .16-.04.19-.12.05-.11.01-.23-.1-.29l-.51-.25c-.11-.05-.23-.01-.29.1-.04.11.01.24.11.29zm1.28.63l.51.25c.03.01.06.02.09.02.08 0 .16-.04.19-.12.05-.11.01-.23-.1-.29l-.51-.25c-.11-.05-.23-.01-.29.1-.04.11.01.23.11.29zM6.71 26.22c-.01-.12-.1-.21-.22-.2-.12.01-.21.11-.2.22.01.22.07.44.17.63.04.07.11.11.19.11.03 0 .07-.01.1-.03.1-.05.14-.18.09-.29-.08-.13-.12-.28-.13-.44zm11.8-21.48h.57c.12 0 .21-.1.21-.21 0-.12-.1-.21-.21-.21h-.57c-.12 0-.21.1-.21.21s.1.21.21.21zm1.43 0h.57c.12 0 .21-.1.21-.21 0-.12-.1-.21-.21-.21h-.57c-.12 0-.21.1-.21.21s.09.21.21.21zm1.42 0h.21c.1 0 .2.01.29.04.02.01.04.01.06.01.09 0 .18-.06.21-.16.03-.11-.04-.23-.15-.26-.13-.04-.27-.06-.41-.06h-.21c-.12 0-.21.1-.21.21 0 .12.09.22.21.22zM6.5 22.75c.12 0 .21-.1.21-.21v-.57c0-.12-.1-.21-.21-.21-.12 0-.21.1-.21.21v.57c-.01.11.09.21.21.21zm0-1.42c.12 0 .21-.1.21-.21v-.57c0-.12-.1-.21-.21-.21-.12 0-.21.1-.21.21v.57c-.01.11.09.21.21.21zm0-1.43c.12 0 .21-.1.21-.21v-.57c0-.12-.1-.21-.21-.21-.12 0-.21.1-.21.21v.57c-.01.12.09.21.21.21zm0 4.27c.12 0 .21-.1.21-.21v-.57c0-.12-.1-.21-.21-.21-.12 0-.21.1-.21.21v.57c-.01.11.09.21.21.21zm0 1.42c.12 0 .21-.1.21-.21v-.57c0-.12-.1-.21-.21-.21-.12 0-.21.1-.21.21v.57c-.01.12.09.21.21.21zm0-7.11c.12 0 .21-.1.21-.21v-.57c0-.12-.1-.21-.21-.21-.12 0-.21.1-.21.21v.57c-.01.12.09.21.21.21zm0-2.84c.12 0 .21-.1.21-.21v-.57c0-.12-.1-.21-.21-.21-.12 0-.21.1-.21.21v.57c-.01.11.09.21.21.21zm0-2.85c.12 0 .21-.1.21-.21v-.57c0-.12-.1-.21-.21-.21-.12 0-.21.1-.21.21v.57c-.01.12.09.21.21.21zm0-1.42c.12 0 .21-.1.21-.21v-.57c0-.12-.1-.21-.21-.21-.12 0-.21.1-.21.21v.57c-.01.12.09.21.21.21zm0-1.42c.12 0 .21-.1.21-.21v-.57c0-.12-.1-.21-.21-.21-.12 0-.21.1-.21.21v.57c-.01.11.09.21.21.21zm0 4.27c.12 0 .21-.1.21-.21v-.57c0-.12-.1-.21-.21-.21-.12 0-.21.1-.21.21V14c-.01.12.09.22.21.22zm0-5.69c.12 0 .21-.1.21-.21v-.57c0-.12-.1-.21-.21-.21-.12 0-.21.1-.21.21v.57c-.01.11.09.21.21.21zm0 8.53c.12 0 .21-.1.21-.21v-.57c0-.12-.1-.21-.21-.21-.12 0-.21.1-.21.21v.57c-.01.11.09.21.21.21z"/></svg>