<svg data-name="Layer 1" xmlns="http://www.w3.org/2000/svg" viewBox="0 0 36 36"><title>Icon-Red_Hat-Question_Mark-B-Black-RGB</title><path d="M17.09 24.45a.74.74 0 0 1-.75-.75c0-2.29 1.93-3.38 3.47-4.26q.56-.3 1-.6a5.42 5.42 0 0 0 2.51-4.49 5.25 5.25 0 1 0-10.5 0 .75.75 0 0 1-1.5 0 6.75 6.75 0 1 1 13.5 0 7 7 0 0 1-3.18 5.73c-.33.22-.71.44-1.1.66-1.6.91-2.72 1.65-2.72 3a.75.75 0 0 1-.73.71zM17.08 28.1a.87.87 0 0 1-.28-.05.74.74 0 0 1-.25-.17.75.75 0 0 1-.22-.53.71.71 0 0 1 .06-.28.82.82 0 0 1 .16-.25.72.72 0 0 1 .25-.16.75.75 0 0 1 1 .69.71.71 0 0 1 0 .29.81.81 0 0 1-.17.24.73.73 0 0 1-.55.22z"/></svg>