<svg xmlns="http://www.w3.org/2000/svg" viewBox="0 0 32 32"><path d="M25.11 6.52c.04-.14-.02-.29-.16-.35l-2.82-1.38c-.04-.03-.08-.04-.13-.04H10.43c-.04 0-.08.01-.12.02L7.06 6.16c-.14.06-.21.21-.17.36 0 .02-.01.05-.01.08v20.34c0 .17.14.31.31.31h17.63c.17 0 .31-.14.31-.31V16.78v-.02V6.6c-.01-.03-.02-.06-.02-.08zM10.49 5.37h11.44l1.89.92H8.32l2.17-.92zm14.02 21.26H7.49v-4.46h17.02v4.46zm0-5.07H7.49V17.1h17.02v4.46zm0-5.12H7.49v-4.46h17.02v4.46zm0-7.65v.91-.91zm0 2.58H7.49V6.9h17.02v4.47zM8.62 9.06c0 .24.19.43.42.43s.42-.19.42-.42v-.01c0-.23-.19-.42-.42-.42s-.42.18-.42.42zm1.49 0v.01c0 .23.19.42.42.42s.42-.19.42-.42v-.01-.01c0-.23-.19-.42-.42-.42s-.42.19-.42.42v.01zm-1.49 5.21c0 .24.19.43.42.43s.42-.19.42-.42v-.01c0-.23-.19-.42-.42-.42s-.42.18-.42.42zm1.49 0v.01c0 .23.19.42.42.42s.42-.19.42-.42v-.01-.01c0-.23-.19-.42-.42-.42s-.42.19-.42.42v.01zm-1.49 4.91c0 .24.19.43.42.43s.42-.19.42-.42c0-.23-.19-.42-.42-.42s-.42.17-.42.41c0-.01 0-.01 0 0zm1.49 0v.01c0 .23.19.42.42.42s.42-.19.42-.42v-.01-.01c0-.23-.19-.42-.42-.42s-.42.19-.42.42v.01zm-1.49 5.21c0 .24.19.43.42.43s.42-.19.42-.42c0-.23-.19-.42-.42-.42s-.42.17-.42.41c0-.01 0 0 0 0zm1.49 0v.01c0 .23.19.42.42.42s.42-.19.42-.42v-.01-.01c0-.23-.19-.42-.42-.42s-.42.19-.42.42v.01zm13.57-14c0 .08-.07.15-.15.15h-.92c-.08 0-.15-.07-.15-.15V7.94c0-.09.07-.15.15-.15h.92c.08 0 .15.07.15.15v2.45zm-.92-.15h.61V8.09h-.61v2.15zm-.91.15c0 .08-.07.15-.15.15h-.92c-.08 0-.15-.07-.15-.15V7.94c0-.09.07-.15.15-.15h.92c.08 0 .15.07.15.15v2.45zm-.92-.15h.61V8.09h-.61v2.15zm2.75 5.36c0 .09-.07.15-.15.15h-.92c-.08 0-.15-.07-.15-.15v-2.45c0-.08.07-.15.15-.15h.92c.08 0 .15.07.15.15v2.45zm-.92-.15h.61V13.3h-.61v2.15zm-.91.15c0 .09-.07.15-.15.15h-.92c-.08 0-.15-.07-.15-.15v-2.45c0-.08.07-.15.15-.15h.92c.08 0 .15.07.15.15v2.45zm-.92-.15h.61V13.3h-.61v2.15zm2.75 5.06c0 .08-.07.15-.15.15h-.92c-.08 0-.15-.07-.15-.15v-2.45c0-.08.07-.15.15-.15h.92c.08 0 .15.07.15.15v2.45zm-.92-.15h.61v-2.15h-.61v2.15zm-.91.15c0 .08-.07.15-.15.15h-.92c-.08 0-.15-.07-.15-.15v-2.45c0-.08.07-.15.15-.15h.92c.08 0 .15.07.15.15v2.45zm-.92-.15h.61v-2.15h-.61v2.15zm2.75 5.36c0 .08-.07.15-.15.15h-.92c-.08 0-.15-.07-.15-.15v-2.45c0-.08.07-.15.15-.15h.92c.08 0 .15.07.15.15v2.45zm-.92-.15h.61v-2.15h-.61v2.15zm-.91.15c0 .08-.07.15-.15.15h-.92c-.08 0-.15-.07-.15-.15v-2.45c0-.08.07-.15.15-.15h.92c.08 0 .15.07.15.15v2.45zm-.92-.15h.61v-2.15h-.61v2.15z"/></svg>