<svg xmlns="http://www.w3.org/2000/svg" viewBox="0 0 36 36"><title>Icon-Red_Hat-Software_and_Technologies-Cloud_unsecured-A-Black</title><path d="M23 22.91H9.88a5.13 5.13 0 0 1 0-10.26 4.64 4.64 0 0 1 .88.08.76.76 0 0 0 .78-.37 7.07 7.07 0 0 1 13.24 3.47.76.76 0 0 0 .75.75 3.18 3.18 0 0 1 2.81 1.69.75.75 0 1 0 1.32-.7 4.66 4.66 0 0 0-3.4-2.44 8.58 8.58 0 0 0-15.76-4h-.62a6.63 6.63 0 0 0 0 13.26H23a.75.75 0 0 0 0-1.5zM25.25 25A3.75 3.75 0 0 0 29 28.76a3.61 3.61 0 0 0 1.09-.18l-4.84-4.83z"/><path d="M33.23 27.47l-.85-.86a3.69 3.69 0 0 0 .37-1.6V22a.75.75 0 0 0-.51-.71l-3-1a.79.79 0 0 0-.48 0l-2 .67-.76-.74a.75.75 0 0 0-1.06 1.06l6.53 6.54.71.71a.74.74 0 0 0 .53.22.71.71 0 0 0 .53-.22.74.74 0 0 0-.01-1.06z"/></svg>