<svg xmlns="http://www.w3.org/2000/svg" viewBox="0 0 32 32"><path d="M27.38 8.3h-.36v-.57c0-.16-.13-.29-.29-.29h-9.36c-.74 0-1.16.28-1.39.55-.23-.27-.65-.55-1.39-.55H5.22c-.16 0-.29.13-.29.29v.57h-.35c-.49 0-.88.5-.88 1.12v13.49c0 .62.5 1.12 1.12 1.12h9.51c.21.16.78.52 1.66.52.87 0 1.44-.36 1.65-.52h9.55c.62 0 1.12-.5 1.12-1.12V9.42c0-.62-.42-1.12-.93-1.12zm-11.19.43c0-.01.01-.01.01-.02l.03-.06c0-.01.01-.02.02-.03.01-.02.18-.6 1.12-.6h9.08v8.21c-.09.2-.23.39-.42.57-.01.01-.02.01-.03.01l-.16.13c-1.08.81-3.08 1-3.99.78-.06-.02-.13 0-.18.04l-.03.03h-3.07c-.93 0-1.26.22-1.3.25-.06.04-.07.12-.03.18.02.04.07.06.11.06.03 0 .05-.01.07-.02 0 0 .31-.2 1.15-.2h3c0 .08-.01.18-.02.31l-.04.35c-.02.14-.05.3-.08.47h-2.86c-.93 0-1.26.22-1.3.25-.06.04-.07.12-.03.18.03.04.07.06.11.06.03 0 .05-.01.07-.02 0 0 .31-.2 1.15-.2h2.8c-.06.27-.14.56-.25.84l-.12.29h-2.44c-.93 0-1.26.22-1.3.25-.06.04-.07.12-.03.18.02.04.07.06.11.06.03 0 .05-.01.07-.02 0 0 .31-.2 1.15-.2h2.32c-.16.32-.36.62-.6.88l-.14.12c-.01.01-.02.03-.03.05-.25.21-.54.38-.87.47h-1.87c-.56 0-.93.16-1.17.35l-.01-14zm9.92 8.55c.01-.01.02-.01.03-.02.12-.09.21-.18.31-.28v5.38h-6.26c.14-.1.28-.21.4-.33l5.52-4.75zm-4.69 3.47c.37-.84.54-1.79.58-2.56.69.1 1.72.05 2.66-.22l-3.24 2.78zm-15.91.03V8.02h9.08c.93 0 1.11.57 1.12.6 0 .01.01.02.02.04s.01.03.02.04c.01.01.01.02.02.03V22.7c-.24-.18-.62-.35-1.17-.35H5.51v-1.57zm22.23 2.13c0 .31-.25.55-.55.55h-9.64-.01c-.07 0-.15.02-.2.07-.02.02-.5.45-1.36.45-.72 0-1.18-.31-1.32-.41-.05-.07-.13-.11-.22-.11H4.82c-.3 0-.55-.25-.55-.55V9.42c0-.32.17-.55.31-.55h.36v13.78c0 .16.13.29.29.29h9.36c.42 0 .74.11.94.33.06.07.19.17.45.17s.39-.11.45-.17c.21-.22.53-.33.94-.33h9.36c.16 0 .29-.13.29-.29V8.87h.36c.17 0 .36.23.36.55v13.49zm-10.39-7.42c.03 0 .05-.01.07-.02 0 0 .31-.2 1.15-.2h6.55c.07 0 .13-.06.13-.13s-.06-.13-.13-.13h-6.55c-.93 0-1.26.22-1.3.25-.06.04-.07.12-.03.18.03.03.07.05.11.05zm0 1.39c.03 0 .05-.01.07-.02 0 0 .31-.2 1.15-.2h6.55c.07 0 .13-.06.13-.13s-.06-.13-.13-.13h-6.55c-.93 0-1.26.22-1.3.25-.06.04-.07.12-.03.18.03.03.07.05.11.05zm0-6.97c.03 0 .05-.01.07-.02 0 0 .31-.2 1.15-.2h6.55c.07 0 .13-.06.13-.13s-.06-.13-.13-.13h-6.55c-.93 0-1.26.22-1.3.25-.06.04-.07.12-.03.18.03.03.07.05.11.05zm-2.78 10.92c-.03-.03-.37-.25-1.3-.25H6.72c-.07 0-.13.06-.13.13s.06.13.13.13h6.55c.83 0 1.14.19 1.15.2.02.02.05.02.07.02.04 0 .08-.02.11-.06.04-.05.03-.13-.03-.17zm2.78-9.52c.03 0 .05-.01.07-.02 0 0 .31-.2 1.15-.2h6.55c.07 0 .13-.06.13-.13s-.06-.13-.13-.13h-6.55c-.93 0-1.26.22-1.3.25-.06.04-.07.12-.03.18.03.03.07.04.11.05zm0 1.39c.03 0 .05-.01.07-.02 0 0 .31-.2 1.15-.2h6.55c.07 0 .13-.06.13-.13s-.06-.13-.13-.13h-6.55c-.93 0-1.26.22-1.3.25-.06.04-.07.12-.03.18.03.03.07.05.11.05zm0 1.39c.03 0 .05-.01.07-.02 0 0 .31-.2 1.15-.2h6.55c.07 0 .13-.06.13-.13s-.06-.13-.13-.13h-6.55c-.93 0-1.26.22-1.3.25-.06.04-.07.12-.03.18.03.03.07.05.11.05zm-4.08 2.31H6.72c-.07 0-.13.06-.13.13s.06.13.13.13h6.55c.83 0 1.14.19 1.14.2.02.02.05.02.08.02.04 0 .08-.02.11-.06.04-.06.03-.14-.03-.18-.04-.02-.37-.24-1.3-.24zm-6.55 1.65h6.55c.83 0 1.14.19 1.15.2.02.02.05.02.08.02.04 0 .08-.02.11-.05.04-.06.03-.14-.03-.18-.03-.03-.37-.25-1.3-.25H6.72c-.07 0-.13.06-.13.13s.06.13.13.13zm0-8.36h6.55c.83 0 1.13.2 1.14.21.02.02.05.03.08.03.04 0 .08-.02.11-.05.04-.06.03-.14-.03-.19-.03-.03-.37-.26-1.3-.26H6.72c-.07 0-.13.06-.13.13s.06.13.13.13zm0 5.58h6.55c.83 0 1.14.2 1.14.2.02.02.05.02.08.02.04 0 .08-.02.11-.05.04-.06.03-.14-.03-.19-.04-.02-.37-.25-1.3-.25H6.72c-.07 0-.13.06-.13.13s.06.14.13.14zm6.55 3.91H6.72c-.07 0-.13.06-.13.13s.06.13.13.13h6.55c.83 0 1.14.19 1.15.2.02.02.05.02.07.02.04 0 .08-.02.11-.06.04-.06.03-.14-.03-.18-.04-.01-.37-.24-1.3-.24zm0-5.57H6.72c-.07 0-.13.06-.13.13s.06.13.13.13h6.55c.83 0 1.14.2 1.14.2.02.02.05.02.08.02.04 0 .08-.02.11-.05.04-.06.03-.14-.03-.19-.03-.02-.37-.24-1.3-.24zm0-2.79H6.72c-.07 0-.13.06-.13.13s.06.13.13.13h6.55c.83 0 1.13.2 1.14.2.02.02.05.02.08.02.04 0 .08-.02.11-.05.04-.06.03-.14-.03-.19-.03-.01-.37-.24-1.3-.24zm-6.55 1.66h6.55c.83 0 1.14.2 1.14.2.02.02.05.02.08.02.04 0 .08-.02.11-.05.04-.06.03-.14-.03-.19-.03-.03-.37-.26-1.3-.26H6.72c-.07 0-.13.06-.13.13s.06.15.13.15z"/></svg>