<svg xmlns="http://www.w3.org/2000/svg" viewBox="0 0 32 32"><path d="M23.59 14.65c-.01 0-.54-.06-1.48-.12v-3.19c0-3.37-2.74-6.11-6.11-6.11s-6.11 2.74-6.11 6.11v3.19c-.94.06-1.47.12-1.48.12-.16.02-.28.15-.28.31v10.08c0 .16.12.29.28.31.03 0 3.45.4 7.59.4s7.56-.39 7.59-.4c.16-.02.28-.15.28-.31V14.97c0-.17-.12-.3-.28-.32zm-.35 10.11c-.89.09-3.81.36-7.24.36s-6.35-.27-7.24-.36v-9.51l1.13-.09c.19-.01.4-.03.63-.04.54-.03 1.17-.06 1.89-.09.2-.01.41-.01.63-.02.88-.03 1.87-.05 2.96-.05s2.08.02 2.96.05c.22.01.43.01.63.02.72.03 1.35.06 1.89.09.23.01.44.03.63.04.51.03.89.07 1.13.09v9.51zm-4.28-10.38c-.88-.03-1.88-.04-2.96-.04s-2.08.02-2.96.04v-3.04c0-1.63 1.33-2.96 2.96-2.96s2.96 1.33 2.96 2.96v3.04zm-8.44-3.04c0-3.02 2.46-5.48 5.48-5.48 3.02 0 5.48 2.46 5.48 5.48v3.15c-.54-.03-1.17-.06-1.89-.09v-3.06c0-1.98-1.61-3.59-3.59-3.59-1.98 0-3.59 1.61-3.59 3.59v3.06c-.72.03-1.35.06-1.89.09v-3.15zm11.59 5.11h.02c.13 0 .24.11.24.24s-.11.24-.24.24H13.2c-.07 0-.13-.03-.17-.08-.04-.04-.06-.1-.06-.16 0-.07.03-.13.07-.17.04-.04.1-.07.16-.07h8.91zm-10.27.23c0 .09-.07.16-.16.16H9.8c-.09 0-.16-.07-.16-.16s.07-.16.16-.16h1.88c.09 0 .16.08.16.16zm10.53 5.04c0 .13-.11.24-.24.24H13.2c-.13 0-.24-.11-.24-.24s.11-.24.24-.24h8.93c.13.01.24.11.24.24zm-10.53 0c0 .09-.07.16-.16.16H9.8c-.09 0-.16-.07-.16-.16s.07-.16.16-.16h1.88c.09 0 .16.07.16.16zm10.53 1.68c0 .13-.11.24-.24.24H13.2c-.13 0-.24-.11-.24-.24s.11-.24.24-.24h8.93c.13 0 .24.11.24.24zm-10.53 0c0 .09-.07.16-.16.16H9.8c-.09 0-.16-.07-.16-.16s.07-.16.16-.16h1.88c.09 0 .16.07.16.16zm10.53-3.36c0 .13-.11.24-.24.24H13.2c-.13 0-.24-.11-.24-.24s.11-.24.24-.24h8.93c.13.01.24.11.24.24zm-10.53 0c0 .09-.07.16-.16.16H9.8c-.09 0-.16-.07-.16-.16s.07-.16.16-.16h1.88c.09 0 .16.07.16.16zm10.53-1.68c0 .13-.11.24-.24.24H13.2c-.13 0-.24-.11-.24-.24s.11-.24.24-.24h8.93c.13.01.24.11.24.24zm-10.55-.08c.01.02.03.05.03.08 0 .09-.07.16-.16.16H9.8c-.09 0-.16-.07-.16-.16s.07-.16.16-.16h1.88c.06 0 .11.04.14.08z"/></svg>