<svg xmlns="http://www.w3.org/2000/svg" viewBox="0 0 32 32"><path d="M28.13 10.22c-.13-.25-.26-.49-.36-.72-.05-.1-.14-.17-.26-.18-.1-.01-.22.04-.28.14-.31.47-.74.89-1.24 1.38-1.14 1.11-2.56 2.5-3.14 5.26-.76 3.62.32 7.45.52 8.08-.25 1.01-1.41 2.25-1.42 2.26-.12.12-.11.32.01.43.06.06.13.08.21.08.08 0 .16-.03.22-.1.05-.06 1.24-1.33 1.56-2.48.8-.42 4.98-2.77 5.42-7.12.41-3.92-.54-5.71-1.24-7.03zm.63 6.98c-.38 3.69-3.81 5.91-4.89 6.52-.29-1.08-1.07-4.42-.42-7.5.54-2.58 1.83-3.84 2.97-4.95.37-.36.72-.7 1.01-1.06.05.1.1.2.16.3.7 1.31 1.56 2.94 1.17 6.69zm-1.31-6.27c-.09 0-.16.06-.16.15-.07 1.2-.3 2.55-.61 3.9-.28-.48-.75-1.47-.62-2.4.01-.08-.05-.16-.13-.17-.08-.01-.16.05-.17.13-.17 1.27.64 2.57.83 2.87-.36 1.49-.81 2.94-1.22 4.16-.35-.44-1.31-1.72-1.37-2.68-.01-.08-.08-.15-.16-.14-.08.01-.15.08-.14.16.08 1.24 1.45 2.88 1.56 3-.56 1.65-1.02 2.8-1.03 2.82-.03.08.01.17.08.2.02.01.04.01.06.01.06 0 .12-.04.14-.1.01-.04.75-1.86 1.5-4.26.33-.17 2.1-1.11 2.56-2.06.04-.08 0-.17-.07-.21-.08-.04-.17 0-.2.07-.34.7-1.56 1.45-2.15 1.77.27-.87.53-1.81.76-2.76 0-.01.01-.02.01-.03.36-1.48.63-2.98.7-4.3-.02-.05-.09-.13-.17-.13zm-8.87-3.15c.82-.06 1.95.04 2.95.13 1.28.11 1.96.16 2.27.03.5-.22.94-.79 1.04-1.35.06-.37-.03-.69-.25-.91-1.43-1.35-4.04-2.39-6.39-1.51-.08.01-.27.03-.53.07v-.65c0-.67-1.13-.91-1.89-.91s-1.89.24-1.89.91v1.68c-2.12.9-4.22 2.52-4.22 5.36 0 .61.14 1.15.38 1.63l-4.64 1.19c-.01 0-.01.01-.02.01-1.66.52-2.87 2.07-2.87 3.9 0 2.25 1.83 4.09 4.09 4.09 1.86 0 3.43-1.25 3.92-2.95l.01-.01 1.18-4.51c.68.42 1.46.71 2.23.89.01 1.18.03 2.35.04 3.51-1.26.49-2.32 1.27-2.32 2.83 0 1.66 1.31 2.26 2.41 2.55.02.9.03 1.7.05 2.37-.25-.05-.47-.12-.64-.21-1.2-.61-1.47-.6-1.64-.34-.19.31.1.6.88 1.18.45.34.94.58 1.44.74.04 1.13.05 1.17.07 1.23.14.38.98.59 1.53.59s1.39-.2 1.53-.58c.02-.07.04-.11.08-1.26.19-.06.36-.13.53-.22.99-.49 1.56-1.3 1.56-2.22 0-1.08-.77-2.01-1.98-2.42.02-.92.03-1.93.05-3.01 1.73-.49 3.45-1.33 3.45-3.46 0-1.73-1.66-2.98-3.37-3.49l.03-4.76c.38-.06.7-.1.93-.12zM14.5 3.61c.06-.11.56-.32 1.28-.32s1.22.21 1.27.3v.75c-.5.09-1.12.23-1.79.44l-.01-.88c0-.08-.07-.15-.15-.15-.09 0-.15.07-.15.16l.01.97c-.15.05-.3.1-.45.16-.01-.5-.01-.97-.01-1.43zm-4.41 13.75c0 .69-.2 1.33-.56 1.88-.42-.54-.77-1.68-.79-2.16.36-.36.64-1.07.8-1.58.34.53.55 1.17.55 1.86zm-1.83-.35c-.49 0-1.13-1.73-1.16-2.43l.02-.02c.03-.03.07-.07.1-.11.01-.01.02-.03.03-.05l.08-.11c.01-.02.03-.04.04-.06.03-.04.05-.08.07-.12.01-.02.03-.05.04-.07 0-.01.01-.01.01-.02.73.19 1.36.61 1.82 1.17-.23.88-.7 1.82-1.05 1.82zm-1.99-2.73c-.02-.02-.03-.04-.05-.07-.01-.02-.02-.03-.03-.05-.02-.03-.04-.05-.05-.08-.01-.02-.02-.03-.03-.05-.02-.03-.04-.06-.06-.1.19-.03.38-.05.57-.05.19 0 .38.02.56.05-.02.03-.04.07-.06.1-.01.02-.02.03-.03.05-.02.03-.04.06-.05.08-.01.02-.02.03-.03.05-.02.02-.03.05-.05.07-.01.01-.02.02-.03.04-.02.02-.03.04-.05.05l-.03.03c-.02.02-.03.03-.05.04-.01.01-.02.02-.03.02-.02.01-.03.02-.05.03-.01 0-.02.01-.02.01-.02.01-.05.01-.07.01-.02 0-.05-.01-.07-.01-.01 0-.02-.01-.02-.01-.02-.01-.03-.02-.05-.03-.01-.01-.02-.01-.03-.02-.02-.01-.03-.02-.05-.04l-.03-.03-.05-.05c-.03-.01-.04-.03-.06-.04zm.2.51c.01 0 .02.01.03.01.07.02.15.02.22 0 .01 0 .02-.01.03-.01.02-.01.03-.01.05-.02.09.64.47 1.79.97 2.29-.03.69-.67 2.44-1.16 2.44s-1.14-1.74-1.16-2.44c.5-.5.88-1.65.97-2.29.01.01.03.02.05.02zM5.73 14c0 .01.01.01.01.01.01.03.03.06.05.09.02.04.05.08.07.11.01.02.03.05.04.07.03.04.05.07.07.1.01.02.03.04.04.05.03.04.06.07.09.1l.03.03c-.03.7-.67 2.43-1.16 2.43-.35 0-.82-.94-1.05-1.83.45-.55 1.09-.97 1.81-1.16zm-1.25 3.08c-.02.48-.37 1.62-.79 2.15-.35-.54-.55-1.18-.55-1.87 0-.68.2-1.32.54-1.86.16.51.44 1.21.8 1.58zm-.6 2.41c.44-.52.81-1.59.89-2.21.13.05.26.05.39 0 .09.64.47 1.8.97 2.3-.01.24-.11.69-.28 1.17-.8-.19-1.49-.64-1.97-1.26zm2.73 1.34c-.16 0-.31-.01-.46-.03.13-.36.23-.74.27-1.02.13.05.26.05.39 0 .04.28.14.66.27 1.02-.16.02-.31.03-.47.03zm.49-1.26c.5-.5.88-1.65.97-2.3.13.05.27.05.39 0 .09.62.45 1.69.9 2.22-.49.62-1.18 1.07-1.97 1.25-.19-.48-.28-.92-.29-1.17zm3.56-2.75c-.24-1.81-1.68-3.25-3.49-3.5l3.05-.78c.31.5.73.92 1.23 1.26l-.79 3.02zm1.22-3.47l.22-.84c.02-.08-.03-.17-.11-.19-.08-.02-.17.03-.19.11l-.19.73c-.3-.23-.56-.49-.77-.78l.75-.19c.08-.02.13-.1.11-.19-.02-.08-.1-.13-.19-.11l-.84.22c-.24-.43-.39-.92-.39-1.47 0-5.16 7.93-5.85 8-5.86.03 0 .06-.01.09-.02 2.02-.78 4.44.1 5.79 1.36.1.09.08.26.07.36-.02.13-.08.26-.15.39-.67-.03-4.18-.23-5.73-.72-.08-.03-.17.02-.19.1s.02.17.1.19c1.48.46 4.58.67 5.59.72-.09.09-.2.17-.3.21-.19.08-1.18-.01-1.97-.07-1.02-.09-2.18-.19-3.05-.13-.02 0-.5.05-1.18.18h-.01c-.04 0-.09.01-.12.03-.9.18-2.11.48-3.11.98-.03.01-.05.02-.08.04-.97.5-1.71 1.2-1.71 2.14 0 1.08.86 1.57 1.6 1.84.01.62.01 1.24.02 1.86-.72-.19-1.45-.48-2.06-.89zm2.04-1.64c-.68-.29-.98-.66-.98-1.18 0-.53.39-.98.96-1.36.01.83.02 1.68.02 2.54zm.6-2.88c.15-.07.31-.14.48-.21l.1 9.39c-.16.05-.33.09-.49.15-.05-3.1-.08-6.31-.09-9.33zm-.5 11.8c.01.35.01.7.02 1.03-.28-.19-.33-.39-.33-.56 0-.18.12-.34.31-.47zm.61-.28c.15-.05.31-.1.49-.15l.06 6.02c-.15 0-.3 0-.44-.01v-.01c-.03-1.45-.07-3.47-.11-5.85zm2.1 8.14c-.14.08-.52.22-.96.22-.43 0-.82-.14-.95-.22-.01-.13-.02-.41-.03-.84.14.03.28.05.41.06l.01.42c0 .08.07.15.15.15.09 0 .15-.07.15-.16v-.39c.08 0 .16.01.24.01.36 0 .7-.04 1.03-.1-.03.5-.04.74-.05.85zm2.13-3.45c0 .93-.76 1.45-1.22 1.67-1.02.51-2.6.61-3.93-.06 1.11.31 2.85.24 3.83-.36.5-.31.77-.73.77-1.23 0-.49-.33-.95-.84-1.19 0-.19.01-.39.01-.6.72.31 1.38.89 1.38 1.77zm-1.4-.45c.15.13.24.3.24.47 0 .21-.09.39-.26.55 0-.31.01-.65.02-1.02zm-.65 1.38c-.39.14-.85.22-1.33.25l-.06-6.09c.23-.06.48-.11.73-.17.25-.06.51-.11.77-.18-.03 2.48-.07 4.67-.11 6.19zm3.57-9.82c0 2.23-2.32 2.75-4.36 3.21-1.57.35-2.92.66-2.92 1.75 0 .75.59 1.1.95 1.27 0 .25.01.5.01.74-1.24-.37-1.78-.96-1.78-1.91 0-1.83 1.88-2.32 3.71-2.79 1.51-.39 2.94-.76 2.94-1.98 0-.66-.49-1.2-1.33-1.49.01-.55.01-1.1.02-1.65 1.42.48 2.76 1.5 2.76 2.85zm-2.79-.55c.46.2.72.5.72.83 0 .37-.29.63-.74.84.01-.55.02-1.11.02-1.67zm-.63 1.91c-.34.11-.72.21-1.12.31-.14.04-.29.08-.44.11l-.1-9.43c.58-.21 1.19-.37 1.74-.49-.02 3.03-.04 6.3-.08 9.5zm4.52-11.63c.3 0 .54-.24.54-.54s-.25-.54-.54-.54-.54.24-.54.54.24.54.54.54zm0-.77c.13 0 .23.1.23.23s-.1.23-.23.23-.23-.1-.23-.23.1-.23.23-.23z"/></svg>