<svg data-name="Layer 1" xmlns="http://www.w3.org/2000/svg" viewBox="0 0 36 36"><title>Icon-Red_Hat-Atom-A-Black-RGB</title><path d="M28.2 23.083a33.564 33.564 0 0 0-2.866-4.15c-.247-.31-.5-.62-.766-.933.26-.312.52-.623.766-.932a33.564 33.564 0 0 0 2.866-4.15 11.564 11.564 0 0 0 1.5-3.74 2.55 2.55 0 0 0-.56-2.318 2.555 2.555 0 0 0-2.32-.56 11.552 11.552 0 0 0-3.736 1.5 33.347 33.347 0 0 0-4.15 2.866c-.31.246-.622.505-.934.766-.312-.26-.623-.52-.932-.766a33.564 33.564 0 0 0-4.15-2.866A11.57 11.57 0 0 0 9.18 6.3a2.55 2.55 0 0 0-2.32.56 2.552 2.552 0 0 0-.56 2.32 11.534 11.534 0 0 0 1.5 3.736 33.347 33.347 0 0 0 2.866 4.15c.246.31.505.622.766.934-.26.312-.52.623-.766.933a33.347 33.347 0 0 0-2.866 4.15 11.534 11.534 0 0 0-1.5 3.738 2.552 2.552 0 0 0 .56 2.32 2 2 0 0 0 .724.462 2.712 2.712 0 0 0 .94.153 5.92 5.92 0 0 0 1.932-.39 15.446 15.446 0 0 0 2.46-1.165 33.564 33.564 0 0 0 4.152-2.866c.31-.247.62-.5.932-.766.312.26.623.52.933.766a33.347 33.347 0 0 0 4.15 2.866 15.4 15.4 0 0 0 2.46 1.167 5.9 5.9 0 0 0 1.934.39 2.688 2.688 0 0 0 .94-.154 2 2 0 0 0 .723-.462 2.55 2.55 0 0 0 .56-2.318 11.564 11.564 0 0 0-1.5-3.74zM19.843 11.86a32.048 32.048 0 0 1 3.985-2.76 13.686 13.686 0 0 1 2.26-1.07 4.34 4.34 0 0 1 1.376-.283 1.356 1.356 0 0 1 .39.05.512.512 0 0 1 .225.12c.48.483.09 2.055-1.19 4.276a34.348 34.348 0 0 1-3.316 4.656c-.68-.763-1.4-1.525-2.15-2.277s-1.513-1.468-2.274-2.147c.232-.19.463-.384.693-.567zM9.1 12.17a10.76 10.76 0 0 1-1.284-3.04c-.137-.683-.043-1.064.105-1.21a.62.62 0 0 1 .26-.15 1.277 1.277 0 0 1 .378-.05c.9 0 2.53.652 4.59 1.968a37.107 37.107 0 0 1 3.7 2.737c-.76.68-1.522 1.4-2.274 2.15s-1.468 1.512-2.147 2.273c-.192-.232-.387-.463-.57-.693A32.048 32.048 0 0 1 9.1 12.172zm3.1 14.718c-2.225 1.28-3.8 1.672-4.28 1.19-.147-.15-.24-.53-.104-1.213a10.76 10.76 0 0 1 1.284-3.04 32.048 32.048 0 0 1 2.756-3.984c.183-.23.378-.46.57-.693.68.76 1.4 1.522 2.147 2.274s1.514 1.47 2.276 2.15a34.348 34.348 0 0 1-4.65 3.316zm5.8-4.303c-.79-.7-1.582-1.44-2.365-2.224s-1.52-1.574-2.22-2.363c.7-.79 1.44-1.58 2.222-2.363S17.21 14.114 18 13.415c.77.68 1.557 1.416 2.362 2.222S21.908 17.23 22.59 18q-1.022 1.153-2.227 2.363T18 22.587zm10.077 5.492c-.147.146-.528.24-1.212.1a10.71 10.71 0 0 1-3.037-1.28 32.048 32.048 0 0 1-3.985-2.756c-.23-.183-.46-.377-.693-.57.76-.68 1.522-1.4 2.274-2.147s1.47-1.514 2.15-2.276a34.348 34.348 0 0 1 3.316 4.65c1.28 2.225 1.67 3.8 1.19 4.28z"/><path d="M18 15.75a2.253 2.253 0 1 0 1.59.66 2.24 2.24 0 0 0-1.59-.66zm.53 2.78a.748.748 0 1 1 .22-.53.747.747 0 0 1-.22.53z"/></svg>