<svg data-name="Layer 1" xmlns="http://www.w3.org/2000/svg" viewBox="0 0 36 36"><title>Icon-Red_Hat-Multiply-A-Black-RGB</title><path d="M30.03 17.47l-1.175-1.176-1.174-1.174a.75.75 0 1 0-1.06 1.06l.91.91.16.16h-9.144a10.39 10.39 0 0 0 3.584-2.6 9.388 9.388 0 0 0 2.17-4.675c.025-.154.045-.3.062-.443l.114.124.873.945a.75.75 0 0 0 1.1-1.016l-1.12-1.22L24.2 7.14c-.013-.014-.032-.02-.046-.033a.55.55 0 0 0-.05-.058.818.818 0 0 0-.09-.044.666.666 0 0 0-.106-.053.79.79 0 0 0-.15-.036.73.73 0 0 0-.08-.02c-.02 0-.042.01-.065.01s-.042-.006-.064 0-.048.02-.073.026a.69.69 0 0 0-.272.128.52.52 0 0 0-.064.04l-1.218 1.12L20.7 9.353a.75.75 0 1 0 1.016 1.1l.946-.872.207-.192c-.014.11-.028.22-.047.334A7.93 7.93 0 0 1 21 13.668a9.45 9.45 0 0 1-4.18 2.67 19.3 19.3 0 0 1-5.694.89 2.784 2.784 0 1 0 0 1.544 19.368 19.368 0 0 1 5.68.886 9.48 9.48 0 0 1 4.178 2.656 7.935 7.935 0 0 1 1.83 3.937c.02.123.036.24.05.354l-.2-.186-.944-.873a.75.75 0 0 0-1.018 1.1l1.22 1.127 1.22 1.128a.646.646 0 0 0 .07.044.714.714 0 0 0 .112.07c.02.01.034.026.054.034a.81.81 0 0 0 .1.018c.027.006.05.022.077.026s.034 0 .05.006h.08a.86.86 0 0 0 .084-.02.74.74 0 0 0 .175-.043.227.227 0 0 1 .025-.006c.024-.013.042-.035.066-.05a.78.78 0 0 0 .11-.066c.012-.01.018-.024.03-.035s.02-.014.03-.024l1.127-1.22 1.126-1.222a.75.75 0 0 0-.044-1.06.756.756 0 0 0-.538-.2.744.744 0 0 0-.52.24l-.874.947-.114.125c-.017-.143-.037-.29-.062-.443a9.387 9.387 0 0 0-2.174-4.68 10.372 10.372 0 0 0-3.586-2.6h9.145l-.16.16-.908.91a.75.75 0 0 0 .248 1.225.748.748 0 0 0 .812-.165l1.17-1.172 1.175-1.17a.75.75 0 0 0 0-1.06zM9.384 18.883A1.25 1.25 0 1 1 9.75 18a1.25 1.25 0 0 1-.366.884z"/></svg>