<svg xmlns="http://www.w3.org/2000/svg" width="32" height="32" viewBox="0 0 32 32"><path d="M21.82 6.23c0-1.323-1.077-2.4-2.4-2.4s-2.402 1.077-2.402 2.4c0 1.325 1.077 2.403 2.4 2.403s2.403-1.077 2.403-2.402zm-4.19 0c0-.985.803-1.788 1.79-1.788.986 0 1.788.802 1.788 1.79 0 .986-.802 1.788-1.79 1.788-.985 0-1.787-.802-1.787-1.79zm-2.26 8.38v-1.698c0-1.942 1.27-3.1 3.392-3.1h1.315c2.123 0 3.39 1.158 3.39 3.1v1.698c0 .184-.023.35-.06.506h.63c.028-.158.044-.326.044-.506v-1.698c0-1.795-1.05-3.714-4.003-3.714h-1.315c-2.952 0-4.004 1.918-4.004 3.714v1.698c0 .18.017.348.045.506h.627c-.035-.156-.06-.32-.06-.506zm11.073.506H22.47l.073-2.644c.004-.126-.096-.233-.223-.236-.124 0-.233.097-.236.223l-.074 2.655h-5.143l-.116-2.66c-.005-.127-.112-.234-.24-.22-.125.006-.224.113-.22.24l.117 2.64H5c-.17 0-.305.136-.305.305v1.29c0 .17.137.306.306.306h1.527V25.8c0 .17.137.306.306.306h19.61c.17 0 .305-.137.305-.306V15.42c0-.168-.137-.305-.307-.305zM7.14 25.496V17.02h18.997v8.476H7.14zM5.31 15.73h20.83v.676H5.307v-.677z"/></svg>