<svg xmlns="http://www.w3.org/2000/svg" viewBox="0 0 32 32"><path d="M9.62 14.35c-1.25-.18-2.3-.4-3.14-.66-.08-.03-.17.02-.19.1-.03.08.02.17.1.19.85.27 1.92.49 3.18.67h.02c.07 0 .14-.06.15-.13.02-.08-.03-.16-.12-.17zm16.14-.34c.12-.04.19-.17.15-.29-.04-.12-.17-.19-.29-.15-2.1.69-5.7 1.11-9.61 1.11-1.27 0-2.52-.04-3.71-.13-.13-.01-.24.09-.25.21-.01.13.09.24.21.25 1.2.09 2.46.13 3.75.13 3.95 0 7.6-.42 9.75-1.13zm2.04 5.5v-7.03c0-1.79-5.94-2.73-11.8-2.73s-11.8.95-11.8 2.74v7.03c0 1.79 5.94 2.73 11.8 2.73 5.86-.01 11.8-.95 11.8-2.74zm-22.99 0v-7.03c0-.88 4.26-2.11 11.19-2.11s11.19 1.23 11.19 2.11v7.03c0 .88-4.26 2.11-11.19 2.11S4.81 20.4 4.81 19.51zM21.29 9.13c.2.02.4.04.6.07h.03c.11 0 .21-.09.23-.2.01-.13-.08-.24-.2-.26-.2-.02-.41-.05-.61-.07-.12-.01-.24.08-.25.2-.02.14.08.25.2.26zM14.48 23.1c-.2 0-.4-.01-.61-.02-.13-.01-.23.09-.24.22-.01.13.1.23.22.24.21.01.41.01.61.02h.01c.12 0 .23-.1.23-.22.01-.14-.09-.24-.22-.24zm3.04 0c-.01 0-.01 0 0 0-.22 0-.42.01-.61.01-.13 0-.23.11-.23.23 0 .13.1.23.23.23.2 0 .4-.01.61-.01.13 0 .23-.11.22-.24 0-.13-.1-.22-.22-.22zm-1.52.01h-.61c-.13.01-.23.1-.23.23s.1.23.23.23H16c.13 0 .23-.1.23-.23s-.1-.23-.23-.23zm3.02-.07l-.6.03c-.13 0-.23.11-.22.24 0 .12.11.22.23.22h.01l.61-.03c.13-.01.22-.11.22-.24s-.12-.23-.25-.22zm1.51-.1c-.2.02-.4.03-.6.05-.13.01-.22.12-.21.25.01.12.11.21.23.21h.02c.2-.01.41-.03.61-.05.13-.01.22-.12.21-.25-.02-.13-.13-.22-.26-.21zm-9.07 0c-.2-.02-.4-.03-.6-.05-.13-.02-.24.08-.25.21s.08.24.21.25l.61.06h.02c.12 0 .22-.09.23-.21 0-.14-.09-.25-.22-.26zM7 22.25c-.2-.05-.39-.1-.58-.16-.12-.04-.25.03-.29.15s.03.25.15.29c.19.06.39.11.59.17.02 0 .04.01.06.01.1 0 .2-.07.22-.17.04-.14-.03-.26-.15-.29zm1.47.31c-.2-.03-.4-.07-.59-.11-.12-.03-.25.06-.27.18-.03.12.05.25.18.27.2.04.4.08.6.11h.04c.11 0 .21-.08.23-.19.01-.12-.07-.24-.19-.26zm13.57.22c-.2.02-.4.05-.6.07-.13.01-.22.13-.2.25.01.12.11.21.23.21h.02c.2-.02.41-.05.61-.07.13-.02.22-.13.2-.26-.02-.12-.13-.21-.26-.2zm-9.07.26l-.61-.03c-.12-.01-.24.09-.24.22s.09.24.22.24l.61.03h.01c.12 0 .22-.09.23-.22 0-.13-.09-.24-.22-.24zm-3.01-.26c-.2-.02-.4-.05-.6-.08-.13-.02-.24.07-.26.19s.07.24.19.26c.2.03.4.06.61.08h.03c.11 0 .21-.08.23-.2.01-.12-.08-.23-.2-.25zm16.46-.98c-.18.07-.37.14-.56.2-.12.04-.19.17-.15.29.03.1.12.16.22.16.02 0 .05 0 .07-.01.2-.07.4-.14.58-.21.12-.05.18-.18.13-.3-.04-.12-.17-.18-.29-.13zm2.49-4.89c-.13 0-.23.1-.23.23v.61c0 .13.1.23.23.23s.23-.1.23-.23v-.61c0-.13-.11-.23-.23-.23zm0-1.52c-.13 0-.23.1-.23.23v.61c0 .13.1.23.23.23s.23-.1.23-.23v-.61c0-.12-.11-.23-.23-.23zm0 3.04c-.13 0-.23.1-.23.23v.61c0 .13.1.23.23.23s.23-.1.23-.23v-.61c0-.13-.11-.23-.23-.23zm-1.82-7.92c.18.09.35.19.5.29.04.03.08.04.13.04.07 0 .15-.04.19-.1.07-.11.04-.25-.06-.32-.17-.11-.35-.22-.55-.32-.11-.06-.25-.01-.31.1-.05.11-.01.25.1.31zm1.82 1.85c-.13 0-.23.1-.23.23v.61c0 .13.1.23.23.23s.23-.1.23-.23v-.61c0-.13-.11-.23-.23-.23zm-1.2 8.76c-.15.11-.31.21-.49.31-.11.06-.15.2-.09.31.04.08.12.12.2.12.04 0 .08-.01.11-.03.2-.11.38-.22.54-.34.1-.07.13-.22.05-.32-.07-.1-.21-.12-.32-.05zm1.16-1.18c-.12-.04-.25.02-.3.14-.06.16-.15.32-.26.47-.08.1-.06.25.05.32.04.03.09.05.14.05.07 0 .14-.03.18-.09.14-.19.25-.38.32-.58.05-.13-.01-.26-.13-.31zM5.58 21.8c-.19-.08-.37-.16-.54-.24-.11-.06-.25-.01-.31.11-.05.11-.01.25.11.31.18.09.37.17.57.25.03.01.06.02.09.02.09 0 .18-.06.21-.15.04-.13-.01-.26-.13-.3zm19.42.45c-.19.05-.39.09-.58.14-.12.03-.2.15-.17.27.02.11.12.18.22.18.02 0 .03 0 .05-.01.2-.05.4-.09.6-.14.12-.03.2-.16.17-.28s-.17-.19-.29-.16zm-1.47.31c-.2.03-.4.07-.59.1-.12.02-.21.14-.19.26.02.11.11.19.23.19h.03c.2-.03.41-.06.61-.1.12-.02.21-.14.19-.27s-.15-.2-.28-.18zm5.21-10.62c.03 0 .07-.01.1-.02.11-.05.17-.19.11-.31-.09-.19-.21-.38-.36-.56-.08-.1-.23-.11-.32-.03-.1.08-.11.23-.03.32.12.14.22.3.29.45.03.1.12.15.21.15zm.17 1.94c-.13 0-.23.1-.23.23v.61c0 .13.1.23.23.23s.23-.1.23-.23v-.61c0-.13-.11-.23-.23-.23zM9.18 9.32h.03c.2-.03.4-.06.6-.08.13-.02.22-.13.2-.26-.02-.13-.13-.22-.26-.2-.2.03-.4.05-.61.08-.12.02-.21.14-.19.27.02.11.12.19.23.19zm7.58-.43c.19 0 .4.01.61.01h.01c.12 0 .23-.1.23-.22 0-.13-.1-.23-.22-.23-.21-.01-.42-.01-.61-.01-.14 0-.23.1-.23.23-.02.12.08.22.21.22zm-1.52 0c.22 0 .42 0 .61-.01.13 0 .23-.1.23-.23s-.1-.23-.23-.23c-.19 0-.4 0-.61.01-.13 0-.23.11-.23.23 0 .13.1.23.23.23zm-4.55.25h.02l.6-.06c.13-.01.22-.12.21-.25-.01-.13-.13-.22-.25-.21l-.61.06c-.13.01-.22.13-.2.25.01.12.11.21.23.21zm1.51-.13h.02c.2-.01.4-.03.6-.04.13-.01.22-.11.22-.24-.01-.13-.11-.22-.24-.22-.2.01-.4.02-.61.04-.13.01-.22.12-.21.24 0 .13.1.22.22.22zm1.52-.08c.22-.01.42-.01.61-.02.13 0 .23-.11.22-.24 0-.13-.11-.24-.24-.22-.2.01-.4.01-.61.02-.13 0-.23.11-.22.24.01.12.12.22.24.22zm10.55.65c.2.04.39.09.59.13.02 0 .04.01.06.01.1 0 .2-.07.22-.18.03-.12-.05-.25-.17-.28-.2-.05-.4-.09-.6-.14-.12-.03-.25.05-.27.18-.03.14.05.26.17.28zm1.45.38c.19.06.38.13.56.19.03.01.05.02.08.02.09 0 .18-.06.22-.15.05-.12-.02-.25-.13-.3-.19-.07-.38-.14-.59-.2-.12-.04-.25.03-.29.15-.04.12.03.25.15.29zm-7.45-1.03l.6.03h.01c.12 0 .22-.1.23-.22.01-.13-.09-.23-.22-.24l-.61-.03c-.13-.01-.23.09-.24.22.01.13.1.23.23.24zm4.52.39c.2.03.4.06.59.1h.04c.11 0 .21-.08.23-.19.02-.12-.06-.24-.19-.27-.2-.03-.4-.07-.61-.1-.13-.02-.24.07-.26.19-.01.13.07.25.2.27zm-3.01-.31c.2.01.4.03.6.04h.02c.12 0 .22-.09.23-.21.01-.13-.08-.24-.21-.25-.2-.02-.41-.03-.61-.05-.12-.01-.24.09-.25.21 0 .14.1.25.22.26zM3.09 15.85c.13 0 .23-.1.23-.23v-.61c0-.13-.1-.23-.23-.23s-.23.1-.23.23v.61c0 .13.11.23.23.23zm0 1.52c.13 0 .23-.1.23-.23v-.61c0-.13-.1-.23-.23-.23s-.23.1-.23.23v.61c0 .13.11.23.23.23zm.77 3.38c-.09-.09-.23-.09-.32-.01s-.1.23-.01.33c.14.15.3.29.49.42.04.03.09.04.13.04.07 0 .14-.03.19-.09.07-.1.05-.25-.05-.32-.17-.12-.31-.24-.43-.37zm-.77-1.86c.13 0 .23-.1.23-.23v-.61c0-.13-.1-.23-.23-.23s-.23.1-.23.23v.61c0 .12.11.23.23.23zm.24.67c0-.13-.11-.23-.24-.22-.13 0-.23.11-.22.24.01.23.05.45.13.66.03.09.12.15.22.15.03 0 .05 0 .08-.01.12-.04.18-.18.14-.3-.08-.17-.11-.34-.11-.52zm.44-8.21c.11-.13.25-.26.41-.38.1-.08.12-.22.04-.32-.08-.1-.22-.12-.32-.04-.18.14-.34.29-.47.45-.08.1-.07.24.03.32.04.04.1.06.15.06.05-.01.11-.04.16-.09zm1.03-.82c.04 0 .07-.01.11-.03.16-.09.34-.17.53-.25.12-.05.17-.18.12-.3-.05-.12-.18-.17-.3-.12-.2.08-.39.17-.57.26-.11.06-.16.2-.1.31.05.09.13.13.21.13zm2.88-.94c.02 0 .03 0 .05-.01.19-.04.39-.08.59-.11.12-.03.21-.15.18-.27-.02-.13-.14-.21-.26-.19-.2.04-.41.08-.6.12-.12.03-.2.15-.18.27.02.11.11.19.22.19zm-1.47.38c.02 0 .05 0 .07-.01.19-.06.38-.12.57-.17.12-.03.2-.16.16-.28s-.16-.2-.28-.16c-.2.05-.4.11-.59.17-.12.04-.19.17-.15.29.03.1.12.16.22.16zm-3.12 4.36c.13 0 .23-.1.23-.23v-.6c0-.13-.1-.23-.23-.23s-.23.1-.23.23v.61c0 .12.11.22.23.22zm0-1.52c.13 0 .23-.1.23-.23v-.1c0-.15.02-.3.06-.44.03-.12-.04-.25-.16-.28-.12-.03-.25.04-.28.16-.05.18-.08.37-.08.56v.1c0 .13.11.23.23.23z"/></svg>