<svg xmlns="http://www.w3.org/2000/svg" viewBox="0 0 36 36"><path d="M29.002 20.25c.413 0 .747.335.747.748s-.335.747-.748.747-.747-.334-.747-.747.334-.747.747-.747zm2.998-3H4c-.414 0-.75.336-.75.75v7c0 .414.336.75.75.75h28c.414 0 .75-.336.75-.75v-7c0-.414-.336-.75-.75-.75zm-.75 7H4.75v-5.5h26.5v5.5zM7 22.75h4c.414 0 .75-.336.75-.75s-.336-.75-.75-.75H7c-.414 0-.75.336-.75.75s.336.75.75.75zm7.643-8.904c.298.288.773.28 1.06-.02.28-.29.28-.75 0-1.04l-1.47-1.47 1.47-1.47c.288-.298.28-.773-.018-1.06-.29-.282-.75-.282-1.042 0l-2 2c-.293.292-.293.767 0 1.06l2 2zm5.728 0c.293.293.77.292 1.062 0l2-2c.293-.293.293-.768 0-1.06l-2-2c-.293-.294-.768-.294-1.06 0-.294.292-.294.767 0 1.06l1.47 1.47-1.47 1.47c-.29.287-.3.76 0 1.06zm-2.453.976l1.622-6.487c.1-.402-.145-.81-.547-.91s-.81.145-.91.547l-1.62 6.487c-.102.4.142.807.543.908.155.038.765.04.91-.546z"/></svg>