<svg xmlns="http://www.w3.org/2000/svg" viewBox="0 0 36 36"><title>Icon-Red_Hat-Signage-Elevator-A-Black-RGB</title><path d="M25 9.26H11a.75.75 0 0 0-.75.75V29a.74.74 0 0 0 .75.75h14a.75.75 0 0 0 .75-.75V10a.76.76 0 0 0-.75-.74zm-7.75 19h-5.5v-17.5h5.5zm7 0h-5.5v-17.5h5.5zM15.53 7.54l.47-.46.47.46a.75.75 0 0 0 1.06 0 .75.75 0 0 0 0-1.06l-1-1a.75.75 0 0 0-1.06 0l-1 1a.75.75 0 0 0 0 1.06.74.74 0 0 0 1.06 0zM20 7.76a.74.74 0 0 0 .53-.22l1-1a.75.75 0 1 0-1.06-1.06L20 6l-.47-.47a.75.75 0 1 0-1.06 1.06l1 1a.74.74 0 0 0 .53.17z"/></svg>