<svg xmlns="http://www.w3.org/2000/svg" width="32" height="32" viewBox="0 0 32 32"><path d="M8.36 19.852h15.104c.422 0 .764-.367.764-.818v-8.757c0-.45-.343-.818-.764-.818h-7.077c.003-.022.006-.042.006-.064 0-.267-.216-.482-.482-.482s-.48.216-.48.482c0 .022.003.042.005.063H8.36c-.423 0-.766.366-.766.817v8.757c0 .45.343.818.765.818zm15.104-.46h-6.366c.177-.115.342-.25.492-.402l5.702-4.9c.01-.006.02-.012.028-.02.178-.136.326-.286.45-.444v5.408c0 .197-.137.358-.306.358zm-4.414-4.366c.717.11 1.776.048 2.745-.23l-3.348 2.876c.38-.867.557-1.845.603-2.646zm-10.996-4.75c0-.198.137-.36.305-.36h15.104c.168 0 .305.162.305.36v2.21c-.002.01-.005.02-.005.03 0 .41-.214.758-.563 1.078-.01.006-.02.008-.028.016l-.16.138c-1.117.835-3.178 1.034-4.12.8-.067-.015-.135 0-.19.04-.054.04-.086.102-.088.168 0 .022-.004.107-.012.23H16.57c-.1 0-.184.082-.184.184s.083.184.184.184h2c-.028.25-.072.555-.145.89H16.57c-.1 0-.184.083-.184.185 0 .1.083.183.184.183h1.767c-.078.293-.178.596-.305.89H16.57c-.1 0-.184.083-.184.184s.083.184.184.184h1.285c-.157.293-.344.568-.57.802l-.148.126c-.016.014-.026.03-.037.048-.36.31-.803.498-1.352.546H8.36c-.168 0-.305-.162-.305-.36v-8.758zm-.508 11.698h16.76c.084 0 .152-.07.152-.153 0-.084-.068-.152-.153-.152H7.545c-.084 0-.152.068-.152.153 0 .086.068.154.153.154zm-1.6 1.915c0 .083.07.152.153.152h19.266c.085 0 .153-.07.153-.153 0-.086-.07-.154-.154-.154H6.1c-.086 0-.154.068-.154.153zm21.96.656l-2.386-2.978c-.03-.328-.19-.617-.426-.822.262-.227.43-.56.43-.932V9.378c0-.684-.556-1.24-1.24-1.24H7.534c-.684 0-1.24.556-1.24 1.24v10.437c0 .373.168.705.43.932-.234.203-.394.49-.425.815l-2.577 2.976c-.048.056-.075.127-.075.2 0 .823.314 1.24.934 1.24H27.04c.62 0 .934-.417.934-1.24 0-.07-.023-.137-.067-.19zm-21-15.17c0-.345.282-.627.628-.627h16.75c.347 0 .628.28.628.627v10.437c0 .346-.28.627-.628.627H7.534c-.346 0-.628-.28-.628-.626V9.378zm20.134 15.99H4.582c-.134 0-.3 0-.32-.517l2.57-2.968c.047-.056.074-.127.074-.2 0-.347.282-.628.628-.628h16.75c.347 0 .628.28.628.628 0 .07.024.137.068.192l2.38 2.97c-.02.522-.185.522-.32.522zM6.998 23.007h17.776c.085 0 .153-.07.153-.153 0-.085-.068-.153-.153-.153H6.998c-.085 0-.153.068-.153.153 0 .085.068.153.153.153zm3.194-11.43h4.995c.102 0 .184-.082.184-.184s-.08-.184-.183-.184h-4.995c-.102 0-.184.082-.184.184s.082.184.184.184zm0 1.26h4.995c.102 0 .184-.084.184-.185s-.08-.184-.183-.184h-4.995c-.102 0-.184.082-.184.183s.082.184.184.184zm0 1.257h4.995c.102 0 .184-.082.184-.184 0-.1-.08-.183-.183-.183h-4.995c-.102 0-.184.082-.184.184 0 .103.082.185.184.185zm0 1.258h4.995c.102 0 .184-.082.184-.184s-.08-.185-.183-.185h-4.995c-.102 0-.184.082-.184.184s.082.183.184.183zm0 1.26h4.995c.102 0 .184-.083.184-.185s-.08-.184-.183-.184h-4.995c-.102 0-.184.082-.184.184s.082.184.184.184zm0 1.258h4.995c.102 0 .184-.082.184-.183s-.08-.184-.183-.184h-4.995c-.102 0-.184.083-.184.184s.082.184.184.184zm6.378-6.292h4.995c.1 0 .184-.082.184-.184s-.084-.184-.185-.184H16.57c-.1 0-.184.082-.184.184s.083.184.184.184zm0 1.26h4.995c.1 0 .184-.084.184-.185s-.084-.184-.185-.184H16.57c-.1 0-.184.082-.184.183s.083.184.184.184zm0 1.257h4.995c.1 0 .184-.082.184-.184 0-.1-.084-.183-.185-.183H16.57c-.1 0-.184.082-.184.184s.083.185.184.185z"/></svg>