<svg data-name="Layer 1" xmlns="http://www.w3.org/2000/svg" viewBox="0 0 36 36"><title>Icon-Red_Hat-Bank_safe-A-Black-RGB</title><path d="M15.68 13.82l-1.354-2.355a.75.75 0 1 0-1.3.747l1.358 2.362c-.11.092-.23.173-.333.275a4.5 4.5 0 0 0 0 6.375c.094.093.2.166.3.25l-1.383 2.3a.75.75 0 0 0 .642 1.14.75.75 0 0 0 .642-.364l1.388-2.3a4.48 4.48 0 0 0 6.032-3.46l2.717-.016a.75.75 0 0 0 .744-.755.782.782 0 0 0-.226-.543.65.65 0 0 0-.528-.2l-2.71.016a4.458 4.458 0 0 0-5.994-3.462zm-.548 6.363c-.006-.006-.015-.01-.02-.018a3.006 3.006 0 0 1 0-4.256c.007-.01.017-.015.025-.023L16.4 18.08zm4.235-.018a3 3 0 0 1-2.13.883 2.953 2.953 0 0 1-.8-.122l1.28-2.12 2.428-.015a3.01 3.01 0 0 1-.778 1.375zm.778-2.874l-2.462.016-1.24-2.16a2.974 2.974 0 0 1 3.7 2.145z"/><path d="M29.51 6.47a.747.747 0 0 0-.53-.22H7.02a.75.75 0 0 0-.75.75v22a.75.75 0 0 0 .75.75h21.96a.75.75 0 0 0 .75-.75V7a.745.745 0 0 0-.22-.53zM28.23 18v10.25H7.77V7.75h20.46z"/><path d="M23.47 11.53a.75.75 0 1 0 1.06-1.06.756.756 0 0 0-.53-.21.73.73 0 0 0-.526.21.748.748 0 0 0 0 1.06z"/></svg>