<svg xmlns="http://www.w3.org/2000/svg" width="32" height="32" viewBox="0 0 32 32"><path d="M28.485 16.87c0-1.223-2.704-2.078-6.245-2.526.553-.713 1.05-1.403 1.47-2.05 1.382-2.144 1.772-3.542 1.158-4.156-.187-.187-.45-.282-.783-.282-1.1 0-3.092 1.1-5.423 2.907-.448-3.54-1.303-6.243-2.526-6.243-1.222 0-2.078 2.703-2.525 6.244-2.33-1.81-4.323-2.908-5.423-2.908-.333 0-.597.095-.783.28-.614.615-.224 2.013 1.16 4.157.417.647.915 1.338 1.468 2.05-3.54.447-6.245 1.303-6.245 2.526s2.704 2.077 6.245 2.525c-.553.713-1.05 1.403-1.47 2.05C7.18 23.59 6.79 24.988 7.405 25.6c.187.188.45.283.784.283 1.1 0 3.093-1.1 5.424-2.908.447 3.54 1.303 6.243 2.525 6.243 1.223 0 2.078-2.703 2.526-6.243 2.33 1.808 4.323 2.908 5.423 2.908.333 0 .596-.095.783-.282.613-.613.223-2.01-1.16-4.155-.418-.647-.916-1.337-1.47-2.05 3.54-.448 6.246-1.303 6.246-2.526zm-4.4-8.444c.175 0 .303.038.38.115.276.278.12 1.345-1.236 3.445-.463.716-1.02 1.484-1.65 2.282-.847-.092-1.73-.163-2.63-.21-.048-.902-.12-1.787-.212-2.634 2.494-1.973 4.433-2.996 5.345-2.996zm-5.63 8.444c0 .325-.005.642-.01.954-.22.228-.442.457-.67.685-.23.23-.458.45-.684.67-.313.004-.63.008-.955.008-.325 0-.642-.004-.956-.01-.227-.218-.454-.44-.684-.67-.227-.226-.45-.454-.67-.682-.004-.314-.008-.63-.008-.956 0-.325.004-.642.01-.956.22-.228.44-.456.668-.683.23-.23.457-.45.683-.67.313-.004.63-.008.955-.008s.642.004.956.01c.227.218.454.44.684.67.228.227.45.455.67.684.006.313.01.63.01.954zm-.277-2.04c-.084-.085-.168-.166-.252-.25.162.006.323.012.482.02.006.158.013.32.018.482-.083-.084-.164-.17-.248-.253zm-.852-.834c-.257-.246-.514-.487-.77-.723.574-.517 1.128-.995 1.66-1.43.07.684.124 1.414.165 2.187-.35-.014-.7-.026-1.054-.034zm-.84-.012l-.35-.002c-.117 0-.234 0-.35.002.116-.11.234-.223.35-.33.115.107.232.22.35.33zm-1.542.012c-.352.008-.704.02-1.054.034.04-.773.096-1.503.165-2.186.53.436 1.086.913 1.658 1.43-.255.235-.512.476-.77.723zm-.6.585c-.083.084-.167.164-.25.25-.085.083-.165.167-.247.25.005-.16.01-.322.018-.48l.48-.02zm-1.082 1.098c-.246.257-.486.513-.722.77-.504-.56-.98-1.115-1.426-1.66.682-.068 1.41-.123 2.18-.163-.014.35-.025.7-.033 1.053zm-.012.844l-.002.35.002.348c-.11-.116-.22-.232-.327-.35.107-.115.218-.23.327-.348zm.012 1.542c.008.35.02.703.034 1.053-.77-.04-1.5-.096-2.18-.164.444-.544.92-1.098 1.425-1.657.237.256.477.512.723.77zm.584.597c.083.085.163.17.246.253.084.084.168.164.252.247-.162-.005-.322-.01-.48-.018l-.02-.48zm1.098 1.085c.257.246.514.487.77.723-.574.517-1.127.994-1.66 1.43-.068-.683-.123-1.413-.164-2.186.35.015.702.026 1.054.034zm.842.012l.35.002.35-.003c-.117.11-.235.223-.35.33-.115-.107-.234-.22-.35-.33zm1.54-.012c.352-.008.704-.02 1.055-.034-.04.774-.095 1.504-.164 2.188-.532-.436-1.086-.913-1.66-1.43.257-.236.513-.477.77-.723zm.6-.585c.084-.083.168-.163.252-.247s.164-.17.248-.253c-.005.163-.01.323-.018.482-.16.007-.32.013-.482.018zm1.084-1.098c.246-.256.485-.512.72-.768.505.56.982 1.114 1.427 1.657-.682.07-1.41.125-2.18.165.015-.35.026-.702.034-1.054zm.012-.844l.002-.347-.002-.346c.11.116.22.23.326.347-.107.117-.217.232-.326.348zm-.012-1.54c-.008-.35-.02-.703-.034-1.053.77.04 1.498.096 2.18.164-.445.543-.922 1.097-1.426 1.657-.235-.256-.475-.512-.72-.768zM16.135 5.09c.682 0 1.552 2.223 2.008 6.085-.65.523-1.323 1.096-2.008 1.714-.684-.62-1.356-1.192-2.007-1.715.456-3.86 1.326-6.085 2.007-6.085zM9.04 11.985c-1.353-2.1-1.51-3.167-1.234-3.444.076-.075.204-.114.38-.114.913 0 2.853 1.023 5.347 2.997-.093.846-.163 1.732-.21 2.634-.902.047-1.787.118-2.633.21-.63-.797-1.187-1.565-1.65-2.282zM4.357 16.87c0-.68 2.223-1.552 6.084-2.007.527.656 1.102 1.328 1.716 2.007-.613.68-1.188 1.352-1.716 2.008-3.86-.456-6.084-1.326-6.084-2.008zm3.83 8.445c-.176 0-.304-.04-.38-.115-.278-.277-.12-1.345 1.234-3.444.462-.717 1.02-1.485 1.65-2.282.845.093 1.73.163 2.63.21.048.903.12 1.788.212 2.635-2.494 1.972-4.434 2.995-5.346 2.995zm7.95 3.335c-.682 0-1.552-2.223-2.008-6.085.65-.523 1.323-1.096 2.007-1.714.684.62 1.357 1.192 2.008 1.715-.456 3.86-1.326 6.085-2.008 6.085zm7.094-6.894c1.354 2.1 1.512 3.167 1.235 3.444-.076.076-.204.115-.38.115-.912 0-2.85-1.022-5.345-2.996.093-.848.163-1.733.21-2.635.902-.047 1.786-.118 2.63-.21.63.797 1.188 1.565 1.65 2.282zm-1.4-2.878c-.526-.656-1.1-1.328-1.714-2.008.613-.68 1.188-1.352 1.716-2.007 3.86.456 6.084 1.326 6.084 2.007 0 .682-2.223 1.552-6.084 2.008zm-5.695-3.22c-.67 0-1.214.543-1.214 1.213s.545 1.215 1.215 1.215 1.215-.545 1.215-1.214-.545-1.213-1.215-1.213zm0 1.857c-.355 0-.644-.29-.644-.644 0-.354.29-.643.645-.643.356 0 .645.29.645.644 0 .356-.29.645-.645.645z"/></svg>