<svg xmlns="http://www.w3.org/2000/svg" viewBox="0 0 32 32"><path d="M28.85 11.45c.02-.07-.01-.14-.08-.17l-3.85-.66c-.02-.01-.19-.02-.21-.02H7.37c-.02 0-.19 0-.2.01l-3.93.66c-.07.03-.1.1-.08.17 0 .01-.01.02-.01.04v9.76c0 .08.07.15.15.15H28.7c.08 0 .15-.07.15-.15v-4.87-.01-4.88c.01-.01 0-.02 0-.03zm-9.93-.55l.83.44h-7.44l.96-.44h5.65zm-7.31 8.77v1.44H3.44v-2.14h8.17v.7zm0-2.39v1.38H3.44v-2.14h8.17v.76zm0-2.51v1.44H3.44v-2.14h8.17v.7zm0-2.38v1.38H3.44v-2.14h8.17v.76zm.05-1.05H4.61l2.64-.44h5.41l-1 .44zm8.42 8.33v1.44h-8.17v-2.14h8.17v.7zm0-2.39v1.38h-8.17v-2.14h8.17v.76zm0-2.51v1.44h-8.17v-2.14h8.17v.7zm0-2.38v1.38h-8.17v-2.14h8.17v.76zm-.58-1.49h5.33l2.64.44h-7.09l-.88-.44zm9.06 8.77v1.44H20.4v-2.14h8.17v.7zm0-2.39v1.38H20.4v-2.14h8.17v.76zm0-2.51v1.44H20.4v-2.14h8.17v.7h-.01zm0-2.38v1.38H20.4v-2.14h8.17v.76zm-24.58.37c0 .11.09.2.2.2s.2-.09.2-.2c0-.11-.09-.2-.2-.2-.11 0-.2.09-.2.2zm.72 0c0 .11.09.2.2.2s.2-.09.2-.2c0-.11-.09-.2-.2-.2-.11 0-.2.09-.2.2zm5.96.59h.44c.04 0 .07-.03.07-.07V12.1c0-.04-.03-.07-.07-.07h-.44c-.04 0-.07.03-.07.07v1.18c0 .04.03.07.07.07zm.08-1.18h.29v1.03h-.29v-1.03zm-.96 1.18h.44c.04 0 .07-.03.07-.07V12.1c0-.04-.03-.07-.07-.07h-.44c-.04 0-.07.03-.07.07v1.18c0 .04.03.07.07.07zm.07-1.18h.29v1.03h-.29v-1.03zm-5.87 3.09c0 .11.09.2.2.2s.2-.09.2-.2c0-.11-.09-.2-.2-.2-.11 0-.2.09-.2.2zm.72 0c0 .11.09.2.2.2s.2-.09.2-.2c0-.11-.09-.2-.2-.2-.11 0-.2.09-.2.2zm5.96.59h.44c.04 0 .07-.03.07-.07V14.6c0-.04-.03-.07-.07-.07h-.44c-.04 0-.07.03-.07.07v1.18c0 .04.03.07.07.07zm.08-1.18h.29v1.03h-.29v-1.03zm-.96 1.18h.44c.04 0 .07-.03.07-.07V14.6c0-.04-.03-.07-.07-.07h-.44c-.04 0-.07.03-.07.07v1.18c0 .04.03.07.07.07zm.07-1.18h.29v1.03h-.29v-1.03zm-5.87 2.94c0 .11.09.2.2.2s.2-.09.2-.2c0-.11-.09-.2-.2-.2-.11 0-.2.09-.2.2zm.72 0c0 .11.09.2.2.2s.2-.09.2-.2c0-.11-.09-.2-.2-.2-.11 0-.2.09-.2.2zm5.96.59h.44c.04 0 .07-.03.07-.07v-1.18c0-.04-.03-.07-.07-.07h-.44c-.04 0-.07.03-.07.07v1.18c0 .04.03.07.07.07zm.08-1.17h.29v1.03h-.29v-1.03zm-.96 1.17h.44c.04 0 .07-.03.07-.07v-1.18c0-.04-.03-.07-.07-.07h-.44c-.04 0-.07.03-.07.07v1.18c0 .04.03.07.07.07zm.07-1.17h.29v1.03h-.29v-1.03zm-5.87 3.09c0 .11.09.2.2.2s.2-.09.2-.2c0-.11-.09-.2-.2-.2-.11-.01-.2.09-.2.2zm.72 0c0 .11.09.2.2.2s.2-.09.2-.2c0-.11-.09-.2-.2-.2-.11-.01-.2.09-.2.2zm5.96.58h.44c.04 0 .07-.03.07-.07v-1.18c0-.04-.03-.07-.07-.07h-.44c-.04 0-.07.03-.07.07v1.18c0 .04.03.07.07.07zm.08-1.17h.29v1.03h-.29v-1.03zm-.96 1.17h.44c.04 0 .07-.03.07-.07v-1.18c0-.04-.03-.07-.07-.07h-.44c-.04 0-.07.03-.07.07v1.18c0 .04.03.07.07.07zm.07-1.17h.29v1.03h-.29v-1.03zm2.66-6.77c0 .11.09.2.2.2s.2-.09.2-.2c0-.11-.09-.2-.2-.2-.11 0-.2.09-.2.2zm.72 0c0 .11.09.2.2.2.11 0 .2-.09.2-.2 0-.11-.09-.2-.2-.2-.11 0-.2.09-.2.2zm5.97.59h.44c.04 0 .07-.03.07-.07V12.1c0-.04-.03-.07-.07-.07h-.44c-.04 0-.07.03-.07.07v1.18c-.01.04.03.07.07.07zm.07-1.18h.29v1.03h-.29v-1.03zm-.96 1.18h.44c.04 0 .07-.03.07-.07V12.1c0-.04-.03-.07-.07-.07h-.44c-.04 0-.07.03-.07.07v1.18c0 .04.03.07.07.07zm.08-1.18h.29v1.03h-.29v-1.03zm-5.88 3.09c0 .11.09.2.2.2s.2-.09.2-.2c0-.11-.09-.2-.2-.2-.11 0-.2.09-.2.2zm.72 0c0 .11.09.2.2.2.11 0 .2-.09.2-.2 0-.11-.09-.2-.2-.2-.11 0-.2.09-.2.2zm5.97.59h.44c.04 0 .07-.03.07-.07V14.6c0-.04-.03-.07-.07-.07h-.44c-.04 0-.07.03-.07.07v1.18c-.01.04.03.07.07.07zm.07-1.18h.29v1.03h-.29v-1.03zm-.96 1.18h.44c.04 0 .07-.03.07-.07V14.6c0-.04-.03-.07-.07-.07h-.44c-.04 0-.07.03-.07.07v1.18c0 .04.03.07.07.07zm.08-1.18h.29v1.03h-.29v-1.03zm-5.88 2.94c0 .11.09.2.2.2s.2-.09.2-.2c0-.11-.09-.2-.2-.2-.11 0-.2.09-.2.2zm.72 0c0 .11.09.2.2.2.11 0 .2-.09.2-.2 0-.11-.09-.2-.2-.2-.11 0-.2.09-.2.2zm5.97.59h.44c.04 0 .07-.03.07-.07v-1.18c0-.04-.03-.07-.07-.07h-.44c-.04 0-.07.03-.07.07v1.18c-.01.04.03.07.07.07zm.07-1.17h.29v1.03h-.29v-1.03zm-.96 1.17h.44c.04 0 .07-.03.07-.07v-1.18c0-.04-.03-.07-.07-.07h-.44c-.04 0-.07.03-.07.07v1.18c0 .04.03.07.07.07zm.08-1.17h.29v1.03h-.29v-1.03zm-5.88 3.09c0 .11.09.2.2.2s.2-.09.2-.2c0-.11-.09-.2-.2-.2-.11-.01-.2.09-.2.2zm.72 0c0 .11.09.2.2.2.11 0 .2-.09.2-.2 0-.11-.09-.2-.2-.2-.11-.01-.2.09-.2.2zm5.97.58h.44c.04 0 .07-.03.07-.07v-1.18c0-.04-.03-.07-.07-.07h-.44c-.04 0-.07.03-.07.07v1.18c-.01.04.03.07.07.07zm.07-1.17h.29v1.03h-.29v-1.03zm-.96 1.17h.44c.04 0 .07-.03.07-.07v-1.18c0-.04-.03-.07-.07-.07h-.44c-.04 0-.07.03-.07.07v1.18c0 .04.03.07.07.07zm.08-1.17h.29v1.03h-.29v-1.03zm2.51-6.77c0 .11.09.2.2.2s.2-.09.2-.2c0-.11-.09-.2-.2-.2-.11 0-.2.09-.2.2zm.71 0c0 .11.09.2.2.2.11 0 .2-.09.2-.2 0-.11-.09-.2-.2-.2-.11 0-.2.09-.2.2zm5.97.59h.44c.04 0 .07-.03.07-.07V12.1c0-.04-.03-.07-.07-.07h-.44c-.04 0-.07.03-.07.07v1.18c0 .04.03.07.07.07zm.08-1.18h.29v1.03h-.29v-1.03zm-.96 1.18h.44c.04 0 .07-.03.07-.07V12.1c0-.04-.03-.07-.07-.07h-.44c-.04 0-.07.03-.07.07v1.18c0 .04.03.07.07.07zm.07-1.18h.29v1.03h-.29v-1.03zm-5.87 3.09c0 .11.09.2.2.2s.2-.09.2-.2c0-.11-.09-.2-.2-.2-.11 0-.2.09-.2.2zm.71 0c0 .11.09.2.2.2.11 0 .2-.09.2-.2 0-.11-.09-.2-.2-.2-.11 0-.2.09-.2.2zm5.97.59h.44c.04 0 .07-.03.07-.07V14.6c0-.04-.03-.07-.07-.07h-.44c-.04 0-.07.03-.07.07v1.18c0 .04.03.07.07.07zm.08-1.18h.29v1.03h-.29v-1.03zm-.96 1.18h.44c.04 0 .07-.03.07-.07V14.6c0-.04-.03-.07-.07-.07h-.44c-.04 0-.07.03-.07.07v1.18c0 .04.03.07.07.07zm.07-1.18h.29v1.03h-.29v-1.03zm-5.87 2.94c0 .11.09.2.2.2s.2-.09.2-.2c0-.11-.09-.2-.2-.2-.11 0-.2.09-.2.2zm.71 0c0 .11.09.2.2.2.11 0 .2-.09.2-.2 0-.11-.09-.2-.2-.2-.11 0-.2.09-.2.2zm5.97.59h.44c.04 0 .07-.03.07-.07v-1.18c0-.04-.03-.07-.07-.07h-.44c-.04 0-.07.03-.07.07v1.18c0 .04.03.07.07.07zm.08-1.17h.29v1.03h-.29v-1.03zm-.96 1.17h.44c.04 0 .07-.03.07-.07v-1.18c0-.04-.03-.07-.07-.07h-.44c-.04 0-.07.03-.07.07v1.18c0 .04.03.07.07.07zm.07-1.17h.29v1.03h-.29v-1.03zm-5.87 3.09c0 .11.09.2.2.2s.2-.09.2-.2c0-.11-.09-.2-.2-.2-.11-.01-.2.09-.2.2zm.71 0c0 .11.09.2.2.2.11 0 .2-.09.2-.2 0-.11-.09-.2-.2-.2-.11-.01-.2.09-.2.2zm5.97.58h.44c.04 0 .07-.03.07-.07v-1.18c0-.04-.03-.07-.07-.07h-.44c-.04 0-.07.03-.07.07v1.18c0 .04.03.07.07.07zm.08-1.17h.29v1.03h-.29v-1.03zm-.96 1.17h.44c.04 0 .07-.03.07-.07v-1.18c0-.04-.03-.07-.07-.07h-.44c-.04 0-.07.03-.07.07v1.18c0 .04.03.07.07.07zm.07-1.17h.29v1.03h-.29v-1.03z"/></svg>