<svg id="Layer_1" xmlns="http://www.w3.org/2000/svg" viewBox="0 0 32 32"><style>.st0{fill:#010101;}</style><path class="st0" d="M27.34 16.1c0-2.38-1.56-3.46-3.02-3.46-.62 0-1.18.16-1.65.47v-.4c0-.41-.02-.82-.14-1.48-.06-.34-.35-.59-.7-.59h-5.8c-.34 0-.64.25-.7.59-.12.66-.14 1.07-.14 1.48 0 .2.01.78.02 1.46.01.99.03 2.22.03 2.86 0 .69-.02 1.7-.03 2.44-.01.42-.01.75-.01.88 0 .12-.18.54-.29.8-.19.45-.31.74-.31.94 0 .62.52 1.26 4.35 1.26s4.35-.64 4.35-1.26c0-.03-.01-.06-.01-.08 1.87-1.17 4.05-3.11 4.05-5.91zm-4.65 4.24c0-.13 0-.46-.01-.88-.01-.74-.03-1.75-.03-2.44 0-.48.01-1.29.02-2.09.35-.66 1.02-1.09 1.76-1.09.84 0 1.74.62 1.74 2.36 0 1.88-1.59 3.76-3.47 4.17-.01 0-.01-.02-.01-.03zm-3.74 2.41c-3.65 0-3.76-.6-3.76-.67.01-.1.16-.47.27-.71.21-.49.34-.81.34-1.03 0-.12.01-.45.01-.87.01-.74.03-1.76.03-2.45 0-.64-.01-1.87-.03-2.87-.01-.68-.02-1.25-.02-1.45 0-.38.02-.76.13-1.38.01-.06.06-.1.11-.1h5.8c.06 0 .1.04.11.1.11.62.13 1 .13 1.38 0 .2-.01.77-.01 1.45-.01 1-.03 2.23-.03 2.87 0 .69.02 1.71.03 2.45.01.42.01.74.01.87 0 .22.13.54.34 1.03.1.24.26.6.27.7.02.08-.08.68-3.73.68zm4.14-1.34c-.03-.08-.07-.17-.12-.27-.06-.13-.13-.31-.19-.47 1.99-.45 3.67-2.45 3.67-4.46 0-2.53-1.69-2.66-2.03-2.66-.69 0-1.33.32-1.76.85v-.24-.29c.43-.42.98-.64 1.65-.64.9 0 2.42.6 2.42 2.87.02 2-1.21 3.79-3.64 5.31zM13.38 10.28c.08 0 .15-.07.15-.15s-.07-.15-.15-.15H8.49c-.07 0-.13.05-.15.12-.17.81-.24 1.62-.24 2.62 0 2.09.46 3.47.87 4.7.32.96.6 1.8.6 2.8 0 1.2-.4 1.85-.69 2.32l-.05.09c-.04.07-.02.16.05.2.02.01.05.02.08.02.05 0 .1-.03.13-.07l.05-.09c.29-.47.74-1.19.74-2.47 0-1.05-.3-1.94-.62-2.89-.4-1.2-.86-2.56-.86-4.6 0-.93.07-1.68.21-2.44l4.77-.01z"/><path class="st0" d="M21.49 13.08H16.5c-.08 0-.15.07-.15.15v7.12c0 .32-.14.67-.38 1.21l-.11.26c-.03.08 0 .16.08.19.02.01.04.01.06.01.06 0 .11-.03.14-.09l.11-.25c.25-.58.4-.95.4-1.33v-6.97h4.84c.08 0 .15-.07.15-.15s-.07-.15-.15-.15zM13.31 20.04c0-.69.25-1.45.53-2.33.4-1.24.91-2.77.91-4.77 0-1.24-.08-2.73-.66-4.38-.11-.32-.41-.53-.74-.53H8.42c-.33 0-.63.21-.74.53-.58 1.66-.66 3.14-.66 4.38 0 2 .5 3.54.91 4.77.29.88.54 1.63.54 2.33 0 1.16-.28 1.53-.52 1.87-.18.24-.36.49-.36.93 0 .33.16.9 1.22 1.02.56.07 1.33.1 2.09.1s1.53-.03 2.08-.1c1.06-.12 1.22-.69 1.22-1.02 0-.44-.18-.69-.36-.93-.25-.33-.53-.71-.53-1.87zm-.4 3.24c-1.07.13-2.95.13-4.03 0-.46-.05-.7-.2-.7-.43 0-.25.09-.37.25-.58.27-.37.64-.87.64-2.22 0-.79-.26-1.59-.56-2.51-.41-1.26-.88-2.68-.88-4.59 0-1.19.07-2.61.62-4.19.03-.08.1-.13.18-.13h4.94c.08 0 .15.05.18.13.55 1.57.62 3 .62 4.19 0 1.91-.47 3.33-.88 4.59-.3.92-.56 1.72-.56 2.51 0 1.35.37 1.85.64 2.22.15.21.25.34.25.58-.02.23-.25.38-.71.43z"/></svg>