<svg xmlns="http://www.w3.org/2000/svg" viewBox="0 0 32 32"><path d="M27.99 14.65l-2.36-2.61c-.85-1.86-2.23-3.43-3.94-4.52.09-.28.15-.57.15-.87 0-1.49-1.22-2.71-2.71-2.71-1.24 0-2.28.83-2.6 1.97-.15-.01-.3-.02-.45-.02-2.55 0-4.88.91-6.7 2.42l-1.1-.89c-.05-.05-.12-.06-.18-.04-.06.02-.1.07-.12.13l-.91 3.47c-.95 1.58-1.5 3.43-1.5 5.41 0 .26.01.52.03.77-.96.42-1.64 1.37-1.64 2.49 0 1.49 1.22 2.71 2.71 2.71.24 0 .48-.03.7-.1 1.41 2.09 3.55 3.64 6.06 4.29l-.11 1.31c-.01.06.02.12.07.16s.12.05.18.03l3.42-1.21c1.96-.17 3.76-.88 5.27-1.97.46.36 1.04.58 1.66.58 1.5 0 2.71-1.22 2.71-2.71 0-.83-.37-1.57-.96-2.07.59-1.31.92-2.76.92-4.29 0-.33-.02-.67-.05-.99l1.38-.44c.06-.02.11-.07.12-.13.01-.05 0-.12-.05-.17zm-10.9-8.03c0-.23.05-.46.12-.67.28-.78 1.03-1.34 1.91-1.34 1.12 0 2.03.91 2.03 2.03 0 .18-.03.35-.07.52-.06.22-.15.43-.28.62-.37.54-.98.89-1.68.89-1.12 0-2.03-.91-2.03-2.03v-.02zM6.99 21.65c-.1.02-.21.03-.32.03-1.12 0-2.03-.91-2.03-2.03 0-.76.42-1.42 1.04-1.77.2-.11.42-.19.66-.23.11-.02.22-.03.33-.03 1.12 0 2.03.91 2.03 2.03 0 .77-.43 1.43-1.05 1.78-.2.11-.43.19-.66.22zm18.95 1.09c0 1.12-.91 2.03-2.03 2.03-.41 0-.79-.12-1.11-.33-.19-.12-.36-.28-.5-.47-.26-.34-.42-.77-.42-1.24 0-1.12.91-2.03 2.03-2.03.32 0 .62.08.88.2.21.1.4.23.56.39.36.38.59.89.59 1.45zm-.86-2.44c-.36-.17-.75-.27-1.17-.27-1.5 0-2.71 1.22-2.71 2.71 0 .62.21 1.19.57 1.65-1.5 1.07-3.31 1.73-5.27 1.81l-2.64-1.51c-.05-.03-.12-.03-.18 0s-.09.08-.1.15l-.09 1.03c-2.25-.61-4.17-2.01-5.47-3.87.81-.47 1.36-1.34 1.36-2.35 0-1.5-1.22-2.71-2.71-2.71-.14 0-.27.01-.4.03-.01-.19-.03-.39-.03-.58 0-2 .6-3.86 1.63-5.41l2.73-1.33c.06-.03.1-.08.1-.15.01-.06-.02-.12-.07-.16l-.72-.6c1.69-1.36 3.83-2.18 6.16-2.18.11 0 .23.01.34.01v.07c0 1.49 1.22 2.71 2.71 2.71.95 0 1.78-.49 2.26-1.22 1.67 1.08 3 2.65 3.77 4.51l-.38 3.04c-.01.06.02.12.07.16.05.04.11.05.17.03l.85-.27c.02.26.03.52.03.78.01 1.4-.28 2.72-.81 3.92z"/></svg>