<svg xmlns="http://www.w3.org/2000/svg" viewBox="0 0 32 32"><path d="M11.66 9.86c0 .24.19.43.42.43s.42-.19.42-.42v-.01-.01c0-.23-.19-.42-.42-.42s-.42.19-.42.43zm1.49 5.12c0 .23.19.42.42.42s.43-.19.43-.42-.19-.42-.42-.42-.43.18-.43.42zm-1.49 0c0 .24.19.43.42.43s.42-.19.42-.42v-.01-.01c0-.23-.19-.42-.42-.42s-.42.19-.42.43c0-.01 0-.01 0 0zm0-1.53c0 .24.19.43.42.43s.42-.19.42-.42v-.01-.01c0-.23-.19-.42-.42-.42s-.42.19-.42.43zm1.49 0c0 .23.19.42.42.42s.43-.19.43-.42-.19-.42-.42-.42-.43.19-.43.42zm7.56-5.12v.01c0 .23.19.42.42.42.23 0 .42-.19.42-.42v-.01-.01c0-.23-.19-.42-.42-.42-.23 0-.42.19-.42.42v.01zM8.62 13.45c0 .24.19.43.42.43s.42-.19.42-.42v-.01-.01c0-.23-.19-.42-.42-.42s-.42.19-.42.43zm1.49 0c0 .24.19.43.42.43s.42-.19.42-.42v-.01-.01c0-.23-.19-.42-.42-.42s-.42.19-.42.43zm-1.49 1.53c0 .24.19.43.42.43s.42-.19.42-.42v-.01-.01c0-.23-.19-.42-.42-.42s-.42.19-.42.43c0-.01 0-.01 0 0zm1.49 0c0 .24.19.43.42.43s.42-.19.42-.42v-.01-.01c0-.23-.19-.42-.42-.42s-.42.19-.42.43c0-.01 0-.01 0 0zm4.58 0c0 .23.19.42.42.42s.42-.19.42-.42c0-.23-.19-.42-.42-.42s-.42.18-.42.42zm3.04-1.53c0 .23.19.42.42.42s.42-.19.42-.42-.19-.42-.42-.42c-.24 0-.42.19-.42.42zm1.49 1.53v.01c0 .23.19.42.42.42.23 0 .42-.19.42-.42v-.01-.01c0-.23-.19-.42-.42-.42-.23 0-.42.19-.42.42v.01zm0-1.53v.01c0 .23.19.42.42.42.23 0 .42-.19.42-.42v-.01-.01c0-.23-.19-.42-.42-.42-.23 0-.42.19-.42.42v.01zm-4.53 0c0 .23.19.42.42.42s.42-.19.42-.42c0-.23-.19-.42-.42-.42s-.42.19-.42.42zm6.02 1.53v.01c0 .23.19.42.42.42.23 0 .42-.19.42-.42v-.01-.01c0-.23-.19-.42-.42-.42-.23 0-.42.19-.42.42v.01zm-2.98 0c0 .23.19.42.42.42s.42-.19.42-.42-.19-.42-.42-.42c-.24-.01-.42.18-.42.42zm-1.55 0v.01c0 .23.19.42.42.42s.42-.19.42-.42v-.01-.01c0-.23-.19-.42-.42-.42-.23 0-.42.19-.42.42v.01zm0-1.53v.01c0 .23.19.42.42.42s.42-.19.42-.42v-.01-.01c0-.23-.19-.42-.42-.42-.23 0-.42.19-.42.42v.01zm-1.49-5.12c0 .23.19.42.42.42s.42-.19.42-.42c0-.23-.19-.42-.42-.42s-.42.19-.42.42zm6.02 15.33v.01c0 .23.19.42.42.42.23 0 .42-.19.42-.42v-.01-.01c0-.23-.19-.42-.42-.42-.23 0-.42.19-.42.42v.01zM11.66 8.33s0 .01 0 0c0 .24.19.43.42.43s.42-.19.42-.42v-.01-.01c0-.23-.19-.42-.42-.42s-.42.19-.42.43zm-1.55 1.53c0 .24.19.43.42.43s.42-.19.42-.42v-.01-.01c0-.23-.19-.42-.42-.42s-.42.19-.42.43zm3.04 0c0 .23.19.42.42.42s.43-.19.43-.42-.19-.42-.42-.42-.43.19-.43.42zm11.96-3.34c.04-.14-.02-.29-.16-.35l-2.82-1.38c-.04-.02-.08-.04-.13-.04H10.43c-.04 0-.08.01-.12.02L7.06 6.16c-.14.06-.21.21-.17.36 0 .02-.01.05-.01.08v20.35c0 .17.14.31.31.31h17.63c.17 0 .31-.14.31-.31V16.79v-.02V6.6c-.01-.03-.02-.06-.02-.08zM10.49 5.37h11.44l1.89.92H8.32l2.17-.92zm14.02 19.49h-1.54c-.25 0-.46-.2-.46-.46s.2-.46.46-.46h1.54v.92zm0-1.22h-1.54c-.42 0-.76.34-.76.76s.34.76.76.76h1.54v1.47H7.49v-4.46h17.02v1.47zm0-3.74h-1.54c-.25 0-.46-.2-.46-.46s.2-.46.46-.46h1.54v.92zm0-1.22h-1.54c-.42 0-.76.34-.76.76s.34.76.76.76h1.54v1.36H7.49V17.1h17.02v1.58zm0-4.01h-1.54c-.25 0-.46-.2-.46-.46s.2-.46.46-.46h1.54v.92zm0-1.22h-1.54c-.42 0-.76.34-.76.76s.34.76.76.76h1.54v1.47H7.49v-4.46h17.02v1.47zm0-3.74h-1.54c-.25 0-.46-.2-.46-.46s.2-.46.46-.46h1.54v.92zm0-1.22h-1.54c-.42 0-.76.34-.76.76s.34.76.76.76h1.54v1.36H7.49V6.9h17.02v1.59zM8.62 8.33s0 .01 0 0c0 .24.19.43.42.43s.42-.19.42-.42v-.01-.01c0-.23-.19-.42-.42-.42s-.42.19-.42.43zm4.53 0c0 .23.19.42.42.42s.43-.18.43-.42-.19-.42-.42-.42-.43.19-.43.42zM8.62 9.86c0 .24.19.43.42.43s.42-.19.42-.42v-.01-.01c0-.23-.19-.42-.42-.42s-.42.19-.42.43zm7.56-1.53v.01c0 .23.19.42.42.42s.42-.19.42-.42v-.01-.01c0-.23-.19-.42-.42-.42-.23 0-.42.19-.42.42v.01zm1.55 0c0 .23.19.42.42.42s.42-.19.42-.42-.19-.42-.42-.42c-.24 0-.42.19-.42.42zm0 1.53c0 .23.19.42.42.42s.42-.19.42-.42-.19-.42-.42-.42c-.24 0-.42.19-.42.42zm1.49 0v.01c0 .23.19.42.42.42.23 0 .42-.19.42-.42v-.01-.01c0-.23-.19-.42-.42-.42-.23 0-.42.19-.42.42v.01zm0-1.53v.01c0 .23.19.42.42.42.23 0 .42-.19.42-.42v-.01-.01c0-.23-.19-.42-.42-.42-.23 0-.42.19-.42.42v.01zm-4.53 1.53c0 .23.19.42.42.42s.42-.19.42-.42c0-.23-.19-.42-.42-.42s-.42.19-.42.42zm6.02 3.59v.01c0 .23.19.42.42.42.23 0 .42-.19.42-.42v-.01-.01c0-.23-.19-.42-.42-.42-.23 0-.42.19-.42.42v.01zm-4.53-3.59v.01c0 .23.19.42.42.42s.42-.19.42-.42v-.01-.01c0-.23-.19-.42-.42-.42-.23 0-.42.19-.42.42v.01zm4.53 0v.01c0 .23.19.42.42.42.23 0 .42-.19.42-.42v-.01-.01c0-.23-.19-.42-.42-.42-.23 0-.42.19-.42.42v.01zm-10.6-1.53s0 .01 0 0c0 .24.19.43.42.43s.42-.19.42-.42v-.01-.01c0-.23-.19-.42-.42-.42s-.42.19-.42.43zm4.58 16.86c0 .23.19.42.42.42s.42-.19.42-.42c0-.23-.19-.42-.42-.42s-.42.19-.42.42zm-3.03 0c0 .24.19.43.42.43s.42-.19.42-.42c0-.23-.19-.42-.42-.42s-.42.17-.42.41zm-3.04 0c0 .24.19.43.42.43s.42-.19.42-.42c0-.23-.19-.42-.42-.42s-.42.17-.42.41zm4.53-1.53c0 .23.19.42.42.42s.43-.18.43-.42c0-.23-.19-.42-.42-.42s-.43.19-.43.42zm-1.49 0c0 .01 0 .01 0 0 0 .24.19.43.42.43s.42-.19.42-.42c0-.23-.19-.42-.42-.42s-.42.18-.42.41zm-3.04 0c0 .01 0 .01 0 0 0 .24.19.43.42.43s.42-.19.42-.42c0-.23-.19-.42-.42-.42s-.42.18-.42.41zm1.49 0c0 .01 0 .01 0 0 0 .24.19.43.42.43s.42-.19.42-.42c0-.23-.19-.42-.42-.42s-.42.18-.42.41zm0 1.53c0 .24.19.43.42.43s.42-.19.42-.42c0-.23-.19-.42-.42-.42s-.42.17-.42.41zm3.04 0c0 .23.19.42.42.42s.43-.19.43-.42c0-.23-.19-.42-.42-.42s-.43.19-.43.42zm6.07 0v.01c0 .23.19.42.42.42.23 0 .42-.19.42-.42v-.01-.01c0-.23-.19-.42-.42-.42-.23 0-.42.19-.42.42v.01zm0-1.53v.01c0 .23.19.42.42.42.23 0 .42-.19.42-.42v-.01-.01c0-.23-.19-.42-.42-.42-.23 0-.42.19-.42.42v.01zm1.49 1.53v.01c0 .23.19.42.42.42.23 0 .42-.19.42-.42v-.01-.01c0-.23-.19-.42-.42-.42-.23 0-.42.19-.42.42v.01zm-2.98-1.53c0 .23.19.42.42.42s.42-.19.42-.42c0-.23-.19-.42-.42-.42-.24 0-.42.19-.42.42zm0 1.53c0 .23.19.42.42.42s.42-.19.42-.42c0-.23-.19-.42-.42-.42-.24 0-.42.19-.42.42zm-1.55 0v.01c0 .23.19.42.42.42s.42-.19.42-.42v-.01-.01c0-.23-.19-.42-.42-.42-.23 0-.42.19-.42.42v.01zm-1.49-1.53c0 .23.19.42.42.42s.42-.19.42-.42c0-.23-.19-.42-.42-.42s-.42.19-.42.42zm1.49 0v.01c0 .23.19.42.42.42s.42-.19.42-.42v-.01-.01c0-.23-.19-.42-.42-.42-.23 0-.42.19-.42.42v.01zm-3.03-5.1c0 .23.19.42.42.42s.43-.18.43-.42c0-.23-.19-.42-.42-.42s-.43.19-.43.42zm1.54 1.53c0 .23.19.42.42.42s.42-.19.42-.42c0-.23-.19-.42-.42-.42s-.42.19-.42.42zm-1.54 0c0 .23.19.42.42.42s.43-.19.43-.42c0-.23-.19-.42-.42-.42s-.43.19-.43.42zm-4.53 0c0 .24.19.43.42.43s.42-.19.42-.42c0-.23-.19-.42-.42-.42s-.42.17-.42.41zm3.04 0c0 .24.19.43.42.43s.42-.19.42-.42c0-.23-.19-.42-.42-.42s-.42.17-.42.41zm0-1.53c0 .01 0 .01 0 0 0 .24.19.43.42.43s.42-.19.42-.42c0-.23-.19-.42-.42-.42s-.42.18-.42.41zm-3.04 0c0 .01 0 .01 0 0 0 .24.19.43.42.43s.42-.19.42-.42c0-.23-.19-.42-.42-.42s-.42.18-.42.41zm1.49 1.53c0 .24.19.43.42.43s.42-.19.42-.42c0-.23-.19-.42-.42-.42s-.42.17-.42.41zm0-1.53c0 .01 0 .01 0 0 0 .24.19.43.42.43s.42-.19.42-.42c0-.23-.19-.42-.42-.42s-.42.18-.42.41zm7.62 1.53c0 .23.19.42.42.42s.42-.19.42-.42c0-.23-.19-.42-.42-.42-.24 0-.42.19-.42.42zm1.49 0v.01c0 .23.19.42.42.42.23 0 .42-.19.42-.42v-.01-.01c0-.23-.19-.42-.42-.42-.23 0-.42.19-.42.42v.01zm0-1.53v.01c0 .23.19.42.42.42.23 0 .42-.19.42-.42v-.01-.01c0-.23-.19-.42-.42-.42-.23 0-.42.19-.42.42v.01zm-1.49 0c0 .23.19.42.42.42s.42-.19.42-.42c0-.23-.19-.42-.42-.42-.24 0-.42.19-.42.42zm-3.04 0c0 .23.19.42.42.42s.42-.19.42-.42c0-.23-.19-.42-.42-.42s-.42.19-.42.42zm6.02 1.53v.01c0 .23.19.42.42.42.23 0 .42-.19.42-.42v-.01-.01c0-.23-.19-.42-.42-.42-.23 0-.42.19-.42.42v.01zm0-1.53v.01c0 .23.19.42.42.42.23 0 .42-.19.42-.42v-.01-.01c0-.23-.19-.42-.42-.42-.23 0-.42.19-.42.42v.01zm-4.53 1.53v.01c0 .23.19.42.42.42s.42-.19.42-.42v-.01-.01c0-.23-.19-.42-.42-.42-.23 0-.42.19-.42.42v.01zm0-1.53v.01c0 .23.19.42.42.42s.42-.19.42-.42v-.01-.01c0-.23-.19-.42-.42-.42-.23 0-.42.19-.42.42v.01z"/></svg>