<svg data-name="Layer 1" xmlns="http://www.w3.org/2000/svg" viewBox="0 0 36 36"><title>Icon-Red_Hat-Software_and_technologies-Data-A-Black-RGB</title><path d="M7.5 18.75a.76.76 0 0 0-.75.75v6a.75.75 0 0 0 1.5 0v-6a.76.76 0 0 0-.75-.75zm4 0a.76.76 0 0 0-.75.75v6a.75.75 0 0 0 1.5 0v-6a.76.76 0 0 0-.75-.75zm-4-9a.76.76 0 0 0-.75.75v6a.75.75 0 0 0 1.5 0v-6a.76.76 0 0 0-.75-.75zm12 7.5a.76.76 0 0 0 .75-.75v-6a.75.75 0 0 0-1.5 0v6a.76.76 0 0 0 .75.75zm4 1.5a.76.76 0 0 0-.75.75v6a.75.75 0 0 0 1.5 0v-6a.76.76 0 0 0-.75-.75zm-6.25-5.25a3.75 3.75 0 1 0-3.75 3.75 3.75 3.75 0 0 0 3.75-3.75zm-3.75 2.25a2.25 2.25 0 1 1 2.25-2.25 2.25 2.25 0 0 1-2.25 2.25zm15.75-2.25a3.75 3.75 0 1 0-3.75 3.75 3.75 3.75 0 0 0 3.75-3.75zm-3.75 2.25a2.25 2.25 0 1 1 2.25-2.25 2.25 2.25 0 0 1-2.25 2.25zm2 3a.76.76 0 0 0-.75.75v6a.75.75 0 0 0 1.5 0v-6a.76.76 0 0 0-.75-.75zm-10 0a3.75 3.75 0 1 0 3.75 3.75 3.75 3.75 0 0 0-3.75-3.75zm0 6a2.25 2.25 0 1 1 2.25-2.25 2.25 2.25 0 0 1-2.25 2.25z"/></svg>