<svg xmlns="http://www.w3.org/2000/svg" width="32" height="32" viewBox="0 0 32 32"><path d="M22.023 13.682c-.516 0-.936.42-.936.936s.42.935.936.935.936-.42.936-.935-.42-.936-.937-.936zm0 1.412c-.262 0-.476-.213-.476-.476s.214-.476.476-.476.476.214.476.476-.215.476-.477.476zm5.787-.36l-1.718-.41c-.13-.032-.433-.123-.514-.422-.3-1.113-1-2.095-1.824-2.972.142-.342.182-.846.535-1.378.368-.557.99-1.27.253-1.574-.174-.072-.374-.103-.59-.103-.95 0-2.19.624-2.7 1.13-.976-.542-2.07-.95-3.24-1.208C17.78 6.532 16.67 5.57 15.34 5.57c-1.31 0-2.404.93-2.665 2.16-4.738.926-8.262 4.4-8.262 8.543 0 .157.006.313.017.467-.012.01-.026.02-.038.032-.284.246-.585.58-.773 1.04-.167.43-.23.88-.18 1.33.082.91.73 1.668 1.325 1.854.2.072.374.1.518.1.284 0 .45-.107.452-.185.018-.15-.306-.28-.553-.59-.262-.288-.397-.752-.306-1.19.015-.08.04-.157.068-.23.42.972 1.078 1.823 1.918 2.54.36 1.606 1.037 2.535 1.037 2.535s.377 2.456 1.182 2.456h2.434c.482 0 .936-.39 1.012-.873 0 0-.393-.864-.43-1.437-.006-.102.018-.217.05-.336.97.18 1.988.276 3.047.276.59 0 1.167-.03 1.732-.086 0 0 .767 2.456 1.573 2.456h2.436c.482 0 .874-.39.874-.873 0 0-.53-.864-.658-1.437-.116-.523.38-1.39.38-1.39 1.58-.768 2.84-1.853 3.607-3.208l1.447.345c.078.02.157.028.234.028.453 0 .863-.31.973-.77l.762-3.185c.13-.535-.202-1.077-.74-1.206zM13.075 8.28c0-.222.035-.435.096-.637.28-.932 1.147-1.613 2.17-1.613 1.04 0 1.916.706 2.18 1.665.053.192.083.392.083.6l-.002.038c-.002.163-.022.323-.057.476-.095-.026-.19-.048-.287-.07.036-.147.057-.3.058-.46 0-.228-.036-.438-.102-.634-.262-.784-1.002-1.35-1.873-1.35-.854 0-1.58.543-1.856 1.302-.073.2-.115.413-.12.637v.035c0 .183.027.36.074.528 0 0-.196.045-.287.07-.047-.184-.075-.375-.075-.574V8.28zm3.932-.01c0 .14-.02.278-.053.41-1.16-.2-2.326-.11-3.217.057-.043-.148-.068-.305-.068-.467 0-.027.002-.053.003-.08.01-.224.066-.438.158-.63.27-.566.843-.96 1.508-.96.678 0 1.262.41 1.523.99.09.198.14.416.145.644v.036zm10.948 7.528l-.76 3.185c-.043.176-.198.3-.378.3-.03 0-.06-.005-.092-.012l-1.447-.344c-.047-.01-.095-.017-.142-.017-.217 0-.423.115-.533.31-.684 1.206-1.84 2.23-3.342 2.96-.11.053-.202.14-.264.246-.102.18-.605 1.108-.445 1.826.11.49.435 1.105.616 1.422-.043.085-.13.142-.232.142h-2.392c-.258-.158-.74-1.104-1.03-2.026-.006-.02-.02-.038-.03-.057.407-.067.81-.144 1.203-.245.123-.032.197-.157.166-.28-.03-.123-.157-.196-.28-.166-.55.14-1.114.248-1.687.32h-.016c-.558.056-1.12.084-1.672.084-.993 0-1.98-.09-2.933-.266-.01-.002-.02 0-.028-.002-1.1-.228-2.147-.585-3.1-1.07-.114-.056-.253-.01-.31.102-.058.113-.013.252.1.31.838.424 1.742.752 2.688.988-.018.035-.04.068-.05.108-.04.13-.087.33-.075.543.032.49.256 1.102.39 1.428-.076.128-.224.23-.36.23h-2.37c-.21-.2-.514-1.11-.642-1.936-.015-.097-.053-.19-.11-.27-.007-.007-.607-.84-.934-2.307-.03-.13-.1-.247-.2-.333-.79-.674-1.38-1.453-1.753-2.316-.097-.225-.318-.37-.563-.37-.26.005-.48.158-.57.39-.046.115-.08.23-.098.33-.053.25-.055.508-.013.757-.11-.198-.193-.43-.215-.687-.04-.35.01-.7.138-1.032.12-.292.318-.557.598-.8l.016-.014.02-.017c.153-.126.235-.32.22-.517-.01-.13-.015-.273-.015-.423 0-3.792 3.23-6.988 7.594-7.907.005.218.035.43.09.632-.213.072-.375.14-.46.197-.108.07-.138.21-.068.318.044.068.118.105.193.105.043 0 .086-.012.125-.037.068-.043.196-.098.362-.154.126-.043.275-.087.447-.13.094-.024.194-.047.3-.07.103-.02.21-.042.322-.06.798-.138 1.822-.205 2.842-.046.106.017.212.037.318.058.1.02.2.042.3.067.15.038.3.083.445.133.126.043.25.09.374.142.117.05.252-.003.303-.12.05-.117-.004-.252-.12-.302-.135-.058-.273-.11-.41-.156.04-.165.06-.335.07-.51 1.028.242 2.007.612 2.904 1.11.094.05.196.076.297.076.158 0 .314-.06.432-.178.39-.39 1.47-.952 2.268-.952.104 0 .197.01.275.03-.074.147-.22.356-.307.483-.05.073-.1.144-.146.214-.292.44-.41.865-.494 1.174-.034.124-.064.232-.096.307-.092.223-.045.48.12.655.894.952 1.443 1.84 1.68 2.712.115.43.466.742.962.857l1.717.41c.1.024.187.086.24.175.055.087.07.19.047.292z"/></svg>