<svg data-name="Layer 1" xmlns="http://www.w3.org/2000/svg" viewBox="0 0 36 36"><title>Icon-Red_Hat-Network-A-Black-RGB</title><path d="M27.01 8.99A12.728 12.728 0 1 0 30.75 18a12.708 12.708 0 0 0-3.74-9.01zM6.75 18a11.31 11.31 0 0 1 .178-1.934 11.235 11.235 0 0 1 15.505.092.75.75 0 0 0 1.04-1.08A12.73 12.73 0 0 0 8.7 12.973c-.362.19-.712.4-1.05.618a11.248 11.248 0 0 1 12.594-6.614c-.307.13-.614.264-.914.42A12.99 12.99 0 0 0 17 8.963a.75.75 0 1 0 .97 1.146 11.063 11.063 0 0 1 4.66-2.347 11.28 11.28 0 0 1 3.312 2.284c.034.225.074.45.095.677a11.263 11.263 0 0 1-18.415 9.662c-.253-.21-.494-.437-.728-.67A11.234 11.234 0 0 1 6.75 18zm20.268 3.252a.75.75 0 0 0-.34-.464.75.75 0 0 0-1.117.82 11.22 11.22 0 0 1 .158 4.555 11.225 11.225 0 0 1-5.127 2.774 11.23 11.23 0 0 1-3.743-2.766.75.75 0 1 0-1.12 1 12.713 12.713 0 0 0 2.387 2.077c-.038 0-.075.006-.114.006A11.254 11.254 0 0 1 7.582 22.23a12.775 12.775 0 0 0 3.453 1.68 12.933 12.933 0 0 0 1.9.437 12.6 12.6 0 0 0 4.936-.222 12.734 12.734 0 0 0 9.7-12.01 11.176 11.176 0 0 1-.2 12.09 12.73 12.73 0 0 0-.352-2.953z"/><path d="M12.923 21.2a.745.745 0 0 0 .482.177h.06c.02 0 .042 0 .062-.008a.75.75 0 0 0 .62-.862 11.215 11.215 0 0 1-.125-2.478 11.357 11.357 0 0 1 .42-2.455.75.75 0 0 0-1.442-.42 12.85 12.85 0 0 0-.335 5.59.746.746 0 0 0 .258.455z"/></svg>