<svg xmlns="http://www.w3.org/2000/svg" viewBox="0 0 32 32"><path d="M17.16 18.33c-.18-.14-.39-.16-.54-.06-.18.12-.24.31-.16.49l.43 1.4c-3.02 0-5.38-.84-7-2.47-2.19-2.21-2.35-5.24-2.36-5.84v-.11l-.45-.01v.21c.04 3.98 1.13 6.93 3.26 8.77 2.05 1.77 4.51 2.05 5.86 2.05.28 0 .51-.01.68-.02l-.42 1.36c-.08.18-.02.37.16.49.06.04.14.06.21.06.11 0 .21-.04.33-.13l3.53-2.92c.05-.04.08-.11.08-.17 0-.07-.03-.13-.08-.17l-3.53-2.93zm-.24 5.82l.49-1.6c.02-.07.01-.14-.03-.2s-.1-.09-.17-.1h-.06-.01-.02l-.64.04c-1.19.03-3.78-.15-5.84-1.93-1.3-1.13-2.2-2.71-2.68-4.72.37.8.88 1.62 1.62 2.36 1.76 1.78 4.31 2.66 7.6 2.61.04 0 .08-.01.11-.03.04-.02.08-.04.1-.08.04-.06.05-.13.03-.19l-.49-1.6 3.28 2.72-3.29 2.72zm8-4.1c-.04-3.98-1.13-6.93-3.26-8.77-2.47-2.13-5.54-2.1-6.54-2.02l.42-1.36c.08-.18.02-.37-.16-.49-.06-.04-.14-.06-.21-.06-.11 0-.21.04-.33.13l-3.53 2.92c-.05.04-.08.11-.08.18 0 .07.03.13.08.17l3.54 2.93c.18.14.39.16.54.06.18-.12.24-.31.16-.49l-.43-1.4c3.02 0 5.38.83 7 2.47 2.19 2.21 2.35 5.24 2.36 5.84v.11l.45.01c-.01-.04-.01-.11-.01-.23zm-2.49-6.06c-1.76-1.78-4.32-2.66-7.6-2.61-.04 0-.08.01-.11.03-.04.02-.08.04-.1.08-.04.06-.05.13-.03.19l.49 1.6-3.28-2.72 3.28-2.72-.49 1.6c-.02.07-.01.14.03.19s.1.09.17.1h.09l.66-.04c1.2-.03 3.76.15 5.82 1.93 1.31 1.13 2.2 2.71 2.68 4.73-.36-.79-.88-1.62-1.61-2.36z"/></svg>