<svg xmlns="http://www.w3.org/2000/svg" width="32" height="32" viewBox="0 0 32 32"><path d="M28.222 6.194c-.47-.624-1.687-.614-3.513.03-2.388.84-2.613 1.624-2.81 2.317-.032.11-.063.213-.1.315l-.64-.698c-.223-.242-.65-.42-.984-.398l-3.91.226c-.312.018-.723.192-.955.404L4.945 17.895c-.303.28-.324.753-.045 1.057l7.057 7.697c.125.136.296.22.48.238.212.02.422-.05.577-.193L23.38 17.19c.235-.215.44-.613.476-.927l.478-3.99c.04-.33-.1-.763-.325-1.008l-.14-.153c1.357-.402 2.84-1.1 3.693-2.306.843-1.194 1.064-2.073.658-2.61zM23.25 16.19c-.02.166-.158.432-.28.545L12.6 26.24c-.037.035-.08.037-.103.035-.024-.002-.058-.01-.086-.042l-7.058-7.697c-.05-.054-.045-.14.008-.19l10.366-9.507c.126-.117.406-.235.577-.245l3.91-.227h.056c.153.015.35.105.438.2l2.13 2.324c-.39.085-.75.147-1.054.192-.15-.423-.574-.72-1.052-.67-.554.056-.958.552-.902 1.106.05.478.43.856.91.9.064.007.13.007.197 0 .268-.027.51-.158.68-.366.12-.148.193-.324.216-.51.385-.053.856-.134 1.368-.257l.36.39c.103.114.184.366.166.52l-.478 3.99zm-2.437-4.544h.033c.036 0 .22-.01.504-.04-.02.056-.05.11-.088.158-.093.114-.223.185-.37.2-.308.03-.572-.196-.603-.49-.032-.302.19-.573.49-.603.036-.003.073-.003.11 0 .18.017.334.123.42.274-.295.033-.477.043-.485.043-.127.006-.224.114-.218.24.005.117.095.208.207.22zM27.19 8.54c-.82 1.16-2.33 1.816-3.673 2.185L22.14 9.223c.095-.19.15-.376.202-.557.175-.614.358-1.25 2.52-2.01 1.55-.547 2.67-.615 2.994-.186.26.346.018 1.1-.667 2.068z"/></svg>