<svg xmlns="http://www.w3.org/2000/svg" viewBox="0 0 32 32"><path d="M25.92 22.4h-.01.01zm-9.01-.26c0-.05 0-.1-.01-.15 0 .05.01.1.01.15zm-10.27.28c.04 0 .08-.01.12-.01-.05 0-.09.01-.12.01-.01 0 0 0 0 0zm.36-.1c-.06.03-.12.06-.18.07.06-.01.12-.03.18-.07zm9.78-.58c.02.03.03.06.05.08-.01-.03-.03-.06-.05-.08zm8.95.68h.02-.05.03zm-9.29 5.46c-.03.01-.07.03-.11.03.04 0 .07-.01.11-.03zM6.51 22.4c-.02 0-.04 0-.06-.01.02.01.04.01.06.01zm5-3.77c.01.01.03.02.04.03-.02-.01-.03-.02-.04-.03zm-.14-.1c.01.01.03.02.04.03-.02-.02-.03-.03-.04-.03zm14.74 3.78c-.01.01-.03.02-.04.02.01 0 .03-.01.04-.02zm-15.28-3.84c.02 0 .03-.01.05-.01-.02 0-.04 0-.05.01zm5.87 3.16c.03.03.05.06.07.09-.02-.03-.05-.06-.07-.09zm-5.67-3.19H11h.05-.02zm.17.02h0zm5.65 3.4l.03.09-.03-.09zm-1.29-.08c.01-.02.02-.03.03-.05-.01.02-.02.04-.03.05zm.08-.11c.01-.01.02-.03.04-.04-.02.01-.03.03-.04.04zm-.15.26c.01-.03.01-.05.02-.08 0 .03-.01.06-.02.08zm.24-.34c.02-.01.03-.03.06-.05-.03.01-.05.03-.06.05zm10.52.61c-.01.01-.02.02-.04.03.01-.01.03-.02.04-.03zm-9.66-.66c.03.02.06.04.08.07-.03-.03-.05-.05-.08-.07zm-1.13.6c0-.05.01-.1.02-.15-.01.05-.02.1-.02.15zm.72 5.79c.03 0 .06 0 .08-.01-.02.01-.05.01-.08.01zm.15-6.5l.09.03-.09-.03zm.23 6.39c-.03.02-.07.04-.1.06.04-.02.07-.04.1-.06zm-.37-6.4c-.01 0-.01 0 0 0 .03 0 .06 0 .08.01-.03-.01-.06-.01-.08-.01zm-.01 0c-.03 0-.06 0-.08.01.03-.01.06-.01.08-.01zm-.22.04c.03-.01.05-.02.08-.02-.03 0-.05.01-.08.02zm-.13.05c.02-.01.04-.03.07-.04-.02.01-.04.03-.07.04zm.64-.04c.03.01.05.03.08.04-.03-.01-.06-.02-.08-.04zm5.05-5.65c.01-.01.01-.03.02-.04-.01.01-.02.03-.02.04zm.07-.1c.01-.02.02-.03.04-.05-.02.02-.03.03-.04.05zm6.28.18l.03.09c-.01-.03-.01-.06-.03-.09zm.05.14c.01.05.01.1.01.15 0-.05 0-.1-.01-.15zm-6.5.14c0-.05 0-.1.01-.15-.01.05-.01.1-.01.15zm.05-.26c0-.01 0-.01.01-.02-.01.01-.01.02-.01.02zM11.19 26.23c-.01.01-.02.02-.04.03.01-.01.03-.02.04-.03zm2.17-5.59c.02 0 .03.01.05.01-.02-.01-.04-.01-.05-.01zm-2.5 5.79h-.01.01zm.19-.09c-.01.01-.03.02-.04.03.01-.01.03-.02.04-.03zm1.78-5.61c.01-.01.03-.02.04-.02-.02 0-.03.01-.04.02zm.38-.11h-.02.05-.03zm-.19.02h0zm8.76-5.08c.02-.01.05-.03.07-.04-.02.01-.04.02-.07.04zm-9.09 5.28c.01-.01.02-.02.04-.03-.02.01-.03.02-.04.03zm8.99-5.21c.02-.02.03-.03.06-.05-.03.02-.04.03-.06.05zm4.53-5.49c.01.01.02.02.04.03-.01-.01-.02-.02-.04-.03zm-4.29 5.36c.02-.01.05-.02.07-.02-.02 0-.05.01-.07.02zm-11.4 10.93c-.02 0-.03-.01-.05-.01.02.01.03.01.05.01zm11.62-10.97c-.03 0-.05.01-.08.01.03 0 .05-.01.08-.01zM11.01 6c.01.01.03.02.04.03-.01-.01-.02-.02-.04-.03zm8.33 14.64h.01-.01zm.16.07c.01.01.03.02.04.03-.01-.02-.02-.03-.04-.03zm.14.1c.01.01.02.02.04.03-.01-.01-.03-.02-.04-.03zm-.48-.19h-.03.05-.02zm-.2.03c.02 0 .03-.01.05-.01-.02 0-.03 0-.05.01zm6.77-10.7h-.03.05-.02zm-6.72 1.78c-.02 0-.03-.01-.05-.01.02 0 .03.01.05.01zm6.52-1.75c.02-.01.03-.01.05-.01-.02 0-.03.01-.05.01zm-9.35-5.54c.03 0 .06.01.08.01-.02-.01-.05-.01-.08-.01zm5.16 14h-.02.05-.03zM16.33 4.45l.09.03-.09-.03zm5.37 22c.04 0 .08-.01.12-.01-.05.01-.09.01-.12.01-.01 0-.01 0 0 0zm-.21-7.99c.02 0 .03.01.05.01-.01-.01-.03-.01-.05-.01zm.57 7.9c-.06.03-.12.06-.18.07.06-.01.12-.04.18-.07zm-.49.08c-.02 0-.04 0-.06-.01.02 0 .04 0 .06.01zm4.5-16.4c.01.01.03.02.04.02-.01-.01-.03-.02-.04-.02zm-.16-.07zm-4.59-3.94c.01-.01.03-.02.04-.03-.02.01-.03.02-.04.03zm-2.16 5.72h.02-.05.03zm-2.69-7.26c.03.01.06.03.08.05-.03-.02-.06-.03-.08-.05zm5.23 9.34c-.06.03-.12.06-.18.07.06-.01.12-.04.18-.07zm-.49.08c-.02 0-.04 0-.06-.01.02.01.04.01.06.01zm.13.02c.04 0 .08-.01.12-.02-.04.01-.08.02-.12.02zm-.16-7.79c.01-.01.02-.02.04-.03-.02 0-.03.01-.04.03zm-1.5 5.39c-.01.01-.02.02-.04.03.01-.01.03-.02.04-.03zm-.14.11c-.01.01-.03.02-.04.02.01-.01.03-.01.04-.02zm-.19.09c-.01 0-.01 0 0 0-.01 0-.01 0 0 0zm2.5-5.8c.02 0 .03.01.05.01-.02 0-.04 0-.05-.01zm-.34.01s.01 0 0 0c.01 0 0 0 0 0zm.19-.03h-.02.05c-.01.01-.02 0-.03 0zm-.54 12.55h.01-.01zm-10.13-4.53h.02H11h.03zm.18-.02h-.01.01zm.33-.2c-.01.01-.02.02-.04.03.02-.01.03-.02.04-.03zm-5.28-3.65c.01-.01.03-.02.04-.02-.02 0-.03.01-.04.02zm.53-.09c.02 0 .03.01.05.01-.02-.01-.04-.01-.05-.01zm-.34 0h0zm.19-.02h-.02.05-.03zm4.77 3.87c-.01.01-.03.02-.04.02.01-.01.02-.01.04-.02zm-.53.09c-.02 0-.03-.01-.05-.01.01 0 .03.01.05.01zm5.89 13.72c-.02.03-.05.06-.07.09.02-.03.04-.06.07-.09zm-.18-23.07c.03.02.06.04.08.07-.02-.03-.05-.05-.08-.07zm.24 22.97c-.01.03-.03.06-.05.09.02-.03.03-.06.05-.09zm3.99-8.87c.01-.01.02-.02.04-.03-.01.01-.02.02-.04.03zm4.76 3.74c-.02 0-.03-.01-.05-.01.02 0 .03.01.05.01zm-8.72 5.05c0 .01-.01.03-.01.04 0-.01.01-.03.01-.04zM10.47 5.94c.02-.01.03-.01.05-.01-.02.01-.03.01-.05.01zm6.2 21.8c-.03.03-.06.05-.09.07.04-.02.07-.05.09-.07zm-6-21.83h-.03.05c0 .01-.01 0-.02 0zm6.11-1.15c.02.03.04.07.06.11-.02-.05-.03-.08-.06-.11zm-.08-.11c.03.03.05.06.07.09-.03-.03-.05-.06-.07-.09zm.15.23c.04.09.06.18.06.28 0-.1-.02-.2-.06-.28zm-6 1.06zm2.72 5.71c-.06.03-.12.06-.18.07.06-.01.12-.03.18-.07zm-.49.08c-.02 0-.04 0-.06-.01.02.01.04.01.06.01zm7.88 6.82c.01-.01.03-.02.04-.02-.01 0-.03.01-.04.02zm-7.75-6.8c.04 0 .08-.01.12-.02-.05.01-.09.02-.12.02-.01 0 0 0 0 0zM11.15 6.1c.01.01.02.02.04.03-.01-.01-.02-.02-.04-.03zm-5.03 4.07c.01-.01.03-.02.04-.03-.02.01-.03.02-.04.03zm4.55 16.28h.02-.05.03zm16.94-10.86c.02.02.04.03.06.05-.02-.02-.03-.04-.06-.05zm-.12-.07c.03.01.05.03.07.04-.02-.01-.04-.03-.07-.04zm-.28-.06c.03 0 .05.01.08.01-.03 0-.05-.01-.08-.01zm.14.02c.03.01.06.02.08.03-.02-.02-.05-.03-.08-.03zm.37.19c.02.02.03.04.05.06-.02-.02-.03-.04-.05-.06zm.09.11c.02.02.03.05.04.08-.01-.03-.03-.05-.04-.08zm-9.16-3.86c.16.09.33.14.51.14.37 0 .71-.2.89-.52l2.53-4.39c.14-.24.17-.52.1-.78s-.24-.49-.48-.62c-.16-.09-.33-.14-.51-.14-.37 0-.71.2-.89.51l-2.54 4.39c-.27.49-.11 1.12.39 1.41zm-.12-1.26l2.54-4.39c.03-.05.07-.1.11-.14.01-.01.02-.02.04-.03.03-.03.07-.05.1-.08.01-.01.03-.02.04-.03.05-.03.1-.05.16-.06h.01c.05-.01.1-.02.16-.02h.05c.04 0 .08.01.12.02.02 0 .03.01.05.01.05.02.11.04.16.07.35.2.47.64.26.99l-2.54 4.39c-.03.05-.07.1-.11.14-.01.01-.02.02-.04.03-.03.03-.07.05-.1.08-.01.01-.03.02-.04.02-.05.03-.1.05-.16.06h-.01c-.05.01-.1.02-.16.02h-.05c-.04 0-.08-.01-.12-.02-.02 0-.03-.01-.05-.01-.06-.02-.11-.04-.16-.07-.33-.19-.45-.63-.26-.98zM5.88 11.99l4.39 2.54c.23.13.49.2.76.2.54 0 1.05-.29 1.32-.76.2-.35.26-.76.15-1.15-.06-.22-.17-.42-.31-.59.07.06.15.12.23.17.24.14.52.21.79.21.28 0 .55-.07.79-.21.49-.28.77-.79.78-1.32.14.23.34.43.58.57.25.15.54.22.82.22.91 0 1.64-.74 1.64-1.64V5.16c0-.91-.74-1.64-1.64-1.64-.91 0-1.64.74-1.64 1.64v5.02l-2.5-4.33c-.28-.49-.81-.79-1.37-.79-.28 0-.55.07-.79.21-.75.43-1.01 1.4-.58 2.16l2.53 4.39c.05.08.1.15.16.23-.07-.06-.14-.11-.21-.15L7.4 9.36c-.23-.13-.49-.2-.76-.2-.54 0-1.05.29-1.32.76-.2.35-.26.76-.15 1.15s.35.71.71.92zm9.58-6.83c0-.4.32-.72.72-.72.03 0 .06.01.08.01.02 0 .04 0 .06.01l.09.03c.02.01.03.01.05.01.03.01.06.03.08.05.01.01.03.01.04.02.03.02.06.04.08.07.01.01.02.01.02.02.03.03.05.06.07.09l.02.02c.02.03.04.07.06.11 0 .01.01.01.01.02.04.09.06.18.06.28v5.07c0 .4-.32.72-.72.72-.13 0-.25-.04-.36-.1-.22-.12-.36-.36-.36-.63V5.16zM10.05 7c-.2-.35-.08-.79.27-.99.05-.03.11-.05.16-.07.02-.01.03-.01.05-.01.04-.01.08-.01.12-.02h.05c.05 0 .1.01.16.02h.01c.05.01.11.04.15.06.01.01.03.02.04.03.04.02.07.05.1.08.01.01.02.02.04.03.04.04.08.09.11.14l2.53 4.39c.2.35.08.79-.27.99-.06.03-.12.06-.18.07-.02.01-.04.01-.06.01-.04.01-.08.02-.12.02-.04 0-.08-.01-.12-.02-.02 0-.04 0-.06-.01-.06-.02-.12-.04-.17-.07-.11-.06-.2-.15-.26-.26L10.05 7zm-4.04 3.31c.03-.05.07-.1.11-.14.01-.01.03-.02.04-.03.03-.03.07-.05.1-.08.01-.01.03-.02.04-.02.05-.03.1-.05.15-.06h.01c.05-.01.1-.02.16-.02h.05c.04 0 .08.01.12.02.02 0 .03.01.05.01.05 0 .11.03.16.05l4.39 2.54c.35.2.46.64.26.99-.03.05-.07.1-.11.14-.01.01-.02.02-.04.03-.03.03-.06.05-.1.08-.01.01-.03.02-.04.02-.05.03-.1.05-.15.06h-.01c-.05.01-.1.02-.15.02H11c-.04 0-.08-.01-.12-.02-.02 0-.03-.01-.05-.01-.05-.02-.11-.04-.16-.07l-4.4-2.52c-.34-.2-.46-.65-.26-.99zm-1.58 7.14c.22.13.47.19.73.19h5.07c.81 0 1.46-.66 1.46-1.46 0-.8-.65-1.46-1.46-1.46H5.16c-.8 0-1.46.65-1.46 1.46 0 .52.28 1.01.73 1.27zm.73-1.99h5.07c.4 0 .72.32.72.72 0 .4-.32.72-.72.72H5.16c-.13 0-.25-.03-.36-.1-.22-.12-.36-.36-.36-.63 0-.39.32-.71.72-.71zm7.08 3c-.25-.43-.71-.7-1.21-.7-.24 0-.48.06-.7.19l-4.39 2.53c-.32.19-.55.49-.65.85-.1.36-.05.74.14 1.06.12.21.3.39.51.51.21.12.45.19.7.19.24 0 .49-.07.7-.19l4.39-2.53c.66-.38.89-1.24.51-1.91zm-.85 1.33L7 22.32c-.06.03-.12.06-.18.07-.02.01-.04 0-.07.01-.04.01-.08.01-.12.01-.04 0-.08-.01-.12-.02-.02 0-.04 0-.06-.01-.06-.02-.12-.04-.17-.07-.11-.06-.2-.15-.26-.26-.2-.35-.08-.79.26-.99l4.39-2.53c.05-.03.11-.05.16-.07.02 0 .03-.01.05-.01.04-.01.08-.01.12-.01h.05c.05 0 .1.01.15.02h.01c.05.01.1.04.15.06.01.01.03.02.04.03.03.02.07.05.1.08.01.01.02.02.04.03.04.04.08.09.11.14.2.35.08.79-.26.99zM10 26.89c.2.12.43.18.67.18.48 0 .92-.26 1.16-.67l2.53-4.39c.18-.31.23-.67.13-1.01-.09-.34-.31-.63-.62-.81-.2-.12-.43-.18-.67-.18-.48 0-.92.26-1.16.67l-2.53 4.39c-.36.63-.14 1.45.49 1.82zm.05-1.52l2.53-4.39c.03-.05.07-.1.11-.14.01-.01.02-.02.04-.03.03-.03.06-.05.1-.08.01-.01.03-.02.04-.02.05-.03.1-.05.15-.06h.01c.05-.01.1-.02.15-.02h.05c.04 0 .08.01.12.02.02 0 .03.01.05.01.06.02.11.04.16.07.35.2.46.64.27.99l-2.53 4.39c-.03.05-.07.1-.11.14-.01.01-.02.02-.04.03-.03.03-.06.05-.1.08-.01.01-.03.02-.04.03-.05.03-.1.05-.15.06h-.01c-.05.01-.1.02-.15.02h-.05c-.04 0-.08-.01-.12-.02-.02 0-.03-.01-.05-.01-.05-.02-.11-.04-.16-.07-.35-.21-.47-.65-.27-1zm6.14-4.5c-.7 0-1.27.57-1.28 1.27v5.07c0 .45.24.88.64 1.1.19.11.41.17.64.17.7 0 1.27-.57 1.27-1.27v-5.07c0-.34-.13-.66-.37-.9s-.56-.38-.9-.37zm.72 6.34c0 .08-.02.16-.04.24 0 .01-.01.03-.01.04-.01.01-.01.02-.02.04-.01.03-.03.06-.05.09 0 .01-.01.01-.02.02-.02.03-.05.06-.07.09l-.02.02c-.03.03-.06.05-.09.07-.01 0-.01.01-.02.01-.03.02-.07.04-.1.06-.01 0-.02 0-.03.01-.03.01-.07.03-.11.03-.02 0-.04 0-.06.01-.03 0-.06.01-.08.01-.13 0-.25-.03-.36-.1-.22-.12-.36-.36-.36-.63v-5.07c0-.05.01-.1.02-.15 0-.02.01-.04.02-.06.01-.03.01-.05.02-.08s.03-.05.04-.08c.01-.02.02-.03.03-.05.02-.02.03-.04.05-.06.01-.01.02-.03.04-.04.02-.02.03-.03.05-.04.02-.01.03-.03.06-.05.02-.01.04-.02.05-.03.02-.01.04-.03.07-.04.02-.01.04-.01.06-.02.03-.01.05-.02.08-.02.02 0 .04 0 .06-.01.03 0 .06-.01.08-.01.03 0 .06 0 .08.01.02 0 .04 0 .06.01l.09.03c.02.01.03.01.05.02.03.01.05.03.08.04.01.01.03.01.04.02.03.02.06.04.08.07.01.01.02.01.02.02.03.03.05.06.07.09 0 .01.01.01.02.02.02.03.03.06.05.08.01.01.01.02.02.04l.03.09c0 .01.01.03.01.04.01.05.01.1.01.15v5.07zm3.73-.87c.11.18.26.34.44.44.19.11.4.16.61.16s.42-.06.61-.16c.28-.16.48-.42.57-.74s.04-.64-.12-.92l-2.53-4.39c-.22-.37-.62-.61-1.05-.61-.21 0-.42.06-.6.16-.58.33-.78 1.08-.44 1.66-.02.01 2.51 4.4 2.51 4.4zm-1.84-5.63c.05-.03.11-.05.16-.07.02 0 .03-.01.05-.01.04-.01.08-.01.12-.02h.05c.05 0 .1.01.16.02h.01c.05.01.1.04.15.06.01.01.03.02.04.03.03.02.07.05.1.08.01.01.02.02.04.03.04.04.08.09.11.14l2.53 4.39c.2.35.08.79-.26.99-.06.03-.12.06-.18.07-.02.01-.04 0-.07.01-.04.01-.08.01-.12.01-.04 0-.08-.01-.13-.02-.02 0-.04 0-.06-.01-.06-.02-.12-.04-.17-.07-.11-.06-.2-.15-.26-.26l-2.53-4.39c-.21-.33-.09-.78.26-.98zm3.12-2.55c-.17-.1-.37-.15-.58-.15-.41 0-.79.22-1 .58-.15.26-.2.58-.12.87.08.3.27.55.54.7l4.39 2.54c.17.1.37.15.58.15.41 0 .79-.22 1-.58.32-.55.13-1.25-.42-1.57l-4.39-2.54zm4.44 3.9c-.03.05-.07.1-.11.14-.01.01-.02.02-.04.03-.03.03-.07.05-.1.08-.01.01-.03.02-.04.02-.05.03-.1.05-.15.06h-.01c-.05.01-.1.02-.16.02h-.05c-.04 0-.08-.01-.12-.02-.02 0-.03-.01-.05-.01-.05-.02-.11-.04-.16-.07l-4.39-2.54c-.35-.2-.46-.64-.26-.99.03-.05.07-.1.11-.14.01-.01.02-.02.04-.03.03-.03.07-.05.1-.08.01-.01.03-.02.04-.02.05-.03.1-.05.15-.06h.01c.05-.01.1-.02.16-.02h.05c.04 0 .08.01.12.02.02 0 .03.01.05.01.06.02.11.04.16.07l4.39 2.54c.34.2.45.64.26.99zm-4.22-6.97c-.6 0-1.09.49-1.09 1.09 0 .39.21.75.55.94.17.09.35.15.54.15h5.07c.6 0 1.09-.49 1.09-1.09 0-.6-.49-1.09-1.09-1.09h-5.07zm5.07.37c.03 0 .06.01.08.01.02 0 .04 0 .06.01.03.01.06.02.08.03.02.01.04.01.05.02.03.01.05.03.07.04.02.01.03.02.05.03.02.02.04.03.06.05.01.01.03.02.05.04.02.02.03.04.05.06.01.02.03.03.04.05.02.02.03.05.04.08.01.01.02.03.02.04l.03.09c0 .02.01.03.01.05.01.05.01.1.01.15 0 .4-.33.72-.72.72h-5.07c-.13 0-.25-.03-.36-.1-.22-.12-.36-.36-.36-.63 0-.05 0-.1.01-.15.01-.04.02-.08.03-.11 0-.01 0-.01.01-.02.01-.03.03-.05.04-.08.01-.01.01-.03.02-.04.01-.02.03-.04.05-.06.01-.02.02-.03.04-.05.02-.02.03-.03.05-.04.02-.02.03-.03.06-.05.02-.01.03-.02.05-.03.02-.01.05-.03.07-.04.02-.01.04-.01.06-.02.02-.01.05-.02.07-.02.02-.01.05-.01.07-.01.03 0 .05-.01.08-.01l5.1-.01zm-6.89-2.53c-.07.27-.04.56.11.8.09.16.23.3.39.39.16.09.34.14.53.14.18 0 .37-.05.53-.14l4.39-2.53c.25-.14.42-.37.49-.65.07-.27.03-.56-.11-.8-.19-.33-.54-.53-.92-.53-.18 0-.37.05-.53.14l-4.39 2.53c-.25.15-.42.38-.49.65zm.66-.35l4.39-2.53c.05-.03.11-.05.16-.07.02-.01.03-.01.05-.01.04-.01.08-.01.12-.02h.05c.05 0 .11.01.16.02h.01c.05.01.11.04.16.06.01.01.03.02.04.02.04.02.07.05.1.08.01.01.02.02.04.03.04.04.08.09.11.14.2.35.08.79-.26.99l-4.39 2.53c-.06.03-.12.06-.18.07-.02.01-.04.01-.06.01-.04.01-.08.02-.12.02-.04 0-.08-.01-.12-.02-.02 0-.04 0-.06-.01-.06-.02-.12-.04-.17-.07-.11-.06-.2-.15-.26-.26-.24-.34-.12-.78.23-.98z"/></svg>