<svg xmlns="http://www.w3.org/2000/svg" viewBox="0 0 32 32"><path d="M22.36 6.86c.92 0 1.67-.75 1.67-1.67s-.75-1.67-1.67-1.67-1.67.75-1.67 1.67.75 1.67 1.67 1.67zm0-2.87c.67 0 1.21.54 1.21 1.21 0 .67-.54 1.21-1.21 1.21s-1.21-.54-1.21-1.21.54-1.21 1.21-1.21zm1.21 3.05h-2.45c-.02 0-2.21.06-2.21 2.47V11c0 .12.02.23.04.33l-8.32 3.08c-.64-.88-1.74-.91-1.76-.91H6.43c-.02 0-2.21.06-2.21 2.47v1.49c0 .84.69 1.33 1.15 1.65l.04.03v.65l.05.06c.07.09.48.52 2.17.52h.07c1.69 0 2.1-.44 2.17-.52l.05-.06v-.47l5.37 3.81c-.35.37-.63.92-.63 1.77v1.49c0 .84.69 1.33 1.15 1.65l.04.03v.65l.05.06c.07.09.48.53 2.17.53h.07c1.69 0 2.1-.44 2.17-.53l.05-.06v-.65l.04-.03c.46-.32 1.15-.81 1.15-1.65V24.9c0-1.26-.6-1.88-1.17-2.18l2.23-8.81c1.53-.03 1.92-.44 1.98-.52l.05-.06v-.65l.04-.03c.46-.32 1.15-.81 1.15-1.65V9.51c-.05-2.41-2.24-2.47-2.26-2.47zm-1.45.46h.48l-.21.53.34 4.25-.35.28-.35-.28.3-4.25-.21-.53zM8.53 13.96c-.18.22-.45.51-.81.67-.37-.14-.69-.44-.9-.67h1.71zm.91 5.64c-.14.09-.6.31-1.75.31h-.07c-1.17 0-1.62-.22-1.75-.31v-3.65c0-.13-.1-.23-.23-.23s-.23.1-.23.23v2.62c-.36-.27-.73-.61-.73-1.11v-1.49c0-1.88 1.56-2 1.73-2.01.2.26.67.78 1.26.98l.05.02.05-.02c.57-.22.96-.72 1.14-.97.26.02 1.72.19 1.72 2.01v1.49c0 .5-.36.84-.73 1.11v-2.62c0-.13-.1-.23-.23-.23s-.23.1-.23.23v3.64zm11.61 5.29v1.49c0 .5-.36.84-.73 1.11v-2.62c0-.13-.1-.23-.23-.23s-.23.1-.23.23v3.65c-.14.09-.59.31-1.75.31h-.07c-1.17 0-1.62-.22-1.75-.31v-3.65c0-.13-.1-.23-.23-.23s-.23.1-.23.23v2.62c-.36-.27-.73-.61-.73-1.11v-1.49c0-1.95 1.68-2.01 1.75-2.01h2.44c.07 0 1.76.05 1.76 2.01zm-1.75-2.47h-2.45c-.01 0-.53.02-1.07.31l-5.48-3.89c.39-.31.79-.75.79-1.39v-1.49c0-.4-.06-.73-.16-1.01l8.29-3.07c.24.33.58.58.85.76l.04.03v.65l.05.06c.06.08.42.46 1.8.52l-2.18 8.59c-.28-.07-.48-.07-.48-.07zM25.32 11c0 .5-.36.84-.73 1.11V9.49c0-.13-.1-.23-.23-.23s-.23.1-.23.23v3.65c-.14.09-.59.31-1.75.31h-.07c-1.17 0-1.62-.22-1.75-.31V9.49c0-.13-.1-.23-.23-.23s-.23.1-.23.23v2.62c-.36-.27-.73-.61-.73-1.11V9.51c0-1.95 1.68-2.01 1.75-2.01h.66l.23.58-.31 4.34.67.54.67-.54-.34-4.34.23-.58h.64c.07 0 1.76.05 1.76 2.01L25.32 11zM7.66 13.32c.92 0 1.67-.75 1.67-1.67s-.75-1.67-1.67-1.67S6 10.73 6 11.65s.74 1.67 1.66 1.67zm0-2.88c.67 0 1.21.54 1.21 1.21s-.54 1.21-1.21 1.21-1.21-.54-1.21-1.21c.01-.66.55-1.21 1.21-1.21zm10.43 8.47c-.92 0-1.67.75-1.67 1.67s.75 1.67 1.67 1.67 1.67-.75 1.67-1.67-.75-1.67-1.67-1.67zm0 2.87c-.67 0-1.21-.54-1.21-1.21 0-.67.54-1.21 1.21-1.21s1.21.54 1.21 1.21-.55 1.21-1.21 1.21zm-1.45 1.52c0 .13.11.24.24.24s.24-.11.24-.24-.11-.24-.24-.24-.24.11-.24.24zm.59.25c-.13 0-.24.11-.24.24s.11.24.24.24.24-.1.24-.24c0-.14-.11-.24-.24-.24zm.32.45c0 .13.1.24.24.24.13 0 .24-.1.24-.24 0-.13-.1-.24-.24-.24-.13.01-.24.11-.24.24zm1.51-.7c0 .13.11.24.24.24s.24-.11.24-.24-.11-.24-.24-.24-.24.11-.24.24zm-.35.48c0 .13.1.24.24.24.13 0 .24-.1.24-.24 0-.13-.1-.24-.24-.24-.14.01-.24.11-.24.24zm-.56.22c0 .13.1.24.24.24s.24-.1.24-.24c0-.13-.1-.24-.24-.24-.13.01-.24.11-.24.24z"/></svg>