<svg xmlns="http://www.w3.org/2000/svg" viewBox="0 0 36 36"><title>Icon-Red_Hat-Software_and_Technologies-Management-A-Black-RGB</title><path d="M29 9.23H7a.76.76 0 0 0-.75.75V26a.75.75 0 0 0 .75.75h22a.75.75 0 0 0 .75-.75V10a.76.76 0 0 0-.75-.77zm-.75 16H7.75v-14.5h20.5z"/><path d="M14.17 22.47A4.49 4.49 0 1 0 9.68 18a4.49 4.49 0 0 0 4.49 4.47zM17 17.23h-2.08v-2.12A3 3 0 0 1 17 17.23zm-3.62-2.12V18a.74.74 0 0 0 .75.75H17a3 3 0 1 1-3.62-3.62zM25.57 20.73a.75.75 0 0 0 .75-.75V16a.75.75 0 1 0-1.5 0v4a.74.74 0 0 0 .75.73zM23.57 20.73a.75.75 0 0 0 .75-.75V17a.75.75 0 1 0-1.5 0v3a.74.74 0 0 0 .75.73zM21.57 20.73a.75.75 0 0 0 .75-.75V18a.75.75 0 1 0-1.5 0v2a.74.74 0 0 0 .75.73z"/></svg>