<svg xmlns="http://www.w3.org/2000/svg" viewBox="0 0 32 32"><path d="M9.1 24.94c-.31 0-.61-.12-.83-.34l-.79-.79c-.46-.46-.47-1.22-.01-1.69l5.61-5.75c.16-.17.3-.31.4-.42-.1-.1-.23-.23-.42-.43L7.48 9.86c-.46-.47-.46-1.22 0-1.68l.78-.78c.45-.45 1.24-.45 1.68 0l5.62 5.69.42.42c.1-.1.25-.24.42-.4l5.76-5.66c.22-.23.52-.35.84-.35.32 0 .62.12.85.35l.61.61c.46.46.47 1.22.01 1.69l-5.57 5.78c-.18.18-.31.32-.41.42.11.11.25.26.41.42l5.63 5.7c.46.47.46 1.22-.01 1.68l-.78.78c-.45.45-1.23.45-1.68 0L16.4 18.8l-.42-.42c-.1.1-.24.24-.41.42l-5.61 5.78c-.23.23-.53.36-.86.36zm5.02-9.22c.06.05.09.12.1.2.01.15.01.15-.69.88l-5.61 5.75c-.22.23-.22.6.01.83l.79.79c.22.22.59.21.8-.01l5.61-5.79c.7-.72.7-.72.85-.72h.05c.12.02.12.02.8.72l5.66 5.73c.21.22.59.22.81 0l.78-.78c.23-.23.23-.59 0-.82l-5.63-5.7c-.76-.77-.76-.77-.68-.96.02-.04.04-.07.07-.1.03-.04.3-.3.61-.63l5.57-5.78c.22-.23.22-.6-.01-.83l-.61-.61c-.22-.22-.6-.22-.82 0l-5.76 5.66c-.71.7-.71.7-.85.7-.06 0-.13-.02-.18-.06-.03-.02-.03-.02-.67-.67L9.51 7.83c-.22-.22-.59-.22-.81 0l-.78.78c-.23.23-.23.59 0 .82l5.59 5.67c.31.32.58.59.61.62z"/></svg>