<svg xmlns="http://www.w3.org/2000/svg" viewBox="0 0 36 36"><path d="M7 10.75c.414 0 .75-.336.75-.75V7.75h20.5V22c0 .414.336.75.75.75s.75-.336.75-.75V7c0-.414-.336-.75-.75-.75H7c-.414 0-.75.336-.75.75v3c0 .414.336.75.75.75zm24 13.5h-4.69l-4.78-4.78c-.188-.19-.416-.22-.53-.22h-4.655l-5.776-6.738c-.144-.166-.35-.26-.57-.262H5c-.414 0-.75.336-.75.75s.336.75.75.75h4.655l5.776 6.738c.144.166.35.26.57.262h4.69l4.78 4.78c.188.19.416.22.53.22h5c.414 0 .75-.336.75-.75s-.336-.75-.75-.75zM17.25 10v7c0 .414.336.75.75.75s.75-.336.75-.75v-7c0-.414-.336-.75-.75-.75s-.75.336-.75.75zm6 0v7c0 .414.336.75.75.75s.75-.336.75-.75v-7c0-.414-.336-.75-.75-.75s-.75.336-.75.75zm-12 0v1c0 .414.336.75.75.75s.75-.336.75-.75v-1c0-.414-.336-.75-.75-.75s-.75.336-.75.75zM29 27.25c-.414 0-.75.336-.75.75v.25H7.75V16c0-.414-.336-.75-.75-.75s-.75.336-.75.75v13c0 .414.336.75.75.75h22c.414 0 .75-.336.75-.75v-1c0-.414-.336-.75-.75-.75z"/></svg>