<svg xmlns="http://www.w3.org/2000/svg" viewBox="0 0 32 32"><path d="M25.11 14.11c.04-.14-.02-.29-.16-.35l-2.82-1.38c-.04-.02-.09-.03-.13-.03H10.43c-.04 0-.08.01-.12.02l-3.24 1.38c-.14.06-.21.22-.17.36-.01.03-.02.05-.02.08v5.15c0 .17.14.31.31.31h17.63c.17 0 .31-.14.31-.31v-5.15c-.01-.03-.02-.05-.02-.08zm-14.62-1.15h11.44l1.89.92H8.32l2.17-.92zm14.02 6.08H7.49v-4.46h17.02v4.46zM8.62 16.79c0 .24.19.43.42.43s.42-.19.42-.42v-.01c0-.23-.19-.42-.42-.42s-.42.18-.42.42zm1.49 0v.01c0 .23.19.42.42.42s.42-.19.42-.42v-.01-.01c0-.23-.19-.42-.42-.42s-.42.19-.42.42v.01zm13.57 1.2c0 .08-.07.15-.15.15h-.92c-.08 0-.15-.07-.15-.15v-2.45c0-.08.07-.15.15-.15h.92c.08 0 .15.07.15.15v2.45zm-.92-.16h.61v-2.15h-.61v2.15zm-.92.16c0 .08-.07.15-.15.15h-.92c-.08 0-.15-.07-.15-.15v-2.45c0-.08.07-.15.15-.15h.92c.08 0 .15.07.15.15v2.45zm-.92-.16h.61v-2.15h-.61v2.15z"/></svg>