<svg xmlns="http://www.w3.org/2000/svg" viewBox="0 0 32 32"><path d="M18.05 13.52c-1.38-1.12-3.41-.91-4.53.47-.05.06-.09.12-.13.18l-.17.27c-.76 1.34-.47 3.08.76 4.09 1.38 1.12 3.41.91 4.53-.47.11-.14.21-.29.3-.44l.14-.28c.58-1.31.25-2.88-.9-3.82zm.1 4.24c-.96 1.18-2.7 1.36-3.88.4-1.08-.88-1.32-2.41-.61-3.56l.11-.17c.03-.05.07-.09.1-.14.96-1.18 2.7-1.36 3.87-.4 1.19.95 1.37 2.69.41 3.87zm4.77-10.27c-4.69-3.82-11.61-3.1-15.43 1.59-3.82 4.69-3.1 11.62 1.59 15.43l.13.1c.23.18.47.36.72.52 3.72 2.48 8.54 2.4 12.15 0 .25-.16.48-.34.72-.52.62-.49 1.2-1.05 1.72-1.69 3.81-4.69 3.09-11.61-1.6-15.43zm2.8 12.06c-.38 1.05-.94 2.07-1.69 2.98-.62.77-1.34 1.42-2.12 1.96-.27.19-.55.36-.83.53-1.76.99-3.76 1.43-5.75 1.31l-.31-.02c-1.41-.13-2.81-.56-4.1-1.28-.29-.16-.57-.33-.84-.52-.21-.15-.41-.3-.61-.46-3.66-2.98-4.75-7.95-2.99-12.09l.12-.28c.35-.77.81-1.5 1.37-2.19 3.6-4.43 10.14-5.1 14.56-1.5 3.42 2.79 4.6 7.32 3.29 11.29l-.1.27zm-8.26-5.3c-.98-.8-2.42-.65-3.22.33-.8.98-.65 2.42.33 3.22.98.8 2.42.65 3.22-.33s.65-2.43-.33-3.22zm.09 3.02c-.69.85-1.94.98-2.78.29-.85-.69-.98-1.94-.29-2.78s1.94-.98 2.78-.29c.85.68.98 1.93.29 2.78zm-4.45 1.87l-3.22 3.88c-.06.07-.05.16.02.22.03.02.06.03.1.03.05 0 .09-.02.12-.06l3.22-3.88c.05-.07.05-.16-.02-.22s-.17-.04-.22.03zM21.93 8.5c-.07-.05-.16-.05-.22.02l-3.17 3.83c-.06.07-.05.16.02.22.03.02.06.04.1.04.04 0 .09-.02.12-.06l3.17-3.83c.06-.07.05-.17-.02-.22zm.61.76l-1.02.98c-.06.06-.06.16 0 .22.03.03.07.05.11.05.04 0 .08-.01.11-.04l1.02-.98c.06-.06.06-.16 0-.22-.06-.07-.16-.07-.22-.01z"/></svg>