<svg xmlns="http://www.w3.org/2000/svg" viewBox="0 0 31.68 31.68"><path d="M23.11 22.75l-2.92-2.92c.05-.06.1-.11.13-.15l.03-.04c.08-.09.08-.26.04-.36-.01-.03-.03-.08-.81-.99.28-.43.48-.89.6-1.39.35-.03 1.17-.09 1.3-.12.18-.04.25-.22.27-.33v-.01c0-.02.02-.43.02-.64 0-.18-.02-.44-.03-.56v-.05c-.01-.11-.12-.24-.23-.28-.02-.01-.09-.04-1.35-.13-.12-.47-.31-.92-.57-1.33.76-.88.78-.94.79-.97.04-.1.04-.27-.04-.36l-.03-.04c-.05-.06-.13-.15-.21-.24l2.95-2.95c.66.52 1.61.48 2.22-.13.65-.65.65-1.71 0-2.37-.65-.65-1.71-.65-2.37 0-.59.59-.65 1.52-.16 2.17l-2.95 2.95c-.15-.14-.32-.29-.33-.3l-.01-.01c-.01-.01-.12-.09-.26-.09-.06 0-.12.02-.16.05-.1.07-.63.51-.97.81-.36-.21-.75-.36-1.16-.46-.03-.36-.09-1.19-.12-1.33-.04-.18-.22-.25-.33-.27h-.01c-.02 0-.43-.02-.64-.02-.18 0-.44.02-.57.03h-.05c-.11.01-.24.12-.28.23-.01.02-.04.09-.13 1.36-.41.1-.8.26-1.16.46-.34-.29-.87-.74-.97-.81-.05-.03-.1-.05-.16-.05-.13 0-.24.08-.26.09l-.01.01c-.01.01-.2.18-.36.32L8.91 8.59c.5-.65.45-1.59-.15-2.19-.65-.65-1.71-.65-2.37 0-.65.65-.65 1.71 0 2.37.6.6 1.54.65 2.2.15l2.96 2.96c-.07.08-.14.16-.19.21l-.04.04c-.08.09-.08.26-.04.36.01.02.03.08.79.97-.26.41-.46.86-.57 1.33-1.26.1-1.32.12-1.35.13-.1.04-.22.17-.23.28v.05c-.01.12-.03.38-.03.56 0 .21.02.63.02.64v.01c.02.1.09.29.27.33.13.03.95.09 1.3.12.12.5.32.96.6 1.39-.77.9-.8.96-.81.99-.04.11-.04.27.04.36l.04.04c.04.04.09.1.15.17l-2.92 2.92c-.66-.5-1.6-.45-2.2.15-.65.65-.65 1.71 0 2.37.65.65 1.71.65 2.37 0 .6-.6.65-1.54.15-2.2l2.91-2.91c.16.15.38.35.4.36l.01.01c.01.01.12.09.26.09.06 0 .12-.02.16-.05.11-.07.7-.57 1.01-.84.35.2.73.35 1.13.45.1 1.24.12 1.3.13 1.33.04.1.17.22.28.23h.05c.12.01.38.03.57.03.21 0 .63-.02.64-.02h.01c.1-.01.29-.09.33-.27.03-.13.09-.89.12-1.29.39-.1.77-.25 1.13-.45.31.26.9.76 1.01.84.05.03.1.05.16.05.13 0 .24-.08.26-.09l.01-.01c.01-.01.26-.23.42-.38l2.91 2.91c-.52.66-.48 1.61.13 2.22.65.65 1.71.65 2.37 0 .65-.65.65-1.71 0-2.37-.62-.61-1.55-.67-2.2-.19zm-3.78-2.37c-.02.01-.07.04-.12.04-.02 0-.03 0-.05-.01-.09-.06-.62-.5-1.04-.87l-.06-.05-.07.04c-.38.22-.78.38-1.21.48l-.08.02v.07c-.04.56-.1 1.24-.12 1.34-.01.07-.12.1-.14.1-.05 0-.43.02-.62.02-.17 0-.43-.02-.55-.03h-.05c-.02 0-.08-.05-.1-.09-.02-.08-.07-.61-.12-1.34l-.01-.08-.08-.02c-.43-.1-.83-.26-1.21-.48l-.07-.04-.06.05c-.43.37-.95.81-1.04.87-.01.01-.03.01-.05.01-.05 0-.1-.03-.12-.04-.04-.03-.32-.29-.46-.42-.12-.12-.29-.32-.37-.41l-.04-.04c-.01-.02-.02-.09 0-.14.04-.07.36-.45.82-.99l.05-.06-.05-.07c-.3-.44-.51-.94-.63-1.46l-.02-.08-.08-.01c-.56-.04-1.25-.1-1.36-.12-.07-.02-.1-.12-.1-.14 0-.05-.02-.43-.02-.62 0-.17.02-.43.03-.55v-.05c0-.02.05-.08.09-.1.08-.02.63-.07 1.36-.13l.08-.01.02-.08c.12-.5.32-.98.61-1.4l.05-.07-.05-.06c-.55-.64-.77-.92-.81-.97-.02-.05-.01-.12 0-.13l.04-.04c.08-.09.25-.29.37-.41.14-.14.42-.39.46-.42.02-.01.08-.04.12-.04.02 0 .03 0 .05.01.07.05.46.37 1.01.84l.06.05.07-.04c.38-.23.8-.4 1.24-.5l.08-.02.01-.08c.06-.75.11-1.3.13-1.38.02-.05.08-.09.1-.09h.06c.12-.01.38-.03.55-.03.19 0 .57.02.62.02.02 0 .13.03.14.1.02.1.08.76.12 1.38l.01.08.08.02c.44.1.86.27 1.24.5l.07.04.06-.05c.55-.47.94-.79 1.01-.84.01-.01.03-.01.05-.01.05 0 .1.03.12.04.04.03.32.29.46.42.12.12.3.32.37.41l.03.04c.01.02.02.09 0 .14-.03.05-.26.33-.81.97l-.05.06.05.07c.29.43.49.9.61 1.4l-.01.08.08.01c.73.06 1.28.11 1.36.13.05.02.09.08.09.1v.06c.01.12.03.38.03.55 0 .19-.02.57-.02.62 0 .02-.03.13-.1.14-.1.02-.79.08-1.36.12l-.08.01-.02.08c-.12.53-.33 1.02-.63 1.46l-.05.07.05.06c.46.54.78.93.82.99.02.05.01.12 0 .13l-.04.04c-.07.09-.25.29-.37.41-.11.13-.39.38-.43.42z"/><path d="M15.84 14.48c-.75 0-1.36.61-1.36 1.36 0 .75.61 1.36 1.36 1.36s1.36-.61 1.36-1.36-.61-1.36-1.36-1.36zm0 2.56c-.66 0-1.2-.54-1.2-1.2s.54-1.2 1.2-1.2 1.2.54 1.2 1.2c0 .66-.54 1.2-1.2 1.2z"/></svg>