<svg xmlns="http://www.w3.org/2000/svg" viewBox="0 0 36 36"><path d="M12.002 17.26h-3.25v-1.25c0-.414-.336-.75-.75-.75h-4c-.414 0-.75.336-.75.75v4c0 .414.336.75.75.75h4c.414 0 .75-.336.75-.75v-1.25h3.25c.414 0 .75-.336.75-.75s-.335-.75-.75-.75zm-4.75 2h-2.5v-2.5h2.5v2.5zm24.75-4h-4c-.414 0-.75.336-.75.75v1.25h-3.25c-.414 0-.75.336-.75.75s.336.75.75.75h3.25v1.25c0 .414.336.75.75.75h4c.414 0 .75-.336.75-.75v-4c0-.414-.335-.75-.75-.75zm-.75 4h-2.5v-2.5h2.5v2.5zm-9.25-6h-8c-.414 0-.75.336-.75.75v8c0 .414.336.75.75.75h8c.414 0 .75-.336.75-.75v-8c0-.414-.335-.75-.75-.75zm-.75 8h-6.5v-6.5h6.5v6.5zM5.982 9.76c-.69 0-1.25.56-1.25 1.25s.56 1.248 1.25 1.248 1.25-.56 1.25-1.25S6.67 9.76 5.98 9.76zm6.76 3.24c0 .526-.457.75-.75.75-.186 0-.374-.07-.52-.21l-1.78-1.78H8.62c-.33 1.154-1.38 2.005-2.64 2.005-1.522 0-2.756-1.234-2.756-2.756S4.46 8.252 5.982 8.252c1.26 0 2.312.852 2.64 2.007h1.38c.2 0 .39.08.53.22l2 2c.14.144.21.332.21.52zm-5.53 11.99c0-.69-.56-1.248-1.25-1.248s-1.248.56-1.248 1.25.56 1.248 1.25 1.248 1.248-.56 1.248-1.25zM12.725 23c0 .188-.07.376-.21.52l-2 2c-.142.14-.333.22-.53.22H8.602c-.328 1.156-1.38 2.007-2.64 2.007-1.522 0-2.756-1.234-2.756-2.756s1.234-2.755 2.756-2.755c1.26 0 2.31.85 2.64 2.005h1.07l1.78-1.78c.146-.14.333-.21.52-.21.29 0 .752.223.752.75zM28.77 11.01c0 .69.558 1.248 1.248 1.248s1.25-.56 1.25-1.25-.56-1.248-1.25-1.248-1.25.56-1.25 1.25zM23.256 13c0-.188.07-.376.21-.52l2-2c.142-.14.333-.22.53-.22h1.382c.327-1.156 1.378-2.007 2.64-2.007 1.52 0 2.755 1.234 2.755 2.756s-1.234 2.755-2.756 2.755c-1.26 0-2.312-.85-2.64-2.005h-1.07l-1.78 1.78c-.147.14-.334.21-.522.21-.288 0-.75-.223-.75-.75zm6.78 13.24c.69 0 1.25-.56 1.25-1.25s-.56-1.248-1.25-1.248-1.25.56-1.25 1.25.56 1.248 1.25 1.248zM23.275 23c0-.526.458-.75.75-.75.187 0 .375.07.52.21l1.782 1.78h1.07c.33-1.154 1.38-2.005 2.64-2.005 1.52 0 2.755 1.234 2.755 2.756s-1.234 2.757-2.756 2.757c-1.26 0-2.312-.852-2.64-2.007h-1.38c-.2 0-.39-.08-.53-.22l-2-2c-.14-.144-.21-.332-.21-.52z"/></svg>