<svg xmlns="http://www.w3.org/2000/svg" viewBox="0 0 36 36"><title>Icon-Red_Hat-Objects-Pencil-A-Black</title><path d="M30.53 9L27 5.47a.76.76 0 0 0-1.07 0L7.55 23.85a.73.73 0 0 0-.19.29l-1.74 5.39a.78.78 0 0 0 .19.77.74.74 0 0 0 .53.21.67.67 0 0 0 .24 0l5.26-1.82a.64.64 0 0 0 .28-.18L25.62 15l4.91-4.91a.75.75 0 0 0 0-1.09zm-23 19.55l.9-2.79 1.84 1.85zm17.56-15.16l-.89-.89a.75.75 0 0 0-1.06 1.06l.89.89-12.41 12.41-2.48-2.48L23.71 9.82l2.47 2.47zm2.16-2.16l-2.48-2.48 1.69-1.69 2.48 2.48z"/></svg>