<svg xmlns="http://www.w3.org/2000/svg" width="32" height="32" viewBox="0 0 32 32"><path d="M30.36 19.954c-.062-.5-.236-1.294-.387-1.772l-1.326-4.19c-.096-.303-.305-.548-.59-.688-.282-.14-.604-.158-.904-.05l-.785.283c-.324.116-.776-.03-.97-.315l-4.39-6.466c-.188-.277-.46-.436-.75-.436h-.002c-.288 0-.56.158-.75.434l-1.546 2.26c-.245.36-.783.813-1.175.995l-.942.434c-.514.237-1.072.838-1.27 1.366l-1.06 2.815c-.025.07-.053.113-.075.14-.11-.067-.208-.148-.27-.237l-.347-.49-2.674-3.908c-.067-.098-.176-.15-.294-.153-.227 0-.506.24-.826.713l-.934 1.377c-.243.358-.78.815-1.172.998l-.334.156c-.513.24-1.07.842-1.266 1.372l-2.63 7.055c-.117.312-.088.628.077.866s.45.374.785.374h13.914c.105 0 .193-.056.248-.136.1-.038.19-.098.268-.175.01 0 .02.006.03.006h11.445c.324 0 .615-.127.82-.36s.298-.538.258-.86l-.176-1.404zM3.27 22.16c-.05-.07-.05-.178-.005-.3l2.63-7.056c.14-.378.585-.86.95-1.03l.335-.155c.492-.23 1.115-.76 1.42-1.21l.934-1.377c.1-.148.19-.258.26-.334l2.945 4.303c.197.29.464.436.732.403.07-.008.134-.03.197-.06.125.03.25.043.37.035l1.28-.096c.26-.02.557.178.642.422l1.33 3.834c.115.327.25.894.297 1.237l.16 1.178c.015.108-.012.207-.077.28-.024.028-.055.046-.087.063-.037-.016-.078-.026-.12-.026h-.258l-.173-1.33c-.017-.125-.13-.215-.258-.197-.126.016-.214.132-.198.258l.164 1.27H3.55c-.13 0-.23-.04-.28-.11zm26.55-.348c-.088.1-.217.154-.363.154H18.21c-.003-.025 0-.05-.004-.074l-.16-1.178c-.052-.374-.195-.97-.318-1.326l-1.33-3.834c-.155-.444-.642-.764-1.113-.73l-1.236.095c.01-.028.027-.05.038-.08l1.058-2.814c.142-.377.588-.857.954-1.026l.942-.435c.492-.227 1.118-.756 1.424-1.204l1.547-2.26c.074-.108.16-.166.244-.166.084 0 .17.06.244.167l4.39 6.467c.354.52 1.093.76 1.685.548l.785-.283c.142-.05.292-.043.425.022.132.066.23.18.276.324l1.327 4.19c.14.44.306 1.2.363 1.662l.175 1.405c.018.144-.02.278-.108.377zM21.64 9.926c-.068-.107-.21-.138-.318-.07-.107.07-.138.212-.07.32l2.645 4.117c.043.068.117.106.193.106.042 0 .085-.013.124-.038.107-.07.138-.21.07-.318L21.64 9.926zm.022 2.332c-.068-.107-.21-.14-.317-.072-.108.068-.14.21-.07.317l.866 1.374c.046.074.07.128.08.164-.037 0-.095-.01-.178-.038l-1.485-.5c-.427-.142-.635.002-.722.102-.086.1-.2.326.002.728l1.796 3.576c.04.08.12.127.206.127.034 0 .07-.008.103-.025.114-.057.16-.195.102-.31l-1.796-3.575c-.068-.137-.067-.212-.07-.216.015-.01.088-.02.233.028l1.485.5c.413.137.612.023.707-.098.095-.12.16-.342-.074-.71l-.867-1.373zM10.89 13.276c-.068-.108-.21-.14-.317-.072-.108.068-.14.21-.07.317l1.337 2.122c.044.07.118.107.195.107.042 0 .084-.012.122-.037.108-.068.14-.21.07-.317l-1.337-2.12z"/></svg>