<svg xmlns="http://www.w3.org/2000/svg" width="32" height="32" viewBox="0 0 32 32"><path d="M27.088 8.708H4.913c-.15 0-.27.12-.27.27v14.044c0 .15.12.27.27.27h2.19c.022 0 .042-.002.063-.007l4.92-1.19c.145-.037.234-.183.2-.327-.036-.146-.182-.234-.327-.2l-4.89 1.185H5.183V9.25h21.635v13.503H12.455c-.15 0-.27.12-.27.27 0 .15.12.27.27.27h14.633c.15 0 .27-.12.27-.27V8.98c0-.15-.12-.27-.27-.27zm-15.796 5.968h.828c.174 0 .316-.142.316-.315v-2.275c0-.174-.142-.316-.316-.316H7.365c-.174 0-.316.14-.316.315v2.276c0 .175.14.316.315.316h2.91c.055.17.257.56.93.56h.17l-.097-.14c0-.002-.11-.166-.078-.3.012-.05.042-.09.092-.12zm-.266.078c-.025.106-.002.212.03.296-.556-.06-.62-.457-.622-.475l-.01-.078H7.366c-.075 0-.136-.06-.136-.136v-2.275c0-.075.06-.136.136-.136h4.755c.076 0 .137.06.137.135v2.276c0 .076-.06.137-.136.137h-.874l-.02.01c-.108.06-.175.142-.2.247zm6.593-.078h.827c.174 0 .315-.142.315-.315v-2.275c0-.174-.142-.316-.315-.316H13.69c-.173 0-.314.14-.314.315v2.276c0 .175.142.316.315.316h2.91c.057.17.258.56.93.56h.17l-.096-.14c0-.002-.11-.166-.077-.3.01-.05.042-.09.092-.12zm-.267.078c-.025.106-.002.212.03.296-.556-.06-.62-.457-.622-.475l-.01-.078h-3.057c-.075 0-.136-.06-.136-.136v-2.275c0-.075.06-.136.136-.136h4.756c.074 0 .135.06.135.135v2.276c0 .076-.06.137-.136.137h-.877l-.02.01c-.106.06-.174.142-.2.247zm6.5-.078h.827c.174 0 .315-.142.315-.315v-2.275c0-.174-.142-.316-.315-.316h-4.756c-.174 0-.315.14-.315.315v2.276c0 .175.14.316.314.316h2.91c.056.17.257.56.93.56h.17l-.097-.14c0-.002-.11-.166-.077-.3.01-.05.042-.09.092-.12zm-.268.078c-.025.106-.002.212.03.296-.556-.06-.62-.457-.622-.475l-.01-.078h-3.058c-.075 0-.136-.06-.136-.136v-2.275c0-.075.06-.136.135-.136h4.756c.076 0 .137.06.137.135v2.276c0 .076-.06.137-.136.137h-.874l-.02.01c-.107.06-.174.142-.2.247zm-12.293 4.56h.828c.174 0 .316-.142.316-.315v-2.277c0-.174-.142-.316-.316-.316H7.365c-.174 0-.316.142-.316.316V19c0 .173.14.314.315.314h2.91c.055.17.257.56.93.56h.17l-.097-.14c0-.002-.11-.166-.078-.3.012-.05.042-.09.092-.12zm-.266.078c-.025.106-.002.212.03.296-.556-.06-.62-.457-.622-.475l-.01-.078H7.366c-.075 0-.136-.06-.136-.136v-2.277c0-.075.06-.136.136-.136h4.755c.076 0 .137.06.137.136V19c0 .074-.06.135-.136.135h-.874l-.02.01c-.108.06-.175.142-.2.247zm2.35-.394c0 .174.143.315.316.315h2.91c.056.17.257.56.93.56h.17l-.097-.14c0-.002-.11-.166-.077-.3.012-.05.042-.088.092-.12h.828c.174 0 .315-.142.315-.315v-2.276c0-.174-.142-.316-.315-.316h-4.756c-.174 0-.315.142-.315.316v2.276zm.18-2.275c0-.075.06-.136.136-.136h4.756c.075 0 .136.06.136.136V19c0 .074-.06.135-.136.135h-.876l-.02.01c-.107.06-.174.142-.2.247-.024.106 0 .212.03.296-.555-.06-.618-.457-.62-.475l-.01-.078h-3.06c-.074 0-.135-.06-.135-.136v-2.277zm6.053 2.275c0 .174.14.315.314.315h2.91c.056.17.257.56.93.56h.17l-.097-.14c0-.002-.11-.166-.077-.3.012-.05.042-.088.092-.12h.828c.174 0 .315-.142.315-.315v-2.276c0-.174-.142-.316-.315-.316h-4.756c-.174 0-.315.142-.315.316v2.276zm.18-2.275c0-.075.06-.136.135-.136h4.756c.076 0 .137.06.137.136V19c0 .074-.06.135-.136.135h-.874l-.02.01c-.107.06-.174.142-.2.247-.024.106 0 .212.03.296-.555-.06-.618-.457-.62-.475l-.01-.078h-3.06c-.074 0-.135-.06-.135-.136v-2.277z"/></svg>