<svg data-name="Layer 1" xmlns="http://www.w3.org/2000/svg" viewBox="0 0 36 36"><title>Icon-Red_Hat-Software_and_technologies-App-A-Black-RGB</title><path d="M27.5 7.87h-19a.75.75 0 0 0-.75.75v18.76a.75.75 0 0 0 .75.75h19a.75.75 0 0 0 .75-.75V8.62a.75.75 0 0 0-.75-.75zm-.75 18.76H9.25V9.37h17.5z"/><path d="M24.21 12.33a.72.72 0 0 0 .29.06.75.75 0 0 0 .75-.75.72.72 0 0 0-.06-.29.78.78 0 0 0-.16-.24.75.75 0 0 0-.82-.16.74.74 0 0 0-.4.4.72.72 0 0 0-.06.29.75.75 0 0 0 .22.53.78.78 0 0 0 .24.16zM22.5 12.39a.75.75 0 0 0 .5-1.28.75.75 0 0 0-1.22.24.72.72 0 0 0-.06.29.75.75 0 0 0 .75.75z"/></svg>