<svg xmlns="http://www.w3.org/2000/svg" viewBox="0 0 32 32"><path d="M20.72 17.58h-1.6c-.04 0-.08.01-.1.04-.03.03-.04.07-.04.1v1.31c0 .06.03.11.08.13l.8.37c.02.01.04.01.06.01s.04 0 .06-.01l.8-.36c.05-.02.09-.08.09-.13v-1.32c0-.07-.06-.14-.15-.14zm-.14 1.37l-.65.29-.66-.31v-1.07h1.31v1.09zM18.42 8.58c-1.43 0-2.59 1.16-2.59 2.59s1.16 2.59 2.59 2.59 2.59-1.16 2.59-2.59-1.16-2.59-2.59-2.59zm0 4.74c-1.19 0-2.15-.97-2.15-2.15s.97-2.15 2.15-2.15 2.15.97 2.15 2.15-.96 2.15-2.15 2.15zm6.27-1.75c-.86-2.81-3.48-4.75-6.42-4.75-2.96 0-5.55 1.93-6.42 4.72-.48-.17-.98-.26-1.5-.26-2.09 0-3.89 1.44-4.36 3.45-1.87.07-3.44 1.37-3.86 3.2-.02.08 0 .17.05.24s.13.1.22.1h10.55c-.01.47.01.92.02 1.32.01.19.02.37.02.52.03 1.69.62 2.3 1.84 3.18v.76c0 .04.01.08.03.12.06.09.68.92 3.66.99h.31c2.67 0 3.16-.92 3.21-1.02.01-.03.02-.06.02-.09v-.61c1.31-.94 1.82-1.49 1.85-3.34 0-.17.01-.35.02-.55.02-.38.04-.82.03-1.29h4.83c.14 0 .25-.1.27-.23.06-.34.09-.66.09-.96-.01-2.65-1.87-4.94-4.46-5.5zm-1.21 7.98c-.01.21-.02.4-.02.57-.03 1.54-.38 2.03-1.41 2.8v-5c0-.12-.1-.22-.22-.22s-.22.1-.22.22V24c-.12.15-.74.79-3.08.73-2.37-.06-3.11-.6-3.27-.75v-5.96c0-.12-.1-.22-.22-.22s-.22.1-.22.22v4.74c-.97-.73-1.38-1.26-1.4-2.64 0-.16-.01-.34-.02-.53-.05-1.22-.13-3.06.9-4.13.58-.6 1.47-.91 2.63-.91h3.05c1.17 0 2.05.3 2.62.9 1.02 1.06.94 2.89.88 4.1zm5.06-1.82h-4.62c-.08-.93-.33-1.88-.99-2.58-.66-.69-1.65-1.04-2.94-1.04h-3.05c-1.3 0-2.29.35-2.95 1.04-.67.7-.92 1.65-1.01 2.58H2.76c.48-1.45 1.82-2.43 3.39-2.43h.04c.14.01.26-.09.28-.23.34-1.87 1.96-3.23 3.86-3.23.51 0 1 .1 1.47.29.29.14.91.5 1.3 1.15.05.08.13.11.22.1.02-.01.05-.01.07-.03.1-.06.13-.19.07-.29-.33-.55-.8-.92-1.16-1.14.72-2.68 3.16-4.55 5.95-4.55 2.68 0 5.04 1.71 5.85 4.25-.72-.01-1.25.26-1.29.27-.11.04-.16.17-.11.27.04.11.17.16.27.11.01 0 .75-.3 1.58-.16 2.33.51 4.01 2.57 4.01 4.97.02.22.01.42-.02.65z"/></svg>