<svg xmlns="http://www.w3.org/2000/svg" width="32" height="32" viewBox="0 0 32 32"><path d="M4.915 8.744v14.512h22.17V8.744H4.916zm21.165.46c-2.372 1.79-5.553 4.104-7.77 5.53-.137.09-.27.173-.4.254-.52.326-.907.55-1.19.698-.416.187-.635.242-.748.242-.09 0-.294-.044-.742-.25-.27-.143-.63-.35-1.112-.653l-.048-.03c-.116-.073-.236-.147-.358-.226-2.218-1.422-5.454-3.757-7.875-5.567h20.245zm-20.706.038c2.43 1.823 5.8 4.264 8.11 5.747-2.373 1.982-5.805 5.223-8.11 7.482V9.242zM26.092 22.71H5.836c-.08 0-.156-.013-.23-.036 2.304-2.256 5.724-5.486 8.083-7.457.64.365 1.095.6 1.43.752.527.277.737.323.85.323.122 0 .345-.047.898-.338.386-.175.872-.43 1.47-.772 2.364 1.97 5.806 5.195 8.117 7.437-.107.06-.233.09-.362.09zm.534-.352c-2.313-2.242-5.73-5.442-8.09-7.407 2.324-1.497 5.668-3.94 8.052-5.746h.038v13.153z"/></svg>