<svg xmlns="http://www.w3.org/2000/svg" viewBox="0 0 32 32"><path d="M20.49 14.72h2.19c.13 0 .23-.1.23-.23v-2.61c0-.13-.1-.23-.23-.23h-2.19c-.13 0-.23.1-.23.23v2.61c0 .13.11.23.23.23zm.23-2.61h1.73v2.15h-1.73v-2.15zm-3.6 6.73h-4.89c-.13 0-.23.1-.23.23s.1.23.23.23h4.89c.13 0 .23-.1.23-.23s-.1-.23-.23-.23zm2.48-1.38h-7.37c-.13 0-.23.1-.23.23s.1.23.23.23h7.37c.13 0 .23-.1.23-.23s-.1-.23-.23-.23zM8.97 12.11h4.89c.13 0 .23-.1.23-.23s-.1-.23-.23-.23H8.97c-.13 0-.23.1-.23.23s.11.23.23.23zM12 16.3c0 .13.1.23.23.23h7.37c.13 0 .23-.1.23-.23s-.1-.23-.23-.23h-7.37c-.13 0-.23.11-.23.23zm-3.03-2.88h4.89c.13 0 .23-.1.23-.23s-.1-.23-.23-.23H8.97c-.13 0-.23.1-.23.23 0 .12.11.23.23.23zM24.44 9.7H7.56c-.17 0-.31.14-.31.31V22c0 .17.14.31.31.31h16.87c.17 0 .31-.14.31-.31V10.01c0-.17-.14-.31-.3-.31zm-.31 11.99H7.87V10.31h16.26v11.38z"/></svg>