<svg id="Layer_1" xmlns="http://www.w3.org/2000/svg" viewBox="0 0 32 32"><style>.st0{fill:#010101;}</style><path class="st0" d="M15.12 15.19H10.3c-.57 0-1.03-.46-1.03-1.03v-2.99c0-.57.46-1.03 1.03-1.03h4.82c.57 0 1.03.46 1.03 1.03v2.99c0 .57-.46 1.03-1.03 1.03zm-4.82-4.76c-.4 0-.73.33-.73.73v2.99c0 .4.33.73.73.73h4.82c.4 0 .73-.33.73-.73v-2.99c0-.4-.33-.73-.73-.73H10.3zM22.92 11.38h-5.78c-.08 0-.15-.07-.15-.15s.07-.15.15-.15h5.78c.08 0 .15.07.15.15 0 .08-.06.15-.15.15zM22.92 12.81h-5.78c-.08 0-.15-.07-.15-.15s.07-.15.15-.15h5.78c.08 0 .15.07.15.15s-.06.15-.15.15zM22.92 14.25h-5.78c-.08 0-.15-.07-.15-.15s.07-.15.15-.15h5.78c.08 0 .15.07.15.15 0 .08-.06.15-.15.15z"/><path class="st0" d="M12.71 14.23c-.89 0-1.61-.72-1.61-1.61S11.82 11 12.71 11c.89 0 1.61.72 1.61 1.61s-.72 1.62-1.61 1.62zm0-2.93c-.73 0-1.32.59-1.32 1.32s.59 1.32 1.32 1.32c.73 0 1.32-.59 1.32-1.32s-.59-1.32-1.32-1.32z"/><path class="st0" d="M12.26 13.39c-.03 0-.05-.01-.08-.02-.04-.03-.07-.07-.07-.13v-1.25c0-.05.03-.1.07-.13s.1-.03.14-.01l1.23.62c.05.02.08.08.08.13 0 .06-.03.11-.08.13l-1.23.63c-.02.03-.04.03-.06.03zm.15-1.16V13l.76-.39-.76-.38z"/><path d="M24.54 18.86H7.7c-.65 0-1.18-.53-1.18-1.18V7.16c0-.65.53-1.18 1.18-1.18h16.84c.65 0 1.19.53 1.19 1.18v10.52c0 .65-.53 1.18-1.19 1.18zM7.7 6.57c-.33 0-.59.27-.59.59v10.52c0 .33.27.59.59.59h16.84c.33 0 .59-.27.59-.59V7.16c0-.33-.27-.59-.59-.59H7.7z"/><path d="M23.63 17.55H8.61c-.41 0-.74-.33-.74-.74V8.03c0-.41.33-.74.74-.74h15.02c.41 0 .74.33.74.74v8.78c0 .4-.33.74-.74.74zM8.61 7.59c-.24 0-.44.2-.44.44v8.78c0 .25.2.44.44.44h15.02c.25 0 .44-.2.44-.44V8.03c0-.24-.2-.44-.44-.44H8.61zM20.68 20.17h-9.23c-.16 0-.3-.13-.3-.3 0-.16.13-.3.3-.3h9.23c.16 0 .3.13.3.3 0 .16-.13.3-.3.3z"/><path d="M13.48 20.13c-.16 0-.3-.13-.3-.3v-1.26c0-.16.13-.3.3-.3.16 0 .3.13.3.3v1.26c0 .17-.14.3-.3.3zM18.73 20.13c-.16 0-.3-.13-.3-.3v-1.26c0-.16.13-.3.3-.3.16 0 .3.13.3.3v1.26c-.01.17-.14.3-.3.3zM11.45 21.43c-.16 0-.3-.13-.3-.3v-1.26c0-.16.13-.3.3-.3.16 0 .3.13.3.3v1.26c-.01.17-.14.3-.3.3zM20.68 21.43c-.16 0-.3-.13-.3-.3v-1.26c0-.16.13-.3.3-.3.16 0 .3.13.3.3v1.26c0 .17-.13.3-.3.3z"/><path d="M26.72 26.03H5.28c-.25 0-.49-.1-.67-.28-.18-.18-.28-.42-.28-.67s.1-.49.28-.67l2.41-2.48c.06-.61.58-1.09 1.21-1.09h15.54c.63 0 1.15.48 1.21 1.09l2.41 2.49c.18.18.27.41.27.67s-.1.49-.28.67c-.17.17-.4.27-.66.27zm-18.49-4.6c-.34 0-.62.28-.62.62 0 .08-.03.15-.08.21l-2.49 2.57c-.07.07-.11.16-.11.25s.04.18.1.25.16.1.25.1h21.44c.1 0 .18-.04.25-.1.07-.07.1-.16.1-.25s-.04-.18-.1-.25l-2.49-2.57c-.05-.06-.08-.13-.08-.21 0-.34-.28-.62-.62-.62H8.23z"/><path class="st0" d="M23.71 22.32H8.31c-.08 0-.15-.07-.15-.15s.07-.15.15-.15h15.4c.08 0 .15.07.15.15s-.07.15-.15.15zM24.32 23.35H7.69c-.08 0-.15-.07-.15-.15s.07-.15.15-.15h16.63c.08 0 .15.07.15.15s-.07.15-.15.15zM25.24 24.39H6.77c-.08 0-.15-.07-.15-.15s.07-.15.15-.15h18.47c.08 0 .15.07.15.15s-.07.15-.15.15z"/></svg>