<svg xmlns="http://www.w3.org/2000/svg" width="32" height="32" viewBox="0 0 32 32"><path d="M13.353 22.266c.89.075 1.82.113 2.77.113 2.618 0 5.07-.297 6.557-.792.12-.04.25.025.29.146s-.024.25-.145.29c-1.533.51-4.038.815-6.702.815-.962 0-1.907-.04-2.81-.116-.125-.01-.22-.122-.21-.25.012-.125.124-.22.25-.208zm-1.863-.15c-.91-.15-1.688-.345-2.25-.564-.08-.03-.17.008-.2.087-.03.078.008.167.087.198.592.23 1.37.425 2.313.58l.025.002c.074 0 .14-.053.15-.128.015-.084-.04-.163-.125-.176zm12.16-1.926c.437.263.696.572.696.933v4.673c0 1.596-5.01 2.175-8.378 2.175-3.368 0-8.378-.578-8.378-2.174v-4.673c0-.362.26-.67.697-.933-.438-.262-.697-.57-.697-.933v-4.672c0-.366.266-.68.715-.943-.453-.266-.722-.58-.722-.948V8.022c0-1.596 5.01-2.175 8.378-2.175 3.368 0 8.38.58 8.38 2.175v4.672c0 .366-.267.68-.715.943.453.266.722.58.722.948v4.672c0 .362-.26.67-.697.933zM9.01 13.314c.27.11.61.222 1.01.326 1.304.34 3.29.616 5.94.616 2.654 0 4.643-.276 5.946-.618.4-.106.74-.216 1.01-.328.534-.222.808-.443.808-.617V8.02c0-.544-2.666-1.56-7.765-1.56S8.193 7.475 8.193 8.02v4.673c0 .174.278.397.817.62zm13.943 7.204c-1.73.653-4.726.914-6.985.914-2.26 0-5.255-.26-6.985-.914-.518.218-.78.435-.78.606v4.673c0 .545 2.666 1.562 7.764 1.562s7.765-1.018 7.765-1.563v-4.673c0-.17-.263-.388-.78-.606zm.78-5.933c0-.174-.277-.398-.817-.62-1.733.645-4.71.904-6.957.904-2.245 0-5.215-.26-6.95-.902-.534.222-.81.443-.81.617v4.672c0 .17.264.39.782.606.264.11.6.222.997.327 1.3.347 3.304.63 5.987.63s4.685-.283 5.987-.63c.396-.106.734-.215.998-.327.518-.218.78-.435.78-.606v-4.672zm-1.053.464c-1.488.494-3.94.79-6.557.79-.952 0-1.884-.038-2.77-.114-.126-.01-.238.083-.248.21-.01.126.083.238.21.25.9.076 1.844.114 2.81.114 2.664 0 5.17-.304 6.7-.814.12-.04.187-.17.147-.29-.04-.122-.17-.187-.29-.147zm-11.19.526c-.908-.15-1.686-.344-2.25-.563-.08-.03-.17.008-.2.087-.03.08.008.168.087.198.593.23 1.37.426 2.313.58.008.002.017.002.025.002.074 0 .14-.053.15-.128.015-.084-.04-.163-.125-.176zm1.816-5.954c.902.077 1.847.115 2.81.115 2.664 0 5.17-.304 6.7-.814.12-.04.187-.17.147-.29s-.17-.186-.29-.147c-1.49.495-3.94.79-6.558.79-.95 0-1.88-.037-2.77-.113-.123-.01-.238.083-.25.21-.01.126.084.237.21.248zm-1.848-.304c.074 0 .14-.053.15-.128.015-.083-.04-.162-.125-.176-.91-.15-1.688-.344-2.25-.563-.08-.03-.17.01-.2.088-.03.08.01.168.088.198.593.23 1.37.426 2.314.58l.025.002z"/></svg>