<svg xmlns="http://www.w3.org/2000/svg" width="32" height="32" viewBox="0 0 32 32"><path d="M16 3.802c-4.367 0-7.94 3.54-7.94 7.908 0 1.823.295 3.162.748 4.208.68 1.57 1.703 2.458 2.496 3.342.398.442.74.882.986 1.407.245.526.397 1.143.398 1.96 0 .194.058.373.157.523-.202.175-.335.446-.335.752v.105c0 .168.038.33.108.47-.07.14-.108.305-.108.482v.104c0 .172.038.334.11.475-.07.14-.11.297-.11.46v.103c0 .25.085.484.24.663.028.032.06.058.1.077.333.164.558.354.777.538.5.422.97.818 2.374.818s1.877-.396 2.375-.817c.22-.183.444-.373.778-.537.038-.02.07-.045.1-.077.154-.178.24-.414.24-.662V26c0-.163-.04-.32-.11-.46.07-.142.11-.304.11-.476v-.105c0-.178-.04-.343-.11-.484.07-.14.11-.3.11-.47v-.104c0-.306-.134-.577-.337-.753.1-.15.157-.33.157-.522.002-1.092.27-1.824.673-2.46.304-.48.696-.902 1.122-1.354.638-.677 1.356-1.42 1.906-2.518.552-1.096.926-2.535.926-4.586 0-4.37-3.573-7.907-7.94-7.908zm2.86 20.205c0 .102-.033.196-.09.256-.114.123-.11.315.007.437.053.054.082.146.082.26v.105c0 .105-.033.198-.088.257-.11.12-.114.304-.006.426.058.067.093.16.093.252v.105c0 .075-.02.148-.056.207-.364.19-.615.4-.837.587-.443.373-.793.667-1.967.667s-1.524-.294-1.967-.668c-.222-.188-.472-.4-.837-.59-.036-.057-.055-.13-.055-.206V26c0-.094.035-.185.095-.252.11-.122.106-.307-.006-.426-.056-.058-.088-.152-.088-.257v-.105c0-.114.03-.206.083-.26.118-.12.12-.313.006-.437-.055-.06-.087-.154-.087-.256v-.105c0-.173.108-.326.23-.326h5.258c.123 0 .23.153.23.326v.105zm3.752-8.34c-.62 1.433-1.552 2.245-2.385 3.17-.415.462-.805.953-1.09 1.562-.284.607-.456 1.33-.455 2.228 0 .175-.142.316-.316.316h-4.73c-.174 0-.316-.14-.316-.316.002-1.197-.31-2.082-.773-2.802-.346-.54-.768-.99-1.195-1.446-.643-.682-1.298-1.368-1.8-2.368-.503-1-.86-2.326-.86-4.303 0-2.01.822-3.827 2.147-5.146 1.325-1.318 3.15-2.132 5.16-2.132s3.838.814 5.163 2.132C22.488 7.882 23.31 9.7 23.31 11.71c0 1.755-.283 3-.698 3.956zm-.757-.646c-.08-.03-.173.007-.206.087-.05.118-.1.23-.153.34-.038.078-.006.172.072.21.02.012.045.017.07.017.057 0 .113-.033.14-.09.058-.114.11-.234.162-.36.033-.08-.005-.17-.086-.205zm.47-2.265c-.087-.008-.164.056-.173.143-.017.18-.037.355-.06.522-.025.166-.053.326-.084.478-.03.153-.065.3-.102.44-.022.083.028.17.112.192.014.004.028.006.04.006.07 0 .135-.047.154-.118.04-.146.074-.298.106-.456.033-.158.06-.323.086-.496.025-.172.046-.35.063-.538.008-.087-.056-.165-.143-.172zm.06-2.35c-.042-.21-.096-.42-.16-.62-.062-.2-.137-.403-.22-.597-.082-.192-.174-.383-.275-.568-.1-.183-.21-.362-.327-.534-.118-.174-.245-.342-.375-.5-.132-.157-.273-.312-.42-.46-.148-.145-.303-.286-.464-.417-.16-.135-.33-.26-.502-.375-.07-.048-.17-.03-.22.043-.048.072-.03.17.044.22.162.108.323.228.478.355.153.126.3.26.44.398.142.14.276.288.402.44.124.15.245.31.358.475.11.164.216.335.31.51.097.174.185.355.263.538.08.185.15.376.21.567.06.192.11.39.152.59.04.205.073.41.094.612.02.208.032.42.032.63 0 .087.07.158.158.158s.158-.07.158-.158c0-.22-.01-.443-.034-.662-.024-.213-.057-.43-.1-.645zM19.228 11.9c-.122-.044-.26.02-.302.143l-.157.444c-.194-.02-.294-.127-.404-.257l-.05-.058c-.02-.023-.036-.048-.052-.072-.062-.09-.156-.226-.367-.226-.22 0-.33.15-.402.248l-.04.053-.034.04c-.12.144-.23.28-.474.28-.26 0-.375-.15-.5-.314-.014-.018-.027-.04-.04-.06-.065-.103-.172-.272-.394-.272-.215 0-.326.165-.39.263-.016.024-.03.045-.045.063l-.04.05c-.118.14-.227.27-.465.27-.263 0-.39-.145-.492-.3l-.025-.04c-.068-.114-.182-.303-.422-.303-.23 0-.343.18-.41.29l-.032.047c-.108.156-.23.293-.465.304l-.146-.412c-.045-.123-.18-.188-.303-.144-.123.044-.188.18-.145.302l1.44 4.07c.075.213.15.587.16.817l.234 4.46c.006.128.112.226.236.226h.013c.13-.008.23-.12.224-.25l-.234-4.462c-.014-.275-.098-.693-.19-.95L13.335 12.8c.35-.054.527-.303.617-.432.014-.02.027-.04.04-.063.062-.098.095-.14.143-.14.052 0 .085.04.152.15l.028.047c.122.193.334.45.76.45.385 0 .578-.232.705-.385l.038-.046c.022-.025.045-.057.067-.09.06-.092.09-.123.128-.123.043 0 .07.03.13.124.018.03.036.06.06.09.13.172.328.433.746.433.394 0 .59-.237.718-.395l.032-.038.052-.068c.07-.094.096-.12.15-.12.04 0 .048.006.106.09.024.034.048.068.077.1l.046.054c.114.134.265.31.536.36l-1.173 3.318c-.093.258-.175.675-.19.95l-.234 4.463c-.006.13.094.243.224.25h.013c.125 0 .23-.098.236-.224l.233-4.462c.012-.228.086-.602.162-.816l1.44-4.07c.042-.122-.022-.257-.146-.3zm-5.03 12.763h2.997c.087 0 .158-.07.158-.158 0-.087-.07-.158-.158-.158h-2.996c-.087 0-.158.07-.158.158s.07.158.158.158zm3.963.7H13.9c-.087 0-.158.072-.158.16 0 .087.07.157.158.157h4.26c.087 0 .158-.07.158-.158 0-.087-.07-.158-.158-.158zm-.948 1.018h-2.364c-.087 0-.158.07-.158.16s.07.157.158.157h2.364c.087 0 .158-.07.158-.158s-.07-.16-.158-.16z"/></svg>