<?xml version="1.0" encoding="UTF-8"?>
<svg id="uuid-e9a5e1a8-41e2-41e8-b32f-e4873d9adcc6" data-name="Icon" xmlns="http://www.w3.org/2000/svg" viewBox="0 0 36 36">
  <path d="M24,30.38H12c-.35,0-.62,.28-.62,.62s.28,.62,.62,.62h12c.35,0,.62-.28,.62-.62s-.28-.62-.62-.62Z"/>
  <path d="M21.62,8.62h9.38c.35,0,.62-.28,.62-.62s-.28-.62-.62-.62h-9.38v-1.75h9.38c.35,0,.62-.28,.62-.62s-.28-.62-.62-.62H12c-.35,0-.62,.28-.62,.62s.28,.62,.62,.62h2.38v1.75h-2.38c-.35,0-.62,.28-.62,.62s.28,.62,.62,.62h2.38v6.75H5c-.35,0-.62,.28-.62,.62,0,7.51,6.11,13.62,13.62,13.62s13.62-6.11,13.62-13.62c0-.34-.28-.62-.62-.62h-3.38v-1.88c0-1.17-.95-2.12-2.12-2.12s-2.12,.95-2.12,2.12v1.88h-1.75v-6.75Zm-1.25,6.75h-1.75v-6.75h1.75v6.75Zm0-8h-1.75v-1.75h1.75v1.75Zm-4.75-1.75h1.75v1.75h-1.75v-1.75Zm0,3h1.75v6.75h-1.75v-6.75Zm2.38,19.75c-6.61,0-12.03-5.22-12.36-11.75h14.73v1.88c0,1.17,.95,2.12,2.12,2.12s2.12-.95,2.12-2.12v-1.88h5.73c-.33,6.53-5.75,11.75-12.36,11.75Zm6.62-14.88c0-.48,.39-.88,.88-.88s.88,.39,.88,.88v1.88h-1.75v-1.88Zm-1.25,3.12v1.88c0,.48-.39,.88-.88,.88s-.88-.39-.88-.88v-1.88h1.75Z"/>
</svg>