<svg xmlns="http://www.w3.org/2000/svg" viewBox="0 0 36 36"><title>Icon-Red_Hat-Forklift-A-Black-RGB</title><path d="M21.74 25a.48.48 0 0 0 0-.12l-1.27-6-1.84-8.66a.75.75 0 0 0-.73-.59H13a.75.75 0 0 0-.75.75v7.92H5a.76.76 0 0 0-.75.75v6a.76.76 0 0 0 .75.75h.35a3.08 3.08 0 0 0-.1.75 3.25 3.25 0 0 0 6.5 0 3.08 3.08 0 0 0-.1-.75h1.7a3.08 3.08 0 0 0-.1.75 3.25 3.25 0 0 0 6.5 0 3.08 3.08 0 0 0-.1-.75H21a.39.39 0 0 0 .15 0 .15.15 0 0 0 .07 0l.12-.05a.71.71 0 0 0 .14-.1l.07-.06a1 1 0 0 0 .11-.17v-.07a.78.78 0 0 0 0-.21l.08-.14zm-8-13.88h3.53l1.53 7.17h-5.05zM8.5 28.25a1.75 1.75 0 1 1 1.75-1.75 1.76 1.76 0 0 1-1.75 1.75zm8 0a1.75 1.75 0 1 1 1.75-1.75 1.76 1.76 0 0 1-1.75 1.75zm0-5a3.27 3.27 0 0 0-2.34 1h-3.32a3.24 3.24 0 0 0-4.68 0h-.41v-4.5h13.37l1 4.5h-1.28a3.27 3.27 0 0 0-2.34-1zM33.73 24.54a.74.74 0 0 0-.89-.58l-8.07 1.71-4-18.83a.75.75 0 1 0-1.46.32l4.15 19.56a.76.76 0 0 0 .74.59h.15l8.81-1.88a.74.74 0 0 0 .57-.89z"/><path d="M25.77 23.16a.7.7 0 0 0 .33.47.73.73 0 0 0 .41.12h.15l4.89-1a.75.75 0 0 0 .58-.89l-1-4.89a.72.72 0 0 0-.32-.47.77.77 0 0 0-.57-.11l-4.89 1a.77.77 0 0 0-.58.89zm4-5.2l.73 3.43-3.43.73-.72-3.43z"/></svg>