<svg data-name="Layer 1" xmlns="http://www.w3.org/2000/svg" viewBox="0 0 36 36"><title>Icon-Red_Hat-Thumbs_up-A-Black-RGB</title><path d="M27.517 18.125a2.5 2.5 0 0 0-.633-.448 2.48 2.48 0 0 0 .366-1.284v-.118a2.5 2.5 0 0 0-2.5-2.5h-3.29a8.146 8.146 0 0 0 .857-1.72 7.9 7.9 0 0 0 .5-3.238 3.022 3.022 0 0 0-.41-1.265 2.7 2.7 0 0 0-.9-.913 2.56 2.56 0 0 0-1.084-.375 2.39 2.39 0 0 0-1.114.148 2.186 2.186 0 0 0-.99.758 2.552 2.552 0 0 0-.46 1.23l-.017.177-.013.175a2.028 2.028 0 0 1-.106.636.842.842 0 0 1-.39.382l-2.69 1.93-2.69 1.927a8.76 8.76 0 0 0-1.405 1.053q-.32.3-.614.625c-.194.22-.38.45-.553.69s-.333.49-.48.745a8.657 8.657 0 0 0-.4.785 8.5 8.5 0 0 0-.324.842 8.774 8.774 0 0 0-.235.865 8.5 8.5 0 0 0-.145.906 8.692 8.692 0 0 0 8.632 9.608h6.318a2.5 2.5 0 0 0 2.5-2.5v-.118a2.475 2.475 0 0 0-.24-1.052 2.5 2.5 0 0 0 1.99-2.45v-.117a2.473 2.473 0 0 0-.313-1.187 2.49 2.49 0 0 0 1.563-2.314v-.118a2.492 2.492 0 0 0-.733-1.767zm-5.925-2.85h3.158a1 1 0 0 1 1 1v.118a1 1 0 0 1-1 1h-6.32a1 1 0 0 1-1-1v-.118a1 1 0 0 1 1-1zm-4.94 2.867a2.494 2.494 0 0 0-.72 1.75v.117a2.492 2.492 0 0 0 .72 1.75 2.492 2.492 0 0 0-.72 1.75v.116a2.494 2.494 0 0 0 .72 1.75 2.49 2.49 0 0 0-.72 1.75v.117a2.49 2.49 0 0 0 .2.985A7.182 7.182 0 0 1 9.29 20.3a7.155 7.155 0 0 1 .582-2.16 6.83 6.83 0 0 1 .33-.65 7.254 7.254 0 0 1 .4-.616c.145-.2.3-.39.46-.57a7.28 7.28 0 0 1 1.072-.988c.2-.15.414-.294.647-.436l2.684-1.923 2.684-1.923a2.16 2.16 0 0 0 .972-1.07 3.5 3.5 0 0 0 .21-1.1c0-.048.006-.1.01-.147l.014-.15a1.073 1.073 0 0 1 .164-.474.7.7 0 0 1 .336-.278.923.923 0 0 1 .436-.053 1.062 1.062 0 0 1 .435.155 1.2 1.2 0 0 1 .353.335 1.465 1.465 0 0 1 .25.713 6.408 6.408 0 0 1-.41 2.555 5.2 5.2 0 0 1-1.384 2.225c-.01.01-.016.023-.027.032h-1.074a2.5 2.5 0 0 0-2.5 2.5v.118a2.49 2.49 0 0 0 .72 1.747zm7.1 9.042v.06a1 1 0 0 1-1 1h-4.32a1 1 0 0 1-1-1v-.12a1 1 0 0 1 1-1h4.32a1 1 0 0 1 1 1zm1.75-3.617v.06a1 1 0 0 1-1 1h-6.07a1 1 0 0 1-1-1v-.118a1 1 0 0 1 1-1H24.5a1 1 0 0 1 1 1zm1.25-3.616v.06a1 1 0 0 1-1 1h-7.32a1 1 0 0 1-1-1v-.118a1 1 0 0 1 1-1h7.318a1 1 0 0 1 1 1z"/></svg>