<svg xmlns="http://www.w3.org/2000/svg" viewBox="0 0 32 32"><path d="M25.58 9.33c-.03-.06-.08-.1-.14-.12l-.82-.26c-.11-.04-.24.02-.28.13L22 14.81H10L7.66 9.08c-.04-.11-.16-.17-.28-.13l-.82.25c-.06.02-.11.07-.14.13s-.03.12 0 .18l2.16 5.29h-.53c-.13 0-.23.1-.23.23v1.16c0 .13.1.23.23.23h.31l.5 7.03c0 .06.03.1.06.15-.47.24-.79.73-.79 1.29 0 .8.65 1.45 1.45 1.45.8 0 1.45-.65 1.45-1.45 0-.47-.23-.88-.57-1.15-.25-.19-.55-.31-.88-.31.33 0 .64.12.88.31H21.7c.25-.19.55-.31.88-.31-.33 0-.64.12-.88.31-.35.27-.57.68-.57 1.15 0 .8.65 1.45 1.45 1.45s1.45-.65 1.45-1.45c0-.56-.33-1.05-.79-1.29.03-.04.05-.09.06-.15l.5-7.03h.2c.13 0 .23-.1.23-.23v-1.16c0-.13-.1-.23-.23-.23h-.58l2.16-5.29c.03-.06.02-.13 0-.18zm-18.64.24l.38-.12 2.19 5.36h-.43L6.94 9.57zm3.63 15.31c0 .56-.45 1.01-1.01 1.01s-1.01-.45-1.01-1.01.45-1.01 1.01-1.01 1.01.46 1.01 1.01zm-1.4-1.39c.07-.02.15-.04.22-.05-.08.01-.15.03-.22.05zm.27-.37l-.47-6.62h1.67l.24 1.49c.02.11.11.19.23.19h1.19c.13 0 .23-.1.23-.23V16.5h7.21v1.45c0 .13.1.23.23.23h1.19c.11 0 .21-.08.23-.19l.24-1.49h1.53l-.47 6.62H9.44zm14.14 1.76c0 .56-.45 1.01-1.01 1.01s-1.01-.45-1.01-1.01.45-1.01 1.01-1.01 1.01.46 1.01 1.01zm.19-9.61v.7h-2.32c-.11 0-.21.08-.23.19l-.25 1.56h-.77v-1.53c0-.13-.1-.23-.23-.23H12.3c-.13 0-.23.1-.23.23v1.53h-.77l-.25-1.56c-.02-.11-.11-.19-.23-.19H8.28v-.7h15.49zm-.85-.46h-.43l2.19-5.36.38.12-2.14 5.24zm-7.08-1.03c.06.06.14.1.23.1s.17-.04.23-.1l3.11-3.45c.16-.22.19-.46.06-.65-.14-.21-.35-.28-.57-.21l-1.14.11V5.97c0-.17-.14-.31-.31-.31s-.31.14-.31.31v3.95c0 .09.04.17.1.23s.15.09.24.08l1.3-.12-2.72 3.02-2.72-3.02 1.3.13c.09.01.17-.02.24-.08s.1-.14.1-.23V5.97c0-.17-.14-.31-.31-.31-.17 0-.31.14-.31.31v3.61l-1.14-.11c-.21-.07-.43 0-.57.21-.12.19-.1.43.08.67l3.11 3.43z"/></svg>