<svg xmlns="http://www.w3.org/2000/svg" viewBox="0 0 36 36"><title>Icon-Red_Hat-Hardware-Router_Load_Balancer_Virtual-A-Black-RGB</title><path d="M24.77 18a.77.77 0 0 0-.22.54.71.71 0 0 0 .06.28.78.78 0 0 0 .16.24.73.73 0 0 0 .82.17.66.66 0 0 0 .24-.17.81.81 0 0 0 .17-.24.92.92 0 0 0 .05-.28.77.77 0 0 0-.22-.54.78.78 0 0 0-1.06 0z"/><path d="M7.25 16v5a.76.76 0 0 0 .75.75h20a.76.76 0 0 0 .75-.75v-5a.76.76 0 0 0-.75-.75H8a.76.76 0 0 0-.75.75zm1.5.75h18.5v3.5H8.75z"/><path d="M10.14 17.38a.76.76 0 0 0-.75.75v.72a.75.75 0 0 0 1.5 0v-.72a.75.75 0 0 0-.75-.75zM12.29 17.38a.75.75 0 0 0-.75.75v.72a.75.75 0 0 0 1.5 0v-.72a.76.76 0 0 0-.75-.75zM14.43 17.38a.75.75 0 0 0-.75.75v.72a.75.75 0 0 0 1.5 0v-.72a.76.76 0 0 0-.75-.75zM16.57 17.38a.76.76 0 0 0-.75.75v.72a.75.75 0 0 0 1.5 0v-.72a.75.75 0 0 0-.75-.75zM18.71 17.38a.76.76 0 0 0-.75.75v.72a.75.75 0 0 0 1.5 0v-.72a.75.75 0 0 0-.75-.75zM20.86 17.38a.75.75 0 0 0-.75.75v.72a.75.75 0 0 0 1.5 0v-.72a.76.76 0 0 0-.75-.75zM31.53 23.45a.75.75 0 0 0-1.28.53.75.75 0 0 0 .75.75.72.72 0 0 0 .29-.06.63.63 0 0 0 .24-.16.75.75 0 0 0 .22-.53.72.72 0 0 0-.06-.29.78.78 0 0 0-.16-.24z"/><circle cx="18" cy="23.98" r=".75"/><circle cx="20.6" cy="23.98" r=".75"/><circle cx="23.2" cy="23.98" r=".75"/><circle cx="25.8" cy="23.98" r=".75"/><circle cx="28.4" cy="23.98" r=".75"/><circle cx="7.6" cy="23.98" r=".75"/><circle cx="10.2" cy="23.98" r=".75"/><circle cx="12.8" cy="23.98" r=".75"/><circle cx="15.4" cy="23.98" r=".75"/><path d="M5.53 23.45a.75.75 0 0 0-1.22.24.72.72 0 0 0-.06.29.75.75 0 0 0 .22.53.78.78 0 0 0 .24.16.73.73 0 0 0 .58 0 .78.78 0 0 0 .24-.16.75.75 0 0 0 .22-.51.72.72 0 0 0-.06-.29.78.78 0 0 0-.16-.26z"/><circle cx="5" cy="15.75" r=".75"/><circle cx="5" cy="18.49" r=".75"/><circle cx="5" cy="21.24" r=".75"/><path d="M4.47 12.48a.75.75 0 1 0 1.06 1.06.78.78 0 0 0 .16-.24.72.72 0 0 0 .06-.3.75.75 0 0 0-.22-.53.77.77 0 0 0-1.06.01z"/><circle cx="28.4" cy="13.01" r=".75"/><circle cx="25.8" cy="13.01" r=".75"/><circle cx="7.6" cy="13.01" r=".75"/><circle cx="23.2" cy="13.01" r=".75"/><circle cx="12.8" cy="13.01" r=".75"/><circle cx="10.2" cy="13.01" r=".75"/><circle cx="20.6" cy="13.01" r=".75"/><circle cx="18" cy="13.01" r=".75"/><circle cx="15.4" cy="13.01" r=".75"/><path d="M31 13.76a.75.75 0 0 0 .53-.22.78.78 0 0 0 .16-.24.72.72 0 0 0 .06-.29.75.75 0 0 0-.22-.53.77.77 0 0 0-1.06 0 .75.75 0 0 0 .53 1.28z"/><circle cx="31" cy="21.24" r=".75"/><path d="M31 17.75a.75.75 0 1 0 .75.75.74.74 0 0 0-.75-.75z"/><circle cx="31" cy="15.75" r=".75"/></svg>