<svg xmlns="http://www.w3.org/2000/svg" width="32" height="32" viewBox="0 0 32 32"><path d="M24.164 6.864c.92 0 1.668-.748 1.668-1.668s-.748-1.668-1.668-1.668-1.668.75-1.668 1.668.748 1.668 1.668 1.668zm0-2.877c.667 0 1.21.542 1.21 1.21 0 .665-.543 1.207-1.21 1.207s-1.21-.542-1.21-1.208c0-.666.543-1.21 1.21-1.21zm1.21 3.052h-2.447c-.022 0-2.21.058-2.21 2.47v1.487c0 .118.017.227.04.332l-8.316 3.078c-.64-.877-1.743-.912-1.76-.912H8.23c-.022 0-2.21.06-2.21 2.47v1.488c0 .845.69 1.33 1.147 1.65l.04.03v.645l.045.06c.065.088.476.525 2.167.525h.07c1.692 0 2.103-.438 2.168-.525l.045-.06v-.472l5.368 3.81c-.354.365-.63.92-.63 1.772v1.487c0 .845.69 1.33 1.147 1.65l.04.03v.645l.046.06c.065.09.475.527 2.167.527h.07c1.692 0 2.102-.44 2.167-.527l.045-.06v-.646l.04-.03c.458-.32 1.148-.804 1.148-1.65v-1.486c0-1.26-.598-1.875-1.17-2.177l2.233-8.806c1.53-.032 1.916-.438 1.978-.522l.045-.06v-.646l.04-.03c.456-.32 1.146-.805 1.146-1.65V9.513c0-2.412-2.187-2.472-2.212-2.472zm-1.45.458h.475l-.21.53.336 4.25-.347.28-.348-.28.3-4.25-.207-.53zm-13.592 6.458c-.176.222-.454.51-.814.668-.368-.143-.686-.437-.896-.668h1.71zm.913 5.64c-.14.093-.595.31-1.753.31h-.07c-1.17 0-1.62-.22-1.753-.306v-3.653c0-.127-.104-.23-.23-.23-.128 0-.23.103-.23.23v2.62c-.366-.27-.728-.61-.728-1.112v-1.487c0-1.88 1.56-2.003 1.735-2.01.202.254.672.775 1.255.975l.053.018.052-.02c.57-.224.963-.718 1.136-.973.26.017 1.718.193 1.718 2.01v1.487c0 .502-.36.84-.726 1.112v-2.62c0-.128-.103-.23-.23-.23s-.23.102-.23.23v3.65zm11.61 5.294v1.487c0 .502-.363.842-.73 1.113v-2.62c0-.128-.102-.23-.23-.23s-.23.102-.23.23v3.65c-.14.092-.593.308-1.75.308h-.07c-1.17 0-1.622-.22-1.754-.307V24.87c0-.127-.102-.23-.23-.23s-.23.103-.23.23v2.62c-.364-.27-.726-.61-.726-1.112V24.89c0-1.955 1.685-2.01 1.753-2.013h2.44c.07.002 1.757.058 1.757 2.012zM21.1 22.418h-2.447c-.01 0-.535.017-1.07.31l-5.478-3.89c.39-.31.787-.744.787-1.385v-1.487c0-.4-.064-.73-.165-1.012l8.292-3.07c.24.334.58.577.845.762l.04.028v.646l.045.06c.06.082.416.46 1.795.518l-2.18 8.59c-.265-.065-.457-.072-.464-.072zm6.027-11.42c0 .502-.362.842-.727 1.113V9.49c0-.127-.103-.23-.23-.23s-.23.103-.23.23v3.65c-.14.092-.595.31-1.753.31h-.07c-1.17 0-1.62-.222-1.753-.307V9.49c0-.127-.103-.23-.23-.23s-.23.103-.23.23v2.62c-.365-.27-.727-.61-.727-1.112V9.51c0-1.952 1.685-2.01 1.753-2.01h.664l.226.577-.306 4.34.665.537.664-.538-.344-4.34.228-.576h.643c.072 0 1.757.047 1.757 2.01V11zM9.47 13.32c.92 0 1.667-.748 1.667-1.667S10.39 9.985 9.47 9.985s-1.67.748-1.67 1.668.75 1.668 1.67 1.668zm0-2.876c.665 0 1.207.542 1.207 1.208 0 .666-.542 1.21-1.208 1.21s-1.21-.543-1.21-1.21c0-.666.542-1.208 1.21-1.208zm10.42 8.463c-.92 0-1.668.748-1.668 1.668 0 .92.748 1.668 1.668 1.668s1.668-.748 1.668-1.668c0-.92-.748-1.668-1.668-1.668zm0 2.877c-.667 0-1.21-.542-1.21-1.21 0-.665.543-1.207 1.21-1.207s1.21.542 1.21 1.208c0 .666-.543 1.21-1.21 1.21zm-1.443 1.512c0 .13.106.236.236.236s.236-.106.236-.236-.107-.236-.237-.236-.236.106-.236.236zm.59.25c-.13 0-.235.106-.235.235 0 .13.106.236.236.236s.235-.105.235-.235-.106-.234-.235-.234zm.32.46c0 .13.104.234.234.234s.236-.105.236-.235-.105-.235-.235-.235-.234.105-.234.235zm1.51-.71c0 .13.105.236.235.236s.236-.106.236-.236-.106-.236-.236-.236-.236.106-.236.236zm-.355.485c0 .13.105.236.235.236s.235-.105.235-.235-.105-.234-.235-.234-.235.105-.235.235zm-.554.225c0 .13.105.235.235.235s.235-.105.235-.235-.105-.235-.235-.235-.235.105-.235.235z"/></svg>