<svg xmlns="http://www.w3.org/2000/svg" viewBox="0 0 36 36"><title>Icon-Red_Hat-Science_and_nature-Space_capsule-A-Black-RGB</title><path d="M26.1 13.37l2.83-2.83a.75.75 0 0 0 0-1.06l-3.12-3.12a.75.75 0 0 0-1.06 0l-5.13 5.13-1.8-1.8a2.75 2.75 0 0 0-3.88 0l-.14.14V8.12a1 1 0 0 0-.65-1 1 1 0 0 0-1.15.26L7.37 12a1.05 1.05 0 0 0 .75 1.79h1.71l-.14.13a2.76 2.76 0 0 0 0 3.89l1.8 1.8-2.3 2.3-2.83 2.84a.75.75 0 0 0 0 1.06l3.12 3.12a.75.75 0 0 0 1.06 0l5.13-5.13 2.51 2.51a.75.75 0 0 0 .53.22h7.07a.76.76 0 0 0 .75-.75v-7.07a.75.75 0 0 0-.22-.53l-2.51-2.51 2.3-2.3zM25.28 8l2.06 2-1.77 1.77-2.06-2.05zM9.2 12.3l3.1-3.1v2.13l-1 1zm.81 15L8 25.28l1.77-1.77 2.06 2.06zm2.83-2.83l-2.06-2.06 1.77-1.77 1.1 1.1 1 1zM25 25h-6l-2.8-2.79-1.49-1.49-4-4a1.25 1.25 0 0 1-.36-.88 1.23 1.23 0 0 1 .36-.88L15 10.75a1.27 1.27 0 0 1 1.76 0l2.33 2.33 3.12 3.12L25 19zm-4.32-12.45l1.77-1.77 2.06 2.06-1.77 1.77z"/><path d="M15.56 15.56a3 3 0 0 0 2.09 5 3 3 0 0 0 2.09-5 3 3 0 0 0-4.18 0zm3.12 3.12a1.46 1.46 0 1 1 0-2.06 1.47 1.47 0 0 1 0 2.06z"/></svg>