<svg xmlns="http://www.w3.org/2000/svg" width="32" height="32" viewBox="0 0 32 32"><path d="M25.76 5.747c.038-.138-.02-.287-.155-.353l-2.818-1.38c-.042-.02-.088-.03-.134-.03H11.08c-.04 0-.08.008-.12.025L7.718 5.39c-.142.06-.21.214-.17.358-.008.026-.017.052-.017.08V17.84c0 .007.004.014.004.02 0 .008-.004.013-.004.02v10.152c0 .17.137.306.306.306H25.47c.17 0 .305-.137.305-.306v-10.15c0-.008-.004-.014-.004-.022 0-.006.005-.013.005-.02V5.827c0-.03-.01-.054-.016-.08zm-14.617-1.15H22.58l1.888.923H8.97l2.173-.925zm-3 7.86V6.134h17.02v9.625H8.143v-3.3zm17.02 15.268H8.144V16.067h17.02v11.658zm-9.36-3.685h-6.18c-.085 0-.153.07-.153.154s.07.154.154.154h6.178c.085 0 .154-.07.154-.154s-.07-.154-.154-.154zm0-1.616h-6.18c-.085 0-.153.07-.153.154 0 .086.07.154.154.154h6.178c.085 0 .154-.07.154-.154 0-.085-.07-.154-.154-.154zm0-1.617h-6.18c-.085 0-.153.07-.153.154s.07.156.154.156h6.178c.085 0 .154-.07.154-.155s-.07-.153-.154-.153zm0-1.615h-6.18c-.085 0-.153.07-.153.154s.07.154.154.154h6.178c.085 0 .154-.07.154-.154s-.07-.154-.154-.154zm-6.18-6.745h6.248c.172 0 .31-.138.31-.31 0-.17-.138-.308-.31-.308H9.625c-.17 0-.31.137-.31.308 0 .17.14.31.31.31zm0-3.636h6.248c.172 0 .31-.137.31-.308 0-.17-.138-.31-.31-.31H9.625c-.17 0-.31.14-.31.31 0 .17.14.31.31.31zm6.18 9.574h-6.18c-.085 0-.153.07-.153.154s.07.154.154.154h6.178c.085 0 .154-.07.154-.154s-.07-.154-.154-.154zm7.658 5.656h-6.177c-.085 0-.154.07-.154.154s.068.154.153.154h6.178c.086 0 .155-.07.155-.154s-.07-.154-.154-.154zm0-1.616h-6.177c-.085 0-.154.07-.154.154 0 .086.068.154.153.154h6.178c.086 0 .155-.07.155-.154 0-.085-.07-.154-.154-.154zm0-1.617h-6.177c-.085 0-.154.07-.154.154s.068.156.153.156h6.178c.086 0 .155-.07.155-.155s-.07-.153-.154-.153zm0-1.615h-6.177c-.085 0-.154.07-.154.154s.068.154.153.154h6.178c.086 0 .155-.07.155-.154s-.07-.154-.154-.154zm0-.808h-6.177c-.085 0-.154.07-.154.154s.068.154.153.154h6.178c.086 0 .155-.07.155-.154s-.07-.154-.154-.154zm-7.657 6.464h-6.18c-.085 0-.153.07-.153.155s.07.154.154.154h6.178c.085 0 .154-.07.154-.154s-.07-.155-.154-.155zm0-1.616h-6.18c-.085 0-.153.07-.153.154s.07.154.154.154h6.178c.085 0 .154-.07.154-.154s-.07-.154-.154-.154zm0-1.616h-6.18c-.085 0-.153.07-.153.154s.07.154.154.154h6.178c.085 0 .154-.07.154-.154s-.07-.154-.154-.154zm0-1.616h-6.18c-.085 0-.153.07-.153.154s.07.154.154.154h6.178c.085 0 .154-.07.154-.154s-.07-.154-.154-.154zm0-2.424h-6.18c-.085 0-.153.07-.153.154 0 .085.07.154.154.154h6.178c.085 0 .154-.07.154-.154 0-.085-.07-.154-.154-.154zm7.658 7.272h-6.177c-.085 0-.154.07-.154.155s.068.154.153.154h6.178c.086 0 .155-.07.155-.154s-.07-.155-.154-.155zm0-1.616h-6.177c-.085 0-.154.07-.154.154s.068.154.153.154h6.178c.086 0 .155-.07.155-.154s-.07-.154-.154-.154zm0-1.616h-6.177c-.085 0-.154.07-.154.154s.068.154.153.154h6.178c.086 0 .155-.07.155-.154s-.07-.154-.154-.154zm0-1.616h-6.177c-.085 0-.154.07-.154.154s.068.154.153.154h6.178c.086 0 .155-.07.155-.154S23.545 20 23.46 20zm0-2.424h-6.177c-.085 0-.154.07-.154.154 0 .085.068.154.153.154h6.178c.086 0 .155-.07.155-.154 0-.085-.07-.154-.154-.154zm-13.836-3.31h6.247c.172 0 .31-.14.31-.31 0-.17-.138-.31-.31-.31H9.625c-.17 0-.31.14-.31.31 0 .17.14.31.31.31zm0-3.637h6.247c.172 0 .31-.14.31-.31 0-.17-.138-.31-.31-.31H9.625c-.17 0-.31.14-.31.31 0 .17.14.31.31.31zm7.596-2.11v.005c0 .233.19.422.422.422.233 0 .422-.19.422-.422V8.52v-.005c0-.233-.19-.422-.422-.422-.233 0-.422.19-.422.422v.005zm1.197 0v.005c0 .233.19.422.422.422.232 0 .42-.19.42-.422V8.52v-.005c0-.233-.188-.422-.42-.422-.234 0-.423.19-.423.422v.005zm1.197 0c0 .233.19.422.422.422s.422-.19.422-.422c0-.233-.19-.422-.422-.422-.233 0-.422.19-.422.422zm-2.392 1.2v4.58c0 .085.07.154.154.154h6.017c.085 0 .154-.07.154-.154V9.72c0-.087-.07-.155-.154-.155h-6.017c-.085 0-.154.07-.154.154zm6.017 2.498h-5.71v-.498h5.71v.498zm-5.71.31h5.71v.498h-5.71v-.5zm5.71-1.117h-5.71v-.498h5.71v.5zm-5.71 2.736v-.81h5.71v.81h-5.71zm5.71-4.272v.728h-5.71v-.728h5.71z"/></svg>