<svg data-name="Layer 1" xmlns="http://www.w3.org/2000/svg" width="36" height="36" viewBox="0 0 36 36"><title>Icon-Red_Hat-</title><path d="M18.41 15.89a.74.74 0 0 0-.88.58l-1 4.87a.74.74 0 0 0 .58.89h.15a.76.76 0 0 0 .74-.6l1-4.87a.74.74 0 0 0-.59-.87zm-3 .5a.75.75 0 0 0-1.06 0l-2.14 2.13a.75.75 0 0 0 0 1.06l2.14 2.14a.71.71 0 0 0 .53.22.74.74 0 0 0 .53-.22.75.75 0 0 0 0-1.06l-1.61-1.61 1.61-1.6a.75.75 0 0 0 .01-1.06zm5.72 0a.75.75 0 0 0-1.06 0 .75.75 0 0 0 0 1.06l1.61 1.6-1.61 1.61a.75.75 0 0 0 0 1.06.74.74 0 0 0 .53.22.71.71 0 0 0 .53-.22l2.14-2.14a.75.75 0 0 0 0-1.06zm6.32.91a8.74 8.74 0 0 0-16.07-4 4.82 4.82 0 0 0-.65 0 6.76 6.76 0 0 0 0 13.52h16a4.75 4.75 0 0 0 .72-9.45zm-.72 8h-16a5.26 5.26 0 0 1 0-10.52 4.81 4.81 0 0 1 .9.09.78.78 0 0 0 .79-.37A7.24 7.24 0 0 1 26 18a.75.75 0 0 0 .75.75 3.25 3.25 0 0 1 0 6.5z"/></svg>