<svg xmlns="http://www.w3.org/2000/svg" viewBox="0 0 32 32"><path d="M25.6 11.67c-.9-2.93-3.64-4.97-6.72-4.97-3.09 0-5.81 2.02-6.71 4.94-.5-.18-1.03-.27-1.57-.27-2.19 0-4.07 1.51-4.56 3.61-1.95.07-3.6 1.43-4.04 3.35-.02.09 0 .18.06.25s.14.11.23.11h10.05c-.05.31-.07.63-.07.95 0 3.66 2.98 6.65 6.65 6.65s6.65-2.98 6.65-6.65c0-.33-.02-.64-.07-.95h4.39c.14 0 .26-.1.29-.24.06-.36.09-.68.09-1-.01-2.8-1.96-5.2-4.67-5.78zm-6.68 14.01c-3.33 0-6.03-2.71-6.03-6.03s2.71-6.03 6.03-6.03 6.03 2.71 6.03 6.03c0 3.32-2.71 6.03-6.03 6.03zm10.71-7.57h-4.25c-.7-2.93-3.33-5.11-6.47-5.11-3.14 0-5.77 2.18-6.47 5.11H2.67c.5-1.51 1.9-2.54 3.55-2.54h.05c.15.01.27-.1.29-.24.35-1.95 2.05-3.37 4.04-3.37.53 0 1.05.1 1.54.31.3.15.95.52 1.36 1.2.05.08.14.12.23.1.03-.01.05-.01.07-.03.1-.06.14-.2.08-.3-.35-.58-.84-.96-1.21-1.19.76-2.81 3.31-4.76 6.22-4.76 2.8 0 5.27 1.79 6.12 4.44-.75-.01-1.31.27-1.34.28-.11.05-.17.17-.12.28.05.11.17.16.28.12.01 0 .78-.31 1.66-.16 2.44.53 4.2 2.68 4.2 5.2-.01.21-.02.43-.06.66zm-7.18 1.19c-.3 0-.56.17-.7.42l-1.06-.31v-.07c0-.62-.29-1.16-.75-1.51l.58-.86c.03 0 .05.01.08.01.35 0 .63-.28.63-.63s-.28-.63-.63-.63-.63.28-.63.63c0 .19.08.35.22.47l-.55.82c-.26-.13-.55-.2-.85-.2-.58 0-1.1.26-1.45.67l-.79-.65c.06-.11.09-.23.09-.36 0-.44-.36-.79-.79-.79-.44 0-.79.36-.79.79s.36.79.79.79c.17 0 .34-.06.47-.15l.81.67c-.16.28-.25.6-.25.94 0 .46.16.88.43 1.2l-.53.44c-.11-.07-.24-.11-.37-.11-.37 0-.67.3-.67.67 0 .37.3.67.67.67s.67-.3.67-.67c0-.1-.02-.19-.06-.28l.55-.46c.33.28.76.44 1.23.44.23 0 .45-.04.65-.12l.45 1.2c-.34.18-.57.54-.57.95 0 .6.49 1.08 1.08 1.08s1.08-.49 1.08-1.08c0-.6-.48-1.08-1.08-1.08-.06 0-.11.01-.16.02l-.47-1.24c.43-.26.76-.69.88-1.2l1.01.29v.03c0 .44.36.8.8.8.44 0 .8-.36.8-.8-.02-.44-.38-.8-.82-.8zm-1.85-3.21c.15 0 .26.12.26.26s-.12.26-.26.26-.26-.12-.26-.26c-.01-.15.11-.26.26-.26zm-4.76 1.43c-.23 0-.43-.19-.43-.43s.19-.43.43-.43.43.19.43.43c-.01.24-.2.43-.43.43zm.55 4.33c-.17 0-.3-.14-.3-.3 0-.17.14-.3.3-.3s.3.14.3.3c0 .17-.13.3-.3.3zm4 .73c.39 0 .71.32.71.71 0 .39-.32.71-.71.71s-.71-.32-.71-.71.32-.71.71-.71zm-1.61-1.69c-.85 0-1.55-.69-1.55-1.55 0-.85.69-1.55 1.55-1.55s1.55.69 1.55 1.55-.7 1.55-1.55 1.55zm3.67-.36c-.24 0-.43-.19-.43-.43s.19-.43.43-.43.43.19.43.43-.19.43-.43.43z"/></svg>