<svg xmlns="http://www.w3.org/2000/svg" width="32" height="32" viewBox="0 0 32 32"><path d="M16 5.086C9.982 5.086 5.086 9.982 5.085 16c0 6.02 4.896 10.915 10.915 10.915 6.02 0 10.914-4.897 10.914-10.914 0-6.017-4.896-10.914-10.915-10.914zm0 21.216v.306-.306c-5.68 0-10.3-4.62-10.3-10.302 0-5.68 4.62-10.3 10.3-10.3S26.303 10.32 26.303 16c0 5.68-4.62 10.302-10.3 10.302zm7.854-14.28C22.432 9.176 20.4 7.625 17.27 6.996c-.126-.025-.247.055-.272.18-.025.124.056.246.18.27 2.98.6 4.912 2.075 6.265 4.784.04.08.12.126.206.126.033 0 .07-.008.1-.024.115-.057.16-.195.104-.308z"/></svg>