<svg xmlns="http://www.w3.org/2000/svg" viewBox="0 0 36 36"><title>Icon-Red_Hat-Food_and_Drink-Cheeseburger-A-Black</title><path d="M9 17.75h18a.76.76 0 0 0 .75-.75 9.75 9.75 0 0 0-19.5 0 .76.76 0 0 0 .75.75zm9-9a8.26 8.26 0 0 1 8.22 7.5H9.78A8.26 8.26 0 0 1 18 8.75zm9 14.5H9a.76.76 0 0 0-.75.75v4a.76.76 0 0 0 .75.75h18a.76.76 0 0 0 .75-.75v-4a.76.76 0 0 0-.75-.75zm-.75 4H9.75v-2.5h16.5zm2.75-6.5c-.56 0-.82-.26-1.28-.76A2.91 2.91 0 0 0 23 20c-.45.5-.72.76-1.28.76s-.82-.26-1.28-.76a2.91 2.91 0 0 0-4.77 0c-.45.5-.72.76-1.28.76s-.82-.26-1.28-.76a3.07 3.07 0 0 0-2.39-1.24A3.07 3.07 0 0 0 8.28 20c-.45.5-.72.76-1.28.76a.75.75 0 0 0 0 1.5A3.07 3.07 0 0 0 9.39 21c.45-.5.72-.76 1.28-.76s.83.26 1.28.76a3.09 3.09 0 0 0 2.39 1.24A3.07 3.07 0 0 0 16.73 21c.45-.5.72-.76 1.28-.76s.82.26 1.28.76a2.91 2.91 0 0 0 4.77 0c.45-.5.72-.76 1.27-.76s.83.26 1.29.76A3.05 3.05 0 0 0 29 22.25a.75.75 0 0 0 0-1.5z"/></svg>