<svg xmlns="http://www.w3.org/2000/svg" viewBox="0 0 32 32"><path fill="#010101" d="M16 4.67C9.752 4.67 4.67 9.75 4.67 16S9.75 27.33 16 27.33 27.33 22.25 27.33 16 22.25 4.67 16 4.67zm10.678 12.46c-1.307-.763-2.564-1.825-3.627-3.043.118-.135.19-.308.19-.5 0-.2-.078-.382-.204-.52.616-.935 1.334-1.813 2.15-2.622.984 1.622 1.552 3.524 1.552 5.555 0 .382-.02.758-.06 1.13zm-.748 2.95c-1.642-.136-3.22-.52-4.694-1.117.007-.042.013-.085.013-.13 0-.292-.167-.543-.41-.672.317-1.34.802-2.625 1.447-3.834.06.015.123.026.188.026.12 0 .23-.03.332-.08 1.118 1.283 2.44 2.384 3.83 3.175-.124.92-.364 1.803-.707 2.634zm-5.1 5.506c-.118-.507-.216-1.02-.284-1.536.088-.035.168-.085.242-.142.38.337.745.696 1.097 1.068-.34.222-.69.426-1.055.61zm-.864-3.433c-.16.034-.3.11-.422.21-2.516-1.776-5.464-2.882-8.545-3.188-.092-.452-.488-.793-.965-.798-.122-.812-.178-1.648-.16-2.507.012-.62.066-1.234.15-1.84.433-.068.77-.412.828-.848.597-.056 1.194-.136 1.79-.24.127.246.38.414.675.414.13 0 .25-.035.358-.093 1.552 2.247 3.645 4.09 6.08 5.344-.024.072-.04.147-.04.227 0 .296.17.55.416.678-.113.788-.173 1.59-.173 2.4 0 .082.005.16.006.24zm-.163-11.728c.137.13.322.212.526.212.044 0 .087-.006.13-.013.234.542.52 1.09.86 1.643.176.285.364.566.56.84-.106.133-.172.298-.172.48 0 .197.076.375.198.51-.672 1.254-1.175 2.59-1.502 3.98-.205.022-.384.122-.51.272-2.4-1.238-4.462-3.055-5.99-5.273.1-.118.16-.265.173-.427 2.065-.492 4.04-1.253 5.726-2.225zm.347-4.328c.92.387 1.772.9 2.54 1.514-.535.59-1.178 1.14-1.904 1.648-.128-.096-.285-.154-.457-.154-.026 0-.05.005-.074.007-.273-1.044-.33-2.07-.106-3.013zm-7.587 6.382c-.585.102-1.172.184-1.757.24-.076-.216-.223-.397-.415-.516.292-1.107.696-2.16 1.202-3.123.334 1.012.765 1.978 1.278 2.89-.164.12-.277.3-.307.51zM24.94 10.06c-.87.854-1.636 1.786-2.288 2.78-.057-.012-.116-.02-.177-.02-.13 0-.25.034-.356.09-.554-.77-1.022-1.58-1.376-2.398.21-.136.352-.373.352-.643 0-.084-.017-.165-.043-.242.75-.53 1.42-1.11 1.98-1.73.73.63 1.372 1.36 1.908 2.164zm-5.068-4.075c-.24.974-.206 2.064.093 3.212-.238.13-.402.38-.402.67 0 .05.005.103.015.152-1.648.94-3.588 1.683-5.61 2.166-.135-.218-.375-.365-.65-.365-.062 0-.12.01-.18.023-.553-.982-1.008-2.026-1.35-3.12.772-1.367 1.748-2.53 2.877-3.38.438-.053.883-.084 1.335-.084 1.365 0 2.67.26 3.872.725zm-8.256 2.15c-.155-.575-.278-1.163-.37-1.762.8-.396 1.652-.696 2.546-.883-.824.733-1.558 1.627-2.176 2.645zm-.646-1.62c.107.674.254 1.335.44 1.98-.614 1.085-1.102 2.29-1.44 3.567-.034-.003-.066-.01-.1-.01-.47 0-.863.328-.967.767-1.06.008-2.096-.073-3.077-.247.882-2.612 2.742-4.777 5.144-6.056zm-5.278 6.48c1.018.187 2.084.28 3.175.28h.035c.08.347.342.62.678.722-.084.613-.138 1.235-.15 1.862-.018.895.04 1.766.17 2.612-.254.12-.447.344-.528.617-1.094.012-2.184.123-3.25.33-.36-1.075-.56-2.224-.56-3.42 0-1.042.152-2.05.43-3.002zm.284 6.846c1.006-.19 2.035-.296 3.068-.308.08.472.486.832.98.832h.003c.71 2.387 2.04 4.493 3.93 6.173-3.666-.71-6.67-3.286-7.98-6.697zM14.8 26.67c-2.11-1.687-3.585-3.884-4.34-6.407.257-.127.45-.36.524-.644 2.988.3 5.846 1.375 8.288 3.093-.058.126-.092.265-.092.413 0 .526.41.953.926.99.074.56.182 1.117.313 1.666-1.35.612-2.845.955-4.42.955-.406 0-.806-.024-1.2-.068zm7.456-1.95c-.38-.404-.775-.792-1.188-1.157.065-.132.105-.28.105-.436 0-.47-.325-.86-.76-.965-.002-.082-.01-.164-.01-.247 0-.785.06-1.56.167-2.32.237-.028.44-.16.56-.353 1.47.594 3.042.98 4.676 1.127-.78 1.744-2.014 3.244-3.55 4.35z"/></svg>