<svg data-name="waveform" xmlns="http://www.w3.org/2000/svg" viewBox="0 0 36 36"><title>Icon-Red_Hat-Science_and_nature-Waveform-A-Black-RGB</title><path d="M28 19.75h-2.54l-1.79-3.58a.74.74 0 0 0-.78-.41.75.75 0 0 0-.63.62l-1.2 7.22-2.32-16.2a.75.75 0 0 0-.74-.65.73.73 0 0 0-.75.63l-2.42 15.37-2.1-8.43a.72.72 0 0 0-.76-.57.77.77 0 0 0-.71.63l-.9 5.37H8a.75.75 0 0 0 0 1.5h3a.74.74 0 0 0 .74-.62l.41-2.45 2.12 8.5a.71.71 0 0 0 .76.57.74.74 0 0 0 .71-.63L18 12.55l2.3 16.06a.74.74 0 0 0 .73.64.74.74 0 0 0 .74-.62l1.62-9.73 1 1.94a.76.76 0 0 0 .67.41h3a.75.75 0 0 0 0-1.5z"/></svg>