<svg data-name="Layer 1" xmlns="http://www.w3.org/2000/svg" width="36" height="36" viewBox="0 0 36 36"><title>Icon-Red_Hat-</title><path d="M7.09 23.74a.76.76 0 0 0 .75-.74 10.74 10.74 0 0 1 21.48 0 .75.75 0 1 0 1.5 0 12.24 12.24 0 0 0-24.48 0 .75.75 0 0 0 .75.74zM18.05 10a.75.75 0 0 0 .53.22.77.77 0 0 0 .53-.22.78.78 0 0 0 .16-.24.72.72 0 0 0 .06-.29.75.75 0 0 0-.06-.29.75.75 0 0 0-1.22-.18.81.81 0 0 0-.17.24 1 1 0 0 0-.05.29.93.93 0 0 0 .05.29.81.81 0 0 0 .17.18zm14.1 15.21H5a.75.75 0 0 0 0 1.5h27.15a.75.75 0 0 0 0-1.5zM9.47 23A.75.75 0 0 0 11 23a7.61 7.61 0 0 1 7.61-7.6.75.75 0 0 0 0-1.5A9.12 9.12 0 0 0 9.47 23z"/></svg>