<svg xmlns="http://www.w3.org/2000/svg" width="32" height="32" viewBox="0 0 32 32"><path d="M25.838 13.262c-.898-2.934-3.635-4.97-6.72-4.97-3.09 0-5.805 2.017-6.712 4.942-.504-.18-1.03-.27-1.57-.27-2.186 0-4.067 1.503-4.563 3.61-1.954.073-3.6 1.43-4.036 3.352-.02.086 0 .177.057.247.055.07.14.11.228.11h27.596c.142 0 .263-.102.287-.242.06-.356.09-.684.09-1.003 0-2.79-1.948-5.19-4.657-5.774zm4.03 6.438H2.906c.502-1.514 1.905-2.542 3.55-2.542h.004l.045.002c.148.014.268-.098.294-.24.353-1.953 2.052-3.37 4.04-3.37.53 0 1.048.105 1.54.304.304.148.954.524 1.356 1.198.048.08.138.12.226.103.026-.005.05-.013.074-.028.104-.062.138-.196.076-.3-.346-.58-.837-.96-1.21-1.187.758-2.806 3.305-4.762 6.22-4.762 2.802 0 5.273 1.79 6.12 4.44-.752-.004-1.312.268-1.345.282-.11.046-.165.174-.118.286.045.11.173.165.284.12.008-.005.78-.31 1.655-.166 2.44.527 4.197 2.685 4.197 5.198 0 .213-.015.432-.046.664z"/></svg>