<svg xmlns="http://www.w3.org/2000/svg" width="32" height="32" viewBox="0 0 32 32"><path d="M12.14 21.096H5.11c-.176 0-.32-.143-.32-.318v-1.91c0-.175.144-.318.32-.318h7.03c.175 0 .318.143.318.318v1.91c0 .175-.143.318-.318.318zm-6.89-.46h6.748V19.01H5.25v1.626zm6.89 3.64H5.107c-.175 0-.318-.144-.318-.32v-1.905c0-.174.143-.317.318-.317h7.03c.176 0 .32.143.32.318v1.907c0 .175-.143.318-.32.318zm-6.89-.46h6.748V22.19H5.25v1.622zm6.89-9.16H5.11c-.176 0-.32-.142-.32-.317v-1.833c0-.175.144-.318.32-.318h7.03c.175 0 .318.142.318.317v1.832c0 .175-.143.317-.318.317zm-6.89-.46h6.748V12.65H5.25v1.55zm6.89 3.717H5.107c-.175 0-.318-.143-.318-.318v-1.983c0-.175.143-.318.318-.318h7.03c.176 0 .32.143.32.318v1.983c0 .176-.143.318-.32.318zm-6.89-.46h6.748v-1.7H5.25v1.7zm4.51-3.875c.085 0 .153-.07.153-.153s-.07-.153-.153-.153H7.39c-.086 0-.154.07-.154.153s.07.153.153.153h2.37zm0 3.2c.085 0 .153-.068.153-.152s-.07-.153-.153-.153H7.39c-.086 0-.154.07-.154.153s.07.153.153.153h2.37zm.034 3.247c.085 0 .153-.07.153-.153s-.07-.153-.153-.153h-2.37c-.086 0-.154.068-.154.152s.07.153.153.153h2.37zm0 3.18c.085 0 .153-.07.153-.154s-.07-.152-.153-.152h-2.37c-.086 0-.154.07-.154.153s.07.154.153.154h2.37zm2.998 2.574H4.22c-.413 0-.75-.337-.75-.75V13.017c0-.073-.06-.135-.134-.135H3.16c-.413 0-.75-.335-.75-.747V10.14c0-.41.337-.747.75-.747h25.668c.412 0 .748.336.748.748v1.993c0 .412-.336.748-.748.748h-.14c-.072 0-.133.063-.133.136v11.977c0 .413-.336.748-.748.748h-1.35c-.412 0-.747-.335-.747-.747V13.016c0-.073-.062-.135-.135-.135H13.673c-.073 0-.135.063-.135.136V25.03c0 .414-.335.75-.748.75zM3.16 10.006c-.073 0-.135.062-.135.135v1.992c0 .073.062.135.135.135h.176c.412 0 .748.335.748.747v12.015c0 .073.062.135.135.135h8.572c.073 0 .135-.062.135-.135V13.017c0-.412.336-.748.748-.748h11.9c.414 0 .75.335.75.747v11.977c0 .073.06.135.134.135h1.348c.073 0 .134-.063.134-.136V13.017c0-.412.336-.748.748-.748h.14c.072 0 .133-.063.133-.136v-1.992c0-.073-.062-.135-.134-.135H3.16z"/></svg>