<svg data-name="lifecycle" xmlns="http://www.w3.org/2000/svg" viewBox="0 0 36 36"><title>Icon-Red_Hat-Diagrams-Lifecycle-A-Black-RGB</title><path d="M17.94 8.31a9.24 9.24 0 0 1 6.64 2.84l-2.14-.1a.75.75 0 0 0-.79.72.76.76 0 0 0 .72.78l3.82.17a.74.74 0 0 0 .25-.05H26.61l.11-.11.08-.11s0-.09.05-.13a.7.7 0 0 0 0-.14A.14.14 0 0 0 27 12l.17-3.82a.74.74 0 0 0-.72-.78.75.75 0 0 0-.78.71L25.56 10a10.71 10.71 0 0 0-7.62-3.2 11.23 11.23 0 0 0-2.32.27 3.24 3.24 0 0 0-2.69-1.43 3.25 3.25 0 0 0-2.3 5.55 3.21 3.21 0 0 0 2.3 1 3.24 3.24 0 0 0 3.25-3.29 2.58 2.58 0 0 0 0-.39 9 9 0 0 1 1.76-.2zm-3.77 1.83a1.74 1.74 0 0 1-1.24.51 1.75 1.75 0 0 1 0-3.5 1.76 1.76 0 0 1 1.75 1.75 1.74 1.74 0 0 1-.51 1.24zm13.77 4.17a3.25 3.25 0 0 0-1.27 6.24 9.09 9.09 0 0 1-.67 1.63 9.21 9.21 0 0 1-5.78 4.34l1.16-1.81a.74.74 0 0 0-.23-1 .76.76 0 0 0-1 .23L18 27.13v.09a.5.5 0 0 0 0 .13.47.47 0 0 0 0 .16v.13a.57.57 0 0 0 0 .14.5.5 0 0 0 0 .13l.08.11.11.11h.05l3.23 2.06a.72.72 0 0 0 .4.12.78.78 0 0 0 .63-.31.76.76 0 0 0-.23-1l-1.61-1a10.71 10.71 0 0 0 6.59-5 11.23 11.23 0 0 0 .92-2.14 3.24 3.24 0 0 0-.23-6.48zm0 5a1.75 1.75 0 1 1 1.75-1.75 1.75 1.75 0 0 1-1.75 1.75zm-14.17 3.77a3.2 3.2 0 0 0-2.46.32 3.88 3.88 0 0 0-.33.23 9.44 9.44 0 0 1-1.08-1.49A9.19 9.19 0 0 1 9.07 15l1 1.9a.75.75 0 0 0 .67.41.71.71 0 0 0 .34-.08.75.75 0 0 0 .32-1l-1.76-3.45-.05-.06a.4.4 0 0 0-.1-.12l-.12-.1-.07-.05h-.62L5.22 14.2a.75.75 0 0 0 .69 1.34l1.69-.87a10.69 10.69 0 0 0 1 8.21 10.25 10.25 0 0 0 1.4 1.91 3.25 3.25 0 0 0 2.92 4.68 3.19 3.19 0 0 0 1.63-.47 3.24 3.24 0 0 0 1.19-4.44 3.19 3.19 0 0 0-1.97-1.48zm.85 3.59a1.71 1.71 0 0 1-.82 1.06 1.74 1.74 0 1 1 .82-1.06z"/></svg>