<svg xmlns="http://www.w3.org/2000/svg" viewBox="0 0 36 36"><title>Icon-Red_Hat-People_and_audiences-Developer-A-Black-RGB</title><path d="M33 27.25H3a.75.75 0 0 0 0 1.5h30a.75.75 0 0 0 0-1.5zM6 25.73h24a.75.75 0 0 0 .75-.75V9a.76.76 0 0 0-.75-.77h-9a.75.75 0 0 0 0 1.5h8.25v14.5H6.75V9.73H15a.75.75 0 0 0 0-1.5H6a.76.76 0 0 0-.75.77v16a.75.75 0 0 0 .75.73z"/><path d="M17.47 9.51a.75.75 0 0 0 1.06 0 .78.78 0 0 0 .16-.24.73.73 0 0 0 0-.58.75.75 0 0 0-1.22-.24.63.63 0 0 0-.16.24.73.73 0 0 0 0 .58.63.63 0 0 0 .16.24zM17 21.75h.16a.75.75 0 0 0 .73-.6l1.71-8a.75.75 0 1 0-1.47-.31l-1.7 8a.75.75 0 0 0 .57.91zM20.82 21a.71.71 0 0 0 .53.22.74.74 0 0 0 .53-.22l3.51-3.52a.74.74 0 0 0 0-1.06l-3.51-3.52a.75.75 0 0 0-1.06 0 .74.74 0 0 0 0 1.06l3 3-3 3a.74.74 0 0 0 0 1.04zM15.18 12.94a.75.75 0 0 0-1.06 0l-3.51 3.52a.74.74 0 0 0 0 1.06L14.12 21a.74.74 0 0 0 .53.22.71.71 0 0 0 .53-.22.74.74 0 0 0 0-1.06l-3-3 3-3a.74.74 0 0 0 0-1z"/></svg>