<svg xmlns="http://www.w3.org/2000/svg" width="61.538" height="32.167" viewBox="0 0 61.538 32.167"><path d="M57.98 3.882v24.574c0 .388-.316.702-.704.702H4.096c-.388 0-.703-.314-.703-.702V3.882c0-.39.314-.703.703-.703h53.18c.387 0 .703.314.703.702zm-1.407.703H4.8V26.82h51.773V4.585z"/><path d="M10.252 25.05c.194 0 .35-.158.35-.353v-18c0-.194-.156-.352-.35-.352s-.352.16-.352.353v18c0 .194.158.35.352.35zM17.05 25.05c.194 0 .35-.158.35-.353v-18c0-.194-.156-.352-.35-.352s-.352.157-.352.352v18c0 .195.157.352.352.352zM23.868 25.05c.194 0 .352-.158.352-.353v-18c0-.194-.157-.352-.352-.352-.194 0-.35.157-.35.352v18c0 .195.156.352.35.352zM30.686 25.17c.194 0 .35-.156.35-.35v-18c0-.195-.156-.353-.35-.353s-.352.157-.352.352v18c0 .194.158.35.352.35zM37.504 25.05c.193 0 .352-.158.352-.353v-18c0-.194-.158-.352-.352-.352-.195 0-.352.157-.352.352v18c0 .195.157.352.352.352zM44.323 25.05c.193 0 .35-.158.35-.353v-18c0-.194-.156-.352-.35-.352-.195 0-.352.157-.352.352v18c.002.195.158.352.353.352zM51.14 25.05c.195 0 .352-.158.352-.353v-18c0-.194-.156-.352-.35-.352-.194 0-.353.157-.353.352v18c0 .195.157.352.35.352z"/></svg>