<svg data-name="Layer 1" xmlns="http://www.w3.org/2000/svg" width="36" height="36" viewBox="0 0 36 36"><title>Icon-Red_Hat-Hardware-Virtual_Server_Stack_Unsecured-A-Black-RGB</title><path d="M9.45 17.25h3a.75.75 0 0 0 0-1.5h-3a.75.75 0 0 0 0 1.5zM27.75 6a.76.76 0 0 0-.75-.75H7a.76.76 0 0 0-.75.75v5a.76.76 0 0 0 .75.75h20a.76.76 0 0 0 .75-.75zm-1.5 4.25H7.75v-3.5h18.5zm.75 3H7a.76.76 0 0 0-.75.75v5a.76.76 0 0 0 .75.75h20a.76.76 0 0 0 .75-.75v-5a.76.76 0 0 0-.75-.75zm-.75 5H7.75v-3.5h18.5zM24 17.19a.72.72 0 0 0 .29.06.77.77 0 0 0 .53-.22.74.74 0 0 0 .16-.82 1 1 0 0 0-.16-.24.76.76 0 0 0-.82-.16.67.67 0 0 0-.24.16.81.81 0 0 0-.17.24.73.73 0 0 0 .17.82.56.56 0 0 0 .24.16zM19.6 3.75a.75.75 0 1 0-.75-.75.75.75 0 0 0 .75.75zm-5.2 0a.75.75 0 1 0-.75-.75.75.75 0 0 0 .75.75zm2.6 0a.75.75 0 1 0-.75-.75.75.75 0 0 0 .75.75zm5.2 0a.75.75 0 1 0-.75-.75.75.75 0 0 0 .75.75zm2.6 0a.75.75 0 1 0-.75-.75.75.75 0 0 0 .75.75zm-13 0a.75.75 0 1 0-.75-.75.75.75 0 0 0 .75.75zM30 6.37a.75.75 0 1 0-.75-.74.75.75 0 0 0 .75.74zm0 10.51a.76.76 0 1 0-.75-.76.76.76 0 0 0 .75.76zm0-5.25a.76.76 0 1 0-.75-.75.76.76 0 0 0 .75.75zm0 2.62a.75.75 0 1 0-.75-.75.76.76 0 0 0 .75.75zM30 9a.75.75 0 1 0-.75-.75A.76.76 0 0 0 30 9zm-20.55.25h3a.75.75 0 0 0 0-1.5h-3a.75.75 0 0 0 0 1.5zm-.25-5.5A.75.75 0 1 0 8.45 3a.75.75 0 0 0 .75.75zm20.51-.06a.73.73 0 0 0 .58 0 .78.78 0 0 0 .24-.16.75.75 0 0 0-.82-1.22.78.78 0 0 0-.24.16.75.75 0 0 0 0 1.06.78.78 0 0 0 .24.16zM24 9.19a.72.72 0 0 0 .29.06.77.77 0 0 0 .54-.25.75.75 0 0 0-.83-1.19.67.67 0 0 0-.24.16.73.73 0 0 0 0 1.06.67.67 0 0 0 .24.16zm6 10.31a.75.75 0 1 0-.75-.75.76.76 0 0 0 .75.75zM27.4 3.75a.75.75 0 1 0-.75-.75.75.75 0 0 0 .75.75zm2.31 20.94a.75.75 0 0 0 .29.06.72.72 0 0 0 .29-.06.78.78 0 0 0 .24-.16.75.75 0 0 0 0-1.06.78.78 0 0 0-.24-.16.75.75 0 0 0-.82 1.22.78.78 0 0 0 .24.16zm.29-2.57a.75.75 0 1 0-.75-.75.75.75 0 0 0 .75.75zm-26-7.6a.75.75 0 1 0 .75.75.76.76 0 0 0-.75-.75zm19.71 14.79a.78.78 0 0 0-.24.16.75.75 0 0 0 .53 1.28.72.72 0 0 0 .29-.06.63.63 0 0 0 .24-.16.75.75 0 0 0-.82-1.22zm-7.21-.06a.75.75 0 0 0 0 1.5.75.75 0 0 0 0-1.5zm5 0a.75.75 0 1 0 .75.75.75.75 0 0 0-.75-.75zm-2.5 0a.75.75 0 1 0 .75.75.75.75 0 0 0-.75-.75zm-5 0a.75.75 0 1 0 .75.75.75.75 0 0 0-.75-.75zm-5 0a.75.75 0 0 0 0 1.5.75.75 0 0 0 0-1.5zm2.5 0a.75.75 0 0 0 0 1.5.75.75 0 0 0 0-1.5zm14.77 1.38A3.75 3.75 0 0 0 30 34.38a3.49 3.49 0 0 0 1.08-.18l-4.83-4.84zM24 26.25H7.75v-3.5h18.5V24a.75.75 0 0 0 1.5 0v-2a.76.76 0 0 0-.75-.75H7a.76.76 0 0 0-.75.75v5a.76.76 0 0 0 .75.75h17a.75.75 0 0 0 0-1.5zm10.25 6.84l-.86-.86a3.73 3.73 0 0 0 .38-1.6v-3a.75.75 0 0 0-.52-.71l-3-1a.76.76 0 0 0-.47 0l-2 .67-.78-.75a.75.75 0 0 0-1.06 0 .74.74 0 0 0 0 1.06l6.53 6.54.72.71a.73.73 0 0 0 .53.22.74.74 0 0 0 .53-.22.75.75 0 0 0 0-1.06zm-24.8-9.34a.75.75 0 0 0 0 1.5h3a.75.75 0 1 0 0-1.5zm14.55.06a.67.67 0 0 0-.24.16.76.76 0 0 0-.23.53.72.72 0 0 0 .06.29.66.66 0 0 0 .17.24.56.56 0 0 0 .24.16.72.72 0 0 0 .29.06.75.75 0 0 0 .53-.22.78.78 0 0 0 .16-.24.72.72 0 0 0 .06-.29.75.75 0 0 0-1-.69zm-20 .53a.75.75 0 1 0 .75.75.76.76 0 0 0-.75-.75zM4 17a.75.75 0 1 0 .75.75A.75.75 0 0 0 4 17zm0 4.91a.75.75 0 1 0 .75.75.75.75 0 0 0-.75-.77zm0-2.46a.75.75 0 1 0 .75.75.76.76 0 0 0-.75-.77zm2.6-15.7A.75.75 0 1 0 5.85 3a.75.75 0 0 0 .75.75zM4 26.8a.75.75 0 1 0 .75.75.75.75 0 0 0-.75-.75zm.53 2.67a.78.78 0 0 0-.24-.16.75.75 0 0 0-.82.16.78.78 0 0 0-.16.24.75.75 0 1 0 1.38 0 .78.78 0 0 0-.16-.24zM4 7.16a.75.75 0 1 0 .75.75.76.76 0 0 0-.75-.75zm-.29-4.85a.78.78 0 0 0-.24.16.74.74 0 0 0-.16.82.78.78 0 0 0 .16.24.74.74 0 0 0 .82.16.63.63 0 0 0 .24-.16.78.78 0 0 0 .16-.24.75.75 0 0 0-1-1zM4 12.07a.75.75 0 1 0 .75.75.75.75 0 0 0-.75-.75zm0-7.36a.75.75 0 0 0-.75.74.75.75 0 1 0 1.5 0A.75.75 0 0 0 4 4.71zm0 4.9a.75.75 0 1 0 .75.75.76.76 0 0 0-.75-.75zm2.5 19.64a.75.75 0 1 0 .75.75.75.75 0 0 0-.75-.75z"/></svg>