<svg xmlns="http://www.w3.org/2000/svg" width="32" height="32" viewBox="0 0 32 32"><path d="M27.952 13.288c-.037-.11-.132-.192-.248-.21l-7.897-1.147-3.53-7.156c-.052-.105-.16-.17-.276-.17s-.222.065-.274.17l-3.533 7.157-7.898 1.15c-.116.016-.21.097-.247.208-.037.11-.006.233.077.314l5.715 5.57-1.35 7.866c-.02.115.028.23.123.3.095.068.22.077.323.022L16 23.647l7.064 3.713c.044.024.093.036.142.036.063 0 .127-.02.18-.06.094-.068.14-.183.122-.298l-1.35-7.866 5.716-5.57c.083-.082.113-.203.077-.314zm-6.336 5.558c-.072.07-.105.172-.088.272l1.27 7.41-6.655-3.498c-.09-.047-.197-.047-.286 0L9.2 26.53l1.272-7.412c.017-.1-.016-.2-.09-.272L5 13.596l7.442-1.08c.1-.016.186-.078.23-.17L16 5.604l3.328 6.744c.044.09.13.153.23.168L27 13.595l-5.385 5.25zm-4.975 3.817c-.04.075-.01.168.066.207l5.126 2.694c.023.012.046.018.07.018.056 0 .11-.03.136-.082.04-.074.01-.168-.064-.207L16.848 22.6c-.074-.04-.167-.012-.207.063zm-.537-15.775c-.076-.038-.168-.006-.205.07l-2.45 4.962c-.037.076-.005.168.07.205.023.01.046.016.07.016.056 0 .11-.03.137-.085l2.448-4.962c.038-.076.006-.168-.07-.205zm-9.375 7.358c-.06-.058-.158-.058-.217.003s-.057.157.004.216l4.49 4.375-.675 3.925c-.015.083.04.163.124.177.01.002.018.002.026.002.073 0 .138-.053.15-.127l.687-4.004c.008-.05-.008-.1-.044-.136l-4.546-4.432z"/></svg>