<svg xmlns="http://www.w3.org/2000/svg" viewBox="0 0 31.68 31.68"><path d="M14.36 20.89c-.09-.1-.25-.11-.35-.01-.1.09-.11.25-.01.35l.06.06c.05.05.11.08.18.08.06 0 .12-.02.17-.07.1-.09.1-.25.01-.35l-.06-.06zM13.37 11.22l-.05.07c-.08.11-.05.27.06.34.04.03.09.04.14.04.08 0 .15-.04.2-.11l.04-.06c.08-.11.05-.26-.06-.34s-.25-.05-.33.06zM13.72 20.1c-.08-.11-.23-.14-.34-.06-.11.08-.14.23-.06.34l.05.07c.05.07.12.1.2.1.05 0 .1-.02.15-.05.11-.08.13-.23.05-.34l-.05-.06zM19.14 14.29l.02.08c.02.12.13.2.24.2h.05c.13-.03.22-.16.19-.29l-.02-.08c-.03-.13-.16-.22-.29-.19-.14.02-.22.15-.19.28zM14.06 10.39l-.06.06c-.09.1-.09.26.01.35.05.04.11.07.17.07.07 0 .13-.03.18-.08l.05-.06c.09-.1.09-.26-.01-.35-.09-.09-.25-.09-.34.01zM15.1 21.58c-.11-.09-.26-.07-.35.04-.09.11-.07.26.04.35l.06.05c.05.04.1.05.15.05.07 0 .14-.03.19-.09.09-.11.07-.26-.04-.35l-.05-.05zM13.13 12.04c-.12-.06-.27-.02-.33.1l-.04.07c-.06.12-.02.27.11.33.04.02.08.03.11.03.09 0 .18-.05.22-.13l.04-.07c.06-.11.01-.26-.11-.33zM12.24 14.55h.05c.11 0 .22-.08.24-.2l.02-.08c.03-.13-.06-.26-.19-.29-.13-.03-.26.06-.29.19l-.02.08c-.03.14.05.27.19.3zM12.48 13.53c.03.01.06.01.08.01.1 0 .2-.06.23-.16l.03-.07c.05-.13-.02-.27-.15-.32-.13-.05-.27.02-.32.15l-.03.08c-.03.12.03.26.16.31zM12.54 17.39l-.02-.08c-.03-.13-.16-.22-.29-.19-.13.03-.22.16-.19.29l.02.08c.03.12.13.19.24.19.02 0 .03 0 .05-.01.14-.02.22-.15.19-.28zM19.51 15.04c-.14.01-.24.13-.23.27l.01.08c.01.14.12.24.26.23.14-.01.24-.12.23-.26l-.01-.09c-.01-.13-.12-.23-.25-.23h-.01zM12.82 18.36l-.03-.07c-.05-.13-.19-.19-.31-.15-.13.05-.2.19-.15.32l.03.08c.04.1.13.16.23.16.03 0 .06 0 .08-.01.13-.06.2-.2.15-.33zM13.19 19.22c-.06-.12-.21-.17-.33-.11-.12.06-.17.21-.11.33l.04.08c.04.08.13.13.22.13.04 0 .08-.01.12-.03.12-.06.17-.21.1-.33l-.04-.07zM14.86 9.65l-.07.05c-.11.09-.12.24-.04.35.05.06.12.09.19.09.05 0 .11-.02.16-.06l.06-.05c.11-.08.12-.24.04-.35-.08-.09-.24-.11-.34-.03zM19.2 18.15c-.13-.05-.27.02-.31.15l-.03.07c-.05.13.02.27.15.32.03.01.06.01.08.01.1 0 .2-.06.23-.16l.03-.08c.04-.12-.02-.26-.15-.31zM18.81 19.13c-.12-.06-.27-.02-.33.11l-.04.07c-.06.12-.02.27.1.33.04.02.08.03.11.03.09 0 .17-.05.22-.13l.04-.07c.07-.13.02-.28-.1-.34zM19.44 17.13c-.13-.03-.26.06-.29.19l-.02.08c-.03.13.06.26.19.29.02 0 .03.01.05.01.11 0 .22-.08.24-.2l.02-.08c.03-.13-.05-.26-.19-.29z"/><path d="M19.81 7.83c-1.4 0-2.77.36-3.97 1.05-1.2-.69-2.57-1.05-3.97-1.05-2.14 0-4.15.83-5.66 2.35-1.51 1.51-2.34 3.52-2.34 5.66s.83 4.15 2.35 5.66c1.51 1.51 3.52 2.34 5.66 2.34 1.4 0 2.76-.36 3.97-1.05 1.2.69 2.57 1.05 3.97 1.05 2.14 0 4.15-.83 5.66-2.35 1.51-1.51 2.34-3.52 2.34-5.66 0-4.41-3.6-8-8.01-8zm5.2 13.2c-1.39 1.39-3.23 2.15-5.2 2.15-1.34 0-2.66-.37-3.8-1.06l-.17-.1-.17.1c-1.14.69-2.46 1.06-3.8 1.06-1.96 0-3.81-.76-5.19-2.15-1.39-1.39-2.15-3.23-2.15-5.2 0-1.96.76-3.81 2.15-5.2s3.23-2.15 5.2-2.15c1.34 0 2.66.37 3.8 1.06l.17.1.17-.1c1.14-.69 2.46-1.06 3.8-1.06 4.05 0 7.35 3.3 7.35 7.35-.01 1.97-.78 3.82-2.16 5.2z"/><path d="M18.32 11.23c-.08-.11-.23-.13-.34-.05-.11.08-.13.23-.05.34l.04.06c.05.07.12.11.2.11.05 0 .1-.01.14-.04.11-.08.14-.23.06-.34l-.05-.08zM12.17 16.64c.14-.01.24-.13.23-.27l-.01-.08c-.01-.13-.12-.23-.25-.23h-.01c-.14.01-.24.12-.23.26l.01.09c.01.14.13.24.26.23zM12.15 15.04c-.13 0-.24.1-.25.23l-.01.09c-.01.14.1.25.23.26.14.01.25-.1.26-.23l.01-.08c.01-.14-.09-.25-.23-.27h-.01zM19.77 16.42l.01-.09c.01-.14-.1-.25-.23-.26h-.01c-.13 0-.24.1-.25.23l-.01.08c-.01.14.09.25.23.27.13 0 .25-.1.26-.23zM16.83 9.66c-.11-.09-.26-.07-.35.04-.09.11-.07.26.04.35l.06.05c.05.04.1.06.16.06.07 0 .14-.03.19-.09.09-.11.07-.27-.03-.35l-.07-.06zM18.86 13.32l.03.07c.04.1.13.17.23.17.03 0 .05 0 .08-.01.13-.04.2-.19.15-.31l-.03-.08c-.05-.13-.19-.19-.32-.15s-.19.18-.14.31zM16.58 21.59l-.06.05c-.11.09-.12.24-.04.35.05.06.12.09.19.09.05 0 .11-.02.15-.05l.06-.05c.11-.09.12-.24.04-.35-.08-.11-.24-.13-.34-.04zM17.95 20.11l-.04.06c-.08.11-.05.26.06.34.04.03.09.05.14.05.08 0 .15-.04.2-.1l.05-.07c.08-.11.05-.27-.06-.34-.11-.08-.27-.06-.35.06zM18.49 12.46c.04.09.13.13.22.13.04 0 .08-.01.11-.03.12-.06.17-.21.11-.33l-.04-.08c-.06-.12-.21-.17-.33-.1-.12.06-.17.21-.1.33l.03.08zM17.63 10.4c-.09-.1-.25-.1-.35-.01-.1.09-.1.25-.01.35l.05.06c.05.05.12.08.18.08s.12-.02.17-.07c.1-.09.11-.25.01-.35l-.05-.06zM17.32 20.9l-.05.06c-.09.1-.09.26.01.35.05.04.11.07.17.07.07 0 .13-.03.18-.08l.06-.06c.09-.1.09-.26-.01-.35-.12-.1-.27-.09-.36.01z"/></svg>