<svg xmlns="http://www.w3.org/2000/svg" viewBox="0 0 36 36"><title>Icon-Red_Hat-Hourglass-A-Black-RGB</title><path d="M25 27.25h-1.25V23a3.84 3.84 0 0 0-1.89-3.78l-.1-.07L19.6 18l2.16-1.15a.21.21 0 0 0 .1-.06A3.84 3.84 0 0 0 23.75 13V8.75H25a.75.75 0 0 0 0-1.5H11a.75.75 0 0 0 0 1.5h1.25V13a3.84 3.84 0 0 0 1.89 3.78.21.21 0 0 0 .1.06L16.4 18l-2.16 1.14-.1.07A3.84 3.84 0 0 0 12.25 23v4.26H11a.75.75 0 0 0 0 1.5h14a.75.75 0 0 0 0-1.5zM13.75 8.75h8.5v2.5h-8.5zM15 15.56A2.43 2.43 0 0 1 13.75 13v-.26h8.5V13A2.43 2.43 0 0 1 21 15.56l-3 1.59zm7.26 11.69h-8.5V23A2.43 2.43 0 0 1 15 20.44l3-1.59 3 1.59A2.43 2.43 0 0 1 22.25 23z"/><path d="M18.29 21.31a.75.75 0 0 0-1 .69.72.72 0 0 0 .06.29.63.63 0 0 0 .16.24.74.74 0 0 0 .82.16.63.63 0 0 0 .24-.16.78.78 0 0 0 .16-.24.72.72 0 0 0 .06-.29.75.75 0 0 0-.22-.53.78.78 0 0 0-.28-.16z"/></svg>