<svg xmlns="http://www.w3.org/2000/svg" viewBox="0 0 32 32"><path d="M17.26 19.97c-.13 0-.23.1-.23.23v3.91c0 .13.1.23.23.23s.23-.1.23-.23V20.2c0-.13-.1-.23-.23-.23zm-1.31-9.09h-1.07c-.13 0-.23.1-.23.23v3.91c0 .13.1.23.23.23s.23-.1.23-.23v-3.68h.84c.13 0 .23-.1.23-.23s-.1-.23-.23-.23zm6.7-3.13c-.05-.08-.15-.13-.25-.13h-2.99c-.03-.57-.18-.98-.35-1.27.08-.14.11-.32.07-.52-.04-.24-.17-.48-.36-.68-.41-.43-1.01-.55-1.32-.26-.16.15-.22.39-.17.65.04.24.17.48.36.68.25.27.58.43.87.43.09 0 .18-.02.25-.05.12.24.24.57.26 1.01H9.6c-.1 0-.19.05-.25.13-.06.09-.07.2-.04.29l1.04 2.82c.04.12.16.2.29.2h2.94v12.78h-1.09c-.15 0-.29.12-.3.27l-.34 2.82c-.01.09.02.17.07.24.06.07.14.1.23.1h7.69c.09 0 .17-.04.23-.1.06-.07.09-.15.08-.24l-.34-2.82c-.02-.15-.15-.27-.3-.27h-1.09V11.05h2.94c.13 0 .24-.08.29-.2l1.04-2.82c.03-.09.02-.2-.04-.28zm-4.09-1.98c-.09-.06-.21-.03-.26.06-.06.09-.03.21.05.26.01.01.09.06.18.17-.18.01-.43-.11-.61-.3-.14-.15-.24-.32-.27-.48-.01-.08-.03-.22.06-.3.04-.04.1-.06.18-.06.19 0 .41.12.59.31.14.15.24.32.27.48v.04c-.1-.11-.18-.17-.19-.18zm.68 18.67l.26 2.21h-7l.26-2.21h.82v.99c0 .17.14.31.31.31h4.22c.17 0 .31-.14.31-.31v-.99h.82zm-5.04.68V10.44h3.61v14.68H14.2zm6.95-14.68h-2.73v-.31c0-.17-.14-.31-.31-.31h-4.22c-.17 0-.31.14-.31.31v.31h-2.73l-.81-2.2h11.92l-.81 2.2z"/></svg>