<svg xmlns="http://www.w3.org/2000/svg" viewBox="0 0 32 32"><path d="M23.67 9.32l-3.64-3.75c-.06-.06-.14-.09-.22-.09H8.55c-.17 0-.31.14-.31.31v20.43c0 .17.14.31.31.31h14.9c.17 0 .31-.14.31-.31V9.53c-.01-.08-.04-.15-.09-.21zm-3.55-2.78l2.77 2.85h-2.77V6.54zm3.02 19.37H8.86V6.09h10.65v3.48c0 .02.01.04.01.07 0 .02-.01.04-.01.07 0 .17.14.31.31.31h3.33l-.01 15.89zm-4.08-10.74c-.01-.03-.04-.05-.07-.06s-.06 0-.09.01l-1.58.93c-.05.03-.07.1-.04.16l.83 1.48h-.89v-.35c0-.06 0-.11-.07-.16-.06-.04-.14-.03-.21.02l-.03.03-.91 1.3c-.03.04-.03.09 0 .13l.91 1.31.03.03c.04.03.08.04.12.04.03 0 .06-.01.09-.03.07-.05.07-.1.07-.16v-.35h.65c.69 0 .92-.39.93-.41l.82-1.58c.33-.72.05-1.22.04-1.24l-.6-1.1zm-.47 3.82s-.18.29-.72.29h-.77c-.03 0-.06.01-.08.03-.02.02-.03.05-.03.08v.29l-.75-1.08.75-1.08v.29c0 .03.01.06.03.08.02.02.05.03.08.03h1.6c.07 0 .28-.01.49-.08l-.6 1.15zm.82-1.58c-.12.22-.52.28-.72.28h-.32l-.83-1.49 1.38-.81.54 1c.01.01.22.42-.05 1.02zm-4.02.07h-1.71l.47-.81.31.19c.03.02.06.04.1.04.03 0 .06-.01.07-.02.07-.03.1-.1.09-.19 0-.01-.01-.03-.01-.04l-.67-1.45c-.02-.04-.07-.07-.11-.07l-1.59.12c-.01 0-.02 0-.04.01-.08.03-.12.1-.12.17.01.09.05.11.1.14l.3.17-.33.57c-.09.15-.15.31-.18.46v.02c-.05.32.16.68.17.7l.84 1.34c.45.65 1.03.66 1.05.66l1.25.04c.03 0 .06-.01.08-.03.02-.02.03-.05.03-.08v-1.83c.02-.06-.04-.11-.1-.11zm-3.08-.68c.02-.12.07-.25.15-.38l.39-.67c.02-.03.02-.06.01-.09s-.03-.06-.06-.07l-.24-.14 1.31-.1.55 1.19-.25-.15c-.03-.02-.06-.02-.09-.01s-.06.03-.07.05l-.6 1.03c-.17 0-.6-.02-.87-.22-.16-.09-.23-.24-.23-.44zm2.97 2.5l-1.13-.04c-.02 0-.49-.02-.86-.56l-.73-1.17c.01 0 .01 0 .02.01.06.03.13.06.2.08.01 0 .02.01.02.01.07.02.14.03.21.05.01 0 .03 0 .04.01.06.01.13.02.19.02h.03c.06 0 .11.01.16.01h1.87l-.02 1.58zm-1.87-4.99l1.56.97c.02.01.04.02.06.02.04 0 .07-.02.1-.05l.92-1.41.4.78-.3.16c-.05.02-.1.05-.11.14-.01.07.03.14.11.18.01.01.02.01.04.01l1.59.2h.01c.04 0 .08-.02.1-.06l.74-1.41c.01-.01.01-.02.01-.03.01-.09-.02-.16-.08-.19-.01-.01-.04-.02-.08-.02s-.06.01-.1.03l-.33.17-.29-.58c-.32-.61-.77-.63-.79-.63h-1.79c-.79.04-1.11.52-1.12.54l-.7 1.04c-.02.03-.02.06-.02.09s.04.03.07.05zm3.56-1.51c.01 0 .34.02.59.51l.34.68c.01.03.04.05.07.06.03.01.06.01.09-.01l.28-.14-.62 1.17-1.31-.17.25-.13c.06-.03.08-.1.05-.15l-.53-1.04c0-.02-.01-.03-.02-.04l-.16-.32c-.01-.02-.12-.23-.3-.41l1.27-.01zm-2.71.43c.01-.02.27-.4.94-.44.27 0 .51.37.58.51l.15.28-.94 1.43-1.36-.84.63-.94z"/></svg>