<svg xmlns="http://www.w3.org/2000/svg" viewBox="0 0 32 32"><path d="M25.68 7.01c-7.31-1.71-9.11-1.89-9.55-1.89-.05 0-.09 0-.13.01-.04-.01-.08-.01-.13-.01-.44 0-2.25.18-9.55 1.89-.14.03-.24.16-.24.3v10.11c0 .09.35 8.77 9.86 10.46h.09c9.77-1.2 9.88-10.38 9.88-10.47V7.31c.01-.14-.09-.27-.23-.3zm-.38 10.4c0 .09-.11 8.7-9.29 9.86-8.97-1.61-9.3-9.53-9.31-9.86V7.55c7.69-1.79 9.04-1.84 9.22-1.82.05.02.11.01.17 0 .18-.01 1.54.03 9.22 1.82l-.01 9.86zm-9.78-8.97c-.71.08-2.65.39-7.7 1.56-.11.02-.18.12-.18.22v7.17c.03.74.51 7.29 8.32 8.78h.07c5.43-.75 7.32-4.25 7.98-6.6.33-1.18.35-2.07.35-2.17v-5.04s0-.01.01-.01h-.01v-2.13c0-.11-.07-.2-.18-.22-5.06-1.17-6.99-1.48-7.72-1.56h-.94zm8.38 5.19v3.78s-.09 2.29-1.1 3.96l-.32.53s-.61.93-1.23 1.48l-.43.37c-1.14.92-2.69 1.67-4.82 1.97-1.5-.29-2.7-.78-3.69-1.37 6.49-4.56 10.14-9.21 11.58-11.29l.01.57zm-2.06-3.69c.62.14 1.31.29 2.06.47v1.53l-.06.11c-.96 1.5-4.67 6.8-12.07 11.94-.09-.07-.19-.13-.28-.2l-.49-.4c-.46-.41-.85-.85-1.18-1.29l-.31-.45c7.14-5 10.94-10.19 12-11.78l.33.07zm-.97-.21c-1.21 1.77-4.92 6.66-11.67 11.4-.97-1.76-1.09-3.41-1.1-3.74l.01-2.92v-.72l-.01-3.34 1.99-.45s4.93-1 5.45-1.06h.89c.52.06 1.74.25 4.44.83z"/></svg>