<svg xmlns="http://www.w3.org/2000/svg" viewBox="0 0 36 36"><path d="M16.256 27.2c-.414 0-.75-.338-.748-.752 0-.37.27-.682.634-.74.458-.07.91-.172 1.352-.314.394-.127.818.082.948.475.13.392-.074.82-.475.947-.216.068-.705.236-1.594.374-.04.007-.078.01-.117.01zM11.575 26.813c-.08 0-.16-.013-.236-.038-.968-.324-1.88-.787-2.726-1.356-.344-.232-.443-.693-.216-1.04.227-.346.692-.442 1.038-.215l.03.02c.716.508 1.51.894 2.344 1.168.393.13.608.55.48.944-.1.308-.39.515-.715.516zM5.91 22.056c-.275 0-.53-.152-.66-.395-.484-.898-.84-1.86-1.05-2.86-.086-.405.173-.804.578-.89.405-.085.804.174.89.58.18.857.482 1.686.9 2.457.197.364.063.818-.3 1.016-.11.06-.232.092-.357.093zm-.848-7.347c-.068 0-.135-.01-.2-.027-.4-.11-.636-.52-.53-.92.266-.985.658-1.935 1.2-2.8.222-.35.69-.446 1.038-.22.334.216.446.66.243 1.002-.447.753-.812 1.553-1.035 2.4-.086.328-.377.56-.716.564zm19.146-.554c-.323 0-.61-.207-.712-.513-.278-.832-.67-1.62-1.17-2.34-.237-.34-.153-.808.187-1.044s.808-.153 1.044.187c.582.838 1.042 1.755 1.363 2.723.13.393-.083.816-.475.948-.076.026-.156.038-.237.038zM9.495 8.788c-.414-.002-.75-.335-.75-.75 0-.26.133-.5.355-.638.87-.536 1.814-.942 2.8-1.21.4-.11.812.127.92.527.11.4-.126.812-.526.92-.845.23-1.652.584-2.4 1.04-.12.074-.258.112-.4.11zM19.44 8.5c-.123 0-.244-.03-.353-.09-.772-.416-1.6-.72-2.46-.9-.405-.084-.665-.482-.58-.888s.484-.666.89-.58c1 .21 1.965.563 2.864 1.048.366.197.502.652.305 1.016-.133.244-.387.394-.664.394zM24.26 20.317c-.076 0-.152-.01-.224-.034-.394-.124-.614-.544-.492-.938.138-.442.25-.894.315-1.352.057-.41.43-.7.84-.647s.712.432.647.84c-.034.214-.1.744-.37 1.606-.1.312-.39.524-.717.525zM25.718 32.806c-3.176.002-5.75-2.574-5.75-5.75s2.574-5.75 5.75-5.75 5.752 2.574 5.75 5.75c-.002 3.174-2.576 5.748-5.75 5.75zm0-10c-2.347 0-4.25 1.903-4.25 4.25s1.903 4.25 4.25 4.25 4.25-1.903 4.25-4.25c0-2.346-1.904-4.25-4.25-4.25zM28.218 11.317c-1.795 0-3.25-1.455-3.25-3.25s1.455-3.25 3.25-3.25 3.25 1.455 3.25 3.25c0 1.794-1.456 3.25-3.25 3.25zm0-5c-.966 0-1.75.784-1.75 1.75s.784 1.75 1.75 1.75 1.75-.784 1.75-1.75-.784-1.75-1.75-1.75z"/></svg>