<svg xmlns="http://www.w3.org/2000/svg" width="32" height="32" viewBox="0 0 32 32"><path d="M24.542 6.268H7.457c-.656 0-1.19.533-1.19 1.19V24.54c0 .656.534 1.19 1.19 1.19h17.085c.656 0 1.19-.533 1.19-1.19v-10.94-.002-6.144c0-.656-.533-1.19-1.19-1.19zm-1.568.613h1.568c.318 0 .577.26.577.577v.852c-.107 0-.204.07-.226.178l-.11.537h-1.81V6.88zm2.145 2.795v2.76h-.57l.57-2.76zm-2.146-.343h1.745l-.64 3.104h-1.106V9.332zm1.044 3.41l-.16.784-.32.127c-.047.02-.088.048-.12.086l-.442.515v-1.51h1.042zm-.986 2.39l.65-.763-.132.645-.59.634-.493-.236c-.098-.046-.214-.02-.28.067l-.838 1.084-.065-.34c.023-.017.045-.037.062-.062l.664-1.92.747.99c.104.016.207-.024.274-.103zm-.363-.535l-.68-1.005c-.112-.016-.222.032-.288.123l-.595 1.575-.483-2.547h2.046v1.854zm-2.514-1.854l.53 2.8-.365-.107-.85-.2c-.06-.014-.12-.01-.175.01l.36-2.502h.5zm-.458-.307l.172-1.2.227 1.2h-.4zM16.153 6.88h6.515v2.145h-6.515V6.88zm0 2.452h6.515v3.104h-2.102l-.502-2.64c-.02-.112-.123-.188-.23-.188-.113.003-.207.086-.223.198l-.376 2.63h-3.08V9.333zm.974 8.64l.685-1.746.55.732c.06.047.137.068.213.06l-.066.46-.378-.356c-.057-.054-.137-.075-.214-.056-.077.02-.138.076-.162.15l-.47 1.422-.23-.568c.028-.026.053-.058.072-.097zm-.377-.65l-.478-1.168h.94l-.462 1.17zm1.737-1.044l-.6-.77c-.072-.058-.168-.08-.258-.057s-.167.084-.207.167l-.09.23h-1.18V12.74h3.035l-.46 3.198-.242.34zm-2.41.62l.122.296-.068-.032c-.04-.02-.08-.025-.122-.026l.07-.238zM9.333 6.88h6.515v2.145H9.332V6.88zm0 2.452h6.515v3.104H9.332V9.332zm0 3.41h6.515v3.105h-5.45l-.117-.757c-.018-.114-.106-.203-.23-.195-.115.002-.21.088-.224.202l-.094.75h-.4v-3.103zm5.755 5.095l-.677-.258c-.137-.053-.293 0-.37.124l-.723 1.172-.62-.204c-.11-.036-.23-.007-.312.073l-.735.727-.626-.12-.118-.218-.462-2.982h5.37l-.404 1.397-.325.286zm.052.658l-.17.583-.39-.21c-.062-.033-.138-.036-.204-.006s-.113.09-.13.16l-.76 3.448-.638-2.385c-.022-.083-.088-.146-.172-.165-.083-.02-.17.01-.226.075l-.597.703-.726-.137-.09-.58.654.126c.1.02.203-.012.275-.083l.717-.708.672.22c.134.045.282-.01.357-.13l.718-1.16.613.233c.032.012.065.017.1.018zm-4.886-.578l-.025-.046c-.084-.057-.19-.068-.283-.033l.13-1.053.177 1.133zm-.56-1.763l-.32 2.558-.042.066v-2.624h.36zM6.88 19.257v-3.103h2.144v3.093l-.012.01H6.882zm1.892.306l-.618.878-.708.263h-.566v-1.14h1.893zM6.88 7.458c0-.318.26-.576.577-.576h1.568v2.144H6.88V7.458zm0 1.874h2.145v3.104H6.88V9.332zm0 3.41h2.145v3.105H6.88v-3.104zm0 8.575h.62c.037 0 .073-.006.107-.02l.85-.313c.058-.02.11-.06.144-.11l.61-.867-.083.67-.503.804-1.17.36c-.063.02-.115.065-.142.127l-.432.992v-1.644zm17.662 3.802H7.457c-.317 0-.576-.26-.576-.578v-.48c.022-.02.04-.042.054-.07l.76-1.743 1.15-.354c.052-.016.097-.05.126-.098l.575-.92c.018-.03.03-.06.033-.094l.234-1.868.217-.437.455.925.214 1.385c.014.096.088.172.184.19l1.016.193c.08.016.165-.014.218-.077l.4-.47.77 2.872c.026.102.122.165.226.17.106-.002.197-.077.22-.18l.897-4.07.373.2c.06.033.134.037.198.01s.114-.082.133-.148l.403-1.398.314-.278.492.233.552 1.352c.036.088.125.143.22.142.097-.003.18-.066.212-.158l.552-1.67.438.415c.062.058.153.077.234.05.08-.03.14-.1.152-.186l.22-1.54.407-.564.633.15.652.19.177.934c.018.09.085.16.173.18.087.022.18-.01.236-.082l1.038-1.342.48.227c.09.043.197.022.266-.05l.747-.806c.03-.03.05-.068.058-.11l.232-1.13.337-.133h.562v10.635c0 .32-.26.577-.577.577zm.578-11.826h-.62c-.04 0-.078.007-.114.02l-.018.008.12-.58h.632v.552z"/></svg>