<svg xmlns="http://www.w3.org/2000/svg" viewBox="0 0 31.68 31.68"><path d="M23.3 17.77c-.19-1.89-.53-5.4-5.23-5.4h-3.3c-4.77 0-5.08 3.48-5.23 5.38-1.19.13-2.12 1.14-2.12 2.36 0 1.27 1 2.3 2.25 2.37.39.76 1.05 1.3 1.75 1.81l.28.21-.07 1.21.18.16c.44.37 1.63 1 4.61 1 2.9 0 4.1-.6 4.56-.96l.21-.16-.07-1.23.29-.21c1.17-.86 2.15-1.72 2.15-3.45l-.26-3.09zM7.91 20.11c0-1.04.84-1.88 1.88-1.88.71 0 1.35.39 1.67 1.02.04.08.13.13.22.13h.87v.01c0 .14.11.25.25.25h1.13l.33.33c.1.09.25.09.35 0l.33-.33h.41l.33.33c.1.1.25.1.35 0l.33-.33h1.01l.55.55-.39.39h-4.72c-.14 0-.25.11-.25.25l-.87.01c-.09 0-.18.05-.22.13-.32.63-.97 1.02-1.67 1.02-1.05 0-1.89-.85-1.89-1.88zm3.79 3.77c-.64-.47-1.16-.9-1.5-1.45.67-.12 1.26-.52 1.62-1.11h.07l-.19 2.56zm9.4.02l-.47-6.57c0-.12-.1-.22-.22-.22s-.22.1-.22.22l.47 8.18c-.36.28-1.43.85-4.26.85-2.93 0-3.97-.62-4.29-.88.01-.02.01-.04.01-.06l.24-4.1h.41c.14 0 .25-.11.25-.25l4.58-.01c.07 0 .13-.03.17-.07l.63-.63c.1-.1.1-.25 0-.35l-.8-.8c-.05-.05-.11-.07-.17-.07h-1.21c-.06 0-.13.03-.17.07l-.23.23-.23-.23c-.05-.05-.11-.07-.17-.07h-.61c-.07 0-.13.03-.17.07l-.23.23-.23-.23c-.05-.05-.11-.07-.17-.07h-.99v-.01c0-.14-.11-.25-.25-.25h-.27l.09-1.56c0-.12-.1-.22-.22-.22s-.22.1-.22.22l-.11 1.56h-.24c-.39-.65-1.05-1.06-1.79-1.14.19-2.26.69-4.88 4.74-4.88h3.3c4.09 0 4.53 2.81 4.74 4.95l.24 3.03c.02 1.48-.77 2.21-1.93 3.06zM16.41 11.71c1.9 0 3.44-1.54 3.44-3.44s-1.55-3.44-3.44-3.44c-1.9 0-3.44 1.55-3.44 3.44s1.55 3.44 3.44 3.44zm0-6.4c1.63 0 2.95 1.32 2.95 2.95 0 1.62-1.32 2.95-2.95 2.95-1.63 0-2.95-1.32-2.95-2.95.01-1.62 1.33-2.95 2.95-2.95z"/><path d="M8.81 19.64c-.26 0-.47.21-.47.47s.21.47.47.47.47-.21.47-.47-.21-.47-.47-.47zm0 .69c-.12 0-.23-.1-.23-.23 0-.12.1-.22.23-.22.12 0 .22.1.22.22.01.13-.09.23-.22.23z"/></svg>