<svg xmlns="http://www.w3.org/2000/svg" width="32" height="32" viewBox="0 0 32 32"><path d="M25.295 8.937H8.545c-.684 0-1.24.557-1.24 1.24v10.407c0 .684.556 1.24 1.24 1.24h5.443v1.035h-1.673c-.17 0-.306.136-.306.305s.136.306.305.306h9.21c.17 0 .306-.136.306-.305s-.136-.306-.305-.306h-1.673v-1.035h5.443c.684 0 1.24-.557 1.24-1.24V10.177c0-.684-.556-1.24-1.24-1.24zM14.6 22.86v-.923h4.64v.922H14.6zm11.322-2.246c0 .346-.28.627-.627.627H8.545c-.346 0-.627-.28-.627-.626V10.178c0-.346.28-.628.627-.628h16.75c.346 0 .627.282.627.628v10.436zm-7.675-4.468c.03 0 .06-.01.086-.026l4.413-2.963c.07-.047.088-.142.04-.212-.046-.07-.142-.09-.212-.04l-4.413 2.962c-.07.047-.087.142-.04.212.03.043.078.067.126.067zm-1.31 2.04c.03 0 .058-.01.085-.026l3.494-2.36c.07-.048.09-.144.04-.214-.046-.07-.142-.088-.212-.04l-3.495 2.36c-.07.047-.09.142-.042.212.03.044.078.068.127.068zM9.37 20.653h15.104c.422 0 .765-.367.765-.818v-8.757c0-.45-.344-.818-.766-.818H9.37c-.423 0-.766.367-.766.818v8.757c0 .45.343.818.765.818zm-.306-9.575c0-.198.137-.36.306-.36h15.104c.17 0 .305.162.305.36v8.757c0 .198-.138.36-.306.36H9.37c-.168 0-.306-.162-.306-.36v-8.757z"/></svg>