<svg xmlns="http://www.w3.org/2000/svg" viewBox="0 0 31.68 31.68"><path d="M21.82 13.8c0-.04.01-.22.1-.37.12-.19.29-.28.57-.28.29 0 .69-.01 1.14-.01.97 0 2.11.01 2.63.01l.28-.01c.88 0 1.72.65 1.92 1.48l.31 1.26c.18.74.33 1.96.33 2.72v1.75c0 .01-.02.64-.21.8-.09.07-.09.08-.84.08-.81 0-1.72-.02-1.72-.02H25.46c0 .03.01.07.01.1 0 .92-.75 1.67-1.67 1.67s-1.67-.75-1.67-1.67c0-.03.01-.07.01-.1H12.11c0 .04.01.08.01.12 0 .92-.75 1.67-1.67 1.67s-1.67-.75-1.67-1.67c0-.04.01-.08.01-.12h-.71c-.52 0-1.66.01-2.63.01-.44 0-.85 0-1.14-.01-.28 0-.46-.09-.57-.28-.09-.15-.1-.34-.1-.37l-.01-1.73v-.63c0-.04.01-.22.1-.37.12-.19.29-.28.57-.28.29 0 .69-.01 1.14-.01.97 0 2.11.01 2.63.01h.31l12.11.01h1.13c.1 0 .12-.02.13-.03.01-.02.02-.08.03-.1v-1.3l.04-2.33zm6.52 2.18l-.31-1.26c-.15-.63-.82-1.14-1.49-1.14l-.28.01c-.75 0-2.84-.02-3.76 0-.09 0-.16.01-.2.07-.02.04-.03.11-.04.14v3.62c0 .02-.01.19-.09.33-.1.17-.26.24-.51.24-.29 0-.69.01-1.14.01l-12.11-.01H8.1c-.75 0-2.84-.02-3.76 0-.09 0-.16.01-.2.07-.02.04-.04.11-.04.14v.36l.01 1.99c0 .03.01.1.04.15.04.05.1.06.19.06.92.01 3 0 3.76 0h.89l.02-.05c.25-.59.82-.97 1.46-.97s1.21.38 1.46.97l.02.05h10.37l.02-.05c.25-.6.82-.99 1.47-.99.64 0 1.22.39 1.47.99l.02.05h.78c.12 0 1.23.02 1.98.02h.54l.01-.06c.02-.11.04-.26.04-.37V18.6c.01-.73-.14-1.9-.31-2.62zm-16.93 4.7c-.21-.29-.55-.49-.93-.49s-.73.19-.93.49c0 0-.21.26-.21.65 0 .04 0-.04 0 0 0 .63.51 1.14 1.14 1.14s1.14-.51 1.14-1.14c0-.04 0 .04 0 0 0-.35-.21-.65-.21-.65zm13.35 0c-.2-.31-.55-.51-.95-.51s-.74.2-.95.51c0 0-.15.19-.18.53 0 .03-.01.07-.01.1 0 .63.51 1.14 1.14 1.14s1.14-.51 1.14-1.14c0-.04 0 .03 0 0-.01-.41-.19-.63-.19-.63z"/><path d="M6.28 19.67c.05.05.05.14 0 .19-.03.03-.06.04-.09.04s-.07-.01-.09-.04L4.84 18.6c-.05-.05-.05-.14 0-.19M5.08 19.68c-.03 0-.07-.01-.09-.04l-.3-.3c-.05-.05-.05-.14 0-.19.05-.05.14-.05.19 0l.3.3c.05.05.05.14 0 .19-.03.03-.07.04-.1.04zM8.54 20.41H3.99c-.07 0-.13-.06-.13-.13s.06-.13.13-.13h4.55c.07 0 .13.06.13.13s-.06.13-.13.13zM28.9 20.38h-3.23c-.07 0-.13-.06-.13-.13s.06-.13.13-.13h3.23c.07 0 .13.06.13.13.01.07-.05.13-.13.13zM21.89 20.39H12.4c-.07 0-.13-.06-.13-.13s.06-.13.13-.13h9.49c.07 0 .13.06.13.13s-.06.13-.13.13zM27 17.98h-3.58c-.21 0-.38-.17-.38-.39v-3.01c0-.21.17-.39.39-.39h3.01c.17 0 .39.1.5.22.03.03.29.35.54 1.42.03.11.06.23.09.35l.02.08c.08.32.13.65.16.9.02.11.02.19.02.27-.01.13-.01.24-.07.31s-.13.16-.26.2c-.03.03-.08.04-.44.04zm-.33-.32H27c.18 0 .32-.01.35-.01.03-.01.05-.03.09-.08v-.11c0-.09 0-.15-.01-.24-.03-.24-.08-.56-.15-.87l-.02-.09c-.03-.12-.05-.23-.08-.35-.23-1-.47-1.29-.47-1.29-.05-.06-.18-.12-.26-.12h-3.01c-.04 0-.07.03-.07.07v3.01c0 .04.03.07.06.07l3.24.01zM21.28 8.9v7.84c0 .12-.1.22-.22.22H4.09c-.12 0-.22-.1-.22-.22V8.9c0-.12.1-.22.22-.22h16.96c.13 0 .23.1.23.22zm-.45.23H4.32v7.09h16.51V9.13z"/><path d="M6.06 15.65c.06 0 .11-.05.11-.11V9.8c0-.06-.05-.11-.11-.11s-.12.05-.12.11v5.74c0 .06.05.11.12.11zM8.22 15.65c.06 0 .11-.05.11-.11V9.8c0-.06-.05-.11-.11-.11s-.11.05-.11.11v5.74c0 .06.05.11.11.11zM10.4 15.65c.06 0 .11-.05.11-.11V9.8c0-.06-.05-.11-.11-.11s-.11.05-.11.11v5.74c0 .06.05.11.11.11zM12.57 15.69c.06 0 .11-.05.11-.11V9.84c0-.06-.05-.11-.11-.11s-.11.05-.11.11v5.74c0 .06.05.11.11.11zM14.75 15.65c.06 0 .11-.05.11-.11V9.8c0-.06-.05-.11-.11-.11s-.11.05-.11.11v5.74c0 .06.04.11.11.11zM16.92 15.65c.06 0 .11-.05.11-.11V9.8c0-.06-.05-.11-.11-.11s-.11.05-.11.11v5.74c0 .06.05.11.11.11zM19.1 15.65c.06 0 .11-.05.11-.11V9.8c0-.06-.05-.11-.11-.11s-.11.05-.11.11v5.74c-.01.06.04.11.11.11z"/></svg>