<svg xmlns="http://www.w3.org/2000/svg" width="32" height="32" viewBox="0 0 32 32"><path d="M12.28 4.547h-.004L6.3 4.548c-.15-.003-.3.12-.307.283l-.346 6.664c0 1.49.906 2.82 2.272 3.376v11.814c0 .08.03.15.08.203l-.003.003c.252.267.738.58 1.328.58.42 0 .892-.16 1.37-.6l-.006-.007c.066-.055.11-.135.11-.23v-11.82c1.29-.585 2.142-1.893 2.142-3.334l-.346-6.65c-.008-.165-.163-.292-.316-.284zm-1.89 9.79c-.28.11-.578.174-.88.196-.167.012-.292.156-.28.322.01.16.144.28.3.28h.022c.22-.015.434-.057.645-.11v11.463c-.79.67-1.446.25-1.674.057V14.663c0-.134-.09-.244-.21-.284l-.003-.002c-1.232-.42-2.06-1.58-2.06-2.866l.34-6.507h1.43v6.272c0 .166.135.302.302.302s.3-.136.3-.303V5.005h1.36v6.315c0 .167.135.302.302.302.166 0 .302-.135.302-.302V5.005H12l.34 6.492c0 1.25-.783 2.39-1.948 2.84zm12.212-9.79c-2.07 0-3.752 2.377-3.752 5.298 0 2.148.923 4.08 2.31 4.894v11.948c0 .083.034.157.088.21l-.006.007c.02.022.523.55 1.27.576.02.002.038.002.057.002.473 0 .927-.2 1.352-.6l-.006-.006c.075-.054.127-.14.127-.24V14.742c1.37-.797 2.31-2.696 2.31-4.896 0-2.92-1.682-5.298-3.75-5.298zm.308 9.97c-.165.024-.278.178-.254.343.02.15.15.258.298.258.014 0 .03 0 .044-.003.15-.022.297-.06.44-.106v11.48c-.792.687-1.45.26-1.674.066V14.663c0-.02-.007-.035-.01-.053.02-.126-.037-.256-.157-.317-1.282-.65-2.144-2.44-2.144-4.448 0-2.588 1.412-4.694 3.148-4.694 1.737 0 3.15 2.107 3.15 4.695 0 2.386-1.248 4.44-2.84 4.672zM16.536 4.79c-.025-.123-.12-.218-.244-.24-.52-.087-.934.004-1.234.277-.494.448-.444 1.21-.442 1.22V26.69c0 .078.032.147.08.2l-.005.007c.257.266.752.575 1.35.575.428 0 .908-.157 1.393-.598l-.004-.003c.07-.054.118-.136.118-.233V14.842c.21-.09.382-.217.508-.384.354-.47.207-1.047.205-1.054L16.537 4.79zm1.04 9.303c-.18.237-.56.294-.85.3-.165.002-.298.14-.294.306.003.166.134.3.308.295.074-.002.136-.013.205-.02V26.48c-.81.675-1.484.264-1.724.066V6.02c-.01-.127.015-.54.246-.75.12-.11.294-.157.523-.15l1.685 8.417c0 .004.074.325-.1.554zm2.648-6.367c-.032.063-.767 1.553-.165 3.806l.296-.08c-.57-2.132.134-3.573.142-3.588l-.274-.138z"/></svg>