<svg data-name="app-on-server" xmlns="http://www.w3.org/2000/svg" viewBox="0 0 36 36"><title>Icon-Red_Hat-</title><path d="M18.26 9.38a.81.81 0 0 0-.26-.17.75.75 0 0 0-.81.17.7.7 0 0 0-.17.24.72.72 0 0 0-.06.29.67.67 0 0 0 .06.28.74.74 0 0 0 .17.25.73.73 0 0 0 .52.22.75.75 0 0 0 .53-.22.74.74 0 0 0 .17-.25.69.69 0 0 0 .05-.28.93.93 0 0 0-.05-.29.7.7 0 0 0-.15-.24zm2 0a.75.75 0 0 0-.81-.17.85.85 0 0 0-.25.17.78.78 0 0 0-.16.24.71.71 0 0 0-.05.29.66.66 0 0 0 .05.28.72.72 0 0 0 .16.25 1.07 1.07 0 0 0 .25.16.71.71 0 0 0 .28.06.75.75 0 0 0 .53-.22.77.77 0 0 0 .22-.53.71.71 0 0 0-.05-.29.81.81 0 0 0-.17-.24zm8.48 14.28a.72.72 0 0 0 .26-.06.78.78 0 0 0 .24-.16.75.75 0 0 0-.82-1.22.63.63 0 0 0-.24.16.75.75 0 0 0 .53 1.28zm3-4.5h-28a.75.75 0 0 0-.75.75v7a.76.76 0 0 0 .75.75h28a.75.75 0 0 0 .75-.75v-7a.74.74 0 0 0-.76-.75zm-.75 7H4.48v-5.5H31zm-18.25-8.5h10a.75.75 0 0 0 .75-.75v-10a.74.74 0 0 0-.75-.75h-10a.75.75 0 0 0-.75.75v10a.76.76 0 0 0 .74.75zm.75-10H22v8.5h-8.5zm-6.75 17H9.4a.75.75 0 1 0 0-1.5H6.73a.75.75 0 0 0 0 1.5z"/></svg>