<svg xmlns="http://www.w3.org/2000/svg" width="32" height="32" viewBox="0 0 32 32"><path d="M15.994 10.463c2.346 0 4.255-1.91 4.255-4.255 0-2.346-1.91-4.254-4.256-4.254s-4.254 1.91-4.254 4.254c0 2.346 1.91 4.255 4.254 4.255zm0-7.896c2.008 0 3.642 1.634 3.642 3.64 0 2.01-1.634 3.643-3.642 3.643s-3.64-1.634-3.64-3.642 1.632-3.64 3.64-3.64zm2.334 8.72H13.66c-4.338 0-6.726 2.39-6.726 6.727v3.747c0 2.125 1.41 3.163 2.906 4.262l.198.146v1.706c0 .074.027.147.077.202.292.332 1.58 1.413 5.88 1.413s5.587-1.083 5.88-1.414c.05-.056.076-.128.076-.202v-1.706l.198-.145c1.495-1.1 2.908-2.137 2.908-4.262v-3.746c0-4.338-2.39-6.726-6.726-6.726zm-2.468 2.346l.235.006h.008l.03-.003.118-.01.86 12.753-1.063.924-1.063-.924.876-12.748zm.41-.625l-.178.017-.213-.006c-.216-.294-.412-.768-.538-1.12h1.417c-.134.36-.352.825-.492 1.107zm8.172 8.754c0 1.814-1.23 2.72-2.656 3.767v-7.81c0-.147-.12-.267-.268-.267-.148 0-.268.12-.268.268v10.102c-.44.346-1.768 1.055-5.255 1.055-3.617 0-4.91-.762-5.3-1.09.007-.025.015-.05.015-.076v-9.99c0-.147-.12-.267-.268-.267s-.268.12-.268.268v7.787c-1.412-1.038-2.626-1.944-2.626-3.745v-3.747c0-2.79 1.06-6.114 6.113-6.114h1.035c.095.29.31.888.594 1.337-.01.024-.02.047-.022.074l-.906 13.18c-.007.096.032.19.105.253l1.38 1.198c.057.05.128.076.2.076s.143-.025.2-.075l1.38-1.197c.072-.063.11-.156.105-.252L16.84 13.24c.15-.308.432-.906.566-1.338h.922c5.053 0 6.114 3.324 6.114 6.114v3.747z"/></svg>