<svg id="Layer_1" xmlns="http://www.w3.org/2000/svg" viewBox="0 0 32 32"><style>.st0{fill:#010101;}</style><path class="st0" d="M7.32 12.68c.03 0 .05-.01.08-.02.18-.07.37-.15.56-.23.11-.05.17-.18.12-.29-.05-.11-.18-.17-.29-.12-.18.08-.37.15-.55.22-.11.05-.17.17-.12.29.02.1.11.15.2.15zM8.7 12.11c.03 0 .06-.01.09-.02.2-.09.39-.17.55-.24.11-.05.16-.18.11-.29-.05-.11-.18-.16-.29-.11-.16.07-.35.15-.55.24-.11.05-.16.18-.12.29.04.08.12.13.21.13zM11.57 11.45h.6c.12 0 .22-.1.22-.22s-.1-.22-.22-.22h-.6c-.12 0-.22.1-.22.22s.1.22.22.22zM10.08 11.54c.02 0 .03 0 .05-.01.15-.03.34-.05.56-.07.12-.01.22-.11.21-.23-.01-.12-.11-.22-.23-.21-.25.01-.46.04-.63.08-.12.03-.2.14-.17.26.01.11.1.18.21.18zM5.79 19.27c.12 0 .22-.11.21-.23 0-.07-.01-.15-.01-.22v-.37c0-.12-.1-.22-.22-.22s-.22.1-.22.22v.37c0 .08 0 .16.01.24.01.12.1.21.22.21h.01zM5.77 14.88c.12 0 .22-.1.22-.22v-.19c0-.13 0-.26.01-.39.01-.12-.08-.23-.2-.24-.12-.01-.23.08-.24.2-.01.14-.01.28-.01.42v.19c0 .13.1.23.22.23zM6.38 12.63c-.21.13-.38.28-.5.46-.07.1-.05.24.05.31.04.03.08.04.13.04.07 0 .14-.03.18-.09.09-.13.22-.24.37-.34.1-.06.14-.2.07-.31-.06-.1-.2-.14-.3-.07zM6.15 19.84c-.05-.11-.17-.17-.29-.13-.11.05-.17.17-.13.29.09.23.22.43.38.58.04.04.1.06.15.06.06 0 .12-.02.16-.07.08-.09.08-.23-.01-.31-.11-.11-.2-.25-.26-.42zM5.99 15.46c0-.12-.1-.22-.22-.22s-.22.1-.22.22v.6c0 .12.1.22.22.22s.22-.1.22-.22v-.6zM5.77 16.73c-.12 0-.22.1-.22.22v.6c0 .12.1.22.22.22s.22-.1.22-.22v-.6c0-.12-.1-.22-.22-.22zM7.68 20.55h-.36c-.08 0-.15 0-.22-.01-.12-.01-.23.08-.24.2s.08.23.2.24c.09.01.17.01.27.01h.36c.12 0 .22-.1.22-.22-.01-.12-.11-.22-.23-.22zM23.35 11.98l.54.26c.03.02.07.02.1.02.08 0 .16-.05.2-.12.05-.11.01-.24-.1-.3l-.54-.26c-.11-.05-.24-.01-.3.1-.05.11-.01.25.1.3zM20.57 11.45h.6c.12 0 .22-.1.22-.22s-.1-.22-.22-.22h-.6c-.12 0-.22.1-.22.22s.09.22.22.22zM22.05 11.46c.17.01.29.04.5.14.03.01.06.02.09.02.08 0 .17-.05.2-.13.05-.11 0-.24-.11-.29-.22-.1-.39-.16-.65-.17-.12-.01-.23.09-.24.21 0 .1.09.21.21.22zM24.69 12.64c.2.1.39.2.53.27.03.02.07.03.1.03.08 0 .16-.04.2-.12.06-.11.02-.24-.09-.3-.14-.07-.33-.17-.54-.28-.11-.06-.24-.01-.3.1-.05.11-.01.25.1.3zM25.98 13.89c.02.11.11.19.22.19h.04c.12-.02.2-.14.18-.26-.04-.24-.12-.45-.23-.64-.06-.1-.2-.14-.31-.07-.1.06-.14.2-.07.31.08.12.14.28.17.47zM17.57 11.45h.6c.12 0 .22-.1.22-.22s-.1-.22-.22-.22h-.6c-.12 0-.22.1-.22.22s.1.22.22.22zM14.57 11.45h.6c.12 0 .22-.1.22-.22s-.1-.22-.22-.22h-.6c-.12 0-.22.1-.22.22s.1.22.22.22zM16.07 11.45h.6c.12 0 .22-.1.22-.22s-.1-.22-.22-.22h-.6c-.12 0-.22.1-.22.22s.1.22.22.22zM19.07 11.45h.6c.12 0 .22-.1.22-.22s-.1-.22-.22-.22h-.6c-.12 0-.22.1-.22.22s.09.22.22.22zM13.07 11.45h.6c.12 0 .22-.1.22-.22s-.1-.22-.22-.22h-.6c-.12 0-.22.1-.22.22s.1.22.22.22zM26.23 17.52c-.12 0-.22.1-.22.22v.6c0 .12.1.22.22.22s.22-.1.22-.22v-.6c0-.13-.1-.22-.22-.22zM24.18 20.55h-.6c-.12 0-.22.1-.22.22s.1.22.22.22h.6c.12 0 .22-.1.22-.22s-.1-.22-.22-.22zM25.49 20.36c-.14.11-.29.17-.43.18-.12.01-.21.12-.2.24.01.11.11.2.22.2h.02c.22-.02.45-.11.66-.27.1-.08.11-.21.04-.31-.07-.09-.22-.11-.31-.04zM22.67 20.55h-.6c-.12 0-.22.1-.22.22s.1.22.22.22h.6c.12 0 .22-.1.22-.22.01-.12-.09-.22-.22-.22zM26.23 16.02c-.12 0-.22.1-.22.22v.6c0 .12.1.22.22.22s.22-.1.22-.22v-.6c0-.12-.1-.22-.22-.22zM26.23 14.52c-.12 0-.22.1-.22.22v.6c0 .12.1.22.22.22s.22-.1.22-.22v-.6c0-.12-.1-.22-.22-.22zM9.18 20.55h-.6c-.12 0-.22.1-.22.22s.1.22.22.22h.6c.12 0 .22-.1.22-.22s-.1-.22-.22-.22zM21.17 20.55h-.6c-.12 0-.22.1-.22.22s.1.22.22.22h.6c.12 0 .22-.1.22-.22.01-.12-.09-.22-.22-.22zM26.23 19.01c-.12 0-.22.1-.22.22v.19c0 .09-.02.2-.07.32-.04.11.01.24.13.29.03.01.05.01.08.01.09 0 .17-.05.21-.14.06-.17.09-.33.09-.48v-.19c0-.12-.1-.22-.22-.22zM19.67 20.55h-.6c-.12 0-.22.1-.22.22s.1.22.22.22h.6c.12 0 .22-.1.22-.22.01-.12-.09-.22-.22-.22zM12.18 20.55h-.6c-.12 0-.22.1-.22.22s.1.22.22.22h.6c.12 0 .22-.1.22-.22s-.1-.22-.22-.22zM15.18 20.55h-.6c-.12 0-.22.1-.22.22s.1.22.22.22h.6c.12 0 .22-.1.22-.22s-.1-.22-.22-.22zM10.68 20.55h-.6c-.12 0-.22.1-.22.22s.1.22.22.22h.6c.12 0 .22-.1.22-.22s-.1-.22-.22-.22zM13.68 20.55h-.6c-.12 0-.22.1-.22.22s.1.22.22.22h.6c.12 0 .22-.1.22-.22s-.1-.22-.22-.22zM16.68 20.55h-.6c-.12 0-.22.1-.22.22s.1.22.22.22h.6c.12 0 .22-.1.22-.22s-.1-.22-.22-.22zM18.18 20.55h-.6c-.12 0-.22.1-.22.22s.1.22.22.22h.6c.12 0 .22-.1.22-.22s-.1-.22-.22-.22zM25.15 19.33V14.06c0-.11-.06-.22-.16-.27l-2.78-1.39c-.04-.02-.09-.03-.13-.03H10.43c-.04 0-.08.01-.12.02l-3.24 1.4c-.11.05-.18.15-.18.27V19.33c0 .16.13.3.3.3h17.66c.17 0 .3-.13.3-.3zm-14.66-6.37H22l1.9.95H8.27l2.22-.95zm14.07 6.08H7.49v-4.53h17.07v4.53z"/><circle class="st0" cx="9.07" cy="16.78" r=".44"/><circle class="st0" cx="10.55" cy="16.78" r=".44"/><path class="st0" d="M20.78 18.11h.93c.08 0 .15-.07.15-.15v-2.42c0-.08-.07-.15-.15-.15h-.93c-.08 0-.15.07-.15.15v2.42c0 .09.06.15.15.15zm.14-2.42h.64v2.12h-.64v-2.12zM22.6 18.11h.93c.08 0 .15-.07.15-.15v-2.42c0-.08-.07-.15-.15-.15h-.93c-.08 0-.15.07-.15.15v2.42c0 .09.07.15.15.15zm.15-2.42h.64v2.12h-.64v-2.12z"/></svg>