<svg xmlns="http://www.w3.org/2000/svg" width="32" height="32" viewBox="0 0 32 32"><path d="M18.01 18.16c-.17-.128-.357-.146-.496-.053-.166.11-.223.288-.148.457l.4 1.297c-2.792 0-4.965-.77-6.46-2.283-2.02-2.042-2.17-4.842-2.18-5.393v-.102l-.42-.006.002.194c.033 3.676 1.044 6.4 3.006 8.096 1.89 1.634 4.16 1.89 5.407 1.89.26 0 .473-.01.63-.022l-.385 1.257c-.074.17-.018.347.148.457.058.04.126.06.198.06.1 0 .2-.04.307-.12l3.263-2.7c.048-.04.076-.097.076-.16 0-.062-.028-.12-.076-.16l-3.27-2.707zm-.22 5.374l.453-1.48c.02-.06.008-.127-.028-.18s-.095-.086-.16-.09l-.057.004h-.01-.02l-.59.04c-1.103.027-3.488-.134-5.394-1.784C10.78 19 9.952 17.54 9.508 15.682c.338.736.816 1.495 1.495 2.183 1.624 1.646 3.982 2.46 7.018 2.413.038 0 .07-.013.1-.03.038-.016.072-.038.095-.07.037-.054.047-.12.028-.18l-.454-1.48 3.03 2.508-3.03 2.507zm7.38-3.783c-.032-3.675-1.043-6.398-3.006-8.095-2.28-1.97-5.118-1.938-6.036-1.868l.386-1.257c.074-.168.018-.346-.148-.456-.058-.04-.126-.06-.198-.06-.098 0-.198.04-.306.12l-3.263 2.7c-.05.04-.077.098-.077.16 0 .063.028.122.076.162l3.27 2.706c.17.127.356.145.494.052.166-.11.223-.288.15-.457l-.4-1.297c2.79.002 4.964.77 6.46 2.285 2.02 2.042 2.17 4.84 2.178 5.392v.102l.418.005c.002-.018.003-.085 0-.194zm-2.294-5.596c-1.624-1.646-3.985-2.46-7.018-2.413-.037.002-.07.014-.1.032-.038.015-.07.037-.094.07-.037.053-.047.12-.028.18l.454 1.478-3.03-2.507 3.03-2.508-.454 1.48c-.02.06-.008.127.028.18s.095.085.16.09l.056-.005h.01l.02-.002.606-.04c1.107-.025 3.474.14 5.374 1.782 1.206 1.043 2.035 2.505 2.48 4.366-.338-.736-.817-1.495-1.496-2.183z"/></svg>