<svg xmlns="http://www.w3.org/2000/svg" viewBox="0 0 32 32"><path d="M24.59 15.28c-.81 0-1.5.52-1.76 1.24l-3.03-.53c.04-.26.07-.53.07-.8 0-1.65-.83-3.1-2.09-3.97l1.63-2.44c.12.03.24.05.37.05.79 0 1.43-.64 1.43-1.44 0-.79-.64-1.43-1.43-1.43s-1.43.64-1.43 1.43c0 .52.28.97.69 1.22L17.43 11c-.7-.4-1.51-.63-2.38-.63-1.56 0-2.95.75-3.83 1.91l-2.29-1.89c.2-.3.33-.66.33-1.05 0-1.02-.83-1.86-1.86-1.86-1.02 0-1.86.83-1.86 1.86 0 1.02.83 1.86 1.86 1.86.49 0 .93-.19 1.27-.5l2.32 1.92c-.48.75-.76 1.63-.76 2.58 0 1.25.48 2.38 1.26 3.24l-1.63 1.35c-.27-.25-.63-.4-1.02-.4-.85 0-1.53.69-1.53 1.53s.69 1.53 1.54 1.53 1.53-.69 1.53-1.53c0-.31-.09-.59-.25-.83l1.65-1.37c.86.8 2.01 1.29 3.27 1.29.67 0 1.31-.14 1.9-.39l1.28 3.42c-.93.4-1.59 1.32-1.59 2.4 0 1.43 1.17 2.6 2.6 2.6s2.6-1.17 2.6-2.6-1.17-2.6-2.6-2.6c-.22 0-.43.03-.63.08l-1.3-3.47c1.18-.63 2.06-1.73 2.4-3.05l3.02.53c-.01.08-.02.16-.02.24 0 1.03.84 1.87 1.87 1.87 1.03 0 1.87-.84 1.87-1.87.01-1.05-.83-1.89-1.86-1.89zm-4.81-8.77c.49 0 .89.4.89.89s-.4.89-.89.89-.9-.4-.9-.9.41-.88.9-.88zM7.4 10.65c-.73 0-1.32-.59-1.32-1.32 0-.73.59-1.32 1.32-1.32.73 0 1.32.59 1.32 1.32 0 .73-.59 1.32-1.32 1.32zm13.91 14.79c0 1.14-.92 2.06-2.06 2.06s-2.06-.92-2.06-2.06c0-1.14.92-2.06 2.06-2.06s2.06.92 2.06 2.06zM8.85 21.91c-.55 0-.99-.45-.99-1s.45-1 .99-1 .99.45.99 1-.44 1-.99 1zm6.2-2.55c-2.3 0-4.17-1.87-4.17-4.17s1.87-4.17 4.17-4.17 4.17 1.87 4.17 4.17-1.87 4.17-4.17 4.17zm9.54-.88c-.73 0-1.33-.6-1.33-1.33 0-.74.6-1.33 1.33-1.33.73 0 1.33.6 1.33 1.33 0 .74-.6 1.33-1.33 1.33z"/></svg>