<svg xmlns="http://www.w3.org/2000/svg" width="32" height="32" viewBox="0 0 32 32"><path d="M22.335 3.666c-.054-.09-.15-.145-.254-.148-.1-.005-.202.048-.26.134-.01.014-.958 1.402-2.943 3.144-2.505 2.198-3.592 5.046-3.942 7.832-2.12-3.534-5.926-5.165-6.1-5.238-.095-.04-.205-.03-.29.03-.087.06-.137.16-.133.264 0 .013.037 1.27-.393 3.183-1.498 6.67 5.5 11.605 6.376 12.193.1.302.398 1.4.11 2.845-.285.324-.49.513-.496.518-.126.113-.136.307-.024.433.06.068.144.102.228.102.073 0 .146-.026.204-.078.074-.066 1.784-1.62 2.38-3.812 4.03-2.177 6.58-5.106 7.573-8.713 1.746-6.334-1.88-12.433-2.034-12.69zm-13.72 9.336c.29-1.295.377-2.292.4-2.847 1.137.573 4.294 2.394 5.82 5.578-.143 2.338.177 4.564.55 6.246-.193.787-.48 1.602-.86 2.427-1.385-.976-7.235-5.5-5.91-11.405zm6.364 11.875c.275-.58.506-1.155.697-1.722.24.887.456 1.498.538 1.72-.212.8-.593 1.513-.982 2.09.043-1.04-.16-1.8-.255-2.087zm8.798-8.68c-.932 3.378-3.31 6.145-7.074 8.226-.663-1.906-3.657-11.695 2.577-17.166 1.43-1.253 2.33-2.318 2.755-2.866.77 1.464 3.17 6.635 1.743 11.807zM21.718 6c-.078 1.718-.425 3.702-.892 5.693-1.25-1.854-.977-3.44-.974-3.456.015-.083-.04-.163-.122-.18-.082-.014-.163.04-.18.123-.014.076-.323 1.853 1.182 3.908-.54 2.226-1.218 4.437-1.834 6.28-1.508-1.53-2.067-3.854-2.073-3.88-.02-.08-.1-.133-.184-.114-.082.02-.133.102-.114.184.025.106.61 2.546 2.263 4.13-.838 2.48-1.532 4.21-1.55 4.253-.046.12.01.253.128.3.028.01.057.017.086.017.09 0 .177-.054.213-.144.022-.054 1.132-2.826 2.247-6.4 2.71-1.26 3.52-2.685 3.555-2.746.04-.074.013-.167-.06-.208-.076-.043-.168-.015-.21.06-.007.013-.753 1.31-3.16 2.494C21.05 13.01 22.036 9.1 22.176 6.02c.006-.127-.092-.234-.22-.24-.127-.002-.233.092-.24.22zm-7.043 16.986c-.25-1.51-.693-3.038-1.222-4.492.07-.48.36-1.75.958-2.335.06-.06.063-.157.003-.218-.06-.06-.156-.06-.217-.003-.49.478-.795 1.36-.947 2.005-.995-2.59-2.228-4.895-3.07-6.342-.062-.11-.203-.147-.313-.083-.11.064-.147.204-.083.314.502.863 1.145 2.035 1.792 3.39-.475-.313-1.17-.65-1.97-.65-.084 0-.152.07-.152.154 0 .085.068.153.153.153 1.03 0 1.896.637 2.246.935.422.92.836 1.91 1.206 2.936-.347-.248-.847-.496-1.528-.58-.084-.01-.16.05-.17.135-.01.084.05.16.133.17.95.116 1.518.595 1.768.864.412 1.218.754 2.476.96 3.72.017.113.115.193.225.193.013 0 .025 0 .038-.003.124-.02.21-.14.188-.264z"/></svg>