<svg xmlns="http://www.w3.org/2000/svg" viewBox="0 0 36 36"><title>Icon-Red_Hat-Hardware-Router_Load_Balancer-A-Black-RGB</title><path d="M28.48 18.53a.78.78 0 0 0 .24.16.72.72 0 0 0 .29.06.77.77 0 0 0 .52-.22.73.73 0 0 0 .17-.82.81.81 0 0 0-.17-.24.7.7 0 0 0-.24-.17.8.8 0 0 0-.57 0 .7.7 0 0 0-.24.17.81.81 0 0 0-.17.24.87.87 0 0 0 0 .58.81.81 0 0 0 .17.24z"/><path d="M32 14.25H4a.76.76 0 0 0-.75.75v7a.76.76 0 0 0 .75.75h28a.76.76 0 0 0 .75-.75v-7a.76.76 0 0 0-.75-.75zm-.75 7H4.75v-5.5h26.5z"/><path d="M7 19.73a.75.75 0 0 0 .75-.73v-1a.75.75 0 0 0-1.5 0v1a.75.75 0 0 0 .75.73zM10 19.73a.75.75 0 0 0 .75-.75V18a.75.75 0 0 0-1.5 0v1a.75.75 0 0 0 .75.73zM13 19.73a.75.75 0 0 0 .75-.75V18a.75.75 0 0 0-1.5 0v1a.75.75 0 0 0 .75.73zM16 19.73a.75.75 0 0 0 .75-.75V18a.75.75 0 0 0-1.5 0v1a.75.75 0 0 0 .75.73zM19 19.73a.75.75 0 0 0 .75-.75V18a.75.75 0 0 0-1.5 0v1a.75.75 0 0 0 .75.73zM22 19.73a.75.75 0 0 0 .75-.75V18a.75.75 0 0 0-1.5 0v1a.75.75 0 0 0 .75.73z"/></svg>