<svg xmlns="http://www.w3.org/2000/svg" viewBox="0 0 32 32"><path d="M16 5.3C10.1 5.3 5.31 10.1 5.31 16S10.11 26.7 16 26.7c5.9 0 10.69-4.8 10.69-10.7S21.9 5.3 16 5.3zm0 20.73c-5.53 0-10.03-4.5-10.03-10.03S10.47 5.97 16 5.97 26.03 10.47 26.03 16 21.53 26.03 16 26.03zm1.37-16.81H11.9c-.14 0-.25.11-.25.25v13.41c0 .14.11.25.25.25h2.68c.14 0 .25-.11.25-.25v-4.5h2.31c3.24 0 5.1-1.7 5.1-4.66 0-2.74-1.91-4.5-4.87-4.5zm-.23 8.66h-2.56c-.14 0-.25.11-.25.25v4.5h-2.18V9.71h5.22c2.11 0 4.37 1.05 4.37 4 0 3.63-2.88 4.17-4.6 4.17zm.14-6.06h-2.7c-.14 0-.25.11-.25.25v3.45c0 .14.11.25.25.25h2.73c1.4 0 2.17-.71 2.17-1.99 0-1.24-.8-1.96-2.2-1.96zm.04 3.45h-2.48v-2.95h2.45c1.13 0 1.7.49 1.7 1.46-.01 1-.55 1.49-1.67 1.49z"/></svg>