<svg data-name="Layer 1" xmlns="http://www.w3.org/2000/svg" viewBox="0 0 36 36"><title>Icon-Red_Hat-Virtual_storage_stack_secured-A-Black-RGB</title><path d="M24.03 29.47a.774.774 0 0 0-1.06 0 .748.748 0 0 0 0 1.06.75.75 0 1 0 1.06-1.06zM11 29.25a.748.748 0 1 0 .53.217.75.75 0 0 0-.53-.217zM21 29.25a.748.748 0 1 0 .53.217.75.75 0 0 0-.53-.217zM8.5 29.25a.743.743 0 1 0 .532.217.748.748 0 0 0-.532-.217zM6 29.25a.748.748 0 1 0 .53.217.75.75 0 0 0-.53-.217zM16 29.25a.748.748 0 1 0 .53.217.75.75 0 0 0-.53-.217zM18.5 29.25a.743.743 0 1 0 .532.217.75.75 0 0 0-.532-.217zM13.5 29.25a.743.743 0 1 0 .532.217.748.748 0 0 0-.532-.217zM4.03 29.47a.774.774 0 0 0-1.06 0 .748.748 0 0 0 0 1.06.75.75 0 1 0 1.06-1.06zM3.5 4.7a.748.748 0 1 0 .53.217.75.75 0 0 0-.53-.217zM3.5 7.15a.755.755 0 0 0-.75.75.76.76 0 0 0 .22.537.74.74 0 0 0 1.06 0 .76.76 0 0 0 .22-.537.755.755 0 0 0-.75-.75zM3.5 9.61a.755.755 0 1 0 .53.22.75.75 0 0 0-.53-.22zM3.5 14.52a.748.748 0 1 0 .53.217.75.75 0 0 0-.53-.217zM3.5 19.43a.748.748 0 1 0 .53.217.75.75 0 0 0-.53-.217zM3.5 21.88a.755.755 0 1 0 .53.22.75.75 0 0 0-.53-.22zM3.5 16.97a.755.755 0 1 0 .53.22.75.75 0 0 0-.53-.22zM3.5 26.79a.755.755 0 1 0 .53.22.75.75 0 0 0-.53-.22zM3.5 24.34a.755.755 0 1 0 .53.22.75.75 0 0 0-.53-.22zM3.5 12.06a.755.755 0 1 0 .53.22.75.75 0 0 0-.53-.22zM4.19 2.71a.922.922 0 0 0-.07-.128.687.687 0 0 0-.09-.112.754.754 0 0 0-.384-.2.736.736 0 0 0-.436.044.5.5 0 0 0-.128.065.772.772 0 0 0-.112.1.748.748 0 0 0 0 1.06.753.753 0 0 0 .53.22.73.73 0 0 0 .148-.016.69.69 0 0 0 .142-.054.91.91 0 0 0 .127-.07.677.677 0 0 0 .2-.2.91.91 0 0 0 .073-.13.888.888 0 0 0 .045-.145A.7.7 0 0 0 4.25 3a.746.746 0 0 0-.015-.15.682.682 0 0 0-.045-.14zM21.7 3.75a.755.755 0 1 0-.53-.22.75.75 0 0 0 .53.22zM13.9 3.75a.748.748 0 1 0-.533-.22.75.75 0 0 0 .533.22zM19.1 3.75a.748.748 0 1 0-.533-.22.746.746 0 0 0 .533.22zM6.1 3.75a.748.748 0 1 0-.533-.22.746.746 0 0 0 .533.22zM24.3 3.75a.755.755 0 1 0-.53-.22.75.75 0 0 0 .53.22zM26.9 3.75a.755.755 0 1 0-.53-.22.75.75 0 0 0 .53.22zM16.5 3.75a.755.755 0 1 0-.53-.22.75.75 0 0 0 .53.22zM8.7 3.75a.748.748 0 1 0-.533-.22.75.75 0 0 0 .533.22zM11.3 3.75a.748.748 0 1 0-.533-.22.75.75 0 0 0 .533.22zM28.81 3.29a.492.492 0 0 0 .065.127.78.78 0 0 0 .095.113.687.687 0 0 0 .112.09.922.922 0 0 0 .128.07.86.86 0 0 0 .145.045.693.693 0 0 0 .145.015.736.736 0 0 0 .287-.058.745.745 0 0 0 .405-.405.75.75 0 0 0-.162-.817.754.754 0 0 0-.384-.2.736.736 0 0 0-.436.044.5.5 0 0 0-.128.065.9.9 0 0 0-.207.206.5.5 0 0 0-.065.128.682.682 0 0 0-.045.14.746.746 0 0 0-.015.146.7.7 0 0 0 .015.145.888.888 0 0 0 .045.145zM29.5 6.25a.755.755 0 1 0-.53-.22.75.75 0 0 0 .53.22zM29.5 18.75a.755.755 0 1 0-.53-.22.75.75 0 0 0 .53.22zM29.5 8.75a.755.755 0 1 0-.53-.22.75.75 0 0 0 .53.22zM29.5 16.25a.755.755 0 1 0-.53-.22.75.75 0 0 0 .53.22zM29.5 21.25a.755.755 0 1 0-.53-.22.75.75 0 0 0 .53.22zM29.5 13.75a.755.755 0 1 0-.53-.22.75.75 0 0 0 .53.22zM29.5 11.25a.755.755 0 1 0-.53-.22.75.75 0 0 0 .53.22zM28.97 23.53a.753.753 0 0 0 .53.22.73.73 0 0 0 .148-.015.69.69 0 0 0 .142-.045.91.91 0 0 0 .127-.07.693.693 0 0 0 .113-.09.745.745 0 0 0 .162-.243.75.75 0 0 0-.162-.817.774.774 0 0 0-1.06 0 .687.687 0 0 0-.09.112.827.827 0 0 0-.07.128.682.682 0 0 0-.045.14.746.746 0 0 0-.015.15.753.753 0 0 0 .057.287.764.764 0 0 0 .163.243zM26.5 13.25h-20a.75.75 0 0 0-.75.75v5a.75.75 0 0 0 .75.75h20a.75.75 0 0 0 .75-.75v-5a.75.75 0 0 0-.75-.75zm-.75 3.25v1.75H7.25v-3.5h18.5z"/><path d="M23.27 17.03a.753.753 0 0 0 .53.22.688.688 0 0 0 .14-.015.713.713 0 0 0 .14-.045.824.824 0 0 0 .136-.07.66.66 0 0 0 .114-.09.693.693 0 0 0 .09-.113.91.91 0 0 0 .07-.127.888.888 0 0 0 .045-.145.7.7 0 0 0 .015-.145.763.763 0 0 0-.334-.625.488.488 0 0 0-.136-.065.707.707 0 0 0-.428-.044.756.756 0 0 0-.382.2.81.81 0 0 0-.168.242.7.7 0 0 0 0 .575.814.814 0 0 0 .168.247zM11.95 15.75h-3a.75.75 0 0 0 0 1.5h3a.75.75 0 0 0 0-1.5zM27.25 8.5V6a.75.75 0 0 0-.75-.75h-20a.75.75 0 0 0-.75.75v5a.75.75 0 0 0 .75.75h20a.75.75 0 0 0 .75-.75zm-1.5 0v1.75H7.25v-3.5h18.5z"/><path d="M23.1 8.79a.76.76 0 0 0 .073.127.948.948 0 0 0 .1.113.463.463 0 0 0 .11.09 1.02 1.02 0 0 0 .13.07.682.682 0 0 0 .14.045.746.746 0 0 0 .15.015.688.688 0 0 0 .14-.015.713.713 0 0 0 .14-.045.824.824 0 0 0 .136-.07.66.66 0 0 0 .113-.09.693.693 0 0 0 .09-.113.91.91 0 0 0 .07-.127.888.888 0 0 0 .045-.145.7.7 0 0 0 .012-.145.746.746 0 0 0-.015-.15.682.682 0 0 0-.045-.14.922.922 0 0 0-.07-.128.687.687 0 0 0-.09-.112.737.737 0 0 0-.114-.095.488.488 0 0 0-.136-.065.707.707 0 0 0-.57 0 .534.534 0 0 0-.13.065.5.5 0 0 0-.11.095.94.94 0 0 0-.1.112.77.77 0 0 0-.073.128.91.91 0 0 0-.036.14.826.826 0 0 0-.013.15.775.775 0 0 0 .014.145 1.226 1.226 0 0 0 .04.145zM11.95 7.75h-3a.75.75 0 0 0 0 1.5h3a.75.75 0 0 0 0-1.5zM25.75 24a.75.75 0 0 0 1.5 0v-2a.75.75 0 0 0-.75-.75h-20a.75.75 0 0 0-.75.75v5a.75.75 0 0 0 .75.75h17a.75.75 0 0 0 0-1.5H7.25v-3.5h18.5V24zM33.11 26.563a.763.763 0 0 0-.373-.274l-1.5-.5-1.5-.5a.768.768 0 0 0-.237-.04.78.78 0 0 0-.238.04l-1.5.5-1.5.5a.757.757 0 0 0-.37.273.746.746 0 0 0-.142.437v3a3.75 3.75 0 0 0 7.5 0v-3a.753.753 0 0 0-.14-.437z"/><path d="M24.33 23.97a.774.774 0 0 0-1.06 0 .748.748 0 0 0 0 1.06.662.662 0 0 0 .24.162.76.76 0 0 0 .29.058.688.688 0 0 0 .14-.015.713.713 0 0 0 .14-.045.824.824 0 0 0 .136-.07.66.66 0 0 0 .114-.09.745.745 0 0 0 .162-.243.75.75 0 0 0-.162-.817zM10.45 23.75h-1.5a.75.75 0 0 0 0 1.5h3a.75.75 0 0 0 0-1.5z"/></svg>