<svg xmlns="http://www.w3.org/2000/svg" viewBox="0 0 36 36"><title>Icons-Red_Hat-Software_and_Technologies-Microservices-A-Black-RGB</title><path d="M31 9.38H15.29a.74.74 0 0 0-.75.75V13h-3.65v-1.87a.74.74 0 0 0-.75-.75H5a.75.75 0 0 0-.75.75v5.14A.76.76 0 0 0 5 17h5.14a.75.75 0 0 0 .75-.75v-1.8h3.65v6.78h-3.65v-1.82a.75.75 0 0 0-.75-.75H5a.76.76 0 0 0-.75.75v5.15a.76.76 0 0 0 .75.75h5.14a.75.75 0 0 0 .75-.75v-1.83h3.65v3.11a.74.74 0 0 0 .75.75H31a.75.75 0 0 0 .75-.75V10.13a.75.75 0 0 0-.75-.75zM9.39 15.52H5.75v-3.64h3.64zm0 8.29H5.75v-3.65h3.64zm20.86 1.28H16V10.88h14.25z"/><path d="M28 13.17a.72.72 0 0 0 .29.06.75.75 0 0 0 .53-.22.78.78 0 0 0 .16-.24.73.73 0 0 0 0-.58.78.78 0 0 0-.16-.24.63.63 0 0 0-.24-.16.73.73 0 0 0-.58 0 .74.74 0 0 0-.4.4.72.72 0 0 0-.06.29.75.75 0 0 0 .22.53.78.78 0 0 0 .24.16zM26.13 13.17a.72.72 0 0 0 .29.06.75.75 0 0 0 .75-.75.72.72 0 0 0-.06-.29A.78.78 0 0 0 27 12a.75.75 0 0 0-.82-.16.63.63 0 0 0-.24.16.81.81 0 0 0-.17.24.93.93 0 0 0 0 .29.71.71 0 0 0 .22.53.78.78 0 0 0 .14.11z"/></svg>