<svg xmlns="http://www.w3.org/2000/svg" viewBox="0 0 32 32"><path d="M19.7 14.36c-.05-.05-.13-.05-.18.01-.05.05-.05.13 0 .18.52.5.81 1.16.81 1.88 0 .74-.32 1.44-.87 1.94-.05.05-.06.13-.01.18.02.03.06.04.1.04.03 0 .06-.01.09-.03.61-.54.96-1.32.96-2.13-.01-.79-.32-1.52-.9-2.07zm1.97-2.66c-.07-.07-.18-.07-.25.01-.07.07-.07.19 0 .26 1.23 1.18 1.91 2.77 1.91 4.47 0 1.73-.73 3.39-2.01 4.57-.07.07-.08.18-.01.25.04.04.08.06.13.06.04 0 .09-.02.12-.05 1.35-1.24 2.13-3 2.13-4.83 0-1.81-.72-3.49-2.02-4.74zm-1.15 1.15c-.06-.06-.16-.06-.22.01-.06.06-.06.16.01.22.93.89 1.44 2.08 1.44 3.36 0 1.32-.57 2.58-1.55 3.45-.06.06-.07.15-.01.22.03.03.07.05.11.05.04 0 .07-.01.1-.04 1.05-.94 1.65-2.28 1.65-3.69.01-1.37-.53-2.64-1.53-3.58zm1.5-3.78c-.15-.15-.39-.15-.54 0l-4.29 4.29v-2.49c0-.11-.06-.2-.16-.25s-.21-.02-.29.05l-3.83 3.69h-3.6c-.15 0-.27.12-.27.27v4.35c0 .15.12.27.27.27h1.99l-2.87 2.87c-.15.15-.15.39 0 .54.07.08.17.11.27.11s.2-.04.27-.11l3.41-3.41h.47l3.89 3.72c.05.05.12.07.18.07.03 0 .07-.01.11-.02.1-.04.16-.14.16-.25v-8.33l4.83-4.83c.15-.15.15-.39 0-.54zm-5.36 13.08l-3.51-3.35c-.05-.05-.12-.07-.19-.07h-.04l3.74-3.74v7.16zm0-8.26l-4.82 4.82H9.58V14.9h3.43c.07 0 .14-.03.19-.07l3.46-3.32v2.38z"/></svg>