<svg xmlns="http://www.w3.org/2000/svg" viewBox="0 0 32 32"><path d="M9.55 19.72l-2.6 4.59-.02.04c-.12.32-.18.65-.18.99 0 1.54 1.26 2.8 2.8 2.8s2.8-1.26 2.8-2.8c0-.33-.06-.67-.18-.99l-2.62-4.63zm0 7.83c-1.22 0-2.21-.99-2.21-2.21 0-.25.05-.51.14-.76l2.07-3.66 2.07 3.66c.09.25.14.5.14.76 0 1.22-.99 2.21-2.21 2.21zm15.4-16.84h-3.04c-.16 0-.3.13-.3.3v1.21h-1.66c-.43-1.08-1.26-1.94-2.34-2.4v-2.4c0-.16-.13-.3-.3-.3h-.71v-.76c.15-.09.28-.21.39-.35l3.41.2c.03 0 .06.01.09.01.55 0 1-.45 1-1 0-.61-.54-1.11-1.19-.98l-3.31.19c-.25-.35-.65-.56-1.08-.56-.43 0-.83.21-1.08.55l-3.43-.19s-.14-.01-.22-.01c-.55 0-1 .45-1 1s.45 1 1 1c.07 0 .21-.01.21-.01L14.83 6c.1.14.22.25.36.34v.78h-.65c-.16 0-.3.13-.3.3v2.35c-1.12.46-2.01 1.37-2.44 2.49-2.07.16-3.73 1.79-3.91 3.85h-.34c-.16 0-.3.13-.3.3v2.46c0 .16.13.3.3.3h4.08c.16 0 .3-.13.3-.3v-2.46c0-.16-.13-.3-.3-.3h-.18c.11-.19.29-.34.51-.39.73 1.5 2.25 2.46 3.94 2.46 1.71 0 3.24-.98 3.96-2.52h1.76v1.22c0 .16.13.3.3.3h3.04c.16 0 .3-.13.3-.3v-5.89c-.01-.15-.14-.28-.31-.28zM11.35 5.6s-.12.01-.18.01c-.22 0-.41-.18-.41-.41s.18-.41.41-.41c.06 0 .17.01.18.01l3.81.22.09-.17c.13-.25.39-.41.66-.41s.53.16.66.41l.09.17 3.74-.22c.03-.01.06-.01.09-.01.22 0 .41.18.41.41 0 .22-.18.4-.41.4l-3.82-.22-.09.17c-.13.25-.39.4-.66.4-.28 0-.53-.15-.66-.4l-.09-.17-3.82.22zm4.14.88c.13.04.28.07.42.07.14 0 .27-.02.39-.06v.63h-.82c.01 0 .01-.64.01-.64zm9.17 10.12h-2.45v-1.22c0-.16-.13-.3-.3-.3h-2.25c-.12 0-.23.07-.28.18-.59 1.42-1.96 2.34-3.49 2.34-1.52 0-2.89-.9-3.48-2.3-.05-.11-.15-.18-.27-.18-.73 0-1.32.55-1.39 1.27-.01.08.02.17.08.23s.14.1.22.1h.28v1.87H7.84v-1.87h.33c.16 0 .29-.13.3-.29.05-1.95 1.61-3.52 3.56-3.58.12 0 .23-.09.27-.2.37-1.11 1.24-2 2.34-2.39.12-.04.2-.15.2-.28V7.72h2.19v2.29c0 .12.08.23.19.28 1.07.4 1.88 1.24 2.25 2.32.04.12.15.2.28.2h2.16c.16 0 .3-.13.3-.3V11.3h2.45v5.3zm-14.4-.18h-1.3c-.08 0-.15.07-.15.15 0 .08.07.15.15.15h1.3c.08 0 .15-.07.15-.15s-.07-.15-.15-.15zm6.11-6.49h-.91c-.08 0-.15.07-.15.15 0 .08.07.15.15.15h.91c.08 0 .15-.07.15-.15 0-.08-.06-.15-.15-.15zm5.69 3.26c-.08 0-.15.07-.15.15v1.13c0 .08.07.15.15.15.08 0 .15-.07.15-.15v-1.13c0-.08-.07-.15-.15-.15zM11.09 24.91c-.08.03-.12.11-.09.19.06.15.09.31.09.47 0 .74-.6 1.34-1.34 1.34-.08 0-.15.07-.15.15 0 .08.07.15.15.15.9 0 1.64-.74 1.64-1.64 0-.2-.04-.39-.11-.58-.03-.07-.11-.11-.19-.08z"/></svg>