<svg id="Layer_1" xmlns="http://www.w3.org/2000/svg" viewBox="0 0 32 32"><style>.st0{fill:#010101;}</style><path class="st0" d="M12.9 28.06c-1.51 0-4.38-1.24-4.38-3.18 0-1.29.9-1.77 1.56-2.11.47-.25.74-.4.74-.67 0-1.15-2.67-2.09-4.11-2.6l-.09-.03c-.11-.04-.18-.13-.2-.25-.06-.55-.15-3.8 1.01-5.11.33-.37.74-.56 1.2-.56 1.15 0 1.71.8 2.16 1.44.42.61.71.98 1.24.98 1.32 0 2.39-1.69 2.39-2.79 0-1.11-1.16-1.34-1.39-1.34-.24 0-.52.12-.81.26-.34.15-.68.31-1.05.31-.63 0-1.52-.52-1.52-1.68 0-1.56 1.68-3.67 1.88-3.86.09-.09.23-.11.35-.05 1.72.89 3.35 1.68 4.49 1.68.93 0 1.06-.46 1.06-.9 0-.2-.08-.54-.15-.87-.08-.36-.16-.7-.16-.95 0-.71.57-1.83 2.11-1.83.95 0 4.08.84 4.08 2.7 0 1.26-.74 1.83-1.33 2.28-.44.34-.69.55-.69.89 0 1.23 2.87 2.2 3.82 2.52.14.05.25.08.33.11.14.05.22.2.19.35l-.02.09c-.27 1.15-1.08 4.63-2.87 4.63-.86 0-1.34-.61-1.76-1.14-.37-.47-.69-.88-1.2-.88-1.12 0-1.82 1.89-1.82 2.69 0 .79.66 1.57 1.34 1.57.42 0 .67-.09.91-.19.22-.08.45-.17.77-.17.74 0 1.14.67 1.14 1.29 0 1.3-1.15 3.07-2.02 4.28-.08.11-.24.16-.36.1-.14-.06-.31-.15-.51-.24-.91-.44-2.44-1.19-3.51-1.19-.96 0-1.21.5-1.21.8 0 .17.07.44.15.71.09.34.19.69.19 1-.05.74-.56 1.91-1.95 1.91zm-5.91-9.1c1.79.64 4.41 1.59 4.41 3.13 0 .64-.54.92-1.06 1.19-.64.34-1.24.66-1.24 1.59 0 1.5 2.49 2.59 3.79 2.59 1.08 0 1.31-.95 1.31-1.31 0-.23-.08-.54-.17-.84-.09-.32-.17-.62-.17-.87 0-.67.56-1.4 1.8-1.4 1.2 0 2.74.75 3.76 1.25.1.05.19.09.27.13.57-.8 1.77-2.58 1.77-3.74 0-.19-.1-.7-.55-.7-.21 0-.37.06-.56.13-.26.1-.59.22-1.12.22-1.01 0-1.93-1.03-1.93-2.16 0-.98.82-3.28 2.42-3.28.8 0 1.26.59 1.67 1.1.39.49.73.92 1.3.92.59 0 1.46-.7 2.26-4.01-.02-.01-.05-.02-.07-.02-1.26-.43-4.22-1.43-4.22-3.08 0-.64.47-1.01.92-1.36.54-.41 1.09-.84 1.09-1.81 0-1.4-2.82-2.11-3.48-2.11-1.48 0-1.52 1.22-1.52 1.24 0 .18.07.51.14.82.08.38.16.73.16 1 0 .97-.59 1.5-1.65 1.5-1.22 0-2.84-.76-4.55-1.64-.44.55-1.56 2.19-1.56 3.28 0 .88.69 1.08.93 1.08.24 0 .52-.12.81-.26.34-.15.68-.31 1.05-.31.69 0 1.98.57 1.98 1.93 0 1.33-1.28 3.39-2.98 3.39-.87 0-1.32-.66-1.73-1.24-.43-.61-.83-1.19-1.67-1.19-.29 0-.54.12-.76.36-.83 1-.9 3.57-.85 4.48z"/></svg>