<svg xmlns="http://www.w3.org/2000/svg" viewBox="0 0 32 32"><path d="M25.11 6.52c.04-.14-.02-.29-.16-.35l-2.82-1.38c-.04-.03-.08-.04-.13-.04H10.43c-.04 0-.08.01-.12.02L7.06 6.16c-.14.06-.21.21-.17.36 0 .02-.01.05-.01.08v20.34c0 .17.14.31.31.31h17.63c.17 0 .31-.14.31-.31V16.78v-.02V6.6c-.01-.03-.02-.06-.02-.08zM10.49 5.36h11.44l1.89.92H8.32c0 .01 2.17-.92 2.17-.92zm14.02 21.27H7.49v-4.46h17.02v4.46zm0-5.07H7.49V17.1h17.02v4.46zm0-5.12H7.49v-4.46h17.02v4.46zm0-7.65v.91-.91zm0 2.57H7.49V6.9h17.02v4.46zM8.6 8.41c0 .23.19.42.42.42s.42-.19.42-.42c0-.23-.19-.42-.42-.42s-.42.19-.42.42zm0 1.5c0 .23.19.42.42.42s.42-.19.42-.42-.18-.42-.42-.42-.42.19-.42.42zm14.73-1.57H10.45c-.08 0-.15-.07-.15-.15 0-.08.07-.15.15-.15h12.87c.08 0 .15.07.15.15.01.08-.06.15-.14.15zm0 .92H10.45c-.08 0-.15-.07-.15-.15s.07-.15.15-.15h12.87c.08 0 .15.07.15.15.01.08-.06.15-.14.15zm0 .92H10.45c-.08 0-.15-.07-.15-.15s.07-.15.15-.15h12.87c.08 0 .15.07.15.15s-.06.15-.14.15zm0 3.37H10.45c-.08 0-.15-.07-.15-.15s.07-.15.15-.15h12.87c.08 0 .15.07.15.15s-.06.15-.14.15zm0 .92H10.45c-.08 0-.15-.07-.15-.15s.07-.15.15-.15h12.87c.08 0 .15.07.15.15s-.06.15-.14.15zm0 .92H10.45c-.08 0-.15-.07-.15-.15s.07-.15.15-.15h12.87c.08 0 .15.07.15.15s-.06.15-.14.15zm0 3.06H10.45c-.08 0-.15-.07-.15-.15s.07-.15.15-.15h12.87c.08 0 .15.07.15.15s-.06.15-.14.15zm0 .92H10.45c-.08 0-.15-.07-.15-.15s.07-.15.15-.15h12.87c.08 0 .15.07.15.15s-.06.15-.14.15zm0 .92H10.45c-.08 0-.15-.07-.15-.15s.07-.15.15-.15h12.87c.08 0 .15.07.15.15s-.06.15-.14.15zm0 3.37H10.45c-.08 0-.15-.07-.15-.15s.07-.15.15-.15h12.87c.08 0 .15.07.15.15s-.06.15-.14.15zm0 .92H10.45c-.08 0-.15-.07-.15-.15s.07-.15.15-.15h12.87c.08 0 .15.07.15.15s-.06.15-.14.15zm0 .92H10.45c-.08 0-.15-.07-.15-.15s.07-.15.15-.15h12.87c.08 0 .15.07.15.15s-.06.15-.14.15zM8.6 13.62c0 .23.19.42.42.42s.42-.19.42-.42c0-.23-.19-.42-.42-.42s-.42.19-.42.42zm0 1.5c0 .23.19.42.42.42s.42-.19.42-.42-.18-.42-.42-.42-.42.19-.42.42zm0 3.41c0 .23.19.42.42.42s.42-.19.42-.42c0-.23-.19-.42-.42-.42s-.42.19-.42.42zm0 1.49c0 .23.19.42.42.42s.42-.19.42-.42c0-.23-.19-.42-.42-.42s-.42.19-.42.42zm0 3.72c0 .23.19.42.42.42s.42-.19.42-.42c0-.23-.19-.42-.42-.42s-.42.19-.42.42zm0 1.49c0 .23.19.42.42.42s.42-.19.42-.42c0-.23-.19-.42-.42-.42s-.42.19-.42.42z"/></svg>