<svg xmlns="http://www.w3.org/2000/svg" viewBox="0 0 32 32"><path d="M15.58 15.67c0 .23.19.42.42.42.23 0 .42-.19.42-.42 0-.23-.19-.42-.42-.42-.23-.01-.42.18-.42.42zm-1.4-.43v.01c0 .23.19.42.42.42s.42-.19.42-.42v-.01-.01c0-.23-.19-.42-.42-.42s-.42.19-.42.42v.01zm2.76 0c0 .01 0 .01 0 0 0 .24.19.43.42.43.23 0 .42-.19.42-.42v-.01c0-.23-.19-.42-.42-.42s-.42.19-.42.42zm.84-1.06v.01c0 .23.19.42.42.42s.42-.19.42-.42v-.01-.01c0-.23-.19-.42-.42-.42-.23 0-.42.19-.42.42v.01zm.54-1.22c0 .24.19.43.42.43s.42-.19.42-.42v-.01c0-.23-.19-.42-.42-.42-.24-.01-.42.18-.42.42 0-.01 0 0 0 0zm-4.99 1.22c0 .01 0 .01 0 0 0 .24.19.43.42.43s.42-.19.42-.42v-.01c0-.23-.19-.42-.42-.42s-.42.19-.42.42zm-.42-1.22v.01c0 .23.19.42.42.42s.42-.19.42-.42v-.01-.01c0-.23-.19-.42-.42-.42s-.42.19-.42.42v.01zM16 10.74c2.35 0 4.26-1.91 4.26-4.25S18.34 2.23 16 2.23s-4.25 1.91-4.25 4.26 1.9 4.25 4.25 4.25zm0-7.89c2.01 0 3.64 1.63 3.64 3.64s-1.63 3.64-3.64 3.64-3.64-1.63-3.64-3.64S13.99 2.85 16 2.85zm2.33 8.72h-4.67c-4.34 0-6.73 2.39-6.73 6.73v3.75c0 2.12 1.41 3.16 2.9 4.26l.2.15v1.71c0 .08.03.15.08.2.29.33 1.58 1.41 5.88 1.41s5.59-1.08 5.88-1.41c.05-.06.08-.13.08-.2v-1.71l.2-.15c1.5-1.1 2.91-2.14 2.91-4.26V18.3c0-4.35-2.39-6.73-6.73-6.73zm6.12 10.47c0 1.81-1.23 2.72-2.65 3.77V18c0-.15-.12-.27-.27-.27s-.27.12-.27.27v10.1c-.44.35-1.77 1.06-5.26 1.06-3.62 0-4.91-.76-5.3-1.09.01-.02.02-.05.02-.08V18c0-.15-.12-.27-.27-.27s-.27.12-.27.27v7.79c-1.41-1.04-2.63-1.94-2.63-3.74V18.3c0-2.79 1.06-6.11 6.11-6.11h4.67c5.05 0 6.11 3.32 6.11 6.11l.01 3.74z"/></svg>