<svg xmlns="http://www.w3.org/2000/svg" viewBox="0 0 36 36"><title>Icon-Red_Hat-Diagrams-Community_People-A-Black-RGB</title><path d="M13.23 15.77a5.75 5.75 0 0 1 9.56 0 .73.73 0 0 0 .62.33.79.79 0 0 0 .42-.12A.76.76 0 0 0 24 15a7.24 7.24 0 0 0-3.41-2.74 4 4 0 1 0-5.26 0A7.31 7.31 0 0 0 12 14.93a.75.75 0 1 0 1.24.84zm2.27-6.54a2.5 2.5 0 1 1 2.5 2.5 2.51 2.51 0 0 1-2.5-2.5zM15.36 18.23a.75.75 0 0 0 0 1.5h5.28a.75.75 0 0 0 0-1.5zM28.62 23.23a4 4 0 1 0-5.24 0A7.26 7.26 0 0 0 18.75 30a.75.75 0 0 0 .75.75h13a.75.75 0 0 0 .75-.75 7.26 7.26 0 0 0-4.63-6.77zm-5.12-3a2.5 2.5 0 1 1 2.5 2.5 2.51 2.51 0 0 1-2.5-2.5zm-3.2 9a5.75 5.75 0 0 1 11.4 0zM12.62 23.23a4 4 0 1 0-5.24 0A7.26 7.26 0 0 0 2.75 30a.75.75 0 0 0 .75.75h13a.75.75 0 0 0 .75-.75 7.26 7.26 0 0 0-4.63-6.77zm-5.12-3a2.5 2.5 0 1 1 2.5 2.5 2.51 2.51 0 0 1-2.5-2.5zm-3.2 9a5.75 5.75 0 0 1 11.4 0z"/></svg>