<svg data-name="Layer 1" xmlns="http://www.w3.org/2000/svg" viewBox="0 0 36 36"><title>Icon-Red_Hat-Software_and_technologies-Container_Private-A-Black-RGB</title><path d="M15.75 16a2.25 2.25 0 0 0 .9 1.79l-.88 3.53a.77.77 0 0 0 .14.64.75.75 0 0 0 .59.29h3a.75.75 0 0 0 .59-.29.77.77 0 0 0 .14-.64l-.88-3.53a2.25 2.25 0 1 0-3.6-1.79zM29 11.22L18.38 5.09a.74.74 0 0 0-.76 0L7 11.22a.74.74 0 0 0-.37.65v12.26a.74.74 0 0 0 .37.65l10.62 6.13a.71.71 0 0 0 .76 0L29 24.78a.74.74 0 0 0 .37-.65V11.87a.74.74 0 0 0-.37-.65zM27.87 23.7L18 29.4l-9.87-5.7V12.3L18 6.6l9.87 5.7z"/></svg>