<svg xmlns="http://www.w3.org/2000/svg" viewBox="0 0 32 32"><path d="M10.99 14.8c.07.07.17.11.27.11s.2-.04.27-.11l1.35-1.35 1.35 1.35c.07.07.17.11.27.11s.2-.04.27-.11c.15-.15.15-.39 0-.54l-1.35-1.35 1.35-1.35c.15-.15.15-.39 0-.54s-.39-.15-.54 0l-1.35 1.35-1.35-1.35c-.15-.15-.39-.15-.54 0s-.15.39 0 .54l1.35 1.35-1.35 1.35c-.15.15-.15.39 0 .54zm15.65-.91c-.72-3.67-3.12-6.5-6.44-7.66l.1-.4c.01-.03 0-.05-.02-.07-.02-.02-.04-.03-.07-.02L18.78 6c-.03.01-.05.03-.06.05-.01.03 0 .06.02.07l1.14.92c.02.02.05.02.07.01.02-.01.04-.03.05-.05l.08-.33c3.15 1.12 5.42 3.81 6.1 7.3.75 3.83-.82 8.1-3.93 10.75-.33-.38-.82-.63-1.37-.63-1 0-1.81.81-1.81 1.81s.81 1.81 1.81 1.81 1.81-.81 1.81-1.81c0-.28-.07-.55-.18-.79 3.26-2.74 4.92-7.22 4.13-11.22zm-5.75 13.06c-.58 0-1.04-.47-1.04-1.04 0-.58.47-1.04 1.04-1.04s1.04.47 1.04 1.04c0 .57-.47 1.04-1.04 1.04zm-1.59-9.31c.08.08.17.11.27.11s.2-.04.27-.11l1.35-1.35 1.35 1.35c.08.08.17.11.27.11s.2-.04.27-.11c.15-.15.15-.39 0-.54l-1.35-1.35 1.35-1.35c.15-.15.15-.39 0-.54s-.39-.15-.54 0l-1.35 1.35-1.35-1.35c-.15-.15-.39-.15-.54 0-.15.15-.15.39 0 .54l1.35 1.35-1.35 1.35c-.15.14-.15.39 0 .54zm-4.45 5.98c-.15-.15-.39-.15-.54 0l-1.35 1.35-1.35-1.35c-.15-.15-.39-.15-.54 0-.15.15-.15.39 0 .54l1.35 1.35-1.35 1.35c-.15.15-.15.39 0 .54.07.08.17.11.27.11s.2-.04.27-.11l1.35-1.35 1.35 1.35c.07.08.17.11.27.11s.2-.04.27-.11c.15-.15.15-.39 0-.54l-1.35-1.35 1.35-1.35c.15-.15.15-.39 0-.54zm2.8-3.36c-.25 0-.49.05-.7.14l-2.18-3.99 1.11-.61-.22-.4-2.62 1.43.22.4 1.11-.61 2.19 4.01c-.43.33-.71.85-.71 1.43 0 1 .81 1.81 1.81 1.81s1.81-.81 1.81-1.81c-.01-.99-.82-1.8-1.82-1.8zm0 2.85c-.58 0-1.04-.47-1.04-1.04 0-.57.47-1.04 1.04-1.04s1.04.47 1.04 1.04c0 .58-.47 1.04-1.04 1.04zM9.88 20.8c-.02-.01-.05-.01-.07 0l-.32.2-3.84-5.55c-.19-1.97.62-4.1 2.23-5.86 1.52-1.67 3.58-2.81 5.69-3.18.15.85.89 1.49 1.78 1.49 1 0 1.81-.81 1.81-1.81s-.81-1.81-1.81-1.81c-.95 0-1.72.73-1.8 1.66-2.24.37-4.43 1.59-6.05 3.38-1.69 1.87-2.53 4.14-2.31 6.24l.01.04 3.89 5.63-.32.19c-.02.01-.04.04-.04.06 0 .03.01.05.03.06l1.19.83c.02.02.05.02.08 0 .02-.01.04-.04.04-.07l-.15-1.45c0-.01-.02-.04-.04-.05zm5.48-15.75c.57 0 1.04.47 1.04 1.04s-.47 1.04-1.04 1.04-1.04-.47-1.04-1.04.46-1.04 1.04-1.04z"/></svg>