<svg xmlns="http://www.w3.org/2000/svg" viewBox="0 0 32 32"><path d="M22.15 18.41c-.28-.61-.72-1.12-1.28-1.49.02-.08.03-.17.03-.26 0-.54-.44-.98-.98-.98-.41 0-.78.26-.92.65h-.09c-.81 0-1.59.28-2.22.78l-.32-.26c-.02-.02-.06-.03-.09-.03l-.04.01c-.04.02-.08.05-.09.1l-.3 1.14c-.33.55-.5 1.18-.5 1.82 0 .07 0 .14.01.21-.33.16-.54.5-.54.87 0 .54.44.98.98.98.07 0 .13-.01.2-.02.47.68 1.17 1.17 1.96 1.39l-.03.37c0 .05.02.09.05.12.02.02.05.03.09.03.01 0 .03 0 .05-.01l1.12-.4c.62-.06 1.22-.27 1.73-.64.16.11.36.17.55.17.54 0 .98-.44.98-.98 0-.27-.11-.52-.3-.7.19-.44.29-.92.29-1.4 0-.09 0-.18-.01-.27l.4-.13c.04-.01.08-.05.09-.1.01-.04 0-.09-.03-.13l-.79-.84zm-2.78-1.95c.09-.24.31-.39.56-.39.33 0 .6.27.6.6 0 .05-.01.1-.02.15-.02.07-.05.13-.08.18-.11.16-.3.26-.49.26-.33 0-.6-.27-.6-.6 0-.07.01-.14.03-.2zm-3.28 5.04c-.06.03-.12.06-.19.07-.03 0-.06.01-.09.01-.33 0-.6-.27-.6-.6 0-.22.12-.41.31-.52.06-.03.12-.06.19-.07.03-.01.06-.01.1-.01.33 0 .6.27.6.6-.01.21-.13.41-.32.52zm4.61 1.03c-.48.33-1.04.51-1.62.54l-.86-.49c-.02-.01-.04-.02-.07-.02-.02 0-.04.01-.06.02-.04.02-.07.06-.07.11l-.02.25c-.65-.2-1.23-.61-1.64-1.16.26-.18.42-.48.42-.8 0-.54-.44-.98-.98-.98h-.06v-.11c0-.62.18-1.22.52-1.74l.89-.43c.04-.02.07-.06.08-.11s-.01-.09-.05-.12l-.18-.13c.55-.42 1.23-.65 1.92-.65h.04c.03.51.45.93.98.93.3 0 .59-.14.77-.38.52.35.91.83 1.15 1.4l-.12.99c-.01.05.01.09.05.12.02.02.06.03.09.03l.23-.07v.16c0 .41-.08.81-.24 1.2-.11-.04-.23-.07-.35-.07-.54 0-.98.44-.98.98.01.19.06.37.16.53zm.82.07c-.12 0-.23-.03-.33-.1-.06-.04-.11-.08-.15-.14-.08-.11-.12-.23-.12-.36 0-.33.27-.6.6-.6.09 0 .18.02.26.06.06.03.12.07.16.12.11.11.17.26.17.42.01.33-.26.6-.59.6zm4.09-10.93c-.9-2.93-3.64-4.97-6.72-4.97-3.09 0-5.81 2.02-6.71 4.94-.5-.18-1.03-.27-1.57-.27-2.19 0-4.07 1.5-4.56 3.61-1.95.07-3.6 1.43-4.04 3.35-.02.09 0 .18.06.25s.14.11.23.11h10.05c-.05.31-.07.63-.07.95 0 3.66 2.98 6.65 6.65 6.65s6.65-2.98 6.65-6.65c0-.33-.02-.64-.07-.95h4.39c.14 0 .26-.1.29-.24.06-.36.09-.68.09-1-.02-2.8-1.97-5.2-4.67-5.78zm-6.69 14.01c-3.33 0-6.03-2.71-6.03-6.03s2.71-6.03 6.03-6.03 6.03 2.71 6.03 6.03-2.71 6.03-6.03 6.03zm10.71-7.57h-4.25c-.7-2.93-3.33-5.11-6.47-5.11s-5.77 2.18-6.47 5.11H2.67c.5-1.51 1.9-2.54 3.55-2.54h.05c.15.01.27-.1.29-.24.35-1.95 2.05-3.37 4.04-3.37.53 0 1.05.11 1.54.31.3.15.95.52 1.35 1.2.05.08.14.12.23.1.02-.01.05-.01.07-.03.1-.06.14-.2.08-.3-.35-.58-.84-.96-1.21-1.19.76-2.81 3.31-4.76 6.22-4.76 2.8 0 5.27 1.79 6.12 4.44-.75-.01-1.31.27-1.34.28-.11.05-.17.17-.12.29.05.11.17.16.28.12.01 0 .78-.31 1.66-.16 2.44.53 4.2 2.69 4.2 5.2 0 .2-.01.42-.05.65z"/></svg>