<svg xmlns="http://www.w3.org/2000/svg" width="32" height="32" viewBox="0 0 32 32"><path d="M9.258 16.03c-.007 0-.014 0-.022-.002-1.262-.178-2.334-.404-3.184-.67-.08-.026-.126-.112-.1-.193.025-.08.11-.126.192-.1.834.262 1.888.484 3.135.66.083.012.14.09.13.174-.012.076-.077.13-.153.13zm6.4.486c-1.283 0-2.544-.044-3.746-.13-.126-.01-.222-.12-.212-.247.01-.128.12-.222.246-.214 1.19.086 2.44.13 3.713.13 3.916 0 7.51-.413 9.613-1.105.12-.04.25.027.29.147.04.12-.026.25-.147.29-2.146.706-5.794 1.128-9.757 1.128zm0 7.104c-5.865 0-11.8-.937-11.8-2.727v-7.027c0-1.79 5.936-2.727 11.8-2.727 5.865 0 11.802.936 11.802 2.726v7.026c0 1.79-5.937 2.728-11.802 2.728zm0-11.87c-6.932 0-11.188 1.233-11.188 2.115v7.026c0 .884 4.257 2.115 11.188 2.115 6.932 0 11.19-1.232 11.19-2.114v-7.026c0-.883-4.257-2.114-11.19-2.114z"/></svg>