<svg xmlns="http://www.w3.org/2000/svg" width="32" height="32" viewBox="0 0 32 32"><path d="M27.374 21.692L23.1 17.014c.007-.022.036-.036.06-.044.253-.08.717-.214 1.03-.3l2.87-.795c.097-.027.394-.11.384-.353-.01-.244-.313-.302-.412-.322l-3.028-.584c-.3-.058-.7-.136-.937-.185l4.045-4.54c.258-.288.2-.5.142-.6-.058-.1-.21-.256-.59-.177l-6.15 1.273c-.004-.02-.005-.05.014-.106.103-.293.263-.793.358-1.113l.785-2.66c.06-.206.055-.348-.02-.448-.05-.068-.128-.107-.213-.107-.112 0-.227.063-.363.2L19.008 8.24c-.233.235-.58.604-.776.822-.028.03-.048.042-.064.047L16.24 3.28c-.12-.367-.334-.423-.45-.423-.114 0-.326.055-.448.422l-2.005 6.06c-.16-.164-.466-.493-.684-.734l-2.037-2.254c-.134-.148-.25-.218-.364-.218-.082 0-.157.037-.207.102-.074.096-.083.236-.03.44l1.036 3.91-5.978-1.24c-.38-.078-.532.078-.59.18-.06.1-.117.31.14.6l4.154 4.663c-.21.047-.56.132-.84.2l-2.974.733c-.263.065-.396.18-.397.344 0 .163.134.28.396.344l2.958.733.992.245-4.15 4.657c-.256.29-.198.5-.14.6.046.08.157.2.4.2.056 0 .12-.007.19-.022l6.124-1.268-.25.817-.908 3.035c-.06.206-.056.347.018.446.05.067.126.105.21.105.113 0 .227-.065.363-.204l2.13-2.193.763-.78c.027-.027.048-.037.06-.038l1.975 5.974c.122.368.334.423.45.423s.326-.056.448-.424l2-6.05c.005 0 .01-.003.013-.002l2.908 2.89c.136.136.25.2.36.2.085 0 .163-.04.212-.108.096-.132.05-.32.008-.45l-.944-2.886c-.102-.31-.24-.756-.31-.99-.006-.018-.005-.023-.004-.028l6.098 1.18c.068.014.128.02.183.02.25 0 .36-.12.406-.204.058-.1.114-.313-.147-.6zm-3.447-6.67l2.747.53-2.592.72c-.318.086-.787.223-1.043.303-.08.024-.145.063-.2.112.022-.226.034-.456.034-.688 0-.43-.042-.85-.118-1.26.052.044.117.075.19.09l.98.193zm2.615-5.32l-3.933 4.415c-.356-1.242-1.05-2.343-1.98-3.19L26.544 9.7zm-8.245-.198c.076-.025.16-.07.242-.164.19-.214.532-.576.76-.807l1.91-1.927-.72 2.446c-.094.315-.25.806-.353 1.093-.04.116-.046.226-.027.326l-.02.005.003.008c-.55-.41-1.162-.736-1.82-.966l.025-.01v-.002zM15.79 3.682l1.87 5.65c-.53-.132-1.086-.203-1.657-.203-.742 0-1.456.12-2.126.337l1.914-5.785zm-5.31 3.14l1.866 2.064c.22.245.533.58.696.746.044.045.094.08.146.102-.614.277-1.18.64-1.68 1.076.006-.044.005-.09-.007-.138l-1.02-3.85zM5.19 9.94l5.93 1.228c-.9.91-1.55 2.073-1.832 3.37L5.19 9.94zm4.026 4.977c0 .003 0 .006-.002.01v-.01h.002zm-1.2 1.825l-2.722-.674 2.738-.674c.317-.078.728-.177.913-.22.13-.03.226-.114.266-.234-.053.345-.08.698-.08 1.058 0 .38.03.753.09 1.117-.055-.06-.127-.105-.216-.127-.226-.058-.67-.168-.99-.247zM5.33 22.236l4.02-4.512c.33 1.272 1.016 2.402 1.946 3.277L5.33 22.237zm8.034.256l-.762.782-1.96 2.014.84-2.796c.093-.313.216-.716.272-.896.02-.067.022-.133.008-.195.522.41 1.103.748 1.73.994-.045.026-.09.057-.128.098zm2.78 5.827l-1.873-5.67c.555.145 1.134.222 1.732.222.713 0 1.4-.11 2.048-.312l-1.905 5.758zm5.476-3.243l-2.72-2.704c-.04-.038-.08-.066-.124-.09.6-.264 1.154-.613 1.65-1.03-.006.06 0 .122.018.186.07.237.21.688.314 1l.862 2.637zm-5.618-2.62c-3.56 0-6.457-2.896-6.457-6.457 0-3.56 2.897-6.457 6.457-6.457S22.46 12.44 22.46 16s-2.897 6.458-6.458 6.458zm4.953-1.702c.873-.91 1.5-2.055 1.77-3.333l4.08 4.466-5.85-1.133z"/></svg>