<?xml version="1.0" encoding="UTF-8"?><svg id="a" xmlns="http://www.w3.org/2000/svg" viewBox="0 0 36 36"><defs><style>.b{fill:none;}</style></defs><path class="b" d="M20.85,18.04c.07-.37,.19-.72,.34-1.05l-.24,.13c-.72,.38-1.31-.71-.59-1.1l1.76-.95c.3-.16,.68-.05,.85,.25l.95,1.76c.38,.72-.71,1.31-1.1,.59l-.3-.56c-.47,.8-.66,1.83-.29,2.72l.6,.67c.99,1.02,2.83,1.03,4.12,.65,2-.6,3.46-2.56,3.43-4.66,.1-4.24-5.39-6.52-8.31-3.45l-3.02,3.25,1.79,1.99c.01-.08,0-.17,.02-.25Z"/><path d="M31,24.38H5c-.81,0-.82,1.25,0,1.25H31c.81,0,.82-1.25,0-1.25Z"/><path d="M10.5,22.62c1.64,0,3.19-.64,4.35-1.81l3.34-3.6,3.68,4.09c.41,.48,.81,.7,1.33,.92,3.85,1.61,8.56-1.52,8.43-5.73,.09-5.36-6.73-8.19-10.46-4.33-.02,0-2.95,3.19-2.97,3.2l-1.02-1.13h.65c.82,0,.82-1.25,0-1.25h-2c-.35,.02-.68,.26-.67,.64v2c0,.82,1.25,.82,1.25,0v-.37l.93,1.04-3.41,3.67c-4.7,4.4-11.29-2.22-6.88-6.91,1.81-1.89,5.08-1.89,6.89,0,.24,.24,.64,.25,.88,0,.24-.24,.24-.64,0-.88-1.16-1.16-2.69-1.79-4.33-1.79-8.1,.24-8.09,12.01,0,12.25Zm11.56-9.58c2.93-3.07,8.42-.79,8.31,3.45,.07,2.99-2.85,5.34-5.76,4.83-.64-.1-1.39-.37-1.79-.83l-.6-.67c-.37-.88-.18-1.92,.29-2.72l.3,.56c.39,.72,1.48,.13,1.1-.59l-.95-1.76c-.16-.3-.54-.42-.85-.25l-1.76,.95c-.72,.39-.13,1.49,.59,1.1l.24-.13c-.18,.41-.35,.85-.36,1.3l-1.79-1.99,3.02-3.25Z"/></svg>