<svg data-name="Layer 1" xmlns="http://www.w3.org/2000/svg" viewBox="0 0 36 36"><title>Icon-Red_Hat-No_smoking-A-Black-RGB</title><path d="M25.16 28.224a.754.754 0 0 0-.565.1A12.25 12.25 0 0 1 7.635 11.47a.75.75 0 0 0-1.27-.8A13.75 13.75 0 0 0 25.4 29.588a.75.75 0 0 0-.243-1.364z"/><path d="M27.718 8.282a13.727 13.727 0 0 0-19.24-.2.75.75 0 0 0-.02 1.058l8.742 9.11H9a.75.75 0 0 0-.75.75v3a.75.75 0 0 0 .75.75h12.517l4.94 5.148a.724.724 0 0 0 .252.173.75.75 0 0 0 .563.007c.01 0 .016-.013.025-.017a.722.722 0 0 0 .22-.14 13.737 13.737 0 0 0 .2-19.64zM12.25 20.5v.75h-2.5v-1.5h2.5zm5.75.75h-4.25v-1.5h4.89l1.438 1.5zm4.25-.75v.75h-.094l-1.44-1.5h1.534zm7.027 2.31A12.178 12.178 0 0 1 27 26.293l-3.553-3.7a.65.65 0 0 0 .088-.06.745.745 0 0 0 .22-.53V19a.75.75 0 0 0-.75-.75h-3.728l-.737-.77-8.456-8.812a12.253 12.253 0 0 1 19.193 14.14z"/><path d="M25.97 13.47a.744.744 0 0 0-.22.53.363.363 0 0 1-.053.212 1.6 1.6 0 0 1-.228.258 2.79 2.79 0 0 0-.468.57 1.962 1.962 0 0 0 0 1.923 2.81 2.81 0 0 0 .467.568 1.693 1.693 0 0 1 .227.26.368.368 0 0 1 .053.21.36.36 0 0 1-.053.21 1.606 1.606 0 0 1-.228.258 2.818 2.818 0 0 0-.468.57 1.85 1.85 0 0 0-.252.962.75.75 0 0 0 1.5 0 .36.36 0 0 1 .052-.21 1.606 1.606 0 0 1 .228-.258 2.818 2.818 0 0 0 .47-.57 1.954 1.954 0 0 0 0-1.922 2.79 2.79 0 0 0-.467-.57 1.6 1.6 0 0 1-.228-.257.362.362 0 0 1-.055-.213.367.367 0 0 1 .052-.213 1.693 1.693 0 0 1 .228-.258 2.81 2.81 0 0 0 .47-.568 1.855 1.855 0 0 0 .25-.962.75.75 0 0 0-1.28-.53z"/></svg>