<svg xmlns="http://www.w3.org/2000/svg" viewBox="0 0 32 32"><path d="M28.09 23.49l-2.39-2.98c-.03-.33-.19-.62-.43-.82.26-.23.43-.56.43-.93V8.32c0-.68-.56-1.24-1.24-1.24H7.72c-.68 0-1.24.56-1.24 1.24v10.44c0 .37.17.7.43.93-.23.2-.39.49-.43.82L3.9 23.49c-.05.06-.07.13-.07.2 0 .82.31 1.24.93 1.24h22.46c.62 0 .93-.42.93-1.24.01-.08-.01-.15-.06-.2zm-21-15.17c0-.35.28-.63.63-.63h16.75c.35 0 .63.28.63.63v10.44c0 .35-.28.63-.63.63H7.72c-.35 0-.63-.28-.63-.63V8.32zm20.14 15.99H4.77c-.13 0-.3 0-.32-.52l2.57-2.97c.05-.06.07-.13.07-.2 0-.35.28-.63.63-.63h16.75c.35 0 .63.28.63.63 0 .07.02.14.07.19l2.38 2.97c-.02.53-.19.53-.32.53zM7.19 21.95h17.78c.08 0 .15-.07.15-.15 0-.08-.07-.15-.15-.15H7.19c-.09 0-.15.07-.15.15s.06.15.15.15zm1.36-3.16h15.1c.42 0 .76-.37.76-.82V9.22c0-.45-.34-.82-.76-.82h-7.08c0-.02.01-.04.01-.06 0-.27-.22-.48-.48-.48s-.48.22-.48.48c0 .02 0 .04.01.06H8.55c-.42 0-.77.37-.77.82v8.76c0 .45.34.81.77.81zm-.31-9.57c0-.2.14-.36.31-.36h15.1c.17 0 .31.16.31.36v8.76c0 .2-.14.36-.31.36H8.55c-.17 0-.31-.16-.31-.36V9.22zm-.51 11.7h16.76c.08 0 .15-.07.15-.15 0-.08-.07-.15-.15-.15H7.73c-.09 0-.15.07-.15.15s.07.15.15.15zm-1.6 1.91c0 .08.07.15.15.15h19.27c.08 0 .15-.07.15-.15 0-.08-.07-.15-.15-.15H6.29c-.09 0-.16.07-.16.15zm10-5.18c.59 0 1.09-.5 1.09-1.09s-.5-1.09-1.09-1.09c-.59 0-1.09.5-1.09 1.09s.5 1.09 1.09 1.09zm0-1.78c.37 0 .69.31.69.69s-.31.69-.69.69c-.37 0-.69-.31-.69-.69s.32-.69.69-.69zm-.69-.81c.01.1.1.18.2.18h.98c.1 0 .19-.08.2-.18l.24-2.03v-3c0-.11-.09-.2-.2-.2H15.4c-.11 0-.2.09-.2.2v3.03l.24 2zm.16-4.83h1.06v2.78l-.22 1.83h-.63l-.22-1.8c.01-.01.01-2.81.01-2.81z"/></svg>