<svg xmlns="http://www.w3.org/2000/svg" viewBox="0 0 36 36"><title>Icon-Red_Hat-Software_and_technologies-Gateway-A-Black-RGB</title><path d="M30 5.23H6a.76.76 0 0 0-.75.77v24a.75.75 0 0 0 .75.75h24a.75.75 0 0 0 .75-.75V6a.76.76 0 0 0-.75-.77zm-.75 24H6.75V6.73h22.5z"/><path d="M20.2 16.53a.74.74 0 0 0 .53-.22l3.72-3.72v.59a.75.75 0 0 0 1.5 0v-2.42a.58.58 0 0 0-.05-.26 1.1 1.1 0 0 0-.14-.21h-.06a.91.91 0 0 0-.16-.11h-.07a.76.76 0 0 0-.27-.18h-2.4a.75.75 0 0 0 0 1.5h.59l-3.72 3.72a.75.75 0 0 0 0 1.06.74.74 0 0 0 .53.25zM15.27 19.65l-3.72 3.72v-.59a.75.75 0 0 0-1.5 0v2.4a.81.81 0 0 0 0 .27v.07a.7.7 0 0 0 .1.16v.05a.6.6 0 0 0 .21.14.74.74 0 0 0 .29.05h2.4a.75.75 0 0 0 0-1.5h-.59l3.72-3.71a.77.77 0 0 0 0-1.07.75.75 0 0 0-.91.01zM20.2 23.33a.75.75 0 0 0 .75-.75V22l4.72 4.72a.77.77 0 0 0 1.06 0 .77.77 0 0 0 0-1.07L22 20.93h.59a.75.75 0 0 0 0-1.5h-2.42a.8.8 0 0 0-.26 0 .6.6 0 0 0-.21.14l-.05.05a.86.86 0 0 0-.1.16v.07a.8.8 0 0 0-.05.26v2.4a.75.75 0 0 0 .7.82zM14 15h-.6a.75.75 0 0 0 0 1.5h2.4a.75.75 0 0 0 .26-.05h.07a.91.91 0 0 0 .16-.11l.06-.05a1.1 1.1 0 0 0 .14-.21.58.58 0 0 0 .05-.26v-2.44a.75.75 0 1 0-1.5 0V14l-4.71-4.75a.75.75 0 0 0-1.06 1.06z"/></svg>