<svg xmlns="http://www.w3.org/2000/svg" viewBox="0 0 32 32"><path d="M25.42 15.91h-1.23v-4.39c0-.17-.14-.31-.31-.31h-5.34V4.03c0-.13-.1-.23-.23-.23h-1.35c-.13 0-.23.1-.23.23v7.18h-.9V4.03c0-.13-.1-.23-.23-.23h-1.35c-.13 0-.23.1-.23.23v7.18h-1.29c-.17 0-.31.14-.31.31v4.39h-2.37V6.15c0-.13-.1-.23-.23-.23H8.1c-.13 0-.23.1-.23.23v9.76H6.58c-.17 0-.31.14-.31.31v10.43c0 .17.14.31.31.31h18.84c.17 0 .31-.14.31-.31V16.21c-.01-.17-.14-.3-.31-.3zm-.31 8.86h-3.4v-2.32h3.4v2.32zm0-2.63H6.89v-1.33h18.22v1.33zm-3.71.31v2.32h-3.17v-2.32h3.17zm-3.47 0v2.32h-3.5v-2.32h3.5zm-3.81 0v2.32h-3.19v-2.32h3.19zm-7.23-4.27h3.74v2.32H6.89v-2.32zm0 6.15v-1.88h3.74v2.32H6.89v-.44zm4.04-3.82v-2.32h3.19v2.32h-3.19zm3.5 0v-2.32h3.5v2.32h-3.5zm3.81 0v-2.32h3.17v2.32h-3.17zm6.87-.05v.05h-3.4v-2.32h3.4v2.27zm-12.06-5.14h10.52v.58H13.05v-.58zm0-.38v-2.22h3.14v2.3h-3.14v-.08zm3.45.08v-2.3H20v2.3h-3.5zm7.08-2.22v2.22h-3.27v-2.3h3.27v.08zM17.2 4.26h.89v6.95h-.89V4.26zm-2.71 0h.89v6.95h-.89V4.26zm-1.44 7.57h10.52v.59H13.05v-.59zM8.33 6.38h1.28v9.52H8.33V6.38zM6.89 17.44v-.93h18.22v1.36H6.89v-.43zm-.45 3.38v-.31.31zm18.67 5.52H6.89v-1.25h18.22v1.25z"/></svg>