<svg xmlns="http://www.w3.org/2000/svg" width="32" height="32" viewBox="0 0 32 32"><path d="M25.29 6.66c.037-.14-.022-.288-.156-.354l-2.818-1.38c-.042-.02-.09-.03-.134-.03H10.61c-.04 0-.082.008-.12.024L7.246 6.3c-.142.06-.21.214-.17.36-.008.025-.017.05-.017.08v10.15c0 .008.003.014.003.02 0 .01-.004.014-.004.02v10.153c0 .17.136.306.305.306H25c.17 0 .305-.14.305-.307V16.93c0-.007-.004-.013-.004-.02.002-.006.005-.013.005-.02V6.74c0-.03-.01-.055-.016-.08zM10.672 5.507H22.11l1.887.924h-15.5l2.174-.924zm14.02 3.118v18.15H7.673V7.046h17.02v1.58zm-7.846 16.37h6.997c.085 0 .154-.07.154-.155V8.098c0-.085-.07-.154-.154-.154h-6.997c-.085 0-.154.07-.154.154V24.84c0 .086.07.155.154.155zm6.843-9.333H17v-3.6h6.69v3.6zM17 24.686V15.97h6.688v8.716H17zM23.69 8.25v3.504H17V8.25h6.69zm-5.88 1.41h5.116c.17 0 .31-.138.31-.31 0-.17-.14-.308-.31-.308H17.81c-.17 0-.308.138-.308.31 0 .17.14.308.31.308zm0 1.35h5.116c.17 0 .31-.137.31-.308 0-.17-.14-.31-.31-.31H17.81c-.17 0-.308.14-.308.31 0 .17.14.31.31.31zM9.165 9.555h5.76c.086 0 .155-.07.155-.154 0-.085-.07-.154-.155-.154h-5.76c-.086 0-.155.07-.155.154 0 .085.07.155.154.155zm0 .756h5.76c.086 0 .155-.07.155-.154s-.07-.154-.155-.154h-5.76c-.086 0-.155.07-.155.154s.07.155.154.155zm0 .756h5.76c.086 0 .155-.07.155-.154 0-.085-.07-.154-.155-.154h-5.76c-.086 0-.155.07-.155.154 0 .085.07.155.154.155zm0 1.443h5.76c.086 0 .155-.07.155-.155 0-.085-.07-.154-.155-.154h-5.76c-.086 0-.155.07-.155.155 0 .085.07.155.154.155zm0 .754h5.76c.086 0 .155-.07.155-.154 0-.085-.07-.154-.155-.154h-5.76c-.086 0-.155.07-.155.154 0 .086.07.155.154.155zm0 .756h5.76c.086 0 .155-.07.155-.154 0-.085-.07-.154-.155-.154h-5.76c-.086 0-.155.07-.155.154 0 .086.07.155.154.155zm0 1.443h5.76c.086 0 .155-.07.155-.154 0-.087-.07-.155-.155-.155h-5.76c-.086 0-.155.07-.155.154 0 .084.07.154.154.154zm0 .756h5.76c.086 0 .155-.07.155-.155 0-.085-.07-.154-.155-.154h-5.76c-.086 0-.155.07-.155.155 0 .086.07.154.154.154zm0 .755h5.76c.086 0 .155-.07.155-.154 0-.084-.07-.153-.155-.153h-5.76c-.086 0-.155.07-.155.154 0 .087.07.155.154.155zm8.647-3.406h5.116c.17 0 .31-.14.31-.31 0-.17-.14-.31-.31-.31H17.81c-.17 0-.308.14-.308.31 0 .17.14.31.31.31zm5.116.732H17.81c-.17 0-.308.138-.308.31 0 .17.138.308.31.308h5.114c.17 0 .31-.138.31-.31 0-.17-.14-.308-.31-.308zM17.57 17.1v.005c0 .233.188.42.42.42.233 0 .42-.188.42-.42V17.1v-.005c0-.233-.188-.42-.42-.42-.233 0-.42.188-.42.42v.005zm1.197 0c0 .233.19.42.42.42s.422-.188.422-.42c0-.233-.19-.42-.422-.42-.233 0-.42.188-.42.42zm1.196 0c0 .233.19.42.42.42s.422-.188.422-.42c0-.233-.19-.42-.42-.42-.234 0-.422.188-.422.42z"/></svg>