<svg xmlns="http://www.w3.org/2000/svg" width="32" height="32" viewBox="0 0 32 32"><path d="M17.427 6.782v-.324c0-.454-.776-.55-1.427-.55-.65 0-1.426.096-1.426.55v.324c-1.325.244-2.103.812-2.103 1.35v16.793c0 1.053 2.47 1.166 3.53 1.166s3.53-.112 3.53-1.165V8.13c0-.536-.776-1.104-2.102-1.348zm-2.394-.272c.083-.05.362-.14.967-.14s.884.09.967.14v.912c-.083.05-.362.14-.967.14s-.884-.092-.967-.14V6.51zm-.192 1.33c.284.143.748.182 1.16.182.413 0 .876-.04 1.16-.183.17.036.293.078.37.115-.2.097-.73.224-1.53.224s-1.33-.128-1.53-.225c.077-.037.202-.08.37-.116zM16 25.477c-2.102 0-2.874-.408-2.917-.553V8.132c.013-.15.49-.526 1.49-.728v.03c-.352.1-.63.26-.63.52 0 .652 1.713.685 2.056.685.342 0 2.055-.034 2.055-.685 0-.262-.277-.422-.63-.522v-.03c1 .203 1.478.58 1.49.728l.002 16.79c-.042.15-.814.557-2.917.557zm.663-18.81c-.01-.085-.087-.147-.17-.137-.203.023-.437.03-.676.024-.09-.003-.18-.007-.265-.014-.08-.007-.158.057-.164.142-.006.084.057.158.142.164.09.006.183.012.28.014.057.002.115.002.173.002.192 0 .377-.01.544-.027.084-.01.146-.085.137-.17zm.314 4.55h-.67v-.67c0-.17-.138-.307-.307-.307s-.306.138-.306.307v.67h-.67c-.17 0-.307.137-.307.306s.137.306.306.306h.67v.67c0 .17.138.306.307.306s.306-.137.306-.306v-.67h.67c.17 0 .307-.138.307-.307s-.137-.306-.306-.306zm-.306 11.57h-1.34c-.17 0-.306.137-.306.306s.137.306.306.306h1.34c.17 0 .307-.137.307-.306s-.137-.306-.306-.306z"/></svg>