<svg xmlns="http://www.w3.org/2000/svg" width="32" height="32" viewBox="0 0 32 32"><path d="M18.25 15.758h-4.343v-4.342H17.9l-1.825 2.596-.77-1.368c-.062-.11-.202-.15-.313-.088-.11.062-.15.202-.087.313l.95 1.685c.037.07.11.113.188.117h.01c.076 0 .146-.036.19-.097l2.008-2.854v4.038zm.972-5.82c-.104-.072-.248-.047-.32.057l-.57.808H13.6c-.17 0-.306.138-.306.306v4.954c0 .17.137.306.306.306h4.955c.17 0 .306-.137.306-.306V11.11c0-.067-.025-.124-.06-.175l.476-.677c.073-.104.048-.247-.056-.32zm-2.82 11.005l1.847-1.846v3.692l-1.847-1.847zm-.324.325l1.846 1.846h-3.692l1.845-1.846zm-1.845-2.496h3.692l-1.846 1.846-1.847-1.846zm1.52 2.17l-1.846 1.847v-3.693l1.846 1.846zm2.803-2.783H13.6c-.17 0-.305.136-.305.305v4.956c0 .17.137.307.306.307h4.956c.17 0 .306-.137.306-.306v-4.955c0-.17-.137-.306-.306-.306zm4.69-13.866H8.867c-.812 0-1.472.66-1.472 1.472V26.65c0 .81.66 1.47 1.47 1.47h14.383c.812 0 1.472-.66 1.472-1.47V5.766c0-.812-.66-1.472-1.473-1.472zm.86 22.356c0 .473-.385.858-.858.858H8.865c-.474 0-.858-.385-.858-.858V5.766c0-.474.385-.86.858-.86h14.382c.474 0 .858.387.858.86V26.65zM22.323 7.04h-2.266V5.984c0-.313-.255-.568-.568-.568h-6.865c-.314 0-.568.255-.568.568V7.04H9.79c-.49 0-.888.37-.888.827V25.7c0 .456.398.828.89.828h12.532c.49 0 .888-.372.888-.83V7.87c0-.458-.398-.83-.888-.83zm-9.807 0V5.984c0-.06.05-.11.11-.11h6.864c.06 0 .11.05.11.11v1.723c0 .06-.05.108-.11.108h-6.865c-.06 0-.11-.048-.11-.108v-.67zM22.75 25.7c0 .203-.19.37-.427.37H9.79c-.237 0-.43-.166-.43-.37V7.868c0-.203.193-.368.43-.368h2.266v.21c0 .312.254.567.568.567h6.865c.312 0 .567-.255.567-.568V7.5h2.266c.236 0 .428.165.428.368V25.7z"/></svg>