<svg xmlns="http://www.w3.org/2000/svg" viewBox="0 0 36 36"><title>Icons-Red_Hat-Diagrams-Development_Model-A-Black-RGB</title><path d="M27.14 12.38A5.61 5.61 0 1 0 32.75 18a5.6 5.6 0 0 0-5.61-5.62zm0 9.71A4.11 4.11 0 1 1 31.25 18a4.11 4.11 0 0 1-4.11 4.09zM10.51 10.53a10.18 10.18 0 0 1 13.85 0 .73.73 0 0 0 .51.2.78.78 0 0 0 .55-.23.75.75 0 0 0 0-1.06 11.66 11.66 0 0 0-15.89 0 .75.75 0 0 0 1 1.1zM24.36 25.44a10.18 10.18 0 0 1-13.85 0 .75.75 0 1 0-1 1.09 11.66 11.66 0 0 0 15.9 0 .75.75 0 1 0-1-1.09zM6 14.23A2.75 2.75 0 1 0 8.75 17 2.75 2.75 0 0 0 6 14.23zm0 4A1.25 1.25 0 1 1 7.25 17 1.25 1.25 0 0 1 6 18.23zM12 17.73A2.75 2.75 0 1 0 9.25 15 2.75 2.75 0 0 0 12 17.73zm0-4A1.25 1.25 0 1 1 10.75 15 1.26 1.26 0 0 1 12 13.73zM13.75 21A2.75 2.75 0 1 0 11 23.73 2.75 2.75 0 0 0 13.75 21zm-4 0A1.25 1.25 0 1 1 11 22.23 1.26 1.26 0 0 1 9.75 21zM15.29 17.29a.75.75 0 0 0-.82.16.78.78 0 0 0-.16.24.73.73 0 0 0 0 .58.63.63 0 0 0 .16.24.78.78 0 0 0 .24.16.73.73 0 0 0 .58 0 .74.74 0 0 0 .4-.4.73.73 0 0 0 0-.58.74.74 0 0 0-.4-.4zM7.71 13.67a.72.72 0 0 0 .29.06.75.75 0 0 0 .29-.06.78.78 0 0 0 .24-.16.75.75 0 0 0 0-1.06.78.78 0 0 0-.24-.16.75.75 0 0 0-.82 1.22.78.78 0 0 0 .24.16zM5.71 21.29a.78.78 0 0 0-.24.16.75.75 0 0 0 0 1.06.78.78 0 0 0 .24.16.72.72 0 0 0 .29.06.75.75 0 0 0 .29-.06.78.78 0 0 0 .24-.16.75.75 0 0 0-.82-1.22z"/></svg>