<svg id="e8d743f4-e4ed-473e-9cca-d1f863b2efec" data-name="Icon" xmlns="http://www.w3.org/2000/svg" viewBox="0 0 36 36">
  <g>
    <path d="M31.5229,23.0381l-1.871-8.8037a4.6138,4.6138,0,0,0-4.5176-3.6553h-.03A.6023.6023,0,0,0,25,10.57H18.625V8a.625.625,0,0,0-1.25,0v2.57H11a.5746.5746,0,0,0-.1167.0117,4.5748,4.5748,0,0,0-4.5688,3.6524L4.4429,23.0381a4.6249,4.6249,0,1,0,9.0478,1.9228l.4551-2.1406H22.02l.4551,2.1406a4.6249,4.6249,0,1,0,9.0478-1.9228Zm-3.8217,4.2627a3.3829,3.3829,0,0,1-4.0034-2.6l-.56-2.6358a.6249.6249,0,0,0-.6113-.4951H13.44a.6249.6249,0,0,0-.6113.4951l-.56,2.6358a3.375,3.375,0,0,1-6.6026-1.4033l1.8716-8.8038a3.3576,3.3576,0,0,1,3.294-2.663c.0473,0,.0952.0009.143.0029a.4055.4055,0,0,0,.1529-.0137H24.8848a1.0149,1.0149,0,0,0,.1357.0108,3.3414,3.3414,0,0,1,3.4087,2.663L30.3,23.2979A3.3792,3.3792,0,0,1,27.7012,27.3008Z"/>
    <path d="M14,16.375H12.625V15a.625.625,0,0,0-1.25,0v1.375H10a.625.625,0,0,0,0,1.25h1.375V19a.625.625,0,0,0,1.25,0V17.625H14a.625.625,0,0,0,0-1.25Z"/>
    <path d="M21,15.375A1.625,1.625,0,1,0,22.625,17,1.6266,1.6266,0,0,0,21,15.375Zm0,2A.375.375,0,1,1,21.375,17,.3755.3755,0,0,1,21,17.375Z"/>
    <path d="M25,15.375A1.625,1.625,0,1,0,26.625,17,1.6266,1.6266,0,0,0,25,15.375Zm0,2A.375.375,0,1,1,25.375,17,.3755.3755,0,0,1,25,17.375Z"/>
  </g>
</svg>
