<svg xmlns="http://www.w3.org/2000/svg" viewBox="0 0 36 36"><path d="M9.344 12.325h-5c-.414 0-.75.336-.75.75v5c0 .414.336.75.75.75h5c.414 0 .75-.336.75-.75v-5c0-.414-.336-.75-.75-.75zm-.75 5h-3.5v-3.5h3.5v3.5zM20.344 20.324h-5c-.414 0-.75.336-.75.75v5c0 .414.336.75.75.75h5c.414 0 .75-.336.75-.75v-5c0-.414-.336-.75-.75-.75zm-.75 5h-3.5v-3.5h3.5v3.5zM15.184 18.825h5c.414 0 .75-.336.75-.75v-5c0-.414-.336-.75-.75-.75h-5c-.414 0-.75.336-.75.75v5c0 .414.336.75.75.75zm.75-5h3.5v3.5h-3.5v-3.5zM31.344 12.325h-5c-.414 0-.75.336-.75.75v5c0 .414.336.75.75.75h5c.414 0 .75-.336.75-.75v-5c0-.414-.336-.75-.75-.75zm-.75 5h-3.5v-3.5h3.5v3.5z"/><path d="M32.344 9.325h-8.25v-3.25c0-.414-.336-.75-.75-.75s-.75.336-.75.75v3.25h-9.5v-3.25c0-.414-.336-.75-.75-.75s-.75.336-.75.75v3.25h-8.25c-.414 0-.75.336-.75.75s.336.75.75.75h8.25v19.25c0 .413.336.75.75.75s.75-.337.75-.75v-19.25h9.5v19.25c0 .413.336.75.75.75s.75-.337.75-.75v-19.25h8.25c.414 0 .75-.336.75-.75s-.336-.75-.75-.75z"/></svg>