<svg data-name="cloud-native-development" xmlns="http://www.w3.org/2000/svg" viewBox="0 0 36 36"><title>Icon-Red_Hat-</title><path d="M17.73 21.83H8.61a5.13 5.13 0 0 1 0-10.26 5.53 5.53 0 0 1 .88.08.75.75 0 0 0 .79-.37A7.07 7.07 0 0 1 23.48 14a.75.75 0 1 0 1.52-.16A8.57 8.57 0 0 0 9.24 10.1h-.63a6.63 6.63 0 0 0 0 13.26h9.12a.75.75 0 1 0 0-1.5zm9.72-1.22a.71.71 0 0 0 .28.06.75.75 0 0 0 .53-.22.71.71 0 0 0 .22-.53 1 1 0 0 0-.05-.29.81.81 0 0 0-.17-.24.77.77 0 0 0-1.06 0 .75.75 0 0 0 0 1.06.67.67 0 0 0 .25.16zm3.28-4.44h-10a.76.76 0 0 0-.75.75v10a.75.75 0 0 0 .75.75h10a.74.74 0 0 0 .75-.75v-10a.75.75 0 0 0-.75-.75zm-.75 10h-8.5v-8.5H30zm-4.53-5.56a.67.67 0 0 0 .28.06.72.72 0 0 0 .29-.06.63.63 0 0 0 .24-.16.71.71 0 0 0 .22-.53.66.66 0 0 0-.05-.28.74.74 0 0 0-.17-.25.67.67 0 0 0-.24-.16.71.71 0 0 0-.57 0 .69.69 0 0 0-.41.41.67.67 0 0 0-.06.28.75.75 0 0 0 .22.53.67.67 0 0 0 .25.16z"/></svg>