<svg xmlns="http://www.w3.org/2000/svg" viewBox="0 0 32 32"><path d="M3.29 11.5c0 .01-.01.02-.01.04v9.66c0 .08.07.15.15.15H28.56c.08 0 .15-.07.15-.15v-4.82-.01-4.83c0-.01 0-.03-.01-.04.02-.07-.01-.14-.07-.17l-3.81-.65c-.02-.01-.19-.02-.21-.02H7.46c-.02 0-.18 0-.2.01l-3.89.65c-.07.04-.1.11-.08.18zm16.75 8.13v1.42h-8.08v-2.12h8.08v.7zm0-2.36v1.37h-8.08v-2.12h8.08v.75zm0-2.48v1.42h-8.08v-2.12h8.08v.7zm0-2.36v1.37h-8.08v-2.12h8.08v.75zm8.39 7.2v1.42h-8.08v-2.12h8.08v.7zm0-2.36v1.37h-8.08v-2.12h8.08v.75zm0-2.48v1.42h-8.08v-2.12h8.08v.7zm0-2.36v1.37h-8.08v-2.12h8.08v.75zm-3.7-1.48l2.61.44h-7.01l-.88-.44h5.28zm-5.85 0l.82.44h-7.36l.95-.44h5.59zm-11.54 0h5.35l-.99.44H4.73l2.61-.44zm-3.77.73h8.08v2.12H3.57v-2.12zm0 2.41h8.08v2.12H3.57v-2.12zm0 2.43h8.08v2.12H3.57v-2.12zm0 2.41h8.08v2.12H3.57v-2.12zm.53-6.14c0 .11.09.2.2.2s.2-.09.2-.2c0-.11-.09-.2-.2-.2-.11 0-.2.09-.2.2zm.71 0c0 .11.09.2.2.2s.2-.09.2-.2c0-.11-.09-.2-.2-.2-.11 0-.2.09-.2.2zm6.34-.72h-.44c-.04 0-.07.03-.07.07v1.16c0 .04.03.07.07.07h.44c.04 0 .07-.03.07-.07v-1.16c.01-.04-.03-.07-.07-.07zm-.07 1.16h-.29v-1.02h.29v1.02zm-.8-1.16h-.44c-.04 0-.07.03-.07.07v1.16c0 .04.03.07.07.07h.44c.04 0 .07-.03.07-.07v-1.16c0-.04-.03-.07-.07-.07zm-.07 1.16h-.29v-1.02h.29v1.02zM4.1 15.27c0 .11.09.2.2.2s.2-.09.2-.2c0-.11-.09-.2-.2-.2-.11 0-.2.09-.2.2zm.71 0c0 .11.09.2.2.2s.2-.09.2-.2c0-.11-.09-.2-.2-.2-.11 0-.2.09-.2.2zm6.34-.73h-.44c-.04 0-.07.03-.07.07v1.16c0 .04.03.07.07.07h.44c.04 0 .07-.03.07-.07v-1.16c.01-.04-.03-.07-.07-.07zm-.07 1.17h-.29v-1.02h.29v1.02zm-.8-1.17h-.44c-.04 0-.07.03-.07.07v1.16c0 .04.03.07.07.07h.44c.04 0 .07-.03.07-.07v-1.16c0-.04-.03-.07-.07-.07zm-.07 1.17h-.29v-1.02h.29v1.02zM4.1 17.6c0 .11.09.2.2.2s.2-.09.2-.2c0-.11-.09-.2-.2-.2-.11 0-.2.09-.2.2zm.71 0c0 .11.09.2.2.2s.2-.09.2-.2c0-.11-.09-.2-.2-.2-.11 0-.2.09-.2.2zm6.34-.73h-.44c-.04 0-.07.03-.07.07v1.17c0 .04.03.07.07.07h.44c.04 0 .07-.03.07-.07v-1.17c.01-.04-.03-.07-.07-.07zm-.07 1.17h-.29v-1.02h.29v1.02zm-.8-1.17h-.44c-.04 0-.07.03-.07.07v1.17c0 .04.03.07.07.07h.44c.04 0 .07-.03.07-.07v-1.17c0-.04-.03-.07-.07-.07zm-.07 1.17h-.29v-1.02h.29v1.02zM4.1 20.07s0 .01 0 0c0 .12.09.21.2.21.11 0 .2-.09.2-.2v-.01-.01c0-.11-.09-.2-.2-.2-.11 0-.2.09-.2.21zm.71 0s0 .01 0 0c0 .12.09.21.2.21.11 0 .2-.09.2-.2v-.01-.01c0-.11-.09-.2-.2-.2-.11 0-.2.09-.2.21zm6.34-.72h-.44c-.04 0-.07.03-.07.07v1.16c0 .04.03.07.07.07h.44c.04 0 .07-.03.07-.07v-1.16c.01-.04-.03-.07-.07-.07zm-.07 1.16h-.29v-1.02h.29v1.02zm-.8-1.16h-.44c-.04 0-.07.03-.07.07v1.16c0 .04.03.07.07.07h.44c.04 0 .07-.03.07-.07v-1.16c0-.04-.03-.07-.07-.07zm-.07 1.16h-.29v-1.02h.29v1.02zm2.33-7.72c0 .11.09.2.2.2s.2-.09.2-.2c0-.11-.09-.2-.2-.2-.11 0-.2.09-.2.2zm.71 0c0 .11.09.2.2.2s.2-.09.2-.2c0-.11-.09-.2-.2-.2-.11 0-.2.09-.2.2zm5.91.59h.44c.04 0 .07-.03.07-.07v-1.16c0-.04-.03-.07-.07-.07h-.44c-.04 0-.07.03-.07.07v1.16c0 .03.03.07.07.07zm.07-1.17h.29v1.02h-.29v-1.02zm-.94 1.17h.44c.04 0 .07-.03.07-.07v-1.16c0-.04-.03-.07-.07-.07h-.44c-.04 0-.07.03-.07.07v1.16c-.01.03.03.07.07.07zm.07-1.17h.29v1.02h-.29v-1.02zm-5.82 3.06c0 .11.09.2.2.2s.2-.09.2-.2c0-.11-.09-.2-.2-.2-.11 0-.2.09-.2.2zm.71 0c0 .11.09.2.2.2s.2-.09.2-.2c0-.11-.09-.2-.2-.2-.11 0-.2.09-.2.2zm5.91.58h.44c.04 0 .07-.03.07-.07v-1.16c0-.04-.03-.07-.07-.07h-.44c-.04 0-.07.03-.07.07v1.16c0 .04.03.07.07.07zm.07-1.16h.29v1.02h-.29v-1.02zm-.94 1.16h.44c.04 0 .07-.03.07-.07v-1.16c0-.04-.03-.07-.07-.07h-.44c-.04 0-.07.03-.07.07v1.16c-.01.04.03.07.07.07zm.07-1.16h.29v1.02h-.29v-1.02zm-5.82 2.91c0 .11.09.2.2.2s.2-.09.2-.2c0-.11-.09-.2-.2-.2-.11 0-.2.09-.2.2zm.71 0c0 .11.09.2.2.2s.2-.09.2-.2c0-.11-.09-.2-.2-.2-.11 0-.2.09-.2.2zm5.91.58h.44c.04 0 .07-.03.07-.07v-1.16c0-.04-.03-.07-.07-.07h-.44c-.04 0-.07.03-.07.07v1.17c0 .03.03.06.07.06zm.07-1.16h.29v1.02h-.29v-1.02zm-.94 1.16h.44c.04 0 .07-.03.07-.07v-1.16c0-.04-.03-.07-.07-.07h-.44c-.04 0-.07.03-.07.07v1.17c-.01.03.03.06.07.06zm.07-1.16h.29v1.02h-.29v-1.02zm-5.82 3.05s0 .01 0 0c0 .12.09.21.2.21s.2-.09.2-.2v-.01-.01c0-.11-.09-.2-.2-.2s-.2.09-.2.21zm.71 0s0 .01 0 0c0 .12.09.21.2.21s.2-.09.2-.2v-.01-.01c0-.11-.09-.2-.2-.2s-.2.09-.2.21zm5.91.59h.44c.04 0 .07-.03.07-.07v-1.16c0-.04-.03-.07-.07-.07h-.44c-.04 0-.07.03-.07.07v1.16c0 .03.03.07.07.07zm.07-1.17h.29v1.02h-.29v-1.02zm-.94 1.17h.44c.04 0 .07-.03.07-.07v-1.16c0-.04-.03-.07-.07-.07h-.44c-.04 0-.07.03-.07.07v1.16c-.01.03.03.07.07.07zm.07-1.17h.29v1.02h-.29v-1.02zm2.48-6.7c0 .11.09.2.2.2s.2-.09.2-.2c0-.11-.09-.2-.2-.2-.11 0-.2.09-.2.2zm.71 0c0 .11.09.2.2.2s.2-.09.2-.2c0-.11-.09-.2-.2-.2-.11 0-.2.09-.2.2zm5.91.59h.44c.04 0 .07-.03.07-.07v-1.16c0-.04-.03-.07-.07-.07h-.44c-.04 0-.07.03-.07.07v1.16c-.01.03.03.07.07.07zm.07-1.17h.29v1.02h-.29v-1.02zm-.95 1.17h.44c.04 0 .07-.03.07-.07v-1.16c0-.04-.03-.07-.07-.07h-.44c-.04 0-.07.03-.07.07v1.16c0 .03.03.07.07.07zm.08-1.17h.29v1.02h-.29v-1.02zm-5.82 3.06c0 .11.09.2.2.2s.2-.09.2-.2c0-.11-.09-.2-.2-.2-.11 0-.2.09-.2.2zm.71 0c0 .11.09.2.2.2s.2-.09.2-.2c0-.11-.09-.2-.2-.2-.11 0-.2.09-.2.2zm5.91.58h.44c.04 0 .07-.03.07-.07v-1.16c0-.04-.03-.07-.07-.07h-.44c-.04 0-.07.03-.07.07v1.16c-.01.04.03.07.07.07zm.07-1.16h.29v1.02h-.29v-1.02zm-.95 1.16h.44c.04 0 .07-.03.07-.07v-1.16c0-.04-.03-.07-.07-.07h-.44c-.04 0-.07.03-.07.07v1.16c0 .04.03.07.07.07zm.08-1.16h.29v1.02h-.29v-1.02zm-5.82 2.91c0 .11.09.2.2.2s.2-.09.2-.2c0-.11-.09-.2-.2-.2-.11 0-.2.09-.2.2zm.71 0c0 .11.09.2.2.2s.2-.09.2-.2c0-.11-.09-.2-.2-.2-.11 0-.2.09-.2.2zm5.91.58h.44c.04 0 .07-.03.07-.07v-1.16c0-.04-.03-.07-.07-.07h-.44c-.04 0-.07.03-.07.07v1.17c-.01.03.03.06.07.06zm.07-1.16h.29v1.02h-.29v-1.02zm-.95 1.16h.44c.04 0 .07-.03.07-.07v-1.16c0-.04-.03-.07-.07-.07h-.44c-.04 0-.07.03-.07.07v1.17c0 .03.03.06.07.06zm.08-1.16h.29v1.02h-.29v-1.02zm-5.82 3.05s0 .01 0 0c0 .12.09.21.2.21s.2-.09.2-.2v-.01-.01c0-.11-.09-.2-.2-.2s-.2.1-.2.21zm.71 0s0 .01 0 0c0 .12.09.21.2.21s.2-.09.2-.2v-.01-.01c0-.11-.09-.2-.2-.2s-.2.09-.2.21zm5.91.59h.44c.04 0 .07-.03.07-.07v-1.16c0-.04-.03-.07-.07-.07h-.44c-.04 0-.07.03-.07.07v1.16c-.01.03.03.07.07.07zm.07-1.17h.29v1.02h-.29v-1.02zm-.95 1.17h.44c.04 0 .07-.03.07-.07v-1.16c0-.04-.03-.07-.07-.07h-.44c-.04 0-.07.03-.07.07v1.16c0 .03.03.07.07.07zm.08-1.17h.29v1.02h-.29v-1.02zm-13.79 2.27h-.29c-.06 0-.11.05-.11.11s.05.11.11.11h.29c.06 0 .11-.05.11-.11 0-.07-.05-.11-.11-.11zm3.63 0h-.29c-.06 0-.11.05-.11.11s.05.11.11.11h.29c.06 0 .11-.05.11-.11 0-.07-.05-.11-.11-.11zm-1.45 0h-.29c-.06 0-.11.05-.11.11s.05.11.11.11h.29c.06 0 .11-.05.11-.11 0-.07-.05-.11-.11-.11zm-.73 0h-.29c-.06 0-.11.05-.11.11s.05.11.11.11h.29c.06 0 .11-.05.11-.11 0-.07-.05-.11-.11-.11zm2.91 0h-.29c-.06 0-.11.05-.11.11s.05.11.11.11h.29c.06 0 .11-.05.11-.11 0-.07-.05-.11-.11-.11zm-3.63 0h-.29c-.06 0-.11.05-.11.11s.05.11.11.11h.29c.06 0 .11-.05.11-.11 0-.07-.05-.11-.11-.11zm2.18 0h-.29c-.06 0-.11.05-.11.11s.05.11.11.11h.29c.06 0 .11-.05.11-.11 0-.07-.05-.11-.11-.11zm5.08 0h-.29c-.06 0-.11.05-.11.11s.05.11.11.11h.29c.06 0 .11-.05.11-.11 0-.07-.05-.11-.11-.11zm-.72 0h-.29c-.06 0-.11.05-.11.11s.05.11.11.11h.29c.06 0 .11-.05.11-.11-.01-.07-.06-.11-.11-.11zm-1.46 0h-.29c-.06 0-.11.05-.11.11s.05.11.11.11h.29c.06 0 .11-.05.11-.11 0-.07-.05-.11-.11-.11zm-.72 0h-.29c-.06 0-.11.05-.11.11s.05.11.11.11h.29c.06 0 .11-.05.11-.11 0-.07-.05-.11-.11-.11zm1.45 0h-.29c-.06 0-.11.05-.11.11s.05.11.11.11h.29c.06 0 .11-.05.11-.11 0-.07-.05-.11-.11-.11zm2.18 0h-.29c-.06 0-.11.05-.11.11s.05.11.11.11h.29c.06 0 .11-.05.11-.11 0-.07-.05-.11-.11-.11zm-13.8 0H7.5c-.06 0-.11.05-.11.11s.05.11.11.11h.29c.06 0 .11-.05.11-.11 0-.07-.05-.11-.11-.11zm-1.45 0h-.29c-.06 0-.11.05-.11.11s.05.11.11.11h.29c.06 0 .11-.05.11-.11-.01-.07-.05-.11-.11-.11zm.72 0h-.29c-.06 0-.11.05-.11.11s.05.11.11.11h.29c.06 0 .11-.05.11-.11 0-.07-.05-.11-.11-.11zm-1.45 0h-.29c-.06 0-.11.05-.11.11s.05.11.11.11h.29c.06 0 .11-.05.11-.11 0-.07-.05-.11-.11-.11zm-.73 0h-.29c-.06 0-.11.05-.11.11s.05.11.11.11h.29c.06 0 .11-.05.11-.11 0-.07-.05-.11-.11-.11zm3.63 0h-.29c-.06 0-.11.05-.11.11s.05.11.11.11h.29c.06 0 .11-.05.11-.11 0-.07-.05-.11-.11-.11zm2.91 0h-.29c-.06 0-.11.05-.11.11s.05.11.11.11h.29c.06 0 .11-.05.11-.11 0-.07-.05-.11-.11-.11zm-.73 0h-.29c-.06 0-.11.05-.11.11s.05.11.11.11h.29c.06 0 .11-.05.11-.11 0-.07-.05-.11-.11-.11zm-1.45 0h-.29c-.06 0-.11.05-.11.11s.05.11.11.11h.29c.06 0 .11-.05.11-.11 0-.07-.05-.11-.11-.11zm.73 0h-.29c-.06 0-.11.05-.11.11s.05.11.11.11h.29c.06 0 .11-.05.11-.11 0-.07-.05-.11-.11-.11zm2.18 0h-.29c-.06 0-.11.05-.11.11s.05.11.11.11h.29c.06 0 .11-.05.11-.11-.01-.07-.05-.11-.11-.11zm17.1-6.43c-.06 0-.11.05-.11.11v.29c0 .06.05.11.11.11s.11-.05.11-.11v-.29c-.01-.06-.05-.11-.11-.11zm0 1.45c-.06 0-.11.05-.11.11v.29c0 .06.05.11.11.11s.11-.05.11-.11v-.29c-.01-.06-.05-.11-.11-.11zm0 .72c-.06 0-.11.05-.11.11v.29c0 .06.05.11.11.11s.11-.05.11-.11v-.29c-.01-.06-.05-.11-.11-.11zm0-1.45c-.06 0-.11.05-.11.11v.29c0 .06.05.11.11.11s.11-.05.11-.11v-.29c-.01-.06-.05-.11-.11-.11zm0 2.18c-.06 0-.11.05-.11.11v.29c0 .06.05.11.11.11s.11-.05.11-.11v-.29c-.01-.06-.05-.11-.11-.11zm0 .73c-.06 0-.11.05-.11.11v.29c0 .06.05.11.11.11s.11-.05.11-.11v-.29c-.01-.06-.05-.11-.11-.11zm-25.83 2.8c-.08 0-.16-.02-.24-.05-.05-.03-.12 0-.14.05-.03.05 0 .12.05.15.1.05.21.07.33.07h.01c.06 0 .11-.05.11-.11 0-.07-.06-.12-.12-.11zm25.83-9.34c-.06 0-.11.05-.11.11v.29c0 .06.05.11.11.11s.11-.05.11-.11v-.29c-.01-.06-.05-.11-.11-.11zm0-.73c-.06 0-.11.05-.11.11v.29c0 .06.05.11.11.11s.11-.05.11-.11v-.29c-.01-.06-.05-.11-.11-.11zm0 7.99c-.06 0-.11.05-.11.11v.29c0 .06.05.11.11.11s.11-.05.11-.11v-.29c-.01-.06-.05-.11-.11-.11zm0-6.53c-.06 0-.11.05-.11.11v.29c0 .06.05.11.11.11s.11-.05.11-.11v-.29c-.01-.06-.05-.11-.11-.11zm0 .72c-.06 0-.11.05-.11.11v.29c0 .06.05.11.11.11s.11-.05.11-.11v-.29c-.01-.06-.05-.11-.11-.11zm0 .73c-.06 0-.11.05-.11.11V15c0 .06.05.11.11.11s.11-.05.11-.11v-.29c-.01-.06-.05-.11-.11-.11zm-4.76 7.16h-.29c-.06 0-.11.05-.11.11s.05.11.11.11h.29c.06 0 .11-.05.11-.11 0-.07-.05-.11-.11-.11zm.73 0h-.29c-.06 0-.11.05-.11.11s.05.11.11.11h.29c.06 0 .11-.05.11-.11 0-.07-.05-.11-.11-.11zm.73 0h-.29c-.06 0-.11.05-.11.11s.05.11.11.11h.29c.06 0 .11-.05.11-.11-.01-.07-.05-.11-.11-.11zm.72 0h-.29c-.06 0-.11.05-.11.11s.05.11.11.11h.29c.06 0 .11-.05.11-.11 0-.07-.05-.11-.11-.11zm-4.36 0h-.29c-.06 0-.11.05-.11.11s.05.11.11.11h.29c.06 0 .11-.05.11-.11 0-.07-.05-.11-.11-.11zm.73 0h-.29c-.06 0-.11.05-.11.11s.05.11.11.11h.29c.06 0 .11-.05.11-.11 0-.07-.05-.11-.11-.11zm.73 0h-.29c-.06 0-.11.05-.11.11s.05.11.11.11h.29c.06 0 .11-.05.11-.11 0-.07-.05-.11-.11-.11zm5.48-1.35c-.06 0-.11.05-.11.11v.29c0 .06.05.11.11.11s.11-.05.11-.11v-.29c-.01-.06-.05-.11-.11-.11zm-1.85 1.35h-.29c-.06 0-.11.05-.11.11s.05.11.11.11h.29c.06 0 .11-.05.11-.11 0-.07-.05-.11-.11-.11zm1.84-10.28h.01c.06-.01.1-.06.09-.12-.01-.11-.06-.22-.11-.31-.03-.05-.1-.07-.15-.03-.05.03-.07.1-.03.15.04.07.07.15.08.23 0 .04.05.08.11.08zm.01 9.66c-.06 0-.11.04-.12.1-.01.08-.03.16-.07.23-.03.05-.01.12.04.15.02.01.03.01.05.01.04 0 .08-.02.1-.06.06-.1.09-.21.1-.32.01-.06-.04-.11-.1-.11zm-1.13.62h-.29c-.06 0-.11.05-.11.11s.05.11.11.11h.29c.06 0 .11-.05.11-.11 0-.07-.05-.11-.11-.11zm.68-.05c-.07.03-.15.05-.22.05h-.01c-.06 0-.11.05-.11.11s.05.11.11.11h.01c.11 0 .21-.02.31-.07.06-.02.08-.09.06-.14-.03-.06-.1-.08-.15-.06zm-24.64.05h-.29c-.06 0-.11.05-.11.11s.05.11.11.11h.29c.06 0 .11-.05.11-.11 0-.07-.05-.11-.11-.11zm12.79-11.52h.29c.06 0 .11-.05.11-.11s-.05-.11-.11-.11h-.29c-.06 0-.11.05-.11.11 0 .07.05.11.11.11zm.73 0h.29c.06 0 .11-.05.11-.11s-.05-.11-.11-.11h-.29c-.06 0-.11.05-.11.11 0 .07.05.11.11.11zm-1.45 0h.29c.06 0 .11-.05.11-.11s-.05-.11-.11-.11h-.29c-.06 0-.11.05-.11.11 0 .07.04.11.11.11zm-13.45.78c-.06.09-.11.2-.12.31-.01.06.03.12.09.12h.02c.05 0 .1-.04.11-.09.01-.08.04-.16.09-.23.03-.03.01-.1-.04-.13-.05-.04-.11-.02-.15.02zm12.72-.78h.29c.06 0 .11-.05.11-.11s-.05-.11-.11-.11h-.29c-.06 0-.11.05-.11.11 0 .07.05.11.11.11zm3.63 0h.29c.06 0 .11-.05.11-.11s-.05-.11-.11-.11h-.29c-.06 0-.11.05-.11.11 0 .07.05.11.11.11zm-.72 0h.29c.06 0 .11-.05.11-.11s-.05-.11-.11-.11h-.29c-.06 0-.11.05-.11.11 0 .07.05.11.11.11zm-3.64 0h.29c.06 0 .11-.05.11-.11s-.05-.11-.11-.11h-.29c-.06 0-.11.05-.11.11 0 .07.05.11.11.11zm-2.9 0h.29c.06 0 .11-.05.11-.11s-.05-.11-.11-.11h-.29c-.06 0-.11.05-.11.11 0 .07.05.11.11.11zm.72 0h.29c.06 0 .11-.05.11-.11s-.05-.11-.11-.11h-.29c-.06 0-.11.05-.11.11.01.07.05.11.11.11zm1.46 0h.29c.06 0 .11-.05.11-.11s-.05-.11-.11-.11h-.29c-.06 0-.11.05-.11.11 0 .07.05.11.11.11zm-.73 0h.29c.06 0 .11-.05.11-.11s-.05-.11-.11-.11h-.29c-.06 0-.11.05-.11.11 0 .07.05.11.11.11zm11.91.08c.05 0 .1-.04.11-.09.01-.06-.03-.12-.09-.13l-.28-.05-.02.11-.01.11.28.05h.01zm1.12.2l.29.05h.02c.05 0 .1-.04.11-.09.01-.06-.03-.12-.09-.13l-.29-.05c-.06-.01-.12.03-.13.09s.03.11.09.13zm.72.12l.29.05h.02c.05 0 .1-.04.11-.09.01-.06-.03-.12-.09-.13l-.29-.05c-.06-.01-.12.03-.13.09-.01.06.03.12.09.13zm-15.93-.4h.29c.06 0 .11-.05.11-.11s-.05-.11-.11-.11h-.29c-.06 0-.11.05-.11.11 0 .07.05.11.11.11zm14.5.15l.29.05h.02c.05 0 .1-.04.11-.09.01-.06-.03-.12-.09-.13l-.29-.05c-.06-.01-.12.03-.13.09s.03.12.09.13zm2.14.37l.29.05h.02c.05 0 .1-.04.11-.09.01-.06-.03-.12-.09-.13l-.29-.05c-.06-.01-.12.03-.13.09 0 .06.04.12.09.13zm.72.12l.27.05h.03c.04 0 .08-.02.1-.06.03-.05 0-.12-.05-.15l-.31-.06c-.06-.01-.12.03-.13.09s.03.12.09.13zm-5.01-.64h.29c.06 0 .11-.05.11-.11s-.05-.11-.11-.11h-.29c-.06 0-.11.05-.11.11 0 .07.05.11.11.11zm-2.18 0h.29c.06 0 .11-.05.11-.11s-.05-.11-.11-.11h-.29c-.06 0-.11.05-.11.11 0 .07.05.11.11.11zm.73 0h.29c.06 0 .11-.05.11-.11s-.05-.11-.11-.11h-.29c-.06 0-.11.05-.11.11 0 .07.05.11.11.11zm-1.46 0h.29c.06 0 .11-.05.11-.11s-.05-.11-.11-.11h-.29c-.06 0-.11.05-.11.11 0 .07.05.11.11.11zm3.64 0h.29c.06 0 .11-.05.11-.11s-.05-.11-.11-.11h-.29c-.06 0-.11.05-.11.11s.04.11.11.11zm-1.46 0h.29c.06 0 .11-.05.11-.11s-.05-.11-.11-.11h-.29c-.06 0-.11.05-.11.11s.05.11.11.11zm-2.9 0h.29c.06 0 .11-.05.11-.11s-.05-.11-.11-.11h-.29c-.06 0-.11.05-.11.11 0 .07.05.11.11.11zM2.75 16.55c.06 0 .11-.05.11-.11v-.29c0-.06-.05-.11-.11-.11s-.11.05-.11.11v.29c.01.06.05.11.11.11zm0 .72c.06 0 .11-.05.11-.11v-.29c0-.06-.05-.11-.11-.11s-.11.05-.11.11v.29c.01.06.05.11.11.11zm0-3.63c.06 0 .11-.05.11-.11v-.29c0-.06-.05-.11-.11-.11s-.11.05-.11.11v.29c.01.06.06.11.11.11zm0 .73c.06 0 .11-.05.11-.11v-.29c0-.06-.05-.11-.11-.11s-.11.05-.11.11v.29c.01.06.05.11.11.11zm0 3.63c.06 0 .11-.05.11-.11v-.29c0-.06-.05-.11-.11-.11s-.11.05-.11.11v.29c.01.06.05.11.11.11zm0-2.91c.06 0 .11-.05.11-.11v-.29c0-.06-.05-.11-.11-.11s-.11.05-.11.11v.29c.01.06.05.11.11.11zm0 .73c.06 0 .11-.05.11-.11v-.29c0-.06-.05-.11-.11-.11s-.11.05-.11.11v.29c.01.06.05.11.11.11zm0 5.08c.06 0 .11-.05.11-.11v-.29c0-.06-.05-.11-.11-.11s-.11.05-.11.11v.29c.01.06.05.11.11.11zm.11.32c0-.06-.06-.11-.12-.1-.06 0-.11.05-.1.11.01.11.04.22.09.32.02.04.06.06.1.06.02 0 .04 0 .05-.01.05-.03.07-.09.05-.15-.04-.07-.06-.14-.07-.23zm-.11-2.5c.06 0 .11-.05.11-.11v-.29c0-.06-.05-.11-.11-.11s-.11.05-.11.11v.29c.01.07.05.11.11.11zm0 .73c.06 0 .11-.05.11-.11v-.29c0-.06-.05-.11-.11-.11s-.11.05-.11.11v.29c.01.06.05.11.11.11zm0 .73c.06 0 .11-.05.11-.11v-.29c0-.06-.05-.11-.11-.11s-.11.05-.11.11v.29c.01.06.05.11.11.11zm2.61-9.61h.02l.29-.05c.06-.01.1-.07.09-.13-.01-.06-.07-.1-.13-.09l-.29.05c-.06.01-.1.07-.09.13.01.05.05.09.11.09zm2.88-.33h.29c.06 0 .11-.05.11-.11s-.05-.11-.11-.11h-.29c-.06 0-.11.05-.11.11s.05.11.11.11zm-2.17.21h.02l.29-.05c.06-.01.1-.07.09-.13-.01-.06-.07-.1-.13-.09l-.29.05c-.05.01-.09.07-.08.13.01.05.05.09.1.09zm-3.32 2.46c.06 0 .11-.05.11-.11v-.29c0-.06-.05-.11-.11-.11s-.11.05-.11.11v.29c.01.07.06.11.11.11zm4.76-2.67h.29c.06 0 .11-.05.11-.11s-.05-.11-.11-.11h-.29c-.06 0-.11.05-.11.11s.05.11.11.11zm2.18 0h.29c.06 0 .11-.05.11-.11s-.05-.11-.11-.11h-.29c-.06 0-.11.05-.11.11 0 .07.05.11.11.11zm-.73 0h.29c.06 0 .11-.05.11-.11s-.05-.11-.11-.11h-.29c-.06 0-.11.05-.11.11 0 .07.05.11.11.11zm-2.17.09h.02l.29-.05c.06-.01.1-.07.09-.13-.01-.06-.07-.1-.13-.09l-.29.05c-.06.01-.1.07-.09.13.01.05.06.08.11.09zm-4.04 1.86c.06 0 .11-.05.11-.11v-.29c0-.06-.05-.11-.11-.11s-.11.05-.11.11v.29c.01.06.05.11.11.11zm7.67-1.95h.29c.06 0 .11-.05.11-.11s-.05-.11-.11-.11h-.29c-.06 0-.11.05-.11.11 0 .07.05.11.11.11zm-7.2.69h.02l.27-.05c.06-.01.1-.07.09-.13-.01-.06-.07-.1-.13-.09l-.27.05-.03.01c-.05.02-.08.09-.05.14.01.04.05.07.1.07zm1.42-.24h.02l.29-.05c.06-.01.1-.07.09-.13-.01-.06-.07-.1-.13-.09l-.29.05c-.06.01-.1.07-.09.13.01.05.06.09.11.09zm-.71.12h.02l.29-.05c.06-.01.1-.07.09-.13-.01-.06-.07-.1-.13-.09l-.29.05c-.06.01-.1.07-.09.13.01.05.05.09.11.09z"/></svg>