<svg xmlns="http://www.w3.org/2000/svg" viewBox="0 0 36 36"><path d="M29.43 10.968L18.375 4.585c-.232-.133-.518-.133-.75 0L6.57 10.968c-.232.134-.375.38-.375.65V24.38c0 .268.143.516.375.65l11.055 6.383c.232.133.518.133.75 0l11.055-6.383c.232-.134.375-.382.375-.65V11.617c0-.268-.143-.515-.375-.65zM28.305 23.95l-10.3 5.95-10.3-5.95v-11.9L18 6.1l10.305 5.95v11.9zm-12.83-8.452c-.29-.292-.766-.294-1.06 0l-2 2c-.292.29-.294.766 0 1.06l2 2c.282.303.757.32 1.06.037s.32-.757.037-1.06l-1.506-1.507 1.47-1.47c.27-.29.254-.755 0-1.06zm4.668 5.063c.293.294.768.295 1.06.002l2-2c.294-.292.294-.767.002-1.06l-2-2c-.3-.288-.774-.28-1.062.018-.28.29-.28.75 0 1.042l1.47 1.47-1.47 1.47c-.293.292-.293.767 0 1.06zm-2.287-5.876l-1.622 6.487c-.1.403.144.81.546.91.436.11.817-.178.91-.545l1.62-6.487c.107-.4-.13-.81-.53-.917-.41-.108-.827.142-.924.554z"/></svg>