<svg xmlns="http://www.w3.org/2000/svg" width="32" height="32" viewBox="0 0 32 32"><path d="M10.29 9.698c-.105-.102-.272-.098-.374.007-.102.105-.098.274.007.375 1.574 1.515 2.44 3.546 2.44 5.72 0 2.213-.94 4.346-2.575 5.85-.108.098-.115.265-.016.373.052.057.123.086.196.086.064 0 .128-.024.18-.07 1.745-1.605 2.746-3.88 2.746-6.24 0-2.32-.924-4.487-2.602-6.102zm-1.45 1.45c-.107-.102-.275-.098-.376.01-.1.105-.097.273.01.373 1.184 1.127 1.837 2.643 1.837 4.27 0 1.673-.718 3.275-1.97 4.394-.11.098-.12.265-.022.374.052.058.125.088.198.088.062 0 .126-.023.176-.067 1.366-1.22 2.15-2.967 2.15-4.79 0-1.773-.71-3.426-2.002-4.653zm-1.1 1.993c-.067-.062-.17-.06-.235.007-.063.066-.06.17.006.234.674.64 1.044 1.5 1.044 2.42 0 .946-.408 1.854-1.12 2.49-.068.06-.074.166-.014.234.033.037.078.055.124.055.04 0 .08-.015.11-.043.782-.698 1.23-1.697 1.23-2.737 0-1.012-.406-1.956-1.145-2.66zm11.63 2.66c0-2.174.868-4.205 2.44-5.72.107-.102.11-.27.008-.374-.052-.054-.122-.082-.19-.082-.067 0-.134.025-.186.074-1.678 1.616-2.602 3.783-2.602 6.102 0 2.36 1.002 4.636 2.747 6.24.108.098.275.09.374-.017.1-.108.093-.275-.015-.374-1.637-1.505-2.575-3.638-2.575-5.85zm2.054 0c0-1.627.653-3.143 1.837-4.27.108-.1.112-.268.01-.373-.05-.055-.12-.082-.19-.082-.066 0-.132.024-.184.073-1.29 1.227-2.002 2.88-2.002 4.653 0 1.824.784 3.57 2.15 4.79.11.097.277.088.374-.02.098-.11.088-.278-.02-.375-1.255-1.12-1.973-2.72-1.973-4.394zm3.142 2.49c-.712-.636-1.12-1.543-1.12-2.49 0-.92.37-1.78 1.043-2.418.065-.063.068-.168.005-.234-.032-.034-.076-.05-.12-.05-.04 0-.082.014-.114.044-.738.702-1.145 1.647-1.145 2.66 0 1.04.448 2.038 1.23 2.737.07.06.173.054.235-.014.06-.07.055-.173-.014-.234zM14.946 6.8c-.22 0-.397.18-.397.4v5.727c-.497-1.76-1.45-3.37-2.803-4.682-.105-.102-.273-.1-.375.006-.102.106-.1.274.005.376 1.96 1.9 3.04 4.45 3.04 7.175 0 2.758-1.158 5.42-3.176 7.306-.106.1-.112.268-.012.375.052.057.123.085.194.085.065 0 .13-.024.18-.07 1.418-1.324 2.43-3.012 2.947-4.85v6.178c0 .22.177.398.397.398.22 0 .398-.177.398-.397V7.2c0-.22-.178-.396-.398-.396zm2.372 9c0-2.726 1.08-5.274 3.04-7.175.104-.102.107-.27.005-.375-.05-.053-.12-.08-.19-.08-.066 0-.133.024-.185.074-1.354 1.314-2.306 2.922-2.802 4.682V7.18c0-.22-.178-.4-.398-.4-.22 0-.398.18-.398.4V24.8c0 .22.178.398.398.398.22 0 .398-.178.398-.398v-6.16c.518 1.84 1.53 3.527 2.946 4.85.107.1.275.095.375-.012.1-.107.094-.275-.013-.375-2.018-1.885-3.176-4.548-3.176-7.305z"/></svg>