<svg data-name="Layer 1" xmlns="http://www.w3.org/2000/svg" viewBox="0 0 36 36"><title>Icon-Red_Hat-Graph_Steady_up-A-Black-RGB</title><path d="M31.692 19.225a.748.748 0 0 0-.325-.475.733.733 0 0 0-.562-.105l-12.958 2.71-12.958 2.71a.75.75 0 0 0 .15 1.483.662.662 0 0 0 .078 0 .513.513 0 0 0 .077-.012l12.958-2.71 12.958-2.71a.748.748 0 0 0 .582-.887zM6.958 22.48a.75.75 0 0 0 .75-.75V7.75h20.5V17a.75.75 0 0 0 1.5 0V7a.75.75 0 0 0-.75-.75h-22a.75.75 0 0 0-.75.75v14.73a.75.75 0 0 0 .75.75z"/><path d="M17.428 9.47a.747.747 0 0 0-.22.53v7.71a.75.75 0 1 0 1.5 0V10a.75.75 0 0 0-1.28-.53zM23.428 9.47a.747.747 0 0 0-.22.53v6.455a.75.75 0 0 0 1.5 0V10a.75.75 0 0 0-1.28-.53zM11.428 9.47a.745.745 0 0 0-.22.53v9a.75.75 0 0 0 1.5 0v-9a.75.75 0 0 0-1.28-.53zM28.958 22.25a.75.75 0 0 0-.75.75v5.25h-20.5V27a.75.75 0 0 0-1.5 0v2a.75.75 0 0 0 .75.75h22a.75.75 0 0 0 .75-.75v-6a.75.75 0 0 0-.75-.75z"/></svg>