<svg xmlns="http://www.w3.org/2000/svg" viewBox="0 0 36 36"><title>Icons-Red_Hat-Media_and_Documents-eBook-A-Black-RGB</title><path d="M27 5.23H9a.76.76 0 0 0-.75.77v24a.75.75 0 0 0 .75.75h18a.75.75 0 0 0 .75-.75V6a.76.76 0 0 0-.75-.77zm-.75 24H9.75V6.73h16.5z"/><path d="M20 26.23h-4a.75.75 0 0 0 0 1.5h4a.75.75 0 0 0 0-1.5zM17.47 9.51a.63.63 0 0 0 .24.16.73.73 0 0 0 .58 0 .78.78 0 0 0 .24-.16.74.74 0 0 0 .16-.82.78.78 0 0 0-.16-.24.75.75 0 0 0-.82-.16.74.74 0 0 0-.4.4.73.73 0 0 0 0 .58.63.63 0 0 0 .16.24zM13 14.23h6a.75.75 0 0 0 0-1.5h-6a.75.75 0 0 0 0 1.5zM13 17.23h10a.75.75 0 0 0 0-1.5H13a.75.75 0 0 0 0 1.5zM13 20.23h10a.75.75 0 0 0 0-1.5H13a.75.75 0 0 0 0 1.5zM13 23.23h10a.75.75 0 0 0 0-1.5H13a.75.75 0 0 0 0 1.5z"/></svg>