<svg xmlns="http://www.w3.org/2000/svg" viewBox="0 0 32 32"><path d="M24.37 8.73H7.62c-.68 0-1.24.56-1.24 1.24v10.41c0 .68.56 1.24 1.24 1.24h5.44v1.03h-1.67c-.17 0-.31.14-.31.31 0 .17.14.31.31.31h9.21c.17 0 .31-.14.31-.31 0-.17-.14-.31-.31-.31h-1.67v-1.03h5.44c.68 0 1.24-.56 1.24-1.24V9.97c-.01-.68-.56-1.24-1.24-1.24zm-10.7 13.93v-.92h4.64v.92h-4.64zm11.32-2.25c0 .35-.28.63-.63.63H7.62c-.35 0-.63-.28-.63-.63V9.97c0-.35.28-.63.63-.63h16.75c.35 0 .63.28.63.63v10.44h-.01zm-7.67-4.47c.03 0 .06-.01.09-.03l4.41-2.96c.07-.05.09-.14.04-.21s-.14-.09-.21-.04l-4.41 2.96c-.07.05-.09.14-.04.21.02.05.07.07.12.07zm-1.31 2.04c.03 0 .06-.01.09-.03l3.49-2.36c.07-.05.09-.14.04-.21s-.14-.09-.21-.04l-3.49 2.36c-.07.05-.09.14-.04.21.02.05.08.07.12.07zm-7.57 2.47h15.1c.42 0 .76-.37.76-.82v-8.76c0-.45-.34-.82-.76-.82H8.44c-.42 0-.77.37-.77.82v8.76c0 .45.35.82.77.82zm-.3-9.58c0-.2.14-.36.31-.36h15.1c.17 0 .31.16.31.36v8.76c0 .2-.14.36-.31.36H8.44c-.17 0-.31-.16-.31-.36.01 0 .01-8.76.01-8.76z"/></svg>