<svg xmlns="http://www.w3.org/2000/svg" width="32" height="32" viewBox="0 0 32 32"><path d="M11.8 19.643H9.968c-.085 0-.153.07-.153.153s.07.153.153.153H11.8c.086 0 .154-.07.154-.154s-.07-.153-.153-.153zm4.164 8.096c-.33 0-.597.267-.597.597 0 .33.268.597.597.597.33 0 .597-.268.597-.597 0-.33-.267-.598-.596-.598zm0 .887c-.16 0-.29-.13-.29-.29 0-.16.13-.29.29-.29s.29.13.29.29c0 .16-.13.29-.29.29zm-4.163-7.35H9.968c-.085 0-.153.07-.153.154 0 .085.07.154.153.154H11.8c.086 0 .154-.07.154-.153 0-.084-.07-.152-.153-.152zm0-3.27H9.968c-.085 0-.153.07-.153.154s.07.154.153.154H11.8c.086 0 .154-.07.154-.153s-.07-.152-.153-.152zm10.17 3.195h-8.694c-.127 0-.23.103-.23.23s.103.23.23.23h8.694c.127 0 .23-.103.23-.23s-.103-.23-.23-.23zm-8.924-6.31c0 .127.103.23.23.23h8.694c.127 0 .23-.103.23-.23s-.103-.23-.23-.23h-8.694c-.127 0-.23.103-.23.23zm10.344-1.978c-.03-.003-2.883-.308-7.39-.308-1.06 0-2.023.018-2.885.043V8.462c0-1.59 1.294-2.884 2.885-2.884s2.885 1.293 2.885 2.883V10.6c0 .17.137.306.306.306h2.453c.17 0 .306-.137.306-.306V8.463c0-3.28-2.67-5.95-5.95-5.95s-5.95 2.67-5.95 5.95v4.332c-.916.062-1.43.117-1.44.118-.156.017-.275.148-.275.305v9.808c0 .156.116.286.27.304.03.003 2.518.288 5.796.366v.898c-.887.543-1.43 1.504-1.43 2.552 0 1.65 1.342 2.992 2.993 2.992s2.992-1.342 2.992-2.992c0-1.084-.6-2.09-1.54-2.614v-.83c3.366-.072 5.947-.367 5.976-.37.156-.02.272-.15.272-.305V13.22c0-.157-.118-.29-.273-.306zm-12.727-4.45c0-2.942 2.394-5.336 5.337-5.336 2.942 0 5.337 2.394 5.337 5.336v1.83h-1.84v-.69h.878c.127 0 .23-.103.23-.23s-.103-.23-.23-.23h-.877v-.68c0-1.93-1.57-3.498-3.498-3.498s-3.498 1.57-3.498 3.497v4.206c-.697.025-1.316.055-1.84.086V8.463zm7.68 18.683c0 1.312-1.067 2.38-2.38 2.38-1.31 0-2.378-1.068-2.378-2.38 0-.883.486-1.69 1.268-2.103.1-.053.163-.158.163-.27v-1.065c.09 0 .182 0 .274.003v.808c0 .128.103.23.23.23s.23-.102.23-.23v-.803H16c.27 0 .538 0 .802-.004v1.008c0 .12.068.227.175.278.83.393 1.365 1.237 1.365 2.15zm4.707-4.395c-.768.08-3.086.293-5.92.342-.007 0-.014-.004-.02-.004h-2.402-.004c-2.758-.053-5-.26-5.753-.338v-9.255c.23-.02.605-.053 1.1-.087l.307-.02.306-.02c.522-.032 1.138-.062 1.84-.09l.305-.01.306-.01c.86-.026 1.824-.043 2.885-.043 3.675 0 6.238.204 7.05.278v9.255zm-1.08-6.455h-8.694c-.127 0-.23.103-.23.23s.103.23.23.23h8.694c.127 0 .23-.103.23-.23s-.103-.23-.23-.23zm-10.17-1.56H9.968c-.085 0-.153.07-.153.154 0 .086.07.154.153.154H11.8c.084 0 .152-.067.154-.15v-.003c0-.083-.068-.152-.153-.152zm0 1.636H9.968c-.085 0-.153.07-.153.153s.07.153.153.153H11.8c.086 0 .154-.07.154-.154s-.07-.153-.153-.153zm10.17 3.193h-8.694c-.127 0-.23.103-.23.23s.103.23.23.23h8.694c.127 0 .23-.103.23-.23s-.103-.23-.23-.23zm0-1.634h-8.694c-.127 0-.23.103-.23.23s.103.23.23.23h8.694c.127 0 .23-.103.23-.23s-.103-.23-.23-.23z"/></svg>