<svg xmlns="http://www.w3.org/2000/svg" viewBox="0 0 32 32"><g fill="#010101"><path d="M7.443 13.774c-1.278 0-2.318-1.04-2.318-2.317S6.165 9.14 7.443 9.14s2.317 1.04 2.317 2.317-1.04 2.317-2.317 2.317zm0-4.04c-.95 0-1.725.773-1.725 1.724 0 .95.774 1.725 1.725 1.725s1.725-.774 1.725-1.725c0-.952-.774-1.725-1.725-1.725zM27.508 24.3H14.074c-.384 0-.696-.31-.696-.695V16.8h.593v6.805c0 .057.048.104.105.104H27.51c.056 0 .103-.048.103-.105V8.395c0-.057-.047-.104-.104-.104H14.073c-.057 0-.104.047-.104.105v6.156h-.593V8.396c0-.384.312-.696.696-.696h13.434c.384 0 .696.31.696.695v15.21c.002.384-.31.696-.695.696z"/><path d="M27.262 23.126h-12.92c-.083 0-.15-.066-.15-.148s.067-.148.15-.148h12.92c.082 0 .148.066.148.148s-.066.148-.148.148zM4.53 22.785c-.165 0-.297-.133-.297-.296v-4.422c0-.164.133-.296.296-.296s.295.133.295.296v4.42c0 .164-.133.297-.296.297z"/><path d="M7.443 23.858c-1.085 0-2.1-.178-3.103-.544-.117-.043-.195-.154-.195-.278v-.474c-1.77-1.102-1.695-2.29-1.67-2.69l.003-.06V18.1c0-2.567 1.393-3.712 4.516-3.712h10.55c.578 0 1.048.47 1.048 1.046 0 .557-.396.966-1.01 1.044-.34.046-1.522.22-2.755.404-1.414.21-2.877.426-3.262.476-.538.07-.846.424-.846.972v4.7c0 .125-.08.237-.197.28-1.026.367-2.033.546-3.08.546zm-2.705-1.032c.88.3 1.746.44 2.705.44.91 0 1.79-.146 2.684-.445v-4.488c0-.84.535-1.45 1.363-1.56.38-.05 1.84-.265 3.25-.474 1.237-.183 2.42-.36 2.766-.405.186-.023.494-.113.494-.456 0-.25-.204-.454-.454-.454H6.994c-2.787 0-3.924.904-3.924 3.12v1.708c0 .026-.002.06-.004.1-.022.35-.08 1.287 1.525 2.23.092.052.147.15.147.254v.432z"/><path d="M7.413 22.525l-.817-.676.45-6.284-.304-.655c-.034-.073-.002-.16.072-.196.073-.035.162-.002.197.072l.336.724-.003.038-.442 6.17.512.42.51-.42-.443-6.208.334-.724c.035-.074.124-.107.197-.072.075.034.107.122.073.197l-.303.656.45 6.283-.817.675z"/><path d="M7.592 15.75h-.41c-.08 0-.147-.065-.147-.147 0-.082.066-.148.148-.148h.41c.08 0 .147.066.147.148 0 .082-.066.148-.148.148z"/></g></svg>