<svg xmlns="http://www.w3.org/2000/svg" viewBox="0 0 36 36"><title>Icon-Red_Hat-Objects-Clock-A-Black-RGB</title><path d="M26.44 17.39a.76.76 0 0 0-1 .41.72.72 0 0 0-.06.29.75.75 0 0 0 .22.53.78.78 0 0 0 .24.16.75.75 0 0 0 1-.69.72.72 0 0 0-.06-.29.63.63 0 0 0-.16-.24.81.81 0 0 0-.18-.17zM23.48 13a.87.87 0 0 0 .28.05.75.75 0 0 0 .54-.22.74.74 0 0 0 .21-.53.87.87 0 0 0-.05-.28.89.89 0 0 0-.16-.25.79.79 0 0 0-1.07 0 .72.72 0 0 0-.16.25.71.71 0 0 0-.06.28.75.75 0 0 0 .22.53.85.85 0 0 0 .25.17zM23.23 24.38a.77.77 0 0 0 .54.22.74.74 0 0 0 .52-.22.73.73 0 0 0 0-1.06.67.67 0 0 0-.24-.16.77.77 0 0 0-.82.16.75.75 0 0 0 0 1.06zM17.71 25.55a.78.78 0 0 0-.24.16.63.63 0 0 0-.16.24.73.73 0 0 0 0 .58.63.63 0 0 0 .16.24.75.75 0 0 0 1.06 0 .78.78 0 0 0 .16-.24.72.72 0 0 0 .06-.29.75.75 0 0 0-1-.69zM12.52 23.16a.77.77 0 0 0-.81.16.73.73 0 0 0 0 1.06.75.75 0 0 0 .53.22.79.79 0 0 0 .53-.22.75.75 0 0 0 0-1.06.72.72 0 0 0-.25-.16zM9.32 17.56a.81.81 0 0 0-.17.24.93.93 0 0 0-.05.29.75.75 0 0 0 .22.53.78.78 0 0 0 .24.16.72.72 0 0 0 .29.06.77.77 0 0 0 .53-.22.75.75 0 0 0 .22-.53.72.72 0 0 0-.06-.29.75.75 0 0 0-1.22-.24zM12.93 12a.72.72 0 0 0-.16-.25.76.76 0 0 0-.82-.16.67.67 0 0 0-.24.16.74.74 0 0 0-.17.25.71.71 0 0 0-.06.28.72.72 0 0 0 .23.53.7.7 0 0 0 .52.22.93.93 0 0 0 .29-.05 1 1 0 0 0 .25-.17.75.75 0 0 0 .22-.53.71.71 0 0 0-.06-.28z"/><path d="M18 29.77A11.77 11.77 0 0 0 29.75 18a.75.75 0 1 0-1.5 0 10.25 10.25 0 1 1-11-10.22V16A2.18 2.18 0 1 0 19 20l1.77 1.77a.74.74 0 0 0 .53.22.73.73 0 0 0 .53-.22.74.74 0 0 0 0-1.06L20 18.9a2.14 2.14 0 0 0-1.25-2.9V7a.75.75 0 0 0-.75-.73 11.75 11.75 0 0 0 0 23.5zm0-12.44a.69.69 0 1 1-.69.69.69.69 0 0 1 .69-.69z"/></svg>