<svg xmlns="http://www.w3.org/2000/svg" viewBox="0 0 36 36"><title>Icon-Red_Hat-Recycle-Compost-A-Black-RGB</title><path d="M6.25 14.22V17a.75.75 0 0 0 1.5 0v-2.8A4.26 4.26 0 0 1 12 10a.75.75 0 0 0 0-1.5 5.76 5.76 0 0 0-5.24 3.39 3.94 3.94 0 0 1-.22-1.24 3.86 3.86 0 0 1 3.86-3.88h3.85v3.85a3.86 3.86 0 0 1-3.85 3.85 3.82 3.82 0 0 1-1.17-.18.77.77 0 0 0-1 .49.75.75 0 0 0 .49.94 5.28 5.28 0 0 0 1.68.28 5.36 5.36 0 0 0 5.35-5.35V6a.75.75 0 0 0-.75-.73h-4.6A5.36 5.36 0 0 0 5 10.62 5.3 5.3 0 0 0 6.26 14c0 .07-.01.14-.01.22zM22 8.51a.74.74 0 0 0-.94.49 5.22 5.22 0 0 0-.25 1.62A5.36 5.36 0 0 0 26.19 16h4.6a.74.74 0 0 0 .75-.75v-4.6a5.34 5.34 0 0 0-8.72-4.14h-3a.75.75 0 0 0 0 1.5h2.8a4.26 4.26 0 0 1 4.25 4.25.75.75 0 1 0 1.5 0A5.77 5.77 0 0 0 25 7a3.93 3.93 0 0 1 1.24-.21A3.85 3.85 0 0 1 30 10.62v3.85h-3.81a3.86 3.86 0 0 1-3.67-5 .76.76 0 0 0-.52-.96zM30.54 22.81V20A.75.75 0 0 0 29 20v2.79a4.25 4.25 0 0 1-4.25 4.25.75.75 0 0 0 0 1.5A5.75 5.75 0 0 0 30 25.17a3.77 3.77 0 0 1 .22 1.24 3.86 3.86 0 0 1-3.85 3.86h-3.83v-3.86a3.86 3.86 0 0 1 5-3.67.75.75 0 1 0 .46-1.43 5.54 5.54 0 0 0-1.62-.25A5.36 5.36 0 0 0 21 26.41V31a.76.76 0 0 0 .75.75h4.65a5.36 5.36 0 0 0 5.35-5.36 5.29 5.29 0 0 0-1.22-3.36 1.93 1.93 0 0 0 .01-.22zM10.6 31.77a5.3 5.3 0 0 0 3.4-1.22h3a.75.75 0 0 0 0-1.5h-2.79A4.25 4.25 0 0 1 10 24.81a.75.75 0 1 0-1.5 0 5.75 5.75 0 0 0 3.39 5.24 3.78 3.78 0 0 1-1.25.22 3.86 3.86 0 0 1-3.85-3.86v-3.85h3.81a3.83 3.83 0 0 1 3.67 5 .77.77 0 0 0 .49 1 .75.75 0 0 0 .94-.56 5.25 5.25 0 0 0 .3-1.59 5.36 5.36 0 0 0-5.36-5.35H6a.75.75 0 0 0-.75.75v4.6a5.36 5.36 0 0 0 5.35 5.36z"/></svg>