<svg xmlns="http://www.w3.org/2000/svg" width="32" height="32" viewBox="0 0 32 32"><path d="M21.073 7.656c-.176-.737-1.967-1.066-3.614-1.182-.146-.305-.454-.518-.813-.518h-1.293c-.36 0-.668.213-.812.518-1.735.12-3.63.48-3.63 1.302v.004c-.603.738-.605.965-.605 1.043v14.5c0 .302.256.576.68.812v.38c0 .9 2.64 1.528 5.012 1.528s5.01-.627 5.01-1.528v-.38c.425-.235.682-.51.682-.813v-14.5c0-.21-.21-.603-.62-1.167zm-5.72-1.24h1.294c.217 0 .398.158.434.364l-.19.23c-.035.042-.054.095-.054.148 0 .106 0 .19-.44.19h-.79c-.44 0-.44-.084-.44-.19 0-.054-.02-.106-.054-.147l-.192-.23c.036-.207.217-.364.434-.364zm-.78.667l.136.164c.02.207.117.338.24.42-.364.068-.602.17-.602.287 0 .204.727.37 1.624.37.896 0 1.623-.166 1.623-.37 0-.112-.22-.21-.56-.28.13-.08.234-.212.256-.427l.137-.164c1.807.125 2.877.47 3.038.693-.2.277-1.795.74-4.466.74-2.67 0-4.266-.463-4.467-.74.162-.223 1.23-.567 3.04-.693zm5.98 17.433c0 .308-1.815 1.068-4.553 1.068s-4.552-.76-4.552-1.068v-.163c1.108.443 2.866.707 4.553.707 1.688 0 3.445-.264 4.553-.707v.163zm-.61-.597c-.892.278-2.263.527-3.944.527-1.684 0-3.056-.25-3.95-.528-.69-.216-1.093-.45-1.13-.597V8.846c0-.006.006-.015.01-.022.04-.092.166-.28.33-.493.31.22.798.38 1.348.494 1.43.3 3.265.306 3.39.306s1.96-.006 3.392-.306c.57-.142 1.052-.308 1.386-.52.163.247.288.46.303.52v14.493c-.038.152-.442.386-1.136.603zM13.06 10.362c.112 0 .21-.083.226-.198.018-.126-.07-.242-.196-.26-.52-.074-.976-.168-1.35-.278-.122-.036-.25.034-.285.156s.034.25.156.285c.397.116.873.214 1.416.29.012.003.022.004.033.004zm7.2-.736c-.993.293-2.586.467-4.26.467-.374 0-.753-.01-1.123-.026-.112-.008-.234.092-.24.22s.092.233.22.24c.377.018.762.026 1.144.026 1.742 0 3.343-.177 4.39-.486.122-.036.193-.164.157-.286-.036-.12-.165-.19-.286-.155zm-1.15 6.857c-.016-.028-.04-.047-.07-.056-.03-.008-.063-.004-.09.012l-1.577.934c-.054.032-.072.1-.042.156l.827 1.477h-.892l.004-.355c0-.057 0-.11-.073-.158-.06-.04-.14-.035-.21.017-.01.01-.02.018-.025.028l-.91 1.312c-.028.04-.028.092 0 .132l.91 1.313c.006.01.016.02.026.027.04.03.08.044.12.044.032 0 .062-.01.09-.027.07-.05.07-.103.07-.16l-.003-.355h.654c.69 0 .914-.39.925-.41l.823-1.58v-.004h.003c.327-.718.05-1.223.04-1.243l-.6-1.1zm-.47 3.82c0 .003-.176.29-.722.29h-.77c-.032 0-.06.01-.083.033s-.034.052-.034.083l.005.286-.75-1.08.75-1.08-.004.286c0 .03.013.06.035.083.022.022.05.034.082.034h1.595c.066 0 .28-.007.493-.078l-.595 1.143zm.82-1.578c-.117.22-.52.28-.72.28h-.318l-.835-1.492 1.376-.815.542.995c.01.017.228.428-.045 1.03zm-4.02.066l-1.713-.003.47-.81.31.19c.035.02.062.036.103.036.033 0 .057-.012.07-.018.066-.032.1-.102.092-.188 0-.013-.005-.026-.01-.037l-.67-1.45c-.02-.043-.065-.07-.113-.067l-1.594.118c-.013 0-.025.004-.036.01-.08.033-.125.097-.12.17.004.087.05.115.1.144l.302.17-.327.57c-.09.154-.15.31-.18.46v.025c-.048.324.162.68.172.697l.84 1.34c.45.646 1.026.664 1.05.665l1.25.042h.003c.03 0 .058-.012.08-.033.023-.022.036-.05.036-.083v-1.83c0-.064-.05-.116-.115-.116zm-3.085-.673c.024-.123.074-.25.15-.38l.386-.67c.016-.027.02-.058.012-.088-.008-.03-.028-.055-.054-.07l-.24-.135 1.31-.096.55 1.193-.25-.153c-.026-.016-.057-.02-.088-.014-.03.008-.056.027-.072.054l-.598 1.03c-.172 0-.598-.02-.87-.215-.156-.112-.232-.26-.234-.457zm2.97 2.5l-1.13-.04c-.02 0-.487-.02-.865-.56l-.734-1.173.02.007c.062.03.128.056.195.076l.026.008c.07.02.138.035.206.046.014.002.026.005.04.006.065.01.128.017.186.022.01 0 .02 0 .032.002.058.003.113.006.158.006h.073l.02-.002 1.775.004v1.597zm1.17-4.69l-.3.162c-.05.025-.1.05-.108.137-.008.072.034.138.112.177.01.006.022.01.035.01l1.585.2c.005.002.01.002.014.002.042 0 .082-.024.102-.063l.743-1.413c.005-.01.01-.023.01-.035.015-.087-.016-.16-.08-.195-.016-.008-.042-.022-.078-.022-.037 0-.063.014-.096.03l-.33.167-.287-.578c-.32-.612-.77-.632-.793-.632l-1.79.002c-.785.042-1.105.52-1.117.54l-.7 1.04c-.017.025-.023.057-.016.088.006.03.026.057.052.074l1.556.966c.02.012.04.018.06.018.04 0 .075-.018.098-.052l.925-1.41.4.784zm-1.456.405l-1.36-.844.633-.94c.01-.017.275-.4.936-.437.264.002.508.37.58.51l.145.286-.935 1.425zm.694-2.222h1.29c.013 0 .34.022.59.505l.338.68c.014.027.038.048.067.057s.06.007.088-.006l.277-.14-.616 1.17-1.313-.166.247-.134c.055-.03.077-.098.048-.154l-.532-1.044c-.004-.015-.01-.028-.02-.04l-.164-.323c-.01-.016-.118-.23-.302-.407z"/></svg>