<svg xmlns="http://www.w3.org/2000/svg" width="32" height="32" viewBox="0 0 32 32"><path d="M7.478 7.398c.148 0 .268-.12.268-.268s-.12-.268-.268-.268h-1.44c-.148 0-.268.12-.268.268s.12.268.268.268h.473v15.224H6.04c-.148 0-.268.12-.268.268s.12.268.268.268h1.44c.148 0 .268-.12.268-.268s-.12-.268-.268-.268h-.43V7.4h.43zM25.96 23.162c-.147 0-.267.12-.267.268v.43l-16.77.02v-.45c0-.148-.12-.268-.268-.268-.148 0-.268.12-.268.268v1.44c0 .148.12.268.268.268.148 0 .268-.12.268-.268v-.452l16.77-.02v.472c0 .148.12.268.268.268s.27-.12.27-.268v-1.44c0-.148-.12-.268-.27-.268zm-8.197-3.102c.313 0 .568-.304.568-.68v-1.465c0-.374-.254-.68-.567-.68-.07 0-.138.02-.2.047-.286-.56-.867-.945-1.537-.945h-1.588c-.672 0-1.254.387-1.54.95-.065-.032-.137-.05-.212-.05-.313 0-.568.304-.568.678v1.466c0 .375.255.68.568.68.034 0 .068-.005.1-.012.04.13.094.254.16.37-.073.103-.12.257-.12.486 0 .498.844.854 1.34 1.02.015.005.4.15 1.066.15.665 0 1.05-.145 1.058-.148.504-.168 1.348-.524 1.348-1.022 0-.23-.05-.383-.122-.487.067-.115.12-.238.16-.368.03.005.057.01.086.01zm-4.815-.68c0 .184-.1.334-.223.362-.013.003-.025.01-.038.01-.142 0-.262-.17-.262-.37v-1.467c0-.202.12-.373.262-.373.035 0 .07.01.1.03.093.057.16.19.16.343v1.466zm3.215 2.185c-.004.002-.343.126-.93.126-.588 0-.927-.123-.938-.127-.75-.25-1.086-.535-1.086-.658 0-.056.003-.098.007-.135.02-.162.083-.166.145-.166.066 0 .15.016.226.032.006.002.038.01.088.02.234.05.902.176 1.557.176.656 0 1.326-.13 1.556-.177l.083-.018c.08-.017.165-.033.23-.033.062 0 .124.003.145.166.005.037.008.08.008.135 0 .123-.337.41-1.093.66zm1.017-1.34c-.026-.002-.05-.004-.077-.004-.096 0-.194.017-.314.043-.01.002-.81.186-1.558.186-.75 0-1.55-.186-1.56-.188-.118-.025-.215-.04-.31-.04-.027 0-.052 0-.078.004-.075-.127-.132-.266-.162-.415.08-.117.132-.265.132-.428v-1.466c0-.116-.026-.223-.07-.318.19-.51.678-.876 1.254-.876h1.588c.568 0 1.052.357 1.247.857-.048.1-.078.213-.078.337v1.466c0 .172.055.327.143.446-.03.142-.087.274-.16.397zm.322-.844v-1.465c0-.16.075-.295.175-.347.028-.014.056-.026.086-.026.142 0 .262.17.262.373v1.466c0 .203-.12.373-.262.373-.008 0-.016-.006-.024-.007-.13-.018-.238-.175-.238-.365zm8.46-12.518H8.735c-.12 0-.215.078-.25.184-.014.026-.023.054-.023.084v7.56c0 .106.086.192.192.192H21.12v7c0 .107.087.193.193.193h4.554c.03.01.06.02.094.02.15 0 .27-.12.27-.27V7.132c0-.147-.12-.267-.27-.267zm-.27 14.83h-4.188v-6.81h4.19v6.81zm0-7.193H8.847V7.4h16.846v7.1z"/></svg>