<svg data-name="Icon" xmlns="http://www.w3.org/2000/svg" width="36" height="36" viewBox="0 0 36 36"><title>Icon-Red_Hat-Diagrams-Graph_Exponential_Up-A-Black-RGB</title><path d="M22.75 10v4.9a.75.75 0 0 0 1.5 0V10a.75.75 0 0 0-1.5 0zM6.5 23.3a.76.76 0 0 0 .75-.75V7.75h20.5V9a.75.75 0 0 0 1.5 0V7a.76.76 0 0 0-.75-.75h-22a.76.76 0 0 0-.75.75v15.55a.76.76 0 0 0 .75.75zM16.75 10v9a.75.75 0 0 0 1.5 0v-9a.75.75 0 0 0-1.5 0zm11.75 7.3a.76.76 0 0 0-.75.75v10.2H7.25v-.7a.75.75 0 1 0-1.5 0V29a.76.76 0 0 0 .75.75h22a.76.76 0 0 0 .75-.75V18.05a.76.76 0 0 0-.75-.75zM10.75 10v10.73a.75.75 0 1 0 1.5 0V10a.75.75 0 0 0-1.5 0zm20.08 0a.75.75 0 0 0-1 .35 25.06 25.06 0 0 1-9.47 10.38 25.23 25.23 0 0 1-14.81 3.52.76.76 0 0 0-.8.7.75.75 0 0 0 .7.8c.53 0 1.15.06 1.84.06A26.72 26.72 0 0 0 21.14 22a26.48 26.48 0 0 0 10-11 .75.75 0 0 0-.31-1z"/></svg>