<svg xmlns="http://www.w3.org/2000/svg" width="32" height="32" viewBox="0 0 32 32"><path d="M15.528 10.528c2.346 0 4.255-1.91 4.255-4.255 0-2.346-1.91-4.254-4.255-4.254-2.346 0-4.255 1.908-4.255 4.253 0 2.346 1.91 4.255 4.255 4.255zm0-7.897c2.008 0 3.642 1.635 3.642 3.642 0 2.01-1.634 3.642-3.642 3.642s-3.642-1.634-3.642-3.642 1.634-3.64 3.642-3.64zm2.334 8.723h-4.667c-4.338 0-6.726 2.39-6.726 6.726v3.746c0 2.124 1.41 3.162 2.905 4.26l.198.147v1.4c0 .074.027.146.077.202.292.33 1.58 1.413 5.88 1.413s5.587-1.082 5.88-1.413c.05-.056.077-.128.077-.203v-1.4l.196-.144c1.495-1.1 2.908-2.137 2.908-4.262V18.08c0-4.34-2.388-6.727-6.726-6.727zm6.113 10.473c0 1.814-1.23 2.72-2.655 3.767V17.48c0-.15-.12-.27-.268-.27-.148 0-.268.12-.268.27v10.1c-.44.346-1.768 1.055-5.255 1.055-3.617 0-4.91-.762-5.3-1.09.006-.025.014-.05.014-.076v-9.99c0-.15-.12-.27-.268-.27s-.268.12-.268.27v8.09c-1.412-1.038-2.626-1.943-2.626-3.744V18.08c0-2.79 1.06-6.114 6.113-6.114h4.667c5.053 0 6.114 3.324 6.114 6.113v3.746zm-4.643-5.046h-2.657c-.13 0-.238.107-.238.238v2.338c0 .097.06.184.15.22l1.327.538c.03.01.06.018.09.018s.06-.006.088-.018l1.328-.538c.09-.036.148-.123.148-.22v-2.338c0-.13-.106-.238-.237-.238zm-.237 2.415l-1.09.44-1.09-.44v-1.94h2.18v1.94z"/></svg>