<svg xmlns="http://www.w3.org/2000/svg" width="32" height="32" viewBox="0 0 32 32"><path d="M9.66 12.395l2.234-.347c.167-.026.282-.183.256-.35-.026-.168-.184-.28-.35-.256l-2.274.353c-.023.004-.05.01-.072.02.002-.013.012-.054.058-.116l4.728-5.715 4.718 5.702c.056.075.066.12.072.12-.002.002-.005.005-.006.008-.026-.01-.052-.018-.08-.02l-2.888-.355c-.087-.01-.175.017-.24.075s-.12.142-.12.23v8.164l-2.518-.307c-.27-.107-.542-.012-.72.256-.072.11-.21.41.104.83l4.964 6c.058.07.145.11.236.11.09 0 .178-.04.236-.11l4.973-6.01c.307-.41.17-.71.096-.82-.185-.278-.467-.37-.746-.247l-2.252.347c-.162.047-.256.217-.21.38.048.162.22.255.38.208l2.276-.353.034-.012c-.002.014-.012.055-.058.116l-4.727 5.713-4.718-5.7c-.056-.076-.066-.12-.072-.12l.006-.01c.025.01.05.02.08.022l2.887.354c.087.01.175-.018.24-.076.067-.058.122-.142.122-.23V12.09l2.516.306c.27.106.542.01.72-.256.072-.11.21-.41-.104-.832l-4.963-6c-.06-.07-.146-.11-.237-.11-.09 0-.178.04-.236.11L9.034 11.32c-.306.408-.17.71-.095.82.18.27.452.364.724.254z"/></svg>