<svg id="Layer_1" xmlns="http://www.w3.org/2000/svg" viewBox="0 0 32 32"><style>.st0{fill:#010101;}</style><path class="st0" d="M9.58 14.67h-.02c-1.26-.18-2.33-.41-3.18-.68-.08-.02-.12-.11-.1-.19.03-.08.11-.12.19-.1.83.26 1.88.49 3.13.67.08.01.14.09.13.17-.01.08-.08.13-.15.13zM16 15.24c-1.28 0-2.54-.04-3.74-.13-.16-.01-.29-.15-.27-.32s.16-.28.32-.27c1.19.09 2.43.13 3.7.13 3.91 0 7.49-.42 9.6-1.11.16-.05.32.03.37.19.05.15-.03.32-.19.37-2.17.71-5.82 1.14-9.79 1.14z"/><path class="st0" d="M16 22.26c-5.87 0-11.82-.94-11.82-2.75v-7.02c0-1.8 5.94-2.75 11.82-2.75s11.82.94 11.82 2.75v7.02c0 1.81-5.95 2.75-11.82 2.75zm0-11.93c-6.95 0-11.22 1.26-11.22 2.16v7.02c0 .9 4.27 2.16 11.22 2.16s11.22-1.25 11.22-2.16v-7.02c0-.9-4.27-2.16-11.22-2.16z"/></svg>