<svg xmlns="http://www.w3.org/2000/svg" width="32" height="32" viewBox="0 0 32 32"><path d="M14.722 19.32h5.417c.103.317.477 1.043 1.73 1.043h.314l-.178-.262c-.002-.002-.204-.31-.144-.558.022-.09.078-.164.172-.223h1.542c.324 0 .588-.264.588-.588v-4.237c0-.325-.264-.588-.588-.588H18.88v-2.64c0-.324-.263-.588-.587-.588H9.44c-.325 0-.59.263-.59.587v4.238c0 .324.265.587.59.587h1.54c.094.06.15.133.172.223.06.25-.142.556-.144.56l-.178.26h.316c1.252 0 1.626-.726 1.73-1.044h1.258v2.642c0 .324.264.587.588.587zm4.16-3.816V14.24h4.695c.14 0 .254.115.254.255v4.238c0 .14-.113.253-.253.253h-1.63l-.038.02c-.2.11-.325.263-.372.46-.047.195-.003.395.054.55-1.035-.114-1.154-.85-1.158-.884l-.02-.146h-5.692c-.14 0-.254-.114-.254-.253v-2.64h3.825c.324 0 .588-.264.588-.588zm-4.413.253v-1.263c0-.14.113-.254.253-.254h3.825v1.263c0 .14-.114.254-.254.254H14.47zm-1.87 0l-.02.146c-.004.033-.122.77-1.157.884.057-.154.102-.354.054-.55-.047-.196-.172-.35-.37-.458l-.04-.02h-1.63c-.14 0-.253-.115-.253-.255v-4.238c0-.14.115-.254.255-.254h8.853c.14 0 .254.114.254.254v2.64h-3.825c-.324 0-.588.263-.588.588v1.263H12.6zM25.664 6.56H6.948c-.2 0-.36.16-.36.36v18.716c0 .2.16.36.36.36h2.305c.03 0 .057-.004.085-.01l6.557-1.588c.194-.046.312-.24.265-.435-.046-.194-.242-.312-.435-.265L9.21 25.276H7.306V7.28h17.996v17.997h-8.917c-.2 0-.36.16-.36.36s.16.36.36.36h9.277c.2 0 .36-.16.36-.36V6.92c0-.197-.16-.36-.36-.36z"/></svg>