<svg data-name="Layer 1" xmlns="http://www.w3.org/2000/svg" viewBox="0 0 36 36"><title>Icon-Red_Hat-Collaboration-A-Black-RGB</title><path d="M13.92 22.75c.007-.01.017-.015.026-.023a3.49 3.49 0 1 0-4.933 0c.008.008.02.014.027.022a6.243 6.243 0 0 0-3.79 5.73.75.75 0 0 0 .75.75h10.958a.748.748 0 0 0 .75-.75 6.24 6.24 0 0 0-3.79-5.73zm-3.847-3.896a1.987 1.987 0 1 1-.583 1.407 1.984 1.984 0 0 1 .583-1.406zm1.406 8.875H6.81a4.73 4.73 0 0 1 9.34 0zM26.96 22.75c.01-.01.02-.015.027-.023a3.49 3.49 0 1 0-4.932 0c.008.008.018.014.027.022a6.243 6.243 0 0 0-3.79 5.73.75.75 0 0 0 .75.75H30a.75.75 0 0 0 .75-.75 6.243 6.243 0 0 0-3.79-5.73zm-3.845-3.896a1.987 1.987 0 1 1-.583 1.407 1.982 1.982 0 0 1 .583-1.406zm1.406 8.875h-4.668a4.73 4.73 0 0 1 9.338 0zM30.53 6.99a.744.744 0 0 0-.53-.22H6a.75.75 0 0 0-.75.75v6a.75.75 0 0 0 .75.75h3.19l.89.89.89.89a.748.748 0 0 0 1.06 0l.89-.89.89-.89h8.38l.89.89.89.89a.748.748 0 0 0 1.06 0l.89-.89.89-.89H30a.75.75 0 0 0 .75-.75v-6a.747.747 0 0 0-.22-.53zm-1.28 3.53v2.25H26.5a.75.75 0 0 0-.53.22l-.735.735-.735.735-.735-.735-.735-.735a.75.75 0 0 0-.53-.22h-9a.75.75 0 0 0-.53.22l-.735.735-.735.735-.735-.735-.735-.735a.75.75 0 0 0-.53-.22H6.75v-4.5h22.5z"/></svg>