<svg xmlns="http://www.w3.org/2000/svg" viewBox="0 0 32 32"><path d="M24.83 5.58H7.17c-.17 0-.31.14-.31.31v20.23c0 .17.14.31.31.31h17.66c.17 0 .31-.14.31-.31V5.89c0-.17-.14-.31-.31-.31zm-.3 20.23H7.48V6.19h17.05v19.62zm-3.28-14.16c1.19 0 2.16-.97 2.16-2.16 0-1.19-.97-2.16-2.16-2.16-1.19 0-2.16.97-2.16 2.16s.97 2.16 2.16 2.16zm0-3.86c.94 0 1.7.76 1.7 1.7s-.76 1.7-1.7 1.7-1.7-.76-1.7-1.7.76-1.7 1.7-1.7zm0 2.1c.22 0 .43-.21.43-.43 0-.72-.28-1.41-.29-1.45-.05-.12-.24-.12-.28 0-.01.03-.29.73-.29 1.45 0 .22.21.43.43.43zm0-1.3c.06.25.12.56.12.88 0 .05-.07.12-.12.12s-.12-.07-.12-.12c-.01-.32.06-.64.12-.88zm1 .9c0 .08.07.15.15.15h.18c.08 0 .15-.07.15-.15 0-.09-.07-.15-.15-.15h-.18c-.08-.01-.15.06-.15.15zm-2.01 0c0-.09-.07-.15-.15-.15h-.18c-.08 0-.15.07-.15.15 0 .08.07.15.15.15h.18c.09 0 .15-.07.15-.15zm1.94.71c-.06-.06-.16-.06-.22 0s-.06.16 0 .22l.13.13c.03.03.07.05.11.05.04 0 .08-.02.11-.05.06-.06.06-.16 0-.22l-.13-.13zm-1.86-1.42c.03.03.07.05.11.05.04 0 .08-.02.11-.05.06-.06.06-.16 0-.22l-.13-.13c-.06-.06-.16-.06-.22 0s-.06.16 0 .22l.13.13zm.93 1.71c-.08 0-.15.07-.15.15v.18c0 .09.07.15.15.15s.15-.07.15-.15v-.18c0-.08-.07-.15-.15-.15zm-.93-.29l-.13.13c-.06.06-.06.16 0 .22.03.03.07.05.11.05.04 0 .08-.02.11-.05l.13-.13c.06-.06.06-.16 0-.22s-.16-.06-.22 0zm1.75-1.38c.04 0 .08-.02.11-.05l.13-.13c.06-.06.06-.16 0-.22s-.16-.06-.22 0l-.13.13c-.06.06-.06.16 0 .22.03.04.07.05.11.05zm-6.14 2.83c.58 0 1.12-.23 1.53-.63.84-.84.84-2.21 0-3.06-.41-.41-.95-.63-1.53-.63-.58 0-1.12.22-1.53.63-.84.84-.84 2.21 0 3.06.42.4.96.63 1.53.63zm-1.2-3.37c.32-.32.75-.5 1.2-.5.45 0 .88.18 1.2.5.66.66.66 1.74 0 2.4-.32.32-.75.5-1.2.5-.45 0-.88-.18-1.2-.5-.66-.66-.66-1.73 0-2.4zm1.22 1.61c.12 0 .23-.04.3-.12.51-.51.81-1.2.82-1.23.02-.06.01-.12-.03-.17-.04-.03-.11-.05-.17-.02-.03.01-.72.31-1.23.82-.08.07-.12.19-.12.3 0 .12.04.23.12.31.08.07.19.11.31.11zm-.09-.51c.22-.22.49-.4.71-.53-.13.22-.31.49-.53.71-.03.03-.14.03-.18 0-.02-.02-.03-.05-.03-.09s.02-.07.03-.09zm1 .82c-.06-.06-.16-.06-.22 0s-.06.16 0 .22l.13.13c.03.03.07.05.11.05.04 0 .08-.02.11-.05.06-.06.06-.16 0-.22l-.13-.13zm-1.85-1.42c.03.03.07.05.11.05s.08-.02.11-.05c.06-.06.06-.16 0-.22l-.13-.13c-.06-.06-.16-.06-.22 0s-.06.16 0 .22l.13.13zm.92 1.71c-.08 0-.15.07-.15.15v.18c0 .08.07.15.15.15.08 0 .15-.07.15-.15v-.18c.01-.08-.06-.15-.15-.15zm0-2.01c.08 0 .15-.07.15-.15v-.18c0-.09-.07-.15-.15-.15-.08 0-.15.07-.15.15v.18c0 .08.07.15.15.15zm-.92 1.72l-.13.13c-.06.06-.06.16 0 .22.03.03.07.05.11.05.04 0 .08-.02.11-.05l.13-.13c.06-.06.06-.16 0-.22s-.16-.06-.22 0zm-.08-.71c0-.09-.07-.15-.15-.15h-.18c-.08 0-.15.07-.15.15 0 .08.07.15.15.15h.18c.08 0 .15-.07.15-.15zm2.01 0c0 .08.07.15.15.15h.18c.08 0 .15-.07.15-.15 0-.09-.07-.15-.15-.15h-.18c-.08-.01-.15.06-.15.15zm-6.32 2.16c.58 0 1.12-.23 1.53-.63.84-.84.84-2.21 0-3.06-.41-.41-.95-.63-1.53-.63-.58 0-1.12.22-1.53.63-.41.41-.63.95-.63 1.53s.23 1.12.63 1.53c.41.4.95.63 1.53.63zm-1.2-3.37c.32-.32.75-.5 1.2-.5.45 0 .88.18 1.2.5.66.66.66 1.74 0 2.4-.32.32-.75.5-1.2.5-.45 0-.88-.18-1.2-.5-.67-.66-.67-1.73 0-2.4zm2.14 2.34c.02.01.04.01.06.01.04 0 .08-.02.11-.05.04-.04.06-.11.03-.17-.01-.03-.31-.72-.82-1.23-.15-.15-.46-.15-.61 0-.07.07-.12.19-.12.31s.04.23.12.31c.51.51 1.2.81 1.23.82zm-1.01-1.21c.02-.02.05-.03.09-.03s.07.01.09.03c.22.22.4.49.53.71-.22-.13-.49-.31-.71-.53-.02-.02-.03-.05-.03-.09s.01-.07.03-.09zm-.86.79l-.13.13c-.06.06-.06.16 0 .22.03.03.07.05.11.05s.08-.02.11-.05l.13-.13c.06-.06.06-.16 0-.22s-.16-.06-.22 0zm1.75-1.38c.04 0 .08-.02.11-.05l.13-.13c.06-.06.06-.16 0-.22s-.16-.06-.22 0l-.13.13c-.06.06-.06.16 0 .22.03.04.07.05.11.05zm-1.83.67c0-.08-.07-.15-.15-.15h-.18c-.09 0-.15.07-.15.15 0 .09.07.15.15.15h.18c.09 0 .15-.07.15-.15zm2.01 0c0 .08.07.15.15.15h.18c.09 0 .15-.07.15-.15 0-.08-.07-.15-.15-.15h-.18c-.08-.01-.15.06-.15.15zm-1.93-.71c.03.03.07.04.11.04s.08-.02.11-.05c.06-.06.06-.16 0-.22l-.13-.12c-.06-.06-.16-.06-.22 0s-.06.16 0 .22l.13.13zm.93-.3c.09 0 .15-.07.15-.15v-.18c0-.09-.07-.15-.15-.15s-.15.07-.15.15v.18c0 .08.07.15.15.15zm0 2.01c-.09 0-.15.07-.15.15v.18c0 .08.07.15.15.15s.15-.07.15-.15v-.18c0-.08-.07-.15-.15-.15zm9.65 10.19c.13 0 .23-.1.23-.23v-3.5h.29c.08 0 .15-.07.15-.15v-.47c0-.08-.07-.15-.15-.15h-.29v-1.89c0-.13-.1-.23-.23-.23s-.23.1-.23.23v1.89h-.29c-.08 0-.15.07-.15.15v.47c0 .08.07.15.15.15h.29v3.49c0 .14.1.24.23.24zm-.37-4.19h.73v.16h-.73v-.16zm-2.04 4.19c.13 0 .23-.1.23-.23v-1.98h.29c.08 0 .15-.07.15-.15v-.47c0-.08-.07-.15-.15-.15h-.29v-3.41c0-.13-.1-.23-.23-.23s-.23.1-.23.23v3.41h-.29c-.08 0-.15.07-.15.15v.47c0 .08.07.15.15.15h.29v1.98c0 .13.11.23.23.23zm-.36-2.67h.73v.16h-.73v-.16zm-2.04 2.67c.13 0 .23-.1.23-.23V18.1h.29c.09 0 .15-.07.15-.15v-.47c0-.08-.07-.15-.15-.15h-.29V14.3c0-.13-.1-.23-.23-.23s-.23.1-.23.23v3.03h-.29c-.09 0-.15.07-.15.15v.47c0 .08.07.15.15.15h.29v2.35c0 .13.1.23.23.23zm-.37-3.05h.73v.16h-.73v-.16zm-1.55-2.86h-.04c-.02-.12-.07-.23-.13-.32l.02-.02c.06-.06.06-.16 0-.22s-.16-.06-.22 0l-.02.02c-.1-.07-.2-.11-.32-.13v-.03c0-.09-.07-.15-.15-.15-.08 0-.15.07-.15.15v.03c-.12.02-.23.07-.32.13l-.02-.02c-.06-.06-.16-.06-.22 0s-.06.16 0 .22l.02.02c-.07.1-.11.2-.13.32h-.03c-.09 0-.15.07-.15.15 0 .09.07.15.15.15h.03c.02.12.07.23.13.32l-.02.02c-.06.06-.06.16 0 .22.03.03.07.05.11.05.04 0 .08-.02.11-.04l.02-.02c.1.07.2.11.32.13v.03c0 .09.07.15.15.15.09 0 .15-.07.15-.15v-.03c.12-.02.23-.07.32-.13l.02.02c.03.03.07.05.11.05.04 0 .08-.02.11-.05.06-.06.06-.16 0-.22l-.02-.02c.07-.1.11-.2.13-.32h.03c.09 0 .15-.07.15-.15.01-.09-.06-.16-.14-.16zm-.86.69c-.15 0-.28-.06-.38-.16-.1-.1-.16-.23-.16-.38s.06-.28.16-.38c.1-.1.23-.16.38-.16s.28.06.38.16c.1.1.16.23.16.38-.01.3-.25.54-.54.54zm-2.14-.69h-.03c-.02-.12-.07-.23-.13-.32l.02-.02c.06-.06.06-.16 0-.22s-.16-.06-.22 0l-.02.02c-.1-.07-.2-.11-.32-.13v-.03c0-.09-.07-.15-.15-.15s-.15.07-.15.15v.03c-.12.02-.23.07-.32.13l-.02-.02c-.06-.06-.16-.06-.22 0s-.06.16 0 .22l.02.02c-.07.1-.11.2-.13.32h-.05c-.09 0-.15.07-.15.15 0 .09.07.15.15.15h.03c.02.12.07.23.13.32l-.02.02c-.06.06-.06.16 0 .22.03.03.07.05.11.05s.08-.02.11-.04l.02-.02c.1.07.2.11.32.13v.03c0 .09.07.15.15.15s.15-.07.15-.15v-.03c.12-.02.23-.07.32-.13l.02.02c.03.03.07.05.11.05s.08-.02.11-.05c.06-.06.06-.16 0-.22l-.02-.02c.07-.1.11-.2.13-.32h.03c.09 0 .15-.07.15-.15s-.04-.16-.13-.16zm-.86.69c-.15 0-.28-.06-.38-.16-.1-.1-.16-.23-.16-.38s.06-.28.16-.38c.1-.1.23-.16.38-.16s.28.06.38.16c.1.1.16.23.16.38 0 .3-.24.54-.54.54zm3.86 2.63c.09 0 .15-.07.15-.15 0-.08-.07-.15-.15-.15h-.04c-.02-.12-.07-.23-.13-.32l.02-.02c.06-.06.06-.16 0-.22s-.16-.06-.22 0l-.02.02c-.1-.07-.2-.11-.32-.13v-.03c0-.08-.07-.15-.15-.15-.08 0-.15.07-.15.15v.03c-.12.02-.23.07-.32.13l-.02-.02c-.06-.06-.16-.06-.22 0s-.06.16 0 .22l.02.02c-.07.1-.11.2-.13.32h-.03c-.09 0-.15.07-.15.15 0 .08.07.15.15.15h.03c.02.12.07.23.13.32l-.02.02c-.06.06-.06.16 0 .22.03.03.07.05.11.05.04 0 .08-.01.11-.05l.02-.02c.1.07.2.11.32.13v.03c0 .08.07.15.15.15.09 0 .15-.07.15-.15v-.03c.12-.02.23-.07.32-.13l.02.02c.03.03.07.05.11.05.04 0 .08-.01.11-.05.06-.06.06-.16 0-.22l-.02-.02c.07-.1.11-.21.13-.32h.04zm-.86.38c-.15 0-.28-.06-.38-.16-.1-.1-.16-.23-.16-.38s.06-.28.16-.38c.1-.1.23-.16.38-.16s.28.06.38.16c.1.1.16.23.16.38 0 .3-.25.54-.54.54zm-2.14-.69h-.03c-.02-.12-.07-.23-.13-.32l.02-.02c.06-.06.06-.16 0-.22s-.16-.06-.22 0l-.02.02c-.1-.07-.2-.11-.32-.13v-.03c0-.08-.07-.15-.15-.15s-.15.07-.15.15v.03c-.12.02-.23.07-.32.13l-.02-.02c-.06-.06-.16-.06-.22 0s-.06.16 0 .22l.02.02c-.07.1-.11.2-.13.32h-.05c-.09 0-.15.07-.15.15 0 .08.07.15.15.15h.03c.02.12.07.23.13.32l-.02.02c-.06.06-.06.16 0 .22.03.03.07.05.11.05s.08-.01.11-.05l.02-.02c.1.07.2.11.32.13v.03c0 .08.07.15.15.15s.15-.07.15-.15v-.03c.12-.02.23-.07.32-.13l.02.02c.03.03.07.05.11.05s.08-.01.11-.05c.06-.06.06-.16 0-.22l-.02-.02c.07-.1.11-.2.13-.32h.03c.09 0 .15-.07.15-.15.03-.08-.04-.15-.13-.15zm-.86.69c-.15 0-.28-.06-.38-.16-.1-.1-.16-.23-.16-.38s.06-.28.16-.38c.1-.1.23-.16.38-.16s.28.06.38.16c.1.1.16.23.16.38 0 .31-.24.55-.54.54zm3.69 2.96c.07-.1.11-.2.13-.32h.03c.09 0 .15-.07.15-.15 0-.08-.07-.15-.15-.15h-.03c-.02-.12-.07-.23-.13-.32l.02-.02c.06-.06.06-.16 0-.22s-.16-.06-.22 0l-.02.02c-.1-.07-.2-.11-.32-.13v-.03c0-.08-.07-.15-.15-.15-.08 0-.15.07-.15.15v.03c-.12.02-.23.07-.32.13l-.02-.02c-.06-.06-.16-.06-.22 0s-.06.16 0 .22l.02.02c-.07.1-.11.21-.13.32h-.03c-.09 0-.15.07-.15.15 0 .08.07.15.15.15h.03c.02.12.07.23.13.32l-.02.02c-.06.06-.06.16 0 .22.03.03.07.05.11.05.04 0 .08-.01.11-.05l.02-.02c.1.07.2.11.32.13v.03c0 .08.07.15.15.15.09 0 .15-.07.15-.15v-.03c.12-.02.23-.07.32-.13l.02.02c.03.03.07.05.11.05.04 0 .08-.01.11-.05.06-.06.06-.16 0-.22l-.02-.02zm-.69.06c-.15 0-.28-.06-.38-.16-.1-.1-.16-.23-.16-.38s.06-.28.16-.38c.1-.1.23-.16.38-.16s.28.06.38.16c.1.1.16.23.16.38-.01.3-.25.54-.54.54zm-2.14-.69h-.03c-.02-.12-.07-.23-.13-.32l.02-.02c.06-.06.06-.16 0-.22s-.16-.06-.22 0l-.02.02c-.1-.07-.2-.11-.32-.13v-.03c0-.08-.07-.15-.15-.15s-.15.07-.15.15v.03c-.12.02-.23.07-.32.13l-.02-.02c-.06-.06-.16-.06-.22 0s-.06.16 0 .22l.02.02c-.07.1-.11.2-.13.32h-.05c-.09 0-.15.07-.15.15 0 .08.07.15.15.15h.03c.02.12.07.23.13.32l-.02.02c-.06.06-.06.16 0 .22.03.03.07.05.11.05s.08-.01.11-.05l.02-.02c.1.07.2.11.32.13v.03c0 .08.07.15.15.15s.15-.07.15-.15v-.03c.12-.02.23-.07.32-.13l.02.02c.03.03.07.05.11.05s.08-.01.11-.05c.06-.06.06-.16 0-.22l-.02-.02c.07-.1.11-.2.13-.32h.03c.09 0 .15-.07.15-.15.03-.08-.04-.15-.13-.15zm-.86.69c-.15 0-.28-.06-.38-.16-.1-.1-.16-.23-.16-.38s.06-.28.16-.38c.1-.1.23-.16.38-.16s.28.06.38.16c.1.1.16.23.16.38 0 .3-.24.54-.54.54zm12.82-7.35c-.32 0-.58.26-.58.58 0 .32.26.59.58.59.32 0 .58-.26.58-.59 0-.32-.26-.58-.58-.58zm0 .86c-.15 0-.28-.12-.28-.28 0-.15.12-.28.28-.28s.28.12.28.28c0 .16-.13.28-.28.28zm0 .91c-.32 0-.58.26-.58.58 0 .32.26.58.58.58.32 0 .58-.26.58-.58 0-.32-.26-.58-.58-.58zm0 .86c-.15 0-.28-.12-.28-.28 0-.15.12-.28.28-.28s.28.12.28.28c0 .15-.13.28-.28.28zm0 .9c-.32 0-.58.26-.58.58s.26.58.58.58c.32 0 .58-.26.58-.58s-.26-.58-.58-.58zm0 .86c-.15 0-.28-.12-.28-.28s.12-.28.28-.28.28.12.28.28-.13.28-.28.28zm0 .91c-.32 0-.58.26-.58.58s.26.58.58.58c.32 0 .58-.26.58-.58s-.26-.58-.58-.58zm0 .86c-.15 0-.28-.12-.28-.28s.12-.28.28-.28.28.12.28.28-.13.28-.28.28zm.38-7.37c0-.08-.07-.15-.15-.15H9.14c-.08 0-.15.07-.15.15 0 .09.07.15.15.15h13.59c.08 0 .15-.07.15-.15zM9.03 23.26c-.03.03-.04.07-.04.11s.01.08.04.11.07.05.11.05c.04 0 .08-.02.11-.05.03-.03.05-.07.05-.11 0-.04-.02-.08-.05-.11-.06-.06-.16-.06-.22 0zm1.01-.04c-.08 0-.15.07-.15.15 0 .08.07.15.15.15.09 0 .15-.07.15-.15.01-.09-.06-.15-.15-.15zm2.72 0c-.09 0-.15.07-.15.15 0 .08.07.15.15.15.09 0 .15-.07.15-.15 0-.09-.06-.15-.15-.15zm-.91 0c-.08 0-.15.07-.15.15 0 .08.07.15.15.15.09 0 .15-.07.15-.15.01-.09-.06-.15-.15-.15zm-.9 0c-.09 0-.15.07-.15.15 0 .08.07.15.15.15.08 0 .15-.07.15-.15 0-.09-.07-.15-.15-.15zm5.43 0c-.08 0-.15.07-.15.15 0 .08.07.15.15.15.09 0 .15-.07.15-.15.01-.09-.06-.15-.15-.15zm-1.81 0c-.08 0-.15.07-.15.15 0 .08.07.15.15.15.09 0 .15-.07.15-.15 0-.09-.06-.15-.15-.15zm4.53 0c-.08 0-.15.07-.15.15 0 .08.07.15.15.15.09 0 .15-.07.15-.15.01-.09-.06-.15-.15-.15zm1.81 0c-.08 0-.15.07-.15.15 0 .08.07.15.15.15.09 0 .15-.07.15-.15.01-.09-.06-.15-.15-.15zm-3.62 0c-.09 0-.15.07-.15.15 0 .08.07.15.15.15.09 0 .15-.07.15-.15 0-.09-.06-.15-.15-.15zm-1.81 0c-.09 0-.15.07-.15.15 0 .08.07.15.15.15.08 0 .15-.07.15-.15 0-.09-.07-.15-.15-.15zm4.53 0c-.09 0-.15.07-.15.15 0 .08.07.15.15.15.08 0 .15-.07.15-.15 0-.09-.07-.15-.15-.15zm-6.34 0c-.09 0-.15.07-.15.15 0 .08.07.15.15.15.08 0 .15-.07.15-.15 0-.09-.07-.15-.15-.15zm8.15 0c-.09 0-.15.07-.15.15 0 .08.07.15.15.15.09 0 .15-.07.15-.15 0-.09-.06-.15-.15-.15zm-3.62 0c-.09 0-.15.07-.15.15 0 .08.07.15.15.15.08 0 .15-.07.15-.15 0-.09-.07-.15-.15-.15zm4.42.04c-.03.03-.04.07-.04.11s.01.08.04.11.07.05.11.05c.04 0 .08-.02.11-.05s.05-.07.05-.11c0-.04-.02-.08-.05-.11-.06-.06-.16-.06-.22 0zm-13.59.92c-.03.02-.04.07-.04.1 0 .04.02.08.04.11.03.03.07.04.11.04.04 0 .08-.02.11-.04.03-.03.05-.07.05-.11s-.02-.08-.05-.11c-.06-.05-.16-.05-.22.01zm4.64-.05c-.09 0-.15.07-.15.15 0 .09.07.15.15.15.08 0 .15-.07.15-.15 0-.08-.07-.15-.15-.15zm6.34 0c-.09 0-.15.07-.15.15 0 .09.07.15.15.15.08 0 .15-.07.15-.15 0-.08-.07-.15-.15-.15zm-9.97 0c-.08 0-.15.07-.15.15 0 .09.07.15.15.15.09 0 .15-.07.15-.15.01-.08-.06-.15-.15-.15zm11.78 0c-.09 0-.15.07-.15.15 0 .09.07.15.15.15.09 0 .15-.07.15-.15 0-.08-.06-.15-.15-.15zm-.91 0c-.08 0-.15.07-.15.15 0 .09.07.15.15.15.09 0 .15-.07.15-.15.01-.08-.06-.15-.15-.15zm-1.81 0c-.08 0-.15.07-.15.15 0 .09.07.15.15.15.09 0 .15-.07.15-.15.01-.08-.06-.15-.15-.15zm-7.25 0c-.08 0-.15.07-.15.15 0 .09.07.15.15.15.09 0 .15-.07.15-.15.01-.08-.06-.15-.15-.15zm-.9 0c-.09 0-.15.07-.15.15 0 .09.07.15.15.15.08 0 .15-.07.15-.15 0-.08-.07-.15-.15-.15zm7.25 0c-.09 0-.15.07-.15.15 0 .09.07.15.15.15.08 0 .15-.07.15-.15 0-.08-.07-.15-.15-.15zm-5.44 0c-.09 0-.15.07-.15.15 0 .09.07.15.15.15.09 0 .15-.07.15-.15 0-.08-.06-.15-.15-.15zm1.81 0c-.08 0-.15.07-.15.15 0 .09.07.15.15.15.09 0 .15-.07.15-.15 0-.08-.06-.15-.15-.15zm1.81 0c-.08 0-.15.07-.15.15 0 .09.07.15.15.15.09 0 .15-.07.15-.15.01-.08-.06-.15-.15-.15zm-.9 0c-.09 0-.15.07-.15.15 0 .09.07.15.15.15.08 0 .15-.07.15-.15 0-.08-.07-.15-.15-.15zm1.81 0c-.09 0-.15.07-.15.15 0 .09.07.15.15.15.09 0 .15-.07.15-.15 0-.08-.06-.15-.15-.15zm5.33.05c-.03.03-.04.07-.04.11 0 .04.01.08.04.11s.07.04.11.04c.04 0 .08-.02.11-.04.03-.03.05-.07.05-.11s-.02-.08-.05-.11c-.06-.06-.16-.06-.22 0zm.26-2.27c0-.08-.07-.15-.15-.15h-7.89c-.09 0-.15.07-.15.15 0 .08.07.15.15.15h7.89c.08 0 .15-.07.15-.15z"/></svg>