<svg xmlns="http://www.w3.org/2000/svg" viewBox="0 0 32 32"><path d="M25.92 15.75l-1.59-2.92c-.04-.07-.11-.13-.19-.15s-.17-.01-.24.03l-4.19 2.48c-.14.09-.19.27-.11.41l2.19 3.92h-2.37l.01-1.25c0-.15 0-.29-.19-.42-.16-.11-.37-.09-.56.05-.03.02-.06.05-.08.08l-2.42 3.79c-.06.1-.06.23 0 .33l2.42 3.79c.02.03.05.06.08.08.1.08.21.12.32.12.08 0 .17-.02.24-.07.19-.13.19-.27.19-.42l-.01-1.25h1.74c1.83 0 2.43-1.04 2.46-1.09l2.18-4.2v-.01-.01c.89-1.9.15-3.24.12-3.29zm-2.83 7.22c0 .01-.47.77-1.92.77h-2.05c-.08 0-.16.03-.22.09s-.09.14-.09.22l.01 1.03-2-3.14 2-3.14-.01 1.03c0 .08.03.16.09.22s.14.09.22.09h4.24c.17 0 .75-.02 1.31-.2l-1.58 3.03zm2.18-4.19c-.31.59-1.38.74-1.92.74h-.84l-2.22-3.96 3.66-2.16 1.44 2.65c.02.04.6 1.13-.12 2.73zm-10.68.17l-4.55-.01 1.24-2.14 1.14.79c.09.05.17.1.27.1.09 0 .15-.03.19-.05.18-.08.27-.27.24-.5 0-.04-.01-.07-.03-.11l-2.08-4.16c-.06-.11-.17-.17-.3-.17l-4.54.31c-.03 0-.07.01-.1.02-.21.09-.33.26-.32.46.01.23.14.3.26.38.01.01.02.01.03.02l1.06.47-.85 1.48c-.24.41-.4.82-.47 1.22-.16.88.43 1.86.45 1.91l2.22 3.55.01.01c1.2 1.71 2.73 1.76 2.79 1.76l3.32.11h.01c.08 0 .16-.03.21-.09.06-.06.09-.14.09-.22v-4.87c.02-.13-.12-.27-.29-.27zM6.4 17.16c.06-.33.2-.66.4-1l1.03-1.78c.04-.08.05-.17.03-.25-.03-.08-.09-.15-.17-.19l-.8-.35 3.67-.25 1.7 3.4-.89-.62c-.07-.05-.16-.07-.24-.05-.08.02-.16.07-.2.15l-1.59 2.74c-.45 0-1.59-.06-2.31-.57-.42-.31-.63-.71-.63-1.23zm7.89 6.65l-3.01-.1c-.05 0-1.29-.06-2.3-1.49L7.04 19.1c.1.05.2.09.3.13.11.04.22.08.34.11l.11.03.23.06c.04.01.09.02.13.02l.21.03c.04.01.08.01.13.02.07.01.13.02.2.02.04 0 .07.01.11.01.07 0 .13.01.2.01H9.57l4.72.01v4.26zM16 12.15c-.02.19.09.37.3.47.03.02.06.02.1.03l4.51.53h.04c.11 0 .21-.06.26-.15l2.28-3.75c.02-.03.03-.07.04-.11.04-.23-.04-.42-.22-.52-.04-.02-.11-.06-.2-.06-.1 0-.17.04-.23.07l-1.19.48-.77-1.56c-.85-1.62-2.04-1.68-2.1-1.68h-4.74c-2.09.11-2.94 1.38-2.97 1.43l-1.86 2.76c-.05.07-.06.15-.05.23.02.08.07.15.14.2l4.13 2.57c.05.03.11.05.16.05.1 0 .2-.05.26-.14l2.46-3.74 1.05 2.06-1.09.46c-.15.07-.28.14-.31.37zm-2.47.28l-3.61-2.24 1.68-2.5c.03-.04.73-1.06 2.48-1.16.7.01 1.35.98 1.54 1.36l.39.76-2.48 3.78zm4.39-.67c.08-.03.14-.1.17-.18.03-.08.02-.17-.01-.24l-1.41-2.77c-.01-.04-.03-.07-.05-.11l-.44-.86c-.02-.04-.31-.61-.8-1.08h3.42c.04 0 .9.06 1.57 1.34l.9 1.81c.07.14.24.21.39.15l1.04-.42-1.91 3.15-3.7-.44.83-.35z"/></svg>