<svg xmlns="http://www.w3.org/2000/svg" width="32" height="32" viewBox="0 0 32 32"><path d="M25.604 11.67c-.898-2.935-3.636-4.97-6.72-4.97-3.092 0-5.806 2.016-6.712 4.94-.504-.18-1.03-.27-1.57-.27-2.186 0-4.067 1.505-4.563 3.612-1.955.07-3.602 1.43-4.037 3.35-.02.086 0 .177.057.247.056.068.14.108.228.108h10.05c-.044.313-.07.63-.07.955 0 3.665 2.983 6.647 6.648 6.647s6.647-2.982 6.647-6.647c0-.325-.025-.643-.07-.955h4.39c.142 0 .263-.102.287-.242.062-.357.092-.685.092-1.004 0-2.79-1.948-5.19-4.658-5.774zm-6.688 14.008c-3.327 0-6.034-2.707-6.034-6.034s2.707-6.034 6.034-6.034 6.034 2.707 6.034 6.034-2.707 6.034-6.034 6.034zm10.717-7.572H25.38c-.695-2.926-3.33-5.11-6.465-5.11s-5.77 2.184-6.465 5.11H2.67c.5-1.514 1.905-2.542 3.55-2.542h.003l.045.002c.148.014.268-.098.294-.24.354-1.953 2.053-3.37 4.04-3.37.532 0 1.05.104 1.54.304.305.148.955.524 1.357 1.198.047.08.137.12.225.103.026-.004.05-.012.074-.027.103-.062.137-.196.075-.3-.346-.58-.837-.96-1.21-1.187.758-2.807 3.305-4.762 6.22-4.762 2.802 0 5.273 1.792 6.12 4.442-.752-.005-1.31.267-1.344.28-.11.047-.164.174-.117.286.046.112.174.165.285.12.008-.005.78-.31 1.655-.166 2.44.528 4.198 2.685 4.198 5.198 0 .213-.014.432-.045.664zm-7.184 1.196c-.303 0-.564.17-.7.42l-1.06-.306c0-.023.003-.046.003-.07 0-.615-.293-1.162-.747-1.513l.576-.858c.026.003.05.007.077.007.348 0 .63-.283.63-.632s-.282-.632-.63-.632-.633.283-.633.632c0 .188.084.355.215.47l-.547.817c-.258-.13-.547-.204-.855-.204-.58 0-1.102.262-1.453.672l-.786-.65c.057-.11.09-.23.09-.36 0-.44-.355-.795-.793-.795-.438 0-.794.356-.794.794 0 .438.357.794.794.794.174 0 .335-.058.466-.154l.813.672c-.158.278-.25.598-.25.94 0 .455.162.875.43 1.204l-.53.44c-.108-.07-.236-.113-.373-.113-.37 0-.67.3-.67.67 0 .37.3.67.67.67.37 0 .67-.3.67-.67 0-.098-.022-.192-.06-.276l.553-.46c.332.28.76.446 1.225.446.23 0 .45-.042.652-.117l.45 1.198c-.337.184-.57.536-.57.947 0 .597.486 1.08 1.082 1.08s1.08-.484 1.08-1.08c0-.596-.484-1.08-1.08-1.08-.056 0-.11.007-.164.016l-.465-1.24c.435-.26.757-.69.876-1.2l1.013.293-.002.026c0 .44.36.798.8.798.44 0 .8-.36.8-.8 0-.44-.36-.8-.8-.8zm-1.85-3.216c.145 0 .263.118.263.264s-.12.264-.264.264-.266-.12-.266-.264c0-.146.12-.264.265-.264zm-4.764 1.435c-.235 0-.427-.19-.427-.426 0-.235.19-.426.426-.426s.427.192.427.426c0 .235-.192.427-.427.427zm.556 4.333c-.166 0-.302-.136-.302-.303 0-.166.135-.302.302-.302.167 0 .303.136.303.302 0 .167-.136.303-.303.303zm4 .722c.393 0 .713.32.713.714 0 .393-.32.712-.713.712s-.714-.32-.714-.713c0-.394.32-.715.714-.715zm-1.612-1.683c-.852 0-1.546-.693-1.546-1.546 0-.852.694-1.546 1.546-1.546s1.545.694 1.545 1.546c0 .852-.693 1.546-1.545 1.546zm3.67-.358c-.24 0-.433-.194-.433-.432s.194-.433.432-.433c.237 0 .43.194.43.432s-.193.432-.43.432z"/></svg>