<svg xmlns="http://www.w3.org/2000/svg" width="32" height="32" viewBox="0 0 32 32"><path d="M25.01 6.452c.037-.138-.022-.287-.156-.353l-2.818-1.38c-.042-.02-.088-.03-.134-.03h-11.57c-.042 0-.083.007-.12.023l-3.245 1.38c-.142.06-.21.215-.17.36-.008.026-.017.05-.017.08v10.15c0 .008.003.014.004.02 0 .008-.004.014-.004.02v10.153c0 .17.137.306.306.306H24.72c.17 0 .306-.137.306-.306V16.723c0-.007-.004-.013-.005-.02.002-.007.006-.013.006-.02V6.53c0-.027-.01-.053-.016-.08zm-14.617-1.15H21.83l1.89.924H8.22l2.173-.924zm14.02 21.267H7.394v-4.464h17.02v4.463zm0-5.076H7.394V17.03h17.02v4.464zm0-5.117H7.394v-4.463h17.02v4.463zm0-7.65v.913zm0 2.575H7.394V6.84h17.02V11.3zM8.524 8.996V9c0 .234.188.423.42.423.234 0 .423-.19.423-.422v-.004-.005c0-.232-.19-.42-.422-.42-.233 0-.422.188-.422.42v.006zm1.494 0v.013c0 .232.19.42.422.42.232 0 .42-.188.42-.42v-.014-.012c0-.233-.188-.422-.42-.422-.234 0-.423.19-.423.422v.013zm-1.495 5.21v.005c0 .234.19.423.422.423.233 0 .422-.19.422-.422v-.004-.005c0-.232-.19-.42-.422-.42-.233 0-.422.188-.422.42v.006zm1.495 0v.013c0 .232.19.42.422.42.232 0 .42-.188.42-.42v-.014-.012c0-.233-.188-.422-.42-.422-.234 0-.423.19-.423.422v.013zM8.522 19.11v.006c0 .233.19.422.422.422.233 0 .422-.19.422-.422v-.005-.004c0-.233-.19-.422-.422-.422-.233 0-.422.19-.422.422v.005zm1.495 0v.014c0 .233.19.422.422.422.232 0 .42-.19.42-.422v-.013-.01c0-.234-.188-.423-.42-.423-.234 0-.423.19-.423.422v.012zm-1.495 5.212v.005c0 .233.19.422.422.422.233 0 .422-.19.422-.423v-.005-.005c0-.233-.19-.422-.422-.422-.233 0-.422.19-.422.422v.005zm1.495 0v.013c0 .233.19.422.422.422.232 0 .42-.19.42-.422v-.013-.012c0-.233-.188-.422-.42-.422-.234 0-.423.19-.423.422v.013zm13.57-13.992c0 .085-.07.153-.154.153h-.92c-.084 0-.153-.07-.153-.153V7.878c0-.085.07-.153.154-.153h.92c.084 0 .153.07.153.153v2.452zm-.92-.154h.613V8.03h-.613v2.146zm-.92.154c0 .085-.068.153-.152.153h-.92c-.085 0-.153-.07-.153-.153V7.878c0-.085.07-.153.153-.153h.92c.085 0 .153.07.153.153v2.452zm-.92-.154h.614V8.03h-.612v2.146zm2.76 5.364c0 .085-.07.153-.154.153h-.92c-.084 0-.153-.07-.153-.153v-2.452c0-.085.07-.153.154-.153h.92c.084 0 .153.07.153.153v2.452zm-.92-.153h.613V13.24h-.613v2.147zm-.92.153c0 .085-.068.153-.152.153h-.92c-.085 0-.153-.07-.153-.153v-2.452c0-.085.07-.153.153-.153h.92c.085 0 .153.07.153.153v2.452zm-.92-.153h.614V13.24h-.612v2.147zm2.76 5.057c0 .085-.07.153-.154.153h-.92c-.084 0-.153-.07-.153-.153v-2.452c0-.085.07-.153.154-.153h.92c.084 0 .153.068.153.152v2.452zm-.92-.153h.613v-2.145h-.613v2.146zm-.92.154c0 .085-.068.153-.152.153h-.92c-.085 0-.153-.07-.153-.153v-2.452c0-.085.07-.153.153-.153h.92c.085 0 .153.068.153.152v2.452zm-.92-.153h.614v-2.145h-.612v2.146zm2.76 5.365c0 .085-.07.153-.154.153h-.92c-.084 0-.153-.07-.153-.153v-2.452c0-.085.07-.153.154-.153h.92c.084 0 .153.07.153.153v2.452zm-.92-.153h.613v-2.146h-.613v2.146zm-.92.153c0 .085-.068.153-.152.153h-.92c-.085 0-.153-.07-.153-.153v-2.452c0-.085.07-.153.153-.153h.92c.085 0 .153.07.153.153v2.452zm-.92-.153h.614v-2.146h-.612v2.146z"/></svg>