<svg xmlns="http://www.w3.org/2000/svg" viewBox="0 0 32 32"><path d="M25.6 11.67c-.9-2.93-3.64-4.97-6.72-4.97-3.09 0-5.81 2.02-6.71 4.94-.5-.18-1.03-.27-1.57-.27-2.19 0-4.07 1.5-4.56 3.61-1.95.07-3.6 1.43-4.04 3.35-.02.09 0 .18.06.25s.14.11.23.11h10.05c-.05.31-.07.63-.07.96 0 3.66 2.98 6.65 6.65 6.65 3.67 0 6.65-2.98 6.65-6.65 0-.33-.02-.64-.07-.95h4.39c.14 0 .26-.1.29-.24.06-.36.09-.68.09-1-.01-2.81-1.96-5.21-4.67-5.79zm-6.68 14.01c-3.33 0-6.03-2.71-6.03-6.03 0-3.33 2.71-6.03 6.03-6.03 3.33 0 6.03 2.71 6.03 6.03 0 3.32-2.71 6.03-6.03 6.03zm10.71-7.58h-4.25c-.7-2.93-3.33-5.11-6.47-5.11-3.13 0-5.77 2.18-6.46 5.11H2.67c.5-1.51 1.9-2.54 3.55-2.54h.05c.15.01.27-.1.29-.24.35-1.95 2.05-3.37 4.04-3.37.53 0 1.05.11 1.54.31.3.15.95.52 1.36 1.2.05.08.14.12.23.1.03-.01.05-.01.07-.03.1-.06.14-.2.08-.3-.35-.58-.84-.96-1.21-1.19.76-2.81 3.31-4.76 6.22-4.76 2.8 0 5.27 1.79 6.12 4.44-.75-.01-1.31.27-1.34.28-.11.05-.17.17-.12.29.05.11.17.16.28.12.01 0 .78-.31 1.66-.16 2.44.53 4.2 2.68 4.2 5.2-.01.21-.02.42-.06.65zm-7.74-1.45c.01-.06-.02-.12-.08-.15l-.91-.44c-.02-.01-.04-.01-.06-.01h-3.72c-.02 0-.04 0-.06.01l-1.04.44c-.06.03-.1.09-.08.16V23.23c0 .08.06.15.14.15h5.66c.08 0 .14-.07.14-.15V16.7c.01-.03.01-.04.01-.05zm-4.73-.32h3.65l.42.2h-4.55c-.01 0 .48-.2.48-.2zm4.44 6.17h-.45c-.06 0-.1-.05-.1-.1s.05-.1.1-.1h.45v.2zm0-.4h-.45c-.16 0-.29.13-.29.29s.13.29.29.29h.45v.38h-5.37v-1.34h5.37v.38zm0-1.2h-.45c-.06 0-.1-.05-.1-.1s.05-.1.1-.1h.45v.2zm0-.39h-.45c-.16 0-.29.13-.29.29 0 .16.13.29.29.29h.45v.34h-5.37V20.1h5.37v.41zm0-1.29h-.45c-.06 0-.1-.05-.1-.1s.05-.1.1-.1h.45v.2zm0-.39h-.45c-.16 0-.29.13-.29.29s.13.29.29.29h.45v.38h-5.37v-1.34h5.37v.38zm0-1.2h-.45c-.06 0-.1-.05-.1-.1s.05-.1.1-.1h.45v.2zm0-.39h-.45c-.16 0-.29.13-.29.29s.13.29.29.29h.45v.34h-5.37v-1.34h5.37v.42z"/></svg>