<svg xmlns="http://www.w3.org/2000/svg" viewBox="0 0 32 32"><path d="M16.82 9.39l-.94-1.4c-.03-.05-.07-.1-.1-.16-.04-.05-.06-.1-.08-.13v1.7h-.5V6.82h.5l.91 1.36c.03.05.07.1.1.16s.06.1.08.13v-.11-.15-.17V6.82h.51v2.57h-.48zm.25 16.13c-.04.1-.1.19-.18.26s-.19.13-.31.17c-.14.03-.29.05-.46.05-.22 0-.41-.04-.59-.12-.18-.08-.31-.2-.41-.34l.37-.33c.09.11.19.18.3.23.11.05.23.07.35.07.15 0 .27-.02.34-.07s.11-.11.11-.21c0-.04-.01-.08-.02-.11s-.04-.06-.08-.09-.1-.05-.17-.08-.17-.05-.29-.08c-.12-.03-.23-.06-.33-.1-.1-.04-.19-.08-.26-.14s-.13-.13-.17-.21c-.04-.09-.06-.19-.06-.32 0-.12.02-.22.07-.32.05-.09.11-.17.2-.24.08-.07.18-.11.29-.15.11-.03.23-.05.36-.05.2 0 .38.04.53.11.15.07.29.17.41.3l-.37.36c-.08-.09-.17-.15-.27-.2s-.2-.07-.32-.07c-.07 0-.13.01-.17.02s-.08.03-.11.05-.05.05-.06.07c-.01.03-.02.06-.02.08 0 .04.01.08.02.1s.04.05.08.08c.04.02.09.04.16.06.07.02.15.04.25.07s.2.05.31.09.19.08.28.14c.08.06.15.13.2.22s.08.21.08.35c0 .14-.02.25-.06.35zM16 28.59C9.06 28.59 3.41 22.94 3.41 16 3.41 9.06 9.06 3.41 16 3.41S28.59 9.06 28.59 16 22.94 28.59 16 28.59zm0-24.57C9.4 4.02 4.02 9.4 4.02 16S9.4 27.98 16 27.98c6.61 0 11.98-5.37 11.98-11.98S22.61 4.02 16 4.02zm-.02 22.89c-6.05 0-10.97-4.92-10.97-10.97 0-6.05 4.92-10.97 10.97-10.97 6.05 0 10.97 4.92 10.97 10.97s-4.92 10.97-10.97 10.97zm0-21.49c-5.8 0-10.51 4.72-10.51 10.51s4.72 10.51 10.51 10.51c5.8 0 10.51-4.72 10.51-10.51.01-5.79-4.71-10.51-10.51-10.51zm.28 9.1zm6.98-5.69c-.08-.08-.21-.09-.3-.02l-6.68 5.12v-3.82c0-.13-.1-.23-.23-.23s-.23.12-.23.24v4.17l-.49.38c-.4.19-.71.54-.85.97l-.21.29H9.99c-.13 0-.23.1-.23.23s.1.23.23.23h3.91l-4.88 6.59c-.07.09-.06.22.02.3.04.04.1.07.16.07.05 0 .1-.02.14-.05l6.46-4.95v3.85c0 .13.1.23.23.23s.23-.1.23-.23v-4.21l.37-.28c.39-.15.7-.44.89-.82l.37-.5h4.18c.13 0 .23-.1.23-.23s-.1-.23-.23-.23h-3.84l5.04-6.8c.06-.09.05-.22-.03-.3zm-12.88 13.1l4.04-5.45c.13.65.64 1.18 1.33 1.31h.03l-5.4 4.14zm5.9-4.6c-.14.03-.29.03-.45.01h-.01c-.49-.1-.85-.48-.95-.95-.03-.14-.03-.29-.01-.45v-.01c.1-.49.48-.86.95-.95.07-.01.15-.02.23-.02.07 0 .15.01.22.02h.01c.31.06.58.23.76.49.1.14.16.29.19.45.03.15.03.3 0 .44v.01c-.09.5-.48.87-.94.96zm1.4-1.42c-.04-.25-.12-.49-.27-.7-.25-.36-.63-.61-1.07-.69-.02 0-.05 0-.07-.01l5.66-4.34-4.25 5.74zm-11.08.46c-.13 0-.23-.1-.23-.23 0-3.44 1.75-6.57 4.69-8.37.11-.07.25-.03.32.07.07.11.03.25-.08.32-2.8 1.72-4.47 4.7-4.47 7.98 0 .13-.1.23-.23.23zM21.98 24c-.07 0-.14-.03-.18-.09-.08-.1-.06-.25.04-.32 2.35-1.79 3.69-4.5 3.69-7.45 0-.13.1-.23.23-.23s.23.1.23.23c0 3.09-1.41 5.94-3.87 7.82-.04.03-.09.04-.14.04z"/></svg>