<svg data-name="Icon" xmlns="http://www.w3.org/2000/svg" width="36" height="36" viewBox="0 0 36 36"><title>Icon-Red_Hat-Transportation-Truck-A-Black-RGB</title><path d="M31.75 21.25v-3a.73.73 0 0 0-.08-.33l-2-4a.73.73 0 0 0-.67-.42h-3.25v-3.25A.76.76 0 0 0 25 9.5H5a.76.76 0 0 0-.75.75v13A.76.76 0 0 0 5 24h2.35a3.23 3.23 0 0 0 6.3 0h7.7a3.23 3.23 0 0 0 6.3 0H31a.75.75 0 0 0 0-1.5h-3.35a2.88 2.88 0 0 0-.15-.5H31a.76.76 0 0 0 .75-.75zM10.5 25a1.75 1.75 0 1 1 1.75-1.75A1.76 1.76 0 0 1 10.5 25zm10.85-2.5h-7.7a3.23 3.23 0 0 0-6.3 0h-1.6V11h18.5v9a3.23 3.23 0 0 0-2.9 2.5zM24.5 25a1.75 1.75 0 1 1 1.75-1.75A1.76 1.76 0 0 1 24.5 25zm5.75-4.5h-4a4.09 4.09 0 0 0-.46-.25V15h2.8l1.7 3.43z"/></svg>