<svg xmlns="http://www.w3.org/2000/svg" width="36" height="36" viewBox="0 0 36 36"><title>Icon-Red_Hat-Objects-Nunchucks-A-Black-RGB</title><path d="M20 12.75a.76.76 0 0 0 .75-.75v-1.25h1a.75.75 0 0 0 0-1.5h-1V8a.75.75 0 0 0-1.5 0v4a.76.76 0 0 0 .75.75zm-3.63 4.5a.75.75 0 0 0 0 1.5h3.31a.75.75 0 0 0 0-1.5zM28.54 16a.75.75 0 0 0 1.18.94 4.82 4.82 0 0 0 1-3 4.4 4.4 0 0 0-.06-.73.73.73 0 0 0-.85-.62.75.75 0 0 0-.63.85 2.81 2.81 0 0 1 0 .5 3.17 3.17 0 0 1-.64 2.06zm-6.31 2a.76.76 0 0 0 .75.75h3.36a.75.75 0 1 0-.1-1.5H23a.76.76 0 0 0-.77.75zm2.83-7.25H26a3.24 3.24 0 0 1 1.81.55.72.72 0 0 0 .42.13.74.74 0 0 0 .62-.34.75.75 0 0 0-.2-1A4.8 4.8 0 0 0 26 9.25h-.94a.75.75 0 0 0 0 1.5zM7.48 20a.76.76 0 0 0-.11-1.06.75.75 0 0 0-1 .11 4.75 4.75 0 0 0-1.07 3 4.91 4.91 0 0 0 0 .67.74.74 0 0 0 .74.65h.11a.75.75 0 0 0 .63-.85 3.44 3.44 0 0 1 0-.46 3.23 3.23 0 0 1 .7-2.06zM16 23.25a.76.76 0 0 0-.75.75v1.25h-1a.75.75 0 0 0 0 1.5h1V28a.75.75 0 0 0 1.5 0v-4a.76.76 0 0 0-.75-.75zM6 12.75h11a.76.76 0 0 0 .75-.75V8a.76.76 0 0 0-.75-.75H6a.76.76 0 0 0-.75.75v4a.76.76 0 0 0 .75.75zm.75-4h9.5v2.5h-9.5zM30 23.25H19a.76.76 0 0 0-.75.75v4a.76.76 0 0 0 .75.75h11a.76.76 0 0 0 .75-.75v-4a.76.76 0 0 0-.75-.75zm-.75 4h-9.5v-2.5h9.5zM13.81 18a.75.75 0 0 0-.75-.75H9.71a.75.75 0 0 0 0 1.5h3.3a.75.75 0 0 0 .8-.75zm-2.91 7.25H10a3.25 3.25 0 0 1-1.84-.57.75.75 0 0 0-.85 1.24 4.74 4.74 0 0 0 2.68.83h.91a.75.75 0 0 0 0-1.5z" data-name="Icons"/></svg>