<svg xmlns="http://www.w3.org/2000/svg" viewBox="0 0 31.68 31.68"><path d="M29.07 13.82c-.1-.19-.31-.28-.52-.23l-1.21.18c-.87-2.41-3.16-4.02-5.72-4.01-2.43 0-3.57 1.34-5 3.04-.24.28-.48.57-.75.88-.27-.31-.52-.59-.76-.88-1.44-1.7-2.57-3.04-5-3.04-2.57-.01-4.86 1.6-5.72 4.02l-1.25-.18c-.2-.05-.41.05-.51.23-.08.2-.02.43.14.58l1.27 1.52c.04 3.33 2.75 6.01 6.08 6.02 2.43 0 3.57-1.34 5-3.04.24-.28.48-.57.75-.88.26.31.52.59.76.88 1.44 1.7 2.57 3.04 5 3.04 3.36 0 6.09-2.71 6.1-6.07l1.21-1.45c.15-.17.21-.4.13-.61zm-24.59.46c.12.02.23-.06.27-.17h.03c.74-2.31 2.89-3.88 5.32-3.88 2.19 0 3.22 1.2 4.62 2.87.26.31.52.63.81.94l-1.06 1.4L13.36 14c-.06-.07-1.37-1.65-3.26-1.65-1.15 0-2.22.57-2.87 1.51-.06.05-.09.13-.08.21.02.14.14.23.28.21h.01l1.34-.2-2.81 3.4-2.83-3.39 1.34.19zm4.83-.49c-.1-.19-.31-.28-.52-.23l-.77.13c.56-.54 1.3-.84 2.07-.84 1.65 0 2.86 1.46 2.87 1.47l1.18 1.53-1.17 1.52s-1.23 1.47-2.87 1.47c-1.31 0-2.47-.86-2.86-2.11l1.92-2.32c.17-.16.23-.4.15-.62zm12.3 7.64c-2.19 0-3.22-1.2-4.62-2.87-.26-.31-.52-.63-.81-.94l1.07-1.39 1.1 1.43c.06.07 1.37 1.65 3.26 1.65 1.4 0 2.66-.84 3.21-2.13l.69.83c.05.06.12.09.19.09s.14-.03.19-.09l1.27-1.52c-.34 2.83-2.72 4.94-5.55 4.94zm.88-7.05l1.97 2.38c-.4 1.24-1.55 2.07-2.85 2.08-1.65 0-2.86-1.46-2.87-1.47l-1.18-1.53 1.17-1.52s1.22-1.47 2.87-1.47c.78 0 1.52.31 2.08.85l-.82-.13c-.2-.05-.41.05-.51.23-.07.2-.02.43.14.58zm3.21 3.1l-2.81-3.4 1.34.2c.13.02.26-.07.28-.21.01-.06-.01-.13-.04-.18l.03-.02c-.65-.96-1.73-1.53-2.89-1.53-1.88 0-3.2 1.59-3.26 1.66l-2.6 3.37c-.38.41-.71.81-1.03 1.18-1.41 1.66-2.42 2.87-4.62 2.87-2.81 0-5.18-2.08-5.54-4.86l1.22 1.46c.05.06.12.09.19.09s.14-.03.19-.09l.71-.86c.54 1.31 1.81 2.17 3.23 2.17 1.88 0 3.2-1.59 3.26-1.66l2.6-3.37c.37-.41.71-.81 1.03-1.18 1.41-1.66 2.42-2.87 4.62-2.87 2.4 0 4.53 1.53 5.3 3.8v.03c.02.14.14.23.28.21l1.34-.2-2.83 3.39z"/></svg>