<svg data-name="Layer 1" xmlns="http://www.w3.org/2000/svg" viewBox="0 0 36 36"><title>Icon-Red_Hat-Orchestration-A-Black-RGB</title><path d="M29.81 20.273a.75.75 0 0 0-.914.54 11.23 11.23 0 0 1-8.905 8.257l.54-.54a.75.75 0 1 0-1.06-1.06l-1 1-1 1c-.007.007-.01.016-.016.023a.738.738 0 0 0-.147.22l-.005.02a.76.76 0 0 0-.045.236.23.23 0 0 0-.007.03c0 .017.008.032.01.05v.1a.9.9 0 0 0 .03.086c.01.025.016.05.027.075a.72.72 0 0 0 .148.223l1 1 1 1a.75.75 0 1 0 1.06-1.06l-.416-.417-.417-.416a12.743 12.743 0 0 0 10.65-9.45.752.752 0 0 0-.54-.914zM6.19 15.727a.773.773 0 0 0 .095.017.726.726 0 0 0 .093.006.75.75 0 0 0 .456-.155.74.74 0 0 0 .27-.408A11.23 11.23 0 0 1 16.01 6.93l-.54.54a.75.75 0 1 0 1.06 1.06l1-1 1-1c.007-.007.01-.016.016-.023a.738.738 0 0 0 .147-.22l.005-.02a.76.76 0 0 0 .045-.236.23.23 0 0 0 .007-.03c0-.017-.008-.032-.01-.05s0-.064 0-.1a.9.9 0 0 0-.03-.086c-.01-.025-.016-.05-.027-.075a.72.72 0 0 0-.148-.223l-1-1-1-1a.75.75 0 1 0-1.06 1.06l.416.417.417.416a12.743 12.743 0 0 0-10.65 9.45.752.752 0 0 0 .54.914zM15.187 28.9a11.23 11.23 0 0 1-8.257-8.91l.54.54a.75.75 0 1 0 1.06-1.06l-1-1-1-1c-.007-.007-.016-.01-.023-.016a.738.738 0 0 0-.22-.147h-.02a.75.75 0 0 0-.237-.047h-.027s-.03.008-.047.01a.82.82 0 0 0-.1 0 .728.728 0 0 0-.09.03.618.618 0 0 0-.07.027.735.735 0 0 0-.224.148l-1 1-1 1a.75.75 0 1 0 1.06 1.06l.417-.416.415-.417a12.743 12.743 0 0 0 9.45 10.65.62.62 0 0 0 .094.018.726.726 0 0 0 .092.007.75.75 0 0 0 .187-1.476zM32.53 15.47a.748.748 0 0 0-1.06 0l-.417.416-.416.416a12.743 12.743 0 0 0-9.45-10.65.75.75 0 1 0-.374 1.448 11.23 11.23 0 0 1 8.257 8.905l-.54-.54a.75.75 0 1 0-1.06 1.06l1 1 1 1c.007.008.016.01.023.017a.738.738 0 0 0 .22.147h.01a.707.707 0 0 0 .277.06.74.74 0 0 0 .282-.055.742.742 0 0 0 .246-.164l1-1 1-1a.748.748 0 0 0 0-1.06zM22.47 14.278a.75.75 0 0 0-1.28-.53l-.45.452a4.668 4.668 0 0 0-1.99-.82v-.643a.75.75 0 0 0-1.5 0v.642a4.668 4.668 0 0 0-1.99.82l-.45-.452a.75.75 0 1 0-1.06 1.06l.45.453a4.648 4.648 0 0 0-.822 1.99h-.64a.75.75 0 0 0 0 1.5h.64a4.648 4.648 0 0 0 .823 1.99l-.45.45a.748.748 0 0 0 0 1.06.728.728 0 0 0 .247.166.75.75 0 0 0 .564 0 .732.732 0 0 0 .25-.165l.45-.45a4.668 4.668 0 0 0 1.99.82v.642a.75.75 0 0 0 1.5 0v-.64a4.668 4.668 0 0 0 1.99-.822l.45.45a.732.732 0 0 0 .25.166.75.75 0 0 0 .563 0 .728.728 0 0 0 .248-.165.748.748 0 0 0 0-1.06l-.45-.45a4.646 4.646 0 0 0 .82-1.99h.642a.75.75 0 0 0 0-1.5h-.64a4.646 4.646 0 0 0-.823-1.99l.45-.45a.748.748 0 0 0 .22-.532zM21.1 18.75a3.4 3.4 0 0 1-.84 1.51 3.218 3.218 0 0 1-.6.46 3.2 3.2 0 0 1-3.918-4.98 3.25 3.25 0 0 1 .6-.46 3.168 3.168 0 0 1 3.318 0 3.25 3.25 0 0 1 .6.46 3.217 3.217 0 0 1 .46.6 3.06 3.06 0 0 1 .38 2.41z"/></svg>