<svg data-name="Layer 1" xmlns="http://www.w3.org/2000/svg" viewBox="0 0 36 36"><title>Icon-Red_Hat-Media_and_documents-Quotemark_Open-A-Black-RGB</title><path d="M11.5 15.85H7.91a5.36 5.36 0 0 1 5.29-4.62.75.75 0 0 0 0-1.5 6.88 6.88 0 0 0-6.87 6.87v8.92a.76.76 0 0 0 .75.75H16a.76.76 0 0 0 .75-.75V21.1a5.26 5.26 0 0 0-5.25-5.25zm3.75 8.92H7.83v-7.42h3.67a3.75 3.75 0 0 1 3.75 3.75zM24.42 15.85h-3.59a5.36 5.36 0 0 1 5.29-4.62.75.75 0 0 0 0-1.5 6.88 6.88 0 0 0-6.87 6.87v8.92a.76.76 0 0 0 .75.75h8.92a.76.76 0 0 0 .75-.75V21.1a5.26 5.26 0 0 0-5.25-5.25zm3.75 8.92h-7.42v-7.42h3.67a3.75 3.75 0 0 1 3.75 3.75z"/></svg>