<svg xmlns="http://www.w3.org/2000/svg" width="32" height="32" viewBox="0 0 32 32"><path d="M6.052 13.09c.048-.19.107-.38.175-.563.044-.12-.017-.25-.136-.295-.118-.043-.25.017-.294.136-.074.2-.137.403-.19.61-.063.248-.112.502-.145.755-.038.292-.058.592-.06.892 0 .337.024.68.07 1.017.05.37.132.75.24 1.128.03.1.122.166.222.166.02 0 .042-.003.064-.01.122-.034.193-.16.157-.284-.103-.356-.18-.714-.227-1.064-.044-.317-.066-.638-.065-.953.002-.28.02-.56.057-.832.03-.235.077-.472.136-.703zm.205-1.208c.024.014.05.02.076.02.053 0 .105-.028.133-.077.03-.052.048-.08.05-.083.047-.07.028-.165-.042-.212-.07-.047-.165-.03-.212.04 0 0-.023.035-.062.102-.042.073-.017.167.056.21zm.19 1.543c-.012.035-.278.873.043 2.256.016.072.08.12.15.12.01 0 .022 0 .034-.004.082-.02.134-.102.114-.184-.3-1.292-.054-2.084-.05-2.09.025-.08-.02-.168-.1-.194-.08-.026-.166.018-.192.098zm16.08 11.51c-.258.268-.53.513-.808.728-.253.196-.52.375-.794.533-.24.138-.492.262-.75.368-.22.09-.44.168-.675.234-.188.053-.38.097-.575.13-.125.022-.21.14-.187.266.02.112.117.19.226.19.013 0 .026 0 .04-.003.21-.036.418-.082.622-.14.253-.07.49-.154.727-.252.275-.114.545-.246.802-.394.293-.168.578-.36.846-.568.296-.23.585-.49.858-.773.088-.092.085-.237-.006-.325-.09-.088-.237-.085-.325.007zM18.2 27.07c-.062 0-.096-.002-.1-.002-.082-.01-.156.06-.16.143s.057.157.142.162c0 0 .04.003.117.003.084 0 .152-.07.152-.153s-.07-.153-.154-.153zm1.362-.78c.01 0 .02 0 .032-.003.036-.008.895-.198 1.932-1.167.06-.058.065-.155.007-.217s-.155-.065-.217-.007c-.968.905-1.778 1.088-1.786 1.09-.082.017-.135.098-.118.18.015.073.08.122.15.122zm1.96-19.685c.358.09.706.2 1.034.335.296.12.585.262.858.42.244.142.478.298.693.466.19.146.372.303.54.468.142.138.277.284.402.434.044.054.11.083.176.083.052 0 .104-.018.147-.053.098-.08.11-.226.03-.324-.135-.162-.28-.32-.433-.47-.182-.177-.378-.346-.582-.502-.23-.18-.482-.347-.743-.498-.29-.17-.6-.32-.915-.448-.348-.142-.717-.262-1.098-.356-.123-.03-.248.045-.278.168-.03.123.045.248.168.28zm4.06 2.766c.028.054.082.085.138.085.023 0 .046-.005.068-.016.076-.038.107-.13.07-.205l-.057-.102c-.04-.073-.136-.098-.208-.056-.074.04-.1.135-.057.208l.047.086zM22.186 7.38c-.082-.023-.167.022-.19.103-.026.08.02.166.1.19 1.27.387 1.832.996 1.837 1.002.03.034.072.05.114.05.037 0 .073-.013.102-.04.063-.055.068-.152.012-.215-.025-.027-.617-.677-1.975-1.09zm1.963 5.32c-1.317-.142-2.582.948-2.635.995-.064.055-.07.152-.015.216.03.036.073.053.116.053.036 0 .072-.013.1-.038.013-.01 1.214-1.048 2.4-.92.52.057.964.333 1.323.82.05.067.147.08.214.03.07-.05.084-.145.033-.213-.412-.56-.928-.875-1.535-.94zm-7.84 8.798c-.083.006-.147.08-.14.163 0 .017.105 1.605-.71 2.473-.35.374-.83.564-1.422.564h-.026c-.084 0-.153.068-.153.152s.067.153.152.153h.026c.682 0 1.236-.222 1.647-.662.906-.966.795-2.63.79-2.702-.006-.084-.087-.147-.164-.14zm11.095-6.106c-.095-.876-.33-1.638-.697-2.263-.834-1.415-2.25-1.992-4.027-1.63-1.476.3-2.63 1.166-3.746 2.005l-.263.197c-.264-.236-.568-.428-.894-.566.123-.287.288-.553.512-.822.417-.504 1.036-1.03 2.005-1.704.082-.057.166-.124.25-.2.448-.396.736-.92.81-1.478.082-.598-.076-1.2-.453-1.743-.068-.1-.144-.195-.234-.295-.966-1.09-2.53-1.69-4.408-1.69-1.162 0-2.388.225-3.542.652-.842.312-1.627.726-2.27 1.198-.712.52-1.254 1.105-1.61 1.737-.57 1.007-.93 2.57.602 4.3 1 1.13 2.327 1.694 3.61 2.24l.062.027.24.102c-.045.216-.068.437-.068.658 0 .132.01.266.026.4-.312.037-.624.027-.97-.032-.644-.11-1.408-.38-2.48-.884-.1-.046-.197-.086-.295-.12-.568-.188-1.162-.173-1.684.04-.558.23-1 .668-1.283 1.268-.053.113-.1.23-.138.347-.877 2.62.913 5.606 3.077 7.403.695.576 1.446 1.05 2.172 1.37.793.348 1.557.525 2.27.525h.036c1.158-.01 2.693-.483 3.425-2.673.48-1.432.306-2.862.138-4.245l-.04-.328c.337-.11.655-.28.938-.493.19.25.337.526.457.853.226.608.372 1.406.473 2.588.008.1.024.208.046.32.12.584.43 1.094.875 1.438.475.367 1.1.535 1.734.478.113-.008.24-.026.376-.055 2.71-.552 4.4-3.595 4.875-6.367.152-.882.185-1.768.098-2.56zm-.55 2.484c-.447 2.617-2.017 5.486-4.515 5.995-.118.026-.223.04-.317.048-.545.047-1.033-.088-1.416-.384-.363-.28-.607-.683-.706-1.167-.02-.094-.032-.183-.04-.266-.103-1.224-.257-2.06-.5-2.71-.157-.425-.366-.788-.635-1.11.287-.307.623-.805.833-1.58.022-.082-.026-.166-.108-.188-.082-.022-.166.026-.188.108-.2.744-.528 1.207-.79 1.48l-.117.1c-.323.286-.713.494-1.127.602l-.193.05.023.198c.02.172.04.346.062.522.162 1.332.33 2.71-.117 4.043-.51 1.53-1.545 2.345-2.992 2.358h-.032c-.65 0-1.35-.164-2.086-.487-.687-.302-1.4-.753-2.064-1.302-2.042-1.697-3.742-4.49-2.935-6.905.035-.104.075-.203.12-.298.23-.494.59-.853 1.04-1.037.222-.09.46-.137.706-.137.22 0 .44.037.658.11.082.027.165.06.247.1 1.11.52 1.913.804 2.6.92.454.077.862.077 1.28.005.113.36.317.785.677 1.23.03.038.074.057.12.057.033 0 .067-.01.095-.034.066-.053.076-.15.023-.216-.34-.42-.526-.82-.63-1.152l-.032-.165c-.037-.182-.055-.365-.055-.546 0-.247.033-.493.098-.732l.052-.19-.182-.08-.418-.18-.063-.028c-1.236-.526-2.513-1.07-3.445-2.122-1.07-1.208-1.26-2.51-.547-3.77.325-.574.823-1.11 1.48-1.59.61-.448 1.358-.842 2.16-1.14 1.104-.408 2.274-.623 3.383-.623 1.743 0 3.186.545 4.064 1.536.076.086.143.17.2.252.31.446.44.937.376 1.42-.06.453-.288.866-.658 1.193-.07.063-.14.12-.21.166-1.004.698-1.65 1.25-2.096 1.787-.29.35-.5.713-.644 1.102-.383-.08-.926-.1-1.64.102-.082.023-.13.108-.106.19.023.08.108.128.19.105.65-.183 1.14-.167 1.48-.1l.19.065c.404.136.776.367 1.088.68l.14.137.58-.433c1.074-.807 2.185-1.642 3.56-1.922 1.59-.323 2.8.16 3.538 1.412.335.57.55 1.27.637 2.08.084.753.052 1.594-.092 2.435zm-10.332-3.98c-1.193 0-2.164.97-2.164 2.165s.97 2.166 2.165 2.166 2.166-.97 2.166-2.165c0-1.193-.97-2.164-2.165-2.164zm0 4.024c-1.024 0-1.857-.834-1.857-1.858 0-1.025.834-1.858 1.858-1.858 1.026 0 1.86.834 1.86 1.858 0 1.025-.834 1.858-1.86 1.858zm.026-3.012c-.622 0-1.13.506-1.13 1.13 0 .62.507 1.127 1.13 1.127.622 0 1.13-.506 1.13-1.128 0-.623-.507-1.13-1.13-1.13zm0 1.95c-.453 0-.822-.37-.822-.822s.37-.822.822-.822c.453 0 .822.37.822.822 0 .453-.37.822-.822.822zm-6.427-6.472c0-.52.225-.993.67-1.402.062-.057.066-.154.01-.217-.058-.062-.155-.066-.217-.01-.51.47-.77 1.02-.77 1.63 0 1.325 1.22 2.464 1.27 2.512.03.026.068.04.105.04.04 0 .082-.018.113-.05.058-.062.054-.16-.008-.217-.012-.01-1.173-1.095-1.173-2.288z"/></svg>