<svg data-name="Layer 1" xmlns="http://www.w3.org/2000/svg" viewBox="0 0 36 36"><title>Icon-Red_Hat-Assigned_Desk-A-Black-RGB</title><path d="M30 16.25h-9.21v-.5H24a.75.75 0 0 0 .75-.75V7a.75.75 0 0 0-.75-.75H12a.76.76 0 0 0-.75.75v8a.76.76 0 0 0 .75.75h3.31v.5H6a.75.75 0 0 0 0 1.5h.25V29a.75.75 0 0 0 1.5 0V17.75h11.5V27a.76.76 0 0 0 .75.75h8.25V29a.75.75 0 0 0 1.5 0V17.75H30a.75.75 0 0 0 0-1.5zm-10.71 0h-2.48v-.5h2.48zm-3.23-2h-3.31v-6.5h10.53v6.5h-7.22zm12.19 12h-7.5v-8.5h7.5z"/><path d="M23 21.75h3a.75.75 0 0 0 0-1.5h-3a.75.75 0 0 0 0 1.5z"/></svg>