<svg xmlns="http://www.w3.org/2000/svg" viewBox="0 0 32 32"><path d="M9.86 7.97h.01l1.94-.2c.03 0 .06-.02.08-.05s.01-.07 0-.09l-.26-.44c1.3-.58 2.71-.89 4.15-.89 4.53 0 8.54 3.05 9.74 7.41.04.14.16.23.3.23.03 0 .05 0 .08-.01.16-.05.26-.21.21-.38-1.28-4.63-5.52-7.86-10.33-7.86-1.55 0-3.07.34-4.46.98l-.25-.42c-.04-.05-.07-.07-.1-.07-.04-.01-.06.01-.08.04L9.78 7.81c-.02.03-.02.07 0 .11.01.03.04.05.08.05zm17.09 9.38l-.8-1.77c-.02-.03-.05-.06-.09-.06-.04 0-.07.02-.09.06l-.82 1.77c-.01.03-.01.07.01.09.02.03.05.05.08.05h.53c-.1 3.64-2.57 6.84-6.09 7.83l-1.08.3.79-.79c1.22-1.22 2.66-3.53 2.66-7.62 0-6.99-4.22-8.78-4.4-8.86-.02-.01-.04-.01-.07-.02l-.14-.02h-.04c-4.94 0-8.95 4.02-8.95 8.95 0 4.94 4.02 8.95 8.95 8.95 4.86 0 8.83-3.9 8.95-8.73h.5c.03 0 .06-.02.08-.05.03-.01.03-.05.02-.08zm-16.77-4.27c1.07-1.84 2.77-3.19 4.8-3.81l1.05-.32-.76.8c-.9.95-1.57 2.15-1.99 3.56l-.01.03h-3.25l.16-.26zM9.05 17.1c.02-1.12.27-2.2.71-3.21h3.36c-.24.98-.36 2.07-.37 3.22v.09h-3.7v-.1zm.01.65h3.7c.04 1.15.19 2.22.46 3.19l.07.24h-3.28c-.56-1.07-.88-2.22-.95-3.43zm6.07 7.57c-1.97-.56-3.67-1.82-4.78-3.56l-.02-.03h3.15c.45 1.22 1.1 2.26 1.93 3.1l.79.79-1.07-.3zm2 .12l-.46-.32c-.77-.53-1.83-1.56-2.55-3.39h3.01v3.71zm0-4.26h-3.21l-.02-.08c-.32-1-.5-2.13-.54-3.35h3.77v3.43zm0-3.98h-3.78v-.09c.01-1.16.14-2.24.39-3.22h3.39v3.31zm0-3.86h-3.24l.07-.21c.71-2.09 1.87-3.23 2.71-3.82l.46-.32v4.35zm.59-4.33l.46.33c.83.59 1.97 1.73 2.67 3.79l.07.21h-3.2V9.01zm0 4.88h3.35c.25.98.39 2.06.39 3.22v.09h-3.74v-3.31zm0 3.86h3.73c-.04 1.22-.22 2.35-.54 3.35l-.02.08h-3.17v-3.43zm0 7.67v-3.69h2.97c-.71 1.8-1.75 2.82-2.51 3.36l-.46.33zm-6.76-.87c-.02-.03-.05-.04-.08-.04s-.06.02-.08.05l-.29.46c-3-1.83-4.85-5.11-4.85-8.63 0-2.79 1.17-5.49 3.22-7.4.12-.12.13-.31.01-.43-.11-.13-.31-.13-.43-.02-2.17 2.02-3.41 4.88-3.41 7.84 0 3.73 1.97 7.21 5.14 9.15l-.24.39c-.02.03-.02.06-.01.09s.04.05.08.06l1.92.25h.01c.03 0 .06-.02.08-.05.02-.03.02-.07 0-.11l-1.07-1.61z"/></svg>