<svg xmlns="http://www.w3.org/2000/svg" width="32" height="32" viewBox="0 0 32 32"><path d="M24.873 23.563H23.25V8.043c0-.136-.11-.248-.248-.248h-4.498c-.137 0-.25.11-.25.25v2.27h-4.16c-.136 0-.247.11-.247.248v1.766H9.803c-.137 0-.248.11-.248.248v10.985H7.457V8.106c0-.183-.148-.33-.33-.33-.184 0-.332.147-.332.33v15.788c0 .182.148.33.33.33h17.748c.183 0 .33-.148.33-.33 0-.183-.147-.33-.33-.33zm-2.118-15.27v15.27H18.76v-13c0-.012-.005-.022-.007-.034V8.292h4.002zm-4.5 2.518v12.752H14.36V12.577c0-.024-.007-.045-.014-.066v-1.7h3.912zm-8.203 2.016h3.795v10.736h-3.795V12.825z"/></svg>