<svg xmlns="http://www.w3.org/2000/svg" viewBox="0 0 36 36"><title>Icon-Red_Hat-Transportation-Fighter_Jet-A-Black-RGB</title><path d="M31 21.27a.74.74 0 0 0-.75.75v3a.75.75 0 0 0 1.5 0V22a.75.75 0 0 0-.75-.73zM5 25.77a.76.76 0 0 0 .75-.77v-3a.75.75 0 0 0-1.5 0v3a.75.75 0 0 0 .75.77zM18 13.27A1.75 1.75 0 0 0 16.25 15v4a1.75 1.75 0 0 0 3.5 0v-4A1.75 1.75 0 0 0 18 13.27zm.25 5.73c0 .27-.5.27-.5 0v-4c0-.28.5-.28.5 0z"/><path d="M28.75 25v-2a.75.75 0 0 0-.22-.53l-5.85-5.86-1.93-7.69V8a2.75 2.75 0 0 0-5.5 0v.9l-1.93 7.71-5.85 5.88a.73.73 0 0 0-.22.52v2a.79.79 0 0 0 .22.54.75.75 0 0 0 .53.22h6.21l-1.72 1.72a.75.75 0 0 0-.22.53v2a.75.75 0 0 0 .75.75H23a.76.76 0 0 0 .75-.75V28a.75.75 0 0 0-.22-.53l-1.72-1.72H28a.76.76 0 0 0 .75-.75zm-1.5-.75H21a.74.74 0 0 0-.75.75v1a.75.75 0 0 0 .22.53l1.78 1.78v.94h-8.5v-.94l1.78-1.78a.75.75 0 0 0 .22-.53v-1a.75.75 0 0 0-.75-.75H8.74v-.94l5.78-5.78a.94.94 0 0 0 .2-.35l2-8a1.1 1.1 0 0 0 0-.18V8a1.25 1.25 0 0 1 2.5 0v1a1.1 1.1 0 0 0 0 .18l2 8a.73.73 0 0 0 .2.35l5.78 5.78z"/></svg>