<svg data-name="Layer 1" xmlns="http://www.w3.org/2000/svg" viewBox="0 0 36 36"><title>Icon-Red_Hat-Cloud_Native_Development-A-Black-RGB</title><path d="M32.53 17.47a.745.745 0 0 0-.53-.22H22a.75.75 0 0 0-.75.75v10a.75.75 0 0 0 .75.75h10a.75.75 0 0 0 .75-.75V18a.745.745 0 0 0-.22-.53zM31.25 23v4.25h-8.5v-8.5h8.5z"/><path d="M19 22.905H9.88a5.13 5.13 0 0 1 0-10.26c.133 0 .272.008.42.02s.3.035.464.063a.736.736 0 0 0 .448-.06.753.753 0 0 0 .33-.31 7.07 7.07 0 0 1 13.2 2.72.75.75 0 0 0 .824.668.75.75 0 0 0 .668-.825A8.577 8.577 0 0 0 10.5 11.18c-.108-.012-.214-.02-.317-.026s-.206-.008-.306-.008a6.63 6.63 0 0 0 0 13.26H19a.75.75 0 0 0 0-1.5zM28.31 21.29a.817.817 0 0 0 .07.127.69.69 0 0 0 .2.2.922.922 0 0 0 .127.07.682.682 0 0 0 .14.044.746.746 0 0 0 .153.02.73.73 0 0 0 .148-.015.69.69 0 0 0 .142-.045.91.91 0 0 0 .127-.07.677.677 0 0 0 .2-.2.91.91 0 0 0 .07-.126.69.69 0 0 0 .044-.142.73.73 0 0 0 .02-.152.746.746 0 0 0-.015-.15.682.682 0 0 0-.045-.14.922.922 0 0 0-.07-.128.69.69 0 0 0-.2-.2.817.817 0 0 0-.126-.07.73.73 0 0 0-.58 0 .827.827 0 0 0-.128.07.7.7 0 0 0-.2.2.827.827 0 0 0-.07.128.682.682 0 0 0-.044.14.746.746 0 0 0-.022.15.73.73 0 0 0 .015.148.69.69 0 0 0 .045.142zM26.71 20.31a.827.827 0 0 0-.128.07.7.7 0 0 0-.2.2.827.827 0 0 0-.07.127.682.682 0 0 0-.044.14.746.746 0 0 0-.018.153.73.73 0 0 0 .015.148.69.69 0 0 0 .045.142.817.817 0 0 0 .07.127.69.69 0 0 0 .2.2.922.922 0 0 0 .127.07.86.86 0 0 0 .145.044.693.693 0 0 0 .148.02.73.73 0 0 0 .148-.015.69.69 0 0 0 .142-.045.91.91 0 0 0 .127-.07.677.677 0 0 0 .2-.2.91.91 0 0 0 .07-.126.69.69 0 0 0 .044-.142.73.73 0 0 0 .02-.152.693.693 0 0 0-.015-.145.86.86 0 0 0-.045-.145.922.922 0 0 0-.07-.128.69.69 0 0 0-.2-.2.817.817 0 0 0-.126-.07.73.73 0 0 0-.58 0z"/></svg>