<svg xmlns="http://www.w3.org/2000/svg" viewBox="0 0 31.68 31.68"><path d="M13.12 14.68h-1.14c-1.64 0-1.75 1.21-1.8 1.86l-.1 1.05c0 .59.35.9.73 1.18l.1.07-.01.42.06.05c.15.13.55.35 1.59.35s1.41-.21 1.57-.33l.07-.05-.03-.42.1-.07c.4-.3.74-.59.74-1.19l-.08-1.06c-.07-.65-.18-1.86-1.8-1.86zm-.38.17c-.04.1-.09.22-.13.3h-.11c-.06-.09-.11-.19-.15-.3h.39zm.1 3.97l-.29.25-.29-.25.24-3.5h.11l.23 3.5zm1.32-.18L14 16.39c0-.04-.03-.08-.08-.08-.04 0-.08.03-.08.08L14 19.2c-.12.1-.49.29-1.46.29s-1.37-.21-1.48-.3v-.02l.17-2.78c0-.04-.03-.08-.08-.08-.04 0-.08.03-.08.08l-.16 2.25c-.39-.29-.66-.55-.66-1.04l.09-1.04c.06-.78.22-1.7 1.64-1.7h.2c.04.13.09.25.16.36v.02l-.28 3.63c0 .03.01.05.03.07l.38.33c.03.03.08.03.11 0l.38-.33c.02-.02.03-.04.03-.07l-.25-3.64c.06-.12.11-.24.15-.36h.2c1.41 0 1.56.97 1.64 1.7l.08 1.04c.02.49-.25.74-.65 1.03zm-1.61-4.19c.65 0 1.18-.53 1.18-1.19s-.53-1.18-1.19-1.18c-.65 0-1.18.53-1.18 1.18 0 .66.54 1.19 1.19 1.19zm0-2.19c.56 0 1.01.45 1.01 1.01s-.45 1.01-1.01 1.01-1.01-.45-1.01-1.01c-.01-.56.45-1.02 1.01-1.01 0-.01 0-.01 0 0zm-4.71 9.26h15.99c.08 0 .14-.06.14-.14V10.29c0-.08-.06-.14-.14-.14H7.84c-.08 0-.14.06-.14.14v11.09c.01.08.07.14.14.14zm.14-11.09H23.7v10.82H7.98V10.43zm16.83-1.44H6.87c-.15 0-.27.12-.27.27v13.16c0 .15.12.27.27.27h17.94c.15 0 .27-.12.27-.27V9.26c0-.15-.12-.27-.27-.27zm-.28 13.15H7.14V9.54h17.39v12.6zm-3.15-6.48h-4.26c-.11 0-.21.09-.21.21s.09.21.21.21h4.26c.11 0 .21-.09.21-.21s-.1-.21-.21-.21zm0-1.34h-4.26c-.11 0-.21.09-.21.21s.09.21.21.21h4.26c.11 0 .21-.09.21-.21s-.1-.21-.21-.21zm0 2.68h-4.26c-.11 0-.21.09-.21.21s.09.21.21.21h4.26c.11 0 .21-.09.21-.21s-.1-.21-.21-.21z"/></svg>