<svg xmlns="http://www.w3.org/2000/svg" viewBox="0 0 32 32"><path d="M27.31 16.33c-.93 0-1.71.69-1.84 1.59l-1.83.01-1.37-4.92c-.04-.15-.17-.25-.33-.25-.15 0-.29.09-.34.24-1.2 3.62-2.02 6.16-2.47 7.6-.18-.87-.44-2.08-.7-3.32-.44-2.12-.96-4.58-1.36-6.51-.2-.97-.38-1.8-.51-2.39-.06-.3-.12-.53-.15-.7-.07-.29-.12-.55-.44-.51-.18.02-.31.14-.31.32-.07.6-2.26 10.9-3.11 14.45l-2.44-9.18c-.04-.15-.18-.26-.33-.26-.16 0-.29.11-.33.26l-1.31 5.11-1.62.01c-.18-.83-.93-1.46-1.82-1.46-1.03 0-1.86.84-1.86 1.86s.84 1.87 1.86 1.87c.93 0 1.7-.68 1.84-1.58l1.87-.01c.16 0 .29-.11.33-.26l1.05-4.09 2.43 9.14c.03.12.13.22.25.25.03.01.05.01.08.01.1 0 .19-.04.26-.11.3-.33 2.4-10.31 3.22-14.34.43 2.02 1.18 5.61 1.73 8.25.27 1.29.51 2.45.69 3.29.13.64.22 1.03.28 1.27v.02h.01c.11.37.18.36.38.34.17-.02.29-.15.31-.31.08-.38 1.42-4.49 2.48-7.74l1.14 4.08c.04.15.18.25.33.25l2.12-.02c.19.83.93 1.45 1.82 1.45 1.03 0 1.87-.84 1.87-1.87s-.85-1.84-1.88-1.84zM4.69 19.49c-.66 0-1.19-.53-1.19-1.19s.53-1.19 1.19-1.19c.66 0 1.19.53 1.19 1.19s-.53 1.19-1.19 1.19zm22.62-.1c-.66 0-1.19-.53-1.19-1.19s.53-1.2 1.19-1.2 1.19.53 1.19 1.19-.53 1.2-1.19 1.2z"/></svg>