<svg data-name="Layer 1" xmlns="http://www.w3.org/2000/svg" viewBox="0 0 36 36"><title>Icon-Red_Hat-Virtual_datacenter-A-Black-RGB</title><path d="M29.03 28.53a.745.745 0 0 0 .22-.53V8a.75.75 0 0 0-.75-.75h-21a.75.75 0 0 0-.75.75v20a.75.75 0 0 0 .75.75h21a.745.745 0 0 0 .53-.22zM13.75 18v9.25h-5.5V8.75h5.5zm7 0v9.25h-5.5V8.75h5.5zm7 0v9.25h-5.5V8.75h5.5z"/><path d="M11.69 24.71a.922.922 0 0 0-.07-.128.69.69 0 0 0-.2-.2.817.817 0 0 0-.126-.07.73.73 0 0 0-.58 0 .827.827 0 0 0-.128.07.7.7 0 0 0-.2.2.827.827 0 0 0-.07.128.86.86 0 0 0-.044.145.693.693 0 0 0-.022.145.73.73 0 0 0 .015.148.69.69 0 0 0 .045.142.817.817 0 0 0 .07.127.69.69 0 0 0 .2.2.922.922 0 0 0 .127.07.682.682 0 0 0 .14.044.746.746 0 0 0 .153.02.7.7 0 0 0 .145-.015.888.888 0 0 0 .145-.045.91.91 0 0 0 .127-.07.677.677 0 0 0 .2-.2.91.91 0 0 0 .07-.126.888.888 0 0 0 .044-.145.7.7 0 0 0 .02-.15.693.693 0 0 0-.015-.145.86.86 0 0 0-.045-.145zM18.69 24.71a.922.922 0 0 0-.07-.128.69.69 0 0 0-.2-.2.817.817 0 0 0-.126-.07.737.737 0 0 0-.436-.043.754.754 0 0 0-.384.2.687.687 0 0 0-.09.11.827.827 0 0 0-.07.13.86.86 0 0 0-.045.144.693.693 0 0 0-.02.146.73.73 0 0 0 .015.148.69.69 0 0 0 .045.142.817.817 0 0 0 .07.127.693.693 0 0 0 .09.113.753.753 0 0 0 .53.22.73.73 0 0 0 .148-.015.69.69 0 0 0 .142-.045.91.91 0 0 0 .127-.07.677.677 0 0 0 .2-.2.91.91 0 0 0 .07-.126.69.69 0 0 0 .044-.142.73.73 0 0 0 .02-.152.693.693 0 0 0-.015-.145.86.86 0 0 0-.045-.145zM25.69 24.71a.922.922 0 0 0-.07-.128.69.69 0 0 0-.2-.2.817.817 0 0 0-.126-.07.73.73 0 0 0-.58 0 .827.827 0 0 0-.128.07.7.7 0 0 0-.2.2.827.827 0 0 0-.07.128.86.86 0 0 0-.044.145.693.693 0 0 0-.022.145.73.73 0 0 0 .015.148.69.69 0 0 0 .045.142.817.817 0 0 0 .07.127.69.69 0 0 0 .2.2.922.922 0 0 0 .127.07.86.86 0 0 0 .145.044.693.693 0 0 0 .148.02.7.7 0 0 0 .145-.015.888.888 0 0 0 .145-.045.91.91 0 0 0 .127-.07.677.677 0 0 0 .2-.2.91.91 0 0 0 .07-.126.69.69 0 0 0 .044-.142.73.73 0 0 0 .02-.152.693.693 0 0 0-.015-.145.86.86 0 0 0-.045-.145zM9.5 10.25a.75.75 0 0 0 0 1.5h3a.75.75 0 0 0 0-1.5h-3zM12.5 13.25h-3a.75.75 0 0 0 0 1.5h3a.75.75 0 0 0 0-1.5zM12.5 16.25h-3a.75.75 0 0 0 0 1.5h3a.75.75 0 0 0 0-1.5zM12.5 19.25h-3a.75.75 0 0 0 0 1.5h3a.75.75 0 0 0 0-1.5zM16.5 10.25a.75.75 0 0 0 0 1.5h3a.75.75 0 0 0 0-1.5h-3zM19.5 13.25h-3a.75.75 0 0 0 0 1.5h3a.75.75 0 0 0 0-1.5zM19.5 16.25h-3a.75.75 0 0 0 0 1.5h3a.75.75 0 0 0 0-1.5zM19.5 19.25h-3a.75.75 0 0 0 0 1.5h3a.75.75 0 0 0 0-1.5zM23.5 10.25a.75.75 0 0 0 0 1.5h3a.75.75 0 0 0 0-1.5h-3zM26.5 13.25h-3a.75.75 0 0 0 0 1.5h3a.75.75 0 0 0 0-1.5zM26.5 16.25h-3a.75.75 0 0 0 0 1.5h3a.75.75 0 0 0 0-1.5zM26.5 19.25h-3a.75.75 0 0 0 0 1.5h3a.75.75 0 0 0 0-1.5zM32.19 30.71a.922.922 0 0 0-.07-.128.69.69 0 0 0-.2-.2.817.817 0 0 0-.126-.07.73.73 0 0 0-.58 0 .827.827 0 0 0-.128.07.7.7 0 0 0-.2.2.827.827 0 0 0-.07.128.682.682 0 0 0-.044.14.746.746 0 0 0-.022.15.7.7 0 0 0 .015.145.888.888 0 0 0 .045.145.817.817 0 0 0 .07.127.69.69 0 0 0 .2.2.922.922 0 0 0 .127.07.86.86 0 0 0 .145.044.693.693 0 0 0 .145.016.73.73 0 0 0 .148-.015.69.69 0 0 0 .142-.044.91.91 0 0 0 .127-.07.677.677 0 0 0 .2-.2.91.91 0 0 0 .07-.126.888.888 0 0 0 .044-.145.7.7 0 0 0 .022-.145.746.746 0 0 0-.015-.15.682.682 0 0 0-.045-.14zM16.77 30.25a.743.743 0 1 0 .532.217.75.75 0 0 0-.532-.217zM11.86 30.25a.748.748 0 1 0 .53.217.748.748 0 0 0-.53-.217zM19.23 30.25a.75.75 0 1 0 0 1.5.73.73 0 0 0 .523-.22.758.758 0 0 0 0-1.063.73.73 0 0 0-.523-.217zM9.41 30.25a.75.75 0 1 0 .528.217.748.748 0 0 0-.528-.217zM26.59 30.25a.743.743 0 1 0 .532.217.75.75 0 0 0-.532-.217zM6.95 30.25a.743.743 0 1 0 .532.217.75.75 0 0 0-.532-.217zM29.05 30.25a.75.75 0 1 0 0 1.5.734.734 0 0 0 .524-.22.76.76 0 0 0 0-1.063.734.734 0 0 0-.524-.217zM21.68 30.25a.75.75 0 1 0 .528.217.75.75 0 0 0-.528-.217zM24.14 30.25a.766.766 0 0 0-.538.217.746.746 0 0 0 0 1.062.765.765 0 0 0 .538.22.75.75 0 1 0 0-1.5zM14.32 30.25a.766.766 0 0 0-.538.217.746.746 0 0 0 0 1.062.765.765 0 0 0 .538.22.75.75 0 1 0 0-1.5zM5.19 30.71a.922.922 0 0 0-.07-.128.69.69 0 0 0-.2-.2.817.817 0 0 0-.126-.07.73.73 0 0 0-.58 0 .827.827 0 0 0-.128.07.7.7 0 0 0-.2.2.827.827 0 0 0-.07.128.682.682 0 0 0-.044.14.746.746 0 0 0-.022.15.7.7 0 0 0 .015.145.888.888 0 0 0 .045.145.817.817 0 0 0 .07.127.69.69 0 0 0 .2.2.922.922 0 0 0 .127.07.682.682 0 0 0 .14.044.746.746 0 0 0 .15.016.73.73 0 0 0 .148-.015.69.69 0 0 0 .142-.044.91.91 0 0 0 .127-.07.677.677 0 0 0 .2-.2.91.91 0 0 0 .07-.126.888.888 0 0 0 .044-.145A.7.7 0 0 0 5.25 31a.746.746 0 0 0-.015-.15.682.682 0 0 0-.045-.14zM4.5 27.65a.755.755 0 1 0 .53.22.748.748 0 0 0-.53-.22zM4.5 12.05a.755.755 0 1 0 .53.22.748.748 0 0 0-.53-.22zM4.5 9.45a.748.748 0 1 0 .53.217.748.748 0 0 0-.53-.217zM4.5 25.05a.755.755 0 1 0 .53.22.748.748 0 0 0-.53-.22zM4.5 19.85a.755.755 0 1 0 .53.22.748.748 0 0 0-.53-.22zM4.5 6.85a.755.755 0 1 0 .53.22.748.748 0 0 0-.53-.22zM4.5 14.65a.755.755 0 1 0 .53.22.748.748 0 0 0-.53-.22zM4.5 22.45a.755.755 0 1 0 .53.22.748.748 0 0 0-.53-.22zM4.5 17.25a.748.748 0 1 0 .53.217.748.748 0 0 0-.53-.217zM5.19 4.71a.532.532 0 0 0-.065-.128.84.84 0 0 0-.095-.112.756.756 0 0 0-.53-.21.73.73 0 0 0-.526.21.748.748 0 0 0 0 1.06.75.75 0 0 0 1.06 0 .85.85 0 0 0 .095-.113.526.526 0 0 0 .06-.127.888.888 0 0 0 .045-.145A.7.7 0 0 0 5.25 5a.693.693 0 0 0-.015-.145.86.86 0 0 0-.045-.145zM29.05 4.25a.755.755 0 1 0 .53.22.748.748 0 0 0-.53-.22zM11.86 5.75a.762.762 0 0 0 .537-.218.743.743 0 0 0 0-1.06.76.76 0 0 0-.537-.222.75.75 0 1 0 0 1.5zM9.41 5.75a.743.743 0 1 0-.533-.218.748.748 0 0 0 .533.218zM26.6 5.75a.735.735 0 0 0 .524-.218.76.76 0 0 0 0-1.06.734.734 0 0 0-.524-.222.765.765 0 0 0-.538.22.745.745 0 0 0 0 1.062.766.766 0 0 0 .538.218zM14.32 5.75a.75.75 0 1 0-.53-.218.752.752 0 0 0 .53.218zM21.69 5.75a.73.73 0 0 0 .523-.218.757.757 0 0 0 0-1.06.73.73 0 0 0-.523-.222.765.765 0 0 0-.538.22.745.745 0 0 0 0 1.062.766.766 0 0 0 .538.218zM6.95 5.75a.762.762 0 0 0 .537-.218.743.743 0 0 0 0-1.06.76.76 0 0 0-.537-.222.734.734 0 0 0-.524.22.76.76 0 0 0 0 1.062.735.735 0 0 0 .524.218zM24.14 5.75a.75.75 0 1 0-.53-.218.748.748 0 0 0 .53.218zM16.77 5.75a.75.75 0 1 0-.53-.218.747.747 0 0 0 .53.218zM19.23 5.75a.75.75 0 1 0-.53-.218.752.752 0 0 0 .53.218zM30.97 5.53a.753.753 0 0 0 .53.22.73.73 0 0 0 .148-.015.69.69 0 0 0 .142-.045.91.91 0 0 0 .127-.07.693.693 0 0 0 .113-.09.745.745 0 0 0 .162-.243.75.75 0 0 0-.162-.817.693.693 0 0 0-.113-.09.817.817 0 0 0-.127-.07.737.737 0 0 0-.436-.044.75.75 0 0 0-.547 1.02.764.764 0 0 0 .163.244zM31.5 27.65a.755.755 0 1 0 .53.22.75.75 0 0 0-.53-.22zM31.5 6.85a.755.755 0 1 0 .53.22.75.75 0 0 0-.53-.22zM31.5 19.85a.755.755 0 1 0 .53.22.75.75 0 0 0-.53-.22zM31.5 25.05a.755.755 0 1 0 .53.22.75.75 0 0 0-.53-.22zM31.5 17.25a.748.748 0 1 0 .53.217.75.75 0 0 0-.53-.217zM31.5 22.45a.755.755 0 1 0 .53.22.75.75 0 0 0-.53-.22zM31.5 12.05a.755.755 0 1 0 .53.22.75.75 0 0 0-.53-.22zM31.5 9.45a.748.748 0 1 0 .53.217.75.75 0 0 0-.53-.217zM31.5 14.65a.755.755 0 1 0 .53.22.75.75 0 0 0-.53-.22z"/></svg>