<svg xmlns="http://www.w3.org/2000/svg" viewBox="0 0 36 36"><title>Icon-Red_Hat-Keyboard-A-Black-RGB</title><path d="M31 11.75H5a.76.76 0 0 0-.75.75v11a.76.76 0 0 0 .75.75h26a.76.76 0 0 0 .75-.75v-11a.76.76 0 0 0-.75-.75zm-.75 11H5.75v-9.5h24.5z"/><path d="M9.5 15.75h1a.75.75 0 0 0 0-1.5h-1a.75.75 0 0 0 0 1.5zM13.5 15.75h1a.75.75 0 0 0 0-1.5h-1a.75.75 0 0 0 0 1.5zM17.5 15.75h1a.75.75 0 0 0 0-1.5h-1a.75.75 0 0 0 0 1.5zM21.5 15.75h1a.75.75 0 0 0 0-1.5h-1a.75.75 0 0 0 0 1.5zM25.5 15.75h1a.75.75 0 0 0 0-1.5h-1a.75.75 0 0 0 0 1.5zM10.75 18a.76.76 0 0 0 .75.75h1a.75.75 0 0 0 0-1.5h-1a.76.76 0 0 0-.75.75zM14.75 18a.76.76 0 0 0 .75.75h1a.75.75 0 0 0 0-1.5h-1a.76.76 0 0 0-.75.75zM18.75 18a.76.76 0 0 0 .75.75h1a.75.75 0 0 0 0-1.5h-1a.76.76 0 0 0-.75.75zM22.75 18a.76.76 0 0 0 .75.75h1a.75.75 0 0 0 0-1.5h-1a.76.76 0 0 0-.75.75zM10.5 20.25h-1a.75.75 0 0 0 0 1.5h1a.75.75 0 0 0 0-1.5zM22.5 20.25h-9a.75.75 0 0 0 0 1.5h9a.75.75 0 0 0 0-1.5zM26.5 20.25h-1a.75.75 0 0 0 0 1.5h1a.75.75 0 0 0 0-1.5zM7 18.75h1a.75.75 0 0 0 0-1.5H7a.75.75 0 0 0 0 1.5zM28 18.75h1a.75.75 0 0 0 0-1.5h-1a.75.75 0 0 0 0 1.5z"/></svg>