<svg xmlns="http://www.w3.org/2000/svg" viewBox="0 0 31.68 31.68"><path d="M23.81 25.09h-.55c-.15 0-.28-.12-.28-.28 0-.15.12-.28.28-.28h.55c.15 0 .28.12.28.28-.01.16-.13.28-.28.28zm-1.66 0h-.55c-.15 0-.28-.12-.28-.28 0-.15.12-.28.28-.28h.55c.15 0 .28.12.28.28 0 .16-.13.28-.28.28zm-1.66 0h-.55c-.15 0-.28-.12-.28-.28 0-.15.12-.28.28-.28h.55c.15 0 .28.12.28.28 0 .16-.12.28-.28.28zm-1.65 0h-.55c-.15 0-.28-.12-.28-.28 0-.15.12-.28.28-.28h.55c.15 0 .28.12.28.28-.01.16-.13.28-.28.28zm-1.66 0h-.55c-.15 0-.28-.12-.28-.28 0-.15.12-.28.28-.28h.55c.15 0 .28.12.28.28 0 .16-.13.28-.28.28zm-1.66 0h-.55c-.15 0-.28-.12-.28-.28 0-.15.12-.28.28-.28h.55c.15 0 .28.12.28.28 0 .16-.12.28-.28.28zm-1.65 0h-.55c-.15 0-.28-.12-.28-.28 0-.15.12-.28.28-.28h.55c.15 0 .28.12.28.28-.01.16-.13.28-.28.28zm-1.66 0h-.55c-.15 0-.28-.12-.28-.28 0-.15.12-.28.28-.28h.55c.15 0 .28.12.28.28-.01.16-.13.28-.28.28zm-1.66 0H10c-.15 0-.28-.12-.28-.28 0-.15.12-.28.28-.28h.55c.15 0 .28.12.28.28 0 .16-.13.28-.28.28zm-1.66 0h-.55c-.15 0-.28-.12-.28-.28 0-.15.12-.28.28-.28h.55c.15 0 .28.12.28.28 0 .16-.12.28-.28.28zm-1.65-.02c-.02 0-.05 0-.07-.01-.26-.07-.48-.27-.58-.52-.06-.14.01-.3.15-.36.14-.06.3.01.36.15.04.09.12.17.22.19.15.04.23.19.19.34-.04.13-.15.21-.27.21zm17.56-.28c-.05 0-.09-.01-.14-.04-.13-.08-.18-.25-.1-.38.03-.05.04-.11.04-.17v-.23c0-.15.12-.28.28-.28s.28.12.28.28v.23c0 .15-.04.31-.12.44-.05.1-.14.15-.24.15zm-18-1.17c-.15 0-.28-.12-.28-.28v-.55c0-.15.12-.28.28-.28.15 0 .28.12.28.28v.55c-.01.15-.13.28-.28.28zm18.08-.47c-.15 0-.28-.12-.28-.28v-.55c0-.15.12-.28.28-.28s.28.12.28.28v.55c0 .15-.12.28-.28.28zM6.8 21.96c-.15 0-.28-.12-.28-.28v-.55c0-.15.12-.28.28-.28.15 0 .28.12.28.28v.55c-.01.15-.13.28-.28.28zm18.08-.47c-.15 0-.28-.12-.28-.28v-.55c0-.15.12-.28.28-.28s.28.12.28.28v.55c0 .15-.12.28-.28.28zM6.8 20.3c-.15 0-.28-.12-.28-.28v-.55c0-.15.12-.28.28-.28.15 0 .28.12.28.28v.55c-.01.16-.13.28-.28.28zm18.08-.47c-.15 0-.28-.12-.28-.28V19c0-.15.12-.28.28-.28s.28.12.28.28v.55c0 .16-.12.28-.28.28zM6.8 18.64c-.15 0-.28-.12-.28-.28v-.55c0-.15.12-.28.28-.28.15 0 .28.12.28.28v.55c-.01.16-.13.28-.28.28zm18.08-.47c-.15 0-.28-.12-.28-.28v-.55c0-.15.12-.28.28-.28s.28.12.28.28v.55c0 .16-.12.28-.28.28zM6.8 16.99c-.15 0-.28-.12-.28-.28v-.55c0-.15.12-.28.28-.28.15 0 .28.12.28.28v.55c-.01.15-.13.28-.28.28zm18.08-.47c-.15 0-.28-.12-.28-.28v-.55c0-.15.12-.28.28-.28s.28.12.28.28v.55c0 .15-.12.28-.28.28zM6.8 15.33c-.15 0-.28-.12-.28-.28v-.55c0-.15.12-.28.28-.28.15 0 .28.12.28.28v.55c-.01.16-.13.28-.28.28zm18.08-.47c-.15 0-.28-.12-.28-.28v-.55c0-.15.12-.28.28-.28s.28.12.28.28v.55c0 .16-.12.28-.28.28zM6.8 13.67c-.15 0-.28-.12-.28-.28v-.55c0-.15.12-.28.28-.28.15 0 .28.12.28.28v.55c-.01.16-.13.28-.28.28zm18.08-.47c-.15 0-.28-.12-.28-.28v-.55c0-.15.12-.28.28-.28s.28.12.28.28v.55c0 .16-.12.28-.28.28zM6.8 12.02c-.15 0-.28-.12-.28-.28v-.55c0-.15.12-.28.28-.28.15 0 .28.12.28.28v.55c-.01.15-.13.28-.28.28zm18.08-.47c-.15 0-.28-.12-.28-.28v-.55c0-.15.12-.28.28-.28s.28.12.28.28v.55c0 .15-.12.28-.28.28zM6.8 10.36c-.15 0-.28-.12-.28-.28v-.55c0-.15.12-.28.28-.28.15 0 .28.12.28.28v.55c-.01.15-.13.28-.28.28zm18.08-.47c-.15 0-.28-.12-.28-.28v-.55c0-.15.12-.28.28-.28s.28.12.28.28v.55c0 .15-.12.28-.28.28zM6.8 8.7c-.15 0-.28-.12-.28-.28v-.55c0-.15.12-.28.28-.28.15 0 .28.12.28.28v.55c-.01.16-.13.28-.28.28zm18.08-.47c-.15 0-.28-.12-.28-.28v-.48-.04c-.02-.15.09-.29.24-.3.15-.02.29.09.3.24 0 .03.01.07.01.1v.48c.01.16-.11.28-.27.28zM7.16 7.19c-.11 0-.21-.06-.25-.16-.06-.14 0-.3.14-.36.11-.06.23-.08.35-.08h.3c.15 0 .28.12.28.28 0 .15-.12.28-.28.28h-.3c-.05 0-.09.01-.13.03-.03 0-.07.01-.11.01zm17.12-.05h-.55c-.15 0-.28-.12-.28-.28 0-.15.12-.28.28-.28h.55c.15 0 .28.12.28.28-.01.16-.13.28-.28.28zm-1.66 0h-.55c-.15 0-.28-.12-.28-.28 0-.15.12-.28.28-.28h.55c.15 0 .28.12.28.28 0 .16-.13.28-.28.28zm-1.66 0h-.55c-.15 0-.28-.12-.28-.28 0-.15.12-.28.28-.28h.55c.15 0 .28.12.28.28 0 .16-.13.28-.28.28zm-1.66 0h-.55c-.15 0-.28-.12-.28-.28 0-.15.12-.28.28-.28h.55c.15 0 .28.12.28.28 0 .16-.12.28-.28.28zm-1.65 0h-.55c-.15 0-.28-.12-.28-.28 0-.15.12-.28.28-.28h.55c.15 0 .28.12.28.28-.01.16-.13.28-.28.28zm-1.66 0h-.55c-.15 0-.28-.12-.28-.28 0-.15.12-.28.28-.28h.55c.15 0 .28.12.28.28 0 .16-.13.28-.28.28zm-1.66 0h-.55c-.15 0-.28-.12-.28-.28 0-.15.12-.28.28-.28h.55c.15 0 .28.12.28.28 0 .16-.12.28-.28.28zm-1.65 0h-.55c-.15 0-.28-.12-.28-.28 0-.15.12-.28.28-.28h.55c.15 0 .28.12.28.28-.01.16-.13.28-.28.28zm-1.66 0h-.55c-.15 0-.28-.12-.28-.28 0-.15.12-.28.28-.28h.55c.15 0 .28.12.28.28 0 .16-.13.28-.28.28zm-1.66 0h-.55c-.15 0-.28-.12-.28-.28 0-.15.12-.28.28-.28h.55c.15 0 .28.12.28.28 0 .16-.13.28-.28.28zM22.98 23.71H8.7c-.44 0-.79-.35-.79-.79V8.76c0-.44.35-.79.79-.79h14.28c.44 0 .79.35.79.79v14.16c0 .44-.36.79-.79.79zM8.7 8.52c-.13 0-.24.11-.24.24v14.16c0 .13.11.24.24.24h14.28c.13 0 .24-.11.24-.24V8.76c0-.13-.11-.24-.24-.24H8.7z"/><path d="M15.43 16.26v-.19h.83v.19h-.83zm0-.74v-.55h.83v.55h-.83zm0-1.11v-.55h.83v.55h-.83zm0-1.1v-.55h.83v.55h-.83zm0-1.1v-.55h.83v.55h-.83zm-.01-1.11v-.55h.83v.55h-.83zm0-1.1v-.55h.83V10h-.83zm0-1.11v-.55h.83v.55h-.83z"/><path d="M15.07 16.03v3.09h1.54v-3.09h-1.54zm.77 2.73c-.21 0-.39-.17-.39-.39 0-.21.17-.39.39-.39.21 0 .39.17.39.39s-.18.39-.39.39z"/></svg>