<svg xmlns="http://www.w3.org/2000/svg" width="32" height="32" viewBox="0 0 32 32"><path d="M10.54 6.26c-.567-.426-1.018-.633-1.38-.633-.382 0-.565.236-.614.375-.017.05-.016.103.002.152l.856 2.337-.142 1.116-1.144.534-.865-.755c-.09-.244-.46-1.25-.65-1.783-.158-.445-.326-.66-.545-.694-.135-.022-.248.04-.312.108-1.832 1.594-.35 4.44-.26 4.61.018.04.16.333.395.71l-.14.067c-.35.165-.456.57-.26.983.13.278.352.437.606.437.097 0 .196-.023.294-.07l.447-.21c.067.064.135.128.206.188.39.33.535.54.5 1.424l-.343 9.973c-.003.04-.084.948.458 1.544.298.328.716.495 1.245.495.498 0 .894-.16 1.178-.473.537-.595.447-1.524.444-1.547l-.322-9.97c0-.112-.003-.22-.007-.324-.022-.707-.037-1.175 1.088-2.064 1.475-1.166 1.136-3.225 1.122-3.31-.327-2.024-1.792-3.168-1.856-3.217zm-4.744 4.965c-.287-.632-1.065-2.667.21-3.83.037.05.097.154.17.36.216.61.67 1.842.67 1.842.014.036.036.067.065.092l.758.66-1.873.874zm.44 2.22c-.052.025-.102.038-.148.038-.16 0-.255-.152-.298-.242-.07-.146-.127-.422.098-.53l.183-.086c.148.215.32.442.51.658l-.344.163zm4.758-1.015c-1.305 1.03-1.284 1.682-1.26 2.437.003.1.006.202.006.316l.323 9.993c0 .007.068.774-.327 1.213-.196.217-.47.323-.84.323-.395 0-.7-.116-.91-.344-.406-.447-.343-1.19-.34-1.212l.34-9.986c.04-.933-.104-1.317-.66-1.786-.632-.536-1.123-1.372-1.328-1.754l3.57-1.666c.07-.033.118-.1.128-.177l.165-1.295c.006-.036 0-.072-.01-.107l-.834-2.273c.03-.018.073-.033.143-.033.144 0 .48.07 1.103.54.014.01 1.386 1.088 1.685 2.93.003.02.305 1.883-.955 2.88zm-.94-1.802c-.057-.075-.163-.09-.238-.034-.075.056-.09.163-.034.238l.662.885c.034.045.085.068.136.068.036 0 .07-.01.102-.034.075-.055.09-.162.034-.237l-.662-.885zm-.613.298c-.055-.075-.162-.09-.237-.034s-.09.163-.034.238l.66.885c.035.044.086.068.137.068.036 0 .07-.01.102-.034.074-.057.09-.164.033-.24l-.662-.884zm-.222 1.386c.034.045.084.07.136.07.036 0 .07-.012.102-.035.075-.057.09-.163.034-.238l-.662-.886c-.056-.075-.163-.09-.238-.034s-.09.163-.034.238l.662.885zm-.476.366c.035 0 .07-.01.102-.034.075-.057.09-.163.034-.238l-.662-.885c-.056-.074-.163-.09-.238-.033-.075.056-.09.163-.034.238l.662.885c.033.044.084.068.136.068zm.14 11.92c-.156 0-.31.046-.442.13-.384.245-.498.757-.254 1.14.153.24.414.384.698.384.157 0 .31-.045.443-.13.385-.244.498-.757.254-1.14-.152-.24-.413-.384-.697-.384zm.263 1.238c-.22.14-.532.07-.672-.15-.144-.226-.077-.527.15-.67.078-.05.168-.077.26-.077.168 0 .322.083.412.224.144.226.077.528-.15.672zm9.097-5.456c0-.06-.024-.118-.066-.16-.35-.35-.52-.69-.51-1.012.015-.385.294-.63.296-.632.05-.043.08-.107.08-.174v-1.454c0-.125-.1-.227-.226-.227h-1.194v-6.225l.412-1.143c.014-.037.017-.077.01-.116l-.53-3.016c-.018-.11-.112-.188-.222-.188h-1.08c-.11 0-.205.08-.224.188l-.53 3.016c-.006.04-.003.08.01.116l.413 1.143v6.226h-1.193c-.126 0-.227.103-.227.228v1.454c0 .067.03.13.08.174.004.002.28.243.295.626.014.324-.157.666-.508 1.017-.042.042-.066.1-.066.16v5.863c0 .03-.012.305.25.586.385.412 1.14.62 2.242.62s1.858-.208 2.242-.62c.262-.282.25-.556.25-.57v-5.88zM15.4 6.487h.7l.487 2.77-.405 1.123c-.01.024-.014.05-.014.077v6.266h-.836v-6.266c0-.026-.005-.052-.014-.077l-.405-1.124.486-2.77zm-.562 20.447c-.134-.02-.25-.047-.355-.077V21.85c0-.21 0-.39.036-.49.015-.045.03-.086.158-.086.124 0 .16.077.16.586v5.075zm2.204-.083c-.105.03-.22.06-.356.08v-5.07c0-.51.037-.587.16-.587.106 0 .135.033.158.103.037.11.037.287.037.483v4.99zm.746-.582c0 .004-.01.247-.406.452v-4.867c0-.218 0-.423-.054-.584-.074-.22-.24-.336-.48-.336-.502 0-.502.514-.502.926v5.113c-.177.016-.372.026-.596.026-.214 0-.4-.01-.57-.025V21.86c0-.412 0-.925-.502-.925-.245 0-.407.105-.48.312-.056.156-.056.355-.056.614v4.873c-.42-.208-.43-.462-.43-.47v-5.79c.4-.423.592-.856.573-1.29-.02-.432-.25-.737-.375-.874v-1.133h3.677v1.132c-.126.135-.356.44-.375.874-.02.433.174.866.574 1.29v5.796zM26.95 6.15c-.04-.074-.118-.117-.202-.118l-.91.016c-.028 0-.056.006-.082.017-.004.002-.383.155-.82.155-.373 0-.672-.11-.89-.328-.042-.042-.1-.066-.16-.066H22.1c-.03.003-2.78.24-3.482 3.133-.047.195-.02.537.185.685.05.037.114.056.18.056.235 0 .472-.24.554-.347.006-.01.636-.96 1.148-1.346.073-.058.322-.22.505-.22.058 0 .125.01.178.142.145.357.28 1.105.39 1.706l.017.092c.02.105.11.18.215.185v6.243c-.23.134-.38.363-.38.63l-.026 9.64c0 .486.78.752 1.18.752h.49c.41 0 1.204-.266 1.204-.754l-.025-9.638c0-.267-.15-.497-.382-.63v-6.25c.093-.02.167-.093.18-.19l.17-1.346c.156-.136.33-.203.528-.203.41 0 .773.285.776.287.04.032.088.05.138.05l.91.016c.082-.005.16-.043.2-.116.023-.04.217-.406.217-1.144 0-.712-.208-1.096-.216-1.112zm-3.7 20.575h-.49c-.306 0-.705-.2-.726-.298l.025-9.64c0-.165.178-.3.397-.3h1.12c.22 0 .397.135.397.3L24 26.42c-.028.103-.442.304-.75.304zm-.81-10.69v-6.12h1.153v6.12H22.44zm3.117-8.18c-.178-.076-.397-.14-.634-.14-.343 0-.647.13-.904.386-.036.036-.06.083-.065.133l-.155 1.23h-1.616c-.114-.63-.243-1.32-.398-1.702-.11-.273-.324-.424-.6-.424-.37 0-.743.285-.78.314-.57.43-1.223 1.414-1.24 1.442-.03.04-.075.08-.113.11-.006-.044-.006-.095.004-.135.623-2.566 2.974-2.78 3.057-2.786h1.68c.298.263.68.395 1.14.395.223 0 .43-.032.596-.07.026.176.056.448.056.766 0 .216-.014.373-.03.487zm1.042.21l-.683-.012c-.012-.008-.028-.02-.042-.028.026-.136.05-.347.05-.655 0-.366-.036-.676-.064-.86.008-.003.02-.006.026-.01l.714-.012c.047.14.112.4.112.773 0 .398-.065.664-.112.805z"/></svg>