<svg xmlns="http://www.w3.org/2000/svg" width="32" height="32" viewBox="0 0 32 32"><path d="M21.183 13.69c.013-.034.02-.07.02-.108V12.44c0-2.272-1.448-4.468-3.4-5.212V6.11c0-.06-.004-.12-.01-.177.188-.114.304-.27.304-.474V3.72c0-.647-1.14-.783-2.098-.783s-2.1.136-2.1.784v1.74c0 .205.117.36.305.473-.006.058-.01.118-.01.177v1.118c-1.952.745-3.4 2.94-3.4 5.212v1.155c0 .038.008.074.02.11l.253.66v8.866l-.242.5c-.02.042-.03.087-.03.134 0 4.326 1.257 5.145 3.748 5.2.262 0 .545-.145.845-.298.21-.11.475-.243.607-.243.118 0 .38.14.57.24.29.156.563.303.818.303 2.534-.045 3.814-.862 3.814-5.202 0-.048-.012-.096-.035-.14l-.254-.496.016-8.862.254-.675zm-6.668-9.913c.108-.075.525-.227 1.485-.227s1.377.152 1.484.227v1.626c-.108.075-.524.227-1.484.227s-1.377-.152-1.485-.227V3.777zm6.075 9.75l-.253.674c-.013.035-.02.07-.02.108l-.014 8.992c0 .05.01.097.034.14l.254.497c-.013 4.156-1.22 4.48-3.2 4.515-.102 0-.35-.132-.53-.23-.29-.153-.588-.313-.86-.313-.28 0-.59.157-.887.31-.2.103-.45.23-.568.23-1.94-.042-3.122-.368-3.135-4.516l.242-.5c.02-.04.03-.086.03-.133v-8.99c0-.04-.006-.075-.02-.11l-.25-.662V12.44c0-2.1 1.37-4.12 3.188-4.703.13-.042.215-.19.21-.326V6.147c.366.073.794.098 1.19.098s.825-.024 1.19-.098v1.3c0 .133.087.25.214.292 1.817.583 3.187 2.604 3.187 4.702l.002 1.088zm-3.444-9.523c-.013-.083-.093-.14-.174-.128-.357.054-.79.076-1.247.063-.24-.008-.475-.025-.698-.05-.084-.008-.16.05-.17.135-.01.084.05.16.135.17.232.026.476.043.725.05.088.003.176.005.262.005.38 0 .734-.024 1.04-.07.083-.013.14-.09.128-.175zm-2.328 10.328c-.13.005-.233.096-.237.223-.003.127.097.233.224.237.373.01.775.02 1.197.02 1.586 0 2.848-.103 3.46-.162.125-.012.217-.125.205-.25s-.125-.22-.25-.207c-.604.06-1.85.16-3.414.16-.416-.002-.813-.01-1.182-.02zm-2.305.32c.202.02.502.045.878.07h.017c.12 0 .22-.092.23-.213.008-.127-.088-.237-.215-.246-.37-.026-.666-.05-.865-.07-.126-.01-.24.08-.25.207s.08.24.206.252zm6.9 8.34c-.482.047-1.778.16-3.413.16-.417 0-.814-.008-1.182-.02-.13.002-.233.096-.237.223-.003.127.097.233.224.237.373.012.775.02 1.197.02 1.656 0 2.97-.113 3.46-.162.125-.013.217-.125.205-.25-.013-.127-.12-.22-.252-.207zm-5.99.07c-.37-.024-.667-.05-.866-.07-.125-.01-.24.082-.25.208s.08.24.206.25c.202.02.502.046.878.07l.017.002c.12 0 .22-.093.23-.214.008-.127-.088-.236-.215-.245zm4.795-1.95l.613-1.178v-.003h.002c.244-.535.037-.913.03-.927l-.447-.82c-.01-.022-.03-.037-.053-.043-.022-.006-.046-.003-.067.01l-1.176.695c-.04.024-.055.075-.033.116l.616 1.103h-.666l.003-.265c0-.042 0-.083-.054-.118-.045-.03-.104-.026-.156.013-.007.006-.014.012-.02.02l-.678.978c-.02.03-.02.07 0 .1l.68.978c.004.008.01.014.018.02.03.022.06.033.09.033.023 0 .046-.006.066-.02.054-.035.054-.075.054-.118l-.003-.264h.488c.514 0 .682-.29.69-.305zm-.938-2.16l1.027-.608.404.743c.007.013.17.32-.033.77-.087.164-.388.208-.54.208h-.235l-.622-1.113zm-.328 2.295c-.023 0-.045.01-.06.026-.017.016-.026.04-.026.062l.002.213-.558-.806.56-.805-.003.213c0 .023.01.045.025.062.017.016.038.026.06.026h1.19c.05 0 .21-.005.37-.057l-.445.854c0 .002-.13.215-.54.215h-.574zm-1.275.195h.003c.022 0 .044-.01.06-.024.017-.017.026-.038.026-.062V19.99c0-.047-.04-.086-.086-.086l-1.278-.002.35-.604.232.14c.026.016.046.028.076.028.025 0 .042-.01.052-.014.05-.024.075-.076.07-.14l-.008-.028-.5-1.082c-.014-.033-.048-.052-.084-.05l-1.188.088c-.01 0-.02.003-.027.006-.06.026-.094.073-.09.128.004.065.038.085.076.107l.225.128-.244.424c-.067.115-.112.23-.133.344v.017c-.036.242.12.508.128.52l.623.998.003.003c.338.48.767.495.784.495l.933.03zm-2.3-2.04c.02-.09.056-.186.113-.282l.287-.5c.01-.02.014-.044.008-.066-.006-.022-.02-.04-.04-.05l-.18-.103.977-.07.41.888-.186-.114c-.02-.012-.044-.016-.066-.01-.022.006-.042.02-.054.04l-.446.768c-.128 0-.447-.016-.65-.16-.115-.085-.173-.196-.174-.342zm.728 1.42l-.547-.876c.018.01.037.014.054.02l.072.03c.042.013.082.025.123.034l.067.015c.045.008.087.014.13.018.016.002.033.005.05.006.054.003.105.005.145.005h.053l.014-.002 1.324.002v1.192l-.843-.03c-.014 0-.362-.016-.644-.418zm1.255-2.56c.014.01.03.013.045.013.028 0 .055-.014.072-.04l.69-1.05.298.584-.224.12c-.035.02-.072.038-.08.102-.005.055.027.104.085.132.008.004.018.007.027.008l1.182.15h.01c.032 0 .062-.017.077-.045l.555-1.054c.004-.008.007-.017.008-.026.01-.064-.012-.118-.06-.145-.01-.006-.03-.017-.057-.017-.028 0-.047.01-.07.023l-.247.124-.215-.43c-.238-.457-.574-.472-.59-.472H15.53c-.587.033-.826.39-.835.403l-.522.775c-.013.02-.018.043-.013.066s.02.042.04.055l1.16.72zm1.5-1.848c.01 0 .253.018.44.377l.252.508c.01.02.03.036.05.043s.045.007.066-.004l.206-.104-.46.874-.977-.124.185-.1c.04-.02.057-.072.036-.114l-.535-1.048c-.006-.01-.088-.172-.224-.304h.96zm-2.022.326c.008-.012.205-.298.697-.326.198.002.38.275.434.38l.108.213-.698 1.064-1.014-.63.472-.7z"/></svg>