<svg xmlns="http://www.w3.org/2000/svg" viewBox="0 0 32 32"><path d="M21.45 24.27l1.42-6.35c.01-.02 0-.04 0-.07h.01c0-.01 0-.02-.01-.03 0-.01-.01-.03-.01-.04-.12-.9-2.42-1.32-4.63-1.48-.05-.57.07-1.23.62-1.88.02-.02 1.94-2.08 0-4.11-1.39-1.46-.04-3.42.02-3.5.07-.1.05-.25-.06-.32s-.25-.05-.32.05c-.02.02-1.64 2.35.02 4.09 1.64 1.71.07 3.4-.01 3.48-.63.74-.79 1.5-.74 2.16-.54-.02-1.42-.05-1.78-.05h-.15c-.03-.55.11-1.18.63-1.81.02-.02 1.94-2.08 0-4.11-1.39-1.46-.04-3.42.02-3.5.07-.1.05-.25-.06-.32s-.25-.05-.32.05c-.02.02-1.64 2.35.02 4.09 1.64 1.71.07 3.4-.01 3.48-.62.73-.78 1.47-.74 2.12-.53.02-1.52.06-2.05.1-.06-.58.06-1.25.62-1.92.02-.02 1.94-2.08 0-4.11-1.39-1.46-.04-3.42.02-3.5.07-.1.05-.25-.06-.32-.1-.07-.25-.05-.32.05-.02.02-1.64 2.35.02 4.09 1.64 1.71.07 3.4-.01 3.48-.66.77-.8 1.57-.73 2.25-1.71.23-3.69.72-3.77 1.43v.02c0 .01-.01.03-.01.04h.01v.07l1.42 6.35c.12.83 3.27 1.28 5.45 1.28s5.37-.43 5.49-1.26zM9.74 17.85c.1-.23 1.59-.65 3.28-.88.21.73.6 1.22.6 1.23.05.06.11.09.18.09.05 0 .1-.02.14-.05.1-.08.12-.22.04-.32-.03-.03-.32-.41-.5-.97.47-.04 1.43-.08 2.01-.1.2.8.63 1.34.64 1.36.05.06.11.09.18.09.05 0 .1-.02.14-.05.1-.08.12-.22.04-.32-.03-.03-.36-.46-.53-1.07H16c.44 0 1.35.03 1.88.05.21.77.62 1.3.63 1.31.05.06.11.09.18.09.05 0 .1-.02.14-.05.1-.08.12-.22.04-.32-.03-.03-.33-.42-.51-.98 2.41.19 3.78.65 3.89.92l-1.4 6.29c-.28.25-2.16.8-4.85.8s-4.57-.55-4.85-.8l-1.41-6.32z"/></svg>