<svg xmlns="http://www.w3.org/2000/svg" viewBox="0 0 32 32"><path d="M27.3 15.58c-.02-.08-.07-.16-.14-.2l-6.52-4.06-5.55-6.23c-.09-.1-.24-.11-.34-.02L12.98 6.6l-1.47-.91c-.15-.09-.35-.05-.44.1l-3.5 5.53-1.98 1.73c-.05.04-.08.1-.08.16s.02.13.06.17l.42.47-1.24 1.97c-.05.07-.06.16-.04.24.02.08.07.16.14.2l7.29 4.5 5.49 6.16c.04.05.11.08.17.08.06 0 .11-.02.16-.06l1.71-1.49.82.51c.05.02.11.04.17.04.11 0 .21-.05.27-.15l2.12-3.35 4.06-3.54c.05-.04.08-.1.08-.17 0-.06-.02-.13-.06-.17l-.97-1.08 1.08-1.72c.06-.07.08-.16.06-.24zM11.44 6.4l1.03.64-3.19 2.78 2.16-3.42zm-5.98 9.48l.97-1.54 4.25 4.77-5.22-3.23zm15.1 9.36l-.38-.24 1.16-1.01-.78 1.25zm-2.74 1.19L6.08 13.24l8.8-7.66 5.85 6.57.01.01.01.01 5.88 6.6-8.81 7.66zm7.91-9.39l-3.56-4 4.37 2.71-.81 1.29zm-9.98-6.2c-.09-.1-.24-.11-.33-.02l-4.03 3.51c-.05.04-.08.1-.08.16s.02.13.06.17L15.23 19c.09.1.24.11.33.02l.94-.82 1.66 1.86c.05.05.11.08.18.08.06 0 .11-.02.16-.06l2.92-2.54c.05-.04.08-.1.08-.17 0-.06-.02-.13-.06-.17l-5.69-6.36zm2.61 8.75l-1.66-1.86c-.05-.05-.11-.08-.18-.08-.06 0-.11.02-.16.06l-.94.82-3.55-3.98 3.67-3.2 5.36 6.02-2.54 2.22zm4.61-.33c.02.03.06.04.09.04s.06-.01.08-.03c.05-.04.05-.12.01-.17l-1.3-1.46c-.04-.05-.12-.05-.17-.01-.05.04-.05.12-.01.17l1.3 1.46zm-1.02-2.15c.03 0 .06-.01.08-.03l.91-.8c.05-.04.06-.12.01-.17-.04-.05-.12-.06-.17-.01l-.91.8c-.05.04-.06.12-.01.17.02.03.06.04.09.04zm-6.63-6.45c.02.03.06.04.09.04s.06-.01.08-.03c.05-.04.05-.12.01-.17l-1.3-1.46c-.04-.04-.12-.04-.17 0s-.05.12-.01.17l1.3 1.45zm-3.97 3.46l-1.3-1.46c-.04-.05-.12-.05-.17-.01s-.05.12-.01.17l1.3 1.46c.02.03.06.04.09.04s.06-.01.08-.03c.05-.05.05-.12.01-.17zm4.81-3.51c.03 0 .06-.01.08-.03l.91-.8c.05-.04.06-.12.01-.17-.04-.04-.11-.05-.16-.01l-.91.8c-.05.04-.06.12-.01.17.02.03.05.04.08.04zm2.54 9.77c-.04-.05-.12-.05-.17-.01s-.05.12-.01.17l1.3 1.46c.02.03.06.04.09.04s.06-.01.08-.03c.05-.04.05-.12.01-.17l-1.3-1.46zm-.77-.05l-.92.8c-.05.04-.06.12-.01.17.02.03.06.04.09.04s.06-.01.08-.03l.92-.8c.05-.04.06-.12.01-.17-.04-.05-.12-.05-.17-.01zm-3.03-1.19l-.91.8c-.05.04-.06.12-.01.17.02.03.06.04.09.04s.06-.01.08-.03l.91-.8c.05-.04.06-.12.01-.17s-.12-.05-.17-.01zm-3.87-4.34l-.91.8c-.05.04-.06.12-.01.17.02.03.06.04.09.04s.06-.01.08-.03l.91-.8c.05-.04.06-.12.01-.17-.04-.05-.12-.05-.17-.01z"/></svg>