<svg data-name="cloud-private" xmlns="http://www.w3.org/2000/svg" viewBox="0 0 36 36"><title>Icon-Red_Hat-Software_and_technologies-Cloud_private-A-Black-RGB</title><path d="M27.53 17.31a8.57 8.57 0 0 0-15.75-4h-.63a6.63 6.63 0 0 0 0 13.26h15.66a4.66 4.66 0 0 0 .72-9.27zm-.72 7.77H11.15a5.13 5.13 0 0 1 0-10.26 5.76 5.76 0 0 1 .89.08.75.75 0 0 0 .78-.37A7.07 7.07 0 0 1 26.06 18a.76.76 0 0 0 .75.75 3.17 3.17 0 0 1 0 6.33z"/><path d="M20.47 16.67a2.25 2.25 0 1 0-4.5 0 2.22 2.22 0 0 0 .91 1.79L16 22a.74.74 0 0 0 .13.64.72.72 0 0 0 .59.29h3a.72.72 0 0 0 .59-.29.71.71 0 0 0 .14-.64l-.88-3.53a2.21 2.21 0 0 0 .9-1.8z"/></svg>