<svg data-name="Layer 1" xmlns="http://www.w3.org/2000/svg" viewBox="0 0 36 36"><title>Icon-Red_Hat-virtual_server_stack_unsecured-A-Black-RGB</title><path d="M23.83 29.4a1 1 0 0 0-.07-.13.98.98 0 0 0-.09-.12c-.035-.03-.073-.06-.113-.088a.832.832 0 0 0-.127-.072.794.794 0 0 0-.82.16.98.98 0 0 0-.09.12.887.887 0 0 0-.07.13.682.682 0 0 0-.045.14.746.746 0 0 0-.015.15.76.76 0 0 0 .22.53.748.748 0 0 0 .68.205.7.7 0 0 0 .14-.045.76.76 0 0 0 .127-.073 1.25 1.25 0 0 0 .113-.087.748.748 0 0 0 .2-.68.682.682 0 0 0-.04-.14zM18.14 28.94a.743.743 0 1 0 .532.217.75.75 0 0 0-.532-.217zM5.64 28.94a.743.743 0 1 0 .532.217.75.75 0 0 0-.532-.217zM13.14 28.94a.743.743 0 1 0 .532.217.75.75 0 0 0-.532-.217zM8.14 28.94a.743.743 0 1 0 .532.217.75.75 0 0 0-.532-.217zM10.64 28.94a.743.743 0 1 0 .532.217.75.75 0 0 0-.532-.217zM20.64 28.94a.75.75 0 1 0 .528.217.75.75 0 0 0-.528-.217zM15.64 28.94a.743.743 0 1 0 .532.217.75.75 0 0 0-.532-.217zM3.83 29.4a.558.558 0 0 0-.065-.13 1.29 1.29 0 0 0-.1-.12.794.794 0 0 0-.82-.16.917.917 0 0 0-.128.068.75.75 0 0 0-.112.092.644.644 0 0 0-.09.117 1.05 1.05 0 0 0-.07.133.682.682 0 0 0-.045.14.746.746 0 0 0-.015.15.76.76 0 0 0 .22.53.687.687 0 0 0 .112.09.922.922 0 0 0 .128.07.86.86 0 0 0 .155.045.693.693 0 0 0 .145.015.736.736 0 0 0 .287-.058.748.748 0 0 0 .448-.84.682.682 0 0 0-.05-.142zM3.14 19.12a.743.743 0 1 0 .532.217.75.75 0 0 0-.532-.217zM3.14 14.21a.753.753 0 0 0-.53.216.734.734 0 0 0-.22.524.76.76 0 0 0 .22.537.743.743 0 0 0 1.062 0 .762.762 0 0 0 .218-.537.735.735 0 0 0-.218-.524.75.75 0 0 0-.532-.216zM3.14 16.66a.75.75 0 1 0 .532.22.75.75 0 0 0-.532-.22zM3.14 21.57a.75.75 0 1 0 .532.22.75.75 0 0 0-.532-.22zM3.14 24.03a.743.743 0 1 0 .532.217.75.75 0 0 0-.532-.217zM3.14 11.75a.75.75 0 1 0 .532.22.75.75 0 0 0-.532-.22zM3.14 6.84a.75.75 0 1 0 .532.22.75.75 0 0 0-.532-.22zM3.14 4.39a.743.743 0 1 0 .532.217.75.75 0 0 0-.532-.217zM3.14 9.3a.743.743 0 1 0 .532.217.75.75 0 0 0-.532-.217zM3.14 26.48a.75.75 0 1 0 .532.22.75.75 0 0 0-.532-.22zM3.67 2.16a.857.857 0 0 0-.113-.1.7.7 0 0 0-.127-.07.775.775 0 0 0-.82.17.678.678 0 0 0-.163.24.778.778 0 0 0-.057.29.688.688 0 0 0 .015.14.713.713 0 0 0 .045.14.975.975 0 0 0 .07.132.618.618 0 0 0 .09.118.748.748 0 0 0 .68.2.7.7 0 0 0 .14-.04.91.91 0 0 0 .127-.07.693.693 0 0 0 .113-.09.618.618 0 0 0 .09-.12 1.1 1.1 0 0 0 .07-.13.713.713 0 0 0 .045-.14.688.688 0 0 0 .015-.14.76.76 0 0 0-.058-.29.662.662 0 0 0-.162-.24zM13.54 3.44a.755.755 0 1 0-.53-.22.75.75 0 0 0 .53.22zM10.94 3.44a.748.748 0 1 0-.533-.22.75.75 0 0 0 .533.22zM23.94 3.44a.755.755 0 1 0-.53-.22.75.75 0 0 0 .53.22zM8.34 3.44a.755.755 0 1 0-.53-.22.75.75 0 0 0 .53.22zM21.34 3.44a.755.755 0 1 0-.53-.22.75.75 0 0 0 .53.22zM18.74 3.44a.755.755 0 1 0-.53-.22.75.75 0 0 0 .53.22zM16.14 3.44a.755.755 0 1 0-.53-.22.746.746 0 0 0 .53.22zM5.74 3.44a.755.755 0 1 0-.53-.22.75.75 0 0 0 .53.22zM26.54 3.44a.755.755 0 1 0-.53-.22.75.75 0 0 0 .53.22zM28.45 2.97a.975.975 0 0 0 .07.132.618.618 0 0 0 .09.118.75.75 0 0 0 1.06 0 .733.733 0 0 0 .095-.118.6.6 0 0 0 .065-.132.713.713 0 0 0 .045-.14.688.688 0 0 0 .015-.14.76.76 0 0 0-.058-.29.662.662 0 0 0-.162-.24.775.775 0 0 0-.82-.17.71.71 0 0 0-.128.074.848.848 0 0 0-.112.1.678.678 0 0 0-.163.24.778.778 0 0 0-.057.29.688.688 0 0 0 .015.14.713.713 0 0 0 .045.136zM29.14 6.06a.748.748 0 1 0-.53-.217.746.746 0 0 0 .53.217zM29.14 21.81a.755.755 0 1 0-.53-.22.745.745 0 0 0 .53.22zM29.14 13.94a.755.755 0 1 0-.53-.22.745.745 0 0 0 .53.22zM29.14 16.56a.755.755 0 1 0-.53-.22.745.745 0 0 0 .53.22zM29.14 8.68a.75.75 0 0 0 .532-.217.73.73 0 0 0 .218-.523.75.75 0 1 0-1.5 0 .73.73 0 0 0 .22.523.754.754 0 0 0 .53.217zM29.14 11.31a.755.755 0 1 0-.53-.22.745.745 0 0 0 .53.22zM29.14 19.18a.744.744 0 0 0 .75-.75.735.735 0 0 0-.218-.524.76.76 0 0 0-1.06 0 .734.734 0 0 0-.222.524.75.75 0 0 0 .75.75zM28.61 24.22a.86.86 0 0 0 .242.16.722.722 0 0 0 .437.045.7.7 0 0 0 .14-.045.91.91 0 0 0 .127-.07.693.693 0 0 0 .113-.09.748.748 0 0 0 .2-.68.682.682 0 0 0-.045-.14.57.57 0 0 0-.065-.13.532.532 0 0 0-.095-.11.857.857 0 0 0-.113-.1.7.7 0 0 0-.127-.074.775.775 0 0 0-.82.17.678.678 0 0 0-.163.24.778.778 0 0 0-.057.29.76.76 0 0 0 .22.53zM26.14 12.936h-20a.748.748 0 0 0-.75.75v5a.75.75 0 0 0 .75.75h20a.75.75 0 0 0 .75-.75v-5a.75.75 0 0 0-.75-.75zm-.75 3.25v1.75H6.89v-3.5h18.5z"/><path d="M22.74 16.47a.82.82 0 0 0 .074.132.75.75 0 0 0 .626.338.772.772 0 0 0 .53-.22.618.618 0 0 0 .09-.118 1.1 1.1 0 0 0 .07-.132.713.713 0 0 0 .045-.14.688.688 0 0 0 .015-.14.746.746 0 0 0-.015-.15.682.682 0 0 0-.045-.14 1 1 0 0 0-.07-.13.98.98 0 0 0-.09-.12.772.772 0 0 0-.534-.2.744.744 0 0 0-.526.2.777.777 0 0 0-.1.117.875.875 0 0 0-.074.133.91.91 0 0 0-.036.14.826.826 0 0 0-.014.15.756.756 0 0 0 .014.144.94.94 0 0 0 .04.136zM11.59 15.436h-3a.75.75 0 0 0 0 1.5h3a.75.75 0 1 0 0-1.5zM26.89 8.186v-2.5a.75.75 0 0 0-.75-.75h-20a.748.748 0 0 0-.75.75v5a.75.75 0 0 0 .75.75h20a.75.75 0 0 0 .75-.75zm-1.5 0v1.75H6.89v-3.5h18.5z"/><path d="M22.91 8.72a.687.687 0 0 0 .112.09.922.922 0 0 0 .128.07.682.682 0 0 0 .14.045.746.746 0 0 0 .15.015.683.683 0 0 0 .144-.015.7.7 0 0 0 .136-.045 1.1 1.1 0 0 0 .132-.07.618.618 0 0 0 .118-.09.75.75 0 0 0 0-1.06.738.738 0 0 0-.118-.1.82.82 0 0 0-.132-.074.793.793 0 0 0-.57 0 .71.71 0 0 0-.128.074.848.848 0 0 0-.112.1.75.75 0 0 0 0 1.06zM11.59 7.436h-3a.75.75 0 0 0 0 1.5h3a.75.75 0 1 0 0-1.5zM23.14 25.936H6.89v-3.5h18.5v1.25a.75.75 0 0 0 1.5 0v-2a.75.75 0 0 0-.75-.75h-20a.748.748 0 0 0-.75.75v5a.75.75 0 0 0 .75.75h17a.75.75 0 1 0 0-1.5z"/><path d="M23.97 23.66a.738.738 0 0 0-.118-.1.82.82 0 0 0-.132-.074.736.736 0 0 0-.428-.035.765.765 0 0 0-.382.206.678.678 0 0 0-.163.24.778.778 0 0 0-.057.29.764.764 0 0 0 .014.14.958.958 0 0 0 .036.14.82.82 0 0 0 .074.132.75.75 0 0 0 .626.338.683.683 0 0 0 .144-.015.7.7 0 0 0 .136-.044 1.1 1.1 0 0 0 .132-.07.582.582 0 0 0 .21-.208 1.1 1.1 0 0 0 .068-.132.713.713 0 0 0 .045-.14.688.688 0 0 0 .015-.14.76.76 0 0 0-.058-.29.662.662 0 0 0-.162-.236zM10.09 23.436h-1.5a.75.75 0 0 0 0 1.5h3a.75.75 0 1 0 0-1.5zM25.407 29.05v1.265a3.756 3.756 0 0 0 3.75 3.75 3.165 3.165 0 0 0 .555-.05 4.214 4.214 0 0 0 .53-.13l-2.418-2.418zM33.39 32.776l-.43-.43-.427-.427a3.973 3.973 0 0 0 .275-.77 3.588 3.588 0 0 0 .1-.835v-3a.75.75 0 0 0-.508-.715l-1.5-.5-1.5-.5a.76.76 0 0 0-.475 0l-1.014.337-1.013.338-.377-.377-.377-.377a.75.75 0 0 0-1.06 1.062l3.264 3.272 3.266 3.273.356.357.356.357a.752.752 0 0 0 1.06 0 .752.752 0 0 0 0-1.06z"/></svg>