<svg data-name="virtual-server-secured" xmlns="http://www.w3.org/2000/svg" viewBox="0 0 36 36"><title>Icon-Red_Hat-Hardware-Virtual_Server_Secured-A-Black-RGB</title><path d="M11.8 11.75a.75.75 0 1 0-.75-.75.76.76 0 0 0 .75.75zm-7.8 4a.75.75 0 1 0 .75.75.76.76 0 0 0-.75-.75zm10.4-4a.75.75 0 1 0-.75-.75.76.76 0 0 0 .75.75zM4 18.5a.75.75 0 1 0 .75.75.76.76 0 0 0-.75-.75zm2.6-6.75a.75.75 0 1 0-.75-.75.75.75 0 0 0 .75.75zm-2.07 9.72a.75.75 0 0 0-1.22.24.73.73 0 0 0 0 .58.63.63 0 0 0 .16.24.75.75 0 0 0 1.06 0 .63.63 0 0 0 .16-.24.73.73 0 0 0 0-.58.78.78 0 0 0-.16-.24zm4.67-9.72a.75.75 0 1 0-.75-.75.76.76 0 0 0 .75.75zM30 14.5a.75.75 0 1 0-.75-.75.76.76 0 0 0 .75.75zm0-2.75a.75.75 0 0 0 .53-1.28.77.77 0 0 0-1.06 0 .75.75 0 0 0 .53 1.28zm-13 0a.75.75 0 1 0-.75-.75.75.75 0 0 0 .75.75zm10.4 0a.75.75 0 1 0-.75-.75.76.76 0 0 0 .75.75zm-2.6 0a.75.75 0 1 0-.75-.75.76.76 0 0 0 .75.75zm-5.2 0a.75.75 0 1 0-.75-.75.76.76 0 0 0 .75.75zm2.6 0a.75.75 0 1 0-.75-.75.76.76 0 0 0 .75.75zm-10.7 9.5a.75.75 0 0 0 0 1.5.75.75 0 0 0 0-1.5zM23.77 16a.75.75 0 0 0 .53 1.28.77.77 0 0 0 .53-.22.75.75 0 0 0 0-1.06.77.77 0 0 0-1.06 0zm3.23.78a.76.76 0 0 0 .75-.75V14a.76.76 0 0 0-.75-.75H7a.76.76 0 0 0-.75.75v5a.76.76 0 0 0 .75.75h17a.75.75 0 0 0 0-1.5H7.75v-3.5h18.5V16a.76.76 0 0 0 .75.75zm-2.47 4.72a.75.75 0 0 0-.82-.16.74.74 0 0 0-.4.4.75.75 0 0 0-.06.29.72.72 0 0 0 .06.29.74.74 0 0 0 .4.4.72.72 0 0 0 .29.06.75.75 0 0 0 .53-.22.63.63 0 0 0 .16-.24.72.72 0 0 0 .06-.29.75.75 0 0 0-.06-.29.78.78 0 0 0-.16-.27zm-3-.22a.75.75 0 1 0 .75.75.75.75 0 0 0-.78-.78zm11.74-3l-3-1a.79.79 0 0 0-.48 0l-3 1a.75.75 0 0 0-.51.71v3a3.75 3.75 0 0 0 7.5 0V19a.75.75 0 0 0-.54-.71zM9.45 15.75a.75.75 0 0 0 0 1.5h3a.75.75 0 0 0 0-1.5zm-2.95 5.5a.75.75 0 1 0 .75.75.75.75 0 0 0-.75-.75zM4 13a.75.75 0 1 0 .75.75A.75.75 0 0 0 4 13zm5 8.25a.75.75 0 1 0 .75.75.75.75 0 0 0-.75-.75zm10 0a.75.75 0 1 0 .75.75.75.75 0 0 0-.75-.75zM3.71 10.31a.78.78 0 0 0-.24.16.75.75 0 0 0 0 1.06.63.63 0 0 0 .24.16.75.75 0 1 0 0-1.38zM16.5 21.25a.75.75 0 0 0 0 1.5.75.75 0 0 0 0-1.5zm-2.5 0a.75.75 0 1 0 .75.75.75.75 0 0 0-.75-.75z"/></svg>