<svg xmlns="http://www.w3.org/2000/svg" viewBox="0 0 32 32"><path fill="#231F20" d="M25.608 20.442v-6.654c0-.164-.133-.296-.296-.296h-8.9v-3.1c1.44-.15 2.568-1.37 2.568-2.85 0-1.578-1.284-2.862-2.863-2.862s-2.863 1.285-2.863 2.863c0 1.48 1.127 2.7 2.567 2.848v3.102h-8.9c-.163 0-.295.133-.295.296v6.654c-1.44.15-2.567 1.37-2.567 2.848 0 1.58 1.284 2.863 2.863 2.863s2.864-1.284 2.864-2.863c0-1.48-1.127-2.7-2.567-2.848v-6.358h8.603v6.358c-1.44.15-2.567 1.37-2.567 2.848 0 1.58 1.284 2.863 2.863 2.863s2.863-1.284 2.863-2.863c0-1.48-1.128-2.7-2.568-2.848v-6.358h8.603v6.358c-1.44.15-2.567 1.37-2.567 2.848 0 1.58 1.284 2.863 2.863 2.863 1.58 0 2.864-1.284 2.864-2.863 0-1.48-1.126-2.7-2.566-2.848zm-11.762-12.9c0-1.25 1.02-2.27 2.27-2.27s2.272 1.02 2.272 2.27c0 1.253-1.02 2.272-2.27 2.272s-2.272-1.02-2.272-2.27zM9.192 23.29c0 1.252-1.02 2.27-2.27 2.27S4.65 24.543 4.65 23.29s1.02-2.27 2.27-2.27 2.272 1.018 2.272 2.27zm9.195 0c0 1.252-1.02 2.27-2.27 2.27s-2.272-1.018-2.272-2.27 1.02-2.27 2.27-2.27 2.272 1.018 2.272 2.27zm6.925 2.27c-1.252 0-2.27-1.018-2.27-2.27s1.018-2.27 2.27-2.27 2.27 1.018 2.27 2.27-1.018 2.27-2.27 2.27z"/></svg>