<svg xmlns="http://www.w3.org/2000/svg" viewBox="0 0 36 36"><title>Icon-Red_Hat-Documents-Paper_Reporting-A-Black-RGB</title><path d="M26 29.77a.76.76 0 0 0 .75-.75V7a.75.75 0 0 0-.75-.73H14a.63.63 0 0 0-.19 0h-.07a.66.66 0 0 0-.22.15l-4 4a.66.66 0 0 0-.15.22.14.14 0 0 0 0 .07.58.58 0 0 0 0 .19V29a.75.75 0 0 0 .75.75zM13.25 8.83v1.44h-1.44zm-2.5 2.94H14a.76.76 0 0 0 .75-.75V7.77h10.5v20.5h-14.5z"/><path d="M23 21.27h-1.25V15a.75.75 0 1 0-1.5 0v6.25h-1.5V18a.75.75 0 1 0-1.5 0v3.25h-1.5V20a.75.75 0 1 0-1.5 0v1.25H13a.75.75 0 1 0 0 1.5h10a.75.75 0 0 0 0-1.5z"/></svg>