<svg xmlns="http://www.w3.org/2000/svg" viewBox="0 0 36 36"><title>Icon-Red_Hat-Diagrams-Community_Culture-A-Black-RGB</title><path d="M21.31 17.42a6.06 6.06 0 1 0-6.06-6.05 6.06 6.06 0 0 0 6.06 6.05zm0-10.61a4.56 4.56 0 1 1-4.56 4.56 4.56 4.56 0 0 1 4.56-4.56zM12 12.42a2.37 2.37 0 1 0-2.37-2.36A2.37 2.37 0 0 0 12 12.42zm0-3.23a.87.87 0 1 1-.87.87.87.87 0 0 1 .87-.87zM14 25.69a2.37 2.37 0 1 0 2.37 2.37A2.38 2.38 0 0 0 14 25.69zm0 3.23a.87.87 0 1 1 .87-.86.86.86 0 0 1-.87.86zM29 14.69a2.37 2.37 0 1 0 2.37 2.37A2.38 2.38 0 0 0 29 14.69zm0 3.23a.87.87 0 1 1 .87-.86.86.86 0 0 1-.87.86zM23.08 18.58a6.06 6.06 0 1 0 6.05 6.05 6.07 6.07 0 0 0-6.05-6.05zm0 10.61a4.56 4.56 0 1 1 4.55-4.56 4.56 4.56 0 0 1-4.55 4.56zM10.69 13.27a6.06 6.06 0 1 0 6.06 6.06 6.07 6.07 0 0 0-6.06-6.06zm0 10.61a4.56 4.56 0 1 1 4.56-4.55 4.56 4.56 0 0 1-4.56 4.55z"/></svg>