<svg xmlns="http://www.w3.org/2000/svg" width="32" height="32" viewBox="0 0 32 32"><path d="M19.104 22.634h5.443c.684 0 1.24-.557 1.24-1.24V10.986c0-.684-.556-1.24-1.24-1.24H7.797c-.683 0-1.24.556-1.24 1.24v10.406c0 .684.556 1.24 1.24 1.24h11.307zm6.07-1.21c0 .346-.28.627-.627.627H7.797c-.346 0-.627-.28-.627-.626V10.987c0-.346.28-.628.627-.628h16.75c.346 0 .627.28.627.627v10.437zm-9.002-1.728c-1.934 0-3.506-1.573-3.506-3.506 0-1.933 1.573-3.506 3.506-3.506 1.933 0 3.506 1.573 3.506 3.506 0 1.933-1.573 3.506-3.506 3.506zm0-6.552c-1.68 0-3.046 1.366-3.046 3.046 0 1.68 1.367 3.046 3.046 3.046s3.046-1.367 3.046-3.046c0-1.68-1.366-3.046-3.046-3.046zm-1.04 4.6c-.03 0-.056-.008-.08-.023-.046-.027-.075-.076-.075-.13v-2.8c0-.053.028-.103.073-.13.045-.028.102-.03.15-.006l2.75 1.39c.052.025.085.077.085.135 0 .057-.032.11-.083.136L15.2 17.728c-.022.01-.046.017-.07.017zm.152-2.705v2.3l2.26-1.16-2.26-1.14z"/></svg>