<svg xmlns="http://www.w3.org/2000/svg" width="32" height="32" viewBox="0 0 32 32"><path d="M16.816 18.545c-.385 0-.71.33-.71.722 0 .385.325.71.71.71s.71-.325.71-.71c0-.39-.325-.722-.71-.722zm.334-1.61l.268-1.5V12.11h-1.203v3.324l.268 1.5h.667zm7.598 4.792H8.883l7.932-13.74 7.932 13.74zM15.83 11.92c0-.107.087-.193.193-.193h1.586c.105 0 .19.086.19.192v3.53c0 .012 0 .024-.002.035l-.3 1.676c-.016.092-.096.16-.19.16h-.986c-.093 0-.172-.068-.19-.16l-.298-1.675c-.002-.01-.003-.022-.003-.034v-3.53zm.986 8.44c-.603 0-1.093-.49-1.093-1.094 0-.6.5-1.105 1.093-1.105s1.093.507 1.093 1.106c0 .602-.49 1.093-1.094 1.093zm-8.463 1.98H25.284c.17 0 .306-.137.306-.306 0-.077-.027-.146-.073-.2L17.08 7.222c-.11-.19-.422-.19-.53 0L8.085 21.88c-.055.095-.055.21 0 .306.054.095.156.154.265.154z"/></svg>