<svg xmlns="http://www.w3.org/2000/svg" width="32" height="32" viewBox="0 0 32 32"><path d="M19.847 6.578c-.09-.836-.8-1.49-1.66-1.49H13.64c-.866 0-1.58.664-1.662 1.508-2.43.256-4.862.75-4.862 1.607v1.113c0 .247.213.477.577.688l1.235 14.812c0 1.253 3.657 2.095 7.073 2.095 3.416 0 7.073-.84 7.072-2.072l1.234-14.833c.364-.21.578-.44.578-.688V8.204c0-.877-2.548-1.375-5.037-1.625zm-7.36 1.065V6.76c0-.075.01-.146.022-.216.1-.532.57-.937 1.13-.937h4.547c.556 0 1.022.396 1.13.922.015.073.023.15.023.23v1.273c0 .044-.002.078-.06.1-.05.018-.147.03-.328.03-.326 0-.377-.034-.386-.094-.002-.012-.002-.024-.002-.038V6.758c0-.123-.06-.232-.153-.3-.062-.047-.14-.076-.223-.076H16.89c-.334-.01-.637-.016-.89-.016s-.558.006-.892.016H13.64c-.092 0-.175.034-.24.09-.083.068-.136.17-.136.286v1.275c0 .018 0 .035-.006.05-.016.05-.083.08-.383.08-.135 0-.222-.007-.28-.018-.106-.02-.108-.058-.108-.113v-.39zm10.068 17.174c0 .542-2.552 1.577-6.555 1.577s-6.555-1.036-6.557-1.6L8.23 10.262c1.845.743 5.545 1.183 7.77 1.183 2.222 0 5.922-.44 7.766-1.182l-1.212 14.556zM24.363 9.32c-.028.108-.223.24-.55.38-1.255.542-4.47 1.226-7.814 1.226-3.347 0-6.56-.683-7.815-1.225-.33-.14-.524-.273-.55-.38l-.002-.004v-1.11c.09-.34 1.865-.82 4.336-1.097v.923c0 .068.007.127.02.182.11.463.642.465.884.465.27 0 .897 0 .905-.634V6.954c.383-.024.774-.04 1.173-.053h2.09c.34.01.674.025 1 .043v1.09c.002.647.636.647.907.647.246 0 .79-.002.89-.486.01-.05.016-.1.016-.16V7.09c2.56.275 4.418.767 4.51 1.114v1.11l-.003.006zm-.585-.73c-.038-.067-.11-.103-.187-.095-.015.002-.03.002-.047.01-.2.077-.457.157-.756.237-2.247.6-6.983 1.178-10.07.67-.11-.017-.206.055-.223.16-.018.107.054.207.16.224.843.138 1.808.197 2.813.197 3.046 0 6.456-.54 7.958-1.035.094-.03.182-.062.26-.092.1-.04.15-.15.11-.25-.004-.01-.01-.018-.016-.027zm-12.326.645c-.88-.132-1.67-.315-2.25-.483-.332-.096-.592-.187-.76-.26-.05-.023-.096-.044-.13-.064-.092-.054-.21-.022-.264.07-.038.067-.032.144.008.204.016.025.037.046.063.062.1.058.26.126.468.2.627.22 1.68.484 2.807.653.01.002.02.002.03.002.094 0 .176-.07.19-.166.018-.106-.055-.205-.16-.22zm3.654 4.44V25.03c0 .107.087.194.194.194.108 0 .194-.087.194-.194V13.676c0-.303.247-.55.55-.55s.55.247.55.55v11.352c0 .107.087.194.195.194s.193-.087.193-.194V13.676c0-.517-.42-.938-.938-.938s-.938.42-.938.938zm4.205 11.29h.01c.103 0 .19-.083.194-.186l.518-11.362c0-.303.247-.55.55-.55.303 0 .55.246.55.54l-.517 11.094c-.005.107.078.198.185.203.108.01.198-.078.203-.185l.518-11.103c0-.517-.42-.938-.937-.938s-.938.42-.938.928l-.518 11.352c-.005.108.078.198.185.204zm-7.8-12.486c-.518 0-.94.42-.94.946l.52 11.094c.004.107.093.194.2.185.108-.005.19-.096.186-.203l-.518-11.084c0-.304.247-.55.55-.55.303 0 .55.246.55.56l.518 11.35c.005.105.09.186.194.186h.01c.107-.006.19-.096.185-.203l-.518-11.342c0-.518-.42-.94-.938-.94z"/></svg>