<svg xmlns="http://www.w3.org/2000/svg" viewBox="0 0 32 32"><path d="M20.06 8.52c-.36-2.19-1.94-3.43-2.01-3.48-.61-.46-1.1-.68-1.49-.68-.41 0-.61.26-.66.41-.02.05-.02.11 0 .16l.93 2.53-.15 1.21-1.24.58-.94-.83c-.1-.26-.5-1.35-.7-1.93-.17-.48-.35-.71-.59-.75-.15-.02-.27.04-.34.12-1.98 1.72-.38 4.8-.28 4.99.02.04.17.36.43.77l-.15.07c-.38.18-.49.62-.28 1.06.14.3.38.47.65.47.1 0 .21-.03.32-.07l.48-.23c.07.07.15.14.22.2.42.36.58.58.54 1.54l-.37 10.78c0 .04-.09 1.02.49 1.67.32.35.77.53 1.35.53.54 0 .97-.17 1.27-.51.58-.64.48-1.65.48-1.67l-.35-10.78c0-.12 0-.24-.01-.35-.02-.77-.04-1.27 1.18-2.23 1.61-1.26 1.24-3.49 1.22-3.58zm-7.13 1.89c-.31-.68-1.15-2.88.23-4.14.04.05.11.17.19.39.23.66.73 1.99.73 1.99.01.04.04.07.07.1l.82.72-2.04.94zm.47 2.4c-.06.03-.11.04-.16.04-.17 0-.28-.16-.32-.26-.07-.16-.14-.46.11-.57l.2-.09c.16.23.34.48.55.71l-.38.17zm5.15-1.1c-1.41 1.11-1.39 1.82-1.36 2.63 0 .11.01.22.01.34l.35 10.81c0 .01.07.84-.35 1.31-.21.24-.51.35-.91.35-.43 0-.76-.12-.98-.37-.44-.48-.37-1.29-.37-1.31l.37-10.8c.04-1.01-.11-1.42-.71-1.93-.69-.58-1.22-1.48-1.44-1.9L17 9.05c.08-.04.13-.11.14-.19l.18-1.4c0-.04 0-.08-.01-.11l-.9-2.46c.03-.02.08-.04.16-.04.16 0 .52.08 1.19.58.01.01 1.5 1.18 1.82 3.17 0 .02.33 2.03-1.03 3.11zm-1.02-1.95c-.06-.08-.18-.1-.26-.04s-.1.18-.04.26l.72.96c.04.05.09.07.15.07.04 0 .08-.01.11-.04.08-.06.1-.18.04-.26l-.72-.95zm-.66.33c-.06-.08-.18-.1-.26-.04-.08.06-.1.18-.04.26l.72.96c.04.05.09.07.15.07.04 0 .08-.01.11-.04.08-.06.1-.18.04-.26l-.72-.95zm-.24 1.49c.04.05.09.07.15.07.04 0 .08-.01.11-.04.08-.06.1-.18.04-.26l-.72-.96c-.06-.08-.18-.1-.26-.04-.08.06-.1.18-.04.26l.72.97zm-.52.4c.04 0 .08-.01.11-.04.08-.06.1-.18.04-.26l-.72-.96c-.06-.08-.18-.1-.26-.04-.08.06-.1.18-.04.26l.72.96c.04.05.1.08.15.08zm.16 12.89c-.17 0-.34.05-.48.14-.41.26-.54.82-.27 1.23.16.26.45.41.75.41.17 0 .33-.05.48-.14.42-.26.54-.82.27-1.23-.16-.26-.45-.41-.75-.41zm.28 1.33c-.24.15-.57.08-.73-.16-.15-.25-.08-.57.16-.73.09-.05.18-.08.28-.08.18 0 .35.09.44.24.16.25.09.58-.15.73z"/></svg>