<svg xmlns="http://www.w3.org/2000/svg" viewBox="0 0 31.68 31.68"><path d="M24.66 13.12l1.49-4.38c.07-.2.02-.42-.13-.57-.11-.12-.25-.17-.4-.17-.06 0-.12 0-.18.02l-4.38 1.49c-.08.03-.15.07-.22.13l-4.21 4.21-3.1-3.1 4.54-4.54.39-.39-.39-.39-.49-.49c-.38-.38-.88-.59-1.42-.59-.35 0-.69.09-.99.26l-.03.02-.03.02-3.82 2.74c-.14-.03-.29-.05-.44-.05-.54 0-1.05.21-1.43.59l-.9.9-.9.9c-.49.49-.69 1.2-.54 1.87l-2.74 3.82-.02.03-.02.03c-.44.79-.31 1.78.33 2.41l.49.49.39.39.39-.39 4.47-4.47 3.1 3.1-5.76 5.76c-.22.22-.22.57 0 .79l2.89 2.89c.1.1.25.16.39.16.15 0 .29-.06.39-.16l5.76-5.76 5.26 5.26c.1.1.25.16.39.16.15 0 .29-.06.39-.16l2.36-2.36c.22-.22.22-.57 0-.79l-5.26-5.26 4.21-4.21c.1-.06.15-.13.17-.21zM5.53 17.97l-.49-.49c-.47-.47-.55-1.19-.24-1.74l2.9-4.04c-.21-.53-.1-1.15.32-1.58l.9-.9.9-.9c.28-.28.66-.43 1.03-.43.18 0 .37.03.54.1l4.04-2.9c.22-.13.47-.19.72-.19.37 0 .74.14 1.02.42l.49.49-4.54 4.54-1.4-1.4c-.1-.1-.25-.16-.39-.16-.15 0-.29.06-.39.16l-2.36 2.36c-.22.22-.22.57 0 .79l1.4 1.4-4.45 4.47zm7.55-2.16l.51-.51c.07-.07.07-.19 0-.26s-.19-.07-.26 0l-.51.51-1.04-1.04 1.16-1.16c.07-.07.07-.19 0-.26s-.19-.07-.26 0l-1.16 1.16-2.53-2.53 2.36-2.36 4.9 4.9-2.34 2.34-.83-.79zm-4.96 7.35l8.73-8.73 4.27-4.27c.32.34.15 1.06-.37 1.58L8.73 23.77l-.61-.61zm.82.82l12.03-12.03c.53-.53 1.26-.7 1.6-.36.16.16.21.4.15.69-.06.31-.24.63-.51.9L10.18 25.22l-1.24-1.24zm16.25-.79l-2.36 2.36-1.17-1.17.51-.51c.07-.07.07-.19 0-.26s-.19-.07-.26 0l-.51.51-1.04-1.04 1.16-1.16c.07-.07.07-.19 0-.26s-.19-.07-.26 0l-1.16 1.16-1.04-1.04.51-.51c.07-.07.07-.19 0-.26s-.19-.07-.26 0l-.51.51-1.22-1.22 2.36-2.36 5.25 5.25zm-14.17 2.86l-.62-.62L22.42 13.4c.27-.27.59-.45.9-.51.29-.06.54 0 .69.15L11.02 26.05zm12.25-13.46c-.12.02-.24.06-.36.11.05-.12.09-.24.11-.36.08-.39-.01-.74-.24-.97-.31-.31-.83-.34-1.33-.12.2-.47.19-.95-.06-1.26l2.46-.84c.09.26.24.51.45.72.21.21.46.36.72.45l-.84 2.47c-.22-.2-.54-.27-.91-.2z"/></svg>