<svg xmlns="http://www.w3.org/2000/svg" viewBox="0 0 32 32"><path d="M16 4.67C9.75 4.67 4.67 9.75 4.67 16S9.75 27.33 16 27.33 27.33 22.25 27.33 16 22.25 4.67 16 4.67zm0 22.11c-5.94 0-10.78-4.84-10.78-10.78S10.06 5.22 16 5.22 26.78 10.06 26.78 16c0 5.95-4.84 10.78-10.78 10.78zm.05-20.73c-5.45 0-9.88 4.43-9.88 9.88s4.43 9.88 9.88 9.88 9.88-4.43 9.88-9.88-4.44-9.88-9.88-9.88zm8.36 14.28l-.86-.5c-.17-.1-.39-.04-.49.13-.1.17-.04.4.13.49l.86.5c-.75 1.19-1.77 2.21-2.97 2.97l-.49-.86c-.1-.17-.32-.23-.49-.13-.17.1-.23.32-.13.49l.49.86c-1.22.65-2.59 1.03-4.05 1.09v-.99c0-.2-.16-.36-.36-.36-.2 0-.36.16-.36.36v.99c-1.46-.06-2.83-.44-4.05-1.09l.49-.86c.1-.17.04-.4-.13-.5-.17-.1-.4-.04-.49.13l-.49.86c-1.19-.75-2.21-1.77-2.96-2.96l.86-.49c.17-.1.23-.32.13-.49-.1-.17-.32-.23-.49-.13l-.86.49c-.64-1.22-1.03-2.59-1.09-4.05h.99c.2 0 .36-.16.36-.36 0-.2-.16-.36-.36-.36H6.59c.05-1.46.44-2.83 1.09-4.05l.86.5c.06.03.12.05.18.05.12 0 .25-.06.31-.18.1-.17.04-.4-.13-.49l-.86-.49C8.8 9.71 9.81 8.69 11 7.93l.49.86c.07.12.19.18.31.18.06 0 .12-.02.18-.05.17-.1.23-.32.13-.49l-.5-.86c1.22-.64 2.59-1.03 4.05-1.09v.99c0 .2.16.36.36.36.2 0 .36-.16.36-.36v-1c1.46.05 2.83.44 4.05 1.09l-.5.86c-.1.17-.04.4.13.49.06.03.12.05.18.05.12 0 .25-.06.31-.18l.5-.86c1.19.76 2.21 1.77 2.97 2.97l-.86.49c-.17.1-.23.32-.13.49.07.12.19.18.31.18.06 0 .12-.02.18-.05l.86-.49c.65 1.22 1.03 2.59 1.09 4.05h-.99c-.2 0-.36.16-.36.36s.16.36.36.36h.99c-.03 1.47-.41 2.84-1.06 4.05zm-4.77-2.66l-3.11-1.83v-5.5c0-.31-.25-.55-.55-.55s-.55.25-.55.55v5.82c0 .23.14.43.35.51l3.31 1.95c.09.05.18.08.28.08.19 0 .37-.1.48-.27.14-.26.06-.6-.21-.76z"/></svg>