<svg data-name="Layer 1" xmlns="http://www.w3.org/2000/svg" viewBox="0 0 36 36"><title>Icon-Red_Hat-Graph_exponential_up-A-Black-RGB</title><path d="M10.97 9.47a.745.745 0 0 0-.22.53v10.728a.75.75 0 0 0 1.5 0V10a.75.75 0 0 0-1.28-.53zM16.97 9.47a.747.747 0 0 0-.22.53v9a.75.75 0 0 0 1.5 0v-9a.75.75 0 0 0-1.28-.53zM22.97 9.47a.745.745 0 0 0-.22.53v4.9a.75.75 0 0 0 1.5 0V10a.75.75 0 0 0-1.28-.53z"/><path d="M6.5 23.3a.75.75 0 0 0 .75-.75V7.75h20.5v1.267a.75.75 0 0 0 1.5 0V7a.75.75 0 0 0-.75-.75h-22a.75.75 0 0 0-.75.75v15.55a.75.75 0 0 0 .75.75zM28.5 17.3a.75.75 0 0 0-.75.75v10.2H7.25v-.7a.75.75 0 0 0-1.5 0V29a.75.75 0 0 0 .75.75h22a.75.75 0 0 0 .75-.75V18.05a.75.75 0 0 0-.75-.75z"/><path d="M31.21 10.4a.75.75 0 0 0-1.383-.088 25.4 25.4 0 0 1-3.355 5.145 24.774 24.774 0 0 1-6.114 5.238 24.843 24.843 0 0 1-8.51 3.216 25.28 25.28 0 0 1-6.293.346.737.737 0 0 0-.544.18.75.75 0 0 0 .435 1.316q.4.03.864.048c.307.012.636.018.983.018a27.216 27.216 0 0 0 6.24-.728 26.263 26.263 0 0 0 7.6-3.113 26.283 26.283 0 0 0 6.482-5.552 26.816 26.816 0 0 0 3.555-5.453.743.743 0 0 0 .04-.572z"/></svg>