<svg xmlns="http://www.w3.org/2000/svg" viewBox="0 0 32 32"><path d="M15.53 12.92c1.78 0 3.23-1.45 3.23-3.22s-1.45-3.23-3.23-3.23S12.3 7.92 12.3 9.7s1.45 3.23 3.23 3.22zm0-5.83c1.44 0 2.61 1.17 2.61 2.61s-1.17 2.61-2.61 2.61-2.61-1.17-2.61-2.61 1.17-2.61 2.61-2.61zm7.28 10.66c-1.48-3.5-2.77-3.8-6.37-3.8h-1.83c-3.47 0-5.32 1.5-6 4.87-.75 4.39.43 5.66 2.56 6.3.03.01.73.27 2.99.38.06.01.23.03.46.03.43 0 1.04-.07 1.47-.44.31-.27.47-.64.47-1.11 0-.05-.01-.49-.4-.88-.38-.37-.97-.56-1.76-.53-.01 0-.86.01-1.76-.23l1.57-.87c.05-.03.09-.08.11-.14.02-.06.01-.12-.02-.18-.27-.46-.92-1.79-.7-2.43.05-.14.14-.23.27-.28 0 0 .17-.06.34.03.16.08.27.28.34.54 0 .03.37 2.79 4.14 2.99-.14.09-.27.18-.4.26-1.23.77-.87 1.68-.74 1.92.17.38.82.96 2.12.49.75-.27 2.03-.92 3.17-1.88 1.73-1.44.04-4.91-.03-5.04zm-.36 4.58c-1.15.97-2.42 1.57-2.99 1.77-1.07.38-1.35-.15-1.37-.18-.21-.4-.04-.78.52-1.13.7-.44 1.58-1.06 1.59-1.06l.72-.48c.14-.09.18-.28.09-.42-.09-.14-.28-.18-.42-.09l-.73.49s-.2.14-.49.34c-.31.01-.61 0-.88-.02.76-.25 1.31-.96 1.31-1.79 0-1.04-.84-1.89-1.89-1.89-1.04 0-1.89.85-1.89 1.89 0 .46.17.89.45 1.22-1.29-.75-1.46-1.93-1.47-2.02-.1-.43-.29-.72-.57-.87-.35-.18-.68-.07-.72-.06-.26.1-.45.29-.55.56-.28.79.34 2.09.62 2.61l-1.73.96c-.24-.1-.47-.22-.67-.36-.14-.1-.33-.07-.43.07-.1.14-.06.33.07.43 1.31.93 3.31.9 3.39.9 1.46-.04 1.53.72 1.54.8 0 .28-.08.49-.26.64-.4.34-1.19.31-1.46.26h-.03c-2.14-.1-2.82-.34-2.84-.35-1.62-.48-2.9-1.24-2.15-5.6.62-3.06 2.23-4.36 5.4-4.36h1.83c3.54 0 4.5.32 5.82 3.44.01.01 1.55 3.16.19 4.3zm-5.96-2.59c0-.79.64-1.42 1.42-1.42s1.42.64 1.42 1.42-.64 1.42-1.42 1.42c-.78 0-1.42-.64-1.42-1.42z"/></svg>