<svg xmlns="http://www.w3.org/2000/svg" width="32" height="32" viewBox="0 0 32 32"><path d="M10.247 9.773c.02.018.05.022.075.01l1.265-.57c.022-.008.037-.03.04-.052.004-.023-.005-.046-.023-.062l-.238-.205c1.567-1.497 3.535-2.32 5.57-2.32 2.77 0 5.41 1.548 7.06 4.14.042.065.112.1.185.1.04 0 .082-.01.118-.033.102-.065.132-.2.067-.302-1.73-2.718-4.51-4.342-7.43-4.342-2.16 0-4.246.876-5.9 2.47l-.303-.263c-.018-.016-.043-.02-.065-.015-.023.007-.04.025-.048.047L10.226 9.7c-.01.025 0 .053.02.072zM23.89 23.067c-.024-.014-.053-.014-.076.002l-1.15.777c-.02.013-.03.035-.03.06s.014.045.034.057l.317.19c-1.64 1.817-3.774 2.818-6.048 2.818-2.494 0-4.877-1.24-6.542-3.398-.073-.095-.21-.114-.306-.04-.097.074-.115.21-.04.306 1.746 2.268 4.257 3.57 6.885 3.57 2.43 0 4.702-1.076 6.43-3.025l.29.175c.02.013.047.014.068.003.022-.01.035-.03.04-.054l.16-1.374c.002-.026-.01-.053-.035-.067zm-14.657-2.25c-.16 0-.31.042-.442.11.227-.254.41-.546.535-.867.272.553.84.936 1.495.936.92 0 1.666-.748 1.666-1.666l-.003-.066c.122.054.258.086.4.086.547 0 .992-.445.992-.992 0-.443-.294-.814-.695-.942.788-.522 1.31-1.417 1.31-2.43 0-1.335-.902-2.46-2.126-2.805-.046-.877-.773-1.578-1.662-1.578-.92 0-1.666.748-1.666 1.666 0 .33.098.637.264.897-.335.418-.558.93-.62 1.488-.13-.237-.312-.44-.534-.59.5-.05.89-.47.89-.982 0-.546-.445-.99-.992-.99s-.992.444-.992.99c0 .275.11.522.29.702-.044-.004-.087-.006-.132-.006-.473 0-.9.2-1.204.518.122-.232.193-.495.193-.775 0-.92-.75-1.668-1.667-1.668s-1.666.747-1.666 1.667c0 .694.43 1.292 1.036 1.54-.32.166-.54.495-.54.88 0 .545.445.99.992.99.082 0 .16-.01.235-.03-.108.104-.207.217-.298.337-.167-.057-.346-.09-.533-.09-.92 0-1.667.748-1.667 1.667 0 .808.578 1.482 1.34 1.634-.222.182-.368.456-.368.766 0 .547.445.992.992.992.472 0 .866-.332.966-.774.458.3 1.005.476 1.592.476.666 0 1.278-.227 1.77-.604-.09.15-.143.32-.143.505 0 .546.445.99.992.99.547 0 .992-.444.992-.99s-.446-.994-.993-.994zm1.587-.258c-.678 0-1.23-.553-1.23-1.23s.552-1.23 1.23-1.23c.678 0 1.23.55 1.23 1.23s-.552 1.23-1.23 1.23zm.846-2.664c.123-.004.244-.016.363-.035-.043.072-.075.15-.098.23-.082-.073-.17-.138-.266-.194zm1.772.462c0 .306-.25.555-.555.555s-.555-.25-.555-.555c0-.306.25-.555.555-.555s.555.25.555.555zm-2.737-7.32c.68 0 1.23.552 1.23 1.23s-.55 1.23-1.23 1.23c-.677 0-1.23-.552-1.23-1.23s.553-1.23 1.23-1.23zM9.59 13.505c.295.266.685.43 1.113.43.798 0 1.465-.563 1.628-1.31 1 .32 1.724 1.256 1.724 2.36 0 1.367-1.112 2.48-2.48 2.48-1.366 0-2.478-1.114-2.478-2.48 0-.555.185-1.066.494-1.48zm-.78 2.402c.274.816.898 1.472 1.694 1.787-.428.083-.797.33-1.04.674-.154-.698-.558-1.3-1.113-1.714.213-.2.374-.457.458-.747zm-.765-3.38c.306 0 .555.248.555.554s-.25.556-.555.556-.555-.25-.555-.555.25-.554.555-.554zM7.21 14.21c.678 0 1.23.552 1.23 1.23 0 .678-.55 1.23-1.23 1.23-.678 0-1.23-.55-1.23-1.23 0-.678.552-1.23 1.23-1.23zm-3.908-.694c0-.678.55-1.23 1.23-1.23.678 0 1.23.552 1.23 1.23s-.552 1.23-1.23 1.23c-.678 0-1.23-.552-1.23-1.23zm2.432 2.694c-.186.06-.363.136-.53.23.088-.148.142-.32.142-.504 0-.332-.165-.624-.415-.804.313-.077.59-.24.807-.467-.122.232-.193.495-.193.775s.07.54.19.77zm-1.38.28c-.306 0-.555-.248-.555-.554 0-.306.248-.555.554-.555.306 0 .555.25.555.555 0 .306-.25.555-.556.555zM2.53 18.815c0-.678.55-1.23 1.23-1.23.677 0 1.23.552 1.23 1.23 0 .678-.553 1.23-1.23 1.23-.68 0-1.23-.552-1.23-1.23zm1.526 2.955c-.306 0-.555-.25-.555-.556 0-.306.25-.555.556-.555s.555.248.555.554c0 .306-.25.555-.554.555zm2.558-.3c-.628 0-1.2-.236-1.638-.622-.083-.21-.236-.38-.43-.49-.012-.02-.022-.04-.035-.06.542-.274.915-.836.915-1.484 0-.574-.292-1.082-.736-1.382.33-.41.79-.708 1.316-.84.304.317.73.517 1.204.517.276 0 .535-.07.764-.188.674.443 1.12 1.206 1.12 2.07 0 1.368-1.113 2.48-2.48 2.48zm2.62.894c-.307 0-.556-.25-.556-.555s.25-.556.555-.556c.306 0 .555.25.555.555s-.25.554-.555.554zM24.99 11.65c-2.824 0-5.12 2.298-5.12 5.122s2.296 5.122 5.12 5.122c2.824 0 5.122-2.298 5.122-5.122s-2.298-5.122-5.122-5.122zm0 9.66c-2.503 0-4.54-2.036-4.54-4.538 0-2.503 2.037-4.54 4.54-4.54s4.54 2.037 4.54 4.54c0 2.502-2.037 4.54-4.54 4.54z"/></svg>