<svg xmlns="http://www.w3.org/2000/svg" viewBox="0 0 31.68 31.68"><path d="M13.44 11.62c1.94 0 3.52-1.58 3.52-3.52s-1.58-3.52-3.52-3.52S9.92 6.16 9.92 8.1s1.58 3.52 3.52 3.52zm0-6.53c1.66 0 3.01 1.35 3.01 3.01s-1.35 3.01-3.01 3.01-3.01-1.35-3.01-3.01c0-1.66 1.35-3.01 3.01-3.01zm1.69 7.21h-3.37c-4.9 0-5.19 3.59-5.35 5.53l-.25 3.12v.02c0 1.77 1.03 2.67 2.17 3.51l.29.21-.08 1.23.19.16c.45.38 1.66 1.02 4.71 1.02 2.96 0 4.19-.61 4.67-.98l.21-.16-.07-1.26.29-.22c1.2-.88 2.19-1.75 2.19-3.52l-.25-3.14c-.19-1.93-.55-5.52-5.35-5.52zm-.08.51c-.26.89-1.19 1.4-2.07 1.14-.55-.16-.98-.59-1.14-1.14h3.21zM8.63 24.06c-1.17-.86-1.96-1.61-1.96-3.1l.14-1.74h2.17l-.35 4.84zm9.16 1.67c-.37.28-1.47.87-4.35.87-2.99 0-4.06-.63-4.38-.9v-.06l.49-8.26c0-.12-.1-.22-.22-.22s-.22.1-.22.22l-.1 1.36H6.84l.07-.87c.18-2.26.64-4.91 4.49-5.05.26 1.12 1.39 1.82 2.51 1.56.77-.18 1.38-.79 1.56-1.56 3.85.16 4.29 2.93 4.49 5.05l.07.87h-2.19l-.1-1.36c0-.12-.1-.22-.22-.22s-.22.1-.22.22l.49 8.35zm.45-1.65l-.35-4.86h2.2l.14 1.74c-.01 1.52-.82 2.25-1.99 3.12zm7.14-9.06c-.12-.07-.27-.03-.34.09l-.4.67h-2.17c-.1 0-.18.08-.18.18v2.47c0 .1.08.18.18.18h2.47c.1 0 .18-.08.18-.18v-2.47-.03l.33-.57c.09-.12.05-.27-.07-.34zm-.61 3.22h-2.1v-2.1h1.76l-.7 1.18-.23-.43c-.07-.11-.22-.15-.34-.08-.1.07-.14.2-.09.31l.43.81.01.02.01.02c.02.02.04.04.06.05h.02c.03.01.06.02.1.02h.08l.03-.01c.03-.01.05-.03.07-.05l.01-.02.01-.02.84-1.41.03 1.71zm-2.29-4.42h2.47c.1 0 .18-.08.18-.18v-2.46-.03l.34-.57c.08-.11.06-.26-.05-.34-.11-.08-.26-.06-.34.05-.01.01-.02.03-.03.04l-.4.67h-2.18c-.1 0-.18.08-.18.18v2.45c-.01.1.07.19.17.19.01.01.02.01.02 0zm.18-2.47h1.76l-.7 1.18-.22-.43c-.07-.11-.22-.15-.34-.08-.1.07-.14.2-.09.31l.43.81.01.02.01.02c.02.02.04.04.06.05h.02c.03.01.06.02.1.02h.08l.03-.01c.03-.01.05-.03.07-.05l.01-.02.01-.02.84-1.41v1.72h-2.1l.02-2.11zm-9.55-3.43c0-.05-.01-.09-.01-.14.07-.11.19-.18.32-.17h.06c.13-.01.25.06.32.18-.01.04-.01.09-.01.13-.01.63.49 1.14 1.12 1.15.63.01 1.14-.49 1.15-1.12.01-.63-.49-1.14-1.12-1.15-.44-.01-.84.22-1.04.6-.13-.09-.28-.14-.44-.14h-.06c-.16 0-.31.05-.43.14-.29-.54-.96-.75-1.5-.46s-.75.96-.46 1.5.96.75 1.5.46c.37-.19.6-.57.6-.98zm1.79-.71c.39 0 .7.32.7.7 0 .39-.32.7-.7.7-.39 0-.7-.32-.7-.7 0-.38.31-.69.7-.7zm-3.62.71c0-.39.32-.7.7-.7.39 0 .7.32.7.7s-.32.7-.7.7c-.39.01-.7-.31-.7-.7zm14.1 11.88c-.12-.07-.27-.03-.34.09l-.4.67h-2.17c-.1 0-.18.08-.18.18v2.47c0 .1.08.18.18.18h2.47c.1 0 .18-.08.18-.18v-2.47-.03l.34-.57c.08-.12.04-.27-.08-.34zm-.61 3.23h-2.1v-2.1h1.76l-.7 1.18-.23-.43c-.07-.11-.22-.15-.34-.08-.1.07-.14.2-.09.31l.43.81.01.02.01.02c.02.02.04.04.06.05h.02c.03.01.06.02.1.02h.08l.03-.01c.03-.01.05-.03.07-.05l.01-.02.02-.03.84-1.41.02 1.72z"/></svg>