<svg xmlns="http://www.w3.org/2000/svg" width="32" height="32" viewBox="0 0 32 32"><path d="M21.286 4.62H10.714c-.656 0-1.19.534-1.19 1.19v20.38c0 .656.534 1.19 1.19 1.19h10.572c.656 0 1.19-.534 1.19-1.19V5.81c0-.656-.534-1.19-1.19-1.19zm.576 21.57c0 .318-.258.577-.576.577H10.714c-.318 0-.577-.26-.577-.577v-2.605H21.86v2.605zm0-2.91H10.138V8.72h3.325V9c0 .57.465 1.036 1.035 1.036h3.96l1.11 1.11c.03.03.07.046.11.046.02 0 .04-.004.058-.012.057-.024.095-.08.095-.142v-1.002h.412c.57 0 1.036-.465 1.036-1.036v-.28h.583v14.56zM13.77 9v-.28h7.203V9c0 .402-.327.73-.73.73h-.565c-.085 0-.153.07-.153.153v.786l-.894-.895c-.028-.03-.067-.045-.108-.045H14.5c-.403 0-.73-.327-.73-.73zm8.092-.586H10.138V5.81c0-.318.26-.577.577-.577h10.572c.318 0 .576.26.576.577v2.604zM17.04 6.588H14.96c-.127 0-.23.103-.23.23s.103.23.23.23h2.077c.125 0 .23-.103.23-.23s-.104-.23-.23-.23zm-3.33.013c-.058.06-.092.135-.092.215 0 .083.034.162.092.218.055.058.135.09.214.09.083 0 .162-.032.218-.09.058-.055.09-.134.09-.218 0-.08-.032-.16-.09-.214-.11-.112-.316-.115-.432 0zm-1.953 9.915h.41v1.002c0 .062.04.118.096.142.02.007.04.01.058.01.04 0 .08-.015.11-.044l1.11-1.11h3.96c.572 0 1.037-.466 1.037-1.037v-3.274c0-.57-.465-1.036-1.036-1.036h-5.743c-.57 0-1.036.465-1.036 1.036v3.273c0 .57.466 1.035 1.037 1.035zm-.73-4.31c0-.4.328-.73.73-.73h5.745c.402 0 .73.328.73.73v3.274c0 .4-.328.73-.73.73H13.48c-.042 0-.08.015-.11.044l-.894.895v-.787c0-.085-.07-.153-.153-.153h-.565c-.402 0-.73-.327-.73-.73v-3.273zm3.602 3.435c.99 0 1.797-.806 1.797-1.797 0-.99-.807-1.798-1.798-1.798-.992 0-1.798.806-1.798 1.798 0 .99.806 1.797 1.797 1.797zm0-3.135c.737 0 1.337.6 1.337 1.338 0 .737-.6 1.337-1.338 1.337-.738 0-1.338-.6-1.338-1.337 0-.738.6-1.338 1.337-1.338zm-.45 2.2c.034.016.07.025.106.025.047 0 .094-.014.134-.043l.92-.657c.06-.043.095-.113.095-.187s-.036-.144-.096-.187L14.42 13c-.07-.05-.162-.058-.24-.02s-.124.12-.124.205V14.5c0 .086.048.164.124.204zm-2.564 3.824h-.383c-.127 0-.23.102-.23.23s.103.23.23.23h.383c.127 0 .23-.104.23-.23s-.103-.23-.23-.23zm3.788.46c.127 0 .23-.104.23-.23s-.103-.23-.23-.23h-.702c-.127 0-.23.102-.23.23s.103.23.23.23h.702zm1.894 0c.127 0 .23-.104.23-.23s-.103-.23-.23-.23h-.702c-.127 0-.23.102-.23.23s.103.23.23.23h.702zm.963-.23c0 .126.104.23.23.23h.703c.127 0 .23-.104.23-.23s-.103-.23-.23-.23h-.702c-.126 0-.23.102-.23.23zm-4.75.23c.127 0 .23-.104.23-.23s-.103-.23-.23-.23h-.702c-.127 0-.23.102-.23.23s.103.23.23.23h.702zm7.258-.46h-.383c-.127 0-.23.102-.23.23s.103.23.23.23h.383c.127 0 .23-.104.23-.23s-.103-.23-.23-.23zm-8.613 1.156c-.127 0-.23.103-.23.23s.103.23.23.23h.383c.127 0 .23-.103.23-.23s-.103-.23-.23-.23h-.383zm6.106.46c.128 0 .23-.103.23-.23s-.102-.23-.23-.23h-.706c-.127 0-.23.103-.23.23s.103.23.23.23h.707zm-1.906 0c.127 0 .23-.103.23-.23s-.103-.23-.23-.23h-.707c-.127 0-.23.103-.23.23s.103.23.23.23h.707zm-2.615 0h.705c.127 0 .23-.103.23-.23s-.103-.23-.23-.23h-.706c-.128 0-.23.103-.23.23s.102.23.23.23zm6.105-.46h-.383c-.127 0-.23.103-.23.23s.103.23.23.23h.383c.127 0 .23-.103.23-.23s-.103-.23-.23-.23zm-7.307 2.316h-.383c-.127 0-.23.103-.23.23s.103.23.23.23h.383c.127 0 .23-.103.23-.23s-.103-.23-.23-.23zm5.723 0h-4.52c-.128 0-.23.103-.23.23s.102.23.23.23h4.52c.128 0 .23-.103.23-.23s-.102-.23-.23-.23zm1.585 0h-.383c-.127 0-.23.103-.23.23s.103.23.23.23h.383c.127 0 .23-.103.23-.23s-.103-.23-.23-.23zm-8.23-1.158h-.382c-.127 0-.23.103-.23.23s.103.23.23.23h.383c.127 0 .23-.103.23-.23s-.103-.23-.23-.23zm2.124.23c0-.127-.104-.23-.23-.23h-.703c-.127 0-.23.103-.23.23s.103.23.23.23h.702c.126 0 .23-.103.23-.23zm5.682 0c0-.127-.103-.23-.23-.23h-.702c-.127 0-.23.103-.23.23s.103.23.23.23h.702c.127 0 .23-.103.23-.23zm-4.72.23h.702c.127 0 .23-.103.23-.23s-.103-.23-.23-.23h-.702c-.127 0-.23.103-.23.23s.103.23.23.23zm1.895 0h.702c.126 0 .23-.103.23-.23s-.104-.23-.23-.23h-.703c-.127 0-.23.103-.23.23s.103.23.23.23zm4.17-.46h-.382c-.127 0-.23.103-.23.23s.103.23.23.23h.383c.127 0 .23-.103.23-.23s-.103-.23-.23-.23zm-5.363 5.394h1.19c.445 0 .807-.362.807-.806v-.582c0-.444-.36-.806-.805-.806h-1.19c-.445 0-.807.362-.807.806v.582c0 .444.362.806.806.806zm-.346-1.39c0-.19.155-.345.347-.345h1.19c.192 0 .348.156.348.346v.58c0 .192-.155.348-.347.348h-1.19c-.192 0-.348-.156-.348-.347v-.58z"/></svg>