<svg xmlns="http://www.w3.org/2000/svg" viewBox="0 0 32 32"><path d="M24.54 6.27H7.46c-.66 0-1.19.53-1.19 1.19v17.08c0 .66.53 1.19 1.19 1.19h17.08c.66 0 1.19-.53 1.19-1.19V7.46c0-.66-.53-1.19-1.19-1.19zm-1.57.61h1.57c.32 0 .58.26.58.58v.85c-.11 0-.2.07-.23.18l-.11.54h-1.81V6.88zm2.15 2.8v2.76h-.57l.57-2.76zm-2.15-.35h1.75l-.64 3.1h-1.11v-3.1zm1.05 3.41l-.16.78-.32.13c-.05.02-.09.05-.12.09l-.44.52v-1.51l1.04-.01zm-.99 2.39l.65-.76-.13.65-.59.63-.49-.23c-.1-.05-.21-.02-.28.07l-.84 1.08-.06-.34c.02-.02.05-.04.06-.06l.66-1.92.75.99c.1.01.2-.03.27-.11zm-.36-.53l-.68-1.01c-.11-.02-.22.03-.29.12l-.59 1.57-.48-2.55h2.05l-.01 1.87zm-2.51-1.86l.53 2.8-.37-.11-.85-.2c-.06-.01-.12-.01-.18.01l.36-2.5h.51zm-.46-.3l.17-1.2.23 1.2h-.4zm-3.55-5.56h6.51v2.14h-6.51V6.88zm0 2.45h6.51v3.1h-2.1l-.5-2.64c-.02-.11-.12-.19-.23-.19-.11 0-.21.09-.22.2l-.38 2.63h-3.08v-3.1zm.98 8.64l.68-1.75.55.73c.06.05.14.07.21.06l-.07.46-.38-.36c-.06-.05-.14-.08-.21-.06-.08.02-.14.08-.16.15l-.47 1.42-.23-.57c.03-.01.06-.04.08-.08zm-.38-.65l-.48-1.17h.94l-.46 1.17zm1.74-1.04l-.6-.77c-.07-.06-.17-.08-.26-.06s-.17.08-.21.17l-.09.23h-1.18v-3.1h3.03l-.46 3.2-.23.33zm-2.41.62l.12.3-.07-.03c-.04-.02-.08-.02-.12-.03l.07-.24zM9.33 6.88h6.52v2.14H9.33V6.88zm0 2.45h6.52v3.1H9.33v-3.1zm0 3.41h6.52v3.1H10.4l-.12-.76c-.02-.11-.11-.2-.23-.19-.11 0-.21.09-.22.2l-.09.75h-.4l-.01-3.1zm5.76 5.1l-.68-.26c-.14-.05-.29 0-.37.12l-.72 1.17-.62-.2c-.11-.04-.23-.01-.31.07l-.74.73-.63-.12-.12-.22-.46-2.98h5.37l-.4 1.4-.32.29zm.05.66l-.17.58-.39-.21c-.06-.03-.14-.04-.2-.01s-.11.09-.13.16l-.76 3.45-.64-2.39c-.02-.08-.09-.15-.17-.17-.08-.02-.17.01-.23.08l-.6.7-.73-.14-.09-.58.65.12c.1.02.2-.01.27-.08l.72-.71.67.22c.13.04.28-.01.36-.13l.72-1.16.61.23c.04.03.07.04.11.04zm-4.89-.58l-.02-.05c-.08-.06-.19-.07-.28-.03l.13-1.05.17 1.13zm-.56-1.77l-.32 2.56-.04.07v-2.62h.36v-.01zm-2.81 3.11v-3.1h2.14v3.09l-.01.01H6.88zm1.89.3l-.62.88-.7.26h-.57v-1.14h1.89zM6.88 7.46c0-.32.26-.58.58-.58h1.57v2.14H6.88V7.46zm0 1.87h2.14v3.1H6.88v-3.1zm0 3.41h2.14v3.1H6.88v-3.1zm0 8.58h.62c.04 0 .07-.01.11-.02l.85-.31c.06-.02.11-.06.14-.11l.61-.87-.08.67-.5.8-1.17.36c-.06.02-.12.07-.14.13l-.43.99-.01-1.64zm17.66 3.8H7.46c-.32 0-.58-.26-.58-.58v-.48c.02-.02.04-.04.05-.07l.76-1.74 1.15-.35c.05-.02.1-.05.13-.1l.58-.92c.02-.03.03-.06.03-.09l.23-1.87.22-.44.46.93.21 1.39c.02.1.09.17.19.19l1.02.19c.08.02.17-.01.22-.08l.4-.47.77 2.87c.03.1.12.17.23.17.11 0 .2-.08.22-.18l.9-4.07.37.2c.06.03.13.04.2.01.06-.03.11-.08.13-.15l.4-1.4.31-.28.49.23.55 1.35c.04.09.12.14.22.14s.18-.07.21-.16l.55-1.67.44.41c.06.06.15.08.23.05s.14-.1.15-.18l.22-1.54.41-.56.63.15.65.19.18.93c.02.09.08.16.17.18.09.02.18-.01.24-.08l1.04-1.34.48.23c.09.04.2.02.27-.05l.75-.81c.03-.03.05-.07.06-.11l.23-1.13.34-.13h.56v10.64c-.01.32-.27.58-.59.58zm.58-11.83h-.62c-.04 0-.08.01-.11.02l-.02.01.12-.58h.63v.55z"/></svg>