<svg xmlns="http://www.w3.org/2000/svg" viewBox="0 0 31.68 31.68"><path d="M25.96 7.28c-.04-.13-.16-.23-.3-.23l-12.8-.44c-.03 0-.05 0-.07.01l-4.86.9v.01c-.06.01-.12.04-.17.09-.07.06-.1.16-.1.25l.21 4.95-1.97.85c-.04.02-.07.03-.1.06-.07.07-.11.17-.1.26l.63 8.08c.01.15.12.27.26.3l1.95.4 14.53 3.01c.02 0 .04.01.07.01.07 0 .14-.02.2-.07.05-.04.09-.1.11-.16h.01l1.6-4.99c.01-.03.01-.05.02-.08l.9-13.09c-.01-.04-.01-.08-.02-.12zm-13.09-.01l11.82.41-.76.57-13.07-.6 2.01-.38zm-4.53.93l4.2.19.09 4.95-2.16-.2c-.14-.01-.26.09-.27.22-.01.14.09.26.22.27l2.21.2.02 1.08-2.18-.23c-.14-.01-.26.08-.27.22-.01.14.08.26.22.27l2.24.24.06 3.24-3.82 3.12L8.34 8.2zm15.06 6.12l-5.25-.48v-1.07h-.01c0-.01.01-.02 0-.04-.02-.07-.07-.12-.15-.13l-2.2-.22c-.04 0-.07 0-.1.02l-1.49.94c-.05.03-.07.08-.07.13l-.83-.07-.1-4.98 10.48.48-.28 5.42zm-.29 5.58l-9.71-1.38-.06-3.03.8.08.01 1.33c0 .08.06.15.15.16l.83.1.2.76c0 .02.02.03.03.03l.36.06h.01c.01 0 .02 0 .03-.01l.35-.3.01-.01.19-.38.22.03h.02c.04 0 .07-.01.1-.03l1.44-1.08c.04-.03.07-.08.07-.13v-.15l5.15.47-.2 3.48zm-6.41-3.06l-.03-3.1 1.15-.68-.01 2.95-1.11.83zm-.24-3.36l-1.65-.12 1.02-.64 1.65.16-1.02.6zm-.12.32l.03 3.18-1.89-.22-.02-3.1 1.88.14zm-3.03.1l.83.08.01 1.1-.81-.09-.03-1.09zm-.14 5.26l9.91 1.41-.23 4.49-13.48-2.8 3.8-3.1zm10.15-3.24l-5.17-.47.01-1.1 5.23.48-.07 1.09zm-15.4-2.08l-.61-.07.6-.26.01.33zm-1.52.5l1.55.17.32 7.53-1.3-.26-.57-7.44zm18.02 6.07l-.81 2.52.74-14.17.91-.68-.84 12.33z"/></svg>