<svg xmlns="http://www.w3.org/2000/svg" viewBox="0 0 32 32"><path d="M22.24 22.64h-.65c-2.57 0-3.34-1.49-3.56-2.15H6.9c-.67 0-1.21-.54-1.21-1.21v-8.71c0-.67.54-1.21 1.21-1.21h18.2c.67 0 1.21.54 1.21 1.21v8.71c0 .67-.54 1.21-1.21 1.21h-3.17c-.19.12-.31.27-.35.46-.12.51.29 1.14.3 1.15l.36.54zM6.9 10.05c-.29 0-.52.23-.52.52v8.71c0 .29.23.52.52.52h11.7l.04.3c.01.07.25 1.59 2.38 1.82-.12-.32-.21-.73-.11-1.13.1-.4.35-.72.76-.94l.08-.04h3.35c.29 0 .52-.23.52-.52v-8.71c0-.29-.23-.52-.52-.52l-18.2-.01z"/></svg>