<svg xmlns="http://www.w3.org/2000/svg" viewBox="0 0 31.68 31.68"><path d="M25.76 14.34c-.06-.09-.16-.14-.27-.14h-3.07v-2.59c0-.08-.04-.17-.1-.22-.06-.06-.14-.1-.23-.1h-8.18c-.09-.42-.17-.84-.26-1.26-.03-.15-.16-.26-.31-.26H9.57c-.15 0-.28.11-.31.26-.09.43-.18.85-.26 1.27H7.64c-.09 0-.17.04-.22.1-.06.06-.1.14-.1.22v9.96l.01.01c0 .04.01.07.02.1.01.01.01.01.01.02.01.01.01.02.02.03.01.02.02.03.03.05l.01.01v.01c.02.02.06.04.09.06.01 0 .02.01.02.01.04.01.07.02.11.02H22.1c.04 0 .08-.01.11-.02.01 0 .02-.01.03-.01.02-.02.05-.04.07-.05 0 0 .01 0 .01-.01h.01c.02-.02.04-.06.05-.09 1.13-2.35 2.26-4.7 3.39-7.06.05-.1.04-.22-.01-.32zm-17.03-.9c-.09 0-.16.07-.16.16s.07.16.16.16h13.05v.42H8.73c-.09 0-.16.07-.16.16s.07.15.16.15h1.95c-.06.14-.13.28-.2.42H8.73c-.09 0-.16.07-.16.16s.07.16.16.16h1.61l-.2.42h-1.4c-.09 0-.16.07-.16.16 0 .08.07.16.16.16H10c-.07.13-.14.28-.2.41H8.73c-.09 0-.16.07-.16.16s.07.16.16.16h.9c-.06.14-.13.28-.2.42h-.7c-.09 0-.16.07-.16.16s.07.15.16.15h.55l-.2.42h-.35c-.09 0-.16.07-.16.16s.07.16.16.16h.2c-.06.13-.13.28-.2.41-.09 0-.16.07-.16.16 0 .04.01.07.04.1-.22.45-.43.9-.65 1.35v-8.24h1.3c.16 0 .28-.11.31-.25.09-.42.18-.84.26-1.26h3.25c.09.42.17.84.26 1.26.03.14.16.25.31.25h8.13v1.51m.12 7.8H8.14l3.09-6.42h13.76c-1.04 2.14-2.06 4.28-3.09 6.42zm-2.94-.45h2.48c.06 0 .12-.04.14-.09l.79-1.63c.04-.09 0-.18-.07-.21-.07-.04-.18-.01-.22.07-.25.51-.49 1.03-.74 1.54h-2.38c-.09 0-.16.07-.16.16 0 .08.07.16.16.16z"/></svg>