<svg data-name="Layer 1" xmlns="http://www.w3.org/2000/svg" viewBox="0 0 36 36"><title>Icon-Red_Hat-Cloud_Migration-A-Black-RGB</title><path d="M32.15 16.55a4.67 4.67 0 0 0-3.94-4.61A8.58 8.58 0 0 0 12.45 8h-.62a6.6 6.6 0 0 0-5.59 10.11 6.63 6.63 0 0 0 3.35 12.35h15.65a4.66 4.66 0 0 0 .84-9.25h1.41a4.66 4.66 0 0 0 4.66-4.66zm-3.74 9.24A3.17 3.17 0 0 1 25.24 29H9.59a5.13 5.13 0 0 1 0-10.26 5.75 5.75 0 0 1 .88.08.73.73 0 0 0 .78-.37 7.09 7.09 0 0 1 5.49-3.58.75.75 0 1 0-.14-1.49 8.58 8.58 0 0 0-6.39 3.89h-.62a6.69 6.69 0 0 0-2 .29 5.1 5.1 0 0 1 4.2-8 4.57 4.57 0 0 1 .88.08.75.75 0 0 0 .78-.37 7.08 7.08 0 0 1 13.25 3.47.75.75 0 0 0 .75.75 3.16 3.16 0 0 1 0 6.32h-1.73a8.55 8.55 0 0 0-2.13-3.78.75.75 0 0 0-1.06 0 .76.76 0 0 0 0 1.06 7 7 0 0 1 2 4.91.76.76 0 0 0 .75.75 3.17 3.17 0 0 1 3.13 3.04z"/><path d="M22.38 12a.74.74 0 0 0 .53-.22.75.75 0 0 0 0-1.06l-2.4-2.4a.74.74 0 0 0-.22-.14.59.59 0 0 0-.23 0h-.08a.72.72 0 0 0-.19 0h-.07a.66.66 0 0 0-.22.15l-2.4 2.4a.75.75 0 1 0 1.06 1.06l1.12-1.12v10.4a.75.75 0 0 0 1.5 0v-10.4l1.12 1.12a.74.74 0 0 0 .48.21z"/></svg>