<svg data-name="Layer 1" xmlns="http://www.w3.org/2000/svg" viewBox="0 0 36 36"><title>Icon-Red_Hat-Nunchuk-A-Black-RGB</title><path d="M6 12.75h11a.75.75 0 0 0 .75-.75V8a.75.75 0 0 0-.75-.75H6a.75.75 0 0 0-.75.75v4a.75.75 0 0 0 .75.75zM6.75 10V8.75h9.5v2.5h-9.5zM30.53 23.47a.745.745 0 0 0-.53-.22H19a.75.75 0 0 0-.75.75v4a.75.75 0 0 0 .75.75h11a.75.75 0 0 0 .75-.75v-4a.745.745 0 0 0-.22-.53zM29.25 26v1.25h-9.5v-2.5h9.5zM20.208 18.53a.75.75 0 0 0-.53-1.28h-3.3a.75.75 0 1 0 0 1.5h3.304a.75.75 0 0 0 .526-.22zM7.482 19.945a.748.748 0 0 0-.106-1.055.75.75 0 0 0-1.055.11 4.745 4.745 0 0 0-1.07 3c0 .113 0 .226.01.337s.02.222.036.33a.75.75 0 0 0 .742.647h.052l.053-.006a.75.75 0 0 0 .64-.847q-.018-.11-.025-.227c-.006-.076-.008-.154-.008-.232a3.257 3.257 0 0 1 .732-2.054zM22.233 18a.75.75 0 0 0 .75.75h3.189s.114 0 .17-.01a.75.75 0 0 0 .438-1.314.74.74 0 0 0-.544-.18l-.118.005h-3.135a.75.75 0 0 0-.75.75zM10.892 25.25H10a3.264 3.264 0 0 1-.967-.146 3.21 3.21 0 0 1-.877-.427.75.75 0 0 0-.85 1.235 4.734 4.734 0 0 0 2.7.838h.89a.75.75 0 0 0 0-1.5zM13.815 18a.75.75 0 0 0-.75-.75H9.856l-.143.007a.75.75 0 0 0 .046 1.5h3.308a.75.75 0 0 0 .75-.75zM28.543 16.023a.75.75 0 0 0 .586 1.217.76.76 0 0 0 .32-.07.748.748 0 0 0 .266-.212A4.763 4.763 0 0 0 30.75 14c0-.124 0-.246-.015-.367s-.023-.242-.04-.36a.75.75 0 0 0-.3-.492.74.74 0 0 0-.557-.135.75.75 0 0 0-.628.855c.013.082.022.164.03.247s.01.168.01.253a3.21 3.21 0 0 1-.708 2.023zM25.057 10.75H26a3.228 3.228 0 0 1 1.81.55.74.74 0 0 0 .2.1.75.75 0 0 0 .633-1.34A4.73 4.73 0 0 0 26 9.25h-.943a.75.75 0 1 0 0 1.5zM20 12.75a.75.75 0 0 0 .75-.75v-1.25h1a.75.75 0 0 0 0-1.5h-1V8a.75.75 0 0 0-1.5 0v4a.75.75 0 0 0 .75.75zM16 23.25a.75.75 0 0 0-.75.75v1.25h-1a.75.75 0 0 0 0 1.5h1V28a.75.75 0 0 0 1.5 0v-4a.75.75 0 0 0-.75-.75z"/></svg>