<svg data-name="Layer 1" xmlns="http://www.w3.org/2000/svg" viewBox="0 0 36 36"><title>Icon-Red_Hat-Hierarchy-A-Black-RGB</title><path d="M30.3 23.7a3.244 3.244 0 0 0-1.547-.857V18a.75.75 0 0 0-.75-.75H18.75v-4.1a3.266 3.266 0 1 0-1.5 0v4.1H8a.75.75 0 0 0-.75.75v4.846a3.266 3.266 0 1 0 1.5 0v-4.1h8.5v4.1a3.266 3.266 0 1 0 1.5 0v-4.1h8.5v4.1a3.243 3.243 0 1 0 3.05.854zM9.24 24.76a1.76 1.76 0 1 1-1.873-.39 1.693 1.693 0 0 1 1.272 0 1.76 1.76 0 0 1 .597.393zm10 0a1.76 1.76 0 1 1-1.873-.39 1.693 1.693 0 0 1 1.272 0 1.76 1.76 0 0 1 .597.393zm-.6-13.137a1.693 1.693 0 0 1-1.272 0 1.76 1.76 0 1 1 1.272 0zm10.6 15.61a1.75 1.75 0 1 1-1.873-2.862 1.693 1.693 0 0 1 1.272 0 1.745 1.745 0 0 1 .6 2.864z"/></svg>