<svg xmlns="http://www.w3.org/2000/svg" width="32" height="32" viewBox="0 0 32 32"><path d="M27.994 14.654L25.63 12.04c-.85-1.862-2.23-3.432-3.944-4.52.094-.276.147-.57.147-.874 0-1.495-1.216-2.71-2.71-2.71-1.236 0-2.28.83-2.604 1.964-.15-.006-.297-.017-.447-.017-2.545 0-4.88.91-6.7 2.42l-1.096-.89c-.05-.04-.114-.05-.174-.032-.06.02-.106.07-.122.13l-.91 3.47c-.953 1.58-1.502 3.43-1.502 5.408 0 .26.01.517.03.772-.964.416-1.64 1.374-1.64 2.49 0 1.493 1.217 2.71 2.71 2.71.245 0 .48-.035.704-.096 1.413 2.086 3.554 3.64 6.057 4.29l-.115 1.31c-.006.063.022.123.07.162s.116.05.175.03l3.418-1.207c1.958-.17 3.763-.878 5.268-1.974.46.36 1.036.575 1.663.575 1.494 0 2.71-1.215 2.71-2.71 0-.827-.373-1.568-.96-2.065.59-1.31.918-2.762.918-4.288 0-.334-.018-.665-.048-.99l1.384-.443c.06-.02.106-.068.122-.127.016-.06 0-.126-.042-.173zM17.09 6.62c.003-.235.047-.46.123-.67.284-.78 1.03-1.34 1.91-1.34 1.12 0 2.032.913 2.032 2.035 0 .18-.026.352-.07.518-.06.224-.153.434-.28.62-.366.54-.984.895-1.683.895-1.12 0-2.034-.912-2.034-2.033V6.62zM6.99 21.653c-.105.017-.212.028-.32.028-1.122 0-2.034-.912-2.034-2.033 0-.76.42-1.424 1.04-1.773.2-.114.423-.193.66-.232.108-.018.22-.03.333-.03 1.12 0 2.033.912 2.033 2.034 0 .765-.426 1.432-1.053 1.78-.202.11-.425.187-.662.225zM25.94 22.74c0 1.122-.912 2.034-2.033 2.034-.41 0-.79-.122-1.107-.33-.193-.125-.362-.283-.502-.465-.264-.344-.424-.773-.424-1.24 0-1.12.912-2.033 2.033-2.033.316 0 .615.075.883.205.207.1.395.233.556.394.365.368.592.875.592 1.434zm-.86-2.44c-.355-.17-.753-.27-1.173-.27-1.496 0-2.712 1.215-2.712 2.71 0 .622.213 1.194.567 1.65-1.5 1.07-3.312 1.73-5.27 1.812l-2.642-1.515c-.054-.032-.12-.033-.176-.003-.056.03-.093.084-.1.146l-.09 1.035c-2.245-.613-4.168-2.01-5.47-3.87.814-.468 1.363-1.345 1.363-2.348 0-1.495-1.217-2.71-2.71-2.71-.136 0-.27.012-.4.032-.01-.195-.024-.388-.024-.584 0-2 .602-3.86 1.632-5.414l2.726-1.33c.057-.03.095-.083.102-.146.008-.062-.018-.124-.066-.164l-.73-.593c1.688-1.363 3.832-2.18 6.163-2.18.115 0 .23.008.343.012 0 .024-.004.047-.004.07 0 1.495 1.216 2.712 2.71 2.712.947 0 1.78-.488 2.265-1.224 1.672 1.08 3 2.65 3.77 4.51l-.382 3.04c-.008.063.017.125.066.165.05.04.115.053.174.035l.853-.273c.02.258.034.517.034.78 0 1.39-.292 2.713-.816 3.914z"/></svg>