<svg xmlns="http://www.w3.org/2000/svg" viewBox="0 0 32 32"><path d="M18.93 22.44h5.44c.68 0 1.24-.56 1.24-1.24V10.8c0-.68-.56-1.24-1.24-1.24H7.62c-.68 0-1.24.56-1.24 1.24v10.4c0 .68.56 1.24 1.24 1.24h11.31zM25 21.23c0 .35-.28.63-.63.63H7.62c-.34 0-.62-.28-.62-.63V10.8c0-.35.28-.63.63-.63h16.75c.35 0 .63.28.63.63v10.43zm-9-1.72c-1.93 0-3.51-1.57-3.51-3.51s1.57-3.51 3.51-3.51 3.51 1.57 3.51 3.51-1.58 3.51-3.51 3.51zm0-6.56c-1.68 0-3.05 1.37-3.05 3.05 0 1.68 1.37 3.05 3.05 3.05s3.05-1.37 3.05-3.05c0-1.68-1.37-3.05-3.05-3.05zm-1.04 4.6c-.03 0-.06-.01-.08-.02-.05-.03-.07-.08-.07-.13v-2.8c0-.05.03-.1.07-.13.05-.03.1-.03.15-.01l2.75 1.39c.05.03.08.08.08.14 0 .06-.03.11-.08.14l-2.75 1.41c-.02.01-.05.01-.07.01zm.15-2.7v2.3l2.26-1.16-2.26-1.14z"/></svg>