<svg xmlns="http://www.w3.org/2000/svg" viewBox="0 0 512 512"><path d="M254.5 447.3h-.6c-93.2-10.9-158.3-84.9-158.3-180.1V120c0-2.1 1.3-4 3.3-4.6 28.3-9.6 143.5-31.6 155.7-31.6 10.2 0 124.6 21.3 155.1 31.6 2 .7 3.3 2.5 3.3 4.6v147.1c0 95.2-65 169.2-158 180.1-.1.1-.3.1-.5.1zM105.4 123.6v143.6c0 105.3 74.8 161.4 149.1 170.3 74.2-8.9 148.8-64.9 148.8-170.3V123.6c-33.3-10.2-139.4-30-148.7-30-9.4 0-115.9 19.8-149.2 30zm149.1 296.6h-.5c-66.1-9-132.8-59.8-132.8-153V158.5c0-1.7 1.1-3.2 2.8-3.6 38.7-9.5 115.6-23.9 130.2-25.2h.7c12.5 1.3 89.8 15.3 129.7 25.2 1.6.4 2.8 1.9 2.8 3.6v108.7c0 93.2-66.5 144-132.5 153h-.4zM128.6 161.4v105.8c0 88.6 63.2 136.9 125.9 145.7 62.6-8.7 125.6-57.1 125.6-145.7V161.4c-39.2-9.5-112.8-22.9-125.6-24.3-13.4 1.3-85.8 14.6-125.9 24.3zm137.4 160c-.6 0-1.1-.2-1.5-.5-.6-.5-.9-1.2-.9-1.9v-38.2c0-.8.4-1.6 1.1-2 .7-.5 1.5-.6 2.3-.3 9 3.4 19.3 9 19.3 22.1 0 10.6-7 18-19.7 20.8h-.6zm2.4-37v31.4c6.4-2 12.9-6.2 12.9-15.2 0-7.3-3.8-12.1-12.9-16.2zm-22.1-30.1c-.3 0-.6-.1-.9-.2-8.3-3.2-17.9-8.3-17.9-19.5 0-6.9 3.2-15.6 18.3-18.4.7-.1 1.4.1 2 .5.6.5.9 1.2.9 1.9v33.2c0 .8-.4 1.6-1.1 2-.4.4-.8.5-1.3.5zm-2.5-32.6c-7.7 2.1-11.5 6.4-11.5 13 0 5.8 3.4 9.9 11.5 13.6v-26.6zm22.2 141h-19.7c-1.3 0-2.4-1.1-2.4-2.4v-18.5c-21.8-2.7-33.1-13.8-40-20.5l-1.6-1.5c-.5-.5-.7-1.1-.7-1.8s.3-1.3.7-1.8l15.2-14.6c.5-.5 1.1-.7 1.8-.7s1.3.3 1.7.8c5.6 6.3 13.9 11.3 22.8 13.9v-39.3c-18.3-5.7-37.2-14.2-37.2-40.1 0-21.1 14.2-36.4 37.2-40.3v-15.4c0-1.3 1.1-2.4 2.4-2.4H266c1.3 0 2.4 1.1 2.4 2.4v15.6c16.5 3.1 26.7 11.8 33.1 18.1.9.9 1 2.5 0 3.4l-14.4 14.9c-.9 1-2.4 1-3.4.1-4.3-4-9.1-7.9-15.3-10.3v33.9c19 6.1 38.6 15.3 38.6 42.2 0 13.8-5.1 37.3-38.6 42.7v19c0 1.6-1.1 2.6-2.4 2.6zm-17.3-4.8h14.8v-18.6c0-1.2.9-2.3 2.1-2.4 30.1-4 36.5-23 36.5-38.2 0-24.4-18.2-32.2-36.9-38.1-1-.3-1.7-1.3-1.7-2.3v-39.1c0-.8.4-1.5 1-1.9.6-.5 1.4-.6 2.1-.4 7.8 2.2 13.6 6.4 18.7 10.8l11-11.5c-6.2-5.9-15.9-13.1-30.7-15.4-1.2-.2-2.1-1.2-2.1-2.4V183h-14.8v15.1c0 1.2-.9 2.3-2.1 2.4-22 3-35.1 16.4-35.1 35.8 0 23.4 17.5 30.6 35.4 36 1 .3 1.7 1.3 1.7 2.3v44.2c0 .7-.3 1.4-.9 1.9-.6.5-1.3.6-2.1.5-10-2.3-19.8-7.6-26.6-14.4L207.4 318c6.6 6.5 17.7 17.1 39 19.1 1.3.1 2.2 1.2 2.2 2.4v18.4z"/></svg>