<svg xmlns="http://www.w3.org/2000/svg" width="32" height="32" viewBox="0 0 32 32"><path d="M20.36 12.642c.226 0 .45-.06.648-.172.306-.173.526-.455.62-.794.093-.34.048-.694-.125-1-.233-.41-.67-.665-1.145-.665-.226 0-.45.06-.648.173-.63.358-.852 1.162-.494 1.794.233.41.67.665 1.144.665zm-.423-2.06c.13-.072.275-.11.42-.11.31 0 .595.165.747.432.113.2.14.43.08.65-.06.22-.203.404-.4.517-.13.074-.276.113-.423.113-.307 0-.593-.166-.744-.433-.233-.41-.09-.934.322-1.167zm-5.01 4.14c-.85.878-1.064 2.245-.43 3.36.1.178.222.337.355.484L13.21 21.36c-.056.094-.056.212 0 .308.015.027.16.27.497.466.344.202.62.206.652.206.108 0 .208-.058.263-.15l1.627-2.767c.23.06.466.093.71.093.486 0 .968-.128 1.393-.37.635-.36 1.095-.94 1.307-1.636l3.276.03c.1 0 .195-.05.252-.132.04-.057.166-.277.144-.718-.02-.395-.087-.566-.116-.62-.052-.103-.156-.167-.27-.168l-3.283-.03c-.06-.2-.142-.394-.247-.58-.502-.883-1.445-1.432-2.46-1.432-.2 0-.4.027-.594.07L14.5 10.693c-.04-.07-.11-.123-.19-.144-.062-.016-.322-.063-.736.172-.406.23-.505.475-.525.545-.025.08-.015.167.027.24l1.85 3.215zm.24.418l.565.98c-.128.306-.14.655-.016.978l-.618 1.052c-.073-.093-.14-.19-.2-.293-.507-.894-.365-1.98.27-2.717zm-.963 6.552c-.053-.018-.117-.045-.187-.086-.07-.04-.126-.084-.168-.123l2.257-3.84c.107.09.227.16.356.21l-2.26 3.84zm3.922-2.946c-.356.202-.76.31-1.167.31-.16 0-.313-.02-.464-.05l.633-1.078c.16-.024.316-.076.46-.157.128-.072.237-.168.333-.276l1.255.01c-.192.527-.56.963-1.05 1.242zm4.575-2.234c.008.054.015.123.02.207.003.083 0 .15-.007.204l-4.49-.04c.028-.137.038-.276.022-.412l4.456.04zm-5.746-2.193c.85 0 1.642.46 2.062 1.198.064.113.115.23.16.35l-1.173-.01c-.2-.276-.5-.462-.832-.522l-.567-.987c.117-.02.233-.03.35-.03zm-.016 1.452c.308 0 .594.166.745.433.113.2.142.43.08.65-.06.22-.202.404-.4.517-.13.073-.276.112-.423.112-.308 0-.593-.166-.745-.433-.233-.41-.088-.933.322-1.165.13-.074.274-.112.42-.112zm-3.062-4.518c.078-.045.142-.07.19-.086l2.43 4.224c-.07.026-.14.054-.206.092-.056.032-.105.07-.154.11l-2.43-4.222c.037-.034.092-.074.17-.118zm11.35-5.09l-2.818-1.38c-.042-.02-.088-.03-.135-.03h-11.57c-.042 0-.083.008-.12.025L7.337 6.157c-.186.062-.186.412-.186.44v3.512h-.017c-.293 0-.532.24-.532.532v.85c0 .294.24.533.532.533h.017v9.3h-.017c-.293 0-.532.24-.532.533v.85c0 .294.24.533.532.533h.017v3.7c0 .17.137.306.306.306H25.09c.17 0 .307-.137.307-.306V6.598c0-.028.004-.34-.172-.433zm-14.462-.797h11.438l1.888.924H8.592l2.173-.923zm-3.63 6.198c-.04 0-.072-.033-.072-.072v-.85c0-.04.033-.073.072-.073h1.618c.04 0 .072.033.072.072v.85c0 .04-.032.073-.072.073H7.134zm.018 11.216h-.017c-.04 0-.072-.032-.072-.07v-.852c0-.04.033-.072.072-.072h1.618c.04 0 .072.033.072.072v.85c0 .04-.032.073-.072.073h-1.6zm17.633 3.854H7.765V23.24h.987c.293 0 .532-.238.532-.53v-.852c0-.293-.24-.532-.532-.532h-.987v-9.3h.987c.293 0 .532-.24.532-.533v-.85c0-.294-.24-.533-.532-.533h-.987V6.904h17.02v19.73z"/></svg>