<svg xmlns="http://www.w3.org/2000/svg" viewBox="0 0 32 32"><path d="M21.18 13.69c.01-.03.02-.07.02-.11v-1.14c0-2.27-1.45-4.47-3.4-5.21V6.11c0-.06 0-.12-.01-.18.19-.11.3-.27.3-.47V3.72c0-.65-1.14-.78-2.1-.78s-2.1.14-2.1.78v1.74c0 .21.12.36.3.47.01.06.01.12.01.18v1.12c-1.95.74-3.4 2.94-3.4 5.21v1.15c0 .04.01.07.02.11l.25.66v8.86l-.24.5c-.02.04-.03.09-.03.13 0 4.33 1.26 5.15 3.75 5.2.26 0 .55-.15.85-.3.21-.11.48-.24.61-.24.12 0 .38.14.57.24.29.16.56.3.82.3 2.53-.05 3.81-.86 3.81-5.2 0-.05-.01-.1-.03-.14l-.25-.5.01-8.86.24-.66zm-6.66-9.91c.1-.08.52-.23 1.48-.23s1.38.15 1.48.23V5.4c-.1.08-.52.23-1.48.23s-1.38-.15-1.49-.23c.01 0 .01-1.62.01-1.62zm6.07 9.75l-.25.67c-.01.03-.02.07-.02.11l-.02 8.99c0 .05.01.1.03.14l.25.5c-.01 4.16-1.22 4.48-3.2 4.51-.1 0-.35-.13-.53-.23-.29-.15-.59-.31-.86-.31-.28 0-.59.16-.89.31-.2.1-.45.23-.57.23-1.94-.04-3.12-.37-3.14-4.52l.24-.5c.02-.04.03-.09.03-.13v-8.99c0-.04-.01-.07-.02-.11l-.25-.66v-1.1c0-2.1 1.37-4.12 3.19-4.7.13-.04.22-.19.21-.33V6.14c.36.07.79.1 1.19.1.4 0 .82-.02 1.19-.1v1.3c0 .13.09.25.21.29 1.82.58 3.19 2.6 3.19 4.7l.02 1.1zM17.15 4c-.01-.08-.09-.14-.17-.13-.36.05-.79.08-1.25.06-.24-.01-.48-.02-.7-.05-.08-.01-.16.05-.17.13s.05.16.14.17c.23.03.48.04.73.05h.26c.38 0 .73-.02 1.04-.07.07.01.13-.07.12-.16zm-2.33 10.33c-.13.01-.23.1-.24.22 0 .13.1.23.22.24.37.01.77.02 1.2.02 1.58 0 2.85-.1 3.46-.16.13-.01.22-.12.21-.25s-.12-.22-.25-.21c-.6.06-1.85.16-3.41.16-.42 0-.82-.01-1.19-.02zm-2.31.32c.2.02.5.05.88.07h.02c.12 0 .22-.09.23-.21.01-.13-.09-.24-.21-.24-.37-.03-.67-.05-.86-.07-.13-.01-.24.08-.25.21s.07.23.19.24zm6.9 8.34c-.48.05-1.78.16-3.41.16-.42 0-.81-.01-1.18-.02-.13 0-.23.1-.24.22 0 .13.1.23.22.24.37.01.77.02 1.2.02 1.66 0 2.97-.11 3.46-.16.13-.01.22-.12.21-.25-.02-.13-.12-.22-.26-.21zm-5.99.07c-.37-.02-.67-.05-.86-.07-.12-.01-.24.08-.25.21s.08.24.21.25c.2.02.5.05.88.07h.02c.12 0 .22-.09.23-.21 0-.13-.1-.24-.23-.25zm4.8-1.95l.61-1.18c.24-.53.04-.91.03-.93l-.45-.82c-.01-.02-.03-.04-.05-.04s-.05 0-.07.01l-1.18.7c-.04.02-.05.08-.03.12l.62 1.1h-.67v-.26c0-.04 0-.08-.05-.12-.05-.03-.1-.03-.16.01l-.02.02-.68.98c-.02.03-.02.07 0 .1l.68.98c0 .01.01.01.02.02.03.02.06.03.09.03.02 0 .05-.01.07-.02.05-.04.05-.08.05-.12v-.26h.49c.52-.01.69-.3.7-.32zm-.94-2.16l1.03-.61.4.74c.01.01.17.32-.03.77-.09.17-.39.21-.54.21h-.24l-.62-1.11zm-.33 2.3c-.02 0-.05.01-.06.03-.02.02-.02.04-.02.06v.21l-.56-.81.56-.81v.21c0 .02.01.05.02.06.02.02.04.03.06.03h1.19c.05 0 .21 0 .37-.06l-.44.85s-.13.22-.54.22l-.58.01zm-1.27.19c.03 0 .05-.01.06-.02.02-.02.03-.04.03-.06v-1.37c0-.05-.04-.09-.09-.09H14.4l.35-.6.23.14c.03.01.05.03.08.03.02 0 .04-.01.05-.01.05-.02.07-.08.07-.14 0-.01 0-.02-.01-.03l-.5-1.08c-.02-.03-.05-.05-.09-.05l-1.19.09c-.01 0-.02 0-.03.01-.06.03-.09.07-.09.13 0 .07.04.08.08.11l.22.13-.24.42c-.07.11-.11.23-.13.34v.01c-.03.24.12.51.13.52l.62 1c.34.48.77.5.78.5l.95.02zm-2.3-2.04c.02-.09.06-.19.11-.28l.29-.5c.01-.02.01-.04.01-.07s-.02-.04-.04-.05l-.18-.1.98-.07.41.89-.19-.11c-.02-.01-.04-.02-.07-.01s-.04.02-.05.04l-.45.76c-.13 0-.45-.02-.65-.16-.11-.08-.17-.2-.17-.34zm.73 1.42l-.55-.88c.02.01.04.01.05.02.02.01.05.02.07.03.04.01.08.03.12.03.02.01.05.01.07.01.05.01.09.01.13.02.02 0 .03 0 .05.01.06 0 .11.01.15.01H15.58v1.19l-.84-.03c-.01 0-.35-.01-.63-.41zm1.25-2.56c.01.01.03.01.05.01.03 0 .06-.01.07-.04l.69-1.05.3.58-.22.12c-.04.02-.07.04-.08.1-.01.06.03.1.08.13.01 0 .02.01.03.01l1.18.15h.01c.03 0 .06-.02.08-.05l.55-1.05c0-.01.01-.02.01-.03.01-.06-.01-.12-.06-.15-.01-.01-.03-.02-.06-.02s-.05.01-.07.02l-.25.12-.21-.43c-.24-.46-.57-.47-.59-.47h-1.33c-.59.03-.83.39-.84.4l-.52.77c-.01.02-.02.04-.01.07s.02.04.04.06l1.15.75zm1.5-1.85c.01 0 .25.02.44.38l.25.51c.01.02.03.04.05.04s.05.01.07 0l.21-.1-.46.87-.98-.12.18-.1c.04-.02.06-.07.04-.11l-.53-1.05c-.01-.01-.09-.17-.22-.3l.95-.02zm-2.02.33c.01-.01.2-.3.7-.33.2 0 .38.27.43.38l.11.21-.7 1.06-1.01-.63c0 .01.47-.69.47-.69z"/></svg>