<svg xmlns="http://www.w3.org/2000/svg" viewBox="0 0 32 32"><g fill="#010101"><path d="M15.772 18.447c.056.068.14.107.228.107s.17-.04.228-.107l5.004-6.01c.162-.195.187-.464.063-.686-.124-.22-.367-.34-.618-.302l-2.048.303V4.878c0-.164-.134-.296-.297-.296h-4.665c-.164 0-.296.134-.296.297v6.875l-2.048-.303c-.252-.038-.494.08-.618.302-.124.22-.1.49.063.686l5.002 6.01zm-2.148-6.06c.086.014.172-.01.237-.068.066-.057.104-.14.104-.225V5.173h4.072v6.922c0 .086.038.168.103.224.064.056.15.08.236.068l2.4-.33-4.775 5.736-4.763-5.76 2.387.354zM25.688 21.224l-3.04-1.527c-.03-.016-.065-.024-.1-.024H9.958c-.03 0-.06.006-.088.018L6.324 21.22c-.08.035-.134.115-.134.204v5.774c0 .123.1.222.222.222h19.176c.123 0 .222-.1.222-.223V21.42c0-.083-.047-.16-.122-.198zm-15.684-1.106h12.492l2.487 1.25H7.103l2.9-1.25zm15.362 6.857H6.634v-5.163h18.732v5.163z"/><path d="M21.153 25.742h1.02c.082 0 .148-.066.148-.148V22.95c0-.082-.065-.148-.147-.148h-1.02c-.082 0-.148.066-.148.148v2.644c0 .082.066.148.148.148zm.148-2.644h.725v2.348H21.3v-2.348zM23.152 25.742h1.02c.082 0 .148-.066.148-.148V22.95c0-.082-.066-.148-.148-.148h-1.02c-.082 0-.148.066-.148.148v2.644c0 .082.066.148.148.148zm.148-2.644h.724v2.348H23.3v-2.348z"/><circle cx="8.431" cy="24.366" r=".479"/><circle cx="10.05" cy="24.366" r=".479"/></g></svg>