<svg xmlns="http://www.w3.org/2000/svg" viewBox="0 0 36 36"><title>Icons-Red_Hat-Software_and_Technologies-Code-A-Black-RGB</title><path d="M16.52 25.6h-.16a.76.76 0 0 1-.58-.89L18.69 11a.75.75 0 1 1 1.47.31L17.25 25a.75.75 0 0 1-.73.6zM22 24.73a.74.74 0 0 1-.53-.22.75.75 0 0 1 0-1.06L26.94 18l-5.47-5.47a.75.75 0 0 1 1.06-1.06l6 6a.75.75 0 0 1 0 1.06l-6 6a.74.74 0 0 1-.53.2zM14 24.73a.74.74 0 0 1-.53-.22l-6-6a.75.75 0 0 1 0-1.06l6-6a.75.75 0 0 1 1.06 1.06L9.06 18l5.47 5.47a.75.75 0 0 1 0 1.06.74.74 0 0 1-.53.2z"/></svg>