<svg xmlns="http://www.w3.org/2000/svg" viewBox="0 0 32 32"><path d="M17.37 10.61c0-2.89-2.35-5.25-5.25-5.25s-5.25 2.35-5.25 5.25c0 2.89 2.35 5.25 5.25 5.25s5.25-2.36 5.25-5.25zm-10.03 0c0-2.64 2.15-4.79 4.79-4.79s4.79 2.15 4.79 4.79-2.15 4.79-4.79 4.79-4.79-2.15-4.79-4.79zM15.52 9c.04.08.12.13.21.13.03 0 .07-.01.1-.02.11-.05.16-.19.11-.31-.69-1.46-2.19-2.41-3.81-2.41-.13 0-.23.1-.23.23s.1.23.23.23c1.44 0 2.77.85 3.39 2.15zm10.54 16.37l-7.04-8.76c-.19-.24-.33-.27-.42-.27-.07 0-.15.03-.2.07l-.06.05-1.39-1.73c.96-1.11 1.54-2.56 1.54-4.14 0-3.51-2.85-6.36-6.36-6.36S5.77 7.1 5.77 10.61s2.85 6.36 6.36 6.36c1.03 0 2-.25 2.86-.69l1.41 1.75-.06.05c-.06.05-.11.14-.12.22 0 .05-.02.19.18.43l7.04 8.76c.19.24.33.26.42.26.07 0 .15-.03.2-.07l2.06-1.66c.06-.05.11-.14.12-.22 0-.04.01-.18-.18-.43zM6.38 10.61c0-3.17 2.58-5.75 5.75-5.75s5.75 2.58 5.75 5.75c0 1.52-.6 2.9-1.56 3.93l-1.25 1.01c-.86.51-1.86.81-2.93.81-3.18-.01-5.76-2.59-5.76-5.75zm10.14 4.58l1.25 1.55-.98.79-1.26-1.56c.35-.22.68-.48.99-.78zm7.34 11.86l-6.95-8.64 1.67-1.34 6.95 8.64-1.67 1.34zm.42-1.86c.05.06.11.09.18.09.05 0 .1-.02.14-.05.1-.08.11-.22.03-.32l-2.62-3.26c-.08-.1-.22-.11-.32-.03s-.11.22-.03.32c0-.01 2.62 3.25 2.62 3.25z"/></svg>