<svg xmlns="http://www.w3.org/2000/svg" viewBox="0 0 31.68 31.68"><path d="M25.29 8.6v8.75c0 .14-.11.25-.25.25H6.11c-.14 0-.25-.11-.25-.25V8.6c0-.14.11-.25.25-.25h18.93c.14-.01.25.11.25.25zm-.5.25H6.36v7.92h18.43V8.85z"/><path d="M8.3 16.13c.07 0 .12-.06.12-.12V9.6c0-.07-.06-.13-.12-.13-.07 0-.13.06-.13.13v6.41c0 .06.06.12.13.12zM10.72 16.13c.07 0 .12-.06.12-.12V9.6c0-.07-.06-.13-.12-.13-.07 0-.13.06-.13.13v6.41c0 .06.06.12.13.12zM13.15 16.13c.07 0 .13-.06.13-.12V9.6c0-.07-.06-.13-.13-.13s-.12.06-.12.13v6.41c-.01.06.05.12.12.12zM15.57 16.17c.07 0 .12-.06.12-.13v-6.4c0-.07-.06-.13-.12-.13-.07 0-.13.06-.13.13v6.41c.01.07.06.12.13.12zM18 16.13c.07 0 .13-.06.13-.12V9.6c0-.07-.06-.13-.13-.13s-.13.06-.13.13v6.41c.01.06.06.12.13.12zM20.43 16.13c.07 0 .12-.06.12-.12V9.6c0-.07-.06-.13-.12-.13-.07 0-.13.06-.13.13v6.41c0 .06.06.12.13.12zM22.85 16.13c.07 0 .12-.06.12-.12V9.6c0-.07-.06-.13-.12-.13-.07 0-.13.06-.13.13v6.41c.01.06.07.12.13.12z"/><g><path d="M27.36 19.91H4.32c-.1 0-.18-.08-.18-.18v-1.19c0-.1.08-.18.18-.18h23.03c.1 0 .18.08.18.18v1.19c.01.1-.07.18-.17.18zM4.5 19.56h22.68v-.83H4.5v.83zM5.89 23.34c-.85 0-1.53-.69-1.53-1.53 0-.85.69-1.53 1.53-1.53s1.53.69 1.53 1.53c0 .84-.68 1.53-1.53 1.53zm0-2.71c-.65 0-1.18.53-1.18 1.18s.53 1.18 1.18 1.18 1.18-.53 1.18-1.18c0-.66-.53-1.18-1.18-1.18zM22.19 23.34c-.85 0-1.53-.69-1.53-1.53 0-.85.69-1.53 1.53-1.53.85 0 1.53.69 1.53 1.53 0 .84-.69 1.53-1.53 1.53zm0-2.71c-.65 0-1.18.53-1.18 1.18s.53 1.18 1.18 1.18 1.18-.53 1.18-1.18c-.01-.66-.54-1.18-1.18-1.18zM9.45 23.34c-.85 0-1.53-.69-1.53-1.53 0-.85.69-1.53 1.53-1.53s1.53.69 1.53 1.53-.69 1.53-1.53 1.53zm0-2.71c-.65 0-1.18.53-1.18 1.18s.53 1.18 1.18 1.18c.65 0 1.18-.53 1.18-1.18-.01-.66-.53-1.18-1.18-1.18zM25.74 23.34c-.85 0-1.53-.69-1.53-1.53 0-.85.69-1.53 1.53-1.53s1.53.69 1.53 1.53-.68 1.53-1.53 1.53zm0-2.71c-.65 0-1.18.53-1.18 1.18s.53 1.18 1.18 1.18 1.18-.53 1.18-1.18c0-.66-.53-1.18-1.18-1.18z"/><path d="M28.65 19.32h-1.29c-.1 0-.18-.08-.18-.18s.08-.18.18-.18h1.29c.1 0 .18.08.18.18 0 .1-.08.18-.18.18zM4.32 19.32H3.03c-.1 0-.18-.08-.18-.18s.08-.18.18-.18h1.29c.1 0 .18.08.18.18 0 .1-.08.18-.18.18z"/></g></svg>