<svg xmlns="http://www.w3.org/2000/svg" viewBox="0 0 32 32"><path d="M15.8 12.55s.05-.15.25-.15l1.6.02c.12.01.61.02.93-.64l1.55-3.01c.25-.47.06-.85-.09-1l-.94-1.15-.05-.05c-.03-.02-.66-.47-1.62-.47-.52 0-1.05.13-1.56.39-.07.04-1.83.93-2.83 3.36-.1.19-2.42 4.76-.6 11.55.01.05.82 4.5 4.69 4.5.31 0 .63-.03.96-.09l.05-.01 1.37-.8c.38-.22.38-.69.32-.93l-.85-3.46c-.07-.23-.31-.63-.78-.65l-2.35-.03c-.04 0-.19-.02-.23-.19-.01-.04-1.21-4.17.18-7.16v-.03zm3.78-4.39l.03.03s.09.09-.02.28l-1.56 3.02c-.15.3-.3.31-.32.31l-.85-.01 1.97-4.53c.01.01.75.9.75.9zm-1.4 12.42c.14.01.2.2.2.2l.85 3.44c.01.06.02.22-.03.26l-1.09.63-.86-4.54.93.01zm-2.95-8.24c-1.48 3.21-.26 7.41-.2 7.58.14.49.59.63.81.63l1.11.01.88 4.67c-.24.03-.47.05-.7.05-3.35 0-4.06-3.83-4.09-4.02-1.76-6.57.52-11.09.56-11.16.91-2.23 2.53-3.06 2.55-3.07.42-.22.86-.33 1.28-.33.59 0 1.02.22 1.19.31l-2.08 4.78-.42-.01c-.54-.02-.81.34-.89.56z"/></svg>