<svg xmlns="http://www.w3.org/2000/svg" viewBox="0 0 36 36"><path d="M24.75 11.75c.414 0 .75-.336.75-.75V7c0-.414-.336-.75-.75-.75h-12c-.283 0-.48.17-.53.22l-4 4c-.125.128-.22.353-.22.53v18c0 .414.336.75.75.75h16c.414 0 .75-.336.75-.75v-7c0-.414-.336-.75-.75-.75s-.75.336-.75.75v6.25H9.5v-16.5h3.25c.414 0 .75-.336.75-.75V7.75H24V11c0 .414.336.75.75.75zM12 10.25h-1.44L12 8.81v1.44z"/><path d="M29.28 13.47l-2-2c-.292-.293-.767-.293-1.06 0l-9 9c-.083.082-.145.182-.18.293l-1 3c-.132.393.08.818.474.95.076.024.156.037.236.037.08 0 .16-.013.237-.038l3-1c.11-.037.21-.1.293-.182l9-9c.293-.292.293-.767 0-1.06zm-9.935 8.875l-1.41.47.47-1.41 6.345-6.344.94.94-6.345 6.345zm7.405-7.406l-.94-.94.94-.94.94.94-.94.94z"/></svg>