<svg xmlns="http://www.w3.org/2000/svg" width="32" height="32" viewBox="0 0 32 32"><path d="M27.28 15.55c-.018-.082-.07-.155-.143-.2l-6.524-4.06-5.55-6.235c-.088-.098-.236-.107-.335-.02l-1.762 1.533-1.474-.914c-.15-.094-.347-.048-.44.102l-3.498 5.526-1.982 1.726c-.048.04-.077.1-.082.165-.004.063.018.126.06.173l.417.47-1.242 1.968c-.046.072-.06.16-.04.244.018.084.07.156.143.2l7.293 4.5 5.488 6.16c.047.054.113.08.178.08.056 0 .11-.018.157-.057l1.714-1.492.816.506c.053.033.112.048.17.048.106 0 .21-.053.272-.15l2.122-3.35 4.062-3.537c.047-.042.076-.1.08-.165.005-.063-.017-.126-.06-.174l-.964-1.083 1.084-1.72c.045-.072.06-.16.04-.243zM11.425 6.37l1.034.64-3.193 2.782 2.16-3.422zm-5.982 9.484l.97-1.538 4.246 4.77-5.216-3.232zM20.54 25.21l-.377-.234 1.163-1.013-.786 1.247zm-2.733 1.188L6.067 13.212l8.796-7.662 5.846 6.565.005.013.014.008 5.876 6.6L17.81 26.4zm7.903-9.384l-3.56-3.997 4.372 2.708-.812 1.29zm-9.974-6.197c-.087-.098-.236-.107-.334-.02l-4.033 3.512c-.05.04-.078.1-.082.163-.004.064.018.126.06.174l3.863 4.34c.088.1.237.108.335.022l.94-.82 1.66 1.865c.048.053.114.08.18.08.055 0 .11-.02.156-.058l2.916-2.54c.047-.042.077-.1.082-.165.004-.063-.018-.126-.06-.174l-5.68-6.38zm2.61 8.744l-1.66-1.864c-.047-.053-.113-.08-.178-.08-.056 0-.11.02-.157.058l-.94.82-3.546-3.985 3.673-3.2 5.364 6.024-2.554 2.226zm4.604-.332c.023.026.056.04.09.04.027 0 .056-.01.078-.03.05-.044.054-.12.01-.168l-1.296-1.456c-.043-.05-.12-.054-.17-.01-.048.044-.053.12-.01.168l1.298 1.456zm-1.018-2.146c.028 0 .056-.01.078-.03l.914-.796c.05-.043.055-.12.01-.168-.042-.05-.117-.055-.167-.01l-.914.795c-.05.043-.055.12-.01.168.023.03.055.042.09.042zm-6.63-6.445c.022.026.055.04.088.04.028 0 .057-.01.08-.03.048-.043.053-.12.01-.168L14.18 9.02c-.043-.05-.12-.054-.168-.01-.05.044-.054.12-.01.168l1.297 1.457zm-3.97 3.455l-1.3-1.458c-.042-.05-.118-.054-.167-.01-.05.044-.054.12-.01.168l1.298 1.458c.023.026.056.04.09.04.027 0 .056-.01.078-.03.05-.044.055-.12.01-.168zm4.813-3.51c.028 0 .056-.01.078-.03l.914-.796c.05-.043.055-.12.01-.168-.042-.05-.117-.055-.167-.01l-.914.796c-.05.043-.055.12-.01.168.023.027.056.04.09.04zm2.542 9.77c-.043-.048-.12-.053-.168-.01-.05.045-.055.12-.01.17l1.296 1.455c.023.026.056.04.09.04.027 0 .056-.01.078-.03.05-.044.054-.12.01-.168l-1.297-1.457zm-.77-.048l-.915.796c-.05.043-.055.118-.012.168.023.027.057.04.09.04.028 0 .056-.01.078-.03l.915-.795c.05-.043.055-.118.012-.168-.043-.05-.12-.054-.168-.01zm-3.036-1.19l-.914.796c-.05.043-.055.12-.012.168.023.027.057.04.09.04.028 0 .056-.01.078-.03l.915-.796c.05-.043.055-.12.012-.168-.044-.05-.12-.054-.17-.01zm-3.865-4.342l-.914.797c-.048.042-.054.118-.01.167.024.027.057.04.09.04.028 0 .056-.01.078-.03l.914-.796c.05-.042.055-.118.01-.167-.042-.05-.116-.054-.167-.01z"/></svg>