<svg xmlns="http://www.w3.org/2000/svg" width="32" height="32" viewBox="0 0 32 32"><path d="M25.924 15.746l-1.59-2.922c-.04-.073-.108-.126-.188-.15-.08-.022-.166-.01-.238.033l-4.186 2.48c-.143.084-.193.267-.11.413l2.193 3.922h-2.37l.01-1.25c0-.15 0-.293-.19-.42-.16-.106-.37-.092-.556.045-.03.022-.057.05-.077.082l-2.417 3.79c-.064.1-.064.23 0 .33l2.417 3.792c.02.032.046.06.076.082.103.077.21.116.32.116.084 0 .165-.024.235-.07.19-.128.19-.27.19-.423l-.01-1.247h1.737c1.832 0 2.43-1.038 2.46-1.09l2.184-4.2c0-.002 0-.005.002-.007 0-.003.004-.005.005-.007.865-1.906.13-3.247.102-3.3zm-2.834 7.222c-.004.007-.467.767-1.92.767h-2.047c-.082 0-.16.033-.218.09-.058.06-.09.138-.09.22l.01 1.027-2-3.137 2-3.137-.008 1.028c0 .082.03.16.09.218.057.058.135.09.217.09h4.237c.176 0 .746-.015 1.31-.203l-1.58 3.038zm2.178-4.188c-.31.586-1.382.742-1.918.742h-.842l-2.216-3.96 3.656-2.166 1.44 2.646c.025.045.604 1.136-.12 2.738zm-10.674.172l-4.552-.007 1.24-2.135 1.137.794c.092.054.165.098.272.098.087 0 .15-.032.186-.05.175-.083.267-.27.244-.498-.004-.038-.014-.074-.03-.107l-2.083-4.158c-.057-.112-.173-.175-.296-.17l-4.537.313c-.034.002-.067.01-.098.023-.212.09-.332.258-.323.456.014.23.135.302.265.378.01.006.02.012.032.017l1.064.467-.852 1.482c-.24.41-.4.822-.475 1.225v.004c-.16.876.427 1.86.454 1.907l2.22 3.55v.004s.002 0 .003.002l.007.01c1.2 1.714 2.728 1.763 2.788 1.763l3.32.113h.01c.08 0 .156-.03.213-.086.06-.058.094-.137.094-.22l-.002-4.866c0-.168-.136-.305-.305-.305zM6.4 17.165c.062-.325.195-.662.396-1.002L7.82 14.38c.044-.075.054-.165.027-.248-.027-.083-.088-.15-.168-.185l-.8-.35 3.674-.254 1.7 3.397-.894-.624c-.07-.05-.158-.066-.242-.048-.084.02-.156.07-.2.145L9.332 18.95h-.003c-.453 0-1.586-.057-2.306-.573-.413-.297-.616-.693-.62-1.21zm7.886 6.64l-3.006-.102c-.052-.002-1.29-.056-2.295-1.488L7.037 19.1c.1.05.2.094.303.134h.003c.11.044.224.08.338.114l.114.03c.077.02.154.04.23.055.044.01.086.017.13.025.07.013.14.025.21.035l.125.018c.067.01.133.017.198.023l.112.01c.07.005.133.01.197.012l.085.005c.087.003.17.005.243.005.083 0 .15-.002.194-.003l.05-.003 4.715.007v4.24zm1.716-11.655c-.02.195.09.37.297.47.03.016.063.026.097.03l4.515.533c.012.002.024.002.036.002.106 0 .206-.055.262-.147l2.28-3.754c.02-.034.034-.07.04-.11.038-.227-.043-.42-.215-.515-.04-.023-.108-.06-.203-.06-.098 0-.168.037-.23.07l-1.195.476-.773-1.557c-.847-1.626-2.044-1.678-2.103-1.68l-4.743.005h-.002-.004c-2.087.112-2.938 1.382-2.97 1.432l-1.857 2.76c-.046.07-.063.155-.045.236.018.082.068.152.138.196l4.133 2.565c.05.03.105.046.16.046.1 0 .198-.048.257-.137l2.456-3.744 1.047 2.055-1.092.458c-.128.067-.26.137-.284.365zm-2.476.28l-3.61-2.243 1.682-2.5c.03-.043.73-1.062 2.485-1.16.704.007 1.35.98 1.542 1.357l.385.757-2.484 3.788zm4.392-.666c.08-.033.14-.097.17-.177.028-.08.023-.17-.015-.245l-1.41-2.77c-.01-.04-.03-.075-.055-.107l-.437-.857c-.02-.04-.312-.613-.798-1.08l3.424-.004c.037.002.9.062 1.57 1.343l.895 1.805c.072.143.242.208.39.148l1.05-.42-1.914 3.15-3.702-.437.833-.35z"/></svg>