<svg xmlns="http://www.w3.org/2000/svg" viewBox="0 0 32 32"><path d="M16 4.52C9.66 4.52 4.52 9.66 4.52 16c0 .17.14.31.31.31s.32-.14.32-.31c0-.86.1-1.7.29-2.51l2.09.56c-.14.63-.22 1.28-.22 1.95 0 1.58.42 3.06 1.16 4.34.09.15.28.2.43.12l.03-.02c.15-.09.2-.28.12-.43-.03-.05-.06-.08-.1-.11-.65-1.16-1.01-2.49-1.01-3.9 0-1.36.33-2.64.93-3.76l2.14 1.24c.15.09.34.03.43-.11.09-.15.03-.34-.11-.43l-2.42-1.4c-.15-.09-.34-.03-.43.11v.01c-.32.56-.59 1.16-.78 1.79l-2.1-.56c.49-1.64 1.36-3.12 2.51-4.34l3.72 3.72s0 .01.01.01c.12.12.32.12.44 0 .33-.32.69-.61 1.09-.84.1-.06.15-.16.16-.26 0-.06-.01-.11-.04-.17l-1.24-2.14c.52-.28 1.09-.5 1.67-.65.17-.05.27-.22.22-.38-.05-.17-.22-.27-.38-.22-.74.2-1.45.49-2.09.87-.15.09-.2.28-.11.43v.01l1.24 2.15c-.26.17-.5.35-.73.56L8.55 8.11C10.5 6.27 13.12 5.15 16 5.15c1.86 0 3.62.47 5.15 1.3l-1.23 2.14v.01c-.03.05-.04.11-.04.17 0 .1.06.2.16.26h.01c.61.35 1.17.78 1.66 1.28.12.12.32.12.44 0s.12-.32 0-.44c-.46-.46-.98-.87-1.53-1.22l1.08-1.88c.72.45 1.38.97 1.98 1.57 1.25 1.26 2.2 2.82 2.73 4.56l-2.39.64c-.17.05-.26.22-.22.38.05.17.22.27.38.22l2.39-.64c.19.8.29 1.64.29 2.51 0 .86-.1 1.7-.29 2.51l-2.09-.56c.14-.63.22-1.28.22-1.95 0-.17-.14-.31-.31-.31s-.31.14-.31.31c0 .61-.07 1.21-.2 1.78l-2.39-.64c-.17-.04-.34.05-.38.22-.24.91-.72 1.72-1.36 2.36-.12.12-.12.32 0 .44s.32.12.44 0c.65-.65 1.15-1.45 1.44-2.34l2.37.63h.02l2.38.64c-.49 1.64-1.36 3.12-2.51 4.34l-1.53-1.53c.44-.48.83-1 1.16-1.57.09-.15.04-.34-.11-.43-.15-.09-.34-.03-.43.11-.35.61-.79 1.17-1.28 1.67-.12.12-.12.32 0 .44l1.75 1.75c-1.22 1.15-2.69 2.02-4.34 2.51l-.56-2.09c.63-.19 1.23-.45 1.79-.78h.01c.03-.02.05-.04.07-.06.09-.1.1-.24.04-.36v-.01l-1.39-2.4v-.01c-.06-.09-.15-.15-.25-.16-.06 0-.12.01-.17.04 0 0-.01 0-.01.01-.4.23-.83.41-1.28.53-.44.11-.89.17-1.35.17-.17 0-.31.14-.31.31s.14.31.31.31c.51 0 1.01-.07 1.5-.19.41-.11.8-.26 1.17-.44l1.09 1.88c-.52.28-1.08.5-1.66.65h-.01-.01c-.66.18-1.36.27-2.08.27-.17 0-.31.14-.31.31s.14.31.31.31c.67 0 1.32-.08 1.94-.22l.56 2.09c-.81.19-1.64.29-2.51.29-1.86 0-3.62-.47-5.15-1.3l1.08-1.88c.57.3 1.18.55 1.82.72.17.05.34-.05.38-.22.04-.17-.05-.34-.22-.38-1.28-.34-2.44-1-3.39-1.87l1.75-1.75c.12-.12.12-.32 0-.44-.57-.57-1.01-1.28-1.28-2.06l2.39-.64c.17-.04.26-.22.22-.38-.05-.2-.08-.42-.08-.64 0-1.37 1.11-2.48 2.48-2.48 1.37 0 2.48 1.11 2.48 2.48 0 1.37-1.11 2.48-2.48 2.48-.22 0-.44-.03-.64-.08-.08-.02-.16-.01-.22.02-.08.04-.14.11-.16.2L14.34 21c-.34-.11-.67-.26-.97-.44-.15-.09-.34-.03-.43.11-.09.15-.03.34.11.43.44.25.92.45 1.42.59.07.02.14.01.2-.01.09-.04.16-.11.19-.21l.65-2.41c.16.03.33.04.5.04 1.71 0 3.1-1.39 3.1-3.1 0-.74-.26-1.43-.7-1.96l1.54-1.54c.83.93 1.33 2.15 1.33 3.5 0 .17.14.31.31.31.17 0 .31-.14.31-.31 0-.96-.23-1.87-.64-2.67l2.15-1.24c.15-.09.2-.28.11-.43-.09-.15-.28-.2-.43-.11l-2.15 1.24c-.23-.34-.48-.66-.77-.95-.12-.12-.32-.12-.44 0l-1.76 1.76c-.26-.21-.55-.38-.86-.5l1.37-5.11c.02-.06.01-.12-.01-.18-.03-.09-.11-.17-.21-.2-.73-.19-1.48-.29-2.26-.29-.17 0-.31.14-.31.31s.14.31.31.31c.61 0 1.21.07 1.78.2l-1.28 4.8c-.16-.03-.33-.04-.5-.04-.17 0-.34.01-.5.04l-.65-2.41c-.05-.17-.22-.27-.38-.22-.17.04-.27.22-.22.38l.64 2.41c-.83.31-1.49.97-1.8 1.8l-2.41-.64c-.17-.05-.34.05-.38.22-.04.17.05.34.22.38l2.41.65c-.03.16-.04.33-.04.5 0 .17.01.33.04.5l-2.41.65c-.1.03-.17.1-.21.19-.02.06-.03.13-.01.2.24.91.7 1.74 1.31 2.42L9.86 21.7c-.06.06-.09.14-.09.22 0 .08.03.16.09.22.46.46.98.87 1.53 1.22l-1.08 1.88c-2.32-1.44-4.07-3.72-4.79-6.43-.05-.17-.22-.26-.38-.22-.17.04-.26.22-.22.38 1.31 4.9 5.78 8.5 11.09 8.5 6.34 0 11.47-5.14 11.47-11.47 0-6.33-5.14-11.47-11.48-11.48zm-1.93 11.5c0 .17.14.31.31.31h.91l-.64.64c-.12.12-.12.31 0 .43.06.06.14.09.22.09s.16-.03.22-.09l.64-.64v.91c0 .17.14.31.31.31s.31-.14.31-.31v-.91l.64.64c.06.06.14.09.22.09s.16-.03.22-.09c.12-.12.12-.31 0-.43l-.64-.64h.91c.17 0 .31-.14.31-.31 0-.17-.14-.31-.31-.31h-.91l.64-.64c.12-.12.12-.31 0-.43s-.31-.12-.43 0l-.64.64v-.9c0-.17-.14-.31-.31-.31s-.31.14-.31.31v.9l-.64-.64c-.12-.12-.31-.12-.43 0s-.12.31 0 .43l.64.64h-.9c-.21 0-.34.14-.34.31z"/></svg>