<svg xmlns="http://www.w3.org/2000/svg" width="32" height="32" viewBox="0 0 32 32"><path d="M22.78 19.877c0-.406-.33-.736-.735-.736-.353 0-.65.25-.72.584h-1.573c-.06-.283-.283-.506-.567-.567V17.34c.333-.072.583-.367.583-.72 0-.407-.33-.737-.736-.737s-.736.33-.736.736c0 .352.25.648.583.72v1.817c-.284.06-.507.283-.568.567h-1.654c-.07-.333-.366-.583-.72-.583-.406 0-.736.33-.736.737 0 .353.25.65.583.72v1.857c-.333.07-.583.366-.583.72 0 .406.33.736.736.736.406 0 .736-.33.736-.736 0-.353-.25-.65-.583-.72v-1.857c.284-.06.507-.283.568-.567h1.654c.06.283.283.506.567.567v1.857c-.334.07-.584.366-.584.72 0 .406.33.736.736.736s.736-.33.736-.736c0-.353-.25-.65-.583-.72v-1.857c.283-.06.506-.283.567-.567h1.573c.06.283.283.506.567.567v1.857c-.333.07-.583.366-.583.72 0 .406.33.736.735.736s.736-.33.736-.736c0-.353-.25-.65-.582-.72v-1.857c.333-.07.583-.367.583-.72zm-6.412 3.296c0 .237-.193.43-.43.43s-.43-.193-.43-.43.193-.43.43-.43.43.193.43.43zm-.43-2.867c-.236 0-.43-.193-.43-.43s.194-.43.43-.43.43.193.43.43-.192.43-.43.43zm2.664-3.687c0-.238.193-.43.43-.43s.43.192.43.43-.193.43-.43.43-.43-.194-.43-.43zm.86 6.553c0 .237-.193.43-.43.43s-.43-.193-.43-.43.193-.43.43-.43.43.193.43.43zm-.43-2.867c-.236 0-.43-.193-.43-.43s.194-.43.43-.43.43.193.43.43-.192.43-.43.43zm3.443 2.867c0 .237-.193.43-.43.43s-.43-.193-.43-.43.193-.43.43-.43.43.193.43.43zm-.43-2.867c-.237 0-.43-.193-.43-.43s.193-.43.43-.43.43.193.43.43-.193.43-.43.43zm3.675-8.1C24.822 9.274 22.085 7.24 19 7.24c-3.09 0-5.805 2.016-6.712 4.94-.504-.18-1.03-.27-1.57-.27-2.186 0-4.067 1.504-4.563 3.612-1.954.072-3.6 1.43-4.036 3.35-.02.088 0 .18.056.248.055.07.14.11.227.11h10.05c-.044.312-.07.63-.07.955 0 3.665 2.983 6.647 6.647 6.647 3.666 0 6.648-2.982 6.648-6.647 0-.325-.025-.643-.07-.955h4.39c.142 0 .263-.102.287-.242.062-.357.092-.685.092-1.004 0-2.79-1.948-5.19-4.658-5.774zm-6.688 14.01c-3.327 0-6.034-2.706-6.034-6.033s2.706-6.034 6.034-6.034c3.327 0 6.035 2.706 6.035 6.033s-2.707 6.034-6.035 6.034zm10.717-7.57h-4.252c-.696-2.927-3.33-5.11-6.466-5.11-3.135 0-5.77 2.183-6.465 5.11h-9.78c.5-1.515 1.904-2.543 3.55-2.543h.002l.044.002c.148.014.268-.098.294-.24.354-1.953 2.053-3.37 4.04-3.37.532 0 1.05.105 1.54.304.305.147.955.523 1.356 1.197.048.08.138.12.226.103.025-.005.05-.013.074-.028.104-.062.138-.196.076-.3-.346-.58-.837-.96-1.21-1.187.758-2.806 3.305-4.762 6.22-4.762 2.802 0 5.272 1.79 6.12 4.44-.753-.004-1.312.268-1.345.282-.11.046-.165.174-.118.286.046.112.174.166.285.12.008-.004.78-.31 1.655-.165 2.44.527 4.198 2.685 4.198 5.198 0 .213-.015.432-.046.664z"/></svg>