<svg xmlns="http://www.w3.org/2000/svg" width="32" height="32" viewBox="0 0 32 32"><path d="M16.058 16.03c0 .233.19.422.422.422s.422-.19.422-.422c0-.233-.19-.422-.422-.422-.233 0-.422.19-.422.422zm-1.4-.422v.01c0 .234.19.423.422.423.233 0 .422-.188.422-.42v-.013-.01c0-.234-.19-.423-.422-.423-.233 0-.422.19-.422.422v.012zm2.76 0v.005c0 .233.188.422.42.422.234 0 .423-.19.423-.422v-.005-.005c0-.233-.188-.422-.42-.422-.234 0-.423.19-.423.423v.005zm.842-1.06v.013c0 .234.19.423.422.423.233 0 .422-.19.422-.422v-.012-.012c0-.233-.19-.422-.422-.422-.233 0-.422.19-.422.422v.013zm.536-1.226v.005c0 .233.19.422.422.422.233 0 .422-.19.422-.423v-.005-.005c0-.233-.19-.422-.422-.422-.233 0-.422.19-.422.422v.005zm-4.98 1.226v.005c0 .233.188.422.42.422.234 0 .423-.19.423-.422v-.005-.005c0-.233-.19-.422-.423-.422-.233 0-.422.19-.422.423v.005zm-.422-1.226v.013c0 .233.19.422.422.422.233 0 .422-.19.422-.422v-.013-.012c0-.233-.19-.422-.422-.422-.233 0-.422.19-.422.422v.013zm3.085-2.216c2.345 0 4.254-1.91 4.254-4.255 0-2.345-1.91-4.254-4.255-4.254-2.347 0-4.255 1.91-4.255 4.255 0 2.347 1.91 4.256 4.254 4.256zm0-7.896c2.007 0 3.64 1.634 3.64 3.642s-1.633 3.642-3.64 3.642c-2.01 0-3.642-1.634-3.642-3.642s1.633-3.642 3.64-3.642zm2.333 8.72h-4.667c-4.338 0-6.726 2.39-6.726 6.727v3.747c0 2.124 1.41 3.16 2.905 4.26l.198.147v1.707c0 .075.027.147.077.203.292.332 1.58 1.413 5.88 1.413s5.587-1.08 5.88-1.413c.05-.056.077-.128.077-.203V26.81l.197-.145c1.495-1.098 2.907-2.137 2.907-4.26v-3.748c0-4.338-2.388-6.726-6.726-6.726zm6.113 10.474c0 1.814-1.23 2.72-2.655 3.766v-7.807c0-.148-.12-.268-.267-.268s-.268.12-.268.268v10.1c-.44.347-1.768 1.056-5.255 1.056-3.616 0-4.91-.762-5.3-1.092.007-.024.015-.048.015-.075v-9.99c0-.148-.12-.268-.268-.268s-.268.12-.268.268v7.786c-1.413-1.04-2.627-1.945-2.627-3.746v-3.747c0-2.79 1.06-6.114 6.113-6.114h4.667c5.053 0 6.114 3.325 6.114 6.114v3.747z"/></svg>