<svg xmlns="http://www.w3.org/2000/svg" viewBox="0 0 300 300"><path d="M101.2 105.9c12.2 0 21.6-9.4 21.6-21.6s-9.4-21.6-21.6-21.6-21.6 9.4-21.6 21.6c.1 11.3 9.5 21.6 21.6 21.6zm0-38.4c8.4 0 15.9 7.5 15.9 15.9s-7.5 15.9-15.9 15.9-15.9-7.5-15.9-15.9 7.5-15.9 15.9-15.9z"/><path d="M231.6 161.2H225c-2.8-16.9-14.1-50.6-20.6-60.9-.9-.9-1.9-1.9-2.8-.9l-4.7.9c0-.9-22.5-47.8-26.2-55.3-3.7-7.5-10.3-8.4-16.9-8.4h-12.2c-1.9 0-2.8.9-2.8 2.8s.9 2.8 2.8 2.8h12.2c6.6 0 10.3.9 12.2 4.7 2.8 6.6 22.5 46.9 25.3 54.4l-16.9 2.8V92.8c0-1.9-.9-2.8-2.8-2.8h-11.3c-1.9 0-2.8.9-2.8 2.8v46.9c0 1.9.9 2.8 2.8 2.8h8.4v17.8h-13.1c.9-1.9.9-2.8.9-4.7 0-5.6-5.6-10.3-13.1-10.3h-18.8v-12.2c0-12.2-9.4-21.6-21.6-21.6s-21.6 9.4-21.6 21.6v15c-.9 0-1.9-.9-2.8-.9-4.7 0-8.4 3.8-8.4 8.4v31.9c0 9.4 3.8 15 6.6 20.6 2.8 3.8 4.7 7.5 4.7 12.2v45c0 1.9.9 2.8 2.8 2.8h9.4c1.9 0 2.8-.9 2.8-2.8v-43.1c0-.9 0-.9.9-.9h33.7v40.3c0 3.8 2.8 6.6 6.6 6.6h93.8c3.8 0 6.6-2.8 6.6-6.6v-93.7c0-3.8-3.7-6.7-6.5-6.7zm-68.5-24.3V95.6h5.6v41.2h-5.6zm11.3 2.8v-30l25.3-4.7c5.6 10.3 15.9 39.4 18.8 56.2h-44.1v-21.5zm-44.1 28.1V180h-5.6c-.9 0-.9 0-.9-.9v-12.2h6.6c-.1 0-.1 0-.1.9zm-44.1-34.7c0-8.4 7.5-15.9 15.9-15.9s15.9 7.5 15.9 15.9v12.2h-5.6c-1.9 0-2.8.9-2.8 2.8s.9 2.8 2.8 2.8h30.9c3.8 0 7.5 1.9 7.5 4.7 0 4.7-2.8 4.7-2.8 4.7h-41.2c-5.6 0-9.4-4.7-9.4-9.4v-17.8c0-1.9-.9-2.8-2.8-2.8s-2.8.9-2.8 2.8v17.8c0 8.4 6.6 15 15 15H119v12.2c0 3.8 2.8 6.6 6.6 6.6h5.6v17.8h-28.1c-9.4 0-16.9-7.5-16.9-15.9v-53.5zm11.3 82.5c-3.8 0-6.6 2.8-6.6 6.6v40.3h-4.7v-42.2c0-6.6-2.8-11.2-5.6-15.9-2.8-4.7-5.6-9.4-5.6-16.9v-31.9c0-1.9.9-2.8 2.8-2.8s2.8.9 2.8 2.8v31.9c0 12.2 10.3 21.6 22.5 21.6h27.2v6.6H97.5zm135 46c0 .9-.9.9 0 0l-95.6.9c-.9 0-.9 0-.9-.9v-93.8c0-.9 0-.9.9-.9h93.8c.9 0 .9 0 .9.9v93.8h.9z"/></svg>