<svg data-name="Layer 1" xmlns="http://www.w3.org/2000/svg" viewBox="0 0 36 36"><title>Icon-Red_Hat-Virtual_Storage-A-Black-RGB</title><path d="M27.75 18v-2.5c0-1.612-1.07-3.05-2.825-4.084A13.844 13.844 0 0 0 18 9.75a13.844 13.844 0 0 0-6.925 1.666C9.32 12.45 8.25 13.888 8.25 15.5v5c0 1.612 1.07 3.05 2.825 4.084A13.844 13.844 0 0 0 18 26.25a13.844 13.844 0 0 0 6.925-1.666c1.754-1.034 2.825-2.472 2.825-4.084zm-1.5 2.5c0 1.152-.944 2.214-2.448 2.99A13 13 0 0 1 18 24.75a13 13 0 0 1-5.8-1.26c-1.5-.776-2.448-1.838-2.448-2.99v-1.9a7.49 7.49 0 0 0 1.325.988A13.844 13.844 0 0 0 18 21.25a13.844 13.844 0 0 0 6.925-1.666 7.49 7.49 0 0 0 1.325-.984zm-2.45-2.01a13 13 0 0 1-5.8 1.26 13 13 0 0 1-5.8-1.26c-1.5-.776-2.448-1.838-2.448-2.99s.944-2.214 2.448-2.99a13 13 0 0 1 5.8-1.26 13 13 0 0 1 5.8 1.26c1.5.776 2.448 1.838 2.448 2.99s-.942 2.214-2.448 2.99zM14.18 8.63h.075a.64.64 0 0 0 .075-.01.763.763 0 0 0 .477-.328.76.76 0 0 0-.22-1.04.743.743 0 0 0-.567-.1.732.732 0 0 0-.47.322.77.77 0 0 0-.11.57.76.76 0 0 0 .74.59zM23.445 27.14a.747.747 0 0 0-1.016.3.737.737 0 0 0-.06.57.724.724 0 0 0 .27.394.745.745 0 0 0 .44.146.838.838 0 0 0 .114-.008.767.767 0 0 0 .106-.022.75.75 0 0 0 .446-.364.743.743 0 0 0-.3-1.016zM9.132 10.422a.737.737 0 0 0 .348.088.716.716 0 0 0 .42-.13.76.76 0 0 0 .32-.475.75.75 0 0 0-.11-.565.76.76 0 0 0-.475-.32.747.747 0 0 0-.565.11.758.758 0 0 0-.32.475.748.748 0 0 0 .11.565.728.728 0 0 0 .272.252zM11.322 9.224a.744.744 0 0 0 .558.112 1.105 1.105 0 0 0 .14-.036.752.752 0 1 0-.968-1 .74.74 0 0 0 .27.924zM27.605 24.707a.756.756 0 0 0-.545.183.746.746 0 0 0-.253.515.757.757 0 0 0 .183.545.778.778 0 0 0 .262.194.768.768 0 0 0 .308.066.74.74 0 0 0 .256-.046.716.716 0 0 0 .234-.144.736.736 0 0 0 .252-.51.77.77 0 0 0-.182-.55.748.748 0 0 0-.515-.253zM19.19 8.29a.764.764 0 0 0 .542-.19.75.75 0 0 0 .258-.51.76.76 0 0 0-.71-.8.75.75 0 0 0-.605 1.246.76.76 0 0 0 .515.254zM30 17.83a.745.745 0 0 0-.53.222.765.765 0 0 0-.22.538.734.734 0 0 0 .22.524.756.756 0 0 0 1.06 0 .734.734 0 0 0 .22-.524.765.765 0 0 0-.22-.538.747.747 0 0 0-.53-.222zM29.55 22.87a.734.734 0 0 0-.566-.075.763.763 0 0 0-.454.345.74.74 0 0 0-.074.57.767.767 0 0 0 .354.46.615.615 0 0 0 .177.076.785.785 0 0 0 .193.024.74.74 0 0 0 .37-.1.775.775 0 0 0 .28-.28.73.73 0 0 0 .074-.567.768.768 0 0 0-.354-.453zM29.47 15.51a.744.744 0 1 0 .53-.22.75.75 0 0 0-.53.22zM28.96 13.79a.744.744 0 0 0 .28.366.76.76 0 0 0 .43.134.808.808 0 0 0 .12-.01.59.59 0 0 0 .12-.03.764.764 0 0 0 .43-.386.744.744 0 0 0 .03-.574.74.74 0 0 0-.95-.46.76.76 0 0 0-.43.386.74.74 0 0 0-.03.574zM23.92 9.28a1.123 1.123 0 0 0 .135.036.688.688 0 0 0 .135.014.754.754 0 0 0 .42-.132.733.733 0 0 0 .28-.348.75.75 0 1 0-1.4-.54.734.734 0 0 0 .016.57.764.764 0 0 0 .414.4zM21.6 8.6c.03.005.057.01.084.013a.5.5 0 0 0 .076.007.747.747 0 0 0 .47-.165.735.735 0 0 0 .26-.435.76.76 0 0 0-.58-.89h-.01a.75.75 0 0 0-.77 1.15.734.734 0 0 0 .47.32zM20.5 27.58a.757.757 0 0 0-.5.294.737.737 0 0 0-.144.556.755.755 0 0 0 .74.65.46.46 0 0 0 .054 0 .177.177 0 0 0 .046-.008.768.768 0 0 0 .5-.29.744.744 0 0 0 .153-.55.762.762 0 0 0-.85-.65zM26.05 10.35a.816.816 0 0 0 .2.09.74.74 0 0 0 .558-.058.783.783 0 0 0 .28-.252.77.77 0 0 0 .1-.57.74.74 0 0 0-.32-.47.75.75 0 0 0-.568-.108.733.733 0 0 0-.47.328.742.742 0 0 0-.11.565.76.76 0 0 0 .33.475zM30.05 20.38a.75.75 0 0 0-.664 1.22.744.744 0 0 0 .5.27h.08a.74.74 0 0 0 .74-.67.737.737 0 0 0-.66-.82zM16.7 8.29h.05a.743.743 0 0 0 .69-.8.723.723 0 0 0-.25-.51.743.743 0 0 0-1.06.067.743.743 0 0 0-.18.543.726.726 0 0 0 .232.5.76.76 0 0 0 .518.2zM6.07 14.31a.59.59 0 0 0 .12.03.808.808 0 0 0 .12.01.77.77 0 0 0 .434-.135.715.715 0 0 0 .276-.375.745.745 0 0 0-.04-.57.768.768 0 0 0-.43-.38.756.756 0 0 0-.573.04.74.74 0 0 0-.377.43v.01a.743.743 0 0 0 .47.94zM6.627 21.66a.76.76 0 0 0 .153-.56.72.72 0 0 0-.276-.5.757.757 0 0 0-.554-.152.743.743 0 0 0-.65.83h-.01a.764.764 0 0 0 .75.66h.09a.74.74 0 0 0 .497-.28zM28.87 11.93a.748.748 0 0 0-.435-1.31.745.745 0 0 0-.545.18.752.752 0 0 0 .49 1.32.738.738 0 0 0 .26-.046.72.72 0 0 0 .23-.144zM6 19.4a.75.75 0 1 0-.53-.218.752.752 0 0 0 .53.218zM25.672 26.15a.752.752 0 0 0-.892 1.06.7.7 0 0 0 .28.3.8.8 0 0 0 .56.085.623.623 0 0 0 .17-.062.74.74 0 0 0 .37-.438.755.755 0 0 0-.05-.572.738.738 0 0 0-.438-.373zM13.19 27.1a.743.743 0 0 0-.574.06.76.76 0 0 0-.3 1.02.76.76 0 0 0 .45.36.785.785 0 0 0 .105.022.72.72 0 0 0 .548-.142.74.74 0 0 0 .214-.964.72.72 0 0 0-.442-.356zM15.56 27.59a.748.748 0 0 0-.55.152.768.768 0 0 0-.29.5.748.748 0 0 0 .152.55.773.773 0 0 0 .5.29.25.25 0 0 1 .046.005.415.415 0 0 0 .054 0 .745.745 0 0 0 .49-.186.757.757 0 0 0-.4-1.313zM6 16.86a.755.755 0 1 0-.53-.22.75.75 0 0 0 .53.22zM18.06 27.75H18a.75.75 0 0 0 0 1.5h.07a.75.75 0 0 0 .527-1.283.76.76 0 0 0-.537-.217zM7.32 12.125a.723.723 0 0 0 .25.045.783.783 0 0 0 .315-.066.708.708 0 0 0 .255-.194.765.765 0 0 0 .18-.55.752.752 0 0 0-.805-.688.762.762 0 0 0-.515.258.758.758 0 0 0 .32 1.2zM10.95 26.23a.742.742 0 0 0-.573-.045.744.744 0 0 0-.477.946.724.724 0 0 0 .38.43.63.63 0 0 0 .16.067.66.66 0 0 0 .17.023.733.733 0 0 0 .39-.113.762.762 0 0 0 .28-.307.738.738 0 0 0 .044-.57.73.73 0 0 0-.374-.43zM8.985 24.93a.73.73 0 0 0-.54-.178.752.752 0 0 0-.69.806.754.754 0 0 0 .49.647.76.76 0 0 0 .567-.02.772.772 0 0 0 .263-.195.74.74 0 0 0 .177-.545.76.76 0 0 0-.257-.515zM7.04 22.85a.75.75 0 0 0-.83 1.11.738.738 0 0 0 .28.275.766.766 0 0 0 .37.095.67.67 0 0 0 .193-.03.854.854 0 0 0 .187-.08.753.753 0 0 0 .34-.458.736.736 0 0 0-.08-.562.75.75 0 0 0-.46-.35z"/></svg>