<svg data-name="Layer 1" xmlns="http://www.w3.org/2000/svg" viewBox="0 0 36 36"><title>Icon-Red_Hat-Virtual_server_secured-A-Black-RGB</title><path d="M25.75 16a.75.75 0 0 0 1.5 0v-2a.75.75 0 0 0-.75-.75h-20a.75.75 0 0 0-.75.75v5a.75.75 0 0 0 .75.75h17a.75.75 0 0 0 0-1.5H7.25v-3.5h18.5V16zM33.11 18.563a.763.763 0 0 0-.373-.274l-1.5-.5-1.5-.5a.768.768 0 0 0-.237-.04.78.78 0 0 0-.238.04l-1.5.5-1.5.5a.757.757 0 0 0-.37.273.746.746 0 0 0-.142.437v3a3.75 3.75 0 0 0 7.5 0v-3a.753.753 0 0 0-.14-.437z"/><path d="M24.33 15.97a.737.737 0 0 0-.114-.1.488.488 0 0 0-.136-.065.707.707 0 0 0-.428-.044.75.75 0 0 0-.545 1.022.764.764 0 0 0 .163.243.753.753 0 0 0 .53.22.683.683 0 0 0 .144-.015.7.7 0 0 0 .136-.045.824.824 0 0 0 .136-.07.66.66 0 0 0 .114-.09.693.693 0 0 0 .09-.113.91.91 0 0 0 .07-.127.888.888 0 0 0 .045-.145.7.7 0 0 0 .015-.145.753.753 0 0 0-.22-.53zM10.45 15.75h-1.5a.75.75 0 0 0 0 1.5h3a.75.75 0 0 0 0-1.5zM24.03 21.47a.754.754 0 0 0-.384-.2.736.736 0 0 0-.436.044.5.5 0 0 0-.128.065.772.772 0 0 0-.112.094.748.748 0 0 0 0 1.06.687.687 0 0 0 .112.09.922.922 0 0 0 .128.07.682.682 0 0 0 .14.045.746.746 0 0 0 .15.014.736.736 0 0 0 .287-.058.745.745 0 0 0 .405-.405.75.75 0 0 0-.162-.816zM8.5 21.25a.748.748 0 1 0 .53.217.75.75 0 0 0-.53-.217zM11 21.25a.743.743 0 1 0 .532.217.75.75 0 0 0-.532-.217zM18.5 21.25a.748.748 0 1 0 .53.217.75.75 0 0 0-.53-.217zM13.5 21.25a.748.748 0 1 0 .53.217.75.75 0 0 0-.53-.217zM16 21.25a.748.748 0 1 0 .53.217.748.748 0 0 0-.53-.217zM6 21.25a.748.748 0 1 0 .53.217.748.748 0 0 0-.53-.217zM21 21.25a.743.743 0 1 0 .532.217.75.75 0 0 0-.532-.217zM4.03 21.47a.78.78 0 0 0-.113-.095.492.492 0 0 0-.127-.065.737.737 0 0 0-.436-.044.754.754 0 0 0-.384.2.687.687 0 0 0-.09.112.827.827 0 0 0-.07.128.682.682 0 0 0-.045.14.746.746 0 0 0-.015.154.753.753 0 0 0 .057.287.764.764 0 0 0 .163.243.753.753 0 0 0 .53.22.73.73 0 0 0 .148-.015.69.69 0 0 0 .142-.045.91.91 0 0 0 .127-.07.693.693 0 0 0 .113-.09.745.745 0 0 0 .162-.243.75.75 0 0 0-.162-.817zM3.5 15.75a.748.748 0 1 0 .53.217.75.75 0 0 0-.53-.217zM3.5 18.5a.748.748 0 1 0 .53.217.75.75 0 0 0-.53-.217zM3.5 13a.748.748 0 1 0 .53.217A.75.75 0 0 0 3.5 13zM4.03 10.47a.78.78 0 0 0-.113-.1.492.492 0 0 0-.127-.065.73.73 0 0 0-.58 0 .5.5 0 0 0-.128.065.772.772 0 0 0-.112.1.687.687 0 0 0-.09.112.827.827 0 0 0-.07.128.682.682 0 0 0-.045.14.746.746 0 0 0-.015.15.753.753 0 0 0 .057.287.764.764 0 0 0 .163.243.687.687 0 0 0 .112.09.922.922 0 0 0 .128.07.682.682 0 0 0 .14.045.746.746 0 0 0 .15.015.73.73 0 0 0 .148-.015.69.69 0 0 0 .142-.045.91.91 0 0 0 .127-.07.677.677 0 0 0 .2-.2.91.91 0 0 0 .07-.126.888.888 0 0 0 .044-.145.7.7 0 0 0 .02-.15.753.753 0 0 0-.22-.53zM21.7 11.75a.755.755 0 1 0-.53-.22.75.75 0 0 0 .53.22zM26.9 11.75a.755.755 0 1 0-.53-.22.75.75 0 0 0 .53.22zM24.3 11.75a.755.755 0 1 0-.53-.22.75.75 0 0 0 .53.22zM8.7 11.75a.755.755 0 1 0-.53-.22.75.75 0 0 0 .53.22zM11.3 11.75a.755.755 0 1 0-.53-.22.75.75 0 0 0 .53.22zM6.1 11.75a.755.755 0 1 0-.53-.22.745.745 0 0 0 .53.22zM19.1 11.75a.748.748 0 1 0-.533-.22.746.746 0 0 0 .533.22zM16.5 11.75a.755.755 0 1 0-.53-.22.75.75 0 0 0 .53.22zM13.9 11.75a.755.755 0 1 0-.53-.22.75.75 0 0 0 .53.22zM28.81 11.29a.817.817 0 0 0 .07.127.69.69 0 0 0 .2.2.922.922 0 0 0 .127.07.682.682 0 0 0 .14.044.746.746 0 0 0 .15.016.73.73 0 0 0 .148-.015.69.69 0 0 0 .142-.044.91.91 0 0 0 .127-.07.677.677 0 0 0 .2-.2.91.91 0 0 0 .07-.126.888.888 0 0 0 .044-.145.7.7 0 0 0 .022-.145.753.753 0 0 0-.22-.53.78.78 0 0 0-.113-.1.492.492 0 0 0-.127-.065.705.705 0 0 0-.286-.06.758.758 0 0 0-.294.06.5.5 0 0 0-.128.065.772.772 0 0 0-.112.1.687.687 0 0 0-.09.112.827.827 0 0 0-.07.128.682.682 0 0 0-.045.14.746.746 0 0 0-.015.15.7.7 0 0 0 .015.145.888.888 0 0 0 .045.145zM29.5 15.227a.755.755 0 1 0-.53-.22.75.75 0 0 0 .53.22z"/></svg>