<svg xmlns="http://www.w3.org/2000/svg" viewBox="0 0 32 32"><path d="M16 18.77c-.42 0-.77.36-.77.79 0 .42.35.77.77.77s.77-.35.77-.77c0-.43-.35-.79-.77-.79zm.36-1.76l.29-1.64v-3.62h-1.31v3.62l.29 1.64h.73zm8.29 5.22H7.35L16 7.25l8.65 14.98zm-9.73-10.69c0-.12.09-.21.21-.21h1.73c.12 0 .21.09.21.21v3.89l-.33 1.83c-.02.1-.1.17-.21.17h-1.08c-.1 0-.19-.07-.21-.17l-.33-1.83v-.04c.01 0 .01-3.85.01-3.85zm1.08 9.2c-.66 0-1.19-.53-1.19-1.19 0-.65.55-1.2 1.19-1.2s1.19.55 1.19 1.2c0 .66-.53 1.19-1.19 1.19zM6.77 22.9H25.24c.19 0 .33-.15.33-.33 0-.08-.03-.16-.08-.22l-9.2-15.93c-.12-.21-.46-.21-.58 0L6.48 22.4c-.06.1-.06.23 0 .33.06.11.17.17.29.17z"/></svg>