<svg xmlns="http://www.w3.org/2000/svg" width="32" height="32" viewBox="0 0 32 32"><path d="M25.924 15.746l-1.59-2.922c-.04-.073-.108-.126-.188-.15-.08-.02-.166-.01-.238.033l-4.186 2.48c-.143.084-.193.267-.11.413l2.193 3.922h-2.372l.01-1.25c0-.15 0-.293-.19-.42-.16-.106-.37-.092-.555.045-.03.022-.056.05-.076.082l-2.417 3.79c-.064.1-.064.23 0 .33l2.417 3.792c.02.032.046.06.076.082.104.077.21.116.32.116.085 0 .166-.025.236-.07.19-.128.19-.27.19-.423l-.01-1.247h1.737c1.833 0 2.432-1.038 2.46-1.09l2.185-4.2c0-.002 0-.005.002-.007l.006-.007c.865-1.906.132-3.246.102-3.3zm-2.834 7.222c-.004.007-.467.767-1.92.767h-2.047c-.082 0-.16.032-.218.09-.058.058-.09.137-.09.218l.01 1.028-2-3.136 2-3.137-.008 1.028c0 .082.03.16.09.218.057.058.135.09.217.09h4.237c.176 0 .746-.015 1.31-.203l-1.58 3.037zm2.178-4.188c-.31.586-1.382.742-1.918.742h-.842l-2.216-3.96 3.656-2.166 1.44 2.645c.025.047.605 1.138-.12 2.74zm-10.674.172l-4.552-.007 1.24-2.135 1.137.794c.092.055.165.098.272.098.087 0 .15-.032.186-.05.175-.083.267-.27.244-.498-.004-.038-.014-.074-.03-.107l-2.083-4.158c-.057-.112-.173-.175-.296-.17l-4.537.313c-.034.002-.067.01-.098.023-.212.09-.332.258-.323.456.013.23.135.302.265.378.01.006.02.012.032.017l1.064.467-.852 1.482c-.24.41-.4.822-.475 1.225v.004c-.16.876.427 1.86.454 1.907l2.22 3.55v.004s.002 0 .003.002l.007.01c1.2 1.714 2.728 1.762 2.788 1.763l3.32.112h.01c.08 0 .156-.03.213-.085.06-.058.094-.137.094-.22l-.002-4.866c0-.168-.136-.305-.305-.305zM6.4 17.165c.062-.325.195-.662.396-1.002l1.024-1.78c.043-.077.053-.167.026-.25-.027-.083-.088-.15-.168-.185l-.798-.35 3.673-.254 1.7 3.397-.894-.623c-.07-.05-.16-.066-.243-.048-.084.018-.156.07-.2.145L9.33 18.95h-.004c-.453 0-1.586-.056-2.306-.572-.414-.297-.617-.693-.622-1.212zm7.886 6.64l-3.006-.102c-.052 0-1.29-.056-2.295-1.488L7.037 19.1c.1.05.2.095.303.135h.003c.11.044.224.08.338.114l.114.028c.077.02.154.04.23.056.044.01.086.017.13.025.07.013.14.024.208.034l.126.018c.068.008.134.016.2.022l.11.01c.07.005.134.01.198.012l.085.005c.088.004.17.006.244.006.083 0 .15-.002.194-.003l.05-.003 4.716.008v4.24zM9.323 10.54l4.132 2.567c.05.03.106.046.162.046.1 0 .198-.05.257-.138L16.33 9.27l1.047 2.057-1.092.458c-.128.067-.262.136-.284.364-.02.194.09.37.298.47.03.015.064.025.098.03l4.515.532c.013.002.025.002.037.002.106 0 .206-.055.262-.147l2.28-3.754c.02-.034.033-.07.04-.11.037-.227-.044-.42-.216-.515-.04-.022-.108-.06-.204-.06-.097 0-.168.038-.23.07l-1.195.477-.773-1.557c-.847-1.625-2.044-1.677-2.103-1.678l-4.744.004h-.007c-2.09.112-2.94 1.382-2.972 1.432l-1.857 2.76c-.045.07-.062.155-.044.236.017.082.067.153.138.197zm9.473-4.016c.037.002.9.062 1.57 1.343l.895 1.805c.072.143.242.208.39.148l1.05-.42-1.914 3.15-3.702-.436.834-.35c.08-.033.14-.097.17-.177.028-.08.023-.17-.015-.245l-1.41-2.77c-.01-.04-.03-.075-.055-.107l-.437-.857c-.02-.04-.312-.613-.798-1.08l3.424-.004zm-7.198 1.163c.03-.043.73-1.062 2.485-1.16.704.007 1.35.98 1.542 1.357l.385.757-2.484 3.788-3.61-2.242 1.682-2.5zm5.688 9.54c-.33.245-.658.395-1.073.395-.602 0-1.14-.405-1.242-1.355h3.266c.01-.104.03-.263.03-.442 0-1.336-.68-2.475-2.08-2.475-1.28 0-2.166.903-2.166 2.578 0 1.638.98 2.57 2.136 2.57.753 0 1.27-.236 1.703-.65l-.575-.622zm-1.167-3.002c.8 0 1.12.565 1.166 1.242H14.99c.085-.79.48-1.242 1.13-1.242z"/></svg>