<svg xmlns="http://www.w3.org/2000/svg" viewBox="0 0 32 32"><path d="M23.47 6.52H8.53c-.17 0-.31.14-.31.31v18.34c0 .17.14.31.31.31h14.94c.17 0 .31-.14.31-.31V6.83c0-.17-.14-.31-.31-.31zm-.31 18.35H8.84V7.14h14.33l-.01 17.73zM11.2 22.7h9.6c.11 0 .19-.09.19-.19V9.5c0-.11-.09-.19-.19-.19h-9.6c-.11 0-.19.09-.19.19v13c0 .11.08.2.19.2zm9.41-.39h-5.57c.23-.44.44-.65.45-.66.43-.47.88-.71 1.32-.71.3.24.68.38 1.09.38.41 0 .79-.14 1.09-.38H19c.5 0 1.28.43 1.61.8v.57zm-4.17-2.75c0-.8.65-1.46 1.46-1.46s1.46.65 1.46 1.46-.65 1.46-1.46 1.46-1.46-.65-1.46-1.46zm-5.05-9.87h9.22v6.7c-.4-.69-1.2-1.66-2.53-1.85.26-.4.42-.87.42-1.38 0-1.38-1.12-2.5-2.5-2.5s-2.5 1.12-2.5 2.5c0 .5.15.96.4 1.35-1.35.11-2.11 1.17-2.51 1.97V9.69zm6.65 3.47c0 1.13-.92 2.04-2.04 2.04-1.13 0-2.04-.92-2.04-2.04 0-1.13.92-2.04 2.04-2.04 1.13-.01 2.04.91 2.04 2.04zm-6.65 4.47c.01-.02.02-.04.03-.07.03-.11.74-2.71 2.86-2.6.45.43 1.06.69 1.72.69.66 0 1.27-.26 1.72-.69 1.78.06 2.69 1.88 2.9 2.36v3.99c-.36-.3-.89-.57-1.34-.66.25-.3.39-.69.39-1.11 0-.97-.79-1.76-1.76-1.76s-1.76.79-1.76 1.76c0 .16.02.31.06.45-.32-.3-.74-.51-1.15-.6.27-.31.44-.72.44-1.16 0-.97-.79-1.76-1.76-1.76s-1.76.79-1.76 1.76c0 .44.17.85.44 1.16-.38.08-.74.27-1.01.49l-.02-2.25zm2.34 2.09c-.8 0-1.46-.65-1.46-1.46s.65-1.46 1.46-1.46c.8 0 1.46.65 1.46 1.46s-.66 1.46-1.46 1.46zm-2.34.6c.32-.32.83-.61 1.31-.62.29.21.64.33 1.03.33.38 0 .74-.12 1.02-.33.57.02 1.36.47 1.57 1.03-.36.11-.71.35-1.05.72-.01.01-.29.3-.57.87h-3.31v-2z"/></svg>