<svg xmlns="http://www.w3.org/2000/svg" viewBox="0 0 31.68 31.68"><path d="M17.02 7.42v-.71h1.12c.1 0 .18-.04.24-.11s.09-.17.09-.27V4.87c0-.1-.03-.18-.09-.26-.06-.07-.14-.11-.24-.11h-4.52c-.1 0-.17.04-.24.11-.07.07-.09.15-.09.26v1.46c0 .1.02.2.09.27.07.07.14.11.24.11h1.11v.71c-1.56.18-2.96.74-4.18 1.54-.46-.54-.31-.36-.46-.54.28-.24.19-.16.28-.24.07-.06.12-.15.12-.24.02-.1-.01-.2-.08-.27-1.23-1.48-.82-.98-1.23-1.48-.12-.15-.35-.17-.5-.04C6.16 8.3 7 7.58 6.16 8.3c-.08.06-.12.14-.13.24-.01.1.03.18.09.27l1.22 1.49c.13.14.35.17.5.04.47-.41.32-.27.47-.41.46.55.3.37.46.55-1.64 1.76-2.65 4.16-2.65 6.79 0 5.45 4.37 9.9 9.77 9.9 5.4 0 9.76-4.44 9.76-9.9.01-5.08-3.77-9.27-8.63-9.85zm-3.07-2.17h3.85v.74H13.95v-.74zm1.51 2.09v-.62h.89v.62h-.89zm-7.8 2.21c-.78-.94-.52-.63-.78-.94l1.98-1.68.78.93c-.23.2-.16.13-.23.2-.02.01-.03.03-.04.04-1.23 1.03-.82.69-1.23 1.03l-.05.05-.43.37zm1.88-.67l.42.51c-.24.18-.46.38-.68.58l-.42-.51c.23-.19.46-.39.68-.58zM22.3 23.76c-1.65 1.66-3.91 2.69-6.4 2.69-2.5 0-4.78-1.03-6.41-2.69-1.65-1.67-2.65-3.96-2.65-6.49 0-2.55 1.01-4.84 2.65-6.49.05-.06.09-.11.15-.15.88-.75.59-.5.88-.75 1.45-1.09 3.22-1.74 5.15-1.79h.45c2.41.05 4.59 1.08 6.18 2.69 1.63 1.67 2.65 3.96 2.65 6.49 0 2.53-1.02 4.82-2.65 6.49z"/><path d="M15.88 9.74c.1 0 .2-.09.2-.18v-.75c0-.1-.1-.17-.2-.17s-.19.07-.19.17v.75c-.01.1.09.18.19.18zM11.86 9.86c-.05-.08-.15-.11-.24-.07-.08.06-.11.17-.07.26.38.64.25.43.38.64.05.09.16.11.24.07.08-.05.11-.15.07-.26-.13-.22-.25-.43-.38-.64zM9.38 13.25c-.63-.37-.42-.24-.63-.37-.08-.04-.19-.01-.25.07-.04.09-.01.2.07.24.63.38.42.26.63.38.1.04.2.01.25-.07.04-.08.02-.19-.07-.25zM8.28 17.1h-.74c-.1 0-.17.07-.17.17s.07.18.17.18h.74c.09 0 .16-.08.16-.18 0-.1-.07-.17-.16-.17zM9.2 20.97c-.63.37-.42.25-.63.37-.08.06-.11.17-.07.26.06.08.17.11.25.06.63-.37.42-.25.63-.37.09-.04.11-.16.07-.24-.05-.09-.17-.12-.25-.08zM12.17 23.8c-.08-.06-.19-.03-.25.07-.36.64-.24.42-.36.64-.04.08-.01.2.07.24.09.06.19.03.24-.05.36-.65.24-.43.36-.65.05-.09.02-.21-.06-.25zM15.89 24.81c-.1 0-.18.08-.18.18v.74c0 .09.08.18.18.18.1 0 .18-.09.18-.18v-.74c.01-.1-.08-.18-.18-.18zM19.84 23.87c-.05-.08-.15-.11-.23-.07-.1.06-.13.16-.07.24.36.65.24.43.36.65.05.09.15.11.25.06.08-.04.11-.16.05-.24-.12-.21-.24-.42-.36-.64zM23.19 21.36l-.63-.39c-.08-.04-.19-.01-.23.07-.06.08-.03.2.05.24.64.38.43.26.64.38.08.04.19.01.24-.07.05-.08.02-.19-.07-.23zM24.22 17.07h-.73c-.1 0-.18.1-.18.2s.08.18.18.18h.73c.09 0 .18-.08.18-.18 0-.1-.09-.2-.18-.2zM23.02 12.9c-.63.37-.42.24-.63.37-.1.04-.13.15-.07.24.04.09.15.11.23.07.64-.37.43-.24.64-.37.08-.05.11-.17.05-.26-.03-.08-.14-.11-.22-.05zM20.15 9.8c-.08-.06-.19-.03-.25.05-.36.65-.24.43-.36.65-.04.08-.01.18.07.24.09.06.19.02.24-.07.36-.64.24-.42.36-.64.05-.08.02-.19-.06-.23zM16.35 15.06c-.1-4.53-.06-3.02-.1-4.53 0-.2-.16-.35-.35-.35h-.07c-.18 0-.35.15-.35.35-.1 4.54-.06 3.03-.1 4.54-.98.23-1.72 1.12-1.72 2.19 0 1.24.99 2.25 2.22 2.25 1.22 0 2.21-1 2.21-2.25.02-1.08-.73-1.98-1.74-2.2zm.6 3.29c-.27.28-.64.45-1.06.45-.42 0-.8-.17-1.08-.45-.26-.27-.43-.65-.43-1.08 0-.43.16-.81.43-1.09.28-.27.66-.43 1.08-.45.42.02.79.18 1.06.45.28.29.45.67.45 1.09 0 .42-.17.8-.45 1.08z"/><path d="M21.65 16.87c-3.6-.08-2.4-.06-3.6-.08-.21-1.02-1.1-1.77-2.16-1.77-1.23 0-2.22 1-2.22 2.25 0 1.24.99 2.25 2.22 2.25 1.06 0 1.95-.76 2.16-1.77 3.6-.1 2.4-.07 3.6-.1.19 0 .33-.17.33-.36v-.07c.01-.17-.13-.33-.33-.35zm-4.7 1.48c-.27.28-.64.45-1.06.45-.42 0-.8-.17-1.08-.45-.26-.27-.43-.65-.43-1.08 0-.43.16-.81.43-1.09.28-.27.66-.43 1.08-.45.42.02.79.18 1.06.45.28.29.45.67.45 1.09 0 .42-.17.8-.45 1.08z"/></svg>