<svg data-name="Layer 1" xmlns="http://www.w3.org/2000/svg" viewBox="0 0 36 36"><title>Icon-Red_Hat-Traffic_light-A-Black-RGB</title><path d="M23.53 5.47a.745.745 0 0 0-.53-.22H13a.75.75 0 0 0-.75.75v24a.75.75 0 0 0 .75.75h10a.75.75 0 0 0 .75-.75V6a.745.745 0 0 0-.22-.53zM22.25 18v11.25h-8.5V6.75h8.5z"/><path d="M18 15.25a2.752 2.752 0 1 0 1.944.806A2.742 2.742 0 0 0 18 15.25zm.884 3.634A1.25 1.25 0 1 1 19.25 18a1.25 1.25 0 0 1-.366.884zM16.056 9.056A2.747 2.747 0 1 0 18 8.25a2.742 2.742 0 0 0-1.944.806zM19.25 11a1.25 1.25 0 1 1-.366-.884 1.25 1.25 0 0 1 .366.884zM18 22.25a2.752 2.752 0 1 0 1.944.806A2.742 2.742 0 0 0 18 22.25zm.884 3.634A1.25 1.25 0 1 1 19.25 25a1.25 1.25 0 0 1-.366.884z"/></svg>