<svg xmlns="http://www.w3.org/2000/svg" viewBox="0 0 32 32"><path d="M10.29 9.7c-.11-.1-.27-.1-.38.01s-.1.27.01.38c1.57 1.51 2.44 3.55 2.44 5.72 0 2.21-.94 4.35-2.57 5.85-.11.1-.11.27-.02.37.05.06.12.09.2.09.06 0 .13-.02.18-.07 1.75-1.6 2.75-3.88 2.75-6.24-.01-2.33-.93-4.5-2.61-6.11zm-1.45 1.45c-.11-.1-.27-.1-.38.01-.1.11-.1.27.01.37 1.18 1.13 1.84 2.64 1.84 4.27 0 1.67-.72 3.28-1.97 4.39-.11.1-.12.26-.02.37.05.06.12.09.2.09.06 0 .13-.02.18-.07 1.37-1.22 2.15-2.97 2.15-4.79-.01-1.76-.72-3.42-2.01-4.64zm-1.1 1.99c-.07-.06-.17-.06-.24.01-.06.07-.06.17.01.23.67.64 1.04 1.5 1.04 2.42 0 .95-.41 1.85-1.12 2.49-.07.06-.07.17-.01.23.03.04.08.06.12.06.04 0 .08-.01.11-.04.78-.7 1.23-1.7 1.23-2.74 0-1.01-.4-1.96-1.14-2.66zm11.63 2.66c0-2.17.87-4.2 2.44-5.72.11-.1.11-.27.01-.37-.05-.05-.12-.08-.19-.08s-.13.02-.18.07c-1.68 1.62-2.6 3.78-2.6 6.1 0 2.36 1 4.64 2.75 6.24.11.1.27.09.37-.02s.09-.27-.02-.37c-1.64-1.51-2.58-3.64-2.58-5.85zm2.05 0c0-1.63.65-3.14 1.84-4.27.11-.1.11-.27.01-.37-.05-.06-.12-.08-.19-.08s-.13.02-.18.07c-1.29 1.23-2 2.88-2 4.65 0 1.82.78 3.57 2.15 4.79.11.1.28.09.37-.02.1-.11.09-.28-.02-.37-1.26-1.12-1.98-2.73-1.98-4.4zm3.15 2.49c-.71-.64-1.12-1.54-1.12-2.49 0-.92.37-1.78 1.04-2.42.07-.06.07-.17.01-.23-.03-.03-.08-.05-.12-.05-.04 0-.08.02-.11.05-.74.7-1.15 1.65-1.15 2.66 0 1.04.45 2.04 1.23 2.74.07.06.17.06.23-.01.06-.08.05-.19-.01-.25zM14.95 6.8c-.22 0-.4.18-.4.4v5.73c-.5-1.76-1.45-3.37-2.8-4.68-.1-.1-.27-.1-.38.01s-.1.27.01.38c1.96 1.9 3.04 4.45 3.04 7.17 0 2.76-1.16 5.42-3.18 7.31-.11.1-.11.27-.01.38.05.06.12.08.19.08.06 0 .13-.02.18-.07 1.42-1.32 2.43-3.01 2.95-4.85v6.18c0 .22.18.4.4.4.22 0 .4-.18.4-.4V7.2c-.01-.22-.18-.4-.4-.4zm2.37 9c0-2.73 1.08-5.27 3.04-7.17.1-.1.11-.27.01-.38-.05-.05-.12-.08-.19-.08s-.13.02-.18.08c-1.35 1.31-2.31 2.92-2.8 4.68V7.18c0-.22-.18-.4-.4-.4-.22 0-.4.18-.4.4V24.8c0 .22.18.4.4.4.22 0 .4-.18.4-.4v-6.16c.52 1.84 1.53 3.53 2.95 4.85.11.1.27.09.38-.01s.09-.27-.01-.38c-2.04-1.88-3.2-4.55-3.2-7.3z"/></svg>