<svg data-name="Layer 1" xmlns="http://www.w3.org/2000/svg" viewBox="0 0 36 36"><title>Icon-Red_Hat-No_drink-A-Black-RGB</title><path d="M27.723 8.277a13.725 13.725 0 0 0-19.446 0 .686.686 0 0 0 .116 1.138.72.72 0 0 0 .077.115l2.975 2.976A.745.745 0 0 0 12 13.75h.69l1.5 1.5H13a.75.75 0 0 0-.576.27.752.752 0 0 0-.162.614l1 5.5 1 5.5a.75.75 0 0 0 .738.616h6a.75.75 0 0 0 .738-.616l.667-3.67 4.065 4.066a.72.72 0 0 0 .115.077.753.753 0 0 0 .077.116.75.75 0 0 0 .53.22.75.75 0 0 0 .53-.22 13.768 13.768 0 0 0 0-19.446zm-7.35 17.973h-4.747l-.864-4.75-.862-4.75h1.79l1.782 1.78 3.645 3.645zm1.068-5.87l-2.91-2.91-.72-.72h4.29zm5.725 5.725L22.73 21.67l.008-.036 1-5.5a.752.752 0 0 0-.162-.614.75.75 0 0 0-.576-.27h-6.69l-1.5-1.5H24a.75.75 0 0 0 0-1.5h-5.25v-1.94l.78-.78 1-1a.75.75 0 1 0-1.06-1.06l-1 1-1 1a.755.755 0 0 0-.162.243.743.743 0 0 0-.058.287v2.25h-3.94L9.895 8.833a12.235 12.235 0 0 1 17.27 17.272z"/><path d="M25.16 28.225a.744.744 0 0 0-.564.1A12.26 12.26 0 0 1 7.674 11.4a.752.752 0 0 0 .1-.565.75.75 0 0 0-1.364-.235 13.72 13.72 0 0 0 6.4 20.123 13.96 13.96 0 0 0 5.225 1.014 13.792 13.792 0 0 0 3.8-.53 13.478 13.478 0 0 0 3.565-1.618.743.743 0 0 0 .33-.472.75.75 0 0 0-.574-.893z"/></svg>