<svg data-name="Layer 1" xmlns="http://www.w3.org/2000/svg" viewBox="0 0 36 36"><title>Icon-Red_Hat-Truck-A-Black-RGB</title><path d="M31.73 18.072a.73.73 0 0 0-.058-.162l-.994-2-.994-2a.75.75 0 0 0-.672-.416H25.75v-3.25a.75.75 0 0 0-.75-.75H5a.75.75 0 0 0-.75.75v13a.75.75 0 0 0 .75.75h2.342a3.24 3.24 0 0 0 6.316 0h7.688a3.24 3.24 0 0 0 6.308 0H31a.75.75 0 1 0 0-1.5h-3.346a3.192 3.192 0 0 0-.156-.5H31a.75.75 0 0 0 .75-.75v-3a.763.763 0 0 0-.02-.172zm-19.65 5.922a1.738 1.738 0 0 1-3.16 0 1.69 1.69 0 0 1 .012-1.5 1.77 1.77 0 0 1 .33-.474 1.745 1.745 0 0 1 2.475 0 1.77 1.77 0 0 1 .33.474 1.69 1.69 0 0 1 .014 1.5zm9.266-1.5h-7.7a3.237 3.237 0 0 0-6.3 0H5.75v-11.5h18.5v9.025a3.2 3.2 0 0 0-2.9 2.474zm4.39 1.986a1.736 1.736 0 0 1-2.81-.486 1.69 1.69 0 0 1 0-1.5 1.778 1.778 0 0 1 .338-.487 1.74 1.74 0 0 1 .987-.488c.02 0 .037 0 .056-.007a1.788 1.788 0 0 1 .2-.02 1.74 1.74 0 0 1 1.22.5l.017.014.013.016a1.743 1.743 0 0 1-.013 2.457zm4.514-5.023v1.037h-4.037a3.17 3.17 0 0 0-.463-.25v-5.25h2.8l.852 1.713.85 1.713z"/></svg>