<svg data-name="Layer 1" xmlns="http://www.w3.org/2000/svg" viewBox="0 0 36 36"><title>Icon-Red_Hat-Mobile_devices-A-Black-RGB</title><path d="M16 24.25h-4a.75.75 0 0 0 0 1.5h4a.75.75 0 0 0 0-1.5zM13.47 7.53a.753.753 0 0 0 .53.22.73.73 0 0 0 .148-.015.69.69 0 0 0 .142-.045.526.526 0 0 0 .127-.065.85.85 0 0 0 .113-.095.745.745 0 0 0 .162-.243A.736.736 0 0 0 14.75 7a.693.693 0 0 0-.015-.145.86.86 0 0 0-.045-.145.922.922 0 0 0-.07-.128.687.687 0 0 0-.09-.112.774.774 0 0 0-1.06 0 .748.748 0 0 0 0 1.06z"/><path d="M31.53 12.47a.745.745 0 0 0-.53-.22h-7.25V4a.75.75 0 0 0-.75-.75H5a.75.75 0 0 0-.75.75v24a.75.75 0 0 0 .75.75h14.167V32a.75.75 0 0 0 .75.75H31a.75.75 0 0 0 .75-.75V13a.745.745 0 0 0-.22-.53zm-12.143 0a.745.745 0 0 0-.22.53v14.25H5.75V4.75h16.5v7.5h-2.333a.745.745 0 0 0-.53.22zM30.25 22.5v8.75h-9.583v-17.5h9.583z"/><path d="M24.835 14.957a.584.584 0 0 0-.065.133.682.682 0 0 0-.045.14.746.746 0 0 0-.015.15.688.688 0 0 0 .015.14.713.713 0 0 0 .045.14.558.558 0 0 0 .065.132.682.682 0 0 0 .095.118.75.75 0 0 0 1.06 0 .618.618 0 0 0 .09-.118 1.1 1.1 0 0 0 .07-.132.713.713 0 0 0 .045-.14.688.688 0 0 0 .015-.14.746.746 0 0 0-.015-.15.682.682 0 0 0-.045-.14 1.2 1.2 0 0 0-.07-.133.644.644 0 0 0-.09-.117.77.77 0 0 0-.53-.206.736.736 0 0 0-.53.206.715.715 0 0 0-.095.117zM23.875 28.875a.75.75 0 0 0 0 1.5h3.167a.75.75 0 0 0 0-1.5h-3.167z"/></svg>