<svg xmlns="http://www.w3.org/2000/svg" viewBox="0 0 32 32"><g fill="#010101"><path d="M10.47 10.395c1.274 0 2.31-1.036 2.31-2.31s-1.035-2.308-2.31-2.308-2.31 1.036-2.31 2.31 1.038 2.308 2.31 2.308zm0-4.026c.948 0 1.718.77 1.718 1.715 0 .946-.77 1.716-1.717 1.716s-1.716-.77-1.716-1.715c0-.946.77-1.716 1.717-1.716z"/><path d="M24.27 16.313h-.713c-.276-1.798-1.497-5.37-2.223-6.443-.066-.098-.185-.146-.3-.125l-.415.078c-.005-.012-.004-.025-.01-.036-.023-.05-2.374-5.103-2.746-5.866-.365-.75-1.11-.85-1.792-.85h-1.34c-.163 0-.295.133-.295.296 0 .164.133.296.296.296h1.34c.724 0 1.077.145 1.258.518.342.7 2.363 5.04 2.695 5.755l-1.785.335V9.102c0-.164-.133-.296-.296-.296H16.76c-.164 0-.296.133-.296.296v4.98c0 .164.133.296.296.296h.887v1.935h-1.4c.065-.158.104-.34.104-.55 0-.632-.605-1.126-1.38-1.126h-2.044v-1.322c0-1.273-1.036-2.31-2.31-2.31s-2.31 1.037-2.31 2.31v1.575c-.105-.04-.22-.066-.34-.066-.513 0-.93.418-.93.932v3.35c0 1.026.375 1.633.707 2.168.265.428.495.798.495 1.337v4.8c0 .164.133.296.296.296h1.12c.165 0 .297-.133.297-.296v-4.624c0-.056.047-.102.103-.102H13.6v4.328c0 .383.31.695.694.695h9.976c.383 0 .695-.312.695-.695V17.008c0-.384-.312-.695-.695-.695zm-7.214-2.527V9.4h.59v4.386h-.59zm1.184.296v-3.21l2.705-.508c.678 1.153 1.74 4.3 2.013 5.948H18.24v-2.23zm-4.64 2.926v1.266h-.572c-.056 0-.102-.046-.102-.102V16.89h.686c-.007.038-.013.077-.013.118zm-4.7-3.694c0-.946.77-1.716 1.716-1.716s1.717.77 1.717 1.716v1.322h-.68c-.163 0-.295.133-.295.296s.133.296.296.296h3.316c.442 0 .788.234.788.534 0 .354-.118.534-.352.534h-4.333c-.57 0-1.032-.463-1.032-1.032v-1.867c0-.164-.132-.296-.295-.296-.164 0-.296.134-.296.297v1.867c0 .896.728 1.624 1.624 1.624h1.26v1.283c0 .384.312.696.695.696h.57v1.953h-2.942c-.953 0-1.758-.787-1.758-1.717v-5.79zm1.154 8.776c-.383 0-.695.312-.695.695v4.328h-.53V22.61c0-.707-.296-1.186-.583-1.65-.318-.513-.62-.998-.62-1.856v-3.35c0-.186.153-.338.34-.338.187 0 .34.152.34.34v3.348c0 1.273 1.054 2.31 2.35 2.31H13.6v.677h-3.546zm14.318 4.92c0 .056-.046.102-.102.102h-9.976c-.056 0-.102-.046-.102-.102V17.008c0-.056.046-.102.102-.102h9.976c.056 0 .102.046.102.102V27.01z"/></g></svg>