<svg xmlns="http://www.w3.org/2000/svg" width="32" height="32" viewBox="0 0 32 32"><path d="M22.51 5.717H10.512c-.822 0-1.49.67-1.49 1.49v17.18c0 .822.67 1.49 1.49 1.49H22.51c.822 0 1.49-.67 1.49-1.49V7.207c0-.822-.668-1.49-1.49-1.49zm.878 18.67c0 .483-.393.876-.877.876H10.514c-.483 0-.876-.393-.876-.876V7.207c0-.484.393-.877.876-.877H22.51c.485 0 .878.393.878.877v17.18zm-1.864-16.36c.185 0 .335.158.335.35v3.25c0 .195-.15.352-.336.352H11.5c-.186 0-.336-.16-.336-.352v-3.25c0-.193.15-.35.335-.35h10.024zm0-.46H11.5c-.44 0-.795.364-.795.81v3.25c0 .448.357.812.794.812h10.024c.438 0 .794-.365.794-.812v-3.25c0-.446-.357-.81-.794-.81zm-8.957 5.846h-1.325c-.235 0-.426.192-.426.428v.777c0 .236.19.428.426.428h1.325c.235 0 .426-.192.426-.428v-.776c0-.235-.19-.427-.426-.427zm.12 1.205c0 .068-.054.123-.12.123H11.24c-.066 0-.12-.054-.12-.122v-.776c0-.068.054-.123.12-.123h1.326c.066 0 .12.054.12.122v.776zm9.09-1.205h-1.324c-.235 0-.426.192-.426.428v.777c0 .236.19.428.426.428h1.324c.235 0 .426-.192.426-.428v-.776c0-.235-.19-.427-.426-.427zm.12 1.205c0 .068-.053.123-.12.123h-1.324c-.067 0-.12-.054-.12-.122v-.776c0-.068.053-.123.12-.123h1.324c.066 0 .12.054.12.122v.776zm-3.19-1.205h-1.325c-.235 0-.426.192-.426.428v.777c0 .236.19.428.426.428h1.325c.235 0 .425-.192.425-.428v-.776c0-.235-.19-.427-.425-.427zm.12 1.205c0 .068-.053.123-.12.123h-1.324c-.067 0-.12-.054-.12-.122v-.776c0-.068.053-.123.12-.123h1.325c.066 0 .12.054.12.122v.776zm-3.19-1.205h-1.324c-.235 0-.426.192-.426.428v.777c0 .236.19.428.426.428h1.324c.235 0 .426-.192.426-.428v-.776c0-.235-.19-.427-.426-.427zm.12 1.205c0 .068-.053.123-.12.123h-1.324c-.067 0-.12-.054-.12-.122v-.776c0-.068.053-.123.12-.123h1.324c.066 0 .12.054.12.122v.776zm-3.19 1.065h-1.325c-.235 0-.426.192-.426.428v.777c0 .236.19.428.426.428h1.325c.235 0 .426-.192.426-.428v-.776c0-.235-.19-.427-.426-.427zm.12 1.205c0 .068-.054.123-.12.123H11.24c-.066 0-.12-.054-.12-.122v-.776c0-.068.054-.123.12-.123h1.326c.066 0 .12.054.12.122v.776zm9.09-1.205h-1.324c-.235 0-.426.192-.426.428v.777c0 .236.19.428.426.428h1.324c.235 0 .426-.192.426-.428v-.776c0-.235-.19-.427-.426-.427zm.12 1.205c0 .068-.053.123-.12.123h-1.324c-.067 0-.12-.054-.12-.122v-.776c0-.068.053-.123.12-.123h1.324c.066 0 .12.054.12.122v.776zm-3.19-1.205h-1.325c-.235 0-.426.192-.426.428v.777c0 .236.19.428.426.428h1.325c.235 0 .425-.192.425-.428v-.776c0-.235-.19-.427-.425-.427zm.12 1.205c0 .068-.053.123-.12.123h-1.324c-.067 0-.12-.054-.12-.122v-.776c0-.068.053-.123.12-.123h1.325c.066 0 .12.054.12.122v.776zm-3.19-1.205h-1.324c-.235 0-.426.192-.426.428v.777c0 .236.19.428.426.428h1.324c.235 0 .426-.192.426-.428v-.776c0-.235-.19-.427-.426-.427zm.12 1.205c0 .068-.053.123-.12.123h-1.324c-.067 0-.12-.054-.12-.122v-.776c0-.068.053-.123.12-.123h1.324c.066 0 .12.054.12.122v.776zm-3.19 1.066h-1.325c-.235 0-.426.192-.426.428v.776c0 .236.19.428.426.428h1.325c.235 0 .426-.192.426-.428v-.776c0-.236-.19-.428-.426-.428zm.12 1.204c0 .068-.054.123-.12.123H11.24c-.066 0-.12-.054-.12-.122v-.777c0-.067.054-.122.12-.122h1.326c.066 0 .12.055.12.123v.778zm9.09-1.204h-1.324c-.235 0-.426.192-.426.428v.776c0 .236.19.428.426.428h1.324c.235 0 .426-.192.426-.428v-.776c0-.236-.19-.428-.425-.428zm.12 1.204c0 .068-.053.123-.12.123h-1.324c-.067 0-.12-.054-.12-.122v-.777c0-.067.053-.122.12-.122h1.324c.066 0 .12.055.12.123v.778zm-3.19-1.204h-1.325c-.235 0-.426.192-.426.428v.776c0 .236.19.428.426.428h1.325c.235 0 .425-.192.425-.428v-.776c0-.236-.19-.428-.425-.428zm.12 1.204c0 .068-.053.123-.12.123h-1.324c-.067 0-.12-.054-.12-.122v-.777c0-.067.053-.122.12-.122h1.325c.066 0 .12.055.12.123v.778zm-3.19-1.204h-1.324c-.235 0-.426.192-.426.428v.776c0 .236.19.428.426.428h1.324c.235 0 .426-.192.426-.428v-.776c0-.236-.19-.428-.425-.428zm.12 1.204c0 .068-.053.123-.12.123h-1.324c-.067 0-.12-.054-.12-.122v-.777c0-.067.053-.122.12-.122h1.324c.066 0 .12.055.12.123v.778zm-3.19 1.065h-1.325c-.235 0-.426.192-.426.428v.777c0 .236.19.428.426.428h1.325c.235 0 .426-.192.426-.428v-.776c0-.235-.19-.427-.426-.427zm.12 1.205c0 .068-.054.123-.12.123H11.24c-.066 0-.12-.054-.12-.122v-.776c0-.068.054-.123.12-.123h1.326c.066 0 .12.054.12.122v.776zm6.02-1.205h-1.325c-.235 0-.426.192-.426.428v.777c0 .236.19.428.426.428h1.325c.235 0 .425-.192.425-.428v-.776c0-.235-.19-.427-.425-.427zm.12 1.205c0 .068-.053.123-.12.123h-1.324c-.067 0-.12-.054-.12-.122v-.776c0-.068.053-.123.12-.123h1.325c.066 0 .12.054.12.122v.776zm-3.19-1.205h-1.324c-.235 0-.426.192-.426.428v.777c0 .236.19.428.426.428h1.324c.235 0 .426-.192.426-.428v-.776c0-.235-.19-.427-.426-.427zm.12 1.205c0 .068-.053.123-.12.123h-1.324c-.067 0-.12-.054-.12-.122v-.776c0-.068.053-.123.12-.123h1.324c.066 0 .12.054.12.122v.776zm-3.19 1.066h-1.325c-.235 0-.426.192-.426.428v.776c0 .236.19.428.426.428h1.325c.235 0 .426-.192.426-.428v-.776c0-.236-.19-.428-.426-.428zm.12 1.204c0 .068-.054.123-.12.123H11.24c-.066 0-.12-.054-.12-.122v-.776c0-.068.054-.123.12-.123h1.326c.066 0 .12.054.12.122v.776zm9.09-3.475h-1.324c-.235 0-.426.192-.426.428v3.047c0 .236.19.428.426.428h1.324c.235 0 .426-.192.426-.428V20.65c0-.235-.19-.427-.426-.427zm.12 3.475c0 .068-.053.123-.12.123h-1.324c-.067 0-.12-.054-.12-.122v-3.046c0-.068.053-.123.12-.123h1.324c.066 0 .12.054.12.122v3.046zm-3.19-1.204h-1.325c-.235 0-.426.192-.426.428v.776c0 .236.19.428.426.428h1.325c.235 0 .425-.192.425-.428v-.776c0-.236-.19-.428-.425-.428zm.12 1.204c0 .068-.053.123-.12.123h-1.324c-.067 0-.12-.054-.12-.122v-.776c0-.068.053-.123.12-.123h1.325c.066 0 .12.054.12.122v.776zm-3.19-1.204h-1.324c-.235 0-.426.192-.426.428v.776c0 .236.19.428.426.428h1.324c.235 0 .426-.192.426-.428v-.776c0-.236-.19-.428-.426-.428zm.12 1.204c0 .068-.053.123-.12.123h-1.324c-.067 0-.12-.054-.12-.122v-.776c0-.068.053-.123.12-.123h1.324c.066 0 .12.054.12.122v.776z"/></svg>