<svg data-name="Layer 1" xmlns="http://www.w3.org/2000/svg" viewBox="0 0 36 36"><title>Icon-Red_Hat-Software_and_technologies-Apps_Multiple-A-Black-RGB</title><path d="M27.5 26.75H9.25V8.5a.75.75 0 0 0-1.5 0v19a.76.76 0 0 0 .75.75h19a.75.75 0 0 0 0-1.5z"/><path d="M24.5 29.75H6.25V11.5a.75.75 0 0 0-1.5 0v19a.76.76 0 0 0 .75.75h19a.75.75 0 0 0 0-1.5z"/><path d="M30.5 4.75h-19a.76.76 0 0 0-.75.75v18.77a.76.76 0 0 0 .75.75h19a.76.76 0 0 0 .75-.75V5.5a.76.76 0 0 0-.75-.75zm-.75 18.77h-17.5V6.25h17.5z"/><path d="M27.21 9.22a.73.73 0 0 0 .58 0 .78.78 0 0 0 .21-.16.77.77 0 0 0 .22-.53.72.72 0 0 0-.06-.29A.82.82 0 0 0 28 8a.75.75 0 0 0-1 0 .67.67 0 0 0-.16.25.72.72 0 0 0-.06.29.77.77 0 0 0 .22.53.78.78 0 0 0 .21.15zM25 9.05a.81.81 0 0 0 .24.17.93.93 0 0 0 .29 0 1 1 0 0 0 .29 0 .81.81 0 0 0 .18-.17.78.78 0 0 0 .16-.24.72.72 0 0 0 .06-.29A.77.77 0 0 0 26 8a.78.78 0 0 0-.24-.16.83.83 0 0 0-.58 0A.78.78 0 0 0 25 8a.77.77 0 0 0-.22.53.72.72 0 0 0 .06.29.63.63 0 0 0 .16.23z"/></svg>