<svg xmlns="http://www.w3.org/2000/svg" width="32" height="32" viewBox="0 0 32 32"><path d="M7.303 6.483c-.142.06-.21.215-.17.36-.008.026-.017.05-.017.08v10.15c0 .008.003.014.004.02 0 .008-.004.014-.004.02v10.154c0 .17.137.306.306.306h17.633c.17 0 .307-.137.307-.306V17.114c0-.007-.004-.013-.005-.02 0-.007.005-.013.005-.02V6.924c0-.03-.01-.055-.017-.08.037-.14-.022-.288-.156-.354l-2.82-1.38c-.04-.02-.087-.03-.133-.03h-11.57c-.042 0-.083.01-.12.025L7.3 6.485zM24.75 26.96H7.73v-4.463h17.02v4.463zm0-5.076H7.73V17.42h17.02v4.464zm0-5.117H7.73v-4.462h17.02v4.462zm0-7.65v2.575H7.73V7.23h17.02v1.886zM10.73 5.69h11.437l1.888.924h-15.5l2.174-.924zM8.856 9.386v.005c0 .234.19.423.422.423.232 0 .42-.19.42-.422v-.004-.005c0-.232-.188-.42-.42-.42-.234 0-.423.188-.423.42v.006zm1.496 0V9.4c0 .232.19.42.422.42.233 0 .422-.188.422-.42v-.014-.012c0-.233-.19-.422-.422-.422-.233 0-.422.19-.422.422v.013zm-1.496 5.21v.006c0 .233.19.422.422.422.232 0 .42-.19.42-.422v-.005-.005c0-.233-.188-.422-.42-.422-.234 0-.423.19-.423.422v.005zm1.496 0v.014c0 .233.19.422.422.422.233 0 .422-.19.422-.422v-.013-.012c0-.233-.19-.422-.422-.422-.233 0-.422.19-.422.422v.013zm-1.495 4.905v.006c0 .233.19.42.42.42.234 0 .422-.188.422-.42V19.5v-.004c0-.233-.19-.42-.42-.42-.234 0-.422.188-.422.42v.005zm1.495 0v.014c0 .233.19.42.42.42.234 0 .422-.188.422-.42V19.5v-.01c0-.234-.19-.422-.42-.422-.234 0-.422.19-.422.42v.014zm-1.496 5.212v.005c0 .233.19.422.422.422.232 0 .42-.19.42-.423v-.005-.005c0-.233-.188-.422-.42-.422-.234 0-.423.19-.423.422v.005zm1.496 0v.013c0 .233.19.422.422.422.233 0 .422-.19.422-.422v-.013-.012c0-.233-.19-.422-.422-.422-.233 0-.422.19-.422.422v.013zM22.83 10.81h.92c.084 0 .153-.07.153-.154V8.204c0-.085-.07-.153-.154-.153h-.92c-.085 0-.154.07-.154.154v2.452c0 .085.07.153.154.153zm.153-2.453h.613v2.146h-.613V8.357zM20.99 10.81h.92c.085 0 .153-.07.153-.154V8.204c0-.085-.07-.153-.153-.153h-.92c-.085 0-.153.07-.153.154v2.452c0 .085.07.153.153.153zm.154-2.453h.613v2.146h-.613V8.357zm1.686 7.662h.92c.084 0 .153-.07.153-.154v-2.452c0-.085-.07-.153-.154-.153h-.92c-.085 0-.154.07-.154.154v2.452c0 .085.07.153.154.153zm.153-2.453h.613v2.146h-.613v-2.146zM20.99 16.02h.92c.085 0 .153-.07.153-.154v-2.452c0-.085-.07-.153-.153-.153h-.92c-.085 0-.153.07-.153.154v2.452c0 .085.07.153.153.153zm.154-2.453h.613v2.146h-.613v-2.146zm1.686 7.356h.92c.084 0 .153-.126.153-.21V18.26c0-.084-.07-.095-.154-.095h-.92c-.085 0-.154.01-.154.095v2.452c0 .085.07.21.154.21zm.153-2.452h.613v2.147h-.613V18.47zm-1.993 2.453h.92c.085 0 .153-.126.153-.21V18.26c0-.084-.07-.095-.153-.095h-.92c-.085 0-.153.01-.153.095v2.452c0 .085.07.21.153.21zm.154-2.452h.613v2.147h-.613V18.47zm1.686 7.664h.92c.084 0 .153-.126.153-.21V23.47c0-.083-.07-.094-.154-.094h-.92c-.085 0-.154.01-.154.095v2.453c0 .085.07.21.154.21zm.153-2.452h.613v2.146h-.613v-2.146zm-1.993 2.452h.92c.085 0 .153-.126.153-.21V23.47c0-.083-.07-.094-.153-.094h-.92c-.085 0-.153.01-.153.095v2.453c0 .085.07.21.153.21zm.154-2.452h.613v2.146h-.613v-2.146zM6.08 5.832c-.135.195-.226.42-.267.653-.022.125.062.244.187.266.013.003.026.004.04.004.11 0 .206-.08.226-.19.03-.17.096-.332.192-.473.072-.104.045-.247-.06-.32-.104-.07-.247-.044-.32.06zM22.74 28.446h-.612c-.127 0-.23.103-.23.23s.103.23.23.23h.612c.127 0 .23-.103.23-.23s-.103-.23-.23-.23zm-1.53 0h-.613c-.128 0-.23.103-.23.23s.102.23.23.23h.61c.128 0 .23-.103.23-.23s-.102-.23-.23-.23zm-3.062 0h-.612c-.127 0-.23.103-.23.23s.103.23.23.23h.612c.127 0 .23-.103.23-.23s-.103-.23-.23-.23zm1.53 0h-.61c-.128 0-.23.103-.23.23s.102.23.23.23h.61c.128 0 .23-.103.23-.23s-.102-.23-.23-.23zm5.972-.162c-.15.087-.312.14-.483.156-.127.012-.22.124-.208.25.01.12.11.21.228.21.007 0 .015 0 .022-.002.24-.023.465-.096.672-.217.11-.064.146-.204.082-.314-.064-.11-.205-.146-.315-.082zm-1.38.162h-.613c-.128 0-.23.103-.23.23s.102.23.23.23h.61c.128 0 .23-.103.23-.23s-.1-.23-.228-.23zm-7.652 0h-.612c-.127 0-.23.103-.23.23s.103.23.23.23h.612c.127 0 .23-.103.23-.23s-.103-.23-.23-.23zm-4.592 0h-.612c-.127 0-.23.103-.23.23s.103.23.23.23h.612c.127 0 .23-.103.23-.23s-.103-.23-.23-.23zm-1.53 0h-.612c-.127 0-.23.103-.23.23s.103.23.23.23h.612c.127 0 .23-.103.23-.23s-.103-.23-.23-.23zm-1.53 0h-.613c-.127 0-.23.103-.23.23s.103.23.23.23h.612c.127 0 .23-.103.23-.23s-.103-.23-.23-.23zm4.59 0h-.61c-.128 0-.23.103-.23.23s.102.23.23.23h.61c.128 0 .23-.103.23-.23s-.102-.23-.23-.23zm1.53 0h-.61c-.128 0-.23.103-.23.23s.102.23.23.23h.61c.128 0 .23-.103.23-.23s-.102-.23-.23-.23zm11.378-1.472c-.127 0-.23.103-.23.23v.062c0 .155-.03.306-.088.448-.048.118.008.252.125.3.03.012.058.018.087.018.09 0 .176-.053.212-.142.082-.198.123-.408.123-.623v-.062c0-.127-.102-.23-.23-.23zm0-1.53c-.127 0-.23.103-.23.23v.612c0 .127.103.23.23.23s.23-.103.23-.23v-.612c0-.127-.103-.23-.23-.23zm0-15.305c-.127 0-.23.102-.23.23v.61c0 .128.103.23.23.23s.23-.102.23-.23v-.61c0-.128-.103-.23-.23-.23zm0 1.53c-.127 0-.23.102-.23.23v.61c0 .128.103.23.23.23s.23-.102.23-.23v-.61c0-.128-.103-.23-.23-.23zm0 1.53c-.127 0-.23.103-.23.23v.612c0 .127.103.23.23.23s.23-.103.23-.23v-.612c0-.127-.103-.23-.23-.23zM7.423 28.446c-.173 0-.34-.037-.496-.11-.115-.053-.252-.003-.306.112-.052.115-.003.25.113.305.217.1.45.152.69.152h.014c.127 0 .223-.103.223-.23s-.11-.23-.237-.23zM26.466 14.73c-.127 0-.23.103-.23.23v.612c0 .127.103.23.23.23s.23-.103.23-.23v-.612c0-.127-.103-.23-.23-.23zm0-6.122c-.127 0-.23.103-.23.23v.612c0 .127.103.23.23.23s.23-.103.23-.23v-.612c0-.127-.103-.23-.23-.23zm0-1.53c-.127 0-.23.103-.23.23v.612c0 .127.103.23.23.23s.23-.103.23-.23v-.612c0-.127-.103-.23-.23-.23zm0 13.774c-.127 0-.23.103-.23.23v.612c0 .127.103.23.23.23s.23-.103.23-.23v-.612c0-.127-.103-.23-.23-.23zm0 1.53c-.127 0-.23.103-.23.23v.612c0 .127.103.23.23.23s.23-.103.23-.23v-.612c0-.127-.103-.23-.23-.23zm0-6.12c-.127 0-.23.102-.23.23v.61c0 .128.103.23.23.23s.23-.102.23-.23v-.61c0-.128-.103-.23-.23-.23zm0 7.65c-.127 0-.23.104-.23.23v.613c0 .127.103.23.23.23s.23-.103.23-.23v-.612c0-.127-.103-.23-.23-.23zm0-4.59c-.127 0-.23.102-.23.23v.61c0 .128.103.23.23.23s.23-.102.23-.23v-.61c0-.128-.103-.23-.23-.23zm0-1.53c-.127 0-.23.102-.23.23v.61c0 .128.103.23.23.23s.23-.102.23-.23v-.61c0-.128-.103-.23-.23-.23zM14.356 4.205h.61c.128 0 .23-.103.23-.23s-.102-.23-.23-.23h-.61c-.128 0-.23.103-.23.23s.102.23.23.23zm-3.062 0h.612c.127 0 .23-.103.23-.23s-.103-.23-.23-.23h-.612c-.127 0-.23.103-.23.23s.103.23.23.23zm4.592 0h.612c.127 0 .23-.103.23-.23s-.103-.23-.23-.23h-.612c-.127 0-.23.103-.23.23s.103.23.23.23zM26.19 6.454c.028.102.12.17.222.17.02 0 .04-.002.06-.008.122-.033.195-.16.162-.282-.062-.23-.175-.445-.326-.626-.082-.098-.226-.11-.324-.03-.097.083-.11.227-.03.325.11.13.192.286.237.45zM12.825 4.206h.612c.127 0 .23-.103.23-.23s-.103-.23-.23-.23h-.612c-.127 0-.23.103-.23.23s.103.23.23.23zm-3.02.243c.03 0 .06-.007.09-.02l.308-.13c.073-.03.148-.054.222-.07.124-.026.204-.148.178-.272-.026-.124-.15-.205-.272-.178-.1.022-.204.053-.305.096l-.31.13c-.116.05-.17.186-.12.302.037.088.122.14.212.14zm-1.408.598c.03 0 .06-.006.09-.018l.563-.24c.117-.05.17-.185.122-.302-.05-.117-.185-.17-.302-.122l-.563.24c-.117.05-.17.185-.122.302.037.088.122.14.212.14zm-1.408.6c.03 0 .06-.007.09-.02l.562-.24c.117-.05.17-.184.12-.3-.048-.117-.183-.172-.3-.12l-.563.24c-.118.05-.172.184-.122.3.037.087.122.14.21.14zm10.426-1.442h.612c.127 0 .23-.103.23-.23s-.103-.23-.23-.23h-.612c-.127 0-.23.103-.23.23s.103.23.23.23zm5.932.41l.55.27c.033.015.067.022.1.022.086 0 .168-.047.208-.13.056-.113.01-.25-.106-.306l-.55-.27c-.115-.054-.252-.007-.308.107-.056.113-.008.25.106.306zm1.375.672l.55.27c.033.015.067.022.1.022.086 0 .168-.047.208-.13.057-.113.01-.25-.105-.306l-.55-.27c-.115-.055-.252-.008-.308.107s-.01.252.106.308zM6.243 27.326c-.005-.127-.11-.224-.24-.218-.128.006-.225.114-.22.24.013.24.076.47.19.682.04.078.12.122.202.122.037 0 .073-.01.108-.027.112-.06.155-.2.096-.31-.082-.152-.127-.317-.136-.49zm12.703-23.12h.612c.127 0 .23-.103.23-.23s-.103-.23-.23-.23h-.612c-.127 0-.23.103-.23.23s.103.23.23.23zm1.532 0h.612c.127 0 .23-.103.23-.23s-.103-.23-.23-.23h-.612c-.127 0-.23.103-.23.23s.103.23.23.23zm1.53 0h.23c.106 0 .212.014.316.043.02.005.04.007.06.007.102 0 .195-.067.223-.17.034-.12-.038-.248-.16-.282-.144-.04-.29-.06-.438-.06h-.23c-.128 0-.23.103-.23.23s.102.23.23.23zM6.013 23.59c.127 0 .23-.104.23-.23v-.613c0-.127-.103-.23-.23-.23s-.23.103-.23.23v.612c0 .126.103.23.23.23zm0-1.532c.127 0 .23-.103.23-.23v-.612c0-.127-.103-.23-.23-.23s-.23.103-.23.23v.612c0 .127.103.23.23.23zm0-1.53c.127 0 .23-.103.23-.23v-.612c0-.127-.103-.23-.23-.23s-.23.103-.23.23v.612c0 .127.103.23.23.23zm0 4.59c.127 0 .23-.102.23-.23v-.61c0-.128-.103-.23-.23-.23s-.23.102-.23.23v.61c0 .128.103.23.23.23zm0 1.532c.127 0 .23-.103.23-.23v-.612c0-.127-.103-.23-.23-.23s-.23.103-.23.23v.612c0 .127.103.23.23.23zm0-7.652c.127 0 .23-.103.23-.23v-.612c0-.127-.103-.23-.23-.23s-.23.103-.23.23v.612c0 .127.103.23.23.23zm0-3.062c.127 0 .23-.103.23-.23v-.612c0-.127-.103-.23-.23-.23s-.23.103-.23.23v.612c0 .127.103.23.23.23zm0-3.06c.127 0 .23-.104.23-.23v-.613c0-.127-.103-.23-.23-.23s-.23.103-.23.23v.612c0 .127.103.23.23.23zm0-1.53c.127 0 .23-.104.23-.23v-.613c0-.127-.103-.23-.23-.23s-.23.103-.23.23v.612c0 .127.103.23.23.23zm0-1.532c.127 0 .23-.103.23-.23v-.612c0-.127-.103-.23-.23-.23s-.23.103-.23.23v.612c0 .127.103.23.23.23zm0 4.592c.127 0 .23-.103.23-.23v-.612c0-.127-.103-.23-.23-.23s-.23.103-.23.23v.612c0 .127.103.23.23.23zm0-6.122c.127 0 .23-.103.23-.23v-.612c0-.127-.103-.23-.23-.23s-.23.103-.23.23v.612c0 .127.103.23.23.23zm0 9.183c.127 0 .23-.103.23-.23v-.612c0-.127-.103-.23-.23-.23s-.23.103-.23.23v.612c0 .127.103.23.23.23z"/></svg>