<svg xmlns="http://www.w3.org/2000/svg" viewBox="0 0 32 32"><path d="M10.4 23.26H7.68c-.38 0-.72-.06-1.02-.18-.31-.12-.57-.29-.79-.51-.22-.22-.39-.49-.51-.81-.11-.31-.17-.65-.17-1.02v-2.43c0-.27-.03-.5-.1-.68-.06-.17-.15-.3-.26-.4-.11-.1-.25-.17-.41-.22-.18-.05-.39-.08-.62-.08l-.3-.01v-2.04l.3-.01c.24-.01.45-.04.63-.1.17-.05.3-.12.41-.22.11-.1.2-.23.26-.4.07-.18.1-.41.1-.68v-2.43c0-.8.23-1.43.67-1.86.43-.44 1.04-.66 1.8-.66h2.72v2.02H8.7c-.35 0-.59.09-.73.27-.16.2-.24.53-.24.97v2.23c0 .29-.05.56-.14.8-.09.24-.22.46-.38.64-.15.17-.33.32-.53.44.2.12.38.27.53.44.16.19.29.4.38.64.09.24.14.51.14.79v2.23c0 .45.08.78.23.98.14.18.38.26.73.26h1.7l.01 2.03zm-6.29-6.93c.17.02.33.05.48.09.25.07.47.19.66.35.18.17.33.38.42.64.09.25.14.55.14.89v2.43c0 .3.04.58.13.82.08.23.2.43.36.58.16.16.35.28.58.37.23.09.5.14.8.14h2.11v-.8H8.7c-.55 0-.95-.17-1.21-.5-.25-.31-.36-.76-.36-1.35v-2.23c0-.21-.03-.41-.1-.57-.07-.17-.16-.33-.27-.46-.12-.13-.26-.24-.41-.33-.16-.09-.34-.16-.52-.2l-.24-.06v-.49l.24-.08c.18-.04.35-.1.51-.19.16-.09.29-.2.41-.33.11-.13.21-.28.27-.46.07-.17.1-.37.1-.58v-2.23c0-.59.12-1.03.36-1.35.26-.33.67-.5 1.21-.5h1.08v-.79h-2.1c-.6 0-1.06.16-1.39.48-.32.31-.48.78-.48 1.42v2.43c0 .35-.05.65-.14.89-.1.26-.24.48-.42.64-.18.16-.4.29-.65.36-.15.04-.31.08-.49.1l.01.87zm13.16 7.15h-2.55V8.52h2.55v14.96zm-1.94-.61h1.33V9.14h-1.32c-.01 0-.01 13.73-.01 13.73zm9 .39H21.6v-2.03h1.7c.35 0 .59-.09.73-.26.16-.2.23-.53.23-.98v-2.23c0-.29.05-.56.14-.8.09-.24.22-.45.38-.64.15-.18.33-.33.53-.44-.2-.12-.38-.26-.52-.44-.16-.18-.29-.4-.38-.64-.09-.24-.14-.51-.14-.8v-2.23c0-.45-.08-.77-.24-.97-.14-.18-.38-.27-.73-.27h-1.7V8.52h2.73c.76 0 1.37.22 1.82.65.45.44.67 1.06.67 1.86v2.43c0 .27.03.5.1.68.06.17.15.3.26.4.11.1.25.18.41.22.18.05.4.09.63.1l.3.01v2.04l-.3.01c-.23 0-.44.03-.62.08-.17.05-.3.12-.42.22-.11.1-.2.23-.26.4-.07.18-.1.41-.1.68v2.43c0 .37-.06.72-.17 1.02-.11.31-.28.59-.5.81-.22.22-.49.39-.79.51-.31.13-.66.19-1.03.19zm-2.12-.62h2.11c.3 0 .57-.05.8-.14.23-.09.42-.21.58-.37.16-.16.28-.35.36-.58.09-.24.13-.51.13-.82V18.3c0-.35.05-.65.14-.89.1-.26.24-.48.42-.64.18-.16.4-.28.66-.35.15-.04.31-.07.48-.09v-.87c-.17-.02-.34-.05-.49-.1-.25-.07-.47-.2-.65-.36-.18-.17-.32-.38-.42-.64-.09-.25-.14-.55-.14-.89v-2.43c0-.63-.16-1.11-.49-1.43-.33-.32-.78-.48-1.39-.48H22.2v.79h1.08c.55 0 .95.17 1.21.5.25.32.36.76.36 1.35V14c0 .21.03.41.1.58.07.17.16.33.27.46.11.13.25.24.41.33.16.09.33.15.5.19l.24.05v.49l-.24.08c-.18.04-.36.11-.52.2-.16.09-.29.2-.41.33-.11.13-.21.29-.27.46-.07.17-.1.36-.1.57v2.23c0 .6-.12 1.04-.36 1.35-.26.33-.67.5-1.21.5h-1.08l.03.82z"/></svg>