<svg xmlns="http://www.w3.org/2000/svg" width="32" height="32" viewBox="0 0 32 32"><path d="M17.106 12.05c0-2.893-2.354-5.247-5.248-5.247S6.61 9.157 6.61 12.05 8.964 17.3 11.858 17.3s5.248-2.354 5.248-5.247zm-10.036 0c0-2.64 2.148-4.787 4.788-4.787s4.788 2.148 4.788 4.788-2.148 4.788-4.788 4.788S7.07 14.69 7.07 12.05zm8.18-1.608c.04.083.122.13.208.13.033 0 .067-.006.098-.02.115-.055.163-.193.11-.307-.696-1.462-2.19-2.406-3.807-2.406-.128 0-.23.102-.23.23s.102.23.23.23c1.44 0 2.77.84 3.39 2.143zm10.538 16.376l-7.04-8.755c-.192-.238-.33-.266-.418-.266-.07 0-.148.027-.203.07l-.062.05-1.39-1.727c.96-1.113 1.542-2.558 1.542-4.138 0-3.506-2.853-6.36-6.36-6.36-3.505 0-6.358 2.854-6.358 6.36 0 3.506 2.85 6.358 6.358 6.358 1.03 0 1.998-.25 2.858-.686l1.41 1.753-.062.05c-.064.05-.11.138-.12.22-.005.045-.02.186.176.428l7.04 8.756c.193.238.33.266.42.266.07 0 .147-.027.2-.07l2.064-1.66c.064-.05.11-.138.12-.22.004-.046.02-.186-.176-.428zM6.113 12.05c0-3.167 2.578-5.745 5.746-5.745s5.745 2.578 5.745 5.746c0 1.52-.597 2.9-1.562 3.927l-1.254 1.007c-.86.512-1.86.812-2.93.812-3.17 0-5.747-2.577-5.747-5.745zM16.25 16.64L17.5 18.19l-.983.79-1.258-1.563c.357-.227.69-.487.994-.778zm7.343 11.852l-6.95-8.642 1.673-1.345 6.95 8.642-1.672 1.345zm.417-1.86c.045.057.112.086.18.086.05 0 .1-.017.143-.05.1-.08.115-.225.035-.324l-2.62-3.258c-.08-.1-.224-.115-.323-.035-.1.078-.115.223-.035.322l2.62 3.258z"/></svg>