<svg xmlns="http://www.w3.org/2000/svg" viewBox="0 0 31.68 31.68"><path d="M24.79 6.13c-.07 0-1.74.03-4.04.93-2.1.82-5.12 2.55-7.64 6.16-.47.12-.99.24-1.53.36-2.03.46-4.32.97-5.55 2.2l-.34.34 5.26.38-5 6.68 4.36-3.43-.64 1.66 1.22-.36-4.44 5.48 8.19-6.33.38 5.25.34-.34c1.23-1.23 1.75-3.53 2.2-5.55.12-.54.24-1.05.36-1.53 3.6-2.52 5.33-5.54 6.15-7.64.9-2.29.93-3.97.93-4.04v-.23l-.21.01zm-1.13 4.12c-.8 2.04-2.49 4.97-5.99 7.42-.87-.05-2.2.65-2.93 1.7l-2.97-2.97c1.05-.73 1.75-2.06 1.7-2.93 4.2-6.01 9.87-6.79 11.09-6.89-.05.54-.22 1.93-.9 3.67zm-11.98 3.76c.47-.11.92-.21 1.35-.32-.07.76-.71 1.84-1.6 2.41l-4.7-.34c1.22-.91 3.19-1.36 4.95-1.75zm5.77 4.1c-.11.43-.21.87-.32 1.35-.4 1.76-.84 3.74-1.75 4.95l-.34-4.71c.58-.88 1.65-1.53 2.41-1.59zm-5.32 2.11l-1.72.51.9-2.32-3.01 2.37 3.09-4.13 3.1 3.1-5.32 4.11 2.96-3.64z"/><path d="M18.86 13.85c.42 0 .81-.16 1.11-.46.61-.61.61-1.61 0-2.22-.3-.3-.69-.46-1.11-.46-.42 0-.81.16-1.11.46-.3.3-.46.69-.46 1.11 0 .42.16.81.46 1.11.3.3.69.46 1.11.46zm0-2.7c.3 0 .58.12.8.33.44.44.44 1.16 0 1.6-.43.43-1.17.43-1.6 0-.21-.21-.33-.5-.33-.8 0-.3.12-.58.33-.8.21-.21.5-.33.8-.33z"/></svg>