<svg xmlns="http://www.w3.org/2000/svg" viewBox="0 0 32 32"><path d="M9.66 12.4l2.23-.35c.17-.03.28-.18.26-.35-.03-.17-.18-.28-.35-.26l-2.28.36c-.02 0-.05.01-.07.02 0-.01.01-.06.06-.12l4.73-5.71 4.72 5.7c.06.07.07.12.07.12s0 .01-.01.01c-.03-.01-.05-.02-.08-.02l-2.89-.35c-.09-.01-.17.02-.24.07s-.12.14-.12.23v8.16l-2.52-.31c-.27-.11-.54-.01-.72.26-.07.11-.21.41.1.83l4.96 6c.06.07.15.11.24.11s.18-.04.24-.11l4.97-6.01c.31-.41.17-.71.09-.82-.18-.28-.47-.37-.75-.25l-2.25.35c-.16.05-.26.22-.21.38.05.16.22.26.38.21l2.27-.35c.01 0 .02-.01.03-.01 0 .01-.01.06-.06.12l-4.73 5.71-4.72-5.7c-.06-.08-.07-.12-.07-.12s0-.01.01-.01c.03.01.05.02.08.02l2.89.35c.09.01.17-.02.24-.08s.12-.14.12-.23v-8.16l2.52.31c.27.11.54.01.72-.26.07-.11.21-.41-.1-.83l-4.96-6c-.06-.07-.15-.11-.24-.11s-.16.04-.22.11l-4.97 6.01c-.31.41-.17.71-.1.82.19.27.46.36.73.26z"/></svg>