<svg xmlns="http://www.w3.org/2000/svg" width="32" height="32" viewBox="0 0 32 32"><path d="M15.473 2.894v.003c0 .088.438.16.978.16s.98-.07.98-.16v-.003-.003c0-.087-.44-.16-.98-.16s-.977.072-.977.16v.004zm2.885 6.115l-.34-4.015c0-.054-.004-.107-.01-.16.17-.102.274-.24.274-.425V2.68c0-.582-1.024-.704-1.883-.704s-1.884.122-1.884.704v1.73c0 .185.104.323.273.426-.007.052-.01.105-.01.16l-.34 4.013c-2.22 1.346-2.683 3.67-2.71 6.266-.01.043.16 12.07.16 12.07 0 .248.21.472.556.665l.377.18c.614.245 1.473.423 2.392.513.44.042.72.066 1.167.066.452 0 .74-.025 1.183-.07.216-.02.43-.046.636-.077.413-.062.8-.14 1.15-.237.213-.06.413-.124.59-.196l.377-.178c.348-.194.558-.418.558-.667l.024-2.8c.014-.333.17-8.095.17-8.128V15.39c0-2.948-.722-5.247-2.713-6.38zm-3.292-6.28c.097-.068.47-.205 1.333-.205.86 0 1.235.137 1.332.204v1.63c-.097.066-.47.203-1.333.203s-1.237-.137-1.334-.204V2.73zm4.377 25.003c-.732.23-1.684.432-3.06.432-1.38 0-2.334-.204-3.066-.432-.214-.066-.393-.135-.536-.2-.235-.11-.29-.213-.31-.288l-.19-11.972c.005-.354.004.375 0 0-.022-2.305.496-4.646 2.52-5.807.107-.06.194-.17.19-.293l.34-4.146c.33.066.713.088 1.07.088.355 0 .74-.022 1.067-.088l.34 4.178c0 .12.085.21.192.262 1.753.87 2.533 2.906 2.533 5.906L20.3 27.247c-.03.124-.288.31-.856.487z"/></svg>