<svg xmlns="http://www.w3.org/2000/svg" viewBox="0 0 31.68 31.68"><path d="M14.31 16.56h2.01c.09 0 .16-.07.16-.16s-.07-.16-.16-.16h-2.01c-.09 0-.16.07-.16.16s.07.16.16.16zM3.85 15.08h5.59c.16 0 .3-.12.32-.28.38-3.36 3.4-5.77 6.76-5.39 2.84.32 5.07 2.56 5.39 5.39.02.16.16.29.32.28h3.63c.18 0 .32-.14.32-.32s-.14-.32-.32-.32h-3.35c-.56-3.69-4.01-6.22-7.69-5.66-2.92.44-5.22 2.74-5.66 5.66h-5.3l.41-.41c.1-.14.07-.34-.08-.45-.11-.08-.26-.08-.37 0l-.94.94c-.07.06-.11.15-.11.24s.03.17.09.23l.96.96c.13.11.34.1.45-.03.1-.12.1-.3 0-.42l-.42-.42zm10.46-.12h2.01c.09 0 .16-.07.16-.16s-.07-.16-.16-.16h-2.01c-.09 0-.16.07-.16.16s.07.16.16.16zm0 .8h2.01c.09 0 .16-.07.16-.16s-.07-.16-.16-.16h-2.01c-.09 0-.16.07-.16.16s.07.16.16.16zm-.18-3.39c-.13 0-.24.11-.24.24v.76h-.81c-.13 0-.24.11-.24.24v5.48c0 .13.11.24.24.24h4.48c.13 0 .24-.11.24-.24v-.76h.81c.13 0 .24-.11.24-.24v-5.48c0-.13-.11-.24-.24-.24h-4.48zm3.18 6.48h-3.99v-5h3.99v5zm1.05-.99h-.57v-4.24c0-.13-.11-.24-.24-.24h-3.18v-.52h3.99v5zm10.56-.93c0-.09-.03-.17-.09-.23l-.96-.96c-.13-.11-.34-.1-.45.03-.1.12-.1.3 0 .42l.41.41h-5.6c-.16 0-.3.12-.32.28-.38 3.36-3.4 5.77-6.76 5.39-2.84-.32-5.07-2.56-5.39-5.39-.02-.16-.16-.29-.32-.28H5.8c-.18 0-.32.14-.32.32s.14.32.32.32h3.35c.56 3.69 4.01 6.22 7.69 5.66 2.92-.44 5.22-2.74 5.66-5.66h5.3l-.41.41c-.13.11-.15.32-.03.45.11.13.32.15.45.03l.03-.03.94-.94c.07-.06.11-.15.11-.24l.03.01zm-14.61.44h2.01c.09 0 .16-.07.16-.16s-.07-.16-.16-.16h-2.01c-.09 0-.16.07-.16.16s.07.16.16.16zm0 .8h2.01c.09 0 .16-.07.16-.16s-.07-.16-.16-.16h-2.01c-.09 0-.16.07-.16.16s.07.16.16.16z"/></svg>