<svg xmlns="http://www.w3.org/2000/svg" viewBox="0 0 36 36"><title>Icon-Red_Hat-Diagrams-Game_Plan-A-Black-RGB</title><path d="M30 8.51H10.32a.69.69 0 0 0-.2 0h-.07a.78.78 0 0 0-.22.15l-4.36 4.43a1.07 1.07 0 0 0-.15.22v.07a.65.65 0 0 0 0 .19v13.14a.75.75 0 0 0 .75.75H30a.75.75 0 0 0 .75-.75V9.26a.75.75 0 0 0-.75-.75zM8.71 12l.9-.9v1.8h-1.8zm20.54 14H6.75V14.37h3.61a.74.74 0 0 0 .75-.75V10h18.14z"/><path d="M11 19.23A2.75 2.75 0 1 0 13.75 22 2.75 2.75 0 0 0 11 19.23zm0 4A1.25 1.25 0 1 1 12.25 22 1.25 1.25 0 0 1 11 23.23zM14.47 17.51a.75.75 0 0 0 1.06 0L17 16.05l1.47 1.46a.75.75 0 0 0 1.06 0 .75.75 0 0 0 0-1.06L18.06 15l1.47-1.47a.75.75 0 0 0-1.06-1.06L17 13.92l-1.47-1.47a.75.75 0 0 0-1.06 1.06L15.94 15l-1.47 1.47a.75.75 0 0 0 0 1.04zM22.05 21.23H16a.75.75 0 0 0 0 1.5h6.05a3.7 3.7 0 0 0 3.7-3.7V16.8l.72.71a.75.75 0 0 0 1.06 0 .75.75 0 0 0 0-1.06l-2-2a1.07 1.07 0 0 0-.22-.15.69.69 0 0 0-.24 0h-.33a.64.64 0 0 0-.22.14l-2 2a.75.75 0 0 0 0 1.06.74.74 0 0 0 1.06 0l.72-.71V19a2.2 2.2 0 0 1-2.25 2.23z"/></svg>