<svg xmlns="http://www.w3.org/2000/svg" viewBox="0 0 36 36"><title>Icons-Red_Hat-Software_and_Technologies-Orchestration-A-Black-RGB</title><path d="M16 11.73h6a.75.75 0 0 0 .75-.75V5a.76.76 0 0 0-.75-.77h-6a.76.76 0 0 0-.75.75v6a.75.75 0 0 0 .75.75zm.75-6h4.5v4.5h-4.5zM28.53 20.45a.64.64 0 0 0-.22-.14H28a.69.69 0 0 0-.24.05 1.07 1.07 0 0 0-.22.15l-2 2a.75.75 0 0 0 0 1.06.75.75 0 0 0 1.06 0l.72-.71V24A3.25 3.25 0 0 1 24 27.23H14a.75.75 0 0 0 0 1.5h10A4.75 4.75 0 0 0 28.75 24v-1.2l.72.71a.74.74 0 0 0 1.06 0 .75.75 0 0 0 0-1.06zM13.75 8a.76.76 0 0 0-.75-.77h-1A4.76 4.76 0 0 0 7.25 12v8.19l-.72-.72a.75.75 0 0 0-1.06 1.06l2 2a.7.7 0 0 0 .25.17.81.81 0 0 0 .56 0 1.07 1.07 0 0 0 .22-.15l2-2a.75.75 0 0 0-1.06-1.06l-.72.72V12A3.26 3.26 0 0 1 12 8.73h1a.75.75 0 0 0 .75-.73zM31 4.23h-6a.76.76 0 0 0-.75.75v6a.75.75 0 0 0 .75.75h6a.75.75 0 0 0 .75-.75V5a.76.76 0 0 0-.75-.77zm-.75 6h-4.5v-4.5h4.5z"/><rect x="15.25" y="13.23" width="7.5" height="7.5" rx=".75"/><rect x="4.25" y="24.23" width="7.5" height="7.5" rx=".75"/></svg>