<svg xmlns="http://www.w3.org/2000/svg" viewBox="0 0 36 36"><title>Icon-Red_Hat-Office-Printer_Copier-A-Black-RGB</title><path d="M11.25 12v4.19l-2.72-2.7a.74.74 0 0 0-1.06 0 .75.75 0 0 0 0 1.06l3.78 3.78V27a.76.76 0 0 0 .75.75h14a.76.76 0 0 0 .75-.75V12a.75.75 0 0 0-.75-.75H12a.75.75 0 0 0-.75.75zm1.5.75h12.5v4.5H17a.75.75 0 0 0 0 1.5h8.25v1.51H17a.75.75 0 0 0 0 1.5h8.25v1.49H17a.75.75 0 0 0 0 1.5h8.25v1.5h-12.5zM26 6.27H16a.75.75 0 0 0-.75.75v3a.76.76 0 0 0 .75.75h10a.76.76 0 0 0 .75-.75V7a.75.75 0 0 0-.75-.73zm-.75 3h-8.5v-1.5h8.5zM11.71 29.71a.73.73 0 0 0 .82-.17.74.74 0 0 0 .22-.52.72.72 0 0 0-.06-.29.82.82 0 0 0-.16-.25.77.77 0 0 0-1.06 0 .67.67 0 0 0-.16.25.72.72 0 0 0-.06.29.67.67 0 0 0 .06.28.63.63 0 0 0 .16.24.66.66 0 0 0 .24.17z"/><path d="M18.71 15.71a.73.73 0 0 0 .58 0 .78.78 0 0 0 .24-.16.67.67 0 0 0 .16-.25.71.71 0 0 0 .06-.28.72.72 0 0 0-.06-.29 1 1 0 0 0-.16-.25.79.79 0 0 0-.82-.16 1 1 0 0 0-.24.16.67.67 0 0 0-.16.25.72.72 0 0 0-.06.29.77.77 0 0 0 .22.53.78.78 0 0 0 .24.16zM20.71 15.71a.73.73 0 0 0 .58 0 .78.78 0 0 0 .24-.16.77.77 0 0 0 .22-.53.72.72 0 0 0-.06-.29.82.82 0 0 0-.16-.25 1 1 0 0 0-.24-.16.77.77 0 0 0-.82.16 1 1 0 0 0-.16.25.72.72 0 0 0-.06.29.77.77 0 0 0 .22.53.78.78 0 0 0 .24.16zM22.71 15.71a.72.72 0 0 0 .29.06.75.75 0 0 0 .29-.06.78.78 0 0 0 .24-.16.75.75 0 0 0 .22-.53.72.72 0 0 0-.06-.29.82.82 0 0 0-.16-.25.79.79 0 0 0-1.06 0 .67.67 0 0 0-.16.25.72.72 0 0 0-.06.29.75.75 0 0 0 .22.53.78.78 0 0 0 .24.16zM26.69 28.73a.82.82 0 0 0-.16-.25.77.77 0 0 0-1.06 0 .67.67 0 0 0-.16.25.72.72 0 0 0-.06.29.67.67 0 0 0 .06.28.63.63 0 0 0 .16.24.66.66 0 0 0 .24.17.72.72 0 0 0 .29.06.75.75 0 0 0 .29-.06.66.66 0 0 0 .24-.17.74.74 0 0 0 .22-.52.72.72 0 0 0-.06-.29z"/></svg>