<svg data-name="Icon" xmlns="http://www.w3.org/2000/svg" width="36" height="36" viewBox="0 0 36 36"><title>Icon-Red_Hat-Media_and_documents-Disc-A-Black-RGB</title><path d="M18 13.83A4.17 4.17 0 1 0 22.17 18 4.17 4.17 0 0 0 18 13.83zm0 6.84A2.67 2.67 0 1 1 20.67 18 2.68 2.68 0 0 1 18 20.67zm11.59-8A13.12 13.12 0 0 0 18 5.25 12.76 12.76 0 0 0 5.25 18c0 7.58 6.59 12.71 12.75 12.75h.07a13.18 13.18 0 0 0 11.73-7.92 14 14 0 0 0 .95-4.83 12.77 12.77 0 0 0-1.16-5.32zm-1.17 9.58a11.66 11.66 0 0 1-10.35 7H18A11.46 11.46 0 0 1 6.75 18 11.27 11.27 0 0 1 18 6.75a11.6 11.6 0 0 1 10.24 6.58 11.24 11.24 0 0 1 1 4.67 12.28 12.28 0 0 1-.82 4.26zM18 9.64a.75.75 0 0 0 0 1.5 6.86 6.86 0 0 1 6 3.59.75.75 0 0 0 .66.39.8.8 0 0 0 .36-.09.74.74 0 0 0 .3-1A8.36 8.36 0 0 0 18 9.64z"/></svg>