<svg xmlns="http://www.w3.org/2000/svg" width="32" height="32" viewBox="0 0 32 32"><path d="M28.372 24.242l-2.387-2.978c-.03-.328-.19-.617-.426-.822.26-.227.43-.56.43-.932V9.074c0-.684-.556-1.24-1.24-1.24H8c-.684 0-1.24.556-1.24 1.24V19.51c0 .373.168.705.43.932-.234.203-.394.49-.425.815L4.19 24.233c-.05.056-.076.127-.076.2 0 .823.314 1.24.934 1.24h22.458c.62 0 .934-.417.934-1.24 0-.07-.024-.137-.068-.19zm-21-15.168c0-.346.28-.628.627-.628h16.75c.345 0 .627.282.627.628V19.51c0 .346-.282.627-.628.627H8c-.347 0-.63-.28-.63-.627V9.074zm20.133 15.988H5.047c-.134 0-.3 0-.32-.516l2.57-2.967c.047-.057.074-.128.074-.2 0-.348.283-.63.63-.63h16.75c.345 0 .627.282.627.63 0 .07.023.136.067.19l2.38 2.97c-.02.523-.185.523-.32.523zM7.463 22.705H25.24c.083 0 .152-.07.152-.153 0-.085-.07-.153-.153-.153H7.462c-.085 0-.153.067-.153.152 0 .085.07.153.153.153zm1.36-3.157H23.93c.42 0 .764-.367.764-.818V9.973c0-.45-.343-.818-.765-.818H16.85c.002-.02.006-.04.006-.063 0-.267-.215-.482-.482-.482s-.482.216-.482.482c0 .022.004.042.006.063H8.824c-.422 0-.765.367-.765.818v8.757c-.002.45.342.818.764.818zM8.52 9.973c0-.198.136-.36.304-.36H23.93c.167 0 .304.162.304.36v8.757c0 .198-.137.36-.305.36H8.824c-.168 0-.305-.162-.305-.36V9.973zM8.01 21.67h16.76c.085 0 .154-.07.154-.153 0-.085-.07-.153-.153-.153H8.01c-.084 0-.152.068-.152.153 0 .085.07.153.153.153zm-1.6 1.916c0 .084.07.153.154.153h19.268c.084 0 .153-.07.153-.154 0-.085-.07-.153-.153-.153H6.564c-.085 0-.153.068-.153.153zm10-5.185c.59 0 1.087-.497 1.087-1.086S17 16.227 16.41 16.227c-.588 0-1.085.498-1.085 1.087s.497 1.087 1.086 1.087zm0-1.773c.373 0 .687.314.687.686s-.314.686-.686.686c-.37 0-.685-.315-.685-.687s.314-.686.686-.686zm-.688-.812c.012.1.097.176.2.176h.98c.1 0 .186-.075.198-.176l.24-2.026v-3.004c0-.11-.09-.2-.2-.2h-1.46c-.11 0-.2.09-.2.2l.002 3.028.24 2.003zm.158-4.83h1.06l.002 2.78-.218 1.825h-.626l-.218-1.802v-2.804z"/></svg>