<svg data-name="Layer 1" xmlns="http://www.w3.org/2000/svg" viewBox="0 0 36 36"><title>Icon-Red_Hat-Covered_Dish-A-Black-RGB</title><path d="M32.107 25.714a.748.748 0 0 0-.53-.22H4.423a.75.75 0 0 0 0 1.5h27.154a.75.75 0 0 0 .53-1.28zM6.512 24a.75.75 0 0 0 .75-.75 10.738 10.738 0 0 1 21.476 0 .75.75 0 0 0 1.5 0 12.238 12.238 0 0 0-24.476 0 .75.75 0 0 0 .75.75z"/><path d="M11.566 16.81A9.075 9.075 0 0 0 8.9 23.246a.75.75 0 1 0 1.5 0 7.612 7.612 0 0 1 7.6-7.6.75.75 0 1 0 0-1.5 9.07 9.07 0 0 0-6.434 2.666zM17.47 10.29a.687.687 0 0 0 .112.09.922.922 0 0 0 .128.07.86.86 0 0 0 .145.045.693.693 0 0 0 .145.015.736.736 0 0 0 .287-.058.748.748 0 0 0 .448-.84.682.682 0 0 0-.045-.142.922.922 0 0 0-.07-.128.687.687 0 0 0-.09-.112.774.774 0 0 0-1.06 0 .687.687 0 0 0-.09.112.827.827 0 0 0-.07.128.682.682 0 0 0-.045.14.746.746 0 0 0-.015.15.76.76 0 0 0 .22.53z"/></svg>