<svg xmlns="http://www.w3.org/2000/svg" viewBox="0 0 31.68 31.68"><path d="M17.27 15.62l-.22-.5c-.37.19-.79.28-1.21.27-1.51.04-2.77-1.14-2.81-2.65v-.17c.02-1.55 1.3-2.79 2.85-2.77 1.49.02 2.7 1.2 2.77 2.68 0 .87-.23 1.37-.81 1.37-.42 0-.57-.27-.57-.62V11.9c0-.81-.59-1.25-1.46-1.25-.47-.01-.93.11-1.33.36l.33.61c.3-.17.65-.26 1-.24.27-.04.51.15.54.42v.33c-.22-.12-.47-.19-.72-.18-.82-.01-1.45.39-1.45 1.17-.02.69.52 1.26 1.21 1.28h.12c.45.02.89-.17 1.19-.52.24.35.66.55 1.09.51.82 0 1.4-.53 1.4-1.91 0-1.79-1.45-3.25-3.24-3.25h-.1c-1.79-.06-3.29 1.34-3.35 3.13v.22c-.06 1.79 1.34 3.29 3.13 3.35h.22c.48.02.97-.09 1.42-.31zm-.91-2.32c-.15.23-.42.37-.7.36-.43 0-.58-.24-.58-.51s.2-.49.58-.49c.24-.02.49.04.7.17v.47zm7.88-.5l-1.47-1.45V7.97c0-.14-.11-.25-.25-.25h-3.4l-2.39-2.38c-.53-.53-1.4-.53-1.93 0l-2.32 2.37H9.16c-.14 0-.25.11-.25.25v3.35L7.44 12.8c-.06.06-.1.15-.1.23v11.93c0 .18.15.33.33.33H24c.18 0 .33-.15.33-.33V13.03c0-.08-.03-.17-.09-.23zm-1.47-.52l.71.72-.72.53.01-1.25zm-7.5-6.45c.28-.27.72-.27 1 0l1.9 1.9H13.4l1.87-1.9zM9.41 8.22h12.86v5.67l-5.16 3.77-.39-.38c-.25-.25-.6-.4-.96-.4s-.71.15-.96.41l-.3.31-5.09-3.71V8.22zm-.5 4.04v1.26l-.72-.53.72-.73zm-.9 1.43l6 4.39-6 6.08V13.69zm.46 10.96l6.8-6.9c.13-.13.31-.21.49-.21s.36.07.49.2l6.94 6.89-14.72.02zm15.2-.47l-6.08-6.05 6.08-4.44v10.49z"/></svg>