<svg xmlns="http://www.w3.org/2000/svg" width="32" height="32" viewBox="0 0 32 32"><path d="M27.818 15.58c-.935 0-1.71.69-1.843 1.59l-1.834.015-1.373-4.924c-.04-.146-.173-.25-.326-.252-.15-.004-.288.093-.336.238-1.197 3.62-2.024 6.162-2.473 7.604l-.695-3.323c-.443-2.12-.957-4.58-1.364-6.51-.203-.966-.38-1.8-.508-2.39-.064-.297-.117-.533-.154-.695-.067-.294-.122-.55-.435-.515-.176.018-.31.142-.31.32-.07.598-2.263 10.9-3.11 14.452l-2.435-9.177c-.04-.152-.178-.257-.334-.257h-.002c-.158 0-.294.107-.334.26L8.635 17.13l-1.62.01c-.184-.834-.93-1.46-1.82-1.46-1.027 0-1.864.836-1.864 1.864s.838 1.866 1.866 1.866c.93 0 1.702-.685 1.84-1.577l1.87-.014c.158-.002.295-.11.334-.26l1.05-4.088 2.425 9.14c.033.122.13.217.253.247.027.005.054.01.082.01.096 0 .19-.04.256-.115.3-.33 2.395-10.314 3.218-14.336.432 2.022 1.182 5.608 1.734 8.25l.69 3.293c.132.635.215 1.028.283 1.27v.017h.005c.11.372.183.365.375.345.165-.017.293-.148.31-.31.074-.38 1.414-4.496 2.483-7.74l1.14 4.083c.042.15.178.253.334.253h.003l2.12-.017c.19.828.932 1.448 1.817 1.448 1.028 0 1.866-.836 1.866-1.865s-.837-1.865-1.865-1.865zm-22.62 3.155c-.658 0-1.192-.535-1.192-1.193s.535-1.193 1.192-1.193c.658 0 1.193.534 1.193 1.192s-.534 1.193-1.192 1.193zm22.62-.098c-.658 0-1.193-.535-1.193-1.193s.535-1.193 1.193-1.193 1.193.536 1.193 1.194-.534 1.193-1.192 1.193z"/></svg>