<svg xmlns="http://www.w3.org/2000/svg" viewBox="0 0 32 32"><path d="M17.62 14.91c-.05.02-1.2.62-1.14 1.99 0 .02.02.2.12.61.01.02.01.04.02.07-.17-.18-.45-.39-.87-.56-.09-.04-.2-.01-.26.07s-.07.18-.02.27c.01.02.2.35.15.96l-.5-.28c-.15-.08-.33-.03-.42.12s-.03.33.12.42l.68.38c-.06.34-.22 2.09 2.02 2.76.02.01.04.01.07.01.03 0 .06-.01.09-.02.04-.01.69-.29 1.21-.87l.55.3c.05.03.1.04.15.04.11 0 .21-.06.27-.16.08-.15.03-.33-.12-.42l-.5-.28c.04-.08.08-.15.11-.24.24-.62.17-1.31-.19-2.05 0-.01-.43-.69.04-1.51.05-.08.04-.19-.02-.26s-.16-.1-.25-.07c-.03.01-.69.24-.97.98-.23-.33-.45-.96.01-1.96.04-.09.02-.19-.05-.26-.11-.07-.21-.08-.3-.04zm-.06 6.33c-1.58-.51-1.67-1.62-1.64-2.06l2.53 1.41c-.33.36-.73.58-.89.65zm.36-3.42c.07.05.15.05.23.02.07-.03.12-.1.13-.18.03-.26.12-.45.22-.6-.1.69.22 1.19.23 1.2.3.6.35 1.16.16 1.66-.02.06-.06.12-.08.18l-2.76-1.54c.05-.34.05-.63.01-.86.36.25.42.48.42.48.01.08.06.14.13.17s.15.02.22-.02c.41-.27.24-.89.22-.94-.09-.36-.1-.52-.1-.52-.02-.45.13-.79.31-1.04-.25 1.34.65 1.98.66 1.99zm4-6.95l-.03-.04c-.67-.79-1.37-1.39-2.1-1.77.25-.28.39-.65.39-1.03 0-.86-.7-1.56-1.57-1.56-.54 0-1.03.28-1.32.74-.19-.01-.5.01-.7.11-.25.13-.24.48-.23.76v.72h-1.51c-.05-.15-.19-.26-.36-.27l-4.26-.69c-.24-.06-.45.15-.45.39v2.47c0 .23.18.41.41.41h.04l4.26-.69c.19-.01.34-.15.37-.33h1.49v.98c-1.33.41-2.66 1.72-2.66 3.3v10.02c0 .34 0 1.15.82 1.15h5.73c.79 0 .79-.75.79-1.15V14.37c0-1.69-1.5-2.99-2.96-3.31v-.93h.27c.04 0 1.04-.02 2.43 1.64l.04.05c.15.18.35.42.61.42h.03c.15-.01.25-.07.38-.18.18-.15.37-.34.39-.58.01-.24-.17-.45-.3-.61zm-7.51-.91l-4.17.67V8.29l4.17.67v1zm6.01 4.41v10.02c0 .54-.05.54-.18.54h-5.73c-.13 0-.21 0-.21-.54V14.37c0-1.3 1.18-2.42 2.29-2.74h1.2c1.27.2 2.63 1.34 2.63 2.74zm1.11-2.66c-.09.07-.11.08-.11.08-.06-.01-.2-.18-.26-.25l-.04-.05c-1.51-1.8-2.67-1.81-2.79-1.81h-.49c-.13 0-.23.1-.23.23v1.11h-.8V9.86c0-.13-.1-.23-.23-.23h-1.71v-.38h1.71c.13 0 .23-.1.23-.23v-.96c0-.18 0-.3.02-.36.13-.05.4-.05.56-.04.09.01.18-.04.22-.13.19-.38.57-.62.99-.62.61 0 1.1.5 1.1 1.11 0 .35-.17.69-.47.9-.07.05-.1.13-.09.21.01.08.06.15.13.19.78.35 1.53.95 2.25 1.8l.04.04c.06.06.18.21.19.27 0 .04-.03.12-.22.28zM18.1 8.03v.01c0 .28.23.51.51.51s.51-.23.51-.51v-.01-.01c0-.28-.23-.51-.51-.51s-.51.23-.51.51v.01z"/></svg>