<svg xmlns="http://www.w3.org/2000/svg" viewBox="0 0 32 32"><path d="M14.33 24.75c-.55 0-1.25-.36-1.61-.82l-4.63-5.98c-.39-.5-.34-1.28.11-1.73l.63-.63c.22-.22.5-.33.79-.33.33 0 .64.15.85.4l3.3 4.02c.17.2.39.19.53-.04l7.01-11.8c.22-.36.61-.58 1.03-.58.21 0 .42.06.6.16l.62.37c.56.33.76 1.06.44 1.63l-8.16 14.4c-.28.52-.95.92-1.51.93zm-4.71-8.88c-.13 0-.26.06-.36.15l-.63.63c-.23.24-.26.66-.06.92l4.63 5.98c.24.31.76.58 1.12.58.34 0 .81-.29.99-.61l8.16-14.4c.16-.28.06-.64-.21-.8l-.62-.37c-.26-.16-.64-.06-.8.2l-7.01 11.8c-.19.31-.48.49-.8.49-.27 0-.53-.13-.73-.36L10 16.06c-.09-.12-.23-.19-.38-.19z"/></svg>