<svg xmlns="http://www.w3.org/2000/svg" viewBox="0 0 32 32"><path d="M25.73 13.6V7.46c0-.66-.53-1.19-1.19-1.19H7.46c-.66 0-1.19.53-1.19 1.19v17.08c0 .66.53 1.19 1.19 1.19h17.08c.66 0 1.19-.53 1.19-1.19V13.6zm-9.58-6.72h6.51v2.14h-6.51V6.88zm0 2.45h6.51v3.1h-6.51v-3.1zM9.33 6.88h6.51v2.14H9.33V6.88zm0 2.45h6.51v3.1H9.33v-3.1zm0 3.41h6.51v3.1H9.33v-3.1zM6.88 7.46c0-.32.26-.58.58-.58h1.57v2.14H6.88V7.46zm0 1.87h2.14v3.1H6.88v-3.1zm0 3.41h2.14v3.1H6.88v-3.1zm18.24 11.8c0 .32-.26.58-.58.58H7.46c-.32 0-.58-.26-.58-.58v-3.23h.62c.04 0 .07-.01.11-.02l.85-.31c.06-.02.11-.06.14-.11l.81-1.15.62-.33.7.49c.03.03.08.04.12.05l.85.16c.1.02.2-.01.27-.08l.72-.71.67.22c.13.04.28-.01.36-.13l.72-1.16.61.23c.11.04.23.02.31-.06l.7-.62.67.32c.15.07.33.01.41-.15l.69-1.44.55.43c.07.05.15.08.23.06.08-.01.16-.06.2-.12l.73-1.02.63.15.85.25c.12.04.26-.01.33-.11l.74-1.02.67.09c.1.02.21-.02.27-.1l.8-.94.73-.29h.56v10.65zm0-11.25h-.62c-.04 0-.08.01-.11.02l-.85.34c-.05.02-.09.05-.12.09l-.74.87-.68-.09c-.11-.02-.22.03-.29.12l-.72.99-.66-.19-.85-.2c-.12-.03-.25.02-.32.12l-.67.92-.6-.46c-.07-.06-.17-.08-.26-.06-.09.02-.17.08-.21.17l-.72 1.51-.57-.27c-.11-.05-.24-.03-.33.05l-.71.63-.68-.26c-.14-.05-.29 0-.37.13l-.72 1.17-.62-.2c-.11-.04-.23-.01-.31.07l-.74.73-.63-.12-.8-.56c-.09-.07-.22-.08-.32-.02l-.85.45c-.04.02-.08.06-.11.09l-.8 1.13-.69.24h-.57v-1.14H8.4l.22-.31H6.88v-3.1h2.14v2.74l.31-.16v-2.57h6.51v.7c.1-.03.2-.03.31 0v-.7h.82l.15-.31h-.97v-3.1h6.51v1.4l.31-.36v-1.04h2.14l.01.54zm0-.85h-2.14v-3.1h2.14v3.1zm0-3.41h-2.14V6.88h1.57c.32 0 .58.26.58.58-.01 0-.01 1.57-.01 1.57zM7.98 22.67h-.31c-.09 0-.15.07-.15.15 0 .08.07.15.15.15h.31c.09 0 .15-.07.15-.15s-.06-.15-.15-.15zm8.8 0h-.31c-.08 0-.15.07-.15.15 0 .08.07.15.15.15h.31c.08 0 .15-.07.15-.15s-.06-.15-.15-.15zm1.26 0h-.31c-.08 0-.15.07-.15.15 0 .08.07.15.15.15h.31c.08 0 .15-.07.15-.15s-.06-.15-.15-.15zm2.52 0h-.31c-.08 0-.15.07-.15.15 0 .08.07.15.15.15h.31c.08 0 .15-.07.15-.15s-.07-.15-.15-.15zm-1.26 0h-.31c-.08 0-.15.07-.15.15 0 .08.07.15.15.15h.31c.08 0 .15-.07.15-.15s-.07-.15-.15-.15zm2.51 0h-.31c-.08 0-.15.07-.15.15 0 .08.07.15.15.15h.31c.08 0 .15-.07.15-.15s-.06-.15-.15-.15zm1.26 0h-.31c-.08 0-.15.07-.15.15 0 .08.07.15.15.15h.31c.08 0 .15-.07.15-.15s-.06-.15-.15-.15zm1.26 0h-.31c-.08 0-.15.07-.15.15 0 .08.07.15.15.15h.31c.08 0 .15-.07.15-.15s-.07-.15-.15-.15zm-12.57 0h-.31c-.09 0-.15.07-.15.15 0 .08.07.15.15.15h.31c.09 0 .15-.07.15-.15s-.07-.15-.15-.15zm-2.52 0h-.31c-.09 0-.15.07-.15.15 0 .08.07.15.15.15h.31c.08 0 .15-.07.15-.15s-.06-.15-.15-.15zm1.26 0h-.31c-.08 0-.15.07-.15.15 0 .08.07.15.15.15h.31c.09 0 .15-.07.15-.15s-.07-.15-.15-.15zm5.03 0h-.32c-.08 0-.15.07-.15.15 0 .08.07.15.15.15h.31c.08 0 .15-.07.15-.15s-.06-.15-.14-.15zm-1.26 0h-.31c-.08 0-.15.07-.15.15 0 .08.07.15.15.15h.31c.08 0 .15-.07.15-.15s-.07-.15-.15-.15zm-1.26 0h-.31c-.08 0-.15.07-.15.15 0 .08.07.15.15.15h.31c.09 0 .15-.07.15-.15s-.06-.15-.15-.15z"/></svg>