<svg xmlns="http://www.w3.org/2000/svg" viewBox="0 0 36 36"><path d="M17.47 21a.78.78 0 0 0 .24.16.73.73 0 0 0 .58 0 .78.78 0 0 0 .24-.16l4-4a.75.75 0 1 0-1.06-1l-2.72 2.72V8.5a.75.75 0 0 0-1.5 0v10.19L14.53 16a.75.75 0 1 0-1.06 1zM7 23.75a.75.75 0 0 0 0 1.5h2.67a.75.75 0 1 0 0-1.5z"/><path d="M32 19.75H22a.75.75 0 0 0 0 1.5h9.25v5.5H4.75v-5.5H14a.75.75 0 0 0 0-1.5H4a.76.76 0 0 0-.75.75v7a.76.76 0 0 0 .75.75h28a.76.76 0 0 0 .75-.75v-7a.76.76 0 0 0-.75-.75z"/><circle cx="29" cy="23.5" r=".75"/></svg>