<svg xmlns="http://www.w3.org/2000/svg" viewBox="0 0 36 36"><title>Icon-Red_Hat-Compass-A-Black-RGB</title><path d="M29.75 18a.76.76 0 0 0-.75-.75h-1.65a.75.75 0 0 0 0 1.5h.86a10.75 10.75 0 0 1-.72 3.13 10.68 10.68 0 0 1-8.74 6.34v-.87a.75.75 0 0 0-1.5 0v.86a10.48 10.48 0 0 1-9.46-9.46h.86a.75.75 0 0 0 0-1.5h-.86a10.26 10.26 0 0 1 9.46-9.46V9a.75.75 0 0 0 1.5 0V7.35a.58.58 0 0 0 0-.18.47.47 0 0 0 0-.17.76.76 0 0 0-.75-.75A11.76 11.76 0 0 0 6.25 18 12 12 0 0 0 18 29.75h.06a12.17 12.17 0 0 0 10.82-7.3 13 13 0 0 0 .87-4.45z"/><path d="M23.25 23.25a.71.71 0 0 0-.17.81.79.79 0 0 0 .17.25.75.75 0 0 0 .53.22.79.79 0 0 0 .53-.22 1 1 0 0 0 .16-.25.72.72 0 0 0 .06-.29.74.74 0 0 0-.22-.52.85.85 0 0 0-.25-.17.72.72 0 0 0-.81.17zM12.23 13a.71.71 0 0 0 .28-.06.85.85 0 0 0 .25-.17.78.78 0 0 0 .16-.24.69.69 0 0 0 .05-.28.71.71 0 0 0-.05-.29.82.82 0 0 0-.16-.25.79.79 0 0 0-1.07 0 1.07 1.07 0 0 0-.16.25.93.93 0 0 0 0 .29.69.69 0 0 0 0 .28.78.78 0 0 0 .16.24.79.79 0 0 0 .25.17.72.72 0 0 0 .29.06zM16.2 16.42l-4.34 6.68a.76.76 0 0 0 .14.9.75.75 0 0 0 .94.1l6.68-4.34a.77.77 0 0 0 .22-.22l4.34-6.68a.75.75 0 0 0-1-1l-6.76 4.34a.77.77 0 0 0-.22.22zm1.11 1.29a.75.75 0 0 1 1.38 0 .73.73 0 0 1 0 .58.74.74 0 0 1-.4.4.73.73 0 0 1-.58 0 .74.74 0 0 1-.4-.4.73.73 0 0 1 0-.58z"/></svg>