<?xml version="1.0" encoding="UTF-8"?>
<svg id="uuid-80c2d3cc-4342-475e-8516-d0210b949722" data-name="Icon" xmlns="http://www.w3.org/2000/svg" viewBox="0 0 36 36">
  <path d="M26,4.38H11.5c-2.27,0-4.12,1.85-4.12,4.12,0,1.47,.78,2.77,1.94,3.5-1.17,.73-1.94,2.03-1.94,3.5v6c0,2.23,1.78,4.04,4,4.11v5.39c0,.34,.28,.62,.62,.62h13c.35,0,.62-.28,.62-.62v-5.55c1.73-.49,3-2.07,3-3.95V7c0-1.45-1.18-2.62-2.62-2.62Zm-1.62,23H12.62v-1.75h11.75v1.75Zm0,3H12.62v-1.75h11.75v1.75Zm3-8.88c0,1.58-1.29,2.88-2.88,2.88H11.5c-1.59,0-2.88-1.29-2.88-2.88v-6c0-1.58,1.29-2.88,2.88-2.88h6c1.59,0,2.88,1.29,2.88,2.88s-1.29,2.88-2.88,2.88h-4.5c-.35,0-.62,.28-.62,.62s.28,.62,.62,.62h4.5c2.27,0,4.12-1.85,4.12-4.12,0-1.12-.45-2.13-1.17-2.88h1.04c2.27,0,4.12-1.85,4.12-4.12,0-.34-.28-.62-.62-.62s-.62,.28-.62,.62c0,1.58-1.29,2.88-2.88,2.88H11.5c-1.59,0-2.88-1.29-2.88-2.88s1.29-2.88,2.88-2.88h14.5c.76,0,1.38,.62,1.38,1.38v14.5Z"/>
</svg>