<svg xmlns="http://www.w3.org/2000/svg" viewBox="0 0 31.68 31.68"><path d="M14.95 23.94l-1.1-1.59c.1-.12.16-.27.16-.44v-4.53c0-.37-.31-.68-.68-.68H6.11c-.37 0-.68.31-.68.68v4.53c0 .17.07.32.17.44l-1.1 1.59c-.17.23-.2.49-.1.7.11.21.34.33.63.33h9.38c.29 0 .52-.12.63-.33s.07-.48-.09-.7zm-8.93-6.56c0-.05.04-.09.09-.09h7.22c.05 0 .09.04.09.09v4.53c0 .05-.04.09-.09.09H6.11c-.05 0-.09-.04-.09-.09v-4.53zm8.39 7H5.03c-.06 0-.09-.01-.1-.01 0-.01.01-.05.05-.09l1.17-1.68h7.15l1.17 1.69c.04.05.04.09.05.08-.01 0-.03.01-.11.01zm-7.76-2.86h6.15c.08 0 .14-.07.14-.14v-3.44c0-.08-.07-.14-.14-.14H6.65c-.08 0-.14.07-.14.14v3.44c0 .08.06.14.14.14zm.15-3.44h5.85v3.15H6.8v-3.15zm6.34 5.33c.08 0 .14.07.14.14 0 .08-.07.14-.14.14H6.31c-.08 0-.14-.07-.14-.14s.07-.14.14-.14h6.83zm14.04.53l-1.1-1.59c.1-.12.16-.27.16-.44v-4.53c0-.37-.31-.68-.68-.68h-7.22c-.37 0-.68.31-.68.68v4.53c0 .17.07.32.17.44l-1.1 1.59c-.17.23-.2.49-.1.7.11.21.34.33.63.33h9.38c.29 0 .52-.12.63-.33.11-.21.07-.48-.09-.7zm-8.93-6.56c0-.05.04-.09.09-.09h7.22c.05 0 .09.04.09.09v4.53c0 .05-.04.09-.09.09h-7.22c-.05 0-.09-.04-.09-.09v-4.53zm8.39 7h-9.38c-.06 0-.09-.01-.1-.01 0-.01.01-.05.05-.09l1.17-1.68h7.14l1.17 1.69c.04.05.04.09.05.08 0 0-.02.01-.1.01zm-7.76-2.86h6.15c.08 0 .14-.07.14-.14v-3.44c0-.08-.07-.14-.14-.14h-6.15c-.08 0-.14.07-.14.14v3.44c-.01.08.06.14.14.14zm.15-3.44h5.85v3.15h-5.85v-3.15zm-.64 5.48c0-.08.07-.14.14-.14h6.83c.08 0 .14.07.14.14 0 .08-.07.14-.14.14h-6.82c-.08.01-.15-.06-.15-.14zm3.86-9.93l-1.39-2.01c.14-.14.22-.33.22-.54v-5.6c0-.42-.34-.77-.77-.77h-8.93c-.42 0-.77.34-.77.77v5.6c0 .21.08.4.22.54l-1.39 2c-.19.26-.23.56-.11.8s.38.37.71.37h11.6c.33 0 .59-.14.71-.37.12-.24.08-.54-.1-.79zM11.19 5.48c0-.1.08-.18.18-.18h8.93c.1 0 .18.08.18.18v5.6c0 .1-.08.18-.18.18h-8.93c-.1 0-.18-.08-.18-.18v-5.6zm10.63 8.67c-.01.02-.07.05-.19.05h-11.6c-.12 0-.18-.03-.19-.05-.01-.02-.01-.08.07-.19l1.47-2.11h8.91l1.47 2.12c.07.09.08.16.06.18zm-9.78-3.59h7.6c.08 0 .14-.07.14-.14V6.16c0-.08-.07-.14-.14-.14h-7.6c-.08 0-.14.07-.14.14v4.26c-.01.07.06.14.14.14zm.15-4.26h7.31v3.96h-7.31V6.3zm-.72 6.31c0-.08.07-.14.14-.14h8.44c.08 0 .14.07.14.14 0 .08-.07.14-.14.14h-8.43c-.08.01-.15-.06-.15-.14zm9.1.75c0 .08-.07.14-.14.14h-9.17c-.08 0-.14-.07-.14-.14 0-.08.07-.14.14-.14h9.17c.08-.01.14.06.14.14z"/></svg>