<svg id="Layer_1" xmlns="http://www.w3.org/2000/svg" viewBox="0 0 32 32"><style>.st0{fill:#010101;}</style><path class="st0" d="M10.47 10.4c1.27 0 2.31-1.04 2.31-2.31s-1.04-2.31-2.31-2.31-2.31 1.03-2.31 2.31 1.04 2.31 2.31 2.31zm0-4.03c.95 0 1.72.77 1.72 1.72s-.77 1.71-1.72 1.71-1.72-.77-1.72-1.71.77-1.72 1.72-1.72z"/><path class="st0" d="M24.27 16.31h-.71c-.28-1.8-1.5-5.37-2.22-6.44-.07-.1-.18-.15-.3-.12l-.42.08c0-.01 0-.02-.01-.04-.02-.05-2.37-5.1-2.75-5.87-.36-.75-1.11-.85-1.79-.85h-1.34c-.16 0-.3.13-.3.3 0 .16.13.3.3.3h1.34c.73 0 1.08.14 1.26.52.34.7 2.36 5.04 2.69 5.76l-1.79.34V9.1c0-.16-.13-.3-.3-.3h-1.18c-.16 0-.3.13-.3.3v4.98c0 .16.13.3.3.3h.89v1.93h-1.4c.06-.16.1-.34.1-.55 0-.63-.61-1.13-1.38-1.13h-2.04v-1.32c0-1.27-1.04-2.31-2.31-2.31S8.3 12.04 8.3 13.31v1.57c-.1-.04-.22-.07-.34-.07-.51 0-.93.42-.93.93v3.35c0 1.03.38 1.63.71 2.17.27.43.49.8.49 1.34v4.8c0 .16.13.3.3.3h1.12c.16 0 .3-.13.3-.3v-4.62c0-.06.05-.1.1-.1h3.55v4.33c0 .38.31.69.69.69h9.98c.38 0 .69-.31.69-.69v-10c.01-.39-.31-.7-.69-.7zm-7.21-2.52V9.4h.59V13.79h-.59zm1.18.29v-3.21l2.7-.51c.68 1.15 1.74 4.3 2.01 5.95h-4.72v-2.23zm-4.64 2.93v1.27h-.57c-.06 0-.1-.05-.1-.1V16.9h.69c-.02.03-.02.07-.02.11zm-4.7-3.7c0-.95.77-1.72 1.72-1.72s1.72.77 1.72 1.72v1.32h-.68c-.16 0-.3.13-.3.3s.13.3.3.3h3.32c.44 0 .79.23.79.53 0 .35-.12.53-.35.53h-4.33c-.57 0-1.03-.46-1.03-1.03V13.4c0-.16-.13-.3-.3-.3-.16 0-.3.13-.3.3v1.87c0 .9.73 1.62 1.62 1.62h1.26v1.28c0 .38.31.69.69.69h.57v1.95h-2.94c-.95 0-1.76-.79-1.76-1.72v-5.78zm1.15 8.78c-.38 0-.69.31-.69.69v4.33h-.53v-4.5c0-.71-.3-1.19-.58-1.65-.32-.51-.62-1-.62-1.86v-3.35c0-.19.15-.34.34-.34s.34.15.34.34v3.35c0 1.27 1.06 2.31 2.35 2.31h2.94v.68h-3.55zm14.32 4.92c0 .06-.05.1-.1.1h-9.98c-.06 0-.1-.05-.1-.1v-10c0-.06.05-.1.1-.1h9.98c.06 0 .1.05.1.1v10z"/></svg>