<svg xmlns="http://www.w3.org/2000/svg" viewBox="0 0 31.68 31.68"><path d="M25.37 7.99L10.68 6.3c-.23-.03-.46.04-.64.18-.18.14-.3.35-.32.58l-.64 5.54-3.73.9c-.37.09-.6.46-.51.83l2.17 9.05c.07.31.35.53.67.53.05 0 .11-.01.16-.02l4.69-1.13c.18-.04.33-.15.43-.31.1-.16.13-.34.08-.52l-1.11-4.64 12.22 1.4c.03 0 .07.01.1.01.2 0 .38-.07.54-.19.18-.14.3-.35.32-.58l1.03-8.98c.05-.48-.29-.91-.77-.96zM5.48 14.06l4.72-1.13c.06 0 .1.04.12.09l.26 1.09-4.92 1.18-.27-1.09c-.01-.06.03-.13.09-.14zm5.8.53l.73-6.39 11.63 1.33-.83 7.26-11.32-1.3-.21-.9zm.88 6.11l-4.92 1.18-1.52-6.32 4.92-1.18 1.52 6.32zm.31 1.46c-.01.02-.03.04-.07.05l-4.69 1.13c-.06.02-.13-.03-.14-.09l-.27-1.09 4.92-1.18.26 1.09c.02.04 0 .07-.01.09zm12.07-4.29c-.01.08-.05.15-.11.2-.06.05-.14.07-.22.06L11.79 16.7l-.22-.91 11.49 1.32.9-7.83-12.2-1.4-.68 5.9-.22-.9c-.09-.36-.46-.6-.83-.51l-.37.09.61-5.34c.01-.08.05-.15.11-.2.06-.05.14-.07.22-.06l14.69 1.69c.17.02.28.17.27.33l-1.02 8.99z"/><path d="M24.49 12.64l-.26-.03c-.22-.02-.42.14-.44.35l-.06.53c-.03.22.13.42.35.44l.26.03h.05c.2 0 .37-.15.4-.36l.06-.53c.02-.21-.14-.41-.36-.43zm.01.94c-.01.06-.06.1-.12.1l-.27-.03c-.06-.01-.11-.07-.1-.13l.06-.53c.01-.06.06-.1.13-.1l.26.03c.06.01.11.07.1.13l-.06.53zM10.42 11.56c-.04.04-.06.1-.06.15 0 .06.02.11.06.15.04.04.1.06.15.06.06 0 .11-.02.15-.06.04-.04.06-.09.06-.15 0-.05-.02-.11-.06-.15-.08-.08-.22-.07-.3 0zM7.5 14.31h.03l.92-.22c.08-.02.12-.1.1-.17-.02-.08-.09-.12-.17-.11l-.92.22c-.08.02-.12.1-.1.17.02.07.08.11.14.11zM7.04 14.42c.04 0 .07-.02.1-.04.03-.03.04-.06.04-.1 0-.04-.02-.08-.04-.1-.06-.05-.15-.05-.2 0-.03.03-.04.06-.04.1 0 .04.01.07.04.1.02.02.06.04.1.04zM10.56 21.97c-.05-.21-.27-.35-.49-.3l-.53.13c-.22.05-.35.27-.3.49l.03.12c.04.18.21.31.39.31.03 0 .06 0 .09-.01l.53-.13c.22-.05.35-.27.3-.49l-.02-.12zm-.34.33l-.53.13c-.06.01-.13-.03-.15-.09l-.03-.12c-.02-.06.02-.13.09-.15l.53-.13h.03c.06 0 .1.04.12.09l.03.12c.01.07-.03.14-.09.15zM23.67 19.18h-9.3c-.38 0-.69.31-.69.69v4.83c0 .38.31.69.69.69h9.3c.38 0 .69-.31.69-.69v-4.83c-.01-.38-.31-.69-.69-.69zm-1.4.57v5.06h-6.5v-5.06h6.5zm-8.03 4.95v-4.83c0-.07.05-.12.12-.12h1.12v5.06h-1.12c-.06.01-.12-.05-.12-.11zm9.55 0c0 .07-.05.12-.12.12h-1.12v-5.06h1.12c.07 0 .12.05.12.12v4.82z"/><path d="M23.21 21.67c-.08 0-.14.06-.14.14v.95c0 .08.06.14.14.14s.14-.06.14-.14v-.95c0-.08-.06-.14-.14-.14zM23.11 21.24c-.03.03-.04.06-.04.1 0 .04.01.07.04.1s.06.04.1.04c.04 0 .07-.01.1-.04s.04-.06.04-.1c0-.04-.02-.07-.04-.1-.06-.06-.15-.06-.2 0zM14.91 21.61h-.12c-.22 0-.41.18-.41.41v.54c0 .22.18.4.41.4h.12c.22 0 .4-.18.4-.4v-.54c0-.23-.18-.41-.4-.41zm.12.95c0 .07-.05.12-.12.12h-.12c-.07 0-.12-.05-.12-.12v-.54c0-.07.05-.12.12-.12h.12c.07 0 .12.05.12.12v.54z"/></svg>