<svg data-name="Layer 1" xmlns="http://www.w3.org/2000/svg" viewBox="0 0 36 36"><title>Icon-Red_Hat-Sun-A-Black-RGB</title><path d="M22.96 13.04A7.006 7.006 0 1 0 25.015 18a6.995 6.995 0 0 0-2.057-4.96zM21.9 21.9a5.51 5.51 0 1 1 1.616-3.9 5.5 5.5 0 0 1-1.616 3.9zM18 9.35a.75.75 0 0 0 .75-.75V6.513a.75.75 0 1 0-1.5 0V8.6a.75.75 0 0 0 .75.75zM18 26.65a.75.75 0 0 0-.75.75v2.088a.75.75 0 1 0 1.5 0V27.4a.75.75 0 0 0-.75-.75zM9.35 18a.75.75 0 0 0-.75-.75H6.513a.75.75 0 1 0 0 1.5H8.6a.75.75 0 0 0 .75-.75zM30.02 17.47a.75.75 0 0 0-.532-.22H27.4a.75.75 0 0 0 0 1.5h2.09a.75.75 0 0 0 .53-1.28zM24.364 12.05a.753.753 0 0 0 .565 0 .758.758 0 0 0 .247-.166l.738-.74.74-.737a.75.75 0 1 0-1.062-1.06l-.738.738-.74.738a.75.75 0 0 0 .25 1.226zM11.354 23.9a.748.748 0 0 0-.53.22l-.74.738-.738.74a.75.75 0 1 0 1.06 1.06l.74-.74.738-.738a.75.75 0 0 0-.53-1.28zM10.085 11.145l.738.74a.758.758 0 0 0 .248.164.753.753 0 0 0 .566 0 .75.75 0 0 0 .248-1.227l-.74-.738-.737-.74a.75.75 0 1 0-1.06 1.062zM25.915 24.854l-.738-.738a.75.75 0 1 0-1.06 1.06l.738.74.738.737a.75.75 0 0 0 .813.165.75.75 0 0 0 .248-1.225z"/></svg>