<svg xmlns="http://www.w3.org/2000/svg" width="32" height="32" viewBox="0 0 32 32"><path d="M27.45 11.31c-.002-.02-.006-.04-.013-.06-.006-.02-.013-.035-.022-.052-.01-.017-.02-.033-.032-.048-.014-.016-.028-.03-.044-.043-.01-.007-.015-.017-.024-.022l-3.372-2.168c-.05-.032-.107-.048-.166-.048h-2.952v-.78c0-1.092-.887-1.98-1.978-1.98h-5.386c-1.09 0-1.978.888-1.978 1.978v.78h-3.12c-.057 0-.115.017-.165.048l-3.373 2.168c-.01.006-.014.016-.023.022-.016.013-.03.027-.044.043-.013.015-.023.03-.032.047-.01.017-.017.034-.023.052-.006.02-.01.04-.012.06 0 .01-.006.02-.006.03v12.01c0 .17.138.306.306.306H27.15c.17 0 .307-.137.307-.306V11.34c0-.01-.004-.02-.005-.03zM12.096 8.09c0-.753.613-1.366 1.366-1.366h5.386c.753 0 1.366.612 1.366 1.366v1.51c0 .098 0 .152-.46.152s-.46-.054-.46-.153v-1.51c0-.245-.2-.445-.446-.445h-5.386c-.246 0-.446.2-.446.446v1.51c0 .098 0 .152-.46.152s-.46-.054-.46-.153V8.09zm6.584.167v.613h-5.052v-.613h5.052zM8.454 9.48h3.03v.117c0 .766.75.766 1.072.766.322 0 1.073 0 1.073-.766V9.48h5.05v.117c0 .766.753.766 1.074.766.322 0 1.073 0 1.073-.766V9.48h2.862l2.417 1.556H6.037L8.455 9.48zm18.39 13.565H5.298v-8.122h2.874v.946c0 .336.162.633.41.824-.01.038-.018.078-.018.12v.457c0 .35.404.614.94.614.535 0 .94-.263.94-.613v-.457c0-.04-.007-.08-.02-.12.25-.19.41-.488.41-.824v-.947h10.517v.946c0 .336.162.633.41.824-.01.038-.018.078-.018.12v.457c0 .35.404.614.94.614.535 0 .94-.263.94-.613v-.457c0-.04-.007-.08-.02-.12.25-.19.41-.488.41-.824v-.947h2.826v8.122zM9.79 16.455H9.22c-.324 0-.587-.264-.587-.588v-1.432c0-.324.263-.587.587-.587h.572c.324 0 .587.263.587.587v1.432c0 .324-.264.587-.588.587zm.195.81c-.014.045-.184.16-.48.16-.297 0-.467-.115-.48-.154v-.374c.062.012.127.02.194.02h.573c.066 0 .13-.008.194-.02v.37zm12.985-.81H22.4c-.324 0-.587-.264-.587-.588v-1.432c0-.324.263-.587.587-.587h.572c.324 0 .587.263.587.587v1.432c0 .324-.264.587-.588.587zm.195.81c-.014.045-.184.16-.48.16-.297 0-.467-.115-.48-.154v-.374c.062.012.127.02.194.02h.573c.066 0 .13-.008.194-.02v.37zm3.676-2.803h-2.825v-.026c0-.577-.47-1.046-1.046-1.046H22.4c-.577 0-1.046.47-1.046 1.046v.026H10.84v-.026c0-.577-.47-1.046-1.047-1.046H9.22c-.576 0-1.045.47-1.045 1.046v.026H5.3V11.65h21.545v2.812z"/></svg>