<svg xmlns="http://www.w3.org/2000/svg" width="32" height="32" viewBox="0 0 32 32"><path d="M26.958 7.376h-9.813c-.182 0-.33.147-.33.328V13.9h-6.24c-.182 0-.33.147-.33.328v6.334H4.05l-.328.022-.002 3.498c0 .18.147.328.328.328l9.832.004c.18 0 .328-.147.328-.33V17.92h6.12c.18 0 .328-.147.328-.33v-6.24h6.302c.18 0 .328-.147.328-.33V7.705c0-.18-.146-.33-.327-.33zm-.284 3.36H20.37l-.327.023v6.547h-6.12c-.182 0-.33.147-.33.328V23.8l-9.26-.003v-2.622h6.2c.18 0 .327-.147.327-.33v-6.332h6.242c.18 0 .328-.147.328-.33V7.99h9.244v2.748z"/></svg>