<svg xmlns="http://www.w3.org/2000/svg" viewBox="0 0 36 36"><title>Icon-Red_Hat-Signage-Emergency_Fire_Extinguisher-A-Black-RGB</title><path d="M24 5.25h-5a.75.75 0 0 0 0 1.5h5a.75.75 0 0 0 0-1.5zM24.75 8a.76.76 0 0 0-.75-.75h-5a2.73 2.73 0 0 0-2.2 1.12 8 8 0 0 0-6.7 7.88V26a.75.75 0 0 0 1.5 0v-9.75A6.52 6.52 0 0 1 16.25 10a2.75 2.75 0 0 0 .59 1.66A5.75 5.75 0 0 0 13.25 17v13a.75.75 0 0 0 .75.75h10a.75.75 0 0 0 .75-.75V17a5.75 5.75 0 0 0-3.59-5.32 2.68 2.68 0 0 0 .59-1.68 2.78 2.78 0 0 0-.31-1.25H24a.75.75 0 0 0 .75-.75zM19 8.75A1.25 1.25 0 1 1 17.75 10 1.25 1.25 0 0 1 19 8.75zm4.25 20.5h-8.5v-3.5h8.5zm0-5h-8.4a.29.29 0 0 0-.1 0v-5.52h8.5zm0-7.25v.23h-8.5V17a4.25 4.25 0 0 1 8.5 0z"/></svg>