<svg data-name="hand-pointing" xmlns="http://www.w3.org/2000/svg" viewBox="0 0 36 36"><title>Icon-Red_Hat-People_and_audiences-Hand_pointing-A-Black-RGB</title><path d="M27.31 13.9h-8.85a6.44 6.44 0 0 0 1.64-2.1 2.45 2.45 0 0 0-2.2-3.51 2.52 2.52 0 0 0-2.23 1.44 1.49 1.49 0 0 1-1.34.82 7.5 7.5 0 0 0-4 1.19 8.71 8.71 0 0 0-4.05 7.6 8.88 8.88 0 0 0 9 8.37h4.73a.76.76 0 0 0 .74-.6l1.71-8.31h4.93a2.45 2.45 0 0 0 0-4.89zm0 3.39h-5.54a.75.75 0 0 0-.73.6l-1.72 8.31H15.2a7.37 7.37 0 0 1-7.45-6.92A7.11 7.11 0 0 1 11.1 13a6 6 0 0 1 3.23-1A3 3 0 0 0 17 10.42a1 1 0 0 1 .89-.63.91.91 0 0 1 .79.44 1 1 0 0 1 .06.92 4.93 4.93 0 0 1-3.46 2.69.74.74 0 0 0-.58.94v.11a.75.75 0 0 0 .72.54h11.84a.95.95 0 0 1 0 1.89z"/></svg>