<svg xmlns="http://www.w3.org/2000/svg" viewBox="0 0 36 36"><path d="M21.9 19.25L5 19.23a.74.74 0 0 0-.75.75v12a.75.75 0 0 0 .75.75h16.9a.75.75 0 0 0 .75-.74v-12a.75.75 0 0 0-.22-.53.72.72 0 0 0-.53-.21zm-.77 12H5.73v-10.5h15.4z"/><path d="M9.46 23a.82.82 0 0 0 .25.16.67.67 0 0 0 .28.06.75.75 0 0 0 .53-.22.73.73 0 0 0 .22-.53.75.75 0 0 0-.22-.53.76.76 0 0 0-.81-.17.74.74 0 0 0-.25.17.75.75 0 0 0-.22.53.67.67 0 0 0 .06.28.82.82 0 0 0 .16.25zM8 23.23a.75.75 0 0 0 .75-.75.77.77 0 0 0-.23-.48.78.78 0 0 0-1.06 0 .77.77 0 0 0-.22.53.75.75 0 0 0 .22.53.73.73 0 0 0 .54.17zM13 23.24h6.09a.75.75 0 0 0 0-1.5H13a.75.75 0 1 0 0 1.5zM4.94 14.53h6a.75.75 0 0 0 .75-.75V9.53a.74.74 0 0 0-.21-.53.79.79 0 0 0-.48-.22H5a.75.75 0 0 0-.75.75v4.26a.75.75 0 0 0 .69.74zm.75-4.26h4.5V13h-4.5zM19.46 9h6a.75.75 0 0 0 .54-.2.71.71 0 0 0 .22-.53V4a.75.75 0 0 0-.75-.75h-6a.76.76 0 0 0-.75.75v4.26a.76.76 0 0 0 .74.74zm.76-4.26h4.5v2.78h-4.5zM32.54 14.93a.79.79 0 0 0-.54-.22h-6a.75.75 0 0 0-.75.75v4.26a.75.75 0 0 0 .75.75h6a.75.75 0 0 0 .75-.75v-4.26a.74.74 0 0 0-.21-.53zm-1.29 4h-4.5V16.2h4.5zM8.05 15.24a.71.71 0 0 0-.78.71v.53a12.22 12.22 0 0 0 .08 1.35.75.75 0 0 0 .74.66h.09a.76.76 0 0 0 .66-.84 9.08 9.08 0 0 1-.07-1.17v-.46a.74.74 0 0 0-.72-.78zM27.83 21.38a.75.75 0 0 0-1 .24 9.82 9.82 0 0 1-2.93 3 .75.75 0 0 0-.21 1 .74.74 0 0 0 .63.34.71.71 0 0 0 .41-.13 11.45 11.45 0 0 0 3.38-3.48.74.74 0 0 0-.28-.97zM12.35 8.74a.79.79 0 0 0 .44-.14 9.72 9.72 0 0 1 4.33-1.75.75.75 0 0 0-.21-1.49 11.34 11.34 0 0 0-5 2 .75.75 0 0 0-.17 1 .77.77 0 0 0 .61.38zM26.25 10.5a9.59 9.59 0 0 1 1.52 2.88.76.76 0 0 0 .71.52.67.67 0 0 0 .24 0 .75.75 0 0 0 .48-.94 11.38 11.38 0 0 0-1.76-3.34.75.75 0 0 0-1.05-.14.76.76 0 0 0-.14 1.02z"/></svg>