<svg xmlns="http://www.w3.org/2000/svg" width="32" height="32" viewBox="0 0 32 32"><path d="M28.848 11.966c.018-.066-.01-.138-.075-.17l-3.854-.66c-.02-.01-.19-.016-.212-.016H7.365c-.02 0-.186.004-.205.012l-3.928.662c-.068.03-.1.103-.082.173-.003.013-.008.025-.008.038v4.872l.002.01-.002.01v4.872c0 .08.066.146.147.146h16.933l.01-.002.01.002h8.463c.082 0 .147-.066.147-.147v-4.873l-.002-.01c.002-.003.003-.006.003-.01v-4.872c0-.014-.004-.026-.007-.04zm-9.934-.552l.832.443h-7.44l.958-.443h5.65zm-7.307 8.77v1.438h-8.17V19.48h8.17v.704zm0-2.382v1.384h-8.17v-2.142h8.17v.758zm0-2.51v1.438h-8.17v-2.142h8.17v.704zm0-2.38v1.383h-8.17v-2.142h8.17v.758zm.047-1.054H4.612l2.636-.443h5.407l-1 .443zm8.424 8.326v1.438h-8.17V19.48h8.17v.704zm0-2.382v1.384h-8.17v-2.142h8.17v.758zm0-2.51v1.438h-8.17v-2.142h8.17v.704zm0-2.38v1.383h-8.17v-2.142h8.17v.758zm-.584-1.498h5.327l2.644.443H20.38l-.886-.444zm9.068 8.77v1.438h-8.17V19.48h8.17v.704zm0-2.382v1.384h-8.17v-2.142h8.17v.758zm0-2.51v1.438h-8.17v-2.142h8.17v.704zm0-2.38v1.383h-8.17v-2.142h8.17v.758zm-24.587.366c0 .112.09.202.202.202s.202-.09.202-.202c0-.112-.092-.202-.203-.202-.112 0-.202.09-.202.202zm.718 0c0 .112.09.202.202.202s.202-.09.202-.202c0-.112-.09-.202-.202-.202-.112 0-.202.09-.202.202zm5.97.59h.44c.04 0 .074-.033.074-.074v-1.177c0-.04-.033-.074-.074-.074h-.44c-.042 0-.075.033-.075.074v1.177c0 .04.033.074.074.074zm.072-1.177h.294v1.03h-.295v-1.03zM9.78 13.87h.44c.04 0 .074-.033.074-.074v-1.177c0-.04-.033-.074-.074-.074h-.44c-.042 0-.075.033-.075.074v1.177c0 .04.033.074.074.074zm.072-1.177h.294v1.03h-.294v-1.03zm-5.877 3.09c0 .11.09.2.202.2s.202-.09.202-.2c0-.113-.092-.203-.203-.203-.112 0-.202.09-.202.202zm.718 0c0 .11.09.2.202.2s.202-.09.202-.2c0-.113-.09-.203-.202-.203-.112 0-.202.09-.202.202zm5.97.59h.44c.04 0 .074-.034.074-.075v-1.177c0-.04-.033-.074-.074-.074h-.44c-.042 0-.075.033-.075.074v1.177c0 .04.033.074.074.074zm.072-1.178h.294v1.03h-.295v-1.03zM9.78 16.37h.44c.04 0 .074-.034.074-.075v-1.177c0-.04-.033-.074-.074-.074h-.44c-.042 0-.075.033-.075.074v1.177c0 .04.033.074.074.074zm.072-1.178h.294v1.03h-.294v-1.03zm-5.877 2.94c0 .113.09.203.202.203s.202-.09.202-.202c0-.112-.092-.202-.203-.202-.112 0-.202.092-.202.203zm.718 0c0 .113.09.203.202.203s.202-.09.202-.202c0-.112-.09-.202-.202-.202-.112 0-.202.092-.202.203zm5.97.59h.44c.04 0 .074-.033.074-.073V17.47c0-.04-.033-.074-.074-.074h-.44c-.042 0-.075.033-.075.074v1.177c0 .04.033.072.074.072zm.072-1.176h.294v1.03h-.295v-1.03zm-.956 1.176h.44c.04 0 .074-.033.074-.073V17.47c0-.04-.033-.074-.074-.074h-.44c-.042 0-.075.033-.075.074v1.177c0 .04.033.072.074.072zm.072-1.176h.294v1.03h-.294v-1.03zm-5.877 3.088c0 .112.09.202.202.202s.202-.09.202-.202c0-.112-.092-.202-.203-.202-.112 0-.202.09-.202.202zm.718 0c0 .112.09.202.202.202s.202-.09.202-.202c0-.112-.09-.202-.202-.202-.112 0-.202.09-.202.202zm5.97.59h.44c.04 0 .074-.034.074-.075V19.97c0-.04-.033-.073-.074-.073h-.44c-.042 0-.075.032-.075.072v1.177c0 .04.033.073.074.073zm.072-1.178h.294v1.03h-.295v-1.03zm-.956 1.177h.44c.04 0 .074-.033.074-.074V19.97c0-.04-.033-.073-.074-.073h-.44c-.042 0-.075.032-.075.072v1.177c0 .04.033.073.074.073zm.072-1.177h.294v1.03h-.294v-1.03zm2.655-6.768c0 .112.09.202.202.202s.2-.09.2-.202c0-.112-.09-.202-.2-.202-.113 0-.203.09-.203.202zm.718 0c0 .112.09.202.202.202.112 0 .202-.09.202-.202 0-.112-.092-.202-.203-.202-.112 0-.202.09-.202.202zm5.97.59h.44c.04 0 .074-.033.074-.074v-1.177c0-.04-.034-.074-.075-.074h-.44c-.042 0-.075.033-.075.074v1.177c0 .04.033.074.074.074zm.072-1.177h.294v1.03h-.293v-1.03zm-.956 1.178h.442c.04 0 .073-.033.073-.074v-1.177c0-.04-.033-.074-.073-.074h-.44c-.04 0-.074.033-.074.074v1.177c0 .04.033.074.073.074zm.074-1.177h.294v1.03h-.294v-1.03zm-5.877 3.09c0 .11.09.2.202.2s.2-.09.2-.2c0-.113-.09-.203-.2-.203-.113 0-.203.09-.203.202zm.718 0c0 .11.09.2.202.2.112 0 .202-.09.202-.2 0-.113-.092-.203-.203-.203-.112 0-.202.09-.202.202zm5.97.59h.44c.04 0 .074-.034.074-.075v-1.177c0-.04-.034-.074-.075-.074h-.44c-.042 0-.075.033-.075.074v1.177c0 .04.033.073.074.073zm.072-1.178h.294v1.03h-.293v-1.03zm-.956 1.177h.442c.04 0 .073-.034.073-.075v-1.177c0-.04-.033-.074-.073-.074h-.44c-.04 0-.074.033-.074.074v1.177c0 .04.033.074.073.074zm.074-1.178h.294v1.03h-.294v-1.03zm-5.877 2.94c0 .113.09.203.202.203s.2-.09.2-.202c0-.112-.09-.202-.2-.202-.113 0-.203.092-.203.203zm.718 0c0 .113.09.203.202.203.112 0 .202-.09.202-.202 0-.112-.092-.202-.203-.202-.112 0-.202.092-.202.203zm5.97.59h.44c.04 0 .074-.033.074-.073V17.47c0-.04-.034-.074-.075-.074h-.44c-.042 0-.075.033-.075.074v1.177c0 .04.033.072.074.072zm.072-1.176h.294v1.03h-.293v-1.03zm-.956 1.176h.442c.04 0 .073-.033.073-.073V17.47c0-.04-.033-.074-.073-.074h-.44c-.04 0-.074.033-.074.074v1.177c0 .04.033.072.073.072zm.074-1.176h.294v1.03h-.294v-1.03zm-5.877 3.088c0 .112.09.202.202.202s.2-.09.2-.202c0-.112-.09-.202-.2-.202-.113 0-.203.09-.203.202zm.718 0c0 .112.09.202.202.202.112 0 .202-.09.202-.202 0-.112-.092-.202-.203-.202-.112 0-.202.09-.202.202zm5.97.59h.44c.04 0 .074-.034.074-.075V19.97c0-.04-.034-.073-.075-.073h-.44c-.042 0-.075.032-.075.072v1.177c0 .04.033.073.074.073zm.072-1.178h.294v1.03h-.293v-1.03zm-.956 1.177h.442c.04 0 .073-.033.073-.074V19.97c0-.04-.033-.073-.073-.073h-.44c-.04 0-.074.032-.074.072v1.177c0 .04.033.073.073.073zm.074-1.177h.294v1.03h-.294v-1.03zm2.51-6.768c0 .112.09.202.2.202s.203-.09.203-.202c0-.112-.09-.202-.202-.202-.112 0-.202.09-.202.202zm.717 0c0 .112.092.202.203.202.112 0 .202-.09.202-.202 0-.112-.09-.202-.202-.202-.112 0-.202.09-.202.202zm5.97.59h.44c.04 0 .074-.033.074-.074v-1.177c0-.04-.033-.074-.074-.074h-.44c-.042 0-.075.033-.075.074v1.177c0 .04.033.074.074.074zm.073-1.177h.294v1.03h-.294v-1.03zm-.956 1.178h.44c.04 0 .074-.033.074-.074v-1.177c0-.04-.032-.074-.072-.074h-.44c-.042 0-.075.033-.075.074v1.177c0 .04.033.074.074.074zm.073-1.177h.294v1.03h-.294v-1.03zm-5.877 3.09c0 .11.09.2.202.2s.202-.09.202-.2c0-.113-.09-.203-.202-.203-.112 0-.202.09-.202.202zm.718 0c0 .11.092.2.203.2.112 0 .202-.09.202-.2 0-.113-.09-.203-.202-.203-.112 0-.202.09-.202.202zm5.97.59h.44c.04 0 .074-.034.074-.075v-1.177c0-.04-.033-.074-.074-.074h-.44c-.042 0-.075.033-.075.074v1.177c0 .04.033.074.074.074zm.073-1.178h.294v1.03h-.294v-1.03zm-.956 1.177h.44c.04 0 .074-.034.074-.075v-1.177c0-.04-.032-.074-.072-.074h-.44c-.042 0-.075.033-.075.074v1.177c0 .04.033.074.074.074zm.073-1.178h.294v1.03h-.294v-1.03zm-5.877 2.94c0 .113.09.203.202.203s.202-.09.202-.202c0-.112-.09-.202-.202-.202-.112 0-.202.092-.202.203zm.718 0c0 .113.092.203.203.203.112 0 .202-.09.202-.202 0-.112-.09-.202-.202-.202-.112 0-.202.092-.202.203zm5.97.59h.44c.04 0 .074-.033.074-.073V17.47c0-.04-.033-.074-.074-.074h-.44c-.042 0-.075.033-.075.074v1.177c0 .04.033.072.074.072zm.073-1.176h.294v1.03h-.294v-1.03zm-.956 1.176h.44c.04 0 .074-.033.074-.073V17.47c0-.04-.032-.074-.072-.074h-.44c-.042 0-.075.033-.075.074v1.177c0 .04.033.072.074.072zm.073-1.176h.294v1.03h-.294v-1.03zm-5.877 3.088c0 .112.09.202.202.202s.202-.09.202-.202c0-.112-.09-.202-.202-.202-.112 0-.202.09-.202.202zm.718 0c0 .112.092.202.203.202.112 0 .202-.09.202-.202 0-.112-.09-.202-.202-.202-.112 0-.202.09-.202.202zm5.97.59h.44c.04 0 .074-.034.074-.075V19.97c0-.04-.033-.073-.074-.073h-.44c-.042 0-.075.032-.075.072v1.177c0 .04.033.073.074.073zm.073-1.178h.294v1.03h-.294v-1.03zm-.956 1.177h.44c.04 0 .074-.033.074-.074V19.97c0-.04-.032-.073-.072-.073h-.44c-.042 0-.075.032-.075.072v1.177c0 .04.033.073.074.073zm.073-1.177h.294v1.03h-.294v-1.03z"/></svg>