<svg xmlns="http://www.w3.org/2000/svg" width="32" height="32" viewBox="0 0 32 32"><path d="M8.677 21.177c-1.656 0-3.003 1.347-3.003 3.003 0 1.655 1.347 3.002 3.003 3.002 1.655 0 3.002-1.347 3.002-3.002 0-1.656-1.348-3.003-3.003-3.003zm0 5.545c-1.402 0-2.543-1.14-2.543-2.542s1.14-2.543 2.543-2.543c1.402 0 2.542 1.14 2.542 2.543s-1.142 2.542-2.543 2.542zm0-4.478c-1.068 0-1.936.868-1.936 1.935 0 1.066.87 1.934 1.937 1.934 1.067 0 1.935-.87 1.935-1.935 0-1.068-.868-1.936-1.935-1.936zm0 3.564c-.9 0-1.63-.73-1.63-1.63 0-.898.73-1.628 1.63-1.628.898 0 1.63.73 1.63 1.63 0 .897-.732 1.628-1.63 1.628zm7.57-20.476h-.02c-1.657 0-3.003 1.347-3.003 3.002s1.347 3.002 3.002 3.002h.02c1.656 0 3.003-1.347 3.003-3.002s-1.347-3.002-3.004-3.002zm0 5.546h-.02c-1.403 0-2.544-1.14-2.544-2.543 0-1.402 1.14-2.543 2.543-2.543h.02c1.402 0 2.543 1.14 2.543 2.543 0 1.402-1.142 2.543-2.544 2.543zm0-4.48l-.01.002h-.01c-1.068 0-1.937.868-1.937 1.935s.87 1.936 1.936 1.936h.02c1.067 0 1.936-.868 1.936-1.935S17.312 6.4 16.246 6.4zm0 3.566h-.02c-.9 0-1.63-.73-1.63-1.63s.73-1.628 1.63-1.628h.02c.898 0 1.63.73 1.63 1.63s-.732 1.628-1.63 1.628zm0 5.032h-.02c-1.164 0-2.11.946-2.11 2.108 0 1.162.946 2.11 2.11 2.11l.01-.002h.01c1.162 0 2.108-.945 2.108-2.108 0-1.162-.946-2.108-2.108-2.108zm0 3.757h-.02c-.91 0-1.65-.74-1.65-1.65 0-.908.74-1.647 1.65-1.647h.02c.91 0 1.648.74 1.648 1.648 0 .91-.74 1.65-1.648 1.65zm0-2.69h-.02c-.576 0-1.043.467-1.043 1.04 0 .576.467 1.043 1.042 1.043h.02c.575 0 1.042-.467 1.042-1.042 0-.574-.467-1.04-1.04-1.04zm0 1.776l-.01-.002h-.01c-.407 0-.736-.33-.736-.734 0-.405.33-.734.736-.734h.02c.406 0 .735.33.735.734 0 .405-.328.735-.733.735zm7.548 3.337c-1.655 0-3.002 1.347-3.002 3.003 0 1.655 1.346 3.002 3.002 3.002 1.656 0 3.003-1.347 3.003-3.002 0-1.656-1.347-3.003-3.003-3.003zm0 5.545c-1.4 0-2.542-1.14-2.542-2.542s1.14-2.543 2.542-2.543 2.544 1.14 2.544 2.543-1.142 2.542-2.545 2.542zm0-4.478c-1.067 0-1.935.868-1.935 1.935 0 1.066.868 1.934 1.935 1.934 1.068 0 1.937-.87 1.937-1.935 0-1.068-.87-1.936-1.937-1.936zm0 3.564c-.898 0-1.628-.73-1.628-1.63 0-.898.73-1.628 1.628-1.628.9 0 1.63.73 1.63 1.63 0 .897-.732 1.628-1.63 1.628zm3.608-3.51c-.008-.017-.022-.027-.033-.04-.004-.012-.003-.024-.008-.036L20.01 6.792c-.006-.013-.017-.02-.023-.032-.005-.022-.006-.044-.014-.065-.652-1.477-2.114-2.43-3.726-2.43h-.02c-1.61 0-3.074.953-3.726 2.43-.008.02-.01.043-.013.065-.007.01-.018.02-.023.03L5.11 22.22c-.005.012-.004.024-.008.036-.01.014-.024.025-.033.04-.303.578-.463 1.23-.463 1.882 0 2.244 1.826 4.07 4.07 4.07 2.128 0 3.91-1.662 4.06-3.784 0-.013-.005-.024-.006-.037.003-.007.007-.014.008-.022l.978-7.813c.24-1.17 1.29-2.052 2.51-2.052h.02c1.22 0 2.27.88 2.51 2.052l.978 7.813c0 .008.006.014.007.022 0 .013-.005.024-.004.037.148 2.122 1.93 3.784 4.06 3.784 2.243 0 4.07-1.826 4.07-4.07 0-.653-.16-1.304-.462-1.882zm-3.608 5.338c-1.807 0-3.322-1.41-3.447-3.214 0-.013-.008-.023-.01-.035 0-.02.006-.037.004-.056l-.936-7.477c0-.01.004-.02.004-.03-.01-.113-.027-.223-.05-.332v-.003c-.29-1.46-1.597-2.56-3.113-2.56-.004 0-.007 0-.01.002l-.01-.002c-1.518 0-2.824 1.1-3.115 2.56l-.002.003c-.02.11-.038.22-.048.333l.003.03-.937 7.478c-.002.02.003.04.004.057-.002.013-.01.023-.01.035-.126 1.802-1.64 3.214-3.448 3.214-1.906 0-3.457-1.55-3.457-3.457 0-.556.135-1.108.39-1.6.007-.01.007-.02.01-.032.017-.02.032-.04.043-.063l7.352-15.43c.01-.024.014-.05.02-.075.007-.013.02-.023.025-.038.554-1.255 1.797-2.066 3.165-2.066h.02c1.37 0 2.61.81 3.165 2.066.006.015.018.024.026.038.006.025.008.05.02.075l7.35 15.43c.012.024.027.044.043.063.004.01.004.023.01.033.256.49.39 1.043.39 1.6 0 1.905-1.55 3.456-3.456 3.456z"/></svg>