<svg xmlns="http://www.w3.org/2000/svg" width="32" height="32" viewBox="0 0 32 32"><path d="M25.418 16.53H24.19v-4.385c0-.17-.137-.306-.306-.306h-5.34V4.655c0-.127-.102-.23-.23-.23H16.97c-.126 0-.23.103-.23.23v7.183h-.9V4.655c0-.127-.102-.23-.23-.23h-1.346c-.127 0-.23.103-.23.23v7.183h-1.286c-.17 0-.306.136-.306.305v4.385h-2.373V6.775c0-.127-.103-.23-.23-.23H8.1c-.127 0-.23.103-.23.23v9.755H6.582c-.17 0-.306.137-.306.306v10.43c0 .17.137.307.306.307H25.42c.168 0 .305-.137.305-.306v-10.43c0-.17-.138-.307-.306-.307zm-.306 8.87h-3.4v-2.325h3.4V25.4zm0-2.632H6.887V21.44h18.224v1.328zm-3.708.307V25.4h-3.167v-2.325h3.167zm-3.474 0V25.4h-3.5v-2.325h3.5zm-3.806 0V25.4H10.93v-2.325h3.194zM6.888 18.81h3.737v2.323H6.888V18.81zm0 6.142v-1.878h3.737v2.324H6.888v-.447zm4.043-3.818V18.81h3.194v2.324H10.93zm3.5 0V18.81h3.5v2.324h-3.5zm3.807 0V18.81h3.167v2.324h-3.167zm6.875-.052v.05h-3.4V18.81h3.4v2.272zm-12.06-5.133h10.525v.58H13.053v-.58zm0-.385v-2.222h3.14v2.3h-3.14v-.078zm3.448.077v-2.3H20v2.3h-3.5zm7.077-2.222v2.222h-3.27v-2.3h3.27v.078zm-6.38-8.534h.888v6.954h-.887V4.886zm-2.705 0h.887v6.954h-.888V4.886zm-1.44 7.566h10.525v.585H13.053v-.585zM8.33 7.005h1.278v9.525H8.33V7.005zM6.888 18.07v-.927h18.224v1.36H6.888v-.434zm-.452 3.37v-.306.306zm18.676 5.52H6.89v-1.254h18.223v1.255z"/></svg>