<svg xmlns="http://www.w3.org/2000/svg" width="32" height="32" viewBox="0 0 32 32"><path d="M25.487 11.67c-.898-2.935-3.635-4.97-6.72-4.97-3.092 0-5.806 2.016-6.713 4.94-.504-.18-1.03-.27-1.57-.27-2.186 0-4.067 1.504-4.563 3.612-1.953.072-3.6 1.43-4.035 3.35-.02.087.002.178.058.248.055.07.138.11.227.11h10.064c-.045.313-.07.63-.07.955 0 3.665 2.982 6.647 6.647 6.647 3.666 0 6.648-2.982 6.648-6.647 0-.325-.025-.643-.07-.956h4.377c.142 0 .263-.103.287-.243.062-.357.092-.685.092-1.004 0-2.79-1.948-5.188-4.658-5.773zm-6.674 14.01c-3.327 0-6.034-2.708-6.034-6.035 0-3.328 2.706-6.035 6.033-6.035 3.327 0 6.034 2.707 6.034 6.035 0 3.327-2.708 6.034-6.034 6.034zm10.704-7.574h-4.24c-.695-2.925-3.328-5.11-6.464-5.11-3.136 0-5.77 2.184-6.466 5.11H2.553c.502-1.514 1.905-2.542 3.55-2.542h.003l.045.002c.15.014.27-.098.295-.24.354-1.953 2.054-3.37 4.04-3.37.532 0 1.05.105 1.54.304.305.148.955.524 1.357 1.198.048.08.138.12.225.103.026-.004.05-.012.074-.027.105-.062.14-.196.077-.3-.346-.58-.837-.96-1.21-1.187.758-2.806 3.306-4.762 6.22-4.762 2.802 0 5.273 1.79 6.12 4.44-.752-.004-1.31.268-1.345.282-.11.046-.165.173-.118.286.046.11.173.165.285.12.007-.005.778-.31 1.654-.166 2.44.527 4.198 2.685 4.198 5.198 0 .213-.014.432-.045.664zm-7.475-1.07c-2.442-.572-3.05-.633-3.2-.633-.018 0-.034 0-.036.002-.015-.002-.03-.002-.05-.002-.148 0-.758.06-3.2.633-.074.017-.126.083-.126.16v3.373c0 .03.113 2.976 3.34 3.547l.03.003h.02c3.31-.41 3.35-3.523 3.35-3.556v-3.368c-.002-.077-.054-.142-.13-.16zm-.2 3.528c0 .03-.042 2.842-3.038 3.227-2.932-.533-3.044-3.117-3.046-3.226v-3.24c.297-.07.564-.13.806-.184 1.69-.378 2.1-.41 2.19-.41l.003-.003c.03.008.062.006.084.002.07 0 .508.025 2.568.495.137.03.282.065.434.1v3.24zm-3.04-3.053l-.17.002c-.016.002-.033.005-.05.006-.273.037-.943.15-2.526.516-.063.014-.108.07-.108.134v2.394c.01.252.173 2.48 2.827 2.988.008.002.017.003.025.003l.02-.002c1.885-.26 2.508-1.517 2.71-2.245.115-.404.12-.708.12-.74v-1.668l.027-.057-.026-.007v-.665c0-.063-.044-.12-.107-.134-1.697-.39-2.346-.494-2.59-.522h-.15zm2.572 3.052c0 .008-.033.757-.36 1.292l-.104.175c-.003.002-.2.305-.398.48l-.142.124c-.413.336-.94.552-1.566.642-.416-.082-.79-.216-1.118-.4 1.95-1.386 3.117-2.774 3.69-3.57v1.256zm-.64-2.43l.64.146v.445l-.01.02c-.317.494-1.538 2.237-3.976 3.94-.02-.012-.036-.025-.053-.037l-.16-.132c-.142-.126-.272-.268-.384-.42l-.068-.097c2.322-1.638 3.582-3.34 3.946-3.877l.066.014zm-4.18 3.583c-.29-.558-.325-1.063-.328-1.158l.002-.976-.002-1.302.616-.14c.016-.002 1.622-.326 1.81-.35l.286-.002c.147.018.522.074 1.386.258-.462.66-1.658 2.178-3.77 3.67z"/></svg>