<svg xmlns="http://www.w3.org/2000/svg" viewBox="0 0 31.68 31.68"><path d="M24 6.51H7.68c-.64 0-1.16.52-1.16 1.16V24c0 .64.52 1.16 1.16 1.16H24c.64 0 1.16-.52 1.16-1.16V7.68c.01-.64-.51-1.16-1.16-1.17.01 0 .01 0 0 0zM24.58 24c0 .32-.26.58-.58.58H7.68c-.32 0-.58-.26-.58-.58V7.68c0-.32.26-.58.58-.58H24c.32 0 .58.26.58.58V24zm-9.27-11.02l-2.26 6.34h.97l.52-1.52h2.52l.52 1.52h1l-2.3-6.34h-.97zm-.46 3.98l.52-1.45c.03-.13.1-.26.13-.39l.13-.42.13-.39c.03-.09.06-.19.06-.29.03.1.06.2.1.29l.13.39c.03.13.1.29.13.42s.1.26.13.39l.52 1.45h-1.98zm7.99-5.5c0 .25.2.45.45.45s.45-.2.45-.45-.2-.45-.45-.45c-.23-.02-.44.16-.45.39v.06zm0-3.07c0 .25.2.45.45.45s.45-.2.45-.45-.2-.45-.45-.45c-.24-.01-.45.19-.45.43v.02zm0 1.52c0 .25.2.45.45.45s.45-.2.45-.45-.2-.45-.45-.45c-.24-.01-.45.19-.45.43v.02z"/></svg>