<svg xmlns="http://www.w3.org/2000/svg" viewBox="0 0 32 32"><path d="M22.01 3.43c-.05-.09-.15-.14-.25-.15-.1-.01-.2.05-.26.13-.01.01-.96 1.4-2.94 3.14-2.5 2.2-3.59 5.05-3.94 7.83-2.12-3.53-5.93-5.16-6.1-5.24-.11-.03-.22-.02-.3.04-.09.06-.14.16-.14.27 0 .01.04 1.27-.39 3.18-1.5 6.67 5.5 11.61 6.38 12.19.1.3.4 1.4.11 2.84-.29.32-.49.51-.5.52-.13.11-.14.31-.02.43.06.07.14.1.23.1.07 0 .15-.03.2-.08.07-.07 1.78-1.62 2.38-3.81 4.03-2.18 6.58-5.11 7.57-8.71 1.75-6.33-1.88-12.43-2.03-12.68zM8.29 12.76c.29-1.3.38-2.29.4-2.85 1.14.57 4.29 2.39 5.82 5.58-.14 2.34.18 4.56.55 6.25-.19.79-.48 1.6-.86 2.43-1.39-.98-7.24-5.5-5.91-11.41zm6.36 11.88c.28-.58.51-1.16.7-1.72.24.89.46 1.5.54 1.72-.21.8-.59 1.51-.98 2.09.04-1.04-.17-1.8-.26-2.09zm8.8-8.68c-.93 3.38-3.31 6.15-7.07 8.23-.66-1.91-3.66-11.7 2.58-17.17 1.43-1.25 2.33-2.32 2.75-2.87.77 1.47 3.17 6.64 1.74 11.81zm-2.06-10.2c-.08 1.72-.42 3.7-.89 5.69-1.25-1.85-.98-3.43-.98-3.45.01-.08-.04-.16-.12-.18-.08-.02-.16.04-.18.12-.01.08-.32 1.85 1.18 3.91-.54 2.23-1.22 4.44-1.83 6.28-1.51-1.53-2.07-3.85-2.07-3.88-.02-.08-.1-.13-.18-.11s-.13.1-.11.18c.02.11.61 2.55 2.26 4.13-.84 2.48-1.53 4.21-1.55 4.25-.05.12.01.25.13.3.03.01.06.02.09.02.09 0 .18-.05.21-.14.02-.05 1.13-2.83 2.25-6.4 2.71-1.26 3.52-2.68 3.56-2.75.04-.07.01-.17-.06-.21-.08-.04-.17-.01-.21.06-.01.01-.75 1.31-3.16 2.5 1.01-3.3 2-7.21 2.14-10.29.01-.13-.09-.23-.22-.24-.15-.01-.25.08-.26.21zm-7.04 16.99c-.25-1.51-.69-3.04-1.22-4.49.07-.48.36-1.75.96-2.34.06-.06.06-.16 0-.22s-.16-.06-.22 0c-.49.48-.8 1.36-.95 2.01-.99-2.59-2.23-4.9-3.07-6.34-.06-.11-.2-.15-.31-.08-.11.06-.15.2-.08.31.5.86 1.15 2.03 1.79 3.39-.48-.31-1.17-.65-1.97-.65-.09 0-.15.07-.15.15s.07.15.15.15c1.03 0 1.9.64 2.25.93.42.92.84 1.91 1.21 2.94-.35-.25-.85-.5-1.53-.58-.08-.01-.16.05-.17.13-.01.08.05.16.13.17.95.11 1.52.59 1.77.86.41 1.22.75 2.48.96 3.72.02.11.12.19.23.19h.04c.11-.01.2-.13.18-.25z"/></svg>