<svg xmlns="http://www.w3.org/2000/svg" width="32" height="32" viewBox="0 0 32 32"><path d="M9.022 21.338L6.337 26.08l-.02.044c-.124.33-.187.673-.187 1.018 0 1.595 1.298 2.893 2.893 2.893 1.595 0 2.893-1.297 2.893-2.893 0-.345-.063-.687-.187-1.018l-2.707-4.786zm0 8.083c-1.257 0-2.28-1.02-2.28-2.28 0-.262.047-.525.14-.78l2.14-3.78 2.138 3.78c.094.255.14.518.14.78 0 1.26-1.022 2.28-2.28 2.28zm15.9-17.386h-3.14c-.17 0-.305.137-.305.306v1.246h-1.71c-.442-1.12-1.306-2.008-2.413-2.483V8.636c0-.17-.137-.306-.306-.306H16.3v-.79c.156-.095.294-.218.404-.367l3.52.202c.032.004.063.007.095.007.57 0 1.032-.463 1.032-1.033 0-.635-.56-1.144-1.23-1.015l-3.415.195c-.26-.36-.673-.574-1.12-.574-.446 0-.86.215-1.12.573l-3.546-.202s-.147-.013-.226-.013c-.57 0-1.033.463-1.033 1.033 0 .57.464 1.033 1.034 1.033.074 0 .213-.005.217-.005l3.56-.202c.104.14.23.257.375.348v.81h-.666c-.17 0-.307.136-.307.305v2.428c-1.152.47-2.073 1.41-2.518 2.574-2.14.164-3.846 1.853-4.04 3.98h-.362c-.17 0-.306.137-.306.306v2.54c0 .17.137.305.306.305h4.208c.17 0 .307-.137.307-.306v-2.54c0-.17-.137-.305-.306-.305h-.184c.11-.2.303-.35.53-.4.753 1.552 2.324 2.543 4.064 2.543 1.766 0 3.35-1.016 4.09-2.605h1.817v1.264c0 .17.137.305.306.305h3.14c.17 0 .306-.137.306-.306v-6.08c0-.17-.137-.306-.306-.306zm-14.04-5.27s-.122.005-.188.005c-.232 0-.42-.19-.42-.42s.19-.42.42-.42c.06 0 .17.01.183.01l3.933.223.092-.174c.136-.26.4-.42.685-.42s.55.16.685.42l.092.175 3.863-.224c.034-.006.064-.01.092-.01.23 0 .42.19.42.42 0 .23-.187.418-.43.418h-.003l-3.945-.228-.092.173c-.137.257-.4.416-.683.416s-.546-.16-.683-.416l-.092-.172-3.93.222zm4.27.904c.14.046.285.073.436.073.14 0 .277-.023.407-.063v.653h-.843v-.662zm9.465 10.446H22.09V16.85c0-.17-.137-.306-.306-.306h-2.322c-.124 0-.236.075-.284.19-.605 1.467-2.02 2.416-3.607 2.416-1.57 0-2.98-.934-3.593-2.38-.048-.113-.16-.186-.282-.186-.75 0-1.364.566-1.43 1.315-.008.085.02.17.08.233s.14.1.225.1h.284v1.925H7.26v-1.926h.344c.166 0 .302-.133.306-.3.048-2.012 1.662-3.633 3.674-3.692.13-.004.242-.088.282-.21.377-1.145 1.28-2.066 2.414-2.464.122-.043.205-.16.205-.29V8.945h2.256v2.366c0 .128.08.242.2.287 1.1.413 1.946 1.285 2.323 2.394.042.125.16.21.29.21h2.23c.17 0 .306-.138.306-.307v-1.246h2.526v5.466zm-14.86-.18H8.414c-.085 0-.153.07-.153.153 0 .085.068.153.153.153h1.34c.085 0 .154-.068.154-.153 0-.085-.07-.153-.154-.153zm6.308-6.705h-.938c-.085 0-.153.067-.153.152 0 .084.068.153.153.153h.938c.085 0 .153-.07.153-.153 0-.085-.068-.153-.153-.153zm5.87 3.364c-.085 0-.154.07-.154.153v1.162c0 .083.07.152.154.152.085 0 .153-.07.153-.153v-1.163c0-.085-.068-.153-.153-.153zm-11.324 12.1c-.08.03-.12.118-.09.197.06.16.09.324.09.49 0 .763-.62 1.385-1.385 1.385-.085 0-.153.07-.153.153 0 .085.068.153.153.153.933 0 1.692-.758 1.692-1.69 0-.203-.037-.403-.11-.597-.03-.08-.118-.12-.197-.09z"/></svg>