<svg xmlns="http://www.w3.org/2000/svg" viewBox="0 0 31.68 31.68"><path d="M25.69 11.77c-.9-2.93-3.63-4.96-6.71-4.96-3.09 0-5.8 2.01-6.7 4.93-.5-.18-1.03-.27-1.57-.27-2.18 0-4.06 1.5-4.56 3.61-1.95.07-3.6 1.43-4.03 3.35-.02.09 0 .18.06.25s.14.11.23.11H15.5v6.55c0 .43.35.79.79.79h5.78c.43 0 .79-.35.79-.79v-6.55h7.12c.14 0 .26-.1.29-.24.06-.36.09-.68.09-1-.02-2.8-1.96-5.2-4.67-5.78zm-3.45 13.56c0 .1-.08.18-.18.18h-5.78c-.1 0-.18-.08-.18-.18v-1.35h6.13v1.35zm0-1.66h-6.13v-7.82h6.13v7.82zm0-8.12h-6.13V14.2c0-.1.08-.18.18-.18h5.78c.1 0 .18.08.18.18v1.35zm7.48 2.65h-6.87v-4c0-.43-.35-.79-.79-.79h-5.78c-.43 0-.79.35-.79.79v4H2.79c.5-1.51 1.9-2.54 3.55-2.54h.04c.15.01.27-.1.29-.24.35-1.95 2.05-3.37 4.03-3.37.53 0 1.05.11 1.54.3.3.15.95.52 1.35 1.2.05.08.14.12.23.1.03 0 .05-.01.07-.03.1-.06.14-.2.08-.3-.35-.58-.84-.96-1.21-1.19.76-2.8 3.3-4.76 6.21-4.76 2.8 0 5.27 1.79 6.11 4.44-.75 0-1.31.27-1.34.28-.11.05-.16.17-.12.29.05.11.17.16.28.12.01 0 .78-.31 1.65-.17 2.44.53 4.19 2.68 4.19 5.19.02.23.01.45-.02.68z"/><path d="M19.74 14.59H18.6c-.08 0-.15.07-.15.15s.07.15.15.15h1.14c.08 0 .15-.07.15-.15s-.07-.15-.15-.15zM17.93 14.64c-.03.03-.04.07-.04.11 0 .04.02.08.04.11.03.03.07.05.11.05.04 0 .08-.02.11-.05.03-.03.05-.07.05-.11 0-.04-.02-.08-.05-.11-.06-.06-.17-.06-.22 0zM18.84 25.27h.65c.26 0 .47-.21.47-.47v-.15c0-.26-.21-.47-.47-.47h-.65c-.26 0-.47.21-.47.47v.15c.01.26.22.47.47.47zm-.16-.62c0-.09.07-.16.16-.16h.65c.09 0 .16.07.16.16v.15c0 .09-.07.16-.16.16h-.65c-.09 0-.16-.07-.16-.16v-.15z"/></svg>