<svg data-name="Layer 1" xmlns="http://www.w3.org/2000/svg" viewBox="0 0 36 36"><title>Icon-Red_Hat-Carrot-A-Black-RGB</title><path d="M23.657 12.342a5.147 5.147 0 0 0-1.92-1.215 5.14 5.14 0 0 0-6.03 2.05l-5.63 8.67-5.63 8.668a.75.75 0 0 0 .1.94.726.726 0 0 0 .247.163.75.75 0 0 0 .692-.065l8.668-5.63 8.668-5.63a5.14 5.14 0 0 0 .836-7.95zm-.53 5.544A3.627 3.627 0 0 1 22 19.036l-4.577 2.973-.835-.836-.884-.883a.75.75 0 1 0-1.06 1.06l.883.885.61.61-1.325.86-7.185 4.668 4.673-7.19 3.642-5.607.918.918 1.324 1.325a.758.758 0 0 0 .248.164.75.75 0 0 0 .813-.165.752.752 0 0 0 0-1.062l-1.325-1.324-1.147-1.144.19-.29a3.628 3.628 0 0 1 2.673-1.64l.2-.014h.193a3.647 3.647 0 0 1 3.1 5.55zM26.307 10.754L27.63 9.43l1.326-1.325a.75.75 0 0 0-1.056-1.06l-1.33 1.324-1.324 1.323a.75.75 0 0 0 .248 1.226.76.76 0 0 0 .282.054.747.747 0 0 0 .53-.22zM31.63 11.89a.75.75 0 0 0-.382-.426 4.507 4.507 0 0 0-5.12.88.75.75 0 0 0 .813 1.224.733.733 0 0 0 .25-.165 3 3 0 0 1 3.41-.585.75.75 0 0 0 1.03-.927zM22.845 10.036a.75.75 0 0 0 .564 0 .758.758 0 0 0 .247-.165 4.507 4.507 0 0 0 .88-5.118.75.75 0 0 0-1.355.647 3.006 3.006 0 0 1-.582 3.41.748.748 0 0 0 0 1.06.758.758 0 0 0 .245.166z"/></svg>