<svg xmlns="http://www.w3.org/2000/svg" width="32" height="32" viewBox="0 0 32 32"><path d="M15.527 12.925c1.778 0 3.225-1.447 3.225-3.225s-1.447-3.225-3.225-3.225-3.224 1.447-3.224 3.225 1.447 3.225 3.224 3.225zm0-5.837c1.44 0 2.612 1.17 2.612 2.612 0 1.44-1.172 2.61-2.613 2.61-1.44 0-2.61-1.17-2.61-2.61s1.17-2.612 2.61-2.612zm7.29 10.665c-1.478-3.505-2.768-3.8-6.374-3.8h-1.83c-3.472 0-5.323 1.498-6.004 4.866-.754 4.386.43 5.663 2.56 6.296.03.01.736.27 2.995.38.057.007.232.03.464.03.425 0 1.04-.073 1.465-.437.314-.27.474-.644.473-1.11 0-.05-.01-.49-.403-.876-.38-.373-.97-.557-1.758-.535-.014-.002-.856.007-1.755-.233l1.565-.867c.054-.03.094-.08.11-.14.016-.06.008-.123-.023-.177-.27-.46-.922-1.793-.698-2.43.05-.14.136-.23.274-.283.002 0 .174-.058.34.03.156.084.274.28.338.544.004.03.367 2.787 4.142 2.992-.136.09-.273.177-.402.258-1.23.768-.873 1.676-.744 1.915.165.374.82.96 2.125.493.75-.27 2.033-.922 3.17-1.878 1.72-1.443.033-4.913-.032-5.044zm-.363 4.574c-1.15.966-2.418 1.566-2.985 1.77-1.07.383-1.35-.147-1.368-.185-.214-.4-.04-.78.518-1.128.702-.44 1.584-1.06 1.586-1.06l.723-.48c.14-.095.18-.285.085-.426-.094-.14-.283-.18-.425-.086l-.73.485c-.005.003-.205.144-.488.337-.313.008-.606.002-.876-.02.758-.246 1.308-.957 1.308-1.795 0-1.04-.845-1.886-1.885-1.886s-1.886.846-1.886 1.885c0 .463.17.887.448 1.217-1.294-.746-1.46-1.93-1.473-2.02-.103-.43-.295-.722-.574-.87-.347-.186-.68-.07-.72-.056-.263.102-.452.295-.545.56-.277.795.344 2.093.622 2.61l-1.734.962c-.238-.097-.468-.215-.674-.362-.138-.098-.33-.065-.427.073-.098.138-.065.33.073.428 1.312.93 3.305.903 3.39.904 1.464-.042 1.534.716 1.536.797 0 .284-.084.495-.258.644-.396.34-1.185.306-1.456.265-.01-.003-.022-.004-.033-.004-2.14-.102-2.817-.34-2.843-.348-1.622-.482-2.904-1.237-2.155-5.604.62-3.06 2.234-4.365 5.4-4.365h1.832c3.538 0 4.498.315 5.816 3.44.016.033 1.548 3.185.196 4.32zm-5.96-2.588c0-.787.638-1.426 1.424-1.426.786 0 1.425.64 1.425 1.425s-.64 1.424-1.425 1.424-1.425-.64-1.425-1.425z"/></svg>