<svg data-name="Layer 1" xmlns="http://www.w3.org/2000/svg" viewBox="0 0 36 36"><title>Icon-Red_Hat-Mainframe-A-Black-RGB</title><path d="M9 25.75h7a.76.76 0 0 0 .75-.75V8a.76.76 0 0 0-.75-.75H9a.76.76 0 0 0-.75.75v17a.76.76 0 0 0 .75.75zm.75-17h5.5v15.5h-5.5zM20 25.75h7a.76.76 0 0 0 .75-.75V8a.76.76 0 0 0-.75-.75h-7a.76.76 0 0 0-.75.75v17a.76.76 0 0 0 .75.75zm.75-17h5.5v15.5h-5.5zM29 27.25H7a.75.75 0 0 0 0 1.5h22a.75.75 0 0 0 0-1.5z"/><path d="M14 10.25h-3a.75.75 0 0 0 0 1.5h3a.75.75 0 0 0 0-1.5zM14 13.25h-3a.75.75 0 0 0 0 1.5h3a.75.75 0 0 0 0-1.5zM25 10.25h-3a.75.75 0 0 0 0 1.5h3a.75.75 0 0 0 0-1.5zM25 13.25h-3a.75.75 0 0 0 0 1.5h3a.75.75 0 0 0 0-1.5zM13 21.25h-1a.75.75 0 0 0 0 1.5h1a.75.75 0 0 0 0-1.5zM24 21.25h-1a.75.75 0 0 0 0 1.5h1a.75.75 0 0 0 0-1.5z"/></svg>