<svg xmlns="http://www.w3.org/2000/svg" viewBox="0 0 32 32"><path d="M21.38 11.34v-.75c0-.07-.06-.14-.14-.14-.08 0-.14.06-.14.14v.75c0 .07.06.14.14.14.08 0 .14-.06.14-.14zm1.27-.42c.03 0 .07-.01.1-.04.05-.05.05-.14 0-.19l-.53-.53c-.05-.05-.14-.05-.19 0-.05.05-.05.14 0 .19l.53.53c.02.03.06.04.09.04zm-2.83.03c.03 0 .07-.01.1-.04l.53-.53c.05-.05.05-.14 0-.19-.05-.05-.14-.05-.19 0l-.53.53c-.05.05-.05.14 0 .19.02.02.06.04.09.04zM7.59 8.34c.03.01.81.33 1.62.33h1.72l-.2.22c-.05.06-.07.15-.03.22.03.07.11.12.19.12h1.33c.03 0 .06-.01.09-.02l1.04-.54h2.5c.75 0 1.75-.08 1.75-.73 0-.38-.41-.84-2.36-.84H9.82l-1.09-.98c-.04-.03-.09-.05-.14-.05h-.73c-.07 0-.13.03-.17.09-.03.05-.04.12-.02.19l.39 1.02-.47.18c-.08.04-.13.11-.13.19v.41c0 .09.05.16.13.19zm.28-.46l.54-.21c.1-.04.15-.16.11-.26l-.36-.93h.35l1.09.97c.04.04.09.05.14.05h5.49c.82 0 1.31.09 1.6.18h-.17c-.08 0-.14.06-.14.14s.06.14.14.14h.52c-.03.14-.39.3-1.33.3h-1.78c.04-.06.05-.14.01-.2-.05-.1-.18-.14-.27-.09l-1.65.85h-.82l.48-.53c.08-.09.07-.22-.01-.29-.08-.07-.21-.07-.29.02l-.22.24H9.21c-.55 0-1.1-.16-1.35-.25l.01-.13zm7.41 14.17h.31l.03-.87h-.31l-.03.87zm.04-1.35h.31l.03-.84h-.31l-.03.84zm.05-1.28h.31l.03-.84h-.31l-.03.84zm.14-4.33h.31l.02-.52h-.31l-.02.52zm-.28 8.47h.31l.03-1.02h-.31l-.03 1.02zm.22-6.55h.31l.03-.77h-.31l-.03.77zm-.04 1.16h.31l.03-.83h-.31l-.03.83zm.07-2.23h.31l.02-.62h-.31l-.02.62zm1.08 1.4h-.31l.03.83h.31l-.03-.83zm-.06-2.01h-.31l.02.62h.31l-.02-.62zm.15 4.53h-.31l.03.84h.31l-.03-.84zm.04 1.32h-.31l.03.87h.31l-.03-.87zm-.08-2.6h-.31l.03.84h.31l-.03-.84zm-.14-4.01h-.31l.02.52h.31l-.02-.52zm.06 1.66h-.31l.03.77h.31l-.03-.77zm-.1 6.31l.03 1.02h.31l-.03-1.02h-.31zm9.74-10.39h-.98c-.1-2.21-1.15-3.17-3.5-3.17h-1.44c-.11 0-.2.09-.2.2 0 .11.09.2.2.2h.07c.04.47.43.85.92.85.48 0 .87-.37.91-.83 1.78.11 2.55.92 2.63 2.74H5.83c-.15 0-.27.12-.27.27v1.64c0 .15.12.27.27.27h2.76v1.57c0 .15.12.27.27.27h1.1c.12 0 .22-.08.26-.19l.51-1.65h2.23l-5.73 11.2c-.04.08-.04.18.01.27.05.08.14.13.23.13h17.06c.09 0 .18-.05.23-.13s.05-.18.01-.27l-5.73-11.2h2.23l.51 1.65c.03.11.14.19.26.19h1.1c.15 0 .27-.12.27-.27v-1.57h1.39v8.74c0 .11.09.2.2.2.11 0 .2-.09.2-.2v-8.74h.97c.15 0 .27-.12.27-.27V12.4c0-.13-.12-.25-.27-.25zm-4.93-2.32c-.26 0-.47-.19-.51-.44h1.01c-.03.25-.24.44-.5.44zm2.84 15.56h-7.25l-.04-1.26h-.31l.04 1.26h-1.05l.04-1.26h-.31l-.04 1.26H7.92l5.65-11.05h4.86l5.65 11.05zm1.81-11.6h-2.76c-.15 0-.27.12-.27.27v1.56h-.62l-.51-1.65c-.03-.11-.14-.19-.26-.19H10.53c-.12 0-.22.08-.26.19l-.51 1.65h-.62v-1.57c0-.15-.12-.27-.27-.27H6.1v-1.1h19.79v1.11z"/></svg>