<svg xmlns="http://www.w3.org/2000/svg" width="32" height="32" viewBox="0 0 32 32"><path d="M19.3 9.542c2.078 0 3.77-1.692 3.77-3.772S21.378 2 19.3 2c-2.08 0-3.772 1.692-3.772 3.77 0 2.08 1.692 3.772 3.77 3.772zm0-7c1.78 0 3.226 1.45 3.226 3.228C22.526 7.55 21.078 9 19.3 9c-1.782 0-3.23-1.45-3.23-3.23s1.45-3.227 3.23-3.227zm2.067 7.732H17.23c-2.346 0-4.044.792-5.015 2.28l.072.056-.072-.056-1-.773c-.115-.09-.282-.07-.374.047l-3.377 4.28-1.793 1.26c-.043.03-.073.076-.082.128-.01.052.004.107.034.15l.306.424-1.2 1.524c-.044.056-.064.128-.055.2.008.07.045.134.102.178l5.657 4.36 4.016 5.585c.035.048.086.076.14.082.047.004.095-.007.136-.036l1.55-1.09.634.49c.04.033.088.05.136.055.09.008.18-.027.238-.102l2.05-2.593 3.674-2.582c.043-.03.073-.077.082-.13.01-.052-.003-.106-.034-.15l-.706-.98 1.048-1.333c.044-.056.064-.127.055-.198-.007-.07-.044-.135-.1-.18l-5.06-3.932-4.06-5.65c-.033-.042-.08-.07-.127-.078.775-.434 1.794-.696 3.13-.696h4.136c4.477 0 5.417 2.946 5.417 5.42v3.32c0 1.607-1.09 2.41-2.354 3.338v-7.19c0-.133-.107-.24-.238-.24-.132 0-.238.107-.238.24v8.952c-.305.24-1.094.674-2.896.854l-.858.603c3.087-.138 4.07-.962 4.308-1.23.044-.05.068-.115.068-.18v-1.24l.174-.13c1.325-.973 2.577-1.893 2.577-3.777v-3.32c0-3.845-2.12-5.962-5.963-5.962zm-7.414 1.272c.016-.01.034-.017.052-.023-.018.006-.037.01-.052.023zm-2.855.82l.802.622-2.888 2.03 2.086-2.65zm-5.78 7.347l.936-1.19 3.108 4.32-4.045-3.13zm11.707 9.065l-.29-.227 1.05-.737-.76.965zm5.78-7.346l-.784.998-2.604-3.623 3.39 2.625zM18.3 17.934l.004.01.01.01 4.3 5.98-7.956 5.592-4.18-5.814-.002-.007-.007-.006-4.404-6.125 7.957-5.59 4.28 5.95zm-6.487-.006l-1.445 1.016c-.043.03-.073.077-.082.13-.01.05.003.105.034.148l2.827 3.933c.063.09.187.11.276.047l.126-.09.724-.508.343.478.872 1.213c.034.048.086.076.14.082.046.006.094-.006.135-.035l2.637-1.854c.043-.03.072-.077.082-.13.008-.05-.005-.106-.036-.15l-4.157-5.78c-.037-.052-.092-.077-.15-.08-.042-.003-.087.005-.125.032l-2.2 1.547zm2.33-1.027l3.866 5.38-2.31 1.624-1.216-1.69c-.034-.048-.086-.077-.14-.082-.047-.005-.095.006-.136.035l-.85.598-2.596-3.61 3.322-2.334.058.083zm5.4 7.126c.018.024.043.038.07.04.024.003.05-.003.07-.018.044-.03.054-.093.02-.138l-.947-1.32c-.03-.044-.094-.054-.14-.022-.043.032-.053.094-.02.138l.948 1.32zm-.657-1.868c.023.003.046-.003.068-.018l.828-.58c.044-.033.056-.095.024-.14-.032-.043-.094-.055-.138-.023l-.827.58c-.045.033-.056.095-.024.14.017.023.043.038.07.04zm-5.867-7.376c-.045.033-.055.094-.023.138l.95 1.32c.018.024.043.038.07.04.023.002.048-.003.07-.018.044-.032.054-.094.02-.138l-.95-1.32c-.03-.045-.093-.055-.137-.023zm-2.663 3.98l-.95-1.32c-.032-.045-.094-.055-.138-.023-.044.03-.054.093-.023.137l.95 1.32c.017.025.042.04.07.042.023 0 .048-.005.068-.02.045-.03.055-.094.022-.14zm4.26-2.503c.01.004.022.008.033.01.023.002.047-.004.068-.02l.827-.58c.046-.032.057-.094.025-.14-.032-.044-.094-.054-.138-.023l-.827.582c-.045.03-.056.093-.024.137.01.015.024.024.038.03zm1.846 9.095l-.55-.765c-.033-.044-.095-.054-.14-.023-.045.032-.055.095-.023.14l.95 1.32c.017.023.04.037.07.04.022 0 .047-.004.067-.02.025-.017.036-.044.038-.073 0-.022-.002-.045-.016-.065l-.398-.555zm-1.185-.873l-.828.58c-.033.024-.04.06-.034.098.002.014 0 .03.01.042.017.024.043.04.07.04.012.002.023-.005.034-.008.01-.003.023 0 .034-.01l.828-.58c.045-.03.056-.093.024-.138-.03-.045-.092-.056-.137-.024zm-2.414-1.25l-.827.58c-.045.033-.056.095-.024.14.016.024.042.038.07.04.023.003.047-.003.067-.018l.828-.58c.045-.032.056-.094.024-.14-.032-.043-.094-.055-.14-.023zm-2.83-3.934l-.825.582c-.045.03-.056.094-.024.14.02.023.044.037.07.04.024.003.048-.002.07-.017l.826-.582c.044-.03.055-.093.024-.137-.032-.044-.093-.055-.14-.024z"/></svg>