<svg xmlns="http://www.w3.org/2000/svg" viewBox="0 0 31.68 31.68"><path d="M7.49 22.05c0 .09.05.18.14.22l7.76 3.88h.01c.03.01.06.02.1.02.04 0 .07-.01.1-.02h.01l7.76-3.88c.08-.04.14-.13.14-.22v-7.48l3.01-1.51c.1-.05.15-.15.13-.26-.02-.11-.1-.19-.2-.2l-2.72-.42L26.1 9.8c.06-.06.08-.13.07-.21-.01-.08-.06-.15-.13-.18l-7.76-3.88c-.1-.05-.21-.03-.28.04l-2.64 2.64-3.13-.31c-.05 0-.09 0-.13.03l-7.64 3.83c-.1.05-.15.16-.13.26.02.11.11.19.22.2l2.95.3v.09l-1.32 3.1c-.05.12 0 .26.12.32l1.2.6v5.42zm7.76 3.49L7.98 21.9v-5.04l6.07 3.04c.06.03.13.03.19.01.06-.02.11-.07.14-.13l.86-2.03v7.79zm7.76-3.64l-7.27 3.63v-8.95l.05-.11 2.93.45c.05.01.1 0 .15-.02l4.14-2.08v7.08zm2.59-8.93l-6.88 3.45-2.18-.34 6.88-3.45 2.18.34zm-7.38-6.93l7.3 3.65L23.21 12l-7.3-3.65 2.31-2.31zm-2.73 2.71l7.21 3.61-1.24.62v-.49c0-.07-.05-.12-.12-.12-.07 0-.12.05-.12.12v.61l-.59.3v-1.3c0-.07-.06-.12-.12-.12-.07 0-.12.05-.12.12v1.43l-.59.3v-2.12c0-.07-.05-.12-.12-.12-.07 0-.12.05-.12.12v2.24l-.59.3v-2.94c0-.07-.06-.12-.12-.12-.07 0-.12.05-.12.12v3.06l-.59.3v-3.75c0-.07-.05-.12-.12-.12-.07 0-.12.05-.12.12v3.88l-.59.3v-4.57c0-.07-.05-.12-.12-.12-.07 0-.12.06-.12.12v4.69l-.59.3v-5.39c0-.07-.06-.12-.12-.12-.07 0-.12.05-.12.12v5.51l-.53.26V9.73c0-.1-.08-.18-.18-.18-.1 0-.18.08-.18.18v6.14l-7-3.5 7.14-3.62zM5.43 11.82l6.82-3.42 2.35.24-6.82 3.42-2.35-.24zm1.28 3.86l1.26-2.96 7.32 3.66-1.26 2.96-7.32-3.66z"/></svg>