<svg xmlns="http://www.w3.org/2000/svg" viewBox="0 0 36 36"><title>Icon-Red_Hat-Objects-Safety_Goggles-A-Black-RGB</title><path d="M24 23.73a5.75 5.75 0 0 1-5.65-4.67.38.38 0 0 0-.35-.33.37.37 0 0 0-.35.31A5.74 5.74 0 0 1 12 23.73 5.82 5.82 0 0 1 6.25 18 5.76 5.76 0 0 1 12 12.23h11.79a5.9 5.9 0 0 1 5.93 5.19 5.68 5.68 0 0 1-1.46 4.43A5.76 5.76 0 0 1 24 23.73zm-6-6.5a1.9 1.9 0 0 1 1.83 1.56 4.25 4.25 0 0 0 8.4-1.23 4.41 4.41 0 0 0-4.44-3.83H12A4.26 4.26 0 0 0 7.75 18 4.31 4.31 0 0 0 12 22.23a4.24 4.24 0 0 0 4.18-3.46A1.86 1.86 0 0 1 18 17.23zM5 19.73a.75.75 0 0 1-.75-.73v-3a.75.75 0 0 1 1.5 0v3a.75.75 0 0 1-.75.73zM31 19.73a.75.75 0 0 1-.75-.75V16a.75.75 0 0 1 1.5 0v3a.75.75 0 0 1-.75.73z"/><path d="M9.68 18.73a.74.74 0 0 1-.75-.73A3.08 3.08 0 0 1 12 14.91a.75.75 0 0 1 0 1.5A1.57 1.57 0 0 0 10.43 18a.75.75 0 0 1-.75.73z"/></svg>