<svg version="1" xmlns="http://www.w3.org/2000/svg" width="32" height="32" viewBox="0 0 32 32"><path d="M17.61 10.023c-.106-.046-.23-.023-.313.058l-4.133 3.976H9.29c-.16 0-.29.13-.29.29v4.692c0 .16.13.29.29.29h3.814l4.193 4.006c.056.05.128.08.2.08.038 0 .077-.01.114-.023.106-.046.177-.15.177-.266V10.288c0-.115-.07-.22-.177-.265zm-.402 4.785v7.64l-3.79-3.618c-.053-.052-.124-.08-.2-.08H9.58v-4.116h3.7c.076 0 .147-.03.2-.08l3.728-3.586v3.84zM20.495 14.052c-.057-.053-.144-.05-.197.005-.053.056-.05.144.005.197.564.536.875 1.256.875 2.027 0 .794-.343 1.556-.94 2.088-.056.052-.06.14-.01.197.027.03.065.047.104.047.033 0 .065-.012.093-.035.654-.586 1.03-1.423 1.03-2.296 0-.847-.342-1.638-.96-2.228zM22.34 11.19c-.074.077-.072.2.006.275C23.67 12.74 24.4 14.45 24.4 16.28c0 1.865-.79 3.66-2.167 4.926-.08.072-.084.195-.012.275.04.042.09.063.144.063.048 0 .094-.017.13-.05 1.46-1.34 2.296-3.24 2.296-5.213 0-1.937-.77-3.747-2.174-5.096-.078-.074-.202-.07-.276.006z"/><path d="M21.38 12.42c-.068-.063-.174-.06-.237.007-.064.066-.06.172.006.236 1.003.955 1.558 2.24 1.558 3.62 0 1.418-.61 2.776-1.674 3.726-.068.06-.074.165-.012.233.032.037.077.057.123.057.04 0 .08-.015.11-.043 1.134-1.012 1.786-2.46 1.786-3.975 0-1.472-.59-2.843-1.66-3.86z"/></svg>