<svg xmlns="http://www.w3.org/2000/svg" viewBox="0 0 32 32"><path d="M24.37 8.52H7.63c-.17 0-.31.14-.31.31v14.35c0 .17.14.31.31.31h16.74c.17 0 .31-.14.31-.31V8.83c-.01-.17-.14-.31-.31-.31zm-6.18 10.39v-.09c0-.13-.1-.23-.23-.23h-3.91c-.13 0-.23.1-.23.23v.09H7.94v-1.33h16.12v1.33h-5.87zm2.68.3v2.27h-2.68v-2.27h2.68zm-6.6 3.7v-3.86h1.5v3.86h-1.5zm3.46 0h-1.5v-3.86h1.5v3.86zm-3.92-1.43H11.2v-2.27h2.61v2.27zm-5.87-2.27h2.96v2.27H7.94v-2.27zm0-5.95h16.12v1.36H7.94v-1.36zm0-2.47H11v2.16H7.94v-2.16zm3.36 2.16v-2.16h2.92v2.16H11.3zm3.23 0v-2.16h3.22v2.16h-3.22zm3.52 0v-2.16h2.91v2.16h-2.91zm3.12 1.97h2.9v2.35h-2.89v-2.31c-.01-.01-.01-.03-.01-.04zm2.89-1.97h-2.79v-2.16h2.79v2.16zm-6.11 1.97h2.93c0 .01-.01.03-.01.04v2.31h-2.91v-2.31c0-.01-.01-.03-.01-.04zm-3.53 0h3.23c0 .01-.01.03-.01.04v2.31h-3.22v-2.31c.01-.01.01-.03 0-.04zm-3.22 0h2.93c0 .01-.01.03-.01.04v2.31H11.2v-2.31c.01-.01 0-.03 0-.04zm-3.26 0h2.97c0 .01-.01.03-.01.04v2.31H7.94v-2.35zm13.23 4.29h2.89v2.27h-2.89v-2.27zM7.94 9.13h16.12v1.35H7.94V9.13zm0 12.66h5.87v1.08H7.94v-1.08zm16.12 1.08h-5.88v-1.08h5.88v1.08zm-7.36-1.49c.08 0 .15-.07.15-.15v-.25c0-.08-.07-.15-.15-.15s-.15.07-.15.15v.25c0 .09.07.15.15.15zm-1.43-.55c-.09 0-.15.07-.15.15v.25c0 .08.07.15.15.15s.15-.07.15-.15v-.25c0-.08-.07-.15-.15-.15z"/></svg>