<svg xmlns="http://www.w3.org/2000/svg" viewBox="0 0 36 36"><title>Icon-Red_Hat-Transportation-Airplane-A-Black-RGB</title><path d="M20.75 14.68V8a2.75 2.75 0 0 0-5.5 0v6.66l-8.75 7.8a.73.73 0 0 0-.25.55v2a.74.74 0 0 0 .28.59.76.76 0 0 0 .63.15L15.25 24v1.67l-2.67 1.77a.76.76 0 0 0-.33.63v2a.75.75 0 0 0 .75.75h10a.76.76 0 0 0 .75-.75V28a.78.78 0 0 0-.33-.63l-2.67-1.77V24l8.09 1.78a.76.76 0 0 0 .63-.15.72.72 0 0 0 .28-.58V23a.73.73 0 0 0-.25-.56zm7.5 9.39l-8.09-1.79a.76.76 0 0 0-.63.15.74.74 0 0 0-.28.59v3a.74.74 0 0 0 .33.62l2.67 1.78v.85h-8.5v-.85l2.67-1.78a.76.76 0 0 0 .33-.62V23a.74.74 0 0 0-.28-.59.76.76 0 0 0-.63-.15l-8.1 1.8v-.72l8.75-7.78a.77.77 0 0 0 .25-.56V8a1.25 1.25 0 0 1 2.5 0v7a.77.77 0 0 0 .25.56l8.75 7.77z"/></svg>