<svg xmlns="http://www.w3.org/2000/svg" viewBox="0 0 32 32"><path d="M10.14 9c.02.02.05.02.07.01l1.27-.57c.02-.01.04-.03.04-.05 0-.02-.01-.05-.02-.06l-.24-.2c1.57-1.5 3.53-2.32 5.57-2.32 2.77 0 5.41 1.55 7.06 4.14.04.07.11.1.18.1.04 0 .08-.01.12-.03.1-.06.13-.2.07-.3-1.73-2.72-4.51-4.34-7.43-4.34-2.16 0-4.25.88-5.9 2.47l-.3-.26c-.02-.02-.04-.02-.06-.02-.02.01-.04.02-.05.05l-.39 1.33c-.02 0-.01.03.01.05zm13.65 13.29c-.02-.01-.05-.01-.08 0l-1.15.78c-.02.01-.03.03-.03.06s.01.05.03.06l.32.19c-1.64 1.82-3.77 2.82-6.05 2.82-2.49 0-4.88-1.24-6.54-3.4-.07-.09-.21-.11-.31-.04s-.11.21-.04.31c1.75 2.27 4.26 3.57 6.89 3.57 2.43 0 4.7-1.08 6.43-3.02l.29.17c.02.01.05.01.07 0 .02-.01.03-.03.04-.05l.16-1.37c0-.03-.01-.06-.03-.08zM9.13 20.04c-.16 0-.31.04-.44.11.23-.25.41-.55.53-.87.27.55.84.94 1.49.94.92 0 1.67-.75 1.67-1.67v-.07c.12.05.26.09.4.09.55 0 .99-.44.99-.99 0-.44-.29-.81-.69-.94.79-.52 1.31-1.42 1.31-2.43 0-1.33-.9-2.46-2.13-2.8-.05-.88-.77-1.58-1.66-1.58-.92 0-1.67.75-1.67 1.67 0 .33.1.64.26.9-.34.42-.56.93-.62 1.49-.13-.24-.31-.44-.53-.59.5-.05.89-.47.89-.98 0-.55-.44-.99-.99-.99s-.99.44-.99.99c0 .27.11.52.29.7-.05-.01-.09-.02-.13-.02-.47 0-.9.2-1.2.52.12-.23.19-.5.19-.77 0-.92-.75-1.67-1.67-1.67s-1.67.75-1.67 1.67c0 .69.43 1.29 1.04 1.54-.32.16-.54.49-.54.88 0 .55.44.99.99.99.08 0 .16-.01.23-.03-.11.1-.21.22-.3.34-.17-.06-.35-.09-.53-.09-.92 0-1.67.75-1.67 1.67 0 .81.58 1.48 1.34 1.63-.22.18-.37.46-.37.77 0 .55.44.99.99.99.47 0 .87-.33.97-.77.46.3 1.01.48 1.59.48.67 0 1.28-.23 1.77-.6-.09.15-.14.32-.14.5 0 .55.44.99.99.99s.99-.44.99-.99-.43-1.01-.98-1.01zm1.59-.25c-.68 0-1.23-.55-1.23-1.23s.55-1.23 1.23-1.23 1.23.55 1.23 1.23-.56 1.23-1.23 1.23zm.84-2.67c.12 0 .24-.02.36-.03-.04.07-.07.15-.1.23-.07-.08-.16-.14-.26-.2zm1.77.47c0 .31-.25.56-.56.56s-.56-.25-.56-.56.25-.56.56-.56.56.25.56.56zm-2.73-7.32c.68 0 1.23.55 1.23 1.23s-.55 1.23-1.23 1.23c-.68 0-1.23-.55-1.23-1.23s.55-1.23 1.23-1.23zm-1.12 2.46c.3.27.69.43 1.11.43.8 0 1.46-.56 1.63-1.31 1 .32 1.72 1.26 1.72 2.36 0 1.37-1.11 2.48-2.48 2.48s-2.48-1.11-2.48-2.48c.01-.55.2-1.06.5-1.48zm-.77 2.4c.27.82.9 1.47 1.69 1.79-.43.08-.8.33-1.04.68-.15-.7-.56-1.3-1.11-1.71.21-.21.37-.47.46-.76zm-.77-3.38c.31 0 .56.25.56.56 0 .31-.25.56-.56.56s-.56-.25-.56-.56c0-.31.25-.56.56-.56zm-.83 1.69c.68 0 1.23.55 1.23 1.23s-.55 1.23-1.23 1.23c-.68 0-1.23-.55-1.23-1.23 0-.68.55-1.23 1.23-1.23zm-3.91-.69c0-.68.55-1.23 1.23-1.23.68 0 1.23.55 1.23 1.23s-.55 1.23-1.23 1.23c-.68 0-1.23-.56-1.23-1.23zm2.43 2.69c-.19.06-.36.14-.53.23.09-.15.14-.32.14-.5 0-.33-.16-.62-.41-.8.31-.08.59-.24.81-.47-.12.23-.19.5-.19.77-.01.28.06.54.18.77zm-1.38.28c-.31 0-.56-.25-.56-.56s.25-.56.56-.56c.31 0 .55.25.55.56s-.24.56-.55.56zm-1.82 2.32c0-.68.55-1.23 1.23-1.23.68 0 1.23.55 1.23 1.23s-.55 1.23-1.23 1.23c-.68 0-1.23-.55-1.23-1.23zM3.95 21c-.31 0-.56-.25-.56-.56s.25-.56.56-.56c.31 0 .56.25.56.56s-.25.56-.56.56zm2.56-.3c-.63 0-1.2-.24-1.64-.62-.08-.21-.24-.38-.43-.49-.01-.02-.02-.04-.04-.06.54-.27.91-.84.91-1.49 0-.57-.29-1.08-.74-1.38.33-.41.79-.71 1.32-.84.3.32.73.52 1.2.52.28 0 .53-.07.76-.19.67.44 1.12 1.21 1.12 2.07.02 1.37-1.09 2.48-2.46 2.48zm2.62.89c-.31 0-.56-.25-.56-.56s.25-.56.56-.56c.31 0 .56.25.56.56s-.25.56-.56.56zm15.76-10.71c-2.82 0-5.12 2.3-5.12 5.12s2.3 5.12 5.12 5.12 5.12-2.3 5.12-5.12-2.3-5.12-5.12-5.12zm0 9.66c-2.5 0-4.54-2.04-4.54-4.54s2.04-4.54 4.54-4.54 4.54 2.04 4.54 4.54-2.04 4.54-4.54 4.54z"/></svg>