<svg xmlns="http://www.w3.org/2000/svg" viewBox="0 0 31.68 31.68"><path d="M18.59 18.47h1.35v-.24h.32v-1.3h-1.98v1.3h.32c-.01 0-.01.24-.01.24zm.09-1.13h1.16v.48h-.32v.24H19v-.24h-.32v-.48z"/><path d="M26.36 13.66c.04-.16-.03-.33-.18-.41l-3.25-1.59c-.05-.02-.1-.04-.16-.04H9.41c-.05 0-.09.01-.14.03l-3.75 1.59c-.16.07-.24.25-.2.42-.01.03-.02.06-.02.09v5.95c0 .2.16.35.35.35h20.36c.2 0 .35-.16.35-.35v-5.95c.01-.03 0-.06 0-.09zM9.48 12.33h13.21l2.18 1.07H6.97l2.51-1.07zm16.19 7.02H6.01V14.2h19.65l.01 5.15z"/><path d="M11 15.28h-.32v-.24H9.33v.24h-.31v1.3H11v-1.3zm-.41.89H9.43v-.48h.32v-.24h.53v.24h.32c-.01 0-.01.48-.01.48zM13.33 15.28h-.32v-.24h-1.35v.24h-.32v1.3h1.98c.01 0 .01-1.3.01-1.3zm-.42.89h-1.16v-.48h.32v-.24h.53v.24h.32c-.01 0-.01.48-.01.48zM15.64 15.28h-.32v-.24h-1.35v.24h-.32v1.3h1.98c.01 0 .01-1.3.01-1.3zm-.41.89h-1.16v-.48h.32v-.24h.53v.24h.32c-.01 0-.01.48-.01.48zM17.96 15.28h-.32v-.24H16.3v.24h-.32v1.3h1.98v-1.3zm-.41.89h-1.16v-.48h.32v-.24h.53v.24h.32c-.01 0-.01.48-.01.48zM20.26 15.28h-.32v-.24h-1.35v.24h-.32v1.3h1.98c.01 0 .01-1.3.01-1.3zm-.41.89h-1.16v-.48H19v-.24h.53v.24h.32v.48zM24.83 17.16h-.32v-.24h-1.35v.24h-.32v1.3h1.98v-1.3zm-.41.89h-1.16v-.48h.32v-.24h.53v.24h.32v.48zM16.27 18.47h1.35v-.24h.32v-1.3h-1.98v1.3h.32c-.01 0-.01.24-.01.24zm.09-1.13h1.16v.48h-.32v.24h-.53v-.24h-.32c.01 0 .01-.48.01-.48zM13.95 18.47h1.35v-.24h.32v-1.3h-1.98v1.3h.32c-.01 0-.01.24-.01.24zm.1-1.13h1.16v.48h-.32v.24h-.53v-.24h-.32c.01 0 .01-.48.01-.48zM11.63 18.47h1.35v-.24h.32v-1.3h-1.98v1.3h.32c-.01 0-.01.24-.01.24zm.09-1.13h1.16v.48h-.32v.24h-.53v-.24h-.32c.01 0 .01-.48.01-.48zM9.33 18.47h1.35v-.24H11v-1.3H9.02v1.3h.32c-.01 0-.01.24-.01.24zm.1-1.13h1.16v.48h-.32v.24h-.53v-.24h-.31v-.48z"/></svg>