<svg id="Layer_1" xmlns="http://www.w3.org/2000/svg" viewBox="0 0 31.68 31.68"><style>.st0{fill:none;} .st1{fill:#010101;}</style><path class="st0" d="M22.6 9.46c-1.92-1.92-5.04-1.92-6.96 0s-1.92 5.04 0 6.96 5.04 1.92 6.96 0c1.92-1.9 1.94-5 .03-6.92-.01-.02-.02-.03-.03-.04zm-.56 3.09c-.7.7-1.83.7-2.53 0-.7-.7-.7-1.83 0-2.53.7-.7 1.83-.7 2.53 0 .7.7.7 1.83 0 2.53z"/><path class="st0" d="M20.78 10.01c-.7 0-1.27.57-1.27 1.27 0 .7.57 1.27 1.27 1.27s1.27-.57 1.27-1.27c0-.34-.14-.66-.37-.9-.24-.24-.57-.37-.9-.37z"/><path class="st0" d="M23.21 8.84c-2.26-2.26-5.92-2.26-8.18-.01-1.5 1.5-2.06 3.7-1.46 5.74.03.09 0 .19-.06.26l-.77.77.33.33c.1.1.1.26 0 .36l-6.29 6.29.38 1.9 1.55.05 1.05-1.05-.1-1.17c-.01-.08.02-.15.07-.2l.38-.38c.05-.05.13-.08.21-.07l1.14.12.21-.21-.05-.63c-.01-.08.02-.15.07-.21l.31-.31c.06-.06.15-.09.23-.07l.54.12.64-.64c.06-.06.14-.08.22-.07l1.21.17.91-.91c.1-.1.26-.1.36 0l.33.33.77-.77c.07-.07.17-.09.26-.06 3.06.93 6.29-.8 7.22-3.86.61-2.07.05-4.31-1.48-5.82zM7.98 23.36c-.05.05-.13.05-.18 0-.05-.05-.05-.13 0-.18l5.96-5.97-.3-.3-5.63 5.65c-.05.05-.13.05-.18 0-.05-.05-.05-.13 0-.18l5.73-5.74c.05-.05.13-.05.18 0l.48.48c.05.05.05.13 0 .18l-6.06 6.06zm7.15-4.97l-.96.96c-.05.05-.13.05-.18 0-.05-.05-.05-.13 0-.18l.87-.87-.3-.3-1.25 1.25c-.05.05-.13.05-.18 0-.05-.05-.05-.13 0-.18l1.34-1.34c.05-.05.13-.05.18 0l.48.48c.05.04.05.13 0 .18zm7.66-1.79c-2.02 2.02-5.3 2.02-7.33 0s-2.02-5.3 0-7.33 5.3-2.02 7.33 0c2.02 2 2.04 5.27.04 7.29l-.04.04z"/><path class="st1" d="M23.58 8.48c-2.46-2.46-6.45-2.46-8.91 0-1.6 1.59-2.22 3.92-1.63 6.1l-.86.86c-.1.1-.1.26 0 .36l.33.33-6.19 6.19c-.06.06-.09.15-.07.23l.45 2.23c.02.12.13.2.24.21l1.85.06c.07 0 .13-.03.18-.07l1.21-1.21c.05-.05.07-.11.07-.18l-.1-1.18.21-.21 1.16.11c.08.01.15-.02.21-.07l.38-.38c.06-.05.08-.13.07-.21l-.05-.65.12-.12.54.12c.09.02.18-.01.24-.07l.65-.65 1.21.17c.08.01.16-.01.22-.07l.82-.82.33.33c.1.1.26.1.36 0l.86-.86c3.36.91 6.82-1.07 7.73-4.43.6-2.18-.03-4.52-1.63-6.12zm-.37 8.55c-1.5 1.5-3.7 2.06-5.73 1.46-.09-.03-.19 0-.26.06l-.77.77-.33-.32c-.1-.1-.26-.1-.36 0l-.92.92-1.21-.17c-.08-.01-.16.01-.22.07l-.64.64-.54-.12c-.09-.02-.18.01-.24.07l-.31.31c-.06.05-.08.13-.07.21l.07.63-.21.22-1.16-.11c-.08-.01-.15.02-.21.07l-.4.39c-.05.05-.08.13-.07.2l.1 1.17-1.05 1.05-1.55-.05-.38-1.9 6.3-6.29c.1-.1.1-.26 0-.36l-.32-.33.77-.77c.07-.07.09-.17.06-.26-.91-3.06.84-6.28 3.9-7.19s6.28.84 7.19 3.9c.62 2.02.06 4.23-1.44 5.73z"/><path class="st1" d="M19.51 10.01c-.7.7-.7 1.83 0 2.53.7.7 1.83.7 2.53 0s.7-1.83 0-2.53c-.7-.69-1.83-.69-2.53 0zm2.17 2.17c-.5.5-1.3.49-1.8 0-.5-.5-.49-1.3 0-1.8.5-.49 1.3-.49 1.8 0 .49.49.49 1.3 0 1.8z"/><path class="st1" d="M22.79 9.28c-2.02-2.02-5.3-2.02-7.32 0s-2.02 5.3 0 7.32c2.02 2.02 5.3 2.02 7.32 0 2.02-2.02 2.02-5.3 0-7.32zm-.19 7.14c-1.92 1.92-5.04 1.92-6.96 0s-1.92-5.04 0-6.96 5.04-1.92 6.96 0 1.92 5.03 0 6.96zM14.04 17.12l-.48-.48c-.05-.05-.13-.05-.18 0l-5.74 5.74c-.05.05-.05.13 0 .18.05.05.13.05.18 0l5.65-5.65.29.3-5.96 5.97c-.05.05-.05.13 0 .18.05.05.13.05.18 0l6.06-6.06c.05-.05.05-.13 0-.18zM14.65 17.73c-.05-.05-.13-.05-.18 0l-1.34 1.34c-.05.05-.05.13 0 .18.05.05.13.05.18 0L14.56 18l.3.3-.87.87c-.05.05-.05.13 0 .18.05.05.13.05.18 0l.96-.96c.05-.05.05-.13 0-.18l-.48-.48z"/></svg>