<svg xmlns="http://www.w3.org/2000/svg" viewBox="0 0 36 36"><title>Icon-Red_Hat-Miscellaneous-Globe_abstract-A-Black</title><path d="M26.31 9.69A11.75 11.75 0 1 0 18 29.75a11.75 11.75 0 0 0 8.3-20.06zm-1.06 1.06a10.22 10.22 0 0 1 2 2.82h-4.74a16.47 16.47 0 0 0-2.8-5.66 10.18 10.18 0 0 1 5.54 2.84zM21.33 20.9h-6.66a15.25 15.25 0 0 1 0-5.83h6.64a15.25 15.25 0 0 1 .02 5.83zm-.39-7.33h-5.88A15 15 0 0 1 18 8.18a15 15 0 0 1 2.94 5.39zm-10.19-2.82a10.18 10.18 0 0 1 5.54-2.84 16.47 16.47 0 0 0-2.8 5.66H8.77a10.22 10.22 0 0 1 1.98-2.82zM8.23 21.09a10.34 10.34 0 0 1 0-6.18v.16h4.93a16.55 16.55 0 0 0 0 5.83H8.23zm2.52 4.16a10.22 10.22 0 0 1-2-2.85h4.74a16.65 16.65 0 0 0 2.8 5.7 10.22 10.22 0 0 1-5.54-2.85zM18 27.82a15.07 15.07 0 0 1-2.95-5.42H21a15.07 15.07 0 0 1-3 5.42zm7.25-2.57a10.22 10.22 0 0 1-5.54 2.85 16.65 16.65 0 0 0 2.8-5.7h4.74a10.22 10.22 0 0 1-2 2.85zm-2.4-4.35a16.55 16.55 0 0 0 0-5.83h4.95V15a10.36 10.36 0 0 1 0 6v-.1z"/></svg>