<svg xmlns="http://www.w3.org/2000/svg" viewBox="0 0 32 32"><path d="M22.02 13.68c-.52 0-.94.42-.94.94s.42.94.94.94.94-.42.94-.94-.42-.94-.94-.94zm0 1.41c-.26 0-.48-.21-.48-.48 0-.26.21-.48.48-.48s.48.21.48.48-.22.48-.48.48zm5.79-.36l-1.72-.41c-.13-.03-.43-.12-.51-.42-.3-1.11-1-2.09-1.82-2.97.14-.34.18-.85.53-1.38.37-.56.99-1.27.25-1.57-.17-.07-.37-.1-.59-.1-.95-.01-2.19.62-2.7 1.12-.98-.54-2.07-.95-3.24-1.21-.24-1.26-1.34-2.23-2.68-2.23-1.31 0-2.4.93-2.66 2.16-4.74.92-8.26 4.4-8.26 8.54 0 .16.01.31.02.47-.01.01-.03.02-.04.03-.28.25-.58.58-.77 1.04-.17.43-.23.88-.18 1.33.08.91.73 1.67 1.33 1.85.2.07.37.1.52.1.28 0 .45-.11.45-.18.02-.15-.31-.28-.55-.59-.26-.29-.4-.75-.3-1.19.01-.08.04-.16.07-.23.42.97 1.08 1.82 1.92 2.54.36 1.61 1.04 2.54 1.04 2.54s.38 2.46 1.18 2.46h2.44c.48 0 .94-.39 1.01-.87 0 0-.39-.86-.43-1.44-.01-.1.02-.22.05-.34.97.18 1.99.28 3.05.28.59 0 1.17-.03 1.73-.09 0 0 .77 2.46 1.57 2.46h2.44c.48 0 .87-.39.87-.87 0 0-.53-.86-.66-1.44-.12-.52.38-1.39.38-1.39 1.58-.77 2.84-1.85 3.61-3.21l1.45.34c.08.02.16.03.23.03.45 0 .86-.31.97-.77l.76-3.18c.11-.54-.22-1.08-.76-1.21zM13.07 8.28c0-.22.03-.43.1-.64.28-.93 1.15-1.61 2.17-1.61 1.04 0 1.92.71 2.18 1.66.05.19.08.39.08.6v.04c0 .16-.02.32-.06.48-.09-.02-.19-.05-.29-.07.04-.15.06-.3.06-.46 0-.23-.04-.44-.1-.63-.26-.78-1-1.35-1.87-1.35-.85 0-1.58.54-1.86 1.3-.07.2-.11.41-.12.64v.03c0 .18.03.36.07.53 0 0-.2.05-.29.07-.05-.18-.08-.37-.08-.57.01-.01.02-.02.01-.02zm3.94-.01c0 .14-.02.28-.05.41-1.16-.2-2.33-.11-3.22.06-.04-.15-.07-.31-.07-.47v-.08c.01-.22.07-.44.16-.63.27-.57.84-.96 1.51-.96.68 0 1.26.41 1.52.99.09.2.14.42.14.64 0 .02.01.03.01.04zm10.94 7.53l-.76 3.18c-.04.18-.2.3-.38.3-.03 0-.06 0-.09-.01l-1.45-.34c-.05-.01-.09-.02-.14-.02-.22 0-.42.12-.53.31-.68 1.21-1.84 2.23-3.34 2.96-.11.05-.2.14-.26.25-.1.18-.6 1.11-.44 1.83.11.49.43 1.1.61 1.42-.04.08-.13.14-.23.14h-2.39c-.26-.16-.74-1.1-1.03-2.03l-.03-.06c.41-.07.81-.14 1.2-.25.12-.03.2-.16.17-.28-.03-.12-.16-.2-.28-.17-.55.14-1.11.25-1.69.32h-.02c-.56.06-1.12.08-1.67.08-.99 0-1.98-.09-2.93-.27h-.03c-1.1-.23-2.15-.58-3.1-1.07-.11-.06-.25-.01-.31.1s-.01.25.1.31c.84.42 1.74.75 2.69.99-.02.03-.04.07-.05.11-.04.13-.09.33-.07.54.03.49.26 1.1.39 1.43-.07.13-.22.23-.36.23H9.16c-.21-.2-.51-1.11-.64-1.94-.02-.1-.05-.19-.11-.27-.01-.01-.61-.84-.93-2.31-.03-.13-.1-.25-.2-.33-.79-.67-1.38-1.45-1.75-2.32-.1-.23-.32-.37-.56-.37-.26 0-.48.16-.57.39-.07.14-.11.25-.12.35-.05.25-.05.51-.01.76-.11-.2-.19-.43-.22-.69-.04-.35.01-.7.14-1.03.12-.29.32-.56.6-.8l.02-.01.02-.02c.15-.13.24-.32.22-.52-.01-.13-.01-.27-.01-.42 0-3.79 3.23-6.99 7.59-7.91.01.22.04.43.09.63-.21.07-.37.14-.46.2-.11.07-.14.21-.07.32.04.07.12.1.19.1.04 0 .09-.01.12-.04.07-.04.2-.1.36-.16.13-.04.27-.09.45-.13.1-.02.19-.05.3-.07.1-.02.21-.04.32-.06.8-.14 1.82-.2 2.84-.05l.32.06c.1.02.2.04.3.07.15.04.3.08.44.13.13.04.25.09.37.14.12.05.25 0 .3-.12.05-.12 0-.25-.12-.3-.14-.06-.27-.11-.41-.16.04-.16.06-.33.07-.51 1.03.24 2.01.61 2.9 1.11.09.05.2.08.3.08.16 0 .31-.06.43-.18.39-.39 1.47-.95 2.27-.95.1 0 .2.01.27.03-.05.16-.2.37-.29.5l-.15.21c-.29.44-.41.86-.49 1.17-.03.12-.06.23-.1.31-.09.22-.05.48.12.66.89.95 1.44 1.84 1.68 2.71.12.43.47.74.96.86l1.72.41c.1.02.19.09.24.18.06.08.08.18.05.29z"/></svg>