<svg xmlns="http://www.w3.org/2000/svg" viewBox="0 0 36 36"><title>Icon-Red_Hat-Objects-Gear_Single-A-Black-RGB</title><path d="M19.19 22.64A4.63 4.63 0 1 0 14.57 18a4.63 4.63 0 0 0 4.62 4.64zm0-7.75A3.13 3.13 0 1 1 16.07 18a3.13 3.13 0 0 1 3.12-3.11z"/><path d="M7.21 21h2.71a10.07 10.07 0 0 0 .58 1.4l-1.91 1.9a.76.76 0 0 0-.08 1 12.63 12.63 0 0 0 3.35 3.33.76.76 0 0 0 1-.09l1.92-1.92a9.56 9.56 0 0 0 1.37.55v2.69a.74.74 0 0 0 .62.74 12.2 12.2 0 0 0 2.28.22 12.77 12.77 0 0 0 2.44-.24.75.75 0 0 0 .61-.74v-2.77a9 9 0 0 0 1.32-.56l1.91 1.91a.76.76 0 0 0 1 .09 12.9 12.9 0 0 0 3.32-3.35.74.74 0 0 0-.09-.95l-1.92-1.92a8.64 8.64 0 0 0 .53-1.3h2.71a.74.74 0 0 0 .73-.61 12.27 12.27 0 0 0 0-4.73.74.74 0 0 0-.73-.61h-2.8a8.53 8.53 0 0 0-.53-1.29l1.92-1.92a.75.75 0 0 0 .09-.95 12.78 12.78 0 0 0-3.32-3.36.76.76 0 0 0-1 .09l-1.87 1.91A9 9 0 0 0 22.05 9V6.24a.73.73 0 0 0-.61-.73 12.27 12.27 0 0 0-4.72 0 .74.74 0 0 0-.62.74v2.66a9.56 9.56 0 0 0-1.37.55l-1.92-1.92a.76.76 0 0 0-1-.09 12.63 12.63 0 0 0-3.35 3.33.76.76 0 0 0 .08 1l1.91 1.9A10.07 10.07 0 0 0 9.92 15H7.21a.74.74 0 0 0-.73.62A12.83 12.83 0 0 0 6.25 18a13 13 0 0 0 .23 2.36.74.74 0 0 0 .73.64zm.64-4.45h2.63a.74.74 0 0 0 .72-.55 8.29 8.29 0 0 1 .88-2.08A.76.76 0 0 0 12 13l-1.85-1.85a11.13 11.13 0 0 1 2.05-2.1l1.86 1.87A.76.76 0 0 0 15 11a8.33 8.33 0 0 1 2-.8.74.74 0 0 0 .56-.72V6.86a10.78 10.78 0 0 1 2.95 0v2.66a.76.76 0 0 0 .55.72 8.17 8.17 0 0 1 2 .85A.74.74 0 0 0 24 11l1.86-1.86A11.13 11.13 0 0 1 28 11.22l-1.9 1.86a.76.76 0 0 0-.1.92 7.85 7.85 0 0 1 .81 2 .76.76 0 0 0 .73.56h2.63a12.54 12.54 0 0 1 .1 1.48 12.38 12.38 0 0 1-.1 1.47h-2.65a.76.76 0 0 0-.73.56A7.71 7.71 0 0 1 26 22a.76.76 0 0 0 .12.91L28 24.82a11.38 11.38 0 0 1-2.07 2.09L24 25.05a.74.74 0 0 0-.91-.11 7.89 7.89 0 0 1-2 .85.76.76 0 0 0-.56.73v2.64a10.79 10.79 0 0 1-2.95 0v-2.6a.74.74 0 0 0-.56-.73A7.63 7.63 0 0 1 15 25a.77.77 0 0 0-.91.12L12.2 27a11.13 11.13 0 0 1-2.09-2.08L12 23.05a.76.76 0 0 0 .12-.92 8 8 0 0 1-.88-2.08.74.74 0 0 0-.72-.56H7.85a10.93 10.93 0 0 1 0-2.95z"/></svg>