<svg xmlns="http://www.w3.org/2000/svg" viewBox="0 0 31.68 31.68"><path d="M22.04 6.67H7.73v2.6h14.31v-2.6zm-.41 2.2H8.14v-1.8h13.49v1.8zM24.36 19.28c-.16-.18-.39-.28-.63-.28-.16 0-.31.04-.45.12-.19-.61-.54-.94-1-.94-.2 0-.4.06-.57.18-.06-.21-.17-.41-.33-.57-.18-.19-.43-.29-.69-.28-.24 0-.47.08-.65.24l-.02-.61h2.01v-2.6h-2.09l-.04-1.3h2.13v-2.6H7.73v2.6H18.1l-.12 1.3H7.73v2.6h10.01l-.12 1.3h-1.63l-.09-.15c-.89-1.47-2.14-.74-2.15-.74-.13.08-.18.23-.12.37l.22.53H7.73v2.6h7.21c.33.82.65 1.6.82 2.01.33.83 1.3 3.36 4.38 3.36.92-.02 1.79-.42 2.41-1.1.45-.46.83-.98 1.13-1.55.44-.81.79-1.67 1.04-2.57v-.04c.03-.21.13-1.33-.36-1.88zm-2.73-4.35v1.8H20l-.03-1.8h1.66zM8.14 12.8V11h13.49v1.8h-1.79c-.09-.46-.53-.76-.99-.67-.34.06-.61.33-.67.67H8.14zm0 3.93v-1.8h9.8l-.16 1.8H8.14zm9.44 2.13l-.05.55c-.04.35-.12.7-.25 1.04-.25-.39-.67-1.02-1.03-1.59h1.33zm-9.44 1.79v-1.8h5.88c.21.5.48 1.15.75 1.8H8.14zm16.11.46c-.07.27-1.33 4.84-4.11 4.84-.68 0-2.77 0-3.94-3.05-.39-1.02-1.74-4.24-2.06-5 .27-.09.86-.17 1.36.65.5.82 1.3 2.06 1.54 2.41-.03.01-.06.02-.09.02-.1 0-.18.08-.18.18 0 .1.08.18.18.18.85 0 1.05-1.87 1.05-1.89l.57-6.27s.06-.59.43-.59.43.54.43.55l.18 5.86c0 .1.08.18.18.18.1 0 .18-.08.18-.18 0 0 .11-1.03.74-1.03.13 0 .26.05.35.14.21.29.31.65.3 1.01 0 .1.08.18.18.18.08 0 .15-.05.18-.13 0-.02.15-.52.57-.52.54 0 .63 1.09.65 1.1.01.1.09.18.19.17.07 0 .13-.05.15-.11.08-.19.26-.32.46-.35.11 0 .21.04.27.12.29.34.28 1.21.24 1.53z"/></svg>