<svg xmlns="http://www.w3.org/2000/svg" width="32" height="32" viewBox="0 0 32 32"><path d="M24.37 8.52H7.63c-.168 0-.305.138-.305.307v14.346c0 .17.138.306.306.306h16.74c.168 0 .305-.138.305-.307V8.828c0-.17-.137-.307-.306-.307zM18.187 18.91v-.086c0-.127-.103-.23-.23-.23h-3.915c-.127 0-.23.103-.23.23v.086H7.938v-1.33h16.124v1.33h-5.874zm2.68.306v2.267h-2.68v-2.266h2.68zm-6.595 3.7V19.05h1.498v3.864h-1.497zm3.455 0H16.23V19.05h1.498v3.864zm-3.915-1.433h-2.606v-2.266h2.606v2.267zm-5.875-2.266H10.9v2.267H7.94v-2.266zm0-5.958h16.124v1.358H7.938v-1.358zm0-2.462h3.06v2.156h-3.06v-2.156zm3.366 2.156v-2.156h2.918v2.156h-2.918zm3.223 0v-2.156h3.218v2.156h-3.218zm3.525 0v-2.156h2.912v2.156h-2.912zm3.115 1.97h2.895v2.35h-2.887v-2.308c0-.014-.004-.028-.008-.04zm2.895-1.97h-2.79v-2.156h2.79v2.156zm-6.113 1.97h2.927c-.004.014-.008.027-.008.042v2.31h-2.913v-2.31c0-.014-.004-.027-.008-.04zm-3.526 0h3.234c-.004.014-.008.027-.008.042v2.31h-3.218v-2.31c0-.014-.004-.027-.008-.04zm-3.225 0h2.933c-.003.014-.008.027-.008.042v2.31h-2.918v-2.31c0-.014-.004-.027-.008-.04zm-3.262 0h2.97c-.003.014-.007.027-.007.042v2.31H7.94v-2.35zm13.237 4.294h2.887v2.267h-2.887v-2.266zM7.938 9.134h16.124v1.353H7.938V9.134zm0 12.653h5.875v1.08H7.938v-1.08zm16.124 1.08h-5.875v-1.08h5.875v1.08zM16.7 21.383c.084 0 .152-.07.152-.153v-.247c0-.085-.07-.153-.153-.153s-.154.07-.154.153v.248c0 .086.07.154.153.154zm-1.43-.555c-.086 0-.154.068-.154.152v.248c0 .085.07.153.153.153.083 0 .152-.07.152-.153v-.248c0-.085-.07-.153-.153-.153z"/></svg>