<svg xmlns="http://www.w3.org/2000/svg" width="32" height="32" viewBox="0 0 32 32"><path d="M7.274 13.466v-.148l-.085.148zm14.73-6.616c-.054-.095-.155-.153-.265-.153H10.564c-.11 0-.21.058-.266.153L4.71 16.527c-.054.095-.054.21 0 .306L10.3 26.51c.054.095.155.153.265.153H21.74c.11 0 .21-.058.265-.153l5.587-9.677c.054-.095.054-.21 0-.306L22.005 6.85zm4.462 10.706v-.637c0-.165-.098-.263-.262-.263s-.262.098-.262.262v.67h-.206v-2.51h-.992c-.16 0-.262.102-.262.26s.103.263.262.263h.468v1.988h-.468c-.16 0-.262.104-.262.263s.103.262.262.262h1.4L24.54 20.89v-1.685h-.99c-.16 0-.262.103-.262.262s.103.262.262.262h.467v1.987h-.467c-.16 0-.262.103-.262.262s.103.26.262.26h.212l-1.56 2.704c-.04-.02-.084-.035-.138-.035-.164 0-.262.097-.262.26v.465l-.12.208h-.085v-2.51h-.992c-.156 0-.262.104-.262.26s.106.263.262.263h.468v1.987h-.468c-.136 0-.23.083-.252.208h-.807c.012-.04.02-.084.02-.13v-2.14c0-.248-.2-.448-.446-.448h-1.09c-.246 0-.446.2-.446.447v2.14c0 .046.008.09.02.13h-.817c.012-.04.02-.084.02-.13v-2.14c0-.248-.2-.448-.446-.448h-1.088c-.247 0-.447.2-.447.447v2.14c0 .046.008.09.02.13h-.818c.012-.04.02-.084.02-.13v-2.14c0-.248-.2-.448-.446-.448h-1.088c-.247 0-.447.2-.447.447v2.14c0 .046.008.09.02.13h-.818c.012-.04.02-.084.02-.13v-2.14c0-.248-.2-.448-.446-.448H9.753c-.19 0-.35.118-.415.283l-.855-1.48c.096-.082.158-.202.158-.34v-2.14c0-.248-.2-.448-.447-.448h-1.09c-.097 0-.187.033-.26.086l-.68-1.176H6.7c.252 0 .448-.197.448-.447v-2.14c0-.248-.2-.448-.447-.448h-.443l.63-1.09h1.38c.158 0 .26-.103.26-.262v-.934c0-.164-.097-.262-.26-.262s-.263.098-.263.262v.67h-.206v-1.054l1.582-2.74c.08.117.214.194.37.194h1.09c.25 0 .447-.197.447-.447V7.31h1.507v2.03h-.468c-.157 0-.262.105-.262.262 0 .16.103.262.262.262h1.46c.16 0 .262-.103.262-.262V8.67c0-.163-.098-.26-.262-.26s-.262.097-.262.26v.672h-.206v-2.03h2.237v2.03h-.468c-.157 0-.262.105-.262.262 0 .16.103.262.262.262h1.46c.158 0 .26-.103.26-.262V8.67c0-.163-.097-.26-.26-.26s-.263.097-.263.26v.672h-.206v-2.03h1.506V9.42c0 .25.197.446.447.446h1.088c.25 0 .447-.197.447-.447V7.31h.776V9.42c0 .25.198.446.448.446h1.09c.25 0 .446-.197.446-.447v-.785l1.34 2.32h-.116c-.247 0-.447.2-.447.448v2.14c0 .252.198.448.448.448h1.09c.25 0 .446-.196.446-.446l.002-.13 1.886 3.268-.506.877zM9.828 23.854h.936v1.987h-.142l-.794-1.375v-.61zm2.76 1.988v-1.987h.936v1.987h-.936zm2.76 0v-1.987h.935v1.987h-.935zm2.76 0v-1.987h.935v1.987h-.936zM7.273 13.466h-.086l.086-.148v.148zm-1.32 2.137h.67v1.988H5.86l-.172-.295v-1.232l.266-.46zM7.18 19.73h.935v1.77l-.936-1.622v-.15zM21.802 9.34h-.936V7.353h.72l.215.373V9.34zm-3.696-1.988h.936V9.34h-.936V7.35zm-7.343 0V9.34h-.936v-.447l.89-1.54h.046zm13.8 5.154v.96h-.937v-1.988h.342l.593 1.028zM9.75 13.99h1.09c.25 0 .447-.198.447-.448v-2.14c0-.248-.2-.448-.447-.448H9.75c-.246 0-.446.2-.446.447v2.142c0 .25.196.447.447.447zm.078-.524V11.48h.936v1.986h-.936zm2.683.523h1.09c.25 0 .447-.198.447-.448v-2.14c0-.248-.2-.448-.447-.448h-1.09c-.246 0-.446.2-.446.447v2.142c0 .25.196.447.447.447zm.078-.524V11.48h.936v1.986h-.936zm2.683.523h1.09c.25 0 .447-.198.447-.448v-2.14c0-.248-.2-.448-.447-.448h-1.09c-.246 0-.446.2-.446.447v2.142c0 .25.196.447.447.447zm.078-.524V11.48h.935v1.986h-.935zm2.497 0c-.156 0-.262.105-.262.262 0 .16.103.262.262.262h1.46c.16 0 .262-.103.262-.262v-.934c0-.164-.098-.262-.262-.262s-.262.098-.262.262v.67h-.206v-2.51h-.992c-.156 0-.262.105-.262.262s.106.262.262.262h.468v1.987h-.468zm2.76 0c-.156 0-.262.105-.262.262 0 .16.103.262.262.262h1.46c.16 0 .262-.103.262-.262v-.934c0-.164-.098-.262-.262-.262s-.262.098-.262.262v.67h-.206v-2.51h-.992c-.156 0-.262.105-.262.262s.106.262.262.262h.468v1.987h-.468zM9.908 17.668v-2.14c0-.248-.2-.448-.447-.448H8.373c-.247 0-.447.2-.447.447v2.14c0 .25.197.448.447.448h1.09c.25 0 .446-.196.446-.447zm-.524-2.065v1.988h-.936v-1.987h.936zm3.284 2.065v-2.14c0-.248-.2-.448-.447-.448h-1.088c-.247 0-.447.2-.447.447v2.14c0 .25.197.448.447.448h1.09c.25 0 .446-.196.446-.447zm-.524-2.065v1.988h-.936v-1.987h.936zm3.283 2.25v-.933c0-.164-.098-.262-.262-.262s-.262.098-.262.262v.672h-.206V15.08h-.992c-.16 0-.262.103-.262.262s.103.262.262.262h.468v1.988h-.468c-.16 0-.262.103-.262.262s.103.262.262.262h1.46c.16 0 .262-.103.262-.262zm2.76-.185v-2.14c0-.248-.2-.448-.447-.448h-1.09c-.246 0-.446.2-.446.447v2.14c0 .25.197.448.447.448h1.09c.25 0 .447-.196.447-.447zm-.524-2.065v1.988h-.936v-1.987h.936zm3.284 2.25v-.933c0-.164-.098-.262-.262-.262s-.262.098-.262.262v.672h-.206V15.08h-.992c-.16 0-.262.103-.262.262s.103.262.262.262h.468v1.988h-.468c-.16 0-.262.103-.262.262s.103.262.262.262h1.46c.16 0 .262-.103.262-.262zm2.497-1.195c-.164 0-.262.098-.262.262v.672h-.206V15.08h-.992c-.16 0-.262.103-.262.262s.103.262.262.262h.468v1.988h-.468c-.16 0-.262.103-.262.262s.103.262.262.262h1.46c.16 0 .262-.103.262-.262v-.933c0-.163-.098-.26-.262-.26zm-12.307 4.125c-.164 0-.262.098-.262.262v.672h-.206v-2.512h-.992c-.16 0-.262.103-.262.262s.103.262.262.262h.467v1.987h-.467c-.16 0-.262.103-.262.262s.103.26.262.26h1.46c.16 0 .262-.102.262-.26v-.934c0-.164-.098-.262-.262-.262zm2.574-1.578h-1.088c-.247 0-.447.2-.447.447v2.14c0 .25.197.448.447.448h1.09c.25 0 .446-.197.446-.447v-2.14c0-.247-.2-.448-.447-.448zm-.076.524v1.987h-.936V19.73h.936zm2.836-.525h-1.09c-.246 0-.446.2-.446.447v2.14c0 .25.197.448.447.448h1.09c.25 0 .447-.197.447-.447v-2.14c0-.247-.2-.448-.447-.448zm-.076.524v1.987h-.935V19.73h.934zm2.836-.525h-1.09c-.246 0-.446.2-.446.447v2.14c0 .25.197.448.447.448h1.09c.25 0 .447-.197.447-.447v-2.14c0-.247-.2-.448-.447-.448zm-.076.524v1.987h-.936V19.73h.936zm3.096 1.053c-.164 0-.262.098-.262.262v.672h-.206v-2.512h-.99c-.16 0-.263.103-.263.262s.102.262.26.262h.468v1.987h-.467c-.158 0-.26.103-.26.262s.102.26.26.26h1.46c.16 0 .263-.102.263-.26v-.934c0-.164-.098-.262-.262-.262z"/></svg>