<svg xmlns="http://www.w3.org/2000/svg" viewBox="0 0 32 32"><path d="M12.28 5.05H6.3c-.15 0-.3.12-.31.28L5.65 12c0 1.49.91 2.82 2.27 3.38v11.81c0 .08.03.15.08.2.25.27.74.58 1.33.58.42 0 .89-.16 1.37-.6l-.01-.01c.07-.06.11-.14.11-.23V15.32c1.29-.59 2.14-1.89 2.14-3.34l-.34-6.65c-.01-.16-.17-.29-.32-.28zm-1.89 9.79c-.28.11-.58.17-.88.2-.17.01-.29.16-.28.32.01.16.14.28.3.28h.02c.22-.02.43-.06.64-.11v11.46c-.79.67-1.45.25-1.67.06V15.16c0-.13-.09-.24-.21-.28-1.23-.42-2.06-1.58-2.06-2.87l.34-6.51h1.43v6.27c0 .17.14.3.3.3s.3-.14.3-.3V5.5h1.36v6.31c0 .17.14.3.3.3.17 0 .3-.14.3-.3V5.5H12l.34 6.5c0 1.25-.78 2.39-1.95 2.84zM22.6 5.05c-2.07 0-3.75 2.38-3.75 5.3 0 2.15.92 4.08 2.31 4.89v11.95c0 .08.03.16.09.21l-.01.01c.02.02.52.55 1.27.58h.06c.47 0 .93-.2 1.35-.6l-.01-.01c.08-.05.13-.14.13-.24v-11.9c1.37-.8 2.31-2.7 2.31-4.9 0-2.92-1.68-5.29-3.75-5.29zm.31 9.97c-.17.02-.28.18-.25.34.02.15.15.26.3.26H23c.15-.02.3-.06.44-.11v11.48c-.79.69-1.45.26-1.67.07v-11.9c0-.02-.01-.03-.01-.05.02-.13-.04-.26-.16-.32-1.28-.65-2.14-2.44-2.14-4.45 0-2.59 1.41-4.69 3.15-4.69s3.15 2.11 3.15 4.69c-.01 2.39-1.26 4.44-2.85 4.68zm-6.37-9.73c-.02-.12-.12-.22-.24-.24-.52-.09-.93 0-1.23.28-.49.45-.44 1.21-.44 1.22v20.64c0 .08.03.15.08.2l-.01.01c.26.27.75.58 1.35.58.43 0 .91-.16 1.39-.6.07-.06.12-.14.12-.23v-11.8c.21-.09.38-.22.51-.38.35-.47.21-1.05.2-1.05l-1.73-8.63zm1.03 9.3c-.18.24-.56.29-.85.3-.17 0-.3.14-.3.31 0 .17.13.3.31.3.07 0 .14-.01.2-.02v11.5c-.81.67-1.48.26-1.72.07V6.53c-.01-.13.02-.54.25-.75.12-.11.29-.16.52-.15l1.69 8.42c0-.01.08.31-.1.54zm2.65-6.36c-.03.06-.77 1.55-.17 3.81l.3-.08c-.57-2.13.13-3.57.14-3.59.01-.01-.27-.14-.27-.14z"/></svg>