<svg xmlns="http://www.w3.org/2000/svg" viewBox="0 0 36 36"><title>Icon-Red_Hat-Nature-Bird-A-Black-RGB</title><path d="M25.83 14.94a.74.74 0 0 0-.22.52.72.72 0 0 0 .06.29.78.78 0 0 0 .16.24.73.73 0 0 0 .82.17.66.66 0 0 0 .24-.17.81.81 0 0 0 .17-.24.93.93 0 0 0 .05-.29.73.73 0 0 0-.22-.52.81.81 0 0 0-.24-.17.78.78 0 0 0-.82.17z"/><path d="M29.79 14.77a6.44 6.44 0 0 0-1.27-1.84 6.34 6.34 0 0 0-8.37-.51l-4.6-4.92a.75.75 0 0 0-1.06 0 .75.75 0 0 0 0 1.06l4.6 4.92-.48.48-8.48-8.47a.75.75 0 0 0-1.06 0 9.62 9.62 0 0 0 2.51 15.43l-2.69 2.69L5 27.54a.75.75 0 0 0 0 1.06 6.28 6.28 0 0 0 8.55.27 12.08 12.08 0 0 0 2.74.33 11.88 11.88 0 0 0 8.23-3.29l.09-.08 3.95-3.95a6.3 6.3 0 0 0 1.74-3.27.22.22 0 0 1 0-.08v-.06V18.24l-.06-.13-.15-.11-.1-.1-.12-.07a.35.35 0 0 0-.14-.06.15.15 0 0 0-.07 0h-1.49a.75.75 0 0 0 0 1.5h.34a4.83 4.83 0 0 1-1.05 1.6l-3.88 3.83-.07.06a10.45 10.45 0 0 1-14.07.42L13 21.67h.12a.8.8 0 0 0 .33-.08 9.76 9.76 0 0 0 2.48.34 11.09 11.09 0 0 0 1.07-.05.75.75 0 1 0-.17-1.49 8.06 8.06 0 0 1-3.6-.39 7 7 0 0 1 .12-9.18l4.65 4.7 3.61 3.6a.75.75 0 0 0 1.06-1.06L19.64 15l1-1a4.82 4.82 0 0 1 7.94 1.74.16.16 0 0 0 0 .07.56.56 0 0 0 .1.15l.07.07a.67.67 0 0 0 .14.09h.08a.69.69 0 0 0 .24.05 1.12 1.12 0 0 1 1.13 1.13.75.75 0 0 0 1.5 0 2.63 2.63 0 0 0-2.05-2.53zM11.71 28.31A4.78 4.78 0 0 1 6.6 28l1.79-1.79a11.85 11.85 0 0 0 3.32 2.1zm-1.09-9.82l-.49-.43a8.16 8.16 0 0 1-.5-11l2.66 2.66a8.46 8.46 0 0 0-1.67 8.77z"/></svg>