<svg xmlns="http://www.w3.org/2000/svg" viewBox="0 0 32 32"><path d="M18.19 15.55h-4.34v-4.34h3.99l-1.83 2.6-.77-1.37c-.06-.11-.2-.15-.31-.09-.11.06-.15.2-.09.31l.95 1.69c.04.07.11.11.19.12h.01c.08 0 .15-.04.19-.1l2.01-2.85v4.03zm.98-5.82c-.1-.07-.25-.05-.32.06l-.57.81h-4.73c-.17 0-.31.14-.31.31v4.95c0 .17.14.31.31.31h4.95c.17 0 .31-.14.31-.31V10.9c0-.07-.03-.12-.06-.17l.48-.68c.06-.1.04-.25-.06-.32zm-2.82 11.01l1.85-1.85v3.69c-.01 0-1.85-1.84-1.85-1.84zm-.33.32l1.85 1.85h-3.69l1.84-1.85zm-1.84-2.5h3.69l-1.85 1.85-1.84-1.85zm1.52 2.18l-1.85 1.85V18.9c0-.01 1.85 1.84 1.85 1.84zm2.8-2.79h-4.95c-.17 0-.31.14-.31.31v4.96c0 .17.14.31.31.31h4.95c.17 0 .31-.14.31-.31v-4.96c0-.17-.14-.31-.31-.31zm4.69-13.86H8.81c-.81 0-1.47.66-1.47 1.47v20.88c0 .81.66 1.47 1.47 1.47h14.38c.81 0 1.47-.66 1.47-1.47V5.56c0-.81-.66-1.47-1.47-1.47zm.86 22.35c0 .47-.39.86-.86.86H8.81c-.47 0-.86-.39-.86-.86V5.56c0-.47.38-.86.86-.86h14.38c.47 0 .86.39.86.86v20.88zM22.27 6.83H20V5.78c0-.31-.25-.57-.57-.57h-6.86c-.32 0-.57.25-.57.57v1.05H9.73c-.49 0-.89.37-.89.83v17.83c0 .46.4.83.89.83h12.53c.49 0 .89-.37.89-.83V7.66c.01-.46-.39-.83-.88-.83zm-9.81 0V5.78c0-.06.05-.11.11-.11h6.86c.06 0 .11.05.11.11V7.5c0 .06-.05.11-.11.11h-6.86c-.06 0-.11-.05-.11-.11v-.67zm10.23 18.66c0 .2-.19.37-.43.37H9.73c-.24 0-.43-.17-.43-.37V7.66c0-.2.19-.37.43-.37H12v.21c0 .31.25.57.57.57h6.86c.32 0 .57-.26.57-.57v-.21h2.27c.24 0 .43.16.43.37v17.83z"/></svg>