<svg id="Layer_1" xmlns="http://www.w3.org/2000/svg" viewBox="0 0 31.68 31.68"><style>.st0{fill:#010101;}</style><path class="st0" d="M24.09 11h1.33c.12 0 .21-.09.21-.21s-.09-.21-.21-.21h-1.33c-.04 0-.07.01-.1.03V8.96c.03.02.06.03.1.03h1.33c.12 0 .21-.09.21-.21s-.09-.21-.21-.21h-1.33c-.04 0-.07.01-.1.03v-.69c0-.15-.12-.28-.28-.28h-.6V6.26c0-.12-.09-.21-.21-.21s-.21.09-.21.21v1.37h-1.61V6.26c0-.12-.09-.21-.21-.21s-.21.09-.21.21v1.37h-1.61V6.26c0-.12-.09-.21-.21-.21s-.21.09-.21.21v1.37h-1.61V6.26c0-.12-.09-.21-.21-.21s-.21.09-.21.21v1.37h-1.61V6.26c0-.12-.09-.21-.21-.21s-.21.09-.21.21v1.37h-1.61V6.26c0-.12-.09-.21-.21-.21s-.21.09-.21.21v1.37H11V6.26c0-.12-.09-.21-.21-.21s-.21.09-.21.21v1.37h-1.6V6.26c0-.12-.09-.21-.21-.21s-.21.09-.21.21v1.37h-.7c-.15 0-.28.12-.28.28v.65H6.25c-.12 0-.21.09-.21.21s.09.21.21.21h1.33v1.6H6.25c-.12 0-.21.09-.21.21s.09.21.21.21h1.33v1.6H6.25c-.12 0-.21.09-.21.21s.09.21.21.21h1.33v1.6H6.25c-.12 0-.21.09-.21.21s.09.21.21.21h1.33v1.6H6.25c-.12 0-.21.09-.21.21s.09.21.21.21h1.33v1.6H6.25c-.12 0-.21.09-.21.21s.09.21.21.21h1.33v1.6H6.25c-.12 0-.21.09-.21.21s.09.21.21.21h1.33v1.6H6.25c-.12 0-.21.09-.21.21s.09.21.21.21h1.33v.63c0 .15.12.28.28.28h.7c-.01.02-.01.04-.01.06v1.33c0 .12.09.21.21.21s.21-.09.21-.21v-1.33c0-.02 0-.04-.01-.06h1.62c-.01.02-.01.04-.01.06v1.33c0 .12.09.21.21.21s.21-.09.21-.21v-1.33c0-.02 0-.04-.01-.06h1.62c-.01.02-.01.04-.01.06v1.33c0 .12.09.21.21.21s.21-.09.21-.21v-1.33c0-.02 0-.04-.01-.06h1.62c-.01.02-.01.04-.01.06v1.33c0 .12.09.21.21.21s.21-.09.21-.21v-1.33c0-.02 0-.04-.01-.06h1.62c-.01.02-.01.04-.01.06v1.33c0 .12.09.21.21.21s.21-.09.21-.21v-1.33c0-.02 0-.04-.01-.06h1.62c-.01.02-.01.04-.01.06v1.33c0 .12.09.21.21.21s.21-.09.21-.21v-1.33c0-.02 0-.04-.01-.06h1.62c-.01.02-.01.04-.01.06v1.33c0 .12.09.21.21.21s.21-.09.21-.21v-1.33c0-.02 0-.04-.01-.06h1.62c-.01.02-.01.04-.01.06v1.33c0 .12.09.21.21.21s.21-.09.21-.21v-1.33c0-.02 0-.04-.01-.06h.6c.15 0 .28-.12.28-.28v-.66c.03.02.06.03.1.03h1.33c.12 0 .21-.09.21-.21 0-.11-.09-.21-.21-.21h-1.33c-.04 0-.07.01-.1.03v-1.65c.03.02.06.03.1.03h1.33c.12 0 .21-.09.21-.21s-.09-.21-.21-.21h-1.33c-.04 0-.07.01-.1.03v-1.65c.03.02.06.03.1.03h1.33c.12 0 .21-.09.21-.21s-.09-.21-.21-.21h-1.33c-.04 0-.07.01-.1.03v-1.65c.03.02.06.03.1.03h1.33c.12 0 .21-.09.21-.21s-.09-.21-.21-.21h-1.33c-.04 0-.07.01-.1.03v-1.65c.03.02.06.03.1.03h1.33c.12 0 .21-.09.21-.21s-.09-.21-.21-.21h-1.33c-.04 0-.07.01-.1.03V13c.03.02.06.03.1.03h1.33c.12 0 .21-.09.21-.21s-.09-.21-.21-.21h-1.33c-.04 0-.07.01-.1.03v-1.65c.03 0 .07.01.11.01zm-.66 12.47H8.15V8.19h15.28v15.28z"/><path class="st0" d="M13.84 16.53c-.08 0-.14.06-.14.14v3.57h-1.04c-.08 0-.14.06-.14.14 0 .08.06.14.14.14h1.17c.08 0 .14-.06.14-.14v-3.71c.01-.08-.05-.14-.13-.14z"/><path class="st0" d="M9.92 21.61h4.95c.12 0 .21-.09.21-.21V10.59c0-.12-.09-.21-.21-.21H9.92c-.12 0-.21.09-.21.21V21.4c0 .11.09.21.21.21zm.21-10.81h4.53v10.39h-4.53V10.8zM19.01 11.49h-1.17c-.08 0-.14.06-.14.14v1.88c0 .08.06.14.14.14.08 0 .14-.06.14-.14v-1.74h1.04c.08 0 .14-.06.14-.14-.01-.07-.08-.14-.15-.14zM20.74 16.53c-.08 0-.14.06-.14.14v3.57h-1.03c-.08 0-.14.06-.14.14 0 .08.06.14.14.14h1.17c.08 0 .14-.06.14-.14v-3.71c0-.08-.06-.14-.14-.14z"/><path class="st0" d="M16.81 21.61h4.94c.12 0 .21-.09.21-.21V10.59c0-.12-.09-.21-.21-.21h-4.94c-.12 0-.21.09-.21.21V21.4c0 .11.1.21.21.21zm.21-10.81h4.53v10.39h-4.53V10.8z"/></svg>