<svg xmlns="http://www.w3.org/2000/svg" viewBox="0 0 32 32"><path d="M21.82 6.23c0-1.32-1.08-2.4-2.4-2.4s-2.4 1.08-2.4 2.4 1.08 2.4 2.4 2.4 2.4-1.07 2.4-2.4zm-4.19 0c0-.99.8-1.79 1.79-1.79s1.79.8 1.79 1.79-.8 1.79-1.79 1.79-1.79-.8-1.79-1.79zm-2.26 8.38v-1.7c0-1.94 1.27-3.1 3.39-3.1h1.32c2.12 0 3.39 1.16 3.39 3.1v1.7c0 .18-.02.35-.06.51h.63c.03-.16.04-.33.04-.51v-1.7c0-1.8-1.05-3.71-4-3.71h-1.32c-2.95 0-4 1.92-4 3.71v1.7c0 .18.02.35.05.51h.63c-.04-.16-.07-.32-.07-.51zm11.07.51h-3.97l.07-2.64c0-.13-.1-.23-.22-.24-.12 0-.23.1-.24.22l-.07 2.66h-5.14l-.12-2.66c-.01-.13-.11-.23-.24-.22-.13.01-.23.11-.22.24l.12 2.64H5c-.17 0-.31.14-.31.31v1.29c0 .17.14.31.31.31h1.53v8.78c0 .17.14.31.31.31h19.61c.17 0 .31-.14.31-.31V15.43c-.01-.18-.15-.32-.32-.31zM7.14 25.5v-8.48h19v8.48h-19zm-1.83-9.77h20.83v.68H5.31v-.68z"/></svg>