<svg xmlns="http://www.w3.org/2000/svg" width="32" height="32" viewBox="0 0 32 32"><path d="M24.37 8.77H7.62c-.685 0-1.24.557-1.24 1.24v10.407c0 .684.555 1.24 1.24 1.24h5.442v1.035H11.39c-.17 0-.307.137-.307.306s.137.306.306.306h9.21c.17 0 .305-.137.305-.306s-.137-.306-.306-.306h-1.674v-1.034h5.443c.683 0 1.24-.557 1.24-1.24V10.01c0-.683-.557-1.24-1.242-1.24zM13.674 22.692v-.922h4.638v.922h-4.638zm11.322-2.245c0 .346-.28.627-.627.627H7.62c-.346 0-.627-.28-.627-.627V10.01c0-.346.28-.628.627-.628h16.75c.346 0 .627.282.627.628v10.436zm-16.553.04h15.104c.422 0 .765-.368.765-.82v-8.756c0-.45-.343-.817-.765-.817H8.444c-.422 0-.765.367-.765.818v8.758c0 .45.343.818.764.818zm-.306-9.576c0-.197.137-.358.306-.358h15.104c.17 0 .305.16.305.36v8.756c0 .198-.137.36-.305.36H8.444c-.168 0-.306-.162-.306-.36V10.91zM15.003 18h-4.825c-.57 0-1.036-.465-1.036-1.036v-2.995c0-.57.465-1.036 1.036-1.036h4.825c.57 0 1.036.466 1.036 1.037v2.995c0 .57-.466 1.036-1.037 1.036zm-4.825-4.76c-.402 0-.73.327-.73.73v2.995c0 .402.327.73.73.73h4.825c.402 0 .73-.328.73-.73v-2.995c0-.402-.327-.73-.73-.73h-4.825zm12.627.947h-5.782c-.085 0-.153-.07-.153-.153s.07-.153.153-.153h5.782c.085 0 .153.068.153.152s-.068.153-.153.153zm0 1.433h-5.782c-.085 0-.153-.07-.153-.153s.07-.153.153-.153h5.782c.085 0 .153.07.153.153s-.068.153-.153.153zm0 1.433h-5.782c-.085 0-.153-.068-.153-.152s.07-.153.153-.153h5.782c.085 0 .153.07.153.153s-.068.153-.153.153zm-10.214-.016c-.892 0-1.618-.726-1.618-1.62 0-.892.726-1.618 1.62-1.618s1.618.726 1.618 1.62c0 .892-.726 1.618-1.62 1.618zm0-2.93c-.723 0-1.312.588-1.312 1.312 0 .723.59 1.312 1.313 1.312s1.314-.59 1.314-1.312c0-.724-.59-1.313-1.313-1.313zm-.452 2.09c-.028 0-.055-.006-.08-.02-.045-.03-.073-.078-.073-.132V14.79c0-.054.028-.104.073-.13.045-.03.102-.03.15-.007l1.23.62c.05.027.084.08.084.137 0 .058-.032.11-.083.137l-1.232.632c-.022.01-.046.016-.07.016zm.153-1.156v.753l.74-.38-.74-.373z"/></svg>