<svg xmlns="http://www.w3.org/2000/svg" viewBox="0 0 36 36"><path d="M15.75 11.37V7c0-.414-.337-.75-.75-.75s-.75.336-.75.75v4.37c-1.153.328-2.002 1.377-2.002 2.634 0 1.52 1.232 2.75 2.75 2.75s2.752-1.23 2.752-2.75c0-1.257-.848-2.306-2-2.634zM15 15.253c-.69 0-1.25-.56-1.25-1.25s.56-1.248 1.25-1.248 1.248.56 1.248 1.25-.56 1.248-1.25 1.248zM30.53 7.53c.277-.307.255-.78-.052-1.06-.287-.26-.724-.26-1.01.002l-8 8c-.14.14-.22.33-.22.53v3.364c-1.15.33-2 1.377-2 2.634 0 1.52 1.233 2.75 2.752 2.75s2.75-1.23 2.75-2.75c0-1.258-.848-2.307-2-2.634V15.31l7.78-7.78zM23.25 21c0 .69-.56 1.25-1.25 1.25s-1.248-.56-1.248-1.25.56-1.25 1.25-1.25 1.247.56 1.247 1.25zM28 25.25c-1.256 0-2.305.848-2.633 2H19.31L8.75 16.69v-6.056c1.152-.328 2-1.377 2-2.634 0-1.52-1.232-2.75-2.75-2.75S5.25 6.48 5.25 8c0 1.257.848 2.306 2 2.634V17c0 .2.08.39.22.53l11 11c.14.14.33.22.53.22h6.367c.328 1.152 1.377 2 2.634 2 1.52 0 2.752-1.23 2.752-2.75s-1.232-2.75-2.75-2.75zM6.75 8c0-.69.56-1.25 1.25-1.25S9.248 7.31 9.248 8s-.56 1.25-1.25 1.25S6.752 8.69 6.752 8zM28 29.25c-.69 0-1.248-.56-1.248-1.25s.56-1.25 1.25-1.25 1.247.56 1.247 1.25-.56 1.25-1.25 1.25zm-19-5c-1.52 0-2.752 1.23-2.752 2.75s1.232 2.75 2.75 2.75S11.75 28.52 11.75 27 10.518 24.25 9 24.25zm0 4c-.69 0-1.25-.56-1.25-1.25s.56-1.25 1.25-1.25 1.248.56 1.248 1.25-.56 1.25-1.25 1.25z"/></svg>