<svg xmlns="http://www.w3.org/2000/svg" width="32" height="32" viewBox="0 0 32 32"><path d="M24.53 27.03l-.395-2.29-.072-10.97c-.003-.084-.047-.16-.118-.205l-2.082-1.314c-.04-.025-.087-.038-.134-.038h-.717V8.314c0-.032-.067-3.195-2.96-3.617-.04-.005-1.003-.115-1.618 0-.282.042-.53.116-.762.205-.306-.004-.635.01-.906.06-3.325.482-3.402 4.11-3.402 4.15v3.1h-.885c-.043 0-.086.012-.124.034L8.03 13.56c-.08.044-.13.127-.13.218L7.865 24.75l-.395 2.292c-.02.075 0 .155.046.216.048.06.12.097.2.097h16.57c.08 0 .155-.038.203-.1.047-.064.062-.147.04-.223zm-2.72-14.215l1.65 1.042-.165.085-.445-.227c-.048-.025-.106-.025-.154 0l-.445.227-.44-.225v-.9zm-.507-.097v1.157l-.13.066-.445-.226c-.048-.025-.106-.025-.154 0l-.445.227-.103-.05c.013-.034.02-.07.02-.107v-1.066h1.255zm-3.33-7.436c2.383.347 2.447 2.93 2.448 3.035v3.895h-.372V9.11c0-.033-.06-2.85-2.352-3.852.166.012.277.025.278.025zm-2.203.212c.428.01.79.05.792.05 2.82.41 2.895 3.442 2.897 3.567v3.102h-5.39V8.32c.002-.097.047-2.108 1.7-2.826zm-3.817 3.62c0-.008.013-.8.382-1.644.446-1.02 1.204-1.643 2.255-1.872-1.07 1.078-1.11 2.694-1.11 2.72v3.894h-1.527V9.114zm0 4.7V12.72h7.506v1.033l-.375.19-.444-.226c-.047-.025-.105-.025-.152 0l-.445.227-.445-.226c-.048-.025-.106-.025-.154 0L17 13.94l-.446-.226c-.05-.025-.106-.025-.154 0l-.445.227-.445-.226c-.048-.025-.105-.025-.153 0l-.445.227-.445-.226c-.048-.025-.106-.025-.153 0l-.445.227-.446-.226c-.048-.025-.105-.025-.153 0l-.444.227-.445-.226c-.047-.025-.104-.025-.153 0l-.278.142c0-.014.005-.027.005-.04zm-1.22-1.096h.63v1.012l-.03-.016c-.048-.025-.105-.025-.154 0l-.446.227h-.002v-1.222zm-.507.18v.8c-.03-.002-.062.002-.09.016l-.445.227-.444-.226c-.048-.025-.105-.025-.153 0l-.445.227-.14-.07 1.72-.973zm-2.19 13.95l.327-2.007c.005-.018.007-.04.007-.058l.035-10.586.166.085c.05.026.106.026.155 0l.445-.226.445.227c.048.026.105.026.153 0l.445-.226.445.227c.048.026.105.026.153 0l.446-.226.446.227c.048.026.105.026.153 0l.445-.226.445.227c.048.026.105.026.153 0l.445-.226.445.227c.048.026.105.026.153 0l.446-.226.445.227c.05.026.107.026.155 0l.445-.226.445.227c.048.026.105.026.153 0l.445-.226.445.227c.048.026.106.026.153 0l.446-.226.446.227c.048.026.106.026.153 0l.445-.226.444.227c.048.026.106.026.154 0l.446-.226.445.227c.046.026.104.026.152 0l.445-.226.446.227c.03.016.06.02.093.015.032.003.064 0 .093-.014l.444-.226.445.227c.047.026.104.026.152 0l.446-.226.445.227c.024.013.05.02.077.02s.053-.006.077-.02l.2-.102.06 10.612c0 .02.003.04.01.06l.307 2H8.036zm14.192-2.236H13.11c-.092 0-.168.075-.168.17s.075.168.17.168h9.116c.093 0 .17-.075.17-.17s-.077-.167-.17-.167zm-9.917 0h-1.47c-.094 0-.17.075-.17.17s.077.168.17.168h1.47c.095 0 .17-.075.17-.17s-.075-.168-.17-.168z"/></svg>