<svg xmlns="http://www.w3.org/2000/svg" viewBox="0 0 36 36"><title>Icon-Red_Hat-Graph_Exponential_Down-A-Black-RGB</title><path d="M11.25 10v4.34a.75.75 0 0 0 1.5 0V10a.75.75 0 0 0-1.5 0zM17.25 10v7.58a.75.75 0 0 0 1.5 0V10a.75.75 0 0 0-1.5 0zM23.25 10v9a.75.75 0 0 0 1.5 0v-9a.75.75 0 0 0-1.5 0zM29 25.25a.76.76 0 0 0-.75.75v2.25H7.75v-9.81a.75.75 0 0 0-1.5 0V29a.76.76 0 0 0 .75.75h22a.76.76 0 0 0 .75-.75v-3a.76.76 0 0 0-.75-.75z"/><path d="M7 10a.75.75 0 0 0 .75-.75v-1.5h20.5V20a.75.75 0 0 0 1.5 0V7a.76.76 0 0 0-.75-.75H7a.76.76 0 0 0-.75.75v2.2A.75.75 0 0 0 7 10zM31 22.25c-11.07 0-17.36-3.13-20.69-5.76a14.2 14.2 0 0 1-4.6-5.73.75.75 0 1 0-1.42.48c.17.51 4.43 12.51 26.71 12.51a.75.75 0 0 0 0-1.5z"/></svg>