<svg data-name="Layer 1" xmlns="http://www.w3.org/2000/svg" viewBox="0 0 36 36"><title>Icon-Red_Hat-Star-A-Black-RGB</title><path d="M31.79 14.86a.75.75 0 0 0-.6-.51L22.6 13.1l-3.84-7.78a.78.78 0 0 0-1.34 0l-3.85 7.78L5 14.35a.75.75 0 0 0-.42 1.28l6.22 6-1.48 8.61a.75.75 0 0 0 1.09.79l7.68-4 7.68 4a.85.85 0 0 0 .35.08.72.72 0 0 0 .44-.14.77.77 0 0 0 .3-.73l-1.47-8.56 6.21-6a.74.74 0 0 0 .19-.82zm-7.73 6a.74.74 0 0 0-.22.66L25.12 29l-6.68-3.51a.73.73 0 0 0-.7 0L11.05 29l1.28-7.44a.76.76 0 0 0-.21-.66l-5.41-5.29 7.47-1.08a.78.78 0 0 0 .57-.41l3.34-6.77 3.34 6.77a.76.76 0 0 0 .56.41l7.48 1.08z"/></svg>