<svg xmlns="http://www.w3.org/2000/svg" viewBox="0 0 32 32"><path d="M13.31 15.28c.9.08 1.84.11 2.81.11 2.67 0 5.17-.3 6.7-.81.12-.04.19-.17.15-.29-.04-.12-.17-.19-.29-.15-1.49.49-3.94.79-6.56.79-.95 0-1.88-.04-2.77-.11-.13-.01-.24.08-.25.21-.01.12.08.23.21.25zm-4.19-.89c.59.23 1.37.43 2.31.58h.02c.07 0 .14-.05.15-.13.01-.08-.04-.16-.13-.18-.91-.15-1.69-.34-2.25-.56-.08-.03-.17.01-.2.09-.02.08.02.17.1.2zm-.01-6.56c.59.23 1.37.43 2.31.58h.02c.07 0 .14-.05.15-.13.01-.08-.04-.16-.13-.18-.91-.15-1.69-.34-2.25-.56-.08-.03-.17.01-.2.09-.01.08.03.17.1.2zm4.19.88c.9.08 1.85.11 2.81.11 2.67 0 5.17-.3 6.7-.81.12-.04.19-.17.15-.29s-.17-.18-.29-.15c-1.49.49-3.94.79-6.56.79-.95 0-1.88-.04-2.77-.11-.12-.01-.24.08-.25.21s.08.24.21.25zm-1.82 12.5c-.91-.15-1.69-.34-2.25-.56-.08-.03-.17.01-.2.09s.01.17.09.2c.59.23 1.37.42 2.31.58h.02c.07 0 .14-.05.15-.13.02-.09-.03-.17-.12-.18zm12.86 3.68v-4.67c0-.36-.26-.67-.7-.93.44-.26.7-.57.7-.93v-4.67c0-.37-.27-.68-.72-.95.45-.27.71-.58.71-.94V7.11c0-1.6-5.01-2.18-8.38-2.18s-8.37.59-8.37 2.18v4.67c0 .37.27.68.72.95-.45.27-.72.58-.72.95v4.67c0 .36.26.67.7.93-.44.26-.7.57-.7.93v4.67c0 1.6 5.01 2.17 8.38 2.17 3.37.01 8.38-.57 8.38-2.16zM8.19 11.78V7.11c0-.55 2.67-1.56 7.76-1.56s7.76 1.02 7.76 1.56v4.67c0 .17-.27.4-.81.62-.27.11-.61.22-1.01.33-1.3.34-3.29.62-5.95.62-2.65 0-4.64-.27-5.94-.62-.4-.1-.74-.22-1.01-.33-.52-.22-.8-.44-.8-.62zm.01 6.57v-4.67c0-.17.27-.4.81-.62 1.73.64 4.7.9 6.95.9s5.22-.26 6.96-.9c.54.22.82.44.82.62v4.67c0 .17-.26.39-.78.61-.26.11-.6.22-1 .33-1.3.35-3.3.63-5.99.63s-4.69-.28-5.99-.63c-.4-.11-.73-.22-1-.33-.52-.22-.78-.44-.78-.61zm15.53 6.54c0 .55-2.67 1.56-7.76 1.56S8.2 25.43 8.2 24.89v-4.67c0-.17.26-.39.78-.61 1.73.65 4.73.91 6.99.91s5.25-.26 6.99-.91c.52.22.78.43.78.61l-.01 4.67zm-1.06-4.21c-1.49.5-3.94.79-6.56.79-.95 0-1.88-.04-2.77-.11-.13-.01-.24.08-.25.21-.01.13.08.24.21.25.9.08 1.85.11 2.81.11 2.67 0 5.17-.3 6.7-.81.12-.04.19-.17.15-.29s-.16-.19-.29-.15zM6.86 18.92c-.05-.12-.18-.18-.3-.13-.12.05-.18.18-.13.3.03.07.05.13.09.2-.03.07-.06.13-.09.2-.05.12.01.25.13.3.03.01.05.01.08.01.09 0 .18-.06.22-.15.03-.08.07-.17.11-.24.04-.07.04-.16 0-.23-.04-.09-.08-.17-.11-.26zm-.11-.9v-.67c0-.13-.1-.23-.23-.23s-.23.1-.23.23v.67c0 .13.1.23.23.23s.23-.11.23-.23zm0-4.02c0-.13-.1-.23-.23-.23s-.23.1-.23.23v.67c0 .13.1.23.23.23s.23-.1.23-.23V14zm0 1.67c0-.13-.1-.23-.23-.23s-.23.1-.23.23v.67c0 .13.1.23.23.23s.23-.1.23-.23v-.67zm.11-3.29c-.05-.12-.18-.18-.3-.13-.12.05-.18.18-.13.3.03.06.05.13.09.19-.03.06-.06.13-.09.19-.05.12.01.25.13.3.03.01.05.02.08.02.09 0 .18-.06.22-.15.03-.08.07-.16.12-.24.04-.07.04-.16 0-.23-.05-.09-.09-.17-.12-.25zm18.62-1.72c-.13 0-.23.1-.23.23v.63c0 .13.1.23.23.23s.23-.1.23-.23v-.63c0-.12-.11-.23-.23-.23zm.23-2.9c0-.13-.1-.23-.23-.23s-.23.1-.23.23v.63c0 .13.1.23.23.23s.23-.1.23-.23v-.63zm-.48-.9c.02.11.12.2.23.2h.04c.12-.02.21-.14.19-.26-.04-.23-.11-.45-.23-.66-.06-.11-.2-.15-.31-.09-.11.06-.15.2-.09.31.08.15.14.32.17.5zm.48 2.47c0-.13-.1-.23-.23-.23s-.23.1-.23.23v.63c0 .13.1.23.23.23s.23-.1.23-.23v-.63zM11.76 4.32h.03c.21-.03.41-.05.62-.08.13-.01.22-.13.2-.25-.01-.13-.13-.22-.25-.2-.21.02-.42.05-.63.07-.13.02-.21.13-.2.26.02.11.12.2.23.2zM6.5 7.06h.03c.11 0 .21-.08.23-.2.03-.18.08-.35.17-.51.06-.11.02-.25-.09-.31-.11-.05-.25-.01-.31.1-.11.21-.19.43-.22.66-.02.13.06.25.19.26zm6.82-2.9h.02c.21-.02.42-.03.62-.04.13-.01.22-.11.22-.24-.01-.13-.12-.22-.24-.22-.21.01-.42.03-.63.04-.13.01-.22.12-.21.25 0 .12.1.21.22.21zm-3.11.43c.02 0 .03 0 .05-.01.2-.04.4-.09.61-.12.12-.02.21-.14.19-.27-.02-.12-.14-.21-.27-.18-.21.04-.42.08-.62.12-.12.03-.2.15-.17.27.01.11.11.19.21.19zm-3.7 4.04c.13 0 .23-.1.23-.23v-.63c0-.13-.1-.23-.23-.23s-.23.1-.23.23v.63c0 .13.11.23.23.23zm17.5-3.25c.18.1.35.21.49.33.04.03.09.05.14.05.07 0 .13-.03.18-.09.08-.1.06-.24-.03-.32-.16-.13-.35-.25-.55-.37-.11-.06-.25-.02-.31.09-.07.11-.03.25.08.31zm-16.67.39c.05 0 .1-.02.14-.05.14-.11.31-.23.49-.33.11-.06.15-.2.09-.31-.06-.11-.2-.15-.31-.09-.2.12-.39.24-.55.37-.1.08-.11.22-.03.32.04.06.1.09.17.09zm-.83 6c.13 0 .23-.1.23-.23v-.63c0-.13-.1-.23-.23-.23s-.23.1-.23.23v.63c0 .12.11.23.23.23zm0-1.57c.13 0 .23-.1.23-.23v-.63c0-.13-.1-.23-.23-.23s-.23.1-.23.23v.63c0 .13.11.23.23.23zm2.2-5.17c.03 0 .06-.01.08-.01.18-.07.38-.14.58-.2.12-.04.19-.16.15-.29-.03-.12-.16-.19-.28-.16-.22.07-.42.14-.61.21-.12.05-.18.18-.13.3.03.09.12.15.21.15zm9.31-.91c.2.01.41.02.62.04h.02c.12 0 .22-.09.23-.21.01-.13-.09-.24-.21-.25-.21-.02-.42-.03-.63-.04-.13-.01-.24.09-.24.22-.02.12.08.23.21.24zm3.09.34l.61.12c.02 0 .03.01.05.01.11 0 .2-.07.22-.18.03-.12-.05-.25-.17-.27-.2-.05-.41-.09-.62-.12-.12-.02-.25.06-.27.19s.05.23.18.25zm-1.54-.22c.2.02.41.05.62.07h.03c.11 0 .21-.08.23-.2.02-.13-.07-.24-.2-.26-.21-.03-.42-.05-.63-.07-.13-.01-.24.08-.25.2-.02.13.07.25.2.26zm3.04.57c.2.06.4.13.58.2.03.01.05.01.08.01.09 0 .18-.06.22-.15.05-.12-.01-.25-.13-.3-.19-.07-.4-.14-.61-.21-.12-.04-.25.03-.29.15-.04.14.03.26.15.3zm-7.72-.73c.23-.01.44-.01.63-.01.13 0 .23-.11.23-.23 0-.13-.1-.23-.23-.23-.2 0-.41.01-.63.01-.13 0-.23.11-.22.24-.01.12.1.22.22.22zm1.57-.01c.2 0 .41.01.62.01h.01c.12 0 .23-.1.23-.22 0-.13-.1-.23-.22-.24-.22-.01-.43-.01-.63-.01-.13-.01-.23.1-.23.23-.01.12.09.23.22.23zm8.69 9.01c.03.09.12.15.21.15.03 0 .06-.01.08-.02.12-.05.18-.18.13-.3-.02-.06-.05-.13-.09-.19.03-.06.06-.13.08-.19.05-.12-.01-.25-.13-.3s-.25.01-.3.13c-.03.08-.07.17-.12.24-.04.07-.04.16 0 .23.06.09.1.17.14.25zm.34.68c-.13 0-.23.1-.23.23v.67c0 .13.1.23.23.23s.23-.1.23-.23v-.67c0-.13-.11-.23-.23-.23zm0 1.68c-.13 0-.23.1-.23.23v.67c0 .13.1.23.23.23s.23-.1.23-.23v-.67c0-.13-.11-.23-.23-.23zm0 1.67c-.13 0-.23.1-.23.23v.67c0 .13.1.23.23.23s.23-.1.23-.23v-.67c0-.12-.11-.23-.23-.23zm-.34 2.53c.03.09.12.15.22.15.03 0 .05 0 .08-.01.12-.05.18-.18.13-.3-.02-.07-.05-.13-.09-.2.03-.07.06-.13.09-.2.05-.12-.02-.25-.13-.3-.12-.04-.25.02-.3.13-.03.08-.07.17-.11.24-.04.07-.04.16 0 .23.04.09.08.18.11.26zm-4.95 8.04c-.21.03-.41.05-.62.07-.13.01-.22.13-.2.25.01.12.11.2.23.2h.02c.21-.02.42-.05.63-.08.13-.02.21-.13.2-.26-.02-.1-.14-.19-.26-.18zm5.29-4.29c-.13 0-.23.1-.23.23v.63c0 .13.1.23.23.23s.23-.1.23-.23v-.63c0-.13-.11-.23-.23-.23zm-.98 2.9c-.14.11-.31.22-.49.33-.11.06-.15.2-.09.31.04.07.12.12.2.12.04 0 .08-.01.11-.03.2-.12.39-.24.55-.37.1-.08.11-.22.04-.32-.08-.11-.22-.12-.32-.04zm.98-6.03c-.13 0-.23.1-.23.23v.63c0 .13.1.23.23.23s.23-.1.23-.23v-.63c0-.13-.11-.23-.23-.23zm.01 4.69c-.12-.02-.24.07-.26.19-.03.18-.09.35-.18.51-.06.11-.02.25.09.31.03.02.07.03.11.03.08 0 .16-.04.2-.12.11-.21.19-.43.23-.66.02-.12-.07-.24-.19-.26zm-.01-3.13c-.13 0-.23.1-.23.23v.63c0 .13.1.23.23.23s.23-.1.23-.23v-.63c0-.13-.11-.23-.23-.23zm-2.29 5.17c-.18.07-.38.13-.58.19-.12.04-.19.17-.15.29.03.1.12.16.22.16.02 0 .04 0 .07-.01.21-.06.42-.13.61-.21.12-.05.18-.18.13-.3s-.19-.16-.3-.12zm-1.47.43c-.2.04-.4.08-.61.12-.12.02-.21.14-.19.27.02.11.12.19.23.19h.04c.21-.04.42-.08.62-.12.12-.03.2-.15.17-.27s-.14-.22-.26-.19zm-7.75.46c-.2-.01-.41-.02-.62-.04-.12-.01-.24.08-.25.21-.01.13.09.24.21.25.21.02.43.03.63.04h.01c.12 0 .22-.09.23-.22.01-.12-.08-.23-.21-.24zm-5.99-1.26c-.18-.1-.35-.21-.49-.33-.1-.08-.24-.06-.32.04-.08.1-.06.24.04.32.16.13.35.25.55.37.04.02.07.03.11.03.08 0 .16-.04.2-.12.06-.11.02-.25-.09-.31zm10.66 1.22c-.21.02-.42.03-.62.04-.13.01-.22.12-.22.24.01.12.11.22.23.22h.01c.21-.01.42-.02.63-.04.13-.01.22-.12.21-.25 0-.12-.11-.21-.24-.21zM6.52 24.47c.13 0 .23-.1.23-.23v-.63c0-.13-.1-.23-.23-.23s-.23.1-.23.23v.63c0 .13.11.23.23.23zm0-2.65c-.13 0-.23.1-.23.23v.63c0 .13.1.23.23.23s.23-.1.23-.23v-.63c0-.12-.1-.23-.23-.23zm.23-1.33c0-.13-.1-.23-.23-.23s-.23.1-.23.23v.63c0 .13.1.23.23.23s.23-.1.23-.23v-.63zm.02 4.66c-.02-.13-.14-.21-.26-.19-.12.02-.21.14-.19.26.04.23.11.45.23.66.04.07.12.12.2.12.04 0 .08-.01.11-.03.11-.06.15-.2.09-.31-.09-.16-.15-.34-.18-.51zm10.33 2.77c-.22.01-.43.01-.62.01-.13 0-.23.11-.23.23 0 .13.1.23.23.23.2 0 .41-.01.63-.01.13 0 .23-.11.22-.24s-.09-.22-.23-.22zm-1.56.01c-.2 0-.4-.01-.62-.01-.13 0-.23.1-.24.22 0 .13.1.23.22.24.22.01.43.01.63.01.13 0 .23-.1.23-.23.01-.12-.1-.23-.22-.23zm-6.15-.74c-.2-.06-.4-.13-.58-.19-.12-.04-.25.01-.3.13-.05.12.01.25.13.3.19.07.4.14.61.2.02.01.04.01.07.01.1 0 .19-.06.22-.16.04-.12-.03-.25-.15-.29zm3.04.57c-.2-.02-.41-.05-.62-.07-.13-.02-.24.07-.26.2-.02.13.07.24.2.26.21.03.42.05.63.08h.02c.12 0 .22-.09.23-.2.01-.15-.08-.26-.2-.27zm-1.54-.22l-.61-.12c-.12-.03-.25.05-.27.17-.03.12.05.25.17.27.2.05.41.09.62.12h.04c.11 0 .21-.08.23-.19.03-.11-.05-.23-.18-.25z"/></svg>