<svg xmlns="http://www.w3.org/2000/svg" viewBox="0 0 32 32"><path d="M21.07 7.66c-.18-.74-1.97-1.07-3.61-1.18-.15-.31-.45-.52-.81-.52h-1.29c-.36 0-.67.21-.81.52-1.73.12-3.63.48-3.63 1.3-.6.74-.6.97-.6 1.04v14.5c0 .3.26.58.68.81v.38c0 .9 2.64 1.53 5.01 1.53s5.01-.63 5.01-1.53v-.38c.42-.24.68-.51.68-.81V8.82c-.01-.21-.22-.6-.63-1.16zm-5.72-1.24h1.29c.22 0 .4.16.43.36l-.19.23c-.03.04-.05.09-.05.15 0 .11 0 .19-.44.19h-.79c-.44 0-.44-.08-.44-.19 0-.05-.02-.11-.05-.15l-.19-.23c.04-.21.22-.36.43-.36zm-.78.66l.14.16c.02.21.12.34.24.42-.36.07-.6.17-.6.29 0 .2.73.37 1.62.37.9 0 1.62-.17 1.62-.37 0-.11-.22-.21-.56-.28.13-.08.23-.21.26-.43l.14-.16c1.81.12 2.88.47 3.04.69-.2.28-1.79.74-4.47.74-2.67 0-4.26-.46-4.47-.74.17-.22 1.23-.56 3.04-.69zm5.98 17.44c0 .31-1.81 1.07-4.55 1.07-2.74 0-4.55-.76-4.55-1.07v-.16c1.11.44 2.87.71 4.55.71 1.69 0 3.44-.26 4.55-.71v.16zm-.61-.6c-.89.28-2.26.53-3.94.53-1.68 0-3.06-.25-3.95-.53-.69-.22-1.09-.45-1.13-.6V8.85c0-.01.01-.02.01-.02.04-.09.17-.28.33-.49.31.22.8.38 1.35.49 1.43.3 3.27.31 3.39.31.13 0 1.96-.01 3.39-.31.57-.14 1.05-.31 1.39-.52.16.25.29.46.3.52v14.49c-.04.15-.44.38-1.14.6zm-6.88-13.56c.11 0 .21-.08.23-.2.02-.13-.07-.24-.2-.26-.52-.07-.98-.17-1.35-.28-.12-.04-.25.03-.28.16s.03.25.16.28c.4.12.87.21 1.41.29.01.01.02.01.03.01zm7.2-.73c-.99.29-2.59.47-4.26.47-.37 0-.75-.01-1.12-.03-.11-.01-.23.09-.24.22s.09.23.22.24c.38.02.76.03 1.14.03 1.74 0 3.34-.18 4.39-.49.12-.04.19-.16.16-.29-.04-.12-.17-.19-.29-.15zm-1.15 6.85c-.01-.03-.04-.05-.07-.06-.03-.01-.06 0-.09.01l-1.58.93c-.05.03-.07.1-.04.16l.83 1.48h-.89v-.35c0-.06 0-.11-.07-.16-.06-.04-.14-.03-.21.02l-.03.03-.91 1.31c-.03.04-.03.09 0 .13l.91 1.31.03.03c.04.03.08.04.12.04.03 0 .06-.01.09-.03.07-.05.07-.1.07-.16v-.35h.65c.69 0 .92-.39.93-.41l.82-1.58c.33-.72.05-1.22.04-1.24l-.6-1.11zm-.47 3.82s-.18.29-.72.29h-.77c-.03 0-.06.01-.08.03-.02.02-.03.05-.03.08v.29l-.75-1.08.75-1.08v.29c0 .03.01.06.03.08s.05.03.08.03h1.6c.07 0 .28-.01.49-.08l-.6 1.15zm.82-1.57c-.12.22-.52.28-.72.28h-.32l-.83-1.49 1.38-.82.54 1c0 .01.22.42-.05 1.03zm-4.02.06h-1.71l.47-.81.31.19c.03.02.06.04.1.04.03 0 .06-.01.07-.02.07-.03.1-.1.09-.19 0-.01-.01-.03-.01-.04l-.67-1.45c-.02-.04-.07-.07-.11-.07l-1.59.12c-.01 0-.02 0-.04.01-.08.03-.12.1-.12.17.01.09.05.11.1.14l.3.17-.33.57c-.09.15-.15.31-.18.46v.02c-.05.32.16.68.17.7l.84 1.34c.45.65 1.03.66 1.05.66l1.25.04c.03 0 .06-.01.08-.03.02-.02.03-.05.03-.08V18.9c.02-.05-.03-.11-.1-.11zm-3.08-.67c.02-.12.07-.25.15-.38l.39-.67c.02-.03.02-.06.01-.09s-.03-.06-.05-.07l-.24-.14 1.31-.1.55 1.19-.25-.15c-.03-.02-.06-.02-.09-.01s-.06.03-.07.05l-.6 1.03c-.17 0-.6-.02-.87-.22-.17-.1-.24-.25-.24-.44zm2.97 2.5l-1.13-.04c-.02 0-.49-.02-.86-.56l-.73-1.17c.01 0 .01 0 .02.01.06.03.13.06.2.08.01 0 .02.01.02.01.07.02.14.03.21.05.01 0 .03 0 .04.01.06.01.13.02.19.02h.03c.06 0 .11.01.16.01h1.86l-.01 1.58zm1.17-4.69l-.3.16c-.05.02-.1.05-.11.14-.01.07.03.14.11.18.01.01.02.01.04.01l1.58.2h.01c.04 0 .08-.02.1-.06l.74-1.41c.01-.01.01-.02.01-.03.01-.09-.02-.16-.08-.19-.01-.01-.04-.02-.08-.02s-.06.01-.1.03l-.33.17-.29-.58c-.32-.61-.77-.63-.79-.63h-1.79c-.79.04-1.11.52-1.12.54l-.7 1.04c-.02.03-.02.06-.02.09.01.03.03.06.05.07l1.56.97c.02.01.04.02.06.02.04 0 .07-.02.1-.05l.93-1.41.42.76zm-1.46.41l-1.36-.84.63-.94c.01-.02.27-.4.94-.44.27 0 .51.37.58.51l.15.28-.94 1.43zm.69-2.23h1.29c.01 0 .34.02.59.51l.34.68c.01.03.04.05.07.06s.06.01.09-.01l.28-.14-.62 1.17-1.31-.17.25-.13c.06-.03.08-.1.05-.15l-.53-1.04c0-.02-.01-.03-.02-.04l-.16-.32c-.02-.03-.13-.24-.32-.42z"/></svg>