<svg xmlns="http://www.w3.org/2000/svg" viewBox="0 0 32 32"><path d="M25.19 16c0-.55-.25-1.35-.57-1.82-.01-.01-.66-.99-.66-2.09 0-1.1.69-2.24.7-2.25.3-.48.53-1.28.53-1.83 0-.66-.52-1.21-1.16-1.21-.51 0-1.31.16-1.81.37-.01.01-1.09.44-2.13.44s-2.12-.44-2.13-.44c-.51-.21-1.33-.37-1.88-.37h-.05c-.55 0-1.37.16-1.88.36-.01.01-1.18.46-2.23.46s-2.12-.44-2.13-.44c-.52-.21-1.31-.38-1.82-.38-.65 0-1.17.54-1.17 1.21 0 .55.25 1.35.56 1.82.01.01.74 1.12.74 2.26 0 1.13-.69 2.09-.7 2.09-.33.47-.6 1.26-.6 1.82s.26 1.35.6 1.81c.01.01.7.98.7 2.12 0 1.14-.72 2.22-.73 2.24-.32.47-.57 1.27-.57 1.82 0 .67.54 1.2 1.2 1.2.54 0 1.35-.19 1.85-.44.01 0 .95-.47 2.06-.47s2.23.5 2.24.51c.5.23 1.32.41 1.88.41h.05c.55 0 1.38-.19 1.87-.43.01 0 1.02-.49 2.14-.49 1.1 0 2.05.47 2.06.47.5.25 1.31.44 1.85.44.67 0 1.2-.54 1.2-1.2 0-.55-.23-1.35-.53-1.83-.01-.01-.69-1.12-.69-2.23 0-1.09.66-2.1.67-2.11.3-.47.55-1.27.54-1.82zm-1.09 1.47c-.03.05-.77 1.17-.77 2.46 0 1.28.76 2.51.79 2.56.24.38.44 1.06.44 1.49 0 .31-.26.57-.57.57-.44 0-1.16-.17-1.56-.38-.04-.02-1.08-.54-2.34-.54-1.25 0-2.36.53-2.41.55-.41.2-1.14.36-1.6.36h-.05c-.46 0-1.2-.16-1.61-.35-.05-.02-1.25-.56-2.5-.56-1.26 0-2.3.51-2.34.54-.41.2-1.12.38-1.56.38-.31 0-.57-.26-.57-.57 0-.43.21-1.1.46-1.47.03-.05.84-1.25.84-2.59 0-1.34-.79-2.45-.82-2.49-.27-.34-.49-1.01-.49-1.43 0-.42.22-1.09.48-1.43.03-.05.82-1.13.82-2.47 0-1.34-.81-2.56-.85-2.61-.25-.38-.45-1.05-.45-1.48 0-.31.24-.57.53-.57.43 0 1.14.15 1.57.32.05.02 1.2.49 2.37.49 1.17 0 2.41-.48 2.47-.5.43-.17 1.19-.31 1.65-.31h.05c.46 0 1.21.15 1.64.32.05.02 1.2.49 2.37.49 1.17 0 2.33-.47 2.38-.49.43-.18 1.14-.32 1.57-.32.29 0 .53.26.53.57 0 .43-.2 1.12-.43 1.5-.03.05-.8 1.3-.8 2.59 0 1.29.74 2.39.77 2.44.25.37.46 1.04.46 1.47-.01.42-.22 1.09-.47 1.46zM20.64 9.6h-9.17c-.76 0-1.38.62-1.38 1.38v9.94c0 .76.62 1.38 1.38 1.38h9.17c.76 0 1.38-.62 1.38-1.38v-9.94c0-.76-.62-1.38-1.38-1.38zm.9 11.32c0 .5-.41.91-.91.91h-9.17c-.5 0-.9-.41-.9-.91v-9.94c0-.5.41-.91.9-.91h9.17c.5 0 .91.41.91.91v9.94zm-1.33-7.55l-4.56 3.07c-.07.05-.09.15-.04.22.03.05.08.07.13.07.03 0 .06-.01.09-.03l4.56-3.07c.07-.05.09-.15.04-.22-.05-.07-.15-.09-.22-.04zm-2.3 2.74l-3.62 2.44c-.07.05-.09.15-.04.22.03.05.08.07.13.07.03 0 .06-.01.09-.03l3.61-2.44c.07-.05.09-.15.04-.22-.04-.07-.14-.09-.21-.04z"/></svg>