<svg xmlns="http://www.w3.org/2000/svg" viewBox="0 0 31.68 31.68"><path d="M14.88 11.31c-.07-.05-.17-.03-.22.05-.14.23-.27.46-.39.71-.04.08-.02.17.06.21.08.04.17.02.21-.06 0-.01.01-.01.01-.02.11-.23.23-.46.37-.67.06-.08.03-.17-.04-.22zm.29 3.28c-.05-.07-.14-.09-.22-.05-.14.09-.28.19-.42.29-.07.05-.09.15-.04.22.05.07.15.09.22.04.01 0 .01-.01.02-.01.13-.1.26-.19.4-.28.07-.04.09-.14.04-.21zm-.99.76c-.06-.06-.15-.06-.21 0-.01-.09-.09-.15-.18-.14-.09.01-.15.09-.14.18 0 .08.01.16.03.24l-.16.18c-.06.06-.05.16.01.22.06.05.15.05.21 0 .02.07.08.12.15.12h.03c.08-.02.14-.1.13-.18l-.05-.23.16-.16c.07-.06.07-.16.02-.22v-.01zm-.71-1.85c-.01.09.06.16.14.17h.14c0 .05-.02.1-.03.15-.01.09.05.17.13.18h.03c.08 0 .14-.06.15-.13 0-.05.01-.1.03-.16l.16.03c.09.02.17-.04.18-.13.02-.09-.04-.17-.13-.18l-.15-.02c0-.05.02-.09.03-.14.02-.09-.03-.17-.12-.2-.09-.02-.17.03-.2.12-.01.06-.03.11-.04.17l-.15.01c-.08-.02-.16.04-.18.12.01 0 .01 0 .01.01zm.72-4.07c.17.08.34.18.51.27.08.04.17.02.21-.06.04-.07.02-.17-.05-.21-.17-.1-.35-.2-.54-.29-.08-.04-.17-.02-.21.06-.04.08-.02.17.06.21 0 .01.01.01.02.02zm1.8 4.57l-.22-.11c-.08-.04-.17 0-.21.08-.03.07 0 .15.06.19-.07.05-.1.14-.05.22.04.07.13.09.2.06l.21-.1.1.05.1.06c.02.01.05.02.08.02.06 0 .11-.03.13-.08.04-.07.02-.15-.04-.2.07-.03.11-.12.08-.19-.03-.08-.12-.12-.2-.09l-.24.09zm-.46-3.7l-.1.11c-.06.06-.07.16-.01.22s.16.07.22.01c.01 0 .01-.01.01-.02l.11-.11.12.11c.06.07.16.07.22.02.07-.06.07-.16.02-.22l-.02-.02-.11-.1.1-.09c.07-.05.08-.15.02-.22-.05-.07-.15-.08-.22-.02l-.01.01-.13.12-.13-.11c-.07-.05-.17-.04-.22.02-.05.07-.04.17.02.22l.11.07zm-.49 7.73c.02-.08-.04-.17-.12-.18h-.02l-.14-.03-.09-.02-.08-.21c-.04-.08-.13-.11-.21-.07-.07.04-.1.12-.08.2-.07-.01-.14.04-.16.11-.02.08.03.17.11.19l.19.05v.03h.06l.12.2c.05.07.14.1.22.05.07-.04.09-.13.06-.2.07 0 .13-.05.14-.12zm-.39-4.35c-.02.08.02.17.11.19.12.03.24.07.36.11h.05c.09.01.17-.05.18-.13.01-.09-.05-.17-.13-.18-.12-.04-.25-.08-.37-.12-.08-.02-.17.03-.19.11-.01.01-.01.02-.01.02zm-.86 1.28c.09 0 .15-.07.16-.15v-.37c.01-.09-.06-.16-.15-.17-.09-.01-.16.06-.17.15.01.12.01.25.01.39.01.07.07.14.15.15zm-1.66 4.58c-.08-.01-.16.05-.17.13v.58c0 .08.07.15.16.15s.15-.08.15-.16v-.54c0-.08-.06-.15-.14-.16zm-1.68-4.19c.1.15.21.31.31.44.05.07.14.09.22.04.07-.05.09-.14.04-.22 0-.01-.01-.01-.02-.02-.11-.13-.21-.28-.31-.42-.05-.07-.15-.09-.22-.04-.07.05-.09.15-.04.22h.02zm1.92 3.55c.03-.18.08-.35.12-.53.02-.09-.02-.18-.11-.2-.09-.02-.18.02-.2.11v.01c-.05.18-.09.37-.13.55-.02.08.04.17.13.18h.03c.08.01.15-.05.16-.12zm-1.32-4.91h.05c.16-.06.31-.1.49-.15.09-.02.14-.11.12-.2-.02-.09-.11-.14-.2-.12-.17.04-.34.09-.51.15-.09.01-.15.1-.13.18.01.1.09.16.18.14zm5.63-2.39c.05.07.15.09.22.04s.09-.15.04-.22c-.1-.15-.21-.29-.31-.43-.06-.06-.16-.07-.22-.01-.06.05-.07.14-.02.2.08.14.19.28.29.42zm-4.36 2.1h.02c.17-.02.34-.03.51-.04.09 0 .16-.07.16-.16s-.07-.16-.16-.16c-.18 0-.36.02-.54.04-.09.01-.15.08-.15.17.01.09.08.15.16.15zm1.11 4.07c.11.04.21.08.31.12h.05c.09.01.17-.05.18-.13s-.05-.17-.13-.18c-.1-.04-.21-.07-.31-.12-.08-.03-.17.01-.2.09s.01.17.09.2l.01.02zm0-1.59c-.07-.05-.17-.04-.22.03-.07.09-.13.18-.19.27-.04.08-.01.17.06.21.07.04.15.02.2-.04.06-.09.12-.17.18-.26.06-.06.06-.16-.01-.22-.01-.01-.02-.01-.03-.02v.03zm-.61-7.22c.19.04.38.09.56.15h.05c.09.01.17-.05.17-.14.01-.08-.05-.16-.13-.17-.19-.06-.39-.11-.59-.16-.09-.02-.17.04-.19.12s.05.17.13.2zm-1.44-.14h.13c.15 0 .31.01.46.02.09 0 .16-.07.16-.16s-.07-.16-.16-.16c-.16-.01-.32-.02-.48-.02h-.13c-.09 0-.16.07-.16.16s.07.16.16.16h.02zm8.09 11.45c.08 0 .15-.07.16-.15v-.53c-.01-.08-.08-.15-.16-.15-.09 0-.15.08-.15.16v.5c-.01.09.06.17.15.17zM18.1 9.01h.05c.19-.07.38-.12.58-.17.09-.02.14-.11.12-.19s-.11-.14-.19-.12c-.21.05-.41.11-.61.18-.09.01-.15.1-.13.18.01.08.09.14.18.12zm1.51-.32c.18-.02.37-.03.55-.03h.06c.09 0 .16-.07.16-.16s-.07-.16-.16-.16h-.06c-.19 0-.38 0-.58.03-.09 0-.16.07-.16.16s.07.16.16.16h.03zm-.94 5.01c-.01.09.06.16.15.17.17 0 .34.03.5.05h.02c.09.01.16-.06.17-.15.01-.09-.06-.16-.15-.17-.18-.03-.35-.04-.53-.05-.08 0-.14.05-.16.12v.03zm.74 5.32c.09-.01.14-.09.13-.18-.03-.17-.07-.35-.11-.52-.02-.09-.11-.14-.19-.12s-.14.11-.12.19c.04.16.07.33.1.49.01.08.08.13.15.13l.04.01zM22 12.76c-.03.19-.08.39-.13.58-.02.08.03.17.11.19h.04c.07 0 .13-.05.15-.12.05-.2.1-.4.13-.61.01-.09-.04-.17-.13-.18-.08-.01-.16.05-.17.14zm-.05-2.36c.02.07.08.12.15.12h.03c.08-.02.14-.1.12-.19-.04-.2-.1-.41-.16-.6-.03-.09-.12-.13-.2-.11s-.13.12-.11.2c.08.15.13.34.18.54l-.01.04zm-1.99 3.48c-.02.08.03.17.11.19.16.04.31.09.49.15h.05c.09.01.17-.04.18-.13s-.04-.17-.13-.18c-.17-.06-.34-.11-.51-.16-.08-.02-.16.02-.19.1v.03zm.68 2.09c.07.06.16.05.22-.02.11-.13.22-.27.31-.41.06-.07.05-.16-.02-.22s-.16-.05-.22.02l-.02.02c-.1.13-.2.26-.31.39-.03.06-.02.14.04.19v.03zm-2.49.05c.07-.05.08-.15.02-.22l-.14-.22c0-.08 0-.17.02-.25 0-.09-.06-.16-.15-.16-.07 0-.14.05-.15.12-.06-.05-.14-.05-.2 0-.06.06-.06.16 0 .22l.15.15v.02c0 .07-.02.14-.03.22-.01.09.05.16.13.18h.02c.07 0 .12-.04.14-.11.05.05.14.05.19 0v.05zm-.63-2.54c0 .04.02.09.03.13l-.14.02c-.09.01-.15.1-.13.18.01.09.1.15.18.13l.16-.03c0 .05.02.11.03.16.01.08.08.13.15.13h.03c.08-.01.14-.09.13-.18 0-.05-.02-.09-.03-.14h.14c.09-.01.15-.08.14-.17-.01-.08-.08-.15-.17-.14h-.18c0-.06-.03-.12-.04-.17-.02-.09-.11-.14-.19-.12-.09.02-.14.11-.12.19v.01h.01zm.37 1.53c.09 0 .15-.08.15-.16 0-.11-.01-.22-.02-.33-.01-.09-.08-.15-.17-.14-.09.01-.15.08-.14.17 0 .1 0 .21.02.31.02.07.08.13.16.13v.02zm-1.17-5.32c.03 0 .06-.01.08-.03.17-.11.34-.21.52-.31.08-.04.11-.13.07-.21-.04-.08-.13-.11-.21-.07-.18.1-.37.2-.55.31-.07.05-.09.14-.05.22.03.04.08.07.13.07v.02zm.42 2.38c-.08.04-.11.13-.07.21.08.15.15.31.21.47.02.06.08.1.14.1h.06c.08-.03.12-.12.09-.2-.07-.17-.14-.33-.22-.49-.02-.08-.11-.13-.19-.11-.01 0-.02.01-.03.01l.01.01zm-.18 6.28c.07.04.17.02.21-.06l.12-.21.25-.06c.09-.02.14-.11.12-.19-.02-.09-.11-.14-.19-.12.03-.08-.01-.16-.08-.2-.08-.03-.17 0-.21.08l-.07.15-.01.04h-.06v.03l-.18.03c-.09.01-.15.09-.14.17.01.08.08.14.16.14h.02c-.03.08-.01.16.06.2zm.1-3.28c.07.06.17.05.22-.02.06-.07.05-.17-.02-.22l-.21-.16-.15-.11c-.07-.05-.17-.04-.22.03-.05.07-.04.17.03.22l.14.11.21.15zm.03 5.56c.24.13.49.24.74.34.08.04.17 0 .21-.07.04-.08 0-.17-.07-.21-.01 0-.01-.01-.02-.01-.24-.09-.48-.19-.7-.31-.07-.05-.17-.02-.22.05-.05.07-.02.17.05.22 0-.01.01-.01.01-.01zm.43-3.47h.04c.07 0 .14-.05.16-.12l.02-.07c.02-.06.04-.12.06-.19.02-.07.03-.11.04-.16.02-.09-.03-.17-.12-.19-.09-.02-.17.03-.19.12 0 .05-.03.1-.04.16-.02.06-.03.11-.05.16l-.03.09.14.06-.14-.05c-.02.08.02.16.1.18 0 .01 0 .02.01.01zm4.56-5.91c0 .15.01.3.02.45v.15c0 .09.07.16.15.16.09 0 .15-.07.16-.15v-.16c0-.16-.01-.32-.02-.47-.01-.08-.08-.15-.17-.14-.08 0-.15.07-.14.16zm-3.42 6.35c.02.01.05.01.07 0l.13-.07.05.13c.04.08.13.11.21.07.07-.03.11-.11.08-.19l-.07-.16.15-.09c.08-.04.11-.13.07-.21-.04-.08-.13-.11-.21-.07-.01 0-.02.01-.02.01l-.12.07-.06-.13c-.04-.08-.13-.11-.21-.08-.08.04-.11.13-.08.21l.07.14-.14.07c-.09.02-.14.11-.12.19.02.08.1.14.19.12l.01-.01zm-.03-.9c.07-.05.1-.14.05-.22-.06-.1-.13-.2-.19-.29-.05-.07-.14-.1-.22-.05-.07.05-.1.14-.05.22l.01.01c.06.09.12.18.18.28.03.05.08.08.13.08.04-.01.07-.02.09-.03zm1.03 4.38l-.14-.02c0-.05.02-.1.03-.15.01-.09-.05-.17-.13-.18-.09-.01-.17.05-.18.13 0 .05-.01.1-.03.16l-.16-.02c-.09-.02-.17.04-.18.13s.04.17.13.18l.15.02c0 .05-.02.09-.03.14-.02.08.03.17.11.19h.04c.07 0 .13-.05.15-.12 0-.06.03-.11.04-.17l.17.02c.08 0 .16-.06.17-.14.01-.08-.04-.16-.14-.17.01-.01.01-.01 0 0zM18.1 23.6c-.12.16-.24.31-.38.46-.06.06-.06.16 0 .22s.16.06.22 0l.01-.01c.14-.15.27-.31.4-.48.05-.07.04-.17-.03-.22-.07-.06-.17-.04-.22.03zm.94-1.37c-.08-.03-.17 0-.21.08-.08.18-.16.36-.26.54-.04.08-.01.17.06.21.08.04.17.01.21-.06.1-.18.19-.37.27-.56.05-.09.01-.18-.07-.21 0-.01 0-.01 0 0zm-2.89-2.61l.1-.11c.06-.06.06-.16-.01-.22-.06-.06-.16-.06-.22.01l-.11.11-.11-.11c-.07-.06-.16-.05-.22.02-.05.06-.05.15 0 .2l.11.1-.1.1c-.07.05-.08.15-.02.22.05.07.15.08.22.02l.01-.01.13-.12.13.11c.07.05.17.04.22-.02.05-.07.04-.17-.02-.22l-.11-.08zm.92 5.05c-.15.13-.31.25-.48.36-.07.05-.09.15-.04.22.03.04.08.07.13.07.03 0 .06-.01.09-.03.17-.12.34-.24.5-.38.07-.06.08-.15.02-.22s-.16-.08-.22-.02zm-1.2-6.44h.27c.09 0 .15-.08.15-.16-.01-.08-.08-.15-.16-.15h-.49c-.08-.01-.16.06-.16.14v.01c0 .09.06.16.15.16h.24zm.99.55c.05-.07.04-.17-.03-.22-.07-.05-.17-.04-.22.03l-.01.01c-.07.1-.14.2-.22.29-.05.07-.04.17.03.22.07.05.17.04.22-.03.09-.1.16-.2.23-.3zm4.26 2.24c-.19.03-.38.05-.58.06-.09 0-.16.07-.16.16s.07.16.16.16c.21 0 .41-.03.63-.07.09-.01.15-.09.14-.17-.01-.09-.09-.15-.19-.14.01 0 0 0 0 0zm2.69-1.11c-.16.11-.31.22-.49.31-.08.04-.1.14-.06.21.04.08.14.1.21.06.18-.1.35-.22.51-.33.07-.05.09-.15.03-.22-.03-.07-.13-.09-.2-.03zm-3.7-3.66c-.12.11-.25.22-.38.31-.07.05-.09.14-.04.22s.14.09.22.04c.01 0 .01-.01.02-.02.13-.11.27-.22.39-.34.06-.06.06-.16-.01-.22-.05-.04-.14-.05-.2.01zm3.62-.09c-.05-.07-.15-.08-.22-.03s-.08.15-.03.22c.11.15.22.31.31.48.04.08.13.11.21.07.08-.04.11-.13.07-.21 0-.01-.01-.02-.01-.02-.08-.18-.21-.35-.33-.51zm3.42-1.35c-.01-3.19-2.21-5.96-5.32-6.69-1.89-3.28-6.09-4.41-9.37-2.51-1.11.64-2.02 1.58-2.62 2.71-3.69.86-5.99 4.54-5.13 8.24.25 1.08.76 2.08 1.48 2.92 0 .17-.02.31-.02.48 0 3.79 3.08 6.86 6.87 6.86.87 0 1.74-.17 2.55-.49.93.45 1.94.68 2.97.68 3.79-.01 6.85-3.08 6.86-6.86 0-.24-.01-.48-.04-.72 1.14-1.28 1.78-2.92 1.77-4.62zm-2.23 4.1c-.01-.09-.09-.15-.18-.14-.09.01-.15.09-.14.18v.02c0 .08.03.15.03.23l-.16.16c-.06.06-.05.16.01.22.06.05.14.05.2 0l.06-.06c.02.21.03.41.03.61-.01 3.43-2.79 6.22-6.23 6.23-.92 0-1.82-.2-2.65-.59l.05-.02c.08-.04.11-.13.07-.21-.04-.08-.13-.11-.21-.07l-.21.1-.2-.11c-.08-.04-.17-.01-.21.07-.04.07-.01.16.06.21l.04.03c-3.2 1.26-6.81-.32-8.07-3.52-.29-.73-.43-1.5-.43-2.29v-.35l.05.05c.07.05.17.06.23 0 .07-.06.07-.15.02-.22l-.02-.02-.16-.17c0-.08.01-.16.03-.23.01-.09-.05-.17-.14-.18-.08-.01-.16.05-.17.13v.04c-2.22-2.63-1.89-6.55.74-8.77C8.1 9.61 9 9.16 9.95 8.93l-.05.1c-.02.08.02.17.1.2.07.03.16 0 .19-.07s.06-.14.1-.21l.23-.04c.08-.01.14-.09.13-.18-.01-.08-.09-.14-.17-.13l-.09.02c1.62-3.04 5.39-4.19 8.43-2.57 1.03.55 1.89 1.38 2.47 2.39l-.09-.02c-.09-.02-.17.04-.19.13-.02.09.04.17.13.19h.01l.23.04.12.19c.04.08.13.11.21.07.08-.04.11-.13.07-.21l-.05-.09c3.35.77 5.44 4.12 4.66 7.46-.24 1.04-.74 1.99-1.45 2.78-.02-.01-.02-.07-.02-.07zm-.44-1.44c-.04-.08-.13-.11-.21-.07-.07.04-.11.12-.08.2.08.18.14.36.2.54.02.07.08.11.15.11h.05c.08-.02.13-.11.11-.19v-.01c-.06-.21-.13-.4-.22-.58zm-2.47-2.73c.05-.07.02-.17-.05-.22l-.15-.09.07-.16c.04-.08 0-.17-.07-.21-.08-.04-.17 0-.21.07v.01l-.06.13-.13-.07c-.07-.04-.17-.02-.21.05s-.02.17.05.21c.01 0 .01.01.02.01l.14.07-.08.14c-.04.08-.01.17.06.21s.17.01.21-.06l.07-.13.12.07c.07.07.17.05.22-.03-.01 0-.01 0 0 0zm.68.31c-.06-.06-.16-.07-.22-.01-.06.06-.07.16-.01.22.01.01.02.02.03.02.15.13.29.26.42.39.06.07.15.07.22.02.07-.06.07-.15.02-.22l-.02-.02c-.13-.12-.28-.26-.44-.4zm-7.47 3.55c-.05-.07-.15-.08-.22-.03s-.08.15-.03.22c.08.1.16.21.24.31.06.07.15.07.22.02.07-.06.07-.15.02-.22-.09-.1-.17-.2-.23-.3zm7.32 2.03c-.18.08-.37.14-.55.2-.09.02-.14.1-.13.19.02.08.09.14.17.13h.05c.19-.06.39-.13.58-.21.08-.03.12-.12.09-.2-.03-.08-.12-.12-.2-.09l-.01-.02zM9.49 11.97c.09 0 .16-.07.15-.16v-.55c.01-.09-.06-.16-.14-.17-.08-.01-.16.06-.17.14-.01.15-.02.31-.02.46v.11c0 .09.07.16.16.15l.02.02zm5.48 8.25c-.15.1-.31.19-.45.28-.08.04-.11.13-.07.21.04.08.13.11.21.07.01 0 .01-.01.01-.01.16-.09.31-.19.47-.29.07-.05.09-.15.04-.22-.04-.07-.13-.08-.21-.04zm-5.39.75c-.19-.06-.37-.13-.55-.21-.08-.04-.17-.01-.21.07-.04.08-.01.17.07.21 0 0 .01 0 .01.01.19.08.38.16.58.22h.05c.09.01.17-.05.17-.14.01-.08-.05-.16-.13-.17l.01.01zm.74-6.48l-.07-.14.14-.07c.08-.04.11-.13.07-.21s-.13-.11-.21-.07l-.13.07-.05-.13c-.03-.08-.11-.13-.2-.1-.08.03-.13.11-.1.2 0 .01.01.01.01.02l.07.16-.15.08c-.07.05-.08.15-.03.22.05.06.13.08.2.05l.12-.07.06.13c.03.08.12.12.2.08.08-.03.12-.12.08-.2 0-.01-.01-.02-.01-.02zm-2.08 5.86c-.17-.1-.33-.22-.49-.33-.07-.05-.17-.04-.22.03-.05.07-.04.17.03.22.17.13.34.24.51.35.02.01.05.02.08.02.09 0 .16-.07.16-.15 0-.06-.03-.12-.07-.14zm-.63-3.55c.06 0 .11-.03.13-.08.1-.18.22-.35.33-.51.05-.07.04-.17-.03-.22-.07-.05-.17-.04-.22.03-.13.17-.24.35-.35.54-.04.07-.02.17.06.21.03.02.05.03.08.03zm1.97-6.22h.03c.07 0 .14-.05.15-.13.04-.18.09-.35.14-.53.03-.09-.02-.18-.11-.2s-.18.02-.2.11c-.05.18-.1.37-.14.55-.02.08.03.17.12.19l.01.01zm-.05 1.91c-.09.01-.14.09-.13.18.03.19.07.38.11.56.02.07.08.12.15.12h.04c.08-.02.14-.1.12-.19-.04-.18-.08-.36-.1-.54-.02-.08-.09-.14-.19-.13zm1.49 8.76c-.2 0-.39-.04-.59-.07-.09-.01-.17.04-.18.13-.01.09.04.17.13.18.2.03.41.06.63.08.09 0 .16-.07.16-.16s-.07-.16-.16-.16h.01zm-3.77-3.91c-.08-.03-.17.01-.2.09-.08.2-.15.4-.21.6-.02.08.02.17.11.19h.04c.07 0 .13-.05.15-.11.06-.19.13-.39.2-.58.02-.07-.01-.16-.09-.19zm1.88-2.45c-.06-.07-.15-.07-.22-.02-.16.14-.31.28-.47.43-.07.06-.07.16-.02.22.06.07.16.07.22.02l.02-.02c.14-.14.29-.28.45-.41.07-.05.08-.15.02-.22zm5.04 2.32c.09 0 .16-.07.16-.16 0-.02 0-.04-.01-.05-.05-.13-.09-.27-.13-.41-.03-.09-.12-.13-.21-.1-.08.03-.12.11-.11.19.04.15.09.29.14.43.03.07.1.11.16.1zm-.36 3.62c-.17.07-.33.13-.5.18-.09.02-.14.1-.13.19.02.08.09.14.17.13h.05c.18-.05.35-.12.53-.18.08-.03.12-.12.09-.2-.03-.08-.12-.12-.2-.09l-.01-.03zm-.42 2.8c-.05-.07-.15-.09-.22-.04s-.09.15-.04.22c.11.16.23.31.35.46.05.07.14.09.22.04.07-.05.09-.14.04-.22-.01-.01-.01-.02-.02-.03-.11-.14-.22-.28-.33-.43zm.91 1.02c-.07-.05-.17-.04-.22.02-.05.06-.05.15.01.21.14.13.29.25.44.37.07.06.16.05.22-.01.06-.07.05-.16-.01-.22 0 0-.01-.01-.02-.01-.13-.12-.29-.24-.42-.36zm-1.2-7.38l-.14-.07.08-.14c.05-.07.03-.17-.04-.22-.07-.05-.17-.03-.22.04-.01.01-.01.02-.02.03l-.07.13-.13-.08c-.07-.05-.17-.02-.22.05-.05.07-.02.17.05.22l.15.09-.07.16c-.03.08.01.17.09.2s.16-.01.2-.08l.06-.13.13.07c.08.04.17.01.21-.07.05-.07.02-.17-.06-.2zm-1.15-.54c.05-.07.04-.16-.02-.22-.13-.11-.26-.23-.39-.35-.06-.06-.16-.06-.22 0s-.06.16 0 .22c.13.13.27.25.41.36.07.07.17.06.22-.01zm.52 4.92c0-.04-.02-.09-.03-.13l.14-.02c.09-.01.14-.1.13-.18-.01-.09-.1-.14-.18-.13l-.16.03c0-.05-.01-.11-.03-.16-.01-.09-.1-.15-.18-.13-.09.01-.15.1-.13.18 0 .05.02.09.03.14h-.14c-.09.01-.15.09-.14.17.01.08.08.14.16.14l.18-.02c0 .06.03.12.04.17.02.07.08.12.15.12h.04c.08-.03.13-.1.12-.18zm.26.76c-.04-.08-.14-.11-.21-.06-.07.04-.1.11-.08.18.07.18.16.35.24.52.04.08.13.11.21.07s.11-.13.07-.21c-.08-.14-.16-.31-.23-.5z"/></svg>