<svg xmlns="http://www.w3.org/2000/svg" viewBox="0 0 32 32"><path d="M29.41 15.61l-4.8-3.97c-.25-.19-.52-.21-.73-.08-.24.16-.33.42-.22.67l.59 1.91-6.77.41c-.06-.07-.13-.15-.2-.21l.41-6.76 1.91.59c.25.11.51.02.67-.22.06-.1.19-.37-.09-.74l-3.96-4.79c-.04-.06-.13-.1-.22-.1s-.18.04-.24.11l-3.97 4.8c-.27.36-.14.63-.08.73.16.24.43.33.67.22l1.91-.59.4 6.76c-.07.06-.13.13-.19.2l-6.77-.41.59-1.91c.11-.25.03-.51-.22-.67-.2-.13-.47-.12-.74.09l-4.79 3.96c-.07.06-.11.15-.11.24s.04.18.11.24l4.8 3.97c.15.11.29.16.44.16.1 0 .2-.03.29-.09.24-.16.33-.42.22-.67l-.59-1.91 6.95-.41c.01 0 .01.01.02.01l-.41 7.26-1.91-.59c-.24-.11-.51-.02-.67.22-.07.1-.19.37.09.74l3.96 4.79c.06.07.15.11.24.11s.18-.04.24-.11l3.97-4.8c.27-.36.14-.63.08-.73-.16-.24-.42-.33-.67-.22l-1.91.59-.42-7.25c.01-.01.02-.01.02-.02l6.95.41-.59 1.91c-.11.25-.03.51.22.67.08.06.18.09.29.09.14 0 .29-.06.45-.17l4.79-3.96c.07-.06.11-.15.11-.24s-.05-.18-.12-.24zm-11.96.14c0 .28-.08.55-.23.77 0 0 0 .01-.01.01-.14.21-.33.38-.56.5-.01 0-.01.01-.02.01-.19.1-.41.16-.64.16-.23 0-.45-.06-.64-.16-.01 0-.02-.01-.03-.01-.22-.12-.41-.29-.55-.5v-.01c-.14-.22-.23-.49-.23-.77 0-.2.04-.39.12-.57.02-.05.05-.09.07-.14.1-.18.23-.33.39-.45.06-.05.12-.08.19-.12.2-.11.43-.18.68-.18.24 0 .47.07.67.17.07.04.14.08.2.12.16.12.28.27.38.43.03.05.06.1.08.15.09.19.13.39.13.59zm-2.57-8.59c-.01-.09-.05-.18-.13-.23-.08-.05-.18-.07-.27-.04l-2.17.67L16 3.11l3.68 4.45-2.17-.67c-.09-.03-.19-.01-.26.04s-.13.14-.13.23l-.41 6.81c-.22-.09-.45-.14-.7-.14-.25 0-.49.05-.71.14l-.42-6.81zm-7.57 9.8c-.09.01-.18.05-.23.13-.05.08-.07.17-.04.26l.67 2.17-4.45-3.68 4.45-3.68-.67 2.17c-.03.09-.01.19.04.27.05.08.14.13.23.13l6.87.42c-.06.19-.1.39-.1.6 0 .29.07.56.18.8l-6.95.41zm9.8 7.88c.01.09.05.18.13.23.08.05.17.07.26.04l2.17-.67L16 28.89l-3.68-4.45 2.17.67c.09.03.19.01.27-.04.08-.05.12-.14.13-.23l.42-7.32c.22.08.45.13.7.13.24 0 .47-.05.69-.13l.41 7.32zm7.18-5.31l.67-2.17c.03-.09.01-.19-.04-.26-.05-.08-.14-.12-.23-.13l-6.95-.41c.11-.24.18-.52.18-.8 0-.21-.03-.41-.1-.6l6.87-.42c.09-.01.18-.05.23-.13.05-.08.07-.18.04-.27l-.67-2.17 4.45 3.68-4.45 3.68z"/></svg>