<svg xmlns="http://www.w3.org/2000/svg" width="32" height="32" viewBox="0 0 32 32"><path d="M25.68 6.51c-7.306-1.708-9.114-1.893-9.553-1.893-.046 0-.088 0-.127.006-.038-.005-.08-.006-.127-.006-.44 0-2.25.185-9.553 1.894-.138.034-.237.157-.237.3v10.108c.002.087.348 8.774 9.863 10.46.018.004.035.005.053.005.012 0 .024 0 .037-.002 9.766-1.2 9.878-10.377 9.878-10.47V6.81c0-.14-.098-.265-.237-.298zm-.377 10.4c0 .087-.106 8.697-9.294 9.857-8.97-1.615-9.303-9.53-9.312-9.857V7.054c7.687-1.794 9.04-1.837 9.222-1.82.054.014.11.013.165-.002.183-.01 1.538.03 9.22 1.822v9.856zM15.52 7.94c-.708.083-2.648.395-7.703 1.56-.105.024-.178.117-.178.224v7.17c.028.742.508 7.287 8.317 8.785l.043.003c.01 0 .02 0 .03-.002 5.435-.752 7.322-4.247 7.98-6.595v-.003c.33-1.178.35-2.066.35-2.17V11.87l.007-.01-.006-.002V9.726c0-.107-.073-.2-.177-.224-5.06-1.166-6.994-1.477-7.722-1.56h-.942zm8.382 5.19v3.778s-.09 2.293-1.104 3.958l-.316.53s-.606.934-1.228 1.48l-.43.375c-1.136.925-2.688 1.668-4.818 1.97-1.496-.292-2.704-.777-3.687-1.37 6.487-4.557 10.137-9.208 11.58-11.295v.575zm-2.064-3.688c.62.137 1.306.29 2.063.465v1.53l-.06.108c-.964 1.504-4.673 6.796-12.072 11.944-.093-.067-.188-.132-.276-.2l-.487-.4c-.463-.41-.853-.847-1.18-1.29l-.31-.445c7.142-5 10.937-10.19 12.002-11.782l.32.07zm-.965-.21c-1.21 1.764-4.916 6.656-11.673 11.396-.97-1.763-1.088-3.405-1.102-3.743l.006-2.924v-.722l-.006-3.33 1.995-.45s4.927-.996 5.45-1.058h.89c.52.06 1.734.25 4.438.83z"/></svg>