<svg xmlns="http://www.w3.org/2000/svg" width="32" height="32" viewBox="0 0 32 32"><path d="M25.106 15.037c.037-.14-.022-.287-.156-.353l-2.818-1.38c-.042-.02-.088-.03-.134-.03h-11.57c-.042 0-.083.008-.12.024l-3.245 1.38c-.142.06-.21.215-.17.36-.008.026-.017.05-.017.08v5.15c0 .17.137.307.306.307h17.634c.17 0 .307-.137.307-.306v-5.153c0-.028-.01-.054-.017-.08zm-14.618-1.15h11.438l1.888.923h-15.5l2.174-.925zm14.02 6.074H7.49V15.5h17.02v4.463zM8.62 17.715v.005c0 .232.188.42.42.42.234 0 .423-.188.423-.42v-.006-.005c0-.234-.188-.423-.42-.423-.234 0-.423.19-.423.422v.004zm1.494 0v.013c0 .233.19.422.422.422.233 0 .422-.19.422-.423v-.013-.012c0-.233-.19-.422-.422-.422-.233 0-.422.19-.422.422v.013zm13.57 1.198c0 .085-.07.153-.154.153h-.92c-.084 0-.153-.07-.153-.153V16.46c0-.085.07-.153.154-.153h.918c.085 0 .154.07.154.153v2.452zm-.92-.153h.613v-2.147h-.613v2.146zm-.92.152c0 .085-.068.153-.152.153h-.92c-.085 0-.153-.07-.153-.153V16.46c0-.085.07-.153.153-.153h.92c.085 0 .153.07.153.153v2.452zm-.92-.153h.614v-2.147h-.613v2.146z"/></svg>