<svg xmlns="http://www.w3.org/2000/svg" width="32" height="32" viewBox="0 0 32 32"><path d="M15.926 20.068c-2.372 0-4.718-.84-6.294-1.396-.565-.2-.988-.366-1.295-.443v1.478c1.226.274 3.91 1.698 4.14 2.662 1.102.094 2.25.165 3.45.165 1.187 0 2.413-.07 3.5-.16.225-.955 3.01-2.363 4.236-2.658V18.24c-.306.08-.81.237-1.326.42-1.577.56-4.018 1.407-6.41 1.407zm0 2.773c-2.355 0-4.69-.27-6.26-.45-.58-.067-1.023-.123-1.33-.148v1.88h15.327v-1.876c-.306.026-.83.078-1.36.14-1.57.18-4 .455-6.376.455zm3.87-.495c.94-.085 1.758-.183 2.454-.263.563-.065 1.107-.117 1.413-.142v-1.915c-1.226.287-3.54 1.614-3.868 2.32zM22.1 7.265H9.583l-.985.92h14.43l-.928-.92zm-17.134 7.05h1.226V10.94H4.966v3.372zm7.164 8.026c-.337-.714-2.566-2.058-3.793-2.325v1.92c.306.025.788.08 1.4.15.68.08 1.477.174 2.393.257zm13.678-8.026h1.226v-3.372h-1.226v3.372zm-17.47 3.6c0 .026.305.065.305.113V10.39c0-.086.034-.06.12-.06h14.175c.085 0 .418-.025.418.06v7.655c0-.05.306-.09.306-.12V8.798H8.336v9.117zm7.584 1.848c2.34 0 4.727-.837 6.285-1.39.236-.084.517-.16.714-.227 0-.006.13-.01.13-.016v-7.494H8.95v7.49c.306.074.47.16.743.258 1.557.55 3.91 1.378 6.23 1.378zm11.725-9.245v4.048c0 .17-.39.362-.558.362H25.35c-.17 0-.157-.193-.157-.362v-3.317h-.92V24.18c0 .17-.287.555-.456.555h.15v.247c0 .17-.364.366-.534.366H20.6c-.17 0-.31-.197-.31-.366v-.247h-8.888v.247c0 .17-.11.366-.278.366H8.29c-.17 0-.26-.197-.26-.366v-.247h-.15c-.17 0-.156-.384-.156-.554V11.25h-.92v3.317c0 .17-.236.362-.405.362H4.66c-.17 0-.31-.193-.31-.362v-4.048c0-.17.14-.187.31-.187H6.4c.17 0 .404.018.404.187v.425h.92V7.91l1.52-1.185c.055-.046.155-.074.227-.074h12.794c.116 0 .193.003.25.053l1.537 1.29c.038.033.1.073.117.116.02.04.11.085.11.133v2.7h.92v-.427c0-.17-.014-.187.156-.187h1.737c.17 0 .558.017.558.187zm-18.504 10c.394 0 .715.32.715.715s-.32.715-.715.715-.715-.32-.715-.715.32-.715.715-.715zm0 1.124c.225 0 .41-.183.41-.408s-.184-.41-.41-.41-.41.185-.41.41.184.41.41.41zm1.328.448c-.273 0-.496-.218-.496-.485s.223-.486.497-.486c.275 0 .498.218.498.486s-.223.485-.497.485zm0-.664c-.104 0-.19.08-.19.18 0 .097.087.178.19.178s.19-.08.19-.18c0-.098-.085-.178-.19-.178zm12.392-.907c.394 0 .715.32.715.715s-.32.715-.715.715c-.394 0-.715-.32-.715-.715s.32-.715.715-.715zm0 1.124c.225 0 .41-.183.41-.408s-.185-.41-.41-.41-.41.185-.41.41.184.41.41.41zm-1.328-.523c.274 0 .497.218.497.486s-.222.485-.496.485-.497-.218-.497-.485.222-.486.497-.486zm0 .665c.105 0 .19-.08.19-.18 0-.098-.085-.178-.19-.178s-.19.08-.19.18c0 .097.085.178.19.178z"/></svg>