<svg xmlns="http://www.w3.org/2000/svg" viewBox="0 0 32 32"><path d="M28.09 23.49l-2.39-2.98c-.03-.33-.19-.62-.43-.82.26-.23.43-.56.43-.93V8.32c0-.68-.56-1.24-1.24-1.24H7.72c-.68 0-1.24.56-1.24 1.24v10.44c0 .37.17.7.43.93-.23.2-.39.49-.43.82L3.9 23.49c-.05.06-.07.13-.07.2 0 .82.31 1.24.93 1.24h22.46c.62 0 .93-.42.93-1.24.01-.08-.01-.15-.06-.2zm-21-4.73V8.32c0-.35.28-.63.63-.63h16.75c.35 0 .63.28.63.63v10.44c0 .35-.28.63-.63.63H7.72c-.35-.01-.63-.29-.63-.63zm20.14 5.55H4.77c-.13 0-.3 0-.32-.52l2.57-2.97c.05-.06.07-.13.07-.2 0-.35.28-.63.63-.63h16.75c.35 0 .63.28.63.63 0 .07.02.14.07.19l2.38 2.97c-.02.53-.19.53-.32.53zM23.65 8.4h-7.08c0-.02.01-.04.01-.06 0-.27-.22-.48-.48-.48s-.48.22-.48.48c0 .02 0 .04.01.06H8.55c-.42 0-.77.37-.77.82v8.76c0 .45.34.82.77.82h15.1c.42 0 .76-.37.76-.82V9.22c0-.45-.34-.82-.76-.82zm.31 9.58c0 .2-.14.36-.31.36H8.55c-.17 0-.31-.16-.31-.36V9.22c0-.2.14-.36.31-.36h15.1c.17 0 .31.16.31.36v8.76zM7.58 20.76c0-.08.07-.15.15-.15h16.76c.08 0 .15.07.15.15 0 .08-.07.15-.15.15H7.73c-.08.01-.15-.06-.15-.15zm-.55 1.04c0-.08.07-.15.15-.15h17.78c.08 0 .15.07.15.15 0 .08-.07.15-.15.15H7.18c-.08 0-.15-.07-.15-.15zm-.74.88h19.27c.08 0 .15.07.15.15 0 .08-.07.15-.15.15H6.29c-.09 0-.15-.07-.15-.15-.01-.08.06-.15.15-.15zm15.67-11.6c.05.07.03.16-.04.21l-4.41 2.96c-.03.02-.06.03-.09.03-.05 0-.1-.02-.13-.07-.05-.07-.03-.16.04-.21l4.41-2.96c.08-.04.18-.03.22.04zm-2.23 2.65c.05.07.03.17-.04.21L16.2 16.3c-.03.02-.06.03-.09.03-.05 0-.1-.02-.13-.07-.05-.07-.03-.17.04-.21l3.49-2.36c.08-.05.18-.03.22.04z"/></svg>