<svg xmlns="http://www.w3.org/2000/svg" viewBox="0 0 31.68 31.68"><path d="M13.19 11.62c1.87 0 3.4-1.52 3.4-3.4 0-1.87-1.53-3.4-3.4-3.4-1.87 0-3.4 1.53-3.4 3.4 0 1.87 1.53 3.4 3.4 3.4zm0-6.31c1.61 0 2.91 1.31 2.91 2.91s-1.31 2.91-2.91 2.91-2.91-1.31-2.91-2.91c0-1.61 1.31-2.91 2.91-2.91zM25.3 13.84h-6.51c-.73-.9-1.94-1.57-3.97-1.57h-3.26c-4.73 0-5.02 3.47-5.17 5.34l-.24 3.01v.02c0 1.71.99 2.58 2.1 3.39l.28.21-.07 1.19.18.16c.42.35 1.51.93 4.17.98v.07c0 .12.1.22.22.22H25.3c.12 0 .22-.1.22-.22V14.06c0-.12-.1-.22-.22-.22zm-12.48.22v12.02c-2.6-.05-3.56-.62-3.86-.87.01-.02.01-.04.01-.06l.47-7.98c0-.12-.1-.22-.22-.22s-.21.1-.21.22l-.47 6.46c-1.13-.83-1.9-1.55-1.9-2.99l.24-2.99c.18-2.25.64-4.89 4.68-4.89h3.26c1.58 0 2.61.43 3.29 1.08h-5.07c-.12 0-.22.1-.22.22zm12.26 12.36H13.26V14.28h11.83v12.14z"/><path d="M16.37 14.99c-.03-.1-.09-.3-.26-.4-.1-.06-.21-.07-.33-.03-.18.06-.31.18-.38.35-.01.02-.02.05-.02.08h-1.52c-.09 0-.16.07-.16.16v10.51c0 .09.07.16.16.16h10.52c.09 0 .16-.07.16-.16v-10.5c0-.09-.07-.16-.16-.16h-1.47c-.03-.1-.09-.3-.26-.4-.1-.06-.21-.07-.33-.03-.18.06-.31.18-.38.35-.01.02-.02.05-.02.08h-5.55zm7.85 10.52h-10.2V17.2H24.21v8.31zm-2.3-10.19c.04.39.26.79.3.85.04.07.11.11.19.11.04 0 .07-.01.11-.03.1-.06.14-.19.08-.3-.08-.14-.2-.41-.23-.63h1.87v1.55H14.03v-1.55h1.34c.04.39.26.79.29.85.04.07.11.11.19.11.04 0 .07-.01.11-.03.1-.06.14-.19.08-.3-.08-.14-.2-.41-.23-.63h6.11z"/><path d="M16.21 15.9c.04.1.05.2.01.3-.04.1-.11.18-.2.22-.1.04-.2.05-.3.01-.1-.04-.18-.11-.22-.21-.03-.06-.04-.12-.03-.19 0-.06-.04-.11-.1-.12-.06 0-.11.04-.12.1-.01.1.01.2.05.29.07.15.19.26.34.32.07.03.14.04.22.04.09 0 .17-.02.25-.05.15-.07.26-.19.32-.34.06-.15.05-.32-.02-.47-.04-.09-.1-.17-.18-.23-.05-.04-.12-.03-.15.02-.04.05-.03.12.02.15.05.06.09.11.11.16zM22.19 16.64c.07.03.14.04.22.04.09 0 .17-.02.25-.05.15-.07.26-.19.32-.34.06-.15.05-.32-.02-.47-.04-.09-.1-.17-.18-.23-.05-.04-.12-.03-.15.02-.04.05-.03.12.02.15.05.04.09.09.12.15.04.1.05.2.01.3-.04.1-.11.18-.21.22-.1.04-.2.05-.3.01-.1-.04-.18-.11-.22-.21-.03-.06-.04-.12-.03-.19 0-.06-.04-.11-.1-.12-.06-.01-.11.04-.12.1-.01.1.01.2.05.29.06.16.18.27.34.33zM19.74 21.71c-.05-.14-.12-.26-.21-.36-.09-.1-.2-.18-.31-.24l-.12-.06c.02-.01.03-.02.05-.03.09-.06.17-.14.24-.23.07-.09.12-.19.16-.3.04-.12.06-.25.06-.4 0-.28-.05-.53-.16-.73-.11-.2-.26-.37-.45-.49s-.42-.21-.68-.27c-.04-.01-.08-.01-.13-.02-.13-.02-.27-.04-.42-.05-.1-.01-.2-.01-.31-.01-.23 0-.44.02-.64.05-.19.03-.38.08-.54.15-.16.06-.32.13-.46.22-.14.08-.27.17-.39.27-.05.04-.06.1-.02.15l.67.92c.04.05.1.06.15.02.19-.13.38-.24.57-.31.19-.07.4-.11.63-.11.16 0 .27.01.34.03.06.02.11.04.14.05.08.05.11.12.11.22 0 .09-.01.21-.08.25-.02.02-.08.04-.17.05-.06.01-.13.02-.23.02h-.64c-.06 0-.11.05-.11.11v1.1c0 .06.05.11.11.11h.73c.06 0 .1 0 .15.01.19.01.3.05.35.08.03.02.06.06.07.09.02.05.04.11.04.19 0 .07-.01.13-.04.18-.02.04-.06.08-.1.11-.07.05-.18.08-.32.09-.08.01-.16.02-.26.02-.27 0-.51-.05-.74-.14-.23-.09-.44-.22-.64-.37-.05-.04-.12-.03-.15.02l-.73.91c-.04.05-.03.11.01.15.28.25.62.45.98.59.37.14.78.21 1.23.21.1 0 .2-.01.29-.01.19-.01.38-.03.55-.07.04-.01.08-.01.11-.02.29-.07.54-.18.74-.32.21-.15.37-.34.48-.57.06-.12.1-.25.13-.4.03-.13.04-.27.04-.41 0-.12-.02-.22-.04-.32-.01-.03-.02-.08-.04-.13zm-.28 1.18c0 .01-.01.01 0 0-.1.2-.24.36-.41.49-.14.1-.32.18-.52.24-.05.02-.09.04-.15.05-.18.04-.39.07-.61.08-.1.01-.19.01-.29.01-.42 0-.81-.07-1.15-.2-.31-.12-.59-.28-.84-.48l.59-.75c.19.14.4.25.61.34.25.1.52.15.82.15.1 0 .18-.01.26-.01.18-.02.32-.06.42-.12 0 0 .01 0 .01-.01.16-.1.25-.27.25-.48 0-.22-.07-.37-.21-.47-.01-.01-.03-.02-.05-.02-.1-.05-.24-.09-.42-.1-.05 0-.09-.01-.15-.01H17v-.88h.54c.09 0 .16-.01.23-.01.13-.02.23-.05.3-.09.06-.04.1-.09.12-.16.03-.07.05-.16.05-.27 0-.08-.02-.15-.05-.22-.04-.07-.09-.13-.16-.18-.07-.04-.15-.07-.26-.09-.1-.02-.21-.03-.34-.03-.26 0-.5.04-.71.12-.18.07-.36.16-.53.27l-.54-.74c.09-.07.19-.13.28-.19.13-.08.28-.14.43-.2.15-.06.32-.1.5-.14.18-.03.38-.05.6-.05.11 0 .21.01.31.01.15.01.29.03.42.05.03 0 .06.01.08.01.23.05.44.13.61.24.16.11.29.24.38.41.09.17.13.38.13.63 0 .13-.02.24-.05.33-.04.1-.08.18-.13.25s-.12.13-.19.18c-.08.05-.16.1-.24.14-.04.02-.07.06-.06.11.01.05.04.08.08.09.11.03.21.07.32.12.1.05.18.11.25.19s.13.18.17.29c.03.09.05.19.06.3 0 .03.01.06.01.09-.01.27-.05.51-.15.71zM20.28 19.28h-.03c-.06 0-.1.05-.1.11v.89c0 .06.05.11.11.11h.75v3.39c0 .06.05.11.11.11h1.38c.06 0 .11-.05.11-.11V18.7c0-.06-.05-.11-.11-.11h-1.18c-.05 0-.09.03-.1.08-.04.11-.08.2-.13.28-.04.07-.1.13-.17.17-.04.03-.1.05-.16.07-.03.01-.07.02-.11.03-.1.04-.22.05-.37.06zm.48.15c.1-.03.2-.07.28-.12.1-.06.18-.14.24-.24.05-.07.09-.16.12-.25h.99v4.86h-1.16v-3.39c0-.06-.05-.11-.11-.11h-.75v-.68c.13-.01.24-.03.34-.05.01-.01.03-.02.05-.02z"/></svg>