<svg data-name="Layer 1" xmlns="http://www.w3.org/2000/svg" viewBox="0 0 36 36"><title>Icon-Red_Hat-Mobile_Associate-A-Black-RGB</title><path d="M18.37 29.66a.76.76 0 0 0-.81.16.6.6 0 0 0-.16.25.67.67 0 0 0-.06.28.73.73 0 0 0 .22.53.75.75 0 0 0 1.28-.53.77.77 0 0 0-.22-.53.72.72 0 0 0-.25-.16zM24.62 29.82a.72.72 0 0 0-.25-.16.76.76 0 0 0-.81.16.77.77 0 0 0-.22.53.75.75 0 0 0 1.5 0 .67.67 0 0 0-.06-.28.72.72 0 0 0-.16-.25zM12.62 29.82a.77.77 0 0 0-.82-.16.67.67 0 0 0-.24.16.77.77 0 0 0-.22.53.75.75 0 0 0 1.5 0 .67.67 0 0 0-.06-.28.72.72 0 0 0-.16-.25zM23.19 21.61l1.64-13.16a.74.74 0 0 0-.18-.59.76.76 0 0 0-.56-.26h-12a.77.77 0 0 0-.75.85L13 21.61a2.75 2.75 0 0 0-2.65 2.74.74.74 0 0 0 .75.75h6.25v2.55h-5.26a.75.75 0 1 0 0 1.5h12a.75.75 0 0 0 0-1.5h-5.25V25.1h6.25a.75.75 0 0 0 .75-.75 2.75 2.75 0 0 0-2.65-2.74zM12.94 9.1h10.3l-1.56 12.5H14.5zm10 14.5H12.09a1.26 1.26 0 0 1 1-.5h10a1.26 1.26 0 0 1 1 .5zM15.09 7.1h6a.75.75 0 0 0 0-1.5h-6a.75.75 0 0 0 0 1.5z"/><path d="M25.09 17.6a.75.75 0 0 0-.75.75v2a.75.75 0 0 0 1.5 0v-2a.76.76 0 0 0-.75-.75zM11.09 21.1a.75.75 0 0 0 .75-.75v-2a.75.75 0 0 0-1.5 0v2a.74.74 0 0 0 .75.75z"/></svg>