<svg xmlns="http://www.w3.org/2000/svg" viewBox="0 0 36 36"><path d="M29.75 24.42l-3.313-3.206c.764-.946 1.225-2.147 1.225-3.455 0-2.004-1.08-3.756-2.683-4.72V7c0-.414-.337-.75-.75-.75H12.393c-.034 0-.337.027-.53.22l-4 4c-.195.195-.22.495-.22.53v18c0 .414.336.75.75.75H24.23c.413 0 .75-.336.75-.75v-6.522c.123-.075.245-.153.362-.236l3.365 3.256c.146.14.334.21.52.21.53 0 .75-.462.75-.75 0-.195-.076-.39-.228-.54zM11.643 8.81v1.44h-1.44l1.44-1.44zM23.48 28.25H9.143v-16.5h3.25c.414 0 .75-.336.75-.75V7.75H23.48v4.668c-.427-.106-.87-.168-1.327-.168-3.037 0-5.51 2.472-5.51 5.51s2.473 5.508 5.51 5.508c.458 0 .9-.062 1.326-.168v5.15zm-1.328-6.483c-2.21 0-4.01-1.798-4.01-4.01s1.8-4.008 4.01-4.008c2.208 0 4.01 1.793 4.01 4.01 0 1.8-1.51 4.007-4.01 4.007z"/></svg>