<svg xmlns="http://www.w3.org/2000/svg" width="32" height="32" viewBox="0 0 32 32"><path d="M25.752 26.44c-1.004 0-1.822-.817-1.822-1.82 0-1.005.817-1.823 1.822-1.823s1.822.817 1.822 1.822c0 1.003-.817 1.82-1.822 1.82zM6.152 7.148c0-1.004.817-1.822 1.822-1.822 1.004 0 1.82.818 1.82 1.822s-.816 1.82-1.82 1.82c-1.005 0-1.822-.816-1.822-1.82zm7.97 0c0-1.004.817-1.822 1.822-1.822 1.004 0 1.82.818 1.82 1.822s-.816 1.82-1.82 1.82c-1.005 0-1.822-.816-1.822-1.82zm11.63 7.986c1.004 0 1.822.817 1.822 1.822 0 1.004-.817 1.82-1.822 1.82s-1.822-.816-1.822-1.82.817-1.822 1.822-1.822zm0 7.05c-1.284 0-2.335 1-2.426 2.26h-6.954c-.04-.015-.13-.16-.13-.333v-6.716h7.117c.206 1.134 1.2 1.997 2.392 1.997 1.343 0 2.435-1.09 2.435-2.433 0-1.342-1.092-2.435-2.435-2.435-1.284 0-2.335 1-2.426 2.26H16.24v-7.22c1.204-.146 2.138-1.172 2.138-2.413 0-1.344-1.092-2.436-2.434-2.436S13.51 5.806 13.51 7.15c0 1.234.925 2.255 2.118 2.41v7.223H8.945c-.216 0-.557-.082-.673-.157V9.564C9.474 9.417 10.41 8.39 10.41 7.15c0-1.343-1.093-2.435-2.435-2.435S5.54 5.807 5.54 7.15c0 1.235.926 2.256 2.12 2.412v7.128c0 .586 1.013.706 1.285.706h6.683v6.718c0 .454.283.945.74.945h6.99c.208 1.133 1.2 1.996 2.394 1.996 1.343 0 2.435-1.092 2.435-2.434 0-1.343-1.093-2.435-2.435-2.435z"/></svg>