<svg xmlns="http://www.w3.org/2000/svg" width="32" height="32" viewBox="0 0 32 32"><path d="M21.234 18.796c-.127 0-.23.103-.23.23 0 2.998-2.44 5.436-5.437 5.436-.127 0-.23.103-.23.23s.103.23.23.23c3.25 0 5.896-2.645 5.896-5.896 0-.127-.103-.23-.23-.23zM23.2 16.05c1.187-.826 1.887-2.155 1.887-3.61 0-.324-.014-.714-.178-1.236-.09-.306-.212-.6-.368-.884l-.013-.024c-.212-.412-.643-1.008-1.142-1.698-.81-1.12-1.813-2.51-2.227-3.618l-.017-.052c-.08-.18-.26-.296-.455-.296s-.374.116-.455.296l-.017.045c-.375 1.03-1.305 2.344-2.097 3.442-1.024-1.57-1.703-2.838-2.073-3.867l-.014-.037c-.11-.25-.36-.41-.63-.41-.272 0-.52.16-.63.41l-.015.04c-.798 2.218-2.854 5.066-4.507 7.354-.99 1.37-1.844 2.554-2.265 3.376-.31.554-.556 1.144-.732 1.75-.314 1.01-.34 1.76-.34 2.382 0 4.682 3.808 8.49 8.49 8.49s8.492-3.81 8.492-8.49c0-.625-.027-1.377-.342-2.386-.095-.326-.213-.654-.352-.976zm-4.717-7.09c.783-1.085 1.744-2.415 2.206-3.515.473 1.116 1.425 2.434 2.202 3.51.478.663.892 1.236 1.086 1.607l.02.038c.134.242.243.503.325.78.14.446.15.768.15 1.06 0 1.284-.64 2.453-1.713 3.158l-4.376-6.5.1-.14zm-3.08 18.328c-4.344 0-7.878-3.534-7.878-7.878 0-.578.024-1.27.315-2.204.165-.567.394-1.115.68-1.628l.018-.036c.393-.762 1.235-1.93 2.21-3.28 1.675-2.318 3.76-5.205 4.585-7.502.01-.022.034-.048.07-.048.032 0 .055.02.067.04l.002.005c.413 1.15 1.153 2.51 2.32 4.27l-.007.005 4.745 7.05.007-.007c.172.368.316.745.428 1.127.29.932.316 1.63.316 2.208.002 4.343-3.533 7.877-7.877 7.877z"/></svg>