<svg xmlns="http://www.w3.org/2000/svg" viewBox="0 0 32 32"><path d="M24.14 13.9c-.15-.16-.35-.24-.6-.25h-.84c-.65-.04-1.08.17-1.24.62l-.85 2.06c-.11-.04-.23-.06-.36-.06h-2.68v-1.21h1.76c.06 0 .12 0 .17-.01.46-.05.89-.27 1.22-.64.34-.38.53-.86.55-1.38.01-.02.01-.05.01-.08 0-.02 0-.04-.01-.07 0-.05 0-.11-.01-.16l-.6-5.83c-.12-1.22-.58-2.33-1.27-3.13-.73-.84-1.65-1.29-2.68-1.29h-1.46c-1.03 0-1.95.45-2.68 1.29-.69.8-1.15 1.92-1.27 3.13l-.6 5.83c-.01.08-.01.15-.01.23v.04c.01.53.21 1.03.56 1.42.33.36.76.59 1.22.64.06.01.12.01.17.01h1.76v1.21h-2.68c-.13 0-.25.02-.36.05l-.84-2.03c-.16-.43-.52-.64-1.09-.64h-.14-.85c-.24.01-.45.09-.6.25-.29.31-.28.79-.27.99v.05c-.01.31.29.38.87.54.15.04.35.09.46.13l1.21 3.25c.05.42.2.82.45 1.16l.02.02c.37.48.9.76 1.46.76h2.25c0 .03.01.06.01.08l-.01 1.59c0 .32.24.58.58.67l-.01.6c0 .39.36.7.82.71v.65h-.02c-2.18.11-3.73 1.68-4.28 2.33-.07-.02-.15-.04-.23-.04-.45 0-.81.36-.81.81 0 .45.36.81.81.81.45 0 .81-.36.81-.81 0-.14-.04-.27-.1-.38.5-.58 1.92-2 3.83-2.1v2.11c-.34.12-.58.45-.58.83 0 .49.4.88.88.88.49 0 .88-.4.88-.88 0-.38-.24-.7-.58-.83v-2.09c1.28.12 2.56.85 3.81 2.17-.05.1-.08.22-.08.34 0 .45.36.81.81.81.45 0 .81-.36.81-.81 0-.45-.36-.81-.81-.81-.1 0-.19.02-.28.05-1.38-1.45-2.81-2.25-4.26-2.37v-.66c.46-.01.82-.32.82-.71l-.01-.6c.34-.09.58-.35.58-.67l-.01-1.58c0-.03 0-.06.01-.08h2.25c.56 0 1.09-.28 1.46-.76l.03-.03c.24-.33.39-.72.44-1.15l1.21-3.25c.11-.04.31-.09.46-.13.6-.16.88-.23.87-.54v-.05c.02-.22.03-.71-.26-1.01zM11.01 28.08c-.03.03-.05.08-.05.12 0-.04.02-.08.05-.12zm.15.32c.06 0 .12-.03.15-.08-.04.05-.09.08-.15.08zm.18-.12zm.01-.08c0-.05-.02-.1-.06-.14.04.04.06.09.06.14zm9.67.14c.01-.03.03-.06.03-.09l-.03.09zm-.17-.29c.09 0 .17.07.19.15-.03-.08-.1-.15-.19-.15-.07 0-.13.04-.17.1.03-.06.09-.1.17-.1zm-.2.2c0 .01 0 .02.01.04-.01-.02-.01-.03-.01-.04zm-7.99-13.81c-.04 0-.08 0-.11-.01-.3-.03-.6-.19-.82-.44-.26-.28-.4-.65-.4-1.05v-.03c0-.04 0-.09.01-.13l.6-5.83c.11-1.1.51-2.09 1.12-2.8.61-.7 1.37-1.08 2.22-1.08h1.46c.84 0 1.61.37 2.22 1.08.61.71 1.01 1.7 1.12 2.8l.6 5.83c0 .05.01.09.01.13v.03c0 .39-.14.77-.4 1.05-.22.25-.52.41-.82.44-.04 0-.08.01-.11.01h-2.07c-.17 0-.31.14-.31.31v1.51h-1.93v-1.51c0-.17-.14-.31-.31-.31h-2.08zm-2.39 3.06l-.82-2.2c-.08-.21-.3-.27-.84-.41-.13-.03-.3-.08-.41-.11 0-.15.02-.36.11-.45.02-.02.06-.06.17-.06.14 0 .84 0 .86-.01h.12c.39 0 .47.12.52.25l.88 2.12c-.22.19-.41.48-.59.87zm5.46 11.15c0-.07.03-.14.08-.19-.05.05-.08.11-.08.19zm.54 0c0-.07-.03-.14-.08-.19.05.05.08.11.08.19zm.02-4.81h-.58c-.15 0-.23-.08-.23-.09l.01-.57h1.02v.56c.01.03-.07.1-.22.1zm.58-1.27h-1.74c-.15 0-.22-.08-.22-.09l.01-1.59c0-.03 0-.05-.01-.08h2.18c0 .03-.01.06-.01.09l.01 1.58c0 .01-.07.09-.22.09zm4.08-2.93l-.02.03c-.25.33-.6.52-.98.52H12.05c-.37 0-.72-.18-.98-.52l-.01-.01c-.14-.2-.24-.43-.3-.68.28.21.64.31.98.31h8.51c.34 0 .7-.11.98-.31-.05.24-.15.47-.28.66zm-.69-.82h-8.51c-.42 0-1.09-.27-1.12-1 .4-.91.73-1.09 1.12-1.09h8.51c.4 0 .69.29 1.12 1.1-.04.72-.7.99-1.12.99zm3.13-3.93c-.54.14-.76.2-.84.41l-.82 2.21c-.17-.32-.36-.62-.58-.85l.9-2.17c.04-.12.12-.24.51-.24h.98c.1 0 .14.03.17.06.09.1.11.31.11.45-.13.05-.3.09-.43.13zm-4.04-1.14h.03c.13-.01.27-.09.38-.21.08-.09.22-.28.22-.58v-.06s0-.01-.6-5.87c-.1-.95-.44-1.81-.96-2.41-.48-.55-1.05-.83-1.69-.83h-1.46c-.64 0-1.21.28-1.69.84-.52.6-.86 1.46-.96 2.41-.6 5.85-.6 5.86-.6 5.87v.05c0 .3.14.49.22.59.11.12.25.2.38.21l6.73-.01c-.01 0 0 0 0 0zm-6.71-.31c-.04 0-.11-.04-.18-.11-.05-.06-.14-.18-.14-.38v-.03c.01-.06.6-5.86.6-5.86.09-.89.41-1.69.89-2.24.42-.49.91-.73 1.46-.73h1.46c.55 0 1.04.24 1.46.73.48.55.8 1.35.89 2.25 0 0 .6 5.8.6 5.84v.05c0 .2-.09.32-.14.38-.07.08-.14.11-.18.11l-6.72-.01z"/></svg>