<svg xmlns="http://www.w3.org/2000/svg" viewBox="0 0 36 36"><title>Icon-Red_Hat-Diagrams-Graph_Arrow_Up-A-Black-RGB</title><path d="M29 10.77a.76.76 0 0 0 .75-.75V7a.75.75 0 0 0-.75-.73H7a.74.74 0 0 0-.75.73v14a.75.75 0 0 0 1.5 0V7.77h20.5V10a.75.75 0 0 0 .75.77zM7 26.27a.74.74 0 0 0-.75.75v2a.75.75 0 0 0 .75.75h22a.76.76 0 0 0 .75-.75V17a.75.75 0 1 0-1.5 0v11.27H7.75V27a.75.75 0 0 0-.75-.73z"/><path d="M30.47 10.87l-12 11.84-5-5a.74.74 0 0 0-1.05 0l-6.95 6.77A.75.75 0 0 0 6 25.77a.74.74 0 0 0 .52-.22l6.41-6.29 5 5a.75.75 0 0 0 1.06 0l12.5-12.36a.75.75 0 0 0 0-1.06.75.75 0 0 0-1.02.03zM11.25 10v4a.75.75 0 0 0 1.5 0v-4a.75.75 0 0 0-1.5 0z"/><path d="M17.25 10v8a.75.75 0 0 0 1.5 0v-8a.75.75 0 0 0-1.5 0zM23.25 10v4a.75.75 0 0 0 1.5 0v-4a.75.75 0 1 0-1.5 0z"/></svg>