<svg data-name="collaboration" xmlns="http://www.w3.org/2000/svg" viewBox="0 0 36 36"><title>Icon-Red_Hat-</title><path d="M30 6.77H6a.76.76 0 0 0-.75.75v6a.75.75 0 0 0 .75.75h3.19L11 16.05a.75.75 0 0 0 1.06 0l1.78-1.78h8.38L24 16.05a.75.75 0 0 0 1.06 0l1.78-1.78H30a.75.75 0 0 0 .75-.75v-6a.76.76 0 0 0-.75-.75zm-.75 6H26.5a.75.75 0 0 0-.5.23l-1.5 1.46L23 13a.75.75 0 0 0-.53-.22h-9A.75.75 0 0 0 13 13l-1.5 1.46L10 13a.75.75 0 0 0-.53-.22H6.75V8.27h22.5zM27 22.75a3.45 3.45 0 0 0 1-2.49 3.49 3.49 0 1 0-5.93 2.49 6.24 6.24 0 0 0-3.79 5.73.76.76 0 0 0 .75.75H30a.76.76 0 0 0 .75-.75A6.23 6.23 0 0 0 27 22.75zm-2.44-4.48a2 2 0 1 1-2 2 2 2 0 0 1 1.96-2zm-4.67 9.46a4.73 4.73 0 0 1 9.34 0zm-5.93-5a3.49 3.49 0 1 0-4.88 0 6.23 6.23 0 0 0-3.79 5.73.76.76 0 0 0 .75.75H17a.76.76 0 0 0 .75-.75 6.24 6.24 0 0 0-3.83-5.71zm-2.44-4.48a2 2 0 1 1-2 2 2 2 0 0 1 1.96-1.98zm-4.71 9.48a4.73 4.73 0 0 1 9.34 0z"/></svg>