<svg data-name="Layer 1" xmlns="http://www.w3.org/2000/svg" viewBox="0 0 36 36"><title>Icon-Red_Hat-Software_and_technologies-Unsecured-A-Black-RGB</title><path d="M22.75 27.46a8.12 8.12 0 0 1-2.73.47 8.26 8.26 0 0 1-8.27-7.68V16.5a.75.75 0 0 0-1.5 0v3.8a9.79 9.79 0 0 0 13 8.58.75.75 0 1 0-.5-1.42zm7-18.81a.75.75 0 0 0-.58-.73l-9-2.15a.65.65 0 0 0-.34 0l-9 2.16a.75.75 0 0 0-.58.73v1L7.53 7a.75.75 0 0 0-1.06 1l22 22a.75.75 0 0 0 1.06 0 .75.75 0 0 0 0-1.06L27 26.46a9.65 9.65 0 0 0 2.73-6.2zM26 25.4L11.75 11.19V9.25l8.25-2 8.25 2v11A8.14 8.14 0 0 1 26 25.4z"/></svg>