<svg xmlns="http://www.w3.org/2000/svg" width="32" height="32" viewBox="0 0 32 32"><path d="M28.864 23.656l-2.387-2.978c-.03-.328-.19-.617-.426-.822.263-.227.432-.56.432-.932V8.488c0-.684-.556-1.24-1.24-1.24H8.492c-.684 0-1.24.556-1.24 1.24v10.437c0 .373.17.705.43.932-.233.203-.392.49-.424.815L4.68 23.648c-.047.056-.073.127-.073.2 0 .823.314 1.24.934 1.24H28c.618 0 .933-.417.933-1.24 0-.07-.023-.137-.067-.19zm-21-4.732V8.488c0-.346.28-.628.626-.628h16.75c.346 0 .627.282.627.628v10.437c0 .346-.28.627-.627.627H8.49c-.346 0-.627-.282-.627-.628zm20.133 5.552H5.54c-.135 0-.3 0-.32-.516l2.568-2.967c.048-.056.075-.127.075-.2 0-.347.28-.628.627-.628h16.75c.346 0 .627.28.627.628 0 .07.024.137.068.192l2.38 2.97c-.02.522-.185.522-.32.522zM24.42 8.568h-7.076c.003-.02.006-.04.006-.063 0-.266-.215-.482-.482-.482s-.482.216-.482.482c0 .022.003.042.006.063H9.316c-.422 0-.765.367-.765.818v8.758c0 .45.345.818.766.818H24.42c.422 0 .765-.367.765-.818V9.386c0-.45-.343-.818-.765-.818zm.306 9.576c0 .198-.137.36-.305.36H9.318c-.168 0-.306-.162-.306-.36V9.387c0-.198.138-.36.307-.36H24.42c.17 0 .306.162.306.36v8.757zM8.35 20.93c0-.084.068-.152.152-.152h16.76c.085 0 .153.068.153.153 0 .085-.07.154-.153.154H8.502c-.085 0-.153-.07-.153-.153zm-.55 1.036c0-.085.07-.153.154-.153H25.73c.084 0 .153.068.153.153 0 .084-.07.153-.153.153H7.954c-.085 0-.154-.07-.154-.155zm-.744.88h19.267c.085 0 .153.07.153.154 0 .084-.07.153-.153.153H7.056c-.085 0-.153-.07-.153-.153 0-.085.068-.154.153-.154zm15.677-11.594c.047.07.03.165-.04.212l-4.414 2.963c-.027.018-.057.026-.087.026-.05 0-.097-.024-.126-.068-.047-.07-.03-.165.04-.212l4.414-2.963c.07-.047.166-.03.214.04zm-2.23 2.643c.048.07.03.166-.04.213l-3.494 2.36c-.027.02-.057.027-.087.027-.05 0-.098-.024-.127-.068-.048-.07-.03-.166.04-.213l3.495-2.36c.07-.048.167-.03.214.04z"/></svg>