<svg xmlns="http://www.w3.org/2000/svg" viewBox="0 0 32 32"><path d="M24.89 26.56c-1 0-1.82-.82-1.82-1.82s.82-1.82 1.82-1.82 1.82.82 1.82 1.82-.82 1.82-1.82 1.82zM5.29 7.26c0-1 .82-1.82 1.82-1.82s1.82.82 1.82 1.82-.82 1.82-1.82 1.82-1.82-.81-1.82-1.82zm7.97 0c0-1 .82-1.82 1.82-1.82s1.82.82 1.82 1.82-.82 1.82-1.82 1.82-1.82-.81-1.82-1.82zm11.63 7.99c1 0 1.82.82 1.82 1.82s-.82 1.82-1.82 1.82-1.82-.82-1.82-1.82.81-1.82 1.82-1.82zm0 7.05c-1.28 0-2.34 1-2.43 2.26h-6.95c-.04-.01-.13-.16-.13-.33v-6.72h7.12c.21 1.13 1.2 2 2.39 2 1.34 0 2.43-1.09 2.43-2.43s-1.09-2.43-2.43-2.43c-1.28 0-2.33 1-2.43 2.26h-7.09V9.68c1.2-.15 2.14-1.17 2.14-2.41 0-1.34-1.09-2.43-2.43-2.43s-2.43 1.09-2.43 2.43c0 1.23.93 2.26 2.12 2.41v7.22H8.08c-.22 0-.56-.08-.67-.16V9.68c1.2-.15 2.14-1.17 2.14-2.41 0-1.34-1.09-2.43-2.43-2.43S4.68 5.92 4.68 7.27c0 1.23.93 2.26 2.12 2.41v7.13c0 .59 1.01.71 1.29.71h6.68v6.72c0 .45.28.94.74.94h6.99c.21 1.13 1.2 2 2.39 2 1.34 0 2.43-1.09 2.43-2.43 0-1.36-1.09-2.45-2.43-2.45z"/></svg>