<svg data-name="Layer 1" xmlns="http://www.w3.org/2000/svg" viewBox="0 0 36 36"><title>Icon-Red_Hat-Objects-Envelope-A-Black-RGB</title><path d="M28.73 10.4a.58.58 0 0 0 0-.18.42.42 0 0 0-.09-.14.53.53 0 0 0-.06-.1 1 1 0 0 0-.17-.12h-.16a.65.65 0 0 0-.2 0H8a.63.63 0 0 0-.22.05h-.07l-.1.07a.65.65 0 0 0-.15.1.53.53 0 0 0-.06.1.42.42 0 0 0-.09.14.58.58 0 0 0 0 .18v15.1a.76.76 0 0 0 .75.75H28a.76.76 0 0 0 .75-.75v-15s-.02-.17-.02-.2zm-2.61.85L18 19l-8.12-7.75zm-17.37 1l5.57 5.29-1.44 1.36-4.13 3.87zm.08 12.5L13.9 20l1.51-1.42 2.07 2a.75.75 0 0 0 1 0l2.07-2 6.58 6.17zm18.42-2l-5.57-5.23 5.57-5.29z"/></svg>