<svg xmlns="http://www.w3.org/2000/svg" width="32" height="32" viewBox="0 0 32 32"><path d="M16.474 10.452c2.346 0 4.255-1.91 4.255-4.255 0-2.346-1.91-4.254-4.256-4.254s-4.255 1.91-4.255 4.254c0 2.346 1.908 4.255 4.254 4.255zm0-7.896c2.008 0 3.642 1.634 3.642 3.64 0 2.01-1.634 3.643-3.642 3.643s-3.642-1.635-3.642-3.643 1.634-3.64 3.642-3.64zm2.333 8.72H14.14c-4.338 0-6.726 2.39-6.726 6.727v3.746c0 2.124 1.41 3.16 2.906 4.26l.198.146v1.4c0 .074.027.146.077.202.292.332 1.58 1.413 5.88 1.413s5.587-1.08 5.88-1.412c.05-.056.077-.128.077-.203v-1.4l.197-.143c1.494-1.1 2.907-2.137 2.907-4.262v-3.747c0-4.338-2.39-6.726-6.727-6.726zM24.92 21.75c0 1.814-1.23 2.72-2.654 3.767v-8.114c0-.148-.12-.268-.268-.268-.148 0-.268.12-.268.268v10.1c-.44.347-1.77 1.056-5.256 1.056-3.616 0-4.91-.763-5.3-1.092.007-.024.015-.048.015-.075v-9.99c0-.148-.12-.268-.27-.268s-.267.12-.267.268v8.092c-1.412-1.04-2.626-1.944-2.626-3.745v-3.746c0-2.79 1.06-6.114 6.113-6.114h4.667c5.053 0 6.114 3.324 6.114 6.114v3.746z"/></svg>