<svg xmlns="http://www.w3.org/2000/svg" width="32" height="32" viewBox="0 0 32 32"><path d="M25.18 10.69H6.973c-.666 0-1.21.542-1.21 1.21v8.713c0 .666.543 1.208 1.21 1.208h11.14c.213.654.983 2.147 3.557 2.147h.65l-.365-.537c-.004-.006-.42-.637-.297-1.15.045-.187.16-.338.352-.46h3.17c.667 0 1.21-.54 1.21-1.207V11.9c0-.667-.543-1.21-1.21-1.21zm.522 9.922c0 .287-.234.52-.52.52h-3.353l-.078.043c-.41.223-.666.54-.762.943-.097.403-.006.814.112 1.13-2.13-.23-2.373-1.748-2.382-1.816l-.04-.3H6.975c-.287 0-.52-.233-.52-.52v-8.714c0-.288.233-.522.52-.522H25.18c.288 0 .522.234.522.522v8.714zm-2.285-7.03H8.737c-.14 0-.257.114-.257.257s.116.257.258.257h14.68c.142 0 .258-.116.258-.258s-.116-.26-.26-.26zm0 1.68H8.737c-.14 0-.257.115-.257.257 0 .14.116.257.258.257h14.68c.142 0 .258-.115.258-.258 0-.143-.116-.26-.26-.26zm0 1.586H8.737c-.14 0-.257.115-.257.258s.116.258.258.258h14.68c.142 0 .258-.116.258-.258s-.116-.258-.26-.258zm0 1.68H8.737c-.14 0-.257.116-.257.258 0 .142.116.258.258.258h14.68c.142 0 .258-.115.258-.258 0-.142-.116-.258-.26-.258z"/></svg>