<svg xmlns="http://www.w3.org/2000/svg" viewBox="0 0 32 32"><path d="M16.17 20.16c.5-1.34.77-2.78.77-4.23 0-1.48-.26-2.92-.77-4.26.59-1.5 1.5-2.87 2.7-4.03.13-.13.13-.32.01-.44-.06-.06-.14-.09-.22-.09-.08 0-.15.03-.21.09-1.11 1.08-1.98 2.32-2.6 3.68-.62-1.36-1.49-2.61-2.6-3.68-.12-.12-.31-.11-.43.01s-.11.32.01.43c1.2 1.16 2.11 2.53 2.7 4.03-.5 1.34-.77 2.78-.77 4.26 0 1.45.27 2.89.77 4.23-.63 1.58-1.6 3.03-2.86 4.21-.12.12-.13.31-.02.43.06.07.14.1.22.1.07 0 .15-.03.21-.08 1.18-1.1 2.11-2.42 2.77-3.87.66 1.45 1.59 2.77 2.77 3.87.12.11.32.11.43-.01.12-.12.11-.32-.01-.43-1.27-1.19-2.24-2.64-2.87-4.22zm-.81-4.24c0-1.14.17-2.26.48-3.32.32 1.06.48 2.18.48 3.32 0 1.12-.17 2.22-.48 3.28-.31-1.05-.48-2.16-.48-3.28zm-7.04-3.07c-.08-.07-.2-.07-.27.01s-.07.2.01.27c.78.74 1.21 1.73 1.21 2.8 0 1.09-.47 2.14-1.3 2.88-.08.06-.09.19-.02.26.04.04.09.06.14.06.05 0 .09-.02.13-.05.9-.81 1.42-1.96 1.42-3.16.01-1.16-.46-2.26-1.32-3.07zm2.93-3.95c-.11-.1-.28-.1-.38.01s-.1.28.01.38c1.83 1.76 2.83 4.12 2.83 6.64 0 2.57-1.09 5.04-2.99 6.79-.11.1-.12.27-.02.38.05.06.12.09.2.09.06 0 .13-.02.18-.07 2.01-1.85 3.16-4.47 3.16-7.18 0-2.69-1.06-5.18-2.99-7.04zm-1.71 1.7c-.09-.09-.24-.08-.32.01-.09.09-.08.24.01.32 1.39 1.32 2.15 3.09 2.15 4.99 0 1.96-.84 3.83-2.31 5.14-.1.08-.1.23-.02.33.05.05.11.08.17.08.05 0 .11-.02.15-.06 1.56-1.4 2.46-3.39 2.46-5.48 0-2.03-.81-3.92-2.29-5.33zm8.45 5.32c0-2.52 1.01-4.88 2.83-6.64.11-.1.11-.27.01-.38-.05-.05-.12-.08-.19-.08s-.13.02-.19.07c-1.93 1.86-3 4.35-3 7.03 0 2.72 1.15 5.34 3.16 7.19.11.1.28.09.38-.02.1-.11.09-.28-.02-.38-1.89-1.74-2.98-4.22-2.98-6.79zm2.33 0c0-1.9.76-3.67 2.15-4.99.09-.09.1-.23.01-.32-.05-.05-.11-.07-.17-.07-.06 0-.11.02-.16.06-1.48 1.4-2.29 3.29-2.29 5.32 0 2.09.9 4.08 2.46 5.48.09.08.24.08.33-.02.08-.09.08-.24-.02-.33-1.47-1.3-2.31-3.17-2.31-5.13zm3.71 2.88c-.82-.73-1.3-1.78-1.3-2.88 0-1.06.43-2.06 1.21-2.8.08-.07.08-.19.01-.27-.04-.04-.09-.06-.14-.06-.05 0-.09.02-.13.05-.85.81-1.33 1.9-1.33 3.07 0 1.2.52 2.36 1.42 3.16.08.07.2.06.27-.01.08-.06.07-.19-.01-.26z"/></svg>