<svg xmlns="http://www.w3.org/2000/svg" viewBox="0 0 36 36"><title>Icon-Red_Hat-Hardware-Tablet-A-Black-RGB</title><path d="M27 5.23H9a.76.76 0 0 0-.75.77v24a.75.75 0 0 0 .75.75h18a.75.75 0 0 0 .75-.75V6a.76.76 0 0 0-.75-.77zm-.75 24H9.75V6.73h16.5z"/><path d="M16 27.73h4a.75.75 0 0 0 0-1.5h-4a.75.75 0 0 0 0 1.5zM17.47 9.51a.78.78 0 0 0 .24.16.73.73 0 0 0 .58 0 .74.74 0 0 0 .4-.4.73.73 0 0 0 0-.58.74.74 0 0 0-.4-.4.73.73 0 0 0-.58 0 .74.74 0 0 0-.4.4.75.75 0 0 0-.06.29.72.72 0 0 0 .06.29.63.63 0 0 0 .16.24z"/></svg>