<svg xmlns="http://www.w3.org/2000/svg" viewBox="0 0 31.68 31.68"><path d="M13.28 10.65c1.9 1.64 4.18 1.9 5.43 1.9.26 0 .47-.01.63-.02l-.39 1.26c-.07.17-.02.35.15.46.06.04.13.06.2.06.1 0 .2-.04.31-.12l3.28-2.71c.05-.04.08-.1.08-.16s-.03-.12-.08-.16l-3.28-2.72c-.17-.13-.36-.15-.5-.05-.17.11-.22.29-.15.46l.4 1.3c-2.8 0-4.98-.77-6.48-2.29C10.85 5.81 10.7 3 10.69 2.45v-.1l-.42-.01v.19c.02 3.69 1.04 6.42 3.01 8.12zm-.72-2.51c1.63 1.65 4 2.47 7.04 2.42.04 0 .07-.01.1-.03.04-.02.07-.04.09-.07.04-.05.05-.12.03-.18l-.45-1.48 3.04 2.52-3.04 2.52.46-1.48c.02-.06.01-.13-.03-.18-.04-.05-.1-.09-.16-.09h-.06-.01-.02l-.59.04c-1.11.03-3.5-.13-5.41-1.79-1.21-1.05-2.04-2.51-2.48-4.38.33.73.81 1.49 1.49 2.18zM19.6 17.49c-.11-.08-.21-.12-.31-.12-.07 0-.14.02-.2.06-.17.11-.22.29-.15.46l.39 1.26c-.92-.07-3.77-.1-6.06 1.87-1.97 1.7-2.98 4.44-3.02 8.13v.19l.42-.01v-.1c.01-.55.16-3.36 2.19-5.41 1.5-1.52 3.68-2.29 6.48-2.29l-.4 1.3c-.07.17-.02.35.15.46.14.09.33.07.5-.05l3.28-2.72c.05-.04.08-.1.08-.16s-.03-.12-.08-.16l-3.27-2.71zm-.23 5.39l.46-1.48c.02-.06.01-.13-.03-.18-.02-.03-.06-.06-.09-.07-.03-.02-.06-.03-.1-.03-3.04-.05-5.41.77-7.04 2.42-.68.69-1.16 1.45-1.5 2.19.45-1.87 1.28-3.33 2.49-4.38 1.91-1.65 4.28-1.81 5.39-1.79l.61.04h.09c.06 0 .12-.04.16-.09.04-.05.05-.12.03-.18l-.46-1.48 3.04 2.52-3.05 2.51z"/><path d="M26.53 15.69L23.28 13c-.17-.13-.35-.14-.49-.05-.16.11-.22.29-.15.45l.4 1.29-19.96.9s-.01.52 0 .52l19.96.89-.4 1.29c-.07.17-.02.34.15.45.06.04.13.06.2.06.1 0 .2-.04.3-.12L26.53 16c.05-.04.08-.1.08-.16-.01-.06-.03-.11-.08-.15zm-3.47 2.65l.45-1.47c.02-.06.01-.13-.03-.18-.04-.05-.09-.08-.16-.09l-19.95-.75 19.96-.75c.06 0 .12-.04.16-.09.04-.05.05-.12.03-.18l-.45-1.47 3.01 2.49-3.02 2.49z"/></svg>