<svg xmlns="http://www.w3.org/2000/svg" viewBox="0 0 36 36"><path d="M26.932 17.667C29.208 16.315 30.74 13.84 30.74 11c0-4.284-3.474-7.758-7.76-7.758-4.283 0-7.757 3.473-7.757 7.758 0 .51.064 1 .158 1.483-1.12-.627-2.408-.988-3.782-.988-4.284 0-7.758 3.473-7.758 7.758s3.473 7.758 7.758 7.758c1.932 0 3.696-.71 5.054-1.88.073 4.222 3.512 7.623 7.75 7.623 4.285 0 7.76-3.473 7.76-7.758-.002-3.398-2.19-6.278-5.23-7.328zm-3.95-12.914c3.45 0 6.246 2.797 6.246 6.247s-2.797 6.247-6.247 6.247c-3.45 0-6.246-2.797-6.246-6.247s2.797-6.247 6.247-6.247zM11.597 25.5c-3.45 0-6.247-2.798-6.247-6.248s2.798-6.247 6.248-6.247 6.247 2.797 6.247 6.247-2.797 6.247-6.247 6.247zm12.804 5.742c-3.45 0-6.247-2.797-6.247-6.247 0-3.45 2.797-6.247 6.247-6.247s6.247 2.797 6.247 6.247c0 3.45-2.798 6.247-6.248 6.247zm-5.326-19.756c0 .414-.336.75-.75.75s-.75-.336-.75-.75.336-.75.75-.75.75.336.75.75zm2.914.018c0 .414-.336.75-.75.75s-.75-.336-.75-.75.336-.75.75-.75.75.336.75.75zm2.642 1.197c0 .415-.336.75-.75.75s-.75-.335-.75-.75c0-.413.336-.75.75-.75s.75.336.75.75zm1.935 2.17c0 .413-.336.75-.75.75s-.75-.337-.75-.75.336-.75.75-.75.75.335.75.75zm.562 5.713c0 .414-.337.75-.75.75s-.75-.336-.75-.75.335-.75.75-.75.75.336.75.75zm-1.487 2.498c0 .415-.336.75-.75.75s-.75-.335-.75-.75c0-.413.336-.75.75-.75s.75.337.75.75zm-2.363 1.694c0 .414-.336.75-.75.75s-.75-.336-.75-.75.336-.75.75-.75.75.336.75.75zm-2.84.567c0 .415-.335.75-.75.75-.413 0-.75-.335-.75-.75 0-.413.337-.75.75-.75.415 0 .75.337.75.75zm-5.17-2.352c0 .414-.336.75-.75.75s-.75-.336-.75-.75.336-.75.75-.75c.415 0 .75.336.75.75zm-1.445-2.528c0 .414-.336.75-.75.75s-.75-.336-.75-.75.336-.75.75-.75.75.335.75.75zm-.278-2.89c0 .414-.336.75-.75.75s-.75-.336-.75-.75.336-.75.75-.75.75.335.75.75zm.906-2.766c0 .414-.336.75-.75.75s-.75-.336-.75-.75.336-.75.75-.75.75.336.75.75z"/></svg>