<svg xmlns="http://www.w3.org/2000/svg" viewBox="0 0 32 32"><path d="M13.39 21.36c.89.08 1.82.11 2.77.11 2.62 0 5.07-.3 6.56-.79.12-.04.25.02.29.15s-.02.25-.15.29c-1.53.51-4.04.81-6.7.81-.96 0-1.91-.04-2.81-.11-.13-.01-.22-.12-.21-.25.01-.13.12-.23.25-.21zm-1.87-.15c-.91-.15-1.69-.34-2.25-.56-.08-.03-.17.01-.2.09s.01.17.09.2c.59.23 1.37.42 2.31.58h.02c.07 0 .14-.05.15-.13.02-.09-.03-.17-.12-.18zm12.16-1.93c.44.26.7.57.7.93v4.67c0 1.6-5.01 2.17-8.38 2.17-3.37 0-8.38-.58-8.38-2.17v-4.67c0-.36.26-.67.7-.93-.44-.26-.7-.57-.7-.93v-4.67c0-.37.27-.68.71-.94-.45-.27-.72-.58-.72-.95V7.11c0-1.6 5.01-2.18 8.38-2.18 3.37 0 8.38.58 8.38 2.18v4.67c0 .37-.27.68-.71.94.45.27.72.58.72.95v4.67c0 .37-.26.68-.7.94zM9.05 12.4c.27.11.61.22 1.01.33 1.3.34 3.29.62 5.94.62 2.65 0 4.64-.28 5.95-.62.4-.11.74-.22 1.01-.33.53-.22.81-.44.81-.62V7.11c0-.55-2.67-1.56-7.76-1.56S8.23 6.57 8.23 7.11v4.67c0 .18.28.4.82.62zm13.94 7.21c-1.73.65-4.73.91-6.99.91s-5.26-.26-6.99-.91c-.52.22-.78.43-.78.61v4.67c0 .55 2.67 1.56 7.76 1.56s7.76-1.02 7.76-1.56v-4.67c.02-.18-.25-.39-.76-.61zm.78-5.93c0-.17-.28-.4-.82-.62-1.73.65-4.71.9-6.96.9-2.24 0-5.21-.26-6.95-.9-.53.22-.81.44-.81.62v4.67c0 .17.26.39.78.61.26.11.6.22 1 .33 1.3.35 3.31.63 5.99.63s4.68-.28 5.99-.63c.4-.11.73-.22 1-.33.52-.22.78-.43.78-.61v-4.67zm-1.06.46c-1.49.49-3.94.79-6.56.79-.95 0-1.88-.04-2.77-.11-.13-.01-.24.08-.25.21-.01.13.08.24.21.25.9.08 1.84.11 2.81.11 2.67 0 5.17-.3 6.7-.81.12-.04.19-.17.15-.29s-.16-.19-.29-.15zm-11.19.53c-.91-.15-1.69-.34-2.25-.56-.08-.03-.17.01-.2.09s.01.17.09.2c.59.23 1.37.43 2.31.58h.02c.07 0 .14-.05.15-.13.02-.09-.03-.17-.12-.18zm1.82-5.96c.9.08 1.85.11 2.81.11 2.66 0 5.17-.3 6.7-.81.12-.04.19-.17.15-.29s-.17-.19-.29-.15c-1.49.49-3.94.79-6.56.79-.95 0-1.88-.04-2.77-.11-.12-.01-.24.08-.25.21-.01.13.08.24.21.25zm-1.85-.3c.07 0 .14-.05.15-.13.01-.08-.04-.16-.13-.18-.91-.15-1.69-.34-2.25-.56-.07-.03-.16.01-.19.09s.01.17.09.2c.59.23 1.37.43 2.31.58h.02z"/></svg>