<svg data-name="Layer 1" xmlns="http://www.w3.org/2000/svg" viewBox="0 0 36 36"><title>Icon-Red_Hat-Book-A-Black-RGB</title><path d="M30.09 9.6H18.4l-5.78-5.78a.78.78 0 0 0-.82-.16.75.75 0 0 0-.46.69V9.6H6.09a.75.75 0 0 0-.75.75v18a.74.74 0 0 0 .75.75h24a.75.75 0 0 0 .75-.75v-18a.76.76 0 0 0-.75-.75zm-23.25 18V11.1h4.5v12.25a.75.75 0 0 0 .27.58L16 27.6zm10.5-16.5v15.65L12.84 23V6.16l3.44 3.44 1.06 1.06zm12 16.5H25.9l3.44-3.44zm-4.5-1.06V23.1h3.44zm4.5-4.94h-5.25a.75.75 0 0 0-.75.75v5.25h-4.5V11.1h10.5z"/></svg>