<svg data-name="management-and-automation" xmlns="http://www.w3.org/2000/svg" viewBox="0 0 36 36"><title>Icon-Red_Hat-</title><path d="M14.92 28.82a11.26 11.26 0 0 1-8.26-8.91l.54.54a.74.74 0 0 0 .53.22.71.71 0 0 0 .53-.22.74.74 0 0 0 0-1.06l-2-2a.57.57 0 0 0-.26-.16.67.67 0 0 0-.24 0h-.33a1.14 1.14 0 0 0-.23.15l-2 2a.75.75 0 0 0 0 1.06.74.74 0 0 0 1.06 0l.84-.83a12.74 12.74 0 0 0 9.45 10.65.58.58 0 0 0 .19 0 .75.75 0 0 0 .18-1.47zm-9-13.17a.55.55 0 0 0 .18 0 .75.75 0 0 0 .73-.56 11.25 11.25 0 0 1 8.9-8.26l-.54.54a.75.75 0 0 0 0 1.06.74.74 0 0 0 .53.22.71.71 0 0 0 .53-.22l2-2a.86.86 0 0 0 .15-.22.74.74 0 0 0 .08-.21.22.22 0 0 0 0-.08.57.57 0 0 0 0-.18v-.08a.62.62 0 0 0-.15-.22l-2-2a.75.75 0 0 0-1.13 1.01l.84.84a12.71 12.71 0 0 0-10.65 9.45.73.73 0 0 0 .54.91zm26.33-.26a.75.75 0 0 0-1.06 0l-.83.83a12.74 12.74 0 0 0-9.44-10.65.75.75 0 0 0-.91.54.76.76 0 0 0 .54.92 11.22 11.22 0 0 1 8.25 8.9l-.54-.54a.75.75 0 0 0-1.06 1.06l2 2a.71.71 0 0 0 .22.15.92.92 0 0 0 .28.05.93.93 0 0 0 .29-.05.81.81 0 0 0 .24-.17l2-2a.74.74 0 0 0 .03-1.04zm-2.71 4.81a.75.75 0 0 0-.91.54 11.22 11.22 0 0 1-8.9 8.26l.53-.54a.74.74 0 0 0 0-1.06.75.75 0 0 0-1.06 0l-2 2a1.07 1.07 0 0 0-.15.22.69.69 0 0 0-.05.24V30a1.62 1.62 0 0 0 0 .19v.07a.64.64 0 0 0 .14.22l2 2a.74.74 0 0 0 .53.22.71.71 0 0 0 .53-.22.74.74 0 0 0 0-1.06l-.83-.83a12.74 12.74 0 0 0 10.65-9.45.74.74 0 0 0-.48-.94zm-11.81 3.73a.74.74 0 0 0 .75-.75v-.64a4.63 4.63 0 0 0 2-.82l.46.45a.71.71 0 0 0 .53.22.74.74 0 0 0 .53-.22.75.75 0 0 0 0-1.06l-.46-.45a4.64 4.64 0 0 0 .83-2H23a.75.75 0 0 0 0-1.5h-.64a4.69 4.69 0 0 0-.83-2l.46-.45a.75.75 0 1 0-1.06-1.06l-.46.45a4.63 4.63 0 0 0-2-.82v-.64a.75.75 0 0 0-1.5 0v.64a4.59 4.59 0 0 0-2 .82l-.46-.45a.75.75 0 1 0-1.06 1.06l.46.45a4.69 4.69 0 0 0-.83 2h-.64a.75.75 0 1 0 0 1.5h.64a4.64 4.64 0 0 0 .83 2l-.46.45a.75.75 0 0 0 0 1.06.74.74 0 0 0 .53.22.71.71 0 0 0 .53-.22l.46-.45a4.64 4.64 0 0 0 2 .82v.64a.75.75 0 0 0 .76.75zm-3.19-6a3.2 3.2 0 1 1 3.19 3.2 3.19 3.19 0 0 1-3.19-3.21z"/></svg>