<svg xmlns="http://www.w3.org/2000/svg" viewBox="0 0 31.68 31.68"><path d="M13.5 12.94l-3.47-3.47c-.07-.07-.16-.1-.25-.1s-.18.03-.25.1c-.14.14-.14.37 0 .51L13 13.45l-.5.5 2.07.55-.55-2.07-.52.51z"/><path d="M24.13 15.27H21.1V7.6c0-.77-.62-1.39-1.39-1.39H7.55c-.77 0-1.39.62-1.39 1.39v12.16c0 .77.62 1.39 1.39 1.39h7.78v2.93c0 .77.62 1.39 1.39 1.39h7.42c.77 0 1.39-.62 1.39-1.39v-7.42c-.01-.77-.63-1.39-1.4-1.39zM7.55 20.43c-.37 0-.67-.3-.67-.67V7.6c0-.37.3-.67.67-.67h12.16c.37 0 .67.3.67.67v7.67h-3.67c-.77 0-1.39.62-1.39 1.39v3.78H7.55zm12.83-4.44v3.78c0 .37-.3.67-.67.67h-3.67v-3.78c0-.37.3-.67.67-.67h3.67zm4.42 8.09c0 .37-.3.67-.67.67h-7.42c-.37 0-.67-.3-.67-.67v-2.93h3.67c.77 0 1.39-.62 1.39-1.39v-3.78h3.04c.37 0 .67.3.67.67v7.43z"/></svg>