<svg xmlns="http://www.w3.org/2000/svg" width="17" height="16" viewBox="0 0 17 16"><path d="M3.714 11.43q-.59 0-1.01-.42T2.285 10V3.714q0-.59.42-1.01t1.01-.42h9.714q.59 0 1.01.42t.42 1.01V10q0 .59-.42 1.01t-1.01.42H3.714zM3.43 3.713V10q0 .116.084.2t.2.086h9.715q.115 0 .2-.085t.085-.2V3.714q0-.116-.085-.2t-.2-.086H3.714q-.116 0-.2.085t-.086.2zM15.713 12h1.43v.857q0 .357-.42.607t-1.01.25H1.428q-.59 0-1.01-.25T0 12.857V12h15.715zm-6.428.857q.143 0 .143-.143t-.144-.143h-1.43q-.142 0-.142.144t.143.143h1.43z"/></svg>