<svg xmlns="http://www.w3.org/2000/svg" width="32" height="32" viewBox="0 0 32 32"><path d="M6.72 0c.468 0 .75.2.937.5s3.412 5.93 3.675 6.356c.344.55.425.875.012 1.55-.488.8-2.75 2.47-3.05 2.75s-.78.844-.78 1.125.093.532.262.888 1.72 3.575 4.112 5.994 5.77 4.438 6.813 5c1.045.563 1.357.23 1.707-.08.356-.314 2.438-2.814 2.813-3.145s.706-.563 1.125-.563c.42 0 .77.23 1.044.42.268.187 5.187 2.98 5.705 3.293.52.313.894.48.894 1.25s-.19 1.394-.332 1.938c-.144.544-.313 1.606-1.5 2.5-1.188.894-3.313 2.23-6.08 2.23-1.107 0-2.376-.35-3.17-.605-4.044-1.313-8.563-3.23-13.875-9.063C2.163 16.974.003 10.517.003 7.58c0-2.418 1.668-5.08 2.187-5.687S3.296.75 4.065.518s1.938-.52 2.656-.52z"/></svg>