<svg xmlns="http://www.w3.org/2000/svg" width="32" height="32" viewBox="0 0 32 32"><path d="M8.08 18.006c0-1.106.895-2 2-2s2 .894 2 2c0 1.106-.893 2-2 2s-2-.894-2-2zm11.995 0c0-1.106.894-2 2-2s2 .894 2 2c0 1.106-.894 2-2 2-1.106 0-2-.894-2-2zm.094 4.27c.51-.407 1.26-.32 1.668.2.406.51.32 1.26-.2 1.668-1.43 1.13-3.62 1.856-5.563 1.856s-4.13-.73-5.563-1.856c-.512-.406-.606-1.15-.2-1.67.406-.51 1.15-.605 1.67-.2.824.65 2.455 1.35 4.093 1.35s3.27-.693 4.094-1.35zm11.9-8.27c0-2.206-1.79-4-4-4-1.5 0-2.814.83-3.495 2.056-2.056-1.125-4.556-1.85-7.288-2.02l2.387-5.355 4.57 1.32c.412 1.168 1.518 2 2.83 2 1.656 0 3-1.345 3-3s-1.344-3-3-3c-1.144 0-2.137.637-2.637 1.574l-5.094-1.455c-.57-.163-1.175.12-1.413.656l-3.244 7.282c-2.656.188-5.1.906-7.112 2.006-.68-1.225-1.994-2.056-3.494-2.056-2.206 0-4 1.787-4 4 0 1.63.98 3.038 2.388 3.656-.25.75-.388 1.53-.388 2.337C2.08 25.525 8.343 30 16.074 30s13.994-4.476 13.994-9.995c0-.806-.13-1.587-.387-2.337 1.407-.62 2.388-2.025 2.388-3.662zm-5-10.118c.618 0 1.124.506 1.124 1.125s-.506 1.125-1.125 1.125c-.62 0-1.126-.506-1.126-1.125s.506-1.125 1.125-1.125zM2.086 14.006c0-1.1.894-2 2-2 .794 0 1.487.47 1.806 1.144-1.044.794-1.913 1.706-2.55 2.706-.737-.287-1.256-1.006-1.256-1.85zm13.988 13.62c-6.42 0-11.62-3.414-11.62-7.62s5.2-7.62 11.62-7.62 11.62 3.413 11.62 7.62-5.2 7.62-11.62 7.62zm12.738-11.763c-.637-1-1.506-1.92-2.55-2.706.32-.675 1.012-1.144 1.806-1.144 1.1 0 2 .894 2 2 0 .838-.52 1.556-1.257 1.85z"/></svg>