<svg xmlns="http://www.w3.org/2000/svg" width="32" height="32" viewBox="0 0 32 32"><path d="M16.1.2C7.4.2.2 7.4.2 16.1S7.4 32 16.1 32 32 24.8 32 16.1 24.8.2 16.1.2zm12.4 10.3h-5.9c-.4-2.9-1.3-5.6-2.5-7.5 3.8 1.3 6.9 4.1 8.4 7.5zm1.1 5.6c0 1.2-.1 2.2-.4 3.2h-6.3c.1-1 .1-2.2.1-3.2s0-2.2-.1-3.2h6.5c.1 1 .2 2 .2 3.2zM16.1 29.6c-1.6 0-3.5-3.2-4.3-8.1h8.7c-.9 5.1-2.8 8.1-4.4 8.1zm-4.6-10.3c-.1-1-.1-2.2-.1-3.2s0-2.2.1-3.2h9.3c.1 1 .1 2.2.1 3.2s0 2.2-.1 3.2h-9.3zm-8.9-3.2c0-1.2.1-2.2.4-3.2h6.3c-.1 1-.3 2.2-.3 3.2s0 2.2.1 3.2H2.9c-.2-1-.3-2-.3-3.2zM16.1 2.6c1.6 0 3.5 3.2 4.3 8.1h-8.5c.7-5.1 2.6-8.1 4.2-8.1zm-4.1.5c-1.2 1.9-1.9 4.6-2.5 7.4H3.6C5.2 7.1 8.3 4.3 12 3.1zM3.7 21.7h5.9c.4 2.9 1.3 5.6 2.5 7.5-3.8-1.3-6.9-4.1-8.4-7.5zm16.5 7.4c1.2-1.9 2.1-4.6 2.5-7.5h5.9c-1.6 3.5-4.7 6.3-8.4 7.5z"/></svg>