<svg xmlns="http://www.w3.org/2000/svg" width="16" height="16" viewBox="0 0 16 16"><path d="M3.43 10.286q0-.473-.336-.808t-.808-.335-.808.335-.335.808.335.808.808.335.808-.336.335-.808zm1.713-4q0-.473-.335-.808T4 5.143t-.808.335-.335.808.335.808T4 7.43t.808-.336.335-.808zm3.82 4.294l.903-3.41q.054-.233-.067-.434t-.345-.263-.43.058-.267.354l-.902 3.41q-.536.046-.955.39t-.562.878q-.18.688.18 1.304t1.044.795 1.304-.178.795-1.045q.144-.536-.053-1.045t-.643-.813zm5.894-.294q0-.473-.335-.808t-.808-.335-.808.335-.335.808.336.808.808.335.808-.336.335-.808zM9.143 4.57q0-.472-.335-.807T8 3.428t-.808.335-.335.808.335.81.808.334.808-.335.335-.81zm4 1.716q0-.473-.335-.808T12 5.143t-.808.335-.335.808.335.808.808.335.808-.336.335-.808zm2.857 4q0 2.33-1.26 4.313-.17.258-.48.258H1.74q-.312 0-.48-.26Q0 12.627 0 10.287 0 8.66.634 7.18T2.34 4.624 4.892 2.92 8 2.286t3.107.634 2.554 1.705 1.706 2.554.634 3.106z"/></svg>