<svg xmlns="http://www.w3.org/2000/svg" width="30" height="32" viewBox="0 0 30 32"><path d="M26 21.714q0-.714-.5-1.214l-3.714-3.714q-.5-.5-1.214-.5-.75 0-1.286.57.054.055.34.33t.383.385.267.34.232.455.062.49q0 .715-.5 1.215t-1.214.5q-.268 0-.49-.063t-.456-.232-.34-.268-.383-.384-.33-.34q-.59.555-.59 1.305 0 .714.5 1.214l3.68 3.696q.48.482 1.213.482.714 0 1.214-.464l2.625-2.607q.5-.5.5-1.197zM13.446 9.124q0-.713-.5-1.213l-3.68-3.695q-.5-.5-1.213-.5-.696 0-1.214.482L4.213 6.804q-.5.5-.5 1.196 0 .714.5 1.214l3.714 3.714q.482.482 1.214.482.75 0 1.286-.554-.054-.054-.34-.33t-.383-.384-.268-.34-.232-.454-.063-.49q0-.715.5-1.215t1.214-.5q.268 0 .49.063t.456.232.34.268.383.384.33.34q.59-.555.59-1.305zm15.983 12.59q0 2.143-1.52 3.625l-2.624 2.606q-1.482 1.482-3.625 1.482-2.16 0-3.642-1.518l-3.68-3.696q-1.48-1.482-1.48-3.625 0-2.197 1.57-3.733l-1.57-1.57q-1.537 1.57-3.715 1.57-2.143 0-3.643-1.5l-3.714-3.714Q.286 10.143.286 8t1.518-3.625L4.43 1.768Q5.91.286 8.053.286q2.16 0 3.643 1.518l3.68 3.696q1.48 1.482 1.48 3.625 0 2.196-1.57 3.732l1.57 1.57q1.537-1.57 3.715-1.57 2.143 0 3.643 1.5l3.714 3.714q1.5 1.5 1.5 3.644z"/></svg>