<svg xmlns="http://www.w3.org/2000/svg" width="32" height="32" viewBox="0 0 32 32"><path d="M19.25 22.55v3.77c0 .8-.306 1.193-.77 1.193-.274 0-.6-.13-.862-.394v-5.376c.262-.262.587-.394.863-.394.463.006.77.4.77 1.2zm6.394.02v.818h-1.606v-.82c0-.805.27-1.21.806-1.21.53 0 .8.4.8 1.21zM8.256 18.674H9.65v-1.68H4.837v1.68h1.6v10.162H8.05V18.674h.206zm4.6 10.162h1.594v-8.825h-1.594v6.75c-.356.5-.694.75-1.02.75-.437 0-.593-.394-.593-1v-6.5H9.65v7.463c0 .8.437 1.48 1.38 1.48.57 0 1.18-.362 1.82-1.086l.005.968zm7.98-2.643v-3.52c0-.868-.055-1.455-.162-1.768-.2-.67-.625-1-1.27-1-.593 0-1.274.32-1.787.962v-3.875h-1.575V28.83h1.575v-.856c.538.656 1.22.98 1.788.98.644 0 1.063-.324 1.27-.98.112-.32.162-.913.162-1.78zm6.395-.182v-.23h-1.605c0 .605-.012.968-.038 1.086-.08.43-.337.644-.73.644-.55 0-.82-.413-.82-1.23v-1.557h3.194v-1.837c0-.938-.162-1.63-.48-2.07-.462-.605-1.094-.912-1.894-.912-.806 0-1.444.306-1.913.913-.33.443-.5 1.13-.5 2.068v3.087c0 .938.175 1.63.52 2.07.46.605 1.105.912 1.93.912.856 0 1.5-.313 1.93-.944.213-.32.338-.644.376-.962.024-.105.03-.45.03-1.037zM16.045 9.338v-3.75c0-.82-.287-1.23-.8-1.23s-.813.41-.813 1.23v3.75c0 .83.288 1.25.8 1.25s.814-.42.814-1.25zm14.394 13.83c0 2.79-.156 4.445-.462 5.826-.17.7-.512 1.294-1.038 1.77-.525.474-1.13.75-1.82.818-2.187.25-6.65.375-11.068.375s-8.894-.125-11.08-.375c-.695-.07-1.3-.344-1.832-.82-.53-.474-.87-1.062-1.025-1.768-.306-1.33-.462-2.994-.462-5.825 0-2.79.157-4.45.463-5.826.17-.7.512-1.294 1.038-1.77.526-.474 1.14-.755 1.84-.837 2.18-.238 6.65-.356 11.068-.356s8.875.12 11.07.357c.693.08 1.3.363 1.83.838s.87 1.063 1.025 1.77c.3 1.33.456 2.993.456 5.824zM9.975-.036h1.82L9.63 7.088v4.838H8.02V7.088c-.17-.88-.707-2.144-1.264-3.788C6.312 2.075 5.93.963 5.593-.037h1.894l1.27 4.694L9.974-.037zm7.662 5.943V9.03c0 .964-.23 1.67-.57 2.107-.443.606-1.018.912-1.837.912-.8 0-1.475-.307-1.93-.913-.332-.45-.47-1.156-.47-2.106V5.907c0-.95.13-1.65.47-2.087.45-.607 1.118-.914 1.918-.914.82 0 1.406.306 1.85.913.33.443.57 1.136.57 2.086zM24.05 3.02v8.91h-1.625v-.98c-.35.675-1.07 1.106-1.57 1.106-1.074 0-1.636-.887-1.636-2V3.02h1.624v6.555c0 .656.363 1.02.72 1.02.374 0 .624-.27.868-.77V3.02h1.62z"/></svg>