<svg xmlns="http://www.w3.org/2000/svg" viewBox="0 0 16 16"><path d="M.3 11.1c0-1.7.4-3.2 1.3-4.5s1.9-2.3 3.1-3l.9.1c-.2.1-.5.4-.7.8-.3.3-.5.6-.7 1.2-.1.5-.5.9-.6 1.5-.1.5-.3 1.2-.3 1.8.9 0 1.7.3 2.2.8.6.5.9 1.2.9 2.1 0 .9-.3 1.7-.8 2.2s-1.2.8-1.9.8c-.4 0-.8-.1-1.2-.3-.4-.1-.8-.4-1-.6-.3-.3-.5-.6-.8-1.2-.2-.5-.4-1-.4-1.7zm9.3 0c0-1.7.4-3.2 1.3-4.5.9-1.3 1.9-2.3 3.1-3l.9.1c-.3.1-.4.4-.6.8-.3.3-.5.6-.8 1.2s-.4 1-.6 1.6c-.1.5-.3 1.2-.3 1.9.9 0 1.7.3 2.2.8s.9 1.2.9 2.1-.3 1.7-.8 2.2c-.5.5-1.2.8-1.9.8-.4 0-.8-.1-1.2-.3-.4-.1-.8-.4-1-.6-.3-.3-.5-.6-.8-1.2-.3-.7-.4-1.2-.4-1.9z"/></svg>