<svg xmlns="http://www.w3.org/2000/svg" width="32" height="32" viewBox="0 0 32 32"><path d="M22.8 19.85l-3.044 3.044c-.137.137-.3.206-.48.206s-.338-.07-.482-.206l-2.856-2.856-2.856 2.856c-.137.137-.3.206-.48.206s-.34-.07-.482-.206L9.076 19.85c-.137-.137-.206-.3-.206-.48s.07-.338.206-.482l2.856-2.856-2.856-2.856c-.137-.137-.206-.3-.206-.48 0-.182.07-.34.206-.482L12.12 9.17c.137-.137.3-.206.48-.206s.34.07.482.206l2.856 2.856 2.856-2.856c.137-.137.3-.206.48-.206s.338.07.482.206l3.044 3.044c.137.137.206.3.206.48 0 .182-.07.34-.206.482l-2.856 2.856 2.856 2.856c.137.137.206.3.206.48s-.07.345-.206.482zm4.475-3.812c0-2.056-.506-3.95-1.52-5.688s-2.386-3.112-4.124-4.125-3.63-1.52-5.687-1.52-3.95.507-5.688 1.52S7.143 8.612 6.13 10.35s-1.52 3.63-1.52 5.688c0 2.056.507 3.95 1.52 5.688 1.013 1.738 2.387 3.113 4.125 4.125s3.63 1.52 5.688 1.52 3.95-.506 5.688-1.52c1.74-1.01 3.114-2.386 4.126-4.124 1.012-1.738 1.52-3.63 1.52-5.688zm4.67 0c0 2.9-.713 5.58-2.145 8.03-1.43 2.45-3.37 4.395-5.825 5.826s-5.13 2.144-8.03 2.144c-2.9 0-5.582-.712-8.032-2.144s-4.394-3.37-5.825-5.825-2.144-5.132-2.144-8.032.713-5.58 2.144-8.03 3.37-4.395 5.825-5.826 5.13-2.144 8.03-2.144 5.582.713 8.032 2.144 4.394 3.37 5.825 5.825c1.43 2.45 2.144 5.125 2.144 8.03z"/></svg>