<svg xmlns="http://www.w3.org/2000/svg" width="32" height="32" viewBox="0 0 32 32"><path d="M30.286 6.857q.714 0 1.214.5T32 8.57v21.715q0 .714-.5 1.214t-1.214.5H13.143q-.714 0-1.214-.5t-.5-1.215v-5.143H1.714q-.714 0-1.214-.5T0 23.428v-12q0-.714.358-1.57T1.215 8.5L8.5 1.214Q9 .714 9.86.357T11.428 0h7.43q.714 0 1.214.5t.5 1.214V7.57q1.214-.713 2.286-.713h7.43zM20.57 10.66L15.233 16h5.34v-5.34zM9.144 3.805l-5.34 5.34h5.34v-5.34zm3.5 11.553l5.643-5.643v-7.43H11.43v7.43q0 .714-.5 1.214t-1.215.5h-7.43v11.43h9.144v-4.572q0-.714.356-1.57t.857-1.358zm17.07 14.357V9.144h-6.856v7.428q0 .714-.5 1.214t-1.214.5h-7.43v11.43h16z"/></svg>