<svg xmlns="http://www.w3.org/2000/svg" width="32" height="32" viewBox="0 0 32 32"><path d="M8.02 30.02h16v-6.045h-16v6.044zm0-14h16V8.77h-3.076c-.512 0-.95-.182-1.306-.538-.356-.356-.538-.794-.538-1.306V3.982H8.02V16.02zm21.518 1.655c0-.33-.12-.62-.363-.87-.244-.243-.53-.368-.87-.362-.33 0-.624.125-.868.363-.244.244-.363.53-.363.87 0 .336.12.624.363.868.244.244.53.363.87.363.33 0 .624-.12.868-.363.244-.25.363-.538.363-.87zm2.462 0v7.713c0 .17-.063.313-.18.43-.126.126-.27.182-.432.182h-5.363v4.156c0 .512-.18.95-.538 1.306-.356.356-.794.538-1.306.538H7.826c-.513 0-.95-.18-1.306-.538-.357-.356-.538-.794-.538-1.306V26H.62c-.17 0-.313-.063-.43-.18S0 25.55 0 25.38v-7.71c0-1.013.363-1.882 1.088-2.607s1.594-1.088 2.606-1.088h2.33V3.87c0-.514.182-.95.538-1.307s.794-.538 1.306-.538h11.23c1.632 0 2.795.95 3.157 1.306l2.462 2.926c.356.356 1.306 1.438 1.306 3.156v4.575h2.288c1.013 0 1.882.363 2.607 1.088s1.08 1.58 1.08 2.6z"/></svg>