<svg xmlns="http://www.w3.org/2000/svg" width="32" height="32" viewBox="0 0 32 32"><path d="M20 25.606c0 .8-.512 1.075-1 1.075-.288 0-.988-.343-.988-1.112v-3.563c0-.48.2-1.48.97-1.48.474 0 1.018.293 1.018 1.48v3.6zm7.994-3.875v.82h-1.988v-.82c-.044-.805.294-1.21.975-1.21.676 0 1.013.405 1.013 1.21zM8 18v-2H2v2h2v10h2V18h2zm4 10h2.02v-8.82H12v5.864c0 1.02-.6 1.52-1.144 1.52-.606 0-.856-.5-.856-.882v-6.5H8.02v6.98c0 1.588 1.4 1.963 1.98 1.963.77 0 1.52-.375 2-1.087V28zm9.98-6.5c0-1.738-.955-2.43-1.98-2.43-.644 0-1.48.26-2.02.96V16H16v12h1.98v-.856c.57.656 1.232.98 2.045.98 1.106 0 1.956-.687 1.956-2.48V21.5zM30 25.413v-.23h-2c0 .605-.012.737-.044.855-.106.43-.456.644-.95.644-.688 0-.994-.413-.994-1.23V24.02H30v-1.962c0-.938-.2-1.63-.606-2.07-.587-.605-1.38-.912-2.387-.912-1.02 0-1.825.306-2.413.913-.42.443-.587 1.13-.587 2.068v3.087c0 .938.175 1.63.613 2.07.587.605 1.394.912 2.43.912 1.082 0 1.895-.313 2.432-.944.27-.32.425-.644.475-.962.025-.112.044-.224.044-.805zM16.012 9.393V5.608c0-.83-.338-1.244-1.006-1.244S14 4.775 14 5.607v3.787c0 .844.338 1.262 1.006 1.262.675 0 1.006-.42 1.006-1.262zM32 22.79c0 2.788-.163 4.87-.488 6.25-.175.7-.544 1.294-1.094 1.77-.556.474-1.194.75-1.925.818-2.313.25-7.844.375-12.512.375s-10.155-.124-12.474-.374c-.73-.07-1.375-.344-1.93-.82-.557-.474-.92-1.062-1.088-1.768C.163 27.7 0 25.618 0 22.788c0-2.788.164-4.87.488-6.25.175-.7.544-1.294 1.094-1.77s1.2-.755 1.944-.837c2.3-.237 7.787-.355 12.456-.355s10.194.12 12.512.356c.73.082 1.375.364 1.93.84.557.474.92 1.062 1.088 1.768.325 1.33.488 3.413.488 6.25zM5.588 0H7.65l1.34 4.694L10.27 0h1.925l-2.188 7.125L10 12H8l-.005-4.875L5.59 0zm12.424 5.93v3.157c0 1.912-.8 3.05-3.012 3.05-1.925 0-2.994-1.088-2.994-3.05V5.93c0-1.774.944-3.03 2.994-3.03 1.97 0 3.012 1.225 3.012 3.03zm7.994-2.874L26 12h-2v-1.02c-.8.74-1.73 1.107-2.494 1.107-.694 0-1.144-.22-1.337-.662-.12-.287-.182-.73-.182-1.338v-7.03H22V9.61c0 .394.063.6.075.625.044.262.206.394.475.394.406 0 .994-.255 1.45-.768V3.056h2.006z"/></svg>