<svg xmlns="http://www.w3.org/2000/svg" width="32" height="32" viewBox="0 0 32 32"><path d="M15.63 26.163c0-.25-.024-.494-.08-.725-.056-.23-.113-.444-.17-.644-.062-.194-.16-.4-.312-.613-.15-.21-.275-.393-.375-.543-.1-.15-.256-.325-.475-.525-.213-.2-.375-.356-.494-.456-.113-.1-.306-.25-.57-.456-.268-.2-.45-.337-.555-.413s-.3-.206-.59-.413-.474-.325-.543-.375c-.2-.026-.5-.04-.894-.04-.644 0-1.275.045-1.894.126-.62.08-1.264.23-1.926.444-.67.212-1.25.488-1.75.82-.5.33-.912.78-1.23 1.336-.32.556-.482 1.194-.482 1.913 0 .805.212 1.53.63 2.168s.976 1.137 1.664 1.5c.68.363 1.4.63 2.15.813.75.182 1.506.27 2.27.27.7 0 1.368-.075 2.005-.225.638-.15 1.232-.38 1.795-.694.563-.312 1-.75 1.33-1.312.332-.55.495-1.206.495-1.956zM13.495 10.78c0-.712-.1-1.474-.294-2.274-.194-.806-.475-1.58-.838-2.33s-.863-1.37-1.5-1.857c-.637-.488-1.35-.732-2.13-.732-1.107 0-1.964.413-2.57 1.23-.612.826-.912 1.807-.912 2.945 0 .556.07 1.15.206 1.77.138.618.35 1.237.63 1.855.288.62.62 1.175 1 1.67.382.493.845.893 1.395 1.205.55.306 1.126.463 1.732.463 1.156 0 1.988-.363 2.506-1.08s.775-1.676.775-2.863zm-2.338-8.474h7.8L16.543 3.72H14.13c.845.536 1.5 1.286 1.964 2.25s.694 1.968.694 3.018c0 .88-.137 1.662-.413 2.344-.275.68-.606 1.238-1 1.65-.394.42-.787.8-1.18 1.15-.395.35-.726.713-1 1.088s-.413.775-.413 1.206c0 .306.1.613.294.913.194.3.45.58.77.855.312.275.66.556 1.043.856s.76.626 1.143.99c.38.362.73.755 1.044 1.18.32.425.57.93.77 1.52.193.586.293 1.224.293 1.9 0 1.905-.83 3.58-2.5 5.03-1.806 1.556-4.306 2.338-7.494 2.338-.7 0-1.412-.063-2.13-.18s-1.445-.32-2.176-.6c-.73-.282-1.375-.626-1.938-1.04-.556-.412-1.02-.937-1.375-1.586-.344-.65-.525-1.37-.525-2.17 0-.724.22-1.53.662-2.412.38-.762.95-1.42 1.712-1.97S4 21.077 4.963 20.783s1.888-.506 2.77-.644 1.774-.22 2.674-.244c-.762-.988-1.144-1.875-1.144-2.656 0-.144.012-.28.037-.42.025-.136.056-.255.088-.35.037-.093.08-.224.144-.38.063-.162.1-.287.125-.38-.475.055-.894.087-1.25.087-1.775 0-3.294-.58-4.563-1.75-1.27-1.17-1.9-2.63-1.9-4.387 0-1.67.563-3.156 1.694-4.47s2.525-2.155 4.175-2.524c1.125-.244 2.237-.362 3.344-.356zM29.694 6.87v2.286h-4.57v4.57h-2.287v-4.57h-4.57V6.87h4.57V2.305h2.288v4.57c.006-.007 4.57-.007 4.57-.007z"/></svg>