<svg xmlns="http://www.w3.org/2000/svg" width="32" height="32" viewBox="0 0 32 32"><path d="M18 14v7.318c0 1.857-.023 2.927.174 3.453.195.525.685 1.068 1.218 1.382.71.425 1.517.637 2.428.637 1.62 0 2.577-.215 4.18-1.268v4.81c-1.367.643-2.56 1.02-3.667 1.28-1.11.258-2.308.388-3.596.388-1.463 0-2.327-.184-3.45-.552-1.124-.37-2.083-.9-2.876-1.58-.794-.684-1.343-1.412-1.65-2.18-.308-.77-.46-1.89-.46-3.352V13.114H6.003v-4.53c1.256-.41 2.66-.994 3.556-1.756.9-.764 1.618-1.678 2.16-2.748.543-1.067.917-2.43 1.12-4.08H18v8h8v6h-8z"/></svg>