<svg xmlns="http://www.w3.org/2000/svg" width="15" height="16" viewBox="0 0 15 16"><path d="M5.714 13.714q0 .473-.335.808t-.81.335-.807-.335-.335-.808.335-.808.808-.335.81.336.334.808zm8 0q0 .473-.335.808t-.81.335-.807-.335-.335-.808.335-.808.808-.335.81.336.334.808zM14.857 4v4.57q0 .215-.143.38t-.366.192l-9.32 1.09q.008.062.04.19t.053.238.023.196q0 .143-.214.57h8.213q.232 0 .402.17t.17.403-.17.4-.402.17H4q-.232 0-.402-.17t-.17-.4q0-.126.098-.354t.263-.53.182-.34l-1.58-7.348H.572q-.233 0-.403-.17T0 2.856t.17-.402.4-.17h2.287q.143 0 .254.058t.18.138.116.22.067.236.05.263.04.227h10.722q.232 0 .402.17t.17.402z"/></svg>