<svg xmlns="http://www.w3.org/2000/svg" width="16" height="16" viewBox="0 0 16 16"><path d="M3.43 10.57v.572q0 .116-.086.2t-.2.086H2.57q-.116 0-.2-.085t-.086-.2v-.572q0-.115.085-.2t.202-.085h.57q.117 0 .202.085t.085.2zm0-2.284v.57q0 .117-.086.202t-.2.085H2.57q-.116 0-.2-.085t-.086-.2v-.572q0-.116.085-.2T2.573 8h.57q.117 0 .202.085t.085.2zM3.43 6v.57q0 .117-.086.202t-.2.085H2.57q-.116 0-.2-.085t-.086-.2V6q0-.116.085-.2t.202-.086h.57q.117 0 .202.085t.085.2zm10.284 4.57v.572q0 .116-.085.2t-.202.086h-8.57q-.117 0-.202-.085t-.085-.2v-.572q0-.115.086-.2t.2-.085h8.572q.116 0 .2.085t.086.2zm0-2.284v.57q0 .117-.085.202t-.202.085h-8.57q-.117 0-.202-.085t-.085-.2v-.572q0-.116.086-.2t.2-.086h8.572q.116 0 .2.085t.086.2zm0-2.286v.57q0 .117-.085.202t-.202.085h-8.57q-.117 0-.202-.085t-.085-.2V6q0-.116.086-.2t.2-.086h8.572q.116 0 .2.085t.086.2zm1.143 6.286v-7.43q0-.115-.085-.2t-.2-.085H1.427q-.116 0-.2.086t-.086.2v7.43q0 .116.085.2t.2.086h13.144q.117 0 .202-.085t.085-.2zM16 2.57v9.715q0 .59-.42 1.01t-1.01.42H1.43q-.59 0-1.01-.42T0 12.284V2.57q0-.588.42-1.008t1.01-.42H14.57q.59 0 1.01.42t.42 1.01z"/></svg>