<svg xmlns="http://www.w3.org/2000/svg" width="1024" height="1024" viewBox="0 0 1024 1024"><path d="M1024 725.3c0 8.906-3.447 16.776-10.284 23.613l-51.303 51.303c-6.837 6.837-14.707 10.284-23.612 10.284s-16.775-3.447-23.61-10.284L512 397.028 108.81 800.216c-6.835 6.837-14.706 10.284-23.61 10.284s-16.776-3.447-23.613-10.284l-51.303-51.303C3.447 742.076 0 734.206 0 725.3s3.447-16.775 10.284-23.61L488.33 223.64c6.837-6.837 14.708-10.284 23.613-10.284s16.775 3.447 23.612 10.284L1013.6 701.69c6.838 6.835 10.285 14.706 10.285 23.61h.115"/></svg>