<svg xmlns="http://www.w3.org/2000/svg" width="32" height="32" viewBox="0 0 32 32"><path d="M6.63 25.238h4.126v-12.38H6.63v12.38zm4.39-16.2c-.013-.62-.226-1.132-.645-1.538-.42-.406-.97-.606-1.662-.606-.688 0-1.25.2-1.688.606-.438.406-.65.92-.65 1.537 0 .606.213 1.12.63 1.525s.976.613 1.65.613h.02c.7 0 1.27-.206 1.694-.613s.65-.92.65-1.525zm10.442 16.2h4.125v-7.1c0-1.83-.438-3.22-1.306-4.156s-2.018-1.412-3.443-1.412c-1.62 0-2.863.694-3.73 2.088h.037v-1.8H13.02c.036.787.036 4.913 0 12.387h4.124v-6.93c0-.45.044-.79.125-1 .18-.42.443-.77.805-1.064.356-.293.8-.437 1.32-.437 1.38 0 2.068.93 2.068 2.8v6.625zm8.35-17.807v17.132c0 1.42-.5 2.625-1.505 3.63s-2.22 1.507-3.63 1.507H7.538c-1.42 0-2.626-.5-3.632-1.507-1-1.006-1.506-2.212-1.506-3.63V7.43c0-1.418.5-2.624 1.506-3.63s2.22-1.512 3.63-1.512H24.67c1.42 0 2.625.5 3.63 1.506 1.013 1.012 1.513 2.22 1.513 3.637z"/></svg>