<svg xmlns="http://www.w3.org/2000/svg" width="1024" height="1024" viewBox="0 0 1024 1024"><path d="M810.71 85.094c0 8.906-3.45 16.777-10.286 23.615L397.19 511.942l403.234 403.233c6.837 6.838 10.285 14.71 10.285 23.615s-3.45 16.78-10.286 23.616l-51.31 51.31c-6.837 6.837-14.708 10.284-23.614 10.284s-16.777-3.447-23.615-10.285l-478.1-478.1c-6.838-6.838-10.285-14.71-10.285-23.615s3.447-16.777 10.285-23.615l478.1-478.1C708.723 3.447 716.595 0 725.5 0s16.777 3.447 23.615 10.285l51.31 51.31c6.836 6.836 10.284 14.708 10.284 23.614v-.116"/></svg>