<svg xmlns="http://www.w3.org/2000/svg" width="1024" height="1024" viewBox="0 0 1024 1024"><path d="M1023.885 298.557c0 8.905-3.447 16.776-10.284 23.613L535.556 800.216c-6.837 6.837-14.708 10.284-23.612 10.284s-16.776-3.447-23.613-10.284L10.284 322.17C3.447 315.333 0 307.462 0 298.557s3.447-16.775 10.284-23.612l51.303-51.303c6.837-6.837 14.707-10.284 23.612-10.284s16.775 3.447 23.61 10.284L512 626.83l403.19-403.188c6.835-6.837 14.706-10.284 23.61-10.284s16.776 3.447 23.613 10.284l51.303 51.303c6.837 6.837 10.284 14.708 10.284 23.612h-.115"/></svg>