<svg xmlns="http://www.w3.org/2000/svg" width="32" height="32" viewBox="0 0 32 32"><path d="M30 16.67v-1.332c0-.363-.13-.675-.394-.938s-.575-.394-.938-.394h-10.67V3.356c0-.362-.13-.675-.393-.938s-.575-.394-.938-.394h-1.33c-.364 0-.676.13-.94.394s-.393.575-.393.938V14H3.33c-.363 0-.676.13-.94.394s-.393.575-.393.938v1.33c0 .364.13.676.394.94s.576.393.94.393h10.668V28.64c0 .362.13.674.394.937.262.262.575.394.938.394h1.33c.364 0 .676-.13.94-.393s.393-.575.393-.938V18h10.67c.362 0 .674-.13.937-.394.27-.262.4-.575.4-.938z"/></svg>