<svg xmlns="http://www.w3.org/2000/svg" viewBox="0 0 32 32"><path d="M25.6 28.8a3.2 3.2 0 1 0 6.4 0 3.2 3.2 0 1 0-6.4 0M12.8 28.8a3.2 3.2 0 1 0 6.4 0 3.2 3.2 0 1 0-6.4 0M0 28.8a3.2 3.2 0 1 0 6.4 0 3.2 3.2 0 1 0-6.4 0M25.6 16a3.2 3.2 0 1 0 6.4 0 3.2 3.2 0 1 0-6.4 0M12.8 16a3.2 3.2 0 1 0 6.4 0 3.2 3.2 0 1 0-6.4 0M0 16a3.2 3.2 0 1 0 6.4 0A3.2 3.2 0 1 0 0 16M25.6 3.2a3.2 3.2 0 1 0 6.4 0 3.2 3.2 0 1 0-6.4 0M12.8 3.2a3.2 3.2 0 1 0 6.4 0 3.2 3.2 0 1 0-6.4 0M0 3.2a3.2 3.2 0 1 0 6.4 0 3.2 3.2 0 1 0-6.4 0"/></svg>