<svg xmlns="http://www.w3.org/2000/svg" viewBox="0 0 512 512"><path class="st0" d="M256 5.2C114.6 5.2 0 119.8 0 261.2c0 113.1 73.3 209 175.1 242.9 12.8 2.3 17.5-5.6 17.5-12.3 0-6.1-.2-22.2-.3-43.5-71.3 15.4-86.3-34.4-86.3-34.4-11.6-29.6-28.4-37.4-28.4-37.4-23.2-15.9 1.8-15.6 1.8-15.6 25.7 1.8 39.2 26.4 39.2 26.4 22.8 39.1 59.9 27.8 74.5 21.3 2.3-16.5 8.9-27.8 16.3-34.2-56.8-6.5-116.6-28.4-116.6-126.5 0-27.9 10-50.8 26.4-68.7-2.6-6.5-11.4-32.5 2.5-67.7 0 0 21.5-6.9 70.4 26.2 20.4-5.7 42.3-8.5 64.1-8.6 21.7.1 43.6 2.9 64.1 8.6 48.9-33.1 70.3-26.2 70.3-26.2 14 35.2 5.2 61.3 2.5 67.7 16.4 17.9 26.3 40.7 26.3 68.7 0 98.3-59.9 120-116.9 126.3 9.2 7.9 17.4 23.5 17.4 47.4 0 34.2-.3 61.8-.3 70.2 0 6.8 4.6 14.8 17.6 12.3C438.7 470.1 512 374.2 512 261.2c0-141.4-114.6-256-256-256z"/></svg>