<svg xmlns="http://www.w3.org/2000/svg" width="32" height="32" viewBox="0 0 32 32"><path d="M24.394 1.813c-1.938-1.206-3.93-1.8-6-1.78-2.106.018-3.838.7-5.206 2.03-1.37 1.337-2.094 3.044-2.17 5.15-.08 2.438.707 4.813 2.288 7.03L1.926 25.3c-.376.363-.564.813-.582 1.325-.02.544.22 1.063.706 1.563.487.5 1 .75 1.544.744.52-.006.963-.188 1.337-.55l2.27-2.244 1.5 1.538-1.006.98c-.33.326-.35.85-.037 1.17L9.582 31.8c.313.32.83.313 1.17-.01l5.23-5.107c.33-.325.35-.85.038-1.17l-1.925-1.974c-.313-.32-.83-.314-1.17.01l-1.005.982-1.506-1.544 5.9-5.67c2.225 1.682 4.538 2.49 6.975 2.463 2.105-.018 3.836-.7 5.205-2.03 1.37-1.337 2.087-3.056 2.163-5.156.07-2.063-.47-4.075-1.63-6.037-1.157-1.956-2.7-3.538-4.632-4.744zm-.644 5.293c2.744 2.825 3.65 6.388 2.038 7.956s-5.15.556-7.894-2.27-3.65-6.387-2.037-7.955 5.156-.556 7.894 2.27z"/></svg>