<svg xmlns="http://www.w3.org/2000/svg" width="32" height="32" viewBox="0 0 32 32"><path d="M29.714 26.857V13.143q-.57.643-1.232 1.18-4.786 3.678-7.607 6.035-.91.768-1.482 1.196t-1.545.866-1.83.438h-.036q-.857 0-1.83-.438t-1.545-.866-1.482-1.196Q8.305 18 3.518 14.322q-.66-.536-1.232-1.18v13.715q0 .232.17.402t.402.17h26.286q.232 0 .402-.17t.17-.403zm0-18.768v-.44l-.01-.23-.053-.224-.097-.16-.16-.135-.25-.044H2.855q-.232 0-.402.17t-.17.402q0 3 2.625 5.07 3.445 2.715 7.16 5.662.107.09.625.527t.82.67.796.563.903.49.768.162h.037q.357 0 .768-.16t.902-.492.795-.563.82-.67.626-.527q3.714-2.946 7.16-5.66.965-.77 1.796-2.064t.83-2.348zM32 7.43v19.428q0 1.18-.84 2.018t-2.017.84H2.857q-1.18 0-2.018-.84T0 26.858V7.428Q0 6.25.84 5.412t2.017-.838h26.286q1.18 0 2.018.84T32 7.428z"/></svg>