<svg xmlns="http://www.w3.org/2000/svg" width="32" height="32" viewBox="0 0 32 32"><path d="M26.77 16c0-.375-.126-.688-.376-.938l-9.438-9.438c-.25-.25-.563-.375-.938-.375s-.688.124-.938.374l-9.438 9.438c-.25.25-.375.563-.375.938s.125.688.375.938l1.894 1.894c.25.25.563.375.938.375s.688-.125.938-.375l3.938-3.938V25.35c0 .363.13.675.394.938s.575.394.938.394h2.67c.362 0 .674-.13.937-.394s.393-.575.393-.938V14.894l3.938 3.938c.263.262.576.394.94.394s.674-.13.937-.394l1.894-1.894c.263-.25.388-.563.382-.938zm5.25.02c0 2.9-.713 5.58-2.145 8.03-1.43 2.45-3.37 4.394-5.825 5.825s-5.13 2.144-8.03 2.144c-2.9 0-5.582-.713-8.032-2.145s-4.394-3.37-5.825-5.825S.02 18.925.02 16.02c0-2.9.712-5.582 2.143-8.032s3.37-4.394 5.825-5.825S13.118.02 16.018.02 21.6.73 24.05 2.162s4.394 3.37 5.825 5.825c1.43 2.456 2.144 5.13 2.144 8.03z"/></svg>