<svg xmlns="http://www.w3.org/2000/svg" viewBox="0 0 30 30">
  <defs>
    <style>
      .e44190a4-a411-4911-a4a4-37415ae498f0 {
        fill: none;
      }
    </style>
  </defs>
  <g id="e06fe430-6a4d-49bf-87bf-4db3bba2813d" data-name="YouTube">
    <rect class="e44190a4-a411-4911-a4a4-37415ae498f0" width="30" height="30"/>
    <path d="M12.68,17.92V11.6l6.07,3.17-6.07,3.15ZM26,10.5a4.82,4.82,0,0,0-.9-2.23,3.21,3.21,0,0,0-2.25-.95C19.73,7.09,15,7.09,15,7.09h0s-4.72,0-7.87.23a3.21,3.21,0,0,0-2.25.95A4.82,4.82,0,0,0,4,10.5a34.76,34.76,0,0,0-.22,3.64v1.71A34.76,34.76,0,0,0,4,19.49a4.82,4.82,0,0,0,.9,2.23,3.74,3.74,0,0,0,2.47,1c1.8.17,7.65.23,7.65.23s4.73,0,7.87-.24a3.17,3.17,0,0,0,2.25-1,4.82,4.82,0,0,0,.9-2.23,34.76,34.76,0,0,0,.22-3.64V14.14A34.76,34.76,0,0,0,26,10.5Z"/>
  </g>
</svg>
