<svg xmlns="http://www.w3.org/2000/svg" width="32" height="32" viewBox="0 0 32 32"><path d="M16 0C7.162 0 0 7.162 0 16s7.162 16 16 16 16-7.163 16-16S24.837 0 16 0zM9.656 3.875c3.425.825 1.887 2.6 3.188 3.188s.475-1.775 2.006-1.537 4.25 1.888 4.25 2.48-2.137 1.038-3.188 1.657c-1.05.62-.475 1.42-1.42 2.48-.524.595.24 2.6-.474 2.6-.706 0-.594-1.418-2.244-1.062-1.037.226-2.794 1.32-2.794 2.09s1.613.987 1.963.987c.356 0 .713-.65 1.656-.706.918-.055.705 2.482 1.886 2.838.45.137 1.888-.12 2.362-.594.475-.475 2.15-.78 4.156-.78s3.544 1.774 4.02 1.774c.474 0 2.718-.594 2.718.475s-1.45 3.256-2.5 4.68c-.7.95-3.438 2.295-4.5 4.07-.406.337-1.53.712-1.887.706.12-.826.125-1.707.125-3.126s-3.775-2.844-3.775-3.906.706-.356.706-1.656c0-1.3-1.18-.475-2.005-.944-.825-.475-.594-.706-1.537-1.3s-2.612.137-4.625-1.163-2.48-4.606-2.48-5.32c0-.705.724-1.905 1.43-3.087s.944-2.6.594-3.07c.463-.587 1.35-1.268 2.37-1.774z"/></svg>