<svg data-name="Layer 1" xmlns="http://www.w3.org/2000/svg" viewBox="0 0 17 17"><path d="M8.5 1A7.5 7.5 0 1 0 16 8.5 7.508 7.508 0 0 0 8.5 1zm0 13.73a9.636 9.636 0 0 1-1.94-3.723h3.88A9.647 9.647 0 0 1 8.5 14.73zm-2.148-4.723a9.688 9.688 0 0 1 0-3.007h4.3a9.75 9.75 0 0 1 0 3.007zM2 8.5A6.45 6.45 0 0 1 2.182 7h3.153a10.74 10.74 0 0 0 0 3.007H2.182A6.515 6.515 0 0 1 2 8.5zM10.442 6H6.557A9.636 9.636 0 0 1 8.5 2.268 9.625 9.625 0 0 1 10.442 6zm1.222 1h3.154a6.268 6.268 0 0 1 0 3.007h-3.155a10.78 10.78 0 0 0 0-3.007zM14.5 6h-3.026a10.62 10.62 0 0 0-1.82-3.89A6.513 6.513 0 0 1 14.5 6zM7.34 2.11A10.61 10.61 0 0 0 5.525 6H2.5a6.52 6.52 0 0 1 4.84-3.89zM2.5 11.006h3.028a10.6 10.6 0 0 0 1.82 3.887A6.5 6.5 0 0 1 2.5 11.007zm7.153 3.884a10.6 10.6 0 0 0 1.82-3.883H14.5a6.518 6.518 0 0 1-4.847 3.884z"/></svg>