<svg xmlns="http://www.w3.org/2000/svg" viewBox="0 0 512 512"><path d="M384 288H224v-32h160v32zm32 160H192v32h224v-32zm-32-257.6H224v32h160v-32zm0-62.4H224v32h160v-32zM128 323.2c0-19.2 11.2-35.2 30.4-35.2V19.2c0-9.6 8-19.2 17.6-19.2h192c4.8 0 9.6 1.6 12.8 4.8l62.4 64c3.2 3.2 4.8 8 4.8 12.8V288h28.8c19.2 0 35.2 16 35.2 35.2v153.6c0 19.2-16 35.2-35.2 35.2H163.2c-19.2 0-35.2-16-35.2-35.2V323.2zM96 448v33c-9 14-21.4 31-47 31-30 0-49-47-49-63V223c0-30 18-62.7 46-62.7 25.6 0 43 21.7 49.7 32.7v63.7l-32.4-.7 1.3 160 32 .7L96 448zM414.4 96h-44.8C360 96 352 88 352 78.4V32H192v288h224V96h-1.6zM480 379.2c0-11.2-9.6-20.8-20.8-20.8s-20.8 9.6-20.8 20.8S448 400 459.2 400s20.8-9.6 20.8-20.8z"/></svg>