<svg id="Icons" xmlns="http://www.w3.org/2000/svg" viewBox="0 0 36 36"><title>Icon-Red_Hat-Software-Catalog-A-Black-RGB</title><path d="M11.3,19a2.25,2.25,0,0,0-1.05,1.91,2.29,2.29,0,0,0,1.32,2A1.26,1.26,0,0,1,12.25,24a6.69,6.69,0,0,0,1.07,3.61,7.79,7.79,0,0,0,6.57,3.64h.23a8,8,0,0,0,7.51-8v-4.2a.75.75,0,0,0-.6-.73l-7.3-1.51v-.24a.34.34,0,0,0,0-.1V12.52a2.25,2.25,0,0,0-4.5,0l0,7.61a6,6,0,0,0-1.76-1.3A2.26,2.26,0,0,0,11.3,19Zm3.87,4.24a.77.77,0,0,0,.39.48.86.86,0,0,0,.65.07.76.76,0,0,0,.54-.73l0-10.49a.75.75,0,0,1,1.5,0v4.05s0,.08,0,.11v.74a.76.76,0,0,0,.6.74l7.3,1.5v3.59a6.43,6.43,0,0,1-6.05,6.51,6.19,6.19,0,0,1-5.49-2.93A5.18,5.18,0,0,1,13.75,24a2.74,2.74,0,0,0-1.49-2.45.83.83,0,0,1-.51-.71.74.74,0,0,1,.35-.64.82.82,0,0,1,.4-.12.72.72,0,0,1,.33.08A4.27,4.27,0,0,1,15.17,23.19Z"/><path d="M7,13.27h6a.75.75,0,0,0,0-1.5H7.75v-4h20.5v4H22a.75.75,0,0,0,0,1.5h7a.76.76,0,0,0,.75-.75V7A.75.75,0,0,0,29,6.27H7A.74.74,0,0,0,6.25,7v5.5A.75.75,0,0,0,7,13.27Z"/><path d="M7,21.77H8a.75.75,0,0,0,0-1.5H7.75v-4H13a.75.75,0,0,0,0-1.5H7a.74.74,0,0,0-.75.75V21A.75.75,0,0,0,7,21.77Z"/><path d="M29.75,15.52a.75.75,0,0,0-.75-.75H24a.75.75,0,0,0,0,1.5h5A.76.76,0,0,0,29.75,15.52Z"/></svg>