<svg id="Icon" xmlns="http://www.w3.org/2000/svg" viewBox="0 0 36 36"><title>Icon-Red_Hat-Objects-Pen-A-Black</title><path d="M28.87,11.73l.18-.17a.75.75,0,0,0,0-1.06l-.26-.26,1.59-1.59a.74.74,0,0,0,0-1.06L28.26,5.47a.75.75,0,0,0-1.06,0L25.61,7.06l-.1-.1a.77.77,0,0,0-1.06,0L7.74,23.67a.94.94,0,0,0-.2.35l-1.27,4.9a.77.77,0,0,0,.73.94.76.76,0,0,0,.21,0L12,28.46a.73.73,0,0,0,.33-.19L27.81,12.79l1,1-6,6-.17-.18a.75.75,0,0,0-1.06,0,.74.74,0,0,0,0,1.06l.7.71a.74.74,0,0,0,.53.22.71.71,0,0,0,.53-.22l7.07-7.07a.74.74,0,0,0,0-1.06ZM11.41,27.07,8.05,28,9,24.59l16-16L27.46,11ZM27.73,9.18,26.67,8.12l1.06-1.06,1.06,1.06Z"/></svg>