<svg id="a624f400-69d8-4ea2-985a-8439b100f1be" data-name="Layer 1" xmlns="http://www.w3.org/2000/svg" width="36" height="36" viewBox="0 0 36 36"><title>Icon-Red_Hat-</title><path d="M25,14.75a.76.76,0,0,0-.75.75V28.75H11.75V15.5a.75.75,0,0,0-1.5,0v14a.76.76,0,0,0,.75.75H25a.76.76,0,0,0,.75-.75v-14A.76.76,0,0,0,25,14.75Zm5.72,1.54-2-7a.74.74,0,0,0-.39-.46l-6-3h0l-.14,0-.15,0H14l-.15,0-.14,0h0l-6,3a.74.74,0,0,0-.39.46l-2,7a.74.74,0,0,0,.3.83l3,2a.74.74,0,0,0,.42.13.75.75,0,0,0,.42-1.37l-2.55-1.7L8.63,10,13.4,7.64a4.74,4.74,0,0,0,9.2,0L27.37,10l1.76,6.16-2.55,1.7A.75.75,0,0,0,27,19.25a.74.74,0,0,0,.42-.13l3-2A.74.74,0,0,0,30.72,16.29ZM18,9.75a3.26,3.26,0,0,1-3.16-2.5h6.32A3.26,3.26,0,0,1,18,9.75Z"/></svg>