<svg id="Icons" xmlns="http://www.w3.org/2000/svg" viewBox="0 0 36 36"><title>Icon-Red_Hat-Science-Brain-A-Black-RGB</title><path d="M27.29,12.3a.11.11,0,0,1,0-.05c0-.09,0-.17.05-.26a5,5,0,0,0-5-5.94A5.06,5.06,0,0,0,18,8.57a5.06,5.06,0,0,0-9.43,2.55,4.7,4.7,0,0,0,.14,1.18l-.17.12a4.92,4.92,0,0,0-.45.28l-.31.23-.3.26-.3.26-.45.5c-.08.1-.15.21-.23.32l-.23.33c-.07.1-.13.21-.19.31s-.17.32-.25.49-.07.14-.1.22a6,6,0,0,0-.25.71l-.06.25a5.41,5.41,0,0,0-.12.58,2,2,0,0,0,0,.24,5.69,5.69,0,0,0-.06.83,7.46,7.46,0,0,0,.08,1s0,.1,0,.14,0,0,0,.05h0c0,.08,0,.16.07.24a5.7,5.7,0,0,0,.23.86,2.36,2.36,0,0,0,.12.28,5.12,5.12,0,0,0,.35.75c.06.1.13.2.2.3a6.15,6.15,0,0,0,.42.62c.09.11.2.22.3.33s.29.32.45.47.28.22.42.33.29.23.45.33.35.2.53.3a3.88,3.88,0,0,0,.46.22,6.13,6.13,0,0,0,.6.22c.11,0,.21.09.32.12a4.05,4.05,0,0,0-.1.92,4.31,4.31,0,0,0,4.3,4.3h.07A4.26,4.26,0,0,0,18,28.1a4.3,4.3,0,0,0,7.85-2.42,4.12,4.12,0,0,0-.1-.86.13.13,0,0,0,0-.06A6.76,6.76,0,0,0,27.29,12.3Zm-2.12,11A4.23,4.23,0,0,0,23.71,22a.75.75,0,1,0-.74,1.3,2.82,2.82,0,0,1,1.2,1.44,2.42,2.42,0,0,1,.12.35,2.74,2.74,0,0,1,.09.64,2.8,2.8,0,0,1-5.6,0,4.29,4.29,0,0,0-4.29-4.29.75.75,0,0,0,0,1.5,2.79,2.79,0,0,1,2.77,2.57.79.79,0,0,0-.05.22,2.8,2.8,0,1,1-5.32-1.18.77.77,0,0,0,0-.68.76.76,0,0,0-.57-.38,5.31,5.31,0,0,1-.77-.17l-.29-.09a4.87,4.87,0,0,1-.57-.24l-.29-.14a5.72,5.72,0,0,1-.48-.32,2.92,2.92,0,0,1-.28-.21A3.57,3.57,0,0,1,8.34,22a2.58,2.58,0,0,0,.29,0,3.2,3.2,0,0,0,.75-.09A3.43,3.43,0,0,0,12,17.85a.75.75,0,1,0-1.46.33,1.94,1.94,0,0,1-.26,1.45,1.91,1.91,0,0,1-1.22.85,1.93,1.93,0,0,1-2.27-1.37,6.4,6.4,0,0,1-.08-.88,4.94,4.94,0,0,1,.1-.95A2.44,2.44,0,0,1,6.86,17a5.64,5.64,0,0,1,.21-.7l.08-.2a5.31,5.31,0,0,1,1-1.55l.12-.12a6.23,6.23,0,0,1,.62-.51l.14-.1a5.21,5.21,0,0,1,5.09-.38.77.77,0,0,0,1-.36.75.75,0,0,0-.37-1A6.62,6.62,0,0,0,12,11.47a6.86,6.86,0,0,0-1.83.26,3.08,3.08,0,0,1-.06-.61,3.57,3.57,0,0,1,7.14,0,.78.78,0,0,0,.07.31V20a.75.75,0,0,0,1.5,0v-8.9a3.58,3.58,0,0,1,3.58-3.57h0a3.57,3.57,0,0,1,3.57,3.57,3.71,3.71,0,0,1-.06.67,5,5,0,0,1-.19.63h0a3.57,3.57,0,0,1-3.32,2.27.75.75,0,0,0,0,1.5,4.83,4.83,0,0,0,.94-.1,2.83,2.83,0,0,0,.12,1,2.78,2.78,0,0,0,2.65,1.94A3,3,0,0,0,26.9,19a.76.76,0,0,0,.49-.95.74.74,0,0,0-.94-.48,1.28,1.28,0,0,1-1.06-2.3.82.82,0,0,0,.24-.25A4.85,4.85,0,0,0,26.7,13.7a5.23,5.23,0,0,1-1.53,9.64Z"/></svg>