<svg id="Layer_1" data-name="Layer 1" xmlns="http://www.w3.org/2000/svg" viewBox="0 0 36 36"><title>Icon-Red_Hat-Calendar-A-Black-RGB</title><path d="M29,8.25H7A.76.76,0,0,0,6.25,9V24s0,0,0,.05a.58.58,0,0,0,0,.19s0,.05,0,.08a1,1,0,0,0,.15.21l5,5a.78.78,0,0,0,.24.16.72.72,0,0,0,.29.06H29a.76.76,0,0,0,.75-.75V9A.76.76,0,0,0,29,8.25ZM11.25,27.19,8.81,24.75h2.44Zm17,1.06H12.75V24a.76.76,0,0,0-.75-.75H7.75v-9.5h2.5V15a.75.75,0,0,0,1.5,0V13.75h12.5V15a.75.75,0,0,0,1.5,0V13.75h2.5Zm0-16h-2.5V11a.75.75,0,0,0-1.5,0v1.25H11.75V11a.75.75,0,0,0-1.5,0v1.25H7.75V9.75h20.5Z"/></svg>