<svg id="ea015e19-503e-425e-81c5-bc7126e2e68d" data-name="Layer 1" xmlns="http://www.w3.org/2000/svg" viewBox="0 0 36 36">
  <title>Icon-Red_Hat-Carrot-A-Black-RGB</title>
  <g>
    <path d="M23.657,12.342a5.147,5.147,0,0,0-1.921-1.215,5.14,5.14,0,0,0-6.03,2.051l-5.629,8.669-5.63,8.668a.749.749,0,0,0,.1.939.726.726,0,0,0,.247.164.75.75,0,0,0,.692-.065l8.668-5.629,8.668-5.63a5.14,5.14,0,0,0,.836-7.952Zm-.529,5.544A3.627,3.627,0,0,1,22,19.036l-4.577,2.973-.835-.835-.884-.883a.75.75,0,1,0-1.06,1.06l.883.884.61.609-1.325.861L7.627,28.373,12.3,21.184l3.642-5.608.918.918,1.324,1.325a.758.758,0,0,0,.248.165.749.749,0,0,0,.813-.165.752.752,0,0,0,0-1.061l-1.325-1.324L16.773,14.29,16.964,14a3.628,3.628,0,0,1,2.672-1.639c.065-.006.13-.012.2-.015s.129,0,.193,0a3.647,3.647,0,0,1,3.1,5.55Z"/>
    <path d="M26.307,10.754l1.324-1.325,1.325-1.324A.75.75,0,0,0,27.9,7.044L26.571,8.369,25.246,9.693a.751.751,0,0,0,.248,1.226.761.761,0,0,0,.282.055.747.747,0,0,0,.531-.22Z"/>
    <path d="M31.631,11.891a.749.749,0,0,0-.383-.427,4.507,4.507,0,0,0-5.119.879.75.75,0,0,0,.812,1.225.733.733,0,0,0,.248-.165,3,3,0,0,1,3.412-.585.75.75,0,0,0,1.03-.927Z"/>
    <path d="M22.845,10.036a.75.75,0,0,0,.564,0,.758.758,0,0,0,.248-.165,4.507,4.507,0,0,0,.879-5.119.75.75,0,0,0-1.354.647A3.006,3.006,0,0,1,22.6,8.811a.748.748,0,0,0,0,1.06A.758.758,0,0,0,22.845,10.036Z"/>
  </g>
</svg>
