<svg id="Layer_1" data-name="Layer 1" xmlns="http://www.w3.org/2000/svg" viewBox="0 0 36 36"><title>Icon-Red_Hat-Book-A-Black-RGB</title><path d="M30.09,9.6H18.4L12.62,3.82a.78.78,0,0,0-.82-.16.75.75,0,0,0-.46.69V9.6H6.09a.75.75,0,0,0-.75.75v18a.74.74,0,0,0,.75.75h24a.75.75,0,0,0,.75-.75v-18A.76.76,0,0,0,30.09,9.6ZM6.84,27.6V11.1h4.5V23.35a.75.75,0,0,0,.27.58L16,27.6Zm10.5-16.5V26.75L12.84,23V6.16L16.28,9.6l1.06,1.06Zm12,16.5H25.9l3.44-3.44Zm-4.5-1.06V23.1h3.44Zm4.5-4.94H24.09a.75.75,0,0,0-.75.75V27.6h-4.5V11.1h10.5Z"/></svg>