<svg id="eeaa4cd6-1333-4801-b801-f8f10862e15b" data-name="Layer 1" xmlns="http://www.w3.org/2000/svg" viewBox="0 0 36 36">
  <title>Icon-Red_Hat-Collaboration-A-Black-RGB</title>
  <g>
    <path d="M13.919,22.749c.008-.008.018-.014.027-.022a3.49,3.49,0,1,0-4.933,0c.008.008.019.014.027.022a6.243,6.243,0,0,0-3.79,5.73.749.749,0,0,0,.75.75H16.958a.748.748,0,0,0,.75-.75,6.241,6.241,0,0,0-3.789-5.73Zm-3.846-3.895a1.987,1.987,0,1,1-.583,1.407A1.984,1.984,0,0,1,10.073,18.854Zm1.406,8.875H6.81a4.73,4.73,0,0,1,9.339,0Z"/>
    <path d="M26.96,22.749c.009-.008.019-.014.027-.022a3.489,3.489,0,1,0-4.932,0c.008.008.018.014.027.022a6.243,6.243,0,0,0-3.79,5.73.749.749,0,0,0,.75.75H30a.749.749,0,0,0,.75-.75,6.243,6.243,0,0,0-3.79-5.73Zm-3.845-3.895a1.987,1.987,0,1,1-.583,1.407A1.982,1.982,0,0,1,23.115,18.854Zm1.406,8.875H19.852a4.729,4.729,0,0,1,9.338,0Z"/>
    <path d="M30.53,6.99A.744.744,0,0,0,30,6.771H6a.749.749,0,0,0-.75.75v6a.751.751,0,0,0,.75.75H9.189l.891.89.89.89a.748.748,0,0,0,1.06,0l.89-.89.891-.89h8.378l.891.89.89.89a.748.748,0,0,0,1.06,0l.89-.89.891-.89H30a.751.751,0,0,0,.75-.75v-6A.747.747,0,0,0,30.53,6.99Zm-1.28,3.531v2.25H26.5a.751.751,0,0,0-.53.219l-.735.735-.735.735-.735-.735-.735-.735a.751.751,0,0,0-.53-.219h-9a.751.751,0,0,0-.53.219l-.735.735-.735.735-.735-.735-.735-.735a.751.751,0,0,0-.53-.219H6.75v-4.5h22.5Z"/>
  </g>
</svg>
