<svg id="Layer_1" data-name="Layer 1" xmlns="http://www.w3.org/2000/svg" viewBox="0 0 36 36"><title>Icon-Red_Hat-Hardware-Server_Stack-A-Black-RGB</title><path d="M8,13.25H28a.76.76,0,0,0,.75-.75v-5A.76.76,0,0,0,28,6.75H8a.75.75,0,0,0-.75.75v5A.75.75,0,0,0,8,13.25Zm.75-5h18.5v3.5H8.75Z"/><path d="M25.58,9.31a.75.75,0,0,0-1,1,.78.78,0,0,0,.16.24.75.75,0,1,0,1.06-1.06A.78.78,0,0,0,25.58,9.31Z"/><path d="M13.45,9.25h-3a.75.75,0,0,0,0,1.5h3a.75.75,0,0,0,0-1.5Z"/><path d="M8,21.25H28a.76.76,0,0,0,.75-.75v-5a.76.76,0,0,0-.75-.75H8a.75.75,0,0,0-.75.75v5A.75.75,0,0,0,8,21.25Zm.75-5h18.5v3.5H8.75Z"/><path d="M25.58,17.31a.75.75,0,0,0-.82,1.22.72.72,0,0,0,.25.16.67.67,0,0,0,.28.06.75.75,0,0,0,.53-1.28A.78.78,0,0,0,25.58,17.31Z"/><path d="M13.45,17.25h-3a.75.75,0,0,0,0,1.5h3a.75.75,0,0,0,0-1.5Z"/><path d="M28.75,23.5a.75.75,0,0,0-.75-.75H8a.75.75,0,0,0-.75.75v5a.75.75,0,0,0,.75.75H28a.75.75,0,0,0,.53-.22C28.76,28.8,28.76,28.8,28.75,23.5Zm-1.5,4.25H8.75v-3.5h18.5Z"/><path d="M25,25.31a.72.72,0,0,0-.25.16.75.75,0,0,0,0,1.06.72.72,0,0,0,.25.16.67.67,0,0,0,.28.06.75.75,0,0,0,.53-1.28A.74.74,0,0,0,25,25.31Z"/><path d="M13.45,25.25h-3a.75.75,0,0,0,0,1.5h3a.75.75,0,1,0,0-1.5Z"/></svg>