<svg id="Icons" xmlns="http://www.w3.org/2000/svg" viewBox="0 0 36 36"><title>Icon-Red_Hat-Objects-Beaker-A-Black-RGB</title><path d="M21,17.25A4.25,4.25,0,1,0,16.75,13,4.26,4.26,0,0,0,21,17.25Zm0-7A2.75,2.75,0,1,1,18.25,13,2.75,2.75,0,0,1,21,10.25Z"/><path d="M13.5,10.25A2.75,2.75,0,1,0,10.75,7.5,2.75,2.75,0,0,0,13.5,10.25Zm0-4A1.25,1.25,0,1,1,12.25,7.5,1.25,1.25,0,0,1,13.5,6.25Z"/><path d="M27.5,8.75a.76.76,0,0,0-.75.75V21.15A5.61,5.61,0,0,1,19,21a7.12,7.12,0,0,0-8.78-1V12.5A.75.75,0,0,0,10,12L7,9A.75.75,0,0,0,6,10l2.78,2.78V28.52a2.73,2.73,0,0,0,2.73,2.73h14a2.73,2.73,0,0,0,2.73-2.73V9.5A.76.76,0,0,0,27.5,8.75Zm-2,21h-14a1.23,1.23,0,0,1-1.23-1.23V21.85A5.61,5.61,0,0,1,18,22a7.12,7.12,0,0,0,8.78,1v5.48A1.23,1.23,0,0,1,25.52,29.75Z"/><path d="M20,6a.78.78,0,0,0,.24.16.72.72,0,0,0,.29.06A.75.75,0,0,0,21,6a.67.67,0,0,0,.16-.25.72.72,0,0,0,.06-.29A.74.74,0,0,0,21,5a.75.75,0,0,0-1.22.24.71.71,0,0,0-.06.28.68.68,0,0,0,.06.29A.67.67,0,0,0,20,6Z"/><path d="M13.21,12.8A1,1,0,0,0,13,13a.77.77,0,0,0-.22.54A.74.74,0,0,0,13,14,.73.73,0,0,0,14,14a.63.63,0,0,0,.16-.24.67.67,0,0,0,.06-.28.75.75,0,0,0-1-.7Z"/></svg>