<svg id="Icons" xmlns="http://www.w3.org/2000/svg" viewBox="0 0 36 36"><title>Icon-Red_Hat-Objects-Control_Panel-A-Black-RGB</title><path d="M8.47,12.55a.75.75,0,0,0,1.06,0,1,1,0,0,0,.16-.25A.67.67,0,0,0,9.75,12a.72.72,0,0,0-.06-.29.82.82,0,0,0-.16-.25,1,1,0,0,0-.24-.16.83.83,0,0,0-.58,0,1,1,0,0,0-.24.16.67.67,0,0,0-.16.25.72.72,0,0,0-.06.29.67.67,0,0,0,.06.28A.76.76,0,0,0,8.47,12.55Z"/><path d="M8.47,18.55a.75.75,0,0,0,1.06,0,1,1,0,0,0,.16-.25A.67.67,0,0,0,9.75,18a.75.75,0,0,0-.22-.53.81.81,0,0,0-.24-.17.77.77,0,0,0-.82.17.75.75,0,0,0-.22.53.67.67,0,0,0,.06.28A.76.76,0,0,0,8.47,18.55Z"/><path d="M8.47,24.55a.75.75,0,0,0,1.06,0,1,1,0,0,0,.16-.25A.67.67,0,0,0,9.75,24a.75.75,0,0,0-.22-.53.81.81,0,0,0-.24-.17.77.77,0,0,0-.82.17.75.75,0,0,0-.22.53.67.67,0,0,0,.06.28A.76.76,0,0,0,8.47,24.55Z"/><path d="M8.47,21.55a.75.75,0,0,0,1.06,0,1,1,0,0,0,.16-.25A.67.67,0,0,0,9.75,21a.75.75,0,0,0-.22-.53.81.81,0,0,0-.24-.17.77.77,0,0,0-.82.17.75.75,0,0,0-.22.53.67.67,0,0,0,.06.28A.76.76,0,0,0,8.47,21.55Z"/><path d="M8.47,15.55a.75.75,0,0,0,1.06,0,1,1,0,0,0,.16-.25A.67.67,0,0,0,9.75,15a.75.75,0,0,0-.22-.53.81.81,0,0,0-.24-.17.77.77,0,0,0-.82.17.75.75,0,0,0-.22.53.67.67,0,0,0,.06.28A.76.76,0,0,0,8.47,15.55Z"/><path d="M30.75,27V9.08A.76.76,0,0,0,30,8.33H6a.75.75,0,0,0-.75.75V27a.75.75,0,0,0,.75.75h5.94a.85.85,0,0,0,.17,0,.85.85,0,0,0,.17,0H30A.76.76,0,0,0,30.75,27Zm-19.39-.75H6.75V9.83h4.61Zm17.89,0H12.86V9.83H29.25Z"/><path d="M15,14.77h.25V24a.75.75,0,0,0,1.5,0V14.77H17a.75.75,0,0,0,0-1.5h-.25V12a.75.75,0,0,0-1.5,0v1.25H15a.75.75,0,0,0,0,1.5Z"/><path d="M20,21.77h.25V24a.75.75,0,0,0,1.5,0V21.77H22a.75.75,0,0,0,0-1.5h-.25V12a.75.75,0,1,0-1.5,0v8.25H20a.75.75,0,0,0,0,1.5Z"/><path d="M25,18.77h.25V24a.75.75,0,0,0,1.5,0V18.77H27a.75.75,0,0,0,0-1.5h-.25V12a.75.75,0,1,0-1.5,0v5.25H25a.75.75,0,0,0,0,1.5Z"/></svg>