<?xml version="1.0" encoding="utf-8"?>
<!-- Generator: Adobe Illustrator 24.2.1, SVG Export Plug-In . SVG Version: 6.00 Build 0)  -->
<svg version="1.1" id="ba720445-e19a-4a8d-8ed5-fd8a79ed9678"
	 xmlns="http://www.w3.org/2000/svg" xmlns:xlink="http://www.w3.org/1999/xlink" x="0px" y="0px" viewBox="0 0 36 36"
	 style="enable-background:new 0 0 36 36;" xml:space="preserve">
<path d="M15.749,11.37V7c0-0.414-0.336-0.75-0.75-0.75s-0.75,0.336-0.75,0.75v4.37c-1.152,0.328-2.001,1.377-2.001,2.634
	c0,1.519,1.232,2.751,2.751,2.751s2.751-1.232,2.751-2.751C17.75,12.747,16.902,11.698,15.749,11.37z M14.999,15.253
	c-0.69,0-1.249-0.559-1.249-1.249s0.559-1.249,1.249-1.249s1.249,0.559,1.249,1.249S15.689,15.253,14.999,15.253z M30.529,7.53
	c0.278-0.307,0.256-0.781-0.051-1.059c-0.287-0.26-0.724-0.26-1.01,0.001l-8,8c-0.14,0.141-0.219,0.331-0.219,0.53v3.364
	c-1.151,0.329-2,1.377-2,2.634c0,1.519,1.232,2.751,2.751,2.751s2.751-1.232,2.751-2.751c0-1.258-0.849-2.307-2.002-2.634v-3.055
	L30.529,7.53z M23.249,21c0,0.69-0.559,1.249-1.249,1.249S20.752,21.69,20.752,21s0.559-1.249,1.249-1.249S23.249,20.31,23.249,21z
	 M28.001,25.249c-1.257,0-2.306,0.849-2.634,2.001H19.31L8.749,16.69v-6.056C9.902,10.306,10.75,9.257,10.75,8
	c0-1.519-1.232-2.751-2.751-2.751S5.249,6.481,5.249,8c0,1.257,0.849,2.306,2.001,2.634V17c0,0.199,0.079,0.389,0.219,0.53l11,11
	c0.141,0.141,0.332,0.22,0.531,0.22h6.367c0.328,1.152,1.377,2.001,2.634,2.001c1.519,0,2.751-1.232,2.751-2.751
	C30.751,26.481,29.52,25.249,28.001,25.249z M6.751,8C6.751,7.31,7.31,6.751,8,6.751S9.248,7.31,9.248,8S8.689,9.249,7.999,9.249
	S6.751,8.69,6.751,8z M28.001,29.249c-0.69,0-1.249-0.559-1.249-1.249s0.559-1.249,1.249-1.249S29.249,27.31,29.249,28
	S28.69,29.249,28.001,29.249z M8.999,24.249c-1.519,0-2.751,1.232-2.751,2.751c0,1.519,1.232,2.751,2.751,2.751
	S11.75,28.519,11.75,27C11.749,25.481,10.518,24.249,8.999,24.249z M8.999,28.249c-0.69,0-1.249-0.559-1.249-1.249
	s0.559-1.249,1.249-1.249S10.248,26.31,10.248,27S9.688,28.249,8.999,28.249z"/>
</svg>
