<svg id="acad1a49-d484-4ca1-aa68-131264879c41" data-name="Layer 1" xmlns="http://www.w3.org/2000/svg" viewBox="0 0 36 36">
  <g>
    <path d="M15.54,21.78a.62.62,0,0,0-.23.85A5.18,5.18,0,1,1,5.63,25.2a.34.34,0,0,1,0-.2V16a7.32,7.32,0,0,1,2.16-5.21c1.11-1.37,6.3-3.72,6.6-.79v4a.62.62,0,0,0,1.24,0V10c-.44-4.55-6.71-2.3-8.72-.1A8.53,8.53,0,0,0,4.38,16v9a.45.45,0,0,1,0,.2c.32,8.51,12.53,8.51,12.85,0C17.25,24.39,16.78,21.2,15.54,21.78Z"/>
    <path d="M31.62,16A8.53,8.53,0,0,0,29.1,9.9c-2-2.21-8.28-4.45-8.73.1v4a.63.63,0,0,0,1.25,0V10c.3-2.93,5.49-.57,6.6.79A7.32,7.32,0,0,1,30.38,16v9a5.18,5.18,0,1,1-9.68-2.37.62.62,0,0,0-.23-.85c-1.26-.57-1.7,2.58-1.69,3.42.32,8.51,12.53,8.51,12.85,0a.45.45,0,0,1,0-.2Z"/>
    <path d="M19.85,17.85l2.87.69,2.93,3c-.48.58-1.58,1.17-1,1.85a.63.63,0,0,0,.88,0l.95-.95,1.57,1.61A.62.62,0,0,0,29,23.2L24.87,19l3.05-.77A.62.62,0,0,0,27.61,17l-2.94.74-4.51-1.08c-.06,0-1.54-.44-1.54-1.66V5a.62.62,0,0,0-1.24,0V15c0,1.22-1.48,1.64-1.53,1.65l-4.52,1.09L8.39,17a.62.62,0,0,0-.31,1.21l3.05.77L7,23.2a.63.63,0,0,0,0,.89.62.62,0,0,0,.88,0l1.57-1.61.95.95a.63.63,0,0,0,.88,0,.61.61,0,0,0,0-.88l-1-1,2.93-3,2.88-.7A4,4,0,0,0,18,16.67,4.18,4.18,0,0,0,19.85,17.85Z"/>
  </g>
</svg>
