<svg id="Icons" xmlns="http://www.w3.org/2000/svg" viewBox="0 0 36 36"><title>Icon-Red_Hat-Media-Microphone-A-Black-RGB</title><path d="M13,29.25h0a.75.75,0,1,0,0,1.5l10,0h0a.75.75,0,0,0,0-1.5H18.75V25.73a7.76,7.76,0,0,0,7-7.71.75.75,0,1,0-1.5,0,6.25,6.25,0,0,1-12.5,0,.75.75,0,0,0-1.5,0,7.76,7.76,0,0,0,7,7.71v3.53Z"/><path d="M10,16.78h3.25v1.57a4.75,4.75,0,0,0,9.5,0V16.78H26a.75.75,0,0,0,0-1.5H22.75v-1.5H23a.75.75,0,0,0,0-1.5H18a.75.75,0,0,0,0,1.5h3.25v1.5h-6.5V10a3.24,3.24,0,0,1,6.46-.41H18a.75.75,0,0,0,0,1.5h5a.75.75,0,0,0,0-1.5h-.29a4.74,4.74,0,0,0-9.46.41v5.25H10a.75.75,0,0,0,0,1.5Zm4.75,0h6.5v1.57a3.25,3.25,0,0,1-6.5,0Z"/></svg>