<svg id="e4e128ff-d301-4a56-90df-d81f8ceaedfc" data-name="Layer 1" xmlns="http://www.w3.org/2000/svg" viewBox="0 0 36 36">
  <title>Icon-Red_Hat-Office-A-Black-RGB</title>
  <path d="M29.8,6.218a.747.747,0,0,0-.53-.22H6.734a.751.751,0,0,0-.75.75v22.5a.751.751,0,0,0,.749.75H29.267a.751.751,0,0,0,.75-.75V6.748A.747.747,0,0,0,29.8,6.218ZM21.269,7.5h2.959V11.25H21.269Zm0,5.252h2.959v3.5H21.269ZM16.81,7.5h2.959V11.25H16.81Zm0,5.252h2.959v3.5H16.81ZM12.351,7.5H15.31V11.25H12.351Zm0,5.252H15.31v3.5H12.351ZM7.484,7.5h3.367V11.25H7.484Zm0,5.252h3.367v3.5H7.484ZM17.25,24.912v3.534H14.6V21.379H17.25Zm4.149,0v3.534H18.75V21.379H21.4ZM28.517,18V28.5H22.9V20.629a.751.751,0,0,0-.75-.75h-8.3a.749.749,0,0,0-.75.75V28.5H7.484V17.75H28.517Zm0-1.75H25.728v-3.5h2.789Zm0-5H25.728V7.5h2.789Z"/>
</svg>
