<svg id="a6f76e4c-fba5-4743-80f1-e962541fb50c" data-name="Layer 1" xmlns="http://www.w3.org/2000/svg" viewBox="0 0 36 36">
  <title>Icon-Red_Hat-App_On_Server-A-Black-RGB</title>
  <g>
    <path d="M28.31,24.29a.76.76,0,0,0,.073.127.948.948,0,0,0,.1.113.532.532,0,0,0,.109.095.571.571,0,0,0,.131.065.682.682,0,0,0,.141.045.746.746,0,0,0,.149.015.688.688,0,0,0,.14-.015.713.713,0,0,0,.14-.045.518.518,0,0,0,.136-.065.8.8,0,0,0,.114-.095.693.693,0,0,0,.091-.113.911.911,0,0,0,.069-.127.691.691,0,0,0,.045-.142A.729.729,0,0,0,29.76,24a.693.693,0,0,0-.015-.145.859.859,0,0,0-.045-.145.922.922,0,0,0-.069-.128.687.687,0,0,0-.091-.112.66.66,0,0,0-.114-.091.753.753,0,0,0-.136-.069.774.774,0,0,0-.281-.053.834.834,0,0,0-.289.053.908.908,0,0,0-.131.069.463.463,0,0,0-.109.091.939.939,0,0,0-.1.112.77.77,0,0,0-.073.128,1.18,1.18,0,0,0-.036.145A.767.767,0,0,0,28.26,24a.807.807,0,0,0,.014.148A.922.922,0,0,0,28.31,24.29Z"/>
    <path d="M32.53,20.47a.745.745,0,0,0-.53-.22H4a.751.751,0,0,0-.75.75v7a.751.751,0,0,0,.75.75H32a.751.751,0,0,0,.75-.75V21A.745.745,0,0,0,32.53,20.47ZM31.25,24.5v2.75H4.75v-5.5h26.5Z"/>
    <path d="M9.663,24.25H7a.75.75,0,0,0,0,1.5H9.663a.75.75,0,0,0,0-1.5Z"/>
    <path d="M13,18.75H23a.751.751,0,0,0,.75-.75V8A.751.751,0,0,0,23,7.25H13a.751.751,0,0,0-.75.75V18a.751.751,0,0,0,.75.75ZM13.75,13V8.75h8.5v8.5h-8.5Z"/>
    <path d="M19.47,11.53a.84.84,0,0,0,.112.1.532.532,0,0,0,.128.065.859.859,0,0,0,.145.045A.693.693,0,0,0,20,11.75a.729.729,0,0,0,.148-.015.691.691,0,0,0,.142-.045.526.526,0,0,0,.127-.065.849.849,0,0,0,.113-.1.745.745,0,0,0,.162-.243A.736.736,0,0,0,20.75,11a.693.693,0,0,0-.015-.145.859.859,0,0,0-.045-.145.532.532,0,0,0-.065-.128.84.84,0,0,0-.095-.112.754.754,0,0,0-.384-.2.736.736,0,0,0-.436.044.827.827,0,0,0-.128.069.7.7,0,0,0-.2.2.827.827,0,0,0-.069.128.859.859,0,0,0-.045.145A.693.693,0,0,0,19.25,11a.753.753,0,0,0,.057.287A.764.764,0,0,0,19.47,11.53Z"/>
    <path d="M18.148,11.735a.691.691,0,0,0,.142-.045.911.911,0,0,0,.127-.069.677.677,0,0,0,.2-.2.911.911,0,0,0,.069-.127.691.691,0,0,0,.045-.142A.729.729,0,0,0,18.75,11a.753.753,0,0,0-.22-.53.693.693,0,0,0-.113-.091.817.817,0,0,0-.127-.069.731.731,0,0,0-.58,0,.827.827,0,0,0-.128.069.687.687,0,0,0-.112.091.741.741,0,0,0-.22.53.729.729,0,0,0,.015.148.691.691,0,0,0,.045.142.817.817,0,0,0,.069.127.689.689,0,0,0,.2.2.922.922,0,0,0,.128.069.859.859,0,0,0,.145.045A.693.693,0,0,0,18,11.75.729.729,0,0,0,18.148,11.735Z"/>
  </g>
</svg>
