<svg id="Icons" xmlns="http://www.w3.org/2000/svg" viewBox="0 0 36 36"><title>Icon-Red_Hat-Buildings-Capital_Building-A-Black-RGB</title><path d="M18,4.27a.75.75,0,0,0-.75.75v3.2H16a.76.76,0,0,0-.75.75v2.77a7.75,7.75,0,0,0-5,7.23v.25H9a.75.75,0,0,0,0,1.5H27a.75.75,0,0,0,0-1.5H25.75V19a7.75,7.75,0,0,0-5-7.23V9A.76.76,0,0,0,20,8.22H18.75V5A.75.75,0,0,0,18,4.27ZM24.25,19v.25H11.75V19a6.25,6.25,0,0,1,12.5,0Zm-5-9.25v1.5h-2.5V9.72Z"/><path d="M14.53,17.44a1,1,0,0,0-.24-.16.79.79,0,0,0-.82.16.82.82,0,0,0-.16.25.71.71,0,0,0-.06.28.72.72,0,0,0,.06.29.63.63,0,0,0,.16.24.81.81,0,0,0,.24.17.87.87,0,0,0,.58,0,.81.81,0,0,0,.24-.17.73.73,0,0,0,.22-.53.71.71,0,0,0-.06-.28A.82.82,0,0,0,14.53,17.44Z"/><path d="M17.71,17.28a1,1,0,0,0-.24.16.82.82,0,0,0-.16.25.71.71,0,0,0-.06.28.75.75,0,0,0,.22.53.81.81,0,0,0,.24.17.93.93,0,0,0,.29,0,.71.71,0,0,0,.53-.22.73.73,0,0,0,.22-.53.71.71,0,0,0-.06-.28.82.82,0,0,0-.16-.25,1,1,0,0,0-.24-.16A.78.78,0,0,0,17.71,17.28Z"/><path d="M21.71,18.67a.87.87,0,0,0,.58,0,.81.81,0,0,0,.24-.17.73.73,0,0,0,.22-.53.71.71,0,0,0-.06-.28.82.82,0,0,0-.16-.25,1,1,0,0,0-.24-.16.73.73,0,0,0-.58,0,.78.78,0,0,0-.24.16.67.67,0,0,0-.16.25.71.71,0,0,0-.06.28.75.75,0,0,0,.22.53A.81.81,0,0,0,21.71,18.67Z"/><path d="M30,30.27h-.25V27a.76.76,0,0,0-.75-.75H7a.76.76,0,0,0-.75.75v3.3H6a.75.75,0,1,0,0,1.5H30a.75.75,0,0,0,0-1.5Zm-1.75,0H7.75V27.72h20.5Z"/><path d="M9.25,22v3a.75.75,0,0,0,1.5,0V22a.75.75,0,0,0-1.5,0Z"/><path d="M13.25,22v3a.75.75,0,0,0,1.5,0V22a.75.75,0,0,0-1.5,0Z"/><path d="M17.25,22v3a.75.75,0,0,0,1.5,0V22a.75.75,0,0,0-1.5,0Z"/><path d="M21.25,22v3a.75.75,0,0,0,1.5,0V22a.75.75,0,0,0-1.5,0Z"/><path d="M25.25,22v3a.75.75,0,0,0,1.5,0V22a.75.75,0,0,0-1.5,0Z"/><path d="M9.47,29.51a.77.77,0,0,0,1.06,0,.79.79,0,0,0,.22-.53.72.72,0,0,0-.06-.29.82.82,0,0,0-.16-.25,1,1,0,0,0-.24-.16.79.79,0,0,0-.82.16.82.82,0,0,0-.16.25.72.72,0,0,0-.06.29.71.71,0,0,0,.06.28A.76.76,0,0,0,9.47,29.51Z"/><path d="M13.47,29.51a.78.78,0,0,0,.24.16.93.93,0,0,0,.29,0,.74.74,0,0,0,.53-.21.79.79,0,0,0,.22-.53.72.72,0,0,0-.06-.29.82.82,0,0,0-.16-.25,1,1,0,0,0-.24-.16.73.73,0,0,0-.58,0,1,1,0,0,0-.24.16.82.82,0,0,0-.16.25.72.72,0,0,0-.06.29.71.71,0,0,0,.06.28A.76.76,0,0,0,13.47,29.51Z"/><path d="M18,29.72a.74.74,0,0,0,.53-.21.76.76,0,0,0,.16-.25.71.71,0,0,0,.06-.28.72.72,0,0,0-.06-.29.82.82,0,0,0-.16-.25.79.79,0,0,0-.82-.16,1,1,0,0,0-.24.16.67.67,0,0,0-.16.25.72.72,0,0,0-.06.29.79.79,0,0,0,.22.53A.74.74,0,0,0,18,29.72Z"/><path d="M21.47,29.51a.78.78,0,0,0,.24.16.93.93,0,0,0,.29,0,.74.74,0,0,0,.53-.21.79.79,0,0,0,.22-.53.72.72,0,0,0-.06-.29.82.82,0,0,0-.16-.25,1,1,0,0,0-.24-.16.73.73,0,0,0-.58,0,.78.78,0,0,0-.24.16.67.67,0,0,0-.16.25.72.72,0,0,0-.06.29.71.71,0,0,0,.06.28A.76.76,0,0,0,21.47,29.51Z"/><path d="M26,29.72a.93.93,0,0,0,.29,0,.78.78,0,0,0,.24-.16.76.76,0,0,0,0-1.07.78.78,0,0,0-.24-.16.83.83,0,0,0-.58,0,1,1,0,0,0-.24.16.82.82,0,0,0-.16.25.72.72,0,0,0-.06.29.79.79,0,0,0,.22.53A.74.74,0,0,0,26,29.72Z"/></svg>