<?xml version="1.0" encoding="UTF-8"?>
<svg id="uuid-342d7878-85c2-4ac1-852a-29e685350fc8" data-name="Icon" xmlns="http://www.w3.org/2000/svg" viewBox="0 0 36 36">
  <path d="M31.58,18.24c.06-.15,.06-.33,0-.48-.03-.06-.07-.12-.11-.17,0-.01-.01-.02-.02-.03l-2-2c-.58-.58-1.46,.3-.88,.88l.93,.93h-7.49c-.82,0-.82,1.25,0,1.25h7.49l-.93,.93c-.58,.58,.3,1.46,.88,.88l2-2s.01-.02,.02-.03c.04-.05,.09-.11,.11-.17Z"/>
  <path d="M22,12.62h4.49l-.93,.93c-.58,.58,.3,1.46,.88,.88l2-2s.01-.02,.02-.03c.04-.05,.09-.11,.11-.17,.06-.15,.06-.33,0-.48-.03-.06-.07-.12-.11-.17,0-.01-.01-.02-.02-.03l-2-2c-.58-.58-1.46,.3-.88,.88l.93,.93h-4.49c-.82,0-.82,1.25,0,1.25Z"/>
  <path d="M28.58,23.76c-.03-.06-.07-.12-.11-.17,0-.01-.01-.02-.02-.03l-2-2c-.58-.58-1.46,.3-.88,.88l.93,.93h-4.49c-.82,0-.82,1.25,0,1.25h4.49l-.93,.93c-.58,.58,.3,1.46,.88,.88l2-2s.01-.02,.02-.03c.04-.05,.09-.11,.11-.17,.06-.15,.06-.33,0-.48Z"/>
  <path d="M18,4.38c-.35,0-.62,.28-.62,.62V31c0,.82,1.25,.82,1.25,0V5c0-.35-.28-.62-.62-.62Z"/>
  <path d="M13.56,18.44c.06,.06,.12,.11,.2,.14,.24,.08,.5,.04,.68-.14,.06-.06,.11-.13,.14-.2,.06-.16,.06-.32,0-.48-.03-.08-.08-.14-.14-.2-.17-.18-.45-.23-.68-.14-.07,.03-.14,.08-.2,.14-.06,.06-.11,.13-.14,.2-.07,.16-.07,.32,0,.48,.03,.07,.08,.14,.14,.2Z"/>
  <path d="M14,12.62c.54,.03,.83-.71,.44-1.06-.23-.24-.65-.23-.88,0-.25,.22-.25,.64,0,.88,.12,.12,.27,.18,.44,.18Z"/>
  <path d="M14.44,23.56c-.18-.18-.45-.23-.68-.14-.07,.03-.14,.08-.2,.14-.06,.06-.11,.13-.14,.2-.07,.16-.07,.32,0,.48,.03,.07,.08,.14,.14,.2,.06,.06,.12,.11,.2,.14,.24,.1,.5,.04,.68-.14,.06-.06,.11-.13,.14-.2,.07-.16,.07-.32,0-.48-.03-.07-.08-.14-.14-.2Z"/>
  <path d="M9.56,14.56c-.06,.05-.11,.12-.14,.2-.08,.24-.04,.5,.14,.68,.57,.57,1.47-.31,.88-.88-.23-.24-.65-.24-.88,0Z"/>
  <path d="M9.56,8.56c-.25,.24-.25,.64,0,.88,.57,.59,1.47-.31,.88-.88-.23-.24-.65-.24-.88,0Z"/>
  <path d="M9.76,20.42c-.31,.13-.48,.51-.34,.82,.03,.07,.08,.14,.14,.2,.23,.25,.65,.25,.88,0,.06-.06,.11-.13,.14-.2,.1-.24,.04-.5-.14-.68-.17-.18-.45-.23-.68-.14Z"/>
  <path d="M9.76,26.42c-.08,.03-.14,.08-.2,.14-.18,.17-.22,.45-.14,.68,.03,.07,.08,.14,.14,.2,.23,.24,.65,.24,.88,0,.06-.06,.11-.13,.14-.2,.1-.24,.04-.5-.14-.68-.17-.18-.45-.23-.68-.14Z"/>
  <path d="M5.56,11.56c-.18,.17-.22,.45-.14,.68,.03,.07,.08,.14,.14,.2,.06,.06,.13,.11,.2,.14,.61,.25,1.18-.56,.68-1.02-.23-.24-.65-.24-.88,0Z"/>
  <path d="M6.44,5.56c-.17-.18-.45-.23-.68-.14-.08,.04-.14,.08-.2,.14-.06,.06-.11,.13-.14,.2-.07,.16-.07,.32,0,.48,.03,.07,.08,.14,.14,.2,.06,.06,.12,.1,.2,.14,.23,.08,.51,.04,.68-.14,.06-.06,.11-.13,.14-.2,.07-.16,.07-.32,0-.48-.03-.07-.08-.14-.14-.2Z"/>
  <path d="M5.56,18.44c.23,.24,.65,.24,.88,0,.06-.06,.11-.13,.14-.2,.06-.16,.06-.32,0-.48-.03-.08-.08-.14-.14-.2-.17-.17-.45-.23-.68-.14-.08,.03-.14,.08-.2,.14-.06,.06-.11,.13-.14,.2-.06,.16-.06,.32,0,.48,.03,.07,.08,.14,.14,.2Z"/>
  <path d="M6.44,23.56c-.23-.24-.65-.24-.88,0-.06,.06-.11,.12-.14,.2-.06,.16-.06,.32,0,.48,.03,.07,.08,.14,.14,.2,.23,.25,.65,.25,.88,0,.06-.06,.11-.13,.14-.2,.07-.16,.07-.32,0-.48-.03-.07-.08-.14-.14-.2Z"/>
  <path d="M5.76,29.42c-.08,.03-.14,.08-.2,.14-.24,.23-.24,.65,0,.88,.06,.06,.13,.11,.2,.14,.61,.26,1.16-.56,.68-1.02-.17-.18-.45-.23-.68-.14Z"/>
</svg>