<svg id="Icons" xmlns="http://www.w3.org/2000/svg" viewBox="0 0 36 36"><title>Icon-Red_Hat-Hardware-Smartwatch-A-Black-RGB</title><path d="M22.84,9.87l-.93-4a.76.76,0,0,0-.73-.59H14.64a.75.75,0,0,0-.73.59l-.93,4a3.75,3.75,0,0,0-2.37,3.47v9.29A3.75,3.75,0,0,0,13,26.1l.93,4a.74.74,0,0,0,.73.58h6.54a.75.75,0,0,0,.73-.58l.93-4a3.74,3.74,0,0,0,2.36-3.47V13.34A3.74,3.74,0,0,0,22.84,9.87ZM15.23,6.73h5.35l.66,2.87H14.58Zm5.35,22.5H15.23l-.65-2.86h6.66Zm3.12-6.6a2.24,2.24,0,0,1-2.24,2.24h-7.1a2.25,2.25,0,0,1-2.25-2.24V13.34a2.24,2.24,0,0,1,2.25-2.24h7.1a2.24,2.24,0,0,1,2.24,2.24Z"/><path d="M26.64,14a.75.75,0,0,0-.75.75V18a.75.75,0,1,0,1.5,0V14.71A.76.76,0,0,0,26.64,14Z"/><path d="M15.46,15a.78.78,0,0,0-.24.16.75.75,0,0,0,.53,1.28.72.72,0,0,0,.29-.06.74.74,0,0,0,.4-.4.72.72,0,0,0,.06-.29.75.75,0,0,0-1-.69Z"/><path d="M17.71,14.29a.63.63,0,0,0-.24.16.78.78,0,0,0-.16.24.73.73,0,0,0,0,.58.63.63,0,0,0,.16.24.75.75,0,0,0,.53.22.72.72,0,0,0,.29-.06.78.78,0,0,0,.24-.16.63.63,0,0,0,.16-.24.72.72,0,0,0,.06-.29.75.75,0,0,0-1-.69Z"/><path d="M20,16.42a.73.73,0,0,0,.58,0,.74.74,0,0,0,.4-.4.72.72,0,0,0,.06-.29.75.75,0,0,0-.22-.53.77.77,0,0,0-1.06,0,.75.75,0,0,0,0,1.06A.63.63,0,0,0,20,16.42Z"/><path d="M20.78,19.7a.77.77,0,0,0-1.06,0,.75.75,0,0,0-.22.53.72.72,0,0,0,.06.29.74.74,0,0,0,.4.4.72.72,0,0,0,.29.06.75.75,0,0,0,.53-.22.63.63,0,0,0,.16-.24.73.73,0,0,0,0-.58A.78.78,0,0,0,20.78,19.7Z"/><path d="M15.22,19.7a.75.75,0,0,0-.22.53.72.72,0,0,0,.06.29.74.74,0,0,0,.4.4.73.73,0,0,0,.58,0,.74.74,0,0,0,.4-.4.72.72,0,0,0,.06-.29.75.75,0,0,0-.22-.53A.77.77,0,0,0,15.22,19.7Z"/><path d="M15.29,18.67a.63.63,0,0,0,.24-.16.75.75,0,0,0,0-1.06.63.63,0,0,0-.24-.16A.75.75,0,1,0,15,18.73.72.72,0,0,0,15.29,18.67Z"/><path d="M17.47,20.45a.75.75,0,0,0-.22.53.72.72,0,0,0,.06.29.63.63,0,0,0,.16.24.75.75,0,0,0,1.06,0,.63.63,0,0,0,.16-.24.72.72,0,0,0,.06-.29.75.75,0,0,0-.22-.53A.77.77,0,0,0,17.47,20.45Z"/><path d="M21.29,17.29A.75.75,0,1,0,21,18.73a.72.72,0,0,0,.29-.06.63.63,0,0,0,.24-.16.75.75,0,0,0,0-1.06A.63.63,0,0,0,21.29,17.29Z"/></svg>