<svg id="e14ea9db-91e3-4bff-9aa7-6b1177a98b5d" data-name="collaboration" xmlns="http://www.w3.org/2000/svg" viewBox="0 0 36 36"><title>Icon-Red_Hat-</title><path d="M30,6.77H6a.76.76,0,0,0-.75.75v6a.75.75,0,0,0,.75.75H9.19L11,16.05a.75.75,0,0,0,1.06,0l1.78-1.78h8.38L24,16.05a.75.75,0,0,0,1.06,0l1.78-1.78H30a.75.75,0,0,0,.75-.75v-6A.76.76,0,0,0,30,6.77Zm-.75,6H26.5A.75.75,0,0,0,26,13L24.5,14.46,23,13a.75.75,0,0,0-.53-.22h-9A.75.75,0,0,0,13,13L11.5,14.46,10,13a.75.75,0,0,0-.53-.22H6.75V8.27h22.5ZM27,22.75A3.45,3.45,0,0,0,28,20.26a3.49,3.49,0,1,0-5.93,2.49,6.24,6.24,0,0,0-3.79,5.73.76.76,0,0,0,.75.75H30a.76.76,0,0,0,.75-.75A6.23,6.23,0,0,0,27,22.75Zm-2.44-4.48a2,2,0,1,1-2,2A2,2,0,0,1,24.52,18.27Zm-4.67,9.46a4.73,4.73,0,0,1,9.34,0Zm-5.93-5a3.49,3.49,0,1,0-4.88,0,6.23,6.23,0,0,0-3.79,5.73.76.76,0,0,0,.75.75H17a.76.76,0,0,0,.75-.75A6.24,6.24,0,0,0,13.92,22.75Zm-2.44-4.48a2,2,0,1,1-2,2A2,2,0,0,1,11.48,18.27ZM6.81,27.73a4.73,4.73,0,0,1,9.34,0Z"/></svg>