<svg id="Layer_1" data-name="Layer 1" xmlns="http://www.w3.org/2000/svg" viewBox="0 0 36 36"><title>Icon-Red_Hat-Software_and_technologies-App_Mobile-A-Black-RGB</title><path d="M23.8,27.25a.76.76,0,0,0-.75.75v2.25H8.55V5.75h14.5V8a.75.75,0,0,0,1.5,0V5a.76.76,0,0,0-.75-.75H7.8A.76.76,0,0,0,7.05,5V31a.76.76,0,0,0,.75.75h16a.76.76,0,0,0,.75-.75V28A.76.76,0,0,0,23.8,27.25Z"/><path d="M16.09,7.31a.73.73,0,0,0-.58,0,.74.74,0,0,0-.4.4.72.72,0,0,0-.06.29.75.75,0,0,0,.06.29.74.74,0,0,0,.4.4.72.72,0,0,0,.29.06.75.75,0,0,0,.29-.06.74.74,0,0,0,.4-.4A.75.75,0,0,0,16.55,8a.72.72,0,0,0-.06-.29.74.74,0,0,0-.4-.4Z"/><path d="M27.2,24.71H16.55V14.06a.75.75,0,1,0-1.5,0v11.4a.75.75,0,0,0,.75.75H27.2a.75.75,0,0,0,0-1.5Z"/><path d="M30.2,10.25H18.8a.76.76,0,0,0-.75.75V22.26a.75.75,0,0,0,.75.75H30.2a.75.75,0,0,0,.75-.75V11A.76.76,0,0,0,30.2,10.25Zm-.75,11.26h-9.9V11.75h9.9Z"/><path d="M27.51,14a.72.72,0,0,0,.29.06.75.75,0,0,0,.53-.22.78.78,0,0,0,.16-.24.72.72,0,0,0,.06-.29.75.75,0,0,0-.22-.53.75.75,0,0,0-1.06,0,.75.75,0,0,0,0,1.06A.63.63,0,0,0,27.51,14Z"/><path d="M25.51,14a.72.72,0,0,0,.29.06.75.75,0,0,0,.69-1,.78.78,0,0,0-.16-.24.75.75,0,0,0-.82-.16.74.74,0,0,0-.4.4.74.74,0,0,0,.16.82A.63.63,0,0,0,25.51,14Z"/></svg>