<svg id="Icon" xmlns="http://www.w3.org/2000/svg" viewBox="0 0 36 36"><title>Icon-Red_Hat-Email-A-Black-RGB</title><path d="M28.73,15.15a.58.58,0,0,0,0-.18.55.55,0,0,0-.09-.14.53.53,0,0,0-.06-.1h0l0,0h0L25.7,12V9.45a.7.7,0,0,0-.7-.7H22.25L18.52,5.21a.75.75,0,0,0-1,0L13.75,8.75H11a.7.7,0,0,0-.7.7V12L7.48,14.71h0l0,0h0a.53.53,0,0,0-.06.1.55.55,0,0,0-.09.14.58.58,0,0,0,0,.18s0,.06,0,.1v15A.76.76,0,0,0,8,31H28a.76.76,0,0,0,.75-.75v-15S28.73,15.18,28.73,15.15Zm-3-1.05,1.21,1.15L25.7,16.4ZM18,6.78l2.07,2H15.93Zm-6.3,3.38H24.3v7.57l-3.72,3.54-.07-.07A.74.74,0,0,0,20,21H16a.74.74,0,0,0-.51.2l-.07.07L11.7,17.73ZM10.3,14.1v2.3L9.09,15.25ZM8.75,17l5.57,5.29-1.44,1.36h0L8.75,27.52Zm.08,12.5,5.07-4.75h0l2.4-2.24h3.4l7.47,7Zm18.42-2-5.57-5.23L27.25,17Z"/><path d="M16.54,18.15a.86.86,0,0,0,.37-.1l3.76-2.13a.75.75,0,0,0,0-1.3l-3.76-2.13a.75.75,0,0,0-1.12.66V17.4a.74.74,0,0,0,.37.64A.76.76,0,0,0,16.54,18.15Zm.75-3.72,1.48.84-1.48.84Z"/></svg>