<svg id="a5b78d36-dd1a-467d-8c89-28a044d43f98" data-name="Layer 1" xmlns="http://www.w3.org/2000/svg" viewBox="0 0 36 36">
  <title>Icon-Red_Hat-Lower_Cost_Dollar-A-Black-RGB</title>
  <g>
    <path d="M20.542,9.687a8.1,8.1,0,0,1,1.209.454,8.189,8.189,0,0,1,1.125.641.776.776,0,0,0,.2.1.764.764,0,0,0,.216.032.75.75,0,0,0,.421-1.371,9.724,9.724,0,0,0-2.759-1.295.75.75,0,0,0-.416,1.442Z"/>
    <path d="M24.234,19a4.229,4.229,0,0,0-.763-1.294,4.284,4.284,0,0,0-1.8-1.2,11.957,11.957,0,0,0-2.016-.5l-.356-.068c-.1-.019-.2-.04-.3-.061V5.25a.75.75,0,0,0-1.5,0V15.544l-1.022-.22a8.39,8.39,0,0,1-1.294-.354,2.51,2.51,0,0,1-.959-.635,2.712,2.712,0,0,1-.535-.862,2.733,2.733,0,0,1-.156-1.431,2.789,2.789,0,0,1,.1-.422,2.642,2.642,0,0,1,.813-1.219,3.985,3.985,0,0,1,1.507-.755A.75.75,0,0,0,15.544,8.2a5.422,5.422,0,0,0-2.131,1.117,4.129,4.129,0,0,0-1.2,1.833,4.183,4.183,0,0,0-.157.652,4.238,4.238,0,0,0,1.068,3.545,4.022,4.022,0,0,0,1.5,1.01,9.388,9.388,0,0,0,1.542.43l1.237.266.1.021V28.939l-.36-.359-.36-.36a.75.75,0,1,0-1.06,1.06l1,1,1,1a.742.742,0,0,0,.246.164h0a.741.741,0,0,0,.282.055.707.707,0,0,0,.276-.054h.011a.738.738,0,0,0,.22-.147c.007-.007.016-.009.023-.016l1-1,1-1a.75.75,0,1,0-1.06-1.06l-.72.719V17.4h.006l.375.071a11.576,11.576,0,0,1,1.663.395,2.9,2.9,0,0,1,1.29.818,2.754,2.754,0,0,1,.632,2.227,2.789,2.789,0,0,1-.1.422,2.645,2.645,0,0,1-.813,1.22,3.971,3.971,0,0,1-1.506.753.751.751,0,0,0-.517.926.75.75,0,0,0,.722.545.709.709,0,0,0,.1-.007.649.649,0,0,0,.1-.021,5.4,5.4,0,0,0,2.131-1.116,4.118,4.118,0,0,0,1.2-1.835,4.171,4.171,0,0,0,.157-.651A4.246,4.246,0,0,0,24.234,19Z"/>
    <path d="M15.648,24.706a.76.76,0,0,0,.551-.139.751.751,0,0,0-.232-1.323A8.092,8.092,0,0,1,14.8,22.8a8.38,8.38,0,0,1-1.088-.621q-.255-.173-.494-.362t-.462-.393a.75.75,0,0,0-1.014,1.105c.174.16.357.316.545.465s.385.291.585.427a9.836,9.836,0,0,0,1.287.735,9.68,9.68,0,0,0,1.381.528A.784.784,0,0,0,15.648,24.706Z"/>
  </g>
</svg>
