<svg id="Icons" xmlns="http://www.w3.org/2000/svg" viewBox="0 0 36 36"><title>Icon-Red_Hat-People_and_audiences-Operations-A-Black-RGB</title><path d="M29,22.75a.67.67,0,0,0,.28-.06.82.82,0,0,0,.25-.16.77.77,0,0,0,.22-.53.73.73,0,0,0-.22-.53.77.77,0,0,0-1.06,0,.75.75,0,0,0-.22.53.71.71,0,0,0,.22.53A.75.75,0,0,0,29,22.75Z"/><path d="M32,18.25H4a.76.76,0,0,0-.75.75v7a.76.76,0,0,0,.75.75H32a.76.76,0,0,0,.75-.75V19A.76.76,0,0,0,32,18.25Zm-.75,7H4.75v-5.5h26.5Z"/><path d="M7,23.75H9.66a.75.75,0,0,0,0-1.5H7a.75.75,0,0,0,0,1.5Z"/><path d="M17.21,15.66l.16,0a.76.76,0,0,0,.73-.6l1.24-5.85a.75.75,0,0,0-.57-.89.74.74,0,0,0-.89.58l-1.25,5.85A.76.76,0,0,0,17.21,15.66Z"/><path d="M20.91,15.09a.77.77,0,0,0,.53.22.79.79,0,0,0,.53-.22l2.56-2.57a.75.75,0,0,0,0-1.06L22,8.9a.75.75,0,0,0-1.06,0,.74.74,0,0,0,0,1.06l2,2-2,2A.74.74,0,0,0,20.91,15.09Z"/><path d="M14,15.09a.79.79,0,0,0,.53.22.77.77,0,0,0,.53-.22.74.74,0,0,0,0-1.06l-2-2,2-2a.74.74,0,0,0,0-1.06A.75.75,0,0,0,14,8.9l-2.56,2.56a.75.75,0,0,0,0,1.06Z"/></svg>