<svg id="Layer_1" data-name="Layer 1" xmlns="http://www.w3.org/2000/svg" viewBox="0 0 36 36"><title>Icon-Red_Hat-Remote_Associate-A-Black-RGB</title><path d="M31.49,13l-4.43-2.82a.43.43,0,0,0,0-.11V7.73a.75.75,0,0,0-1.5,0V9.28L18.42,4.72a.74.74,0,0,0-.81,0L4.54,13a.75.75,0,0,0,.81,1.27l1.22-.78V30.31a.75.75,0,0,0,1.5,0V12.57L18,6.24l12.67,8.07a.8.8,0,0,0,.4.11.75.75,0,0,0,.4-1.38Z"/><path d="M28.71,14.11a.76.76,0,0,0-.75.75V30.31a.75.75,0,0,0,1.5,0V14.86A.76.76,0,0,0,28.71,14.11Z"/><path d="M19.41,19.09a.76.76,0,0,0,.51-.2.74.74,0,0,0,0-1.06,2.81,2.81,0,0,0-4,0,.75.75,0,0,0,1.11,1,1.27,1.27,0,0,1,1.83,0A.76.76,0,0,0,19.41,19.09Z"/><path d="M24.44,14.37a.75.75,0,0,0,0-1.06,9.07,9.07,0,0,0-13,0,.75.75,0,0,0,0,1.06.75.75,0,0,0,1.06,0,7.57,7.57,0,0,1,10.87,0,.75.75,0,0,0,.54.22A.77.77,0,0,0,24.44,14.37Z"/><path d="M21.53,17a.73.73,0,0,0,.52-.21.75.75,0,0,0,0-1.06,5.69,5.69,0,0,0-8.25,0,.75.75,0,0,0,1.08,1,4.19,4.19,0,0,1,6.09,0A.76.76,0,0,0,21.53,17Z"/><path d="M24.94,29.6h-14a.75.75,0,1,0,0,1.5h14a.75.75,0,1,0,0-1.5Z"/><path d="M12.19,21.31v6a.75.75,0,0,0,.75.75h10a.74.74,0,0,0,.75-.74l0-6.05a.75.75,0,0,0-.75-.75h-3a.75.75,0,0,0,0,1.5h2.28l0,4.54H13.69V22.06h2.25a.75.75,0,1,0,0-1.5h-3A.76.76,0,0,0,12.19,21.31Z"/><path d="M17.66,20.62a.56.56,0,0,0-.24.16.72.72,0,0,0-.23.53.75.75,0,0,0,.06.29.66.66,0,0,0,.17.24.73.73,0,0,0,.52.22.75.75,0,0,0,.53-.22.81.81,0,0,0,.17-.24,1,1,0,0,0,.05-.29.75.75,0,0,0-.22-.53.63.63,0,0,0-.24-.16A.71.71,0,0,0,17.66,20.62Z"/></svg>