<svg id="a9bc6627-8cc9-4700-a7a7-fa8d965bf5ea" data-name="virtual-server-secured" xmlns="http://www.w3.org/2000/svg" viewBox="0 0 36 36"><title>Icon-Red_Hat-Hardware-Virtual_Server_Secured-A-Black-RGB</title><path d="M11.8,11.75a.75.75,0,1,0-.75-.75A.76.76,0,0,0,11.8,11.75Zm-7.8,4a.75.75,0,1,0,.75.75A.76.76,0,0,0,4,15.75Zm10.4-4a.75.75,0,1,0-.75-.75A.76.76,0,0,0,14.4,11.75ZM4,18.5a.75.75,0,1,0,.75.75A.76.76,0,0,0,4,18.5Zm2.6-6.75A.75.75,0,1,0,5.85,11,.75.75,0,0,0,6.6,11.75ZM4.53,21.47a.75.75,0,0,0-1.22.24.73.73,0,0,0,0,.58.63.63,0,0,0,.16.24.75.75,0,0,0,1.06,0,.63.63,0,0,0,.16-.24.73.73,0,0,0,0-.58A.78.78,0,0,0,4.53,21.47ZM9.2,11.75A.75.75,0,1,0,8.45,11,.76.76,0,0,0,9.2,11.75ZM30,14.5a.75.75,0,1,0-.75-.75A.76.76,0,0,0,30,14.5Zm0-2.75a.75.75,0,0,0,.53-1.28.77.77,0,0,0-1.06,0A.75.75,0,0,0,30,11.75Zm-13,0a.75.75,0,1,0-.75-.75A.75.75,0,0,0,17,11.75Zm10.4,0a.75.75,0,1,0-.75-.75A.76.76,0,0,0,27.4,11.75Zm-2.6,0a.75.75,0,1,0-.75-.75A.76.76,0,0,0,24.8,11.75Zm-5.2,0a.75.75,0,1,0-.75-.75A.76.76,0,0,0,19.6,11.75Zm2.6,0a.75.75,0,1,0-.75-.75A.76.76,0,0,0,22.2,11.75Zm-10.7,9.5a.75.75,0,0,0,0,1.5.75.75,0,0,0,0-1.5ZM23.77,16a.75.75,0,0,0,.53,1.28.77.77,0,0,0,.53-.22.75.75,0,0,0,0-1.06A.77.77,0,0,0,23.77,16Zm3.23.78a.76.76,0,0,0,.75-.75V14a.76.76,0,0,0-.75-.75H7a.76.76,0,0,0-.75.75v5a.76.76,0,0,0,.75.75H24a.75.75,0,0,0,0-1.5H7.75v-3.5h18.5V16A.76.76,0,0,0,27,16.75Zm-2.47,4.72a.75.75,0,0,0-.82-.16.74.74,0,0,0-.4.4.75.75,0,0,0-.06.29.72.72,0,0,0,.06.29.74.74,0,0,0,.4.4.72.72,0,0,0,.29.06.75.75,0,0,0,.53-.22.63.63,0,0,0,.16-.24.72.72,0,0,0,.06-.29.75.75,0,0,0-.06-.29A.78.78,0,0,0,24.53,21.47Zm-3-.22a.75.75,0,1,0,.75.75A.75.75,0,0,0,21.5,21.25Zm11.74-3-3-1a.79.79,0,0,0-.48,0l-3,1a.75.75,0,0,0-.51.71v3a3.75,3.75,0,0,0,7.5,0V19A.75.75,0,0,0,33.24,18.29ZM9.45,15.75a.75.75,0,0,0,0,1.5h3a.75.75,0,0,0,0-1.5ZM6.5,21.25a.75.75,0,1,0,.75.75A.75.75,0,0,0,6.5,21.25ZM4,13a.75.75,0,1,0,.75.75A.75.75,0,0,0,4,13Zm5,8.25a.75.75,0,1,0,.75.75A.75.75,0,0,0,9,21.25Zm10,0a.75.75,0,1,0,.75.75A.75.75,0,0,0,19,21.25ZM3.71,10.31a.78.78,0,0,0-.24.16.75.75,0,0,0,0,1.06.63.63,0,0,0,.24.16.75.75,0,1,0,0-1.38ZM16.5,21.25a.75.75,0,0,0,0,1.5.75.75,0,0,0,0-1.5Zm-2.5,0a.75.75,0,1,0,.75.75A.75.75,0,0,0,14,21.25Z"/></svg>