<svg id="bfa545c1-a806-425b-80fe-680c786b9e6d" data-name="space-satellite" xmlns="http://www.w3.org/2000/svg" viewBox="0 0 36 36"><title>Icon-Red_Hat-</title><path d="M22.32,19.29a.75.75,0,0,0,0-1.06L18.6,14.51l1.21-1.22,1.6,1.6a.73.73,0,0,0,.53.22.74.74,0,0,0,.53-.22l2.27-2.27h0l4.55-4.55a.75.75,0,0,0,0-1.06L25,2.77a.75.75,0,0,0-1.06,0L19.44,7.31h0L17.17,9.59a.74.74,0,0,0,0,1.06l1.58,1.58-1.21,1.22L13.83,9.74a.77.77,0,0,0-1.06,0l-3,3a.75.75,0,0,0,0,1.06l3.7,3.71-1.21,1.21-1.58-1.58a.74.74,0,0,0-1.06,0L2.77,24a.75.75,0,0,0,0,1.06L7,29.29a.75.75,0,0,0,1.06,0l6.82-6.82a.75.75,0,0,0,0-1.06l-1.6-1.6,1.22-1.21,3.72,3.72a.75.75,0,0,0,.53.22.79.79,0,0,0,.53-.22ZM24.51,4.36,27.7,7.54,26.48,8.76,23.3,5.57ZM22.24,6.63l3.18,3.19L24.21,11,21,7.85ZM20,8.91l3.18,3.18L21.94,13.3l-3.18-3.18ZM7.54,27.7,4.36,24.51,5.57,23.3l3.19,3.18Zm2.28-2.28L6.63,22.24,7.85,21,11,24.21Zm3.48-3.48-1.21,1.21L8.91,20l1.21-1.21Zm-2-8.64,2-2,7.43,7.43-2,2Zm18.9,7.86a6.41,6.41,0,1,0-9.07,9.07.71.71,0,0,0,.53.22.74.74,0,0,0,.53-.22l3.47-3.48,1.48,1.48a.75.75,0,0,0,.53.22.79.79,0,0,0,.53-.22.75.75,0,0,0,0-1.06l-1.48-1.48,3.48-3.47A.75.75,0,0,0,30.23,21.16Zm-8.5,7.44a4.92,4.92,0,0,1,.49-6.38,4.91,4.91,0,0,1,6.38-.49Z"/></svg>
