<svg id="bb4374bb-c8c0-4cef-9d21-16921f8a5ba0" data-name="Layer 1" xmlns="http://www.w3.org/2000/svg" viewBox="0 0 36 36">
  <title>Icon-Red_Hat-Datacenter-A-Black-RGB</title>
  <g>
    <path d="M29.03,7.47a.745.745,0,0,0-.53-.22H7.5A.751.751,0,0,0,6.75,8V28a.751.751,0,0,0,.75.75h21a.751.751,0,0,0,.75-.75V8A.745.745,0,0,0,29.03,7.47ZM13.75,18v9.25H8.25V8.75h5.5Zm7,0v9.25h-5.5V8.75h5.5Zm7,0v9.25h-5.5V8.75h5.5Z"/>
    <path d="M11.53,24.47a.774.774,0,0,0-1.06,0,.687.687,0,0,0-.091.112.827.827,0,0,0-.069.128.859.859,0,0,0-.045.145A.693.693,0,0,0,10.25,25a.7.7,0,0,0,.015.145.888.888,0,0,0,.045.145.817.817,0,0,0,.069.127.693.693,0,0,0,.091.113.75.75,0,1,0,1.06-1.06Z"/>
    <path d="M18.53,24.47a.774.774,0,0,0-1.06,0,.748.748,0,0,0,0,1.06.75.75,0,1,0,1.06-1.06Z"/>
    <path d="M25.53,24.47a.693.693,0,0,0-.113-.091.817.817,0,0,0-.127-.069.749.749,0,0,0-.44-.044.719.719,0,0,0-.38.2.748.748,0,0,0,0,1.06.753.753,0,0,0,.53.22.7.7,0,0,0,.145-.015.888.888,0,0,0,.145-.045.911.911,0,0,0,.127-.069.693.693,0,0,0,.113-.091.745.745,0,0,0,.162-.243.749.749,0,0,0-.162-.817Z"/>
    <path d="M9.5,10.25a.75.75,0,0,0,0,1.5h3a.75.75,0,0,0,0-1.5h-3Z"/>
    <path d="M12.5,13.25h-3a.75.75,0,0,0,0,1.5h3a.75.75,0,0,0,0-1.5Z"/>
    <path d="M12.5,16.25h-3a.75.75,0,0,0,0,1.5h3a.75.75,0,0,0,0-1.5Z"/>
    <path d="M12.5,19.25h-3a.75.75,0,0,0,0,1.5h3a.75.75,0,0,0,0-1.5Z"/>
    <path d="M16.5,10.25a.75.75,0,0,0,0,1.5h3a.75.75,0,0,0,0-1.5h-3Z"/>
    <path d="M19.5,13.25h-3a.75.75,0,0,0,0,1.5h3a.75.75,0,0,0,0-1.5Z"/>
    <path d="M19.5,16.25h-3a.75.75,0,0,0,0,1.5h3a.75.75,0,0,0,0-1.5Z"/>
    <path d="M19.5,19.25h-3a.75.75,0,0,0,0,1.5h3a.75.75,0,0,0,0-1.5Z"/>
    <path d="M23.5,10.25a.75.75,0,0,0,0,1.5h3a.75.75,0,0,0,0-1.5h-3Z"/>
    <path d="M26.5,13.25h-3a.75.75,0,0,0,0,1.5h3a.75.75,0,0,0,0-1.5Z"/>
    <path d="M26.5,16.25h-3a.75.75,0,0,0,0,1.5h3a.75.75,0,0,0,0-1.5Z"/>
    <path d="M26.5,19.25h-3a.75.75,0,0,0,0,1.5h3a.75.75,0,0,0,0-1.5Z"/>
  </g>
</svg>
