<svg id="Icon" xmlns="http://www.w3.org/2000/svg" viewBox="0 0 36 36"><title>Icon-Red_Hat-Stopwatch-A-Black-RGB</title><path d="M25.46,20a.72.72,0,0,0,.29.06.77.77,0,0,0,.53-.22.75.75,0,0,0-.82-1.22.78.78,0,0,0-.24.16.75.75,0,0,0,0,1.06A.63.63,0,0,0,25.46,20Z"/><path d="M23.65,12.82a.78.78,0,0,0-.82.17.75.75,0,0,0-.22.53.77.77,0,0,0,.22.53.74.74,0,0,0,.82.16.78.78,0,0,0,.24-.16.77.77,0,0,0,.22-.53.75.75,0,0,0-.22-.53A.81.81,0,0,0,23.65,12.82Z"/><path d="M23.65,24.35a.83.83,0,0,0-.58,0,.81.81,0,0,0-.24.17.75.75,0,0,0-.22.53.77.77,0,0,0,.22.53.74.74,0,0,0,.82.16.78.78,0,0,0,.24-.16.77.77,0,0,0,.22-.53.75.75,0,0,0-.22-.53A.81.81,0,0,0,23.65,24.35Z"/><path d="M17.88,26.74a.75.75,0,0,0-1,.69.71.71,0,0,0,0,.29.7.7,0,0,0,.17.24.74.74,0,0,0,1.05,0,.7.7,0,0,0,.17-.24.71.71,0,0,0,.05-.29.77.77,0,0,0-.22-.53A.67.67,0,0,0,17.88,26.74Z"/><path d="M11.54,24.35a.81.81,0,0,0-.24.17.75.75,0,0,0-.22.53.77.77,0,0,0,.22.53.78.78,0,0,0,.24.16.72.72,0,0,0,.29.06.75.75,0,0,0,.75-.75.73.73,0,0,0-.22-.53A.78.78,0,0,0,11.54,24.35Z"/><path d="M10,18.75a.76.76,0,0,0-.81-.16.72.72,0,0,0-.25.16.78.78,0,0,0-.16.24.79.79,0,0,0-.06.29.75.75,0,0,0,.22.53.6.6,0,0,0,.25.16.67.67,0,0,0,.28.06.75.75,0,0,0,.75-.75.79.79,0,0,0-.06-.29A.63.63,0,0,0,10,18.75Z"/><path d="M12.36,13a.75.75,0,0,0-.82-.16.63.63,0,0,0-.24.16.75.75,0,0,0-.22.53.77.77,0,0,0,.22.53.74.74,0,0,0,.82.16.78.78,0,0,0,.24-.16.75.75,0,0,0,.22-.53.72.72,0,0,0-.06-.29A.78.78,0,0,0,12.36,13Z"/><path d="M19.59,20.1a2.18,2.18,0,0,0-1.25-2.94V11.21a.75.75,0,0,0-1.5,0v5.95a2.19,2.19,0,0,0,.75,4.24,2.15,2.15,0,0,0,.95-.23L20.32,23a.77.77,0,0,0,.53.22.79.79,0,0,0,.53-.22.75.75,0,0,0,0-1.06Zm-2-.2a.69.69,0,1,1,.69-.69A.69.69,0,0,1,17.59,19.9Z"/><path d="M29.94,11.45,28,9.5h0L26.05,7.56A.75.75,0,0,0,25,8.62L26.4,10l-.7.7A11.66,11.66,0,0,0,18.34,7.5v-1h2a.75.75,0,0,0,0-1.5h-5.5a.75.75,0,0,0,0,1.5h2v1a11.75,11.75,0,1,0,9.88,4.33l.74-.74,1.42,1.42a.75.75,0,0,0,.53.22.79.79,0,0,0,.53-.22A.75.75,0,0,0,29.94,11.45Zm-2.1,7.76A10.25,10.25,0,1,1,17.59,9,10.26,10.26,0,0,1,27.84,19.21Z"/></svg>