<svg id="Icons" xmlns="http://www.w3.org/2000/svg" viewBox="0 0 36 36"><title>Icon-Red_Hat-Signage-No_Drink-A-Black-RGB</title><path d="M8.28,9.35a.28.28,0,0,0,.11.08l.08.12,3,3a.81.81,0,0,0-.19.5.76.76,0,0,0,.75.75h.69l1.5,1.5H13a.78.78,0,0,0-.58.27.74.74,0,0,0-.16.61l2,11a.76.76,0,0,0,.74.62h6a.76.76,0,0,0,.74-.62l.66-3.67,4.07,4.07a.67.67,0,0,0,.11.07,1.25,1.25,0,0,0,.08.12.74.74,0,0,0,.53.22.73.73,0,0,0,.53-.22A13.75,13.75,0,0,0,8.28,8.29.74.74,0,0,0,8.28,9.35ZM20.37,26.27H15.63l-1.73-9.5h1.79l5.42,5.42Zm1.07-5.87-3.63-3.63H22.1Zm5.22-11a12.23,12.23,0,0,1,.51,16.77l-4.44-4.43,1-5.54a.74.74,0,0,0-.16-.61.78.78,0,0,0-.58-.27H16.31l-1.5-1.5H24a.75.75,0,0,0,0-1.5H18.75V10.33l1.78-1.78a.75.75,0,0,0,0-1.06.74.74,0,0,0-1.06,0l-2,2a.78.78,0,0,0-.16.24.72.72,0,0,0-.06.29v2.25H13.31L9.89,8.85A12.27,12.27,0,0,1,26.66,9.35Z"/><path d="M7.45,10.39a.75.75,0,0,0-1,.22A13.74,13.74,0,0,0,18,31.75a13.64,13.64,0,0,0,7.37-2.14.76.76,0,0,0,.23-1,.75.75,0,0,0-1-.23A12.26,12.26,0,0,1,7.67,11.42.74.74,0,0,0,7.45,10.39Z"/></svg>