<?xml version="1.0" encoding="utf-8"?>
<!-- Generator: Adobe Illustrator 24.2.1, SVG Export Plug-In . SVG Version: 6.00 Build 0)  -->
<svg version="1.1" id="fabed8af-020c-42c4-b45d-2c85b20f4621"
	 xmlns="http://www.w3.org/2000/svg" xmlns:xlink="http://www.w3.org/1999/xlink" x="0px" y="0px" viewBox="0 0 36 36"
	 style="enable-background:new 0 0 36 36;" xml:space="preserve">
<path d="M8.75,28.25h-3C5.336,28.25,5,28.586,5,29s0.336,0.75,0.75,0.75h3c0.414,0,0.75-0.336,0.75-0.75S9.164,28.25,8.75,28.25z
	 M30.28,28.47l-2-2c-0.303-0.282-0.778-0.266-1.06,0.037c-0.268,0.288-0.268,0.735,0,1.023l0.719,0.72H16.75
	c-4.002-0.002-7.244-3.248-7.242-7.25c0.002-4.002,3.248-7.244,7.25-7.242c4.002,0.002,7.244,3.248,7.242,7.25
	c-0.001,1.384-0.397,2.74-1.145,3.905c-0.224,0.349-0.123,0.813,0.226,1.036c0.348,0.224,0.813,0.123,1.036-0.225
	c2.567-3.999,1.466-9.317-2.473-11.974h0.606c2.899,0.015,5.262-2.324,5.277-5.223s-2.324-5.262-5.223-5.277
	c-2.351-0.012-4.423,1.54-5.073,3.8l-0.566-0.762c-0.274-0.311-0.749-0.341-1.06-0.067c-0.276,0.243-0.335,0.65-0.14,0.962
	l1.688,2.269C17.402,9.78,17.87,9.846,18.2,9.6l2.268-1.686c0.343-0.232,0.433-0.697,0.201-1.04s-0.697-0.433-1.04-0.201
	l-0.933,0.693c0.631-1.968,2.737-3.052,4.705-2.421s3.052,2.737,2.421,4.705c-0.498,1.552-1.943,2.604-3.573,2.6h-5.5
	C11.918,12.25,8,16.168,8,21s3.918,8.75,8.75,8.75h11.189l-0.719,0.72c-0.303,0.282-0.32,0.757-0.037,1.06s0.757,0.32,1.06,0.037
	l2.037-2.037C30.573,29.238,30.572,28.763,30.28,28.47L30.28,28.47z"/>
</svg>
