<svg id="Icons" xmlns="http://www.w3.org/2000/svg" viewBox="0 0 36 36"><title>Icons-Red_Hat-Software_and_Technologies-Cloud_Deploy-A-Black-RGB</title><path d="M27.39,16.65A8.58,8.58,0,0,0,11.63,12.7a4.4,4.4,0,0,0-.62,0,6.63,6.63,0,0,0,0,13.26H26.66a4.66,4.66,0,0,0,.73-9.27Zm-.73,7.77H11a5.13,5.13,0,0,1,0-10.26,4.78,4.78,0,0,1,.88.09.75.75,0,0,0,.78-.38,7.08,7.08,0,0,1,13.24,3.47.75.75,0,0,0,.75.75,3.17,3.17,0,1,1,0,6.33Z"/><path d="M18.53,14.45h0a1.07,1.07,0,0,0-.22-.15h0a.69.69,0,0,0-.24,0H18l-.18,0-.08,0a.64.64,0,0,0-.22.14l-2.4,2.4a.77.77,0,0,0,0,1.07.75.75,0,0,0,1.06,0l1.12-1.12V21a.75.75,0,1,0,1.5,0V16.8l1.12,1.12a.77.77,0,0,0,1.06,0,.77.77,0,0,0,0-1.07Z"/></svg>