<svg id="a636d17f-b33f-4cf1-b3db-5b987f93c7fb" data-name="Layer 1" xmlns="http://www.w3.org/2000/svg" viewBox="0 0 36 36">
  <title>Icon-Red_Hat-Covered_Dish-A-Black-RGB</title>
  <g>
    <path d="M32.107,25.714a.748.748,0,0,0-.53-.219H4.423a.75.75,0,0,0,0,1.5H31.577a.75.75,0,0,0,.53-1.281Z"/>
    <path d="M6.512,24a.751.751,0,0,0,.75-.75,10.738,10.738,0,0,1,21.476,0,.75.75,0,0,0,1.5,0,12.238,12.238,0,0,0-24.476,0,.751.751,0,0,0,.75.75Z"/>
    <path d="M11.566,16.811A9.075,9.075,0,0,0,8.9,23.245a.75.75,0,1,0,1.5,0,7.612,7.612,0,0,1,7.6-7.6.75.75,0,1,0,0-1.5A9.071,9.071,0,0,0,11.566,16.811Z"/>
    <path d="M17.47,10.29a.687.687,0,0,0,.112.091.922.922,0,0,0,.128.069.859.859,0,0,0,.145.045A.693.693,0,0,0,18,10.51a.736.736,0,0,0,.287-.058.748.748,0,0,0,.448-.841.682.682,0,0,0-.045-.141.922.922,0,0,0-.069-.128.687.687,0,0,0-.091-.112.774.774,0,0,0-1.06,0,.687.687,0,0,0-.091.112.827.827,0,0,0-.069.128.682.682,0,0,0-.045.141.746.746,0,0,0-.015.149.76.76,0,0,0,.22.53Z"/>
  </g>
</svg>
