<svg id="Icon" xmlns="http://www.w3.org/2000/svg" viewBox="0 0 36 36"><title>Icon-Red_Hat-Objects-Pencil-A-Black</title><path d="M30.53,9,27,5.47a.76.76,0,0,0-1.07,0L7.55,23.85s0,0,0,0a.73.73,0,0,0-.19.29L5.62,29.53a.78.78,0,0,0,.19.77.74.74,0,0,0,.53.21.67.67,0,0,0,.24,0l5.26-1.82a.64.64,0,0,0,.28-.18l0,0L25.62,15h0l4.91-4.91A.75.75,0,0,0,30.53,9Zm-23,19.55.9-2.79,1.84,1.85ZM25.09,13.39l-.89-.89a.75.75,0,0,0-1.06,1.06l.89.89L11.62,26.86,9.14,24.38,23.71,9.82l2.47,2.47Zm2.16-2.16L24.77,8.75l1.69-1.69,2.48,2.48Z"/></svg>