<?xml version="1.0" encoding="utf-8"?>
<!-- Generator: Adobe Illustrator 19.1.0, SVG Export Plug-In . SVG Version: 6.00 Build 0)  -->
<svg version="1.1" id="Layer_1" xmlns="http://www.w3.org/2000/svg" xmlns:xlink="http://www.w3.org/1999/xlink" x="0px" y="0px"
	 viewBox="0 0 32 32" enable-background="new 0 0 32 32" xml:space="preserve">
<path fill="#231F20" d="M25.608,20.442v-6.654c0-0.164-0.133-0.296-0.296-0.296h-8.899v-3.101c1.44-0.149,2.567-1.369,2.567-2.848
	c0-1.579-1.284-2.863-2.863-2.863s-2.863,1.285-2.863,2.863c0,1.479,1.127,2.699,2.567,2.848v3.101H6.921
	c-0.164,0-0.296,0.133-0.296,0.296v6.654c-1.44,0.149-2.567,1.369-2.567,2.848c0,1.579,1.284,2.863,2.863,2.863
	s2.863-1.284,2.863-2.863c0-1.479-1.127-2.699-2.567-2.848v-6.358h8.603v6.358c-1.44,0.149-2.567,1.369-2.567,2.848
	c0,1.579,1.284,2.863,2.863,2.863s2.863-1.284,2.863-2.863c0-1.479-1.127-2.699-2.567-2.848v-6.358h8.603v6.358
	c-1.44,0.149-2.567,1.369-2.567,2.848c0,1.579,1.284,2.863,2.863,2.863c1.579,0,2.863-1.284,2.863-2.863
	C28.175,21.811,27.048,20.591,25.608,20.442z M13.846,7.543c0-1.252,1.019-2.271,2.271-2.271s2.271,1.019,2.271,2.271
	c0,1.252-1.019,2.271-2.271,2.271S13.846,8.795,13.846,7.543z M9.192,23.29c0,1.252-1.019,2.271-2.271,2.271S4.65,24.542,4.65,23.29
	s1.019-2.271,2.271-2.271S9.192,22.038,9.192,23.29z M18.387,23.29c0,1.252-1.019,2.271-2.271,2.271s-2.271-1.019-2.271-2.271
	s1.019-2.271,2.271-2.271S18.387,22.038,18.387,23.29z M25.312,25.561c-1.252,0-2.271-1.019-2.271-2.271s1.019-2.271,2.271-2.271
	s2.271,1.019,2.271,2.271S26.564,25.561,25.312,25.561z"/>
</svg>
