<svg id="fb88319e-89e1-4ab4-bf8c-2c1c11889697" data-name="Layer 1" xmlns="http://www.w3.org/2000/svg" viewBox="0 0 36 36">
  <title>Icon-Red_Hat-Belt-A-Black-RGB</title>
  <path d="M32.53,13.017A.747.747,0,0,0,32,12.8H21.616v-.13a.751.751,0,0,0-.75-.75H16.692a.751.751,0,0,0-.75.75v.078L15,12.06a.748.748,0,0,0-1.048.166l-.415.571H4a.749.749,0,0,0-.75.75v4.5A.749.749,0,0,0,4,18.8h6.329L7.767,20.692a.75.75,0,0,0-.162,1.044l1.323,1.82,1.322,1.819a.752.752,0,0,0,.494.3.551.551,0,0,0,.057.006l.056,0a.742.742,0,0,0,.235-.038.756.756,0,0,0,.213-.11l3.341-2.482,2.61-1.938,1.8,1.31,7.588,5.513a.731.731,0,0,0,.21.107.749.749,0,0,0,.231.036.7.7,0,0,0,.117-.009.742.742,0,0,0,.275-.1.754.754,0,0,0,.215-.2l1.322-1.82,1.322-1.82a.751.751,0,0,0-.166-1.048l-3.181-2.311L24.271,18.8H32a.751.751,0,0,0,.75-.75v-4.5A.745.745,0,0,0,32.53,13.017Zm-18.688,1.91.458-.63.424-.583.8.583.416.3v3.709l-.359-.261-.866-.629-.166-.121-.47-.342-.637-.462-.484-.352ZM4.75,17.3v-3h7.7l-1.141,1.569a.765.765,0,0,0-.122.266.744.744,0,0,0,.09.567.765.765,0,0,0,.2.215L12,17.3ZM13.5,22.039,11.019,23.88l-.882-1.212-.881-1.212L12.6,18.983l.253-.186.6-.444.611.444,1.912,1.389,0,.012Zm5.368-2.818H17.442v-5.8h2.674v4.554c0,.027-.013.049-.015.076a1.23,1.23,0,0,1-.313.75c-.015.017-.022.041-.038.057A1.246,1.246,0,0,1,18.866,19.221Zm9.82,4.638L27.8,25.073l-.881,1.213-6.982-5.073-.726-.528a2.672,2.672,0,0,0,2.26-1.888c.016-.048.033-.095.045-.144l.185.134.014.01ZM31.25,15.8v1.5H22.207l-.591-.429V14.3H31.25Z"/>
</svg>
