<?xml version="1.0" encoding="utf-8"?>
<!-- Generator: Adobe Illustrator 24.2.1, SVG Export Plug-In . SVG Version: 6.00 Build 0)  -->
<svg version="1.1" id="Layer_1" xmlns="http://www.w3.org/2000/svg" xmlns:xlink="http://www.w3.org/1999/xlink" x="0px" y="0px"
	 viewBox="0 0 32 32" style="enable-background:new 0 0 32 32;" xml:space="preserve">
<path d="M17.8,6.11c0-0.06,0-0.12-0.01-0.18c0.19-0.11,0.3-0.27,0.3-0.47V3.72c0-0.65-1.14-0.78-2.1-0.78s-2.1,0.14-2.1,0.78v1.74
	c0,0.21,0.12,0.36,0.3,0.47c0.01,0.06,0.01,0.12,0.01,0.18v1.12c-1.95,0.74-3.4,2.94-3.4,5.21v1.15c0,0.04,0.01,0.07,0.02,0.11
	l0.25,0.66v8.86l-0.24,0.5c-0.02,0.04-0.03,0.09-0.03,0.13c0,4.33,1.26,5.175,3.75,5.2c0.26,0.003,0.55-0.149,0.84-0.3
	c0.21-0.109,0.48-0.24,0.61-0.24c0.12,0,0.381,0.138,0.57,0.24c0.292,0.157,0.57,0.3,0.82,0.3h0.01c2.52-0.05,3.8-0.86,3.8-5.2
	c0-0.05-0.01-0.1-0.03-0.14l-0.24-0.5v-8.86l0.26-0.67c0.01-0.03,0.02-0.07,0.02-0.11v-1.14c0-2.27-1.45-4.47-3.4-5.21L17.8,6.11z
	 M16,3.55c0.96,0,1.38,0.15,1.49,0.23V5.4C17.38,5.48,16.96,5.63,16,5.63s-1.38-0.15-1.48-0.23V3.77C14.63,3.7,15.04,3.55,16,3.55z
	 M17.38,28.45c-0.1,0-0.339-0.133-0.52-0.23c-0.288-0.154-0.59-0.31-0.86-0.31c-0.28,0-0.59,0.16-0.89,0.31
	c-0.2,0.1-0.45,0.231-0.57,0.23c-1.94-0.02-3.12-0.37-3.14-4.52l0.24-0.5c0.02-0.04,0.03-0.09,0.03-0.13v-8.99
	c0-0.04-0.01-0.07-0.02-0.11l-0.25-0.66v-1.1c0-2.1,1.367-4.129,3.19-4.7c0.13-0.041,0.22-0.19,0.21-0.33V6.14
	c0.37,0.07,0.79,0.1,1.19,0.1s0.82-0.02,1.19-0.1v1.3c0,0.13,0.09,0.251,0.21,0.29c1.816,0.592,3.19,2.6,3.19,4.7v1.09l-0.25,0.67
	c-0.01,0.03-0.025,0.07-0.025,0.11v9c0,0.05,0.005,0.1,0.025,0.14l0.25,0.5C20.57,28.1,19.36,28.42,17.38,28.45z M14.99,4.19
	c0.23,0.03,0.48,0.045,0.72,0.05c0.09,0.002,0.17,0,0.26,0c0.38,0,0.739-0.026,1.04-0.07c0.08-0.012,0.14-0.09,0.13-0.17
	s-0.09-0.141-0.17-0.13c-0.36,0.048-0.79,0.08-1.25,0.06c-0.24-0.01-0.48-0.021-0.7-0.05c-0.08-0.01-0.16,0.05-0.17,0.13
	C14.85,4.11,14.91,4.19,14.99,4.19z M14.81,14.79c0.37,0.005,0.78,0.02,1.2,0.02c1.59,0,2.849-0.106,3.46-0.16
	c0.13-0.011,0.22-0.12,0.21-0.25s-0.12-0.221-0.25-0.21c-0.601,0.053-1.85,0.16-3.41,0.16c-0.42,0-0.81-0.01-1.18-0.02
	c-0.13,0.01-0.23,0.1-0.24,0.22C14.58,14.68,14.68,14.788,14.81,14.79z M12.52,14.65c0.2,0.018,0.5,0.05,0.88,0.07
	c0.01,0,0.01,0,0.02,0c0.12,0,0.22-0.09,0.23-0.21c0.01-0.13-0.09-0.24-0.21-0.24c-0.37-0.03-0.67-0.053-0.86-0.07
	c-0.13-0.012-0.24,0.08-0.25,0.21C12.3,14.53,12.39,14.639,12.52,14.65z M19.67,23.2c-0.01-0.13-0.12-0.222-0.25-0.21
	c-0.481,0.044-1.78,0.16-3.41,0.16c-0.42,0-0.81-0.015-1.18-0.02c-0.13-0.002-0.23,0.1-0.24,0.22c0,0.13,0.1,0.23,0.22,0.24
	c0.37,0.01,0.77,0.02,1.2,0.02c1.66,0,2.97-0.115,3.46-0.16C19.59,23.439,19.68,23.32,19.67,23.2z M13.42,23.06
	c-0.37-0.024-0.67-0.053-0.86-0.07c-0.13-0.012-0.24,0.08-0.25,0.21s0.08,0.239,0.21,0.25c0.2,0.018,0.5,0.05,0.88,0.07
	c0.01,0,0.01,0,0.02,0c0.12,0,0.22-0.09,0.23-0.21C13.65,23.18,13.55,23.069,13.42,23.06z"/>
</svg>
