<svg id="Layer_1" data-name="Layer 1" xmlns="http://www.w3.org/2000/svg" viewBox="0 0 36 36"><title>Icon-Red_Hat-Software_and_technologies-Container_Unsecured-A-Black-RGB</title><path d="M20.63,26.32,15.81,29.1,5.94,23.4V12l9.87-5.69L25.68,12v8a.75.75,0,0,0,1.5,0v-8.4a.76.76,0,0,0-.37-.65L16.19,4.79a.77.77,0,0,0-.75,0L4.81,10.92a.76.76,0,0,0-.37.65V23.84a.77.77,0,0,0,.37.65l10.63,6.13a.69.69,0,0,0,.37.1.75.75,0,0,0,.38-.1l5.19-3a.75.75,0,1,0-.75-1.3Zm10,2.95-.86-.86a3.56,3.56,0,0,0,.38-1.6v-3a.75.75,0,0,0-.52-.71l-3-1a.76.76,0,0,0-.47,0l-2,.67L23.34,22a.75.75,0,0,0-1.06,0,.74.74,0,0,0,0,1.06l6.53,6.55h0l.71.71a.75.75,0,0,0,1.06,0A.75.75,0,0,0,30.59,29.27Zm-8-2.46a3.75,3.75,0,0,0,3.75,3.75,3.49,3.49,0,0,0,1.08-.18l-4.83-4.83Z"/></svg>