<svg id="Icon" xmlns="http://www.w3.org/2000/svg" viewBox="0 0 36 36"><title>Icon-Red_Hat-People_and_Audiences-Architect-A-Black</title><path d="M24,16.75a2.25,2.25,0,1,0-2.25-2.25A2.25,2.25,0,0,0,24,16.75Zm0-3a.75.75,0,1,1-.75.75A.76.76,0,0,1,24,13.75Zm5-4.5H11a.65.65,0,0,0-.19,0l-.07,0a.86.86,0,0,0-.22.15l-4,4a.86.86,0,0,0-.15.22s0,.05,0,.07a.65.65,0,0,0,0,.19s0,0,0,.05V26a.76.76,0,0,0,.75.75H29a.76.76,0,0,0,.75-.75V10A.76.76,0,0,0,29,9.25ZM10.25,11.81v1.44H8.81Zm18,13.44H7.75V14.75H11a.76.76,0,0,0,.75-.75V10.75h16.5ZM24,23.75a2.25,2.25,0,1,0-2.25-2.25A2.25,2.25,0,0,0,24,23.75Zm0-3a.75.75,0,1,1-.75.75A.76.76,0,0,1,24,20.75ZM10.26,18a2.25,2.25,0,1,0,2.25-2.25A2.25,2.25,0,0,0,10.26,18Zm2.25-.75a.75.75,0,1,1-.75.75A.76.76,0,0,1,12.51,17.25Zm4.13,1.5h.61V21.5a.76.76,0,0,0,.75.75h1.88a.75.75,0,0,0,0-1.5H18.75v-5.5h1.13a.75.75,0,0,0,0-1.5H18a.76.76,0,0,0-.75.75v2.75h-.61a.75.75,0,0,0,0,1.5Z"/></svg>