<svg id="ed57bbec-582e-416a-bc50-632ad28e9190" data-name="Layer 1" xmlns="http://www.w3.org/2000/svg" viewBox="0 0 36 36">
  <title>Icon-Red_Hat-Disc-A-Black-RGB</title>
  <g>
    <path d="M30.3,14.64a11.755,11.755,0,0,0-.71-1.957A13.156,13.156,0,0,0,24.81,7.3,12.7,12.7,0,0,0,5.25,18a12.406,12.406,0,0,0,4.065,9.2A13.163,13.163,0,0,0,18,30.75h.073a12.453,12.453,0,0,0,7.341-2.48A13.178,13.178,0,0,0,29.8,22.833a13,13,0,0,0,.82-3.157A13.228,13.228,0,0,0,30.75,18,12.952,12.952,0,0,0,30.3,14.64Zm-1.164,4.839a11.479,11.479,0,0,1-.722,2.782,11.649,11.649,0,0,1-3.875,4.8,10.973,10.973,0,0,1-6.471,2.189h-.064a11.632,11.632,0,0,1-7.666-3.13A10.941,10.941,0,0,1,6.75,18,11.163,11.163,0,0,1,24.011,8.563a11.658,11.658,0,0,1,4.226,4.764,10.3,10.3,0,0,1,.621,1.716A11.44,11.44,0,0,1,29.25,18,11.721,11.721,0,0,1,29.137,19.479Z"/>
    <path d="M18,14.75a3.254,3.254,0,1,0,2.3.953A3.243,3.243,0,0,0,18,14.75Zm1.237,4.487A1.748,1.748,0,1,1,19.75,18,1.745,1.745,0,0,1,19.237,19.237Z"/>
    <path d="M22.274,10.818A8.349,8.349,0,0,0,18,9.643a.75.75,0,0,0,0,1.5,6.856,6.856,0,0,1,6.029,3.589.75.75,0,0,0,1.318-.716A8.357,8.357,0,0,0,22.274,10.818Z"/>
  </g>
</svg>
