<svg id="Icons" xmlns="http://www.w3.org/2000/svg" viewBox="0 0 36 36"><title>Icon-Red_Hat-Hardware-Server_A-A-Black-RGB</title><path d="M28.48,18.55a.67.67,0,0,0,.24.16.72.72,0,0,0,.29.06.73.73,0,0,0,.52-.22.81.81,0,0,0,.17-.24.75.75,0,0,0,.06-.29.72.72,0,0,0-.23-.53.74.74,0,0,0-.81-.16.56.56,0,0,0-.24.16.75.75,0,0,0-.22.53,1,1,0,0,0,0,.29A.81.81,0,0,0,28.48,18.55Z"/><path d="M32,14.27H4a.74.74,0,0,0-.75.75v7a.75.75,0,0,0,.75.75H32a.76.76,0,0,0,.75-.75V15A.75.75,0,0,0,32,14.27Zm-.75,7H4.75v-5.5h26.5Z"/><path d="M7,19.77H9.66a.75.75,0,0,0,0-1.5H7a.75.75,0,0,0,0,1.5Z"/></svg>