<svg id="bc090bb3-6314-4643-92ca-97f066c70aa6" data-name="Layer 1" xmlns="http://www.w3.org/2000/svg" viewBox="0 0 36 36">
  <title>Icon-Red_Hat-Network-A-Black-RGB</title>
  <g>
    <path d="M27.011,8.989A12.728,12.728,0,1,0,30.75,18,12.708,12.708,0,0,0,27.011,8.989ZM6.75,18a11.309,11.309,0,0,1,.178-1.934,11.235,11.235,0,0,1,15.505.092.75.75,0,0,0,1.041-1.08A12.73,12.73,0,0,0,8.7,12.973c-.362.19-.712.4-1.051.618A11.248,11.248,0,0,1,20.244,6.976c-.307.131-.614.264-.914.421A12.989,12.989,0,0,0,17,8.962a.75.75,0,1,0,.969,1.146,11.063,11.063,0,0,1,4.661-2.347,11.279,11.279,0,0,1,3.312,2.283c.034.225.074.45.095.677A11.263,11.263,0,0,1,7.622,20.382c-.253-.211-.494-.437-.728-.67A11.234,11.234,0,0,1,6.75,18Zm20.268,3.252a.75.75,0,0,0-.339-.464.75.75,0,0,0-1.118.819,11.221,11.221,0,0,1,.157,4.556,11.225,11.225,0,0,1-5.127,2.774,11.229,11.229,0,0,1-3.744-2.766.75.75,0,1,0-1.121,1,12.713,12.713,0,0,0,2.388,2.076c-.038,0-.075.006-.114.006A11.254,11.254,0,0,1,7.582,22.229a12.775,12.775,0,0,0,3.453,1.68,12.933,12.933,0,0,0,1.9.438,12.6,12.6,0,0,0,4.936-.222,12.734,12.734,0,0,0,9.7-12.01,11.176,11.176,0,0,1-.2,12.091A12.73,12.73,0,0,0,27.018,21.252Z"/>
    <path d="M12.923,21.2a.745.745,0,0,0,.482.177l.061,0c.02,0,.041,0,.061-.008a.749.749,0,0,0,.619-.861,11.215,11.215,0,0,1-.124-2.478,11.357,11.357,0,0,1,.421-2.455A.75.75,0,0,0,13,15.155a12.849,12.849,0,0,0-.335,5.59A.746.746,0,0,0,12.923,21.2Z"/>
  </g>
</svg>
