<svg xmlns="http://www.w3.org/2000/svg" viewBox="0 0 36 36.02"><title>Icon-Red_Hat-Objects_Ninja_star-A-Black-RGB</title><g id="a7418d13-df40-43f7-b694-37dbb030d1c7" data-name="ninja star"><path d="M18.53,20a.75.75,0,0,0-1.06,0,.82.82,0,0,0-.16.25.67.67,0,0,0-.06.28.75.75,0,0,0,.22.53.75.75,0,0,0,1.06,0,.75.75,0,0,0,.22-.53.71.71,0,0,0-.06-.28A.82.82,0,0,0,18.53,20ZM30.18,26.9l-3.86-6.69a.75.75,0,0,0-.9-.33,3.21,3.21,0,0,1-1,.19,3.08,3.08,0,0,1-2-5.43.75.75,0,0,0,.16-.94L18.65,6.94a.78.78,0,0,0-1.3,0L13.44,13.7a.75.75,0,0,0,.16.94,3.08,3.08,0,0,1-2,5.43,3.21,3.21,0,0,1-1-.19.75.75,0,0,0-.9.33L5.82,26.9a.77.77,0,0,0,0,.75.74.74,0,0,0,.65.38h7.75a.75.75,0,0,0,.74-.64,3.07,3.07,0,0,1,6.08,0,.75.75,0,0,0,.74.64h7.75a.74.74,0,0,0,.65-.38A.77.77,0,0,0,30.18,26.9Zm-7.8-.37a4.57,4.57,0,0,0-8.76,0H7.77l2.92-5.06a4.78,4.78,0,0,0,.91.1A4.58,4.58,0,0,0,15,14l3-5.14L21,14a4.58,4.58,0,0,0,3.43,7.62,4.78,4.78,0,0,0,.91-.1l2.92,5.06Z"/></g></svg>