<svg id="a7322166-6e75-497d-a02a-61af27c891bc" data-name="office-building-smb" xmlns="http://www.w3.org/2000/svg" viewBox="0 0 36 36"><title>Icon-Red_Hat-Buildings-Office-A-Black-RGB</title><path d="M29.27,6H6.73A.75.75,0,0,0,6,6.75v22.5a.75.75,0,0,0,.75.75H29.27a.75.75,0,0,0,.75-.75V6.75A.75.75,0,0,0,29.27,6Zm-8,1.5h3v3.75h-3Zm0,5.25h3v3.5h-3ZM16.81,7.5h3v3.75h-3Zm0,5.25h3v3.5h-3ZM12.35,7.5h3v3.75h-3Zm0,5.25h3v3.5h-3ZM7.48,7.5h3.37v3.75H7.48Zm0,5.25h3.37v3.5H7.48Zm9.77,15.7H14.6V21.38h2.65Zm4.15,0H18.75V21.38H21.4Zm7.12.05H22.9V20.63a.75.75,0,0,0-.75-.75h-8.3a.75.75,0,0,0-.75.75V28.5H7.48V17.75h21Zm0-12.25H25.73v-3.5h2.79Zm0-5H25.73V7.5h2.79Z"/></svg>
