<svg id="Icon" xmlns="http://www.w3.org/2000/svg" viewBox="0 0 36 36"><title>Icon-Red_Hat-Graph_Exponential_Down-A-Black-RGB</title><path d="M11.25,10v4.34a.75.75,0,0,0,1.5,0V10a.75.75,0,0,0-1.5,0Z"/><path d="M17.25,10v7.58a.75.75,0,0,0,1.5,0V10a.75.75,0,0,0-1.5,0Z"/><path d="M23.25,10v9a.75.75,0,0,0,1.5,0V10a.75.75,0,0,0-1.5,0Z"/><path d="M29,25.25a.76.76,0,0,0-.75.75v2.25H7.75V18.44a.75.75,0,0,0-1.5,0V29a.76.76,0,0,0,.75.75H29a.76.76,0,0,0,.75-.75V26A.76.76,0,0,0,29,25.25Z"/><path d="M7,10a.75.75,0,0,0,.75-.75V7.75h20.5V20a.75.75,0,0,0,1.5,0V7A.76.76,0,0,0,29,6.25H7A.76.76,0,0,0,6.25,7V9.2A.75.75,0,0,0,7,10Z"/><path d="M31,22.25c-11.07,0-17.36-3.13-20.69-5.76a14.2,14.2,0,0,1-4.6-5.73.75.75,0,1,0-1.42.48c.17.51,4.43,12.51,26.71,12.51a.75.75,0,0,0,0-1.5Z"/></svg>