<?xml version="1.0" encoding="utf-8"?>
<!-- Generator: Adobe Illustrator 24.2.1, SVG Export Plug-In . SVG Version: 6.00 Build 0)  -->
<svg version="1.1" id="b8e8cac1-4f19-4c4e-aa1c-7ba0288119a5"
	 xmlns="http://www.w3.org/2000/svg" xmlns:xlink="http://www.w3.org/1999/xlink" x="0px" y="0px" viewBox="0 0 36 36"
	 style="enable-background:new 0 0 36 36;" xml:space="preserve">
<path d="M29.002,20.251c0.413,0,0.747,0.334,0.747,0.747s-0.334,0.747-0.747,0.747s-0.747-0.334-0.747-0.747
	S28.589,20.251,29.002,20.251z M32,17.25H4c-0.414,0-0.75,0.336-0.75,0.75v7c0,0.414,0.336,0.75,0.75,0.75h28
	c0.414,0,0.75-0.336,0.75-0.75v-7C32.75,17.586,32.414,17.25,32,17.25z M31.25,24.25H4.75v-5.5h26.5V24.25z M7,22.75h4
	c0.414,0,0.75-0.336,0.75-0.75s-0.336-0.75-0.75-0.75H7c-0.414,0-0.75,0.336-0.75,0.75S6.586,22.75,7,22.75z M14.643,13.846
	c0.298,0.288,0.773,0.279,1.06-0.019c0.281-0.291,0.28-0.752,0-1.042l-1.47-1.47l1.47-1.469c0.288-0.298,0.28-0.773-0.018-1.061
	c-0.291-0.281-0.751-0.281-1.042,0l-2,2c-0.293,0.293-0.293,0.768,0,1.061L14.643,13.846z M20.371,13.846
	c0.292,0.293,0.768,0.292,1.061,0l2-2c0.293-0.293,0.293-0.768,0-1.061l-2-2c-0.293-0.293-0.768-0.293-1.061,0
	c-0.293,0.293-0.293,0.768,0,1.061l1.47,1.469l-1.47,1.47C20.082,13.073,20.072,13.547,20.371,13.846z M17.917,14.822l1.622-6.487
	c0.1-0.402-0.144-0.809-0.546-0.909s-0.809,0.144-0.91,0.546l-1.621,6.487c-0.101,0.401,0.143,0.808,0.544,0.909
	C17.161,15.406,17.771,15.407,17.917,14.822z"/>
</svg>
