<svg id="b9a074ad-406f-4ba0-aea6-8841abb78c09" data-name="Layer 1" xmlns="http://www.w3.org/2000/svg" viewBox="0 0 36 36">
  <title>Icon-Red_Hat-Virtual_datacenter-A-Black-RGB</title>
  <g>
    <path d="M29.03,28.53a.745.745,0,0,0,.22-.53V8a.751.751,0,0,0-.75-.75H7.5A.751.751,0,0,0,6.75,8V28a.751.751,0,0,0,.75.75h21A.745.745,0,0,0,29.03,28.53ZM13.75,18v9.25H8.25V8.75h5.5Zm7,0v9.25h-5.5V8.75h5.5Zm7,0v9.25h-5.5V8.75h5.5Z"/>
    <path d="M11.69,24.71a.922.922,0,0,0-.069-.128.689.689,0,0,0-.2-.2.817.817,0,0,0-.127-.069.731.731,0,0,0-.58,0,.827.827,0,0,0-.128.069.7.7,0,0,0-.2.2.827.827,0,0,0-.069.128.859.859,0,0,0-.045.145A.693.693,0,0,0,10.25,25a.729.729,0,0,0,.015.148.691.691,0,0,0,.045.142.817.817,0,0,0,.069.127.689.689,0,0,0,.2.2.922.922,0,0,0,.128.069.682.682,0,0,0,.141.045A.746.746,0,0,0,11,25.75a.7.7,0,0,0,.145-.015.888.888,0,0,0,.145-.045.911.911,0,0,0,.127-.069.677.677,0,0,0,.2-.2.911.911,0,0,0,.069-.127.888.888,0,0,0,.045-.145A.7.7,0,0,0,11.75,25a.693.693,0,0,0-.015-.145A.859.859,0,0,0,11.69,24.71Z"/>
    <path d="M18.69,24.71a.922.922,0,0,0-.069-.128.689.689,0,0,0-.2-.2.817.817,0,0,0-.127-.069.737.737,0,0,0-.436-.044.754.754,0,0,0-.384.2.687.687,0,0,0-.091.112.827.827,0,0,0-.069.128.859.859,0,0,0-.045.145A.693.693,0,0,0,17.25,25a.729.729,0,0,0,.015.148.691.691,0,0,0,.045.142.817.817,0,0,0,.069.127.693.693,0,0,0,.091.113.753.753,0,0,0,.53.22.729.729,0,0,0,.148-.015.691.691,0,0,0,.142-.045.911.911,0,0,0,.127-.069.677.677,0,0,0,.2-.2.911.911,0,0,0,.069-.127.691.691,0,0,0,.045-.142A.729.729,0,0,0,18.75,25a.693.693,0,0,0-.015-.145A.859.859,0,0,0,18.69,24.71Z"/>
    <path d="M25.69,24.71a.922.922,0,0,0-.069-.128.689.689,0,0,0-.2-.2.817.817,0,0,0-.127-.069.731.731,0,0,0-.58,0,.827.827,0,0,0-.128.069.7.7,0,0,0-.2.2.827.827,0,0,0-.069.128.859.859,0,0,0-.045.145A.693.693,0,0,0,24.25,25a.729.729,0,0,0,.015.148.691.691,0,0,0,.045.142.817.817,0,0,0,.069.127.689.689,0,0,0,.2.2.922.922,0,0,0,.128.069.859.859,0,0,0,.145.045A.693.693,0,0,0,25,25.75a.7.7,0,0,0,.145-.015.888.888,0,0,0,.145-.045.911.911,0,0,0,.127-.069.677.677,0,0,0,.2-.2.911.911,0,0,0,.069-.127.691.691,0,0,0,.045-.142A.729.729,0,0,0,25.75,25a.693.693,0,0,0-.015-.145A.859.859,0,0,0,25.69,24.71Z"/>
    <path d="M9.5,10.25a.75.75,0,0,0,0,1.5h3a.75.75,0,0,0,0-1.5h-3Z"/>
    <path d="M12.5,13.25h-3a.75.75,0,0,0,0,1.5h3a.75.75,0,0,0,0-1.5Z"/>
    <path d="M12.5,16.25h-3a.75.75,0,0,0,0,1.5h3a.75.75,0,0,0,0-1.5Z"/>
    <path d="M12.5,19.25h-3a.75.75,0,0,0,0,1.5h3a.75.75,0,0,0,0-1.5Z"/>
    <path d="M16.5,10.25a.75.75,0,0,0,0,1.5h3a.75.75,0,0,0,0-1.5h-3Z"/>
    <path d="M19.5,13.25h-3a.75.75,0,0,0,0,1.5h3a.75.75,0,0,0,0-1.5Z"/>
    <path d="M19.5,16.25h-3a.75.75,0,0,0,0,1.5h3a.75.75,0,0,0,0-1.5Z"/>
    <path d="M19.5,19.25h-3a.75.75,0,0,0,0,1.5h3a.75.75,0,0,0,0-1.5Z"/>
    <path d="M23.5,10.25a.75.75,0,0,0,0,1.5h3a.75.75,0,0,0,0-1.5h-3Z"/>
    <path d="M26.5,13.25h-3a.75.75,0,0,0,0,1.5h3a.75.75,0,0,0,0-1.5Z"/>
    <path d="M26.5,16.25h-3a.75.75,0,0,0,0,1.5h3a.75.75,0,0,0,0-1.5Z"/>
    <path d="M26.5,19.25h-3a.75.75,0,0,0,0,1.5h3a.75.75,0,0,0,0-1.5Z"/>
    <path d="M32.19,30.71a.922.922,0,0,0-.069-.128.689.689,0,0,0-.2-.2.817.817,0,0,0-.127-.069.731.731,0,0,0-.58,0,.827.827,0,0,0-.128.069.7.7,0,0,0-.2.2.827.827,0,0,0-.069.128.682.682,0,0,0-.045.141A.746.746,0,0,0,30.75,31a.7.7,0,0,0,.015.145.888.888,0,0,0,.045.145.817.817,0,0,0,.069.127.689.689,0,0,0,.2.2.922.922,0,0,0,.128.069.859.859,0,0,0,.145.045.693.693,0,0,0,.145.015.729.729,0,0,0,.148-.015.691.691,0,0,0,.142-.045.911.911,0,0,0,.127-.069.677.677,0,0,0,.2-.2.911.911,0,0,0,.069-.127.888.888,0,0,0,.045-.145A.7.7,0,0,0,32.25,31a.746.746,0,0,0-.015-.149A.682.682,0,0,0,32.19,30.71Z"/>
    <path d="M16.77,30.25a.743.743,0,1,0,.532.217A.749.749,0,0,0,16.77,30.25Z"/>
    <path d="M11.86,30.25a.748.748,0,1,0,.529.217A.748.748,0,0,0,11.86,30.25Z"/>
    <path d="M19.23,30.25a.75.75,0,1,0,0,1.5.729.729,0,0,0,.523-.221.758.758,0,0,0,0-1.062A.73.73,0,0,0,19.23,30.25Z"/>
    <path d="M9.41,30.25a.749.749,0,1,0,.528.217A.748.748,0,0,0,9.41,30.25Z"/>
    <path d="M26.59,30.25a.743.743,0,1,0,.532.217A.749.749,0,0,0,26.59,30.25Z"/>
    <path d="M6.95,30.25a.743.743,0,1,0,.532.217A.749.749,0,0,0,6.95,30.25Z"/>
    <path d="M29.05,30.25a.75.75,0,1,0,0,1.5.734.734,0,0,0,.524-.221.761.761,0,0,0,0-1.062A.734.734,0,0,0,29.05,30.25Z"/>
    <path d="M21.68,30.25a.749.749,0,1,0,.528.217A.749.749,0,0,0,21.68,30.25Z"/>
    <path d="M24.14,30.25a.766.766,0,0,0-.538.217.746.746,0,0,0,0,1.062.765.765,0,0,0,.538.221.75.75,0,1,0,0-1.5Z"/>
    <path d="M14.32,30.25a.766.766,0,0,0-.538.217.746.746,0,0,0,0,1.062.765.765,0,0,0,.538.221.75.75,0,1,0,0-1.5Z"/>
    <path d="M5.19,30.71a.922.922,0,0,0-.069-.128.689.689,0,0,0-.2-.2.817.817,0,0,0-.127-.069.731.731,0,0,0-.58,0,.827.827,0,0,0-.128.069.7.7,0,0,0-.2.2.827.827,0,0,0-.069.128.682.682,0,0,0-.045.141A.746.746,0,0,0,3.75,31a.7.7,0,0,0,.015.145.888.888,0,0,0,.045.145.817.817,0,0,0,.069.127.689.689,0,0,0,.2.2.922.922,0,0,0,.128.069.682.682,0,0,0,.141.045.746.746,0,0,0,.149.015.729.729,0,0,0,.148-.015.691.691,0,0,0,.142-.045.911.911,0,0,0,.127-.069.677.677,0,0,0,.2-.2.911.911,0,0,0,.069-.127.888.888,0,0,0,.045-.145A.7.7,0,0,0,5.25,31a.746.746,0,0,0-.015-.149A.682.682,0,0,0,5.19,30.71Z"/>
    <path d="M4.5,27.65a.755.755,0,1,0,.529.221A.748.748,0,0,0,4.5,27.65Z"/>
    <path d="M4.5,12.05a.755.755,0,1,0,.529.221A.748.748,0,0,0,4.5,12.05Z"/>
    <path d="M4.5,9.45a.748.748,0,1,0,.529.217A.748.748,0,0,0,4.5,9.45Z"/>
    <path d="M4.5,25.05a.755.755,0,1,0,.529.221A.748.748,0,0,0,4.5,25.05Z"/>
    <path d="M4.5,19.85a.755.755,0,1,0,.529.221A.748.748,0,0,0,4.5,19.85Z"/>
    <path d="M4.5,6.85a.755.755,0,1,0,.529.221A.748.748,0,0,0,4.5,6.85Z"/>
    <path d="M4.5,14.65a.755.755,0,1,0,.529.221A.748.748,0,0,0,4.5,14.65Z"/>
    <path d="M4.5,22.45a.755.755,0,1,0,.529.221A.748.748,0,0,0,4.5,22.45Z"/>
    <path d="M4.5,17.25a.748.748,0,1,0,.529.217A.748.748,0,0,0,4.5,17.25Z"/>
    <path d="M5.19,4.71a.532.532,0,0,0-.065-.128A.84.84,0,0,0,5.03,4.47.756.756,0,0,0,4.5,4.26a.729.729,0,0,0-.526.21.748.748,0,0,0,0,1.06.751.751,0,0,0,1.06,0,.849.849,0,0,0,.095-.113A.526.526,0,0,0,5.19,5.29a.888.888,0,0,0,.045-.145A.7.7,0,0,0,5.25,5a.693.693,0,0,0-.015-.145A.859.859,0,0,0,5.19,4.71Z"/>
    <path d="M29.05,4.25a.755.755,0,1,0,.529.221A.748.748,0,0,0,29.05,4.25Z"/>
    <path d="M11.86,5.75a.762.762,0,0,0,.537-.218.743.743,0,0,0,0-1.061.761.761,0,0,0-.537-.221.75.75,0,1,0,0,1.5Z"/>
    <path d="M9.41,5.75a.743.743,0,1,0-.533-.218A.748.748,0,0,0,9.41,5.75Z"/>
    <path d="M26.6,5.75a.735.735,0,0,0,.524-.218.759.759,0,0,0,0-1.061A.734.734,0,0,0,26.6,4.25a.765.765,0,0,0-.538.221.745.745,0,0,0,0,1.061A.766.766,0,0,0,26.6,5.75Z"/>
    <path d="M14.32,5.75a.749.749,0,1,0-.529-.218A.752.752,0,0,0,14.32,5.75Z"/>
    <path d="M21.69,5.75a.731.731,0,0,0,.523-.218.757.757,0,0,0,0-1.061.729.729,0,0,0-.523-.221.765.765,0,0,0-.538.221.745.745,0,0,0,0,1.061A.766.766,0,0,0,21.69,5.75Z"/>
    <path d="M6.95,5.75a.762.762,0,0,0,.537-.218.743.743,0,0,0,0-1.061A.761.761,0,0,0,6.95,4.25a.734.734,0,0,0-.524.221.759.759,0,0,0,0,1.061A.735.735,0,0,0,6.95,5.75Z"/>
    <path d="M24.14,5.75a.749.749,0,1,0-.529-.218A.748.748,0,0,0,24.14,5.75Z"/>
    <path d="M16.77,5.75a.749.749,0,1,0-.529-.218A.747.747,0,0,0,16.77,5.75Z"/>
    <path d="M19.23,5.75a.749.749,0,1,0-.529-.218A.752.752,0,0,0,19.23,5.75Z"/>
    <path d="M30.97,5.53a.753.753,0,0,0,.53.22.729.729,0,0,0,.148-.015.691.691,0,0,0,.142-.045.911.911,0,0,0,.127-.069.693.693,0,0,0,.113-.091.745.745,0,0,0,.162-.243.749.749,0,0,0-.162-.817.693.693,0,0,0-.113-.091.817.817,0,0,0-.127-.069.737.737,0,0,0-.436-.044.749.749,0,0,0-.547,1.021A.764.764,0,0,0,30.97,5.53Z"/>
    <path d="M31.5,27.65a.755.755,0,1,0,.529.221A.749.749,0,0,0,31.5,27.65Z"/>
    <path d="M31.5,6.85a.755.755,0,1,0,.529.221A.749.749,0,0,0,31.5,6.85Z"/>
    <path d="M31.5,19.85a.755.755,0,1,0,.529.221A.749.749,0,0,0,31.5,19.85Z"/>
    <path d="M31.5,25.05a.755.755,0,1,0,.529.221A.749.749,0,0,0,31.5,25.05Z"/>
    <path d="M31.5,17.25a.748.748,0,1,0,.529.217A.749.749,0,0,0,31.5,17.25Z"/>
    <path d="M31.5,22.45a.755.755,0,1,0,.529.221A.749.749,0,0,0,31.5,22.45Z"/>
    <path d="M31.5,12.05a.755.755,0,1,0,.529.221A.749.749,0,0,0,31.5,12.05Z"/>
    <path d="M31.5,9.45a.748.748,0,1,0,.529.217A.749.749,0,0,0,31.5,9.45Z"/>
    <path d="M31.5,14.65a.755.755,0,1,0,.529.221A.749.749,0,0,0,31.5,14.65Z"/>
  </g>
</svg>
