<svg id="Icons" xmlns="http://www.w3.org/2000/svg" viewBox="0 0 36 36"><title>Icon-Red_Hat-Objects-Tool_Wrench-A-Black-RGB</title><path d="M18,27a.77.77,0,0,0-.22.54.67.67,0,0,0,.06.28A.63.63,0,0,0,18,28a.66.66,0,0,0,.24.17.73.73,0,0,0,.58,0A.66.66,0,0,0,19,28a.63.63,0,0,0,.16-.24.67.67,0,0,0,.06-.28A.77.77,0,0,0,19,27,.78.78,0,0,0,18,27Z"/><path d="M17.5,16.27h2a.75.75,0,0,0,0-1.5h-2a.75.75,0,0,0,0,1.5Z"/><path d="M16.5,12.27a.76.76,0,0,0,.75-.75v-3a.75.75,0,0,0-.75-.75h-2a.75.75,0,0,0-.7.47l-2,5h0s0,.09,0,.13a.8.8,0,0,0,0,.15h0a.54.54,0,0,0,.05.22.17.17,0,0,0,0,.07.49.49,0,0,0,.1.15.47.47,0,0,0,.06.09l.07,0a.57.57,0,0,0,.18.12h0a.71.71,0,0,0,.28.06h.3a5.74,5.74,0,0,0,2.95,4.29v9a2.75,2.75,0,0,0,5.5,0v-9a5.74,5.74,0,0,0,3-5,.76.76,0,0,0,0-.21l-2-7a.75.75,0,0,0-.72-.54h-2a.75.75,0,0,0-.75.75v6.25H13.61L15,9.27h.74v2.25A.76.76,0,0,0,16.5,12.27Zm3,2a.76.76,0,0,0,.75-.75V7.27h.68l1.82,6.35a4.26,4.26,0,0,1-2.55,3.79.75.75,0,0,0-.45.68v9.43a1.25,1.25,0,0,1-2.5,0V18.09a.75.75,0,0,0-.45-.68,4.24,4.24,0,0,1-2.48-3.14Z"/></svg>