<?xml version="1.0" encoding="utf-8"?>
<!-- Generator: Adobe Illustrator 24.2.1, SVG Export Plug-In . SVG Version: 6.00 Build 0)  -->
<svg version="1.1" id="ffc8066a-a1b6-400c-af94-34b3b440d3ee"
	 xmlns="http://www.w3.org/2000/svg" xmlns:xlink="http://www.w3.org/1999/xlink" x="0px" y="0px" viewBox="0 0 36 36"
	 style="enable-background:new 0 0 36 36;" xml:space="preserve">
<g>
	<path d="M23.75,11.25h-12C11.336,11.25,11,11.586,11,12v12c0,0.414,0.336,0.75,0.75,0.75h12c0.414,0,0.75-0.336,0.75-0.75V12
		C24.5,11.586,24.164,11.25,23.75,11.25z M23,23.25H12.5v-10.5H23V23.25z"/>
	<path d="M11.75,9.75c0.414,0,0.75-0.336,0.75-0.75V6c0-0.414-0.336-0.75-0.75-0.75S11,5.586,11,6v3
		C11,9.414,11.336,9.75,11.75,9.75z"/>
	<path d="M23.75,5.25C23.336,5.25,23,5.586,23,6v3c0,0.414,0.336,0.75,0.75,0.75S24.5,9.414,24.5,9V6
		C24.5,5.586,24.164,5.25,23.75,5.25z"/>
	<path d="M17.75,9.75c0.414,0,0.75-0.336,0.75-0.75V6c0-0.414-0.336-0.75-0.75-0.75S17,5.586,17,6v3
		C17,9.414,17.336,9.75,17.75,9.75z"/>
	<path d="M20.75,9.75c0.414,0,0.75-0.336,0.75-0.75V6c0-0.414-0.336-0.75-0.75-0.75S20,5.586,20,6v3
		C20,9.414,20.336,9.75,20.75,9.75z"/>
	<path d="M14.75,9.75c0.414,0,0.75-0.336,0.75-0.75V6c0-0.414-0.336-0.75-0.75-0.75S14,5.586,14,6v3
		C14,9.414,14.336,9.75,14.75,9.75z"/>
	<path d="M29.75,23.25h-3C26.336,23.25,26,23.586,26,24s0.336,0.75,0.75,0.75h3c0.414,0,0.75-0.336,0.75-0.75
		S30.164,23.25,29.75,23.25z"/>
	<path d="M26.75,12.75h3c0.414,0,0.75-0.336,0.75-0.75s-0.336-0.75-0.75-0.75h-3C26.336,11.25,26,11.586,26,12
		S26.336,12.75,26.75,12.75z"/>
	<path d="M29.75,17.25h-3C26.336,17.25,26,17.586,26,18s0.336,0.75,0.75,0.75h3c0.414,0,0.75-0.336,0.75-0.75
		S30.164,17.25,29.75,17.25z"/>
	<path d="M29.75,14.25h-3C26.336,14.25,26,14.586,26,15s0.336,0.75,0.75,0.75h3c0.414,0,0.75-0.336,0.75-0.75
		S30.164,14.25,29.75,14.25z"/>
	<path d="M29.75,20.25h-3C26.336,20.25,26,20.586,26,21s0.336,0.75,0.75,0.75h3c0.414,0,0.75-0.336,0.75-0.75
		S30.164,20.25,29.75,20.25z"/>
	<path d="M8.75,23.25h-3C5.336,23.25,5,23.586,5,24s0.336,0.75,0.75,0.75h3c0.414,0,0.75-0.336,0.75-0.75S9.164,23.25,8.75,23.25z"
		/>
	<path d="M8.75,11.25h-3C5.336,11.25,5,11.586,5,12s0.336,0.75,0.75,0.75h3c0.414,0,0.75-0.336,0.75-0.75S9.164,11.25,8.75,11.25z"
		/>
	<path d="M8.75,17.25h-3C5.336,17.25,5,17.586,5,18s0.336,0.75,0.75,0.75h3c0.414,0,0.75-0.336,0.75-0.75S9.164,17.25,8.75,17.25z"
		/>
	<path d="M8.75,14.25h-3C5.336,14.25,5,14.586,5,15s0.336,0.75,0.75,0.75h3c0.414,0,0.75-0.336,0.75-0.75S9.164,14.25,8.75,14.25z"
		/>
	<path d="M8.75,20.25h-3C5.336,20.25,5,20.586,5,21s0.336,0.75,0.75,0.75h3c0.414,0,0.75-0.336,0.75-0.75S9.164,20.25,8.75,20.25z"
		/>
	<path d="M11.75,26.25C11.336,26.25,11,26.586,11,27v3c0,0.414,0.336,0.75,0.75,0.75S12.5,30.414,12.5,30v-3
		C12.5,26.586,12.164,26.25,11.75,26.25z"/>
	<path d="M23.75,26.25C23.336,26.25,23,26.586,23,27v3c0,0.414,0.336,0.75,0.75,0.75S24.5,30.414,24.5,30v-3
		C24.5,26.586,24.164,26.25,23.75,26.25z"/>
	<path d="M17.75,26.25C17.336,26.25,17,26.586,17,27v3c0,0.414,0.336,0.75,0.75,0.75S18.5,30.414,18.5,30v-3
		C18.5,26.586,18.164,26.25,17.75,26.25z"/>
	<path d="M20.75,26.25C20.336,26.25,20,26.586,20,27v3c0,0.414,0.336,0.75,0.75,0.75S21.5,30.414,21.5,30v-3
		C21.5,26.586,21.164,26.25,20.75,26.25z"/>
	<path d="M14.75,26.25C14.336,26.25,14,26.586,14,27v3c0,0.414,0.336,0.75,0.75,0.75S15.5,30.414,15.5,30v-3
		C15.5,26.586,15.164,26.25,14.75,26.25z"/>
</g>
</svg>
