<svg id="Icons" xmlns="http://www.w3.org/2000/svg" viewBox="0 0 36 36"><title>Icon-Red_Hat-Recycle-Trashcan-A-Black-RGB</title><path d="M10,12.77h.25V30a.76.76,0,0,0,.75.75H25a.76.76,0,0,0,.75-.75V12.77H26a.75.75,0,0,0,0-1.5H10a.75.75,0,0,0,0,1.5Zm1.75,0h12.5V29.25H11.75Z"/><path d="M10,9.75H26a.75.75,0,0,0,0-1.5H21.67a3.74,3.74,0,0,0-7.34,0H10a.75.75,0,0,0,0,1.5Zm8-3a2.24,2.24,0,0,1,2.11,1.5H15.89A2.24,2.24,0,0,1,18,6.75Z"/><path d="M14,15.27a.75.75,0,0,0-.75.75v9a.75.75,0,0,0,1.5,0V16A.75.75,0,0,0,14,15.27Z"/><path d="M18,15.27a.75.75,0,0,0-.75.75v9a.75.75,0,0,0,1.5,0V16A.75.75,0,0,0,18,15.27Z"/><path d="M22,15.27a.75.75,0,0,0-.75.75v9a.75.75,0,0,0,1.5,0V16A.75.75,0,0,0,22,15.27Z"/></svg>