<?xml version="1.0" encoding="utf-8"?>
<!-- Generator: Adobe Illustrator 24.2.1, SVG Export Plug-In . SVG Version: 6.00 Build 0)  -->
<svg version="1.1" id="Layer_1" xmlns="http://www.w3.org/2000/svg" xmlns:xlink="http://www.w3.org/1999/xlink" x="0px" y="0px"
	 viewBox="0 0 36 36" style="enable-background:new 0 0 36 36;" xml:space="preserve">
<path d="M28,27.25c-0.412-0.003-0.745-0.338-0.75-0.75v-11c0-5.109-4.141-9.25-9.25-9.25s-9.25,4.141-9.25,9.25v11
	c0,0.414-0.336,0.75-0.75,0.75c-0.414,0-0.75-0.336-0.75-0.75v-11C7.25,9.563,12.063,4.75,18,4.75S28.75,9.563,28.75,15.5v11
	C28.75,26.914,28.414,27.253,28,27.25z M22,11.75h-8c-1.519,0-2.75,1.231-2.75,2.75v12c0.005,0.412,0.338,0.745,0.75,0.75h12
	c0.41-0.005,0.74-0.34,0.74-0.75v-12C24.74,12.985,23.515,11.755,22,11.75z M12.742,14.49c0.005-0.69,0.567-1.245,1.258-1.24h8
	c0.69,0,1.25,0.56,1.25,1.25v5.25H12.742V14.49z M12.748,25.75v-4.5H23.25v4.5H12.748z M24,31.25c-0.199-0.001-0.39-0.078-0.53-0.22
	l-1-1c-0.282-0.303-0.266-0.778,0.037-1.06c0.288-0.268,0.735-0.268,1.023,0l1,1c0.293,0.285,0.299,0.754,0.014,1.046L24.53,31.03
	C24.391,31.173,24.199,31.251,24,31.25z M12,31.25c-0.199-0.001-0.39-0.079-0.53-0.22c-0.292-0.294-0.292-0.767,0-1.06l1-1
	c0.293-0.292,0.765-0.291,1.06,0c0.291,0.287,0.299,0.754,0.014,1.046L12.53,31.03C12.391,31.173,12.199,31.251,12,31.25z M20,10.25
	h-4c-0.414,0-0.75-0.336-0.75-0.75S15.586,8.75,16,8.75h4c0.414,0,0.75,0.336,0.75,0.75S20.414,10.25,20,10.25z M14.926,22.752
	c-0.414,0-0.75,0.336-0.75,0.75s0.336,0.75,0.75,0.75s0.75-0.336,0.75-0.75C15.676,23.088,15.34,22.752,14.926,22.752z
	 M21.009,22.752c-0.414,0-0.75,0.336-0.75,0.75s0.336,0.75,0.75,0.75s0.75-0.336,0.75-0.75
	C21.759,23.088,21.423,22.752,21.009,22.752z"/>
</svg>
