<svg id="a27a5467-44ad-413e-afbf-f09313ab3d86" data-name="Icon" xmlns="http://www.w3.org/2000/svg" viewBox="0 0 36 36">
  <g>
    <path d="M28.62,15.52v0a9.12,9.12,0,0,0-17.28-4.07,7.12,7.12,0,1,0-.84,14.19H15a.62.62,0,0,0,0-1.24H10.5a5.88,5.88,0,1,1,1.09-11.65.63.63,0,0,0,.69-.36,7.87,7.87,0,0,1,15.1,3.13c0,.13,0,.26,0,.39V16a.63.63,0,0,0,.56.66,3.87,3.87,0,0,1-.41,7.71H21a.62.62,0,0,0,0,1.24h6.5a5.11,5.11,0,0,0,1.12-10.1Z"/>
    <path d="M20.44,21.56l-2-2a.63.63,0,0,0-.88,0l-2,2c-.58.56.32,1.46.88.88l.94-.93V29a.62.62,0,0,0,1.24,0V21.51l.94.93A.62.62,0,0,0,20.44,21.56Z"/>
  </g>
</svg>
