<svg id="Icons" xmlns="http://www.w3.org/2000/svg" viewBox="0 0 36 36"><title>Icon-Red_Hat-Science-Heart_Monitor-A-Black-RGB</title><path d="M7,15.58A6.56,6.56,0,0,0,9,20.26l8.29,8.29a.79.79,0,0,0,.53.22.77.77,0,0,0,.53-.22l4-3.95a.75.75,0,0,0-1.06-1.06L17.78,27,10,19.2A5.11,5.11,0,0,1,17.25,12a.75.75,0,0,0,1.06,0,5.12,5.12,0,0,1,8.58,4.85.75.75,0,0,0,1.45.36,6.55,6.55,0,0,0-1.74-6.27,6.62,6.62,0,0,0-8.82-.48A6.61,6.61,0,0,0,7,15.58Z"/><path d="M29,18.67H25.36a.76.76,0,0,0-.67.41l-.46.93-1.81-4.5a.74.74,0,0,0-.61-.47.76.76,0,0,0-.71.33l-2.2,3.3h-.81a.75.75,0,0,0,0,1.5H19.3a.78.78,0,0,0,.63-.33l1.63-2.45,1.9,4.73a.72.72,0,0,0,.66.47h0a.76.76,0,0,0,.67-.41l1-2H29a.75.75,0,0,0,0-1.5Z"/></svg>