<svg id="Icons" xmlns="http://www.w3.org/2000/svg" viewBox="0 0 36 36"><title>Icon-Red_Hat-Buildings-City-A-Black-RGB</title><path d="M28,26.77a.76.76,0,0,0,.75-.75V22a.75.75,0,0,0-.75-.75H23.75V11a.75.75,0,0,0-.75-.75H18.75V6a.75.75,0,0,0-1.5,0v4.25H13a.75.75,0,0,0-.75.75v7a.75.75,0,0,0,1.5,0V11.77h8.5V22a.76.76,0,0,0,.75.75h4.25V26A.76.76,0,0,0,28,26.77Z"/><path d="M20.69,13.73a1,1,0,0,0-.16-.25,1,1,0,0,0-.24-.16.73.73,0,0,0-.58,0,1,1,0,0,0-.24.16.79.79,0,0,0-.22.54.73.73,0,0,0,.22.52.66.66,0,0,0,.24.17.73.73,0,0,0,.58,0,.66.66,0,0,0,.24-.17.73.73,0,0,0,.22-.52A.72.72,0,0,0,20.69,13.73Z"/><path d="M16.53,13.48a1,1,0,0,0-.24-.16.73.73,0,0,0-.58,0,1,1,0,0,0-.24.16.76.76,0,0,0-.16.25.72.72,0,0,0-.06.29.73.73,0,0,0,.22.52.66.66,0,0,0,.24.17.73.73,0,0,0,.58,0,.66.66,0,0,0,.24-.17.73.73,0,0,0,.22-.52A.79.79,0,0,0,16.53,13.48Z"/><path d="M20.69,16.73a1,1,0,0,0-.16-.25,1,1,0,0,0-.24-.16.79.79,0,0,0-.82.16.82.82,0,0,0-.16.25.72.72,0,0,0-.06.29.75.75,0,0,0,.75.74.93.93,0,0,0,.29-.05.66.66,0,0,0,.24-.17.73.73,0,0,0,.22-.52A.72.72,0,0,0,20.69,16.73Z"/><path d="M20.53,19.49a.77.77,0,0,0-1.06,0,.75.75,0,0,0-.22.53.79.79,0,0,0,.22.53.75.75,0,0,0,1.06,0,.79.79,0,0,0,.22-.53A.73.73,0,0,0,20.53,19.49Z"/><path d="M20.53,22.49a.81.81,0,0,0-.24-.17.78.78,0,0,0-.82.17.75.75,0,0,0-.22.53.79.79,0,0,0,.22.53.75.75,0,0,0,1.06,0,.79.79,0,0,0,.22-.53A.75.75,0,0,0,20.53,22.49Z"/><path d="M20.29,25.32a.83.83,0,0,0-.58,0,1,1,0,0,0-.24.16,1,1,0,0,0-.16.25.72.72,0,0,0-.06.29.79.79,0,0,0,.22.53.75.75,0,0,0,1.06,0,.79.79,0,0,0,.22-.53.72.72,0,0,0-.06-.29,1,1,0,0,0-.16-.25A1,1,0,0,0,20.29,25.32Z"/><path d="M15.71,16.32a1,1,0,0,0-.24.16.76.76,0,0,0-.16.25.72.72,0,0,0-.06.29.73.73,0,0,0,.22.52.66.66,0,0,0,.24.17.93.93,0,0,0,.29.05.71.71,0,0,0,.53-.22.73.73,0,0,0,.22-.52.72.72,0,0,0-.06-.29,1,1,0,0,0-.16-.25A.79.79,0,0,0,15.71,16.32Z"/><path d="M31,30.27h-.25V28a.75.75,0,0,0-.75-.75H26a.75.75,0,0,0-.75.75v2.25h-.5V29a.75.75,0,0,0-.75-.75H20a.75.75,0,0,0-.75.75v1.25h-3.5V20a.75.75,0,0,0-.75-.75H7a.75.75,0,0,0-.75.75V30.27H6a.75.75,0,1,0,0,1.5H31a.75.75,0,0,0,0-1.5Zm-16.75,0H7.75v-9.5h6.5Zm9,0h-2.5v-.5h2.5Zm6,0h-2.5v-1.5h2.5Z"/></svg>