<?xml version="1.0" encoding="utf-8"?>
<!-- Generator: Adobe Illustrator 19.1.0, SVG Export Plug-In . SVG Version: 6.00 Build 0)  -->
<svg version="1.1" id="Layer_1" xmlns="http://www.w3.org/2000/svg" xmlns:xlink="http://www.w3.org/1999/xlink" x="0px" y="0px"
	 viewBox="0 0 32 32" enable-background="new 0 0 32 32" xml:space="preserve">
<g>
	<path fill="#010101" d="M15.121,15.194h-4.825c-0.569,0-1.031-0.462-1.031-1.031v-2.995c0-0.568,0.462-1.031,1.031-1.031h4.825
		c0.569,0,1.031,0.462,1.031,1.031v2.995C16.152,14.732,15.69,15.194,15.121,15.194z M10.296,10.434
		c-0.405,0-0.735,0.329-0.735,0.734v2.995c0,0.405,0.33,0.735,0.735,0.735h4.825c0.405,0,0.735-0.33,0.735-0.735v-2.995
		c0-0.405-0.33-0.734-0.735-0.734H10.296z"/>
	<path fill="#010101" d="M22.923,11.381H17.14c-0.082,0-0.148-0.066-0.148-0.148c0-0.082,0.066-0.148,0.148-0.148h5.782
		c0.082,0,0.148,0.066,0.148,0.148C23.071,11.315,23.005,11.381,22.923,11.381z"/>
	<path fill="#010101" d="M22.923,12.814H17.14c-0.082,0-0.148-0.066-0.148-0.148s0.066-0.148,0.148-0.148h5.782
		c0.082,0,0.148,0.066,0.148,0.148S23.005,12.814,22.923,12.814z"/>
	<path fill="#010101" d="M22.923,14.247H17.14c-0.082,0-0.148-0.066-0.148-0.148c0-0.082,0.066-0.148,0.148-0.148h5.782
		c0.082,0,0.148,0.066,0.148,0.148C23.071,14.181,23.005,14.247,22.923,14.247z"/>
	<path fill="#010101" d="M12.709,14.23c-0.89,0-1.613-0.724-1.613-1.614s0.724-1.614,1.613-1.614c0.89,0,1.614,0.724,1.614,1.614
		S13.599,14.23,12.709,14.23z M12.709,11.299c-0.726,0-1.317,0.591-1.317,1.317s0.591,1.317,1.317,1.317
		c0.727,0,1.318-0.591,1.318-1.317S13.435,11.299,12.709,11.299z"/>
	<path fill="#010101" d="M12.256,13.392c-0.027,0-0.054-0.007-0.077-0.022c-0.044-0.027-0.071-0.075-0.071-0.126V11.99
		c0-0.051,0.027-0.099,0.071-0.126c0.044-0.027,0.099-0.029,0.144-0.006l1.231,0.621c0.05,0.025,0.081,0.076,0.082,0.132
		c0,0.056-0.031,0.107-0.08,0.132l-1.231,0.632C12.302,13.386,12.279,13.392,12.256,13.392z M12.404,12.231v0.77l0.757-0.388
		L12.404,12.231z"/>
	<path d="M24.543,18.863H7.7c-0.654,0-1.185-0.532-1.185-1.185V7.157c0-0.654,0.532-1.185,1.185-1.185h16.843
		c0.654,0,1.185,0.532,1.185,1.185v10.521C25.728,18.332,25.196,18.863,24.543,18.863z M7.7,6.565c-0.327,0-0.593,0.266-0.593,0.593
		v10.521c0,0.327,0.266,0.593,0.593,0.593h16.843c0.327,0,0.593-0.266,0.593-0.593V7.157c0-0.327-0.266-0.593-0.593-0.593H7.7z"/>
	<path d="M23.632,17.547H8.611c-0.409,0-0.741-0.332-0.741-0.741V8.029c0-0.408,0.332-0.741,0.741-0.741h15.022
		c0.409,0,0.741,0.332,0.741,0.741v8.776C24.373,17.214,24.041,17.547,23.632,17.547z M8.611,7.585
		c-0.245,0-0.444,0.199-0.444,0.444v8.776c0,0.245,0.199,0.444,0.444,0.444h15.022c0.245,0,0.444-0.199,0.444-0.444V8.029
		c0-0.245-0.199-0.444-0.444-0.444H8.611z"/>
	<path d="M20.681,20.166h-9.234c-0.164,0-0.296-0.133-0.296-0.296c0-0.164,0.133-0.296,0.296-0.296h9.234
		c0.164,0,0.296,0.133,0.296,0.296C20.977,20.034,20.845,20.166,20.681,20.166z"/>
	<path d="M13.478,20.128c-0.164,0-0.296-0.133-0.296-0.296v-1.264c0-0.164,0.133-0.296,0.296-0.296c0.164,0,0.296,0.133,0.296,0.296
		v1.264C13.774,19.995,13.641,20.128,13.478,20.128z"/>
	<path d="M18.727,20.128c-0.164,0-0.296-0.133-0.296-0.296v-1.264c0-0.164,0.133-0.296,0.296-0.296c0.164,0,0.296,0.133,0.296,0.296
		v1.264C19.023,19.995,18.891,20.128,18.727,20.128z"/>
	<path d="M11.447,21.43c-0.164,0-0.296-0.133-0.296-0.296V19.87c0-0.164,0.133-0.296,0.296-0.296c0.164,0,0.296,0.133,0.296,0.296
		v1.264C11.743,21.298,11.611,21.43,11.447,21.43z"/>
	<path d="M20.681,21.43c-0.164,0-0.296-0.133-0.296-0.296V19.87c0-0.164,0.133-0.296,0.296-0.296c0.164,0,0.296,0.133,0.296,0.296
		v1.264C20.977,21.298,20.845,21.43,20.681,21.43z"/>
	<path d="M26.722,26.028H5.278c-0.253,0-0.491-0.099-0.67-0.277c-0.179-0.179-0.278-0.417-0.278-0.67
		c0-0.253,0.099-0.491,0.278-0.67l2.411-2.484c0.064-0.611,0.582-1.089,1.209-1.089h15.543c0.628,0,1.146,0.478,1.209,1.089
		l2.414,2.487c0.176,0.176,0.274,0.414,0.274,0.667s-0.098,0.491-0.277,0.67C27.212,25.93,26.975,26.028,26.722,26.028z
		 M8.229,21.43c-0.344,0-0.623,0.28-0.623,0.623c0,0.077-0.03,0.151-0.084,0.206l-2.491,2.566c-0.07,0.07-0.107,0.16-0.107,0.254
		s0.037,0.184,0.104,0.251c0.067,0.067,0.156,0.104,0.251,0.104h21.443c0.095,0,0.184-0.037,0.251-0.104
		c0.067-0.067,0.104-0.156,0.104-0.251c0-0.095-0.037-0.184-0.104-0.251l-2.494-2.569c-0.054-0.055-0.084-0.129-0.084-0.206
		c0-0.344-0.28-0.623-0.623-0.623H8.229z"/>
	<path fill="#010101" d="M23.707,22.317H8.305c-0.082,0-0.148-0.066-0.148-0.148s0.066-0.148,0.148-0.148h15.402
		c0.082,0,0.148,0.066,0.148,0.148S23.789,22.317,23.707,22.317z"/>
	<path fill="#010101" d="M24.321,23.351H7.692c-0.082,0-0.148-0.066-0.148-0.148s0.066-0.148,0.148-0.148h16.628
		c0.082,0,0.148,0.066,0.148,0.148S24.402,23.351,24.321,23.351z"/>
	<path fill="#010101" d="M25.24,24.386H6.773c-0.082,0-0.148-0.066-0.148-0.148s0.066-0.148,0.148-0.148H25.24
		c0.082,0,0.148,0.066,0.148,0.148S25.322,24.386,25.24,24.386z"/>
</g>
</svg>
