<svg id="Icons" xmlns="http://www.w3.org/2000/svg" viewBox="0 0 36 36"><title>Icon-Red_Hat-Objects-Volumetric_Flask-A-Black-RGB</title><path d="M22.33,17.07A1.28,1.28,0,0,1,21.75,16V8.25H22a.75.75,0,0,0,0-1.5H21a.76.76,0,0,0-.75.75V16a2.79,2.79,0,0,0,1.24,2.3A6,6,0,0,1,23,19.75H13a6.47,6.47,0,0,1,1.51-1.44A2.75,2.75,0,0,0,15.75,16V7.5A.76.76,0,0,0,15,6.75H14a.75.75,0,0,0,0,1.5h.25V16a1.24,1.24,0,0,1-.57,1A7.75,7.75,0,0,0,18,31.25h.13a7.83,7.83,0,0,0,7.61-7.46A7.7,7.7,0,0,0,22.33,17.07ZM18.1,29.75H18a6.25,6.25,0,0,1-6.25-6.25,6.33,6.33,0,0,1,.42-2.25H23.83a6.24,6.24,0,0,1-5.73,8.5Z"/><path d="M16.71,18.19a.87.87,0,0,0,.58,0,.66.66,0,0,0,.24-.17.74.74,0,0,0,.22-.52.79.79,0,0,0-.22-.54,1,1,0,0,0-.24-.16.83.83,0,0,0-.58,0,1,1,0,0,0-.24.16.82.82,0,0,0-.16.25.72.72,0,0,0-.06.29.73.73,0,0,0,.22.52A.66.66,0,0,0,16.71,18.19Z"/><path d="M18.71,13.19a.87.87,0,0,0,.58,0,.66.66,0,0,0,.24-.17.73.73,0,0,0,.22-.52.72.72,0,0,0-.06-.29,1,1,0,0,0-.16-.25.79.79,0,0,0-1.06,0,1,1,0,0,0-.16.25.72.72,0,0,0-.06.29.73.73,0,0,0,.22.52A.66.66,0,0,0,18.71,13.19Z"/><path d="M16.47,6a.66.66,0,0,0,.24.17A.73.73,0,0,0,17.53,6a.63.63,0,0,0,.16-.24.67.67,0,0,0,.06-.28.72.72,0,0,0-.06-.29A.78.78,0,0,0,17.53,5a.81.81,0,0,0-.24-.17.76.76,0,0,0-1,.41.72.72,0,0,0-.06.29.67.67,0,0,0,.06.28A.56.56,0,0,0,16.47,6Z"/></svg>