<svg id="Layer_1" data-name="Layer 1" xmlns="http://www.w3.org/2000/svg" viewBox="0 0 36 36"><title>Icon-Red_Hat-Objects-Envelope-A-Black-RGB</title><path d="M28.73,10.4a.58.58,0,0,0,0-.18.42.42,0,0,0-.09-.14.53.53,0,0,0-.06-.1h0a1,1,0,0,0-.17-.12l-.07,0-.09,0a.65.65,0,0,0-.2,0H8a.63.63,0,0,0-.22.05H7.71l-.1.07a.65.65,0,0,0-.15.1h0a.53.53,0,0,0-.06.1.42.42,0,0,0-.09.14.58.58,0,0,0,0,.18s0,.06,0,.1v15a.76.76,0,0,0,.75.75H28a.76.76,0,0,0,.75-.75v-15S28.73,10.43,28.73,10.4Zm-2.61.85L18,19,9.88,11.25Zm-17.37,1,5.57,5.29L12.88,18.9,8.75,22.77Zm.08,12.5L13.9,20l1.51-1.42,2.07,2a.75.75,0,0,0,1,0l2.07-2,6.58,6.17Zm18.42-2-5.57-5.23,5.57-5.29Z"/></svg>