<?xml version="1.0" encoding="utf-8"?>
<!-- Generator: Adobe Illustrator 24.2.1, SVG Export Plug-In . SVG Version: 6.00 Build 0)  -->
<svg version="1.1" id="a5699a83-9a33-4825-a021-13b509e0c763"
	 xmlns="http://www.w3.org/2000/svg" xmlns:xlink="http://www.w3.org/1999/xlink" x="0px" y="0px" viewBox="0 0 36 36"
	 style="enable-background:new 0 0 36 36;" xml:space="preserve">
<path d="M16.994,4.756c0.414,0,0.749,0.335,0.749,0.749s-0.335,0.749-0.749,0.749s-0.749-0.335-0.749-0.749
	S16.58,4.756,16.994,4.756z M18.994,11.756c0.414,0,0.749,0.335,0.749,0.749s-0.335,0.749-0.749,0.749s-0.749-0.335-0.749-0.749
	S18.58,11.756,18.994,11.756z M17.003,16.752c0.414,0,0.749,0.335,0.749,0.749s-0.335,0.749-0.749,0.749s-0.749-0.335-0.749-0.749
	S16.59,16.752,17.003,16.752z M12.4,31.25h11.2c1.741-0.001,3.152-1.414,3.151-3.155c0-0.351-0.059-0.699-0.174-1.031L21.749,13.18
	V8.25h0.25c0.414,0,0.75-0.336,0.75-0.75s-0.336-0.75-0.75-0.75h-1c-0.414,0-0.75,0.336-0.75,0.75v5.807
	c0.007,0.083,0.021,0.165,0.042,0.246l2.153,6.2h-8.89l2.153-6.2c0.021-0.081,0.035-0.163,0.042-0.246V7.5
	c0-0.414-0.336-0.75-0.75-0.75h-1c-0.414,0-0.75,0.336-0.75,0.75s0.336,0.75,0.75,0.75h0.25v4.93L9.424,27.064
	c-0.115,0.332-0.174,0.68-0.174,1.031C9.248,29.836,10.659,31.249,12.4,31.25z M23.597,29.75H12.398
	c-0.911,0.001-1.65-0.738-1.651-1.649c0-0.185,0.031-0.369,0.092-0.544l2.192-6.307h9.933l2.192,6.307
	c0.061,0.175,0.092,0.359,0.092,0.544C25.247,29.012,24.508,29.751,23.597,29.75z"/>
</svg>
