<svg id="aa947ac2-efbf-4b96-abc6-7dbf1b51e138" data-name="Layer 1" xmlns="http://www.w3.org/2000/svg" viewBox="0 0 36 36">
  <title>Icon-Red_Hat-Space_satelite-A-Black-RGB</title>
  <g>
    <path d="M22.3,22.3l1.514-1.515a.748.748,0,0,0,0-1.06L20.1,16.006l.531-.532.681-.681,1.6,1.6a.758.758,0,0,0,.248.165.75.75,0,0,0,.564,0,.758.758,0,0,0,.248-.165l2.273-2.273,1.137-1.136,3.409-3.41a.748.748,0,0,0,0-1.06L28.666,6.392,26.544,4.271a.75.75,0,0,0-1.061,0L22.074,7.68l-3.409,3.409a.732.732,0,0,0-.163.243.751.751,0,0,0,0,.574.732.732,0,0,0,.163.243l1.583,1.584-.681.681-.531.531-3.7-3.7a.75.75,0,0,0-1.061,0l-1.516,1.515L11.24,14.271a.746.746,0,0,0-.22.53.757.757,0,0,0,.057.287.748.748,0,0,0,.163.243l3.705,3.705-.788.788-.424.424-1.584-1.583a.748.748,0,0,0-1.06,0l-3.41,3.409L4.27,25.483a.779.779,0,0,0-.163.244.753.753,0,0,0-.057.287.746.746,0,0,0,.22.53l2.122,2.121,2.121,2.122a.74.74,0,0,0,.248.164.752.752,0,0,0,.813-.164l2.273-2.273,1.136-1.137,1.136-1.136,2.274-2.273a.749.749,0,0,0,.162-.244.749.749,0,0,0,0-.573.749.749,0,0,0-.162-.244l-1.6-1.6.424-.424.788-.789,3.72,3.72a.747.747,0,0,0,.53.22.747.747,0,0,0,.531-.22Zm3.712-16.44,1.591,1.591L29.2,9.043l-1.213,1.213L26.392,8.665,24.8,7.073ZM23.135,8.74l.606-.606,1.591,1.591,1.591,1.592-.606.605-.606.606-1.591-1.59L22.528,9.346Zm-1.667,1.667L23.059,12l1.591,1.591L23.438,14.8,21.847,13.21l-1.592-1.591ZM9.043,29.2,7.452,27.605,5.861,26.014,7.073,24.8l1.592,1.591,1.591,1.59Zm2.88-2.879-.607.606L9.725,25.332,8.134,23.741l.606-.606.606-.607,1.592,1.592,1.59,1.591ZM14.8,23.438,13.589,24.65,12,23.059l-1.591-1.591,1.212-1.212,1.591,1.591Zm5.454-1.213-3.712-3.712L12.831,14.8l.985-.985.985-.984,3.712,3.712,3.713,3.712-.985.984Z"/>
    <path d="M31.949,23.186a.748.748,0,0,0-.22-.531,6.417,6.417,0,0,0-9.074,9.075.748.748,0,0,0,1.06,0l3.477-3.477.472.472,1,1a.753.753,0,0,0,1.061,0,.752.752,0,0,0,0-1.061l-1-1-.472-.472,3.476-3.476A.747.747,0,0,0,31.949,23.186Zm-5.287,3.476h0L23.226,30.1A4.918,4.918,0,0,1,30.1,23.226Z"/>
  </g>
</svg>
