<svg id="Icons" xmlns="http://www.w3.org/2000/svg" viewBox="0 0 36 36"><title>Icon-Red_Hat-Diagrams-Graph_Arrow_Up-A-Black-RGB</title><path d="M29,10.77a.76.76,0,0,0,.75-.75V7A.75.75,0,0,0,29,6.27H7A.74.74,0,0,0,6.25,7V21a.75.75,0,0,0,1.5,0V7.77h20.5V10A.75.75,0,0,0,29,10.77Z"/><path d="M7,26.27a.74.74,0,0,0-.75.75v2a.75.75,0,0,0,.75.75H29a.76.76,0,0,0,.75-.75V17a.75.75,0,1,0-1.5,0V28.27H7.75V27A.75.75,0,0,0,7,26.27Z"/><path d="M30.47,10.87l-12,11.84-5-5a.74.74,0,0,0-1.05,0L5.47,24.48A.75.75,0,0,0,6,25.77a.74.74,0,0,0,.52-.22l6.41-6.29,5,5a.75.75,0,0,0,1.06,0l12.5-12.36a.75.75,0,0,0,0-1.06A.75.75,0,0,0,30.47,10.87Z"/><path d="M11.25,10v4a.75.75,0,0,0,1.5,0V10a.75.75,0,0,0-1.5,0Z"/><path d="M17.25,10v8a.75.75,0,0,0,1.5,0V10a.75.75,0,0,0-1.5,0Z"/><path d="M23.25,10v4a.75.75,0,0,0,1.5,0V10a.75.75,0,1,0-1.5,0Z"/></svg>