<svg id="Icon" xmlns="http://www.w3.org/2000/svg" viewBox="0 0 36 36"><path d="M33,26.76H3a.75.75,0,0,0,0,1.5H33a.75.75,0,0,0,0-1.5Z"/><path d="M6,25.24H30a.75.75,0,0,0,.75-.75v-16A.76.76,0,0,0,30,7.74H21a.75.75,0,0,0,0,1.5h8.25v14.5H6.75V9.24H15a.75.75,0,0,0,0-1.5H6a.76.76,0,0,0-.75.75v16A.75.75,0,0,0,6,25.24Z"/><path d="M18,9.24a.75.75,0,0,0,.75-.75A.75.75,0,0,0,17.47,8,.75.75,0,0,0,18,9.24Z"/><path d="M12,13.49v6a.75.75,0,0,0,.75.75h7a.75.75,0,0,0,.75-.75V17.87l2.45,1.43a.75.75,0,0,0,.38.1.69.69,0,0,0,.37-.1.73.73,0,0,0,.38-.65V14.49a.74.74,0,0,0-.38-.65.77.77,0,0,0-.75,0l-2.45,1.43V13.49a.76.76,0,0,0-.75-.75h-7A.76.76,0,0,0,12,13.49Zm10.58,2.3v1.56l-1.34-.78Zm-9.08-1.55H19v4.5h-5.5Z"/></svg>