<svg id="Icons" xmlns="http://www.w3.org/2000/svg" viewBox="0 0 36 36"><title>Icon-Red_Hat-Hardware-Tablet-A-Black-RGB</title><path d="M27,5.23H9A.76.76,0,0,0,8.25,6V30a.75.75,0,0,0,.75.75H27a.75.75,0,0,0,.75-.75V6A.76.76,0,0,0,27,5.23Zm-.75,24H9.75V6.73h16.5Z"/><path d="M16,27.73h4a.75.75,0,0,0,0-1.5H16a.75.75,0,0,0,0,1.5Z"/><path d="M17.47,9.51a.78.78,0,0,0,.24.16.73.73,0,0,0,.58,0,.74.74,0,0,0,.4-.4.73.73,0,0,0,0-.58.74.74,0,0,0-.4-.4.73.73,0,0,0-.58,0,.74.74,0,0,0-.4.4.75.75,0,0,0-.06.29.72.72,0,0,0,.06.29A.63.63,0,0,0,17.47,9.51Z"/></svg>