<?xml version="1.0" encoding="utf-8"?>
<!-- Generator: Adobe Illustrator 19.1.0, SVG Export Plug-In . SVG Version: 6.00 Build 0)  -->
<svg version="1.1" id="Layer_1" xmlns="http://www.w3.org/2000/svg" xmlns:xlink="http://www.w3.org/1999/xlink" x="0px" y="0px"
	 viewBox="0 0 32 32" enable-background="new 0 0 32 32" xml:space="preserve">
<g>
	<linearGradient id="SVGID_1_" gradientUnits="userSpaceOnUse" x1="2.2919" y1="2.9676" x2="29.1562" y2="29.8319">
		<stop  offset="0" style="stop-color:#E6E6E6"/>
		<stop  offset="0.5031" style="stop-color:#F7F7F7"/>
		<stop  offset="1" style="stop-color:#C4C4C4"/>
	</linearGradient>
	<path fill="url(#SVGID_1_)" d="M22.069,12.757l-4.922-6.623c1.629-0.212,1.854-0.629,1.854-0.841c0-1.056-4.17-1.068-4.348-1.068
		c-1.133,0-2.117,0.106-2.743,0.196c-0.146,0.021-0.254,0.146-0.254,0.293v1.061c0,0.147,0.109,0.272,0.254,0.293
		c0.364,0.052,0.85,0.109,1.414,0.148l1.671,6.682c-1.877,0.275-3.561,0.758-5.09,1.449l-3.03-3.65
		c-0.056-0.068-0.14-0.107-0.228-0.107H4.621c-0.095,0-0.185,0.046-0.241,0.124c-0.056,0.078-0.071,0.177-0.04,0.268L6.045,16
		l-1.704,5.017c-0.031,0.09-0.016,0.19,0.04,0.268c0.056,0.078,0.145,0.124,0.241,0.124h2.025c0.088,0,0.172-0.039,0.228-0.107
		l2.969-3.576c1.491,0.677,3.193,1.143,5.144,1.405l-1.663,6.653c-0.564,0.039-1.051,0.096-1.415,0.148
		c-0.146,0.021-0.254,0.146-0.254,0.293v1.061c0,0.148,0.109,0.273,0.254,0.293c0.627,0.089,1.611,0.196,2.743,0.196
		c1.624,0,4.348-0.139,4.348-1.068c0-0.212-0.225-0.629-1.854-0.841l4.922-6.623c5.034-0.465,9.182-2.004,9.182-3.243
		S27.102,13.221,22.069,12.757z"/>
</g>
<g>
	<path fill="#010101" d="M9.541,4.785h1.64c0.082,0,0.148-0.066,0.148-0.148c0-0.082-0.066-0.148-0.148-0.148h-1.64
		c-0.082,0-0.148,0.066-0.148,0.148C9.393,4.719,9.459,4.785,9.541,4.785z"/>
	<path fill="#010101" d="M6.744,5.943h4.437c0.082,0,0.148-0.066,0.148-0.148c0-0.082-0.066-0.148-0.148-0.148H6.744
		c-0.082,0-0.148,0.066-0.148,0.148C6.595,5.877,6.662,5.943,6.744,5.943z"/>
	<path fill="#010101" d="M11.18,26.096H6.744c-0.082,0-0.148,0.066-0.148,0.148c0,0.082,0.066,0.148,0.148,0.148h4.437
		c0.082,0,0.148-0.066,0.148-0.148C11.329,26.162,11.262,26.096,11.18,26.096z"/>
	<path fill="#010101" d="M11.18,27.061H8.673c-0.082,0-0.148,0.066-0.148,0.148c0,0.082,0.066,0.148,0.148,0.148h2.508
		c0.082,0,0.148-0.066,0.148-0.148C11.329,27.127,11.262,27.061,11.18,27.061z"/>
	<path fill="#010101" d="M3.85,10.663H1.648c-0.082,0-0.148,0.066-0.148,0.148s0.066,0.148,0.148,0.148H3.85
		c0.082,0,0.148-0.066,0.148-0.148S3.932,10.663,3.85,10.663z"/>
	<path fill="#010101" d="M3.85,20.887h-1.35c-0.082,0-0.148,0.066-0.148,0.148s0.066,0.148,0.148,0.148h1.35
		c0.082,0,0.148-0.066,0.148-0.148S3.932,20.887,3.85,20.887z"/>
	<path fill="#010101" d="M23.795,18.018c0.028,0.038,0.073,0.059,0.119,0.059c0.009,0,0.018-0.001,0.027-0.002l1.061-0.193
		c0.037-0.007,0.069-0.027,0.092-0.057c0.212-0.282,0.705-1.025,0.705-1.825c0-0.799-0.493-1.543-0.705-1.825
		c-0.023-0.03-0.055-0.05-0.092-0.057l-1.061-0.193c-0.056-0.011-0.112,0.012-0.145,0.057c-0.034,0.045-0.039,0.105-0.014,0.155
		c0.213,0.426,0.466,1.094,0.466,1.863c0,0.769-0.254,1.437-0.466,1.863C23.755,17.913,23.761,17.973,23.795,18.018z M24.543,16
		c0-0.681-0.184-1.286-0.376-1.732l0.722,0.131c0.18,0.25,0.611,0.919,0.611,1.601c0,0.682-0.431,1.351-0.611,1.601l-0.722,0.131
		C24.36,17.286,24.543,16.681,24.543,16z"/>
	<path fill="#010101" d="M31.251,16c0-1.239-4.149-2.779-9.182-3.243l-4.922-6.623c1.629-0.212,1.854-0.629,1.854-0.841
		c0-1.056-4.17-1.068-4.348-1.068c-1.133,0-2.117,0.106-2.743,0.196c-0.146,0.021-0.254,0.146-0.254,0.293v1.061
		c0,0.147,0.109,0.272,0.254,0.293c0.364,0.052,0.85,0.109,1.414,0.148l1.671,6.682c-1.877,0.275-3.561,0.758-5.09,1.449l-3.03-3.65
		c-0.056-0.068-0.14-0.107-0.228-0.107H4.621c-0.095,0-0.185,0.046-0.241,0.124c-0.056,0.078-0.071,0.177-0.04,0.268L6.045,16
		l-1.704,5.017c-0.031,0.09-0.016,0.19,0.04,0.268c0.056,0.078,0.145,0.124,0.241,0.124h2.025c0.088,0,0.172-0.039,0.228-0.107
		l2.969-3.576c1.491,0.677,3.193,1.143,5.144,1.405l-1.663,6.653c-0.564,0.039-1.051,0.096-1.415,0.148
		c-0.146,0.021-0.254,0.146-0.254,0.293v1.061c0,0.148,0.109,0.273,0.254,0.293c0.627,0.089,1.611,0.196,2.743,0.196
		c1.624,0,4.348-0.139,4.348-1.068c0-0.212-0.225-0.629-1.854-0.841l4.922-6.623C27.102,18.779,31.251,17.239,31.251,16z
		 M12.248,4.973c0.604-0.077,1.45-0.155,2.405-0.155c1.88,0,3.187,0.265,3.631,0.467c-0.424,0.167-1.641,0.387-3.631,0.387
		c-0.955,0-1.801-0.078-2.405-0.156V4.973z M13.944,6.25c0.229,0.009,0.465,0.014,0.709,0.014c0.712,0,1.307-0.023,1.807-0.061
		l4.824,6.49c-0.72-0.049-1.454-0.077-2.193-0.077c-1.238,0-2.4,0.073-3.503,0.207L13.944,6.25z M6.508,20.816H5.035l1.603-4.721
		c0.021-0.062,0.021-0.129,0-0.191l-1.603-4.721h1.473L10.506,16L6.508,20.816z M11.119,16.189c0.091-0.11,0.091-0.269,0-0.378
		l-0.82-0.988c2.456-1.08,5.335-1.613,8.791-1.613c6.768,0,11.568,2.116,11.568,2.79s-4.8,2.79-11.568,2.79
		c-3.604,0-6.505-0.504-8.854-1.537L11.119,16.189z M14.653,27.182c-0.954,0-1.8-0.078-2.405-0.156v-0.543
		c0.604-0.078,1.451-0.156,2.405-0.156c2.064,0,3.296,0.236,3.675,0.406C17.972,26.936,16.716,27.182,14.653,27.182z M16.46,25.796
		c-0.5-0.038-1.095-0.061-1.807-0.061c-0.245,0-0.481,0.006-0.709,0.014l1.637-6.548c1.093,0.12,2.26,0.181,3.51,0.181
		c0.739,0,1.473-0.027,2.193-0.077L16.46,25.796z"/>
</g>
</svg>
