<?xml version="1.0" encoding="UTF-8"?><svg id="a" xmlns="http://www.w3.org/2000/svg" viewBox="0 0 36 36"><defs><style>.b{fill:none;}</style></defs><path class="b" d="M18,12.88c-.45,0-.81,.35-.86,.79h1.72c-.04-.44-.41-.79-.86-.79Z"/><rect class="b" x="13.62" y="14.92" width="8.75" height="4.21"/><path d="M28.02,15.93c-.87,.03-.58,1.14-.62,1.7h-3.77v-3.33c0-.34-.28-.62-.62-.62h-2.88c-.16-2.69-4.07-2.69-4.23,0h-2.88c-.35,0-.62,.28-.62,.62v3.33h-3.77v-1.41c0-.34-.28-.62-.62-.62s-.62,.28-.62,.62v4c0,.82,1.25,.82,1.25,0v-1.34h3.77v.88c.02,.83,1.02,.6,1.56,.62l-1.28,.85c-.17,.12-.28,.31-.28,.52v2c0,.82,1.25,.82,1.25,0v-1.66l2.56-1.71h3.62l2.56,1.71v1.67c0,.82,1.25,.82,1.25,0v-2c0-.21-.1-.4-.28-.52l-1.28-.85c.54-.03,1.54,.2,1.56-.63v-.87h3.77v1.68c0,.82,1.25,.82,1.25,0v-4c0-.34-.28-.62-.62-.62Zm-10.02-3.05c.45,0,.81,.35,.86,.79h-1.72c.04-.44,.41-.79,.86-.79Zm4.38,6.25H13.62v-4.21h8.75v4.21Z"/><path d="M31,13.62h-6c-.82,0-.82,1.25,0,1.25h6c.82,0,.82-1.25,0-1.25Z"/><path d="M11,14.88c.81,0,.82-1.24,0-1.25l-6-.07c-.82-.04-.83,1.25-.01,1.25l6.01,.07Z"/></svg>