<?xml version="1.0" encoding="utf-8"?>
<!-- Generator: Adobe Illustrator 24.2.1, SVG Export Plug-In . SVG Version: 6.00 Build 0)  -->
<svg version="1.1" id="a805d40b-e456-4dd0-925a-5d0a67c35a00"
	 xmlns="http://www.w3.org/2000/svg" xmlns:xlink="http://www.w3.org/1999/xlink" x="0px" y="0px" viewBox="0 0 36 36"
	 style="enable-background:new 0 0 36 36;" xml:space="preserve">
<g>
	<path d="M26.48,5.25h-12c-0.414,0-0.75,0.336-0.75,0.75v9c0,0.414,0.336,0.75,0.75,0.75s0.75-0.336,0.75-0.75V6.75h10.5v10.5h-2.25
		c-0.414,0-0.75,0.336-0.75,0.75s0.336,0.75,0.75,0.75h3c0.414,0,0.75-0.336,0.75-0.75V6C27.23,5.586,26.894,5.25,26.48,5.25z"/>
	<path d="M20.48,26.25c-0.414,0-0.75,0.336-0.75,0.75v2.25H9.23v-10.5h8.25c0.414,0,0.75-0.336,0.75-0.75s-0.336-0.75-0.75-0.75h-9
		c-0.414,0-0.75,0.336-0.75,0.75v12c0,0.414,0.336,0.75,0.75,0.75h12c0.414,0,0.75-0.336,0.75-0.75v-3
		C21.23,26.586,20.894,26.25,20.48,26.25z"/>
	<path d="M23.48,15.75c0.414-0.001,0.75-0.336,0.749-0.751c0-0.199-0.079-0.389-0.219-0.529l-3-3c-0.294-0.291-0.767-0.291-1.061,0
		l-3,3c-0.298,0.288-0.306,0.763-0.018,1.061c0.288,0.298,0.763,0.306,1.061,0.018l1.738-1.737V24c0,0.414,0.336,0.75,0.75,0.75
		s0.75-0.336,0.75-0.75V13.811l1.719,1.719C23.09,15.671,23.281,15.75,23.48,15.75z"/>
</g>
</svg>
