<svg id="Layer_1" data-name="Layer 1" xmlns="http://www.w3.org/2000/svg" viewBox="0 0 36 36"><title>Icon-Red_Hat-Assigned_Desk-A-Black-RGB</title><path d="M30,16.25H20.79v-.5H24a.75.75,0,0,0,.75-.75l0-8A.75.75,0,0,0,24,6.25H12a.76.76,0,0,0-.75.75v8a.76.76,0,0,0,.75.75h3.31v.5H6a.75.75,0,0,0,0,1.5h.25V29a.75.75,0,0,0,1.5,0V17.75h11.5V27a.76.76,0,0,0,.75.75h8.25V29a.75.75,0,0,0,1.5,0V17.75H30a.75.75,0,0,0,0-1.5Zm-10.71,0H16.81v-.5h2.48Zm-3.23-2H12.75V7.75H23.28l0,6.5H16.06Zm12.19,12h-7.5v-8.5h7.5Z"/><path d="M23,21.75h3a.75.75,0,0,0,0-1.5H23a.75.75,0,0,0,0,1.5Z"/></svg>