<svg id="eba6df77-6f70-4a5c-831e-dd500d671a06" data-name="Layer 1" xmlns="http://www.w3.org/2000/svg" viewBox="0 0 36 36">
  <title>Icon-Red_Hat-Graph_exponential_up-A-Black-RGB</title>
  <g>
    <path d="M10.97,9.47a.745.745,0,0,0-.22.53V20.728a.75.75,0,0,0,1.5,0V10a.75.75,0,0,0-1.28-.53Z"/>
    <path d="M16.97,9.469a.747.747,0,0,0-.22.531v9a.75.75,0,0,0,1.5,0V10a.75.75,0,0,0-1.28-.531Z"/>
    <path d="M22.97,9.47a.745.745,0,0,0-.22.53v4.9a.75.75,0,0,0,1.5,0V10a.75.75,0,0,0-1.28-.53Z"/>
    <path d="M6.5,23.3a.749.749,0,0,0,.75-.75V7.75h20.5V9.017a.75.75,0,0,0,1.5,0V7a.751.751,0,0,0-.75-.75H6.5A.751.751,0,0,0,5.75,7V22.549a.749.749,0,0,0,.75.75Z"/>
    <path d="M28.5,17.3a.751.751,0,0,0-.75.75v10.2H7.25v-.7a.75.75,0,0,0-1.5,0V29a.751.751,0,0,0,.75.75h22a.751.751,0,0,0,.75-.75V18.051a.751.751,0,0,0-.75-.75Z"/>
    <path d="M31.21,10.4a.75.75,0,0,0-1.383-.088,25.4,25.4,0,0,1-3.355,5.145,24.774,24.774,0,0,1-6.114,5.238,24.843,24.843,0,0,1-8.511,3.216,25.281,25.281,0,0,1-6.292.345.737.737,0,0,0-.544.179.75.75,0,0,0,.434,1.317q.4.03.864.048c.308.012.637.018.984.018a27.216,27.216,0,0,0,6.241-.728,26.263,26.263,0,0,0,7.6-3.113,26.283,26.283,0,0,0,6.481-5.552,26.816,26.816,0,0,0,3.555-5.453A.743.743,0,0,0,31.21,10.4Z"/>
  </g>
</svg>
