<svg id="f03cb97d-4458-489f-ad68-1d044a8b7938" data-name="virtual-server" xmlns="http://www.w3.org/2000/svg" viewBox="0 0 36 36"><title>Icon-Red_Hat-Hardware-Virtual_Server-A-Black-RGB</title><path d="M18,13.75a.75.75,0,1,0-.75-.75A.76.76,0,0,0,18,13.75Zm-5.2,0a.75.75,0,1,0-.75-.75A.76.76,0,0,0,12.8,13.75Zm2.6,0a.75.75,0,1,0-.75-.75A.76.76,0,0,0,15.4,13.75ZM5.53,23.47a.75.75,0,0,0-1.22.24.72.72,0,0,0-.06.29.75.75,0,0,0,.75.75.72.72,0,0,0,.29-.06.63.63,0,0,0,.24-.16A.75.75,0,0,0,5.75,24a.72.72,0,0,0-.06-.29A.63.63,0,0,0,5.53,23.47ZM5,20.5A.75.75,0,0,0,5,22a.75.75,0,0,0,0-1.5Zm0-2.75a.75.75,0,0,0,0,1.5.75.75,0,0,0,0-1.5Zm5.2-4A.75.75,0,1,0,9.45,13,.76.76,0,0,0,10.2,13.75Zm-2.6,0A.75.75,0,1,0,6.85,13,.76.76,0,0,0,7.6,13.75Zm5.85,4h-3a.75.75,0,0,0,0,1.5h3a.75.75,0,0,0,0-1.5Zm12.35-4a.75.75,0,1,0-.75-.75A.76.76,0,0,0,25.8,13.75Zm5.2,0a.75.75,0,0,0,.53-1.28.77.77,0,0,0-1.06,0A.75.75,0,0,0,31,13.75Zm-5.42,4.06a.74.74,0,0,0-.81.16.75.75,0,0,0-.22.53.93.93,0,0,0,.05.29.66.66,0,0,0,.17.24.75.75,0,0,0,.53.22.77.77,0,0,0,.53-.22.78.78,0,0,0,.16-.24.72.72,0,0,0,.06-.29.75.75,0,0,0-.22-.53A.72.72,0,0,0,25.58,17.81ZM23.2,13.75a.75.75,0,1,0-.75-.75A.76.76,0,0,0,23.2,13.75ZM7.25,16v5a.76.76,0,0,0,.75.75H28a.76.76,0,0,0,.75-.75V16a.76.76,0,0,0-.75-.75H8A.76.76,0,0,0,7.25,16Zm1.5.75h18.5v3.5H8.75Zm11.85-3a.75.75,0,1,0-.75-.75A.76.76,0,0,0,20.6,13.75Zm-7.8,9.5a.75.75,0,1,0,0,1.5.75.75,0,0,0,0-1.5Zm15.6-11a.75.75,0,1,0,.75.75A.76.76,0,0,0,28.4,12.25Zm3.13,11.22a.77.77,0,0,0-1.06,0,.63.63,0,0,0-.16.24.74.74,0,0,0,.16.82.63.63,0,0,0,.24.16.72.72,0,0,0,.29.06.75.75,0,0,0,.75-.75.72.72,0,0,0-.06-.29A.78.78,0,0,0,31.53,23.47Zm-3.13-.22a.75.75,0,1,0,.75.75A.75.75,0,0,0,28.4,23.25Zm-2.6,0a.75.75,0,1,0,.75.75A.75.75,0,0,0,25.8,23.25ZM31,15a.75.75,0,0,0,0,1.5A.75.75,0,0,0,31,15Zm0,2.75a.75.75,0,1,0,.75.75A.76.76,0,0,0,31,17.75Zm0,2.75a.75.75,0,1,0,.75.75A.75.75,0,0,0,31,20.5Zm-7.8,2.75a.75.75,0,0,0,0,1.5.75.75,0,1,0,0-1.5Zm-15.6,0a.75.75,0,1,0,.75.75A.75.75,0,0,0,7.6,23.25ZM4.47,12.47a.75.75,0,1,0,1.06,0A.77.77,0,0,0,4.47,12.47ZM10.2,23.25A.75.75,0,1,0,11,24,.75.75,0,0,0,10.2,23.25ZM5,15a.75.75,0,1,0,.75.75A.75.75,0,0,0,5,15Zm15.6,8.25a.75.75,0,1,0,.75.75A.75.75,0,0,0,20.6,23.25Zm-5.2,0a.75.75,0,1,0,0,1.5.75.75,0,0,0,0-1.5Zm2.6,0a.75.75,0,1,0,.75.75A.75.75,0,0,0,18,23.25Z"/></svg>