<svg id="Layer_1" data-name="Layer 1" xmlns="http://www.w3.org/2000/svg" viewBox="0 0 36 36"><title>Icon-Red_Hat-Office-Shower-A-Black-RGB</title><path d="M20.8,20.21a.75.75,0,0,0-.75.75v7.17a.75.75,0,0,0,1.5,0V21A.76.76,0,0,0,20.8,20.21Zm-3.48,0a.76.76,0,0,0-.75.75v7.17a.75.75,0,1,0,1.5,0V21A.75.75,0,0,0,17.32,20.21Zm3.56-9.92A7.32,7.32,0,0,0,7.53,14.45V28.13a.75.75,0,0,0,1.5,0V14.45a5.82,5.82,0,0,1,10.08-4h0a7.68,7.68,0,0,0-6,7.48.75.75,0,0,0,.75.75H27.72a.74.74,0,0,0,.75-.75A7.68,7.68,0,0,0,20.88,10.29Zm-6.21,6.92a6.18,6.18,0,0,1,12.26,0Zm9.6,3a.76.76,0,0,0-.75.75v7.17a.75.75,0,0,0,1.5,0V21A.75.75,0,0,0,24.27,20.21Z"/></svg>