<svg id="Icon" xmlns="http://www.w3.org/2000/svg" viewBox="0 0 36 36"><title>Icon-Red_Hat-Puzzle_Piece-A-Black-RGB</title><path d="M25.5,14.25a3.78,3.78,0,0,0-1.25.22V10a.76.76,0,0,0-.75-.75H19a3.75,3.75,0,1,0-7.06,0H7.5a.76.76,0,0,0-.75.75v5.76A.75.75,0,0,0,8,16.32a2.25,2.25,0,1,1,0,3.36.75.75,0,0,0-1.25.56V26a.76.76,0,0,0,.75.75H12a3.75,3.75,0,1,0,7.06,0H23.5a.76.76,0,0,0,.75-.75V21.53a3.75,3.75,0,1,0,1.25-7.28Zm0,6a2.23,2.23,0,0,1-1.5-.59.76.76,0,0,0-.8-.12.74.74,0,0,0-.45.68v5h-5a.75.75,0,0,0-.68.44.77.77,0,0,0,.12.81,2.25,2.25,0,1,1-3.32,0,.77.77,0,0,0,.12-.81.75.75,0,0,0-.68-.44h-5V21.54a3.75,3.75,0,1,0,0-7.08V10.75h5a.75.75,0,0,0,.68-.44.77.77,0,0,0-.12-.81,2.25,2.25,0,1,1,3.32,0,.77.77,0,0,0-.12.81.75.75,0,0,0,.68.44h5v5a.74.74,0,0,0,.45.68.76.76,0,0,0,.8-.12,2.24,2.24,0,1,1,1.5,3.91Z"/></svg>