<?xml version="1.0" encoding="utf-8"?>
<!-- Generator: Adobe Illustrator 24.2.1, SVG Export Plug-In . SVG Version: 6.00 Build 0)  -->
<svg version="1.1" id="Icons" xmlns="http://www.w3.org/2000/svg" xmlns:xlink="http://www.w3.org/1999/xlink" x="0px" y="0px"
	 viewBox="0 0 36 36" style="enable-background:new 0 0 36 36;" xml:space="preserve">
<path d="M19.27,16.115v-4.48c-0.002-0.46-0.384-0.756-0.756-0.756c-0.262,0-0.511,0.14-0.644,0.376l-4.21,7.37
	c-0.066,0.117-0.098,0.244-0.098,0.369c0,0.284,0.221,0.749,0.748,0.751h2.4v4.512c0,0.41,0.341,0.725,0.655,0.725
	c0.203,0,0.551-0.033,0.745-0.387l4.21-7.36c0.066-0.117,0.098-0.244,0.098-0.369c0-0.284-0.221-0.749-0.748-0.751H19.27z
	 M18.21,21.425v-2.42c0-0.408-0.331-0.74-0.74-0.74H15.6l2.17-3.79v2.44c0,0.414,0.336,0.75,0.75,0.75h1.86L18.21,21.425z
	 M23.423,5.251c-0.826,0-3.214,0.119-5.432,1.982c-1.58-1.321-3.5-1.966-5.41-1.966c-3.561,0-8.443,2.803-8.443,8.437
	c0,2.16,0.825,4.312,2.454,5.951l10.87,10.874c0.146,0.147,0.338,0.22,0.53,0.22c0.074,0,0.321-0.01,0.53-0.22l10.87-10.874
	c1.615-1.617,2.473-3.779,2.473-5.978C31.863,9.114,28.195,5.251,23.423,5.251z M30.366,13.699c0,2.486-1.274,4.14-2.032,4.896
	L17.99,28.938L7.646,18.599c-1.356-1.355-2.034-3.132-2.034-4.909c0-3.708,2.985-6.941,6.941-6.941c3.53,0,4.699,2.252,5.437,2.252
	c0.781,0,1.862-2.247,5.433-2.247C28.265,6.754,30.366,10.96,30.366,13.699z"/>
</svg>
