<svg id="bb6caa3f-8017-4efb-9705-b80c77d96932" data-name="Layer 1" xmlns="http://www.w3.org/2000/svg" viewBox="0 0 36 36">
  <title>Icon-Red_Hat-Traffic_light-A-Black-RGB</title>
  <g>
    <path d="M23.53,5.47A.745.745,0,0,0,23,5.25H13a.751.751,0,0,0-.75.75V30a.751.751,0,0,0,.75.75H23a.751.751,0,0,0,.75-.75V6A.745.745,0,0,0,23.53,5.47ZM22.25,18V29.25h-8.5V6.75h8.5Z"/>
    <path d="M18,15.25a2.752,2.752,0,1,0,1.944.806A2.742,2.742,0,0,0,18,15.25Zm.884,3.634A1.251,1.251,0,1,1,19.25,18,1.249,1.249,0,0,1,18.884,18.884Z"/>
    <path d="M16.056,9.056A2.747,2.747,0,1,0,18,8.25,2.742,2.742,0,0,0,16.056,9.056ZM19.25,11a1.25,1.25,0,1,1-.366-.884A1.249,1.249,0,0,1,19.25,11Z"/>
    <path d="M18,22.25a2.752,2.752,0,1,0,1.944.806A2.742,2.742,0,0,0,18,22.25Zm.884,3.634A1.251,1.251,0,1,1,19.25,25,1.249,1.249,0,0,1,18.884,25.884Z"/>
  </g>
</svg>
