<svg id="b445a3f5-3f73-475c-ad45-72e9b8b30536" data-name="Layer 1" xmlns="http://www.w3.org/2000/svg" viewBox="0 0 36 36">
  <title>Icon-Red_Hat-No_smoking-A-Black-RGB</title>
  <g>
    <path d="M25.161,28.224a.754.754,0,0,0-.566.1A12.25,12.25,0,0,1,7.634,11.47a.75.75,0,0,0-1.269-.8A13.751,13.751,0,0,0,25.4,29.588a.75.75,0,0,0-.243-1.364Z"/>
    <path d="M27.718,8.282a13.727,13.727,0,0,0-19.239-.2A.751.751,0,0,0,8.458,9.14h0L17.2,18.25H9a.751.751,0,0,0-.75.75v3a.751.751,0,0,0,.75.75H21.517l4.94,5.148v0a.724.724,0,0,0,.252.173.751.751,0,0,0,.564.006h0c.009,0,.016-.013.025-.017a.722.722,0,0,0,.219-.14,13.737,13.737,0,0,0,.2-19.64ZM12.25,20.5v.75H9.75v-1.5h2.5Zm5.75.75H13.75v-1.5h4.889l1.439,1.5Zm4.25-.75v.75h-.094l-1.439-1.5H22.25Zm7.027,2.309A12.178,12.178,0,0,1,27,26.294l-3.553-3.7a.651.651,0,0,0,.088-.06.745.745,0,0,0,.22-.53V19a.751.751,0,0,0-.75-.75H19.277l-.737-.769L10.084,8.668A12.253,12.253,0,0,1,29.277,22.809Z"/>
    <path d="M25.969,13.47a.744.744,0,0,0-.219.53.363.363,0,0,1-.053.212,1.6,1.6,0,0,1-.228.258,2.791,2.791,0,0,0-.467.569,1.962,1.962,0,0,0,0,1.924,2.81,2.81,0,0,0,.467.568,1.693,1.693,0,0,1,.228.258A.368.368,0,0,1,25.75,18a.36.36,0,0,1-.053.211,1.606,1.606,0,0,1-.228.257,2.818,2.818,0,0,0-.467.569A1.849,1.849,0,0,0,24.75,20a.75.75,0,0,0,1.5,0,.359.359,0,0,1,.052-.211,1.606,1.606,0,0,1,.228-.257A2.818,2.818,0,0,0,27,18.963a1.954,1.954,0,0,0,0-1.923,2.791,2.791,0,0,0-.467-.569,1.6,1.6,0,0,1-.228-.258A.362.362,0,0,1,26.25,16a.367.367,0,0,1,.052-.213,1.693,1.693,0,0,1,.228-.258A2.81,2.81,0,0,0,27,14.962,1.855,1.855,0,0,0,27.25,14a.75.75,0,0,0-1.281-.53Z"/>
  </g>
</svg>
