<svg id="a16a8bf3-4e64-40da-9c39-8454976322ac" data-name="Layer 1" xmlns="http://www.w3.org/2000/svg" viewBox="0 0 36 36">
  <title>Icon-Red_Hat-Edge-A-Black-RGB</title>
  <g>
    <path d="M25.308,19.555a6.423,6.423,0,0,0-11.715-2.908c-.06,0-.119-.008-.176-.01s-.116,0-.172,0a5.013,5.013,0,0,0,0,10.026H24.594a3.588,3.588,0,0,0,.714-7.1Zm.761,4.991a2.082,2.082,0,0,1-1.475.613H13.245a3.513,3.513,0,0,1,0-7.026c.1,0,.205.006.306.016s.2.025.3.042a.744.744,0,0,0,.781-.371,4.924,4.924,0,0,1,9.214,2.413.748.748,0,0,0,.75.75,2.087,2.087,0,0,1,1.475,3.563Z"/>
    <path d="M4.26,24.24a1.2,1.2,0,0,0-.069-.133A.644.644,0,0,0,4.1,23.99a.758.758,0,0,0-.113-.092.906.906,0,0,0-.127-.068.786.786,0,0,0-.436-.04.733.733,0,0,0-.384.2.715.715,0,0,0-.1.117.584.584,0,0,0-.065.133.7.7,0,0,0-.045.136.676.676,0,0,0-.015.144.753.753,0,0,0,.057.287.764.764,0,0,0,.163.243.753.753,0,0,0,.53.22.775.775,0,0,0,.145-.014,1.459,1.459,0,0,0,.145-.036.7.7,0,0,0,.127-.074.94.94,0,0,0,.113-.1.745.745,0,0,0,.162-.243.736.736,0,0,0,.058-.287.676.676,0,0,0-.015-.144A.7.7,0,0,0,4.26,24.24Z"/>
    <path d="M8.68,13.917A.742.742,0,0,0,9,13.99a.782.782,0,0,0,.246-.039.731.731,0,0,0,.224-.121.766.766,0,0,0,.277-.508.733.733,0,0,0-.157-.552.753.753,0,0,0-.5-.274.779.779,0,0,0-.556.154.746.746,0,0,0-.273.5.768.768,0,0,0,.163.556A.713.713,0,0,0,8.68,13.917Z"/>
    <path d="M14.319,11.041a.771.771,0,0,0,.471.159.652.652,0,0,0,.076,0,.348.348,0,0,0,.084-.017.748.748,0,0,0-.33-1.46.743.743,0,0,0-.473.33.761.761,0,0,0-.1.57A.731.731,0,0,0,14.319,11.041Z"/>
    <path d="M26.744,13.941a.787.787,0,0,0,.567-.03.723.723,0,0,0,.269-.211.755.755,0,0,0,.153-.551.729.729,0,0,0-.273-.5.757.757,0,0,0-.556-.161.741.741,0,0,0-.5.281.729.729,0,0,0-.158.547.767.767,0,0,0,.278.5A.731.731,0,0,0,26.744,13.941Z"/>
    <path d="M5.32,17.58a.738.738,0,0,0-.571-.031.749.749,0,0,0-.429.381.738.738,0,0,0-.031.571.752.752,0,0,0,.381.429.99.99,0,0,0,.165.059A.717.717,0,0,0,5,19.01a.726.726,0,0,0,.391-.114.768.768,0,0,0,.279-.316.748.748,0,0,0,.035-.571A.739.739,0,0,0,5.32,17.58Z"/>
    <path d="M31.67,17.92a.752.752,0,0,0-.429-.381.738.738,0,0,0-.571.031.749.749,0,0,0-.381.429.738.738,0,0,0,.031.571.758.758,0,0,0,.284.316A.748.748,0,0,0,31,19a.7.7,0,0,0,.164-.021.819.819,0,0,0,.156-.059.744.744,0,0,0,.35-1Z"/>
    <path d="M21.04,11.18l.08.014a.756.756,0,0,0,.82-.584.738.738,0,0,0-.1-.561.753.753,0,0,0-.469-.329.732.732,0,0,0-.566.092.751.751,0,0,0,.236,1.368Z"/>
    <path d="M33.165,24.38a.693.693,0,0,0-.045-.14.628.628,0,0,0-.065-.133.771.771,0,0,0-.095-.117.758.758,0,0,0-.113-.092.906.906,0,0,0-.127-.068.731.731,0,0,0-.58,0,.917.917,0,0,0-.128.068.75.75,0,0,0-.112.092.7.7,0,0,0-.092.117,1.191,1.191,0,0,0-.068.133.693.693,0,0,0-.045.14.681.681,0,0,0-.015.14.746.746,0,0,0,.015.149.7.7,0,0,0,.045.141.906.906,0,0,0,.068.127.758.758,0,0,0,.092.113.93.93,0,0,0,.112.1.71.71,0,0,0,.128.074,1.394,1.394,0,0,0,.145.036.767.767,0,0,0,.145.014.826.826,0,0,0,.149-.014,1.078,1.078,0,0,0,.141-.036.7.7,0,0,0,.127-.074.94.94,0,0,0,.113-.1.693.693,0,0,0,.091-.113.911.911,0,0,0,.069-.127.7.7,0,0,0,.045-.141.746.746,0,0,0,.015-.149A.681.681,0,0,0,33.165,24.38Z"/>
  </g>
</svg>
