<svg id="e87c6a81-adf6-4028-8788-34a14224727f" data-name="app-on-server" xmlns="http://www.w3.org/2000/svg" viewBox="0 0 36 36"><title>Icon-Red_Hat-People_and_audiences-Hand_thumbs_up-A-Black-RGB</title><path d="M26.88,17.68a2.49,2.49,0,0,0,.37-1.29v-.11a2.5,2.5,0,0,0-2.5-2.5H21.46a8.48,8.48,0,0,0,1.36-5,2.85,2.85,0,0,0-1.31-2.18,2.49,2.49,0,0,0-2.2-.23,2.33,2.33,0,0,0-1.45,2l0,.35c0,.59-.07.77-.5,1L12,13.62a9,9,0,0,0-1.4,1.06A8.62,8.62,0,0,0,9.38,16a9.32,9.32,0,0,0-.88,1.53,9.5,9.5,0,0,0-.56,1.71,9.32,9.32,0,0,0-.19,1.83,8.68,8.68,0,0,0,8.68,8.68h6.32a2.5,2.5,0,0,0,2.5-2.5v-.11A2.5,2.5,0,0,0,25,26.07a2.5,2.5,0,0,0,2-2.44v-.12a2.54,2.54,0,0,0-.31-1.19A2.49,2.49,0,0,0,28.25,20v-.12A2.48,2.48,0,0,0,26.88,17.68Zm-1.13-1.4v.11a1,1,0,0,1-1,1H18.43a1,1,0,0,1-1-1v-.11a1,1,0,0,1,1-1h6.32A1,1,0,0,1,25.75,16.28ZM9.25,21.06a6.91,6.91,0,0,1,.16-1.51,7.13,7.13,0,0,1,.46-1.42,7.51,7.51,0,0,1,.73-1.26,7.2,7.2,0,0,1,1-1.09,6.8,6.8,0,0,1,1.21-.9L18.15,11a2.38,2.38,0,0,0,1.18-2.17c0-.1,0-.19,0-.3a.88.88,0,0,1,.5-.75,1,1,0,0,1,.87.1A1.38,1.38,0,0,1,21.33,9a6.64,6.64,0,0,1-1.8,4.78s0,0,0,0H18.43a2.5,2.5,0,0,0-2.5,2.5v.11a2.51,2.51,0,0,0,.72,1.75,2.51,2.51,0,0,0-.72,1.75V20a2.51,2.51,0,0,0,.72,1.75,2.51,2.51,0,0,0-.72,1.75v.12a2.52,2.52,0,0,0,.72,1.75,2.49,2.49,0,0,0-.72,1.75v.11a2.51,2.51,0,0,0,.21,1A7.19,7.19,0,0,1,9.25,21.06Zm14.5,6.18a1,1,0,0,1-1,1H18.43a1,1,0,0,1-1-1v-.11a1,1,0,0,1,1-1h4.32a1,1,0,0,1,1,1Zm1.75-3.61a1,1,0,0,1-1,1H18.43a1,1,0,0,1-1-1v-.12a1,1,0,0,1,1-1H24.5a1,1,0,0,1,1,1ZM26.75,20a1,1,0,0,1-1,1H18.43a1,1,0,0,1-1-1v-.12a1,1,0,0,1,1-1h7.32a1,1,0,0,1,1,1Z"/></svg>
