<svg id="Icons" xmlns="http://www.w3.org/2000/svg" viewBox="0 0 36 36"><title>Icon-Red_Hat-Objects-Gear_Group-A-Black-RGB</title><path d="M6.83,12a.75.75,0,0,0,0,1.5h.33a4.65,4.65,0,0,0,.84,2l-.23.23a.74.74,0,0,0,0,1.06.71.71,0,0,0,.53.22.74.74,0,0,0,.53-.22l.23-.23a4.65,4.65,0,0,0,2,.84v.33a.75.75,0,0,0,1.5,0v-.33a4.8,4.8,0,0,0,2-.83l.23.22a.73.73,0,0,0,.53.22.74.74,0,0,0,.53-.22.75.75,0,0,0,0-1.06l-.23-.23a4.6,4.6,0,0,0,.84-2h.32a.75.75,0,0,0,0-1.5h-.32a4.69,4.69,0,0,0-.84-2l.23-.23A.75.75,0,0,0,14.84,8.7l-.23.23a4.69,4.69,0,0,0-2-.84V7.77a.75.75,0,0,0-1.5,0v.32a4.65,4.65,0,0,0-2,.84L8.83,8.7a.75.75,0,0,0-1.06,0,.74.74,0,0,0,0,1.06L8,10a4.69,4.69,0,0,0-.84,2Zm5-2.5a3.25,3.25,0,1,1-3.25,3.25A3.26,3.26,0,0,1,11.83,9.52Z"/><path d="M19.33,15.89a.76.76,0,0,0-.75.75v1.07a5.94,5.94,0,0,0-2.95,1.23l-.76-.76a.75.75,0,0,0-1.06,1.06l.76.76A5.89,5.89,0,0,0,13.34,23H12.27a.75.75,0,0,0,0,1.5h1.07a5.89,5.89,0,0,0,1.23,3l-.76.76a.75.75,0,0,0,0,1.06.75.75,0,0,0,1.06,0l.76-.76a5.94,5.94,0,0,0,2.95,1.23v1.07a.75.75,0,0,0,1.5,0V29.7a6,6,0,0,0,3-1.23l.76.76a.71.71,0,0,0,.53.22.74.74,0,0,0,.53-.22.75.75,0,0,0,0-1.06l-.76-.76a6.07,6.07,0,0,0,1.23-3H26.4a.75.75,0,0,0,0-1.5H25.33A6.07,6.07,0,0,0,24.1,20l.76-.76a.75.75,0,0,0-1.06-1.06l-.76.76a6,6,0,0,0-3-1.23V16.64A.75.75,0,0,0,19.33,15.89Zm4.55,7.81a4.55,4.55,0,1,1-4.55-4.54A4.55,4.55,0,0,1,23.88,23.7Z"/><path d="M16.29,23.7a3,3,0,1,0,3-3A3,3,0,0,0,16.29,23.7Zm4.59,0a1.55,1.55,0,1,1-1.55-1.54A1.54,1.54,0,0,1,20.88,23.7Z"/><path d="M22.83,13a.75.75,0,0,0,0,1.5h.37a3,3,0,0,0,.24.58l-.26.26a.75.75,0,0,0,0,1.06.74.74,0,0,0,.53.22.73.73,0,0,0,.53-.22l.26-.26a3,3,0,0,0,.58.24v.37a.75.75,0,0,0,1.5,0V16.4a2.72,2.72,0,0,0,.58-.24l.26.26a.74.74,0,0,0,.53.22.71.71,0,0,0,.53-.22.74.74,0,0,0,0-1.06l-.26-.26a2.48,2.48,0,0,0,.25-.58h.36a.75.75,0,0,0,0-1.5h-.36a2.31,2.31,0,0,0-.25-.58l.26-.26a.75.75,0,1,0-1.06-1.06l-.26.26a2,2,0,0,0-.58-.24v-.37a.75.75,0,1,0-1.5,0v.37a2.09,2.09,0,0,0-.58.24l-.26-.26a.74.74,0,0,0-1.06,0,.75.75,0,0,0,0,1.06l.26.26a2.72,2.72,0,0,0-.24.58Zm3-.5a1.25,1.25,0,1,1-1.25,1.25A1.25,1.25,0,0,1,25.83,12.52Z"/></svg>