<svg id="f421fed8-782a-4f54-ba30-ad4f5008af4f" data-name="Layer 1" xmlns="http://www.w3.org/2000/svg" viewBox="0 0 36 36">
  <title>Icon-Red_Hat-Cloud_Native_Development-A-Black-RGB</title>
  <g>
    <path d="M32.53,17.47a.745.745,0,0,0-.53-.22H22a.751.751,0,0,0-.75.75V28a.751.751,0,0,0,.75.75H32a.751.751,0,0,0,.75-.75V18A.745.745,0,0,0,32.53,17.47ZM31.25,23v4.25h-8.5v-8.5h8.5Z"/>
    <path d="M19,22.905H9.879a5.13,5.13,0,0,1,0-10.259c.134,0,.273.007.42.02s.3.034.465.062a.736.736,0,0,0,.448-.061.753.753,0,0,0,.33-.31,7.071,7.071,0,0,1,13.2,2.722.75.75,0,0,0,.824.667.75.75,0,0,0,.668-.825A8.577,8.577,0,0,0,10.5,11.179c-.108-.011-.214-.019-.317-.025s-.206-.008-.306-.008a6.63,6.63,0,0,0,0,13.259H19a.75.75,0,0,0,0-1.5Z"/>
    <path d="M28.31,21.29a.817.817,0,0,0,.069.127.689.689,0,0,0,.2.2.922.922,0,0,0,.128.069.682.682,0,0,0,.141.045A.746.746,0,0,0,29,21.75a.729.729,0,0,0,.148-.015.691.691,0,0,0,.142-.045.911.911,0,0,0,.127-.069.677.677,0,0,0,.2-.2.911.911,0,0,0,.069-.127.691.691,0,0,0,.045-.142A.729.729,0,0,0,29.75,21a.746.746,0,0,0-.015-.149.682.682,0,0,0-.045-.141.922.922,0,0,0-.069-.128.689.689,0,0,0-.2-.2.817.817,0,0,0-.127-.069.731.731,0,0,0-.58,0,.827.827,0,0,0-.128.069.7.7,0,0,0-.2.2.827.827,0,0,0-.069.128.682.682,0,0,0-.045.141A.746.746,0,0,0,28.25,21a.729.729,0,0,0,.015.148A.691.691,0,0,0,28.31,21.29Z"/>
    <path d="M26.71,20.31a.827.827,0,0,0-.128.069.7.7,0,0,0-.2.2.827.827,0,0,0-.069.128.682.682,0,0,0-.045.141A.746.746,0,0,0,26.25,21a.729.729,0,0,0,.015.148.691.691,0,0,0,.045.142.817.817,0,0,0,.069.127.689.689,0,0,0,.2.2.922.922,0,0,0,.128.069.859.859,0,0,0,.145.045A.693.693,0,0,0,27,21.75a.729.729,0,0,0,.148-.015.691.691,0,0,0,.142-.045.911.911,0,0,0,.127-.069.677.677,0,0,0,.2-.2.911.911,0,0,0,.069-.127.691.691,0,0,0,.045-.142A.729.729,0,0,0,27.75,21a.693.693,0,0,0-.015-.145.859.859,0,0,0-.045-.145.922.922,0,0,0-.069-.128.689.689,0,0,0-.2-.2.817.817,0,0,0-.127-.069.731.731,0,0,0-.58,0Z"/>
  </g>
</svg>
