<?xml version="1.0" encoding="UTF-8"?>
<svg id="uuid-3edf1206-41b6-44a2-8b34-d129f463b473" data-name="Icon" xmlns="http://www.w3.org/2000/svg" viewBox="0 0 36 36">
  <path d="M13,14.62h10c.35,0,.62-.28,.62-.62s-.28-.62-.62-.62H13c-.35,0-.62,.28-.62,.62s.28,.62,.62,.62Z"/>
  <path d="M28,8.38h-2.25l.69-3.25c.04-.18,0-.38-.13-.52s-.3-.23-.49-.23h-3c-.29,0-.55,.21-.61,.5l-.74,3.5H8c-.35,0-.62,.28-.62,.62s.28,.62,.62,.62h.38v3.38c0,.17,.07,.33,.18,.44l.86,.86,2.97,16.81c.05,.3,.31,.52,.62,.52h10c.3,0,.56-.22,.62-.52l2.97-16.81,.86-.86c.12-.12,.18-.28,.18-.44v-3.38h.38c.35,0,.62-.28,.62-.62s-.28-.62-.62-.62Zm-4.66-2.75h1.72l-.58,2.75h-1.72l.58-2.75Zm3.04,7.12l-.82,.82c-.09,.09-.15,.21-.17,.33l-2.91,16.48H13.52l-2.91-16.48c-.02-.13-.08-.24-.17-.33l-.82-.82v-3.12H26.38v3.12Z"/>
  <path d="M16,25.38c-.9,0-1.62,.73-1.62,1.62s.73,1.62,1.62,1.62,1.62-.73,1.62-1.62-.73-1.62-1.62-1.62Zm0,2c-.21,0-.38-.17-.38-.38s.17-.38,.38-.38,.38,.17,.38,.38-.17,.38-.38,.38Z"/>
  <path d="M20,23.38c-.9,0-1.62,.73-1.62,1.62s.73,1.62,1.62,1.62,1.62-.73,1.62-1.62-.73-1.62-1.62-1.62Zm0,2c-.21,0-.38-.17-.38-.38s.17-.38,.38-.38,.38,.17,.38,.38-.17,.38-.38,.38Z"/>
  <path d="M16,20.38c-.9,0-1.62,.73-1.62,1.62s.73,1.62,1.62,1.62,1.62-.73,1.62-1.62-.73-1.62-1.62-1.62Zm0,2c-.21,0-.38-.17-.38-.38s.17-.38,.38-.38,.38,.17,.38,.38-.17,.38-.38,.38Z"/>
</svg>