<svg id="Icon" xmlns="http://www.w3.org/2000/svg" viewBox="0 0 36 36"><title>Icon-Red_Hat-IT_Optimization-A-Black-RGB</title><path d="M33,26.76H3a.75.75,0,0,0,0,1.5H33a.75.75,0,0,0,0-1.5Z"/><path d="M6,25.24H30a.75.75,0,0,0,.75-.75v-16A.76.76,0,0,0,30,7.74H21a.75.75,0,0,0,0,1.5h8.25v14.5H6.75V9.24H15a.75.75,0,0,0,0-1.5H6a.76.76,0,0,0-.75.75v16A.75.75,0,0,0,6,25.24Z"/><path d="M18,9.24a.75.75,0,0,0,.75-.75A.75.75,0,0,0,17.47,8a.6.6,0,0,0-.16.25.67.67,0,0,0-.06.28.75.75,0,0,0,.75.75Z"/><path d="M15.25,13.25l0,5.24H13.75V15.24a.75.75,0,0,0-1.5,0v3.25h-1.5V17.24a.75.75,0,0,0-1.5,0v1.25H9A.75.75,0,0,0,9,20h8a.75.75,0,0,0,0-1.5h-.22l0-5.25a.76.76,0,0,0-.75-.75h0A.76.76,0,0,0,15.25,13.25Z"/><path d="M20.81,15.71a.75.75,0,1,0,0,1.5H21a3.33,3.33,0,0,0,.36.87l-.1.1a.74.74,0,0,0,0,1.06.73.73,0,0,0,.53.22.74.74,0,0,0,.53-.22l.1-.1a3.33,3.33,0,0,0,.87.36v.14a.75.75,0,0,0,1.5,0V19.5a3.33,3.33,0,0,0,.87-.36l.1.1a.74.74,0,0,0,.53.22.73.73,0,0,0,.53-.22.74.74,0,0,0,0-1.06l-.1-.1a3.33,3.33,0,0,0,.36-.87h.15a.75.75,0,1,0,0-1.5H27a3.33,3.33,0,0,0-.36-.87l.1-.1a.75.75,0,0,0-1.06-1.06l-.1.1a3.33,3.33,0,0,0-.87-.36v-.15a.75.75,0,1,0-1.5,0v.15a3.33,3.33,0,0,0-.87.36l-.1-.1a.75.75,0,0,0-1.06,1.06l.1.1a3.33,3.33,0,0,0-.36.87ZM24,14.82a1.64,1.64,0,1,1-1.64,1.64A1.64,1.64,0,0,1,24,14.82Z"/></svg>