<svg id="b08a093d-aa9d-43bb-8670-23f1243abce6" data-name="Layer 1" xmlns="http://www.w3.org/2000/svg" viewBox="0 0 36 36">
  <title>Icon-Red_Hat-Sun-A-Black-RGB</title>
  <g>
    <path d="M22.959,13.041A7.006,7.006,0,1,0,25.016,18,6.995,6.995,0,0,0,22.959,13.041ZM21.9,21.9A5.509,5.509,0,1,1,23.516,18,5.5,5.5,0,0,1,21.9,21.9Z"/>
    <path d="M18,9.351a.751.751,0,0,0,.75-.75V6.512a.75.75,0,1,0-1.5,0V8.6a.751.751,0,0,0,.75.75Z"/>
    <path d="M18,26.649a.751.751,0,0,0-.75.75v2.089a.75.75,0,1,0,1.5,0V27.4a.751.751,0,0,0-.75-.75Z"/>
    <path d="M9.351,18a.751.751,0,0,0-.75-.75H6.512a.75.75,0,1,0,0,1.5H8.6a.751.751,0,0,0,.75-.75Z"/>
    <path d="M30.019,17.47a.749.749,0,0,0-.531-.22H27.4a.75.75,0,0,0,0,1.5h2.089a.75.75,0,0,0,.531-1.28Z"/>
    <path d="M24.364,12.049a.753.753,0,0,0,.565,0,.758.758,0,0,0,.248-.165l.738-.739.739-.738a.75.75,0,1,0-1.061-1.061l-.738.739-.739.738a.751.751,0,0,0,.248,1.226Z"/>
    <path d="M11.354,23.9a.748.748,0,0,0-.531.22l-.738.738-.739.739a.75.75,0,1,0,1.061,1.06l.738-.738.739-.739a.75.75,0,0,0-.53-1.28Z"/>
    <path d="M10.085,11.145l.738.739a.758.758,0,0,0,.248.165.753.753,0,0,0,.565,0,.75.75,0,0,0,.248-1.226l-.739-.738-.738-.739a.75.75,0,1,0-1.061,1.061Z"/>
    <path d="M25.915,24.854l-.738-.738a.75.75,0,1,0-1.061,1.06l.739.739.738.738a.751.751,0,0,0,.813.165.749.749,0,0,0,.248-1.225Z"/>
  </g>
</svg>
