<svg id="Icon" xmlns="http://www.w3.org/2000/svg" viewBox="0 0 36 36"><title>Icon-Red_Hat-Rocketship-A-Black-RGB</title><path d="M18,11a.76.76,0,0,0-.75.75v2a.75.75,0,0,0,1.5,0v-2A.76.76,0,0,0,18,11Z"/><path d="M27.36,21a17.54,17.54,0,0,1-5.61-8.8v-.42C21.75,10.07,20.42,5,18,5s-3.75,5.07-3.75,6.75v.42A17.54,17.54,0,0,1,8.64,21a3.76,3.76,0,0,0-1.39,3v1.83A.76.76,0,0,0,8,26.5h6.25v.25a.76.76,0,0,0,.75.75h.71l-1.36,2.38a.77.77,0,0,0,0,.75A.76.76,0,0,0,15,31h6a.76.76,0,0,0,.65-.37.77.77,0,0,0,0-.75L20.29,27.5H21a.76.76,0,0,0,.75-.75V26.5H28a.76.76,0,0,0,.75-.75V23.92A3.76,3.76,0,0,0,27.36,21ZM14.25,25H8.75V23.92a2.25,2.25,0,0,1,.83-1.78,18,18,0,0,0,4.67-5.91Zm2,4.5,1.15-2h1.12l1.15,2Zm4-3.75V26h-4.5V11.75C15.75,10,17.12,6.5,18,6.5s2.25,3.49,2.25,5.25Zm7-.75h-5.5V16.23a18,18,0,0,0,4.67,5.91,2.25,2.25,0,0,1,.83,1.78Z"/></svg>