<svg id="b8f8f2ac-c1ef-4761-abe4-9e60a1bea743" data-name="Layer 1" xmlns="http://www.w3.org/2000/svg" viewBox="0 0 36 36">
  <title>Icon-Red_Hat-Virtual_server-A-Black-RGB</title>
  <g>
    <path d="M8,14.75a.751.751,0,0,0-.75.75v5a.751.751,0,0,0,.75.75H28a.751.751,0,0,0,.75-.75v-5a.751.751,0,0,0-.75-.75H8ZM27.25,18v1.75H8.75v-3.5h18.5Z"/>
    <path d="M31.53,22.97a.774.774,0,0,0-1.06,0,.741.741,0,0,0-.22.53.7.7,0,0,0,.015.145.888.888,0,0,0,.045.145.817.817,0,0,0,.069.127.693.693,0,0,0,.091.113.751.751,0,0,0,1.06,0,.693.693,0,0,0,.091-.113.911.911,0,0,0,.069-.127.888.888,0,0,0,.045-.145.7.7,0,0,0,.015-.145.753.753,0,0,0-.22-.53Z"/>
    <path d="M18,22.75a.755.755,0,1,0,.529.221A.748.748,0,0,0,18,22.75Z"/>
    <path d="M20.6,22.75a.756.756,0,1,0,.528.221A.749.749,0,0,0,20.6,22.75Z"/>
    <path d="M28.4,22.75a.755.755,0,1,0,.529.221A.749.749,0,0,0,28.4,22.75Z"/>
    <path d="M12.8,22.75a.755.755,0,1,0,.529.221A.749.749,0,0,0,12.8,22.75Z"/>
    <path d="M7.6,22.75a.756.756,0,1,0,.528.221A.749.749,0,0,0,7.6,22.75Z"/>
    <path d="M25.8,22.75a.755.755,0,1,0,.529.221A.749.749,0,0,0,25.8,22.75Z"/>
    <path d="M10.2,22.75a.755.755,0,1,0,.529.221A.749.749,0,0,0,10.2,22.75Z"/>
    <path d="M15.4,22.75a.755.755,0,1,0,.529.221A.749.749,0,0,0,15.4,22.75Z"/>
    <path d="M23.2,22.75a.755.755,0,1,0,.529.221A.748.748,0,0,0,23.2,22.75Z"/>
    <path d="M5.53,22.97a.754.754,0,0,0-.384-.2.736.736,0,0,0-.436.044.827.827,0,0,0-.128.069.687.687,0,0,0-.112.091.741.741,0,0,0-.22.53.729.729,0,0,0,.015.148.691.691,0,0,0,.045.142.817.817,0,0,0,.069.127.693.693,0,0,0,.091.113.84.84,0,0,0,.112.095.532.532,0,0,0,.128.065.859.859,0,0,0,.145.045A.693.693,0,0,0,5,24.25a.736.736,0,0,0,.287-.058.745.745,0,0,0,.243-.162.693.693,0,0,0,.091-.113.911.911,0,0,0,.069-.127.888.888,0,0,0,.045-.145A.7.7,0,0,0,5.75,23.5a.753.753,0,0,0-.22-.53Z"/>
    <path d="M5,14.5a.749.749,0,1,0,.532.221A.748.748,0,0,0,5,14.5Z"/>
    <path d="M5,20a.749.749,0,1,0,.532.221A.748.748,0,0,0,5,20Z"/>
    <path d="M5,17.25a.743.743,0,1,0,.532.217A.748.748,0,0,0,5,17.25Z"/>
    <path d="M5.53,11.97a.693.693,0,0,0-.113-.091.817.817,0,0,0-.127-.069.731.731,0,0,0-.58,0,.827.827,0,0,0-.128.069.687.687,0,0,0-.112.091.748.748,0,0,0,0,1.06.687.687,0,0,0,.112.091.922.922,0,0,0,.128.069.859.859,0,0,0,.145.045A.693.693,0,0,0,5,13.25a.729.729,0,0,0,.148-.015.691.691,0,0,0,.142-.045.911.911,0,0,0,.127-.069.693.693,0,0,0,.113-.091.745.745,0,0,0,.162-.243.749.749,0,0,0-.162-.817Z"/>
    <path d="M18,13.25a.748.748,0,1,0-.533-.221A.745.745,0,0,0,18,13.25Z"/>
    <path d="M10.2,13.25a.748.748,0,1,0-.533-.221A.751.751,0,0,0,10.2,13.25Z"/>
    <path d="M20.6,13.25a.755.755,0,1,0-.529-.221A.746.746,0,0,0,20.6,13.25Z"/>
    <path d="M12.8,13.25a.755.755,0,1,0-.529-.221A.751.751,0,0,0,12.8,13.25Z"/>
    <path d="M15.4,13.25a.755.755,0,1,0-.529-.221A.751.751,0,0,0,15.4,13.25Z"/>
    <path d="M7.6,13.25a.755.755,0,1,0-.529-.221A.746.746,0,0,0,7.6,13.25Z"/>
    <path d="M28.4,11.75a.755.755,0,1,0,.529.221A.749.749,0,0,0,28.4,11.75Z"/>
    <path d="M23.2,13.25a.748.748,0,1,0-.533-.221A.751.751,0,0,0,23.2,13.25Z"/>
    <path d="M25.8,13.25a.755.755,0,1,0-.529-.221A.751.751,0,0,0,25.8,13.25Z"/>
    <path d="M30.47,13.03a.687.687,0,0,0,.112.091.922.922,0,0,0,.128.069.859.859,0,0,0,.145.045A.693.693,0,0,0,31,13.25a.7.7,0,0,0,.145-.015.888.888,0,0,0,.145-.045.911.911,0,0,0,.127-.069.693.693,0,0,0,.113-.091.745.745,0,0,0,.162-.243.749.749,0,0,0-.162-.817.693.693,0,0,0-.113-.091.817.817,0,0,0-.127-.069.731.731,0,0,0-.58,0,.827.827,0,0,0-.128.069.687.687,0,0,0-.112.091.748.748,0,0,0,0,1.06Z"/>
    <path d="M31,14.5a.749.749,0,1,0,.532.221A.749.749,0,0,0,31,14.5Z"/>
    <path d="M31,20a.743.743,0,1,0,.532.217A.749.749,0,0,0,31,20Z"/>
    <path d="M31,17.25a.743.743,0,1,0,.532.217A.749.749,0,0,0,31,17.25Z"/>
    <path d="M24.77,18.53a.662.662,0,0,0,.239.162.759.759,0,0,0,.291.058.736.736,0,0,0,.287-.058.745.745,0,0,0,.405-.405A.736.736,0,0,0,26.05,18a.693.693,0,0,0-.015-.145.859.859,0,0,0-.045-.145.922.922,0,0,0-.069-.128.687.687,0,0,0-.091-.112.774.774,0,0,0-1.06,0,.939.939,0,0,0-.1.112.77.77,0,0,0-.073.128,1.18,1.18,0,0,0-.036.145A.767.767,0,0,0,24.55,18a.753.753,0,0,0,.057.287A.764.764,0,0,0,24.77,18.53Z"/>
    <path d="M13.449,17.25h-3a.75.75,0,0,0,0,1.5h3a.75.75,0,0,0,0-1.5Z"/>
  </g>
</svg>
