<svg id="Layer_1" data-name="Layer 1" xmlns="http://www.w3.org/2000/svg" viewBox="0 0 36 36"><title>Icon-Red_Hat-Mobile_Associate-A-Black-RGB</title><path d="M18.37,29.66a.76.76,0,0,0-.81.16.6.6,0,0,0-.16.25.67.67,0,0,0-.06.28.73.73,0,0,0,.22.53.75.75,0,0,0,1.28-.53.77.77,0,0,0-.22-.53A.72.72,0,0,0,18.37,29.66Z"/><path d="M24.62,29.82a.72.72,0,0,0-.25-.16.76.76,0,0,0-.81.16.77.77,0,0,0-.22.53.75.75,0,0,0,1.5,0,.67.67,0,0,0-.06-.28A.72.72,0,0,0,24.62,29.82Z"/><path d="M12.62,29.82a.77.77,0,0,0-.82-.16.67.67,0,0,0-.24.16.77.77,0,0,0-.22.53.75.75,0,0,0,1.5,0,.67.67,0,0,0-.06-.28A.72.72,0,0,0,12.62,29.82Z"/><path d="M23.19,21.61,24.83,8.45a.74.74,0,0,0-.18-.59.76.76,0,0,0-.56-.26h-12a.77.77,0,0,0-.75.85L13,21.61a2.75,2.75,0,0,0-2.65,2.74.74.74,0,0,0,.75.75h6.25v2.55H12.09a.75.75,0,1,0,0,1.5h12a.75.75,0,0,0,0-1.5H18.84V25.1h6.25a.75.75,0,0,0,.75-.75A2.75,2.75,0,0,0,23.19,21.61ZM12.94,9.1h10.3L21.68,21.6H14.5Zm10,14.5H12.09a1.26,1.26,0,0,1,1-.5h10a1.26,1.26,0,0,1,1,.5Z"/><path d="M15.09,7.1h6a.75.75,0,0,0,0-1.5h-6a.75.75,0,0,0,0,1.5Z"/><path d="M25.09,17.6a.75.75,0,0,0-.75.75v2a.75.75,0,0,0,1.5,0v-2A.76.76,0,0,0,25.09,17.6Z"/><path d="M11.09,21.1a.75.75,0,0,0,.75-.75v-2a.75.75,0,0,0-1.5,0v2A.74.74,0,0,0,11.09,21.1Z"/></svg>