<svg id="Icons" xmlns="http://www.w3.org/2000/svg" viewBox="0 0 36 36"><title>Icon-Red_Hat-Objects-Phone_Mobile-A-Black-RGB</title><path d="M11,5.27a.74.74,0,0,0-.75.75V30a.75.75,0,0,0,.75.75H25a.76.76,0,0,0,.75-.75V6A.75.75,0,0,0,25,5.27Zm13.25,24H11.75V6.77h12.5Z"/><path d="M16,27.77h4a.75.75,0,0,0,0-1.5H16a.75.75,0,1,0,0,1.5Z"/><path d="M17.47,9.55a.75.75,0,0,0,1.06,0,.82.82,0,0,0,.16-.25A.67.67,0,0,0,18.75,9a.77.77,0,0,0-.22-.54.8.8,0,0,0-.82-.16,1,1,0,0,0-.24.16.77.77,0,0,0-.22.54.82.82,0,0,0,.22.53Z"/></svg>