<svg id="fa0e4e57-f733-4009-8521-503ae38593c4" data-name="Layer 1" xmlns="http://www.w3.org/2000/svg" viewBox="0 0 36 36">
  <title>Icon-Red_Hat-Orchestration-A-Black-RGB</title>
  <g>
    <path d="M29.809,20.273a.749.749,0,0,0-.913.54,11.231,11.231,0,0,1-8.905,8.257l.539-.54a.75.75,0,1,0-1.06-1.06l-1,1-1,1c-.007.007-.009.016-.016.023a.738.738,0,0,0-.147.22v0l-.005.02a.759.759,0,0,0-.045.236A.23.23,0,0,0,17.25,30c0,.017.008.032.009.049,0,.032,0,.065,0,.1a.9.9,0,0,0,.031.087c.009.025.016.051.027.075a.719.719,0,0,0,.148.222l1,1,1,1a.75.75,0,1,0,1.06-1.06l-.416-.417-.416-.416a12.743,12.743,0,0,0,10.651-9.45.752.752,0,0,0-.54-.914Z"/>
    <path d="M6.191,15.727a.773.773,0,0,0,.094.017.726.726,0,0,0,.093.006.75.75,0,0,0,.456-.155.74.74,0,0,0,.27-.408A11.231,11.231,0,0,1,16.009,6.93l-.539.54a.75.75,0,1,0,1.06,1.06l1-1,1-1c.007-.007.009-.016.016-.023a.738.738,0,0,0,.147-.22v0l.005-.02a.759.759,0,0,0,.045-.236A.23.23,0,0,0,18.75,6c0-.017-.008-.032-.009-.049s0-.065,0-.1a.9.9,0,0,0-.031-.087c-.009-.025-.016-.051-.027-.075a.719.719,0,0,0-.148-.222l-1-1-1-1a.75.75,0,1,0-1.06,1.06l.416.417.416.416a12.743,12.743,0,0,0-10.651,9.45.752.752,0,0,0,.54.914Z"/>
    <path d="M15.187,28.9A11.231,11.231,0,0,1,6.93,19.991l.54.539a.75.75,0,1,0,1.06-1.06l-1-1-1-1c-.007-.007-.016-.009-.023-.016a.738.738,0,0,0-.22-.147h0l-.019,0a.751.751,0,0,0-.238-.047c-.009,0-.018,0-.027,0s-.031.008-.047.009a.821.821,0,0,0-.1,0,.728.728,0,0,0-.089.032.618.618,0,0,0-.072.026.735.735,0,0,0-.223.148l-1,1-1,1a.75.75,0,1,0,1.06,1.06l.417-.416.416-.416a12.743,12.743,0,0,0,9.45,10.651.619.619,0,0,0,.094.017.726.726,0,0,0,.093.006.75.75,0,0,0,.187-1.476Z"/>
    <path d="M32.53,15.47a.748.748,0,0,0-1.06,0l-.417.416-.416.416a12.743,12.743,0,0,0-9.45-10.651A.75.75,0,1,0,20.813,7.1a11.231,11.231,0,0,1,8.257,8.905l-.54-.539a.75.75,0,1,0-1.06,1.06l1,1,1,1c.007.007.016.009.023.016a.738.738,0,0,0,.22.147h.011A.707.707,0,0,0,30,18.75a.741.741,0,0,0,.282-.055h0a.742.742,0,0,0,.246-.164l1-1,1-1a.748.748,0,0,0,0-1.06Z"/>
    <path d="M22.471,14.278a.75.75,0,0,0-1.28-.53l-.452.452a4.668,4.668,0,0,0-1.989-.821v-.642a.75.75,0,0,0-1.5,0v.642a4.668,4.668,0,0,0-1.989.821l-.452-.452a.75.75,0,1,0-1.06,1.061l.452.452a4.648,4.648,0,0,0-.823,1.989h-.641a.75.75,0,0,0,0,1.5h.641a4.648,4.648,0,0,0,.823,1.989l-.452.452a.748.748,0,0,0,0,1.06.728.728,0,0,0,.248.165.75.75,0,0,0,.564,0,.732.732,0,0,0,.249-.165l.451-.451a4.668,4.668,0,0,0,1.989.821v.641a.75.75,0,0,0,1.5,0v-.641a4.668,4.668,0,0,0,1.989-.821l.451.451a.732.732,0,0,0,.249.165.75.75,0,0,0,.564,0,.728.728,0,0,0,.248-.165.748.748,0,0,0,0-1.06l-.452-.452a4.646,4.646,0,0,0,.822-1.989h.641a.75.75,0,0,0,0-1.5h-.641a4.646,4.646,0,0,0-.822-1.989l.452-.452A.748.748,0,0,0,22.471,14.278ZM21.1,18.75a3.4,3.4,0,0,1-.839,1.509,3.218,3.218,0,0,1-.6.461,3.2,3.2,0,0,1-3.919-4.979,3.251,3.251,0,0,1,.6-.461,3.168,3.168,0,0,1,3.318,0,3.251,3.251,0,0,1,.6.461,3.217,3.217,0,0,1,.46.6A3.06,3.06,0,0,1,21.1,18.75Z"/>
  </g>
</svg>
