<svg id="af6e71b9-ca13-47fc-86e1-749f34d5db36" data-name="Layer 1" xmlns="http://www.w3.org/2000/svg" viewBox="0 0 36 36">
  <title>Icon-Red_Hat-Gift_box-A-Black-RGB</title>
  <path d="M29.53,14.188a.745.745,0,0,0-.53-.22H22.62l1.259-.42a.644.644,0,0,0,.061-.024.654.654,0,0,0,.059-.03,3.877,3.877,0,0,0,.751-.359,3.591,3.591,0,0,0,.638-.507h0a3.747,3.747,0,0,0-5.3-5.3,3.671,3.671,0,0,0-.494.618,3.81,3.81,0,0,0-.354.722c-.013.022-.024.044-.035.067s-.019.047-.027.071l-.945,2.836-.234.7-.042-.128L17.2,9.956c-.007-.02-.015-.039-.023-.059s-.018-.038-.029-.057a3.231,3.231,0,0,0-.3-.623,3.035,3.035,0,0,0-.422-.529,3.153,3.153,0,1,0-4.46,4.458,3.025,3.025,0,0,0,.515.414,3.193,3.193,0,0,0,.606.3c.019.011.04.021.06.03s.042.017.064.024l.164.055H7a.751.751,0,0,0-.75.75v4.4a.751.751,0,0,0,.75.75H8.45v9.15a.749.749,0,0,0,.749.75H26.8a.751.751,0,0,0,.75-.75v-9.15H29a.751.751,0,0,0,.75-.75v-4.4A.745.745,0,0,0,29.53,14.188Zm-14.28,7.68v6.4H9.95v-8.4h5.3Zm0-3.5H7.75v-2.9h7.5Zm.055-5.339-1.509-.5-.057-.027c-.02-.009-.04-.016-.06-.023a1.739,1.739,0,0,1-.355-.161,1.529,1.529,0,0,1-.293-.229,1.653,1.653,0,1,1,2.337-2.338,1.52,1.52,0,0,1,.232.3,1.711,1.711,0,0,1,.163.366c.007.02.014.04.023.06a.645.645,0,0,0,.029.059l.5,1.5.5,1.5Zm3.945,6.089v9.15h-2.5v-12.8h2.5Zm-.064-5.587.688-2.064L20.562,9.4c.011-.02.022-.042.032-.064s.018-.045.026-.068a2.278,2.278,0,0,1,.218-.48,2.113,2.113,0,0,1,.312-.4,2.247,2.247,0,0,1,3.178,3.177,2.089,2.089,0,0,1-.409.317,2.365,2.365,0,0,1-.5.221q-.032.011-.063.024c-.021.01-.042.02-.062.031l-2.057.686ZM26.05,23.693v4.575h-5.3v-8.4h5.3Zm2.2-6.775v1.45h-7.5v-2.9h7.5Z"/>
</svg>
