<svg id="b644daba-c1b2-4dde-8238-cd950b460192" data-name="Layer 1" xmlns="http://www.w3.org/2000/svg" viewBox="0 0 36 36">
  <title>Icon-Red_Hat-Heart-A-Black-RGB</title>
  <path d="M31.238,10.458A8.451,8.451,0,0,0,18,7.234,8.439,8.439,0,0,0,6.6,19.656l5.437,5.437L17.47,30.53a.748.748,0,0,0,1.06,0l5.437-5.437L29.4,19.656a8.458,8.458,0,0,0,1.834-9.2Zm-1.387,5.888a6.937,6.937,0,0,1-1.507,2.25l-5.172,5.172L18,28.939l-5.172-5.171L7.656,18.6A6.94,6.94,0,0,1,17.47,8.782a.748.748,0,0,0,1.06,0,6.943,6.943,0,0,1,11.321,7.564Z"/>
</svg>
