<svg id="Layer_1" data-name="Layer 1" xmlns="http://www.w3.org/2000/svg" viewBox="0 0 36 36"><title>Icon-Red_Hat-Hardware-Server_Unsecured-A-Black-RGB</title><path d="M23.21,21H3.52v-5.5H30v.25a.75.75,0,0,0,1.5,0v-1a.75.75,0,0,0-.75-.75h-28a.74.74,0,0,0-.75.75v7a.75.75,0,0,0,.75.75H23.21a.75.75,0,0,0,0-1.5Z"/><path d="M5.77,18a.75.75,0,0,0,0,1.5h4a.75.75,0,0,0,0-1.5Z"/><path d="M25.39,22.39a3.76,3.76,0,0,0,3.75,3.75A4,4,0,0,0,30.23,26l-4.84-4.84Z"/><path d="M33.37,24.85,32.52,24a3.76,3.76,0,0,0,.37-1.6v-3a.74.74,0,0,0-.51-.71l-3-1a.66.66,0,0,0-.48,0l-2,.67-.76-.75a.74.74,0,0,0-1.06,0,.75.75,0,0,0,0,1.06l6.53,6.54h0l.71.71a.74.74,0,0,0,.53.22.71.71,0,0,0,.53-.22A.74.74,0,0,0,33.37,24.85Z"/></svg>