<svg id="e3a4dd23-8aef-4703-8ad6-224aa0d6be9b" data-name="Layer 1" xmlns="http://www.w3.org/2000/svg" viewBox="0 0 36 36">
  <title>Icon-Red_Hat-Lifecycle-A-Black-RGB</title>
  <g>
    <path d="M17.936,8.312a9.11,9.11,0,0,1,6.64,2.833l-.6-.026-1.537-.069a.7.7,0,0,0-.538.19.764.764,0,0,0-.245.526.748.748,0,0,0,.716.782l1.912.086,1.912.085h.034l.01,0a.766.766,0,0,0,.206-.03c.012,0,.023-.013.036-.018a.85.85,0,0,0,.081-.038.678.678,0,0,0,.086-.041c.017-.011.026-.029.041-.042a.557.557,0,0,0,.057-.037.722.722,0,0,0,.056-.077.582.582,0,0,0,.129-.238.886.886,0,0,0,.034-.085.542.542,0,0,0,0-.057c0-.018.012-.033.013-.052l.085-1.912.085-1.912a.748.748,0,0,0-.715-.783.7.7,0,0,0-.545.189.77.77,0,0,0-.238.527l-.068,1.537-.017.366a10.532,10.532,0,0,0-9.943-2.931,3.252,3.252,0,1,0-2.691,5.069h0A3.244,3.244,0,0,0,16.181,8.9a3.038,3.038,0,0,0-.041-.395A9.23,9.23,0,0,1,17.936,8.312Zm-3.257.605a1.729,1.729,0,0,1-.13.656,1.744,1.744,0,0,1-1.617,1.08h0a1.736,1.736,0,0,1-1.236-.511A1.736,1.736,0,0,1,11.181,8.9a1.74,1.74,0,0,1,.511-1.237,1.738,1.738,0,0,1,1.237-.514,1.735,1.735,0,0,1,1.1.4c.045.037.093.069.134.11A1.749,1.749,0,0,1,14.681,8.9Z"/>
    <path d="M30.233,15.264a3.248,3.248,0,1,0-3.565,5.289,9.075,9.075,0,0,1-6.5,5.966l.325-.508.828-1.3a.75.75,0,0,0-1.265-.807l-1.03,1.614L18,27.134a.777.777,0,0,0-.031.08.749.749,0,0,0-.054.14.723.723,0,0,0-.02.155.746.746,0,0,0-.01.081.5.5,0,0,0,.014.052.561.561,0,0,0,0,.058c.007.029.026.054.036.083a.611.611,0,0,0,.135.235c.019.022.03.049.051.069s.041.023.06.037.028.034.047.046L19.845,29.2l1.614,1.03a.742.742,0,0,0,.4.118.75.75,0,0,0,.733-.912.753.753,0,0,0-.329-.471l-1.3-.828-.309-.2a10.518,10.518,0,0,0,7.51-7.153,3.237,3.237,0,0,0,2.064-5.523ZM29.172,18.8a1.745,1.745,0,1,1,.514-1.237A1.731,1.731,0,0,1,29.172,18.8Z"/>
    <path d="M13.771,23.081a3.245,3.245,0,0,0-2.466.32,3.3,3.3,0,0,0-.322.232,9.09,9.09,0,0,1-1.91-8.665l.275.536.7,1.37a.749.749,0,0,0,.668.408.792.792,0,0,0,.173-.02.779.779,0,0,0,.168-.063.75.75,0,0,0,.326-1.009l-.873-1.7-.873-1.7a.5.5,0,0,0-.054-.068.685.685,0,0,0-.091-.116c-.014-.014-.022-.033-.037-.046a.82.82,0,0,0-.082-.046.748.748,0,0,0-.071-.055c-.017-.008-.036-.007-.053-.014s-.031-.021-.049-.027a.746.746,0,0,0-.1-.011.737.737,0,0,0-.147-.017.412.412,0,0,0-.048,0,.587.587,0,0,0-.082.023.638.638,0,0,0-.1.013c-.018.006-.032.021-.05.029s-.035.006-.052.014l-1.7.873-1.7.873a.752.752,0,0,0-.325,1.01.751.751,0,0,0,1.01.325l1.369-.7.326-.167a10.548,10.548,0,0,0,2.406,10.125,3.245,3.245,0,0,0,1.318,4.25,3.246,3.246,0,0,0,3.225-.011,3.248,3.248,0,0,0-.78-5.952Zm.845,3.59a1.744,1.744,0,0,1-3.406-.735,1.687,1.687,0,0,1,.029-.173,1.742,1.742,0,0,1,.815-1.062l.013,0a1.745,1.745,0,0,1,1.723,0,1.746,1.746,0,0,1,.826,1.976Z"/>
  </g>
</svg>
