<svg id="e106240a-06ab-4581-bf79-10f22ac255c7" data-name="Layer 1" xmlns="http://www.w3.org/2000/svg" viewBox="0 0 36 36">
  <title>Icon-Red_Hat-Mug-A-Black-RGB</title>
  <g>
    <path d="M25.311,25.605H8.6a.75.75,0,1,0,0,1.5h16.71a.75.75,0,0,0,0-1.5Z"/>
    <path d="M26.7,12.429a4.911,4.911,0,0,0-2.732-1.369V9.645a.751.751,0,0,0-.75-.75H10.688a.751.751,0,0,0-.75.75V23.221a.751.751,0,0,0,.75.75H23.222a.751.751,0,0,0,.75-.75V20.763A4.91,4.91,0,0,0,26.7,12.429Zm-4.232-.7V22.471H11.438V10.4H22.472Zm3.172,6.6a3.429,3.429,0,0,1-1.672.917V12.573a3.42,3.42,0,0,1,1.672,5.76Z"/>
  </g>
</svg>
