<svg id="Icons" xmlns="http://www.w3.org/2000/svg" viewBox="0 0 36 36"><title>Icon-Red_Hat-Documents-Paper_Lined-A-Black-RGB</title><path d="M26.75,29V7A.75.75,0,0,0,26,6.27H14a.63.63,0,0,0-.19,0l-.07,0a.66.66,0,0,0-.22.15l-4,4a.86.86,0,0,0-.15.22.64.64,0,0,0,0,.07.58.58,0,0,0,0,.19s0,0,0,0V29a.76.76,0,0,0,.75.75H26A.76.76,0,0,0,26.75,29ZM13.25,8.83v1.44H11.81Zm12,19.44H10.75V11.77H14a.76.76,0,0,0,.75-.75V7.77h10.5Z"/><path d="M12.25,14a.76.76,0,0,0,.75.75h5a.75.75,0,0,0,0-1.5H13A.75.75,0,0,0,12.25,14Z"/><path d="M12.25,17a.76.76,0,0,0,.75.75H23a.75.75,0,0,0,0-1.5H13A.75.75,0,0,0,12.25,17Z"/><path d="M23,19.27H13a.75.75,0,1,0,0,1.5H23a.75.75,0,0,0,0-1.5Z"/><path d="M23,22.27H13a.75.75,0,1,0,0,1.5H23a.75.75,0,0,0,0-1.5Z"/></svg>