<svg id="b5304090-f023-446f-b99a-f44421898897" data-name="Layer 1" xmlns="http://www.w3.org/2000/svg" viewBox="0 0 36 36">
  <title>Icon-Red_Hat-Bank_safe-A-Black-RGB</title>
  <g>
    <path d="M15.679,13.82l-1.353-2.355a.75.75,0,1,0-1.3.747l1.358,2.362c-.111.092-.231.173-.333.275a4.5,4.5,0,0,0,0,6.376c.093.093.2.166.3.251l-1.384,2.3a.751.751,0,0,0,.642,1.138.75.75,0,0,0,.643-.363l1.388-2.3a4.479,4.479,0,0,0,6.032-3.461l2.717-.016a.749.749,0,0,0,.745-.755.782.782,0,0,0-.226-.542.649.649,0,0,0-.528-.2l-2.709.016a4.458,4.458,0,0,0-5.995-3.462Zm-.547,6.363c-.006-.006-.015-.011-.021-.018a3.006,3.006,0,0,1,0-4.256c.008-.008.018-.014.026-.022L16.4,18.081Zm4.235-.018a3,3,0,0,1-2.129.883,2.953,2.953,0,0,1-.8-.122l1.278-2.12,2.429-.015A3.009,3.009,0,0,1,19.367,20.165Zm.778-2.874-2.462.015-1.241-2.16a2.974,2.974,0,0,1,3.7,2.145Z"/>
    <path d="M29.509,6.47a.747.747,0,0,0-.53-.22H7.021a.751.751,0,0,0-.75.75V29a.751.751,0,0,0,.75.75H28.979a.751.751,0,0,0,.75-.75V7A.745.745,0,0,0,29.509,6.47ZM28.229,18V28.25H7.771V7.75H28.229Z"/>
    <path d="M23.47,11.53a.75.75,0,1,0,1.06-1.06A.756.756,0,0,0,24,10.26a.729.729,0,0,0-.526.21.748.748,0,0,0,0,1.06Z"/>
  </g>
</svg>
