<?xml version="1.0" encoding="utf-8"?>
<!-- Generator: Adobe Illustrator 24.2.1, SVG Export Plug-In . SVG Version: 6.00 Build 0)  -->
<svg version="1.1" id="b679dc14-d0d7-4498-a6d0-0c5a612b8222"
	 xmlns="http://www.w3.org/2000/svg" xmlns:xlink="http://www.w3.org/1999/xlink" x="0px" y="0px" viewBox="0 0 36 36"
	 style="enable-background:new 0 0 36 36;" xml:space="preserve">
<path d="M26.154,13.489c0-4.892-3.822-8.343-8.172-8.343c-4.582,0-8.136,3.999-8.136,7.508c0,0.29,0.227,0.749,0.751,0.749
	c0.383,0,0.711-0.293,0.746-0.682c0.323-3.532,3.275-6.073,6.63-6.073c3.55,0,6.682,2.832,6.682,6.841
	c0,3.095-1.638,5.571-4.079,7.474c-1.949,1.519-3.231,3.681-3.231,5.418c0,1.634-1.325,2.958-2.959,2.958
	c-1.633,0-2.959-1.324-2.959-2.958c0-0.414-0.336-0.75-0.75-0.75c-0.41,0-0.75,0.33-0.75,0.753c0,2.461,1.995,4.455,4.456,4.455
	c2.433,0,4.436-1.952,4.455-4.385c0.014-1.726,1.325-3.281,2.721-4.358C24.355,19.938,26.154,17.036,26.154,13.489z M14.134,20.041
	c-0.655-0.002-1.289,0.225-1.779,0.659c-0.413,0.413-0.625,0.978-0.615,1.562c0.007,0.414,0.336,0.75,0.75,0.75
	s0.75-0.336,0.75-0.75c-0.053-0.477,0.397-0.717,0.874-0.721c1.936-0.015,3.505-1.57,3.505-3.506c0-1.649-1.154-3.075-2.766-3.425
	v-1.18c0-1.714,1.384-3.103,3.098-3.103s3.103,1.389,3.103,3.103c0,0.414,0.336,0.75,0.75,0.75s0.75-0.336,0.75-0.75
	c-0.001-2.542-2.064-4.602-4.606-4.6c-2.542,0.002-4.594,2.064-4.592,4.606v1.85c0.004,0.412,0.346,0.743,0.758,0.744
	c1.108,0,2.005,0.899,2.004,2.007C16.117,19.135,15.232,20.044,14.134,20.041z"/>
</svg>
