<?xml version="1.0" encoding="UTF-8"?>
<svg id="uuid-231c7941-23d4-4fa3-b400-ab59c7b58ffd" data-name="Icon" xmlns="http://www.w3.org/2000/svg" viewBox="0 0 36 36">
  <path d="M23,24.38H5.62V11.62h3.38c.35,0,.62-.28,.62-.62v-3.38H28.38v6.38c0,.82,1.25,.82,1.25,0V7c0-.34-.28-.62-.62-.62H9s-.05,.01-.08,.02c-.03,0-.05,0-.08,.02-.11,.03-.2,.07-.28,.15h0l-4,4h0c-.07,.08-.12,.18-.15,.28,0,.03-.01,.05-.02,.08,0,.03-.02,.05-.02,.08v14c0,.34,.28,.62,.62,.62H23c.82,0,.82-1.25,0-1.25ZM8.38,8.51v1.87h-1.87l1.87-1.87Z"/>
  <path d="M31.62,20.11c0-2-1.63-3.62-3.62-3.62-3.13-.07-4.82,3.93-2.62,6.11v6.4c0,.25,.15,.48,.39,.58,.23,.1,.5,.04,.68-.13l1.56-1.56,1.56,1.56c.18,.18,.45,.23,.68,.13,.23-.1,.39-.32,.39-.58v-6.4c.62-.65,1-1.52,1-2.49Zm-3.62-2.38c3.13,.08,3.13,4.67,0,4.75-3.13-.08-3.13-4.67,0-4.75Zm.44,8.82c-.24-.24-.64-.24-.88,0l-.93,.93v-4.03c.84,.36,1.91,.36,2.75,0v4.03l-.93-.93Z"/>
  <path d="M19.62,18c0-.34-.28-.62-.62-.62H9c-.82,0-.82,1.25,0,1.25h10c.35,0,.62-.28,.62-.62Z"/>
  <path d="M9,20.38c-.82,0-.82,1.25,0,1.25h6c.82,0,.82-1.25,0-1.25h-6Z"/>
</svg>