<svg id="Icon" xmlns="http://www.w3.org/2000/svg" viewBox="0 0 36 36"><path d="M8.5,15h-1a2.25,2.25,0,0,0-2.25,2.25v5A2.25,2.25,0,0,0,7.5,24.53h1a2.25,2.25,0,0,0,2.25-2.25v-5A2.25,2.25,0,0,0,8.5,15Zm.75,7.25A.76.76,0,0,1,8.5,23h-1a.76.76,0,0,1-.75-.75v-5a.76.76,0,0,1,.75-.75h1a.76.76,0,0,1,.75.75Z"/><path d="M28.5,15h-1a2.25,2.25,0,0,0-2.25,2.25v5a2.24,2.24,0,0,0,2,2.22v1.28A2.25,2.25,0,0,1,25,28H20.63a2.75,2.75,0,1,0,0,1.5H25a3.75,3.75,0,0,0,3.75-3.75V24.5a2.24,2.24,0,0,0,2-2.22v-5A2.25,2.25,0,0,0,28.5,15ZM18,30a1.25,1.25,0,1,1,1.25-1.25A1.25,1.25,0,0,1,18,30Zm11.25-7.75a.76.76,0,0,1-.75.75h-1a.76.76,0,0,1-.75-.75v-5a.76.76,0,0,1,.75-.75h1a.76.76,0,0,1,.75.75Z"/><path d="M27.28,13.76a.75.75,0,1,0,1.44-.41,11.14,11.14,0,0,0-21.44,0,.76.76,0,0,0,.52.93.64.64,0,0,0,.2,0,.75.75,0,0,0,.72-.55,9.65,9.65,0,0,1,18.56,0Z"/></svg>