<svg id="f1b3f26f-cafd-491d-a784-2fd8059a0a54" data-name="Layer 1" xmlns="http://www.w3.org/2000/svg" viewBox="0 0 36 36">
  <title>Icon-Red_Hat-Hierarchy-A-Black-RGB</title>
  <path d="M30.3,23.7a3.244,3.244,0,0,0-1.547-.857V18a.751.751,0,0,0-.75-.75H18.75v-4.1a3.266,3.266,0,1,0-1.5,0v4.1H8a.751.751,0,0,0-.75.75v4.846a3.266,3.266,0,1,0,1.5,0v-4.1h8.5v4.1a3.266,3.266,0,1,0,1.5,0v-4.1h8.5v4.1A3.243,3.243,0,1,0,30.3,23.7Zm-21.06,1.06a1.76,1.76,0,1,1-1.873-.389,1.693,1.693,0,0,1,1.272,0A1.759,1.759,0,0,1,9.237,24.763Zm10,0a1.76,1.76,0,1,1-1.873-.389,1.693,1.693,0,0,1,1.272,0A1.759,1.759,0,0,1,19.237,24.763Zm-.6-13.137a1.693,1.693,0,0,1-1.272,0,1.76,1.76,0,1,1,1.272,0Zm10.6,15.611a1.749,1.749,0,1,1-1.873-2.863,1.693,1.693,0,0,1,1.272,0,1.745,1.745,0,0,1,.6,2.863Z"/>
</svg>
