<svg id="Icons" xmlns="http://www.w3.org/2000/svg" viewBox="0 0 36 36"><title>Icon-Red_Hat-Shapes-Cross-A-Black-RGB</title><path d="M28,14.47H21.55V8a.75.75,0,0,0-.75-.75H15.2a.75.75,0,0,0-.75.75v6.45H8a.75.75,0,0,0-.75.75v5.6a.76.76,0,0,0,.75.75h6.45V28a.76.76,0,0,0,.75.75h5.6a.76.76,0,0,0,.75-.75V21.57H28a.76.76,0,0,0,.75-.75v-5.6A.75.75,0,0,0,28,14.47Zm-.75,5.6H20.8a.75.75,0,0,0-.75.75v6.45H16V20.82a.75.75,0,0,0-.75-.75H8.75V16H15.2a.76.76,0,0,0,.75-.75V8.77h4.1v6.45a.76.76,0,0,0,.75.75h6.45Z"/></svg>