<svg id="Layer_1" data-name="Layer 1" xmlns="http://www.w3.org/2000/svg" viewBox="0 0 36 36"><title>Icon-Red_Hat-People_and_audiences-Handshake-A-Black-RGB</title><path d="M28.88,9.29a8.8,8.8,0,0,0-10-1.72c-.21.1-.42.23-.63.35A8.77,8.77,0,0,0,7.53,21.61a2.55,2.55,0,0,0,.72,2,2.5,2.5,0,0,0,1.79.74,2.51,2.51,0,0,0,.74,1.78,2.47,2.47,0,0,0,1.78.74,2.53,2.53,0,0,0,2.53,2.53,2.31,2.31,0,0,0,.69-.11,2.44,2.44,0,0,0,.68,1.26,2.53,2.53,0,0,0,3.58,0l8.84-8.83A8.8,8.8,0,0,0,28.88,9.29ZM8.68,10.35a7.29,7.29,0,0,1,10.3,0h0l4.1,4.1a1,1,0,1,1-1.46,1.46l-4.1-4.1a.75.75,0,0,0-1.06,0,3.82,3.82,0,0,1-5.28,0,.75.75,0,0,0-1.06,0,.74.74,0,0,0,0,1.06,5.18,5.18,0,0,0,3.7,1.54h0L8.25,20h0l-.06.08A7.29,7.29,0,0,1,8.68,10.35Zm19.14,10.3L19,29.48A1,1,0,0,1,17.52,28L20,25.49A.75.75,0,0,0,19,24.43l-3.15,3.16a1.05,1.05,0,0,1-1.47,0,1.05,1.05,0,0,1,0-1.47L17.52,23a.75.75,0,1,0-1.06-1.06L13.3,25.06h0a1,1,0,0,1-1.46-1.47L15,20.45a.75.75,0,1,0-1.06-1.07l-3.15,3.16a1.07,1.07,0,0,1-1.47,0,1,1,0,0,1,0-1.46h0L17,13.4,20.56,17a2.51,2.51,0,0,0,3.58,0,2.53,2.53,0,0,0,0-3.58L19.73,9l-.12-.08a7.28,7.28,0,0,1,8.21,11.76Z"/></svg>