<svg id="a3f5f65b-e7c8-420e-8868-5a107f70ce79" data-name="Layer 1" xmlns="http://www.w3.org/2000/svg" viewBox="0 0 36 36">
  <title>Icon-Red_Hat-Shoe-A-Black-RGB</title>
  <g>
    <path d="M28.794,17.129a4.912,4.912,0,0,0-3.483-1.445.75.75,0,1,0,0,1.5,3.433,3.433,0,0,1,3.428,3.428v.293h-.3a3.884,3.884,0,0,0-3.807,3.133H21.807a4.9,4.9,0,0,0-9.7,0H7.262V13.3a.817.817,0,0,1,1.633,0v0a3.876,3.876,0,0,0,7.652.884.724.724,0,0,0,.091-.334l0-.368c0-.064.019-.123.019-.187a.611.611,0,0,0-.017-.083l.006-.681.011-1.319a.749.749,0,0,0-.744-.756h-.006a.749.749,0,0,0-.75.744l-.011,1.319-.008.964A2.377,2.377,0,0,1,10.4,13.3V13.3a2.316,2.316,0,0,0-4.632.005V24.788a.749.749,0,0,0,.75.75H28.444a1.8,1.8,0,0,0,1.8-1.794V20.612A4.913,4.913,0,0,0,28.794,17.129ZM17.853,24.038H13.617a3.421,3.421,0,0,1,6.678,0Zm10.886-.294a.3.3,0,0,1-.3.294H26.193a2.351,2.351,0,0,1,2.25-1.633h.3Z"/>
    <path d="M22.178,17.184a.751.751,0,0,0,.75-.75V15.389a.75.75,0,1,0-1.5,0v1.045a.749.749,0,0,0,.75.75Z"/>
    <path d="M19.044,16.139a.749.749,0,0,0,.75-.75V13.3a.75.75,0,0,0-1.5,0v2.088a.751.751,0,0,0,.75.75Z"/>
  </g>
</svg>
