<?xml version="1.0" encoding="UTF-8"?>
<svg id="uuid-e7073085-c603-4d79-95be-89327afe0414" data-name="Icon" xmlns="http://www.w3.org/2000/svg" viewBox="0 0 36 36">
  <path d="M27.58,26.76c-.1-.23-.32-.39-.58-.39h-6c-.82,0-.82,1.25,0,1.25h4.49l-.93,.93c-.24,.24-.24,.64,0,.88l.93,.93h-5.49c-.76,0-1.38-.62-1.38-1.38,0-.34-.28-.62-.62-.62s-.62,.28-.62,.62c0,1.45,1.18,2.62,2.62,2.62h7c.25,0,.48-.15,.58-.39,.1-.23,.04-.5-.14-.68l-1.56-1.56,1.56-1.56c.18-.18,.23-.45,.14-.68Z"/>
  <path d="M17.76,27.58c.6,.28,1.18-.58,.68-1.02-.73-.67-1.57,.59-.68,1.02Z"/>
  <path d="M28.58,15.24c.06-.15,.06-.33,0-.48-.03-.06-.07-.12-.11-.17,0-.01-.01-.02-.02-.03L18.44,4.56s-.04-.02-.05-.04c-.05-.04-.09-.07-.15-.1-.15-.06-.33-.06-.48,0-.06,.02-.1,.06-.15,.1-.02,.01-.04,.02-.05,.04L7.56,14.56s-.01,.02-.02,.03c-.04,.05-.09,.11-.11,.17-.06,.15-.06,.33,0,.48,.03,.06,.07,.12,.11,.17,0,.01,.01,.02,.02,.03l10,10s.03,.02,.05,.03c.05,.04,.09,.08,.15,.1,.15,.06,.33,.06,.48,0,.06-.02,.1-.06,.15-.1,.02-.01,.04-.02,.05-.03l10-10s.01-.02,.02-.03c.04-.05,.09-.11,.11-.17Zm-11.2-.86h-7.87l7.87-7.87v7.87Zm-3,1.25v1.38c0,.82,1.25,.82,1.25,0v-1.38h1.75v7.87l-7.87-7.87h4.87Zm4.25,0h7.87l-7.87,7.87v-7.87Zm3-1.25v-1.38c0-.82-1.25-.82-1.25,0v1.38h-1.75V6.51l7.87,7.87h-4.87Z"/>
</svg>