<svg id="Icon" xmlns="http://www.w3.org/2000/svg" viewBox="0 0 36 36"><title>Icon-Red_Hat-Miscellaneous-Globe_abstract-A-Black</title><path d="M26.31,9.69A11.75,11.75,0,1,0,18,29.75h0a11.75,11.75,0,0,0,8.3-20.06Zm-1.06,1.06a10.22,10.22,0,0,1,2,2.82H22.51a16.47,16.47,0,0,0-2.8-5.66A10.18,10.18,0,0,1,25.25,10.75ZM21.33,20.9H14.67a15.25,15.25,0,0,1,0-5.83h6.64A15.25,15.25,0,0,1,21.33,20.9Zm-.39-7.33H15.06A15,15,0,0,1,18,8.18,15,15,0,0,1,20.94,13.57ZM10.75,10.75a10.18,10.18,0,0,1,5.54-2.84,16.47,16.47,0,0,0-2.8,5.66H8.77A10.22,10.22,0,0,1,10.75,10.75ZM8.23,21.09a10.34,10.34,0,0,1,0-6.18v.16h4.93a16.55,16.55,0,0,0,0,5.83H8.23Zm2.52,4.16a10.22,10.22,0,0,1-2-2.85h4.74a16.65,16.65,0,0,0,2.8,5.7A10.22,10.22,0,0,1,10.75,25.25ZM18,27.82a15.07,15.07,0,0,1-2.95-5.42H21A15.07,15.07,0,0,1,18,27.82Zm7.25-2.57a10.22,10.22,0,0,1-5.54,2.85,16.65,16.65,0,0,0,2.8-5.7h4.74A10.22,10.22,0,0,1,25.25,25.25Zm-2.4-4.35a16.55,16.55,0,0,0,0-5.83h4.95V15a10.36,10.36,0,0,1,0,6V20.9Z"/></svg>