<svg id="Icons" xmlns="http://www.w3.org/2000/svg" viewBox="0 0 36 36"><title>Icon-Red_Hat-Documents-Paper_Blank_Stack-A-Black-RGB</title><path d="M9.32,10.71a.64.64,0,0,0,0,.07.58.58,0,0,0,0,.19s0,0,0,0V27a.76.76,0,0,0,.75.75H25a.76.76,0,0,0,.75-.75V7A.75.75,0,0,0,25,6.27H14a.63.63,0,0,0-.19,0l-.07,0a.66.66,0,0,0-.22.15l-4,4A.86.86,0,0,0,9.32,10.71Zm3.93-1.88v1.44H11.81Zm-2.5,2.94H14a.76.76,0,0,0,.75-.75V7.77h9.5v18.5H10.75Z"/><path d="M28.75,9a.75.75,0,1,0-1.5,0V29.27H13a.75.75,0,1,0,0,1.5H28a.76.76,0,0,0,.75-.75Z"/></svg>