<svg id="bc68c383-ec4e-4fae-854d-5f142d3bfe34" data-name="Layer 1" xmlns="http://www.w3.org/2000/svg" viewBox="0 0 36 36">
  <title>Icon-Red_Hat-Objects-Tshirt-A-Black-RGB</title>
  <g>
    <path d="M25,14.75a.751.751,0,0,0-.75.75V28.75H11.75V15.5a.75.75,0,0,0-1.5,0v14a.751.751,0,0,0,.75.75H25a.751.751,0,0,0,.75-.75v-14a.751.751,0,0,0-.75-.75Z"/>
    <path d="M30.721,16.294l-1-3.5-1-3.5a.747.747,0,0,0-.144-.273.757.757,0,0,0-.242-.192l-3-1.5-3-1.5c-.007,0-.015,0-.022-.006a.714.714,0,0,0-.146-.039.721.721,0,0,0-.144-.029.189.189,0,0,0-.023,0H14c-.008,0-.014,0-.022,0a.863.863,0,0,0-.148.03.754.754,0,0,0-.143.039c-.007,0-.015,0-.022.006l-3,1.5-3,1.5a.757.757,0,0,0-.242.192.747.747,0,0,0-.144.273l-1,3.5-1,3.5a.749.749,0,0,0,.3.83l1.5,1,1.5,1a.75.75,0,0,0,.832-1.248l-1.272-.848L6.871,16.18l.88-3.078.88-3.079L11.483,8.6l1.92-.96a4.729,4.729,0,0,0,9.194,0l1.92.96,2.852,1.426.88,3.079.88,3.078-1.273.848-1.272.848a.75.75,0,1,0,.832,1.248l1.5-1,1.5-1a.749.749,0,0,0,.3-.83ZM20.029,9.037A3.252,3.252,0,0,1,14.837,7.25h6.326A3.255,3.255,0,0,1,20.029,9.037Z"/>
  </g>
</svg>
