<svg id="ac7b0fb6-607d-42be-807d-78b3dcd48331" data-name="virtual-server-unsecured" xmlns="http://www.w3.org/2000/svg" viewBox="0 0 36 36"><title>Icon-Red_Hat-Hardware-Virtual_Server-Unsecured-A-Black-RGB</title><path d="M14.4,11.75a.75.75,0,1,0-.75-.75A.76.76,0,0,0,14.4,11.75Zm2.6,0a.75.75,0,1,0-.75-.75A.76.76,0,0,0,17,11.75Zm-5.2,0a.75.75,0,1,0-.75-.75A.76.76,0,0,0,11.8,11.75ZM4.53,21.47a.75.75,0,0,0-1.22.24.75.75,0,0,0-.06.29.72.72,0,0,0,.06.29.63.63,0,0,0,.16.24.75.75,0,0,0,.53.22.72.72,0,0,0,.29-.06.74.74,0,0,0,.4-.4.73.73,0,0,0,0-.58A.63.63,0,0,0,4.53,21.47ZM9.2,11.75A.75.75,0,1,0,8.45,11,.76.76,0,0,0,9.2,11.75ZM4,18.5a.75.75,0,1,0,.75.75A.76.76,0,0,0,4,18.5Zm2.6-6.75A.75.75,0,1,0,5.85,11,.76.76,0,0,0,6.6,11.75Zm23.4,5a.75.75,0,0,0,.53-1.28.77.77,0,0,0-1.06,0A.75.75,0,0,0,30,16.75Zm-26-1a.75.75,0,1,0,.75.75A.76.76,0,0,0,4,15.75Zm26-1.5a.75.75,0,1,0-.75-.75A.76.76,0,0,0,30,14.25Zm-.29-2.56a.73.73,0,0,0,.58,0,.63.63,0,0,0,.24-.16.75.75,0,0,0,0-1.06.78.78,0,0,0-.24-.16.73.73,0,0,0-.58,0,.78.78,0,0,0-.24.16.75.75,0,0,0,0,1.06A.63.63,0,0,0,29.71,11.69Zm-4.91.06a.75.75,0,1,0-.75-.75A.76.76,0,0,0,24.8,11.75Zm-2.6,0a.75.75,0,1,0-.75-.75A.76.76,0,0,0,22.2,11.75Zm-2.6,0a.75.75,0,1,0-.75-.75A.76.76,0,0,0,19.6,11.75Zm7.8,0a.75.75,0,1,0-.75-.75A.76.76,0,0,0,27.4,11.75ZM19,21.25a.75.75,0,1,0,.75.75A.75.75,0,0,0,19,21.25Zm5-3H7.75v-3.5h18.5V16a.75.75,0,0,0,1.5,0V14a.76.76,0,0,0-.75-.75H7a.76.76,0,0,0-.75.75v5a.76.76,0,0,0,.75.75H24a.75.75,0,0,0,0-1.5ZM9.45,15.75a.75.75,0,0,0,0,1.5h3a.75.75,0,0,0,0-1.5Zm15.08,5.72a.75.75,0,0,0-1.22.24.75.75,0,0,0-.06.29.72.72,0,0,0,.06.29.74.74,0,0,0,.4.4.72.72,0,0,0,.29.06.75.75,0,0,0,.53-.22.63.63,0,0,0,.16-.24.72.72,0,0,0,.06-.29.75.75,0,0,0-.06-.29A.78.78,0,0,0,24.53,21.47Zm9.72,3.62-.86-.86a3.73,3.73,0,0,0,.38-1.6v-3a.75.75,0,0,0-.52-.71l-3-1a.76.76,0,0,0-.47,0l-2,.67L27,17.84a.75.75,0,0,0-1.06,0,.74.74,0,0,0,0,1.06l6.53,6.54h0l.72.71a.73.73,0,0,0,.53.22.74.74,0,0,0,.53-.22A.75.75,0,0,0,34.25,25.09ZM21.5,21.25a.75.75,0,0,0,0,1.5.75.75,0,0,0,0-1.5Zm4.77,1.38A3.75,3.75,0,0,0,30,26.38a3.49,3.49,0,0,0,1.08-.18l-4.83-4.84ZM23.77,16a.75.75,0,0,0,.53,1.28.77.77,0,0,0,.53-.22.75.75,0,0,0,0-1.06A.77.77,0,0,0,23.77,16ZM6.5,21.25a.75.75,0,1,0,.75.75A.75.75,0,0,0,6.5,21.25Zm10,0a.75.75,0,0,0,0,1.5.75.75,0,0,0,0-1.5ZM4,13a.75.75,0,1,0,.75.75A.75.75,0,0,0,4,13Zm-.53-2.53a.75.75,0,1,0,1.06,0A.77.77,0,0,0,3.47,10.47ZM9,21.25a.75.75,0,1,0,.75.75A.75.75,0,0,0,9,21.25Zm2.5,0a.75.75,0,1,0,.75.75A.75.75,0,0,0,11.5,21.25Zm2.5,0a.75.75,0,1,0,.75.75A.75.75,0,0,0,14,21.25Z"/></svg>