<?xml version="1.0" encoding="utf-8"?>
<!-- Generator: Adobe Illustrator 19.1.0, SVG Export Plug-In . SVG Version: 6.00 Build 0)  -->
<svg version="1.1" id="Layer_1" xmlns="http://www.w3.org/2000/svg" xmlns:xlink="http://www.w3.org/1999/xlink" x="0px" y="0px"
	 viewBox="0 0 32 32" enable-background="new 0 0 32 32" xml:space="preserve">
<g>
	<path fill="#010101" d="M7.443,13.774c-1.278,0-2.318-1.039-2.318-2.317S6.165,9.14,7.443,9.14S9.76,10.18,9.76,11.457
		S8.721,13.774,7.443,13.774z M7.443,9.733c-0.951,0-1.725,0.774-1.725,1.725c0,0.951,0.774,1.725,1.725,1.725
		s1.725-0.774,1.725-1.725C9.168,10.506,8.394,9.733,7.443,9.733z"/>
	<path fill="#010101" d="M27.508,24.301H14.074c-0.384,0-0.696-0.312-0.696-0.696v-6.804h0.593v6.804
		c0,0.057,0.047,0.104,0.104,0.104h13.434c0.057,0,0.104-0.047,0.104-0.104V8.395c0-0.057-0.047-0.104-0.104-0.104H14.074
		c-0.057,0-0.104,0.046-0.104,0.104v6.156h-0.593V8.395c0-0.384,0.312-0.696,0.696-0.696h13.434c0.384,0,0.696,0.312,0.696,0.696
		v15.21C28.205,23.989,27.892,24.301,27.508,24.301z"/>
	<path fill="#010101" d="M27.262,23.126H14.341c-0.082,0-0.148-0.066-0.148-0.148s0.066-0.148,0.148-0.148h12.921
		c0.082,0,0.148,0.066,0.148,0.148S27.344,23.126,27.262,23.126z"/>
	<path fill="#010101" d="M4.529,22.785c-0.164,0-0.296-0.133-0.296-0.296v-4.421c0-0.164,0.133-0.296,0.296-0.296
		s0.296,0.133,0.296,0.296v4.421C4.825,22.652,4.692,22.785,4.529,22.785z"/>
	<path fill="#010101" d="M7.443,23.858c-1.085,0-2.1-0.178-3.103-0.544c-0.117-0.043-0.195-0.154-0.195-0.278v-0.474
		c-1.769-1.102-1.695-2.291-1.67-2.69c0.002-0.025,0.003-0.045,0.003-0.061v-1.708c0-2.568,1.393-3.713,4.516-3.713h10.551
		c0.577,0,1.047,0.469,1.047,1.046c0,0.557-0.396,0.966-1.01,1.044c-0.341,0.046-1.522,0.221-2.755,0.404
		c-1.414,0.209-2.877,0.426-3.262,0.476c-0.538,0.07-0.846,0.424-0.846,0.972v4.7c0,0.125-0.078,0.237-0.196,0.279
		C9.497,23.679,8.49,23.858,7.443,23.858z M4.738,22.826c0.881,0.299,1.746,0.439,2.705,0.439c0.911,0,1.791-0.145,2.684-0.444
		v-4.489c0-0.839,0.535-1.451,1.363-1.559c0.38-0.05,1.84-0.266,3.251-0.475c1.236-0.183,2.42-0.359,2.765-0.405
		c0.186-0.023,0.494-0.113,0.494-0.456c0-0.25-0.204-0.454-0.454-0.454H6.994c-2.787,0-3.924,0.904-3.924,3.12v1.708
		c0,0.025-0.002,0.058-0.004,0.098c-0.022,0.352-0.08,1.288,1.525,2.23c0.091,0.053,0.146,0.15,0.146,0.255V22.826z"/>
	<path fill="#010101" d="M7.413,22.525l-0.817-0.676l0.45-6.283l-0.304-0.655c-0.034-0.074-0.002-0.162,0.072-0.197
		c0.073-0.035,0.162-0.002,0.197,0.072l0.335,0.724l-0.003,0.038l-0.442,6.169l0.511,0.422l0.511-0.422l-0.444-6.207l0.335-0.724
		c0.035-0.074,0.124-0.107,0.197-0.072c0.074,0.034,0.106,0.122,0.072,0.197L7.78,15.566l0.45,6.283L7.413,22.525z"/>
	<path fill="#010101" d="M7.592,15.751H7.183c-0.082,0-0.148-0.066-0.148-0.148c0-0.082,0.066-0.148,0.148-0.148h0.409
		c0.082,0,0.148,0.066,0.148,0.148C7.74,15.685,7.674,15.751,7.592,15.751z"/>
</g>
</svg>
