<svg id="Icons" xmlns="http://www.w3.org/2000/svg" viewBox="0 0 36 36"><title>Icon-Red_Hat-Transportation-Bicycle-A-Black-RGB</title><path d="M10.24,27.15a5,5,0,0,0,4.88-4.21H17.6a1,1,0,0,0,.24,0l0,0a.6.6,0,0,0,.11-.06l.14-.11,0,0,5.17-6.19.43,1.32A4.91,4.91,0,1,0,26,17.24a5.29,5.29,0,0,0-.81.08L23,10.47l0,0a.54.54,0,0,0-.07-.13.62.62,0,0,0-.08-.12l-.1-.08a1,1,0,0,0-.13-.09l-.12,0-.16,0H19.66a.75.75,0,0,0,0,1.5h2l1.21,3.68H16l-.55-1.66h1.06a.75.75,0,0,0,0-1.5H13.39a.75.75,0,0,0,0,1.5h.51l.75,2.25L12.79,18a4.83,4.83,0,0,0-2.55-.73,5,5,0,0,0,0,9.91Zm15.05-4.72a.76.76,0,0,0,.72.51l.23,0a.76.76,0,0,0,.48-.95l-1-3.19c.11,0,.22,0,.34,0a3.51,3.51,0,1,1-1.76.5Zm-4-5.79-3.37,4-1.34-4Zm-6,.76,1.35,4H15.12a5,5,0,0,0-1.18-2.51ZM13,20.1a3.4,3.4,0,0,1,.64,1.34H11.84Zm-2.73-1.36a3.33,3.33,0,0,1,1.57.4L9.67,21.71a.76.76,0,0,0-.11.8.75.75,0,0,0,.68.43h3.37a3.45,3.45,0,1,1-3.37-4.2Z"/></svg>