<svg id="bd4041af-d87f-4ac3-8345-0ed0af83572a" data-name="Layer 1" xmlns="http://www.w3.org/2000/svg" viewBox="0 0 36 36">
  <title>Icon-Red_Hat-Everything_As_A_Service-A-Black-RGB</title>
  <g>
    <path d="M30.591,18.893a4.745,4.745,0,0,0-2.867-1.588,8.746,8.746,0,0,0-16.072-4.038c-.112-.012-.221-.021-.329-.026s-.213-.009-.317-.009a6.759,6.759,0,0,0,0,13.518H27a4.748,4.748,0,0,0,3.59-7.857ZM29.3,24.3a3.243,3.243,0,0,1-2.3.953H11.006a5.259,5.259,0,0,1,0-10.518c.138,0,.281.007.431.021s.308.035.476.063a.738.738,0,0,0,.45-.061.754.754,0,0,0,.329-.309A7.246,7.246,0,0,1,26.251,18a.751.751,0,0,0,.75.75A3.249,3.249,0,0,1,29.3,24.3Z"/>
    <path d="M18.68,15.889a.749.749,0,0,0-.889.577L17.272,18.9l-.518,2.437a.75.75,0,0,0,.578.889.707.707,0,0,0,.157.017.749.749,0,0,0,.732-.594l.518-2.438.518-2.437a.749.749,0,0,0-.577-.889Z"/>
    <path d="M23.546,18.524l-1.068-1.067L21.41,16.389a.75.75,0,1,0-1.06,1.06l.8.8.8.8-.8.8-.8.8a.75.75,0,0,0,.812,1.225.758.758,0,0,0,.248-.165l1.068-1.067,1.068-1.068a.732.732,0,0,0,.163-.243.751.751,0,0,0,0-.574A.746.746,0,0,0,23.546,18.524Z"/>
    <path d="M15.682,17.449a.75.75,0,1,0-1.061-1.06l-1.068,1.068-1.068,1.067a.76.76,0,0,0-.162.244.751.751,0,0,0,0,.574.745.745,0,0,0,.162.243l1.068,1.068,1.068,1.067a.758.758,0,0,0,.248.165.741.741,0,0,0,.282.055.75.75,0,0,0,.283-.055.769.769,0,0,0,.248-.165.751.751,0,0,0,0-1.06l-.8-.8-.8-.8.8-.8Z"/>
  </g>
</svg>
