<svg id="b6cb1603-64a8-4d33-861f-a076c88735ba" data-name="organization" xmlns="http://www.w3.org/2000/svg" viewBox="0 0 36 36"><title>Icon-Red_Hat-Diagrams-Hierarchy-A-Black-RGB</title><path d="M28.75,23.37V18a.76.76,0,0,0-.75-.75H18.75V12.63a2.75,2.75,0,1,0-1.5,0v4.62H8a.76.76,0,0,0-.75.75v5.37a2.75,2.75,0,1,0,1.5,0V18.75h8.5v4.62a2.75,2.75,0,1,0,1.5,0V18.75h8.5v4.62a2.75,2.75,0,1,0,1.5,0ZM9.25,26A1.25,1.25,0,1,1,8,24.75,1.25,1.25,0,0,1,9.25,26Zm10,0A1.25,1.25,0,1,1,18,24.75,1.25,1.25,0,0,1,19.25,26ZM18,11.25A1.25,1.25,0,1,1,19.25,10,1.25,1.25,0,0,1,18,11.25Zm10,16A1.25,1.25,0,1,1,29.25,26,1.25,1.25,0,0,1,28,27.25Z"/></svg>
