<svg id="Icons" xmlns="http://www.w3.org/2000/svg" viewBox="0 0 36 36"><title>Icon-Red_Hat-Misc-Globe-A-Black-RGB</title><path d="M12.31,22.06A9.25,9.25,0,1,0,12.31,9,9.22,9.22,0,0,0,12.31,22.06Zm1.06-12a7.75,7.75,0,0,1,11,0,7.75,7.75,0,1,1-11,0Z"/><path d="M22.32,20.24a.74.74,0,0,0,.52.22.75.75,0,0,0,.53-1.29l-8.18-8a.75.75,0,0,0-1.06,0,.75.75,0,0,0,0,1.06Z"/><path d="M10.3,24.07a12,12,0,0,0,7,3.41V30a.75.75,0,0,0,1.5,0V27.6h.1a12,12,0,0,0,8.07-3.1l.74.75a.76.76,0,0,0,1.07,0,.75.75,0,0,0,0-1.06L27,22.44a.74.74,0,0,0-1.1,1,10.58,10.58,0,0,1-15-14.81.73.73,0,0,0,.51.21.71.71,0,0,0,.53-.22.74.74,0,0,0,0-1.06l-.34-.35A.91.91,0,0,0,11.36,7a.75.75,0,0,0-.24-.15L9.9,5.59a.74.74,0,0,0-1.06,0,.75.75,0,0,0,0,1.06l.92.91a12.08,12.08,0,0,0,.54,16.51Z"/></svg>