<?xml version="1.0" encoding="utf-8"?>
<!-- Generator: Adobe Illustrator 19.1.0, SVG Export Plug-In . SVG Version: 6.00 Build 0)  -->
<svg version="1.1" id="Layer_1" xmlns="http://www.w3.org/2000/svg" xmlns:xlink="http://www.w3.org/1999/xlink" x="0px" y="0px"
	 viewBox="0 0 32 32" enable-background="new 0 0 32 32" xml:space="preserve">
<g>
	<path fill="#010101" d="M9.704,22.411c-0.382,0-0.693,0.311-0.693,0.693c0,0.382,0.311,0.693,0.693,0.693
		c0.382,0,0.693-0.311,0.693-0.693C10.397,22.722,10.086,22.411,9.704,22.411z M9.704,23.204c-0.055,0-0.1-0.045-0.1-0.1
		c0-0.055,0.045-0.1,0.1-0.1s0.1,0.045,0.1,0.1C9.804,23.159,9.759,23.204,9.704,23.204z"/>
	<path fill="#010101" d="M22.197,22.213c-0.382,0-0.693,0.311-0.693,0.693c0,0.382,0.311,0.693,0.693,0.693
		c0.382,0,0.693-0.311,0.693-0.693C22.89,22.523,22.579,22.213,22.197,22.213z M22.197,23.006c-0.055,0-0.1-0.045-0.1-0.1
		c0-0.055,0.045-0.1,0.1-0.1c0.055,0,0.1,0.045,0.1,0.1C22.297,22.961,22.252,23.006,22.197,23.006z"/>
	<path fill="#010101" d="M17.971,13.79l3.666-4.682c0.101-0.129,0.078-0.315-0.051-0.416c-0.128-0.101-0.315-0.078-0.416,0.05
		l-3.672,4.689c-0.452-0.277-0.981-0.44-1.549-0.44c-1.639,0-2.973,1.334-2.973,2.973c0,0.826,0.339,1.573,0.884,2.113l-0.92,1.175
		c-0.101,0.129-0.078,0.315,0.051,0.416c0.054,0.043,0.118,0.063,0.182,0.063c0.088,0,0.175-0.039,0.234-0.114l0.915-1.168
		c0.468,0.308,1.027,0.489,1.628,0.489c1.639,0,2.973-1.334,2.973-2.973C18.924,15.106,18.555,14.333,17.971,13.79z M13.57,15.965
		c0-1.313,1.068-2.381,2.381-2.381c0.43,0,0.833,0.116,1.181,0.317l-2.902,3.706C13.822,17.179,13.57,16.601,13.57,15.965z
		 M15.95,18.346c-0.463,0-0.895-0.135-1.261-0.365l2.916-3.724c0.447,0.433,0.726,1.038,0.726,1.708
		C18.331,17.278,17.263,18.346,15.95,18.346z"/>
	<path fill="#010101" d="M15.95,6.445c0.164,0,0.296-0.133,0.296-0.296V3.67c0-0.164-0.133-0.296-0.296-0.296
		s-0.296,0.133-0.296,0.296v2.479C15.654,6.313,15.787,6.445,15.95,6.445z"/>
	<path fill="#010101" d="M10.058,5.106C9.974,4.965,9.794,4.919,9.652,5.002C9.511,5.085,9.465,5.267,9.548,5.407l1.289,2.181
		c0.056,0.094,0.154,0.146,0.255,0.146c0.051,0,0.103-0.013,0.15-0.041c0.141-0.083,0.188-0.265,0.104-0.406L10.058,5.106z"/>
	<path fill="#010101" d="M7.57,10.75l-2.082-1.19c-0.142-0.081-0.323-0.032-0.404,0.11c-0.081,0.142-0.032,0.323,0.11,0.404
		l2.082,1.19c0.046,0.026,0.097,0.039,0.147,0.039c0.103,0,0.203-0.054,0.258-0.149C7.762,11.012,7.712,10.831,7.57,10.75z"/>
	<path fill="#010101" d="M6.431,15.965c0-0.164-0.133-0.296-0.296-0.296H3.656c-0.164,0-0.296,0.133-0.296,0.296
		c0,0.164,0.133,0.296,0.296,0.296h2.479C6.298,16.261,6.431,16.129,6.431,15.965z"/>
	<path fill="#010101" d="M7.267,20.572l-2.082,1.289c-0.139,0.086-0.182,0.269-0.096,0.408c0.056,0.091,0.153,0.14,0.252,0.14
		c0.053,0,0.107-0.014,0.156-0.044l2.082-1.289c0.139-0.086,0.182-0.269,0.096-0.408C7.589,20.528,7.406,20.486,7.267,20.572z"/>
	<path fill="#010101" d="M20.766,7.698c0.045,0.025,0.093,0.036,0.141,0.036c0.105,0,0.207-0.056,0.26-0.154l1.19-2.181
		c0.078-0.144,0.025-0.324-0.118-0.402c-0.143-0.079-0.323-0.025-0.402,0.118l-1.19,2.181C20.569,7.44,20.622,7.62,20.766,7.698z"/>
	<path fill="#010101" d="M28.245,15.669h-0.308c-0.047-1.902-0.549-3.76-1.46-5.414l0.324-0.177
		c0.144-0.078,0.197-0.258,0.118-0.402c-0.078-0.144-0.259-0.197-0.402-0.118l-0.484,0.264c-0.041,0.004-0.081,0.016-0.119,0.038
		c-0.031,0.018-0.055,0.043-0.077,0.069l-1.502,0.819c-0.144,0.078-0.197,0.258-0.118,0.402c0.054,0.099,0.155,0.154,0.26,0.154
		c0.048,0,0.097-0.012,0.141-0.036l1.338-0.73c0.876,1.584,1.342,3.307,1.388,5.131h-1.578c-0.164,0-0.296,0.133-0.296,0.296
		c0,0.164,0.133,0.296,0.296,0.296h1.578c-0.048,1.727-0.51,3.439-1.377,5.098l-1.339-0.791c-0.141-0.083-0.322-0.036-0.406,0.104
		c-0.083,0.141-0.036,0.323,0.104,0.406l1.482,0.876c0.026,0.048,0.061,0.091,0.112,0.12c0.045,0.025,0.095,0.037,0.144,0.037
		c0.003,0,0.006-0.001,0.009-0.001l0.436,0.258c0.047,0.028,0.099,0.041,0.15,0.041c0.101,0,0.2-0.052,0.255-0.146
		c0.083-0.141,0.036-0.323-0.104-0.406l-0.332-0.196c0.922-1.753,1.412-3.566,1.459-5.4h0.309c0.164,0,0.296-0.133,0.296-0.296
		C28.542,15.801,28.409,15.669,28.245,15.669z"/>
	<path fill="#010101" d="M15.95,2.184c-7.544,0-13.682,6.182-13.682,13.781c0,3.917,1.662,7.648,4.561,10.236l0.084,0.075h18.176
		l0.085-0.079c2.896-2.681,4.557-6.411,4.557-10.232C29.731,8.366,23.549,2.184,15.95,2.184z M24.856,25.683H7.141
		c-2.721-2.473-4.279-6.008-4.279-9.718c0-7.272,5.872-13.188,13.089-13.188c7.272,0,13.188,5.916,13.188,13.188
		C29.139,19.584,27.58,23.12,24.856,25.683z"/>
</g>
</svg>
