<?xml version="1.0" encoding="utf-8"?>
<!-- Generator: Adobe Illustrator 24.2.1, SVG Export Plug-In . SVG Version: 6.00 Build 0)  -->
<svg version="1.1" id="f4f88b9c-5cf9-4c8d-8ab3-1cd31bd851e7"
	 xmlns="http://www.w3.org/2000/svg" xmlns:xlink="http://www.w3.org/1999/xlink" x="0px" y="0px" viewBox="0 0 36 36"
	 style="enable-background:new 0 0 36 36;" xml:space="preserve">
<path d="M12,12.75h3.689l1.781,1.78c0.292,0.293,0.765,0.294,1.058,0.002l1.783-1.782H24c0.414,0,0.75-0.336,0.75-0.75V6
	c0-0.414-0.336-0.75-0.75-0.75H12c-0.414,0-0.75,0.336-0.75,0.75v6C11.25,12.414,11.586,12.75,12,12.75z M12.75,6.75h10.5v4.5H20
	c-0.199,0-0.39,0.079-0.53,0.22L18,12.939l-1.47-1.469c-0.14-0.141-0.331-0.22-0.53-0.22h-3.25V6.75z M29.458,24.809h-0.036
	c0.806-0.688,1.328-1.698,1.328-2.84c0-2.071-1.679-3.75-3.75-3.75s-3.75,1.679-3.75,3.75c0,1.148,0.527,2.163,1.339,2.85h-0.032
	c-0.363,0.168-0.707,0.372-1.028,0.61c-0.456-1.591-1.573-2.909-3.068-3.62h-0.036c0.804-0.688,1.324-1.697,1.324-2.837
	c0-2.071-1.679-3.75-3.75-3.75s-3.75,1.679-3.75,3.75c0,1.141,0.52,2.15,1.324,2.837h-0.028c-1.495,0.711-2.612,2.029-3.068,3.62
	c-0.316-0.241-0.657-0.449-1.016-0.62h-0.036c0.804-0.688,1.324-1.697,1.324-2.837c0-2.071-1.679-3.75-3.75-3.75
	s-3.75,1.679-3.75,3.75c0,1.141,0.52,2.15,1.324,2.837H6.546C4.537,25.758,3.254,27.778,3.25,30c0,0.414,0.336,0.75,0.75,0.75h28
	c0.414,0,0.75-0.336,0.75-0.75C32.747,27.779,31.465,25.759,29.458,24.809z M27,19.719c1.243,0,2.25,1.007,2.25,2.25
	s-1.007,2.25-2.25,2.25s-2.25-1.007-2.25-2.25C24.752,20.727,25.758,19.72,27,19.719z M18,16.722c1.243,0,2.25,1.007,2.25,2.25
	s-1.007,2.25-2.25,2.25s-2.25-1.007-2.25-2.25C15.752,17.73,16.758,16.723,18,16.722z M9,19.722c1.243,0,2.25,1.007,2.25,2.25
	s-1.007,2.25-2.25,2.25s-2.25-1.007-2.25-2.25C6.752,20.73,7.758,19.723,9,19.722z M4.826,29.25
	c0.408-2.305,2.608-3.843,4.914-3.435c1.752,0.31,3.124,1.682,3.435,3.435H4.826z M21.305,29.25h-6.61
	c-0.113-0.879-0.43-1.72-0.924-2.456c0.102-2.336,2.077-4.147,4.413-4.045c2.193,0.095,3.95,1.852,4.045,4.045
	C21.735,27.53,21.418,28.371,21.305,29.25z M22.826,29.25c0.408-2.305,2.608-3.843,4.914-3.435c1.752,0.31,3.124,1.682,3.435,3.435
	H22.826z"/>
</svg>
