<svg id="Layer_1" data-name="Layer 1" xmlns="http://www.w3.org/2000/svg" viewBox="0 0 36 36"><title>Icon-Red_Hat-Media_and_documents-Quotemark_Open-A-Black-RGB</title><path d="M11.5,15.85H7.91a5.36,5.36,0,0,1,5.29-4.62.75.75,0,0,0,0-1.5A6.88,6.88,0,0,0,6.33,16.6v8.92a.76.76,0,0,0,.75.75H16a.76.76,0,0,0,.75-.75V21.1A5.26,5.26,0,0,0,11.5,15.85Zm3.75,8.92H7.83V17.35H11.5a3.75,3.75,0,0,1,3.75,3.75Z"/><path d="M24.42,15.85H20.83a5.36,5.36,0,0,1,5.29-4.62.75.75,0,0,0,0-1.5,6.88,6.88,0,0,0-6.87,6.87v8.92a.76.76,0,0,0,.75.75h8.92a.76.76,0,0,0,.75-.75V21.1A5.26,5.26,0,0,0,24.42,15.85Zm3.75,8.92H20.75V17.35h3.67a3.75,3.75,0,0,1,3.75,3.75Z"/></svg>