<?xml version="1.0" encoding="utf-8"?>
<!-- Generator: Adobe Illustrator 24.2.1, SVG Export Plug-In . SVG Version: 6.00 Build 0)  -->
<svg version="1.1" id="Layer_1" xmlns="http://www.w3.org/2000/svg" xmlns:xlink="http://www.w3.org/1999/xlink" x="0px" y="0px"
	 viewBox="0 0 32 32" style="enable-background:new 0 0 32 32;" xml:space="preserve">
<path d="M16,5.09C9.98,5.09,5.09,9.98,5.09,16S9.99,26.92,16,26.92c6.02,0,10.91-4.9,10.91-10.91C26.91,9.98,22.02,5.09,16,5.09z
	 M16,26.3c-5.68,0-10.3-4.62-10.3-10.3S10.32,5.7,16,5.7S26.3,10.32,26.3,16S21.68,26.3,16,26.3z M23.85,12.02
	c-1.422-2.849-3.436-4.472-6.58-5.03C17.14,6.967,17.02,7.05,17,7.17s0.06,0.248,0.18,0.27c2.99,0.55,4.908,2.071,6.26,4.78
	c0.04,0.08,0.12,0.13,0.21,0.13c0.03,0,0.07-0.01,0.1-0.02C23.87,12.27,23.91,12.14,23.85,12.02z"/>
</svg>
