<?xml version="1.0" encoding="utf-8"?>
<!-- Generator: Adobe Illustrator 24.2.1, SVG Export Plug-In . SVG Version: 6.00 Build 0)  -->
<svg version="1.1" id="f85a626e-6f26-4d65-a264-13e943a3aae6"
	 xmlns="http://www.w3.org/2000/svg" xmlns:xlink="http://www.w3.org/1999/xlink" x="0px" y="0px" viewBox="0 0 36 36"
	 style="enable-background:new 0 0 36 36;" xml:space="preserve">
<path d="M29.43,10.968L18.375,4.585c-0.232-0.133-0.518-0.133-0.75,0L6.57,10.968c-0.232,0.134-0.375,0.381-0.375,0.649v12.765
	c0,0.268,0.143,0.516,0.375,0.65l11.055,6.383c0.232,0.133,0.518,0.133,0.75,0l11.055-6.383c0.232-0.134,0.375-0.382,0.375-0.65
	V11.617C29.805,11.349,29.662,11.102,29.43,10.968z M28.305,23.95l-10.3,5.949l-10.3-5.949v-11.9L18,6.101l10.305,5.949V23.95z
	 M15.475,15.498c-0.291-0.292-0.766-0.294-1.06,0l-2,2c-0.292,0.291-0.294,0.766,0,1.06l2,2c0.282,0.303,0.757,0.32,1.06,0.037
	s0.32-0.757,0.037-1.06l-1.506-1.507l1.469-1.47C15.747,16.269,15.73,15.803,15.475,15.498z M20.143,20.561
	c0.293,0.293,0.768,0.294,1.061,0.001l2-2c0.293-0.292,0.293-0.767,0.001-1.059l-2.001-2.001c-0.298-0.288-0.773-0.28-1.061,0.018
	c-0.281,0.291-0.281,0.751,0,1.042l1.47,1.47l-1.47,1.47C19.85,19.794,19.85,20.269,20.143,20.561L20.143,20.561z M17.856,14.684
	l-1.622,6.487c-0.1,0.402,0.144,0.81,0.546,0.91c0.436,0.108,0.817-0.179,0.909-0.546l1.622-6.487
	c0.106-0.4-0.132-0.811-0.532-0.917C18.37,14.022,17.953,14.272,17.856,14.684z"/>
</svg>
