<svg id="b29a9956-e534-4673-8b11-51d648ea19a0" data-name="Layer 1" xmlns="http://www.w3.org/2000/svg" width="36" height="36" viewBox="0 0 36 36"><title>Icon-Red_Hat-Hardware-Virtual_Storage_Stack-A-Black-RGB</title><path d="M6,14.33a.75.75,0,1,0-.75-.75A.76.76,0,0,0,6,14.33ZM9.5,8a.78.78,0,0,0,.41-.12.77.77,0,0,0,.22-1A.75.75,0,1,0,9.5,8ZM7.59,9.65a.76.76,0,0,0,.57-.26.75.75,0,0,0-.09-1.06.75.75,0,1,0-.48,1.32Zm4.16-2.8a.92.92,0,0,0,.28,0,.76.76,0,0,0,.42-1,.75.75,0,1,0-.7,1ZM6,21.94a.75.75,0,1,0-.75-.75A.76.76,0,0,0,6,21.94Zm0-5.07a.76.76,0,1,0-.75-.75A.76.76,0,0,0,6,16.87ZM6,19.4a.75.75,0,1,0-.75-.75A.75.75,0,0,0,6,19.4ZM16.7,5.79h0a.75.75,0,1,0-.79-.7A.74.74,0,0,0,16.74,5.79ZM26.44,8a.74.74,0,0,0,.63-.34.75.75,0,0,0-1.26-.82.77.77,0,0,0,.22,1A.78.78,0,0,0,26.44,8ZM19.19,5.79h0A.76.76,0,0,0,20,5.08a.74.74,0,0,0-.7-.79.75.75,0,0,0-.8.7A.77.77,0,0,0,19.19,5.79Zm2.41.31.15,0a.78.78,0,1,0-.15,0Zm2.31.67a.65.65,0,0,0,.27.05.75.75,0,1,0-.27-.05Zm-9.73-.64a.47.47,0,0,0,.16,0h0a.77.77,0,0,0,.58-.89A.75.75,0,0,0,14,4.65a.75.75,0,0,0,.15,1.48Zm15.07,7.38a.75.75,0,1,0,.75-.75A.75.75,0,0,0,29.25,13.51ZM29,11.26a.75.75,0,0,0,.71.5.77.77,0,0,0,.25,0,.75.75,0,0,0-.51-1.41A.73.73,0,0,0,29,11.26ZM6.79,23.63A.75.75,0,0,0,6,23a.74.74,0,0,0-.65.83.75.75,0,0,0,.74.66h.09A.76.76,0,0,0,6.79,23.63ZM6.08,11.79a.67.67,0,0,0,.24,0,.75.75,0,1,0-.71-1A.75.75,0,0,0,6.08,11.79ZM28.93,8.35a.75.75,0,1,0-.57,1.25.73.73,0,0,0,.5-.19A.76.76,0,0,0,28.93,8.35ZM6.48,25.45a.76.76,0,0,0-.26,1,.75.75,0,0,0,.65.37.76.76,0,0,0,.38-.11.74.74,0,0,0,.26-1A.75.75,0,0,0,6.48,25.45Zm23.06-.06a.74.74,0,0,0-1,.27.75.75,0,0,0,.65,1.13.77.77,0,0,0,.65-.37h0A.75.75,0,0,0,29.54,25.39Zm-2.49,2A.75.75,0,0,0,27,28.46a.73.73,0,0,0,.56.26.7.7,0,0,0,.49-.19h0a.75.75,0,1,0-1-1.14Zm2.95-7a.75.75,0,0,0,0,1.5.75.75,0,0,0,0-1.5ZM27.75,13c0-3.22-4.28-5.75-9.75-5.75S8.25,9.78,8.25,13V23c0,3.22,4.28,5.75,9.75,5.75s9.75-2.53,9.75-5.75Zm-1.5,10c0,2.3-3.78,4.25-8.25,4.25S9.75,25.3,9.75,23V21.1c1.71,1.6,4.73,2.65,8.25,2.65s6.54-1.05,8.25-2.65Zm0-5c0,2.3-3.78,4.25-8.25,4.25S9.75,20.3,9.75,18V16.1c1.71,1.6,4.73,2.65,8.25,2.65s6.54-1.05,8.25-2.65ZM18,17.25c-4.47,0-8.25-1.95-8.25-4.25S13.53,8.75,18,8.75,26.25,10.7,26.25,13,22.47,17.25,18,17.25Zm12-2a.75.75,0,1,0,.75.75A.75.75,0,0,0,30,15.29Zm0,2.54a.75.75,0,1,0,.75.75A.75.75,0,0,0,30,17.83Zm.05,5.08a.74.74,0,0,0-.83.66.75.75,0,0,0,.66.83H30a.75.75,0,0,0,.75-.67A.74.74,0,0,0,30.05,22.91ZM15.57,30.09a.75.75,0,0,0-.84.65.74.74,0,0,0,.64.84h.1a.75.75,0,0,0,.1-1.5ZM25.1,28.7h0a.75.75,0,0,0,.35,1.42.84.84,0,0,0,.34-.08.75.75,0,0,0-.68-1.34Zm-11.9.9A.75.75,0,0,0,12.78,31a.75.75,0,0,0,.93-.51A.75.75,0,0,0,13.2,29.6ZM7.94,27.53A.76.76,0,0,0,8,28.59a.77.77,0,0,0,1.06-.09.75.75,0,1,0-1.14-1Zm3,1.2h0a.75.75,0,0,0-.67,1.34.68.68,0,0,0,.34.08A.75.75,0,0,0,11,28.73Zm11.9.85a.75.75,0,0,0-.51.93.74.74,0,0,0,.72.54.76.76,0,0,0,.21,0,.75.75,0,1,0-.42-1.44Zm-2.37.5a.75.75,0,0,0,.1,1.5h.1a.75.75,0,0,0-.2-1.49Zm-2.43.17H18a.75.75,0,0,0,0,1.5h.07a.75.75,0,0,0,0-1.5Z"/></svg>