<svg id="aa273587-5148-4766-9e5b-ad0d66fcf31a" data-name="media-clapboard" xmlns="http://www.w3.org/2000/svg" viewBox="0 0 36 36"><title>Icon-Red_Hat-Media_and_documents-Video-A-Black-RGB</title><path d="M16.81,25a.79.79,0,0,0,.37-.1l3.76-2.13a.75.75,0,0,0,0-1.3l-3.76-2.13a.75.75,0,0,0-1.12.66v4.25a.74.74,0,0,0,.37.64A.76.76,0,0,0,16.81,25Zm.75-3.72,1.49.84L17.56,23Zm11.63-5.87H10.47l18.14-3.86a.75.75,0,0,0,.58-.89l-.62-2.9a.77.77,0,0,0-.32-.47.76.76,0,0,0-.57-.11l-21,4.47a.74.74,0,0,0-.48.33.79.79,0,0,0-.09.58l.86,3.69V28.08a.75.75,0,0,0,.75.75h21.5a.74.74,0,0,0,.75-.75V16.16A.75.75,0,0,0,29.19,15.41ZM7.71,13,27.26,8.81l.31,1.43L8.05,14.39ZM28.44,27.33h-20V16.91h20Z"/></svg>
