<svg id="a908ce1e-2ebe-46c6-8de3-16fb1b123c1f" data-name="security" xmlns="http://www.w3.org/2000/svg" viewBox="0 0 36 36"><title>Icon-Red_Hat-Objects-Bank_safe-A-Black-RGB</title><path d="M23.71,11.69a.72.72,0,0,0,.29.06.75.75,0,0,0,.29-.06.78.78,0,0,0,.24-.16.75.75,0,0,0,0-1.06.63.63,0,0,0-.24-.16.73.73,0,0,0-.58,0,.63.63,0,0,0-.24.16.78.78,0,0,0-.16.24.74.74,0,0,0,.16.82A.78.78,0,0,0,23.71,11.69ZM29,6.25H7A.76.76,0,0,0,6.27,7V29a.76.76,0,0,0,.75.75H29a.76.76,0,0,0,.75-.75V7A.76.76,0,0,0,29,6.25Zm-.75,22H7.77V7.75H28.23ZM12.73,18a4.51,4.51,0,0,0,1.62,3.44L13,23.77a.75.75,0,0,0,.26,1,.67.67,0,0,0,.38.11.74.74,0,0,0,.64-.36l1.39-2.31a4.45,4.45,0,0,0,6-3.46h2.72a.75.75,0,1,0,0-1.5H21.67a4.46,4.46,0,0,0-6-3.46l-1.35-2.35a.75.75,0,0,0-1.31.74l1.36,2.36A4.5,4.5,0,0,0,12.73,18Zm4.51-3a3,3,0,0,1,2.91,2.26l-2.47,0-1.24-2.16A3,3,0,0,1,17.24,15Zm.47,3.78,2.43,0a2.95,2.95,0,0,1-3.7,2.14Zm-2.57-2.92,1.26,2.19-1.27,2.1a3,3,0,0,1,0-4.29Z"/></svg>
