<svg id="a78171f2-6f98-4568-98cd-64fcb3f39bab" data-name="Layer 1" xmlns="http://www.w3.org/2000/svg" viewBox="0 0 36 36">
  <g>
    <path d="M14.5,8.38h-6a.62.62,0,0,0,0,1.24h6A.62.62,0,0,0,14.5,8.38Z"/>
    <path d="M14.5,11.38h-6a.62.62,0,0,0,0,1.24h6A.62.62,0,0,0,14.5,11.38Z"/>
    <path d="M21.5,9.62h6a.62.62,0,0,0,0-1.24h-6A.62.62,0,0,0,21.5,9.62Z"/>
    <path d="M28.12,12a.62.62,0,0,0-.62-.62h-6a.62.62,0,0,0,0,1.24h6A.62.62,0,0,0,28.12,12Z"/>
    <path d="M8.5,16.84a.63.63,0,0,0-.62.63v3.06a.62.62,0,1,0,1.24,0V17.47A.63.63,0,0,0,8.5,16.84Z"/>
    <path d="M21.57,30.38H18.62V5.62H30.38v16a.62.62,0,0,0,1.24,0V5A.62.62,0,0,0,31,4.38H5A.62.62,0,0,0,4.38,5V31a.62.62,0,0,0,.62.62H21.57A.62.62,0,0,0,21.57,30.38ZM5.62,5.62H17.38V30.38H5.62Z"/>
    <path d="M20.88,17.47v3.06a.62.62,0,0,0,1.24,0V17.47A.62.62,0,0,0,20.88,17.47Z"/>
    <path d="M27.75,25.88a1.87,1.87,0,0,0,0,3.74A1.87,1.87,0,0,0,27.75,25.88Z"/>
    <path d="M27.75,30.62c-.85,0-.59,1.08-.62,1.63a.63.63,0,0,0,.62.63c.85,0,.59-1.08.62-1.63A.63.63,0,0,0,27.75,30.62Z"/>
    <path d="M27.75,24.88c.85,0,.59-1.08.62-1.63a.63.63,0,0,0-.62-.63c-.85,0-.59,1.08-.62,1.63A.63.63,0,0,0,27.75,24.88Z"/>
    <path d="M24.88,27.75c0-.85-1.08-.59-1.63-.62a.63.63,0,0,0-.63.62c0,.85,1.08.59,1.63.62A.63.63,0,0,0,24.88,27.75Z"/>
    <path d="M32.25,27.12h-1a.63.63,0,0,0,0,1.25h1A.63.63,0,0,0,32.25,27.12Z"/>
    <path d="M24.83,29.78l-.7.71a.62.62,0,0,0,.88.88l.71-.7A.63.63,0,0,0,24.83,29.78Z"/>
    <path d="M30.49,24.13l-.71.7a.63.63,0,0,0,.89.89l.7-.71A.62.62,0,0,0,30.49,24.13Z"/>
    <path d="M24.13,24.13c-.59.6.35,1.18.7,1.59a.64.64,0,0,0,.89,0c.58-.61-.35-1.19-.71-1.59A.61.61,0,0,0,24.13,24.13Z"/>
    <path d="M30.67,29.78a.63.63,0,0,0-.89.89c.26.2.77.94,1.15.89a.63.63,0,0,0,.44-1.07Z"/>
  </g>
</svg>
