<svg id="f650c3f9-8355-49cd-be72-e68faf38dc2d" data-name="Layer 1" xmlns="http://www.w3.org/2000/svg" viewBox="0 0 36 36">
  <title>Icon-Red_Hat-Virtual_server_secured-A-Black-RGB</title>
  <g>
    <path d="M25.75,16a.75.75,0,0,0,1.5,0V14a.751.751,0,0,0-.75-.75H6.5a.751.751,0,0,0-.75.75v5a.751.751,0,0,0,.75.75h17a.75.75,0,0,0,0-1.5H7.25v-3.5h18.5V16Z"/>
    <path d="M33.109,18.563a.763.763,0,0,0-.372-.274l-1.5-.5-1.5-.5a.768.768,0,0,0-.237-.038.779.779,0,0,0-.238.038l-1.5.5-1.5.5a.757.757,0,0,0-.37.274A.746.746,0,0,0,25.75,19v3a3.75,3.75,0,0,0,7.5,0V19A.753.753,0,0,0,33.109,18.563Z"/>
    <path d="M24.33,15.97a.737.737,0,0,0-.114-.1.488.488,0,0,0-.136-.065.707.707,0,0,0-.428-.044.749.749,0,0,0-.545,1.021.764.764,0,0,0,.163.243.753.753,0,0,0,.53.22.683.683,0,0,0,.144-.015.7.7,0,0,0,.136-.045.824.824,0,0,0,.136-.069.66.66,0,0,0,.114-.091.693.693,0,0,0,.091-.113.911.911,0,0,0,.069-.127.888.888,0,0,0,.045-.145.7.7,0,0,0,.015-.145.753.753,0,0,0-.22-.53Z"/>
    <path d="M10.449,15.749h-1.5a.75.75,0,0,0,0,1.5h3a.75.75,0,0,0,0-1.5Z"/>
    <path d="M24.03,21.47a.754.754,0,0,0-.384-.2.736.736,0,0,0-.436.044.5.5,0,0,0-.128.065.772.772,0,0,0-.112.095.748.748,0,0,0,0,1.06.687.687,0,0,0,.112.091.922.922,0,0,0,.128.069.682.682,0,0,0,.141.045.746.746,0,0,0,.149.015.736.736,0,0,0,.287-.058.745.745,0,0,0,.405-.405.749.749,0,0,0-.162-.817Z"/>
    <path d="M8.5,21.25a.748.748,0,1,0,.529.217A.749.749,0,0,0,8.5,21.25Z"/>
    <path d="M11,21.25a.743.743,0,1,0,.532.217A.749.749,0,0,0,11,21.25Z"/>
    <path d="M18.5,21.25a.748.748,0,1,0,.529.217A.749.749,0,0,0,18.5,21.25Z"/>
    <path d="M13.5,21.25a.748.748,0,1,0,.529.217A.749.749,0,0,0,13.5,21.25Z"/>
    <path d="M16,21.25a.748.748,0,1,0,.529.217A.748.748,0,0,0,16,21.25Z"/>
    <path d="M6,21.25a.748.748,0,1,0,.529.217A.748.748,0,0,0,6,21.25Z"/>
    <path d="M21,21.25a.743.743,0,1,0,.532.217A.749.749,0,0,0,21,21.25Z"/>
    <path d="M4.03,21.47a.779.779,0,0,0-.113-.095.492.492,0,0,0-.127-.065.737.737,0,0,0-.436-.044.754.754,0,0,0-.384.2.687.687,0,0,0-.091.112.827.827,0,0,0-.069.128.682.682,0,0,0-.045.141A.746.746,0,0,0,2.75,22a.753.753,0,0,0,.057.287.764.764,0,0,0,.163.243.753.753,0,0,0,.53.22.729.729,0,0,0,.148-.015.691.691,0,0,0,.142-.045.911.911,0,0,0,.127-.069.693.693,0,0,0,.113-.091.745.745,0,0,0,.162-.243.749.749,0,0,0-.162-.817Z"/>
    <path d="M3.5,15.75a.748.748,0,1,0,.529.217A.749.749,0,0,0,3.5,15.75Z"/>
    <path d="M3.5,18.5a.748.748,0,1,0,.529.217A.749.749,0,0,0,3.5,18.5Z"/>
    <path d="M3.5,13a.748.748,0,1,0,.529.217A.749.749,0,0,0,3.5,13Z"/>
    <path d="M4.03,10.47a.779.779,0,0,0-.113-.1.492.492,0,0,0-.127-.065.731.731,0,0,0-.58,0,.5.5,0,0,0-.128.065.772.772,0,0,0-.112.1.687.687,0,0,0-.091.112.827.827,0,0,0-.069.128.682.682,0,0,0-.045.141A.746.746,0,0,0,2.75,11a.753.753,0,0,0,.057.287.764.764,0,0,0,.163.243.687.687,0,0,0,.112.091.922.922,0,0,0,.128.069.682.682,0,0,0,.141.045.746.746,0,0,0,.149.015.729.729,0,0,0,.148-.015.691.691,0,0,0,.142-.045.911.911,0,0,0,.127-.069.677.677,0,0,0,.2-.2.911.911,0,0,0,.069-.127.888.888,0,0,0,.045-.145A.7.7,0,0,0,4.25,11a.753.753,0,0,0-.22-.53Z"/>
    <path d="M21.7,11.75a.755.755,0,1,0-.529-.221A.751.751,0,0,0,21.7,11.75Z"/>
    <path d="M26.9,11.75a.755.755,0,1,0-.529-.221A.751.751,0,0,0,26.9,11.75Z"/>
    <path d="M24.3,11.75a.755.755,0,1,0-.529-.221A.751.751,0,0,0,24.3,11.75Z"/>
    <path d="M8.7,11.75a.755.755,0,1,0-.529-.221A.751.751,0,0,0,8.7,11.75Z"/>
    <path d="M11.3,11.75a.755.755,0,1,0-.529-.221A.751.751,0,0,0,11.3,11.75Z"/>
    <path d="M6.1,11.75a.755.755,0,1,0-.529-.221A.745.745,0,0,0,6.1,11.75Z"/>
    <path d="M19.1,11.75a.748.748,0,1,0-.533-.221A.746.746,0,0,0,19.1,11.75Z"/>
    <path d="M16.5,11.75a.755.755,0,1,0-.529-.221A.751.751,0,0,0,16.5,11.75Z"/>
    <path d="M13.9,11.75a.755.755,0,1,0-.529-.221A.751.751,0,0,0,13.9,11.75Z"/>
    <path d="M28.81,11.29a.817.817,0,0,0,.069.127.689.689,0,0,0,.2.2.922.922,0,0,0,.128.069.682.682,0,0,0,.141.045.746.746,0,0,0,.149.015.729.729,0,0,0,.148-.015.691.691,0,0,0,.142-.045.911.911,0,0,0,.127-.069.677.677,0,0,0,.2-.2.911.911,0,0,0,.069-.127.888.888,0,0,0,.045-.145A.7.7,0,0,0,30.25,11a.753.753,0,0,0-.22-.53.779.779,0,0,0-.113-.1.492.492,0,0,0-.127-.065.705.705,0,0,0-.286-.06.758.758,0,0,0-.294.06.5.5,0,0,0-.128.065.772.772,0,0,0-.112.1.687.687,0,0,0-.091.112.827.827,0,0,0-.069.128.682.682,0,0,0-.045.141A.746.746,0,0,0,28.75,11a.7.7,0,0,0,.015.145A.888.888,0,0,0,28.81,11.29Z"/>
    <path d="M29.5,15.227a.755.755,0,1,0-.529-.221A.751.751,0,0,0,29.5,15.227Z"/>
  </g>
</svg>
