<svg id="af48cf9f-bb2d-4b04-8b62-1d2b4613626d" data-name="Layer 1" xmlns="http://www.w3.org/2000/svg" viewBox="0 0 36 36">
  <title>Icon-Red_Hat-Ninja_star-A-Black-RGB</title>
  <g>
    <path d="M30.177,27.609l-1.931-3.346-1.931-3.345a.75.75,0,0,0-.9-.333,3.458,3.458,0,0,1-.52.141,2.712,2.712,0,0,1-.494.046,3.1,3.1,0,0,1-3.092-3.092,3.016,3.016,0,0,1,.284-1.274,3.151,3.151,0,0,1,.8-1.056.751.751,0,0,0,.159-.943L20.6,11.024,18.649,7.641a.779.779,0,0,0-1.3,0L15.4,11.024l-1.953,3.383a.751.751,0,0,0,.159.943,3.151,3.151,0,0,1,.8,1.056,3.016,3.016,0,0,1,.284,1.274A3.1,3.1,0,0,1,11.6,20.772a2.712,2.712,0,0,1-.494-.046,3.458,3.458,0,0,1-.52-.141.751.751,0,0,0-.508,0,.738.738,0,0,0-.389.328L7.754,24.263,5.823,27.609a.75.75,0,0,0,.649,1.125h7.744a.751.751,0,0,0,.741-.636,3.076,3.076,0,0,1,6.086,0,.751.751,0,0,0,.741.636h7.744a.749.749,0,0,0,.649-1.125Zm-4.871-.375H22.382a4.573,4.573,0,0,0-8.764,0H7.771l1.46-2.53,1.461-2.531a4.456,4.456,0,0,0,3.829-.951,4.621,4.621,0,0,0,1.667-3.542,4.51,4.51,0,0,0-.3-1.615,4.616,4.616,0,0,0-.855-1.408l1.483-2.57L18,9.516l1.484,2.571,1.483,2.57a4.616,4.616,0,0,0-.855,1.408,4.51,4.51,0,0,0-.3,1.615,4.621,4.621,0,0,0,1.667,3.542,4.457,4.457,0,0,0,3.829.951L26.769,24.7l1.46,2.53Z"/>
    <path d="M18.53,20.72a.774.774,0,0,0-1.06,0,.748.748,0,0,0,0,1.06.75.75,0,1,0,1.06-1.06Z"/>
  </g>
</svg>
