<?xml version="1.0" encoding="utf-8"?>
<!-- Generator: Adobe Illustrator 19.1.0, SVG Export Plug-In . SVG Version: 6.00 Build 0)  -->
<svg version="1.1" id="Layer_1" xmlns="http://www.w3.org/2000/svg" xmlns:xlink="http://www.w3.org/1999/xlink" x="0px" y="0px"
	 viewBox="0 0 32 32" enable-background="new 0 0 32 32" xml:space="preserve">
<path fill="#010101" d="M12.899,28.059c-1.505,0-4.383-1.239-4.383-3.183c0-1.292,0.901-1.768,1.56-2.115
	c0.472-0.249,0.739-0.403,0.739-0.669c0-1.145-2.674-2.093-4.11-2.602l-0.086-0.031c-0.106-0.038-0.182-0.133-0.195-0.245
	c-0.064-0.545-0.15-3.8,1.012-5.106c0.332-0.374,0.736-0.563,1.198-0.563c1.154,0,1.71,0.8,2.157,1.443
	c0.424,0.61,0.711,0.983,1.24,0.983c1.317,0,2.386-1.691,2.386-2.794c0-1.106-1.161-1.339-1.389-1.339
	c-0.243,0-0.519,0.124-0.811,0.255c-0.336,0.151-0.684,0.307-1.054,0.307c-0.632,0-1.522-0.52-1.522-1.676
	c0-1.555,1.684-3.671,1.875-3.862c0.091-0.091,0.231-0.113,0.345-0.054c1.717,0.885,3.352,1.679,4.487,1.679
	c0.932,0,1.058-0.457,1.058-0.904c0-0.2-0.076-0.539-0.149-0.866c-0.081-0.36-0.157-0.701-0.157-0.947
	c0-0.707,0.573-1.829,2.11-1.829c0.949,0,4.077,0.841,4.077,2.697c0,1.26-0.735,1.827-1.325,2.281
	c-0.442,0.341-0.693,0.55-0.693,0.886c0,1.229,2.872,2.2,3.816,2.519c0.137,0.046,0.25,0.084,0.332,0.114
	c0.141,0.052,0.22,0.2,0.186,0.346l-0.022,0.092c-0.267,1.146-1.08,4.632-2.872,4.632c-0.856,0-1.336-0.607-1.759-1.143
	c-0.372-0.47-0.692-0.875-1.204-0.875c-1.116,0-1.824,1.893-1.824,2.692c0,0.792,0.663,1.569,1.339,1.569
	c0.422,0,0.671-0.094,0.912-0.186c0.223-0.084,0.454-0.172,0.773-0.172c0.74,0,1.139,0.666,1.139,1.292
	c0,1.303-1.154,3.069-2.022,4.285c-0.082,0.115-0.235,0.156-0.364,0.098c-0.142-0.064-0.314-0.148-0.509-0.243
	c-0.914-0.444-2.445-1.187-3.506-1.187c-0.956,0-1.211,0.504-1.211,0.802c0,0.169,0.074,0.445,0.146,0.712
	c0.092,0.341,0.186,0.694,0.186,0.999C14.805,26.89,14.287,28.059,12.899,28.059z M6.996,18.964
	c1.793,0.636,4.411,1.591,4.411,3.128c0,0.636-0.536,0.919-1.056,1.193c-0.639,0.337-1.243,0.656-1.243,1.591
	c0,1.496,2.493,2.59,3.791,2.59c1.077,0,1.313-0.948,1.313-1.313c0-0.227-0.084-0.541-0.166-0.845
	c-0.085-0.318-0.166-0.619-0.166-0.866c0-0.672,0.564-1.395,1.803-1.395c1.197,0,2.742,0.75,3.765,1.246
	c0.098,0.047,0.19,0.092,0.275,0.133c0.568-0.804,1.769-2.585,1.769-3.739c0-0.195-0.098-0.7-0.547-0.7
	c-0.211,0-0.366,0.059-0.563,0.134c-0.264,0.1-0.592,0.224-1.122,0.224c-1.011,0-1.931-1.03-1.931-2.161
	c0-0.982,0.822-3.285,2.416-3.285c0.798,0,1.261,0.585,1.668,1.1c0.389,0.492,0.726,0.918,1.295,0.918
	c0.593,0,1.462-0.701,2.255-4.007c-0.022-0.008-0.046-0.015-0.07-0.024c-1.262-0.427-4.219-1.427-4.219-3.081
	c0-0.644,0.47-1.005,0.924-1.355c0.538-0.414,1.094-0.843,1.094-1.812c0-1.403-2.819-2.105-3.484-2.105
	c-1.476,0-1.517,1.224-1.517,1.236c0,0.181,0.073,0.505,0.143,0.818c0.084,0.375,0.164,0.73,0.164,0.996
	c0,0.965-0.586,1.497-1.65,1.497c-1.219,0-2.843-0.762-4.551-1.638c-0.438,0.549-1.564,2.194-1.564,3.283
	c0,0.884,0.688,1.083,0.93,1.083c0.243,0,0.519-0.124,0.811-0.255c0.336-0.151,0.684-0.307,1.054-0.307
	c0.691,0,1.982,0.566,1.982,1.931c0,1.332-1.279,3.387-2.978,3.387c-0.866,0-1.323-0.657-1.726-1.238
	c-0.425-0.612-0.827-1.189-1.671-1.189c-0.29,0-0.537,0.119-0.755,0.364C7.01,15.478,6.937,18.051,6.996,18.964z"/>
</svg>
