<svg xmlns="http://www.w3.org/2000/svg" viewBox="0 0 36 36"><title>Icon-Red_Hat-Objects-Nunchucks-A-Black-RGB</title><g id="ad315d0d-9317-4630-b414-7036d0077d59" data-name="nunchucks"><path d="M20,12.75a.76.76,0,0,0,.75-.75V10.75h1a.75.75,0,0,0,0-1.5h-1V8a.75.75,0,0,0-1.5,0v4A.76.76,0,0,0,20,12.75Zm-3.63,4.5a.75.75,0,0,0,0,1.5h3.31a.75.75,0,0,0,0-1.5ZM28.54,16a.75.75,0,0,0,1.18.94,4.82,4.82,0,0,0,1-3,4.4,4.4,0,0,0-.06-.73.73.73,0,0,0-.85-.62.75.75,0,0,0-.63.85,2.81,2.81,0,0,1,0,.5A3.17,3.17,0,0,1,28.54,16Zm-6.31,2a.76.76,0,0,0,.75.75h3.36a.75.75,0,1,0-.1-1.5H23A.76.76,0,0,0,22.23,18Zm2.83-7.25H26a3.24,3.24,0,0,1,1.81.55.72.72,0,0,0,.42.13.74.74,0,0,0,.62-.34.75.75,0,0,0-.2-1A4.8,4.8,0,0,0,26,9.25h-.94a.75.75,0,0,0,0,1.5ZM7.48,20a.76.76,0,0,0-.11-1.06.75.75,0,0,0-1,.11,4.75,4.75,0,0,0-1.07,3,4.91,4.91,0,0,0,0,.67.74.74,0,0,0,.74.65h.11a.75.75,0,0,0,.63-.85,3.44,3.44,0,0,1,0-.46A3.23,3.23,0,0,1,7.48,20ZM16,23.25a.76.76,0,0,0-.75.75v1.25h-1a.75.75,0,0,0,0,1.5h1V28a.75.75,0,0,0,1.5,0V24A.76.76,0,0,0,16,23.25ZM6,12.75H17a.76.76,0,0,0,.75-.75V8A.76.76,0,0,0,17,7.25H6A.76.76,0,0,0,5.25,8v4A.76.76,0,0,0,6,12.75Zm.75-4h9.5v2.5H6.75ZM30,23.25H19a.76.76,0,0,0-.75.75v4a.76.76,0,0,0,.75.75H30a.76.76,0,0,0,.75-.75V24A.76.76,0,0,0,30,23.25Zm-.75,4h-9.5v-2.5h9.5ZM13.81,18a.75.75,0,0,0-.75-.75H9.71a.75.75,0,0,0,0,1.5h3.3A.75.75,0,0,0,13.81,18ZM10.9,25.25H10a3.25,3.25,0,0,1-1.84-.57.75.75,0,0,0-.85,1.24,4.74,4.74,0,0,0,2.68.83h.91a.75.75,0,0,0,0-1.5Z"/></g></svg>
