<svg id="b1cfcd6c-f8af-4239-b13d-f189d2525317" data-name="Layer 1" xmlns="http://www.w3.org/2000/svg" viewBox="0 0 36 36">
  <title>Icon-Red_Hat-Virtual_storage_stack-A-Black-RGB</title>
  <g>
    <path d="M28.75,18V15.5a.751.751,0,0,0-.75-.75H8a.751.751,0,0,0-.75.75v5a.751.751,0,0,0,.75.75H28a.751.751,0,0,0,.75-.75Zm-1.5,0v1.75H8.75v-3.5h18.5Z"/>
    <path d="M24.77,18.53a.662.662,0,0,0,.239.162.759.759,0,0,0,.291.058.688.688,0,0,0,.14-.015.713.713,0,0,0,.14-.045,1.1,1.1,0,0,0,.132-.069.618.618,0,0,0,.118-.091.7.7,0,0,0,.157-.243.806.806,0,0,0,0-.575.7.7,0,0,0-.157-.242.618.618,0,0,0-.118-.091.975.975,0,0,0-.132-.069.736.736,0,0,0-.81.16.748.748,0,0,0,0,1.06Z"/>
    <path d="M13.449,17.25h-3a.75.75,0,0,0,0,1.5h3a.75.75,0,0,0,0-1.5Z"/>
    <path d="M28,22.75H8a.751.751,0,0,0-.75.75v5a.751.751,0,0,0,.75.75H28a.751.751,0,0,0,.75-.75v-5a.751.751,0,0,0-.75-.75ZM27.25,26v1.75H8.75v-3.5h18.5Z"/>
    <path d="M24.6,26.29a.76.76,0,0,0,.073.127.948.948,0,0,0,.1.113.463.463,0,0,0,.109.091,1.02,1.02,0,0,0,.131.069.682.682,0,0,0,.141.045.746.746,0,0,0,.149.015.688.688,0,0,0,.14-.015.713.713,0,0,0,.14-.045,1.1,1.1,0,0,0,.132-.069.618.618,0,0,0,.118-.091.693.693,0,0,0,.091-.113.911.911,0,0,0,.069-.127.888.888,0,0,0,.045-.145A.7.7,0,0,0,26.05,26a.746.746,0,0,0-.015-.149.682.682,0,0,0-.045-.141.922.922,0,0,0-.069-.128.687.687,0,0,0-.091-.112.618.618,0,0,0-.118-.091.975.975,0,0,0-.132-.069.736.736,0,0,0-.81.16.939.939,0,0,0-.1.112.77.77,0,0,0-.073.128.529.529,0,0,0-.04.141.925.925,0,0,0-.01.149.869.869,0,0,0,.01.145A.644.644,0,0,0,24.6,26.29Z"/>
    <path d="M13.449,25.25h-3a.75.75,0,0,0,0,1.5h3a.75.75,0,0,0,0-1.5Z"/>
    <path d="M28.75,10V7.5A.751.751,0,0,0,28,6.75H8a.751.751,0,0,0-.75.75v5a.751.751,0,0,0,.75.75H28a.751.751,0,0,0,.75-.75Zm-1.5,0v1.75H8.75V8.25h18.5Z"/>
    <path d="M24.77,10.53a.532.532,0,0,0,.109.1.571.571,0,0,0,.131.065.682.682,0,0,0,.141.045.749.749,0,0,0,.841-.448A.736.736,0,0,0,26.05,10a.746.746,0,0,0-.015-.149.682.682,0,0,0-.045-.141.922.922,0,0,0-.069-.128.687.687,0,0,0-.091-.112.754.754,0,0,0-.384-.2.736.736,0,0,0-.436.044.908.908,0,0,0-.131.069.463.463,0,0,0-.109.091.939.939,0,0,0-.1.112.77.77,0,0,0-.073.128.91.91,0,0,0-.036.141A.826.826,0,0,0,24.55,10a.753.753,0,0,0,.057.287A.764.764,0,0,0,24.77,10.53Z"/>
    <path d="M13.449,9.25h-3a.75.75,0,0,0,0,1.5h3a.75.75,0,0,0,0-1.5Z"/>
    <path d="M31.69,31.21a.922.922,0,0,0-.069-.128.689.689,0,0,0-.2-.2.817.817,0,0,0-.127-.069.731.731,0,0,0-.58,0,.827.827,0,0,0-.128.069.687.687,0,0,0-.112.091.741.741,0,0,0-.22.53.7.7,0,0,0,.015.145.888.888,0,0,0,.045.145.817.817,0,0,0,.069.127.689.689,0,0,0,.2.2.922.922,0,0,0,.128.069.682.682,0,0,0,.141.045A.746.746,0,0,0,31,32.25a.7.7,0,0,0,.145-.015.888.888,0,0,0,.145-.045.911.911,0,0,0,.127-.069.677.677,0,0,0,.2-.2.911.911,0,0,0,.069-.127.888.888,0,0,0,.045-.145.7.7,0,0,0,.015-.145.746.746,0,0,0-.015-.149A.682.682,0,0,0,31.69,31.21Z"/>
    <path d="M15.4,30.75a.748.748,0,1,0,.529.217A.749.749,0,0,0,15.4,30.75Z"/>
    <path d="M10.2,30.75a.748.748,0,1,0,.529.217A.749.749,0,0,0,10.2,30.75Z"/>
    <path d="M18,30.75a.748.748,0,1,0,.529.217A.749.749,0,0,0,18,30.75Z"/>
    <path d="M12.8,30.75a.748.748,0,1,0,.529.217A.749.749,0,0,0,12.8,30.75Z"/>
    <path d="M7.6,30.75a.749.749,0,1,0,.528.217A.749.749,0,0,0,7.6,30.75Z"/>
    <path d="M23.2,30.75a.743.743,0,1,0,.532.217A.749.749,0,0,0,23.2,30.75Z"/>
    <path d="M20.6,30.75a.743.743,0,1,0,.532.217A.749.749,0,0,0,20.6,30.75Z"/>
    <path d="M25.8,30.75a.748.748,0,1,0,.529.217A.749.749,0,0,0,25.8,30.75Z"/>
    <path d="M28.4,30.75a.748.748,0,1,0,.529.217A.749.749,0,0,0,28.4,30.75Z"/>
    <path d="M5.53,30.97a.754.754,0,0,0-.384-.2.736.736,0,0,0-.436.044.827.827,0,0,0-.128.069.7.7,0,0,0-.2.2.827.827,0,0,0-.069.128.682.682,0,0,0-.045.141.746.746,0,0,0-.015.149.7.7,0,0,0,.015.145.888.888,0,0,0,.045.145.817.817,0,0,0,.069.127.689.689,0,0,0,.2.2.922.922,0,0,0,.128.069.859.859,0,0,0,.145.045A.693.693,0,0,0,5,32.25a.729.729,0,0,0,.148-.015.691.691,0,0,0,.142-.045.911.911,0,0,0,.127-.069.677.677,0,0,0,.2-.2.911.911,0,0,0,.069-.127.888.888,0,0,0,.045-.145A.7.7,0,0,0,5.75,31.5a.753.753,0,0,0-.22-.53Z"/>
    <path d="M5,6.2a.755.755,0,1,0,.529.221A.749.749,0,0,0,5,6.2Z"/>
    <path d="M5,28.3a.748.748,0,1,0,.529.217A.749.749,0,0,0,5,28.3Z"/>
    <path d="M5,16.02a.748.748,0,1,0,.529.217A.749.749,0,0,0,5,16.02Z"/>
    <path d="M5,23.39a.748.748,0,0,0-.75.75.734.734,0,0,0,.221.524.756.756,0,0,0,1.058,0,.734.734,0,0,0,.221-.524A.748.748,0,0,0,5,23.39Z"/>
    <path d="M5,13.57a.748.748,0,0,0-.75.75.734.734,0,0,0,.221.524.756.756,0,0,0,1.058,0,.734.734,0,0,0,.221-.524A.748.748,0,0,0,5,13.57Z"/>
    <path d="M5,18.48a.749.749,0,0,0-.75.75.729.729,0,0,0,.221.523.753.753,0,0,0,1.058,0,.729.729,0,0,0,.221-.523A.749.749,0,0,0,5,18.48Z"/>
    <path d="M5,25.84a.755.755,0,1,0,.529.221A.749.749,0,0,0,5,25.84Z"/>
    <path d="M5,8.66a.748.748,0,0,0-.75.75.734.734,0,0,0,.221.524.756.756,0,0,0,1.058,0A.734.734,0,0,0,5.75,9.41.748.748,0,0,0,5,8.66Z"/>
    <path d="M5,11.11a.755.755,0,1,0,.529.221A.749.749,0,0,0,5,11.11Z"/>
    <path d="M5,20.93a.755.755,0,1,0,.529.221A.749.749,0,0,0,5,20.93Z"/>
    <path d="M5.53,3.97A.729.729,0,0,0,5,3.76a.742.742,0,0,0-.7,1.027.764.764,0,0,0,.163.243A.753.753,0,0,0,5,5.25a.7.7,0,0,0,.145-.015A.888.888,0,0,0,5.29,5.19a.526.526,0,0,0,.127-.065A.849.849,0,0,0,5.53,5.03a.745.745,0,0,0,.162-.243A.749.749,0,0,0,5.53,3.97Z"/>
    <path d="M7.6,5.25a.755.755,0,1,0-.529-.221A.746.746,0,0,0,7.6,5.25Z"/>
    <path d="M10.2,5.25a.748.748,0,1,0-.533-.221A.751.751,0,0,0,10.2,5.25Z"/>
    <path d="M12.8,5.25a.755.755,0,1,0-.529-.221A.751.751,0,0,0,12.8,5.25Z"/>
    <path d="M15.4,5.25a.748.748,0,1,0-.533-.221A.751.751,0,0,0,15.4,5.25Z"/>
    <path d="M18,5.25a.755.755,0,1,0-.529-.221A.751.751,0,0,0,18,5.25Z"/>
    <path d="M23.2,5.25a.748.748,0,1,0-.533-.221A.751.751,0,0,0,23.2,5.25Z"/>
    <path d="M20.6,5.25a.755.755,0,1,0-.529-.221A.746.746,0,0,0,20.6,5.25Z"/>
    <path d="M28.4,3.75a.755.755,0,1,0,.529.221A.748.748,0,0,0,28.4,3.75Z"/>
    <path d="M25.8,5.25a.755.755,0,1,0-.529-.221A.751.751,0,0,0,25.8,5.25Z"/>
    <path d="M30.47,5.03a.753.753,0,0,0,.53.22.7.7,0,0,0,.145-.015.888.888,0,0,0,.145-.045.526.526,0,0,0,.127-.065.849.849,0,0,0,.113-.095.745.745,0,0,0,.162-.243.749.749,0,0,0-.162-.817.774.774,0,0,0-1.06,0,.748.748,0,0,0,0,1.06Z"/>
    <path d="M31,18.48a.749.749,0,1,0,.529.218A.745.745,0,0,0,31,18.48Z"/>
    <path d="M31,16.02a.744.744,0,0,0-.533.222.766.766,0,0,0-.217.538.734.734,0,0,0,.217.524.761.761,0,0,0,1.062,0,.734.734,0,0,0,.221-.524.765.765,0,0,0-.221-.538A.747.747,0,0,0,31,16.02Z"/>
    <path d="M31,20.93a.744.744,0,0,0-.533.222.766.766,0,0,0-.217.538.73.73,0,0,0,.217.523.758.758,0,0,0,1.062,0,.729.729,0,0,0,.221-.523.765.765,0,0,0-.221-.538A.747.747,0,0,0,31,20.93Z"/>
    <path d="M31,13.57a.748.748,0,1,0,.529.217A.748.748,0,0,0,31,13.57Z"/>
    <path d="M31,6.2a.744.744,0,0,0-.533.222.766.766,0,0,0-.217.538.73.73,0,0,0,.217.523.758.758,0,0,0,1.062,0,.729.729,0,0,0,.221-.523.765.765,0,0,0-.221-.538A.747.747,0,0,0,31,6.2Z"/>
    <path d="M31,8.66a.755.755,0,1,0,.529.221A.748.748,0,0,0,31,8.66Z"/>
    <path d="M31,23.39a.755.755,0,1,0,.529.221A.748.748,0,0,0,31,23.39Z"/>
    <path d="M31,28.3a.748.748,0,1,0,.529.217A.748.748,0,0,0,31,28.3Z"/>
    <path d="M31,11.11a.744.744,0,0,0-.533.222.766.766,0,0,0-.217.538.734.734,0,0,0,.217.524.761.761,0,0,0,1.062,0,.734.734,0,0,0,.221-.524.765.765,0,0,0-.221-.538A.747.747,0,0,0,31,11.11Z"/>
    <path d="M31,25.84a.744.744,0,0,0-.533.222.766.766,0,0,0-.217.538.734.734,0,0,0,.217.524.761.761,0,0,0,1.062,0,.734.734,0,0,0,.221-.524.765.765,0,0,0-.221-.538A.747.747,0,0,0,31,25.84Z"/>
  </g>
</svg>
