<svg id="Icons" xmlns="http://www.w3.org/2000/svg" viewBox="0 0 36 36"><title>Icon-Red_Hat-Diagrams-Community_People-A-Black-RGB</title><path d="M13.23,15.77a5.75,5.75,0,0,1,9.56,0,.73.73,0,0,0,.62.33.79.79,0,0,0,.42-.12A.76.76,0,0,0,24,15a7.24,7.24,0,0,0-3.41-2.74,4,4,0,1,0-5.26,0A7.31,7.31,0,0,0,12,14.93a.75.75,0,1,0,1.24.84ZM15.5,9.23a2.5,2.5,0,1,1,2.5,2.5A2.51,2.51,0,0,1,15.5,9.23Z"/><path d="M15.36,18.23a.75.75,0,0,0,0,1.5h5.28a.75.75,0,0,0,0-1.5Z"/><path d="M28.62,23.23a4,4,0,1,0-5.24,0A7.26,7.26,0,0,0,18.75,30a.75.75,0,0,0,.75.75h13a.75.75,0,0,0,.75-.75A7.26,7.26,0,0,0,28.62,23.23Zm-5.12-3a2.5,2.5,0,1,1,2.5,2.5A2.51,2.51,0,0,1,23.5,20.23Zm-3.2,9a5.75,5.75,0,0,1,11.4,0Z"/><path d="M12.62,23.23a4,4,0,1,0-5.24,0A7.26,7.26,0,0,0,2.75,30a.75.75,0,0,0,.75.75h13a.75.75,0,0,0,.75-.75A7.26,7.26,0,0,0,12.62,23.23Zm-5.12-3a2.5,2.5,0,1,1,2.5,2.5A2.51,2.51,0,0,1,7.5,20.23Zm-3.2,9a5.75,5.75,0,0,1,11.4,0Z"/></svg>