<svg id="f6e01b57-b909-42c9-a347-a4d40533d0b5" data-name="Layer 1" xmlns="http://www.w3.org/2000/svg" viewBox="0 0 36 36">
  <title>Icon-Red_Hat-Mobile_devices-A-Black-RGB</title>
  <g>
    <path d="M16,24.25H12a.75.75,0,0,0,0,1.5h4a.75.75,0,0,0,0-1.5Z"/>
    <path d="M13.47,7.53a.753.753,0,0,0,.53.22.729.729,0,0,0,.148-.015.691.691,0,0,0,.142-.045.526.526,0,0,0,.127-.065.849.849,0,0,0,.113-.095.745.745,0,0,0,.162-.243A.736.736,0,0,0,14.75,7a.693.693,0,0,0-.015-.145.859.859,0,0,0-.045-.145.922.922,0,0,0-.069-.128.687.687,0,0,0-.091-.112.774.774,0,0,0-1.06,0,.748.748,0,0,0,0,1.06Z"/>
    <path d="M31.53,12.47a.745.745,0,0,0-.53-.22H23.75V4A.751.751,0,0,0,23,3.25H5A.751.751,0,0,0,4.25,4V28a.751.751,0,0,0,.75.75H19.167V32a.751.751,0,0,0,.75.75H31a.751.751,0,0,0,.75-.75V13A.745.745,0,0,0,31.53,12.47Zm-12.143,0a.745.745,0,0,0-.22.53V27.25H5.75V4.75h16.5v7.5H19.917A.745.745,0,0,0,19.387,12.47ZM30.25,22.5v8.75H20.667V13.75H30.25Z"/>
    <path d="M24.835,14.957a.584.584,0,0,0-.065.133.682.682,0,0,0-.045.141.746.746,0,0,0-.015.149.688.688,0,0,0,.015.14.713.713,0,0,0,.045.14.558.558,0,0,0,.065.132.682.682,0,0,0,.095.118.751.751,0,0,0,1.06,0,.618.618,0,0,0,.091-.118,1.1,1.1,0,0,0,.069-.132.713.713,0,0,0,.045-.14.688.688,0,0,0,.015-.14.746.746,0,0,0-.015-.149.682.682,0,0,0-.045-.141,1.2,1.2,0,0,0-.069-.133.644.644,0,0,0-.091-.117.771.771,0,0,0-.53-.206.736.736,0,0,0-.53.206A.715.715,0,0,0,24.835,14.957Z"/>
    <path d="M23.875,28.875a.75.75,0,0,0,0,1.5h3.167a.75.75,0,0,0,0-1.5H23.875Z"/>
  </g>
</svg>
