<svg id="a33153e1-5d84-4cc6-b89f-2dfb5b71440f" data-name="Layer 1" xmlns="http://www.w3.org/2000/svg" viewBox="0 0 36 36">
  <title>Icon-Red_Hat-Hardware-Virtual_Storage_Stack-A-Black-RGB</title>
  <g>
    <path d="M27.75,20.481v-7.5c0-1.612-1.07-3.05-2.825-4.084A13.842,13.842,0,0,0,18,7.231,13.842,13.842,0,0,0,11.075,8.9C9.32,9.931,8.25,11.369,8.25,12.981v10c0,1.612,1.07,3.049,2.825,4.084A13.852,13.852,0,0,0,18,28.731a13.852,13.852,0,0,0,6.925-1.666c1.755-1.035,2.825-2.472,2.825-4.084Zm-1.5,1.548v.952c0,1.152-.945,2.214-2.448,2.989A13,13,0,0,1,18,27.231a13,13,0,0,1-5.8-1.261C10.7,25.2,9.75,24.133,9.75,22.981v-1.9A9.264,9.264,0,0,0,13.2,23.006a15.512,15.512,0,0,0,4.8.725,15.512,15.512,0,0,0,4.8-.725,9.264,9.264,0,0,0,3.447-1.929Zm0-5v.952c0,1.152-.945,2.214-2.448,2.989A13,13,0,0,1,18,22.231a13,13,0,0,1-5.8-1.261C10.7,20.2,9.75,19.133,9.75,17.981v-1.9A9.264,9.264,0,0,0,13.2,18.006a15.512,15.512,0,0,0,4.8.725,15.512,15.512,0,0,0,4.8-.725,9.264,9.264,0,0,0,3.447-1.929ZM23.8,15.97A13,13,0,0,1,18,17.231a13,13,0,0,1-5.8-1.261C10.7,15.2,9.75,14.133,9.75,12.981S10.7,10.766,12.2,9.992A12.981,12.981,0,0,1,18,8.731a12.981,12.981,0,0,1,5.8,1.261c1.5.774,2.448,1.837,2.448,2.989S25.305,15.2,23.8,15.97Z"/>
    <path d="M6.633,24.165a.734.734,0,0,0,.157-.55.762.762,0,0,0-.84-.66.739.739,0,0,0-.5.285A.757.757,0,0,0,5.3,23.8a.73.73,0,0,0,.246.473.753.753,0,0,0,.494.187h.045a.171.171,0,0,0,.045-.009A.762.762,0,0,0,6.633,24.165Z"/>
    <path d="M6,19.385a.755.755,0,1,0-.529-.221A.749.749,0,0,0,6,19.385Z"/>
    <path d="M11.334,6.7a.774.774,0,0,0,.426.126.784.784,0,0,0,.132-.01.548.548,0,0,0,.139-.04.743.743,0,0,0,.408-.4.756.756,0,0,0,.011-.575.75.75,0,0,0-1.387-.03.736.736,0,0,0,.271.924Z"/>
    <path d="M6,16.845a.755.755,0,1,0-.529-.221A.749.749,0,0,0,6,16.845Z"/>
    <path d="M6,21.925a.745.745,0,0,0,.529-.222.765.765,0,0,0,.221-.538.75.75,0,0,0-1.5,0,.765.765,0,0,0,.221.538A.745.745,0,0,0,6,21.925Z"/>
    <path d="M7.33,9.59a.756.756,0,0,0,.26.045A.744.744,0,0,0,7.9,9.569a.772.772,0,0,0,.263-.194.747.747,0,0,0-.09-1.06.738.738,0,0,0-.54-.181.752.752,0,0,0-.687.806.756.756,0,0,0,.258.515A.732.732,0,0,0,7.33,9.59Z"/>
    <path d="M6,14.305a.748.748,0,1,0-.529-.217A.749.749,0,0,0,6,14.305Z"/>
    <path d="M6.08,11.776c.04.01.08.02.12.027a.612.612,0,0,0,.12.013.742.742,0,0,0,.43-.139.771.771,0,0,0,.28-.371.768.768,0,0,0-.47-.96.745.745,0,0,0-.569.04.768.768,0,0,0-.381.43.733.733,0,0,0,.033.573A.769.769,0,0,0,6.08,11.776Z"/>
    <path d="M9.144,7.888a.768.768,0,0,0,.356.087.744.744,0,0,0,.209-.03.816.816,0,0,0,.2-.09.763.763,0,0,0,.32-.475A.73.73,0,0,0,9.652,6.5a.759.759,0,0,0-.889.578.755.755,0,0,0,.381.813Z"/>
    <path d="M28.95,11.245a.751.751,0,0,0,.28.367.759.759,0,0,0,.43.133.63.63,0,0,0,.121-.013,1.215,1.215,0,0,0,.129-.037.751.751,0,0,0,.065-1.382.723.723,0,0,0-.565-.028.748.748,0,0,0-.46.96Z"/>
    <path d="M26.03,7.816a.823.823,0,0,0,.2.09.737.737,0,0,0,.208.03.761.761,0,0,0,.357-.088A.723.723,0,0,0,27.07,7.6a.743.743,0,0,0,.108-.565.745.745,0,0,0-.893-.574.764.764,0,0,0-.475.329.753.753,0,0,0,.22,1.03Z"/>
    <path d="M29.471,12.957A.744.744,0,1,0,30,12.736.749.749,0,0,0,29.471,12.957Z"/>
    <path d="M19.181,5.765h.05a.757.757,0,0,0,.516-.2.732.732,0,0,0,.234-.5.74.74,0,0,0-.186-.542.758.758,0,0,0-.514-.258.768.768,0,0,0-.547.19.751.751,0,0,0-.065,1.062A.729.729,0,0,0,19.181,5.765Z"/>
    <path d="M13.714,5.947a.746.746,0,0,0,.467.168.546.546,0,0,0,.079-.006l.08-.014a.751.751,0,1,0-.787-1.145.735.735,0,0,0-.1.565A.748.748,0,0,0,13.714,5.947Z"/>
    <path d="M23.91,6.756a1.123,1.123,0,0,0,.135.036.7.7,0,0,0,.136.014.733.733,0,0,0,.417-.133.792.792,0,0,0,.282-.357.742.742,0,0,0-.43-.96.745.745,0,0,0-.97.43.738.738,0,0,0,.013.571A.747.747,0,0,0,23.91,6.756Z"/>
    <path d="M21.59,6.086a.658.658,0,0,0,.084.008c.026,0,.051,0,.076,0a.748.748,0,0,0,.466-.165.748.748,0,0,0-.325-1.315.726.726,0,0,0-.561.106.745.745,0,0,0-.32.474.762.762,0,0,0,.58.89Z"/>
    <path d="M16.7,5.776h.05a.75.75,0,0,0,.69-.8.742.742,0,0,0-.79-.7.762.762,0,0,0-.519.253.744.744,0,0,0-.181.547.729.729,0,0,0,.233.5A.756.756,0,0,0,16.7,5.776Z"/>
    <path d="M7.051,25.352a.759.759,0,0,0-.57.083.746.746,0,0,0-.341.459.731.731,0,0,0,.36.838.778.778,0,0,0,.37.093.8.8,0,0,0,.194-.023.747.747,0,0,0,.186-.077.73.73,0,0,0,.344-.459A.767.767,0,0,0,7.51,25.7.734.734,0,0,0,7.051,25.352Z"/>
    <path d="M30.05,22.885a.777.777,0,0,0-.558.162.718.718,0,0,0-.272.5.748.748,0,0,0,.157.558.733.733,0,0,0,.5.272.344.344,0,0,1,.045,0,.23.23,0,0,0,.045.005.743.743,0,0,0,.494-.192.752.752,0,0,0,.246-.478.768.768,0,0,0-.161-.55A.75.75,0,0,0,30.05,22.885Z"/>
    <path d="M28.861,9.4a.751.751,0,0,0-.991-1.13.736.736,0,0,0-.252.511.77.77,0,0,0,.182.549.726.726,0,0,0,.258.188.747.747,0,0,0,.3.062.769.769,0,0,0,.26-.045A.846.846,0,0,0,28.861,9.4Z"/>
    <path d="M27.6,27.2a.754.754,0,0,0-.625,1.242.725.725,0,0,0,.262.189.8.8,0,0,0,.308.061.759.759,0,0,0,.256-.045.744.744,0,0,0,.234-.135A.759.759,0,0,0,28.287,28a.733.733,0,0,0-.692-.8Z"/>
    <path d="M29.54,25.375a.74.74,0,0,0-1.02.27.733.733,0,0,0-.078.563.749.749,0,0,0,.348.457.708.708,0,0,0,.186.076.753.753,0,0,0,.194.024.763.763,0,0,0,.367-.095.732.732,0,0,0,.283-.275.763.763,0,0,0,.07-.57A.729.729,0,0,0,29.54,25.375Z"/>
    <path d="M30,20.345a.756.756,0,1,0,.529.222A.745.745,0,0,0,30,20.345Z"/>
    <path d="M30,15.276a.748.748,0,1,0,.529.217A.749.749,0,0,0,30,15.276Z"/>
    <path d="M30,17.816a.748.748,0,1,0,.529.217A.749.749,0,0,0,30,17.816Z"/>
    <path d="M25.662,28.639a.746.746,0,0,0-.891,1.056.736.736,0,0,0,.278.3.756.756,0,0,0,.392.107.671.671,0,0,0,.169-.022.764.764,0,0,0,.17-.068.732.732,0,0,0,.367-.434.741.741,0,0,0-.485-.942Z"/>
    <path d="M10.96,28.716a.749.749,0,0,0-1.045.9.757.757,0,0,0,.375.438.886.886,0,0,0,.166.058.721.721,0,0,0,.174.022.756.756,0,0,0,.388-.109.752.752,0,0,0,.319-.879A.744.744,0,0,0,10.96,28.716Z"/>
    <path d="M8.452,27.248a.755.755,0,0,0-.512.258.759.759,0,0,0,.318,1.2.723.723,0,0,0,.251.045.771.771,0,0,0,.571-.26.75.75,0,0,0-.628-1.238Z"/>
    <path d="M13.2,29.586a.743.743,0,0,0-.574.06.76.76,0,0,0-.3,1.02.764.764,0,0,0,.45.36.785.785,0,0,0,.105.022.723.723,0,0,0,.548-.142.737.737,0,0,0,.21-.964A.733.733,0,0,0,13.2,29.586Z"/>
    <path d="M18.07,30.236H18a.749.749,0,0,0-.532.216.735.735,0,0,0-.218.524.762.762,0,0,0,.218.537.739.739,0,0,0,.532.223v-.01h.07a.747.747,0,0,0,.529-1.278A.725.725,0,0,0,18.07,30.236Z"/>
    <path d="M20.5,30.066a.739.739,0,0,0-.64.84.74.74,0,0,0,.25.467.75.75,0,0,0,.491.183h.1a.757.757,0,0,0,.5-.294.747.747,0,0,0-.7-1.2Z"/>
    <path d="M23.437,29.624a.76.76,0,0,0-1.017.3.748.748,0,0,0-.06.574.779.779,0,0,0,.274.39.739.739,0,0,0,.446.15.62.62,0,0,0,.105-.009A.464.464,0,0,0,23.29,31a.732.732,0,0,0,.45-.357.74.74,0,0,0,.06-.573A.753.753,0,0,0,23.437,29.624Z"/>
    <path d="M15.57,30.075a.742.742,0,0,0-.556.144.756.756,0,0,0,.356,1.346h.1a.743.743,0,0,0,.741-.65.738.738,0,0,0-.64-.84Z"/>
  </g>
</svg>
