<?xml version="1.0" encoding="utf-8"?>
<!-- Generator: Adobe Illustrator 19.1.0, SVG Export Plug-In . SVG Version: 6.00 Build 0)  -->
<svg version="1.1" id="Layer_1" xmlns="http://www.w3.org/2000/svg" xmlns:xlink="http://www.w3.org/1999/xlink" x="0px" y="0px"
	 viewBox="0 0 32 32" enable-background="new 0 0 32 32" xml:space="preserve">
<g>
	<path fill="#010101" d="M7.314,12.683c0.027,0,0.055-0.005,0.082-0.016c0.185-0.073,0.373-0.15,0.558-0.226
		c0.113-0.047,0.168-0.177,0.121-0.29c-0.047-0.113-0.177-0.168-0.29-0.12c-0.183,0.076-0.368,0.151-0.552,0.223
		c-0.114,0.045-0.17,0.174-0.125,0.288C7.142,12.63,7.225,12.683,7.314,12.683z"/>
	<path fill="#010101" d="M8.695,12.109c0.03,0,0.059-0.006,0.088-0.018c0.202-0.087,0.388-0.169,0.55-0.24
		c0.112-0.05,0.163-0.181,0.114-0.293c-0.05-0.112-0.181-0.163-0.293-0.113c-0.161,0.071-0.346,0.152-0.547,0.239
		c-0.113,0.049-0.164,0.18-0.116,0.292C8.527,12.059,8.609,12.109,8.695,12.109z"/>
	<path fill="#010101" d="M11.571,11.452h0.601c0.123,0,0.222-0.1,0.222-0.222c0-0.123-0.1-0.222-0.222-0.222h-0.601
		c-0.123,0-0.222,0.1-0.222,0.222C11.348,11.353,11.448,11.452,11.571,11.452z"/>
	<path fill="#010101" d="M10.076,11.538c0.015,0,0.031-0.002,0.047-0.005c0.149-0.032,0.337-0.054,0.56-0.067
		c0.122-0.007,0.216-0.112,0.209-0.235c-0.007-0.122-0.115-0.219-0.235-0.209c-0.245,0.014-0.456,0.04-0.627,0.076
		c-0.12,0.026-0.196,0.144-0.171,0.264C9.881,11.466,9.973,11.538,10.076,11.538z"/>
	<path fill="#010101" d="M5.786,19.269c0.123-0.005,0.218-0.11,0.212-0.232c-0.003-0.072-0.005-0.145-0.005-0.221v-0.367
		c0-0.123-0.1-0.222-0.222-0.222c-0.123,0-0.222,0.1-0.222,0.222v0.366c0,0.082,0.001,0.163,0.005,0.242
		c0.005,0.119,0.104,0.212,0.222,0.212C5.779,19.269,5.782,19.269,5.786,19.269z"/>
	<path fill="#010101" d="M5.77,14.881c0.123,0,0.222-0.1,0.222-0.222l-0.001-0.194c0-0.126,0.001-0.255,0.012-0.385
		c0.01-0.122-0.081-0.23-0.203-0.24c-0.125-0.008-0.23,0.081-0.24,0.203c-0.012,0.142-0.014,0.284-0.014,0.422l0.001,0.194
		C5.548,14.782,5.648,14.881,5.77,14.881z"/>
	<path fill="#010101" d="M6.375,12.628C6.169,12.755,6,12.911,5.874,13.091c-0.071,0.1-0.047,0.239,0.054,0.31
		c0.039,0.027,0.083,0.041,0.128,0.041c0.07,0,0.139-0.033,0.182-0.094c0.093-0.132,0.215-0.244,0.372-0.341
		c0.104-0.065,0.137-0.202,0.072-0.306C6.616,12.596,6.479,12.564,6.375,12.628z"/>
	<path fill="#010101" d="M6.146,19.844c-0.045-0.115-0.174-0.171-0.288-0.126c-0.114,0.045-0.171,0.173-0.126,0.288
		c0.09,0.232,0.218,0.426,0.38,0.577c0.043,0.04,0.097,0.06,0.152,0.06c0.059,0,0.119-0.024,0.163-0.071
		c0.084-0.09,0.079-0.23-0.011-0.314C6.301,20.151,6.213,20.015,6.146,19.844z"/>
	<path fill="#010101" d="M5.993,15.458c0-0.123-0.1-0.222-0.222-0.222c-0.123,0-0.222,0.1-0.222,0.222v0.598
		c0,0.123,0.1,0.222,0.222,0.222c0.123,0,0.222-0.1,0.222-0.222V15.458z"/>
	<path fill="#010101" d="M5.77,16.731c-0.123,0-0.222,0.1-0.222,0.222v0.598c0,0.123,0.1,0.222,0.222,0.222
		c0.123,0,0.222-0.1,0.222-0.222v-0.598C5.993,16.831,5.893,16.731,5.77,16.731z"/>
	<path fill="#010101" d="M7.678,20.548H7.322c-0.078,0-0.152-0.003-0.223-0.011c-0.119-0.012-0.231,0.076-0.244,0.198
		s0.076,0.231,0.198,0.244c0.085,0.009,0.174,0.013,0.269,0.013h0.356c0.123,0,0.222-0.1,0.222-0.222
		C7.9,20.647,7.8,20.548,7.678,20.548z"/>
	<path fill="#010101" d="M23.351,11.98l0.536,0.264c0.032,0.016,0.065,0.023,0.098,0.023c0.082,0,0.161-0.045,0.199-0.124
		c0.054-0.11,0.01-0.243-0.101-0.298l-0.538-0.264c-0.11-0.054-0.243-0.008-0.297,0.102C23.195,11.793,23.24,11.926,23.351,11.98z"
		/>
	<path fill="#010101" d="M20.567,11.452h0.6c0.123,0,0.222-0.1,0.222-0.222c0-0.123-0.1-0.222-0.222-0.222h-0.6
		c-0.123,0-0.222,0.1-0.222,0.222C20.345,11.353,20.444,11.452,20.567,11.452z"/>
	<path fill="#010101" d="M22.053,11.457c0.172,0.011,0.293,0.044,0.497,0.135c0.03,0.013,0.06,0.019,0.091,0.019
		c0.085,0,0.166-0.049,0.203-0.131c0.05-0.112,0-0.243-0.112-0.294c-0.216-0.097-0.392-0.156-0.649-0.173
		c-0.122-0.007-0.228,0.085-0.236,0.207C21.838,11.343,21.931,11.449,22.053,11.457z"/>
	<path fill="#010101" d="M24.689,12.643c0.205,0.104,0.389,0.198,0.529,0.272c0.033,0.018,0.069,0.026,0.104,0.026
		c0.08,0,0.157-0.043,0.197-0.118c0.057-0.109,0.016-0.243-0.093-0.3c-0.142-0.075-0.328-0.171-0.536-0.276
		c-0.11-0.056-0.243-0.011-0.299,0.098C24.536,12.454,24.58,12.588,24.689,12.643z"/>
	<path fill="#010101" d="M25.98,13.885c0.018,0.108,0.112,0.185,0.219,0.185c0.012,0,0.025-0.001,0.037-0.003
		c0.121-0.02,0.203-0.135,0.182-0.256c-0.041-0.239-0.118-0.454-0.23-0.638c-0.064-0.104-0.201-0.138-0.306-0.074
		c-0.105,0.064-0.138,0.201-0.074,0.305C25.891,13.54,25.949,13.701,25.98,13.885z"/>
	<path fill="#010101" d="M17.568,11.452h0.6c0.123,0,0.222-0.1,0.222-0.222c0-0.123-0.1-0.222-0.222-0.222h-0.6
		c-0.123,0-0.222,0.1-0.222,0.222C17.346,11.353,17.446,11.452,17.568,11.452z"/>
	<path fill="#010101" d="M14.57,11.452h0.6c0.123,0,0.222-0.1,0.222-0.222c0-0.123-0.1-0.222-0.222-0.222h-0.6
		c-0.123,0-0.222,0.1-0.222,0.222C14.348,11.353,14.448,11.452,14.57,11.452z"/>
	<path fill="#010101" d="M16.069,11.452h0.599c0.123,0,0.222-0.1,0.222-0.222c0-0.123-0.1-0.222-0.222-0.222h-0.599
		c-0.123,0-0.222,0.1-0.222,0.222C15.847,11.353,15.946,11.452,16.069,11.452z"/>
	<path fill="#010101" d="M19.067,11.452h0.6c0.123,0,0.222-0.1,0.222-0.222c0-0.123-0.1-0.222-0.222-0.222h-0.6
		c-0.123,0-0.222,0.1-0.222,0.222C18.845,11.353,18.944,11.452,19.067,11.452z"/>
	<path fill="#010101" d="M13.071,11.452h0.6c0.123,0,0.222-0.1,0.222-0.222c0-0.123-0.1-0.222-0.222-0.222h-0.6
		c-0.123,0-0.222,0.1-0.222,0.222C12.849,11.353,12.948,11.452,13.071,11.452z"/>
	<path fill="#010101" d="M26.23,17.516c-0.123,0-0.222,0.1-0.222,0.222v0.599c0,0.123,0.1,0.222,0.222,0.222
		c0.123,0,0.222-0.1,0.222-0.222v-0.599C26.452,17.615,26.353,17.516,26.23,17.516z"/>
	<path fill="#010101" d="M24.175,20.548h-0.601c-0.123,0-0.222,0.1-0.222,0.222c0,0.123,0.1,0.222,0.222,0.222h0.601
		c0.123,0,0.222-0.1,0.222-0.222C24.397,20.647,24.297,20.548,24.175,20.548z"/>
	<path fill="#010101" d="M25.487,20.361c-0.14,0.107-0.288,0.171-0.429,0.184c-0.122,0.011-0.212,0.12-0.201,0.242
		c0.011,0.115,0.108,0.202,0.221,0.202c0.007,0,0.014,0,0.021-0.001c0.224-0.021,0.452-0.115,0.659-0.274
		c0.097-0.075,0.115-0.214,0.041-0.312C25.724,20.305,25.584,20.287,25.487,20.361z"/>
	<path fill="#010101" d="M22.673,20.548h-0.6c-0.123,0-0.222,0.1-0.222,0.222c0,0.123,0.1,0.222,0.222,0.222h0.6
		c0.123,0,0.222-0.1,0.222-0.222C22.895,20.647,22.796,20.548,22.673,20.548z"/>
	<path fill="#010101" d="M26.23,16.018c-0.123,0-0.222,0.1-0.222,0.222v0.599c0,0.123,0.1,0.222,0.222,0.222
		c0.123,0,0.222-0.1,0.222-0.222v-0.599C26.452,16.118,26.353,16.018,26.23,16.018z"/>
	<path fill="#010101" d="M26.23,14.521c-0.123,0-0.222,0.1-0.222,0.222v0.599c0,0.123,0.1,0.222,0.222,0.222
		c0.123,0,0.222-0.1,0.222-0.222v-0.599C26.452,14.621,26.353,14.521,26.23,14.521z"/>
	<path fill="#010101" d="M9.18,20.548H8.579c-0.123,0-0.222,0.1-0.222,0.222c0,0.123,0.1,0.222,0.222,0.222H9.18
		c0.123,0,0.222-0.1,0.222-0.222C9.402,20.647,9.302,20.548,9.18,20.548z"/>
	<path fill="#010101" d="M21.173,20.548h-0.6c-0.123,0-0.222,0.1-0.222,0.222c0,0.123,0.1,0.222,0.222,0.222h0.6
		c0.123,0,0.222-0.1,0.222-0.222C21.395,20.647,21.295,20.548,21.173,20.548z"/>
	<path fill="#010101" d="M26.23,19.014c-0.123,0-0.222,0.1-0.222,0.222v0.193c0,0.094-0.023,0.203-0.066,0.316
		c-0.044,0.115,0.014,0.243,0.128,0.287c0.026,0.01,0.053,0.014,0.079,0.014c0.089,0,0.174-0.054,0.208-0.143
		c0.063-0.165,0.095-0.325,0.095-0.475v-0.193C26.452,19.113,26.353,19.014,26.23,19.014z"/>
	<path fill="#010101" d="M19.674,20.548h-0.599c-0.123,0-0.222,0.1-0.222,0.222c0,0.123,0.1,0.222,0.222,0.222h0.599
		c0.123,0,0.222-0.1,0.222-0.222C19.896,20.647,19.796,20.548,19.674,20.548z"/>
	<path fill="#010101" d="M12.179,20.548h-0.6c-0.123,0-0.222,0.1-0.222,0.222c0,0.123,0.1,0.222,0.222,0.222h0.6
		c0.123,0,0.222-0.1,0.222-0.222C12.402,20.647,12.302,20.548,12.179,20.548z"/>
	<path fill="#010101" d="M15.177,20.548h-0.6c-0.123,0-0.222,0.1-0.222,0.222c0,0.123,0.1,0.222,0.222,0.222h0.6
		c0.123,0,0.222-0.1,0.222-0.222C15.399,20.647,15.299,20.548,15.177,20.548z"/>
	<path fill="#010101" d="M10.68,20.548h-0.6c-0.123,0-0.222,0.1-0.222,0.222c0,0.123,0.1,0.222,0.222,0.222h0.6
		c0.123,0,0.222-0.1,0.222-0.222C10.902,20.647,10.803,20.548,10.68,20.548z"/>
	<path fill="#010101" d="M13.678,20.548h-0.599c-0.123,0-0.222,0.1-0.222,0.222c0,0.123,0.1,0.222,0.222,0.222h0.599
		c0.123,0,0.222-0.1,0.222-0.222C13.901,20.647,13.801,20.548,13.678,20.548z"/>
	<path fill="#010101" d="M16.676,20.548h-0.6c-0.123,0-0.222,0.1-0.222,0.222c0,0.123,0.1,0.222,0.222,0.222h0.6
		c0.123,0,0.222-0.1,0.222-0.222C16.898,20.647,16.799,20.548,16.676,20.548z"/>
	<path fill="#010101" d="M18.175,20.548h-0.6c-0.123,0-0.222,0.1-0.222,0.222c0,0.123,0.1,0.222,0.222,0.222h0.6
		c0.123,0,0.222-0.1,0.222-0.222C18.397,20.647,18.298,20.548,18.175,20.548z"/>
	<path fill="#010101" d="M25.147,19.333v-5.125v-0.152c0-0.112-0.063-0.215-0.163-0.265l-2.778-1.395
		c-0.041-0.021-0.087-0.032-0.133-0.032H10.429c-0.04,0-0.08,0.008-0.117,0.024l-3.241,1.395c-0.109,0.047-0.179,0.154-0.179,0.272
		v0.152v5.125c0,0.164,0.133,0.296,0.296,0.296h17.663C25.015,19.63,25.147,19.497,25.147,19.333z M10.49,12.957h11.512l1.902,0.955
		H8.272L10.49,12.957z M24.555,19.037H7.484v-4.532h17.07V19.037z"/>
	<circle fill="#010101" cx="9.072" cy="16.784" r="0.438"/>
	<circle fill="#010101" cx="10.551" cy="16.784" r="0.438"/>
	<path fill="#010101" d="M20.775,18.112h0.933c0.082,0,0.148-0.066,0.148-0.148v-2.417c0-0.082-0.066-0.148-0.148-0.148h-0.933
		c-0.082,0-0.148,0.066-0.148,0.148v2.417C20.627,18.046,20.693,18.112,20.775,18.112z M20.923,15.695h0.636v2.12h-0.636V15.695z"/>
	<path fill="#010101" d="M22.602,18.112h0.933c0.082,0,0.148-0.066,0.148-0.148v-2.417c0-0.082-0.066-0.148-0.148-0.148h-0.933
		c-0.082,0-0.148,0.066-0.148,0.148v2.417C22.453,18.046,22.52,18.112,22.602,18.112z M22.75,15.695h0.636v2.12H22.75V15.695z"/>
</g>
</svg>
