<svg id="a8b435a0-6fcf-44ac-a36e-f2119fdf854d" data-name="Layer 1" xmlns="http://www.w3.org/2000/svg" viewBox="0 0 36 36">
  <title>Icon-Red_Hat-Simplify-A-Black-RGB</title>
  <path d="M30.031,17.47,28.855,16.3,27.68,15.12a.75.75,0,0,0-1.06,1.061l.535.535.535.534H25.5c-3.916-.013-6.614-.784-8.468-1.9a7.881,7.881,0,0,1-3.4-3.955,2.793,2.793,0,0,0,1.033-.986A2.694,2.694,0,0,0,15.063,9a2.751,2.751,0,1,0-2.9,2.734,9.185,9.185,0,0,0,1.75,2.983A10.227,10.227,0,0,0,17.4,17.25H11.133a2.783,2.783,0,0,0-.97-1.431A2.7,2.7,0,0,0,8.5,15.25a2.75,2.75,0,0,0,0,5.5,2.7,2.7,0,0,0,1.663-.569,2.783,2.783,0,0,0,.97-1.431H17.4a10.225,10.225,0,0,0-3.484,2.53,9.231,9.231,0,0,0-1.751,2.986,2.757,2.757,0,0,0-1.84.848,2.75,2.75,0,1,0,4.346.475,2.8,2.8,0,0,0-1.034-.986,7.881,7.881,0,0,1,3.408-3.959c1.855-1.112,4.552-1.88,8.462-1.894H27.69l-.535.534-.535.535a.752.752,0,0,0,0,1.061.758.758,0,0,0,.248.165.753.753,0,0,0,.565,0,.754.754,0,0,0,.247-.165L28.855,19.7l1.176-1.175a.751.751,0,0,0,0-1.06ZM13.2,9.883A1.248,1.248,0,1,1,13.563,9,1.244,1.244,0,0,1,13.2,9.883Zm-3.813,9A1.248,1.248,0,1,1,9.75,18,1.246,1.246,0,0,1,9.384,18.883Zm3.813,9A1.248,1.248,0,1,1,13.563,27,1.244,1.244,0,0,1,13.2,27.883Z"/>
</svg>
