<svg id="Icons" xmlns="http://www.w3.org/2000/svg" viewBox="0 0 36 36"><title>Icon-Red_Hat-Hardware-Router_Load_Balancer-A-Black-RGB</title><path d="M28.48,18.53a.78.78,0,0,0,.24.16.72.72,0,0,0,.29.06.77.77,0,0,0,.52-.22.73.73,0,0,0,.17-.82.81.81,0,0,0-.17-.24.7.7,0,0,0-.24-.17.8.8,0,0,0-.57,0,.7.7,0,0,0-.24.17.81.81,0,0,0-.17.24.87.87,0,0,0,0,.58A.81.81,0,0,0,28.48,18.53Z"/><path d="M32,14.25H4a.76.76,0,0,0-.75.75v7a.76.76,0,0,0,.75.75H32a.76.76,0,0,0,.75-.75V15A.76.76,0,0,0,32,14.25Zm-.75,7H4.75v-5.5h26.5Z"/><path d="M7,19.73A.75.75,0,0,0,7.75,19V18a.75.75,0,0,0-1.5,0v1A.75.75,0,0,0,7,19.73Z"/><path d="M10,19.73a.75.75,0,0,0,.75-.75V18a.75.75,0,0,0-1.5,0v1A.75.75,0,0,0,10,19.73Z"/><path d="M13,19.73a.75.75,0,0,0,.75-.75V18a.75.75,0,0,0-1.5,0v1A.75.75,0,0,0,13,19.73Z"/><path d="M16,19.73a.75.75,0,0,0,.75-.75V18a.75.75,0,0,0-1.5,0v1A.75.75,0,0,0,16,19.73Z"/><path d="M19,19.73a.75.75,0,0,0,.75-.75V18a.75.75,0,0,0-1.5,0v1A.75.75,0,0,0,19,19.73Z"/><path d="M22,19.73a.75.75,0,0,0,.75-.75V18a.75.75,0,0,0-1.5,0v1A.75.75,0,0,0,22,19.73Z"/></svg>