<svg id="Icons" xmlns="http://www.w3.org/2000/svg" viewBox="0 0 36 36"><title>Icon-Red_Hat-Signage-No_Smoking-A-Black-RGB</title><path d="M24.58,28.34a12.25,12.25,0,0,1-17-16.85.75.75,0,1,0-1.26-.81,13.74,13.74,0,0,0,19,18.92.74.74,0,0,0,.23-1A.76.76,0,0,0,24.58,28.34Z"/><path d="M18,4.27A13.71,13.71,0,0,0,8.47,8.09a.76.76,0,0,0,0,1.07l8.74,9.11H9a.75.75,0,0,0-.75.75v3a.76.76,0,0,0,.75.75H21.51l4.94,5.15a.75.75,0,0,0,1.06,0A13.75,13.75,0,0,0,18,4.27Zm-5.75,17H9.74v-1.5h2.5Zm1.5,0v-1.5h4.89l1.44,1.5Zm8.5,0h-.09l-1.44-1.5h1.53Zm4.75,5-3.56-3.7a.76.76,0,0,0,.31-.59V19a.75.75,0,0,0-.75-.75H19.27l-9.2-9.59A12.24,12.24,0,0,1,27,26.31Z"/><path d="M25.74,14c0,.17,0,.23-.28.47a2,2,0,0,0,0,3.06c.23.23.28.29.28.47s0,.23-.28.47A2,2,0,0,0,24.74,20a.75.75,0,0,0,1.5,0c0-.18.05-.24.28-.47a2,2,0,0,0,0-3.06c-.23-.24-.28-.3-.28-.47s.05-.24.28-.47A2,2,0,0,0,27.24,14a.75.75,0,0,0-1.5,0Z"/></svg>