<?xml version="1.0" encoding="utf-8"?>
<!-- Generator: Adobe Illustrator 19.1.0, SVG Export Plug-In . SVG Version: 6.00 Build 0)  -->
<svg version="1.1" id="Layer_1" xmlns="http://www.w3.org/2000/svg" xmlns:xlink="http://www.w3.org/1999/xlink" x="0px" y="0px"
	 viewBox="0 0 32 32" enable-background="new 0 0 32 32" xml:space="preserve">
<path fill="#010101" d="M29.036,17.321c-0.862-1.219-2.143-2.068-3.536-2.353c-0.828-2.5-3.203-4.966-6.745-4.966
	c-3.087,0-5.749,1.976-6.726,4.951c-1.133-0.433-2.46-0.367-3.617,0.192c-1.25,0.604-2.136,1.707-2.515,3.122
	c-1.68,0.102-3.52,1.16-4.021,3.371c-0.02,0.088,0.001,0.18,0.058,0.25c0.056,0.07,0.141,0.111,0.231,0.111h27.586
	c0.144,0,0.267-0.104,0.292-0.245C30.314,20.195,29.957,18.621,29.036,17.321z M25.222,15.519c1.308,0.22,2.522,1.002,3.331,2.144
	c0.78,1.102,1.111,2.423,0.944,3.743H2.553c0.64-1.987,2.519-2.546,3.58-2.556c0.137-0.001,0.256-0.097,0.286-0.231
	c0.302-1.342,1.101-2.386,2.25-2.941c1.088-0.526,2.398-0.548,3.418-0.056l0.097,0.052c0.515,0.269,0.961,0.64,1.289,1.075
	c0.044,0.058,0.11,0.088,0.178,0.088c0.047,0,0.094-0.015,0.134-0.045c0.098-0.074,0.117-0.213,0.043-0.311
	c-0.338-0.447-0.789-0.829-1.303-1.121c0.834-2.854,3.327-4.766,6.229-4.766c3.184,0,5.336,2.18,6.134,4.43
	c-0.592-0.073-1.181-0.056-1.754,0.063c-0.12,0.025-0.197,0.143-0.172,0.263c0.022,0.105,0.114,0.177,0.217,0.177
	c0.015,0,0.03-0.001,0.045-0.005c0.605-0.125,1.229-0.134,1.857-0.026L25.222,15.519z"/>
</svg>
