<?xml version="1.0" encoding="utf-8"?>
<!-- Generator: Adobe Illustrator 24.2.1, SVG Export Plug-In . SVG Version: 6.00 Build 0)  -->
<svg version="1.1" id="e4bf7314-6a99-4d49-9853-e1c5c0cca17b"
	 xmlns="http://www.w3.org/2000/svg" xmlns:xlink="http://www.w3.org/1999/xlink" x="0px" y="0px" viewBox="0 0 36 36"
	 style="enable-background:new 0 0 36 36;" xml:space="preserve">
<g>
	<path d="M9.344,12.325h-5c-0.414,0-0.75,0.336-0.75,0.75v5c0,0.414,0.336,0.75,0.75,0.75h5c0.414,0,0.75-0.336,0.75-0.75v-5
		C10.094,12.661,9.758,12.325,9.344,12.325z M8.594,17.325h-3.5v-3.5h3.5V17.325z"/>
	<path d="M20.344,20.324h-5c-0.414,0-0.75,0.336-0.75,0.75v5c0,0.414,0.336,0.75,0.75,0.75h5c0.414,0,0.75-0.336,0.75-0.75v-5
		C21.094,20.66,20.758,20.324,20.344,20.324z M19.594,25.324h-3.5v-3.5h3.5V25.324z"/>
	<path d="M15.184,18.825h5c0.414,0,0.75-0.336,0.75-0.75v-5c0-0.414-0.336-0.75-0.75-0.75h-5c-0.414,0-0.75,0.336-0.75,0.75v5
		C14.434,18.489,14.77,18.825,15.184,18.825z M15.934,13.825h3.5v3.5h-3.5V13.825z"/>
	<path d="M31.344,12.325h-5c-0.414,0-0.75,0.336-0.75,0.75v5c0,0.414,0.336,0.75,0.75,0.75h5c0.414,0,0.75-0.336,0.75-0.75v-5
		C32.094,12.661,31.758,12.325,31.344,12.325L31.344,12.325z M30.594,17.325h-3.5v-3.5h3.5V17.325z"/>
	<path d="M32.344,9.325h-8.25v-3.25c0-0.414-0.336-0.75-0.75-0.75s-0.75,0.336-0.75,0.75v3.25h-9.5v-3.25
		c0-0.414-0.336-0.75-0.75-0.75s-0.75,0.336-0.75,0.75v3.25h-8.25c-0.414,0-0.75,0.336-0.75,0.75s0.336,0.75,0.75,0.75h8.25v19.249
		c0,0.414,0.336,0.75,0.75,0.75s0.75-0.336,0.75-0.75V10.825h9.5v19.249c0,0.414,0.336,0.75,0.75,0.75s0.75-0.336,0.75-0.75V10.825
		h8.25c0.414,0,0.75-0.336,0.75-0.75S32.758,9.325,32.344,9.325z"/>
</g>
</svg>
