<svg id="bc1fac77-1043-44de-ba88-0773fbfb9b59" data-name="Layer 1" xmlns="http://www.w3.org/2000/svg" viewBox="0 0 36 36">
  <title>Icon-Red_Hat-No_drink-A-Black-RGB</title>
  <g>
    <path d="M27.723,8.277a13.725,13.725,0,0,0-19.446,0,.686.686,0,0,0,.116,1.138.721.721,0,0,0,.077.115l2.975,2.976A.745.745,0,0,0,12,13.75h.689l1.5,1.5H13a.751.751,0,0,0-.576.27.752.752,0,0,0-.162.614l1,5.5,1,5.5A.751.751,0,0,0,15,27.75h6a.751.751,0,0,0,.738-.616l.667-3.669L26.47,27.53a.721.721,0,0,0,.115.077.753.753,0,0,0,.077.116.751.751,0,0,0,.53.219.751.751,0,0,0,.531-.219,13.768,13.768,0,0,0,0-19.446ZM20.374,26.25H15.626l-.864-4.75L13.9,16.75h1.791l1.781,1.78,3.645,3.645Zm1.067-5.869L18.53,17.47l-.719-.72H22.1Zm5.724,5.724-4.434-4.434.007-.037,1-5.5a.752.752,0,0,0-.162-.614A.751.751,0,0,0,23,15.25H16.311l-1.5-1.5H24a.75.75,0,0,0,0-1.5H18.75V10.311l.78-.781,1-1a.75.75,0,1,0-1.06-1.06l-1,1-1,1a.755.755,0,0,0-.162.243A.743.743,0,0,0,17.25,10v2.25H13.311L9.894,8.833A12.235,12.235,0,0,1,27.165,26.105Z"/>
    <path d="M25.16,28.225a.744.744,0,0,0-.564.1A12.261,12.261,0,0,1,7.674,11.4a.752.752,0,0,0,.1-.565A.751.751,0,0,0,6.41,10.6a13.721,13.721,0,0,0,6.4,20.123,13.959,13.959,0,0,0,5.225,1.014,13.792,13.792,0,0,0,3.8-.531A13.478,13.478,0,0,0,25.4,29.589a.743.743,0,0,0,.329-.471.749.749,0,0,0-.573-.893Z"/>
  </g>
</svg>
