<svg id="e84aaf8e-8026-45a1-a5ef-479e671db080" data-name="storage-brick" xmlns="http://www.w3.org/2000/svg" viewBox="0 0 36 36"><title>Icon-Red_Hat-Hardware-Storage-A-Black-RGB</title><path d="M18,10.25c-5.47,0-9.75,2.53-9.75,5.75v5c0,3.22,4.28,5.75,9.75,5.75s9.75-2.53,9.75-5.75V16C27.75,12.78,23.47,10.25,18,10.25ZM26.25,21c0,2.3-3.78,4.25-8.25,4.25S9.75,23.3,9.75,21V19.1c1.71,1.6,4.73,2.65,8.25,2.65s6.54-1.05,8.25-2.65ZM18,20.25c-4.47,0-8.25-1.95-8.25-4.25s3.78-4.25,8.25-4.25S26.25,13.7,26.25,16,22.47,20.25,18,20.25Z"/></svg>
