<svg id="Icon" xmlns="http://www.w3.org/2000/svg" viewBox="0 0 36 36"><title>Icon-Red_Hat-Telecommunications-A-Black-RGB</title><path d="M19.69,13.72a2.74,2.74,0,0,0-1.61-5,2.74,2.74,0,0,0-1.6,5l-6,16.52a.76.76,0,0,0,.45,1,.73.73,0,0,0,.25,0,.76.76,0,0,0,.71-.49l1.21-3.33,5-3.74,5,3.74,1.21,3.33a.75.75,0,0,0,.7.49.78.78,0,0,0,.26,0,.76.76,0,0,0,.45-1Zm-1.61-3.47a1.25,1.25,0,1,1-1.25,1.25A1.25,1.25,0,0,1,18.08,10.25ZM14,24.86l1.21-3.31,1.6,1.2Zm1.74-4.79,2.13-5.84.19,0,.2,0,2.12,5.84-2.32,1.74Zm3.57,2.68,1.61-1.2,1.2,3.31Z"/><path d="M11.53,18.06a.74.74,0,0,0,.53-.22.75.75,0,0,0,0-1.06A7.62,7.62,0,0,1,12.06,6,.75.75,0,1,0,11,5a9.11,9.11,0,0,0,0,12.87A.74.74,0,0,0,11.53,18.06Z"/><path d="M13.39,15.29a.75.75,0,0,0,.53.22.79.79,0,0,0,.53-.22.75.75,0,0,0,0-1.06,4,4,0,0,1,0-5.65.75.75,0,0,0-1.06-1.06A5.5,5.5,0,0,0,13.39,15.29Z"/><path d="M23.94,16.78a.75.75,0,0,0,0,1.06.75.75,0,0,0,1.06,0A9.11,9.11,0,0,0,25,5,.75.75,0,1,0,23.94,6,7.62,7.62,0,0,1,23.94,16.78Z"/><path d="M21.55,15.29a.79.79,0,0,0,.53.22.75.75,0,0,0,.53-.22,5.5,5.5,0,0,0,0-7.77.75.75,0,1,0-1.06,1.06,4,4,0,0,1,0,5.65A.75.75,0,0,0,21.55,15.29Z"/></svg>