<svg id="Icon" xmlns="http://www.w3.org/2000/svg" viewBox="0 0 36 36"><title>Icon-Red_Hat-Lower_Cost_Pound-A-Black-RGB</title><path d="M20,28.22l-.72.72V17.27h3.12a.75.75,0,0,0,0-1.5H19.32V5.25a.75.75,0,0,0-1.5,0V15.77H15.33v0c-.1-.37-.2-.73-.28-1.1A4.3,4.3,0,0,1,15.53,11a.75.75,0,0,1,.12-.14,3.17,3.17,0,0,1,.78-.58A.75.75,0,0,0,15.72,9a4.46,4.46,0,0,0-1.16.87l-.2.22a5.58,5.58,0,0,0-.78,4.88c.06.28.13.55.2.83H10.65a.75.75,0,0,0,0,1.5h3.5a4.94,4.94,0,0,1,.09,2.22,4.05,4.05,0,0,1-1.05,2,9.9,9.9,0,0,1-2.8,1.82.75.75,0,0,0,.26,1.46h5.42a.75.75,0,0,0,0-1.5H13.41a10.18,10.18,0,0,0,.82-.7,5.53,5.53,0,0,0,1.47-2.75,6,6,0,0,0,0-2.57h2.13V28.94l-.72-.72A.75.75,0,0,0,16,29.28l2,2a.82.82,0,0,0,.53.22.75.75,0,0,0,.29-.06h0a.64.64,0,0,0,.22-.14l0,0,2-2a.74.74,0,0,0,0-1.06A.75.75,0,0,0,20,28.22Z"/><path d="M24.35,23.29H21.07a.75.75,0,0,0,0,1.5h3.28a.75.75,0,0,0,0-1.5Z"/><path d="M20.88,10A25.89,25.89,0,0,1,24,11.22a.7.7,0,0,0,.31.07.75.75,0,0,0,.31-1.43,26.83,26.83,0,0,0-3.39-1.28A.75.75,0,0,0,20.88,10Z"/></svg>