<?xml version="1.0" encoding="utf-8"?>
<!-- Generator: Adobe Illustrator 24.2.1, SVG Export Plug-In . SVG Version: 6.00 Build 0)  -->
<svg version="1.1" id="aacd8160-48c5-4e7e-859f-dfbf25228c02"
	 xmlns="http://www.w3.org/2000/svg" xmlns:xlink="http://www.w3.org/1999/xlink" x="0px" y="0px" viewBox="0 0 36 36"
	 style="enable-background:new 0 0 36 36;" xml:space="preserve">
<g>
	<path d="M16.256,27.2c-0.414,0-0.749-0.338-0.748-0.752c0.001-0.369,0.27-0.682,0.634-0.739c0.458-0.072,0.911-0.173,1.352-0.315
		c0.394-0.127,0.818,0.082,0.948,0.475c0.131,0.393-0.074,0.822-0.475,0.948c-0.216,0.068-0.705,0.236-1.594,0.374
		C16.334,27.197,16.295,27.2,16.256,27.2z"/>
	<path d="M11.575,26.813c-0.08,0-0.16-0.013-0.236-0.038c-0.967-0.324-1.879-0.787-2.725-1.356
		c-0.344-0.231-0.443-0.692-0.216-1.038c0.227-0.347,0.692-0.443,1.038-0.216c0.01,0.007,0.02,0.014,0.03,0.021
		c0.716,0.507,1.511,0.893,2.344,1.167c0.393,0.129,0.608,0.551,0.48,0.944C12.189,26.605,11.9,26.812,11.575,26.813z M5.911,22.056
		c-0.276,0.001-0.53-0.152-0.661-0.395C4.766,20.762,4.411,19.799,4.2,18.8c-0.086-0.405,0.173-0.804,0.578-0.889
		c0.405-0.086,0.804,0.173,0.89,0.578c0.181,0.858,0.482,1.687,0.9,2.458c0.197,0.364,0.063,0.818-0.3,1.016
		C6.159,22.023,6.036,22.055,5.911,22.056z M5.062,14.709c-0.068,0.001-0.135-0.008-0.2-0.026c-0.4-0.109-0.636-0.519-0.529-0.919
		c0.265-0.986,0.657-1.936,1.2-2.8c0.221-0.351,0.69-0.447,1.037-0.222c0.334,0.217,0.446,0.66,0.243,1.003
		c-0.447,0.753-0.812,1.553-1.035,2.4C5.692,14.473,5.401,14.705,5.062,14.709z M24.208,14.156c-0.323-0.001-0.61-0.207-0.712-0.513
		c-0.278-0.832-0.671-1.62-1.171-2.34c-0.236-0.34-0.152-0.808,0.188-1.044s0.808-0.152,1.044,0.188
		c0.582,0.838,1.042,1.755,1.363,2.723c0.13,0.393-0.083,0.816-0.475,0.948C24.369,14.144,24.289,14.156,24.208,14.156z
		 M9.495,8.788c-0.414-0.002-0.75-0.335-0.751-0.749c0-0.26,0.134-0.502,0.356-0.639c0.87-0.536,1.814-0.942,2.8-1.21
		c0.4-0.109,0.812,0.127,0.921,0.527c0.109,0.4-0.127,0.812-0.527,0.921c-0.845,0.23-1.652,0.583-2.4,1.04
		C9.774,8.751,9.636,8.789,9.495,8.788z M19.441,8.5c-0.124,0-0.245-0.03-0.354-0.089c-0.772-0.417-1.6-0.72-2.459-0.9
		c-0.406-0.085-0.666-0.483-0.58-0.889s0.483-0.666,0.889-0.58c1,0.21,1.965,0.563,2.864,1.048c0.365,0.197,0.501,0.652,0.304,1.016
		C19.972,8.35,19.718,8.5,19.441,8.5z"/>
	<path d="M24.26,20.317c-0.076,0-0.152-0.011-0.224-0.034c-0.394-0.124-0.614-0.544-0.492-0.938
		c0.138-0.442,0.249-0.894,0.315-1.352c0.058-0.41,0.43-0.7,0.841-0.647s0.712,0.432,0.647,0.841
		c-0.034,0.213-0.099,0.743-0.37,1.605C24.878,20.104,24.588,20.316,24.26,20.317z"/>
</g>
<path d="M25.718,32.806c-3.176,0.002-5.75-2.574-5.75-5.75s2.574-5.75,5.75-5.75s5.752,2.574,5.75,5.75
	C31.466,30.23,28.892,32.804,25.718,32.806z M25.718,22.806c-2.347-0.001-4.25,1.903-4.25,4.25s1.903,4.25,4.25,4.25
	s4.251-1.903,4.25-4.25C29.967,24.71,28.064,22.807,25.718,22.806z"/>
<path d="M28.218,11.317c-1.795,0.001-3.25-1.455-3.25-3.25s1.455-3.25,3.25-3.25s3.251,1.455,3.25,3.25
	C31.467,9.861,30.012,11.316,28.218,11.317z M28.218,6.317c-0.966-0.001-1.75,0.784-1.75,1.75s0.784,1.75,1.75,1.75
	s1.751-0.784,1.75-1.75C29.967,7.101,29.184,6.318,28.218,6.317z"/>
</svg>
