<svg id="bb5abc9e-6003-4406-a5e5-d081fac78adf" data-name="Layer 1" xmlns="http://www.w3.org/2000/svg" viewBox="0 0 36 36">
  <title>Icon-Red_Hat-Multiply-A-Black-RGB</title>
  <path d="M30.03,17.469l-1.175-1.175L27.681,15.12a.75.75,0,1,0-1.06,1.06l.909.91.159.16H18.546a10.389,10.389,0,0,0,3.584-2.6A9.388,9.388,0,0,0,24.3,9.975c.025-.154.045-.3.062-.443l.114.124.873.945a.75.75,0,0,0,1.1-1.017L25.329,8.363,24.2,7.142c-.013-.014-.032-.02-.046-.033a.551.551,0,0,0-.05-.057.818.818,0,0,0-.089-.044.666.666,0,0,0-.107-.053.79.79,0,0,0-.151-.036.731.731,0,0,0-.078-.018c-.022,0-.043.009-.066.01s-.042-.007-.064,0-.047.019-.072.025a.691.691,0,0,0-.272.128.52.52,0,0,0-.064.039L21.922,8.225,20.7,9.352a.749.749,0,1,0,1.016,1.1l.946-.872.207-.192c-.013.109-.027.219-.046.334A7.929,7.929,0,0,1,21,13.668a9.45,9.45,0,0,1-4.18,2.669,19.3,19.3,0,0,1-5.694.891,2.784,2.784,0,1,0,0,1.544,19.368,19.368,0,0,1,5.681.886,9.481,9.481,0,0,1,4.177,2.656,7.935,7.935,0,0,1,1.83,3.937c.021.122.036.239.051.353l-.2-.186-.945-.873a.75.75,0,0,0-1.018,1.1l1.221,1.127L23.142,28.9a.646.646,0,0,0,.071.044.714.714,0,0,0,.111.07c.019.009.034.026.054.034a.81.81,0,0,0,.1.018c.027.006.049.022.077.026s.034,0,.051.006h.079a.859.859,0,0,0,.084-.021.741.741,0,0,0,.176-.042.227.227,0,0,1,.025-.006c.024-.012.042-.034.066-.048a.779.779,0,0,0,.111-.067c.011-.01.017-.024.028-.035s.022-.013.031-.023l1.127-1.221,1.126-1.221a.75.75,0,0,0-.043-1.06.756.756,0,0,0-.538-.2.744.744,0,0,0-.521.241l-.873.946-.114.124c-.017-.143-.037-.29-.062-.443a9.387,9.387,0,0,0-2.174-4.679,10.372,10.372,0,0,0-3.586-2.6h9.145l-.159.159-.909.909a.751.751,0,0,0,.248,1.226.748.748,0,0,0,.812-.165L28.855,19.7,30.03,18.53a.75.75,0,0,0,0-1.061ZM9.384,18.884A1.249,1.249,0,1,1,9.75,18,1.249,1.249,0,0,1,9.384,18.884Z"/>
</svg>
