<svg id="b9c86b95-6cc8-42ad-a77d-306716abc709" data-name="Layer 1" xmlns="http://www.w3.org/2000/svg" viewBox="0 0 36 36">
  <title>Icon-Red_Hat-Truck-A-Black-RGB</title>
  <path d="M31.73,18.072a.729.729,0,0,0-.058-.162l-.994-2-.994-2a.749.749,0,0,0-.672-.416H25.75v-3.25a.751.751,0,0,0-.75-.75H5a.751.751,0,0,0-.75.75v13a.751.751,0,0,0,.75.75H7.342a3.241,3.241,0,0,0,6.316,0h7.688a3.239,3.239,0,0,0,6.308,0H31a.75.75,0,1,0,0-1.5H27.654a3.192,3.192,0,0,0-.156-.5H31a.751.751,0,0,0,.75-.75v-3A.763.763,0,0,0,31.73,18.072ZM12.081,23.994a1.738,1.738,0,0,1-3.162,0,1.691,1.691,0,0,1,.013-1.5,1.771,1.771,0,0,1,.331-.474,1.745,1.745,0,0,1,2.474,0,1.771,1.771,0,0,1,.331.474,1.691,1.691,0,0,1,.013,1.5Zm9.265-1.5h-7.7a3.237,3.237,0,0,0-6.3,0H5.75v-11.5h18.5v9.025a3.2,3.2,0,0,0-2.9,2.475Zm4.391,1.986a1.736,1.736,0,0,1-2.811-.486,1.69,1.69,0,0,1,0-1.5,1.778,1.778,0,0,1,.338-.487,1.74,1.74,0,0,1,.987-.488c.018,0,.036,0,.055-.006a1.788,1.788,0,0,1,.2-.019,1.741,1.741,0,0,1,1.221.5l.016.013.013.016a1.743,1.743,0,0,1-.013,2.457Zm4.513-5.023v1.037H26.213a3.169,3.169,0,0,0-.463-.249V14.994h2.8l.852,1.713.851,1.713Z"/>
</svg>
