<svg id="b1e358a8-ac7c-4600-bd77-7943246843f5" data-name="Layer 1" xmlns="http://www.w3.org/2000/svg" width="36" height="36" viewBox="0 0 36 36"><title>Icon-Red_Hat-</title><path d="M16.5,8.6h9a2.25,2.25,0,0,1,0,4.5H22.22l.72-.71a.75.75,0,0,0-1.06-1.07l-2,2a.77.77,0,0,0,0,1.07l2,2a.77.77,0,0,0,.53.21.76.76,0,0,0,.53-.21.75.75,0,0,0,0-1.07l-.72-.72H25.5a3.75,3.75,0,0,0,0-7.5h-9a.75.75,0,0,0,0,1.5ZM8.08,11.31H13.5a.75.75,0,0,0,.75-.75V5.15a.75.75,0,0,0-.75-.75H8.08a.75.75,0,0,0-.75.75v5.41A.75.75,0,0,0,8.08,11.31ZM8.83,5.9h3.92V9.81H8.83ZM27.5,26.44a.75.75,0,0,0-.75.75v2.92h-9.5v-9.5h6.58a.75.75,0,0,0,0-1.5H16.5a.75.75,0,0,0-.75.75v11a.76.76,0,0,0,.75.75h11a.76.76,0,0,0,.75-.75V27.19A.75.75,0,0,0,27.5,26.44ZM14,19.33l-2-2a.75.75,0,0,0-1.06,0,.77.77,0,0,0,0,1.07l.72.72H10.5a2.26,2.26,0,0,1,0-4.51h7a.75.75,0,0,0,0-1.5h-7a3.76,3.76,0,0,0,0,7.51h1.19l-.72.72a.75.75,0,0,0,0,1.06.75.75,0,0,0,1.06,0l2-2a.82.82,0,0,0,.16-.25.71.71,0,0,0,0-.57A.67.67,0,0,0,14,19.33ZM27,21.16l-5,5-1.3-1.3a.75.75,0,0,0-1.06,1.06l1.83,1.83a.75.75,0,0,0,1.06,0l5.5-5.5A.75.75,0,1,0,27,21.16Z"/></svg>