<svg id="f5cdd94e-f422-4197-b686-c72c872b6ffd" data-name="Layer 1" xmlns="http://www.w3.org/2000/svg" width="36" height="36" viewBox="0 0 36 36"><title>Icon-Red_Hat-Hardware-Virtual_Storage-A-Black-RGB</title><path d="M7.57,12.67A.75.75,0,1,0,7,11.43a.75.75,0,0,0,.09,1.06A.74.74,0,0,0,7.57,12.67Zm6.6-3.54h.16a.76.76,0,0,0,.58-.89A.74.74,0,0,0,14,7.65a.75.75,0,0,0,.15,1.48Zm-2.43.72a.86.86,0,0,0,.27,0h0a.76.76,0,1,0-.28,0ZM29,14.29a.76.76,0,0,0,.71.5,1,1,0,0,0,.24,0,.75.75,0,0,0,.46-1,.74.74,0,0,0-.95-.46A.75.75,0,0,0,29,14.29ZM6,19.9a.75.75,0,1,0-.75-.75A.75.75,0,0,0,6,19.9Zm0-2.54a.75.75,0,1,0-.75-.75A.75.75,0,0,0,6,17.36Zm.07-2.54a1,1,0,0,0,.24,0A.76.76,0,0,0,7,14.35a.75.75,0,0,0-.47-.95.74.74,0,0,0-1,.47A.75.75,0,0,0,6.07,14.82ZM9.48,11a.75.75,0,1,0-.62-.34A.74.74,0,0,0,9.48,11ZM23.92,9.78a.86.86,0,0,0,.27.05.75.75,0,0,0,.7-.49.73.73,0,0,0-.43-1,.75.75,0,1,0-.54,1.4Zm2.13,1.07a.72.72,0,0,0,.4.12.75.75,0,1,0-.4-.12Zm3.2,5.69a.75.75,0,1,0,.75-.75A.76.76,0,0,0,29.25,16.54ZM21.6,9.1l.15,0a.77.77,0,0,0,.74-.6.76.76,0,0,0-.59-.89.75.75,0,0,0-.88.59A.74.74,0,0,0,21.6,9.1Zm-2.41-.31h0a.75.75,0,0,0,.05-1.5.76.76,0,0,0-.8.7A.77.77,0,0,0,19.19,8.79ZM6.79,21.61a.75.75,0,1,0-.75.83h.09A.76.76,0,0,0,6.79,21.61Zm9.9-12.82h0a.75.75,0,0,0,.7-.8.75.75,0,1,0-.75.8Zm10.37,16.6a.75.75,0,0,0,.5,1.32.72.72,0,0,0,.49-.19.75.75,0,0,0-1-1.13Zm1.89-14h0a.75.75,0,0,0-1.13,1,.76.76,0,0,0,.57.26.72.72,0,0,0,.49-.19A.76.76,0,0,0,29,11.37ZM27.75,16c0-3.22-4.28-5.75-9.75-5.75S8.25,12.78,8.25,16v5c0,3.22,4.28,5.75,9.75,5.75s9.75-2.53,9.75-5.75Zm-1.5,5c0,2.3-3.78,4.25-8.25,4.25S9.75,23.3,9.75,21V19.1c1.71,1.6,4.73,2.65,8.25,2.65s6.54-1.05,8.25-2.65ZM18,20.25c-4.47,0-8.25-1.95-8.25-4.25s3.78-4.25,8.25-4.25S26.25,13.7,26.25,16,22.47,20.25,18,20.25Zm7.1,6.44h0a.74.74,0,0,0-.33,1,.75.75,0,0,0,.67.41.71.71,0,0,0,.34-.08.75.75,0,0,0,.33-1A.77.77,0,0,0,25.1,26.69ZM30,18.33a.75.75,0,1,0,.75.75A.76.76,0,0,0,30,18.33Zm0,2.54a.75.75,0,0,0-.82.67.77.77,0,0,0,.67.83H30a.75.75,0,0,0,.07-1.5Zm-.49,2.5a.74.74,0,0,0-1,.27.75.75,0,0,0,.28,1,.79.79,0,0,0,.37.1.76.76,0,0,0,.65-.38A.74.74,0,0,0,29.55,23.37ZM13.19,27.6A.75.75,0,0,0,12.77,29a.75.75,0,0,0,.93-.51A.75.75,0,0,0,13.19,27.6ZM6.47,23.43a.75.75,0,0,0,.38,1.4.79.79,0,0,0,.39-.11.75.75,0,1,0-.77-1.29ZM11,26.73a.74.74,0,1,0-.67,1.33.66.66,0,0,0,.33.09.75.75,0,0,0,.67-.42A.74.74,0,0,0,11,26.73Zm11.93.85a.75.75,0,0,0,.21,1.47.76.76,0,0,0,.21,0,.75.75,0,1,0-.42-1.44ZM7.93,25.51A.75.75,0,0,0,8,26.57a.74.74,0,0,0,1.05-.08.75.75,0,1,0-1.13-1ZM20.5,28.08a.75.75,0,0,0,.11,1.5h.1a.75.75,0,0,0-.21-1.49Zm-2.43.17H18a.75.75,0,0,0,0,1.5h.07a.75.75,0,0,0,0-1.5Zm-2.51-.16a.75.75,0,1,0-.19,1.49h.1a.75.75,0,0,0,.74-.65A.76.76,0,0,0,15.56,28.09Z"/></svg>