<?xml version="1.0" encoding="utf-8"?>
<!-- Generator: Adobe Illustrator 24.2.1, SVG Export Plug-In . SVG Version: 6.00 Build 0)  -->
<svg version="1.1" id="bb3422e1-a0de-46d9-8287-43cad7116060"
	 xmlns="http://www.w3.org/2000/svg" xmlns:xlink="http://www.w3.org/1999/xlink" x="0px" y="0px" viewBox="0 0 36 36"
	 style="enable-background:new 0 0 36 36;" xml:space="preserve">
<g>
	<path d="M11.75,6.25h-6C5.336,6.25,5,6.586,5,7v11c0,0.414,0.336,0.75,0.75,0.75h6c0.414,0,0.75-0.336,0.75-0.75V7
		C12.5,6.586,12.164,6.25,11.75,6.25z M11,17.25H6.5v-9.5H11V17.25z"/>
	<path d="M11.75,20.25h-6C5.336,20.25,5,20.586,5,21v6c0,0.414,0.336,0.75,0.75,0.75h6c0.414,0,0.75-0.336,0.75-0.75v-6
		C12.5,20.586,12.164,20.25,11.75,20.25z M11,26.25H6.5v-4.5H11V26.25z"/>
	<path d="M29.75,6.25h-6C23.336,6.25,23,6.586,23,7v11c0,0.414,0.336,0.75,0.75,0.75h6c0.414,0,0.75-0.336,0.75-0.75V7
		C30.5,6.586,30.164,6.25,29.75,6.25z M29,17.25h-4.5v-9.5H29V17.25z"/>
	<path d="M29.75,24.25C29.336,24.25,29,24.586,29,25v1.25h-4.5v-4.5h3.25c0.414,0,0.75-0.336,0.75-0.75s-0.336-0.75-0.75-0.75h-4
		C23.336,20.25,23,20.586,23,21v6c0,0.414,0.336,0.75,0.75,0.75h6c0.414,0,0.75-0.336,0.75-0.75v-2
		C30.5,24.586,30.164,24.25,29.75,24.25z"/>
	<path d="M20.75,8.25h-6C14.336,8.25,14,8.586,14,9v6c0,0.414,0.336,0.75,0.75,0.75h6c0.414,0,0.75-0.336,0.75-0.75V9
		C21.5,8.586,21.164,8.25,20.75,8.25z M20,14.25h-4.5v-4.5H20V14.25z"/>
	<path d="M20.75,17.25h-6C14.336,17.25,14,17.586,14,18v11c0,0.414,0.336,0.75,0.75,0.75h6c0.414,0,0.75-0.336,0.75-0.75V18
		C21.5,17.586,21.164,17.25,20.75,17.25z M20,28.25h-4.5v-9.5H20V28.25z"/>
	<path d="M29.22,21.47l-2.47,2.469l-0.47-0.469c-0.303-0.282-0.778-0.266-1.06,0.037c-0.268,0.288-0.268,0.735,0,1.023l1,1
		c0.292,0.293,0.765,0.294,1.058,0.002l3.002-3.002c0.282-0.303,0.266-0.778-0.037-1.06C29.955,21.202,29.508,21.202,29.22,21.47z"
		/>
</g>
</svg>
