<?xml version="1.0" encoding="utf-8"?>
<!-- Generator: Adobe Illustrator 24.2.1, SVG Export Plug-In . SVG Version: 6.00 Build 0)  -->
<svg version="1.1" id="ac5f1384-5d46-470f-96f6-5e5c4df09ea7"
	 xmlns="http://www.w3.org/2000/svg" xmlns:xlink="http://www.w3.org/1999/xlink" x="0px" y="0px" viewBox="0 0 36 36"
	 style="enable-background:new 0 0 36 36;" xml:space="preserve">
<path d="M11.734,21.986c0.104,0.053,0.216,0.078,0.328,0.078c0.192,0,0.38-0.076,0.52-0.22l0.177-0.177l0.177,0.177
	c0.146,0.146,0.338,0.22,0.53,0.22c0.173,0,0.346-0.059,0.486-0.179l9.649-8.218l0.141,0.008c2.625,0,4.753-2.128,4.753-4.753
	s-2.128-4.753-4.753-4.753c-2.514,0-4.752,1.986-4.752,4.829c0,0.02,0,0.041,0,0.061l-8.217,9.648
	c-0.12,0.141-0.179,0.313-0.179,0.486c0,0.193,0.074,0.385,0.22,0.531l0.177,0.177l-0.177,0.177
	c-0.141,0.142-0.216,0.332-0.216,0.524c0,0.11,0.024,0.221,0.075,0.325l-2.058,2.058c-0.723,0.723-1.084,1.67-1.084,2.618
	c0,2.118,1.732,3.702,3.702,3.702c0.948,0,1.895-0.362,2.618-1.085l6.958-6.959c0.43-0.43,0.994-0.645,1.558-0.645
	c1.174,0,2.203,0.945,2.203,2.203c0,0.564-0.215,1.127-0.645,1.557l-2.784,2.784c-0.721,0.724-1.082,1.671-1.082,2.618
	s0.361,1.894,1.082,2.618l0.696,0.696c0.146,0.146,0.338,0.219,0.53,0.219c0.585,0,0.75-0.534,0.75-0.75
	c0-0.192-0.073-0.384-0.219-0.53l-0.696-0.695c-0.429-0.43-0.644-0.994-0.644-1.557s0.215-1.127,0.644-1.557l2.784-2.784
	c0.723-0.723,1.084-1.67,1.084-2.618c0-2.118-1.732-3.702-3.702-3.702c-0.948,0-1.895,0.362-2.618,1.085l-6.958,6.959
	c-0.43,0.43-0.994,0.645-1.558,0.645c-1.174,0-2.203-0.945-2.203-2.203c0-0.564,0.215-1.127,0.645-1.557L11.734,21.986z
	 M20.483,8.922c0-1.234,0.963-3.247,3.252-3.247c2.285,0,3.249,1.993,3.249,3.25c0,2.005-1.672,3.25-3.25,3.25
	c-0.253,0-0.508-0.03-0.759-0.09l-2.4-2.401C20.513,9.431,20.483,9.176,20.483,8.922z M19.521,10.752l2.387,2.387l-8.4,7.155
	l-1.143-1.142L19.521,10.752z"/>
</svg>
