<svg id="fd158836-0162-4499-b9f5-50ee29e61e6b" data-name="Layer 1" xmlns="http://www.w3.org/2000/svg" viewBox="0 0 36 36">
  <title>Icon-Red_Hat-virtual_server_stack_unsecured-A-Black-RGB</title>
  <g>
    <path d="M23.83,29.4a1,1,0,0,0-.069-.129.981.981,0,0,0-.091-.121c-.035-.03-.073-.06-.113-.088a.832.832,0,0,0-.127-.072.794.794,0,0,0-.82.16.981.981,0,0,0-.091.121.887.887,0,0,0-.069.129.682.682,0,0,0-.045.141.746.746,0,0,0-.015.149.76.76,0,0,0,.22.53.748.748,0,0,0,.679.205.7.7,0,0,0,.141-.045.76.76,0,0,0,.127-.073,1.25,1.25,0,0,0,.113-.087.748.748,0,0,0,.2-.679A.682.682,0,0,0,23.83,29.4Z"/>
    <path d="M18.14,28.94a.743.743,0,1,0,.532.217A.749.749,0,0,0,18.14,28.94Z"/>
    <path d="M5.64,28.94a.743.743,0,1,0,.532.217A.749.749,0,0,0,5.64,28.94Z"/>
    <path d="M13.14,28.94a.743.743,0,1,0,.532.217A.749.749,0,0,0,13.14,28.94Z"/>
    <path d="M8.14,28.94a.743.743,0,1,0,.532.217A.749.749,0,0,0,8.14,28.94Z"/>
    <path d="M10.64,28.94a.743.743,0,1,0,.532.217A.749.749,0,0,0,10.64,28.94Z"/>
    <path d="M20.64,28.94a.749.749,0,1,0,.528.217A.749.749,0,0,0,20.64,28.94Z"/>
    <path d="M15.64,28.94a.743.743,0,1,0,.532.217A.749.749,0,0,0,15.64,28.94Z"/>
    <path d="M3.83,29.4a.558.558,0,0,0-.065-.129,1.289,1.289,0,0,0-.1-.121.794.794,0,0,0-.82-.16.917.917,0,0,0-.128.068.75.75,0,0,0-.112.092.644.644,0,0,0-.091.117,1.05,1.05,0,0,0-.069.133.682.682,0,0,0-.045.141.746.746,0,0,0-.015.149.76.76,0,0,0,.22.53.687.687,0,0,0,.112.091.922.922,0,0,0,.128.069A.859.859,0,0,0,3,30.425a.693.693,0,0,0,.145.015.736.736,0,0,0,.287-.058.748.748,0,0,0,.448-.841A.682.682,0,0,0,3.83,29.4Z"/>
    <path d="M3.14,19.12a.743.743,0,1,0,.532.217A.749.749,0,0,0,3.14,19.12Z"/>
    <path d="M3.14,14.21a.753.753,0,0,0-.529.216.734.734,0,0,0-.221.524.761.761,0,0,0,.221.537.743.743,0,0,0,1.061,0,.762.762,0,0,0,.218-.537.735.735,0,0,0-.218-.524A.749.749,0,0,0,3.14,14.21Z"/>
    <path d="M3.14,16.66a.749.749,0,1,0,.532.221A.749.749,0,0,0,3.14,16.66Z"/>
    <path d="M3.14,21.57a.749.749,0,1,0,.532.221A.749.749,0,0,0,3.14,21.57Z"/>
    <path d="M3.14,24.03a.743.743,0,1,0,.532.217A.749.749,0,0,0,3.14,24.03Z"/>
    <path d="M3.14,11.75a.749.749,0,1,0,.532.221A.749.749,0,0,0,3.14,11.75Z"/>
    <path d="M3.14,6.84a.749.749,0,1,0,.532.221A.749.749,0,0,0,3.14,6.84Z"/>
    <path d="M3.14,4.39a.743.743,0,1,0,.532.217A.749.749,0,0,0,3.14,4.39Z"/>
    <path d="M3.14,9.3a.743.743,0,1,0,.532.217A.749.749,0,0,0,3.14,9.3Z"/>
    <path d="M3.14,26.48a.749.749,0,1,0,.532.221A.749.749,0,0,0,3.14,26.48Z"/>
    <path d="M3.67,2.16a.857.857,0,0,0-.113-.1A.7.7,0,0,0,3.43,1.99a.775.775,0,0,0-.82.17.678.678,0,0,0-.163.239.778.778,0,0,0-.057.291.688.688,0,0,0,.015.14.713.713,0,0,0,.045.14.975.975,0,0,0,.069.132.618.618,0,0,0,.091.118.748.748,0,0,0,.679.2A.7.7,0,0,0,3.43,3.38a.911.911,0,0,0,.127-.069A.693.693,0,0,0,3.67,3.22.618.618,0,0,0,3.761,3.1,1.1,1.1,0,0,0,3.83,2.97a.713.713,0,0,0,.045-.14.688.688,0,0,0,.015-.14A.759.759,0,0,0,3.832,2.4.662.662,0,0,0,3.67,2.16Z"/>
    <path d="M13.54,3.44a.755.755,0,1,0-.529-.221A.751.751,0,0,0,13.54,3.44Z"/>
    <path d="M10.94,3.44a.748.748,0,1,0-.533-.221A.751.751,0,0,0,10.94,3.44Z"/>
    <path d="M23.94,3.44a.755.755,0,1,0-.529-.221A.751.751,0,0,0,23.94,3.44Z"/>
    <path d="M8.34,3.44a.755.755,0,1,0-.529-.221A.751.751,0,0,0,8.34,3.44Z"/>
    <path d="M21.34,3.44a.755.755,0,1,0-.529-.221A.751.751,0,0,0,21.34,3.44Z"/>
    <path d="M18.74,3.44a.755.755,0,1,0-.529-.221A.751.751,0,0,0,18.74,3.44Z"/>
    <path d="M16.14,3.44a.755.755,0,1,0-.529-.221A.746.746,0,0,0,16.14,3.44Z"/>
    <path d="M5.74,3.44a.755.755,0,1,0-.529-.221A.751.751,0,0,0,5.74,3.44Z"/>
    <path d="M26.54,3.44a.755.755,0,1,0-.529-.221A.751.751,0,0,0,26.54,3.44Z"/>
    <path d="M28.45,2.97a.975.975,0,0,0,.069.132.618.618,0,0,0,.091.118.751.751,0,0,0,1.06,0,.733.733,0,0,0,.095-.118.6.6,0,0,0,.065-.132.713.713,0,0,0,.045-.14.688.688,0,0,0,.015-.14.759.759,0,0,0-.058-.291.662.662,0,0,0-.162-.239.775.775,0,0,0-.82-.17.71.71,0,0,0-.128.074.848.848,0,0,0-.112.1.678.678,0,0,0-.163.239.778.778,0,0,0-.057.291.688.688,0,0,0,.015.14A.713.713,0,0,0,28.45,2.97Z"/>
    <path d="M29.14,6.06a.748.748,0,1,0-.529-.217A.746.746,0,0,0,29.14,6.06Z"/>
    <path d="M29.14,21.81a.755.755,0,1,0-.529-.221A.745.745,0,0,0,29.14,21.81Z"/>
    <path d="M29.14,13.94a.755.755,0,1,0-.529-.221A.745.745,0,0,0,29.14,13.94Z"/>
    <path d="M29.14,16.56a.755.755,0,1,0-.529-.221A.745.745,0,0,0,29.14,16.56Z"/>
    <path d="M29.14,8.68a.75.75,0,0,0,.532-.217.731.731,0,0,0,.218-.523.75.75,0,1,0-1.5,0,.729.729,0,0,0,.221.523A.754.754,0,0,0,29.14,8.68Z"/>
    <path d="M29.14,11.31a.755.755,0,1,0-.529-.221A.745.745,0,0,0,29.14,11.31Z"/>
    <path d="M29.14,19.18a.744.744,0,0,0,.75-.75.735.735,0,0,0-.218-.524.759.759,0,0,0-1.061,0,.734.734,0,0,0-.221.524.749.749,0,0,0,.75.75Z"/>
    <path d="M28.61,24.22a.86.86,0,0,0,.242.159.722.722,0,0,0,.437.046.7.7,0,0,0,.141-.045.911.911,0,0,0,.127-.069.693.693,0,0,0,.113-.091.748.748,0,0,0,.2-.679.682.682,0,0,0-.045-.141.571.571,0,0,0-.065-.131.532.532,0,0,0-.095-.109.857.857,0,0,0-.113-.1.7.7,0,0,0-.127-.074.775.775,0,0,0-.82.17.678.678,0,0,0-.163.239.778.778,0,0,0-.057.291.76.76,0,0,0,.22.53Z"/>
    <path d="M26.141,12.936h-20a.748.748,0,0,0-.75.75v5a.749.749,0,0,0,.75.75h20a.751.751,0,0,0,.75-.75v-5a.749.749,0,0,0-.75-.75Zm-.75,3.25v1.75H6.891v-3.5h18.5Z"/>
    <path d="M22.74,16.47a.821.821,0,0,0,.074.132.751.751,0,0,0,.626.338.772.772,0,0,0,.53-.22.618.618,0,0,0,.091-.118,1.1,1.1,0,0,0,.069-.132.713.713,0,0,0,.045-.14.688.688,0,0,0,.015-.14.746.746,0,0,0-.015-.149.682.682,0,0,0-.045-.141,1,1,0,0,0-.069-.129.981.981,0,0,0-.091-.121.772.772,0,0,0-.534-.2.744.744,0,0,0-.526.2.777.777,0,0,0-.1.117.875.875,0,0,0-.074.133.91.91,0,0,0-.036.141.826.826,0,0,0-.014.149.756.756,0,0,0,.014.144A.941.941,0,0,0,22.74,16.47Z"/>
    <path d="M11.59,15.436h-3a.75.75,0,0,0,0,1.5h3a.75.75,0,1,0,0-1.5Z"/>
    <path d="M26.891,8.186v-2.5a.749.749,0,0,0-.75-.75h-20a.748.748,0,0,0-.75.75v5a.749.749,0,0,0,.75.75h20a.751.751,0,0,0,.75-.75Zm-1.5,0v1.75H6.891v-3.5h18.5Z"/>
    <path d="M22.91,8.72a.687.687,0,0,0,.112.091.922.922,0,0,0,.128.069.682.682,0,0,0,.141.045.746.746,0,0,0,.149.015.683.683,0,0,0,.144-.015.7.7,0,0,0,.136-.045,1.1,1.1,0,0,0,.132-.069.618.618,0,0,0,.118-.091.75.75,0,0,0,0-1.06.738.738,0,0,0-.118-.1.821.821,0,0,0-.132-.074.793.793,0,0,0-.57,0,.71.71,0,0,0-.128.074.848.848,0,0,0-.112.1.751.751,0,0,0,0,1.06Z"/>
    <path d="M11.59,7.436h-3a.75.75,0,0,0,0,1.5h3a.75.75,0,1,0,0-1.5Z"/>
    <path d="M23.141,25.936H6.891v-3.5h18.5v1.25a.75.75,0,0,0,1.5,0v-2a.749.749,0,0,0-.75-.75h-20a.748.748,0,0,0-.75.75v5a.749.749,0,0,0,.75.75h17a.75.75,0,1,0,0-1.5Z"/>
    <path d="M23.97,23.66a.738.738,0,0,0-.118-.1.821.821,0,0,0-.132-.074.736.736,0,0,0-.428-.035.765.765,0,0,0-.382.205.678.678,0,0,0-.163.239.778.778,0,0,0-.057.291.764.764,0,0,0,.014.14.958.958,0,0,0,.036.14.821.821,0,0,0,.074.132.751.751,0,0,0,.626.338.683.683,0,0,0,.144-.015.7.7,0,0,0,.136-.045,1.1,1.1,0,0,0,.132-.069.582.582,0,0,0,.209-.209,1.1,1.1,0,0,0,.069-.132.713.713,0,0,0,.045-.14.688.688,0,0,0,.015-.14.759.759,0,0,0-.058-.291A.662.662,0,0,0,23.97,23.66Z"/>
    <path d="M10.09,23.436H8.59a.75.75,0,0,0,0,1.5h3a.75.75,0,1,0,0-1.5Z"/>
    <path d="M25.407,29.05v1.265a3.756,3.756,0,0,0,3.75,3.75,3.165,3.165,0,0,0,.555-.05,4.214,4.214,0,0,0,.529-.131l-2.417-2.417Z"/>
    <path d="M33.39,32.776l-.429-.429-.428-.428a3.973,3.973,0,0,0,.275-.769,3.588,3.588,0,0,0,.1-.835v-3A.751.751,0,0,0,32.4,26.6l-1.5-.5-1.5-.5a.761.761,0,0,0-.475,0l-1.014.337-1.014.338-.377-.377-.377-.377a.75.75,0,0,0-1.061,1.061l3.265,3.272,3.266,3.273,0,0,0,0,.356.357.357.357a.752.752,0,0,0,1.061,0,.752.752,0,0,0,0-1.061Z"/>
  </g>
</svg>
