<?xml version="1.0" encoding="utf-8"?>
<!-- Generator: Adobe Illustrator 24.2.1, SVG Export Plug-In . SVG Version: 6.00 Build 0)  -->
<svg version="1.1" id="bc4b79c0-3356-4817-af9e-468d426047c8"
	 xmlns="http://www.w3.org/2000/svg" xmlns:xlink="http://www.w3.org/1999/xlink" x="0px" y="0px" viewBox="0 0 36 36"
	 style="enable-background:new 0 0 36 36;" xml:space="preserve">
<path d="M18.375,10.78c-0.232-0.135-0.518-0.135-0.75,0l-5.692,3.285c-0.232,0.134-0.375,0.382-0.375,0.65v6.571
	c0,0.268,0.143,0.516,0.375,0.65l5.692,3.285c0.232,0.135,0.518,0.135,0.75,0l5.691-3.281c0.232-0.134,0.375-0.382,0.375-0.65
	v-6.571c0-0.268-0.143-0.516-0.375-0.65L18.375,10.78z M18,12.295l4.191,2.42L18,17.134l-4.192-2.419L18,12.295z M13.059,16.014
	l4.192,2.419v4.84l-4.192-2.419V16.014z M18.751,23.273v-4.84l4.191-2.419v4.84L18.751,23.273z M18,4.25
	C10.406,4.246,4.25,10.406,4.25,18S10.406,31.75,18,31.75S31.754,25.594,31.75,18C31.746,10.41,25.59,4.254,18,4.25z M18,30.25
	C11.235,30.254,5.75,24.765,5.75,18S11.235,5.75,18,5.75S30.254,11.235,30.25,18C30.246,24.763,24.763,30.246,18,30.25z"/>
</svg>
