<svg id="Icons" xmlns="http://www.w3.org/2000/svg" viewBox="0 0 36 36"><title>Icon-Red_Hat-Recycle-Symbol_Default-A-Black-RGB</title><path d="M31.31,28.44a3.24,3.24,0,0,0,0-3.28l-3.92-6.73a.75.75,0,0,0-1.4.38v5.74H22.87v-.86a.76.76,0,0,0-.41-.67.75.75,0,0,0-.79.07l-5,3.66a.75.75,0,0,0-.31.6.77.77,0,0,0,.31.61l5,3.66a.76.76,0,0,0,.45.15.84.84,0,0,0,.34-.08.76.76,0,0,0,.41-.67v-.94h5.6A3.25,3.25,0,0,0,31.31,28.44ZM30,27.69a1.76,1.76,0,0,1-1.54.89H22.12a.75.75,0,0,0-.75.75v.21l-3-2.19,3-2.18v.13a.74.74,0,0,0,.75.75h4.61a.71.71,0,0,0,.53-.22.75.75,0,0,0,.22-.53V21.58L30,25.91A1.77,1.77,0,0,1,30,27.69Z"/><path d="M7.41,30.08h7.4a.75.75,0,0,0,.72-.54.77.77,0,0,0-.32-.85l-4.74-3,2.14-3.48.8.46a.73.73,0,0,0,.79,0,.75.75,0,0,0,.33-.71l-.67-6.16a.73.73,0,0,0-.37-.57.78.78,0,0,0-.68,0l-5.67,2.5a.78.78,0,0,0-.45.65.76.76,0,0,0,.38.69l.78.45L4.57,25.16a3.28,3.28,0,0,0,2.84,4.92ZM5.87,25.92,9.52,19.6A.76.76,0,0,0,9.6,19a.79.79,0,0,0-.35-.45l-.15-.09L12.48,17l.4,3.68-.15-.09a.75.75,0,0,0-1,.26L8.8,25.57a.75.75,0,0,0,.24,1l3.16,2H7.41a1.78,1.78,0,0,1-1.54-2.66Z"/><path d="M12.83,13.66,17,11.39l1.74,3-.92.53a.76.76,0,0,0-.38.69.78.78,0,0,0,.45.65l5.68,2.5a.73.73,0,0,0,.3.06.69.69,0,0,0,.37-.1.73.73,0,0,0,.37-.57L25.25,12a.76.76,0,0,0-.33-.71.75.75,0,0,0-.79,0l-.63.36L20.78,6.93a3.25,3.25,0,0,0-2.84-1.64h0A3.23,3.23,0,0,0,15.1,6.93l-3.28,5.69a.74.74,0,0,0,.11.9A.76.76,0,0,0,12.83,13.66Zm3.57-6a1.76,1.76,0,0,1,1.54-.89h0a1.76,1.76,0,0,1,1.54.89L22.58,13a.72.72,0,0,0,.45.35.8.8,0,0,0,.57-.07h0L23.2,17,19.82,15.5l.29-.17a.75.75,0,0,0,.28-1L17.9,10a.74.74,0,0,0-1-.28l-2.45,1.34Z"/></svg>