<svg id="e5e86ce9-5123-4054-adab-3bd028de80ef" data-name="Layer 1" xmlns="http://www.w3.org/2000/svg" viewBox="0 0 36 36">
  <title>Icon-Red_Hat-Virtual_storage_stack_secured-A-Black-RGB</title>
  <g>
    <path d="M24.03,29.47a.774.774,0,0,0-1.06,0,.748.748,0,0,0,0,1.06.75.75,0,1,0,1.06-1.06Z"/>
    <path d="M11,29.25a.748.748,0,1,0,.529.217A.749.749,0,0,0,11,29.25Z"/>
    <path d="M21,29.25a.748.748,0,1,0,.529.217A.749.749,0,0,0,21,29.25Z"/>
    <path d="M8.5,29.25a.743.743,0,1,0,.532.217A.748.748,0,0,0,8.5,29.25Z"/>
    <path d="M6,29.25a.748.748,0,1,0,.529.217A.749.749,0,0,0,6,29.25Z"/>
    <path d="M16,29.25a.748.748,0,1,0,.529.217A.749.749,0,0,0,16,29.25Z"/>
    <path d="M18.5,29.25a.743.743,0,1,0,.532.217A.749.749,0,0,0,18.5,29.25Z"/>
    <path d="M13.5,29.25a.743.743,0,1,0,.532.217A.748.748,0,0,0,13.5,29.25Z"/>
    <path d="M4.03,29.47a.774.774,0,0,0-1.06,0,.748.748,0,0,0,0,1.06.75.75,0,1,0,1.06-1.06Z"/>
    <path d="M3.5,4.7a.748.748,0,1,0,.529.217A.749.749,0,0,0,3.5,4.7Z"/>
    <path d="M3.5,7.15a.755.755,0,0,0-.75.75.761.761,0,0,0,.221.537.739.739,0,0,0,1.058,0A.761.761,0,0,0,4.25,7.9a.755.755,0,0,0-.75-.75Z"/>
    <path d="M3.5,9.61a.755.755,0,1,0,.529.221A.749.749,0,0,0,3.5,9.61Z"/>
    <path d="M3.5,14.52a.748.748,0,1,0,.529.217A.749.749,0,0,0,3.5,14.52Z"/>
    <path d="M3.5,19.43a.748.748,0,1,0,.529.217A.749.749,0,0,0,3.5,19.43Z"/>
    <path d="M3.5,21.88a.755.755,0,1,0,.529.221A.749.749,0,0,0,3.5,21.88Z"/>
    <path d="M3.5,16.97a.755.755,0,1,0,.529.221A.749.749,0,0,0,3.5,16.97Z"/>
    <path d="M3.5,26.79a.755.755,0,1,0,.529.221A.749.749,0,0,0,3.5,26.79Z"/>
    <path d="M3.5,24.34a.755.755,0,1,0,.529.221A.749.749,0,0,0,3.5,24.34Z"/>
    <path d="M3.5,12.06a.755.755,0,1,0,.529.221A.749.749,0,0,0,3.5,12.06Z"/>
    <path d="M4.19,2.71a.922.922,0,0,0-.069-.128A.687.687,0,0,0,4.03,2.47a.754.754,0,0,0-.384-.2.736.736,0,0,0-.436.044.5.5,0,0,0-.128.065.772.772,0,0,0-.112.1.748.748,0,0,0,0,1.06.753.753,0,0,0,.53.22.729.729,0,0,0,.148-.015A.691.691,0,0,0,3.79,3.69a.911.911,0,0,0,.127-.069.677.677,0,0,0,.2-.2A.911.911,0,0,0,4.19,3.29a.888.888,0,0,0,.045-.145A.7.7,0,0,0,4.25,3a.746.746,0,0,0-.015-.149A.682.682,0,0,0,4.19,2.71Z"/>
    <path d="M21.7,3.75a.755.755,0,1,0-.529-.221A.751.751,0,0,0,21.7,3.75Z"/>
    <path d="M13.9,3.75a.748.748,0,1,0-.533-.221A.751.751,0,0,0,13.9,3.75Z"/>
    <path d="M19.1,3.75a.748.748,0,1,0-.533-.221A.746.746,0,0,0,19.1,3.75Z"/>
    <path d="M6.1,3.75a.748.748,0,1,0-.533-.221A.746.746,0,0,0,6.1,3.75Z"/>
    <path d="M24.3,3.75a.755.755,0,1,0-.529-.221A.751.751,0,0,0,24.3,3.75Z"/>
    <path d="M26.9,3.75a.755.755,0,1,0-.529-.221A.751.751,0,0,0,26.9,3.75Z"/>
    <path d="M16.5,3.75a.755.755,0,1,0-.529-.221A.751.751,0,0,0,16.5,3.75Z"/>
    <path d="M8.7,3.75a.748.748,0,1,0-.533-.221A.751.751,0,0,0,8.7,3.75Z"/>
    <path d="M11.3,3.75a.748.748,0,1,0-.533-.221A.751.751,0,0,0,11.3,3.75Z"/>
    <path d="M28.81,3.29a.492.492,0,0,0,.065.127.779.779,0,0,0,.095.113.687.687,0,0,0,.112.091.922.922,0,0,0,.128.069.859.859,0,0,0,.145.045.693.693,0,0,0,.145.015.736.736,0,0,0,.287-.058.745.745,0,0,0,.405-.405.749.749,0,0,0-.162-.817.754.754,0,0,0-.384-.2.736.736,0,0,0-.436.044.5.5,0,0,0-.128.065.9.9,0,0,0-.207.207.5.5,0,0,0-.065.128.682.682,0,0,0-.045.141A.746.746,0,0,0,28.75,3a.7.7,0,0,0,.015.145A.888.888,0,0,0,28.81,3.29Z"/>
    <path d="M29.5,6.25a.755.755,0,1,0-.529-.221A.751.751,0,0,0,29.5,6.25Z"/>
    <path d="M29.5,18.75a.755.755,0,1,0-.529-.221A.751.751,0,0,0,29.5,18.75Z"/>
    <path d="M29.5,8.75a.755.755,0,1,0-.529-.221A.751.751,0,0,0,29.5,8.75Z"/>
    <path d="M29.5,16.25a.755.755,0,1,0-.529-.221A.751.751,0,0,0,29.5,16.25Z"/>
    <path d="M29.5,21.25a.755.755,0,1,0-.529-.221A.751.751,0,0,0,29.5,21.25Z"/>
    <path d="M29.5,13.75a.755.755,0,1,0-.529-.221A.751.751,0,0,0,29.5,13.75Z"/>
    <path d="M29.5,11.25a.755.755,0,1,0-.529-.221A.751.751,0,0,0,29.5,11.25Z"/>
    <path d="M28.97,23.53a.753.753,0,0,0,.53.22.729.729,0,0,0,.148-.015.691.691,0,0,0,.142-.045.911.911,0,0,0,.127-.069.693.693,0,0,0,.113-.091.745.745,0,0,0,.162-.243.749.749,0,0,0-.162-.817.774.774,0,0,0-1.06,0,.687.687,0,0,0-.091.112.827.827,0,0,0-.069.128.682.682,0,0,0-.045.141A.746.746,0,0,0,28.75,23a.753.753,0,0,0,.057.287A.764.764,0,0,0,28.97,23.53Z"/>
    <path d="M26.5,13.249H6.5a.751.751,0,0,0-.75.75v5a.751.751,0,0,0,.75.75h20a.751.751,0,0,0,.75-.75V14a.751.751,0,0,0-.75-.75Zm-.75,3.25v1.75H7.25v-3.5h18.5Z"/>
    <path d="M23.27,17.03a.753.753,0,0,0,.53.22.688.688,0,0,0,.14-.015.713.713,0,0,0,.14-.045.824.824,0,0,0,.136-.069.66.66,0,0,0,.114-.091.693.693,0,0,0,.091-.113.911.911,0,0,0,.069-.127.888.888,0,0,0,.045-.145.7.7,0,0,0,.015-.145.763.763,0,0,0-.334-.625.488.488,0,0,0-.136-.065.707.707,0,0,0-.428-.044.756.756,0,0,0-.382.2.809.809,0,0,0-.168.242.7.7,0,0,0,0,.575A.814.814,0,0,0,23.27,17.03Z"/>
    <path d="M11.949,15.749h-3a.75.75,0,0,0,0,1.5h3a.75.75,0,0,0,0-1.5Z"/>
    <path d="M27.25,8.5V6a.751.751,0,0,0-.75-.75H6.5A.751.751,0,0,0,5.75,6v5a.751.751,0,0,0,.75.75h20a.751.751,0,0,0,.75-.75Zm-1.5,0v1.75H7.25v-3.5h18.5Z"/>
    <path d="M23.1,8.79a.76.76,0,0,0,.073.127.948.948,0,0,0,.1.113.463.463,0,0,0,.109.091,1.02,1.02,0,0,0,.131.069.682.682,0,0,0,.141.045.746.746,0,0,0,.149.015.688.688,0,0,0,.14-.015.713.713,0,0,0,.14-.045.824.824,0,0,0,.136-.069.66.66,0,0,0,.114-.091.693.693,0,0,0,.091-.113.911.911,0,0,0,.069-.127.888.888,0,0,0,.045-.145A.7.7,0,0,0,24.55,8.5a.746.746,0,0,0-.015-.149.682.682,0,0,0-.045-.141.922.922,0,0,0-.069-.128.687.687,0,0,0-.091-.112.737.737,0,0,0-.114-.095.488.488,0,0,0-.136-.065.707.707,0,0,0-.57,0,.534.534,0,0,0-.131.065.5.5,0,0,0-.109.095.939.939,0,0,0-.1.112.77.77,0,0,0-.073.128.91.91,0,0,0-.036.141.826.826,0,0,0-.014.149.775.775,0,0,0,.014.145A1.226,1.226,0,0,0,23.1,8.79Z"/>
    <path d="M11.949,7.749h-3a.75.75,0,0,0,0,1.5h3a.75.75,0,0,0,0-1.5Z"/>
    <path d="M25.75,24a.75.75,0,0,0,1.5,0V22a.751.751,0,0,0-.75-.75H6.5a.751.751,0,0,0-.75.75v5a.751.751,0,0,0,.75.75h17a.75.75,0,0,0,0-1.5H7.25v-3.5h18.5V24Z"/>
    <path d="M33.109,26.563a.763.763,0,0,0-.372-.274l-1.5-.5-1.5-.5a.768.768,0,0,0-.237-.038.779.779,0,0,0-.238.038l-1.5.5-1.5.5a.757.757,0,0,0-.37.274A.746.746,0,0,0,25.75,27v3a3.75,3.75,0,0,0,7.5,0V27A.753.753,0,0,0,33.109,26.563Z"/>
    <path d="M24.33,23.97a.774.774,0,0,0-1.06,0,.748.748,0,0,0,0,1.06.662.662,0,0,0,.239.162.759.759,0,0,0,.291.058.688.688,0,0,0,.14-.015.713.713,0,0,0,.14-.045.824.824,0,0,0,.136-.069.66.66,0,0,0,.114-.091.745.745,0,0,0,.162-.243.749.749,0,0,0-.162-.817Z"/>
    <path d="M10.449,23.749h-1.5a.75.75,0,0,0,0,1.5h3a.75.75,0,0,0,0-1.5Z"/>
  </g>
</svg>
