<svg id="Layer_1" data-name="Layer 1" xmlns="http://www.w3.org/2000/svg" viewBox="0 0 36 36"><title>Icon-Red_Hat-Software_and_technologies-App_Unecured-A-Black-RGB</title><path d="M21.52,26.63H9.25V9.37h17.5V21.31a.75.75,0,1,0,1.5,0V8.62a.75.75,0,0,0-.75-.75H8.5a.75.75,0,0,0-.75.75V27.38a.75.75,0,0,0,.75.75h13a.75.75,0,0,0,0-1.5Z"/><path d="M24.21,11a.74.74,0,0,0-.4.4.72.72,0,0,0-.06.29.75.75,0,0,0,.22.53.78.78,0,0,0,.24.16.75.75,0,0,0,1-.69.72.72,0,0,0-.06-.29.78.78,0,0,0-.16-.24A.75.75,0,0,0,24.21,11Z"/><path d="M23.19,11.35a.75.75,0,0,0-1.38,0,.72.72,0,0,0-.06.29.75.75,0,0,0,1.5,0A.72.72,0,0,0,23.19,11.35Z"/><path d="M23.72,28.18a3.76,3.76,0,0,0,3.75,3.75,3.82,3.82,0,0,0,1.08-.18l-4.83-4.84Z"/><path d="M31.7,30.64l-.85-.86a3.76,3.76,0,0,0,.37-1.6v-3a.74.74,0,0,0-.51-.71l-3-1a.66.66,0,0,0-.48,0l-2,.67-.76-.75a.74.74,0,0,0-1.06,0,.75.75,0,0,0,0,1.06L29.92,31h0l.71.71a.74.74,0,0,0,.53.22.71.71,0,0,0,.53-.22A.74.74,0,0,0,31.7,30.64Z"/></svg>