<svg id="Icons" xmlns="http://www.w3.org/2000/svg" viewBox="0 0 36 36"><title>Icon-Red_Hat-Buildings-Home-A-Black-RGB</title><path d="M6.37,15.42a.74.74,0,0,0,1,.23l.85-.54V18a.75.75,0,0,0,1.5,0V14.15L18,8.9l10.6,6.75a.72.72,0,0,0,.4.12.75.75,0,0,0,.63-.35.76.76,0,0,0-.23-1l-3.66-2.33s0,0,0,0V10a.75.75,0,1,0-1.5,0V11.1L18.4,7.38a.77.77,0,0,0-.8,0l-11,7A.75.75,0,0,0,6.37,15.42Z"/><path d="M29,28.27H27.75V16a.75.75,0,1,0-1.5,0V28.27h-1.5V22a.75.75,0,0,0-.75-.75H20a.74.74,0,0,0-.75.75v6.25H9.75V21a.58.58,0,0,0,0-.19l6.69-4.18a.75.75,0,0,0-.8-1.27l-8,5a.75.75,0,0,0,.65,1.34v6.55H7a.75.75,0,1,0,0,1.5H29a.75.75,0,0,0,0-1.5Zm-5.75,0h-2.5v-5.5h2.5Z"/><path d="M12,21.27a.74.74,0,0,0-.75.75v4a.75.75,0,0,0,.75.75h5a.76.76,0,0,0,.75-.75V22a.75.75,0,0,0-.75-.75Zm4.25,4h-3.5v-2.5h3.5Z"/></svg>