<svg id="Layer_1" data-name="Layer 1" xmlns="http://www.w3.org/2000/svg" viewBox="0 0 36 36"><title>Icon-Red_Hat-Hardware-Storage_Stack-A-Black-RGB</title><path d="M18,7.25c-5.47,0-9.75,2.53-9.75,5.75V23c0,3.22,4.28,5.75,9.75,5.75s9.75-2.53,9.75-5.75V13C27.75,9.78,23.47,7.25,18,7.25ZM26.25,18c0,2.3-3.78,4.25-8.25,4.25S9.75,20.3,9.75,18V16.1c1.71,1.6,4.73,2.65,8.25,2.65s6.54-1.05,8.25-2.65ZM18,8.75c4.47,0,8.25,1.95,8.25,4.25S22.47,17.25,18,17.25,9.75,15.3,9.75,13,13.53,8.75,18,8.75Zm0,18.5c-4.47,0-8.25-1.95-8.25-4.25V21.1c1.71,1.6,4.73,2.65,8.25,2.65s6.54-1.05,8.25-2.65V23C26.25,25.3,22.47,27.25,18,27.25Z"/></svg>