<svg id="f0beace6-cf1a-41d4-9ffc-a1e36462f8f7" data-name="virtual-datacenter" xmlns="http://www.w3.org/2000/svg" viewBox="0 0 36 36"><title>Icon-Red_Hat-Hardware-Virtual_Datacenter-A-Black-RGB</title><path d="M9.41,5.75a.75.75,0,0,0,0-1.5.75.75,0,0,0,0,1.5ZM28.5,7.25H7.5A.76.76,0,0,0,6.75,8V28a.76.76,0,0,0,.75.75h21a.76.76,0,0,0,.75-.75V8A.76.76,0,0,0,28.5,7.25Zm-14.75,20H8.25V8.75h5.5Zm7,0h-5.5V8.75h5.5Zm7,0h-5.5V8.75h5.5Zm-4.25-6.5h3a.75.75,0,0,0,0-1.5h-3a.75.75,0,0,0,0,1.5Zm3.09-15A.75.75,0,1,0,25.84,5,.76.76,0,0,0,26.59,5.75Zm-12.27,0a.75.75,0,0,0,0-1.5.75.75,0,0,0,0,1.5Zm9.18,12h3a.75.75,0,0,0,0-1.5h-3a.75.75,0,0,0,0,1.5Zm0-3h3a.75.75,0,0,0,0-1.5h-3a.75.75,0,0,0,0,1.5Zm.64-9a.75.75,0,0,0,0-1.5.75.75,0,0,0,0,1.5Zm-7.37,0A.75.75,0,1,0,16,5,.75.75,0,0,0,16.77,5.75Zm2.46,0a.75.75,0,0,0,0-1.5.75.75,0,0,0,0,1.5Zm-7.37,0A.75.75,0,1,0,11.11,5,.75.75,0,0,0,11.86,5.75Zm9.82,0A.75.75,0,1,0,20.93,5,.75.75,0,0,0,21.68,5.75Zm-5.18,9h3a.75.75,0,0,0,0-1.5h-3a.75.75,0,0,0,0,1.5Zm-7-3h3a.75.75,0,0,0,0-1.5h-3a.75.75,0,0,0,0,1.5Zm0,3h3a.75.75,0,0,0,0-1.5h-3a.75.75,0,0,0,0,1.5Zm0,3h3a.75.75,0,0,0,0-1.5h-3a.75.75,0,0,0,0,1.5Zm2,6.72a.78.78,0,0,0-.24-.16.73.73,0,0,0-.58,0,.74.74,0,0,0-.4.4.73.73,0,0,0,0,.58.74.74,0,0,0,.4.4.72.72,0,0,0,.29.06.75.75,0,0,0,.29-.06.74.74,0,0,0,.4-.4.73.73,0,0,0,0-.58A.78.78,0,0,0,11.53,24.47ZM31,5.53a.77.77,0,0,0,.53.22A.75.75,0,0,0,32,5.53a.78.78,0,0,0,.16-.24A.72.72,0,0,0,32.25,5,.75.75,0,0,0,31,4.47a.75.75,0,0,0-.22.53.72.72,0,0,0,.06.29A.78.78,0,0,0,31,5.53ZM9.5,20.75h3a.75.75,0,0,0,0-1.5h-3a.75.75,0,0,0,0,1.5Zm19.55-15A.75.75,0,1,0,28.3,5,.75.75,0,0,0,29.05,5.75ZM25.53,24.47a.75.75,0,0,0-1.22.24.72.72,0,0,0-.06.29.75.75,0,0,0,.06.29.78.78,0,0,0,.16.24.75.75,0,0,0,1.06,0,.78.78,0,0,0,.16-.24.73.73,0,0,0,0-.58A.78.78,0,0,0,25.53,24.47Zm-9-3.72h3a.75.75,0,0,0,0-1.5h-3a.75.75,0,0,0,0,1.5Zm7-9h3a.75.75,0,0,0,0-1.5h-3a.75.75,0,0,0,0,1.5Zm-5,12.72a.78.78,0,0,0-.24-.16.75.75,0,0,0-.82.16.78.78,0,0,0-.16.24.72.72,0,0,0-.06.29.75.75,0,0,0,.06.29.78.78,0,0,0,.16.24.75.75,0,0,0,.53.22.72.72,0,0,0,.29-.06.74.74,0,0,0,.4-.4.75.75,0,0,0,.06-.29.72.72,0,0,0-.06-.29A.78.78,0,0,0,18.53,24.47Zm-2-6.72h3a.75.75,0,0,0,0-1.5h-3a.75.75,0,0,0,0,1.5Zm0-6h3a.75.75,0,0,0,0-1.5h-3a.75.75,0,0,0,0,1.5ZM7,5.75A.75.75,0,1,0,6.21,5,.75.75,0,0,0,7,5.75ZM4.5,19.85a.75.75,0,1,0,.75.75A.75.75,0,0,0,4.5,19.85Zm27,5.2a.75.75,0,1,0,.75.75A.75.75,0,0,0,31.5,25.05Zm0,2.6a.75.75,0,0,0,0,1.5.75.75,0,0,0,0-1.5ZM29,30.25a.75.75,0,0,0,0,1.5.75.75,0,1,0,0-1.5Zm3,.22a.78.78,0,0,0-.24-.16.75.75,0,0,0-1,.69.72.72,0,0,0,.06.29.78.78,0,0,0,.16.24.63.63,0,0,0,.24.16.73.73,0,0,0,.58,0,.63.63,0,0,0,.24-.16.78.78,0,0,0,.16-.24.72.72,0,0,0,.06-.29.75.75,0,0,0-.06-.29A.78.78,0,0,0,32,30.47Zm-10.35-.22a.75.75,0,1,0,.75.75A.76.76,0,0,0,21.68,30.25Zm4.91,0a.75.75,0,1,0,.75.75A.76.76,0,0,0,26.59,30.25Zm-2.45,0a.75.75,0,1,0,.75.75A.75.75,0,0,0,24.14,30.25Zm7.36-10.4a.75.75,0,0,0,0,1.5.75.75,0,0,0,0-1.5Zm0,2.6a.75.75,0,1,0,.75.75A.75.75,0,0,0,31.5,22.45Zm0-15.6a.75.75,0,1,0,.75.75A.75.75,0,0,0,31.5,6.85Zm0,5.2a.75.75,0,0,0,0,1.5.75.75,0,0,0,0-1.5Zm0-2.6a.75.75,0,1,0,.75.75A.75.75,0,0,0,31.5,9.45ZM19.23,30.25A.75.75,0,1,0,20,31,.75.75,0,0,0,19.23,30.25Zm12.27-13a.75.75,0,1,0,.75.75A.75.75,0,0,0,31.5,17.25ZM4.79,30.31a.73.73,0,0,0-.58,0,.78.78,0,0,0-.24.16.75.75,0,0,0-.22.53.72.72,0,0,0,.06.29.78.78,0,0,0,.16.24.77.77,0,0,0,.53.22.72.72,0,0,0,.29-.06A.63.63,0,0,0,5,31.53a.75.75,0,0,0,0-1.06A.78.78,0,0,0,4.79,30.31ZM31.5,14.65a.75.75,0,1,0,.75.75A.75.75,0,0,0,31.5,14.65Zm-27,2.6a.75.75,0,1,0,.75.75A.76.76,0,0,0,4.5,17.25Zm0-2.6a.75.75,0,1,0,.75.75A.76.76,0,0,0,4.5,14.65Zm0-2.6a.75.75,0,1,0,.75.75A.75.75,0,0,0,4.5,12.05Zm0,13a.75.75,0,1,0,.75.75A.76.76,0,0,0,4.5,25.05Zm0,2.6a.75.75,0,1,0,.75.75A.75.75,0,0,0,4.5,27.65Zm0-18.2a.75.75,0,1,0,.75.75A.76.76,0,0,0,4.5,9.45Zm0,13a.75.75,0,1,0,.75.75A.76.76,0,0,0,4.5,22.45Zm0-15.6a.75.75,0,1,0,.75.75A.76.76,0,0,0,4.5,6.85Zm12.27,23.4a.75.75,0,1,0,.75.75A.76.76,0,0,0,16.77,30.25Zm-2.45,0a.75.75,0,1,0,.75.75A.75.75,0,0,0,14.32,30.25Zm-4.91,0a.75.75,0,1,0,.75.75A.76.76,0,0,0,9.41,30.25Zm2.45,0a.75.75,0,1,0,.75.75A.76.76,0,0,0,11.86,30.25ZM5,4.47a.75.75,0,0,0-.82-.16A.78.78,0,0,0,4,4.47a.63.63,0,0,0-.16.24A.72.72,0,0,0,3.75,5,.75.75,0,0,0,4,5.53a.63.63,0,0,0,.24.16.75.75,0,0,0,1-1A.78.78,0,0,0,5,4.47ZM7,30.25A.75.75,0,1,0,7.7,31,.75.75,0,0,0,7,30.25Z"/></svg>