<svg id="a2f02e4d-a451-48bf-b838-f9f338432f39" data-name="truck" xmlns="http://www.w3.org/2000/svg" viewBox="0 0 36 36"><title>Icon-Red_Hat-Transportation-Truck-A-Black-RGB</title><path d="M31.75,21.25v-3a.73.73,0,0,0-.08-.33l-2-4A.73.73,0,0,0,29,13.5H25.75V10.25A.76.76,0,0,0,25,9.5H5a.76.76,0,0,0-.75.75v13A.76.76,0,0,0,5,24H7.35a3.23,3.23,0,0,0,6.3,0h7.7a3.23,3.23,0,0,0,6.3,0H31a.75.75,0,0,0,0-1.5H27.65a2.88,2.88,0,0,0-.15-.5H31A.76.76,0,0,0,31.75,21.25ZM10.5,25a1.75,1.75,0,1,1,1.75-1.75A1.76,1.76,0,0,1,10.5,25Zm10.85-2.5h-7.7a3.23,3.23,0,0,0-6.3,0H5.75V11h18.5v9A3.23,3.23,0,0,0,21.35,22.5ZM24.5,25a1.75,1.75,0,1,1,1.75-1.75A1.76,1.76,0,0,1,24.5,25Zm5.75-4.5h-4a4.09,4.09,0,0,0-.46-.25V15h2.8l1.7,3.43Z"/></svg>