<svg id="a2047280-26a0-4382-903c-c43d39f6b286" data-name="Layer 1" xmlns="http://www.w3.org/2000/svg" viewBox="0 0 36 36">
  <title>Icon-Red_Hat-Industry-A-Black-RGB</title>
  <path d="M29.53,11.47a.745.745,0,0,0-.53-.22H27.75V7A.751.751,0,0,0,27,6.25H24a.751.751,0,0,0-.75.75v4.25h-.5V7A.751.751,0,0,0,22,6.25H19a.751.751,0,0,0-.75.75v4.25H17a.751.751,0,0,0-.75.75v5.25h-3.5V8A.751.751,0,0,0,12,7.25H9A.751.751,0,0,0,8.25,8v9.25H7a.751.751,0,0,0-.75.75V29a.751.751,0,0,0,.75.75H29a.751.751,0,0,0,.75-.75V12A.745.745,0,0,0,29.53,11.47ZM24.75,9.5V7.75h1.5v3.5h-1.5Zm-5,0V7.75h1.5v3.5h-1.5ZM9.75,13V8.75h1.5v8.5H9.75Zm13.5,13v2.25h-2.5v-4.5h2.5Zm5-2.5v4.75h-3.5V23a.751.751,0,0,0-.75-.75H20a.751.751,0,0,0-.75.75v5.25H7.75v-9.5h20.5Zm0-8.5v2.25H17.75v-4.5h10.5Z"/>
</svg>
