<svg id="b87ec269-f664-4e42-bf99-d7742fdd3812" data-name="lifecycle" xmlns="http://www.w3.org/2000/svg" viewBox="0 0 36 36"><title>Icon-Red_Hat-Diagrams-Lifecycle-A-Black-RGB</title><path d="M17.94,8.31a9.24,9.24,0,0,1,6.64,2.84l-2.14-.1a.75.75,0,0,0-.79.72.76.76,0,0,0,.72.78l3.82.17h0a.74.74,0,0,0,.25-.05l.08,0,.09,0,0,0,.11-.11.08-.11s0-.09.05-.13a.7.7,0,0,0,0-.14A.14.14,0,0,0,27,12l.17-3.82a.74.74,0,0,0-.72-.78.75.75,0,0,0-.78.71L25.56,10a10.71,10.71,0,0,0-7.62-3.2,11.23,11.23,0,0,0-2.32.27h0a3.24,3.24,0,0,0-2.69-1.43h0a3.25,3.25,0,0,0-2.3,5.55,3.21,3.21,0,0,0,2.3,1h0A3.24,3.24,0,0,0,16.18,8.9a2.58,2.58,0,0,0,0-.39A9,9,0,0,1,17.94,8.31Zm-3.77,1.83a1.74,1.74,0,0,1-1.24.51h0a1.75,1.75,0,0,1,0-3.5h0A1.76,1.76,0,0,1,14.68,8.9,1.74,1.74,0,0,1,14.17,10.14Zm13.77,4.17a3.25,3.25,0,0,0-1.27,6.24h0A9.09,9.09,0,0,1,26,22.18a9.21,9.21,0,0,1-5.78,4.34l1.16-1.81a.74.74,0,0,0-.23-1,.76.76,0,0,0-1,.23L18,27.13l0,.09a.5.5,0,0,0,0,.13.47.47,0,0,0,0,.16s0,0,0,.08,0,0,0,.05a.57.57,0,0,0,0,.14.5.5,0,0,0,0,.13l.08.11.11.11.05,0,3.23,2.06a.72.72,0,0,0,.4.12A.78.78,0,0,0,22.5,30a.76.76,0,0,0-.23-1l-1.61-1a10.71,10.71,0,0,0,6.59-5,11.23,11.23,0,0,0,.92-2.14,3.24,3.24,0,0,0-.23-6.48Zm0,5a1.75,1.75,0,1,1,1.75-1.75A1.75,1.75,0,0,1,27.94,19.31ZM13.77,23.08a3.2,3.2,0,0,0-2.46.32,3.88,3.88,0,0,0-.33.23h0A9.44,9.44,0,0,1,9.9,22.14,9.19,9.19,0,0,1,9.07,15l1,1.9a.75.75,0,0,0,.67.41.71.71,0,0,0,.34-.08.75.75,0,0,0,.32-1L9.64,12.78l-.05-.06a.4.4,0,0,0-.1-.12l-.12-.1-.07-.05H9.25l-.15,0-.13,0-.14,0-.15,0,0,0L5.22,14.2a.75.75,0,0,0,.69,1.34l1.69-.87a10.69,10.69,0,0,0,1,8.21A10.25,10.25,0,0,0,10,24.79h0a3.25,3.25,0,0,0,2.92,4.68A3.19,3.19,0,0,0,14.55,29a3.24,3.24,0,0,0,1.19-4.44A3.19,3.19,0,0,0,13.77,23.08Zm.85,3.59a1.71,1.71,0,0,1-.82,1.06,1.74,1.74,0,1,1,.82-1.06Z"/></svg>
