<svg id="Icon" xmlns="http://www.w3.org/2000/svg" viewBox="0 0 36 36"><title>Icon-Red_Hat-Objects-Target-A-Black</title><path d="M30.53,9.47a.75.75,0,0,0,.16-.82A.74.74,0,0,0,30,8.19H27.4V5.59a.75.75,0,0,0-1.29-.53L22.69,8.48l0,0A11.48,11.48,0,0,0,16.91,7,11.66,11.66,0,1,0,28.57,18.63a11.53,11.53,0,0,0-1.51-5.71l.05,0ZM24,9.32,25.9,7.4V8.61L24,10.54Zm-.55,9.31A6.52,6.52,0,1,1,21,13.54l-1.61,1.61a4.2,4.2,0,0,0-2.44-.78,4.26,4.26,0,1,0,4.26,4.26,4.21,4.21,0,0,0-.76-2.42L22,14.61A6.49,6.49,0,0,1,23.42,18.63Zm-7.25.77a.77.77,0,0,0,.53.22.79.79,0,0,0,.53-.22l2.09-2.09a2.68,2.68,0,0,1,.35,1.32,2.79,2.79,0,1,1-1.4-2.39l-2.1,2.1A.75.75,0,0,0,16.17,19.4Zm10.9-.77A10.16,10.16,0,1,1,16.91,8.47a10,10,0,0,1,5.56,1.68V12l-.44.44a8,8,0,1,0,1.06,1.06l.42-.43h1.91A10.07,10.07,0,0,1,27.07,18.63Zm-.8-7H25l1.93-1.92h1.25Z"/></svg>