<svg id="Layer_1" data-name="Layer 1" xmlns="http://www.w3.org/2000/svg" viewBox="0 0 36 36"><title>Icon-Red_Hat-Transportation-Car-A-Black-RGB</title><path d="M21,19.25H15a.76.76,0,0,0-.75.75v2a.76.76,0,0,0,.75.75h6a.75.75,0,0,0,.75-.75V20A.75.75,0,0,0,21,19.25Zm-.75,2h-4.5v-.5h4.5Z"/><path d="M26,16.25h-.35l-.91-6.36A.74.74,0,0,0,24,9.25H12a.74.74,0,0,0-.74.64l-.91,6.36H10A2.75,2.75,0,0,0,7.24,19v6a.76.76,0,0,0,.75.75H9.24V27a1.75,1.75,0,0,0,3.5,0V25.75h10.5V27a1.75,1.75,0,0,0,3.5,0V25.75H28a.75.75,0,0,0,.75-.75V19A2.75,2.75,0,0,0,26,16.25Zm-13.35-5.5h10.7l.79,5.5H11.86ZM11.24,27c0,.28-.5.28-.5,0V25.75h.5Zm14,0c0,.28-.5.28-.5,0V25.75h.5Zm2-2.75H8.74V19A1.25,1.25,0,0,1,10,17.75H26A1.25,1.25,0,0,1,27.24,19Z"/><path d="M11,19.25a.76.76,0,0,0-.75.75v2a.75.75,0,0,0,1.5,0V20A.75.75,0,0,0,11,19.25Z"/><path d="M25,19.25a.76.76,0,0,0-.75.75v2a.75.75,0,0,0,1.5,0V20A.75.75,0,0,0,25,19.25Z"/><path d="M27,15.75a.75.75,0,0,0,.53-1.28.77.77,0,0,0-1.06,0A.75.75,0,0,0,27,15.75Z"/><path d="M9,15.75a.77.77,0,0,0,.53-.22.75.75,0,0,0,0-1.06.63.63,0,0,0-.24-.16.73.73,0,0,0-.58,0,.63.63,0,0,0-.24.16.77.77,0,0,0-.22.53.75.75,0,0,0,.75.75Z"/></svg>