<?xml version="1.0" encoding="utf-8"?>
<!-- Generator: Adobe Illustrator 19.1.0, SVG Export Plug-In . SVG Version: 6.00 Build 0)  -->
<svg version="1.1" id="Layer_1" xmlns="http://www.w3.org/2000/svg" xmlns:xlink="http://www.w3.org/1999/xlink" x="0px" y="0px"
	 viewBox="0 0 32 32" enable-background="new 0 0 32 32" xml:space="preserve">
<g>
	<path fill="#010101" d="M10.471,10.395c1.273,0,2.31-1.036,2.31-2.309s-1.036-2.309-2.31-2.309s-2.31,1.036-2.31,2.309
		S9.198,10.395,10.471,10.395z M10.471,6.369c0.947,0,1.717,0.77,1.717,1.716c0,0.946-0.77,1.716-1.717,1.716
		s-1.717-0.77-1.717-1.716C8.754,7.139,9.524,6.369,10.471,6.369z"/>
	<path fill="#010101" d="M24.27,16.313h-0.713c-0.276-1.798-1.497-5.369-2.223-6.443c-0.066-0.098-0.185-0.146-0.3-0.125
		l-0.415,0.078c-0.004-0.012-0.003-0.025-0.009-0.036c-0.023-0.051-2.374-5.103-2.746-5.866c-0.365-0.75-1.111-0.851-1.792-0.851
		h-1.339c-0.164,0-0.296,0.133-0.296,0.296c0,0.164,0.133,0.296,0.296,0.296h1.339c0.725,0,1.078,0.145,1.259,0.518
		c0.341,0.7,2.362,5.041,2.694,5.755L18.24,10.27V9.102c0-0.164-0.133-0.296-0.296-0.296H16.76c-0.164,0-0.296,0.133-0.296,0.296
		v4.98c0,0.164,0.133,0.296,0.296,0.296h0.887v1.935h-1.399c0.064-0.158,0.103-0.341,0.103-0.55c0-0.632-0.606-1.126-1.381-1.126
		h-2.044v-1.322c0-1.273-1.036-2.309-2.31-2.309s-2.31,1.036-2.31,2.309v1.575c-0.105-0.041-0.219-0.066-0.339-0.066
		c-0.514,0-0.932,0.418-0.932,0.932v3.349c0,1.027,0.376,1.634,0.708,2.169c0.265,0.428,0.495,0.798,0.495,1.337v4.799
		c0,0.164,0.133,0.296,0.296,0.296h1.121c0.164,0,0.296-0.133,0.296-0.296v-4.624c0-0.056,0.046-0.102,0.102-0.102h3.546v4.328
		c0,0.383,0.312,0.695,0.695,0.695h9.976c0.383,0,0.695-0.312,0.695-0.695V17.008C24.965,16.624,24.653,16.313,24.27,16.313z
		 M17.056,13.786V9.399h0.591v1.229v3.158H17.056z M18.24,14.082v-3.209l2.705-0.509c0.678,1.153,1.74,4.301,2.013,5.948H18.24
		V14.082z M13.599,17.008v1.266h-0.571c-0.056,0-0.102-0.046-0.102-0.102v-1.283h0.686C13.605,16.928,13.599,16.967,13.599,17.008z
		 M8.899,13.314c0-0.946,0.77-1.716,1.717-1.716s1.717,0.77,1.717,1.716v1.322h-0.679c-0.164,0-0.296,0.133-0.296,0.296
		s0.133,0.296,0.296,0.296h3.316c0.442,0,0.788,0.234,0.788,0.534c0,0.354-0.118,0.534-0.352,0.534h-4.333
		c-0.569,0-1.032-0.463-1.032-1.032v-1.867c0-0.164-0.133-0.296-0.296-0.296c-0.164,0-0.296,0.133-0.296,0.296v1.867
		c0,0.896,0.729,1.624,1.625,1.624h1.26v1.283c0,0.383,0.312,0.695,0.695,0.695h0.571v1.953h-2.942
		c-0.953,0-1.758-0.786-1.758-1.716v-3.349V13.314z M10.054,22.09c-0.383,0-0.695,0.312-0.695,0.695v4.328H8.831V22.61
		c0-0.707-0.297-1.186-0.584-1.649c-0.318-0.514-0.619-0.999-0.619-1.857v-3.349c0-0.187,0.152-0.339,0.339-0.339
		c0.187,0,0.339,0.152,0.339,0.339v3.349c0,1.273,1.055,2.309,2.351,2.309h2.942v0.678H10.054z M24.372,27.01
		c0,0.056-0.046,0.102-0.102,0.102h-9.976c-0.056,0-0.102-0.046-0.102-0.102V17.008c0-0.056,0.046-0.102,0.102-0.102h9.976
		c0.056,0,0.102,0.046,0.102,0.102V27.01z"/>
</g>
</svg>
