<svg id="b7ded0fc-a11b-4824-805b-e471ca4c2252" data-name="Icon" xmlns="http://www.w3.org/2000/svg" width="36" height="36" viewBox="0 0 36 36"><title>Icon-Red_Hat-Buildings-Industry-A-Black-RGB</title><path d="M29,11.25H27.75V7A.76.76,0,0,0,27,6.25H24a.76.76,0,0,0-.75.75v4.25h-.5V7A.76.76,0,0,0,22,6.25H19a.76.76,0,0,0-.75.75v4.25H17a.76.76,0,0,0-.75.75v5.25h-3.5V8A.76.76,0,0,0,12,7.25H9A.76.76,0,0,0,8.25,8v9.25H7a.76.76,0,0,0-.75.75V29a.76.76,0,0,0,.75.75H29a.76.76,0,0,0,.75-.75V12A.76.76,0,0,0,29,11.25Zm-4.25-3.5h1.5v3.5h-1.5Zm-5,0h1.5v3.5h-1.5Zm-10,1h1.5v8.5H9.75Zm13.5,19.5h-2.5v-4.5h2.5Zm5,0h-3.5V23a.76.76,0,0,0-.75-.75H20a.76.76,0,0,0-.75.75v5.25H7.75v-9.5h20.5Zm0-11H17.75v-4.5h10.5Z"/></svg>