<svg id="fb444e12-3e19-452e-a0aa-61dc80ae30b8" data-name="transportation" xmlns="http://www.w3.org/2000/svg" viewBox="0 0 36 36"><title>Icon-Red_Hat-Transportation-Transportation-A-Black-RGB</title><path d="M23,10.16a.76.76,0,0,0-.75.75v6a.75.75,0,0,0,1.5,0v-6A.76.76,0,0,0,23,10.16Zm-3.33,0a.75.75,0,0,0-.75.75v6a.75.75,0,0,0,1.5,0v-6A.76.76,0,0,0,19.67,10.16Zm-3.34,0a.76.76,0,0,0-.75.75v6a.75.75,0,0,0,1.5,0v-6A.75.75,0,0,0,16.33,10.16Zm-3.33,0a.76.76,0,0,0-.75.75v6a.75.75,0,0,0,1.5,0v-6A.76.76,0,0,0,13,10.16Zm1.5,13.59A2.25,2.25,0,1,0,16.75,26,2.25,2.25,0,0,0,14.5,23.75Zm0,3a.75.75,0,1,1,.75-.75A.76.76,0,0,1,14.5,26.75Zm12-3A2.25,2.25,0,1,0,28.75,26,2.25,2.25,0,0,0,26.5,23.75Zm0,3a.75.75,0,1,1,.75-.75A.76.76,0,0,1,26.5,26.75ZM29,21.39H7a.75.75,0,0,0,0,1.5H29a.75.75,0,0,0,0-1.5ZM9.5,23.75A2.25,2.25,0,1,0,11.75,26,2.25,2.25,0,0,0,9.5,23.75Zm0,3a.75.75,0,1,1,.75-.75A.76.76,0,0,1,9.5,26.75Zm.5-6.5H26a.76.76,0,0,0,.75-.75V8.5A.76.76,0,0,0,26,7.75H10a.76.76,0,0,0-.75.75v11A.76.76,0,0,0,10,20.25Zm.75-11h14.5v9.5H10.75ZM21.5,23.75A2.25,2.25,0,1,0,23.75,26,2.25,2.25,0,0,0,21.5,23.75Zm0,3a.75.75,0,1,1,.75-.75A.76.76,0,0,1,21.5,26.75Z"/></svg>
