<svg id="a920cd66-29d1-48d3-80d6-0a9f8953cc19" data-name="Layer 1" xmlns="http://www.w3.org/2000/svg" width="36" height="36" viewBox="0 0 36 36"><title>Icon-Red_Hat-</title><path d="M14.52,11.29h.17a.75.75,0,0,0-.34-1.47.75.75,0,0,0,.17,1.48Zm6.25,0a.5.5,0,0,0,.17,0,.75.75,0,1,0-.17,0Zm5.95,2.81a.75.75,0,0,0,.47-1.34.75.75,0,0,0-.93,1.17A.73.73,0,0,0,26.72,14.08Zm-18,0a.72.72,0,0,0,.46-.16.75.75,0,1,0-.93-1.17.74.74,0,0,0-.12,1.05A.77.77,0,0,0,8.74,14.08Zm-3.68,3.6A.74.74,0,1,0,4.41,19a.61.61,0,0,0,.32.08.77.77,0,0,0,.68-.42A.75.75,0,0,0,5.06,17.68ZM3,23.92a.77.77,0,0,0-.47.7.73.73,0,0,0,.22.52.62.62,0,0,0,.25.17.67.67,0,0,0,.28.06.72.72,0,0,0,.29-.06.66.66,0,0,0,.24-.17.69.69,0,0,0,.22-.52.73.73,0,0,0-.22-.53A.76.76,0,0,0,3,23.92Zm29.68.16a1.07,1.07,0,0,0-.25-.16.77.77,0,0,0-.81.16.7.7,0,0,0-.22.53.72.72,0,0,0,.22.54.72.72,0,0,0,.53.21.77.77,0,0,0,.53-.21.76.76,0,0,0,0-1.07ZM31.41,18a.76.76,0,0,0-1-.35.75.75,0,0,0,.33,1.43.8.8,0,0,0,.33-.08A.75.75,0,0,0,31.41,18ZM25,19.65a6.42,6.42,0,0,0-11.71-2.91,5,5,0,1,0-.35,10H24.33a3.59,3.59,0,0,0,.71-7.1Zm-.71,5.6H13a3.51,3.51,0,0,1,0-7,3.83,3.83,0,0,1,.6.05.73.73,0,0,0,.78-.37,4.93,4.93,0,0,1,9.22,2.42.75.75,0,0,0,.75.75,2.09,2.09,0,1,1,0,4.17Z"/></svg>