<svg id="a18a0346-44ce-4e9d-859c-f0e642ea2ad3" data-name="Layer 1" xmlns="http://www.w3.org/2000/svg" viewBox="0 0 36 36">
  <title>Icon-Red_Hat-Graph_Steady_up-A-Black-RGB</title>
  <g>
    <path d="M31.692,19.225a.748.748,0,0,0-.325-.475.733.733,0,0,0-.562-.105L17.847,21.354,4.889,24.064a.75.75,0,0,0,.152,1.484.662.662,0,0,0,.077,0,.513.513,0,0,0,.077-.012l12.958-2.71,12.958-2.71a.748.748,0,0,0,.581-.887Z"/>
    <path d="M6.958,22.481a.751.751,0,0,0,.75-.75V7.75h20.5V17a.75.75,0,0,0,1.5,0V7a.751.751,0,0,0-.75-.75h-22a.751.751,0,0,0-.75.75V21.731a.751.751,0,0,0,.75.75Z"/>
    <path d="M17.428,9.47a.747.747,0,0,0-.22.53v7.709a.75.75,0,1,0,1.5,0V10a.75.75,0,0,0-1.28-.53Z"/>
    <path d="M23.428,9.469a.747.747,0,0,0-.22.531v6.455a.75.75,0,0,0,1.5,0V10a.75.75,0,0,0-1.28-.531Z"/>
    <path d="M11.428,9.47a.745.745,0,0,0-.22.53v9a.75.75,0,0,0,1.5,0V10a.75.75,0,0,0-1.28-.53Z"/>
    <path d="M28.958,22.25a.751.751,0,0,0-.75.75v5.25H7.708V27a.75.75,0,0,0-1.5,0v2a.751.751,0,0,0,.75.75h22a.751.751,0,0,0,.75-.75V23a.751.751,0,0,0-.75-.75Z"/>
  </g>
</svg>
