<svg id="Icons" xmlns="http://www.w3.org/2000/svg" viewBox="0 0 36 36"><title>Icon-Red_Hat-Documents-Paper_Checklist-A-Black-RGB</title><path d="M26.75,7A.75.75,0,0,0,26,6.27H14a.63.63,0,0,0-.19,0l-.07,0a.66.66,0,0,0-.22.15l-4,4a.66.66,0,0,0-.15.22.14.14,0,0,0,0,.07.58.58,0,0,0,0,.19s0,0,0,0V29a.75.75,0,0,0,.75.75H26a.76.76,0,0,0,.75-.75ZM13.25,8.83v1.44H11.81Zm12,19.44H10.75V11.77H14a.76.76,0,0,0,.75-.75V7.77h10.5Z"/><path d="M13.25,15v8a.75.75,0,0,0,.75.75h8a.76.76,0,0,0,.75-.75V20.35a.75.75,0,0,0-1.5,0v1.92h-6.5v-6.5h4.58a.75.75,0,0,0,0-1.5H14A.74.74,0,0,0,13.25,15Z"/><path d="M17.2,18.49a.75.75,0,0,0-1.06,1.06l1.33,1.33a.75.75,0,0,0,1.06,0l4-4a.75.75,0,0,0-1.06-1.06L18,19.29Z"/></svg>