<svg id="Icons" xmlns="http://www.w3.org/2000/svg" viewBox="0 0 36 36"><title>Icon-Red_Hat-Transportation-Fighter_Jet-A-Black-RGB</title><path d="M31,21.27a.74.74,0,0,0-.75.75v3a.75.75,0,0,0,1.5,0V22A.75.75,0,0,0,31,21.27Z"/><path d="M5,25.77A.76.76,0,0,0,5.75,25V22a.75.75,0,0,0-1.5,0v3A.75.75,0,0,0,5,25.77Z"/><path d="M18,13.27A1.75,1.75,0,0,0,16.25,15v4a1.75,1.75,0,0,0,3.5,0V15A1.75,1.75,0,0,0,18,13.27ZM18.25,19c0,.27-.5.27-.5,0V15c0-.28.5-.28.5,0Z"/><path d="M28.75,25V23a.75.75,0,0,0-.22-.53l-5.85-5.86L20.75,8.92V8a2.75,2.75,0,0,0-5.5,0v.9l-1.93,7.71L7.47,22.49a.73.73,0,0,0-.22.52l0,2a.79.79,0,0,0,.22.54.75.75,0,0,0,.53.22h6.21l-1.72,1.72a.75.75,0,0,0-.22.53v2a.75.75,0,0,0,.75.75H23a.76.76,0,0,0,.75-.75V28a.75.75,0,0,0-.22-.53l-1.72-1.72,6.19,0A.76.76,0,0,0,28.75,25Zm-1.5-.75-6.25,0a.74.74,0,0,0-.75.75v1a.75.75,0,0,0,.22.53l1.78,1.78v.94h-8.5v-.94l1.78-1.78a.75.75,0,0,0,.22-.53V25a.75.75,0,0,0-.75-.75H8.74v-.94l5.78-5.78a.94.94,0,0,0,.2-.35l2-8a1.1,1.1,0,0,0,0-.18V8a1.25,1.25,0,0,1,2.5,0V9a1.1,1.1,0,0,0,0,.18l2,8a.73.73,0,0,0,.2.35l5.78,5.78Z"/></svg>