<svg id="Icons" xmlns="http://www.w3.org/2000/svg" viewBox="0 0 36 36"><title>Icon-Red_Hat-Objects-Award_Ribbon-A-Black-RGB</title><path d="M24.72,8.15H21.19L18.53,5.49a.74.74,0,0,0-1.06,0L14.81,8.15H11.28a.75.75,0,0,0-.75.75v3.53L7.87,15.09a.75.75,0,0,0,0,1.06l2.66,2.66v3.53a.76.76,0,0,0,.75.75h.11L8.83,25.65a.72.72,0,0,0-.16.81.75.75,0,0,0,.69.47h3.09V30a.75.75,0,0,0,.46.69.72.72,0,0,0,.29.06.77.77,0,0,0,.53-.22L18,26.28l4.27,4.27A.75.75,0,0,0,23.55,30V26.93h3.09a.75.75,0,0,0,.69-.47.74.74,0,0,0-.16-.81l-2.56-2.56h.11a.76.76,0,0,0,.75-.75V18.81l2.66-2.66a.75.75,0,0,0,0-1.06l-2.66-2.66V8.9A.75.75,0,0,0,24.72,8.15ZM14,28.21v-2a.75.75,0,0,0-.75-.75h-2l2.34-2.34h1.3l2.13,2.13Zm10.88-2.78h-2a.75.75,0,0,0-.75.75v2l-3-3,2.13-2.13h1.3Zm1.71-9.81L24.19,18a.75.75,0,0,0-.22.53v3.09H20.88a.75.75,0,0,0-.53.22L18,24.16l-2.35-2.35a.63.63,0,0,0-.24-.16.75.75,0,0,0-.29-.06H12V18.5a.75.75,0,0,0-.22-.53L9.46,15.62l2.35-2.35a.75.75,0,0,0,.22-.53V9.65h3.09a.75.75,0,0,0,.53-.22L18,7.08l2.35,2.35a.75.75,0,0,0,.53.22H24v3.09a.75.75,0,0,0,.22.53Z"/><path d="M18.1,11.22a4.5,4.5,0,1,0,4.49,4.49A4.5,4.5,0,0,0,18.1,11.22Zm0,7.49a3,3,0,1,1,3-3A3,3,0,0,1,18.1,18.71Z"/></svg>