<svg id="Icon" xmlns="http://www.w3.org/2000/svg" viewBox="0 0 36 36"><title>Icon-Red_Hat-Multi-cloud-A-Black-RGB</title><path d="M32.25,18.74a4.68,4.68,0,0,0-3.94-4.61,8.58,8.58,0,0,0-15.76-4c-.21,0-.41,0-.62,0A6.64,6.64,0,0,0,5.3,16.78a6.74,6.74,0,0,0,.27,1.79,6.75,6.75,0,0,0-1.45,2.35,6.86,6.86,0,0,0-.37,2.2,6.63,6.63,0,0,0,6.63,6.63H26a4.67,4.67,0,0,0,4-7.06A4.65,4.65,0,0,0,32.25,18.74ZM26,28.25H10.38a5.13,5.13,0,0,1-5.13-5.13,5.14,5.14,0,0,1,1.66-3.78A5.12,5.12,0,0,1,10.38,18a5.64,5.64,0,0,1,.88.08A.72.72,0,0,0,12,17.7a7.07,7.07,0,0,1,13.24,3.47.75.75,0,0,0,.75.75,3.17,3.17,0,1,1,0,6.33Zm3-6.71a4.62,4.62,0,0,0-2.29-1.06,8.58,8.58,0,0,0-15.76-4l-.62,0a6.59,6.59,0,0,0-3.52,1,5.83,5.83,0,0,1-.06-.72,5.13,5.13,0,0,1,5.13-5.13,4.57,4.57,0,0,1,.88.08.75.75,0,0,0,.78-.37,7.08,7.08,0,0,1,13.25,3.47.75.75,0,0,0,.75.75,3.16,3.16,0,0,1,1.46,6Z"/></svg>