<?xml version="1.0" encoding="utf-8"?>
<!-- Generator: Adobe Illustrator 19.1.0, SVG Export Plug-In . SVG Version: 6.00 Build 0)  -->
<svg version="1.1" id="Layer_1" xmlns="http://www.w3.org/2000/svg" xmlns:xlink="http://www.w3.org/1999/xlink" x="0px" y="0px"
	 viewBox="0 0 32 32" enable-background="new 0 0 32 32" xml:space="preserve">
<g>
	<path fill="#010101" d="M9.582,14.673c-0.007,0-0.014,0-0.021-0.001c-1.258-0.18-2.327-0.408-3.175-0.677
		c-0.078-0.025-0.121-0.108-0.096-0.186c0.025-0.078,0.107-0.122,0.186-0.096c0.833,0.264,1.885,0.488,3.128,0.666
		c0.081,0.012,0.137,0.087,0.126,0.168C9.717,14.619,9.654,14.673,9.582,14.673z"/>
	<path fill="#010101" d="M16,15.236c-1.281,0-2.541-0.044-3.743-0.132c-0.163-0.012-0.286-0.154-0.274-0.317
		c0.012-0.163,0.157-0.284,0.317-0.274c1.188,0.086,2.433,0.13,3.7,0.13c3.907,0,7.495-0.416,9.6-1.112
		c0.157-0.052,0.323,0.033,0.374,0.188c0.052,0.155-0.033,0.323-0.188,0.374C23.625,14.81,19.966,15.236,16,15.236z"/>
	<path fill="#010101" d="M16,22.26c-5.872,0-11.816-0.944-11.816-2.748v-7.024c0-1.804,5.944-2.748,11.816-2.748
		s11.816,0.944,11.816,2.748v7.024C27.816,21.317,21.872,22.26,16,22.26z M16,10.332c-6.954,0-11.223,1.256-11.223,2.156v7.024
		c0,0.9,4.27,2.156,11.223,2.156s11.224-1.255,11.224-2.156v-7.024C27.224,11.588,22.954,10.332,16,10.332z"/>
</g>
</svg>
