<svg id="Icon" xmlns="http://www.w3.org/2000/svg" viewBox="0 0 36 36"><title>Icon-Red_Hat-Multiply-A-Black-RGB</title><path d="M30,17.47l-2.35-2.35a.75.75,0,1,0-1.06,1.06l1.07,1.07H18.54a10.32,10.32,0,0,0,3.59-2.6,9.5,9.5,0,0,0,2.24-5.12l1,1.07a.75.75,0,0,0,.55.24.72.72,0,0,0,.51-.2.75.75,0,0,0,.05-1.06L24.2,7.14l0,0A.71.71,0,0,0,24,7l-.1,0-.16,0-.08,0h-.13l-.06,0a.49.49,0,0,0-.17.06l-.1.06-.08,0L20.7,9.35a.76.76,0,0,0,0,1.06.75.75,0,0,0,1.06.05L22.86,9.4A8,8,0,0,1,21,13.69c-2,2.24-5.29,3.42-9.85,3.54a2.75,2.75,0,1,0,0,1.54c4.56.12,7.89,1.3,9.85,3.54a8,8,0,0,1,1.88,4.29l-1.14-1.05a.75.75,0,0,0-1,1.1l2.44,2.25.07,0,.12.08.15.05.07,0h.1a.67.67,0,0,0,.28-.06L24,29a1,1,0,0,0,.16-.12l0,0,2.26-2.44a.75.75,0,0,0-1.11-1l-1,1.07a9.5,9.5,0,0,0-2.24-5.12,10.32,10.32,0,0,0-3.59-2.6h9.15l-1.07,1.07a.75.75,0,0,0,0,1.06.75.75,0,0,0,1.06,0L30,18.53A.75.75,0,0,0,30,17.47ZM8.5,19.25A1.25,1.25,0,1,1,9.75,18,1.25,1.25,0,0,1,8.5,19.25Z"/></svg>