<svg id="Layer_1" data-name="Layer 1" xmlns="http://www.w3.org/2000/svg" viewBox="0 0 36 36"><title>Icon-Red_Hat-Software_and_technologies-Data-A-Black-RGB</title><path d="M7.5,18.75a.76.76,0,0,0-.75.75v6a.75.75,0,0,0,1.5,0v-6A.76.76,0,0,0,7.5,18.75Zm4,0a.76.76,0,0,0-.75.75v6a.75.75,0,0,0,1.5,0v-6A.76.76,0,0,0,11.5,18.75Zm-4-9a.76.76,0,0,0-.75.75v6a.75.75,0,0,0,1.5,0v-6A.76.76,0,0,0,7.5,9.75Zm12,7.5a.76.76,0,0,0,.75-.75v-6a.75.75,0,0,0-1.5,0v6A.76.76,0,0,0,19.5,17.25Zm4,1.5a.76.76,0,0,0-.75.75v6a.75.75,0,0,0,1.5,0v-6A.76.76,0,0,0,23.5,18.75ZM17.25,13.5a3.75,3.75,0,1,0-3.75,3.75A3.75,3.75,0,0,0,17.25,13.5ZM13.5,15.75a2.25,2.25,0,1,1,2.25-2.25A2.25,2.25,0,0,1,13.5,15.75ZM29.25,13.5a3.75,3.75,0,1,0-3.75,3.75A3.75,3.75,0,0,0,29.25,13.5ZM25.5,15.75a2.25,2.25,0,1,1,2.25-2.25A2.25,2.25,0,0,1,25.5,15.75Zm2,3a.76.76,0,0,0-.75.75v6a.75.75,0,0,0,1.5,0v-6A.76.76,0,0,0,27.5,18.75Zm-10,0a3.75,3.75,0,1,0,3.75,3.75A3.75,3.75,0,0,0,17.5,18.75Zm0,6a2.25,2.25,0,1,1,2.25-2.25A2.25,2.25,0,0,1,17.5,24.75Z"/></svg>