<svg id="Icon" xmlns="http://www.w3.org/2000/svg" viewBox="0 0 36 36"><title>Icon-Red_Hat-Money_Stack-A-Black-RGB</title><path d="M27.15,20.9V9.7A.76.76,0,0,0,26.4,9H4a.76.76,0,0,0-.75.75V20.9a.76.76,0,0,0,.75.75H26.4A.76.76,0,0,0,27.15,20.9Zm-1.5-.75H4.75v-9.7h20.9Z"/><path d="M20.67,14.77a.75.75,0,1,1,1.06,1.06.74.74,0,0,1-.81.16.72.72,0,0,1-.25-.16.75.75,0,0,1-.22-.53.72.72,0,0,1,.06-.29A.78.78,0,0,1,20.67,14.77Z"/><path d="M8.67,14.77a.75.75,0,1,1,1.06,1.06.74.74,0,0,1-.81.16.72.72,0,0,1-.25-.16.75.75,0,0,1-.22-.53A.72.72,0,0,1,8.51,15,.78.78,0,0,1,8.67,14.77Z"/><path d="M29.2,24.45H6.8a.75.75,0,0,1,0-1.5H28.45V12.5a.75.75,0,0,1,1.5,0V23.7A.76.76,0,0,1,29.2,24.45Z"/><path d="M32,27.05H9.6a.75.75,0,1,1,0-1.5H31.25V15.1a.75.75,0,0,1,1.5,0V26.3A.76.76,0,0,1,32,27.05Z"/><path d="M11.45,15.3a3.75,3.75,0,1,0,3.75-3.75A3.75,3.75,0,0,0,11.45,15.3Zm1.5,0a2.25,2.25,0,1,1,2.25,2.25A2.25,2.25,0,0,1,13,15.3Z"/></svg>