<svg id="fd3bc35c-504d-4294-adc0-62e96e1a24da" data-name="virtual-stack" xmlns="http://www.w3.org/2000/svg" viewBox="0 0 36 36"><title>Icon-Red_Hat-Hardware-Virtual_Server_Stack-A-Black-RGB</title><path d="M12.8,4.75A.75.75,0,1,0,12.05,4,.76.76,0,0,0,12.8,4.75Zm2.6,0A.75.75,0,1,0,14.65,4,.76.76,0,0,0,15.4,4.75ZM5,20.43a.75.75,0,0,0,0,1.5.75.75,0,0,0,0-1.5ZM10.2,4.75A.75.75,0,1,0,9.45,4,.75.75,0,0,0,10.2,4.75Zm7.8,0A.75.75,0,1,0,17.25,4,.76.76,0,0,0,18,4.75ZM5,27.8a.75.75,0,1,0,.75.75A.75.75,0,0,0,5,27.8Zm15.6-23A.75.75,0,1,0,19.85,4,.76.76,0,0,0,20.6,4.75ZM5,22.89a.75.75,0,1,0,.75.75A.75.75,0,0,0,5,22.89Zm0,2.45a.75.75,0,0,0,0,1.5.75.75,0,0,0,0-1.5ZM7.6,4.75A.75.75,0,1,0,6.85,4,.76.76,0,0,0,7.6,4.75ZM5.53,30.47a.75.75,0,0,0-1.22.24.73.73,0,0,0,0,.58.63.63,0,0,0,.16.24.78.78,0,0,0,.24.16.73.73,0,0,0,.58,0,.78.78,0,0,0,.24-.16.63.63,0,0,0,.16-.24.73.73,0,0,0,0-.58A.63.63,0,0,0,5.53,30.47ZM25.8,4.75A.75.75,0,1,0,25.05,4,.76.76,0,0,0,25.8,4.75ZM25,18.19a.72.72,0,0,0,.29.06.77.77,0,0,0,.53-.22.75.75,0,0,0,0-1.06.82.82,0,0,0-.25-.16.71.71,0,0,0-.57,0,.78.78,0,0,0-.24.16.75.75,0,0,0,0,1.06A.78.78,0,0,0,25,18.19Zm.29,8.06a.82.82,0,0,0,.53-.22.74.74,0,0,0,.16-.82A.75.75,0,0,0,24.77,25a.81.81,0,0,0-.17.24.93.93,0,0,0-.05.29.71.71,0,0,0,.22.53A.75.75,0,0,0,25.3,26.25Zm-14.85-8h3a.75.75,0,0,0,0-1.5h-3a.75.75,0,0,0,0,1.5ZM30.71,4.69a.72.72,0,0,0,.29.06.75.75,0,1,0-.29-1.44.78.78,0,0,0-.24.16.75.75,0,0,0,0,1.06A.78.78,0,0,0,30.71,4.69ZM5,18a.75.75,0,1,0,.75.75A.75.75,0,0,0,5,18Zm23,4.27H8a.76.76,0,0,0-.75.75v5a.76.76,0,0,0,.75.75H28a.76.76,0,0,0,.75-.75V23A.76.76,0,0,0,28,22.25Zm-.75,5H8.75v-3.5h18.5ZM28.75,7A.76.76,0,0,0,28,6.25H8A.76.76,0,0,0,7.25,7v5a.76.76,0,0,0,.75.75H28a.76.76,0,0,0,.75-.75Zm-1.5,4.25H8.75V7.75h18.5Zm-16.8-1h3a.75.75,0,0,0,0-1.5h-3a.75.75,0,0,0,0,1.5ZM23.2,4.75A.75.75,0,1,0,22.45,4,.76.76,0,0,0,23.2,4.75ZM10.45,26.25h3a.75.75,0,1,0,0-1.5h-3a.75.75,0,0,0,0,1.5Zm14.85-16a.77.77,0,0,0,.53-.22A.74.74,0,0,0,26,9.21.75.75,0,0,0,24.77,9a.81.81,0,0,0-.17.24,1,1,0,0,0-.05.29.75.75,0,0,0,.75.75ZM28.75,15a.76.76,0,0,0-.75-.75H8a.76.76,0,0,0-.75.75v5a.76.76,0,0,0,.75.75H28a.76.76,0,0,0,.75-.75Zm-1.5,4.25H8.75v-3.5h18.5ZM5,15.52A.75.75,0,0,0,5,17a.75.75,0,0,0,0-1.5Zm26,7.37a.75.75,0,0,0-.75.74.75.75,0,1,0,1.5,0A.74.74,0,0,0,31,22.89Zm0,4.91a.75.75,0,0,0-.75.74.75.75,0,1,0,1.5,0A.74.74,0,0,0,31,27.8Zm-2.6,2.45a.75.75,0,1,0,.75.75A.76.76,0,0,0,28.4,30.25Zm0-27a.75.75,0,1,0,.75.75A.76.76,0,0,0,28.4,3.25Zm3.13,27.22a.75.75,0,0,0-1.22.24.73.73,0,0,0,0,.58.63.63,0,0,0,.16.24.78.78,0,0,0,.24.16.72.72,0,0,0,.29.06.75.75,0,0,0,.53-.22.63.63,0,0,0,.16-.24.73.73,0,0,0,0-.58A.78.78,0,0,0,31.53,30.47ZM31,25.34a.75.75,0,1,0,.75.75A.76.76,0,0,0,31,25.34Zm0-14.73a.75.75,0,0,0,0,1.5.75.75,0,0,0,0-1.5Zm0-2.45a.75.75,0,1,0,.75.75A.75.75,0,0,0,31,8.16ZM31,18a.75.75,0,1,0,.75.75A.75.75,0,0,0,31,18ZM31,5.71a.75.75,0,1,0,.75.74A.75.75,0,0,0,31,5.71Zm0,7.36a.75.75,0,1,0,.75.75A.75.75,0,0,0,31,13.07Zm0,2.45A.75.75,0,0,0,31,17a.75.75,0,0,0,0-1.5Zm0,4.91a.75.75,0,0,0,0,1.5.75.75,0,0,0,0-1.5ZM5,5.7A.76.76,0,0,0,5,7.21.76.76,0,0,0,5,5.7ZM4.47,3.47a.75.75,0,1,0,1.06,0A.77.77,0,0,0,4.47,3.47ZM5,8.16a.75.75,0,1,0,.75.75A.76.76,0,0,0,5,8.16Zm0,2.45a.75.75,0,0,0,0,1.5.75.75,0,0,0,0-1.5ZM7.6,30.25a.75.75,0,1,0,.75.75A.76.76,0,0,0,7.6,30.25ZM5,13.07a.75.75,0,1,0,.75.75A.75.75,0,0,0,5,13.07ZM25.8,30.25a.75.75,0,1,0,.75.75A.76.76,0,0,0,25.8,30.25Zm-5.2,0a.75.75,0,1,0,.75.75A.76.76,0,0,0,20.6,30.25Zm-2.6,0a.75.75,0,1,0,.75.75A.76.76,0,0,0,18,30.25Zm5.2,0A.75.75,0,1,0,24,31,.75.75,0,0,0,23.2,30.25Zm-13,0A.75.75,0,1,0,11,31,.76.76,0,0,0,10.2,30.25Zm2.6,0a.75.75,0,1,0,.75.75A.76.76,0,0,0,12.8,30.25Zm2.6,0a.75.75,0,1,0,.75.75A.75.75,0,0,0,15.4,30.25Z"/></svg>