<svg id="Icons" xmlns="http://www.w3.org/2000/svg" viewBox="0 0 36 36"><title>Icons-Red_Hat-Objects-Binoculars-A-Black-RGB</title><path d="M10,12.23A5.75,5.75,0,1,0,15.75,18,5.76,5.76,0,0,0,10,12.23Zm0,10A4.25,4.25,0,1,1,14.25,18,4.25,4.25,0,0,1,10,22.23Z"/><path d="M26,12.23A5.75,5.75,0,1,0,31.75,18,5.76,5.76,0,0,0,26,12.23Zm0,10A4.25,4.25,0,1,1,30.25,18,4.25,4.25,0,0,1,26,22.23Z"/><path d="M14,12.73h2l.12,0a.75.75,0,0,0,.8-.35,1.3,1.3,0,0,1,2.16,0,.75.75,0,0,0,.65.37l.12,0,.15,0h2a.75.75,0,0,0,0-1.5H20.09a2.68,2.68,0,0,0-4.18,0H14a.75.75,0,0,0,0,1.5Z"/><path d="M19.5,20.23h-3a.75.75,0,0,0,0,1.5h3a.75.75,0,0,0,0-1.5Z"/><path d="M10,15.23A2.75,2.75,0,0,0,7.25,18a.75.75,0,0,0,1.5,0A1.26,1.26,0,0,1,10,16.73a.75.75,0,0,0,0-1.5Z"/><path d="M26,15.23a.75.75,0,0,0,0,1.5A1.26,1.26,0,0,1,27.25,18a.75.75,0,1,0,1.5,0A2.75,2.75,0,0,0,26,15.23Z"/></svg>