<svg id="fcb1a7c4-788d-428d-abb4-e694fc42d065" data-name="Layer 1" xmlns="http://www.w3.org/2000/svg" viewBox="0 0 36 36">
  <title>Icon-Red_Hat-Speedometer-A-Black-RGB</title>
  <g>
    <path d="M27.011,13.739A12.75,12.75,0,0,0,5.25,22.75a.75.75,0,0,0,1.5,0,11.25,11.25,0,0,1,22.5,0,.75.75,0,0,0,1.5,0A12.708,12.708,0,0,0,27.011,13.739Z"/>
    <path d="M18,19.5a3.051,3.051,0,0,0-2.561,1.273L14.2,20.22,10.09,18.392a.75.75,0,0,0-.61,1.37l4.107,1.828,1.225.546A3.245,3.245,0,1,0,18,19.5Zm1.237,4.487a1.747,1.747,0,0,1-2.984-1.21c0-.009,0-.018,0-.027a1.745,1.745,0,0,1,.513-1.237c.036-.036.08-.065.119-.1a1.745,1.745,0,0,1,2.355,2.572Z"/>
    <path d="M12.44,16.42a.774.774,0,0,0,.241-.039.669.669,0,0,0,.22-.121h.01a.763.763,0,0,0,.277-.5.755.755,0,0,0-.158-.556.767.767,0,0,0-.5-.278.725.725,0,0,0-.546.158.751.751,0,0,0-.132,1.05.77.77,0,0,0,.269.216A.744.744,0,0,0,12.44,16.42Z"/>
    <path d="M27.651,21.35a.75.75,0,0,0-1.343-.336.756.756,0,0,0-.139.556v.03a.745.745,0,0,0,.742.65h.054a.393.393,0,0,0,.055-.009.748.748,0,0,0,.492-.294.776.776,0,0,0,.149-.556.029.029,0,0,1-.009-.016A.17.17,0,0,1,27.651,21.35Z"/>
    <path d="M18.28,14.5h.011a.747.747,0,0,0,.545-1.261A.767.767,0,0,0,18.31,13a.757.757,0,0,0-.535.2.736.736,0,0,0-.234.526.746.746,0,0,0,.729.77Z"/>
    <path d="M23.958,15.292a.748.748,0,0,0-.518.248.771.771,0,0,0-.188.545.728.728,0,0,0,.248.515.694.694,0,0,0,.235.144A.774.774,0,0,0,24,16.79a.762.762,0,0,0,.3-.061.712.712,0,0,0,.258-.189A.763.763,0,0,0,24.748,16a.748.748,0,0,0-.248-.519A.763.763,0,0,0,23.958,15.292Z"/>
  </g>
</svg>
