<svg id="a4e9eb83-7a5b-4696-9de4-866619570f4f" data-name="gift-box" xmlns="http://www.w3.org/2000/svg" viewBox="0 0 36 36"><title>Icon-Red_Hat-</title><path d="M29,14H22.62l1.26-.42.12-.06a3.67,3.67,0,0,0,1.39-.86,3.75,3.75,0,0,0,0-5.3,3.84,3.84,0,0,0-5.3,0,3.66,3.66,0,0,0-.85,1.34.84.84,0,0,0-.06.14L18,12.34,17.2,10a.61.61,0,0,0-.05-.12,3.12,3.12,0,0,0-.72-1.15A3.15,3.15,0,1,0,12,13.15a3.11,3.11,0,0,0,1.12.71l.12.05.17.06H7a.75.75,0,0,0-.75.75v4.4a.76.76,0,0,0,.75.75H8.45V29a.76.76,0,0,0,.75.75H26.8a.76.76,0,0,0,.75-.75V19.87H29a.76.76,0,0,0,.75-.75v-4.4A.75.75,0,0,0,29,14ZM20.56,9.4a.52.52,0,0,0,.06-.13,2.12,2.12,0,0,1,.53-.88,2.3,2.3,0,0,1,3.18,0,2.26,2.26,0,0,1,0,3.18h0a2.17,2.17,0,0,1-.91.53l-.13.06-4.1,1.37ZM13,12.09a1.67,1.67,0,0,1,0-2.34,1.65,1.65,0,0,1,2.34,0,1.57,1.57,0,0,1,.39.66l.05.12,1,3-3-1-.11,0A1.69,1.69,0,0,1,13,12.09Zm2.22,16.18H10v-8.4h5.3Zm0-9.9H7.75v-2.9h7.5Zm4,9.9h-2.5V15.47h2.5Zm6.8,0h-5.3v-8.4h5.3Zm2.2-9.9h-7.5v-2.9h7.5Z"/></svg>
