<svg id="fb418c93-bdd3-45a6-b37c-cac3ae48653c" data-name="Layer 1" xmlns="http://www.w3.org/2000/svg" viewBox="0 0 36 36">
  <title>Icon-Red_Hat-Objects-Megaphone-A-Black-RGB</title>
  <path d="M30.163,7.148a.756.756,0,0,0-.583-.395.736.736,0,0,0-.358.051l-7.5,3L14.356,12.75H10.5a4.737,4.737,0,0,0-.592,9.44l.8,3,.935,3.5a.75.75,0,0,0,.725.556H14.5a.751.751,0,0,0,.75-.75V22.608L21.722,25.2l7.5,3a.767.767,0,0,0,.137.041.747.747,0,0,0,.141.013.779.779,0,0,0,.219-.032.752.752,0,0,0,.2-.1.746.746,0,0,0,.329-.621V7.5A.758.758,0,0,0,30.163,7.148ZM7.25,17.5a3.254,3.254,0,0,1,3.25-3.25h3.25v6.5H10.5A3.254,3.254,0,0,1,7.25,17.5Zm6.5,10.25h-.8l-.861-3.222-.609-2.278H13.75v5.5Zm15-10.25v8.892L22,23.692l-6.75-2.7V14.008l6.75-2.7,6.75-2.7Z"/>
</svg>
