<svg id="b34ecfc3-4136-4597-832e-d6d5e688e498" data-name="Layer 1" xmlns="http://www.w3.org/2000/svg" viewBox="0 0 36 36">
  <title>Icon-Red_Hat-Bicycle-A-Black-RGB</title>
  <path d="M29.384,18.139a4.937,4.937,0,0,0-3.5-1.452,4.815,4.815,0,0,0-.811.082l-.363-1.1L22.823,9.921c0-.01-.012-.016-.015-.026a.726.726,0,0,0-.079-.139.756.756,0,0,0-.074-.11c-.006-.006-.008-.015-.014-.021a.73.73,0,0,0-.1-.066.817.817,0,0,0-.094-.073c-.008,0-.017,0-.025-.007a.694.694,0,0,0-.128-.036.736.736,0,0,0-.155-.032c-.011,0-.02-.006-.031-.006H19.535a.75.75,0,1,0,0,1.5h2.032l1.211,3.686c-.016,0-.032-.007-.049-.007H15.913l-.355-1.063-.2-.589h1.061a.75.75,0,1,0,0-1.5H13.271a.75.75,0,1,0,0,1.5h.51L14.135,14l.393,1.18-1.864,2.238A4.964,4.964,0,1,0,15,22.391h2.48a.8.8,0,0,0,.119-.009.846.846,0,0,0,.118-.029c.016-.006.027-.018.043-.025s.026,0,.038-.008.043-.037.067-.052a.721.721,0,0,0,.152-.118c.012-.012.028-.017.039-.029l2.627-3.153,2.537-3.045.069.209.365,1.111a4.937,4.937,0,1,0,5.735.9ZM12.559,24.082a3.453,3.453,0,1,1-2.442-5.895,3.407,3.407,0,0,1,1.572.4L9.542,21.161a.739.739,0,0,0-.168.384.745.745,0,0,0,.341.728.742.742,0,0,0,.4.118h3.366A3.456,3.456,0,0,1,12.559,24.082Zm-.84-3.191,1.123-1.348a3.415,3.415,0,0,1,.642,1.348Zm3.276,0a4.9,4.9,0,0,0-1.181-2.515l1.272-1.527.626,1.876.722,2.166Zm4.131-2.4L17.76,20.126l-.625-1.875-.722-2.167h4.715Zm9.2,5.594A3.453,3.453,0,1,1,23.441,19.2a3.506,3.506,0,0,1,.682-.514l1.047,3.189a.748.748,0,0,0,.712.516A.768.768,0,0,0,26,22.381a.828.828,0,0,0,.117-.028.749.749,0,0,0,.479-.947L25.548,18.22a3.362,3.362,0,0,1,.335-.033,3.452,3.452,0,0,1,2.441,5.9Z"/>
</svg>
