<svg id="Layer_1" data-name="Layer 1" xmlns="http://www.w3.org/2000/svg" viewBox="0 0 36 36"><title>Icon-Red_Hat-Mainframe-A-Black-RGB</title><path d="M9,25.75h7a.76.76,0,0,0,.75-.75V8A.76.76,0,0,0,16,7.25H9A.76.76,0,0,0,8.25,8V25A.76.76,0,0,0,9,25.75Zm.75-17h5.5v15.5H9.75Z"/><path d="M20,25.75h7a.76.76,0,0,0,.75-.75V8A.76.76,0,0,0,27,7.25H20a.76.76,0,0,0-.75.75V25A.76.76,0,0,0,20,25.75Zm.75-17h5.5v15.5h-5.5Z"/><path d="M29,27.25H7a.75.75,0,0,0,0,1.5H29a.75.75,0,0,0,0-1.5Z"/><path d="M14,10.25H11a.75.75,0,0,0,0,1.5h3a.75.75,0,0,0,0-1.5Z"/><path d="M14,13.25H11a.75.75,0,0,0,0,1.5h3a.75.75,0,0,0,0-1.5Z"/><path d="M25,10.25H22a.75.75,0,0,0,0,1.5h3a.75.75,0,0,0,0-1.5Z"/><path d="M25,13.25H22a.75.75,0,0,0,0,1.5h3a.75.75,0,0,0,0-1.5Z"/><path d="M13,21.25H12a.75.75,0,0,0,0,1.5h1a.75.75,0,0,0,0-1.5Z"/><path d="M24,21.25H23a.75.75,0,0,0,0,1.5h1a.75.75,0,0,0,0-1.5Z"/></svg>