<svg id="f86e9731-b2d0-4475-964d-177d4910a837" data-name="covered-dish" xmlns="http://www.w3.org/2000/svg" viewBox="0 0 36 36"><title>Icon-Red_Hat-</title><path d="M7.09,23.74A.76.76,0,0,0,7.84,23a10.74,10.74,0,0,1,21.48,0,.75.75,0,1,0,1.5,0A12.24,12.24,0,0,0,6.34,23,.75.75,0,0,0,7.09,23.74ZM18.05,10a.75.75,0,0,0,.53.22.77.77,0,0,0,.53-.22.78.78,0,0,0,.16-.24.72.72,0,0,0,.06-.29.75.75,0,0,0-.06-.29A.75.75,0,0,0,18.05,9a.81.81,0,0,0-.17.24,1,1,0,0,0-.05.29.93.93,0,0,0,.05.29A.81.81,0,0,0,18.05,10Zm14.1,15.21H5a.75.75,0,0,0,0,1.5H32.15a.75.75,0,0,0,0-1.5ZM9.47,23A.75.75,0,0,0,11,23a7.61,7.61,0,0,1,7.61-7.6.75.75,0,0,0,0-1.5A9.12,9.12,0,0,0,9.47,23Z"/></svg>