<svg id="a43e5042-55e8-411f-b679-220d9ff6f330" data-name="Layer 1" xmlns="http://www.w3.org/2000/svg" viewBox="0 0 36 36">
  <title>Icon-Red_Hat-Electrical_plug-A-Black-RGB</title>
  <path d="M28.671,15.384a4.927,4.927,0,0,0-9.854,0h0v6.266a3.427,3.427,0,0,1-6.854,0V19.2A3.884,3.884,0,0,0,15.1,15.389V12.256a.751.751,0,0,0-.75-.75h-.294V9.123a.75.75,0,0,0-1.5,0v2.383H9.873V9.123a.75.75,0,0,0-1.5,0v2.383H8.078a.749.749,0,0,0-.75.75v3.133A3.884,3.884,0,0,0,10.462,19.2V21.66a4.927,4.927,0,0,0,9.853,0V15.389a3.428,3.428,0,0,1,6.855,0V26.876a.75.75,0,1,0,1.5,0V15.384ZM11.212,17.772a2.387,2.387,0,0,1-2.384-2.383V13.006H13.6v2.383a2.387,2.387,0,0,1-2.383,2.383Z"/>
</svg>
