<svg id="efa58719-dfde-4731-ac3a-60402d97592a" data-name="Layer 1" xmlns="http://www.w3.org/2000/svg" viewBox="0 0 36 36">
  <title>Icon-Red_Hat-Thumbs_up-A-Black-RGB</title>
  <path d="M27.517,18.125a2.5,2.5,0,0,0-.633-.448,2.48,2.48,0,0,0,.366-1.284v-.118a2.5,2.5,0,0,0-2.5-2.5H21.461a8.146,8.146,0,0,0,.856-1.72,7.9,7.9,0,0,0,.5-3.238,3.022,3.022,0,0,0-.41-1.265,2.7,2.7,0,0,0-.9-.913,2.56,2.56,0,0,0-1.084-.374,2.391,2.391,0,0,0-1.114.148,2.186,2.186,0,0,0-.988.758A2.552,2.552,0,0,0,17.86,8.4c-.006.059-.012.119-.017.177s-.009.117-.013.175a2.028,2.028,0,0,1-.106.636.842.842,0,0,1-.391.382L14.643,11.7l-2.689,1.927a8.76,8.76,0,0,0-1.405,1.053q-.319.3-.613.625c-.194.219-.379.45-.553.69s-.333.49-.48.745a8.657,8.657,0,0,0-.4.785,8.5,8.5,0,0,0-.324.842,8.774,8.774,0,0,0-.234.865,8.5,8.5,0,0,0-.145.906,8.692,8.692,0,0,0,8.632,9.608h1.878c.021,0,.043,0,.065,0h1.749c.007,0,.014,0,.021,0H22.75a2.5,2.5,0,0,0,2.5-2.5v-.118a2.475,2.475,0,0,0-.24-1.052A2.5,2.5,0,0,0,27,23.626v-.117a2.473,2.473,0,0,0-.313-1.186,2.491,2.491,0,0,0,1.563-2.314v-.117A2.492,2.492,0,0,0,27.517,18.125Zm-5.925-2.85H24.75a1,1,0,0,1,1,1v.118a1,1,0,0,1-1,1h-6.32a1,1,0,0,1-1-1v-.118a1,1,0,0,1,1-1Zm-4.94,2.867a2.494,2.494,0,0,0-.719,1.75v.117a2.492,2.492,0,0,0,.719,1.75,2.492,2.492,0,0,0-.719,1.75v.117a2.494,2.494,0,0,0,.719,1.75,2.49,2.49,0,0,0-.719,1.749v.118a2.49,2.49,0,0,0,.2.985A7.182,7.182,0,0,1,9.29,20.3a7.155,7.155,0,0,1,.582-2.161,6.83,6.83,0,0,1,.331-.649,7.254,7.254,0,0,1,.4-.616c.144-.2.3-.389.458-.571a7.279,7.279,0,0,1,1.073-.987c.2-.15.414-.294.647-.436l2.683-1.923,2.684-1.923a2.161,2.161,0,0,0,.972-1.069,3.5,3.5,0,0,0,.209-1.1c0-.049.007-.1.011-.148s.009-.1.014-.15a1.073,1.073,0,0,1,.164-.474.7.7,0,0,1,.336-.278.923.923,0,0,1,.436-.053,1.062,1.062,0,0,1,.435.155,1.2,1.2,0,0,1,.353.335,1.465,1.465,0,0,1,.25.713,6.408,6.408,0,0,1-.411,2.555,5.2,5.2,0,0,1-1.383,2.225c-.011.009-.016.023-.027.032H18.433a2.5,2.5,0,0,0-2.5,2.5v.118A2.49,2.49,0,0,0,16.652,18.142Zm7.1,9.042v.059a1,1,0,0,1-1,1H18.433a1,1,0,0,1-1-1v-.118a1,1,0,0,1,1-1h4.32a1,1,0,0,1,1,1Zm1.75-3.617v.059a1,1,0,0,1-1,1H18.432a1,1,0,0,1-1-1v-.117a1,1,0,0,1,1-1H24.5a1,1,0,0,1,1,1Zm1.25-3.616v.058a1,1,0,0,1-1,1H18.432a1,1,0,0,1-1-1v-.117a1,1,0,0,1,1-1H25.75a1,1,0,0,1,1,1Z"/>
</svg>
