<svg id="Icons" xmlns="http://www.w3.org/2000/svg" viewBox="0 0 36 36"><title>Icons-Red_Hat-Media_and_Documents-eBook-A-Black-RGB</title><path d="M27,5.23H9A.76.76,0,0,0,8.25,6V30a.75.75,0,0,0,.75.75H27a.75.75,0,0,0,.75-.75V6A.76.76,0,0,0,27,5.23Zm-.75,24H9.75V6.73h16.5Z"/><path d="M20,26.23H16a.75.75,0,0,0,0,1.5h4a.75.75,0,0,0,0-1.5Z"/><path d="M17.47,9.51a.63.63,0,0,0,.24.16.73.73,0,0,0,.58,0,.78.78,0,0,0,.24-.16.74.74,0,0,0,.16-.82.78.78,0,0,0-.16-.24.75.75,0,0,0-.82-.16.74.74,0,0,0-.4.4.73.73,0,0,0,0,.58A.63.63,0,0,0,17.47,9.51Z"/><path d="M13,14.23h6a.75.75,0,0,0,0-1.5H13a.75.75,0,0,0,0,1.5Z"/><path d="M13,17.23H23a.75.75,0,0,0,0-1.5H13a.75.75,0,0,0,0,1.5Z"/><path d="M13,20.23H23a.75.75,0,0,0,0-1.5H13a.75.75,0,0,0,0,1.5Z"/><path d="M13,23.23H23a.75.75,0,0,0,0-1.5H13a.75.75,0,0,0,0,1.5Z"/></svg>