<?xml version="1.0" encoding="utf-8"?>
<!-- Generator: Adobe Illustrator 24.2.1, SVG Export Plug-In . SVG Version: 6.00 Build 0)  -->
<svg version="1.1" id="a64035d3-601b-444b-bc20-50b5107040a2"
	 xmlns="http://www.w3.org/2000/svg" xmlns:xlink="http://www.w3.org/1999/xlink" x="0px" y="0px" viewBox="0 0 36 36"
	 style="enable-background:new 0 0 36 36;" xml:space="preserve">
<path d="M14.436,30.258h-8.7V5.742h8.705c0.414,0,0.75-0.336,0.75-0.75s-0.336-0.75-0.75-0.75h-9.46c-0.414,0-0.75,0.336-0.75,0.75
	v26.016c0,0.414,0.336,0.75,0.75,0.75h9.455c0.414,0,0.75-0.336,0.75-0.75S14.85,30.258,14.436,30.258z M31.76,4.991
	C31.759,4.577,31.414,4.242,31,4.242h-9.457c-0.414,0-0.75,0.336-0.75,0.75s0.336,0.75,0.75,0.75h8.717v24.511h-8.696
	c-0.414,0-0.75,0.336-0.75,0.75s0.336,0.75,0.75,0.75h9.455c0.414,0,0.741-0.336,0.741-0.75C31.76,31.003,31.76,4.991,31.76,4.991z
	 M17.327,19.456l-4.148-2.395c-0.232-0.134-0.518-0.134-0.75,0l-4.148,2.395c-0.232,0.134-0.375,0.381-0.375,0.649V24.9
	c0,0.268,0.143,0.515,0.375,0.649l4.148,2.395c0.232,0.135,0.518,0.135,0.75,0l4.148-2.395c0.232-0.134,0.375-0.381,0.375-0.649
	v-4.79C17.704,19.84,17.561,19.59,17.327,19.456z M16.202,24.462l-3.4,1.962l-3.4-1.962v-3.924l3.4-1.962l3.4,1.962V24.462z
	 M23.194,28.04c0.132,0,0.261-0.034,0.375-0.1l4.149-2.395c0.231-0.133,0.375-0.378,0.376-0.645v-4.79
	c0-0.268-0.143-0.515-0.375-0.649l-4.149-2.395c-0.232-0.134-0.518-0.134-0.75,0l-4.148,2.395c-0.232,0.134-0.375,0.381-0.375,0.649
	v4.79c0,0.268,0.143,0.515,0.375,0.649l4.148,2.395C22.934,28.008,23.063,28.04,23.194,28.04z M19.794,20.54l3.4-1.962l3.4,1.962
	v3.924l-3.4,1.962l-3.4-1.962V20.54z M22.898,15.9v-4.79c0-0.268-0.143-0.515-0.375-0.649l-4.148-2.4
	c-0.232-0.134-0.518-0.134-0.75,0l-4.148,2.395c-0.232,0.134-0.375,0.381-0.375,0.649V15.9c0,0.268,0.143,0.515,0.375,0.649
	l4.148,2.395c0.232,0.135,0.518,0.135,0.75,0l4.148-2.395C22.755,16.415,22.898,16.168,22.898,15.9z M21.398,15.462l-3.4,1.962
	l-3.4-1.962v-3.924l3.4-1.962l3.4,1.962V15.462z"/>
</svg>
