<svg id="Icons" xmlns="http://www.w3.org/2000/svg" viewBox="0 0 36 36"><title>Icon-Red_Hat-Software_and_Technologies-Management-A-Black-RGB</title><path d="M29,9.23H7a.76.76,0,0,0-.75.75V26a.75.75,0,0,0,.75.75H29a.75.75,0,0,0,.75-.75V10A.76.76,0,0,0,29,9.23Zm-.75,16H7.75V10.73h20.5Z"/><path d="M14.17,22.47A4.49,4.49,0,1,0,9.68,18,4.49,4.49,0,0,0,14.17,22.47ZM17,17.23H14.92V15.11A3,3,0,0,1,17,17.23Zm-3.62-2.12V18a.74.74,0,0,0,.75.75H17a3,3,0,1,1-3.62-3.62Z"/><path d="M25.57,20.73a.75.75,0,0,0,.75-.75V16a.75.75,0,1,0-1.5,0v4A.74.74,0,0,0,25.57,20.73Z"/><path d="M23.57,20.73a.75.75,0,0,0,.75-.75V17a.75.75,0,1,0-1.5,0v3A.74.74,0,0,0,23.57,20.73Z"/><path d="M21.57,20.73a.75.75,0,0,0,.75-.75V18a.75.75,0,1,0-1.5,0v2A.74.74,0,0,0,21.57,20.73Z"/></svg>