<svg id="b6221a1f-15f5-46b2-9250-2844c4971798" data-name="Layer 1" xmlns="http://www.w3.org/2000/svg" width="36" height="36" viewBox="0 0 36 36"><title>Icon-Red_Hat-</title><path d="M23.24,10a4.93,4.93,0,0,0-4.93,4.93v6.26a3.43,3.43,0,1,1-6.85,0V18.69a3.89,3.89,0,0,0,3.13-3.81V11.75a.75.75,0,0,0-.75-.75h-.3V8.61a.75.75,0,0,0-1.5,0V11H9.37V8.61a.75.75,0,0,0-1.5,0V11h-.3a.75.75,0,0,0-.75.75v3.13A3.89,3.89,0,0,0,10,18.69v2.45a4.93,4.93,0,1,0,9.85,0V14.88a3.43,3.43,0,1,1,6.86,0V26.37a.75.75,0,1,0,1.5,0V14.88A4.94,4.94,0,0,0,23.24,10ZM10.71,17.26a2.39,2.39,0,0,1-2.39-2.38V12.5h4.77v2.38A2.39,2.39,0,0,1,10.71,17.26Z"/></svg>