<svg id="Layer_1" data-name="Layer 1" xmlns="http://www.w3.org/2000/svg" viewBox="0 0 36 36"><title>Icon-Red_Hat-Calculator-A-Black-RGB</title><path d="M26.5,6.25H9.5A.76.76,0,0,0,8.75,7V29a.76.76,0,0,0,.75.75h17a.76.76,0,0,0,.75-.75V7A.76.76,0,0,0,26.5,6.25Zm-.75,22H10.25V7.75h15.5Z"/><path d="M12.5,14.75h11a.76.76,0,0,0,.75-.75V10a.76.76,0,0,0-.75-.75h-11a.76.76,0,0,0-.75.75v4A.76.76,0,0,0,12.5,14.75Zm.75-4h9.5v2.5h-9.5Z"/><path d="M12.5,17.75h1a.75.75,0,0,0,0-1.5h-1a.75.75,0,0,0,0,1.5Z"/><path d="M18.5,16.25h-1a.75.75,0,0,0,0,1.5h1a.75.75,0,0,0,0-1.5Z"/><path d="M23.5,16.25h-1a.75.75,0,0,0,0,1.5h1a.75.75,0,0,0,0-1.5Z"/><path d="M12.5,20.75h1a.75.75,0,0,0,0-1.5h-1a.75.75,0,0,0,0,1.5Z"/><path d="M18.5,19.25h-1a.75.75,0,0,0,0,1.5h1a.75.75,0,0,0,0-1.5Z"/><path d="M23.5,19.25h-1a.75.75,0,0,0,0,1.5h1a.75.75,0,0,0,0-1.5Z"/><path d="M12.5,23.75h1a.75.75,0,0,0,0-1.5h-1a.75.75,0,0,0,0,1.5Z"/><path d="M18.5,22.25h-1a.75.75,0,0,0,0,1.5h1a.75.75,0,0,0,0-1.5Z"/><path d="M23.5,22.25h-1a.75.75,0,0,0,0,1.5h1a.75.75,0,0,0,0-1.5Z"/><path d="M23.5,25.25h-1a.75.75,0,0,0,0,1.5h1a.75.75,0,0,0,0-1.5Z"/><path d="M12.5,26.75h6a.75.75,0,0,0,0-1.5h-6a.75.75,0,0,0,0,1.5Z"/></svg>