<svg id="Icon" xmlns="http://www.w3.org/2000/svg" viewBox="0 0 36 36"><title>Icon-Red_Hat-Progression-Linear-A-Black-RGB</title><path d="M30,18.75a.76.76,0,0,0-.75.75v2.25h-7.5v-7.5H27a.75.75,0,0,0,0-1.5H21a.76.76,0,0,0-.75.75v9a.76.76,0,0,0,.75.75h9a.76.76,0,0,0,.75-.75v-3A.76.76,0,0,0,30,18.75Z"/><path d="M24.53,17.47a.75.75,0,0,0-1.06,1.06L25,20A.75.75,0,0,0,26,20l4.5-4.5a.75.75,0,0,0-1.06-1.06l-4,4Z"/><path d="M16.32,15.47a.75.75,0,1,0-1.06,1.06l.65.65H12.17V15.29a.76.76,0,0,0-.75-.75H6a.76.76,0,0,0-.75.75v5.42a.76.76,0,0,0,.75.75h5.42a.76.76,0,0,0,.75-.75v-2h3.88l-.79.79a.75.75,0,0,0,0,1.06.74.74,0,0,0,.53.22.71.71,0,0,0,.53-.22l2-2a.74.74,0,0,0,0-1.06ZM10.67,20H6.75V16h3.92Z"/></svg>