<?xml version="1.0" encoding="utf-8"?>
<!-- Generator: Adobe Illustrator 19.1.0, SVG Export Plug-In . SVG Version: 6.00 Build 0)  -->
<svg version="1.1" id="Layer_1" xmlns="http://www.w3.org/2000/svg" xmlns:xlink="http://www.w3.org/1999/xlink" x="0px" y="0px"
	 viewBox="0 0 32 32" enable-background="new 0 0 32 32" xml:space="preserve">
<g>
	<path fill="#010101" d="M27.345,16.098c0-2.377-1.564-3.46-3.017-3.46c-0.622,0-1.178,0.162-1.645,0.468
		c0.002-0.181,0.003-0.323,0.003-0.404c0-0.411-0.024-0.822-0.142-1.485c-0.061-0.339-0.354-0.586-0.698-0.586h-5.8
		c-0.343,0-0.637,0.246-0.698,0.586c-0.118,0.663-0.142,1.074-0.142,1.485c0,0.204,0.007,0.776,0.015,1.457
		c0.012,0.995,0.026,2.223,0.026,2.865c0,0.687-0.016,1.701-0.029,2.442c-0.007,0.421-0.012,0.75-0.012,0.876
		c0,0.117-0.183,0.542-0.293,0.796c-0.195,0.452-0.315,0.739-0.315,0.94c0,0.624,0.516,1.261,4.348,1.261s4.348-0.637,4.348-1.261
		c0-0.025-0.007-0.056-0.011-0.084C25.156,20.844,27.345,18.901,27.345,16.098z M22.686,20.343c0-0.126-0.005-0.456-0.012-0.876
		c-0.012-0.74-0.029-1.755-0.029-2.442c0-0.481,0.008-1.291,0.017-2.086c0.353-0.66,1.021-1.085,1.764-1.085
		c0.84,0,1.738,0.62,1.738,2.361c0,1.885-1.593,3.765-3.471,4.175C22.689,20.371,22.686,20.354,22.686,20.343z M18.946,22.747
		c-3.65,0-3.755-0.6-3.755-0.667c0.005-0.102,0.162-0.466,0.266-0.707c0.212-0.492,0.341-0.807,0.341-1.031
		c0-0.125,0.005-0.451,0.012-0.867c0.012-0.743,0.029-1.76,0.029-2.452c0-0.643-0.014-1.874-0.026-2.872
		c-0.008-0.677-0.015-1.247-0.015-1.45c0-0.38,0.023-0.76,0.133-1.381c0.01-0.057,0.058-0.098,0.114-0.098h5.8
		c0.056,0,0.104,0.041,0.114,0.097c0.111,0.621,0.133,1.001,0.133,1.381c0,0.203-0.007,0.772-0.015,1.45
		c-0.012,0.998-0.026,2.229-0.026,2.872c0,0.692,0.016,1.709,0.029,2.452c0.007,0.416,0.012,0.742,0.012,0.867
		c0,0.224,0.129,0.539,0.341,1.031c0.104,0.241,0.261,0.605,0.266,0.705C22.701,22.147,22.596,22.747,18.946,22.747z M23.095,21.412
		c-0.035-0.085-0.073-0.174-0.116-0.273c-0.057-0.132-0.133-0.31-0.194-0.467c1.993-0.453,3.675-2.453,3.675-4.458
		c0-2.529-1.694-2.657-2.034-2.657c-0.693,0-1.326,0.323-1.758,0.847c0.001-0.082,0.002-0.165,0.003-0.245
		c0.001-0.098,0.002-0.194,0.003-0.287c0.426-0.424,0.981-0.642,1.653-0.642c0.9,0,2.424,0.604,2.424,2.868
		C26.753,18.103,25.52,19.89,23.095,21.412z"/>
	<path fill="#010101" d="M13.377,10.283c0.082,0,0.148-0.066,0.148-0.148s-0.066-0.148-0.148-0.148H8.489
		c-0.07,0-0.131,0.049-0.145,0.118C8.175,10.92,8.1,11.727,8.1,12.723c0,2.09,0.464,3.475,0.873,4.698
		c0.323,0.963,0.601,1.795,0.601,2.795c0,1.203-0.4,1.847-0.692,2.318L8.829,22.62c-0.043,0.07-0.021,0.161,0.049,0.204
		c0.024,0.015,0.051,0.022,0.078,0.022c0.05,0,0.098-0.025,0.126-0.071l0.053-0.086c0.293-0.473,0.736-1.187,0.736-2.474
		c0-1.047-0.299-1.942-0.617-2.889c-0.402-1.201-0.858-2.562-0.858-4.604c0-0.926,0.066-1.685,0.214-2.44H13.377z"/>
	<path fill="#010101" d="M21.486,13.078h-4.987c-0.082,0-0.148,0.066-0.148,0.148v7.116c0,0.319-0.144,0.669-0.379,1.214
		l-0.11,0.257c-0.032,0.076,0.004,0.162,0.079,0.194c0.019,0.008,0.038,0.012,0.057,0.012c0.058,0,0.113-0.034,0.137-0.091
		l0.109-0.254c0.25-0.58,0.404-0.954,0.404-1.331v-6.968h4.839c0.082,0,0.148-0.066,0.148-0.148S21.568,13.078,21.486,13.078z"/>
	<path fill="#010101" d="M13.314,20.044c0-0.694,0.248-1.451,0.535-2.326c0.405-1.235,0.909-2.772,0.909-4.775
		c0-1.237-0.078-2.725-0.658-4.382c-0.111-0.316-0.409-0.528-0.742-0.528H8.424c-0.333,0-0.631,0.212-0.742,0.528
		c-0.579,1.656-0.657,3.144-0.657,4.382c0,2.002,0.504,3.539,0.909,4.775c0.287,0.876,0.535,1.633,0.535,2.326
		c0,1.155-0.277,1.535-0.523,1.87c-0.177,0.242-0.36,0.493-0.36,0.933c0,0.328,0.159,0.898,1.22,1.021
		c0.56,0.065,1.327,0.098,2.092,0.098c0.765,0,1.528-0.033,2.078-0.098c1.062-0.123,1.22-0.693,1.22-1.021
		c0-0.44-0.183-0.691-0.36-0.933C13.592,21.579,13.314,21.2,13.314,20.044z M12.909,23.28C12.909,23.28,12.908,23.28,12.909,23.28
		c-1.066,0.126-2.95,0.126-4.034,0c-0.462-0.054-0.696-0.199-0.696-0.433c0-0.247,0.093-0.374,0.246-0.583
		c0.269-0.367,0.637-0.871,0.637-2.22c0-0.788-0.262-1.587-0.565-2.511c-0.412-1.257-0.879-2.682-0.879-4.59
		c0-1.188,0.074-2.614,0.624-4.186c0.027-0.079,0.101-0.131,0.182-0.131h4.935c0.082,0,0.155,0.053,0.182,0.131
		c0.55,1.573,0.624,2.999,0.624,4.186c0,1.908-0.467,3.333-0.88,4.59c-0.303,0.924-0.565,1.723-0.565,2.511
		c0,1.349,0.368,1.852,0.637,2.22c0.153,0.21,0.246,0.336,0.246,0.583C13.605,23.081,13.371,23.227,12.909,23.28z"/>
</g>
</svg>
