<svg id="a2421ac7-a1a4-469f-ab5b-3c574648c91d" data-name="Layer 1" xmlns="http://www.w3.org/2000/svg" viewBox="0 0 36 36">
  <title>Icon-Red_Hat-Storage-A-Black-RGB</title>
  <path d="M24.925,11.416A13.844,13.844,0,0,0,18,9.75a13.844,13.844,0,0,0-6.925,1.666C9.321,12.45,8.25,13.888,8.25,15.5v5c0,1.612,1.071,3.05,2.825,4.084A13.844,13.844,0,0,0,18,26.25a13.844,13.844,0,0,0,6.925-1.666c1.754-1.034,2.825-2.472,2.825-4.084v-5C27.75,13.888,26.679,12.45,24.925,11.416ZM26.25,20.5c0,1.152-.944,2.214-2.448,2.989A13,13,0,0,1,18,24.75a13,13,0,0,1-5.8-1.261c-1.5-.775-2.448-1.837-2.448-2.989V18.6a7.491,7.491,0,0,0,1.325.988A13.844,13.844,0,0,0,18,21.25a13.844,13.844,0,0,0,6.925-1.666A7.491,7.491,0,0,0,26.25,18.6ZM23.8,18.489A13,13,0,0,1,18,19.75a13,13,0,0,1-5.8-1.261c-1.5-.775-2.448-1.837-2.448-2.989s.944-2.214,2.448-2.989A13,13,0,0,1,18,11.25a13,13,0,0,1,5.8,1.261c1.5.775,2.448,1.837,2.448,2.989S25.306,17.714,23.8,18.489Z"/>
</svg>
