<svg id="Layer_1" data-name="Layer 1" xmlns="http://www.w3.org/2000/svg" viewBox="0 0 36 36"><title>Icon-Red_Hat-Battery-A-Black-RGB</title><path d="M22,7.25H20.75V6A.76.76,0,0,0,20,5.25H16a.76.76,0,0,0-.75.75V7.25H14a.76.76,0,0,0-.75.75V30a.76.76,0,0,0,.75.75h8a.76.76,0,0,0,.75-.75V8A.76.76,0,0,0,22,7.25Zm-5.25-.5h2.5v.5h-2.5Zm4.5,22.5h-6.5V8.75h6.5Z"/><path d="M18.75,11.75V11a.75.75,0,0,0-1.5,0v.75H16.5a.75.75,0,0,0,0,1.5h.75V14a.75.75,0,0,0,1.5,0v-.75h.75a.75.75,0,0,0,0-1.5Z"/><path d="M19.5,25.27h-3a.75.75,0,0,0,0,1.5h3a.75.75,0,0,0,0-1.5Z"/></svg>