<svg id="a4044c5f-9da3-4c5c-b3b7-28d914788798" data-name="virtual-server-stack-secured" xmlns="http://www.w3.org/2000/svg" viewBox="0 0 36 36"><title>Icon-Red_Hat-Hardware-Virtual_Server_Stack_Secured-A-Black-RGB</title><path d="M9.45,17.25h3a.75.75,0,0,0,0-1.5h-3a.75.75,0,0,0,0,1.5Zm17.55-4H7a.76.76,0,0,0-.75.75v5a.76.76,0,0,0,.75.75H27a.76.76,0,0,0,.75-.75V14A.76.76,0,0,0,27,13.25Zm-.75,5H7.75v-3.5h18.5ZM27.75,6A.76.76,0,0,0,27,5.25H7A.76.76,0,0,0,6.25,6v5a.76.76,0,0,0,.75.75H27a.76.76,0,0,0,.75-.75Zm-1.5,4.25H7.75V6.75h18.5ZM23.77,17a.73.73,0,0,0,.53.22.71.71,0,0,0,.28-.06.67.67,0,0,0,.24-.16.66.66,0,0,0,.17-.24.73.73,0,0,0-.17-.82.67.67,0,0,0-.24-.16.73.73,0,0,0-.81.16.76.76,0,0,0-.23.53.72.72,0,0,0,.06.29A.81.81,0,0,0,23.77,17ZM14.4,3.75a.75.75,0,0,0,0-1.5.75.75,0,1,0,0,1.5Zm-2.6,0a.75.75,0,0,0,0-1.5.75.75,0,0,0,0,1.5Zm13,0a.75.75,0,0,0,0-1.5.75.75,0,0,0,0,1.5Zm-7.8,0a.75.75,0,0,0,0-1.5.75.75,0,0,0,0,1.5Zm5.2,0a.75.75,0,0,0,0-1.5.75.75,0,0,0,0,1.5Zm-2.6,0a.75.75,0,0,0,0-1.5.75.75,0,0,0,0,1.5Zm10.4,5A.75.75,0,1,0,29.25,8,.76.76,0,0,0,30,8.75Zm-20.8-5a.75.75,0,0,0,0-1.5.75.75,0,0,0,0,1.5Zm20.8,10a.75.75,0,0,0,0-1.5.75.75,0,0,0,0,1.5Zm0-7.5a.75.75,0,1,0-.75-.75A.76.76,0,0,0,30,6.25Zm-20.55,3h3a.75.75,0,0,0,0-1.5h-3a.75.75,0,0,0,0,1.5Zm20.55,7a.75.75,0,0,0,0-1.5.75.75,0,0,0,0,1.5ZM29.47,3.53a.78.78,0,0,0,.24.16.73.73,0,0,0,.58,0,.74.74,0,0,0,.4-.4A.75.75,0,0,0,30.75,3a.72.72,0,0,0-.06-.29.78.78,0,0,0-.16-.24.75.75,0,0,0-.82-.16.78.78,0,0,0-.24.16.63.63,0,0,0-.16.24.72.72,0,0,0-.06.29.75.75,0,0,0,.06.29A.63.63,0,0,0,29.47,3.53ZM30,18.75a.75.75,0,0,0,0-1.5.75.75,0,0,0,0,1.5ZM23.77,9a.74.74,0,0,0,1.05,0A.66.66,0,0,0,25,8.79a.73.73,0,0,0,0-.58A.66.66,0,0,0,24.82,8a.76.76,0,0,0-1.05,0,.81.81,0,0,0-.17.24.73.73,0,0,0,0,.58A.81.81,0,0,0,23.77,9ZM27.4,3.75a.75.75,0,0,0,0-1.5.75.75,0,0,0,0,1.5Zm2.31,19.94a.73.73,0,0,0,.58,0,.78.78,0,0,0,.24-.16.63.63,0,0,0,.16-.24.72.72,0,0,0,.06-.29.75.75,0,0,0-.22-.53.78.78,0,0,0-.24-.16.73.73,0,0,0-.58,0,.78.78,0,0,0-.24.16.75.75,0,0,0,0,1.06A.78.78,0,0,0,29.71,23.69ZM30,21.25a.75.75,0,1,0-.75-.75A.76.76,0,0,0,30,21.25Zm0-10a.75.75,0,1,0-.75-.75A.76.76,0,0,0,30,11.25Zm-13.5,18a.75.75,0,0,0,0,1.5.75.75,0,0,0,0-1.5Zm5,0a.75.75,0,1,0,.75.75A.75.75,0,0,0,21.5,29.25Zm-7.5,0a.75.75,0,0,0,0,1.5.75.75,0,0,0,0-1.5Zm5,0a.75.75,0,0,0,0,1.5.75.75,0,0,0,0-1.5Zm-7.5,0a.75.75,0,0,0,0,1.5.75.75,0,0,0,0-1.5Zm-2.5,0a.75.75,0,0,0,0,1.5.75.75,0,0,0,0-1.5ZM6.6,3.75A.75.75,0,1,0,5.85,3,.76.76,0,0,0,6.6,3.75ZM33.24,26.29l-3-1a.79.79,0,0,0-.48,0l-3,1a.75.75,0,0,0-.51.71v3a3.75,3.75,0,0,0,7.5,0V27A.75.75,0,0,0,33.24,26.29ZM9.45,23.75a.75.75,0,0,0,0,1.5h3a.75.75,0,1,0,0-1.5ZM6.5,29.25a.75.75,0,1,0,.75.75A.75.75,0,0,0,6.5,29.25Zm17.79.06a.73.73,0,0,0-.58,0,.78.78,0,0,0-.24.16.75.75,0,0,0,0,1.06.78.78,0,0,0,.24.16.72.72,0,0,0,.29.06.75.75,0,0,0,.53-1.28A.78.78,0,0,0,24.29,29.31ZM24.82,24a.67.67,0,0,0-.24-.16.73.73,0,0,0-.81.16.81.81,0,0,0-.17.24.75.75,0,0,0-.06.29.72.72,0,0,0,.23.53.78.78,0,0,0,.24.16.72.72,0,0,0,.29.06.77.77,0,0,0,.52-.22.72.72,0,0,0,.23-.53.75.75,0,0,0-.06-.29A.66.66,0,0,0,24.82,24Zm2.18.78a.76.76,0,0,0,.75-.75V22a.76.76,0,0,0-.75-.75H7a.76.76,0,0,0-.75.75v5a.76.76,0,0,0,.75.75H24a.75.75,0,0,0,0-1.5H7.75v-3.5h18.5V24A.76.76,0,0,0,27,24.75ZM4,21.89a.75.75,0,0,0,0,1.5.75.75,0,0,0,0-1.5Zm0-2.46a.75.75,0,1,0,.75.75A.75.75,0,0,0,4,19.43Zm0,4.91a.75.75,0,1,0,.75.75A.75.75,0,0,0,4,24.34ZM4,26.8a.75.75,0,0,0,0,1.5.75.75,0,0,0,0-1.5ZM4.29,2.31a.73.73,0,0,0-.58,0,.63.63,0,0,0-.24.16A.75.75,0,0,0,3.25,3a.72.72,0,0,0,.06.29.63.63,0,0,0,.16.24.78.78,0,0,0,.24.16A.72.72,0,0,0,4,3.75a.75.75,0,0,0,.29-.06.74.74,0,0,0,.4-.4A.72.72,0,0,0,4.75,3a.75.75,0,0,0-.22-.53A.63.63,0,0,0,4.29,2.31Zm.24,27.16a.77.77,0,0,0-1.06,0,.63.63,0,0,0-.16.24.73.73,0,0,0,0,.58.74.74,0,0,0,.4.4.73.73,0,0,0,.58,0,.63.63,0,0,0,.24-.16.78.78,0,0,0,.16-.24.73.73,0,0,0,0-.58A.78.78,0,0,0,4.53,29.47ZM4,17a.75.75,0,0,0,0,1.5A.75.75,0,0,0,4,17ZM4,4.71a.74.74,0,0,0-.75.74A.75.75,0,1,0,4,4.71Zm0,9.81a.75.75,0,1,0,.75.75A.75.75,0,0,0,4,14.52ZM4,7.16a.75.75,0,0,0,0,1.5.75.75,0,0,0,0-1.5ZM4,9.61a.75.75,0,1,0,.75.75A.75.75,0,0,0,4,9.61Zm0,2.46a.75.75,0,1,0,.75.75A.75.75,0,0,0,4,12.07Z"/></svg>