<svg id="e0c511d1-3af5-4833-accc-a1a0500f326e" data-name="Icon" xmlns="http://www.w3.org/2000/svg" width="36" height="36" viewBox="0 0 36 36"><title>Icon-Red_Hat-Objects-Megaphone-A-Black-RGB</title><path d="M29.92,6.88a.76.76,0,0,0-.7-.08l-14.86,6H10.5a4.74,4.74,0,0,0-.59,9.44l1.74,6.5a.74.74,0,0,0,.72.56H14.5a.76.76,0,0,0,.75-.75V22.61l14,5.59a.92.92,0,0,0,.28.05.72.72,0,0,0,.42-.13.74.74,0,0,0,.33-.62V7.5A.74.74,0,0,0,29.92,6.88ZM13.75,27.75H13l-1.47-5.5h2.27Zm0-7H10.5a3.25,3.25,0,0,1,0-6.5h3.25Zm15,5.64L15.25,21V14l13.5-5.4Z"/></svg>