<svg id="Icons" xmlns="http://www.w3.org/2000/svg" viewBox="0 0 36 36"><title>Icon-Red_Hat-Objects-Shield-A-Black-RGB</title><path d="M18,29.94a9.74,9.74,0,0,0,9.71-9,0,0,0,0,0,0,0s0-.08,0-.12V9.17a.75.75,0,0,0-.58-.73l-9-2.15a.69.69,0,0,0-.35,0l-9,2.15a.76.76,0,0,0-.58.72l0,11.65a9.58,9.58,0,0,0,1.18,4.05l0,.05A9.78,9.78,0,0,0,18,29.94Zm0-1.5A8.31,8.31,0,0,1,11.28,25l14.84-3.27A8.24,8.24,0,0,1,18,28.44ZM9.79,9.76l8.21-2,8.25,2v1.67L9.77,15Zm0,6.81L26.25,13v7.21L10.48,23.64a7.94,7.94,0,0,1-.73-2.87Z"/></svg>