<svg xmlns="http://www.w3.org/2000/svg" width="36" height="36" viewBox="0 0 36 36"><title>Icon-Red_Hat-Objects-Sword-A-Black-RGB</title><g id="a9a5e2e0-7421-4e44-936e-e9fff519d0b2" data-name="Icons"><path d="M10.62,24.32a.75.75,0,0,0-1.06,0L6.38,27.5a2.22,2.22,0,0,0-.66,1.59,2.19,2.19,0,0,0,.66,1.59A2.22,2.22,0,0,0,8,31.34a2.25,2.25,0,0,0,1.59-.66l3.18-3.18a.75.75,0,0,0,0-1.06ZM8.5,29.62a.75.75,0,0,1-1.06,0,.71.71,0,0,1-.22-.53.73.73,0,0,1,.22-.53l2.65-2.65L11.15,27Zm2.12-8.13a.75.75,0,0,0-1.06,0,.74.74,0,0,0,0,1.06l4.95,4.95a.73.73,0,0,0,.53.22.74.74,0,0,0,.53-.22.75.75,0,0,0,0-1.06Zm19-16.19a.75.75,0,0,0-1.29-.41L12.37,21.5a.75.75,0,0,0,0,1.05l2.12,2.12a.73.73,0,0,0,.53.22.72.72,0,0,0,.51-.2L30.05,10.9a.76.76,0,0,0,.23-.65ZM15.05,23.1,14,22,28.3,7l.44,3Z"/></g></svg>