<svg id="Icon" xmlns="http://www.w3.org/2000/svg" viewBox="0 0 36 36"><title>Icon-Red_Hat-Science_and_nature-Space_capsule-A-Black-RGB</title><path d="M26.1,13.37h0l2.83-2.83a.75.75,0,0,0,0-1.06L25.81,6.36a.75.75,0,0,0-1.06,0l-5.13,5.13-1.8-1.8a2.75,2.75,0,0,0-3.88,0l-.14.14V8.12a1,1,0,0,0-.65-1A1,1,0,0,0,12,7.38L7.37,12a1.05,1.05,0,0,0,.75,1.79H9.83l-.14.13a2.76,2.76,0,0,0,0,3.89l1.8,1.8-2.3,2.3h0L6.36,24.75a.75.75,0,0,0,0,1.06l3.12,3.12a.75.75,0,0,0,1.06,0l5.13-5.13,2.51,2.51a.75.75,0,0,0,.53.22h7.07a.76.76,0,0,0,.75-.75V18.71a.75.75,0,0,0-.22-.53L23.8,15.67l2.3-2.3ZM25.28,8,27.34,10l-1.77,1.77L23.51,9.72ZM9.2,12.3l3.1-3.1v2.13l-1,1Zm.81,15L8,25.28l1.77-1.77,2.06,2.06Zm2.83-2.83-2.06-2.06,1.77-1.77,1.1,1.1,1,1ZM25,25H19L16.2,22.21h0l-1.49-1.49-4-4a1.25,1.25,0,0,1-.36-.88,1.23,1.23,0,0,1,.36-.88L15,10.75a1.27,1.27,0,0,1,1.76,0l2.33,2.33h0l3.12,3.12L25,19ZM20.68,12.55l1.77-1.77,2.06,2.06-1.77,1.77Z"/><path d="M15.56,15.56a3,3,0,0,0,2.09,5,3,3,0,0,0,2.09-5A3,3,0,0,0,15.56,15.56Zm3.12,3.12a1.46,1.46,0,1,1,0-2.06A1.47,1.47,0,0,1,18.68,18.68Z"/></svg>