<svg id="a1e0f9fa-b081-4671-a31a-9b91d686d18a" data-name="Layer 1" xmlns="http://www.w3.org/2000/svg" viewBox="0 0 36 36">
  <g>
    <path d="M15.5,5.62h5a.62.62,0,1,0,0-1.24h-5A.62.62,0,0,0,15.5,5.62Z"/>
    <path d="M21,17.88H15a.62.62,0,0,0-.62.62v9a.62.62,0,0,0,.62.62h6a.63.63,0,0,0,.63-.62v-9A.63.63,0,0,0,21,17.88Zm-.62,9H15.63V19.12h4.75Z"/>
    <path d="M21.46,13.62l-.84-6.7A.62.62,0,0,0,20,6.38H16a.62.62,0,0,0-.62.54l-.84,6.7A4.59,4.59,0,0,0,11.38,18V28.5a3.12,3.12,0,0,0,3.12,3.12h7a3.13,3.13,0,0,0,3.13-3.12V18A4.6,4.6,0,0,0,21.46,13.62ZM23.38,28.5a1.89,1.89,0,0,1-1.88,1.88h-7a1.88,1.88,0,0,1-1.87-1.88V18a3.34,3.34,0,0,1,2.62-3.28.62.62,0,0,0,.48-.54l.82-6.56h2.9l.82,6.56a.62.62,0,0,0,.48.54A3.35,3.35,0,0,1,23.38,18Z"/>
  </g>
</svg>
