<svg id="Icon" xmlns="http://www.w3.org/2000/svg" viewBox="0 0 36 36"><title>Icon-Red_Hat-Miscellaneous-Save-A-Black</title><path d="M28.53,11.47l-4-4A.75.75,0,0,0,24,7.25H22a.76.76,0,0,0-.75.75v5.25h-7.5V8A.76.76,0,0,0,13,7.25H8A.76.76,0,0,0,7.25,8V28a.76.76,0,0,0,.75.75H28a.76.76,0,0,0,.75-.75V12A.75.75,0,0,0,28.53,11.47ZM27.25,27.25H8.75V8.75h3.5V14a.76.76,0,0,0,.75.75h9a.76.76,0,0,0,.75-.75V8.75h.94l3.56,3.56ZM19,10.75a.76.76,0,0,0,.75-.75V8a.75.75,0,0,0-1.5,0v2A.76.76,0,0,0,19,10.75ZM10.25,17v8a.76.76,0,0,0,.75.75H25a.76.76,0,0,0,.75-.75V17a.76.76,0,0,0-.75-.75H11A.76.76,0,0,0,10.25,17Zm1.5.75h12.5v6.5H11.75Z"/></svg>