<svg id="a360d833-77b0-4fdf-a54f-afe9ef685007" data-name="Layer 1" xmlns="http://www.w3.org/2000/svg" viewBox="0 0 36 36">
  <title>Icon-Red_Hat-Phone-A-Black-RGB</title>
  <g>
    <path d="M28.9,26.31l-2.584-2.584-2.585-2.585a.748.748,0,0,0-1.06,0l-1.212,1.212-1.212,1.212-2.794-2.793-2.793-2.793,1.213-1.211,1.212-1.212a.779.779,0,0,0,.163-.244.753.753,0,0,0,.057-.287.746.746,0,0,0-.22-.53L14.5,11.911,11.91,9.326a.748.748,0,0,0-1.06,0L9.742,10.433,8.634,11.54a5.96,5.96,0,0,0,0,8.446l4.8,4.8,4.8,4.8a5.971,5.971,0,0,0,8.446,0l1.108-1.108L28.9,27.371a.75.75,0,0,0,0-1.061Zm-2.433,1.373-.842.843a4.464,4.464,0,0,1-6.325,0l-4.8-4.8-4.8-4.8a4.463,4.463,0,0,1,0-6.324l.842-.842.843-.842,2.054,2.054,2.055,2.054-1.212,1.212-1.213,1.212a.753.753,0,0,0,0,1.061l3.324,3.323,3.323,3.323a.752.752,0,0,0,1.061,0l1.212-1.212L23.2,22.732l2.054,2.054L27.3,26.84Z"/>
    <path d="M14.423,9.561a2.387,2.387,0,0,1,2.383,2.383.75.75,0,1,0,1.5,0,3.887,3.887,0,0,0-3.883-3.883.75.75,0,0,0,0,1.5Z"/>
    <path d="M14.423,6.165a5.785,5.785,0,0,1,5.78,5.779.75.75,0,0,0,1.5,0,7.286,7.286,0,0,0-7.28-7.279.75.75,0,0,0,0,1.5Z"/>
  </g>
</svg>
