<svg id="ec9777f5-ecdd-4164-9ce6-6cc4adbc42f6" data-name="Layer 1" xmlns="http://www.w3.org/2000/svg" viewBox="0 0 36 36">
  <title>Icon-Red_Hat-Transportation-A-Black-RGB</title>
  <g>
    <path d="M29.53,21.611a.748.748,0,0,0-.53-.219H7a.75.75,0,0,0,0,1.5H29a.75.75,0,0,0,.53-1.281Z"/>
    <path d="M9.5,23.75a2.253,2.253,0,1,0,1.59.66A2.24,2.24,0,0,0,9.5,23.75Zm.53,2.78a.748.748,0,1,1,.22-.53A.747.747,0,0,1,10.03,26.53Z"/>
    <path d="M14.5,23.75a2.253,2.253,0,1,0,1.59.66A2.24,2.24,0,0,0,14.5,23.75Zm.53,2.78a.748.748,0,1,1,.22-.53A.747.747,0,0,1,15.03,26.53Z"/>
    <path d="M21.5,23.75a2.253,2.253,0,1,0,1.59.66A2.24,2.24,0,0,0,21.5,23.75Zm.53,2.78a.748.748,0,1,1,.22-.53A.747.747,0,0,1,22.03,26.53Z"/>
    <path d="M26.5,23.75a2.253,2.253,0,1,0,1.59.66A2.24,2.24,0,0,0,26.5,23.75Zm.53,2.78a.748.748,0,1,1,.22-.53A.747.747,0,0,1,27.03,26.53Z"/>
    <path d="M10,20.25H26a.751.751,0,0,0,.75-.75V8.5A.751.751,0,0,0,26,7.75H10a.751.751,0,0,0-.75.75v11a.751.751,0,0,0,.75.75ZM10.75,14V9.25h14.5v9.5H10.75Z"/>
    <path d="M13,10.16a.749.749,0,0,0-.75.75v6a.75.75,0,0,0,1.5,0v-6a.749.749,0,0,0-.75-.75Z"/>
    <path d="M16.333,10.16a.749.749,0,0,0-.75.75v6a.75.75,0,1,0,1.5,0v-6a.748.748,0,0,0-.75-.75Z"/>
    <path d="M19.667,17.66a.751.751,0,0,0,.75-.75v-6a.75.75,0,1,0-1.5,0v6a.749.749,0,0,0,.75.75Z"/>
    <path d="M23,17.66a.751.751,0,0,0,.75-.75v-6a.75.75,0,1,0-1.5,0v6a.751.751,0,0,0,.75.75Z"/>
  </g>
</svg>
