<svg id="ef2d052c-b24d-4b72-9664-727c8a19de19" data-name="Layer 1" xmlns="http://www.w3.org/2000/svg" width="36" height="36" viewBox="0 0 36 36"><title>Icon-Red_Hat-</title><path d="M18,9.35a.76.76,0,0,0,.75-.75V6.51a.75.75,0,1,0-1.5,0V8.6A.76.76,0,0,0,18,9.35ZM9.35,18a.76.76,0,0,0-.75-.75H6.51a.75.75,0,1,0,0,1.5H8.6A.76.76,0,0,0,9.35,18Zm15.3-5.9a.74.74,0,0,0,.53-.22l1.47-1.47a.75.75,0,0,0-1.06-1.06l-1.47,1.47a.74.74,0,0,0,0,1.06A.71.71,0,0,0,24.65,12.1Zm-13.83-.22a.74.74,0,0,0,.53.22.73.73,0,0,0,.53-.22.74.74,0,0,0,0-1.06L10.41,9.35a.75.75,0,1,0-1.06,1.06Zm0,12.24L9.35,25.59a.74.74,0,0,0,0,1.06.71.71,0,0,0,.53.22.74.74,0,0,0,.53-.22l1.47-1.47a.75.75,0,1,0-1.06-1.06ZM18,26.65a.76.76,0,0,0-.75.75v2.09a.75.75,0,0,0,1.5,0V27.4A.76.76,0,0,0,18,26.65Zm7.18-2.53a.75.75,0,1,0-1.06,1.06l1.47,1.47a.74.74,0,0,0,.53.22.71.71,0,0,0,.53-.22.74.74,0,0,0,0-1.06Zm4.31-6.87H27.4a.75.75,0,0,0,0,1.5h2.09a.75.75,0,0,0,0-1.5ZM18,11a7,7,0,1,0,7,7A7,7,0,0,0,18,11Zm0,12.54A5.52,5.52,0,1,1,23.52,18,5.53,5.53,0,0,1,18,23.52Z"/></svg>