<?xml version="1.0" encoding="utf-8"?>
<!-- Generator: Adobe Illustrator 24.2.1, SVG Export Plug-In . SVG Version: 6.00 Build 0)  -->
<svg version="1.1" id="f996bfbb-e9cf-474b-9bb2-fd8d7600079a"
	 xmlns="http://www.w3.org/2000/svg" xmlns:xlink="http://www.w3.org/1999/xlink" x="0px" y="0px" viewBox="0 0 36 36"
	 style="enable-background:new 0 0 36 36;" xml:space="preserve">
<path d="M12,12.75h3.689l1.781,1.78c0.292,0.293,0.765,0.294,1.058,0.002l1.783-1.782H24c0.414,0,0.75-0.336,0.75-0.75V6
	c0-0.414-0.336-0.75-0.75-0.75H12c-0.414,0-0.75,0.336-0.75,0.75v6C11.25,12.414,11.586,12.75,12,12.75z M12.75,6.75h10.5v4.5H20
	c-0.199,0-0.39,0.079-0.53,0.22L18,12.939l-1.47-1.469c-0.14-0.141-0.331-0.22-0.53-0.22h-3.25V6.75z M32,29.25H4
	c-0.414,0-0.75,0.336-0.75,0.75S3.586,30.75,4,30.75h28c0.414,0,0.75-0.336,0.75-0.75S32.414,29.25,32,29.25z M20.451,21.806
	c0.789-0.687,1.298-1.688,1.298-2.816c0-2.071-1.679-3.75-3.75-3.75s-3.75,1.679-3.75,3.75c0,1.129,0.509,2.13,1.299,2.817
	c-1.762,0.836-2.987,2.511-3.244,4.444H6.75v-14.5H9c0.414,0,0.75-0.336,0.75-0.75S9.414,10.25,9,10.25H6
	c-0.414,0-0.75,0.336-0.75,0.75v16c0,0.414,0.336,0.75,0.75,0.75h24c0.414,0,0.75-0.336,0.75-0.75V11c0-0.414-0.336-0.75-0.75-0.75
	h-3c-0.414,0-0.75,0.336-0.75,0.75s0.336,0.75,0.75,0.75h2.25v14.5h-5.555C23.438,24.317,22.213,22.642,20.451,21.806z M18,16.74
	c1.242,0,2.249,1.007,2.249,2.249S19.242,21.238,18,21.238s-2.249-1.007-2.249-2.249C15.751,17.747,16.758,16.74,18,16.74z
	 M13.826,26.25c0.363-2.022,2.12-3.495,4.174-3.5c2.054,0.005,3.811,1.478,4.174,3.5H13.826z"/>
</svg>
