<svg id="Icons" xmlns="http://www.w3.org/2000/svg" viewBox="0 0 36 36"><title>Icon-Red_Hat-Diagrams-Community_Culture-A-Black-RGB</title><path d="M21.31,17.42a6.06,6.06,0,1,0-6.06-6.05A6.06,6.06,0,0,0,21.31,17.42Zm0-10.61a4.56,4.56,0,1,1-4.56,4.56A4.56,4.56,0,0,1,21.31,6.81Z"/><path d="M12,12.42a2.37,2.37,0,1,0-2.37-2.36A2.37,2.37,0,0,0,12,12.42Zm0-3.23a.87.87,0,1,1-.87.87A.87.87,0,0,1,12,9.19Z"/><path d="M14,25.69a2.37,2.37,0,1,0,2.37,2.37A2.38,2.38,0,0,0,14,25.69Zm0,3.23a.87.87,0,1,1,.87-.86A.86.86,0,0,1,14,28.92Z"/><path d="M29,14.69a2.37,2.37,0,1,0,2.37,2.37A2.38,2.38,0,0,0,29,14.69Zm0,3.23a.87.87,0,1,1,.87-.86A.86.86,0,0,1,29,17.92Z"/><path d="M23.08,18.58a6.06,6.06,0,1,0,6.05,6.05A6.07,6.07,0,0,0,23.08,18.58Zm0,10.61a4.56,4.56,0,1,1,4.55-4.56A4.56,4.56,0,0,1,23.08,29.19Z"/><path d="M10.69,13.27a6.06,6.06,0,1,0,6.06,6.06A6.07,6.07,0,0,0,10.69,13.27Zm0,10.61a4.56,4.56,0,1,1,4.56-4.55A4.56,4.56,0,0,1,10.69,23.88Z"/></svg>