<svg id="Icons" xmlns="http://www.w3.org/2000/svg" viewBox="0 0 36 36"><title>Icons-Red_Hat-Software_and_Technologies-Microservices-A-Black-RGB</title><path d="M31,9.38H15.29a.74.74,0,0,0-.75.75V13H10.89V11.13a.74.74,0,0,0-.75-.75H5a.75.75,0,0,0-.75.75v5.14A.76.76,0,0,0,5,17h5.14a.75.75,0,0,0,.75-.75V14.45h3.65v6.78H10.89V19.41a.75.75,0,0,0-.75-.75H5a.76.76,0,0,0-.75.75v5.15a.76.76,0,0,0,.75.75h5.14a.75.75,0,0,0,.75-.75V22.73h3.65v3.11a.74.74,0,0,0,.75.75H31a.75.75,0,0,0,.75-.75V10.13A.75.75,0,0,0,31,9.38ZM9.39,15.52H5.75V11.88H9.39Zm0,8.29H5.75V20.16H9.39Zm20.86,1.28H16V10.88H30.25Z"/><path d="M28,13.17a.72.72,0,0,0,.29.06.75.75,0,0,0,.53-.22.78.78,0,0,0,.16-.24.73.73,0,0,0,0-.58.78.78,0,0,0-.16-.24.63.63,0,0,0-.24-.16.73.73,0,0,0-.58,0,.74.74,0,0,0-.4.4.72.72,0,0,0-.06.29.75.75,0,0,0,.22.53A.78.78,0,0,0,28,13.17Z"/><path d="M26.13,13.17a.72.72,0,0,0,.29.06.75.75,0,0,0,.75-.75.72.72,0,0,0-.06-.29A.78.78,0,0,0,27,12a.75.75,0,0,0-.82-.16.63.63,0,0,0-.24.16.81.81,0,0,0-.17.24.93.93,0,0,0,0,.29.71.71,0,0,0,.22.53A.78.78,0,0,0,26.13,13.17Z"/></svg>