<svg id="ed5d5f0e-9cf7-4abb-b43f-e8bb2db2961e" data-name="exponential-up" xmlns="http://www.w3.org/2000/svg" viewBox="0 0 36 36"><title>Icon-Red_Hat-Diagrams-Graph_Exponential_Up-A-Black-RGB</title><path d="M22.75,10v4.9a.75.75,0,0,0,1.5,0V10a.75.75,0,0,0-1.5,0ZM6.5,23.3a.76.76,0,0,0,.75-.75V7.75h20.5V9a.75.75,0,0,0,1.5,0V7a.76.76,0,0,0-.75-.75H6.5A.76.76,0,0,0,5.75,7V22.55A.76.76,0,0,0,6.5,23.3ZM16.75,10v9a.75.75,0,0,0,1.5,0V10a.75.75,0,0,0-1.5,0ZM28.5,17.3a.76.76,0,0,0-.75.75v10.2H7.25v-.7a.75.75,0,1,0-1.5,0V29a.76.76,0,0,0,.75.75h22a.76.76,0,0,0,.75-.75V18.05A.76.76,0,0,0,28.5,17.3ZM10.75,10V20.73a.75.75,0,1,0,1.5,0V10a.75.75,0,0,0-1.5,0Zm20.08,0a.75.75,0,0,0-1,.35,25.06,25.06,0,0,1-9.47,10.38A25.23,25.23,0,0,1,5.55,24.25a.76.76,0,0,0-.8.7.75.75,0,0,0,.7.8c.53,0,1.15.06,1.84.06A26.72,26.72,0,0,0,21.14,22a26.48,26.48,0,0,0,10-11A.75.75,0,0,0,30.83,10Z"/></svg>
