<svg id="Layer_1" data-name="Layer 1" xmlns="http://www.w3.org/2000/svg" viewBox="0 0 36 36"><title>Icon-Red_Hat-Software-Containerized_App-A-Black-RGB</title><path d="M29.38,11.2,18.32,4.82a.77.77,0,0,0-.75,0l-11,6.38a.74.74,0,0,0-.38.65V24.62a.74.74,0,0,0,.38.65l11.05,6.38a.75.75,0,0,0,.38.1.71.71,0,0,0,.37-.1l11.06-6.38a.76.76,0,0,0,.37-.65V11.85A.76.76,0,0,0,29.38,11.2Zm-1.13,13L18,30.13,7.64,24.18V12.29L18,6.34l10.3,5.95Z"/><path d="M12.54,13.47v9.59a.75.75,0,0,0,.75.75H23a.75.75,0,0,0,.75-.75V13.47a.76.76,0,0,0-.75-.75H13.29A.76.76,0,0,0,12.54,13.47Zm1.5.75h8.21v8.09H14Z"/><path d="M20.82,15.64a.78.78,0,0,0-1.06,0,.67.67,0,0,0-.16.25.71.71,0,0,0-.06.28.72.72,0,0,0,.06.29.63.63,0,0,0,.16.24.75.75,0,0,0,1.06,0,.78.78,0,0,0,.16-.24.72.72,0,0,0,.06-.29.71.71,0,0,0-.06-.28A.82.82,0,0,0,20.82,15.64Z"/><path d="M18.82,15.64a.75.75,0,0,0-1.06,0,.67.67,0,0,0-.16.25.71.71,0,0,0-.06.28.72.72,0,0,0,.06.29.67.67,0,0,0,.16.24.75.75,0,0,0,.53.22,1,1,0,0,0,.29-.05.81.81,0,0,0,.24-.17.73.73,0,0,0,.22-.53.71.71,0,0,0-.06-.28A.82.82,0,0,0,18.82,15.64Z"/></svg>