<?xml version="1.0" encoding="utf-8"?>
<!-- Generator: Adobe Illustrator 24.2.1, SVG Export Plug-In . SVG Version: 6.00 Build 0)  -->
<svg version="1.1" id="bb353721-2600-418d-9a03-948e241c6bd6"
	 xmlns="http://www.w3.org/2000/svg" xmlns:xlink="http://www.w3.org/1999/xlink" x="0px" y="0px" viewBox="0 0 36 36"
	 style="enable-background:new 0 0 36 36;" xml:space="preserve">
<path d="M25.75,25.25h-20C5.336,25.25,5,25.586,5,26v4c0,0.414,0.336,0.75,0.75,0.75h20c0.414,0,0.75-0.336,0.75-0.75v-4
	C26.5,25.586,26.164,25.25,25.75,25.25z M25,29.25H6.5v-2.5H25V29.25z M5.75,16.75h20c0.414,0,0.75-0.336,0.75-0.75v-4
	c0-0.414-0.336-0.75-0.75-0.75h-20C5.336,11.25,5,11.586,5,12v4C5,16.414,5.336,16.75,5.75,16.75z M6.5,12.75H25v2.5H6.5V12.75z
	 M29.75,18.25h-20C9.336,18.25,9,18.586,9,19v4c0,0.414,0.336,0.75,0.75,0.75h20c0.414,0,0.75-0.336,0.75-0.75v-4
	C30.5,18.586,30.164,18.25,29.75,18.25z M29,22.25H10.5v-2.5H29V22.25z M26.75,6.25h-1.189l0.719-0.72
	c0.282-0.303,0.266-0.778-0.037-1.06c-0.288-0.268-0.735-0.268-1.023,0l-2,2c-0.292,0.293-0.292,0.767,0,1.06l2,2
	c0.303,0.282,0.778,0.266,1.06-0.037c0.268-0.288,0.268-0.735,0-1.023l-0.719-0.72h1.189C27.992,7.751,28.999,8.758,29,10v7
	c0,0.414,0.336,0.75,0.75,0.75S30.5,17.414,30.5,17v-7C30.498,7.93,28.82,6.252,26.75,6.25z"/>
</svg>
