<?xml version="1.0" encoding="utf-8"?>
<!-- Generator: Adobe Illustrator 24.2.1, SVG Export Plug-In . SVG Version: 6.00 Build 0)  -->
<svg version="1.1" id="aa05159d-5d7b-4576-a816-3a5d8c490fd6"
	 xmlns="http://www.w3.org/2000/svg" xmlns:xlink="http://www.w3.org/1999/xlink" x="0px" y="0px" viewBox="0 0 36 36"
	 style="enable-background:new 0 0 36 36;" xml:space="preserve">
<g>
	<path d="M24.75,11.75c0.414,0,0.75-0.336,0.75-0.75V7c0-0.414-0.336-0.75-0.75-0.75h-12c-0.283,0-0.479,0.171-0.53,0.22l-4,4
		C8.095,10.598,8,10.823,8,11v18c0,0.414,0.336,0.75,0.75,0.75h16c0.414,0,0.75-0.336,0.75-0.75v-7c0-0.414-0.336-0.75-0.75-0.75
		S24,21.586,24,22v6.25H9.5v-16.5h3.25c0.414,0,0.75-0.336,0.75-0.75V7.75H24V11C24,11.414,24.336,11.75,24.75,11.75z M12,10.25
		h-1.439L12,8.811V10.25z"/>
	<path d="M29.28,13.47l-2-2c-0.292-0.293-0.767-0.293-1.059-0.001L17.22,20.47c-0.083,0.082-0.145,0.182-0.181,0.293l-1,3
		c-0.131,0.393,0.082,0.818,0.475,0.949c0.076,0.025,0.156,0.038,0.236,0.038c0.081,0,0.16-0.013,0.237-0.038l3-1
		c0.11-0.037,0.211-0.099,0.293-0.182l9-9C29.573,14.238,29.573,13.763,29.28,13.47L29.28,13.47z M19.345,22.345l-1.409,0.469
		l0.47-1.409l6.344-6.344L25.69,16L19.345,22.345z M26.75,14.939L25.811,14l0.939-0.939L27.689,14L26.75,14.939z"/>
</g>
</svg>
