<svg id="Icon" xmlns="http://www.w3.org/2000/svg" viewBox="0 0 36 36"><title>Icon-Red_Hat-Forklift-A-Black-RGB</title><path d="M21.74,25a.48.48,0,0,0,0-.12l-1.27-6v0l-1.84-8.66a.75.75,0,0,0-.73-.59H13a.75.75,0,0,0-.75.75v7.92H5a.76.76,0,0,0-.75.75v6a.76.76,0,0,0,.75.75h.35a3.08,3.08,0,0,0-.1.75,3.25,3.25,0,0,0,6.5,0,3.08,3.08,0,0,0-.1-.75h1.7a3.08,3.08,0,0,0-.1.75,3.25,3.25,0,0,0,6.5,0,3.08,3.08,0,0,0-.1-.75H21a.39.39,0,0,0,.15,0,.15.15,0,0,0,.07,0l.12-.05a.71.71,0,0,0,.14-.1l.07-.06a1,1,0,0,0,.11-.17l0-.07a.78.78,0,0,0,0-.21s0,0,0,0S21.74,25,21.74,25Zm-8-13.88h3.53l1.53,7.17H13.75ZM8.5,28.25a1.75,1.75,0,1,1,1.75-1.75A1.76,1.76,0,0,1,8.5,28.25Zm8,0a1.75,1.75,0,1,1,1.75-1.75A1.76,1.76,0,0,1,16.5,28.25Zm0-5a3.27,3.27,0,0,0-2.34,1H10.84a3.24,3.24,0,0,0-4.68,0H5.75v-4.5H19.12l1,4.5H18.84A3.27,3.27,0,0,0,16.5,23.25Z"/><path d="M33.73,24.54a.74.74,0,0,0-.89-.58l-8.07,1.71-4-18.83a.75.75,0,1,0-1.46.32l4.15,19.56a.76.76,0,0,0,.74.59h.15l8.81-1.88A.74.74,0,0,0,33.73,24.54Z"/><path d="M25.77,23.16a.7.7,0,0,0,.33.47.73.73,0,0,0,.41.12h.15l4.89-1a.75.75,0,0,0,.58-.89l-1-4.89a.72.72,0,0,0-.32-.47.77.77,0,0,0-.57-.11l-4.89,1a.77.77,0,0,0-.58.89Zm4-5.2.73,3.43-3.43.73-.72-3.43Z"/></svg>