<svg id="Layer_1" data-name="Layer 1" xmlns="http://www.w3.org/2000/svg" viewBox="0 0 36 36"><title>Icon-Red_Hat-Hardware-Server_Secured-Black-RGB</title><path d="M24.6,20.84H3.35v-5.5h26.5v.25a.75.75,0,0,0,1.5,0v-1a.75.75,0,0,0-.75-.75H2.6a.74.74,0,0,0-.75.75v7a.75.75,0,0,0,.75.75h22a.75.75,0,0,0,0-1.5Z"/><path d="M5.6,17.84a.75.75,0,1,0,0,1.5h4a.75.75,0,0,0,0-1.5Z"/><path d="M33.64,18.77l-3-1a.76.76,0,0,0-.47,0l-3,1a.75.75,0,0,0-.52.71v3a3.75,3.75,0,0,0,7.5,0v-3A.74.74,0,0,0,33.64,18.77Z"/></svg>