<svg id="Layer_1" data-name="Layer 1" xmlns="http://www.w3.org/2000/svg" viewBox="0 0 36 36"><title>Icon-Red_Hat-Hardware-Server_Stack_Unsecured-A-Black-RGB</title><path d="M7,11.75H27a.76.76,0,0,0,.75-.75V6A.76.76,0,0,0,27,5.25H7A.76.76,0,0,0,6.25,6v5A.76.76,0,0,0,7,11.75Zm.75-5h18.5v3.5H7.75Z"/><path d="M24.83,8a.82.82,0,0,0-.25-.16.71.71,0,0,0-.57,0,.56.56,0,0,0-.24.16.75.75,0,0,0,0,1.06.78.78,0,0,0,.24.16.72.72,0,0,0,.29.06.71.71,0,0,0,.28-.06A.82.82,0,0,0,24.83,9a.77.77,0,0,0,.22-.53A.75.75,0,0,0,25,8.21,1,1,0,0,0,24.83,8Z"/><path d="M12.45,7.75h-3a.75.75,0,0,0,0,1.5h3a.75.75,0,0,0,0-1.5Z"/><path d="M7,19.75H27a.76.76,0,0,0,.75-.75V14a.76.76,0,0,0-.75-.75H7a.76.76,0,0,0-.75.75v5A.76.76,0,0,0,7,19.75Zm.75-5h18.5v3.5H7.75Z"/><path d="M24.83,16a.82.82,0,0,0-.25-.16.71.71,0,0,0-.57,0,.78.78,0,0,0-.24.16.81.81,0,0,0-.17.24.74.74,0,0,0-.05.29.71.71,0,0,0,.05.29.81.81,0,0,0,.17.24.78.78,0,0,0,.24.16.72.72,0,0,0,.29.06.71.71,0,0,0,.28-.06.82.82,0,0,0,.25-.16.78.78,0,0,0,.16-.24.73.73,0,0,0,0-.58A.78.78,0,0,0,24.83,16Z"/><path d="M12.45,15.75h-3a.75.75,0,0,0,0,1.5h3a.75.75,0,0,0,0-1.5Z"/><path d="M22,26.25H7.75v-3.5H27a.75.75,0,0,0,0-1.5H7a.76.76,0,0,0-.75.75v5a.76.76,0,0,0,.75.75H22a.75.75,0,0,0,0-1.5Z"/><path d="M9.45,23.75a.75.75,0,0,0,0,1.5h3a.75.75,0,1,0,0-1.5Z"/><path d="M24.1,27.43V28.7a3.75,3.75,0,0,0,3.75,3.75,3.49,3.49,0,0,0,1.08-.18Z"/><path d="M32.08,31.16l-.86-.86a3.62,3.62,0,0,0,.38-1.6v-3a.74.74,0,0,0-.51-.71l-3-1a.79.79,0,0,0-.48,0l-2,.67-.75-.75a.74.74,0,0,0-1.06,0,.75.75,0,0,0,0,1.06l6.53,6.54h0l.71.71a.74.74,0,0,0,.53.22.73.73,0,0,0,.53-.22A.74.74,0,0,0,32.08,31.16Z"/></svg>