<svg id="aa109bd3-a9b7-44be-84ca-8ae3c5bf2e2e" data-name="Layer 1" xmlns="http://www.w3.org/2000/svg" viewBox="0 0 36 36">
  <title>Icon-Red_Hat-Hybrid_cloud_infrastructure-Black-A-RGB</title>
  <g>
    <path d="M11.007,25.25H27a4.75,4.75,0,0,0,.723-9.445,8.744,8.744,0,0,0-16.073-4.038,6.152,6.152,0,0,0-.644-.034,6.759,6.759,0,0,0,0,13.517Zm0-12.017a5.226,5.226,0,0,1,.9.083.747.747,0,0,0,.782-.37A7.244,7.244,0,0,1,26.251,16.5a.75.75,0,0,0,.75.75,3.25,3.25,0,0,1,0,6.5H11.007a5.259,5.259,0,0,1,0-10.517Z"/>
    <path d="M31,26.75H5a.75.75,0,0,0,0,1.5H31a.75.75,0,0,0,0-1.5Z"/>
  </g>
</svg>
