<svg id="aad9de8d-b5d7-4494-980b-10634768f416" data-name="Layer 1" xmlns="http://www.w3.org/2000/svg" viewBox="0 0 36 36">
  <title>Icon-Red_Hat-Video-A-Black-RGB</title>
  <g>
    <path d="M29.725,15.629a.749.749,0,0,0-.531-.22H10.474L18.5,13.7l10.111-2.149a.744.744,0,0,0,.473-.325.751.751,0,0,0,.1-.564L28.88,9.212l-.309-1.453a.751.751,0,0,0-.326-.473.739.739,0,0,0-.563-.1L17.166,9.418,6.65,11.653a.756.756,0,0,0-.478.332.755.755,0,0,0-.106.277.739.739,0,0,0,.01.3L6.414,14l.338,1.44,0,.011,0,.01.1.435.082.352V28.084a.751.751,0,0,0,.75.75h21.5a.749.749,0,0,0,.75-.75V16.159A.75.75,0,0,0,29.725,15.629ZM7.879,13.676l-.168-.715,9.775-2.078L27.26,8.805l.153.719.153.719-9.759,2.074-9.76,2.075Zm20.565,8.446v5.212h-20V16.909h20Z"/>
    <path d="M16.807,19.247a.749.749,0,0,0-.372.1.74.74,0,0,0-.273.274.753.753,0,0,0-.1.374v4.25a.753.753,0,0,0,.373.648.787.787,0,0,0,.183.076.755.755,0,0,0,.194.026.718.718,0,0,0,.19-.025.732.732,0,0,0,.18-.073l1.88-1.062,1.881-1.063a.749.749,0,0,0,.279-.274.751.751,0,0,0,0-.756.744.744,0,0,0-.279-.275l-1.881-1.063-1.88-1.062A.75.75,0,0,0,16.807,19.247Zm.755,2.875v-.84l.744.42.743.42-.743.42-.744.419Z"/>
  </g>
</svg>
