<svg id="Layer_1" data-name="Layer 1" xmlns="http://www.w3.org/2000/svg" viewBox="0 0 36 36"><title>Icon-Red_Hat-Documents-Blueprint-A-Black-RGB</title><path d="M29,10H11a.65.65,0,0,0-.19,0l-.07,0a.86.86,0,0,0-.22.15l-4,4a.86.86,0,0,0-.15.22s0,.05,0,.07a.65.65,0,0,0,0,.19s0,0,0,.05v12A.76.76,0,0,0,7,27.5H29a.76.76,0,0,0,.75-.75v-16A.76.76,0,0,0,29,10ZM10.25,12.56V14H8.81ZM28.25,26H7.75V15.5H11a.76.76,0,0,0,.75-.75V11.5h16.5Z"/><path d="M14,16.5h1.25V21H14a.75.75,0,0,0,0,1.5h1.25v1.25a.75.75,0,0,0,1.5,0V22.5h6.5v1.25a.75.75,0,0,0,1.5,0V22.5H26A.75.75,0,0,0,26,21H24.75V16.5H26A.75.75,0,0,0,26,15H24.75V13.75a.75.75,0,0,0-1.5,0V15h-6.5V13.75a.75.75,0,0,0-1.5,0V15H14a.75.75,0,0,0,0,1.5Zm9.25,0V21h-6.5V16.5Z"/></svg>