<svg id="Layer_1" data-name="Layer 1" xmlns="http://www.w3.org/2000/svg" viewBox="0 0 36 36"><title>Icon-Red_Hat-Objects-Lifevest-A-Black-RGB</title><path d="M18,5.81a9.76,9.76,0,0,0-9.75,9.75v10a4.63,4.63,0,1,0,9.25,0V19.22a.74.74,0,0,0-.51-.71,3.12,3.12,0,1,1,2,0,.74.74,0,0,0-.51.71v6.34a4.63,4.63,0,1,0,9.25,0v-10A9.76,9.76,0,0,0,18,5.81ZM12.88,28.69a3.13,3.13,0,0,1-3.11-2.94H16A3.13,3.13,0,0,1,12.88,28.69ZM16,24.25H9.75V22H16ZM17.25,11A4.6,4.6,0,0,0,16,19.72v.81H9.75v-5a8.26,8.26,0,0,1,7.5-8.21Zm5.87,17.67A3.13,3.13,0,0,1,20,25.75h6.21A3.13,3.13,0,0,1,23.12,28.69Zm3.13-4.44H20V22h6.25Zm0-3.72H20v-.81A4.6,4.6,0,0,0,18.75,11V7.35a8.26,8.26,0,0,1,7.5,8.21Z"/></svg>