<svg id="Icon" xmlns="http://www.w3.org/2000/svg" viewBox="0 0 36 36"><title>Icon-Red_Hat-Lower_Cost_Yen-A-Black-RGB</title><path d="M25,5.41a.74.74,0,0,0-1.05.13l-5.66,7.24L12.59,5.54a.75.75,0,1,0-1.18.92l6.09,7.8V28.94l-.72-.72a.75.75,0,1,0-1.06,1.06l2,2a.73.73,0,0,0,.81.16h0a.74.74,0,0,0,.22-.14s0,0,0,0l2-2a.75.75,0,0,0-1.06-1.06l-.72.72V14.26l6.09-7.8A.74.74,0,0,0,25,5.41Z"/><path d="M24,17.25H20.75a.75.75,0,0,0,0,1.5H24a.75.75,0,0,0,0-1.5Z"/><path d="M12,18.75h3.75a.75.75,0,0,0,0-1.5H12a.75.75,0,0,0,0,1.5Z"/><path d="M24,21.25H20.75a.75.75,0,0,0,0,1.5H24a.75.75,0,0,0,0-1.5Z"/><path d="M16.5,22a.76.76,0,0,0-.75-.75H12a.75.75,0,0,0,0,1.5h3.75A.76.76,0,0,0,16.5,22Z"/></svg>