<svg id="b24f75c1-1d80-4ef4-ad3f-c7d5d21f7e04" data-name="Layer 1" xmlns="http://www.w3.org/2000/svg" viewBox="0 0 36 36">
  <title>Icon-Red_Hat-Graduation_cap-A-Black-RGB</title>
  <g>
    <path d="M33.638,14.349a.758.758,0,0,0-.361-.275l-7.513-2.683L18.252,8.708a.763.763,0,0,0-.5,0l-7.512,2.683L2.723,14.074a.758.758,0,0,0-.361.275.754.754,0,0,0,0,.864.756.756,0,0,0,.361.274L8.665,17.61v5.755a.751.751,0,0,0,.487.7l4.292,1.61,4.293,1.611a.831.831,0,0,0,.13.035.743.743,0,0,0,.266,0,.831.831,0,0,0,.13-.035l4.293-1.611,4.292-1.61a.751.751,0,0,0,.487-.7V17.609l5.942-2.122a.747.747,0,0,0,.5-.706A.746.746,0,0,0,33.638,14.349Zm-7.8,5.672v2.825l-3.918,1.469L18,25.785l-3.917-1.47-3.918-1.469v-4.7l.07.025,7.512,2.684a.791.791,0,0,0,.125.032.744.744,0,0,0,.255,0,.791.791,0,0,0,.125-.032l7.512-2.684.071-.025ZM24.4,17.066,18,19.351l-6.4-2.285-6.4-2.285L11.6,12.5,18,10.211l5.2,1.858-1.759.647-3.7,1.361A.75.75,0,0,0,18,15.531a.825.825,0,0,0,.13-.011.883.883,0,0,0,.129-.035l3.7-1.361,3.446-1.268,5.388,1.925Z"/>
    <path d="M31.48,17.47a.564.564,0,0,0-.109-.1.772.772,0,0,0-.131-.074.793.793,0,0,0-.57,0,.875.875,0,0,0-.133.074.777.777,0,0,0-.117.1.633.633,0,0,0-.158.238A.824.824,0,0,0,30.21,18a.8.8,0,0,0,.052.284.706.706,0,0,0,.158.246.644.644,0,0,0,.117.091,1.2,1.2,0,0,0,.133.069.682.682,0,0,0,.141.045.746.746,0,0,0,.149.015.688.688,0,0,0,.14-.015.713.713,0,0,0,.14-.045.841.841,0,0,0,.131-.073.705.705,0,0,0,.109-.087.812.812,0,0,0,.167-.246A.718.718,0,0,0,31.71,18a.737.737,0,0,0-.063-.292A.721.721,0,0,0,31.48,17.47Z"/>
    <path d="M30.924,19.392a.751.751,0,0,0-.75.75v5.366a.75.75,0,0,0,1.5,0V20.142a.751.751,0,0,0-.75-.75Z"/>
  </g>
</svg>
