<svg id="e5b439e2-99b9-4ecf-bcc9-2c61a66609c7" data-name="Layer 1" xmlns="http://www.w3.org/2000/svg" viewBox="0 0 36 36">
  <title>Icon-Red_Hat-Virtual_Storage-A-Black-RGB</title>
  <g>
    <path d="M27.75,18V15.5c0-1.612-1.071-3.05-2.825-4.084A13.844,13.844,0,0,0,18,9.75a13.844,13.844,0,0,0-6.925,1.666C9.321,12.45,8.25,13.888,8.25,15.5v5c0,1.612,1.071,3.05,2.825,4.084A13.844,13.844,0,0,0,18,26.25a13.844,13.844,0,0,0,6.925-1.666c1.754-1.034,2.825-2.472,2.825-4.084Zm-1.5,2.5c0,1.152-.944,2.214-2.448,2.989A13,13,0,0,1,18,24.75a13,13,0,0,1-5.8-1.261c-1.5-.775-2.448-1.837-2.448-2.989V18.6a7.491,7.491,0,0,0,1.325.988A13.844,13.844,0,0,0,18,21.25a13.844,13.844,0,0,0,6.925-1.666A7.491,7.491,0,0,0,26.25,18.6ZM23.8,18.489A13,13,0,0,1,18,19.75a13,13,0,0,1-5.8-1.261c-1.5-.775-2.448-1.837-2.448-2.989s.944-2.214,2.448-2.989A13,13,0,0,1,18,11.25a13,13,0,0,1,5.8,1.261c1.5.775,2.448,1.837,2.448,2.989S25.306,17.714,23.8,18.489Z"/>
    <path d="M14.18,8.63h.075a.639.639,0,0,0,.075-.009.763.763,0,0,0,.477-.329.759.759,0,0,0-.219-1.039.743.743,0,0,0-.568-.1.732.732,0,0,0-.47.321.771.771,0,0,0-.11.569.76.76,0,0,0,.74.59Z"/>
    <path d="M23.445,27.14a.747.747,0,0,0-1.016.3.737.737,0,0,0-.059.57.724.724,0,0,0,.269.394.745.745,0,0,0,.441.146.838.838,0,0,0,.114-.008.767.767,0,0,0,.106-.022.749.749,0,0,0,.446-.364.743.743,0,0,0-.3-1.016Z"/>
    <path d="M9.132,10.422a.737.737,0,0,0,.348.088.716.716,0,0,0,.42-.13.761.761,0,0,0,.319-.475.751.751,0,0,0-.109-.565.761.761,0,0,0-.475-.319.747.747,0,0,0-.565.109.758.758,0,0,0-.319.475.748.748,0,0,0,.109.565A.728.728,0,0,0,9.132,10.422Z"/>
    <path d="M11.322,9.224a.744.744,0,0,0,.558.112,1.105,1.105,0,0,0,.14-.036.752.752,0,1,0-.968-1,.741.741,0,0,0,.27.924Z"/>
    <path d="M27.605,24.707a.756.756,0,0,0-.545.183.746.746,0,0,0-.253.515.757.757,0,0,0,.183.545.778.778,0,0,0,.262.194.768.768,0,0,0,.308.066.74.74,0,0,0,.256-.046.716.716,0,0,0,.234-.144.736.736,0,0,0,.252-.511.769.769,0,0,0-.182-.549A.748.748,0,0,0,27.605,24.707Z"/>
    <path d="M19.19,8.29a.764.764,0,0,0,.542-.189.749.749,0,0,0,.258-.511.759.759,0,0,0-.71-.8.751.751,0,0,0-.605,1.246A.76.76,0,0,0,19.19,8.29Z"/>
    <path d="M30,17.83a.745.745,0,0,0-.529.222.765.765,0,0,0-.221.538.734.734,0,0,0,.221.524.756.756,0,0,0,1.058,0,.734.734,0,0,0,.221-.524.765.765,0,0,0-.221-.538A.747.747,0,0,0,30,17.83Z"/>
    <path d="M29.55,22.87a.734.734,0,0,0-.566-.075.763.763,0,0,0-.454.345.74.74,0,0,0-.074.571.767.767,0,0,0,.354.459.615.615,0,0,0,.177.076.785.785,0,0,0,.193.024.741.741,0,0,0,.37-.1.775.775,0,0,0,.28-.28.731.731,0,0,0,.074-.567A.768.768,0,0,0,29.55,22.87Z"/>
    <path d="M29.471,15.511A.744.744,0,1,0,30,15.29.749.749,0,0,0,29.471,15.511Z"/>
    <path d="M28.96,13.79a.744.744,0,0,0,.28.366.76.76,0,0,0,.43.134.808.808,0,0,0,.12-.009.589.589,0,0,0,.12-.031.764.764,0,0,0,.429-.386.744.744,0,0,0,.031-.574.74.74,0,0,0-.95-.46.761.761,0,0,0-.429.386A.74.74,0,0,0,28.96,13.79Z"/>
    <path d="M23.92,9.28a1.123,1.123,0,0,0,.135.036.688.688,0,0,0,.135.014.754.754,0,0,0,.421-.132.733.733,0,0,0,.279-.348.75.75,0,1,0-1.4-.54.734.734,0,0,0,.016.571A.764.764,0,0,0,23.92,9.28Z"/>
    <path d="M21.6,8.6c.03.005.057.01.084.013a.5.5,0,0,0,.076.007.747.747,0,0,0,.47-.165.735.735,0,0,0,.26-.435.76.76,0,0,0-.58-.89H21.9a.75.75,0,0,0-.77,1.15A.734.734,0,0,0,21.6,8.6Z"/>
    <path d="M20.5,27.58a.757.757,0,0,0-.5.294.737.737,0,0,0-.144.556.755.755,0,0,0,.74.65.461.461,0,0,0,.054,0,.177.177,0,0,0,.046-.008.768.768,0,0,0,.5-.289.744.744,0,0,0,.153-.551.762.762,0,0,0-.85-.65Z"/>
    <path d="M26.05,10.35a.816.816,0,0,0,.2.09.739.739,0,0,0,.558-.058.783.783,0,0,0,.281-.252.769.769,0,0,0,.1-.569.74.74,0,0,0-.32-.471.751.751,0,0,0-.569-.108.733.733,0,0,0-.471.328.742.742,0,0,0-.108.565A.759.759,0,0,0,26.05,10.35Z"/>
    <path d="M30.05,20.38a.749.749,0,0,0-.664,1.219.744.744,0,0,0,.5.271h.08a.741.741,0,0,0,.74-.67.737.737,0,0,0-.66-.82Z"/>
    <path d="M16.7,8.29h.05a.743.743,0,0,0,.69-.8.723.723,0,0,0-.249-.511.743.743,0,0,0-1.06.068.743.743,0,0,0-.181.543.726.726,0,0,0,.232.5A.76.76,0,0,0,16.7,8.29Z"/>
    <path d="M6.07,14.31a.589.589,0,0,0,.12.031.808.808,0,0,0,.12.009.771.771,0,0,0,.434-.135.715.715,0,0,0,.276-.375.745.745,0,0,0-.04-.569.768.768,0,0,0-.43-.381.756.756,0,0,0-.573.04.741.741,0,0,0-.377.43v.01a.743.743,0,0,0,.47.94Z"/>
    <path d="M6.627,21.659A.759.759,0,0,0,6.78,21.1a.719.719,0,0,0-.276-.5.757.757,0,0,0-.554-.152.743.743,0,0,0-.65.83H5.29a.764.764,0,0,0,.75.66h.09A.739.739,0,0,0,6.627,21.659Z"/>
    <path d="M28.87,11.93a.748.748,0,0,0-.435-1.311.745.745,0,0,0-.545.181.752.752,0,0,0,.49,1.32.738.738,0,0,0,.26-.046A.721.721,0,0,0,28.87,11.93Z"/>
    <path d="M6,19.4a.749.749,0,1,0-.529-.218A.752.752,0,0,0,6,19.4Z"/>
    <path d="M25.672,26.15a.752.752,0,0,0-.892,1.06.7.7,0,0,0,.279.3.8.8,0,0,0,.561.085.623.623,0,0,0,.17-.062.741.741,0,0,0,.37-.438.755.755,0,0,0-.05-.572A.738.738,0,0,0,25.672,26.15Z"/>
    <path d="M13.19,27.1a.743.743,0,0,0-.574.06.76.76,0,0,0-.3,1.02.761.761,0,0,0,.45.36.785.785,0,0,0,.105.022.72.72,0,0,0,.547-.142.74.74,0,0,0,.214-.964A.72.72,0,0,0,13.19,27.1Z"/>
    <path d="M15.56,27.59a.748.748,0,0,0-.551.152.768.768,0,0,0-.289.5.748.748,0,0,0,.152.551.773.773,0,0,0,.5.289.249.249,0,0,1,.046.005.415.415,0,0,0,.054,0,.745.745,0,0,0,.49-.186.757.757,0,0,0-.4-1.314Z"/>
    <path d="M6,16.86a.755.755,0,1,0-.529-.221A.751.751,0,0,0,6,16.86Z"/>
    <path d="M18.06,27.75H18a.75.75,0,0,0,0,1.5h.07a.75.75,0,0,0,.527-1.283A.761.761,0,0,0,18.06,27.75Z"/>
    <path d="M7.319,12.125a.723.723,0,0,0,.251.045.783.783,0,0,0,.315-.066.708.708,0,0,0,.255-.194.765.765,0,0,0,.181-.549.752.752,0,0,0-.806-.689A.762.762,0,0,0,7,10.93a.758.758,0,0,0,.319,1.2Z"/>
    <path d="M10.95,26.23a.742.742,0,0,0-.573-.045.744.744,0,0,0-.477.946.724.724,0,0,0,.38.429.631.631,0,0,0,.161.067.661.661,0,0,0,.169.023A.733.733,0,0,0,11,27.537a.762.762,0,0,0,.279-.307.738.738,0,0,0,.045-.571A.729.729,0,0,0,10.95,26.23Z"/>
    <path d="M8.985,24.93h0a.731.731,0,0,0-.54-.178.752.752,0,0,0-.691.806.754.754,0,0,0,.491.647.759.759,0,0,0,.567-.021.772.772,0,0,0,.263-.194.739.739,0,0,0,.177-.545.759.759,0,0,0-.257-.515Z"/>
    <path d="M7.041,22.851A.75.75,0,0,0,6.21,23.96a.738.738,0,0,0,.28.275.766.766,0,0,0,.37.095.669.669,0,0,0,.193-.029.854.854,0,0,0,.187-.081.753.753,0,0,0,.34-.458A.736.736,0,0,0,7.5,23.2.751.751,0,0,0,7.041,22.851Z"/>
  </g>
</svg>
