<svg id="Layer_1" data-name="Layer 1" xmlns="http://www.w3.org/2000/svg" viewBox="0 0 36 36"><title>Icon-Red_Hat-Media_and_audiences-Hand_Closed-A-Black-RGB</title><path d="M26.88,17.12A8.12,8.12,0,0,0,26,15.46l0-5.16a2.77,2.77,0,0,0-4.81-1.86,2.73,2.73,0,0,0-2-.9,2.77,2.77,0,0,0-2,.9,2.76,2.76,0,0,0-4-.08,2.52,2.52,0,0,0-4.38,1.69v1.36a.49.49,0,0,0,0,.12v1h0v2.55s0,0,0,0v1.89h0v.48a0,0,0,0,1,0,0v1.58A9.31,9.31,0,0,0,18,28.46a9.07,9.07,0,0,0,3.79-.8,9.67,9.67,0,0,0,1.65-.95,8.7,8.7,0,0,0,1.4-1.25A9.72,9.72,0,0,0,26,24,8,8,0,0,0,26.88,17.12ZM22,10.31a1.28,1.28,0,0,1,2.55,0l0,3.45A7.65,7.65,0,0,0,22,12.25ZM19.16,9a1.29,1.29,0,0,1,1.28,1.27v1.54a9.28,9.28,0,0,0-1.06-.11H17.92l0-1.43A1.27,1.27,0,0,1,19.16,9Zm-5.34,1.27a1.28,1.28,0,0,1,2.55,0v1.43H14.45a2.65,2.65,0,0,0-.63.08Zm-3.61,6.23,0-4.81a.37.37,0,0,1,0-.11V10.06a1,1,0,0,1,2.05,0v2.76a2.63,2.63,0,0,0,0,3.26v1a1,1,0,0,1-2,.27,1,1,0,0,1,0-.24Zm14.5,6.64a7.78,7.78,0,0,1-.95,1.27,8.05,8.05,0,0,1-2.56,1.84,7.61,7.61,0,0,1-1.53.5A8.32,8.32,0,0,1,18,27a7.81,7.81,0,0,1-7.8-7.59,2.54,2.54,0,0,0,1,.23,2.52,2.52,0,0,0,1.88-.85,2.75,2.75,0,0,0,4.72-1.58h.09a5.69,5.69,0,0,0,5.63,4.93.75.75,0,0,0,0-1.5,4.19,4.19,0,0,1-4.19-4.18h0a.74.74,0,0,0-.75-.75H14.45a1.22,1.22,0,1,1,0-2.43h4.9A6.93,6.93,0,0,1,21,13.5a6.52,6.52,0,0,1,1.47.61,6.65,6.65,0,0,1,2.3,2.13,6.49,6.49,0,0,1,.73,1.41A6.52,6.52,0,0,1,24.71,23.18ZM13.9,17.11a2.51,2.51,0,0,0,.55.06h1.87a1.24,1.24,0,0,1-2.42-.06Z"/></svg>