<?xml version="1.0" encoding="utf-8"?>
<!-- Generator: Adobe Illustrator 24.2.1, SVG Export Plug-In . SVG Version: 6.00 Build 0)  -->
<svg version="1.1" id="b9259908-959d-4a16-afe5-1a59a980956b"
	 xmlns="http://www.w3.org/2000/svg" xmlns:xlink="http://www.w3.org/1999/xlink" x="0px" y="0px" viewBox="0 0 36 36"
	 style="enable-background:new 0 0 36 36;" xml:space="preserve">
<path d="M12.002,17.26h-3.25v-1.25c0-0.414-0.336-0.75-0.75-0.75h-4c-0.414,0-0.75,0.336-0.75,0.75v4c0,0.414,0.336,0.75,0.75,0.75
	h4c0.414,0,0.75-0.336,0.75-0.75v-1.25h3.25c0.414,0,0.75-0.336,0.75-0.75S12.417,17.26,12.002,17.26z M7.252,19.26h-2.5v-2.5h2.5
	V19.26z M32.002,15.26h-4c-0.414,0-0.75,0.336-0.75,0.75v1.25h-3.25c-0.414,0-0.75,0.336-0.75,0.75s0.336,0.75,0.75,0.75h3.25v1.25
	c0,0.414,0.336,0.75,0.75,0.75h4c0.414,0,0.75-0.336,0.75-0.75v-4C32.752,15.596,32.417,15.26,32.002,15.26z M31.252,19.26h-2.5
	v-2.5h2.5V19.26z M22.002,13.26h-8c-0.414,0-0.75,0.336-0.75,0.75v8c0,0.414,0.336,0.75,0.75,0.75h8c0.414,0,0.75-0.336,0.75-0.75
	v-8C22.752,13.596,22.417,13.26,22.002,13.26L22.002,13.26z M21.252,21.26h-6.5v-6.5h6.5V21.26z M5.982,9.76
	c-0.69,0-1.249,0.559-1.249,1.249s0.559,1.249,1.249,1.249s1.249-0.559,1.249-1.249S6.671,9.76,5.982,9.76z M12.743,13
	c0,0.526-0.458,0.75-0.75,0.75c-0.187,0-0.375-0.07-0.521-0.21l-1.781-1.78h-1.07c-0.329,1.154-1.379,2.005-2.639,2.005
	c-1.522,0-2.756-1.234-2.756-2.756S4.46,8.253,5.982,8.253c1.261,0,2.312,0.852,2.64,2.007h1.381c0.198,0.001,0.389,0.08,0.53,0.219
	l2,2C12.673,12.624,12.743,12.812,12.743,13z M7.212,24.991c0-0.69-0.559-1.249-1.249-1.249s-1.249,0.559-1.249,1.249
	s0.559,1.249,1.249,1.249S7.212,25.681,7.212,24.991z M12.725,23c0,0.188-0.07,0.376-0.211,0.521l-2,2
	c-0.141,0.139-0.332,0.218-0.53,0.219H8.603c-0.328,1.156-1.379,2.007-2.64,2.007c-1.522,0-2.756-1.234-2.756-2.756
	s1.234-2.756,2.756-2.756c1.26,0,2.311,0.85,2.639,2.005h1.07l1.781-1.78c0.146-0.14,0.333-0.21,0.521-0.21
	C12.262,22.25,12.725,22.473,12.725,23z M28.769,11.009c0,0.69,0.559,1.249,1.249,1.249s1.249-0.559,1.249-1.249
	S30.708,9.76,30.018,9.76C29.329,9.76,28.769,10.319,28.769,11.009z M23.257,13c0-0.188,0.07-0.376,0.211-0.521l2-2
	c0.141-0.139,0.332-0.218,0.53-0.219h1.381c0.328-1.156,1.379-2.007,2.64-2.007c1.522,0,2.756,1.234,2.756,2.756
	s-1.234,2.756-2.756,2.756c-1.26,0-2.311-0.85-2.639-2.005h-1.07l-1.781,1.78c-0.146,0.14-0.333,0.21-0.521,0.21
	C23.72,13.75,23.257,13.527,23.257,13z M30.037,26.24c0.69,0,1.249-0.559,1.249-1.249s-0.559-1.249-1.249-1.249
	s-1.249,0.559-1.249,1.249S29.347,26.24,30.037,26.24z M23.275,23c0-0.526,0.458-0.75,0.75-0.75c0.187,0,0.375,0.07,0.521,0.21
	l1.781,1.78h1.07c0.329-1.154,1.379-2.005,2.639-2.005c1.522,0,2.756,1.234,2.756,2.756s-1.234,2.756-2.756,2.756
	c-1.261,0-2.312-0.852-2.64-2.007h-1.381c-0.198-0.001-0.389-0.08-0.53-0.219l-2-2C23.345,23.376,23.275,23.188,23.275,23z"/>
</svg>
