<?xml version="1.0" encoding="utf-8"?>
<!-- Generator: Adobe Illustrator 21.1.0, SVG Export Plug-In . SVG Version: 6.00 Build 0)  -->
<!DOCTYPE svg PUBLIC "-//W3C//DTD SVG 1.1//EN" "http://www.w3.org/Graphics/SVG/1.1/DTD/svg11.dtd">
<svg version="1.1" id="Layer_1" xmlns="http://www.w3.org/2000/svg" xmlns:xlink="http://www.w3.org/1999/xlink" x="0px" y="0px"
	 viewBox="0 0 31.68 31.68" style="enable-background:new 0 0 31.68 31.68;" xml:space="preserve">
<style type="text/css">
	.st0{fill:none;}
	.st1{fill:#010101;}
</style>
<g>
	<path class="st0" d="M22.6,9.46c-1.92-1.92-5.04-1.92-6.96,0s-1.92,5.04,0,6.96c1.92,1.92,5.04,1.92,6.96,0c0,0,0,0,0,0
		c1.92-1.9,1.94-5,0.03-6.92C22.62,9.48,22.61,9.47,22.6,9.46z M22.04,12.55c-0.7,0.7-1.83,0.7-2.53,0c-0.7-0.7-0.7-1.83,0-2.53
		c0.7-0.7,1.83-0.7,2.53,0c0,0,0,0,0,0C22.74,10.72,22.74,11.85,22.04,12.55L22.04,12.55z"/>
	<path class="st0" d="M20.78,10.01c-0.7,0-1.27,0.57-1.27,1.27c0,0.7,0.57,1.27,1.27,1.27s1.27-0.57,1.27-1.27
		c0-0.34-0.14-0.66-0.37-0.9C21.44,10.14,21.11,10.01,20.78,10.01z"/>
	<path class="st0" d="M23.21,8.84c-2.26-2.26-5.92-2.26-8.18-0.01c-1.5,1.5-2.06,3.7-1.46,5.74c0.03,0.09,0,0.19-0.06,0.26
		l-0.77,0.77l0.33,0.33c0.1,0.1,0.1,0.26,0,0.36l-6.29,6.29l0.38,1.9l1.55,0.05l1.05-1.05l-0.1-1.17c-0.01-0.08,0.02-0.15,0.07-0.2
		l0.38-0.38c0.05-0.05,0.13-0.08,0.21-0.07l1.14,0.12l0.21-0.21l-0.05-0.63c-0.01-0.08,0.02-0.15,0.07-0.21l0.31-0.31
		c0.06-0.06,0.15-0.09,0.23-0.07l0.54,0.12l0.64-0.64c0.06-0.06,0.14-0.08,0.22-0.07l1.21,0.17l0.91-0.91c0.1-0.1,0.26-0.1,0.36,0
		l0.33,0.33l0.77-0.77c0.07-0.07,0.17-0.09,0.26-0.06c3.06,0.93,6.29-0.8,7.22-3.86C25.3,12.59,24.74,10.35,23.21,8.84z M7.98,23.36
		c-0.05,0.05-0.13,0.05-0.18,0c-0.05-0.05-0.05-0.13,0-0.18l5.96-5.97l-0.3-0.3l-5.63,5.65c-0.05,0.05-0.13,0.05-0.18,0
		c-0.05-0.05-0.05-0.13,0-0.18l5.73-5.74c0.05-0.05,0.13-0.05,0.18,0c0,0,0,0,0,0l0.48,0.48c0.05,0.05,0.05,0.13,0,0.18c0,0,0,0,0,0
		L7.98,23.36z M15.13,18.39l-0.96,0.96c-0.05,0.05-0.13,0.05-0.18,0c-0.05-0.05-0.05-0.13,0-0.18l0.87-0.87l-0.3-0.3l-1.25,1.25
		c-0.05,0.05-0.13,0.05-0.18,0c-0.05-0.05-0.05-0.13,0-0.18l1.34-1.34c0.05-0.05,0.13-0.05,0.18,0c0,0,0,0,0,0l0.48,0.48
		C15.18,18.25,15.18,18.34,15.13,18.39C15.13,18.39,15.13,18.39,15.13,18.39L15.13,18.39z M22.79,16.6c-2.02,2.02-5.3,2.02-7.33,0
		s-2.02-5.3,0-7.33s5.3-2.02,7.33,0c0,0,0,0,0,0c2.02,2,2.04,5.27,0.04,7.29C22.81,16.58,22.8,16.59,22.79,16.6z"/>
	<path class="st1" d="M23.58,8.48c-2.46-2.46-6.45-2.46-8.91,0c-1.6,1.59-2.22,3.92-1.63,6.1l-0.86,0.86c-0.1,0.1-0.1,0.26,0,0.36
		l0.33,0.33l-6.19,6.19c-0.06,0.06-0.09,0.15-0.07,0.23l0.45,2.23c0.02,0.12,0.13,0.2,0.24,0.21l1.85,0.06l0,0
		c0.07,0,0.13-0.03,0.18-0.07l1.21-1.21c0.05-0.05,0.07-0.11,0.07-0.18l-0.1-1.18l0.21-0.21l1.16,0.11
		c0.08,0.01,0.15-0.02,0.21-0.07l0.38-0.38c0.06-0.05,0.08-0.13,0.07-0.21L12.13,21l0.12-0.12L12.79,21
		c0.09,0.02,0.18-0.01,0.24-0.07l0.65-0.65l1.21,0.17c0.08,0.01,0.16-0.01,0.22-0.07l0.82-0.82l0.33,0.33c0.1,0.1,0.26,0.1,0.36,0
		l0.86-0.86c3.36,0.91,6.82-1.07,7.73-4.43C25.81,12.42,25.18,10.08,23.58,8.48z M23.21,17.03c-1.5,1.5-3.7,2.06-5.73,1.46
		c-0.09-0.03-0.19,0-0.26,0.06l-0.77,0.77L16.12,19c-0.1-0.1-0.26-0.1-0.36,0l-0.92,0.92l-1.21-0.17c-0.08-0.01-0.16,0.01-0.22,0.07
		l-0.64,0.64l-0.54-0.12c-0.09-0.02-0.18,0.01-0.24,0.07l-0.31,0.31c-0.06,0.05-0.08,0.13-0.07,0.21l0.07,0.63l-0.21,0.22
		l-1.16-0.11c-0.08-0.01-0.15,0.02-0.21,0.07L9.7,22.13c-0.05,0.05-0.08,0.13-0.07,0.2l0.1,1.17l-1.05,1.05L7.13,24.5l-0.38-1.9
		l6.3-6.29c0.1-0.1,0.1-0.26,0-0.36l-0.32-0.33l0.77-0.77c0.07-0.07,0.09-0.17,0.06-0.26c-0.91-3.06,0.84-6.28,3.9-7.19
		s6.28,0.84,7.19,3.9C25.27,13.32,24.71,15.53,23.21,17.03z"/>
	<path class="st1" d="M19.51,10.01c-0.7,0.7-0.7,1.83,0,2.53c0.7,0.7,1.83,0.7,2.53,0s0.7-1.83,0-2.53c0,0,0,0,0,0
		C21.34,9.32,20.21,9.32,19.51,10.01z M21.68,12.18c-0.5,0.5-1.3,0.49-1.8,0c-0.5-0.5-0.49-1.3,0-1.8c0.5-0.49,1.3-0.49,1.8,0
		C22.17,10.87,22.17,11.68,21.68,12.18z"/>
	<path class="st1" d="M22.79,9.28c-2.02-2.02-5.3-2.02-7.32,0s-2.02,5.3,0,7.32c2.02,2.02,5.3,2.02,7.32,0
		C24.81,14.58,24.81,11.3,22.79,9.28z M22.6,16.42c-1.92,1.92-5.04,1.92-6.96,0s-1.92-5.04,0-6.96c1.92-1.92,5.04-1.92,6.96,0
		C24.52,11.38,24.52,14.49,22.6,16.42z"/>
	<path class="st1" d="M14.04,17.12l-0.48-0.48c-0.05-0.05-0.13-0.05-0.18,0c0,0,0,0,0,0l-5.74,5.74c-0.05,0.05-0.05,0.13,0,0.18
		c0.05,0.05,0.13,0.05,0.18,0l5.65-5.65l0.29,0.3L7.8,23.18c-0.05,0.05-0.05,0.13,0,0.18c0.05,0.05,0.13,0.05,0.18,0l6.06-6.06
		C14.09,17.25,14.09,17.17,14.04,17.12z"/>
	<path class="st1" d="M14.65,17.73c-0.05-0.05-0.13-0.05-0.18,0c0,0,0,0,0,0l-1.34,1.34c-0.05,0.05-0.05,0.13,0,0.18
		c0.05,0.05,0.13,0.05,0.18,0L14.56,18l0.3,0.3l-0.87,0.87c-0.05,0.05-0.05,0.13,0,0.18c0.05,0.05,0.13,0.05,0.18,0l0.96-0.96
		c0.05-0.05,0.05-0.13,0-0.18c0,0,0,0,0,0L14.65,17.73z"/>
</g>
</svg>
