<svg id="Icons" xmlns="http://www.w3.org/2000/svg" viewBox="0 0 36 36"><title>Icon-Red_Hat-Objects-Pricetag-A-Black-RGB</title><path d="M31.6,21.9,21,11.29a.75.75,0,0,0-.53-.22H16.23a.79.79,0,0,0-.54.22l-4.24,4.24a.75.75,0,0,0-.22.53v4.25a.75.75,0,0,0,.22.53l10.61,10.6a.75.75,0,0,0,1.06,0L31.6,23a.75.75,0,0,0,0-1.06Zm-9,8L12.73,20V16.37l3.81-3.8h3.62L30,22.43Z"/><path d="M16.76,15.53a.77.77,0,0,0-1.06,0,.81.81,0,0,0-.17.24.93.93,0,0,0,0,.29.87.87,0,0,0,0,.28.74.74,0,0,0,.17.25.78.78,0,0,0,.24.16.71.71,0,0,0,.28.06.72.72,0,0,0,.29-.06,1,1,0,0,0,.25-.16.82.82,0,0,0,.16-.25.67.67,0,0,0,.06-.28.72.72,0,0,0-.06-.29A.78.78,0,0,0,16.76,15.53Z"/><path d="M12.51,12.35a.74.74,0,0,0,0-1.06l-.35-.35a2.25,2.25,0,0,0-3.18,0L7.56,12.35a.77.77,0,0,1-1.06,0,.75.75,0,0,1,0-1.06L10,7.75a2.25,2.25,0,0,0,0-3.18,2.3,2.3,0,0,0-3.18,0L5.79,5.63A.75.75,0,0,0,6.86,6.69L7.92,5.63A.77.77,0,0,1,9,5.63.75.75,0,0,1,9,6.69L5.44,10.23A2.25,2.25,0,0,0,7,14.07a2.22,2.22,0,0,0,1.59-.66L10,12a.75.75,0,0,1,1.06,0l.35.35A.75.75,0,0,0,12.51,12.35Z"/></svg>