<?xml version="1.0" encoding="utf-8"?>
<!-- Generator: Adobe Illustrator 24.2.1, SVG Export Plug-In . SVG Version: 6.00 Build 0)  -->
<svg version="1.1" id="Layer_1" xmlns="http://www.w3.org/2000/svg" xmlns:xlink="http://www.w3.org/1999/xlink" x="0px" y="0px"
	 viewBox="0 0 36 36" style="enable-background:new 0 0 36 36;" xml:space="preserve">
<path d="M29.749,24.419l-3.312-3.205c0.764-0.946,1.225-2.147,1.225-3.455c0-2.003-1.079-3.755-2.683-4.719V7
	c0-0.414-0.336-0.75-0.75-0.75H12.394c-0.034,0-0.337,0.027-0.53,0.22l-4,4c-0.195,0.195-0.22,0.495-0.22,0.53v18
	c0,0.414,0.336,0.75,0.75,0.75h15.835c0.414,0,0.75-0.336,0.75-0.75v-6.522c0.124-0.075,0.246-0.153,0.363-0.236l3.365,3.256
	c0.146,0.141,0.334,0.211,0.521,0.211c0.529,0,0.75-0.463,0.75-0.75C29.978,24.763,29.901,24.567,29.749,24.419z M11.644,8.81v1.439
	h-1.439L11.644,8.81z M23.479,28.25H9.144v-16.5h3.25c0.414,0,0.75-0.336,0.75-0.75V7.75h10.335v4.668
	c-0.426-0.106-0.868-0.168-1.326-0.168c-3.037,0-5.509,2.472-5.509,5.509s2.472,5.509,5.509,5.509c0.458,0,0.901-0.062,1.326-0.168
	V28.25z M22.152,21.767c-2.211,0-4.009-1.798-4.009-4.009s1.798-4.009,4.009-4.009c2.208,0,4.009,1.794,4.009,4.011
	C26.161,19.559,24.651,21.767,22.152,21.767z"/>
</svg>
