<svg id="Icon" xmlns="http://www.w3.org/2000/svg" viewBox="0 0 36 36"><title>Icon-Red_Hat-People_and_Audiences-SysAdmin-A-Black</title><path d="M14,14.75a2.75,2.75,0,0,0,2.63-2h2.62V14a.75.75,0,0,0,1.5,0V12.75h.5V14a.75.75,0,0,0,1.5,0V12.75h.5V13a.75.75,0,0,0,1.5,0V12a.76.76,0,0,0-.75-.75H16.63A2.74,2.74,0,1,0,14,14.75Zm0-4A1.25,1.25,0,1,1,12.75,12,1.25,1.25,0,0,1,14,10.75ZM7,23h4a.75.75,0,1,0,0-1.5H7A.75.75,0,0,0,7,23Zm22-1a.74.74,0,0,0,.53-.23.73.73,0,0,0,.22-.52A.72.72,0,0,0,29.7,21a.82.82,0,0,0-.16-.25.79.79,0,0,0-1.06,0,.85.85,0,0,0-.17.25.71.71,0,0,0,0,.29.69.69,0,0,0,.22.52A.72.72,0,0,0,29,22Zm3-4.51H4a.76.76,0,0,0-.75.75v7A.75.75,0,0,0,4,26H32a.75.75,0,0,0,.75-.75v-7A.76.76,0,0,0,32,17.51Zm-.75,7H4.75V19h26.5Z"/></svg>