<svg id="ae020a70-7f64-493c-aaf8-4220e5eb1d53" data-name="Layer 1" xmlns="http://www.w3.org/2000/svg" width="36" height="36" viewBox="0 0 36 36"><title>Icon-Red_Hat-</title><path d="M14.42,5.65a5.79,5.79,0,0,1,5.78,5.78.75.75,0,0,0,1.5,0,7.29,7.29,0,0,0-7.28-7.28.75.75,0,0,0,0,1.5ZM28.9,25.8l-5.17-5.17a.75.75,0,0,0-1.06,0l-2.43,2.42-5.58-5.58L17.08,15a.75.75,0,0,0,0-1.06L11.91,8.81a.75.75,0,0,0-1.06,0L8.63,11a6,6,0,0,0,0,8.45l9.6,9.6a6,6,0,0,0,8.45,0l2.22-2.22a.75.75,0,0,0,0-1.06ZM25.62,28a4.49,4.49,0,0,1-6.33,0l-9.6-9.6a4.48,4.48,0,0,1,0-6.33l1.69-1.68,4.11,4.1-2.43,2.43a.75.75,0,0,0,0,1.06l6.65,6.65a.75.75,0,0,0,1.06,0l2.43-2.43,4.1,4.11Zm-11.2-19a2.39,2.39,0,0,1,2.39,2.38.75.75,0,0,0,1.5,0,3.89,3.89,0,0,0-3.89-3.88.75.75,0,1,0,0,1.5Z"/></svg>