<svg id="Icon" xmlns="http://www.w3.org/2000/svg" viewBox="0 0 36 36"><title>Icon-Red_Hat-People_and_Audiences-CIO_ITDM-A-Black</title><path d="M14,20.74h8a.75.75,0,0,0,0-1.5h-.22l0-5.25a.76.76,0,0,0-.75-.75h0a.76.76,0,0,0-.75.76l0,5.24H18.75V16a.75.75,0,0,0-1.5,0v3.25h-1.5V18a.75.75,0,1,0-1.5,0v1.25H14a.75.75,0,1,0,0,1.5ZM29,8.24H7A.76.76,0,0,0,6.25,9V24a.75.75,0,0,0,.75.75h8.25v1.52H12a.75.75,0,0,0,0,1.5H24a.75.75,0,0,0,0-1.5H20.75V24.74H29a.75.75,0,0,0,.75-.75V9A.76.76,0,0,0,29,8.24Zm-9.75,18h-2.5V24.74h2.5Zm9-3H7.75V9.74h20.5Z"/></svg>