<svg id="e33a3833-a0c2-42a9-91ac-ce2ca30f9c2f" data-name="Layer 1" xmlns="http://www.w3.org/2000/svg" viewBox="0 0 36 36">
  <title>Icon-Red_Hat-Nunchuk-A-Black-RGB</title>
  <g>
    <path d="M6,12.75H17a.751.751,0,0,0,.75-.75V8A.751.751,0,0,0,17,7.25H6A.751.751,0,0,0,5.25,8v4a.751.751,0,0,0,.75.75ZM6.75,10V8.75h9.5v2.5H6.75Z"/>
    <path d="M30.53,23.47a.745.745,0,0,0-.53-.22H19a.751.751,0,0,0-.75.75v4a.751.751,0,0,0,.75.75H30a.751.751,0,0,0,.75-.75V24A.745.745,0,0,0,30.53,23.47ZM29.25,26v1.25h-9.5v-2.5h9.5Z"/>
    <path d="M20.208,18.53a.75.75,0,0,0-.531-1.28h-3.3a.75.75,0,1,0,0,1.5h3.305A.749.749,0,0,0,20.208,18.53Z"/>
    <path d="M7.482,19.945a.748.748,0,0,0-.106-1.055A.749.749,0,0,0,6.321,19,4.745,4.745,0,0,0,5.25,22c0,.113,0,.226.011.337s.02.222.035.331a.75.75,0,0,0,.742.646H6.09l.053-.006a.75.75,0,0,0,.639-.847q-.017-.112-.024-.228c-.006-.076-.008-.154-.008-.232a3.257,3.257,0,0,1,.732-2.055Z"/>
    <path d="M22.233,18a.751.751,0,0,0,.75.75H26c.057,0,.115,0,.172,0s.114,0,.17-.009a.75.75,0,0,0,.438-1.315.74.74,0,0,0-.544-.181l-.118.006-.118,0H22.983a.751.751,0,0,0-.75.75Z"/>
    <path d="M10.892,25.25H10a3.264,3.264,0,0,1-.967-.146,3.211,3.211,0,0,1-.877-.427.75.75,0,0,0-.851,1.235,4.734,4.734,0,0,0,2.7.838h.892a.75.75,0,0,0,0-1.5Z"/>
    <path d="M13.815,18a.749.749,0,0,0-.75-.75H10l-.144,0-.143.007a.75.75,0,0,0,.046,1.5h.046l.1,0h3.163a.749.749,0,0,0,.75-.75Z"/>
    <path d="M28.543,16.023a.749.749,0,0,0,.586,1.217.759.759,0,0,0,.321-.071.748.748,0,0,0,.266-.211A4.763,4.763,0,0,0,30.75,14c0-.124,0-.246-.015-.367s-.023-.242-.041-.361a.749.749,0,0,0-.3-.491.739.739,0,0,0-.556-.136.751.751,0,0,0-.628.855c.013.082.022.164.029.247s.01.168.01.253a3.211,3.211,0,0,1-.707,2.023Z"/>
    <path d="M25.057,10.75H26a3.228,3.228,0,0,1,1.809.55.739.739,0,0,0,.2.1.75.75,0,0,0,.634-1.341A4.729,4.729,0,0,0,26,9.25h-.943a.75.75,0,1,0,0,1.5Z"/>
    <path d="M20,12.75a.751.751,0,0,0,.75-.75V10.75h1a.75.75,0,0,0,0-1.5h-1V8a.75.75,0,0,0-1.5,0v4a.751.751,0,0,0,.75.75Z"/>
    <path d="M16,23.25a.751.751,0,0,0-.75.75v1.25h-1a.75.75,0,0,0,0,1.5h1V28a.75.75,0,0,0,1.5,0V24a.751.751,0,0,0-.75-.75Z"/>
  </g>
</svg>
