<?xml version="1.0" encoding="utf-8"?>
<!-- Generator: Adobe Illustrator 19.1.0, SVG Export Plug-In . SVG Version: 6.00 Build 0)  -->
<svg version="1.1" id="Layer_1" xmlns="http://www.w3.org/2000/svg" xmlns:xlink="http://www.w3.org/1999/xlink" x="0px" y="0px"
	 viewBox="0 0 32 32" enable-background="new 0 0 32 32" xml:space="preserve">
<g>
	<path fill="#010101" d="M21.274,4.599H10.726c-0.656,0-1.19,0.534-1.19,1.19v20.421c0,0.656,0.534,1.19,1.19,1.19h10.547
		c0.656,0,1.19-0.534,1.19-1.19V5.789C22.464,5.133,21.93,4.599,21.274,4.599z M21.872,26.211c0,0.33-0.268,0.598-0.598,0.598
		H10.726c-0.33,0-0.598-0.268-0.598-0.598v-2.674h11.743V26.211z M21.872,23.24H10.128V8.709h11.743V23.24z M21.872,8.412H10.128
		V5.789c0-0.33,0.268-0.598,0.598-0.598h10.547c0.33,0,0.598,0.268,0.598,0.598V8.412z"/>
	<path fill="#010101" d="M15.426,26.216H16.6c0.446,0,0.809-0.363,0.809-0.809V24.83c0-0.446-0.363-0.809-0.809-0.809h-1.174
		c-0.446,0-0.809,0.363-0.809,0.809v0.577C14.617,25.853,14.98,26.216,15.426,26.216z M15.062,24.83
		c0-0.201,0.163-0.364,0.364-0.364H16.6c0.201,0,0.364,0.163,0.364,0.364v0.577c0,0.201-0.163,0.364-0.364,0.364h-1.174
		c-0.201,0-0.364-0.163-0.364-0.364V24.83z"/>
	<path fill="#010101" d="M17.008,6.538h-1.992c-0.123,0-0.222,0.1-0.222,0.222c0,0.123,0.1,0.222,0.222,0.222h1.992
		c0.123,0,0.222-0.1,0.222-0.222C17.23,6.637,17.131,6.538,17.008,6.538z"/>
	<path fill="#010101" d="M15.424,14.852c0.028,0,0.057-0.008,0.082-0.025l4.547-3.014c0.068-0.045,0.087-0.137,0.042-0.205
		c-0.046-0.069-0.138-0.087-0.205-0.042l-4.547,3.014c-0.068,0.045-0.087,0.137-0.042,0.205
		C15.33,14.829,15.377,14.852,15.424,14.852z"/>
	<path fill="#010101" d="M14.071,16.972c0.028,0,0.057-0.008,0.082-0.025l3.601-2.401c0.068-0.045,0.087-0.137,0.041-0.205
		c-0.046-0.068-0.138-0.086-0.205-0.041l-3.601,2.401c-0.068,0.045-0.087,0.137-0.041,0.205
		C13.976,16.949,14.023,16.972,14.071,16.972z"/>
	<circle fill="#010101" cx="13.943" cy="6.805" r="0.307"/>
</g>
</svg>
