<?xml version="1.0" encoding="utf-8"?>
<!-- Generator: Adobe Illustrator 19.1.0, SVG Export Plug-In . SVG Version: 6.00 Build 0)  -->
<svg version="1.1" id="Layer_1" xmlns="http://www.w3.org/2000/svg" xmlns:xlink="http://www.w3.org/1999/xlink" x="0px" y="0px"
	 viewBox="0 0 32 32" enable-background="new 0 0 32 32" xml:space="preserve">
<g>
	<path fill="#010101" d="M15.772,18.447c0.056,0.068,0.14,0.107,0.228,0.107s0.171-0.039,0.228-0.107l5.004-6.01
		c0.162-0.195,0.187-0.464,0.063-0.686c-0.124-0.221-0.367-0.341-0.618-0.303l-2.048,0.303V4.877c0-0.164-0.133-0.296-0.296-0.296
		h-4.665c-0.164,0-0.296,0.133-0.296,0.296v6.875l-2.048-0.303c-0.252-0.037-0.494,0.082-0.618,0.303
		c-0.124,0.221-0.1,0.491,0.063,0.686L15.772,18.447z M13.624,12.388c0.086,0.013,0.172-0.012,0.237-0.069
		c0.065-0.056,0.103-0.138,0.103-0.224V5.173h4.072v6.922c0,0.086,0.038,0.168,0.103,0.224c0.065,0.057,0.152,0.081,0.237,0.069
		l2.401-0.329l-4.776,5.735l-4.764-5.759L13.624,12.388z"/>
	<path fill="#010101" d="M25.688,21.224l-3.04-1.527c-0.031-0.016-0.065-0.024-0.1-0.024H9.958c-0.03,0-0.06,0.006-0.088,0.018
		l-3.546,1.527c-0.081,0.035-0.134,0.115-0.134,0.204v0.167v5.608c0,0.123,0.1,0.222,0.222,0.222h19.176
		c0.123,0,0.222-0.1,0.222-0.222v-5.608v-0.167C25.81,21.339,25.763,21.262,25.688,21.224z M10.004,20.118h12.492l2.487,1.249H7.103
		L10.004,20.118z M25.366,26.975H6.634v-5.163h18.732V26.975z"/>
	<path fill="#010101" d="M21.153,25.742h1.02c0.082,0,0.148-0.066,0.148-0.148V22.95c0-0.082-0.066-0.148-0.148-0.148h-1.02
		c-0.082,0-0.148,0.066-0.148,0.148v2.644C21.005,25.676,21.071,25.742,21.153,25.742z M21.301,23.098h0.724v2.348h-0.724V23.098z"
		/>
	<path fill="#010101" d="M23.152,25.742h1.02c0.082,0,0.148-0.066,0.148-0.148V22.95c0-0.082-0.066-0.148-0.148-0.148h-1.02
		c-0.082,0-0.148,0.066-0.148,0.148v2.644C23.004,25.676,23.07,25.742,23.152,25.742z M23.3,23.098h0.724v2.348H23.3V23.098z"/>
	<circle fill="#010101" cx="8.431" cy="24.366" r="0.479"/>
	<circle fill="#010101" cx="10.05" cy="24.366" r="0.479"/>
</g>
</svg>
