<svg id="b155cd62-ab5d-4e13-b290-149dfe59a8fe" data-name="Layer 1" xmlns="http://www.w3.org/2000/svg" viewBox="0 0 36 36">
  <title>Icon-Red_Hat-Sword-A-Black-RGB</title>
  <g>
    <path d="M11.679,25.382l-1.061-1.061a.751.751,0,0,0-1.06,0L7.967,25.912,6.376,27.5a2.238,2.238,0,0,0-.66,1.591,2.236,2.236,0,0,0,.659,1.592,2.252,2.252,0,0,0,3.182,0l1.591-1.591L12.739,27.5a.75.75,0,0,0,0-1.061ZM9.823,28.3,8.5,29.625a.75.75,0,1,1-1.061-1.061l1.326-1.326,1.326-1.326.53.53.53.531Z"/>
    <path d="M13.093,23.968l-2.475-2.475a.75.75,0,1,0-1.06,1.06l2.475,2.475L14.508,27.5a.728.728,0,0,0,.248.165.75.75,0,0,0,.564,0,.718.718,0,0,0,.248-.165.748.748,0,0,0,0-1.06Z"/>
    <path d="M29.922,7.774,29.569,5.3a.75.75,0,0,0-.927-.621.745.745,0,0,0-.357.209L20.33,13.2,12.375,21.5a.749.749,0,0,0,.011,1.049l1.061,1.061,1.061,1.061a.748.748,0,0,0,.248.165.749.749,0,0,0,.556,0,.75.75,0,0,0,.243-.155L22.8,17.793,30.05,10.9a.757.757,0,0,0,.192-.3.748.748,0,0,0,.034-.352Zm-8.028,8.814L15.051,23.1l-.543-.543-.543-.543,7.169-7.487L28.3,7.038l.217,1.52.217,1.521Z"/>
  </g>
</svg>
