<svg id="Layer_1" data-name="Layer 1" xmlns="http://www.w3.org/2000/svg" viewBox="0 0 36 36"><title>Icon-Red_Hat-Software_and_technologies-App-A-Black-RGB</title><path d="M27.5,7.87H8.5a.75.75,0,0,0-.75.75V27.38a.75.75,0,0,0,.75.75h19a.75.75,0,0,0,.75-.75V8.62A.75.75,0,0,0,27.5,7.87Zm-.75,18.76H9.25V9.37h17.5Z"/><path d="M24.21,12.33a.72.72,0,0,0,.29.06.75.75,0,0,0,.75-.75.72.72,0,0,0-.06-.29.78.78,0,0,0-.16-.24.75.75,0,0,0-.82-.16.74.74,0,0,0-.4.4.72.72,0,0,0-.06.29.75.75,0,0,0,.22.53A.78.78,0,0,0,24.21,12.33Z"/><path d="M22.5,12.39A.75.75,0,0,0,23,11.11a.75.75,0,0,0-1.22.24.72.72,0,0,0-.06.29.75.75,0,0,0,.75.75Z"/></svg>