<svg id="Layer_1" data-name="Layer 1" xmlns="http://www.w3.org/2000/svg" viewBox="0 0 36 36"><title>Icon-Red_Hat-People_and_audiences-Hand_Open-A-Black-RGB</title><path d="M25.88,14.88a2.51,2.51,0,0,0-2.15,1.2l-1.56,2.33,0-9a2.49,2.49,0,0,0-.74-1.81,2.55,2.55,0,0,0-3-.46,2.27,2.27,0,0,0-.56-.91,2.35,2.35,0,0,0-1.68-.7h0a2.32,2.32,0,0,0-1.67.69,2.22,2.22,0,0,0-.58.93,2.36,2.36,0,0,0-1-.24h0a2.38,2.38,0,0,0-2.38,2.37v.76a2.35,2.35,0,0,0-.74-.13,2.13,2.13,0,0,0-1.57.64,2.19,2.19,0,0,0-.65,1.56v3.63a.49.49,0,0,0,0,.12l0,5.17a9.24,9.24,0,0,0,8.69,9.37h.45a9.2,9.2,0,0,0,7.75-4.27,8.15,8.15,0,0,0,1-2.39,11.33,11.33,0,0,1,1.56-3.58L28,18.81l.06-.12a2.54,2.54,0,0,0-2.2-3.81Zm.88,3.1,0,.06-.89,1.32a12.74,12.74,0,0,0-1.77,4.05,6.55,6.55,0,0,1-.86,2,7.65,7.65,0,0,1-14.12-4.3v-5s0-.08,0-.11V12.15a.71.71,0,0,1,.21-.5.67.67,0,0,1,.5-.21h0a.71.71,0,0,1,.71.71v3.61a.45.45,0,0,0,0,.11l0,.15a.75.75,0,0,0,1.49-.11V14.62a.41.41,0,0,0,0-.11l0-5.19A.88.88,0,0,1,13,8.44h0a.88.88,0,0,1,.87.89l0,6.44a.75.75,0,0,0,.74.75h0a.75.75,0,0,0,.75-.73l0-2.12a.41.41,0,0,0,0-.11l0-5.64a.88.88,0,0,1,.25-.61.9.9,0,0,1,.62-.25h0a.89.89,0,0,1,.87.87l0,3.64a1,1,0,0,0,0,.24v3a.78.78,0,0,0,.75.75.74.74,0,0,0,.75-.75l0-5.39a1.05,1.05,0,0,1,1.8-.73,1,1,0,0,1,.3.74l-.07,11.26a.76.76,0,0,0,.54.73l.11,0a.75.75,0,0,0,.84-.3L25,16.88a1,1,0,0,1,1.92.54A1,1,0,0,1,26.76,18Z"/></svg>