<?xml version="1.0" encoding="utf-8"?>
<!-- Generator: Adobe Illustrator 24.2.1, SVG Export Plug-In . SVG Version: 6.00 Build 0)  -->
<svg version="1.1" id="a07c088c-7aa8-49e9-8600-98dede413345"
	 xmlns="http://www.w3.org/2000/svg" xmlns:xlink="http://www.w3.org/1999/xlink" x="0px" y="0px" viewBox="0 0 36 36"
	 style="enable-background:new 0 0 36 36;" xml:space="preserve">
<path d="M6,15.75h6c0.414,0,0.75-0.336,0.75-0.75V9c0-0.414-0.336-0.75-0.75-0.75H6C5.586,8.25,5.25,8.586,5.25,9v6
	C5.25,15.414,5.586,15.75,6,15.75z M6.75,9.75h4.5v4.5h-4.5V9.75z M24,15.75h6c0.414,0,0.75-0.336,0.75-0.75V9
	c0-0.414-0.336-0.75-0.75-0.75h-6c-0.414,0-0.75,0.336-0.75,0.75v6C23.25,15.414,23.586,15.75,24,15.75z M24.75,9.75h4.5v4.5h-4.5
	V9.75z M15,12.75h6c0.414,0,0.75-0.336,0.75-0.75V6c0-0.414-0.336-0.75-0.75-0.75h-6c-0.414,0-0.75,0.336-0.75,0.75v6
	C14.25,12.414,14.586,12.75,15,12.75z M15.75,6.75h4.5v4.5h-4.5V6.75z M29.458,24.809h-0.036c0.806-0.688,1.328-1.698,1.328-2.84
	c0-2.071-1.679-3.75-3.75-3.75s-3.75,1.679-3.75,3.75c0,1.148,0.527,2.163,1.339,2.85h-0.032c-0.363,0.168-0.707,0.372-1.028,0.61
	c-0.456-1.591-1.573-2.909-3.068-3.62h-0.036c0.804-0.688,1.324-1.697,1.324-2.837c0-2.071-1.679-3.75-3.75-3.75
	s-3.75,1.679-3.75,3.75c0,1.141,0.52,2.15,1.324,2.837h-0.028c-1.495,0.711-2.612,2.029-3.068,3.62
	c-0.316-0.241-0.657-0.449-1.016-0.62h-0.036c0.804-0.688,1.324-1.697,1.324-2.837c0-2.071-1.679-3.75-3.75-3.75
	s-3.75,1.679-3.75,3.75c0,1.141,0.52,2.15,1.324,2.837H6.546C4.537,25.758,3.254,27.778,3.25,30c0,0.414,0.336,0.75,0.75,0.75h28
	c0.414,0,0.75-0.336,0.75-0.75C32.747,27.779,31.465,25.759,29.458,24.809z M27,19.719c1.243,0,2.25,1.007,2.25,2.25
	s-1.007,2.25-2.25,2.25s-2.25-1.007-2.25-2.25C24.752,20.727,25.758,19.72,27,19.719z M18,16.722c1.243,0,2.25,1.007,2.25,2.25
	s-1.007,2.25-2.25,2.25s-2.25-1.007-2.25-2.25C15.752,17.73,16.758,16.723,18,16.722z M9,19.722c1.243,0,2.25,1.007,2.25,2.25
	s-1.007,2.25-2.25,2.25s-2.25-1.007-2.25-2.25C6.752,20.73,7.758,19.723,9,19.722z M4.826,29.25
	c0.408-2.305,2.608-3.843,4.914-3.435c1.752,0.31,3.124,1.682,3.435,3.435H4.826z M21.305,29.25h-6.61
	c-0.113-0.879-0.43-1.72-0.924-2.456c0.102-2.336,2.077-4.147,4.413-4.045c2.193,0.095,3.95,1.852,4.045,4.045
	C21.735,27.53,21.418,28.371,21.305,29.25z M22.826,29.25c0.408-2.305,2.608-3.843,4.914-3.435c1.752,0.31,3.124,1.682,3.435,3.435
	H22.826z"/>
</svg>
