<svg id="Icons" xmlns="http://www.w3.org/2000/svg" viewBox="0 0 36 36"><title>Icon-Red_Hat-Buildings-Government_A-A-Black-RGB</title><path d="M28.72,14.22a.76.76,0,0,0-.34-.85l-10-6a.76.76,0,0,0-.77,0l-10,6A.76.76,0,0,0,8,14.77H28A.75.75,0,0,0,28.72,14.22Zm-18-1L18,8.89l7.29,4.38Z"/><path d="M27,15.27H9a.75.75,0,0,0,0,1.5H27a.75.75,0,0,0,0-1.5Z"/><path d="M8.25,27a.75.75,0,0,0,.75.75H27a.75.75,0,0,0,0-1.5H9A.74.74,0,0,0,8.25,27Z"/><path d="M29,28.27H7a.75.75,0,1,0,0,1.5H29a.75.75,0,0,0,0-1.5Z"/><path d="M10.75,25V18a.75.75,0,0,0-1.5,0v7a.75.75,0,0,0,1.5,0Z"/><path d="M18.75,25V18a.75.75,0,1,0-1.5,0v7a.75.75,0,0,0,1.5,0Z"/><path d="M22.75,25V18a.75.75,0,1,0-1.5,0v7a.75.75,0,0,0,1.5,0Z"/><path d="M14.75,25V18a.75.75,0,1,0-1.5,0v7a.75.75,0,0,0,1.5,0Z"/><path d="M26.75,25V18a.75.75,0,1,0-1.5,0v7a.75.75,0,0,0,1.5,0Z"/></svg>