<?xml version="1.0" encoding="utf-8"?>
<!-- Generator: Adobe Illustrator 21.1.0, SVG Export Plug-In . SVG Version: 6.00 Build 0)  -->
<svg version="1.1" id="Layer_1" xmlns="http://www.w3.org/2000/svg" xmlns:xlink="http://www.w3.org/1999/xlink" x="0px" y="0px"
	 viewBox="0 0 31.7 31.7" style="enable-background:new 0 0 31.7 31.7;" xml:space="preserve">
<g>
	<g>
		<g>
			<path d="M15.8,11.7c-0.5,0-1-0.2-1.4-0.6c-0.4-0.4-0.6-0.9-0.6-1.4c0-0.5,0.2-1,0.6-1.4c0.4-0.4,0.9-0.6,1.4-0.6
				c0.5,0,1,0.2,1.4,0.6c0.4,0.4,0.6,0.9,0.6,1.4c0,0.5-0.2,1-0.6,1.4C16.8,11.5,16.4,11.7,15.8,11.7z M15.8,8.4
				c-0.4,0-0.7,0.1-1,0.4c-0.3,0.3-0.4,0.6-0.4,1c0,0.4,0.1,0.7,0.4,1c0.6,0.6,1.4,0.6,2,0c0.3-0.3,0.4-0.6,0.4-1
				c0-0.4-0.1-0.7-0.4-1C16.5,8.5,16.2,8.4,15.8,8.4z"/>
			<path d="M17.6,23.9h-3.6V12.1h3.6V23.9z M14.7,23.3H17V12.7h-2.4V23.3z"/>
			<path d="M15.8,4.5C9.6,4.5,4.5,9.6,4.5,15.8c0,6.2,5.1,11.3,11.3,11.3c6.2,0,11.3-5.1,11.3-11.3C27.2,9.6,22.1,4.5,15.8,4.5z
				 M15.8,26.5c-5.9,0-10.7-4.8-10.7-10.7c0-5.9,4.8-10.7,10.7-10.7c5.9,0,10.7,4.8,10.7,10.7C26.5,21.7,21.7,26.5,15.8,26.5z"/>
		</g>
	</g>
</g>
</svg>
