<svg id="Icon" xmlns="http://www.w3.org/2000/svg" viewBox="0 0 36 36"><path d="M17.47,21a.78.78,0,0,0,.24.16.73.73,0,0,0,.58,0,.78.78,0,0,0,.24-.16l4-4A.75.75,0,1,0,21.47,16l-2.72,2.72V8.5a.75.75,0,0,0-1.5,0V18.69L14.53,16A.75.75,0,1,0,13.47,17Z"/><path d="M7,23.75a.75.75,0,0,0,0,1.5H9.67a.75.75,0,1,0,0-1.5Z"/><path d="M32,19.75H22a.75.75,0,0,0,0,1.5h9.25v5.5H4.75v-5.5H14a.75.75,0,0,0,0-1.5H4a.76.76,0,0,0-.75.75v7a.76.76,0,0,0,.75.75H32a.76.76,0,0,0,.75-.75v-7A.76.76,0,0,0,32,19.75Z"/><circle cx="29" cy="23.5" r="0.75"/></svg>