<svg id="ab4af12f-139d-415d-85fc-40502daa706a" data-name="belt" xmlns="http://www.w3.org/2000/svg" viewBox="0 0 36 36"><title>Icon-Red_Hat-</title><path d="M32,12.3H21.62v-.13a.75.75,0,0,0-.75-.75H16.69a.75.75,0,0,0-.75.75v.08L15,11.56a.76.76,0,0,0-1.05.17l-.41.57H4a.75.75,0,0,0-.75.75v4.5A.76.76,0,0,0,4,18.3h6.33L7.77,20.19a.74.74,0,0,0-.16,1l2.64,3.64a.77.77,0,0,0,.49.3h.12A.78.78,0,0,0,11.3,25l6-4.42,9.39,6.82a.72.72,0,0,0,.44.14.74.74,0,0,0,.61-.31l2.64-3.64a.74.74,0,0,0-.17-1l-5.9-4.29H32a.76.76,0,0,0,.75-.75v-4.5A.75.75,0,0,0,32,12.3Zm-17.28.91,1.22.89v3.71l-3-2.17Zm-10,3.59v-3h7.7l-1.14,1.57a.73.73,0,0,0,.16,1l.53.39ZM11,23.38,9.26,21l4.19-3.11L16,19.69h0Zm6.42-4.66v-5.8h2.68v4.55a1.25,1.25,0,0,1-1.25,1.25Zm11.25,4.64-1.77,2.43-7.7-5.6a2.75,2.75,0,0,0,2.3-2l1.41,1Zm2.56-6.56h-9l-.59-.43V13.8h9.63Z"/></svg>
