<svg id="b7e96f34-d2b0-4e1c-aff2-eff01533c0e1" data-name="Layer 1" xmlns="http://www.w3.org/2000/svg" width="36" height="36" viewBox="0 0 36 36"><title>Icon-Red_Hat-Hardware-Virtual_Server_Stack_Unsecured-A-Black-RGB</title><path d="M9.45,17.25h3a.75.75,0,0,0,0-1.5h-3a.75.75,0,0,0,0,1.5ZM27.75,6A.76.76,0,0,0,27,5.25H7A.76.76,0,0,0,6.25,6v5a.76.76,0,0,0,.75.75H27a.76.76,0,0,0,.75-.75Zm-1.5,4.25H7.75V6.75h18.5Zm.75,3H7a.76.76,0,0,0-.75.75v5a.76.76,0,0,0,.75.75H27a.76.76,0,0,0,.75-.75V14A.76.76,0,0,0,27,13.25Zm-.75,5H7.75v-3.5h18.5ZM24,17.19a.72.72,0,0,0,.29.06.77.77,0,0,0,.53-.22.74.74,0,0,0,.16-.82,1,1,0,0,0-.16-.24.76.76,0,0,0-.82-.16.67.67,0,0,0-.24.16.81.81,0,0,0-.17.24.73.73,0,0,0,.17.82A.56.56,0,0,0,24,17.19ZM19.6,3.75A.75.75,0,1,0,18.85,3,.75.75,0,0,0,19.6,3.75Zm-5.2,0A.75.75,0,1,0,13.65,3,.75.75,0,0,0,14.4,3.75Zm2.6,0A.75.75,0,1,0,16.25,3,.75.75,0,0,0,17,3.75Zm5.2,0A.75.75,0,1,0,21.45,3,.75.75,0,0,0,22.2,3.75Zm2.6,0A.75.75,0,1,0,24.05,3,.75.75,0,0,0,24.8,3.75Zm-13,0A.75.75,0,1,0,11.05,3,.75.75,0,0,0,11.8,3.75ZM30,6.37a.75.75,0,1,0-.75-.74A.75.75,0,0,0,30,6.37Zm0,10.51a.76.76,0,1,0-.75-.76A.76.76,0,0,0,30,16.88Zm0-5.25a.76.76,0,1,0-.75-.75A.76.76,0,0,0,30,11.63Zm0,2.62a.75.75,0,1,0-.75-.75A.76.76,0,0,0,30,14.25ZM30,9a.75.75,0,1,0-.75-.75A.76.76,0,0,0,30,9ZM9.45,9.25h3a.75.75,0,0,0,0-1.5h-3a.75.75,0,0,0,0,1.5ZM9.2,3.75A.75.75,0,1,0,8.45,3,.75.75,0,0,0,9.2,3.75Zm20.51-.06a.73.73,0,0,0,.58,0,.78.78,0,0,0,.24-.16.75.75,0,0,0-.82-1.22.78.78,0,0,0-.24.16.75.75,0,0,0,0,1.06A.78.78,0,0,0,29.71,3.69ZM24,9.19a.72.72,0,0,0,.29.06A.77.77,0,0,0,24.83,9,.75.75,0,0,0,24,7.81a.67.67,0,0,0-.24.16.73.73,0,0,0,0,1.06A.67.67,0,0,0,24,9.19ZM30,19.5a.75.75,0,1,0-.75-.75A.76.76,0,0,0,30,19.5ZM27.4,3.75A.75.75,0,1,0,26.65,3,.75.75,0,0,0,27.4,3.75Zm2.31,20.94a.75.75,0,0,0,.29.06.72.72,0,0,0,.29-.06.78.78,0,0,0,.24-.16.75.75,0,0,0,0-1.06.78.78,0,0,0-.24-.16.75.75,0,0,0-.82,1.22A.78.78,0,0,0,29.71,24.69ZM30,22.12a.75.75,0,1,0-.75-.75A.75.75,0,0,0,30,22.12ZM4,14.52a.75.75,0,1,0,.75.75A.76.76,0,0,0,4,14.52ZM23.71,29.31a.78.78,0,0,0-.24.16A.75.75,0,0,0,24,30.75a.72.72,0,0,0,.29-.06.63.63,0,0,0,.24-.16.75.75,0,0,0-.82-1.22Zm-7.21-.06a.75.75,0,0,0,0,1.5.75.75,0,0,0,0-1.5Zm5,0a.75.75,0,1,0,.75.75A.75.75,0,0,0,21.5,29.25Zm-2.5,0a.75.75,0,1,0,.75.75A.75.75,0,0,0,19,29.25Zm-5,0a.75.75,0,1,0,.75.75A.75.75,0,0,0,14,29.25Zm-5,0a.75.75,0,0,0,0,1.5.75.75,0,0,0,0-1.5Zm2.5,0a.75.75,0,0,0,0,1.5.75.75,0,0,0,0-1.5Zm14.77,1.38A3.75,3.75,0,0,0,30,34.38a3.49,3.49,0,0,0,1.08-.18l-4.83-4.84ZM24,26.25H7.75v-3.5h18.5V24a.75.75,0,0,0,1.5,0V22a.76.76,0,0,0-.75-.75H7a.76.76,0,0,0-.75.75v5a.76.76,0,0,0,.75.75H24a.75.75,0,0,0,0-1.5Zm10.25,6.84-.86-.86a3.73,3.73,0,0,0,.38-1.6v-3a.75.75,0,0,0-.52-.71l-3-1a.76.76,0,0,0-.47,0l-2,.67L27,25.84a.75.75,0,0,0-1.06,0,.74.74,0,0,0,0,1.06l6.53,6.54h0l.72.71a.73.73,0,0,0,.53.22.74.74,0,0,0,.53-.22A.75.75,0,0,0,34.25,33.09ZM9.45,23.75a.75.75,0,0,0,0,1.5h3a.75.75,0,1,0,0-1.5ZM24,23.81a.67.67,0,0,0-.24.16.76.76,0,0,0-.23.53.72.72,0,0,0,.06.29.66.66,0,0,0,.17.24.56.56,0,0,0,.24.16.72.72,0,0,0,.29.06.75.75,0,0,0,.53-.22.78.78,0,0,0,.16-.24.72.72,0,0,0,.06-.29.75.75,0,0,0-1-.69ZM4,24.34a.75.75,0,1,0,.75.75A.76.76,0,0,0,4,24.34ZM4,17a.75.75,0,1,0,.75.75A.75.75,0,0,0,4,17Zm0,4.91a.75.75,0,1,0,.75.75A.75.75,0,0,0,4,21.89Zm0-2.46a.75.75,0,1,0,.75.75A.76.76,0,0,0,4,19.43ZM6.6,3.75A.75.75,0,1,0,5.85,3,.75.75,0,0,0,6.6,3.75ZM4,26.8a.75.75,0,1,0,.75.75A.75.75,0,0,0,4,26.8Zm.53,2.67a.78.78,0,0,0-.24-.16.75.75,0,0,0-.82.16.78.78,0,0,0-.16.24.75.75,0,1,0,1.38,0A.78.78,0,0,0,4.53,29.47ZM4,7.16a.75.75,0,1,0,.75.75A.76.76,0,0,0,4,7.16ZM3.71,2.31a.78.78,0,0,0-.24.16.74.74,0,0,0-.16.82.78.78,0,0,0,.16.24.74.74,0,0,0,.82.16.63.63,0,0,0,.24-.16.78.78,0,0,0,.16-.24.75.75,0,0,0-1-1ZM4,12.07a.75.75,0,1,0,.75.75A.75.75,0,0,0,4,12.07ZM4,4.71a.75.75,0,0,0-.75.74.75.75,0,1,0,1.5,0A.75.75,0,0,0,4,4.71Zm0,4.9a.75.75,0,1,0,.75.75A.76.76,0,0,0,4,9.61ZM6.5,29.25a.75.75,0,1,0,.75.75A.75.75,0,0,0,6.5,29.25Z"/></svg>