<svg id="Icons" xmlns="http://www.w3.org/2000/svg" viewBox="0 0 36 36"><title>Icon-Red_Hat-Software_and_technologies-Gateway-A-Black-RGB</title><path d="M30,5.23H6A.76.76,0,0,0,5.25,6V30a.75.75,0,0,0,.75.75H30a.75.75,0,0,0,.75-.75V6A.76.76,0,0,0,30,5.23Zm-.75,24H6.75V6.73h22.5Z"/><path d="M20.2,16.53a.74.74,0,0,0,.53-.22l3.72-3.72v.59a.75.75,0,0,0,1.5,0V10.76a.58.58,0,0,0-.05-.26h0a1.1,1.1,0,0,0-.14-.21l-.06,0a.91.91,0,0,0-.16-.11l-.07,0A.76.76,0,0,0,25.2,10H22.8a.75.75,0,0,0,0,1.5h.59l-3.72,3.72a.75.75,0,0,0,0,1.06A.74.74,0,0,0,20.2,16.53Z"/><path d="M15.27,19.65l-3.72,3.72v-.59a.75.75,0,0,0-1.5,0v2.4a.81.81,0,0,0,0,.27l0,.07a.7.7,0,0,0,.1.16l0,.05a.6.6,0,0,0,.21.14h0a.74.74,0,0,0,.29.05h2.4a.75.75,0,0,0,0-1.5h-.59l3.72-3.71a.77.77,0,0,0,0-1.07A.75.75,0,0,0,15.27,19.65Z"/><path d="M20.2,23.33a.75.75,0,0,0,.75-.75V22l4.72,4.72a.77.77,0,0,0,1.06,0,.77.77,0,0,0,0-1.07L22,20.93h.59a.75.75,0,0,0,0-1.5H20.17a.8.8,0,0,0-.26,0h0a.6.6,0,0,0-.21.14l-.05.05a.86.86,0,0,0-.1.16l0,.07a.8.8,0,0,0-.05.26v2.4A.75.75,0,0,0,20.2,23.33Z"/><path d="M14,15H13.4a.75.75,0,0,0,0,1.5h2.4a.75.75,0,0,0,.26-.05l.07,0a.91.91,0,0,0,.16-.11l.06-.05a1.1,1.1,0,0,0,.14-.21h0a.58.58,0,0,0,.05-.26V13.38a.75.75,0,1,0-1.5,0V14L10.33,9.25a.75.75,0,0,0-1.06,1.06Z"/></svg>