<svg id="ecf51863-4842-4737-b849-0fdb6285b37b" data-name="Layer 1" xmlns="http://www.w3.org/2000/svg" viewBox="0 0 36 36">
  <title>Icon-Red_Hat-Progression-A-Black-RGB</title>
  <g>
    <path d="M8.08,11.315H13.5a.751.751,0,0,0,.75-.75V5.144a.751.751,0,0,0-.75-.75H8.08a.751.751,0,0,0-.75.75v5.421a.751.751,0,0,0,.75.75Zm.75-3.461V5.894h3.92V9.815H8.83Z"/>
    <path d="M27.5,26.438a.751.751,0,0,0-.75.75v2.917h-9.5v-9.5h6.583a.75.75,0,0,0,0-1.5H16.5a.751.751,0,0,0-.75.75v11a.749.749,0,0,0,.75.75h11a.749.749,0,0,0,.75-.75V27.188a.751.751,0,0,0-.75-.75Z"/>
    <path d="M27.5,20.938a.748.748,0,0,0-.53.22l-2.75,2.75L22,26.128l-.386-.386-.917-.917a.75.75,0,1,0-1.06,1.061l.916.916.917.917a.748.748,0,0,0,1.06,0l2.75-2.75,2.75-2.75a.751.751,0,0,0-.53-1.281Z"/>
    <path d="M16.5,8.605h9a2.25,2.25,0,0,1,0,4.5H22.223l.719-.719a.75.75,0,1,0-1.06-1.061l-1,1-1,1a.75.75,0,0,0,0,1.061l1,1,1,1a.755.755,0,0,0,.812.165.75.75,0,0,0,.248-1.226l-.719-.72H25.5a3.75,3.75,0,0,0,0-7.5h-9a.75.75,0,1,0,0,1.5Z"/>
    <path d="M14.03,19.325l-1-1-1-1a.75.75,0,1,0-1.06,1.061l.719.719H10.5a2.25,2.25,0,0,1,0-4.5h7a.75.75,0,0,0,0-1.5h-7a3.75,3.75,0,0,0,0,7.5h1.189l-.719.72a.75.75,0,0,0,0,1.061.748.748,0,0,0,1.06,0l1-1,1-1a.749.749,0,0,0,.162-.244.737.737,0,0,0,0-.573A.749.749,0,0,0,14.03,19.325Z"/>
  </g>
</svg>
