<svg id="ba2e6c47-3268-4625-8159-d55b2a77d3cd" data-name="arrows-simplify" xmlns="http://www.w3.org/2000/svg" viewBox="0 0 24.49 23.51"><defs><style>.e4cf623a-4d9a-44a8-aee9-d19391dc7c87{fill:none;}</style></defs><circle class="e4cf623a-4d9a-44a8-aee9-d19391dc7c87" cx="2.77" cy="11.77" r="1.25"/><circle class="e4cf623a-4d9a-44a8-aee9-d19391dc7c87" cx="6.58" cy="2.77" r="1.25"/><circle class="e4cf623a-4d9a-44a8-aee9-d19391dc7c87" cx="6.58" cy="20.77" r="1.25"/><path d="M30,17.47l-2.35-2.35a.75.75,0,1,0-1.1,1s0,0,0,0l1.07,1.07H25.5c-7.83,0-10.79-3.08-11.87-5.85a2.75,2.75,0,1,0-1.47.33,9.5,9.5,0,0,0,5.24,5.52H11.13a2.75,2.75,0,1,0,0,1.5H17.4a9.5,9.5,0,0,0-5.24,5.52,2.74,2.74,0,1,0,1.47.33c1.08-2.78,4-5.82,11.87-5.85h2.19l-1.07,1.07a.75.75,0,1,0,1.06,1.06L30,18.53A.75.75,0,0,0,30,17.47ZM11.06,9a1.25,1.25,0,1,1,1.25,1.25A1.25,1.25,0,0,1,11.06,9ZM8.5,19.25A1.25,1.25,0,1,1,9.75,18,1.25,1.25,0,0,1,8.5,19.25Zm3.81,9A1.25,1.25,0,1,1,13.56,27,1.25,1.25,0,0,1,12.31,28.25Z" transform="translate(-5.73 -6.23)"/></svg>