<svg id="e5594142-8d81-452a-9e1d-636458a1871f" data-name="Layer 1" xmlns="http://www.w3.org/2000/svg" viewBox="0 0 36 36">
  <title>Icon-Red_Hat-Private_Cloud-A-Black-RGB</title>
  <g>
    <path d="M30.339,18.868a4.66,4.66,0,0,0-2.806-1.563,8.577,8.577,0,0,0-15.754-3.953q-.159-.017-.315-.024c-.1,0-.206-.008-.309-.008a6.629,6.629,0,0,0,0,13.258H26.811a4.661,4.661,0,0,0,3.528-7.71ZM29.046,24.15a3.152,3.152,0,0,1-2.235.928H11.155a5.129,5.129,0,0,1,0-10.258c.14,0,.282.006.429.02s.3.033.454.06a.722.722,0,0,0,.451-.058.763.763,0,0,0,.33-.312A7.077,7.077,0,0,1,26.061,18a.749.749,0,0,0,.75.75,3.162,3.162,0,0,1,2.235,5.4Z"/>
    <path d="M20.474,16.672a2.278,2.278,0,1,0-3.6,1.792L16.5,19.99l-.5,2a.757.757,0,0,0-.006.338.751.751,0,0,0,.734.594h3a.75.75,0,0,0,.727-.932l-.5-2-.381-1.526a2.347,2.347,0,0,0,.244-.2A2.247,2.247,0,0,0,20.474,16.672Z"/>
  </g>
</svg>
