<svg id="facf5725-ef14-4ca7-a34c-3ad54268b110" data-name="Layer 1" xmlns="http://www.w3.org/2000/svg" viewBox="0 0 36 36">
  <title>Icon-Red_Hat-Waveform-A-Black-RGB</title>
  <path d="M28.53,19.97a.745.745,0,0,0-.53-.22H25.463l-.9-1.793-.9-1.792a.748.748,0,0,0-.328-.33.748.748,0,0,0-1.083.541l-.6,3.61-.6,3.61L19.9,15.5l-1.157-8.1a.752.752,0,0,0-.738-.644h0a.751.751,0,0,0-.741.633l-1.212,7.68-1.213,7.68-1.053-4.212-1.053-4.213a.746.746,0,0,0-.283-.418.74.74,0,0,0-.941.038.747.747,0,0,0-.244.438l-.448,2.687-.447,2.687H8a.75.75,0,0,0,0,1.5h3a.751.751,0,0,0,.74-.626l.2-1.222.2-1.222,1.063,4.251,1.062,4.251a.751.751,0,0,0,.761.568.759.759,0,0,0,.467-.191.751.751,0,0,0,.241-.442l1.111-7.037,1.111-7.037,1.147,8.032,1.147,8.031a.75.75,0,0,0,.734.644H21a.751.751,0,0,0,.74-.626l.81-4.863.811-4.863.484.969.484.968A.751.751,0,0,0,25,21.25h3a.75.75,0,0,0,.53-1.28Z"/>
</svg>
