<svg id="Icon" xmlns="http://www.w3.org/2000/svg" viewBox="0 0 36 36"><title>Icon-Red_Hat-Bar_Graph-A-Black-RGB</title><path d="M31,22.26H24.71V11a.75.75,0,0,0-1.5,0V22.26H20.75V15a.75.75,0,0,0-1.5,0v7.26h-2.5V14a.75.75,0,0,0-1.5,0v8.26h-2.5V18a.75.75,0,0,0-1.5,0v4.26H5a.75.75,0,1,0,0,1.5H31a.75.75,0,0,0,0-1.5Z"/><path d="M7,20.75A.76.76,0,0,0,7.71,20V7.75h20.5V20a.75.75,0,0,0,1.5,0V7A.76.76,0,0,0,29,6.25H7A.75.75,0,0,0,6.21,7V20A.75.75,0,0,0,7,20.75Z"/><path d="M29,25.25a.77.77,0,0,0-.76.74l0,2.26H7.71V26a.75.75,0,0,0-1.5,0v3a.75.75,0,0,0,.75.75H29a.75.75,0,0,0,.75-.74l0-3A.76.76,0,0,0,29,25.25Z"/></svg>