<svg id="Icon" xmlns="http://www.w3.org/2000/svg" viewBox="0 0 36 36"><path d="M21.9,19.25,5,19.23H5a.74.74,0,0,0-.75.75l0,12a.75.75,0,0,0,.75.75l16.9,0h0a.75.75,0,0,0,.75-.74l0-12a.75.75,0,0,0-.22-.53A.72.72,0,0,0,21.9,19.25Zm-.77,12-15.4,0,0-10.5,15.4,0Z"/><path d="M9.46,23a.82.82,0,0,0,.25.16.67.67,0,0,0,.28.06.75.75,0,0,0,.53-.22.73.73,0,0,0,.22-.53.75.75,0,0,0-.22-.53.76.76,0,0,0-.81-.17.74.74,0,0,0-.25.17.75.75,0,0,0-.22.53.67.67,0,0,0,.06.28A.82.82,0,0,0,9.46,23Z"/><path d="M8,23.23a.75.75,0,0,0,.75-.75A.77.77,0,0,0,8.52,22a.78.78,0,0,0-1.06,0,.77.77,0,0,0-.22.53.75.75,0,0,0,.22.53A.73.73,0,0,0,8,23.23Z"/><path d="M13,23.24h6.09a.75.75,0,0,0,0-1.5H13a.75.75,0,1,0,0,1.5Z"/><path d="M4.94,14.53h6a.75.75,0,0,0,.75-.75V9.53A.74.74,0,0,0,11.48,9,.79.79,0,0,0,11,8.78h-6a.75.75,0,0,0-.75.75v4.26A.75.75,0,0,0,4.94,14.53Zm.75-4.26h4.5V13H5.69Z"/><path d="M19.46,9h6A.75.75,0,0,0,26,8.8a.71.71,0,0,0,.22-.53V4a.75.75,0,0,0-.75-.75h-6a.76.76,0,0,0-.75.75V8.26A.76.76,0,0,0,19.46,9Zm.76-4.26h4.5V7.52h-4.5Z"/><path d="M32.54,14.93a.79.79,0,0,0-.54-.22H26a.75.75,0,0,0-.75.75v4.26a.75.75,0,0,0,.75.75h6a.75.75,0,0,0,.75-.75V15.46A.74.74,0,0,0,32.54,14.93Zm-1.29,4h-4.5V16.2h4.5Z"/><path d="M8.05,15.24a.71.71,0,0,0-.78.71c0,.18,0,.35,0,.53a12.22,12.22,0,0,0,.08,1.35.75.75,0,0,0,.74.66h.09a.76.76,0,0,0,.66-.84,9.08,9.08,0,0,1-.07-1.17c0-.15,0-.31,0-.46A.74.74,0,0,0,8.05,15.24Z"/><path d="M27.83,21.38a.75.75,0,0,0-1,.24,9.82,9.82,0,0,1-2.93,3,.75.75,0,0,0-.21,1,.74.74,0,0,0,.63.34.71.71,0,0,0,.41-.13,11.45,11.45,0,0,0,3.38-3.48A.74.74,0,0,0,27.83,21.38Z"/><path d="M12.35,8.74a.79.79,0,0,0,.44-.14,9.72,9.72,0,0,1,4.33-1.75.75.75,0,0,0-.21-1.49,11.34,11.34,0,0,0-5,2,.75.75,0,0,0-.17,1A.77.77,0,0,0,12.35,8.74Z"/><path d="M26.25,10.5a9.59,9.59,0,0,1,1.52,2.88.76.76,0,0,0,.71.52.67.67,0,0,0,.24,0,.75.75,0,0,0,.48-.94,11.38,11.38,0,0,0-1.76-3.34.75.75,0,0,0-1.05-.14A.76.76,0,0,0,26.25,10.5Z"/></svg>