<svg id="Icon" xmlns="http://www.w3.org/2000/svg" viewBox="0 0 36 36"><title>Icon-Red_Hat-Dollar_Sign-A-Black-RGB</title><path d="M24.76,19.67c-1.24-1.45-3.08-1.79-4.7-2.1l-.9-.17-.41-.09V8.87a13.49,13.49,0,0,1,2.54.33h0a10.83,10.83,0,0,1,3,1.39.74.74,0,0,0,1-.2.75.75,0,0,0-.2-1,12.37,12.37,0,0,0-3.43-1.61H21.6a13.65,13.65,0,0,0-2.85-.37V6a.75.75,0,0,0-1.5,0V7.4a15,15,0,0,0-2.3.33,5.6,5.6,0,0,0-4.08,3.6A5.2,5.2,0,0,0,12,16.43a6.52,6.52,0,0,0,3.74,1.76l1.53.33V27.1a12.57,12.57,0,0,1-1.87-.27,10.48,10.48,0,0,1-2.91-1.37,11.39,11.39,0,0,1-1.23-1,.75.75,0,1,0-1,1.1,11.37,11.37,0,0,0,1.4,1.11A12,12,0,0,0,15,28.28a14.3,14.3,0,0,0,2.26.32V30a.75.75,0,0,0,1.5,0V28.63a15.37,15.37,0,0,0,2.93-.38,5.64,5.64,0,0,0,4.08-3.6,5.21,5.21,0,0,0-1-5Zm-8.73-3a5.11,5.11,0,0,1-2.94-1.3,3.69,3.69,0,0,1-.79-3.63,4.09,4.09,0,0,1,3-2.61,12.34,12.34,0,0,1,1.92-.28V17Zm8.3,7.46a4.09,4.09,0,0,1-3,2.61,12.81,12.81,0,0,1-2.55.33V18.84l.1,0,.93.19c1.52.28,2.95.55,3.84,1.59a3.69,3.69,0,0,1,.71,3.54Z"/></svg>