<svg id="Icons" xmlns="http://www.w3.org/2000/svg" viewBox="0 0 36 36"><title>Icon-Red_Hat-Signage-Alert-A-Black-RGB</title><path d="M18.65,6.64a.78.78,0,0,0-1.3,0l-12,21a.77.77,0,0,0,0,.75.74.74,0,0,0,.65.37H30a.76.76,0,0,0,.65-.37.77.77,0,0,0,0-.75ZM7.29,27.26,18,8.53,28.71,27.26Z"/><path d="M17.25,15v6a.75.75,0,1,0,1.5,0V15a.75.75,0,1,0-1.5,0Z"/><path d="M18.53,23.49a.81.81,0,0,0-.24-.17.76.76,0,0,0-.82.17.63.63,0,0,0-.16.24.72.72,0,0,0-.06.29.77.77,0,0,0,.22.53.75.75,0,0,0,1.06,0,.77.77,0,0,0,.22-.53.72.72,0,0,0-.06-.29A.78.78,0,0,0,18.53,23.49Z"/></svg>