<svg id="a2c65049-5f67-420d-9fdb-9296d5cabfac" data-name="Layer 1" xmlns="http://www.w3.org/2000/svg" viewBox="0 0 36 36">
  <title>Icon-Red_Hat-Hand_pointing-A-Black-RGB</title>
  <path d="M29.034,14.621a2.432,2.432,0,0,0-1.726-.717l-4.425.008-4.425.007a6.447,6.447,0,0,0,.929-.968A6.322,6.322,0,0,0,20.1,11.8a2.443,2.443,0,0,0-2.2-3.505,2.354,2.354,0,0,0-1.285.382,2.745,2.745,0,0,0-.94,1.057,1.5,1.5,0,0,1-1.339.817,7.286,7.286,0,0,0-2.074.3,7.788,7.788,0,0,0-1.953.893,8.689,8.689,0,0,0-4.052,7.594,8.477,8.477,0,0,0,2.731,5.917A9.1,9.1,0,0,0,15.2,27.708h4.732a.751.751,0,0,0,.734-.6l.859-4.155.858-4.155h.346a.524.524,0,0,0,.057,0c.019,0,.038,0,.056-.006h4.466a2.442,2.442,0,0,0,1.726-4.169Zm-1.06,2.392a.939.939,0,0,1-.666.277H22.729a.552.552,0,0,0-.058,0,.523.523,0,0,0-.057.006h-.843a.752.752,0,0,0-.733.6l-.859,4.155-.858,4.156H15.2a7.606,7.606,0,0,1-5.174-2.029A6.982,6.982,0,0,1,7.753,19.29,7.094,7.094,0,0,1,11.1,13.011a6.353,6.353,0,0,1,1.571-.72,5.77,5.77,0,0,1,1.658-.242,2.994,2.994,0,0,0,2.673-1.63,1.267,1.267,0,0,1,.388-.46.875.875,0,0,1,.5-.166.952.952,0,0,1,.944.892.946.946,0,0,1-.094.465,4.905,4.905,0,0,1-3.462,2.687.616.616,0,0,0-.28.144,1.02,1.02,0,0,0-.206.248.725.725,0,0,0-.095.316.9.9,0,0,0,.032.33.751.751,0,0,0,.725.559h0l5.921-.015,5.922-.015a.943.943,0,0,1,.666,1.609Z"/>
</svg>
