<?xml version="1.0" encoding="utf-8"?>
<!-- Generator: Adobe Illustrator 19.1.0, SVG Export Plug-In . SVG Version: 6.00 Build 0)  -->
<svg version="1.1" id="Layer_1" xmlns="http://www.w3.org/2000/svg" xmlns:xlink="http://www.w3.org/1999/xlink" x="0px" y="0px"
	 viewBox="0 0 32 32" enable-background="new 0 0 32 32" xml:space="preserve">
<g>
	<path fill="#010101" d="M22.555,13.96c-0.166,0-0.33,0.003-0.495,0.005c-2.725-1.822-6.238-2.4-10.167-1.67
		c0,0-0.001,0-0.001,0.001c-0.001,0-0.002,0-0.003,0c-3.288,0.658-7.256,1.25-7.924,1.083c-0.141-0.035-0.284,0.036-0.343,0.167
		c-0.31,0.698,0.185,2.614,0.999,3.867c0.621,0.955,1.354,1.46,2.12,1.46h0.755c0.356,0.918,1.247,1.571,2.289,1.571
		c1.083,0,2.002-0.704,2.329-1.678c0.014,0.002,0.026,0.008,0.041,0.008h9.209c0.014,0,0.027-0.006,0.041-0.008
		c0.327,0.974,1.246,1.678,2.329,1.678c1.082,0,2.002-0.704,2.328-1.678c0.014,0.002,0.026,0.008,0.041,0.008h3.033
		c0.913,0,1.377-0.364,1.377-1.082C30.513,16.806,26.842,13.96,22.555,13.96z M20.951,13.986c-0.776,0.022-1.532,0.054-2.229,0.085
		c-0.999,0.044-1.942,0.086-2.747,0.086c-1.525,0-2.55-0.621-3.391-1.375C15.758,12.294,18.619,12.708,20.951,13.986z M9.787,19.853
		c-1.028,0-1.865-0.837-1.865-1.865s0.837-1.864,1.865-1.864s1.865,0.836,1.865,1.864S10.815,19.853,9.787,19.853z M23.734,19.853
		c-1.028,0-1.865-0.837-1.865-1.865s0.837-1.864,1.865-1.864s1.864,0.836,1.864,1.864S24.762,19.853,23.734,19.853z M29.136,18.183
		h-2.955c0.005-0.064,0.01-0.129,0.01-0.195c0-1.355-1.102-2.457-2.457-2.457c-1.355,0-2.457,1.102-2.457,2.457
		c0,0.066,0.005,0.13,0.01,0.195h-9.052c0.005-0.064,0.01-0.129,0.01-0.195c0-1.355-1.102-2.457-2.457-2.457
		S7.33,16.634,7.33,17.988c0,0.099,0.008,0.197,0.019,0.293H6.742c-0.701,0-1.27-0.648-1.623-1.191
		c-0.686-1.056-1.048-2.485-0.999-3.1c1.329,0.06,5.258-0.594,7.731-1.083c0.951,0.929,2.189,1.841,4.123,1.841
		c0.818,0,1.767-0.042,2.773-0.086c1.165-0.052,2.486-0.11,3.808-0.11c4.1,0,7.242,2.685,7.365,3.141
		C29.92,17.962,29.861,18.183,29.136,18.183z"/>
	<path fill="#010101" d="M21.672,20.001h-3.634c-0.082,0-0.148,0.066-0.148,0.148s0.066,0.148,0.148,0.148h3.634
		c0.082,0,0.148-0.066,0.148-0.148S21.754,20.001,21.672,20.001z"/>
	<path fill="#010101" d="M7.921,20.001H3.599c-0.082,0-0.148,0.066-0.148,0.148s0.066,0.148,0.148,0.148h4.322
		c0.082,0,0.148-0.066,0.148-0.148S8.003,20.001,7.921,20.001z"/>
	<path fill="#010101" d="M3.305,13.322h-1.67c-0.082,0-0.148,0.066-0.148,0.148c0,0.082,0.066,0.148,0.148,0.148h1.67
		c0.082,0,0.148-0.066,0.148-0.148C3.453,13.389,3.387,13.322,3.305,13.322z"/>
	<path fill="#010101" d="M8.314,11.851h4.812c0.082,0,0.148-0.066,0.148-0.148s-0.066-0.148-0.148-0.148H8.314
		c-0.082,0-0.148,0.066-0.148,0.148S8.232,11.851,8.314,11.851z"/>
	<path fill="#010101" d="M9.787,16.448c-0.85,0-1.541,0.691-1.541,1.541s0.691,1.541,1.541,1.541s1.541-0.691,1.541-1.541
		S10.637,16.448,9.787,16.448z M9.787,19.233c-0.686,0-1.245-0.558-1.245-1.245s0.558-1.245,1.245-1.245
		c0.686,0,1.245,0.558,1.245,1.245S10.474,19.233,9.787,19.233z"/>
	<path fill="#010101" d="M23.734,16.448c-0.85,0-1.541,0.691-1.541,1.541s0.691,1.541,1.541,1.541s1.541-0.691,1.541-1.541
		S24.584,16.448,23.734,16.448z M23.734,19.233c-0.686,0-1.245-0.558-1.245-1.245s0.558-1.245,1.245-1.245s1.245,0.558,1.245,1.245
		S24.421,19.233,23.734,19.233z"/>
</g>
</svg>
