<?xml version="1.0" encoding="UTF-8"?>
<svg id="uuid-09729acb-ff92-4285-bb27-53f42877b5fc" data-name="Icon" xmlns="http://www.w3.org/2000/svg" viewBox="0 0 36 36">
  <path d="M31.58,12.76c-.1-.23-.32-.39-.58-.39h-12.74l-4.82-4.82c-.12-.12-.28-.18-.44-.18h-3c-.16,.02-.33,.07-.44,.18l-5,5c-.39,.37-.1,1.09,.44,1.07h4.37v7.38c0,.1,.02,.19,.07,.27,.03,.06,.08,.12,.11,.17l7,7c.07,.04,.13,.1,.2,.13,.08,.03,.16,.05,.24,.05h8c.25,0,.48-.15,.58-.39,.1-.23,.04-.5-.14-.68l-4-4s-.05-.03-.07-.05l10.07-10.07c.18-.18,.23-.45,.14-.68Zm-14.46,.24l-6.49,6.49V8.62h2.12l4.38,4.38Zm-10.61-.62l2.87-2.87v2.87h-2.87Zm14.05,12.07l2.93,2.93h-5.98l3-3s.03,.05,.05,.07Zm-4,2.12s-.03,.05-.05,.07l-5.63-5.63,7.38-7.38h11.23l-12.93,12.93Z"/>
</svg>