<svg id="ad333cc9-fa15-4a6f-a6f5-833f1fe8bc42" data-name="Layer 1" xmlns="http://www.w3.org/2000/svg" viewBox="0 0 36 36">
  <g>
    <path d="M14.5,8.38h-6a.62.62,0,0,0,0,1.24h6A.62.62,0,0,0,14.5,8.38Z"/>
    <path d="M14.5,11.38h-6a.62.62,0,0,0,0,1.24h6A.62.62,0,0,0,14.5,11.38Z"/>
    <path d="M21.5,9.62h6a.62.62,0,0,0,0-1.24h-6A.62.62,0,0,0,21.5,9.62Z"/>
    <path d="M21.5,12.62h6a.62.62,0,0,0,0-1.24h-6A.62.62,0,0,0,21.5,12.62Z"/>
    <path d="M8.5,16.84a.63.63,0,0,0-.62.63v3.06a.62.62,0,1,0,1.24,0V17.47A.63.63,0,0,0,8.5,16.84Z"/>
    <path d="M31,4.38H5A.62.62,0,0,0,4.38,5V31a.62.62,0,0,0,.62.62H31a.62.62,0,0,0,.62-.62V5A.62.62,0,0,0,31,4.38ZM5.62,5.62H17.38V30.38H5.62ZM30.38,30.38H18.62V5.62H30.38Z"/>
    <path d="M21.5,21.16a.63.63,0,0,0,.62-.63V17.47a.62.62,0,1,0-1.24,0v3.06A.63.63,0,0,0,21.5,21.16Z"/>
  </g>
</svg>
