<svg id="a8054ce4-a7fc-4c16-b5ab-8c43b92874e7" data-name="datacenter-alt1" xmlns="http://www.w3.org/2000/svg" viewBox="0 0 36 36"><title>Icon-Red_Hat-Hardware-Datacenter-A-Black-RGB</title><path d="M9.5,20.75h3a.75.75,0,0,0,0-1.5h-3a.75.75,0,0,0,0,1.5Zm7-9h3a.75.75,0,0,0,0-1.5h-3a.75.75,0,0,0,0,1.5Zm2,12.72a.78.78,0,0,0-.24-.16.73.73,0,0,0-.58,0,.74.74,0,0,0-.4.4.72.72,0,0,0-.06.29.75.75,0,0,0,.06.29.74.74,0,0,0,.4.4.72.72,0,0,0,.29.06.75.75,0,0,0,.29-.06.74.74,0,0,0,.4-.4.73.73,0,0,0,0-.58A.78.78,0,0,0,18.53,24.47Zm-9-12.72h3a.75.75,0,0,0,0-1.5h-3a.75.75,0,0,0,0,1.5Zm2,12.72a.78.78,0,0,0-.24-.16.75.75,0,0,0-.82.16.78.78,0,0,0-.16.24.72.72,0,0,0-.06.29.75.75,0,0,0,.06.29.78.78,0,0,0,.16.24.75.75,0,0,0,.53.22.72.72,0,0,0,.29-.06.74.74,0,0,0,.4-.4.75.75,0,0,0,.06-.29.72.72,0,0,0-.06-.29A.78.78,0,0,0,11.53,24.47Zm-2-6.72h3a.75.75,0,0,0,0-1.5h-3a.75.75,0,0,0,0,1.5Zm0-3h3a.75.75,0,0,0,0-1.5h-3a.75.75,0,0,0,0,1.5Zm14-3h3a.75.75,0,0,0,0-1.5h-3a.75.75,0,0,0,0,1.5Zm0,6h3a.75.75,0,0,0,0-1.5h-3a.75.75,0,0,0,0,1.5Zm0,3h3a.75.75,0,0,0,0-1.5h-3a.75.75,0,0,0,0,1.5Zm0-6h3a.75.75,0,0,0,0-1.5h-3a.75.75,0,0,0,0,1.5Zm5-7.5H7.5A.76.76,0,0,0,6.75,8V28a.76.76,0,0,0,.75.75h21a.76.76,0,0,0,.75-.75V8A.76.76,0,0,0,28.5,7.25Zm-14.75,20H8.25V8.75h5.5Zm7,0h-5.5V8.75h5.5Zm7,0h-5.5V8.75h5.5Zm-2.22-2.78a.75.75,0,0,0-.82-.16.74.74,0,0,0-.4.4.73.73,0,0,0,0,.58.74.74,0,0,0,.4.4.74.74,0,0,0,.82-.16.78.78,0,0,0,.16-.24.75.75,0,0,0,.06-.29.72.72,0,0,0-.06-.29A.78.78,0,0,0,25.53,24.47Zm-9-6.72h3a.75.75,0,0,0,0-1.5h-3a.75.75,0,0,0,0,1.5Zm0-3h3a.75.75,0,0,0,0-1.5h-3a.75.75,0,0,0,0,1.5Zm0,6h3a.75.75,0,0,0,0-1.5h-3a.75.75,0,0,0,0,1.5Z"/></svg>
