<svg id="Icon" xmlns="http://www.w3.org/2000/svg" viewBox="0 0 36 36"><path d="M31,7.25H5A.76.76,0,0,0,4.25,8V28a.76.76,0,0,0,.75.75H31a.76.76,0,0,0,.75-.75V8A.76.76,0,0,0,31,7.25Zm-.75,20H5.75V8.75h24.5Z"/><path d="M9.47,11.53a.63.63,0,0,0,.24.16.72.72,0,0,0,.29.06.75.75,0,0,0,.75-.75.72.72,0,0,0-.06-.29.75.75,0,0,0-1.38,0,.73.73,0,0,0,0,.58A.63.63,0,0,0,9.47,11.53Z"/><path d="M7.47,11.53a.75.75,0,0,0,.53.22.72.72,0,0,0,.29-.06.63.63,0,0,0,.24-.16A.75.75,0,0,0,8.75,11a.72.72,0,0,0-.06-.29.75.75,0,0,0-1.38,0,.73.73,0,0,0,0,.58A.63.63,0,0,0,7.47,11.53Z"/><path d="M13,11.75H28a.75.75,0,0,0,0-1.5H13a.75.75,0,0,0,0,1.5Z"/><path d="M8.25,16v8a.76.76,0,0,0,.75.75h9a.76.76,0,0,0,.75-.75V16a.76.76,0,0,0-.75-.75H9A.76.76,0,0,0,8.25,16Zm1.5.75h7.5v6.5H9.75Z"/><path d="M27,16.25H20.7a.75.75,0,0,0,0,1.5H27a.75.75,0,0,0,0-1.5Z"/><path d="M27,19.25H20.7a.75.75,0,0,0,0,1.5H27a.75.75,0,0,0,0-1.5Z"/><path d="M24.3,22.25H20.7a.75.75,0,0,0,0,1.5h3.6a.75.75,0,0,0,0-1.5Z"/></svg>