<svg id="be30bbd5-d7c4-4fe6-94f5-327fe2b5d805" data-name="mobile-devices" xmlns="http://www.w3.org/2000/svg" viewBox="0 0 36 36"><title>Icon-Red_Hat-Hardware-Mobile_Devices-A-Black-RGB</title><path d="M14,7.75a.75.75,0,0,0,.53-1.28.78.78,0,0,0-.24-.16.73.73,0,0,0-.58,0,.78.78,0,0,0-.24.16A.75.75,0,0,0,14,7.75Zm2,16.5H12a.75.75,0,0,0,0,1.5h4a.75.75,0,0,0,0-1.5ZM31,12.25H23.71V4A.76.76,0,0,0,23,3.25H5A.75.75,0,0,0,4.21,4V28a.75.75,0,0,0,.75.75H19.21V32a.75.75,0,0,0,.75.75H31a.75.75,0,0,0,.75-.75V13A.75.75,0,0,0,31,12.25ZM19.21,13V27.25H5.71V4.75h16.5v7.5H20A.75.75,0,0,0,19.21,13ZM30.29,31.25H20.71V13.75h9.58ZM25,15.9a.71.71,0,0,0,.53.22.93.93,0,0,0,.29-.05A.66.66,0,0,0,26,15.9a.63.63,0,0,0,.16-.24.67.67,0,0,0,.06-.28.73.73,0,0,0-.22-.53.76.76,0,0,0-1.06,0,.67.67,0,0,0-.16.24.72.72,0,0,0-.06.29.67.67,0,0,0,.06.28A.78.78,0,0,0,25,15.9Zm-1,14.48h3.16a.75.75,0,0,0,.75-.76.74.74,0,0,0-.75-.74H23.92a.74.74,0,0,0-.75.74A.75.75,0,0,0,23.92,30.38Z"/></svg>
