<svg id="Icon" xmlns="http://www.w3.org/2000/svg" viewBox="0 0 36 36"><title>Icon-Red_Hat-Keyboard-A-Black-RGB</title><path d="M31,11.75H5a.76.76,0,0,0-.75.75v11a.76.76,0,0,0,.75.75H31a.76.76,0,0,0,.75-.75v-11A.76.76,0,0,0,31,11.75Zm-.75,11H5.75v-9.5h24.5Z"/><path d="M9.5,15.75h1a.75.75,0,0,0,0-1.5h-1a.75.75,0,0,0,0,1.5Z"/><path d="M13.5,15.75h1a.75.75,0,0,0,0-1.5h-1a.75.75,0,0,0,0,1.5Z"/><path d="M17.5,15.75h1a.75.75,0,0,0,0-1.5h-1a.75.75,0,0,0,0,1.5Z"/><path d="M21.5,15.75h1a.75.75,0,0,0,0-1.5h-1a.75.75,0,0,0,0,1.5Z"/><path d="M25.5,15.75h1a.75.75,0,0,0,0-1.5h-1a.75.75,0,0,0,0,1.5Z"/><path d="M10.75,18a.76.76,0,0,0,.75.75h1a.75.75,0,0,0,0-1.5h-1A.76.76,0,0,0,10.75,18Z"/><path d="M14.75,18a.76.76,0,0,0,.75.75h1a.75.75,0,0,0,0-1.5h-1A.76.76,0,0,0,14.75,18Z"/><path d="M18.75,18a.76.76,0,0,0,.75.75h1a.75.75,0,0,0,0-1.5h-1A.76.76,0,0,0,18.75,18Z"/><path d="M22.75,18a.76.76,0,0,0,.75.75h1a.75.75,0,0,0,0-1.5h-1A.76.76,0,0,0,22.75,18Z"/><path d="M10.5,20.25h-1a.75.75,0,0,0,0,1.5h1a.75.75,0,0,0,0-1.5Z"/><path d="M22.5,20.25h-9a.75.75,0,0,0,0,1.5h9a.75.75,0,0,0,0-1.5Z"/><path d="M26.5,20.25h-1a.75.75,0,0,0,0,1.5h1a.75.75,0,0,0,0-1.5Z"/><path d="M7,18.75H8a.75.75,0,0,0,0-1.5H7a.75.75,0,0,0,0,1.5Z"/><path d="M28,18.75h1a.75.75,0,0,0,0-1.5H28a.75.75,0,0,0,0,1.5Z"/></svg>