<svg id="Icons" xmlns="http://www.w3.org/2000/svg" viewBox="0 0 36 36"><title>Icon-Red_Hat-Documents-Paper_Case_Study-A-Black-RGB</title><path d="M26.21,21.23a5.5,5.5,0,0,0-1.47-8.18s0,0,0,0V7A.75.75,0,0,0,24,6.27H12.12a.58.58,0,0,0-.19,0l-.08,0a.78.78,0,0,0-.22.15l-4,4a.64.64,0,0,0-.14.22l0,.07a1.06,1.06,0,0,0,0,.19s0,0,0,0V29a.76.76,0,0,0,.75.75H24a.76.76,0,0,0,.75-.75V22.5l.36-.24,3.37,3.25a.7.7,0,0,0,.52.22.76.76,0,0,0,.54-.23.75.75,0,0,0,0-1.06ZM11.41,8.83v1.44H10ZM23.25,28.27H8.91V11.77h3.25a.75.75,0,0,0,.75-.75V7.77H23.25v4.67a5.33,5.33,0,0,0-1.33-.17,5.51,5.51,0,1,0,0,11,5.83,5.83,0,0,0,1.33-.16Zm.52-7a.78.78,0,0,0-.22.12,4,4,0,1,1,2.38-3.65A4,4,0,0,1,23.77,21.31Z"/></svg>