<svg id="Layer_1" data-name="Layer 1" xmlns="http://www.w3.org/2000/svg" viewBox="0 0 36 36"><title>Icon-Red_Hat-Objects-Envelope_Manilla-A-Black-RGB</title><path d="M26,5.75H10a.76.76,0,0,0-.75.75v23a.75.75,0,0,0,.06.29.71.71,0,0,0,.4.4.75.75,0,0,0,.29.06H26a.75.75,0,0,0,.29-.06.71.71,0,0,0,.4-.4.75.75,0,0,0,.06-.29V6.5A.76.76,0,0,0,26,5.75ZM10.75,13.14a4.34,4.34,0,0,0,2.88,1.11h3.62v11.5H13a.75.75,0,0,0-.53.22l-1.72,1.72Zm1.06,15.61,1.5-1.5h9.38l1.5,1.5Zm13.44-1.06L23.53,26a.75.75,0,0,0-.53-.22H18.75V14.25h3.62a4.34,4.34,0,0,0,2.88-1.11Zm0-17.82a2.88,2.88,0,0,1-2.88,2.88H13.63a2.88,2.88,0,0,1-2.88-2.88V7.25h14.5ZM16,10.75h1a1.19,1.19,0,0,0,1.94,0h1a.75.75,0,0,0,0-1.5H19a1.19,1.19,0,0,0-1.94,0H16a.75.75,0,0,0,0,1.5Z"/></svg>