<svg id="Icon" xmlns="http://www.w3.org/2000/svg" viewBox="0 0 36 36"><title>Icon-Red_Hat-Graph_Steady_Down-A-Black-RGB</title><path d="M31.11,24.06,5.2,18.64a.76.76,0,0,0-.89.58.74.74,0,0,0,.58.89L30.8,25.53l.16,0a.74.74,0,0,0,.73-.6A.75.75,0,0,0,31.11,24.06Z"/><path d="M7,17.75A.75.75,0,0,0,7.79,17V7.75h20.5v14a.75.75,0,0,0,1.5,0V7A.75.75,0,0,0,29,6.25H7A.76.76,0,0,0,6.29,7V17A.76.76,0,0,0,7,17.75Z"/><path d="M17.21,10v7.71a.75.75,0,0,0,1.5,0V10a.75.75,0,0,0-1.5,0Z"/><path d="M11.21,10v6.46a.75.75,0,0,0,1.5,0V10a.75.75,0,0,0-1.5,0Z"/><path d="M23.21,10v9a.75.75,0,0,0,1.5,0V10a.75.75,0,0,0-1.5,0Z"/><path d="M29,26.25a.76.76,0,0,0-.75.75v1.25H7.79V23a.75.75,0,0,0-1.5,0v6a.76.76,0,0,0,.75.75H29a.75.75,0,0,0,.75-.75V27A.75.75,0,0,0,29,26.25Z"/></svg>