<svg id="acd2f094-0469-46d1-8d36-0a98c2b7d95d" data-name="Icon" xmlns="http://www.w3.org/2000/svg" viewBox="0 0 36 36">
  <g>
    <path d="M31,23.375H14.7717l2.0976-9.8672a3.64,3.64,0,1,0-3.1973-.7524l-2.2572,10.62H5A.6253.6253,0,0,0,4.375,24v5A.6253.6253,0,0,0,5,29.625H31A.6253.6253,0,0,0,31.625,29V24A.6253.6253,0,0,0,31,23.375ZM16,7.625A2.375,2.375,0,1,1,13.625,10,2.3777,2.3777,0,0,1,16,7.625Zm-1.189,5.7834a3.5811,3.5811,0,0,0,.7646.1737L13.4938,23.375h-.8011ZM30.375,28.375H5.625v-3.75h24.75Z"/>
    <path d="M23,22.625h3a.625.625,0,0,0,0-1.25H23a.625.625,0,0,0,0,1.25Z"/>
  </g>
</svg>
