<svg id="fbc7a3d6-9f2e-40b5-87e2-d768dbea59d0" data-name="Icon" xmlns="http://www.w3.org/2000/svg" viewBox="0 0 36 36">
  <g>
    <path d="M29.78,11.09a.67.67,0,0,0,.69-.63V7.23a.63.63,0,0,0-1.25,0V8.62A14.62,14.62,0,1,0,18,32.62l.15,0h.09l.07,0a.58.58,0,0,0,.22-.22l0-.07a.69.69,0,0,0,.05-.24.57.57,0,0,0-.08-.28.62.62,0,0,0-.55-.34A13.38,13.38,0,1,1,28.57,9.84H26.62a.63.63,0,1,0,0,1.25Z"/>
    <g>
      <path d="M30.94,12.05a.62.62,0,0,0-.61.63.61.61,0,0,0,.61.62.63.63,0,0,0,.64-.62A.64.64,0,0,0,30.94,12.05Z"/>
      <path d="M31.68,14.43a.63.63,0,0,0-.62.63.63.63,0,0,0,1.25,0A.63.63,0,0,0,31.68,14.43Z"/>
      <path d="M32,16.9a.63.63,0,0,0-.62.63.63.63,0,0,0,1.25,0A.63.63,0,0,0,32,16.9Z"/>
      <path d="M31.85,19.37a.63.63,0,0,0-.62.63.63.63,0,0,0,1.25,0A.63.63,0,0,0,31.85,19.37Z"/>
      <path d="M31.28,21.81a.63.63,0,0,0-.62.63.63.63,0,0,0,1.25,0A.63.63,0,0,0,31.28,21.81Z"/>
      <path d="M30.28,24.09a.63.63,0,0,0-.62.63.63.63,0,0,0,1.25,0A.63.63,0,0,0,30.28,24.09Z"/>
      <path d="M28.89,26.16a.63.63,0,0,0-.62.63.63.63,0,0,0,1.25,0A.63.63,0,0,0,28.89,26.16Z"/>
      <path d="M27.16,28a.63.63,0,0,0-.62.63.63.63,0,0,0,1.25,0A.63.63,0,0,0,27.16,28Z"/>
      <path d="M25.14,29.41a.63.63,0,0,0-.62.63.63.63,0,0,0,1.25,0A.63.63,0,0,0,25.14,29.41Z"/>
      <path d="M22.9,30.49a.63.63,0,0,0-.62.63.63.63,0,0,0,1.25,0A.63.63,0,0,0,22.9,30.49Z"/>
      <path d="M20.5,31.15a.63.63,0,0,0-.62.63.63.63,0,0,0,1.25,0A.63.63,0,0,0,20.5,31.15Z"/>
    </g>
  </g>
</svg>
