<?xml version="1.0" encoding="utf-8"?>
<!-- Generator: Adobe Illustrator 19.1.0, SVG Export Plug-In . SVG Version: 6.00 Build 0)  -->
<svg version="1.1" id="Layer_1" xmlns="http://www.w3.org/2000/svg" xmlns:xlink="http://www.w3.org/1999/xlink" x="0px" y="0px"
	 viewBox="0 0 32 32" enable-background="new 0 0 32 32" xml:space="preserve">
<path fill="#010101" d="M16,4.669C9.752,4.669,4.669,9.752,4.669,16c0,6.248,5.083,11.331,11.331,11.331S27.331,22.248,27.331,16
	C27.331,9.752,22.248,4.669,16,4.669z M26.678,17.13c-1.307-0.763-2.564-1.825-3.627-3.043c0.117-0.135,0.19-0.308,0.19-0.5
	c0-0.201-0.079-0.382-0.205-0.519c0.616-0.936,1.334-1.814,2.15-2.623c0.984,1.622,1.552,3.524,1.552,5.555
	C26.738,16.382,26.717,16.758,26.678,17.13z M25.93,20.081c-1.642-0.137-3.22-0.521-4.694-1.118
	c0.007-0.042,0.013-0.085,0.013-0.129c0-0.293-0.166-0.544-0.408-0.673c0.316-1.34,0.801-2.626,1.446-3.835
	c0.06,0.015,0.123,0.026,0.188,0.026c0.12,0,0.231-0.03,0.332-0.079c1.118,1.282,2.441,2.383,3.831,3.174
	C26.513,18.367,26.273,19.25,25.93,20.081z M20.83,25.586c-0.118-0.507-0.216-1.019-0.284-1.536
	c0.088-0.035,0.168-0.085,0.242-0.142c0.381,0.337,0.745,0.696,1.097,1.068C21.546,25.198,21.194,25.402,20.83,25.586z
	 M19.966,22.153c-0.159,0.034-0.301,0.109-0.422,0.209c-2.516-1.775-5.464-2.881-8.545-3.187c-0.091-0.452-0.487-0.793-0.964-0.798
	c-0.122-0.812-0.178-1.648-0.16-2.507c0.012-0.619,0.066-1.234,0.15-1.84c0.433-0.068,0.769-0.412,0.828-0.848
	c0.597-0.056,1.194-0.136,1.789-0.239c0.128,0.245,0.381,0.413,0.676,0.413c0.13,0,0.251-0.035,0.358-0.093
	c1.552,2.247,3.645,4.089,6.079,5.344c-0.023,0.072-0.038,0.147-0.038,0.227c0,0.296,0.17,0.55,0.415,0.678
	c-0.113,0.788-0.173,1.589-0.173,2.401C19.959,21.994,19.965,22.073,19.966,22.153z M19.803,10.425
	c0.137,0.13,0.322,0.212,0.526,0.212c0.045,0,0.088-0.006,0.131-0.013c0.234,0.542,0.519,1.091,0.86,1.643
	c0.176,0.285,0.364,0.566,0.561,0.841c-0.107,0.132-0.173,0.297-0.173,0.48c0,0.196,0.076,0.374,0.198,0.509
	c-0.672,1.254-1.175,2.59-1.502,3.981c-0.205,0.021-0.384,0.121-0.509,0.271c-2.4-1.237-4.463-3.054-5.99-5.272
	c0.098-0.118,0.16-0.265,0.172-0.427C16.142,12.158,18.117,11.397,19.803,10.425z M20.15,6.097c0.919,0.387,1.772,0.899,2.541,1.514
	c-0.536,0.588-1.179,1.139-1.905,1.647c-0.128-0.096-0.285-0.154-0.457-0.154c-0.025,0-0.048,0.005-0.073,0.007
	C19.983,8.066,19.926,7.04,20.15,6.097z M12.563,12.479c-0.585,0.103-1.172,0.185-1.757,0.242c-0.076-0.217-0.223-0.398-0.415-0.517
	c0.291-1.107,0.695-2.161,1.201-3.123c0.334,1.011,0.765,1.977,1.278,2.89C12.706,12.09,12.593,12.271,12.563,12.479z
	 M24.941,10.062c-0.872,0.854-1.637,1.786-2.289,2.781c-0.057-0.013-0.116-0.022-0.177-0.022c-0.129,0-0.249,0.035-0.356,0.092
	c-0.553-0.772-1.021-1.582-1.375-2.399c0.211-0.136,0.352-0.373,0.352-0.643c0-0.085-0.017-0.166-0.043-0.243
	c0.751-0.531,1.419-1.11,1.981-1.73C23.762,8.529,24.405,9.257,24.941,10.062z M19.872,5.987c-0.24,0.974-0.206,2.064,0.093,3.212
	c-0.238,0.13-0.402,0.38-0.402,0.67c0,0.052,0.005,0.104,0.015,0.153c-1.648,0.94-3.588,1.683-5.61,2.166
	c-0.135-0.218-0.375-0.365-0.65-0.365c-0.062,0-0.121,0.009-0.179,0.023c-0.554-0.982-1.009-2.026-1.351-3.121
	c0.772-1.366,1.748-2.529,2.877-3.378C15.103,5.293,15.548,5.262,16,5.262C17.365,5.262,18.67,5.521,19.872,5.987z M11.616,8.137
	c-0.155-0.575-0.278-1.163-0.369-1.762c0.798-0.396,1.651-0.696,2.545-0.883C12.968,6.225,12.234,7.119,11.616,8.137z M10.97,6.517
	c0.107,0.674,0.254,1.335,0.441,1.979c-0.615,1.086-1.103,2.292-1.442,3.568c-0.033-0.003-0.065-0.01-0.099-0.01
	c-0.471,0-0.863,0.328-0.967,0.767c-1.061,0.007-2.096-0.074-3.077-0.248C6.708,9.961,8.568,7.796,10.97,6.517z M5.692,12.998
	c1.018,0.186,2.084,0.28,3.175,0.28c0.012,0,0.023,0,0.035,0c0.081,0.346,0.342,0.618,0.678,0.721
	c-0.084,0.614-0.138,1.236-0.15,1.863c-0.018,0.895,0.041,1.766,0.17,2.612c-0.254,0.12-0.447,0.344-0.528,0.617
	c-1.094,0.011-2.184,0.122-3.249,0.329C5.461,18.345,5.262,17.196,5.262,16C5.262,14.958,5.414,13.951,5.692,12.998z M5.976,19.843
	c1.006-0.191,2.035-0.296,3.068-0.308c0.079,0.472,0.486,0.832,0.98,0.832c0.001,0,0.002,0,0.003,0
	c0.71,2.387,2.04,4.493,3.929,6.173C10.291,25.831,7.288,23.254,5.976,19.843z M14.799,26.669c-2.11-1.686-3.584-3.883-4.34-6.406
	c0.258-0.127,0.452-0.36,0.525-0.644c2.988,0.302,5.846,1.376,8.288,3.094c-0.058,0.126-0.092,0.265-0.092,0.413
	c0,0.526,0.409,0.953,0.926,0.989c0.074,0.562,0.182,1.118,0.313,1.667c-1.349,0.612-2.844,0.955-4.419,0.955
	C15.594,26.738,15.194,26.713,14.799,26.669z M22.256,24.72c-0.38-0.404-0.775-0.792-1.188-1.157
	c0.065-0.132,0.105-0.279,0.105-0.436c0-0.469-0.325-0.859-0.761-0.965c-0.001-0.082-0.008-0.164-0.008-0.247
	c0-0.785,0.058-1.56,0.166-2.321c0.237-0.027,0.44-0.159,0.561-0.352c1.47,0.594,3.041,0.981,4.675,1.127
	C25.025,22.114,23.792,23.614,22.256,24.72z"/>
</svg>
