<svg id="e919dc95-842f-4a8d-9797-b86cbd865d15" data-name="Icon" xmlns="http://www.w3.org/2000/svg" width="36" height="36" viewBox="0 0 36 36"><title>Icon-Red_Hat-Diagrams-Graph_Steady_Up-A-Black-RGB</title><path d="M23.25,10v6.46a.75.75,0,0,0,1.5,0V10a.75.75,0,0,0-1.5,0Zm8.44,9.22a.76.76,0,0,0-.89-.58L4.89,24.06a.75.75,0,0,0-.58.89.74.74,0,0,0,.73.6l.16,0,25.91-5.42A.74.74,0,0,0,31.69,19.22ZM7,22.48a.74.74,0,0,0,.75-.75v-14h20.5V17a.75.75,0,0,0,1.5,0V7A.75.75,0,0,0,29,6.25H7A.76.76,0,0,0,6.25,7V21.73A.75.75,0,0,0,7,22.48ZM17.25,10v7.71a.75.75,0,0,0,1.5,0V10a.75.75,0,0,0-1.5,0ZM29,22a.76.76,0,0,0-.75.75v5.5H7.75V27a.75.75,0,0,0-1.5,0v2a.76.76,0,0,0,.75.75H29a.75.75,0,0,0,.75-.75V22.75A.75.75,0,0,0,29,22ZM11.25,10v9a.75.75,0,0,0,1.5,0V10a.75.75,0,0,0-1.5,0Z"/></svg>