<svg id="f0db9915-1819-4a6d-af24-7d50c9321de9" data-name="Layer 1" xmlns="http://www.w3.org/2000/svg" viewBox="0 0 36 36">
  <title>Icon-Red_Hat-Atom-A-Black-RGB</title>
  <g>
    <path d="M28.2,23.083a33.564,33.564,0,0,0-2.866-4.151c-.247-.309-.5-.62-.766-.932.261-.312.519-.623.766-.932A33.564,33.564,0,0,0,28.2,12.917a11.564,11.564,0,0,0,1.5-3.738A2.55,2.55,0,0,0,29.14,6.86,2.555,2.555,0,0,0,26.821,6.3a11.552,11.552,0,0,0-3.737,1.5,33.347,33.347,0,0,0-4.151,2.866c-.31.246-.621.505-.933.766-.312-.261-.623-.519-.932-.766A33.564,33.564,0,0,0,12.917,7.8,11.569,11.569,0,0,0,9.18,6.3a2.551,2.551,0,0,0-2.32.561A2.552,2.552,0,0,0,6.3,9.179a11.534,11.534,0,0,0,1.5,3.737,33.347,33.347,0,0,0,2.866,4.151c.246.31.505.621.766.933-.261.312-.52.623-.766.933A33.347,33.347,0,0,0,7.8,23.084a11.534,11.534,0,0,0-1.5,3.737A2.552,2.552,0,0,0,6.86,29.14a2,2,0,0,0,.724.462,2.712,2.712,0,0,0,.939.153,5.921,5.921,0,0,0,1.933-.389A15.446,15.446,0,0,0,12.917,28.2a33.564,33.564,0,0,0,4.151-2.866c.309-.247.62-.5.932-.766.312.261.623.52.933.766A33.347,33.347,0,0,0,23.084,28.2a15.4,15.4,0,0,0,2.46,1.167,5.9,5.9,0,0,0,1.933.39,2.688,2.688,0,0,0,.939-.154,2,2,0,0,0,.724-.462,2.55,2.55,0,0,0,.561-2.319A11.564,11.564,0,0,0,28.2,23.083ZM19.843,11.859A32.048,32.048,0,0,1,23.828,9.1a13.686,13.686,0,0,1,2.26-1.069,4.339,4.339,0,0,1,1.376-.284,1.356,1.356,0,0,1,.391.049.512.512,0,0,1,.224.122c.482.482.091,2.054-1.189,4.275a34.348,34.348,0,0,1-3.316,4.656c-.68-.762-1.4-1.524-2.15-2.276s-1.513-1.468-2.274-2.147C19.382,12.236,19.613,12.042,19.843,11.859ZM9.1,12.172A10.761,10.761,0,0,1,7.816,9.133c-.137-.684-.043-1.065.105-1.212a.62.62,0,0,1,.26-.15,1.277,1.277,0,0,1,.377-.049c.9,0,2.529.652,4.591,1.968a37.107,37.107,0,0,1,3.7,2.737c-.761.68-1.523,1.4-2.275,2.149s-1.468,1.513-2.147,2.274c-.192-.232-.387-.463-.57-.693A32.048,32.048,0,0,1,9.1,12.172ZM12.2,26.89C9.975,28.171,8.4,28.562,7.921,28.079c-.148-.148-.242-.528-.105-1.212A10.761,10.761,0,0,1,9.1,23.828a32.048,32.048,0,0,1,2.756-3.985c.183-.23.378-.461.57-.693.679.761,1.4,1.522,2.147,2.274s1.514,1.47,2.276,2.15A34.348,34.348,0,0,1,12.2,26.89ZM18,22.587c-.79-.7-1.582-1.441-2.365-2.224S14.114,18.789,13.415,18c.7-.789,1.439-1.581,2.222-2.363S17.211,14.114,18,13.415c.769.681,1.557,1.416,2.362,2.222S21.908,17.231,22.589,18q-1.021,1.153-2.226,2.363T18,22.587Zm10.077,5.492c-.147.147-.528.242-1.212.1A10.709,10.709,0,0,1,23.828,26.9a32.048,32.048,0,0,1-3.985-2.756c-.23-.183-.461-.377-.693-.57.761-.679,1.522-1.4,2.274-2.147s1.47-1.514,2.15-2.276A34.348,34.348,0,0,1,26.89,23.8C28.17,26.025,28.561,27.6,28.079,28.079Z"/>
    <path d="M18,15.75a2.253,2.253,0,1,0,1.59.66A2.24,2.24,0,0,0,18,15.75Zm.53,2.78a.748.748,0,1,1,.22-.53A.747.747,0,0,1,18.53,18.53Z"/>
  </g>
</svg>
