<svg id="ec3e36e8-4f9b-4cf5-8a71-5aa12be7aba7" data-name="Layer 1" xmlns="http://www.w3.org/2000/svg" width="36" height="36" viewBox="0 0 36 36"><title>Icon-Red_Hat-</title><path d="M18.26,9.38A.81.81,0,0,0,18,9.21a.75.75,0,0,0-.81.17.7.7,0,0,0-.17.24.72.72,0,0,0-.06.29.67.67,0,0,0,.06.28.74.74,0,0,0,.17.25.73.73,0,0,0,.52.22.75.75,0,0,0,.53-.22.74.74,0,0,0,.17-.25.69.69,0,0,0,.05-.28.93.93,0,0,0-.05-.29A.7.7,0,0,0,18.26,9.38Zm2,0a.75.75,0,0,0-.81-.17.85.85,0,0,0-.25.17.78.78,0,0,0-.16.24.71.71,0,0,0-.05.29.66.66,0,0,0,.05.28.72.72,0,0,0,.16.25,1.07,1.07,0,0,0,.25.16.71.71,0,0,0,.28.06.75.75,0,0,0,.53-.22.77.77,0,0,0,.22-.53.71.71,0,0,0-.05-.29A.81.81,0,0,0,20.26,9.38Zm8.48,14.28A.72.72,0,0,0,29,23.6a.78.78,0,0,0,.24-.16.75.75,0,0,0-.82-1.22.63.63,0,0,0-.24.16.75.75,0,0,0,.53,1.28Zm3-4.5h-28a.75.75,0,0,0-.75.75v7a.76.76,0,0,0,.75.75h28a.75.75,0,0,0,.75-.75v-7A.74.74,0,0,0,31.73,19.16Zm-.75,7H4.48v-5.5H31Zm-18.25-8.5h10a.75.75,0,0,0,.75-.75v-10a.74.74,0,0,0-.75-.75h-10a.75.75,0,0,0-.75.75v10A.76.76,0,0,0,12.73,17.66Zm.75-10H22v8.5h-8.5Zm-6.75,17H9.4a.75.75,0,1,0,0-1.5H6.73a.75.75,0,0,0,0,1.5Z"/></svg>