<svg id="f73bb585-8a27-48b9-ab56-0898b37b287a" data-name="Layer 1" xmlns="http://www.w3.org/2000/svg" viewBox="0 0 36 36">
  <title>Icon-Red_Hat-Directional-A-Black-RGB</title>
  <path d="M29.741,17.951c0-.032,0-.065,0-.1a.9.9,0,0,0-.031-.087c-.009-.025-.016-.051-.027-.075a.719.719,0,0,0-.148-.222l-3.5-3.5-3.5-3.5a.75.75,0,1,0-1.06,1.06l2.86,2.86,2.859,2.86H7a.75.75,0,0,0,0,1.5H27.189L24.97,20.97l-3.5,3.5a.75.75,0,1,0,1.06,1.06l3.5-3.5,3.5-3.5c.007-.007.009-.016.016-.023a.738.738,0,0,0,.147-.22v0l.005-.02a.759.759,0,0,0,.045-.236A.23.23,0,0,0,29.75,18C29.75,17.983,29.742,17.968,29.741,17.951Z"/>
</svg>
