<svg id="e246e10f-ee4c-4c6f-801f-b41f663b0cc0" data-name="traffic-light" xmlns="http://www.w3.org/2000/svg" viewBox="0 0 36 36"><title>Icon-Red_Hat-Transportation-Traffic_light-A-Black-RGB</title><path d="M18,13.75A2.75,2.75,0,1,0,15.25,11,2.75,2.75,0,0,0,18,13.75Zm0-4A1.25,1.25,0,1,1,16.75,11,1.25,1.25,0,0,1,18,9.75Zm0,11A2.75,2.75,0,1,0,15.25,18,2.75,2.75,0,0,0,18,20.75Zm0-4A1.25,1.25,0,1,1,16.75,18,1.25,1.25,0,0,1,18,16.75Zm0,11A2.75,2.75,0,1,0,15.25,25,2.75,2.75,0,0,0,18,27.75Zm0-4A1.25,1.25,0,1,1,16.75,25,1.25,1.25,0,0,1,18,23.75Zm5-18.5H13a.76.76,0,0,0-.75.75V30a.76.76,0,0,0,.75.75H23a.76.76,0,0,0,.75-.75V6A.76.76,0,0,0,23,5.25Zm-.75,24h-8.5V6.75h8.5Z"/></svg>
