<?xml version="1.0" encoding="utf-8"?>
<!-- Generator: Adobe Illustrator 24.2.1, SVG Export Plug-In . SVG Version: 6.00 Build 0)  -->
<svg version="1.1" id="Icon" xmlns="http://www.w3.org/2000/svg" xmlns:xlink="http://www.w3.org/1999/xlink" x="0px" y="0px"
	 viewBox="0 0 36 36" style="enable-background:new 0 0 36 36;" xml:space="preserve">
<path d="M26.932,17.667c2.276-1.352,3.807-3.828,3.807-6.667c0-4.284-3.473-7.758-7.758-7.758c-4.284,0-7.758,3.473-7.758,7.758
	c0,0.509,0.064,1.001,0.158,1.483c-1.12-0.627-2.409-0.988-3.783-0.988c-4.284,0-7.758,3.473-7.758,7.758s3.473,7.758,7.758,7.758
	c1.932,0,3.696-0.711,5.054-1.88c0.073,4.221,3.512,7.622,7.751,7.622c4.284,0,7.758-3.473,7.758-7.758
	C32.16,21.597,29.973,18.717,26.932,17.667z M22.981,4.753c3.45,0,6.247,2.797,6.247,6.247s-2.797,6.247-6.247,6.247
	c-3.45,0-6.247-2.797-6.247-6.247S19.531,4.753,22.981,4.753z M11.598,25.499c-3.45,0-6.247-2.797-6.247-6.247
	s2.797-6.247,6.247-6.247s6.247,2.797,6.247,6.247S15.048,25.499,11.598,25.499z M24.402,31.242c-3.45,0-6.247-2.797-6.247-6.247
	c0-3.45,2.797-6.247,6.247-6.247s6.247,2.797,6.247,6.247C30.649,28.445,27.852,31.242,24.402,31.242z M19.076,11.486
	c0,0.414-0.336,0.75-0.75,0.75c-0.414,0-0.75-0.336-0.75-0.75s0.336-0.75,0.75-0.75C18.74,10.736,19.076,11.072,19.076,11.486z
	 M21.99,11.504c0,0.414-0.336,0.75-0.75,0.75c-0.414,0-0.75-0.336-0.75-0.75s0.336-0.75,0.75-0.75
	C21.654,10.754,21.99,11.09,21.99,11.504z M24.632,12.701c0,0.414-0.336,0.75-0.75,0.75c-0.414,0-0.75-0.336-0.75-0.75
	c0-0.414,0.336-0.75,0.75-0.75C24.296,11.951,24.632,12.286,24.632,12.701z M26.567,14.869c0,0.414-0.336,0.75-0.75,0.75
	s-0.75-0.336-0.75-0.75s0.336-0.75,0.75-0.75S26.567,14.455,26.567,14.869z M27.129,20.583c0,0.414-0.336,0.75-0.75,0.75
	s-0.75-0.336-0.75-0.75c0-0.414,0.336-0.75,0.75-0.75S27.129,20.169,27.129,20.583z M25.643,23.081c0,0.414-0.336,0.75-0.75,0.75
	c-0.414,0-0.75-0.336-0.75-0.75c0-0.414,0.336-0.75,0.75-0.75C25.307,22.331,25.643,22.667,25.643,23.081z M23.28,24.774
	c0,0.414-0.336,0.75-0.75,0.75c-0.414,0-0.75-0.336-0.75-0.75c0-0.414,0.336-0.75,0.75-0.75C22.944,24.024,23.28,24.36,23.28,24.774
	z M20.441,25.341c0,0.414-0.336,0.75-0.75,0.75c-0.414,0-0.75-0.336-0.75-0.75c0-0.414,0.336-0.75,0.75-0.75
	C20.105,24.591,20.441,24.927,20.441,25.341z M15.27,22.988c0,0.414-0.336,0.75-0.75,0.75c-0.414,0-0.75-0.336-0.75-0.75
	c0-0.414,0.336-0.75,0.75-0.75C14.935,22.238,15.27,22.574,15.27,22.988z M13.825,20.46c0,0.414-0.336,0.75-0.75,0.75
	s-0.75-0.336-0.75-0.75s0.336-0.75,0.75-0.75S13.825,20.045,13.825,20.46z M13.547,17.57c0,0.414-0.336,0.75-0.75,0.75
	c-0.414,0-0.75-0.336-0.75-0.75c0-0.414,0.336-0.75,0.75-0.75C13.211,16.82,13.547,17.155,13.547,17.57z M14.453,14.804
	c0,0.414-0.336,0.75-0.75,0.75c-0.414,0-0.75-0.336-0.75-0.75c0-0.414,0.336-0.75,0.75-0.75
	C14.117,14.054,14.453,14.39,14.453,14.804z"/>
</svg>
