<?xml version="1.0" encoding="utf-8"?>
<!-- Generator: Adobe Illustrator 24.2.1, SVG Export Plug-In . SVG Version: 6.00 Build 0)  -->
<svg version="1.1" id="a0d90c51-39d9-4a44-81e7-c3509b67cacc"
	 xmlns="http://www.w3.org/2000/svg" xmlns:xlink="http://www.w3.org/1999/xlink" x="0px" y="0px" viewBox="0 0 36 36"
	 style="enable-background:new 0 0 36 36;" xml:space="preserve">
<path d="M7,10.75c0.414,0,0.749-0.336,0.75-0.75V7.75h20.5V22c0,0.414,0.336,0.75,0.75,0.75s0.75-0.336,0.75-0.75V7
	C29.749,6.586,29.414,6.251,29,6.25H7C6.586,6.251,6.251,6.586,6.25,7v3C6.251,10.414,6.586,10.75,7,10.75z M31,24.25h-4.689
	l-4.781-4.78c-0.188-0.19-0.416-0.22-0.53-0.22h-4.655l-5.776-6.738c-0.143-0.166-0.35-0.261-0.569-0.262H5
	c-0.414,0-0.75,0.336-0.75,0.75S4.586,13.75,5,13.75h4.655l5.776,6.738c0.143,0.166,0.35,0.261,0.569,0.262h4.689l4.781,4.78
	c0.188,0.19,0.416,0.22,0.53,0.22h5c0.414,0,0.75-0.336,0.75-0.75S31.414,24.25,31,24.25z M17.25,10v7c0,0.414,0.336,0.75,0.75,0.75
	s0.75-0.336,0.75-0.75v-7c0-0.414-0.336-0.75-0.75-0.75S17.25,9.586,17.25,10z M23.25,10v7c0,0.414,0.336,0.75,0.75,0.75
	s0.75-0.336,0.75-0.75v-7c0-0.414-0.336-0.75-0.75-0.75S23.25,9.586,23.25,10z M11.25,10v1c0,0.414,0.336,0.75,0.75,0.75
	s0.75-0.336,0.75-0.75v-1c0-0.414-0.336-0.75-0.75-0.75S11.25,9.586,11.25,10z M29,27.25c-0.414,0-0.749,0.336-0.75,0.75v0.25H7.75
	V16c0-0.414-0.336-0.75-0.75-0.75S6.25,15.586,6.25,16v13c0.001,0.414,0.336,0.749,0.75,0.75h22c0.414-0.001,0.749-0.336,0.75-0.75
	v-1C29.749,27.586,29.414,27.25,29,27.25z"/>
</svg>
