<?xml version="1.0" encoding="utf-8"?>
<!DOCTYPE svg PUBLIC "-//W3C//DTD SVG 1.1//EN" "http://www.w3.org/Graphics/SVG/1.1/DTD/svg11.dtd">
<svg version="1.1" xmlns="http://www.w3.org/2000/svg" xmlns:xlink="http://www.w3.org/1999/xlink" x="0px" y="0px"
	 viewBox="0 0 32 32" style="enable-background:new 0 0 32 32;" xml:space="preserve">
<g>
	<path d="M20.6,15.6c2.3-1.5,3.8-4.1,3.8-7.1c0-4.8-3.9-8.5-8.5-8.5c-4.8,0-8.6,3.9-8.6,8.5c0,3,1.5,5.6,3.8,7.1
		c-5.6,2.3-9.5,8-9.5,15.1c0,0.6,0.5,1.3,1.3,1.3s1.3-0.5,1.3-1.3c0-7.4,5.4-13.5,11.8-13.5c6.6,0,11.8,6.1,11.8,13.5
		c0,0.7,0.5,1.3,1.3,1.3s1.3-0.5,1.3-1.3C30.2,23.8,26.1,17.9,20.6,15.6z M9.5,8.5c0-3.4,2.8-6.2,6.2-6.2s6.2,2.8,6.2,6.2
		s-2.8,6.1-6.2,6.1S9.5,12,9.5,8.5z"/>
</g>
</svg>
