<?xml version="1.0" encoding="utf-8"?>
<!DOCTYPE svg PUBLIC "-//W3C//DTD SVG 1.1//EN" "http://www.w3.org/Graphics/SVG/1.1/DTD/svg11.dtd">
<svg version="1.1" id="Layer_1" xmlns="http://www.w3.org/2000/svg" xmlns:xlink="http://www.w3.org/1999/xlink" width="32" height="32" x="0px" y="0px" viewBox="0 0 32 32">
<g>
	<path d="M22.9,24.3h-22c-0.5,0-0.9-0.4-0.9-0.8s0.4-0.8,0.9-0.8h22c0.5,0,0.8,0.4,0.8,0.8S23.3,24.3,22.9,24.3z"/>
	<path d="M22.9,15.3h-22c-0.5,0-0.9-0.4-0.9-0.9s0.4-0.9,0.9-0.9h22c0.5,0,0.8,0.4,0.8,0.9S23.3,15.3,22.9,15.3z"/>
	<path d="M22.9,6.3h-22C0.4,6.3,0,5.9,0,5.4s0.4-0.9,0.9-0.9h22c0.5,0,0.8,0.4,0.8,0.9S23.3,6.3,22.9,6.3z"/>
</g>
</svg>
