<?xml version="1.0" encoding="utf-8"?>
<!DOCTYPE svg PUBLIC "-//W3C//DTD SVG 1.1//EN" "http://www.w3.org/Graphics/SVG/1.1/DTD/svg11.dtd">
<svg version="1.1" xmlns="http://www.w3.org/2000/svg" xmlns:xlink="http://www.w3.org/1999/xlink" width="32" height="32" x="0px" y="0px"
	 viewBox="0 0 32 32">
<g>
	<polygon points="20.9,0 20.9,2.5 27.8,2.5 17.6,12.7 19.3,14.4 29.5,4.2 29.5,11.1 32,11.1 32,0 	"/>
	<path d="M27.1,28.3c0,0.8-0.4,1.2-1.2,1.2H3.7c-0.8,0-1.2-0.4-1.2-1.2V6.2c0-0.8,0.4-1.2,1.2-1.2H16V2.5H3.7C1.5,2.5,0,4,0,6.2
		v22.2C0,30.4,1.6,32,3.7,32h22.2c2.1,0,3.7-1.6,3.7-3.7V16h-2.5V28.3z"/>
</g>
</svg>
