<?xml version="1.0" encoding="utf-8"?>
<!DOCTYPE svg PUBLIC "-//W3C//DTD SVG 1.1//EN" "http://www.w3.org/Graphics/SVG/1.1/DTD/svg11.dtd">
<svg enable-background="new 0 0 20 20" viewBox="0 0 20 20" xmlns="http://www.w3.org/2000/svg">
	<path d="m19.8 16.5c.5.8.2 1.8-.6 2.3-.3.1-.5.2-.8.2h-16.7c-1 0-1.7-.8-1.7-1.7 0-.3.1-.6.2-.8l8.3-14.6c.5-.9 1.5-1.1 2.3-.7.3.1.5.4.6.6zm-9.8-3.1c-.9 0-1.6.7-1.6 1.6s.7 1.6 1.6 1.6 1.6-.7 1.6-1.6c0-.8-.7-1.5-1.6-1.6zm-1.5-5.8.3 4.8c0 .2.2.4.4.4h1.7c.2 0 .4-.2.4-.4l.3-4.8c0-.2-.2-.4-.4-.4h-2.2c-.3 0-.5.2-.5.4z"/>
</svg>