<svg id="e4104175-7986-4278-b0aa-9c710a5399c1" data-name="Layer 1" xmlns="http://www.w3.org/2000/svg" viewBox="0 0 17 17">
  <path d="M8.5,1A7.5,7.5,0,1,0,16,8.5,7.508,7.508,0,0,0,8.5,1Zm0,13.731a9.636,9.636,0,0,1-1.941-3.724H10.44A9.647,9.647,0,0,1,8.5,14.731ZM6.352,10.007A9.688,9.688,0,0,1,6.351,7h4.3a9.75,9.75,0,0,1,0,3.007ZM2,8.5A6.45,6.45,0,0,1,2.182,7H5.335a10.741,10.741,0,0,0,0,3.007H2.182A6.515,6.515,0,0,1,2,8.5ZM10.442,6H6.557A9.636,9.636,0,0,1,8.5,2.268,9.625,9.625,0,0,1,10.442,6Zm1.222,1h3.154a6.268,6.268,0,0,1,0,3.007H11.663A10.779,10.779,0,0,0,11.664,7ZM14.5,6H11.474A10.619,10.619,0,0,0,9.653,2.109,6.513,6.513,0,0,1,14.5,6ZM7.341,2.109A10.61,10.61,0,0,0,5.524,6H2.5A6.521,6.521,0,0,1,7.341,2.109ZM2.5,11.007H5.528a10.6,10.6,0,0,0,1.821,3.887A6.5,6.5,0,0,1,2.5,11.007Zm7.153,3.884a10.6,10.6,0,0,0,1.819-3.884H14.5A6.518,6.518,0,0,1,9.653,14.891Z"/>
</svg>
