<?xml version="1.0" encoding="UTF-8"?>
<svg id="uuid-3b74f4f4-ea57-4451-82ab-b87145a4362e" data-name="Icon" xmlns="http://www.w3.org/2000/svg" viewBox="0 0 36 36">
  <path d="M26.44,25.56c-.86-.86-.86-2.26,0-3.12,.24-.24,.24-.64,0-.88l-2-2c-.58-.58-1.46,.3-.88,.88l1.6,1.6c-.53,.76-.7,1.69-.54,2.58-.88-.16-1.81,.01-2.58,.54l-1.6-1.6c-.58-.58-1.46,.3-.88,.88l2,2c.24,.24,.64,.24,.88,0,.86-.86,2.26-.86,3.12,0l5,5c.58,.58,1.46-.3,.88-.88l-5-5Z"/>
  <path d="M11.56,16.44c.58,.58,1.46-.3,.88-.88l-6.56-6.56,3.12-3.12,6.56,6.56c.58,.58,1.46-.3,.88-.88l-7-7c-.24-.24-.64-.24-.88,0l-4,4c-.24,.24-.24,.64,0,.88l7,7Z"/>
  <path d="M31.44,8.56l-4-4c-.24-.24-.64-.24-.88,0L9.56,21.56c-.24,.24-.24,.64,0,.88,.85,.82,.85,2.3,0,3.12l-5,5c-.58,.58,.3,1.46,.88,.88l5-5c.83-.83,2.28-.83,3.12,0,.24,.24,.64,.24,.88,0L31.44,9.44c.24-.24,.24-.64,0-.88ZM13.96,25.16c-.76-.52-1.67-.71-2.56-.56,.15-.88-.03-1.8-.56-2.56L27,5.88l3.12,3.12L13.96,25.16Z"/>
  <path d="M18,26.38c-3.46,.09-3.46,5.16,0,5.25,3.46-.09,3.46-5.16,0-5.25Zm0,4c-1.81-.03-1.81-2.72,0-2.75,1.81,.03,1.81,2.72,0,2.75Z"/>
  <path d="M19.56,15.56l-3.5,3.5c-.58,.58,.3,1.46,.88,.88l3.5-3.5c.58-.58-.3-1.46-.88-.88Z"/>
  <path d="M22.44,13.56c-.3-.32-.86-.2-1.02,.2-.1,.24-.04,.5,.14,.68,.06,.06,.13,.11,.2,.14,.49,.22,1.05-.33,.82-.82-.03-.08-.08-.14-.14-.2Z"/>
  <path d="M13.76,13.42c-.15,.06-.28,.19-.34,.34-.1,.24-.04,.5,.14,.68,.06,.06,.13,.11,.2,.14,.49,.22,1.05-.33,.82-.82-.03-.08-.08-.14-.14-.2-.17-.18-.45-.23-.68-.14Z"/>
</svg>