<?xml version="1.0" encoding="UTF-8"?>
<svg id="uuid-f5638432-dc8d-4322-8a01-6dd6a2ca27bc" data-name="Icon" xmlns="http://www.w3.org/2000/svg" viewBox="0 0 36 36">
  <path d="M32.59,18.18c.22-8.11-6.51-14.82-14.59-14.81-8.06,0-14.63,6.56-14.63,14.63,.02,.29,.21,.53,.5,.61l11,2.34c.33,.07,.67-.14,.74-.48,.07-.34-.14-.67-.48-.74l-3.42-.73c.45-2.85,2.8-5.06,5.67-5.34v2.34c0,.34,.28,.62,.62,.62s.62-.28,.62-.62v-2.34c2.87,.28,5.22,2.49,5.67,5.34l-3.42,.73c-.72,.15-.61,1.24,.13,1.24,.2,0,10.95-2.33,11.13-2.35,.21-.07,.4-.21,.46-.43Zm-14.59-5.81c-3.74,0-6.91,2.74-7.52,6.36l-5.83-1.24C5.89,.42,30.11,.43,31.35,17.5l-5.83,1.24c-.61-3.62-3.78-6.36-7.52-6.36Z"/>
  <path d="M18,6.38c-.35,0-.62,.28-.62,.62v3c0,.34,.28,.62,.62,.62s.62-.28,.62-.62v-3c0-.34-.28-.62-.62-.62Z"/>
  <path d="M23.56,8.56l-2,2c-.24,.24-.24,.64,0,.88,.24,.24,.64,.24,.88,0l2-2c.57-.58-.3-1.46-.88-.88Z"/>
  <path d="M12.44,8.56c-.58-.58-1.46,.3-.88,.88l2,2c.24,.24,.64,.24,.88,0,.24-.24,.24-.64,0-.88l-2-2Z"/>
  <path d="M18.44,20.56c-.57-.58-1.46,.31-.88,.88,.56,.59,1.47-.31,.88-.88Z"/>
  <path d="M18,23.38c-.35,0-.62,.28-.62,.62v8c0,.34,.28,.62,.62,.62s.62-.28,.62-.62v-8c0-.34-.28-.62-.62-.62Z"/>
</svg>