<?xml version="1.0" encoding="utf-8"?>
<!DOCTYPE svg PUBLIC "-//W3C//DTD SVG 1.1//EN" "http://www.w3.org/Graphics/SVG/1.1/DTD/svg11.dtd">
<svg version="1.1" id="Layer_1" xmlns="http://www.w3.org/2000/svg" xmlns:xlink="http://www.w3.org/1999/xlink" width="32" height="32" x="0px" y="0px" viewBox="0 0 32 32">
<g>
	<path d="M16.1,0.2C7.4,0.2,0.2,7.4,0.2,16.1S7.4,32,16.1,32S32,24.8,32,16.1S24.8,0.2,16.1,0.2z M28.5,10.5h-5.9
		c-0.4-2.9-1.3-5.6-2.5-7.5C23.9,4.3,27,7.1,28.5,10.5z M29.6,16.1c0,1.2-0.1,2.2-0.4,3.2h-6.3c0.1-1,0.1-2.2,0.1-3.2s0-2.2-0.1-3.2
		h6.5C29.5,13.9,29.6,14.9,29.6,16.1z M16.1,29.6c-1.6,0-3.5-3.2-4.3-8.1h8.7C19.6,26.6,17.7,29.6,16.1,29.6z M11.5,19.3
		c-0.1-1-0.1-2.2-0.1-3.2s0-2.2,0.1-3.2h9.3c0.1,1,0.1,2.2,0.1,3.2s0,2.2-0.1,3.2H11.5z M2.6,16.1c0-1.2,0.1-2.2,0.4-3.2h6.3
		c-0.1,1-0.3,2.2-0.3,3.2s0,2.2,0.1,3.2H2.9C2.7,18.3,2.6,17.3,2.6,16.1z M16.1,2.6c1.6,0,3.5,3.2,4.3,8.1h-8.5
		C12.6,5.6,14.5,2.6,16.1,2.6z M12,3.1c-1.2,1.9-1.9,4.6-2.5,7.4H3.6C5.2,7.1,8.3,4.3,12,3.1z M3.7,21.7h5.9
		c0.4,2.9,1.3,5.6,2.5,7.5C8.3,27.9,5.2,25.1,3.7,21.7z M20.2,29.1c1.2-1.9,2.1-4.6,2.5-7.5h5.9C27,25.1,23.9,27.9,20.2,29.1z"/>
</g>
</svg>
