<?xml version="1.0" encoding="utf-8"?>
<!DOCTYPE svg PUBLIC "-//W3C//DTD SVG 1.1//EN" "http://www.w3.org/Graphics/SVG/1.1/DTD/svg11.dtd">
<svg enable-background="new 0 0 17.9 17.9" viewBox="0 0 17.9 17.9" xmlns="http://www.w3.org/2000/svg">
	<path d="m9 17.9c1.3 0 2.3-1 2.3-2.2h-4.6c.1 1.2 1.1 2.2 2.3 2.2zm7.7-5.2c-.7-.7-2-1.8-2-5.4 0-2.7-1.9-5-4.6-5.5v-.7c0-.6-.5-1.1-1.1-1.1s-1.1.5-1.1 1.1v.7c-2.6.5-4.6 2.8-4.6 5.5 0 3.6-1.3 4.7-2 5.4-.2.2-.3.5-.3.8 0 .6.5 1.1 1.1 1.1h13.7c.6 0 1.1-.5 1.1-1.1.1-.4 0-.6-.2-.8z"/>
</svg>