<?xml version="1.0" encoding="utf-8"?>
<!DOCTYPE svg PUBLIC "-//W3C//DTD SVG 1.1//EN" "http://www.w3.org/Graphics/SVG/1.1/DTD/svg11.dtd">
<svg version="1.1" id="Layer_1" xmlns="http://www.w3.org/2000/svg" xmlns:xlink="http://www.w3.org/1999/xlink" x="0px" y="0px"
	 viewBox="0 0 32 32" style="enable-background:new 0 0 32 32;" xml:space="preserve">
<g>
	<path d="M30.8,29.3H1.2c-0.7,0-1.2-0.5-1.2-1.1c0-0.5,0.5-1.1,1.2-1.1h29.6c0.7,0,1.1,0.5,1.1,1.1C31.9,28.8,31.4,29.3,30.8,29.3z"
		/>
	<path d="M30.8,17.2H1.2C0.5,17.2,0,16.7,0,16c0-0.7,0.5-1.2,1.2-1.2h29.6c0.7,0,1.1,0.5,1.1,1.2C31.9,16.7,31.4,17.2,30.8,17.2z"/>
	<path d="M30.8,5.1H1.2C0.5,5.1,0,4.6,0,3.9s0.5-1.2,1.2-1.2h29.6c0.7,0,1.1,0.5,1.1,1.2S31.4,5.1,30.8,5.1z"/>
</g>
</svg>
