<?xml version="1.0" encoding="utf-8"?>
<!DOCTYPE svg PUBLIC "-//W3C//DTD SVG 1.1//EN" "http://www.w3.org/Graphics/SVG/1.1/DTD/svg11.dtd">
<svg enable-background="new 0 0 18 18" viewBox="0 0 18 18" xmlns="http://www.w3.org/2000/svg">
	<path d="m9 0c-5 0-9 4-9 9s4 9 9 9 9-4 9-9-4-9-9-9zm0 4c.8 0 1.5.7 1.5 1.5s-.7 1.5-1.5 1.5-1.5-.7-1.5-1.5.7-1.5 1.5-1.5zm2 9.2c0 .2-.2.4-.4.4h-3.2c-.2 0-.4-.2-.4-.4v-.9c0-.2.2-.4.4-.4h.4v-2.3h-.4c-.2 0-.4-.2-.4-.4v-.9c0-.2.2-.4.4-.4h2.3c.2 0 .4.2.4.4v3.6h.4c.2 0 .4.2.4.4z"/>
</svg>