<?xml version="1.0" encoding="utf-8"?>
<!-- Generated by IcoMoon.io -->
<!DOCTYPE svg PUBLIC "-//W3C//DTD SVG 1.1//EN" "http://www.w3.org/Graphics/SVG/1.1/DTD/svg11.dtd">
<svg version="1.1" xmlns="http://www.w3.org/2000/svg" xmlns:xlink="http://www.w3.org/1999/xlink" width="1024" height="1024" viewBox="0 0 1024 1024">
<g id="icomoon-ignore">
</g>
<path d="M1023.885 298.557c0 8.905-3.447 16.776-10.284 23.613 0 0-478.046 478.046-478.046 478.046-6.837 6.837-14.708 10.284-23.612 10.284s-16.776-3.447-23.613-10.284c0 0-478.046-478.046-478.046-478.046-6.837-6.837-10.284-14.708-10.284-23.613s3.447-16.775 10.284-23.612c0 0 51.303-51.303 51.303-51.303 6.837-6.837 14.707-10.284 23.612-10.284s16.776 3.447 23.612 10.284c0 0 403.189 403.188 403.189 403.188s403.189-403.188 403.189-403.188c6.836-6.837 14.707-10.284 23.612-10.284s16.775 3.447 23.612 10.284c0 0 51.303 51.303 51.303 51.303 6.837 6.837 10.284 14.708 10.284 23.612 0 0-0.115 0-0.115 0"></path>
</svg>
