<svg xmlns="http://www.w3.org/2000/svg" width="32" height="32" viewBox="0 0 32 32">
    <path d="M30.23 6.713c-.793 1.17-1.76 2.156-2.893 2.98.012.17.02.42.02.75 0 1.545-.226 3.09-.682 4.632-.45 1.544-1.137 3.02-2.063 4.43-.925 1.414-2.02 2.67-3.294 3.757-1.275 1.087-2.806 1.956-4.606 2.606-1.794.65-3.72.97-5.762.975-3.225 0-6.175-.863-8.85-2.587.42.05.88.07 1.394.07 2.675 0 5.062-.82 7.156-2.463-1.25-.025-2.37-.406-3.356-1.15s-1.67-1.694-2.038-2.844c.394.055.756.086 1.088.086.513 0 1.02-.063 1.52-.194-1.332-.275-2.44-.938-3.314-1.988s-1.313-2.275-1.313-3.67v-.068c.806.45 1.675.694 2.606.73-.787-.524-1.412-1.205-1.875-2.05-.462-.843-.694-1.76-.694-2.75 0-1.043.263-2.018.788-2.905C5.5 6.837 7.256 8.256 9.318 9.318s4.275 1.656 6.63 1.775c-.093-.45-.143-.894-.143-1.32 0-1.593.562-2.955 1.687-4.074 1.125-1.125 2.48-1.688 4.075-1.688 1.67 0 3.07.606 4.213 1.82 1.294-.25 2.52-.714 3.656-1.395-.438 1.37-1.288 2.425-2.538 3.175 1.113-.125 2.22-.425 3.33-.9z"/>
</svg>