<?xml version="1.0" encoding="UTF-8"?>
<svg id="uuid-1c59b519-2421-4d4c-ac4b-77dc81b4e60c" data-name="Icon" xmlns="http://www.w3.org/2000/svg" viewBox="0 0 36 36">
  <path d="M28.55,7.74c-.06-.13-.17-.23-.29-.29-5.97-2.84-13.11-1.62-17.77,3.04-4.66,4.67-5.89,11.81-3.04,17.77,.06,.13,.17,.23,.29,.29,2.15,1.02,4.44,1.52,6.72,1.52,4.06,0,8.06-1.58,11.05-4.56,4.67-4.67,5.89-11.81,3.04-17.77Zm-1.03,.74c.95,2.06,1.37,4.27,1.3,6.45l-7.75-7.75c2.18-.07,4.39,.35,6.45,1.29ZM8.48,27.52c-.95-2.06-1.37-4.27-1.3-6.45l7.75,7.75c-2.18,.07-4.39-.35-6.45-1.3Zm16.15-2.89c-2.24,2.24-5.11,3.61-8.11,4.04-.02-.04-.04-.08-.07-.11L7.44,19.56s-.07-.05-.11-.07c.43-3.01,1.8-5.87,4.04-8.11,2.24-2.24,5.11-3.61,8.11-4.04,.02,.04,.04,.08,.07,.11l9,9s.07,.05,.11,.07c-.43,3.01-1.8,5.87-4.04,8.11Z"/>
  <path d="M21.88,15l.56-.56c.58-.58-.3-1.46-.88-.88l-.56,.56-1.56-1.56c-.58-.58-1.46,.3-.88,.88l1.56,1.56-2.12,2.12-1.56-1.56c-.58-.58-1.46,.3-.88,.88l1.56,1.56-2.12,2.12-1.56-1.56c-.58-.58-1.46,.3-.88,.88l1.56,1.56-.56,.56c-.58,.58,.3,1.46,.88,.88l.56-.56,1.56,1.56c.58,.58,1.46-.3,.88-.88l-1.56-1.56,2.12-2.12,1.56,1.56c.58,.58,1.46-.3,.88-.88l-1.56-1.56,2.12-2.12,1.56,1.56c.58,.58,1.46-.3,.88-.88l-1.56-1.56Z"/>
</svg>