<?xml version="1.0" encoding="utf-8"?>
<!-- Generated by IcoMoon.io -->
<!DOCTYPE svg PUBLIC "-//W3C//DTD SVG 1.1//EN" "http://www.w3.org/Graphics/SVG/1.1/DTD/svg11.dtd">
<svg version="1.1" xmlns="http://www.w3.org/2000/svg" xmlns:xlink="http://www.w3.org/1999/xlink" width="1024" height="1024" viewBox="0 0 1024 1024">
<g id="icomoon-ignore">
</g>
<path d="M810.709 85.094c0 8.906-3.448 16.777-10.285 23.615 0 0-403.234 403.234-403.234 403.234s403.234 403.233 403.234 403.233c6.837 6.838 10.285 14.709 10.285 23.615s-3.448 16.778-10.285 23.615c0 0-51.309 51.309-51.309 51.309-6.838 6.838-14.709 10.285-23.615 10.285s-16.777-3.447-23.615-10.285c0 0-478.1-478.1-478.1-478.1-6.838-6.838-10.285-14.709-10.285-23.615s3.447-16.777 10.285-23.615c0 0 478.1-478.1 478.1-478.1 6.838-6.838 14.709-10.285 23.615-10.285s16.777 3.447 23.615 10.285c0 0 51.309 51.309 51.309 51.309 6.837 6.837 10.285 14.709 10.285 23.615 0 0 0-0.115 0-0.115"></path>
</svg>
