<?xml version="1.0" encoding="utf-8"?>
<!DOCTYPE svg PUBLIC "-//W3C//DTD SVG 1.1//EN" "http://www.w3.org/Graphics/SVG/1.1/DTD/svg11.dtd">
<svg version="1.1" id="Layer_1" xmlns="http://www.w3.org/2000/svg" xmlns:xlink="http://www.w3.org/1999/xlink" width="32" height="32" x="0px" y="0px" viewBox="0 0 32 32">
<g>
	<path d="M19,15.6c2.3-1.5,3.8-4.1,3.8-7.1c0-4.8-3.9-8.5-8.5-8.5C9.5,0,5.7,3.9,5.7,8.5c0,3,1.5,5.6,3.8,7.1
		C3.9,17.9,0,23.6,0,30.7C0,31.3,0.5,32,1.3,32s1.3-0.5,1.3-1.3c0-7.4,5.4-13.5,11.8-13.5c6.6,0,11.8,6.1,11.8,13.5
		c0,0.7,0.5,1.3,1.3,1.3s1.3-0.5,1.3-1.3C28.6,23.8,24.5,17.9,19,15.6z M7.9,8.5c0-3.4,2.8-6.2,6.2-6.2s6.2,2.8,6.2,6.2
		s-2.8,6.1-6.2,6.1S7.9,12,7.9,8.5z"/>
</g>
</svg>
